<?xml version="1.0" encoding="UTF-8" standalone="no"?>
<!DOCTYPE svg PUBLIC "-//W3C//DTD SVG 1.1//EN"
 "http://www.w3.org/Graphics/SVG/1.1/DTD/svg11.dtd">
<!-- Generated by graphviz version 2.43.0 (0)
 -->
<!-- Title: ABLModulatedPowerLaw.H Pages: 1 -->
<svg width="1246pt" height="151pt"
 viewBox="0.00 0.00 1245.50 151.00" xmlns="http://www.w3.org/2000/svg" xmlns:xlink="http://www.w3.org/1999/xlink">
<g id="graph0" class="graph" transform="scale(1 1) rotate(0) translate(4 147)">
<title>ABLModulatedPowerLaw.H</title>
<polygon fill="white" stroke="transparent" points="-4,4 -4,-147 1241.5,-147 1241.5,4 -4,4"/>
<!-- Node1 -->
<g id="node1" class="node">
<title>Node1</title>
<g id="a_node1"><a xlink:title=" ">
<polygon fill="#bfbfbf" stroke="black" points="963.5,-123.5 963.5,-142.5 1109.5,-142.5 1109.5,-123.5 963.5,-123.5"/>
<text text-anchor="middle" x="1036.5" y="-130.5" font-family="Helvetica,sans-Serif" font-size="10.00">ABLModulatedPowerLaw.H</text>
</a>
</g>
</g>
<!-- Node2 -->
<g id="node2" class="node">
<title>Node2</title>
<g id="a_node2"><a xlink:href="_a_b_l_8_h.html" target="_top" xlink:title=" ">
<polygon fill="white" stroke="black" points="546.5,-67.5 546.5,-86.5 592.5,-86.5 592.5,-67.5 546.5,-67.5"/>
<text text-anchor="middle" x="569.5" y="-74.5" font-family="Helvetica,sans-Serif" font-size="10.00">ABL.H</text>
</a>
</g>
</g>
<!-- Node1&#45;&gt;Node2 -->
<g id="edge1" class="edge">
<title>Node1&#45;&gt;Node2</title>
<path fill="none" stroke="midnightblue" d="M953.25,-122.37C843.72,-109.71 657.53,-88.18 592.63,-80.67"/>
<polygon fill="midnightblue" stroke="midnightblue" points="952.94,-125.86 963.27,-123.53 953.74,-118.91 952.94,-125.86"/>
</g>
<!-- Node12 -->
<g id="node12" class="node">
<title>Node12</title>
<g id="a_node12"><a xlink:href="_a_b_l_fill_m_p_l_8_h.html" target="_top" xlink:title=" ">
<polygon fill="white" stroke="black" points="996.5,-67.5 996.5,-86.5 1076.5,-86.5 1076.5,-67.5 996.5,-67.5"/>
<text text-anchor="middle" x="1036.5" y="-74.5" font-family="Helvetica,sans-Serif" font-size="10.00">ABLFillMPL.H</text>
</a>
</g>
</g>
<!-- Node1&#45;&gt;Node12 -->
<g id="edge11" class="edge">
<title>Node1&#45;&gt;Node12</title>
<path fill="none" stroke="midnightblue" d="M1036.5,-112.8C1036.5,-103.91 1036.5,-93.78 1036.5,-86.75"/>
<polygon fill="midnightblue" stroke="midnightblue" points="1033,-113.08 1036.5,-123.08 1040,-113.08 1033,-113.08"/>
</g>
<!-- Node14 -->
<g id="node14" class="node">
<title>Node14</title>
<g id="a_node14"><a xlink:href="_a_b_l_modulated_power_law_8cpp.html" target="_top" xlink:title=" ">
<polygon fill="white" stroke="black" points="1081.5,-6 1081.5,-25 1237.5,-25 1237.5,-6 1081.5,-6"/>
<text text-anchor="middle" x="1159.5" y="-13" font-family="Helvetica,sans-Serif" font-size="10.00">ABLModulatedPowerLaw.cpp</text>
</a>
</g>
</g>
<!-- Node1&#45;&gt;Node14 -->
<g id="edge14" class="edge">
<title>Node1&#45;&gt;Node14</title>
<path fill="none" stroke="midnightblue" d="M1053.51,-116.52C1062.97,-107.87 1074.93,-96.89 1085.5,-87 1109.08,-64.94 1136.54,-38.61 1150.44,-25.24"/>
<polygon fill="midnightblue" stroke="midnightblue" points="1050.97,-114.1 1045.94,-123.42 1055.69,-119.27 1050.97,-114.1"/>
</g>
<!-- Node3 -->
<g id="node3" class="node">
<title>Node3</title>
<g id="a_node3"><a xlink:href="_a_b_l_forcing_8cpp.html" target="_top" xlink:title=" ">
<polygon fill="white" stroke="black" points="0,-6 0,-25 91,-25 91,-6 0,-6"/>
<text text-anchor="middle" x="45.5" y="-13" font-family="Helvetica,sans-Serif" font-size="10.00">ABLForcing.cpp</text>
</a>
</g>
</g>
<!-- Node2&#45;&gt;Node3 -->
<g id="edge2" class="edge">
<title>Node2&#45;&gt;Node3</title>
<path fill="none" stroke="midnightblue" d="M536.32,-74.67C459.26,-71.17 262.39,-59.91 100.5,-31 91.95,-29.47 82.77,-27.28 74.42,-25.06"/>
<polygon fill="midnightblue" stroke="midnightblue" points="536.24,-78.17 546.38,-75.11 536.55,-71.17 536.24,-78.17"/>
</g>
<!-- Node4 -->
<g id="node4" class="node">
<title>Node4</title>
<g id="a_node4"><a xlink:href="_a_b_l_mean_boussinesq_8cpp.html" target="_top" xlink:title=" ">
<polygon fill="white" stroke="black" points="109.5,-6 109.5,-25 247.5,-25 247.5,-6 109.5,-6"/>
<text text-anchor="middle" x="178.5" y="-13" font-family="Helvetica,sans-Serif" font-size="10.00">ABLMeanBoussinesq.cpp</text>
</a>
</g>
</g>
<!-- Node2&#45;&gt;Node4 -->
<g id="edge3" class="edge">
<title>Node2&#45;&gt;Node4</title>
<path fill="none" stroke="midnightblue" d="M536.36,-71.69C479.16,-64.15 358.23,-47.76 256.5,-31 245.49,-29.19 233.64,-27.07 222.58,-25.02"/>
<polygon fill="midnightblue" stroke="midnightblue" points="535.91,-75.16 546.28,-72.99 536.82,-68.22 535.91,-75.16"/>
</g>
<!-- Node5 -->
<g id="node5" class="node">
<title>Node5</title>
<g id="a_node5"><a xlink:href="_hurricane_forcing_8cpp.html" target="_top" xlink:title=" ">
<polygon fill="white" stroke="black" points="266,-6 266,-25 385,-25 385,-6 266,-6"/>
<text text-anchor="middle" x="325.5" y="-13" font-family="Helvetica,sans-Serif" font-size="10.00">HurricaneForcing.cpp</text>
</a>
</g>
</g>
<!-- Node2&#45;&gt;Node5 -->
<g id="edge4" class="edge">
<title>Node2&#45;&gt;Node5</title>
<path fill="none" stroke="midnightblue" d="M536.33,-67.91C490.31,-56.69 407.48,-36.49 360.51,-25.04"/>
<polygon fill="midnightblue" stroke="midnightblue" points="535.56,-71.33 546.1,-70.29 537.22,-64.53 535.56,-71.33"/>
</g>
<!-- Node6 -->
<g id="node6" class="node">
<title>Node6</title>
<g id="a_node6"><a xlink:href="helics_8cpp.html" target="_top" xlink:title=" ">
<polygon fill="white" stroke="black" points="403,-6 403,-25 468,-25 468,-6 403,-6"/>
<text text-anchor="middle" x="435.5" y="-13" font-family="Helvetica,sans-Serif" font-size="10.00">helics.cpp</text>
</a>
</g>
</g>
<!-- Node2&#45;&gt;Node6 -->
<g id="edge5" class="edge">
<title>Node2&#45;&gt;Node6</title>
<path fill="none" stroke="midnightblue" d="M540.96,-63.33C514.95,-51.78 477.24,-35.03 454.66,-25.01"/>
<polygon fill="midnightblue" stroke="midnightblue" points="539.74,-66.62 550.3,-67.48 542.58,-60.22 539.74,-66.62"/>
</g>
<!-- Node7 -->
<g id="node7" class="node">
<title>Node7</title>
<g id="a_node7"><a xlink:href="incflo_8cpp.html" target="_top" xlink:title=" ">
<polygon fill="white" stroke="black" points="486,-6 486,-25 549,-25 549,-6 486,-6"/>
<text text-anchor="middle" x="517.5" y="-13" font-family="Helvetica,sans-Serif" font-size="10.00">incflo.cpp</text>
</a>
</g>
</g>
<!-- Node2&#45;&gt;Node7 -->
<g id="edge6" class="edge">
<title>Node2&#45;&gt;Node7</title>
<path fill="none" stroke="midnightblue" d="M555.23,-59.67C545.42,-48.45 532.81,-34.02 524.94,-25.01"/>
<polygon fill="midnightblue" stroke="midnightblue" points="552.83,-62.25 562.05,-67.48 558.1,-57.64 552.83,-62.25"/>
</g>
<!-- Node8 -->
<g id="node8" class="node">
<title>Node8</title>
<g id="a_node8"><a xlink:href="incflo__apply__nodal__projection_8cpp.html" target="_top" xlink:title=" ">
<polygon fill="white" stroke="black" points="567,-0.5 567,-30.5 674,-30.5 674,-0.5 567,-0.5"/>
<text text-anchor="start" x="575" y="-18.5" font-family="Helvetica,sans-Serif" font-size="10.00">incflo_apply_nodal</text>
<text text-anchor="middle" x="620.5" y="-7.5" font-family="Helvetica,sans-Serif" font-size="10.00">_projection.cpp</text>
</a>
</g>
</g>
<!-- Node2&#45;&gt;Node8 -->
<g id="edge7" class="edge">
<title>Node2&#45;&gt;Node8</title>
<path fill="none" stroke="midnightblue" d="M583.38,-59.81C591.23,-50.65 600.95,-39.3 608.48,-30.52"/>
<polygon fill="midnightblue" stroke="midnightblue" points="580.66,-57.6 576.81,-67.48 585.97,-62.16 580.66,-57.6"/>
</g>
<!-- Node9 -->
<g id="node9" class="node">
<title>Node9</title>
<g id="a_node9"><a xlink:href="init_8cpp.html" target="_top" xlink:title=" ">
<polygon fill="white" stroke="black" points="692,-6 692,-25 745,-25 745,-6 692,-6"/>
<text text-anchor="middle" x="718.5" y="-13" font-family="Helvetica,sans-Serif" font-size="10.00">init.cpp</text>
</a>
</g>
</g>
<!-- Node2&#45;&gt;Node9 -->
<g id="edge8" class="edge">
<title>Node2&#45;&gt;Node9</title>
<path fill="none" stroke="midnightblue" d="M600.63,-63.64C623.34,-54.62 654.84,-42.08 682.5,-31 687.25,-29.1 692.36,-27.04 697.19,-25.1"/>
<polygon fill="midnightblue" stroke="midnightblue" points="599.17,-60.45 591.17,-67.4 601.76,-66.96 599.17,-60.45"/>
</g>
<!-- Node10 -->
<g id="node10" class="node">
<title>Node10</title>
<g id="a_node10"><a xlink:href="_a_b_l_8cpp.html" target="_top" xlink:title=" ">
<polygon fill="white" stroke="black" points="763.5,-6 763.5,-25 819.5,-25 819.5,-6 763.5,-6"/>
<text text-anchor="middle" x="791.5" y="-13" font-family="Helvetica,sans-Serif" font-size="10.00">ABL.cpp</text>
</a>
</g>
</g>
<!-- Node2&#45;&gt;Node10 -->
<g id="edge9" class="edge">
<title>Node2&#45;&gt;Node10</title>
<path fill="none" stroke="midnightblue" d="M602.95,-69.13C640.09,-61.21 701.64,-47.17 753.5,-31 759.03,-29.28 764.91,-27.17 770.36,-25.1"/>
<polygon fill="midnightblue" stroke="midnightblue" points="601.76,-65.81 592.7,-71.3 603.21,-72.66 601.76,-65.81"/>
</g>
<!-- Node11 -->
<g id="node11" class="node">
<title>Node11</title>
<g id="a_node11"><a xlink:href="_a_b_l_wall_function_8cpp.html" target="_top" xlink:title=" ">
<polygon fill="white" stroke="black" points="838,-6 838,-25 955,-25 955,-6 838,-6"/>
<text text-anchor="middle" x="896.5" y="-13" font-family="Helvetica,sans-Serif" font-size="10.00">ABLWallFunction.cpp</text>
</a>
</g>
</g>
<!-- Node2&#45;&gt;Node11 -->
<g id="edge10" class="edge">
<title>Node2&#45;&gt;Node11</title>
<path fill="none" stroke="midnightblue" d="M602.88,-70.62C652.28,-62.56 747.72,-46.62 828.5,-31 837.98,-29.17 848.18,-27.06 857.72,-25.04"/>
<polygon fill="midnightblue" stroke="midnightblue" points="602.08,-67.2 592.77,-72.26 603.2,-74.11 602.08,-67.2"/>
</g>
<!-- Node13 -->
<g id="node13" class="node">
<title>Node13</title>
<g id="a_node13"><a xlink:href="_a_b_l_fill_m_p_l_8cpp.html" target="_top" xlink:title=" ">
<polygon fill="white" stroke="black" points="973.5,-6 973.5,-25 1063.5,-25 1063.5,-6 973.5,-6"/>
<text text-anchor="middle" x="1018.5" y="-13" font-family="Helvetica,sans-Serif" font-size="10.00">ABLFillMPL.cpp</text>
</a>
</g>
</g>
<!-- Node12&#45;&gt;Node13 -->
<g id="edge12" class="edge">
<title>Node12&#45;&gt;Node13</title>
<path fill="none" stroke="midnightblue" d="M1030.95,-57.66C1027.66,-46.77 1023.64,-33.49 1021.07,-25.01"/>
<polygon fill="midnightblue" stroke="midnightblue" points="1027.68,-58.92 1033.92,-67.48 1034.38,-56.89 1027.68,-58.92"/>
</g>
<!-- Node12&#45;&gt;Node14 -->
<g id="edge13" class="edge">
<title>Node12&#45;&gt;Node14</title>
<path fill="none" stroke="midnightblue" d="M1063.33,-63.02C1087.19,-51.48 1121.37,-34.94 1141.91,-25.01"/>
<polygon fill="midnightblue" stroke="midnightblue" points="1061.6,-59.97 1054.12,-67.48 1064.65,-66.27 1061.6,-59.97"/>
</g>
</g>
</svg>
