<?xml version="1.0" encoding="UTF-8" standalone="no"?>
<!DOCTYPE svg PUBLIC "-//W3C//DTD SVG 1.1//EN"
 "http://www.w3.org/Graphics/SVG/1.1/DTD/svg11.dtd">
<!-- Generated by graphviz version 2.43.0 (0)
 -->
<!-- Title: ABL.H Pages: 1 -->
<svg width="963pt" height="95pt"
 viewBox="0.00 0.00 963.00 95.00" xmlns="http://www.w3.org/2000/svg" xmlns:xlink="http://www.w3.org/1999/xlink">
<g id="graph0" class="graph" transform="scale(1 1) rotate(0) translate(4 91)">
<title>ABL.H</title>
<polygon fill="white" stroke="transparent" points="-4,4 -4,-91 959,-91 959,4 -4,4"/>
<!-- Node1 -->
<g id="node1" class="node">
<title>Node1</title>
<g id="a_node1"><a xlink:title=" ">
<polygon fill="#bfbfbf" stroke="black" points="494.5,-67.5 494.5,-86.5 540.5,-86.5 540.5,-67.5 494.5,-67.5"/>
<text text-anchor="middle" x="517.5" y="-74.5" font-family="Helvetica,sans-Serif" font-size="10.00">ABL.H</text>
</a>
</g>
</g>
<!-- Node2 -->
<g id="node2" class="node">
<title>Node2</title>
<g id="a_node2"><a xlink:href="_a_b_l_forcing_8cpp.html" target="_top" xlink:title=" ">
<polygon fill="white" stroke="black" points="0,-6 0,-25 91,-25 91,-6 0,-6"/>
<text text-anchor="middle" x="45.5" y="-13" font-family="Helvetica,sans-Serif" font-size="10.00">ABLForcing.cpp</text>
</a>
</g>
</g>
<!-- Node1&#45;&gt;Node2 -->
<g id="edge1" class="edge">
<title>Node1&#45;&gt;Node2</title>
<path fill="none" stroke="midnightblue" d="M484.14,-74.11C413.1,-69.7 241.83,-57.1 100.5,-31 92.05,-29.44 82.99,-27.27 74.72,-25.07"/>
<polygon fill="midnightblue" stroke="midnightblue" points="484.07,-77.61 494.27,-74.72 484.5,-70.62 484.07,-77.61"/>
</g>
<!-- Node3 -->
<g id="node3" class="node">
<title>Node3</title>
<g id="a_node3"><a xlink:href="_a_b_l_mean_boussinesq_8cpp.html" target="_top" xlink:title=" ">
<polygon fill="white" stroke="black" points="109.5,-6 109.5,-25 247.5,-25 247.5,-6 109.5,-6"/>
<text text-anchor="middle" x="178.5" y="-13" font-family="Helvetica,sans-Serif" font-size="10.00">ABLMeanBoussinesq.cpp</text>
</a>
</g>
</g>
<!-- Node1&#45;&gt;Node3 -->
<g id="edge2" class="edge">
<title>Node1&#45;&gt;Node3</title>
<path fill="none" stroke="midnightblue" d="M484.3,-70.42C434.69,-62.05 338.3,-45.65 256.5,-31 245.92,-29.11 234.55,-27.02 223.85,-25.03"/>
<polygon fill="midnightblue" stroke="midnightblue" points="484,-73.92 494.44,-72.13 485.16,-67.01 484,-73.92"/>
</g>
<!-- Node4 -->
<g id="node4" class="node">
<title>Node4</title>
<g id="a_node4"><a xlink:href="_hurricane_forcing_8cpp.html" target="_top" xlink:title=" ">
<polygon fill="white" stroke="black" points="266,-6 266,-25 385,-25 385,-6 266,-6"/>
<text text-anchor="middle" x="325.5" y="-13" font-family="Helvetica,sans-Serif" font-size="10.00">HurricaneForcing.cpp</text>
</a>
</g>
</g>
<!-- Node1&#45;&gt;Node4 -->
<g id="edge3" class="edge">
<title>Node1&#45;&gt;Node4</title>
<path fill="none" stroke="midnightblue" d="M484.51,-65.78C447.41,-54.28 387.81,-35.81 353.08,-25.05"/>
<polygon fill="midnightblue" stroke="midnightblue" points="483.75,-69.21 494.34,-68.82 485.82,-62.52 483.75,-69.21"/>
</g>
<!-- Node5 -->
<g id="node5" class="node">
<title>Node5</title>
<g id="a_node5"><a xlink:href="helics_8cpp.html" target="_top" xlink:title=" ">
<polygon fill="white" stroke="black" points="403,-6 403,-25 468,-25 468,-6 403,-6"/>
<text text-anchor="middle" x="435.5" y="-13" font-family="Helvetica,sans-Serif" font-size="10.00">helics.cpp</text>
</a>
</g>
</g>
<!-- Node1&#45;&gt;Node5 -->
<g id="edge4" class="edge">
<title>Node1&#45;&gt;Node5</title>
<path fill="none" stroke="midnightblue" d="M497.23,-61.29C481.5,-49.88 460.25,-34.46 447.23,-25.01"/>
<polygon fill="midnightblue" stroke="midnightblue" points="495.6,-64.43 505.75,-67.48 499.71,-58.77 495.6,-64.43"/>
</g>
<!-- Node6 -->
<g id="node6" class="node">
<title>Node6</title>
<g id="a_node6"><a xlink:href="incflo_8cpp.html" target="_top" xlink:title=" ">
<polygon fill="white" stroke="black" points="486,-6 486,-25 549,-25 549,-6 486,-6"/>
<text text-anchor="middle" x="517.5" y="-13" font-family="Helvetica,sans-Serif" font-size="10.00">incflo.cpp</text>
</a>
</g>
</g>
<!-- Node1&#45;&gt;Node6 -->
<g id="edge5" class="edge">
<title>Node1&#45;&gt;Node6</title>
<path fill="none" stroke="midnightblue" d="M517.5,-57.32C517.5,-46.5 517.5,-33.4 517.5,-25.01"/>
<polygon fill="midnightblue" stroke="midnightblue" points="514,-57.48 517.5,-67.48 521,-57.48 514,-57.48"/>
</g>
<!-- Node7 -->
<g id="node7" class="node">
<title>Node7</title>
<g id="a_node7"><a xlink:href="incflo__apply__nodal__projection_8cpp.html" target="_top" xlink:title=" ">
<polygon fill="white" stroke="black" points="567,-0.5 567,-30.5 674,-30.5 674,-0.5 567,-0.5"/>
<text text-anchor="start" x="575" y="-18.5" font-family="Helvetica,sans-Serif" font-size="10.00">incflo_apply_nodal</text>
<text text-anchor="middle" x="620.5" y="-7.5" font-family="Helvetica,sans-Serif" font-size="10.00">_projection.cpp</text>
</a>
</g>
</g>
<!-- Node1&#45;&gt;Node7 -->
<g id="edge6" class="edge">
<title>Node1&#45;&gt;Node7</title>
<path fill="none" stroke="midnightblue" d="M541.26,-62.28C557.74,-52.75 579.63,-40.11 596.22,-30.52"/>
<polygon fill="midnightblue" stroke="midnightblue" points="539.17,-59.44 532.26,-67.48 542.67,-65.5 539.17,-59.44"/>
</g>
<!-- Node8 -->
<g id="node8" class="node">
<title>Node8</title>
<g id="a_node8"><a xlink:href="init_8cpp.html" target="_top" xlink:title=" ">
<polygon fill="white" stroke="black" points="692,-6 692,-25 745,-25 745,-6 692,-6"/>
<text text-anchor="middle" x="718.5" y="-13" font-family="Helvetica,sans-Serif" font-size="10.00">init.cpp</text>
</a>
</g>
</g>
<!-- Node1&#45;&gt;Node8 -->
<g id="edge7" class="edge">
<title>Node1&#45;&gt;Node8</title>
<path fill="none" stroke="midnightblue" d="M550.4,-68.4C584.17,-60.29 638.04,-46.51 683.5,-31 688.6,-29.26 694.03,-27.15 699.05,-25.08"/>
<polygon fill="midnightblue" stroke="midnightblue" points="549.52,-65.01 540.6,-70.73 551.14,-71.82 549.52,-65.01"/>
</g>
<!-- Node9 -->
<g id="node9" class="node">
<title>Node9</title>
<g id="a_node9"><a xlink:href="_a_b_l_8cpp.html" target="_top" xlink:title=" ">
<polygon fill="white" stroke="black" points="763.5,-6 763.5,-25 819.5,-25 819.5,-6 763.5,-6"/>
<text text-anchor="middle" x="791.5" y="-13" font-family="Helvetica,sans-Serif" font-size="10.00">ABL.cpp</text>
</a>
</g>
</g>
<!-- Node1&#45;&gt;Node9 -->
<g id="edge8" class="edge">
<title>Node1&#45;&gt;Node9</title>
<path fill="none" stroke="midnightblue" d="M550.77,-71.67C597.05,-65.21 683.19,-51.55 754.5,-31 760.2,-29.36 766.25,-27.18 771.76,-25.02"/>
<polygon fill="midnightblue" stroke="midnightblue" points="550.14,-68.23 540.71,-73.05 551.09,-75.16 550.14,-68.23"/>
</g>
<!-- Node10 -->
<g id="node10" class="node">
<title>Node10</title>
<g id="a_node10"><a xlink:href="_a_b_l_wall_function_8cpp.html" target="_top" xlink:title=" ">
<polygon fill="white" stroke="black" points="838,-6 838,-25 955,-25 955,-6 838,-6"/>
<text text-anchor="middle" x="896.5" y="-13" font-family="Helvetica,sans-Serif" font-size="10.00">ABLWallFunction.cpp</text>
</a>
</g>
</g>
<!-- Node1&#45;&gt;Node10 -->
<g id="edge9" class="edge">
<title>Node1&#45;&gt;Node10</title>
<path fill="none" stroke="midnightblue" d="M550.83,-71.92C607.88,-64.76 727.85,-48.99 828.5,-31 838.36,-29.24 848.98,-27.09 858.82,-25"/>
<polygon fill="midnightblue" stroke="midnightblue" points="550.09,-68.48 540.6,-73.19 550.96,-75.43 550.09,-68.48"/>
</g>
</g>
</svg>
