<?xml version="1.0" encoding="UTF-8" standalone="no"?>
<!DOCTYPE svg PUBLIC "-//W3C//DTD SVG 1.1//EN"
 "http://www.w3.org/Graphics/SVG/1.1/DTD/svg11.dtd">
<!-- Generated by graphviz version 2.43.0 (0)
 -->
<!-- Title: ABLFieldInit.H Pages: 1 -->
<svg width="963pt" height="151pt"
 viewBox="0.00 0.00 962.50 151.00" xmlns="http://www.w3.org/2000/svg" xmlns:xlink="http://www.w3.org/1999/xlink">
<g id="graph0" class="graph" transform="scale(1 1) rotate(0) translate(4 147)">
<title>ABLFieldInit.H</title>
<polygon fill="white" stroke="transparent" points="-4,4 -4,-147 958.5,-147 958.5,4 -4,4"/>
<!-- Node1 -->
<g id="node1" class="node">
<title>Node1</title>
<g id="a_node1"><a xlink:title=" ">
<polygon fill="#bfbfbf" stroke="black" points="412.5,-123.5 412.5,-142.5 497.5,-142.5 497.5,-123.5 412.5,-123.5"/>
<text text-anchor="middle" x="455" y="-130.5" font-family="Helvetica,sans-Serif" font-size="10.00">ABLFieldInit.H</text>
</a>
</g>
</g>
<!-- Node2 -->
<g id="node2" class="node">
<title>Node2</title>
<g id="a_node2"><a xlink:href="_a_b_l_8cpp.html" target="_top" xlink:title=" ">
<polygon fill="white" stroke="black" points="0,-6 0,-25 56,-25 56,-6 0,-6"/>
<text text-anchor="middle" x="28" y="-13" font-family="Helvetica,sans-Serif" font-size="10.00">ABL.cpp</text>
</a>
</g>
</g>
<!-- Node1&#45;&gt;Node2 -->
<g id="edge1" class="edge">
<title>Node1&#45;&gt;Node2</title>
<path fill="none" stroke="midnightblue" d="M405.77,-121.25C331.27,-104.54 185.74,-70.14 65,-31 59.62,-29.26 53.89,-27.14 48.58,-25.07"/>
<polygon fill="midnightblue" stroke="midnightblue" points="405.28,-124.73 415.81,-123.49 406.81,-117.9 405.28,-124.73"/>
</g>
<!-- Node3 -->
<g id="node3" class="node">
<title>Node3</title>
<g id="a_node3"><a xlink:href="_a_b_l_8_h.html" target="_top" xlink:title=" ">
<polygon fill="white" stroke="black" points="432,-67.5 432,-86.5 478,-86.5 478,-67.5 432,-67.5"/>
<text text-anchor="middle" x="455" y="-74.5" font-family="Helvetica,sans-Serif" font-size="10.00">ABL.H</text>
</a>
</g>
</g>
<!-- Node1&#45;&gt;Node3 -->
<g id="edge2" class="edge">
<title>Node1&#45;&gt;Node3</title>
<path fill="none" stroke="midnightblue" d="M455,-112.8C455,-103.91 455,-93.78 455,-86.75"/>
<polygon fill="midnightblue" stroke="midnightblue" points="451.5,-113.08 455,-123.08 458.5,-113.08 451.5,-113.08"/>
</g>
<!-- Node12 -->
<g id="node12" class="node">
<title>Node12</title>
<g id="a_node12"><a xlink:href="_a_b_l_field_init_8cpp.html" target="_top" xlink:title=" ">
<polygon fill="white" stroke="black" points="496.5,-67.5 496.5,-86.5 591.5,-86.5 591.5,-67.5 496.5,-67.5"/>
<text text-anchor="middle" x="544" y="-74.5" font-family="Helvetica,sans-Serif" font-size="10.00">ABLFieldInit.cpp</text>
</a>
</g>
</g>
<!-- Node1&#45;&gt;Node12 -->
<g id="edge12" class="edge">
<title>Node1&#45;&gt;Node12</title>
<path fill="none" stroke="midnightblue" d="M478.24,-117.9C494.56,-108 515.87,-95.07 529.74,-86.65"/>
<polygon fill="midnightblue" stroke="midnightblue" points="476.03,-115.14 469.3,-123.32 479.66,-121.13 476.03,-115.14"/>
</g>
<!-- Node3&#45;&gt;Node2 -->
<g id="edge10" class="edge">
<title>Node3&#45;&gt;Node2</title>
<path fill="none" stroke="midnightblue" d="M421.65,-75.05C353.62,-72.47 194.32,-63.22 65,-31 59.11,-29.53 52.9,-27.36 47.28,-25.14"/>
<polygon fill="midnightblue" stroke="midnightblue" points="421.65,-78.55 431.77,-75.41 421.9,-71.55 421.65,-78.55"/>
</g>
<!-- Node4 -->
<g id="node4" class="node">
<title>Node4</title>
<g id="a_node4"><a xlink:href="_a_b_l_forcing_8cpp.html" target="_top" xlink:title=" ">
<polygon fill="white" stroke="black" points="74.5,-6 74.5,-25 165.5,-25 165.5,-6 74.5,-6"/>
<text text-anchor="middle" x="120" y="-13" font-family="Helvetica,sans-Serif" font-size="10.00">ABLForcing.cpp</text>
</a>
</g>
</g>
<!-- Node3&#45;&gt;Node4 -->
<g id="edge3" class="edge">
<title>Node3&#45;&gt;Node4</title>
<path fill="none" stroke="midnightblue" d="M421.9,-71.76C369.31,-64.77 263.55,-49.74 175,-31 166.88,-29.28 158.17,-27.13 150.13,-25.02"/>
<polygon fill="midnightblue" stroke="midnightblue" points="421.62,-75.25 431.99,-73.08 422.54,-68.31 421.62,-75.25"/>
</g>
<!-- Node5 -->
<g id="node5" class="node">
<title>Node5</title>
<g id="a_node5"><a xlink:href="_a_b_l_mean_boussinesq_8cpp.html" target="_top" xlink:title=" ">
<polygon fill="white" stroke="black" points="184,-6 184,-25 322,-25 322,-6 184,-6"/>
<text text-anchor="middle" x="253" y="-13" font-family="Helvetica,sans-Serif" font-size="10.00">ABLMeanBoussinesq.cpp</text>
</a>
</g>
</g>
<!-- Node3&#45;&gt;Node5 -->
<g id="edge4" class="edge">
<title>Node3&#45;&gt;Node5</title>
<path fill="none" stroke="midnightblue" d="M422.05,-66.29C383.18,-54.84 319.17,-35.99 282.07,-25.06"/>
<polygon fill="midnightblue" stroke="midnightblue" points="421.25,-69.71 431.83,-69.17 423.22,-62.99 421.25,-69.71"/>
</g>
<!-- Node6 -->
<g id="node6" class="node">
<title>Node6</title>
<g id="a_node6"><a xlink:href="_hurricane_forcing_8cpp.html" target="_top" xlink:title=" ">
<polygon fill="white" stroke="black" points="340.5,-6 340.5,-25 459.5,-25 459.5,-6 340.5,-6"/>
<text text-anchor="middle" x="400" y="-13" font-family="Helvetica,sans-Serif" font-size="10.00">HurricaneForcing.cpp</text>
</a>
</g>
</g>
<!-- Node3&#45;&gt;Node6 -->
<g id="edge5" class="edge">
<title>Node3&#45;&gt;Node6</title>
<path fill="none" stroke="midnightblue" d="M440.21,-60C429.8,-48.74 416.27,-34.1 407.87,-25.01"/>
<polygon fill="midnightblue" stroke="midnightblue" points="437.76,-62.51 447.12,-67.48 442.9,-57.76 437.76,-62.51"/>
</g>
<!-- Node7 -->
<g id="node7" class="node">
<title>Node7</title>
<g id="a_node7"><a xlink:href="helics_8cpp.html" target="_top" xlink:title=" ">
<polygon fill="white" stroke="black" points="477.5,-6 477.5,-25 542.5,-25 542.5,-6 477.5,-6"/>
<text text-anchor="middle" x="510" y="-13" font-family="Helvetica,sans-Serif" font-size="10.00">helics.cpp</text>
</a>
</g>
</g>
<!-- Node3&#45;&gt;Node7 -->
<g id="edge6" class="edge">
<title>Node3&#45;&gt;Node7</title>
<path fill="none" stroke="midnightblue" d="M469.79,-60C480.2,-48.74 493.73,-34.1 502.13,-25.01"/>
<polygon fill="midnightblue" stroke="midnightblue" points="467.1,-57.76 462.88,-67.48 472.24,-62.51 467.1,-57.76"/>
</g>
<!-- Node8 -->
<g id="node8" class="node">
<title>Node8</title>
<g id="a_node8"><a xlink:href="incflo_8cpp.html" target="_top" xlink:title=" ">
<polygon fill="white" stroke="black" points="560.5,-6 560.5,-25 623.5,-25 623.5,-6 560.5,-6"/>
<text text-anchor="middle" x="592" y="-13" font-family="Helvetica,sans-Serif" font-size="10.00">incflo.cpp</text>
</a>
</g>
</g>
<!-- Node3&#45;&gt;Node8 -->
<g id="edge7" class="edge">
<title>Node3&#45;&gt;Node8</title>
<path fill="none" stroke="midnightblue" d="M483.83,-63.48C510.44,-51.92 549.23,-35.08 572.41,-25.01"/>
<polygon fill="midnightblue" stroke="midnightblue" points="482.41,-60.28 474.63,-67.48 485.2,-66.7 482.41,-60.28"/>
</g>
<!-- Node9 -->
<g id="node9" class="node">
<title>Node9</title>
<g id="a_node9"><a xlink:href="incflo__apply__nodal__projection_8cpp.html" target="_top" xlink:title=" ">
<polygon fill="white" stroke="black" points="641.5,-0.5 641.5,-30.5 748.5,-30.5 748.5,-0.5 641.5,-0.5"/>
<text text-anchor="start" x="649.5" y="-18.5" font-family="Helvetica,sans-Serif" font-size="10.00">incflo_apply_nodal</text>
<text text-anchor="middle" x="695" y="-7.5" font-family="Helvetica,sans-Serif" font-size="10.00">_projection.cpp</text>
</a>
</g>
</g>
<!-- Node3&#45;&gt;Node9 -->
<g id="edge8" class="edge">
<title>Node3&#45;&gt;Node9</title>
<path fill="none" stroke="midnightblue" d="M487.7,-67.08C487.8,-67.05 487.9,-67.03 488,-67 539.93,-53.59 599.44,-39.17 641.29,-29.18"/>
<polygon fill="midnightblue" stroke="midnightblue" points="486.83,-63.69 478.06,-69.63 488.62,-70.45 486.83,-63.69"/>
</g>
<!-- Node10 -->
<g id="node10" class="node">
<title>Node10</title>
<g id="a_node10"><a xlink:href="init_8cpp.html" target="_top" xlink:title=" ">
<polygon fill="white" stroke="black" points="766.5,-6 766.5,-25 819.5,-25 819.5,-6 766.5,-6"/>
<text text-anchor="middle" x="793" y="-13" font-family="Helvetica,sans-Serif" font-size="10.00">init.cpp</text>
</a>
</g>
</g>
<!-- Node3&#45;&gt;Node10 -->
<g id="edge9" class="edge">
<title>Node3&#45;&gt;Node10</title>
<path fill="none" stroke="midnightblue" d="M488.3,-67.24C608.54,-44.01 644.17,-61.6 758,-31 763.59,-29.5 769.47,-27.31 774.79,-25.1"/>
<polygon fill="midnightblue" stroke="midnightblue" points="487.47,-63.84 478.34,-69.22 488.83,-70.7 487.47,-63.84"/>
</g>
<!-- Node11 -->
<g id="node11" class="node">
<title>Node11</title>
<g id="a_node11"><a xlink:href="_a_b_l_wall_function_8cpp.html" target="_top" xlink:title=" ">
<polygon fill="white" stroke="black" points="837.5,-6 837.5,-25 954.5,-25 954.5,-6 837.5,-6"/>
<text text-anchor="middle" x="896" y="-13" font-family="Helvetica,sans-Serif" font-size="10.00">ABLWallFunction.cpp</text>
</a>
</g>
</g>
<!-- Node3&#45;&gt;Node11 -->
<g id="edge11" class="edge">
<title>Node3&#45;&gt;Node11</title>
<path fill="none" stroke="midnightblue" d="M488.44,-67.25C639.58,-39.54 681.76,-54.63 829,-31 839.11,-29.38 849.98,-27.21 859.97,-25.04"/>
<polygon fill="midnightblue" stroke="midnightblue" points="487.52,-63.86 478.33,-69.14 488.8,-70.74 487.52,-63.86"/>
</g>
</g>
</svg>
