<?xml version="1.0" encoding="UTF-8" standalone="no"?>
<!DOCTYPE svg PUBLIC "-//W3C//DTD SVG 1.1//EN"
 "http://www.w3.org/Graphics/SVG/1.1/DTD/svg11.dtd">
<!-- Generated by graphviz version 2.43.0 (0)
 -->
<!-- Title: ABLFieldInit.cpp Pages: 1 -->
<!--zoomable 263 -->
<svg id="main" version="1.1" xmlns="http://www.w3.org/2000/svg" xmlns:xlink="http://www.w3.org/1999/xlink" xml:space="preserve" onload="init(evt)">
<style type="text/css"><![CDATA[
.edge:hover path { stroke: red; }
.edge:hover polygon { stroke: red; fill: red; }
]]></style>
<script type="text/javascript"><![CDATA[
var edges = document.getElementsByTagName('g');
if (edges && edges.length) {
  for (var i=0;i<edges.length;i++) {
    if (edges[i].id.substr(0,4)=='edge') {
      edges[i].setAttribute('class','edge');
    }
  }
}
]]></script>
        <defs>
                <circle id="rim" cx="0" cy="0" r="7"/>
                <circle id="rim2" cx="0" cy="0" r="3.5"/>
                <g id="zoomPlus">
                        <use xlink:href="#rim" fill="#404040">
                                <set attributeName="fill" to="#808080" begin="zoomplus.mouseover" end="zoomplus.mouseout"/>
                        </use>
                        <path d="M-4,0h8M0,-4v8" fill="none" stroke="white" stroke-width="1.5" pointer-events="none"/>
                </g>
                <g id="zoomMin">
                        <use xlink:href="#rim" fill="#404040">
                                <set attributeName="fill" to="#808080" begin="zoomminus.mouseover" end="zoomminus.mouseout"/>
                        </use>
                        <path d="M-4,0h8" fill="none" stroke="white" stroke-width="1.5" pointer-events="none"/>
                </g>
                <g id="dirArrow">
                        <path fill="none" stroke="white" stroke-width="1.5" d="M0,-3.0v7 M-2.5,-0.5L0,-3.0L2.5,-0.5"/>
                </g>
               <g id="resetDef">
                       <use xlink:href="#rim2" fill="#404040">
                               <set attributeName="fill" to="#808080" begin="reset.mouseover" end="reset.mouseout"/>
                       </use>
               </g>
        </defs>

<script type="text/javascript">
var viewWidth = 1060;
var viewHeight = 263;
var sectionId = 'dynsection-0';
</script>
<script xlink:href="svgpan.js"/>
<svg id="graph" class="graph">
<g id="viewport">
<title>ABLFieldInit.cpp</title>
<polygon fill="white" stroke="transparent" points="-4,4 -4,-259 1056.4,-259 1056.4,4 -4,4"/>
<!-- Node1 -->
<g id="node1" class="node">
<title>Node1</title>
<g id="a_node1"><a xlink:title=" ">
<polygon fill="#bfbfbf" stroke="black" points="74.5,-235.5 74.5,-254.5 169.5,-254.5 169.5,-235.5 74.5,-235.5"/>
<text text-anchor="middle" x="122" y="-242.5" font-family="Helvetica,sans-Serif" font-size="10.00">ABLFieldInit.cpp</text>
</a>
</g>
</g>
<!-- Node2 -->
<g id="node2" class="node">
<title>Node2</title>
<g id="a_node2"><a xlink:title=" ">
<polygon fill="white" stroke="#bfbfbf" points="18.5,-112.5 18.5,-131.5 65.5,-131.5 65.5,-112.5 18.5,-112.5"/>
<text text-anchor="middle" x="42" y="-119.5" font-family="Helvetica,sans-Serif" font-size="10.00">cmath</text>
</a>
</g>
</g>
<!-- Node1&#45;&gt;Node2 -->
<g id="edge1" class="edge">
<title>Node1&#45;&gt;Node2</title>
<path fill="none" stroke="midnightblue" d="M104.38,-235.37C90.54,-227.69 71.84,-215.18 61,-199 49.56,-181.9 45,-158.47 43.19,-142.17"/>
<polygon fill="midnightblue" stroke="midnightblue" points="46.64,-141.41 42.3,-131.74 39.67,-142 46.64,-141.41"/>
</g>
<!-- Node3 -->
<g id="node3" class="node">
<title>Node3</title>
<g id="a_node3"><a xlink:href="_a_b_l_field_init_8_h.html" target="_top" xlink:title=" ">
<polygon fill="white" stroke="black" points="311,-168.5 311,-198.5 439,-198.5 439,-168.5 311,-168.5"/>
<text text-anchor="start" x="319" y="-186.5" font-family="Helvetica,sans-Serif" font-size="10.00">amr&#45;wind/wind_energy</text>
<text text-anchor="middle" x="375" y="-175.5" font-family="Helvetica,sans-Serif" font-size="10.00">/ABLFieldInit.H</text>
</a>
</g>
</g>
<!-- Node1&#45;&gt;Node3 -->
<g id="edge2" class="edge">
<title>Node1&#45;&gt;Node3</title>
<path fill="none" stroke="midnightblue" d="M158.25,-235.48C196.52,-226.48 257.78,-212.07 305.43,-200.86"/>
<polygon fill="midnightblue" stroke="midnightblue" points="306.44,-204.22 315.38,-198.52 304.84,-197.41 306.44,-204.22"/>
</g>
<!-- Node11 -->
<g id="node11" class="node">
<title>Node11</title>
<g id="a_node11"><a xlink:title=" ">
<polygon fill="white" stroke="#bfbfbf" points="113.5,-56.5 113.5,-75.5 200.5,-75.5 200.5,-56.5 113.5,-56.5"/>
<text text-anchor="middle" x="157" y="-63.5" font-family="Helvetica,sans-Serif" font-size="10.00">AMReX_Gpu.H</text>
</a>
</g>
</g>
<!-- Node1&#45;&gt;Node11 -->
<g id="edge29" class="edge">
<title>Node1&#45;&gt;Node11</title>
<path fill="none" stroke="midnightblue" d="M100.61,-235.38C83.85,-227.79 60.81,-215.38 45,-199 15.95,-168.88 -15.91,-145.62 9,-112 30.52,-82.96 70.32,-72.02 103.23,-68.17"/>
<polygon fill="midnightblue" stroke="midnightblue" points="103.58,-71.65 113.19,-67.19 102.9,-64.69 103.58,-71.65"/>
</g>
<!-- Node21 -->
<g id="node21" class="node">
<title>Node21</title>
<g id="a_node21"><a xlink:href="trig__ops_8_h.html" target="_top" xlink:title="Trigonometric utilities.">
<polygon fill="white" stroke="black" points="70.5,-168.5 70.5,-198.5 173.5,-198.5 173.5,-168.5 70.5,-168.5"/>
<text text-anchor="start" x="78.5" y="-186.5" font-family="Helvetica,sans-Serif" font-size="10.00">amr&#45;wind/utilities</text>
<text text-anchor="middle" x="122" y="-175.5" font-family="Helvetica,sans-Serif" font-size="10.00">/trig_ops.H</text>
</a>
</g>
</g>
<!-- Node1&#45;&gt;Node21 -->
<g id="edge25" class="edge">
<title>Node1&#45;&gt;Node21</title>
<path fill="none" stroke="midnightblue" d="M122,-235.48C122,-228.47 122,-218.19 122,-208.7"/>
<polygon fill="midnightblue" stroke="midnightblue" points="125.5,-208.52 122,-198.52 118.5,-208.52 125.5,-208.52"/>
</g>
<!-- Node22 -->
<g id="node22" class="node">
<title>Node22</title>
<g id="a_node22"><a xlink:title=" ">
<polygon fill="white" stroke="#bfbfbf" points="457.5,-174 457.5,-193 576.5,-193 576.5,-174 457.5,-174"/>
<text text-anchor="middle" x="517" y="-181" font-family="Helvetica,sans-Serif" font-size="10.00">AMReX_ParmParse.H</text>
</a>
</g>
</g>
<!-- Node1&#45;&gt;Node22 -->
<g id="edge30" class="edge">
<title>Node1&#45;&gt;Node22</title>
<path fill="none" stroke="midnightblue" d="M169.68,-238.48C233.33,-230.87 349.5,-216.13 448,-199 454.73,-197.83 461.8,-196.48 468.74,-195.09"/>
<polygon fill="midnightblue" stroke="midnightblue" points="469.68,-198.47 478.77,-193.03 468.27,-191.61 469.68,-198.47"/>
</g>
<!-- Node4 -->
<g id="node4" class="node">
<title>Node4</title>
<g id="a_node4"><a xlink:href="_field_8_h.html" target="_top" xlink:title=" ">
<polygon fill="white" stroke="black" points="626,-112.5 626,-131.5 750,-131.5 750,-112.5 626,-112.5"/>
<text text-anchor="middle" x="688" y="-119.5" font-family="Helvetica,sans-Serif" font-size="10.00">amr&#45;wind/core/Field.H</text>
</a>
</g>
</g>
<!-- Node3&#45;&gt;Node4 -->
<g id="edge3" class="edge">
<title>Node3&#45;&gt;Node4</title>
<path fill="none" stroke="midnightblue" d="M439.09,-169.73C442.1,-169.14 445.09,-168.56 448,-168 510.76,-155.88 582.85,-142.43 631.5,-133.42"/>
<polygon fill="midnightblue" stroke="midnightblue" points="632.32,-136.83 641.52,-131.56 631.05,-129.94 632.32,-136.83"/>
</g>
<!-- Node3&#45;&gt;Node11 -->
<g id="edge24" class="edge">
<title>Node3&#45;&gt;Node11</title>
<path fill="none" stroke="midnightblue" d="M339.98,-168.5C317.11,-158.99 286.82,-145.7 261,-132 231.19,-116.18 198.41,-95.02 177.78,-81.21"/>
<polygon fill="midnightblue" stroke="midnightblue" points="179.72,-78.29 169.47,-75.6 175.8,-84.1 179.72,-78.29"/>
</g>
<!-- Node15 -->
<g id="node15" class="node">
<title>Node15</title>
<g id="a_node15"><a xlink:title=" ">
<polygon fill="white" stroke="#bfbfbf" points="949,-0.5 949,-19.5 1047,-19.5 1047,-0.5 949,-0.5"/>
<text text-anchor="middle" x="998" y="-7.5" font-family="Helvetica,sans-Serif" font-size="10.00">AMReX_Vector.H</text>
</a>
</g>
</g>
<!-- Node3&#45;&gt;Node15 -->
<g id="edge23" class="edge">
<title>Node3&#45;&gt;Node15</title>
<path fill="none" stroke="midnightblue" d="M439.03,-169.37C442.06,-168.88 445.06,-168.42 448,-168 581.56,-149.08 968.12,-184.69 1048,-76 1061.03,-58.27 1040.11,-38.26 1021.48,-25.19"/>
<polygon fill="midnightblue" stroke="midnightblue" points="1023.22,-22.14 1012.95,-19.53 1019.35,-27.97 1023.22,-22.14"/>
</g>
<!-- Node16 -->
<g id="node16" class="node">
<title>Node16</title>
<g id="a_node16"><a xlink:title=" ">
<polygon fill="white" stroke="#bfbfbf" points="768,-112.5 768,-131.5 860,-131.5 860,-112.5 768,-112.5"/>
<text text-anchor="middle" x="814" y="-119.5" font-family="Helvetica,sans-Serif" font-size="10.00">AMReX_Array.H</text>
</a>
</g>
</g>
<!-- Node3&#45;&gt;Node16 -->
<g id="edge18" class="edge">
<title>Node3&#45;&gt;Node16</title>
<path fill="none" stroke="midnightblue" d="M439.05,-169.48C442.07,-168.96 445.07,-168.46 448,-168 582.25,-146.93 619.46,-151.03 757.69,-132.12"/>
<polygon fill="midnightblue" stroke="midnightblue" points="758.39,-135.56 767.81,-130.72 757.43,-128.62 758.39,-135.56"/>
</g>
<!-- Node17 -->
<g id="node17" class="node">
<title>Node17</title>
<g id="a_node17"><a xlink:title=" ">
<polygon fill="white" stroke="#bfbfbf" points="270,-112.5 270,-131.5 370,-131.5 370,-112.5 270,-112.5"/>
<text text-anchor="middle" x="320" y="-119.5" font-family="Helvetica,sans-Serif" font-size="10.00">AMReX_Array4.H</text>
</a>
</g>
</g>
<!-- Node3&#45;&gt;Node17 -->
<g id="edge19" class="edge">
<title>Node3&#45;&gt;Node17</title>
<path fill="none" stroke="midnightblue" d="M361.97,-168.4C353.81,-159.58 343.28,-148.18 334.81,-139.02"/>
<polygon fill="midnightblue" stroke="midnightblue" points="337.37,-136.63 328.01,-131.66 332.22,-141.38 337.37,-136.63"/>
</g>
<!-- Node18 -->
<g id="node18" class="node">
<title>Node18</title>
<g id="a_node18"><a xlink:title=" ">
<polygon fill="white" stroke="#bfbfbf" points="388,-112.5 388,-131.5 474,-131.5 474,-112.5 388,-112.5"/>
<text text-anchor="middle" x="431" y="-119.5" font-family="Helvetica,sans-Serif" font-size="10.00">AMReX_Box.H</text>
</a>
</g>
</g>
<!-- Node3&#45;&gt;Node18 -->
<g id="edge20" class="edge">
<title>Node3&#45;&gt;Node18</title>
<path fill="none" stroke="midnightblue" d="M388.28,-168.4C396.58,-159.58 407.3,-148.18 415.93,-139.02"/>
<polygon fill="midnightblue" stroke="midnightblue" points="418.55,-141.34 422.86,-131.66 413.45,-136.54 418.55,-141.34"/>
</g>
<!-- Node19 -->
<g id="node19" class="node">
<title>Node19</title>
<g id="a_node19"><a xlink:title=" ">
<polygon fill="white" stroke="#bfbfbf" points="492.5,-112.5 492.5,-131.5 607.5,-131.5 607.5,-112.5 492.5,-112.5"/>
<text text-anchor="middle" x="550" y="-119.5" font-family="Helvetica,sans-Serif" font-size="10.00">AMReX_Geometry.H</text>
</a>
</g>
</g>
<!-- Node3&#45;&gt;Node19 -->
<g id="edge21" class="edge">
<title>Node3&#45;&gt;Node19</title>
<path fill="none" stroke="midnightblue" d="M416.48,-168.4C446.58,-158.16 486.86,-144.47 515.27,-134.81"/>
<polygon fill="midnightblue" stroke="midnightblue" points="516.45,-138.1 524.8,-131.57 514.2,-131.48 516.45,-138.1"/>
</g>
<!-- Node20 -->
<g id="node20" class="node">
<title>Node20</title>
<g id="a_node20"><a xlink:title=" ">
<polygon fill="white" stroke="#bfbfbf" points="122,-112.5 122,-131.5 214,-131.5 214,-112.5 122,-112.5"/>
<text text-anchor="middle" x="168" y="-119.5" font-family="Helvetica,sans-Serif" font-size="10.00">AMReX_REAL.H</text>
</a>
</g>
</g>
<!-- Node3&#45;&gt;Node20 -->
<g id="edge22" class="edge">
<title>Node3&#45;&gt;Node20</title>
<path fill="none" stroke="midnightblue" d="M326.21,-168.47C290.03,-158.08 241.34,-144.08 207.57,-134.37"/>
<polygon fill="midnightblue" stroke="midnightblue" points="208.18,-130.91 197.6,-131.51 206.24,-137.63 208.18,-130.91"/>
</g>
<!-- Node5 -->
<g id="node5" class="node">
<title>Node5</title>
<g id="a_node5"><a xlink:title=" ">
<polygon fill="white" stroke="#bfbfbf" points="832,-0.5 832,-19.5 876,-19.5 876,-0.5 832,-0.5"/>
<text text-anchor="middle" x="854" y="-7.5" font-family="Helvetica,sans-Serif" font-size="10.00">string</text>
</a>
</g>
</g>
<!-- Node4&#45;&gt;Node5 -->
<g id="edge4" class="edge">
<title>Node4&#45;&gt;Node5</title>
<path fill="none" stroke="midnightblue" d="M743.84,-112.49C770.03,-106.12 800.21,-95.07 822,-76 835.89,-63.86 844.36,-44.3 849.07,-29.81"/>
<polygon fill="midnightblue" stroke="midnightblue" points="852.52,-30.5 851.97,-19.92 845.8,-28.53 852.52,-30.5"/>
</g>
<!-- Node6 -->
<g id="node6" class="node">
<title>Node6</title>
<g id="a_node6"><a xlink:title=" ">
<polygon fill="white" stroke="#bfbfbf" points="869,-56.5 869,-75.5 927,-75.5 927,-56.5 869,-56.5"/>
<text text-anchor="middle" x="898" y="-63.5" font-family="Helvetica,sans-Serif" font-size="10.00">memory</text>
</a>
</g>
</g>
<!-- Node4&#45;&gt;Node6 -->
<g id="edge5" class="edge">
<title>Node4&#45;&gt;Node6</title>
<path fill="none" stroke="midnightblue" d="M721.28,-112.44C758.73,-102.81 819.5,-87.19 859.11,-77"/>
<polygon fill="midnightblue" stroke="midnightblue" points="860.13,-80.35 868.94,-74.47 858.39,-73.57 860.13,-80.35"/>
</g>
<!-- Node7 -->
<g id="node7" class="node">
<title>Node7</title>
<g id="a_node7"><a xlink:title=" ">
<polygon fill="white" stroke="#bfbfbf" points="945.5,-56.5 945.5,-75.5 1038.5,-75.5 1038.5,-56.5 945.5,-56.5"/>
<text text-anchor="middle" x="992" y="-63.5" font-family="Helvetica,sans-Serif" font-size="10.00">unordered_map</text>
</a>
</g>
</g>
<!-- Node4&#45;&gt;Node7 -->
<g id="edge6" class="edge">
<title>Node4&#45;&gt;Node7</title>
<path fill="none" stroke="midnightblue" d="M736.17,-112.44C790.19,-102.85 877.71,-87.3 935.07,-77.11"/>
<polygon fill="midnightblue" stroke="midnightblue" points="935.82,-80.53 945.06,-75.34 934.6,-73.64 935.82,-80.53"/>
</g>
<!-- Node8 -->
<g id="node8" class="node">
<title>Node8</title>
<g id="a_node8"><a xlink:title=" ">
<polygon fill="white" stroke="#bfbfbf" points="230,-56.5 230,-75.5 294,-75.5 294,-56.5 230,-56.5"/>
<text text-anchor="middle" x="262" y="-63.5" font-family="Helvetica,sans-Serif" font-size="10.00">algorithm</text>
</a>
</g>
</g>
<!-- Node4&#45;&gt;Node8 -->
<g id="edge7" class="edge">
<title>Node4&#45;&gt;Node8</title>
<path fill="none" stroke="midnightblue" d="M625.96,-113.2C622.59,-112.79 619.26,-112.39 616,-112 480.23,-95.71 442.86,-98.88 304.33,-76.07"/>
<polygon fill="midnightblue" stroke="midnightblue" points="304.61,-72.57 294.17,-74.39 303.46,-79.48 304.61,-72.57"/>
</g>
<!-- Node9 -->
<g id="node9" class="node">
<title>Node9</title>
<g id="a_node9"><a xlink:title=" ">
<polygon fill="white" stroke="#bfbfbf" points="510.5,-0.5 510.5,-19.5 619.5,-19.5 619.5,-0.5 510.5,-0.5"/>
<text text-anchor="middle" x="565" y="-7.5" font-family="Helvetica,sans-Serif" font-size="10.00">AMReX_MultiFab.H</text>
</a>
</g>
</g>
<!-- Node4&#45;&gt;Node9 -->
<g id="edge8" class="edge">
<title>Node4&#45;&gt;Node9</title>
<path fill="none" stroke="midnightblue" d="M678.35,-112.37C657.6,-93.81 608.52,-49.91 582.27,-26.44"/>
<polygon fill="midnightblue" stroke="midnightblue" points="584.4,-23.65 574.61,-19.59 579.73,-28.87 584.4,-23.65"/>
</g>
<!-- Node10 -->
<g id="node10" class="node">
<title>Node10</title>
<g id="a_node10"><a xlink:title=" ">
<polygon fill="white" stroke="#bfbfbf" points="312.5,-56.5 312.5,-75.5 411.5,-75.5 411.5,-56.5 312.5,-56.5"/>
<text text-anchor="middle" x="362" y="-63.5" font-family="Helvetica,sans-Serif" font-size="10.00">AMReX_BCRec.H</text>
</a>
</g>
</g>
<!-- Node4&#45;&gt;Node10 -->
<g id="edge9" class="edge">
<title>Node4&#45;&gt;Node10</title>
<path fill="none" stroke="midnightblue" d="M636.35,-112.44C577.93,-102.77 482.96,-87.04 421.49,-76.85"/>
<polygon fill="midnightblue" stroke="midnightblue" points="421.99,-73.39 411.55,-75.21 420.84,-80.29 421.99,-73.39"/>
</g>
<!-- Node4&#45;&gt;Node11 -->
<g id="edge10" class="edge">
<title>Node4&#45;&gt;Node11</title>
<path fill="none" stroke="midnightblue" d="M625.97,-113.11C622.6,-112.72 619.26,-112.35 616,-112 440.74,-93.06 396.12,-96.28 221,-76 217.61,-75.61 214.12,-75.18 210.61,-74.73"/>
<polygon fill="midnightblue" stroke="midnightblue" points="211.06,-71.26 200.69,-73.43 210.15,-78.2 211.06,-71.26"/>
</g>
<!-- Node12 -->
<g id="node12" class="node">
<title>Node12</title>
<g id="a_node12"><a xlink:href="incflo__enums_8_h.html" target="_top" xlink:title=" ">
<polygon fill="white" stroke="black" points="429.5,-56.5 429.5,-75.5 570.5,-75.5 570.5,-56.5 429.5,-56.5"/>
<text text-anchor="middle" x="500" y="-63.5" font-family="Helvetica,sans-Serif" font-size="10.00">amr&#45;wind/incflo_enums.H</text>
</a>
</g>
</g>
<!-- Node4&#45;&gt;Node12 -->
<g id="edge11" class="edge">
<title>Node4&#45;&gt;Node12</title>
<path fill="none" stroke="midnightblue" d="M658.21,-112.44C626.18,-103.24 575.07,-88.56 539.65,-78.39"/>
<polygon fill="midnightblue" stroke="midnightblue" points="540.23,-74.91 529.65,-75.52 538.3,-81.64 540.23,-74.91"/>
</g>
<!-- Node13 -->
<g id="node13" class="node">
<title>Node13</title>
<g id="a_node13"><a xlink:href="_field_desc_types_8_h.html" target="_top" xlink:title=" ">
<polygon fill="white" stroke="black" points="638,-0.5 638,-19.5 814,-19.5 814,-0.5 638,-0.5"/>
<text text-anchor="middle" x="726" y="-7.5" font-family="Helvetica,sans-Serif" font-size="10.00">amr&#45;wind/core/FieldDescTypes.H</text>
</a>
</g>
</g>
<!-- Node4&#45;&gt;Node13 -->
<g id="edge12" class="edge">
<title>Node4&#45;&gt;Node13</title>
<path fill="none" stroke="midnightblue" d="M678.35,-112.47C665.38,-99.93 645.16,-75.87 656,-56 663.82,-41.68 678.37,-31.24 692.18,-24.04"/>
<polygon fill="midnightblue" stroke="midnightblue" points="694.02,-27.03 701.53,-19.56 691,-20.72 694.02,-27.03"/>
</g>
<!-- Node14 -->
<g id="node14" class="node">
<title>Node14</title>
<g id="a_node14"><a xlink:href="_view_field_8_h.html" target="_top" xlink:title=" ">
<polygon fill="white" stroke="black" points="665,-56.5 665,-75.5 813,-75.5 813,-56.5 665,-56.5"/>
<text text-anchor="middle" x="739" y="-63.5" font-family="Helvetica,sans-Serif" font-size="10.00">amr&#45;wind/core/ViewField.H</text>
</a>
</g>
</g>
<!-- Node4&#45;&gt;Node14 -->
<g id="edge13" class="edge">
<title>Node4&#45;&gt;Node14</title>
<path fill="none" stroke="midnightblue" d="M696.43,-112.08C703.85,-104.22 714.86,-92.57 723.82,-83.08"/>
<polygon fill="midnightblue" stroke="midnightblue" points="726.42,-85.42 730.74,-75.75 721.33,-80.62 726.42,-85.42"/>
</g>
<!-- Node14&#45;&gt;Node5 -->
<g id="edge14" class="edge">
<title>Node14&#45;&gt;Node5</title>
<path fill="none" stroke="midnightblue" d="M757.23,-56.44C775.9,-47.68 805.16,-33.94 826.62,-23.86"/>
<polygon fill="midnightblue" stroke="midnightblue" points="828.3,-26.93 835.87,-19.52 825.33,-20.6 828.3,-26.93"/>
</g>
<!-- Node14&#45;&gt;Node9 -->
<g id="edge16" class="edge">
<title>Node14&#45;&gt;Node9</title>
<path fill="none" stroke="midnightblue" d="M711.43,-56.44C681.91,-47.28 634.89,-32.69 602.12,-22.52"/>
<polygon fill="midnightblue" stroke="midnightblue" points="603.03,-19.14 592.45,-19.52 600.96,-25.82 603.03,-19.14"/>
</g>
<!-- Node14&#45;&gt;Node13 -->
<g id="edge15" class="edge">
<title>Node14&#45;&gt;Node13</title>
<path fill="none" stroke="midnightblue" d="M736.86,-56.08C735.13,-48.93 732.66,-38.64 730.5,-29.69"/>
<polygon fill="midnightblue" stroke="midnightblue" points="733.85,-28.65 728.11,-19.75 727.05,-30.29 733.85,-28.65"/>
</g>
<!-- Node14&#45;&gt;Node15 -->
<g id="edge17" class="edge">
<title>Node14&#45;&gt;Node15</title>
<path fill="none" stroke="midnightblue" d="M780.04,-56.44C825.32,-47 898.23,-31.8 947.11,-21.61"/>
<polygon fill="midnightblue" stroke="midnightblue" points="948.08,-24.98 957.16,-19.52 946.65,-18.13 948.08,-24.98"/>
</g>
<!-- Node21&#45;&gt;Node2 -->
<g id="edge26" class="edge">
<title>Node21&#45;&gt;Node2</title>
<path fill="none" stroke="midnightblue" d="M103.05,-168.4C90.58,-159.13 74.31,-147.03 61.7,-137.65"/>
<polygon fill="midnightblue" stroke="midnightblue" points="63.76,-134.82 53.64,-131.66 59.58,-140.43 63.76,-134.82"/>
</g>
<!-- Node21&#45;&gt;Node11 -->
<g id="edge28" class="edge">
<title>Node21&#45;&gt;Node11</title>
<path fill="none" stroke="midnightblue" d="M116.2,-168.45C111.07,-153.83 105.46,-130.51 113,-112 117.8,-100.23 127.33,-89.86 136.3,-82.05"/>
<polygon fill="midnightblue" stroke="midnightblue" points="138.65,-84.64 144.22,-75.63 134.25,-79.2 138.65,-84.64"/>
</g>
<!-- Node21&#45;&gt;Node20 -->
<g id="edge27" class="edge">
<title>Node21&#45;&gt;Node20</title>
<path fill="none" stroke="midnightblue" d="M132.91,-168.4C139.59,-159.75 148.18,-148.64 155.19,-139.58"/>
<polygon fill="midnightblue" stroke="midnightblue" points="157.96,-141.71 161.31,-131.66 152.43,-137.43 157.96,-141.71"/>
</g>
</g>
</svg>
        <g id="navigator" transform="translate(0 0)" fill="#404254">
                <rect fill="#f2f5e9" fill-opacity="0.5" stroke="#606060" stroke-width=".5" x="0" y="0" width="60" height="60"/>
                <use id="zoomplus" xlink:href="#zoomPlus" x="17" y="9" onmousedown="handleZoom(evt,'in')"/>
                <use id="zoomminus" xlink:href="#zoomMin" x="42" y="9" onmousedown="handleZoom(evt,'out')"/>
                <use id="reset" xlink:href="#resetDef" x="30" y="36" onmousedown="handleReset()"/>
                <g id="arrowUp" xlink:href="#dirArrow" transform="translate(30 24)" onmousedown="handlePan(0,-1)">
                  <use xlink:href="#rim" fill="#404040">
                        <set attributeName="fill" to="#808080" begin="arrowUp.mouseover" end="arrowUp.mouseout"/>
                  </use>
                  <path fill="none" stroke="white" stroke-width="1.5" d="M0,-3.0v7 M-2.5,-0.5L0,-3.0L2.5,-0.5"/>
                </g>
                <g id="arrowRight" xlink:href="#dirArrow" transform="rotate(90) translate(36 -43)" onmousedown="handlePan(1,0)">
                  <use xlink:href="#rim" fill="#404040">
                        <set attributeName="fill" to="#808080" begin="arrowRight.mouseover" end="arrowRight.mouseout"/>
                  </use>
                  <path fill="none" stroke="white" stroke-width="1.5" d="M0,-3.0v7 M-2.5,-0.5L0,-3.0L2.5,-0.5"/>
                </g>
                <g id="arrowDown" xlink:href="#dirArrow" transform="rotate(180) translate(-30 -48)" onmousedown="handlePan(0,1)">
                  <use xlink:href="#rim" fill="#404040">
                        <set attributeName="fill" to="#808080" begin="arrowDown.mouseover" end="arrowDown.mouseout"/>
                  </use>
                  <path fill="none" stroke="white" stroke-width="1.5" d="M0,-3.0v7 M-2.5,-0.5L0,-3.0L2.5,-0.5"/>
                </g>
                <g id="arrowLeft" xlink:href="#dirArrow" transform="rotate(270) translate(-36 17)" onmousedown="handlePan(-1,0)">
                  <use xlink:href="#rim" fill="#404040">
                        <set attributeName="fill" to="#808080" begin="arrowLeft.mouseover" end="arrowLeft.mouseout"/>
                  </use>
                  <path fill="none" stroke="white" stroke-width="1.5" d="M0,-3.0v7 M-2.5,-0.5L0,-3.0L2.5,-0.5"/>
                </g>
        </g>
        <svg viewBox="0 0 15 15" width="100%" height="30px" preserveAspectRatio="xMaxYMin meet">
         <g id="arrow_out" transform="scale(0.3 0.3)">
          <a xlink:href="_a_b_l_field_init_8cpp__incl_org.svg" target="_base">
           <rect id="button" ry="5" rx="5" y="6" x="6" height="38" width="38"
                fill="#f2f5e9" fill-opacity="0.5" stroke="#606060" stroke-width="1.0"/>
           <path id="arrow"
             d="M 11.500037,31.436501 C 11.940474,20.09759 22.043105,11.32322 32.158766,21.979434 L 37.068811,17.246167 C 37.068811,17.246167 37.088388,32 37.088388,32 L 22.160133,31.978069 C 22.160133,31.978069 26.997745,27.140456 26.997745,27.140456 C 18.528582,18.264221 13.291696,25.230495 11.500037,31.436501 z"
             style="fill:#404040;"/>
          </a>
         </g>
        </svg>
</svg>
