<?xml version="1.0" encoding="UTF-8" standalone="no"?>
<!DOCTYPE svg PUBLIC "-//W3C//DTD SVG 1.1//EN"
 "http://www.w3.org/Graphics/SVG/1.1/DTD/svg11.dtd">
<!-- Generated by graphviz version 2.43.0 (0)
 -->
<!-- Title: ABLBoundaryPlane.H Pages: 1 -->
<svg width="1226pt" height="151pt"
 viewBox="0.00 0.00 1226.00 151.00" xmlns="http://www.w3.org/2000/svg" xmlns:xlink="http://www.w3.org/1999/xlink">
<g id="graph0" class="graph" transform="scale(1 1) rotate(0) translate(4 147)">
<title>ABLBoundaryPlane.H</title>
<polygon fill="white" stroke="transparent" points="-4,4 -4,-147 1222,-147 1222,4 -4,4"/>
<!-- Node1 -->
<g id="node1" class="node">
<title>Node1</title>
<g id="a_node1"><a xlink:title=" ">
<polygon fill="#bfbfbf" stroke="black" points="718.5,-123.5 718.5,-142.5 837.5,-142.5 837.5,-123.5 718.5,-123.5"/>
<text text-anchor="middle" x="778" y="-130.5" font-family="Helvetica,sans-Serif" font-size="10.00">ABLBoundaryPlane.H</text>
</a>
</g>
</g>
<!-- Node2 -->
<g id="node2" class="node">
<title>Node2</title>
<g id="a_node2"><a xlink:href="_a_b_l_8cpp.html" target="_top" xlink:title=" ">
<polygon fill="white" stroke="black" points="0,-6 0,-25 56,-25 56,-6 0,-6"/>
<text text-anchor="middle" x="28" y="-13" font-family="Helvetica,sans-Serif" font-size="10.00">ABL.cpp</text>
</a>
</g>
</g>
<!-- Node1&#45;&gt;Node2 -->
<g id="edge1" class="edge">
<title>Node1&#45;&gt;Node2</title>
<path fill="none" stroke="midnightblue" d="M708.26,-127.53C579.39,-118.08 296.03,-91.74 65,-31 59.13,-29.46 52.92,-27.26 47.3,-25.04"/>
<polygon fill="midnightblue" stroke="midnightblue" points="708.16,-131.03 718.39,-128.26 708.67,-124.05 708.16,-131.03"/>
</g>
<!-- Node3 -->
<g id="node3" class="node">
<title>Node3</title>
<g id="a_node3"><a xlink:href="_a_b_l_8_h.html" target="_top" xlink:title=" ">
<polygon fill="white" stroke="black" points="528,-67.5 528,-86.5 574,-86.5 574,-67.5 528,-67.5"/>
<text text-anchor="middle" x="551" y="-74.5" font-family="Helvetica,sans-Serif" font-size="10.00">ABL.H</text>
</a>
</g>
</g>
<!-- Node1&#45;&gt;Node3 -->
<g id="edge2" class="edge">
<title>Node1&#45;&gt;Node3</title>
<path fill="none" stroke="midnightblue" d="M732.21,-121.11C684.29,-109.71 610.97,-92.27 574.01,-83.47"/>
<polygon fill="midnightblue" stroke="midnightblue" points="731.49,-124.53 742.03,-123.44 733.11,-117.72 731.49,-124.53"/>
</g>
<!-- Node12 -->
<g id="node12" class="node">
<title>Node12</title>
<g id="a_node12"><a xlink:href="_a_b_l_boundary_plane_8cpp.html" target="_top" xlink:title=" ">
<polygon fill="white" stroke="black" points="972.5,-6 972.5,-25 1101.5,-25 1101.5,-6 972.5,-6"/>
<text text-anchor="middle" x="1037" y="-13" font-family="Helvetica,sans-Serif" font-size="10.00">ABLBoundaryPlane.cpp</text>
</a>
</g>
</g>
<!-- Node1&#45;&gt;Node12 -->
<g id="edge12" class="edge">
<title>Node1&#45;&gt;Node12</title>
<path fill="none" stroke="midnightblue" d="M806.68,-119.21C859.86,-95.49 972.49,-45.27 1017.66,-25.12"/>
<polygon fill="midnightblue" stroke="midnightblue" points="805.17,-116.05 797.47,-123.32 808.03,-122.44 805.17,-116.05"/>
</g>
<!-- Node13 -->
<g id="node13" class="node">
<title>Node13</title>
<g id="a_node13"><a xlink:href="_a_b_l_fill_inflow_8_h.html" target="_top" xlink:title=" ">
<polygon fill="white" stroke="black" points="992.5,-67.5 992.5,-86.5 1081.5,-86.5 1081.5,-67.5 992.5,-67.5"/>
<text text-anchor="middle" x="1037" y="-74.5" font-family="Helvetica,sans-Serif" font-size="10.00">ABLFillInflow.H</text>
</a>
</g>
</g>
<!-- Node1&#45;&gt;Node13 -->
<g id="edge13" class="edge">
<title>Node1&#45;&gt;Node13</title>
<path fill="none" stroke="midnightblue" d="M829.1,-121.35C878.05,-111.14 950.95,-95.94 996.15,-86.52"/>
<polygon fill="midnightblue" stroke="midnightblue" points="828.11,-117.98 819.04,-123.44 829.54,-124.83 828.11,-117.98"/>
</g>
<!-- Node3&#45;&gt;Node2 -->
<g id="edge10" class="edge">
<title>Node3&#45;&gt;Node2</title>
<path fill="none" stroke="midnightblue" d="M517.48,-76.11C437.85,-75.69 231.54,-70.51 65,-31 58.96,-29.57 52.59,-27.35 46.88,-25.08"/>
<polygon fill="midnightblue" stroke="midnightblue" points="517.85,-79.61 527.86,-76.14 517.87,-72.61 517.85,-79.61"/>
</g>
<!-- Node4 -->
<g id="node4" class="node">
<title>Node4</title>
<g id="a_node4"><a xlink:href="_a_b_l_forcing_8cpp.html" target="_top" xlink:title=" ">
<polygon fill="white" stroke="black" points="74.5,-6 74.5,-25 165.5,-25 165.5,-6 74.5,-6"/>
<text text-anchor="middle" x="120" y="-13" font-family="Helvetica,sans-Serif" font-size="10.00">ABLForcing.cpp</text>
</a>
</g>
</g>
<!-- Node3&#45;&gt;Node4 -->
<g id="edge3" class="edge">
<title>Node3&#45;&gt;Node4</title>
<path fill="none" stroke="midnightblue" d="M517.76,-73.58C451.91,-68.44 300.41,-54.92 175,-31 166.56,-29.39 157.51,-27.2 149.23,-25.01"/>
<polygon fill="midnightblue" stroke="midnightblue" points="517.7,-77.09 527.94,-74.36 518.24,-70.11 517.7,-77.09"/>
</g>
<!-- Node5 -->
<g id="node5" class="node">
<title>Node5</title>
<g id="a_node5"><a xlink:href="_a_b_l_mean_boussinesq_8cpp.html" target="_top" xlink:title=" ">
<polygon fill="white" stroke="black" points="184,-6 184,-25 322,-25 322,-6 184,-6"/>
<text text-anchor="middle" x="253" y="-13" font-family="Helvetica,sans-Serif" font-size="10.00">ABLMeanBoussinesq.cpp</text>
</a>
</g>
</g>
<!-- Node3&#45;&gt;Node5 -->
<g id="edge4" class="edge">
<title>Node3&#45;&gt;Node5</title>
<path fill="none" stroke="midnightblue" d="M517.47,-69.31C463.07,-58.44 355.63,-36.99 295.79,-25.04"/>
<polygon fill="midnightblue" stroke="midnightblue" points="517.12,-72.81 527.62,-71.33 518.5,-65.94 517.12,-72.81"/>
</g>
<!-- Node6 -->
<g id="node6" class="node">
<title>Node6</title>
<g id="a_node6"><a xlink:href="_hurricane_forcing_8cpp.html" target="_top" xlink:title=" ">
<polygon fill="white" stroke="black" points="340.5,-6 340.5,-25 459.5,-25 459.5,-6 340.5,-6"/>
<text text-anchor="middle" x="400" y="-13" font-family="Helvetica,sans-Serif" font-size="10.00">HurricaneForcing.cpp</text>
</a>
</g>
</g>
<!-- Node3&#45;&gt;Node6 -->
<g id="edge5" class="edge">
<title>Node3&#45;&gt;Node6</title>
<path fill="none" stroke="midnightblue" d="M519.99,-63.78C490.65,-52.22 447.37,-35.16 421.59,-25.01"/>
<polygon fill="midnightblue" stroke="midnightblue" points="518.78,-67.07 529.37,-67.48 521.34,-60.55 518.78,-67.07"/>
</g>
<!-- Node7 -->
<g id="node7" class="node">
<title>Node7</title>
<g id="a_node7"><a xlink:href="helics_8cpp.html" target="_top" xlink:title=" ">
<polygon fill="white" stroke="black" points="477.5,-6 477.5,-25 542.5,-25 542.5,-6 477.5,-6"/>
<text text-anchor="middle" x="510" y="-13" font-family="Helvetica,sans-Serif" font-size="10.00">helics.cpp</text>
</a>
</g>
</g>
<!-- Node3&#45;&gt;Node7 -->
<g id="edge6" class="edge">
<title>Node3&#45;&gt;Node7</title>
<path fill="none" stroke="midnightblue" d="M539.29,-59.01C531.63,-47.89 521.95,-33.84 515.86,-25.01"/>
<polygon fill="midnightblue" stroke="midnightblue" points="536.57,-61.23 545.13,-67.48 542.33,-57.25 536.57,-61.23"/>
</g>
<!-- Node8 -->
<g id="node8" class="node">
<title>Node8</title>
<g id="a_node8"><a xlink:href="incflo_8cpp.html" target="_top" xlink:title=" ">
<polygon fill="white" stroke="black" points="560.5,-6 560.5,-25 623.5,-25 623.5,-6 560.5,-6"/>
<text text-anchor="middle" x="592" y="-13" font-family="Helvetica,sans-Serif" font-size="10.00">incflo.cpp</text>
</a>
</g>
</g>
<!-- Node3&#45;&gt;Node8 -->
<g id="edge7" class="edge">
<title>Node3&#45;&gt;Node8</title>
<path fill="none" stroke="midnightblue" d="M562.71,-59.01C570.37,-47.89 580.05,-33.84 586.14,-25.01"/>
<polygon fill="midnightblue" stroke="midnightblue" points="559.67,-57.25 556.87,-67.48 565.43,-61.23 559.67,-57.25"/>
</g>
<!-- Node9 -->
<g id="node9" class="node">
<title>Node9</title>
<g id="a_node9"><a xlink:href="incflo__apply__nodal__projection_8cpp.html" target="_top" xlink:title=" ">
<polygon fill="white" stroke="black" points="641.5,-0.5 641.5,-30.5 748.5,-30.5 748.5,-0.5 641.5,-0.5"/>
<text text-anchor="start" x="649.5" y="-18.5" font-family="Helvetica,sans-Serif" font-size="10.00">incflo_apply_nodal</text>
<text text-anchor="middle" x="695" y="-7.5" font-family="Helvetica,sans-Serif" font-size="10.00">_projection.cpp</text>
</a>
</g>
</g>
<!-- Node3&#45;&gt;Node9 -->
<g id="edge8" class="edge">
<title>Node3&#45;&gt;Node9</title>
<path fill="none" stroke="midnightblue" d="M581.03,-63.59C604.38,-53.94 636.78,-40.56 661.06,-30.52"/>
<polygon fill="midnightblue" stroke="midnightblue" points="579.54,-60.42 571.63,-67.48 582.21,-66.89 579.54,-60.42"/>
</g>
<!-- Node10 -->
<g id="node10" class="node">
<title>Node10</title>
<g id="a_node10"><a xlink:href="init_8cpp.html" target="_top" xlink:title=" ">
<polygon fill="white" stroke="black" points="766.5,-6 766.5,-25 819.5,-25 819.5,-6 766.5,-6"/>
<text text-anchor="middle" x="793" y="-13" font-family="Helvetica,sans-Serif" font-size="10.00">init.cpp</text>
</a>
</g>
</g>
<!-- Node3&#45;&gt;Node10 -->
<g id="edge9" class="edge">
<title>Node3&#45;&gt;Node10</title>
<path fill="none" stroke="midnightblue" d="M584.19,-70.52C625.27,-63.34 697.14,-49.45 757,-31 762.41,-29.33 768.14,-27.2 773.41,-25.08"/>
<polygon fill="midnightblue" stroke="midnightblue" points="583.45,-67.1 574.19,-72.24 584.64,-74 583.45,-67.1"/>
</g>
<!-- Node11 -->
<g id="node11" class="node">
<title>Node11</title>
<g id="a_node11"><a xlink:href="_a_b_l_wall_function_8cpp.html" target="_top" xlink:title=" ">
<polygon fill="white" stroke="black" points="837.5,-6 837.5,-25 954.5,-25 954.5,-6 837.5,-6"/>
<text text-anchor="middle" x="896" y="-13" font-family="Helvetica,sans-Serif" font-size="10.00">ABLWallFunction.cpp</text>
</a>
</g>
</g>
<!-- Node3&#45;&gt;Node11 -->
<g id="edge11" class="edge">
<title>Node3&#45;&gt;Node11</title>
<path fill="none" stroke="midnightblue" d="M584.04,-71.17C636.06,-63.44 740.2,-47.48 828,-31 837.61,-29.2 847.95,-27.08 857.59,-25.03"/>
<polygon fill="midnightblue" stroke="midnightblue" points="583.43,-67.72 574.05,-72.65 584.45,-74.65 583.43,-67.72"/>
</g>
<!-- Node13&#45;&gt;Node12 -->
<g id="edge14" class="edge">
<title>Node13&#45;&gt;Node12</title>
<path fill="none" stroke="midnightblue" d="M1037,-57.32C1037,-46.5 1037,-33.4 1037,-25.01"/>
<polygon fill="midnightblue" stroke="midnightblue" points="1033.5,-57.48 1037,-67.48 1040.5,-57.48 1033.5,-57.48"/>
</g>
<!-- Node14 -->
<g id="node14" class="node">
<title>Node14</title>
<g id="a_node14"><a xlink:href="_a_b_l_fill_inflow_8cpp.html" target="_top" xlink:title=" ">
<polygon fill="white" stroke="black" points="1120,-6 1120,-25 1218,-25 1218,-6 1120,-6"/>
<text text-anchor="middle" x="1169" y="-13" font-family="Helvetica,sans-Serif" font-size="10.00">ABLFillInflow.cpp</text>
</a>
</g>
</g>
<!-- Node13&#45;&gt;Node14 -->
<g id="edge15" class="edge">
<title>Node13&#45;&gt;Node14</title>
<path fill="none" stroke="midnightblue" d="M1065.11,-63.33C1090.74,-51.78 1127.89,-35.03 1150.12,-25.01"/>
<polygon fill="midnightblue" stroke="midnightblue" points="1063.59,-60.17 1055.91,-67.48 1066.47,-66.56 1063.59,-60.17"/>
</g>
</g>
</svg>
