<?xml version="1.0" encoding="UTF-8" standalone="no"?>
<!DOCTYPE svg PUBLIC "-//W3C//DTD SVG 1.1//EN"
 "http://www.w3.org/Graphics/SVG/1.1/DTD/svg11.dtd">
<!-- Generated by graphviz version 2.43.0 (0)
 -->
<!-- Title: ABLForcing.H Pages: 1 -->
<!--zoomable 330 -->
<svg id="main" version="1.1" xmlns="http://www.w3.org/2000/svg" xmlns:xlink="http://www.w3.org/1999/xlink" xml:space="preserve" onload="init(evt)">
<style type="text/css"><![CDATA[
.edge:hover path { stroke: red; }
.edge:hover polygon { stroke: red; fill: red; }
]]></style>
<script type="text/javascript"><![CDATA[
var edges = document.getElementsByTagName('g');
if (edges && edges.length) {
  for (var i=0;i<edges.length;i++) {
    if (edges[i].id.substr(0,4)=='edge') {
      edges[i].setAttribute('class','edge');
    }
  }
}
]]></script>
        <defs>
                <circle id="rim" cx="0" cy="0" r="7"/>
                <circle id="rim2" cx="0" cy="0" r="3.5"/>
                <g id="zoomPlus">
                        <use xlink:href="#rim" fill="#404040">
                                <set attributeName="fill" to="#808080" begin="zoomplus.mouseover" end="zoomplus.mouseout"/>
                        </use>
                        <path d="M-4,0h8M0,-4v8" fill="none" stroke="white" stroke-width="1.5" pointer-events="none"/>
                </g>
                <g id="zoomMin">
                        <use xlink:href="#rim" fill="#404040">
                                <set attributeName="fill" to="#808080" begin="zoomminus.mouseover" end="zoomminus.mouseout"/>
                        </use>
                        <path d="M-4,0h8" fill="none" stroke="white" stroke-width="1.5" pointer-events="none"/>
                </g>
                <g id="dirArrow">
                        <path fill="none" stroke="white" stroke-width="1.5" d="M0,-3.0v7 M-2.5,-0.5L0,-3.0L2.5,-0.5"/>
                </g>
               <g id="resetDef">
                       <use xlink:href="#rim2" fill="#404040">
                               <set attributeName="fill" to="#808080" begin="reset.mouseover" end="reset.mouseout"/>
                       </use>
               </g>
        </defs>

<script type="text/javascript">
var viewWidth = 2598;
var viewHeight = 330;
var sectionId = 'dynsection-0';
</script>
<script xlink:href="svgpan.js"/>
<svg id="graph" class="graph">
<g id="viewport">
<title>ABLForcing.H</title>
<polygon fill="white" stroke="transparent" points="-4,4 -4,-326 2593.69,-326 2593.69,4 -4,4"/>
<!-- Node1 -->
<g id="node1" class="node">
<title>Node1</title>
<g id="a_node1"><a xlink:title=" ">
<polygon fill="#bfbfbf" stroke="black" points="2084.19,-302.5 2084.19,-321.5 2165.19,-321.5 2165.19,-302.5 2084.19,-302.5"/>
<text text-anchor="middle" x="2124.69" y="-309.5" font-family="Helvetica,sans-Serif" font-size="10.00">ABLForcing.H</text>
</a>
</g>
</g>
<!-- Node2 -->
<g id="node2" class="node">
<title>Node2</title>
<g id="a_node2"><a xlink:href="_momentum_source_8_h.html" target="_top" xlink:title=" ">
<polygon fill="white" stroke="black" points="536.19,-235.5 536.19,-265.5 691.19,-265.5 691.19,-235.5 536.19,-235.5"/>
<text text-anchor="start" x="544.19" y="-253.5" font-family="Helvetica,sans-Serif" font-size="10.00">amr&#45;wind/equation_systems</text>
<text text-anchor="middle" x="613.69" y="-242.5" font-family="Helvetica,sans-Serif" font-size="10.00">/icns/MomentumSource.H</text>
</a>
</g>
</g>
<!-- Node1&#45;&gt;Node2 -->
<g id="edge1" class="edge">
<title>Node1&#45;&gt;Node2</title>
<path fill="none" stroke="midnightblue" d="M2083.88,-309.39C1881.9,-301.44 987.43,-266.22 701.73,-254.97"/>
<polygon fill="midnightblue" stroke="midnightblue" points="701.55,-251.46 691.42,-254.56 701.27,-258.45 701.55,-251.46"/>
</g>
<!-- Node29 -->
<g id="node29" class="node">
<title>Node29</title>
<g id="a_node29"><a xlink:href="_sim_time_8_h.html" target="_top" xlink:title=" ">
<polygon fill="white" stroke="black" points="2287.69,-241 2287.69,-260 2431.69,-260 2431.69,-241 2287.69,-241"/>
<text text-anchor="middle" x="2359.69" y="-248" font-family="Helvetica,sans-Serif" font-size="10.00">amr&#45;wind/core/SimTime.H</text>
</a>
</g>
</g>
<!-- Node1&#45;&gt;Node29 -->
<g id="edge57" class="edge">
<title>Node1&#45;&gt;Node29</title>
<path fill="none" stroke="midnightblue" d="M2158.36,-302.48C2199.89,-291.96 2270.58,-274.06 2316.19,-262.51"/>
<polygon fill="midnightblue" stroke="midnightblue" points="2317.25,-265.86 2326.08,-260.01 2315.53,-259.07 2317.25,-265.86"/>
</g>
<!-- Node33 -->
<g id="node33" class="node">
<title>Node33</title>
<g id="a_node33"><a xlink:href="trig__ops_8_h.html" target="_top" xlink:title="Trigonometric utilities.">
<polygon fill="white" stroke="black" points="2139.19,-235.5 2139.19,-265.5 2242.19,-265.5 2242.19,-235.5 2139.19,-235.5"/>
<text text-anchor="start" x="2147.19" y="-253.5" font-family="Helvetica,sans-Serif" font-size="10.00">amr&#45;wind/utilities</text>
<text text-anchor="middle" x="2190.69" y="-242.5" font-family="Helvetica,sans-Serif" font-size="10.00">/trig_ops.H</text>
</a>
</g>
</g>
<!-- Node1&#45;&gt;Node33 -->
<g id="edge61" class="edge">
<title>Node1&#45;&gt;Node33</title>
<path fill="none" stroke="midnightblue" d="M2134.15,-302.48C2142.83,-294.64 2156.07,-282.71 2167.54,-272.37"/>
<polygon fill="midnightblue" stroke="midnightblue" points="2170.05,-274.82 2175.13,-265.52 2165.36,-269.62 2170.05,-274.82"/>
</g>
<!-- Node35 -->
<g id="node35" class="node">
<title>Node35</title>
<g id="a_node35"><a xlink:href="linear__interpolation_8_h.html" target="_top" xlink:title=" ">
<polygon fill="white" stroke="black" points="1996.19,-235.5 1996.19,-265.5 2121.19,-265.5 2121.19,-235.5 1996.19,-235.5"/>
<text text-anchor="start" x="2004.19" y="-253.5" font-family="Helvetica,sans-Serif" font-size="10.00">amr&#45;wind/utilities</text>
<text text-anchor="middle" x="2058.69" y="-242.5" font-family="Helvetica,sans-Serif" font-size="10.00">/linear_interpolation.H</text>
</a>
</g>
</g>
<!-- Node1&#45;&gt;Node35 -->
<g id="edge65" class="edge">
<title>Node1&#45;&gt;Node35</title>
<path fill="none" stroke="midnightblue" d="M2115.23,-302.48C2106.55,-294.64 2093.31,-282.71 2081.83,-272.37"/>
<polygon fill="midnightblue" stroke="midnightblue" points="2084.02,-269.62 2074.24,-265.52 2079.33,-274.82 2084.02,-269.62"/>
</g>
<!-- Node3 -->
<g id="node3" class="node">
<title>Node3</title>
<g id="a_node3"><a xlink:href="_factory_8_h.html" target="_top" xlink:title=" ">
<polygon fill="white" stroke="black" points="1817.69,-118 1817.69,-137 1951.69,-137 1951.69,-118 1817.69,-118"/>
<text text-anchor="middle" x="1884.69" y="-125" font-family="Helvetica,sans-Serif" font-size="10.00">amr&#45;wind/core/Factory.H</text>
</a>
</g>
</g>
<!-- Node2&#45;&gt;Node3 -->
<g id="edge2" class="edge">
<title>Node2&#45;&gt;Node3</title>
<path fill="none" stroke="midnightblue" d="M691.53,-243.82C879.55,-229.78 1373.22,-191.11 1783.69,-143 1795.05,-141.67 1807.11,-140.09 1818.79,-138.46"/>
<polygon fill="midnightblue" stroke="midnightblue" points="1819.51,-141.9 1828.93,-137.03 1818.54,-134.96 1819.51,-141.9"/>
</g>
<!-- Node9 -->
<g id="node9" class="node">
<title>Node9</title>
<g id="a_node9"><a xlink:href="_field_desc_types_8_h.html" target="_top" xlink:title=" ">
<polygon fill="white" stroke="black" points="751.69,-0.5 751.69,-19.5 927.69,-19.5 927.69,-0.5 751.69,-0.5"/>
<text text-anchor="middle" x="839.69" y="-7.5" font-family="Helvetica,sans-Serif" font-size="10.00">amr&#45;wind/core/FieldDescTypes.H</text>
</a>
</g>
</g>
<!-- Node2&#45;&gt;Node9 -->
<g id="edge8" class="edge">
<title>Node2&#45;&gt;Node9</title>
<path fill="none" stroke="midnightblue" d="M535.92,-239.39C477.38,-227.26 400.9,-200.73 362.69,-143 340.55,-109.55 354.34,-79.71 386.69,-56 393.79,-50.8 610.29,-31.05 741.37,-19.52"/>
<polygon fill="midnightblue" stroke="midnightblue" points="741.78,-23 751.44,-18.63 741.17,-16.02 741.78,-23"/>
</g>
<!-- Node10 -->
<g id="node10" class="node">
<title>Node10</title>
<g id="a_node10"><a xlink:href="_field_utils_8_h.html" target="_top" xlink:title=" ">
<polygon fill="white" stroke="black" points="13.69,-118 13.69,-137 159.69,-137 159.69,-118 13.69,-118"/>
<text text-anchor="middle" x="86.69" y="-125" font-family="Helvetica,sans-Serif" font-size="10.00">amr&#45;wind/core/FieldUtils.H</text>
</a>
</g>
</g>
<!-- Node2&#45;&gt;Node10 -->
<g id="edge9" class="edge">
<title>Node2&#45;&gt;Node10</title>
<path fill="none" stroke="midnightblue" d="M536.1,-238.85C476.51,-230.03 392.39,-216.17 319.69,-199 247.99,-182.06 165.9,-155.5 120.82,-140.28"/>
<polygon fill="midnightblue" stroke="midnightblue" points="121.84,-136.93 111.24,-137.03 119.59,-143.56 121.84,-136.93"/>
</g>
<!-- Node11 -->
<g id="node11" class="node">
<title>Node11</title>
<g id="a_node11"><a xlink:title=" ">
<polygon fill="white" stroke="#bfbfbf" points="146.19,-0.5 146.19,-19.5 255.19,-19.5 255.19,-0.5 146.19,-0.5"/>
<text text-anchor="middle" x="200.69" y="-7.5" font-family="Helvetica,sans-Serif" font-size="10.00">AMReX_MultiFab.H</text>
</a>
</g>
</g>
<!-- Node2&#45;&gt;Node11 -->
<g id="edge56" class="edge">
<title>Node2&#45;&gt;Node11</title>
<path fill="none" stroke="midnightblue" d="M536.08,-248.16C387,-243.74 69.53,-224.71 4.69,-143 -6.2,-129.28 5.44,-63.96 12.69,-56 29.25,-37.82 88.48,-25.7 136.09,-18.67"/>
<polygon fill="midnightblue" stroke="midnightblue" points="136.64,-22.13 146.05,-17.25 135.65,-15.2 136.64,-22.13"/>
</g>
<!-- Node13 -->
<g id="node13" class="node">
<title>Node13</title>
<g id="a_node13"><a xlink:href="_field_repo_8_h.html" target="_top" xlink:title=" ">
<polygon fill="white" stroke="black" points="874.19,-179.5 874.19,-198.5 1023.19,-198.5 1023.19,-179.5 874.19,-179.5"/>
<text text-anchor="middle" x="948.69" y="-186.5" font-family="Helvetica,sans-Serif" font-size="10.00">amr&#45;wind/core/FieldRepo.H</text>
</a>
</g>
</g>
<!-- Node2&#45;&gt;Node13 -->
<g id="edge13" class="edge">
<title>Node2&#45;&gt;Node13</title>
<path fill="none" stroke="midnightblue" d="M691.39,-235.7C752.16,-224.91 835.33,-210.13 890.47,-200.34"/>
<polygon fill="midnightblue" stroke="midnightblue" points="891.19,-203.77 900.43,-198.57 889.97,-196.88 891.19,-203.77"/>
</g>
<!-- Node4 -->
<g id="node4" class="node">
<title>Node4</title>
<g id="a_node4"><a xlink:title=" ">
<polygon fill="white" stroke="#bfbfbf" points="1797.69,-56.5 1797.69,-75.5 1855.69,-75.5 1855.69,-56.5 1797.69,-56.5"/>
<text text-anchor="middle" x="1826.69" y="-63.5" font-family="Helvetica,sans-Serif" font-size="10.00">memory</text>
</a>
</g>
</g>
<!-- Node3&#45;&gt;Node4 -->
<g id="edge3" class="edge">
<title>Node3&#45;&gt;Node4</title>
<path fill="none" stroke="midnightblue" d="M1876.38,-117.98C1867.51,-108.87 1853.24,-94.24 1842.27,-82.98"/>
<polygon fill="midnightblue" stroke="midnightblue" points="1844.47,-80.23 1834.98,-75.51 1839.46,-85.11 1844.47,-80.23"/>
</g>
<!-- Node5 -->
<g id="node5" class="node">
<title>Node5</title>
<g id="a_node5"><a xlink:title=" ">
<polygon fill="white" stroke="#bfbfbf" points="1648.19,-56.5 1648.19,-75.5 1741.19,-75.5 1741.19,-56.5 1648.19,-56.5"/>
<text text-anchor="middle" x="1694.69" y="-63.5" font-family="Helvetica,sans-Serif" font-size="10.00">unordered_map</text>
</a>
</g>
</g>
<!-- Node3&#45;&gt;Node5 -->
<g id="edge4" class="edge">
<title>Node3&#45;&gt;Node5</title>
<path fill="none" stroke="midnightblue" d="M1857.47,-117.98C1824.45,-107.64 1768.65,-90.16 1731.74,-78.6"/>
<polygon fill="midnightblue" stroke="midnightblue" points="1732.45,-75.16 1721.86,-75.51 1730.36,-81.84 1732.45,-75.16"/>
</g>
<!-- Node6 -->
<g id="node6" class="node">
<title>Node6</title>
<g id="a_node6"><a xlink:title=" ">
<polygon fill="white" stroke="#bfbfbf" points="1873.69,-56.5 1873.69,-75.5 1933.69,-75.5 1933.69,-56.5 1873.69,-56.5"/>
<text text-anchor="middle" x="1903.69" y="-63.5" font-family="Helvetica,sans-Serif" font-size="10.00">iostream</text>
</a>
</g>
</g>
<!-- Node3&#45;&gt;Node6 -->
<g id="edge5" class="edge">
<title>Node3&#45;&gt;Node6</title>
<path fill="none" stroke="midnightblue" d="M1887.41,-117.98C1890.12,-109.49 1894.36,-96.2 1897.84,-85.32"/>
<polygon fill="midnightblue" stroke="midnightblue" points="1901.26,-86.1 1900.97,-75.51 1894.6,-83.97 1901.26,-86.1"/>
</g>
<!-- Node7 -->
<g id="node7" class="node">
<title>Node7</title>
<g id="a_node7"><a xlink:title=" ">
<polygon fill="white" stroke="#bfbfbf" points="1951.69,-56.5 1951.69,-75.5 2041.69,-75.5 2041.69,-56.5 1951.69,-56.5"/>
<text text-anchor="middle" x="1996.69" y="-63.5" font-family="Helvetica,sans-Serif" font-size="10.00">AMReX_Print.H</text>
</a>
</g>
</g>
<!-- Node3&#45;&gt;Node7 -->
<g id="edge6" class="edge">
<title>Node3&#45;&gt;Node7</title>
<path fill="none" stroke="midnightblue" d="M1900.74,-117.98C1919.28,-108.12 1950.03,-91.79 1971.71,-80.27"/>
<polygon fill="midnightblue" stroke="midnightblue" points="1973.48,-83.29 1980.67,-75.51 1970.2,-77.11 1973.48,-83.29"/>
</g>
<!-- Node8 -->
<g id="node8" class="node">
<title>Node8</title>
<g id="a_node8"><a xlink:title=" ">
<polygon fill="white" stroke="#bfbfbf" points="2059.69,-56.5 2059.69,-75.5 2121.69,-75.5 2121.69,-56.5 2059.69,-56.5"/>
<text text-anchor="middle" x="2090.69" y="-63.5" font-family="Helvetica,sans-Serif" font-size="10.00">AMReX.H</text>
</a>
</g>
</g>
<!-- Node3&#45;&gt;Node8 -->
<g id="edge7" class="edge">
<title>Node3&#45;&gt;Node8</title>
<path fill="none" stroke="midnightblue" d="M1914.2,-117.98C1950.31,-107.55 2011.54,-89.86 2051.54,-78.31"/>
<polygon fill="midnightblue" stroke="midnightblue" points="2052.59,-81.65 2061.23,-75.51 2050.65,-74.92 2052.59,-81.65"/>
</g>
<!-- Node10&#45;&gt;Node9 -->
<g id="edge10" class="edge">
<title>Node10&#45;&gt;Node9</title>
<path fill="none" stroke="midnightblue" d="M109.44,-117.88C150.69,-102.66 240.84,-71.17 319.69,-56 359.87,-48.27 602.17,-29.05 741.4,-18.4"/>
<polygon fill="midnightblue" stroke="midnightblue" points="741.95,-21.87 751.66,-17.62 741.42,-14.89 741.95,-21.87"/>
</g>
<!-- Node10&#45;&gt;Node11 -->
<g id="edge11" class="edge">
<title>Node10&#45;&gt;Node11</title>
<path fill="none" stroke="midnightblue" d="M67.78,-117.84C42.29,-104.98 2.12,-79.79 20.69,-56 34.97,-37.71 90.21,-25.75 135.77,-18.79"/>
<polygon fill="midnightblue" stroke="midnightblue" points="136.53,-22.22 145.92,-17.3 135.52,-15.29 136.53,-22.22"/>
</g>
<!-- Node12 -->
<g id="node12" class="node">
<title>Node12</title>
<g id="a_node12"><a xlink:title=" ">
<polygon fill="white" stroke="#bfbfbf" points="29.69,-56.5 29.69,-75.5 153.69,-75.5 153.69,-56.5 29.69,-56.5"/>
<text text-anchor="middle" x="91.69" y="-63.5" font-family="Helvetica,sans-Serif" font-size="10.00">AMReX_Interpolater.H</text>
</a>
</g>
</g>
<!-- Node10&#45;&gt;Node12 -->
<g id="edge12" class="edge">
<title>Node10&#45;&gt;Node12</title>
<path fill="none" stroke="midnightblue" d="M87.41,-117.98C88.11,-109.58 89.21,-96.48 90.12,-85.66"/>
<polygon fill="midnightblue" stroke="midnightblue" points="93.63,-85.77 90.97,-75.51 86.65,-85.18 93.63,-85.77"/>
</g>
<!-- Node13&#45;&gt;Node5 -->
<g id="edge15" class="edge">
<title>Node13&#45;&gt;Node5</title>
<path fill="none" stroke="midnightblue" d="M1023.33,-184.88C1154.12,-178.93 1419.42,-164.61 1509.69,-143 1569.26,-128.74 1634.58,-98.04 1669.44,-80.33"/>
<polygon fill="midnightblue" stroke="midnightblue" points="1671.14,-83.4 1678.43,-75.71 1667.94,-77.17 1671.14,-83.4"/>
</g>
<!-- Node13&#45;&gt;Node9 -->
<g id="edge16" class="edge">
<title>Node13&#45;&gt;Node9</title>
<path fill="none" stroke="midnightblue" d="M943.43,-179.46C926.57,-152.08 873.59,-66.05 850.56,-28.65"/>
<polygon fill="midnightblue" stroke="midnightblue" points="853.38,-26.55 845.15,-19.87 847.41,-30.22 853.38,-26.55"/>
</g>
<!-- Node13&#45;&gt;Node10 -->
<g id="edge17" class="edge">
<title>Node13&#45;&gt;Node10</title>
<path fill="none" stroke="midnightblue" d="M873.92,-186.32C735.41,-182.62 429.68,-171.68 173.69,-143 163.43,-141.85 152.53,-140.3 142.05,-138.64"/>
<polygon fill="midnightblue" stroke="midnightblue" points="142.6,-135.18 132.17,-137.02 141.47,-142.09 142.6,-135.18"/>
</g>
<!-- Node13&#45;&gt;Node11 -->
<g id="edge54" class="edge">
<title>Node13&#45;&gt;Node11</title>
<path fill="none" stroke="midnightblue" d="M874.18,-187.78C737.79,-186.49 453.65,-179.35 362.69,-143 298.3,-117.27 239.75,-56.38 214.22,-27.17"/>
<polygon fill="midnightblue" stroke="midnightblue" points="216.82,-24.83 207.65,-19.52 211.5,-29.38 216.82,-24.83"/>
</g>
<!-- Node14 -->
<g id="node14" class="node">
<title>Node14</title>
<g id="a_node14"><a xlink:title=" ">
<polygon fill="white" stroke="#bfbfbf" points="1053.69,-0.5 1053.69,-19.5 1097.69,-19.5 1097.69,-0.5 1053.69,-0.5"/>
<text text-anchor="middle" x="1075.69" y="-7.5" font-family="Helvetica,sans-Serif" font-size="10.00">string</text>
</a>
</g>
</g>
<!-- Node13&#45;&gt;Node14 -->
<g id="edge14" class="edge">
<title>Node13&#45;&gt;Node14</title>
<path fill="none" stroke="midnightblue" d="M1023.26,-185.22C1164.64,-179.51 1466.65,-165.12 1568.69,-143 1652.52,-124.83 1700.68,-146.4 1749.69,-76 1754.77,-68.7 1755.76,-62.49 1749.69,-56 1705.51,-8.77 1237.11,-9.52 1108.31,-10.63"/>
<polygon fill="midnightblue" stroke="midnightblue" points="1107.89,-7.14 1097.93,-10.73 1107.96,-14.14 1107.89,-7.14"/>
</g>
<!-- Node15 -->
<g id="node15" class="node">
<title>Node15</title>
<g id="a_node15"><a xlink:href="_field_8_h.html" target="_top" xlink:title=" ">
<polygon fill="white" stroke="black" points="1376.69,-118 1376.69,-137 1500.69,-137 1500.69,-118 1376.69,-118"/>
<text text-anchor="middle" x="1438.69" y="-125" font-family="Helvetica,sans-Serif" font-size="10.00">amr&#45;wind/core/Field.H</text>
</a>
</g>
</g>
<!-- Node13&#45;&gt;Node15 -->
<g id="edge18" class="edge">
<title>Node13&#45;&gt;Node15</title>
<path fill="none" stroke="midnightblue" d="M1018.89,-179.48C1111.32,-168.25 1273,-148.62 1366.44,-137.27"/>
<polygon fill="midnightblue" stroke="midnightblue" points="1366.87,-140.75 1376.37,-136.07 1366.03,-133.8 1366.87,-140.75"/>
</g>
<!-- Node22 -->
<g id="node22" class="node">
<title>Node22</title>
<g id="a_node22"><a xlink:href="_int_field_8_h.html" target="_top" xlink:title=" ">
<polygon fill="white" stroke="black" points="1101.19,-118 1101.19,-137 1238.19,-137 1238.19,-118 1101.19,-118"/>
<text text-anchor="middle" x="1169.69" y="-125" font-family="Helvetica,sans-Serif" font-size="10.00">amr&#45;wind/core/IntField.H</text>
</a>
</g>
</g>
<!-- Node13&#45;&gt;Node22 -->
<g id="edge33" class="edge">
<title>Node13&#45;&gt;Node22</title>
<path fill="none" stroke="midnightblue" d="M980.35,-179.48C1019.25,-169 1085.33,-151.21 1128.24,-139.66"/>
<polygon fill="midnightblue" stroke="midnightblue" points="1129.34,-142.99 1138.08,-137.01 1127.52,-136.23 1129.34,-142.99"/>
</g>
<!-- Node23 -->
<g id="node23" class="node">
<title>Node23</title>
<g id="a_node23"><a xlink:title=" ">
<polygon fill="white" stroke="#bfbfbf" points="968.69,-56.5 968.69,-75.5 1080.69,-75.5 1080.69,-56.5 968.69,-56.5"/>
<text text-anchor="middle" x="1024.69" y="-63.5" font-family="Helvetica,sans-Serif" font-size="10.00">AMReX_iMultiFab.H</text>
</a>
</g>
</g>
<!-- Node13&#45;&gt;Node23 -->
<g id="edge55" class="edge">
<title>Node13&#45;&gt;Node23</title>
<path fill="none" stroke="midnightblue" d="M997.46,-179.5C1018.48,-173.15 1041.08,-162.12 1053.69,-143 1066.02,-124.3 1051.94,-99.59 1039.44,-83.51"/>
<polygon fill="midnightblue" stroke="midnightblue" points="1041.91,-81.01 1032.83,-75.55 1036.53,-85.48 1041.91,-81.01"/>
</g>
<!-- Node24 -->
<g id="node24" class="node">
<title>Node24</title>
<g id="a_node24"><a xlink:href="_scratch_field_8_h.html" target="_top" xlink:title=" ">
<polygon fill="white" stroke="black" points="371.69,-118 371.69,-137 531.69,-137 531.69,-118 371.69,-118"/>
<text text-anchor="middle" x="451.69" y="-125" font-family="Helvetica,sans-Serif" font-size="10.00">amr&#45;wind/core/ScratchField.H</text>
</a>
</g>
</g>
<!-- Node13&#45;&gt;Node24 -->
<g id="edge37" class="edge">
<title>Node13&#45;&gt;Node24</title>
<path fill="none" stroke="midnightblue" d="M877.48,-179.48C786.32,-168.56 628.75,-149.7 532.98,-138.23"/>
<polygon fill="midnightblue" stroke="midnightblue" points="533.11,-134.72 522.77,-137.01 532.28,-141.67 533.11,-134.72"/>
</g>
<!-- Node27 -->
<g id="node27" class="node">
<title>Node27</title>
<g id="a_node27"><a xlink:href="_int_scratch_field_8_h.html" target="_top" xlink:title=" ">
<polygon fill="white" stroke="black" points="709.19,-112.5 709.19,-142.5 848.19,-142.5 848.19,-112.5 709.19,-112.5"/>
<text text-anchor="start" x="717.19" y="-130.5" font-family="Helvetica,sans-Serif" font-size="10.00">amr&#45;wind/core/IntScratch</text>
<text text-anchor="middle" x="778.69" y="-119.5" font-family="Helvetica,sans-Serif" font-size="10.00">Field.H</text>
</a>
</g>
</g>
<!-- Node13&#45;&gt;Node27 -->
<g id="edge45" class="edge">
<title>Node13&#45;&gt;Node27</title>
<path fill="none" stroke="midnightblue" d="M924.33,-179.48C899.37,-170.74 859.85,-156.91 828.28,-145.86"/>
<polygon fill="midnightblue" stroke="midnightblue" points="829.35,-142.52 818.76,-142.52 827.04,-149.13 829.35,-142.52"/>
</g>
<!-- Node28 -->
<g id="node28" class="node">
<title>Node28</title>
<g id="a_node28"><a xlink:title=" ">
<polygon fill="white" stroke="#bfbfbf" points="934.69,-118 934.69,-137 1044.69,-137 1044.69,-118 934.69,-118"/>
<text text-anchor="middle" x="989.69" y="-125" font-family="Helvetica,sans-Serif" font-size="10.00">AMReX_AmrCore.H</text>
</a>
</g>
</g>
<!-- Node13&#45;&gt;Node28 -->
<g id="edge53" class="edge">
<title>Node13&#45;&gt;Node28</title>
<path fill="none" stroke="midnightblue" d="M954.56,-179.48C960.65,-170.64 970.33,-156.59 977.99,-145.48"/>
<polygon fill="midnightblue" stroke="midnightblue" points="981.03,-147.23 983.83,-137.01 975.27,-143.26 981.03,-147.23"/>
</g>
<!-- Node15&#45;&gt;Node4 -->
<g id="edge20" class="edge">
<title>Node15&#45;&gt;Node4</title>
<path fill="none" stroke="midnightblue" d="M1494.28,-117.98C1573.81,-105.78 1718.08,-83.66 1787.41,-73.02"/>
<polygon fill="midnightblue" stroke="midnightblue" points="1788.13,-76.45 1797.48,-71.48 1787.06,-69.54 1788.13,-76.45"/>
</g>
<!-- Node15&#45;&gt;Node5 -->
<g id="edge21" class="edge">
<title>Node15&#45;&gt;Node5</title>
<path fill="none" stroke="midnightblue" d="M1475.37,-117.98C1520.9,-107.39 1598.59,-89.34 1648.24,-77.8"/>
<polygon fill="midnightblue" stroke="midnightblue" points="1649.13,-81.18 1658.08,-75.51 1647.55,-74.36 1649.13,-81.18"/>
</g>
<!-- Node15&#45;&gt;Node9 -->
<g id="edge27" class="edge">
<title>Node15&#45;&gt;Node9</title>
<path fill="none" stroke="midnightblue" d="M1402.83,-117.9C1343.8,-103.9 1222.35,-75.76 1118.69,-56 1047.31,-42.39 965.14,-29.47 908.55,-20.99"/>
<polygon fill="midnightblue" stroke="midnightblue" points="909.05,-17.53 898.64,-19.51 908.02,-24.45 909.05,-17.53"/>
</g>
<!-- Node15&#45;&gt;Node11 -->
<g id="edge23" class="edge">
<title>Node15&#45;&gt;Node11</title>
<path fill="none" stroke="midnightblue" d="M1376.64,-123.64C1311.6,-119.03 1207.31,-107.05 1122.69,-76 1106.59,-70.09 1106.09,-61.03 1089.69,-56 1011.67,-32.06 457.11,-16.99 265.57,-12.45"/>
<polygon fill="midnightblue" stroke="midnightblue" points="265.45,-8.95 255.37,-12.21 265.28,-15.94 265.45,-8.95"/>
</g>
<!-- Node15&#45;&gt;Node14 -->
<g id="edge19" class="edge">
<title>Node15&#45;&gt;Node14</title>
<path fill="none" stroke="midnightblue" d="M1461.56,-117.94C1492.07,-105.29 1539.81,-80.49 1517.69,-56 1490.28,-25.66 1205.01,-14.71 1107.87,-11.84"/>
<polygon fill="midnightblue" stroke="midnightblue" points="1107.86,-8.34 1097.77,-11.55 1107.66,-15.34 1107.86,-8.34"/>
</g>
<!-- Node16 -->
<g id="node16" class="node">
<title>Node16</title>
<g id="a_node16"><a xlink:title=" ">
<polygon fill="white" stroke="#bfbfbf" points="1565.69,-56.5 1565.69,-75.5 1629.69,-75.5 1629.69,-56.5 1565.69,-56.5"/>
<text text-anchor="middle" x="1597.69" y="-63.5" font-family="Helvetica,sans-Serif" font-size="10.00">algorithm</text>
</a>
</g>
</g>
<!-- Node15&#45;&gt;Node16 -->
<g id="edge22" class="edge">
<title>Node15&#45;&gt;Node16</title>
<path fill="none" stroke="midnightblue" d="M1461.47,-117.98C1488.74,-107.77 1534.6,-90.61 1565.49,-79.05"/>
<polygon fill="midnightblue" stroke="midnightblue" points="1566.81,-82.29 1574.95,-75.51 1564.36,-75.74 1566.81,-82.29"/>
</g>
<!-- Node17 -->
<g id="node17" class="node">
<title>Node17</title>
<g id="a_node17"><a xlink:title=" ">
<polygon fill="white" stroke="#bfbfbf" points="1251.19,-56.5 1251.19,-75.5 1350.19,-75.5 1350.19,-56.5 1251.19,-56.5"/>
<text text-anchor="middle" x="1300.69" y="-63.5" font-family="Helvetica,sans-Serif" font-size="10.00">AMReX_BCRec.H</text>
</a>
</g>
</g>
<!-- Node15&#45;&gt;Node17 -->
<g id="edge24" class="edge">
<title>Node15&#45;&gt;Node17</title>
<path fill="none" stroke="midnightblue" d="M1418.92,-117.98C1395.55,-107.9 1356.48,-91.05 1329.69,-79.5"/>
<polygon fill="midnightblue" stroke="midnightblue" points="1330.99,-76.25 1320.43,-75.51 1328.22,-82.68 1330.99,-76.25"/>
</g>
<!-- Node18 -->
<g id="node18" class="node">
<title>Node18</title>
<g id="a_node18"><a xlink:title=" ">
<polygon fill="white" stroke="#bfbfbf" points="2140.19,-56.5 2140.19,-75.5 2227.19,-75.5 2227.19,-56.5 2140.19,-56.5"/>
<text text-anchor="middle" x="2183.69" y="-63.5" font-family="Helvetica,sans-Serif" font-size="10.00">AMReX_Gpu.H</text>
</a>
</g>
</g>
<!-- Node15&#45;&gt;Node18 -->
<g id="edge25" class="edge">
<title>Node15&#45;&gt;Node18</title>
<path fill="none" stroke="midnightblue" d="M1500.91,-123.95C1620.63,-118.61 1891.48,-104.43 2129.82,-75.98"/>
<polygon fill="midnightblue" stroke="midnightblue" points="2130.56,-79.42 2140.07,-74.75 2129.72,-72.47 2130.56,-79.42"/>
</g>
<!-- Node19 -->
<g id="node19" class="node">
<title>Node19</title>
<g id="a_node19"><a xlink:href="incflo__enums_8_h.html" target="_top" xlink:title=" ">
<polygon fill="white" stroke="black" points="1368.19,-56.5 1368.19,-75.5 1509.19,-75.5 1509.19,-56.5 1368.19,-56.5"/>
<text text-anchor="middle" x="1438.69" y="-63.5" font-family="Helvetica,sans-Serif" font-size="10.00">amr&#45;wind/incflo_enums.H</text>
</a>
</g>
</g>
<!-- Node15&#45;&gt;Node19 -->
<g id="edge26" class="edge">
<title>Node15&#45;&gt;Node19</title>
<path fill="none" stroke="midnightblue" d="M1438.69,-117.98C1438.69,-109.58 1438.69,-96.48 1438.69,-85.66"/>
<polygon fill="midnightblue" stroke="midnightblue" points="1442.19,-85.51 1438.69,-75.51 1435.19,-85.51 1442.19,-85.51"/>
</g>
<!-- Node20 -->
<g id="node20" class="node">
<title>Node20</title>
<g id="a_node20"><a xlink:href="_view_field_8_h.html" target="_top" xlink:title=" ">
<polygon fill="white" stroke="black" points="688.69,-56.5 688.69,-75.5 836.69,-75.5 836.69,-56.5 688.69,-56.5"/>
<text text-anchor="middle" x="762.69" y="-63.5" font-family="Helvetica,sans-Serif" font-size="10.00">amr&#45;wind/core/ViewField.H</text>
</a>
</g>
</g>
<!-- Node15&#45;&gt;Node20 -->
<g id="edge28" class="edge">
<title>Node15&#45;&gt;Node20</title>
<path fill="none" stroke="midnightblue" d="M1376.61,-121.04C1254.89,-110.32 984.79,-86.55 847.04,-74.42"/>
<polygon fill="midnightblue" stroke="midnightblue" points="847.22,-70.93 836.95,-73.54 846.6,-77.9 847.22,-70.93"/>
</g>
<!-- Node20&#45;&gt;Node9 -->
<g id="edge30" class="edge">
<title>Node20&#45;&gt;Node9</title>
<path fill="none" stroke="midnightblue" d="M775.06,-56.32C786.85,-48.06 804.82,-35.45 818.83,-25.63"/>
<polygon fill="midnightblue" stroke="midnightblue" points="821.17,-28.26 827.35,-19.65 817.15,-22.53 821.17,-28.26"/>
</g>
<!-- Node20&#45;&gt;Node11 -->
<g id="edge31" class="edge">
<title>Node20&#45;&gt;Node11</title>
<path fill="none" stroke="midnightblue" d="M688.64,-57.88C577.87,-47.24 370.84,-27.35 265.64,-17.24"/>
<polygon fill="midnightblue" stroke="midnightblue" points="265.76,-13.74 255.47,-16.26 265.09,-20.7 265.76,-13.74"/>
</g>
<!-- Node20&#45;&gt;Node14 -->
<g id="edge29" class="edge">
<title>Node20&#45;&gt;Node14</title>
<path fill="none" stroke="midnightblue" d="M812.29,-56.44C877.09,-45.26 988.74,-26 1043.5,-16.55"/>
<polygon fill="midnightblue" stroke="midnightblue" points="1044.4,-19.95 1053.66,-14.8 1043.21,-13.05 1044.4,-19.95"/>
</g>
<!-- Node21 -->
<g id="node21" class="node">
<title>Node21</title>
<g id="a_node21"><a xlink:title=" ">
<polygon fill="white" stroke="#bfbfbf" points="611.69,-0.5 611.69,-19.5 709.69,-19.5 709.69,-0.5 611.69,-0.5"/>
<text text-anchor="middle" x="660.69" y="-7.5" font-family="Helvetica,sans-Serif" font-size="10.00">AMReX_Vector.H</text>
</a>
</g>
</g>
<!-- Node20&#45;&gt;Node21 -->
<g id="edge32" class="edge">
<title>Node20&#45;&gt;Node21</title>
<path fill="none" stroke="midnightblue" d="M746.3,-56.32C730.02,-47.7 704.82,-34.36 685.97,-24.39"/>
<polygon fill="midnightblue" stroke="midnightblue" points="687.51,-21.24 677.04,-19.65 684.24,-27.43 687.51,-21.24"/>
</g>
<!-- Node22&#45;&gt;Node9 -->
<g id="edge35" class="edge">
<title>Node22&#45;&gt;Node9</title>
<path fill="none" stroke="midnightblue" d="M1162.79,-117.91C1150.09,-102.73 1121.36,-71.31 1089.69,-56 1042.61,-33.25 985.52,-21.92 937.78,-16.31"/>
<polygon fill="midnightblue" stroke="midnightblue" points="938.07,-12.82 927.74,-15.2 937.3,-19.78 938.07,-12.82"/>
</g>
<!-- Node22&#45;&gt;Node14 -->
<g id="edge34" class="edge">
<title>Node22&#45;&gt;Node14</title>
<path fill="none" stroke="midnightblue" d="M1170.97,-117.8C1172.58,-103.54 1173.75,-74.87 1160.69,-56 1148.2,-37.96 1126.15,-26.59 1107.63,-19.78"/>
<polygon fill="midnightblue" stroke="midnightblue" points="1108.66,-16.44 1098.06,-16.55 1106.42,-23.07 1108.66,-16.44"/>
</g>
<!-- Node22&#45;&gt;Node23 -->
<g id="edge36" class="edge">
<title>Node22&#45;&gt;Node23</title>
<path fill="none" stroke="midnightblue" d="M1148.91,-117.98C1124.26,-107.86 1082.94,-90.9 1054.79,-79.35"/>
<polygon fill="midnightblue" stroke="midnightblue" points="1056.01,-76.07 1045.43,-75.51 1053.35,-82.54 1056.01,-76.07"/>
</g>
<!-- Node24&#45;&gt;Node9 -->
<g id="edge40" class="edge">
<title>Node24&#45;&gt;Node9</title>
<path fill="none" stroke="midnightblue" d="M436.32,-117.97C413.77,-104.42 376.41,-77.34 395.69,-56 401.45,-49.63 612.25,-30.49 741.29,-19.33"/>
<polygon fill="midnightblue" stroke="midnightblue" points="741.92,-22.79 751.58,-18.44 741.32,-15.82 741.92,-22.79"/>
</g>
<!-- Node24&#45;&gt;Node11 -->
<g id="edge42" class="edge">
<title>Node24&#45;&gt;Node11</title>
<path fill="none" stroke="midnightblue" d="M432.82,-117.82C389.02,-97.66 280.22,-47.6 228.66,-23.87"/>
<polygon fill="midnightblue" stroke="midnightblue" points="229.98,-20.63 219.43,-19.62 227.05,-26.98 229.98,-20.63"/>
</g>
<!-- Node24&#45;&gt;Node14 -->
<g id="edge38" class="edge">
<title>Node24&#45;&gt;Node14</title>
<path fill="none" stroke="midnightblue" d="M444.19,-117.97C432.32,-103.42 412.18,-73.7 428.69,-56 431.35,-53.15 912.81,-21.61 1043.36,-13.1"/>
<polygon fill="midnightblue" stroke="midnightblue" points="1043.77,-16.58 1053.52,-12.44 1043.31,-9.6 1043.77,-16.58"/>
</g>
<!-- Node24&#45;&gt;Node20 -->
<g id="edge41" class="edge">
<title>Node24&#45;&gt;Node20</title>
<path fill="none" stroke="midnightblue" d="M496.25,-117.98C552.14,-107.28 647.92,-88.96 708.13,-77.44"/>
<polygon fill="midnightblue" stroke="midnightblue" points="709.05,-80.83 718.21,-75.51 707.73,-73.95 709.05,-80.83"/>
</g>
<!-- Node24&#45;&gt;Node21 -->
<g id="edge43" class="edge">
<title>Node24&#45;&gt;Node21</title>
<path fill="none" stroke="midnightblue" d="M422.41,-117.91C386.86,-106.05 334.37,-83.03 357.69,-56 388.48,-20.3 521.94,-12.47 601.11,-11.02"/>
<polygon fill="midnightblue" stroke="midnightblue" points="601.48,-14.52 611.42,-10.86 601.37,-7.52 601.48,-14.52"/>
</g>
<!-- Node25 -->
<g id="node25" class="node">
<title>Node25</title>
<g id="a_node25"><a xlink:title=" ">
<polygon fill="white" stroke="#bfbfbf" points="438.19,-56.5 438.19,-75.5 483.19,-75.5 483.19,-56.5 438.19,-56.5"/>
<text text-anchor="middle" x="460.69" y="-63.5" font-family="Helvetica,sans-Serif" font-size="10.00">utility</text>
</a>
</g>
</g>
<!-- Node24&#45;&gt;Node25 -->
<g id="edge39" class="edge">
<title>Node24&#45;&gt;Node25</title>
<path fill="none" stroke="midnightblue" d="M452.98,-117.98C454.25,-109.58 456.23,-96.48 457.87,-85.66"/>
<polygon fill="midnightblue" stroke="midnightblue" points="461.37,-85.92 459.4,-75.51 454.45,-84.87 461.37,-85.92"/>
</g>
<!-- Node26 -->
<g id="node26" class="node">
<title>Node26</title>
<g id="a_node26"><a xlink:title=" ">
<polygon fill="white" stroke="#bfbfbf" points="501.19,-56.5 501.19,-75.5 632.19,-75.5 632.19,-56.5 501.19,-56.5"/>
<text text-anchor="middle" x="566.69" y="-63.5" font-family="Helvetica,sans-Serif" font-size="10.00">AMReX_PhysBCFunct.H</text>
</a>
</g>
</g>
<!-- Node24&#45;&gt;Node26 -->
<g id="edge44" class="edge">
<title>Node24&#45;&gt;Node26</title>
<path fill="none" stroke="midnightblue" d="M468.17,-117.98C487.3,-108.08 519.06,-91.64 541.34,-80.12"/>
<polygon fill="midnightblue" stroke="midnightblue" points="542.97,-83.21 550.24,-75.51 539.75,-77 542.97,-83.21"/>
</g>
<!-- Node27&#45;&gt;Node9 -->
<g id="edge48" class="edge">
<title>Node27&#45;&gt;Node9</title>
<path fill="none" stroke="midnightblue" d="M808.38,-112.34C822.43,-103.92 837.83,-91.77 845.69,-76 852.95,-61.43 850.18,-42.76 846.34,-29.16"/>
<polygon fill="midnightblue" stroke="midnightblue" points="849.63,-27.96 843.21,-19.53 842.97,-30.12 849.63,-27.96"/>
</g>
<!-- Node27&#45;&gt;Node14 -->
<g id="edge46" class="edge">
<title>Node27&#45;&gt;Node14</title>
<path fill="none" stroke="midnightblue" d="M814.74,-112.44C851.27,-98.2 909.4,-75.55 959.69,-56 988.23,-44.91 1020.73,-32.3 1044.05,-23.26"/>
<polygon fill="midnightblue" stroke="midnightblue" points="1045.39,-26.5 1053.45,-19.62 1042.86,-19.97 1045.39,-26.5"/>
</g>
<!-- Node27&#45;&gt;Node20 -->
<g id="edge49" class="edge">
<title>Node27&#45;&gt;Node20</title>
<path fill="none" stroke="midnightblue" d="M774.9,-112.4C772.74,-104.38 770.01,-94.23 767.68,-85.57"/>
<polygon fill="midnightblue" stroke="midnightblue" points="770.99,-84.41 765.02,-75.66 764.23,-86.22 770.99,-84.41"/>
</g>
<!-- Node27&#45;&gt;Node21 -->
<g id="edge51" class="edge">
<title>Node27&#45;&gt;Node21</title>
<path fill="none" stroke="midnightblue" d="M733.29,-112.44C714.33,-104.49 693.54,-92.72 679.69,-76 668.8,-62.85 664.15,-43.71 662.17,-29.6"/>
<polygon fill="midnightblue" stroke="midnightblue" points="665.64,-29.14 661.08,-19.58 658.68,-29.9 665.64,-29.14"/>
</g>
<!-- Node27&#45;&gt;Node23 -->
<g id="edge50" class="edge">
<title>Node27&#45;&gt;Node23</title>
<path fill="none" stroke="midnightblue" d="M836.68,-112.47C880.41,-101.9 939.54,-87.59 979.73,-77.87"/>
<polygon fill="midnightblue" stroke="midnightblue" points="980.62,-81.26 989.52,-75.51 978.98,-74.46 980.62,-81.26"/>
</g>
<!-- Node27&#45;&gt;Node25 -->
<g id="edge47" class="edge">
<title>Node27&#45;&gt;Node25</title>
<path fill="none" stroke="midnightblue" d="M708.96,-116.4C652.97,-107.79 572.19,-94.26 493.4,-76.21"/>
<polygon fill="midnightblue" stroke="midnightblue" points="493.83,-72.72 483.3,-73.87 492.25,-79.54 493.83,-72.72"/>
</g>
<!-- Node27&#45;&gt;Node26 -->
<g id="edge52" class="edge">
<title>Node27&#45;&gt;Node26</title>
<path fill="none" stroke="midnightblue" d="M728.72,-112.47C691.5,-102.03 641.36,-87.96 606.76,-78.25"/>
<polygon fill="midnightblue" stroke="midnightblue" points="607.57,-74.84 597,-75.51 605.68,-81.58 607.57,-74.84"/>
</g>
<!-- Node30 -->
<g id="node30" class="node">
<title>Node30</title>
<g id="a_node30"><a xlink:title=" ">
<polygon fill="white" stroke="#bfbfbf" points="2211.69,-179.5 2211.69,-198.5 2303.69,-198.5 2303.69,-179.5 2211.69,-179.5"/>
<text text-anchor="middle" x="2257.69" y="-186.5" font-family="Helvetica,sans-Serif" font-size="10.00">AMReX_REAL.H</text>
</a>
</g>
</g>
<!-- Node29&#45;&gt;Node30 -->
<g id="edge58" class="edge">
<title>Node29&#45;&gt;Node30</title>
<path fill="none" stroke="midnightblue" d="M2345.08,-240.98C2328.34,-231.21 2300.69,-215.08 2280.97,-203.58"/>
<polygon fill="midnightblue" stroke="midnightblue" points="2282.68,-200.52 2272.28,-198.51 2279.15,-206.57 2282.68,-200.52"/>
</g>
<!-- Node31 -->
<g id="node31" class="node">
<title>Node31</title>
<g id="a_node31"><a xlink:title=" ">
<polygon fill="white" stroke="#bfbfbf" points="2455.69,-179.5 2455.69,-198.5 2589.69,-198.5 2589.69,-179.5 2455.69,-179.5"/>
<text text-anchor="middle" x="2522.69" y="-186.5" font-family="Helvetica,sans-Serif" font-size="10.00">AMReX_GpuQualifiers.H</text>
</a>
</g>
</g>
<!-- Node29&#45;&gt;Node31 -->
<g id="edge59" class="edge">
<title>Node29&#45;&gt;Node31</title>
<path fill="none" stroke="midnightblue" d="M2383.04,-240.98C2411,-230.77 2458.02,-213.61 2489.68,-202.05"/>
<polygon fill="midnightblue" stroke="midnightblue" points="2491.19,-205.23 2499.38,-198.51 2488.79,-198.65 2491.19,-205.23"/>
</g>
<!-- Node32 -->
<g id="node32" class="node">
<title>Node32</title>
<g id="a_node32"><a xlink:title=" ">
<polygon fill="white" stroke="#bfbfbf" points="2321.69,-179.5 2321.69,-198.5 2437.69,-198.5 2437.69,-179.5 2321.69,-179.5"/>
<text text-anchor="middle" x="2379.69" y="-186.5" font-family="Helvetica,sans-Serif" font-size="10.00">AMReX_Extension.H</text>
</a>
</g>
</g>
<!-- Node29&#45;&gt;Node32 -->
<g id="edge60" class="edge">
<title>Node29&#45;&gt;Node32</title>
<path fill="none" stroke="midnightblue" d="M2362.56,-240.98C2365.41,-232.49 2369.87,-219.2 2373.53,-208.32"/>
<polygon fill="midnightblue" stroke="midnightblue" points="2376.96,-209.1 2376.83,-198.51 2370.33,-206.87 2376.96,-209.1"/>
</g>
<!-- Node33&#45;&gt;Node18 -->
<g id="edge64" class="edge">
<title>Node33&#45;&gt;Node18</title>
<path fill="none" stroke="midnightblue" d="M2190.15,-235.48C2188.91,-203.1 2185.84,-123.04 2184.42,-86.16"/>
<polygon fill="midnightblue" stroke="midnightblue" points="2187.91,-85.68 2184.03,-75.82 2180.91,-85.95 2187.91,-85.68"/>
</g>
<!-- Node33&#45;&gt;Node30 -->
<g id="edge63" class="edge">
<title>Node33&#45;&gt;Node30</title>
<path fill="none" stroke="midnightblue" d="M2206.57,-235.4C2216.71,-226.4 2229.85,-214.72 2240.28,-205.47"/>
<polygon fill="midnightblue" stroke="midnightblue" points="2242.79,-207.92 2247.94,-198.66 2238.14,-202.68 2242.79,-207.92"/>
</g>
<!-- Node34 -->
<g id="node34" class="node">
<title>Node34</title>
<g id="a_node34"><a xlink:title=" ">
<polygon fill="white" stroke="#bfbfbf" points="2108.19,-179.5 2108.19,-198.5 2155.19,-198.5 2155.19,-179.5 2108.19,-179.5"/>
<text text-anchor="middle" x="2131.69" y="-186.5" font-family="Helvetica,sans-Serif" font-size="10.00">cmath</text>
</a>
</g>
</g>
<!-- Node33&#45;&gt;Node34 -->
<g id="edge62" class="edge">
<title>Node33&#45;&gt;Node34</title>
<path fill="none" stroke="midnightblue" d="M2176.71,-235.4C2167.96,-226.58 2156.66,-215.18 2147.57,-206.02"/>
<polygon fill="midnightblue" stroke="midnightblue" points="2149.8,-203.29 2140.27,-198.66 2144.83,-208.22 2149.8,-203.29"/>
</g>
<!-- Node35&#45;&gt;Node18 -->
<g id="edge66" class="edge">
<title>Node35&#45;&gt;Node18</title>
<path fill="none" stroke="midnightblue" d="M2065.98,-235.4C2073.62,-220.93 2086.22,-197.92 2098.69,-179 2121.95,-143.71 2152.63,-104.92 2170.05,-83.51"/>
<polygon fill="midnightblue" stroke="midnightblue" points="2172.81,-85.66 2176.44,-75.71 2167.4,-81.23 2172.81,-85.66"/>
</g>
</g>
</svg>
        <g id="navigator" transform="translate(0 0)" fill="#404254">
                <rect fill="#f2f5e9" fill-opacity="0.5" stroke="#606060" stroke-width=".5" x="0" y="0" width="60" height="60"/>
                <use id="zoomplus" xlink:href="#zoomPlus" x="17" y="9" onmousedown="handleZoom(evt,'in')"/>
                <use id="zoomminus" xlink:href="#zoomMin" x="42" y="9" onmousedown="handleZoom(evt,'out')"/>
                <use id="reset" xlink:href="#resetDef" x="30" y="36" onmousedown="handleReset()"/>
                <g id="arrowUp" xlink:href="#dirArrow" transform="translate(30 24)" onmousedown="handlePan(0,-1)">
                  <use xlink:href="#rim" fill="#404040">
                        <set attributeName="fill" to="#808080" begin="arrowUp.mouseover" end="arrowUp.mouseout"/>
                  </use>
                  <path fill="none" stroke="white" stroke-width="1.5" d="M0,-3.0v7 M-2.5,-0.5L0,-3.0L2.5,-0.5"/>
                </g>
                <g id="arrowRight" xlink:href="#dirArrow" transform="rotate(90) translate(36 -43)" onmousedown="handlePan(1,0)">
                  <use xlink:href="#rim" fill="#404040">
                        <set attributeName="fill" to="#808080" begin="arrowRight.mouseover" end="arrowRight.mouseout"/>
                  </use>
                  <path fill="none" stroke="white" stroke-width="1.5" d="M0,-3.0v7 M-2.5,-0.5L0,-3.0L2.5,-0.5"/>
                </g>
                <g id="arrowDown" xlink:href="#dirArrow" transform="rotate(180) translate(-30 -48)" onmousedown="handlePan(0,1)">
                  <use xlink:href="#rim" fill="#404040">
                        <set attributeName="fill" to="#808080" begin="arrowDown.mouseover" end="arrowDown.mouseout"/>
                  </use>
                  <path fill="none" stroke="white" stroke-width="1.5" d="M0,-3.0v7 M-2.5,-0.5L0,-3.0L2.5,-0.5"/>
                </g>
                <g id="arrowLeft" xlink:href="#dirArrow" transform="rotate(270) translate(-36 17)" onmousedown="handlePan(-1,0)">
                  <use xlink:href="#rim" fill="#404040">
                        <set attributeName="fill" to="#808080" begin="arrowLeft.mouseover" end="arrowLeft.mouseout"/>
                  </use>
                  <path fill="none" stroke="white" stroke-width="1.5" d="M0,-3.0v7 M-2.5,-0.5L0,-3.0L2.5,-0.5"/>
                </g>
        </g>
        <svg viewBox="0 0 15 15" width="100%" height="30px" preserveAspectRatio="xMaxYMin meet">
         <g id="arrow_out" transform="scale(0.3 0.3)">
          <a xlink:href="_a_b_l_forcing_8_h__incl_org.svg" target="_base">
           <rect id="button" ry="5" rx="5" y="6" x="6" height="38" width="38"
                fill="#f2f5e9" fill-opacity="0.5" stroke="#606060" stroke-width="1.0"/>
           <path id="arrow"
             d="M 11.500037,31.436501 C 11.940474,20.09759 22.043105,11.32322 32.158766,21.979434 L 37.068811,17.246167 C 37.068811,17.246167 37.088388,32 37.088388,32 L 22.160133,31.978069 C 22.160133,31.978069 26.997745,27.140456 26.997745,27.140456 C 18.528582,18.264221 13.291696,25.230495 11.500037,31.436501 z"
             style="fill:#404040;"/>
          </a>
         </g>
        </svg>
</svg>
