<?xml version="1.0" encoding="UTF-8" standalone="no"?>
<!DOCTYPE svg PUBLIC "-//W3C//DTD SVG 1.1//EN"
 "http://www.w3.org/Graphics/SVG/1.1/DTD/svg11.dtd">
<!-- Generated by graphviz version 2.43.0 (0)
 -->
<!-- Title: ABLWallFunction.H Pages: 1 -->
<svg width="1061pt" height="207pt"
 viewBox="0.00 0.00 1060.50 207.00" xmlns="http://www.w3.org/2000/svg" xmlns:xlink="http://www.w3.org/1999/xlink">
<g id="graph0" class="graph" transform="scale(1 1) rotate(0) translate(4 203)">
<title>ABLWallFunction.H</title>
<polygon fill="white" stroke="transparent" points="-4,4 -4,-203 1056.5,-203 1056.5,4 -4,4"/>
<!-- Node1 -->
<g id="node1" class="node">
<title>Node1</title>
<g id="a_node1"><a xlink:title=" ">
<polygon fill="#bfbfbf" stroke="black" points="392,-179.5 392,-198.5 499,-198.5 499,-179.5 392,-179.5"/>
<text text-anchor="middle" x="445.5" y="-186.5" font-family="Helvetica,sans-Serif" font-size="10.00">ABLWallFunction.H</text>
</a>
</g>
</g>
<!-- Node2 -->
<g id="node2" class="node">
<title>Node2</title>
<g id="a_node2"><a xlink:href="_boussinesq_bubble_8cpp.html" target="_top" xlink:title=" ">
<polygon fill="white" stroke="black" points="253.5,-123.5 253.5,-142.5 379.5,-142.5 379.5,-123.5 253.5,-123.5"/>
<text text-anchor="middle" x="316.5" y="-130.5" font-family="Helvetica,sans-Serif" font-size="10.00">BoussinesqBubble.cpp</text>
</a>
</g>
</g>
<!-- Node1&#45;&gt;Node2 -->
<g id="edge1" class="edge">
<title>Node1&#45;&gt;Node2</title>
<path fill="none" stroke="midnightblue" d="M415.65,-175.5C391.46,-165.38 358.04,-151.39 336.84,-142.52"/>
<polygon fill="midnightblue" stroke="midnightblue" points="414.48,-178.81 425.06,-179.44 417.19,-172.35 414.48,-178.81"/>
</g>
<!-- Node3 -->
<g id="node3" class="node">
<title>Node3</title>
<g id="a_node3"><a xlink:href="_a_b_l_8_h.html" target="_top" xlink:title=" ">
<polygon fill="white" stroke="black" points="466.5,-67.5 466.5,-86.5 512.5,-86.5 512.5,-67.5 466.5,-67.5"/>
<text text-anchor="middle" x="489.5" y="-74.5" font-family="Helvetica,sans-Serif" font-size="10.00">ABL.H</text>
</a>
</g>
</g>
<!-- Node1&#45;&gt;Node3 -->
<g id="edge2" class="edge">
<title>Node1&#45;&gt;Node3</title>
<path fill="none" stroke="midnightblue" d="M449.72,-169.59C453.02,-156.36 458.13,-138.26 464.5,-123 470.01,-109.81 478.4,-95.53 483.92,-86.67"/>
<polygon fill="midnightblue" stroke="midnightblue" points="446.3,-168.84 447.37,-179.38 453.1,-170.47 446.3,-168.84"/>
</g>
<!-- Node12 -->
<g id="node12" class="node">
<title>Node12</title>
<g id="a_node12"><a xlink:href="_a_b_l_wall_function_8cpp.html" target="_top" xlink:title=" ">
<polygon fill="white" stroke="black" points="0,-6 0,-25 117,-25 117,-6 0,-6"/>
<text text-anchor="middle" x="58.5" y="-13" font-family="Helvetica,sans-Serif" font-size="10.00">ABLWallFunction.cpp</text>
</a>
</g>
</g>
<!-- Node1&#45;&gt;Node12 -->
<g id="edge17" class="edge">
<title>Node1&#45;&gt;Node12</title>
<path fill="none" stroke="midnightblue" d="M434.14,-170.43C423.85,-155.81 407.43,-135.44 388.5,-123 338.38,-90.06 166.37,-43.88 92.57,-25.02"/>
<polygon fill="midnightblue" stroke="midnightblue" points="431.48,-172.75 439.99,-179.07 437.28,-168.82 431.48,-172.75"/>
</g>
<!-- Node13 -->
<g id="node13" class="node">
<title>Node13</title>
<g id="a_node13"><a xlink:href="_a_b_l_stats_8_h.html" target="_top" xlink:title=" ">
<polygon fill="white" stroke="black" points="562,-67.5 562,-86.5 633,-86.5 633,-67.5 562,-67.5"/>
<text text-anchor="middle" x="597.5" y="-74.5" font-family="Helvetica,sans-Serif" font-size="10.00">ABLStats.H</text>
</a>
</g>
</g>
<!-- Node1&#45;&gt;Node13 -->
<g id="edge12" class="edge">
<title>Node1&#45;&gt;Node13</title>
<path fill="none" stroke="midnightblue" d="M509.11,-178.95C533.33,-172.55 559.42,-161.63 577.5,-143 592.63,-127.41 596.34,-100.65 597.23,-86.83"/>
<polygon fill="midnightblue" stroke="midnightblue" points="508.12,-175.59 499.23,-181.34 509.77,-182.39 508.12,-175.59"/>
</g>
<!-- Node15 -->
<g id="node15" class="node">
<title>Node15</title>
<g id="a_node15"><a xlink:href="_a_b_l_stats_base_8_h.html" target="_top" xlink:title=" ">
<polygon fill="white" stroke="black" points="474,-123.5 474,-142.5 569,-142.5 569,-123.5 474,-123.5"/>
<text text-anchor="middle" x="521.5" y="-130.5" font-family="Helvetica,sans-Serif" font-size="10.00">ABLStatsBase.H</text>
</a>
</g>
</g>
<!-- Node1&#45;&gt;Node15 -->
<g id="edge14" class="edge">
<title>Node1&#45;&gt;Node15</title>
<path fill="none" stroke="midnightblue" d="M466.08,-173.38C479.81,-163.62 497.43,-151.11 509.07,-142.83"/>
<polygon fill="midnightblue" stroke="midnightblue" points="463.84,-170.68 457.71,-179.32 467.89,-176.38 463.84,-170.68"/>
</g>
<!-- Node4 -->
<g id="node4" class="node">
<title>Node4</title>
<g id="a_node4"><a xlink:href="_a_b_l_forcing_8cpp.html" target="_top" xlink:title=" ">
<polygon fill="white" stroke="black" points="707,-6 707,-25 798,-25 798,-6 707,-6"/>
<text text-anchor="middle" x="752.5" y="-13" font-family="Helvetica,sans-Serif" font-size="10.00">ABLForcing.cpp</text>
</a>
</g>
</g>
<!-- Node3&#45;&gt;Node4 -->
<g id="edge3" class="edge">
<title>Node3&#45;&gt;Node4</title>
<path fill="none" stroke="midnightblue" d="M522.67,-69.3C563.81,-60.88 636.03,-45.75 697.5,-31 705.18,-29.16 713.43,-27.05 721.15,-25.02"/>
<polygon fill="midnightblue" stroke="midnightblue" points="521.76,-65.91 512.66,-71.34 523.16,-72.77 521.76,-65.91"/>
</g>
<!-- Node5 -->
<g id="node5" class="node">
<title>Node5</title>
<g id="a_node5"><a xlink:href="_a_b_l_mean_boussinesq_8cpp.html" target="_top" xlink:title=" ">
<polygon fill="white" stroke="black" points="816.5,-6 816.5,-25 954.5,-25 954.5,-6 816.5,-6"/>
<text text-anchor="middle" x="885.5" y="-13" font-family="Helvetica,sans-Serif" font-size="10.00">ABLMeanBoussinesq.cpp</text>
</a>
</g>
</g>
<!-- Node3&#45;&gt;Node5 -->
<g id="edge4" class="edge">
<title>Node3&#45;&gt;Node5</title>
<path fill="none" stroke="midnightblue" d="M522.57,-71.27C532.22,-69.89 542.78,-68.38 552.5,-67 665.82,-50.91 694.54,-49.46 807.5,-31 818.51,-29.2 830.36,-27.09 841.42,-25.04"/>
<polygon fill="midnightblue" stroke="midnightblue" points="521.94,-67.82 512.54,-72.7 522.93,-74.75 521.94,-67.82"/>
</g>
<!-- Node6 -->
<g id="node6" class="node">
<title>Node6</title>
<g id="a_node6"><a xlink:href="_hurricane_forcing_8cpp.html" target="_top" xlink:title=" ">
<polygon fill="white" stroke="black" points="135,-6 135,-25 254,-25 254,-6 135,-6"/>
<text text-anchor="middle" x="194.5" y="-13" font-family="Helvetica,sans-Serif" font-size="10.00">HurricaneForcing.cpp</text>
</a>
</g>
</g>
<!-- Node3&#45;&gt;Node6 -->
<g id="edge5" class="edge">
<title>Node3&#45;&gt;Node6</title>
<path fill="none" stroke="midnightblue" d="M456.37,-69.59C412.13,-60.99 331.36,-45.17 262.5,-31 253.28,-29.1 243.36,-27.02 234.03,-25.03"/>
<polygon fill="midnightblue" stroke="midnightblue" points="455.79,-73.04 466.28,-71.51 457.13,-66.17 455.79,-73.04"/>
</g>
<!-- Node7 -->
<g id="node7" class="node">
<title>Node7</title>
<g id="a_node7"><a xlink:href="helics_8cpp.html" target="_top" xlink:title=" ">
<polygon fill="white" stroke="black" points="272,-6 272,-25 337,-25 337,-6 272,-6"/>
<text text-anchor="middle" x="304.5" y="-13" font-family="Helvetica,sans-Serif" font-size="10.00">helics.cpp</text>
</a>
</g>
</g>
<!-- Node3&#45;&gt;Node7 -->
<g id="edge6" class="edge">
<title>Node3&#45;&gt;Node7</title>
<path fill="none" stroke="midnightblue" d="M456.77,-66.15C427.51,-57.25 383.51,-43.66 345.5,-31 339.91,-29.14 333.92,-27.07 328.3,-25.08"/>
<polygon fill="midnightblue" stroke="midnightblue" points="455.89,-69.54 466.47,-69.09 457.92,-62.84 455.89,-69.54"/>
</g>
<!-- Node8 -->
<g id="node8" class="node">
<title>Node8</title>
<g id="a_node8"><a xlink:href="incflo_8cpp.html" target="_top" xlink:title=" ">
<polygon fill="white" stroke="black" points="355,-6 355,-25 418,-25 418,-6 355,-6"/>
<text text-anchor="middle" x="386.5" y="-13" font-family="Helvetica,sans-Serif" font-size="10.00">incflo.cpp</text>
</a>
</g>
</g>
<!-- Node3&#45;&gt;Node8 -->
<g id="edge7" class="edge">
<title>Node3&#45;&gt;Node8</title>
<path fill="none" stroke="midnightblue" d="M465.96,-62.4C446.04,-50.9 418.12,-34.77 401.23,-25.01"/>
<polygon fill="midnightblue" stroke="midnightblue" points="464.33,-65.5 474.74,-67.48 467.83,-59.44 464.33,-65.5"/>
</g>
<!-- Node9 -->
<g id="node9" class="node">
<title>Node9</title>
<g id="a_node9"><a xlink:href="incflo__apply__nodal__projection_8cpp.html" target="_top" xlink:title=" ">
<polygon fill="white" stroke="black" points="436,-0.5 436,-30.5 543,-30.5 543,-0.5 436,-0.5"/>
<text text-anchor="start" x="444" y="-18.5" font-family="Helvetica,sans-Serif" font-size="10.00">incflo_apply_nodal</text>
<text text-anchor="middle" x="489.5" y="-7.5" font-family="Helvetica,sans-Serif" font-size="10.00">_projection.cpp</text>
</a>
</g>
</g>
<!-- Node3&#45;&gt;Node9 -->
<g id="edge8" class="edge">
<title>Node3&#45;&gt;Node9</title>
<path fill="none" stroke="midnightblue" d="M489.5,-57.23C489.5,-48.59 489.5,-38.5 489.5,-30.52"/>
<polygon fill="midnightblue" stroke="midnightblue" points="486,-57.48 489.5,-67.48 493,-57.48 486,-57.48"/>
</g>
<!-- Node10 -->
<g id="node10" class="node">
<title>Node10</title>
<g id="a_node10"><a xlink:href="init_8cpp.html" target="_top" xlink:title=" ">
<polygon fill="white" stroke="black" points="561,-6 561,-25 614,-25 614,-6 561,-6"/>
<text text-anchor="middle" x="587.5" y="-13" font-family="Helvetica,sans-Serif" font-size="10.00">init.cpp</text>
</a>
</g>
</g>
<!-- Node3&#45;&gt;Node10 -->
<g id="edge9" class="edge">
<title>Node3&#45;&gt;Node10</title>
<path fill="none" stroke="midnightblue" d="M512.16,-62.24C531.09,-50.75 557.49,-34.72 573.49,-25.01"/>
<polygon fill="midnightblue" stroke="midnightblue" points="510.27,-59.29 503.54,-67.48 513.91,-65.28 510.27,-59.29"/>
</g>
<!-- Node11 -->
<g id="node11" class="node">
<title>Node11</title>
<g id="a_node11"><a xlink:href="_a_b_l_8cpp.html" target="_top" xlink:title=" ">
<polygon fill="white" stroke="black" points="632.5,-6 632.5,-25 688.5,-25 688.5,-6 632.5,-6"/>
<text text-anchor="middle" x="660.5" y="-13" font-family="Helvetica,sans-Serif" font-size="10.00">ABL.cpp</text>
</a>
</g>
</g>
<!-- Node3&#45;&gt;Node11 -->
<g id="edge10" class="edge">
<title>Node3&#45;&gt;Node11</title>
<path fill="none" stroke="midnightblue" d="M522.37,-65.27C549.36,-56.36 588.54,-43.22 622.5,-31 627.68,-29.14 633.23,-27.06 638.45,-25.08"/>
<polygon fill="midnightblue" stroke="midnightblue" points="521.06,-62.01 512.66,-68.46 523.25,-68.66 521.06,-62.01"/>
</g>
<!-- Node3&#45;&gt;Node12 -->
<g id="edge11" class="edge">
<title>Node3&#45;&gt;Node12</title>
<path fill="none" stroke="midnightblue" d="M456.13,-71.51C445.11,-70.05 432.78,-68.43 421.5,-67 290.03,-50.31 256.18,-53.04 125.5,-31 115.52,-29.32 104.79,-27.15 94.89,-25.01"/>
<polygon fill="midnightblue" stroke="midnightblue" points="455.84,-75 466.22,-72.86 456.77,-68.07 455.84,-75"/>
</g>
<!-- Node14 -->
<g id="node14" class="node">
<title>Node14</title>
<g id="a_node14"><a xlink:href="_a_b_l_stats_8cpp.html" target="_top" xlink:title=" ">
<polygon fill="white" stroke="black" points="972.5,-6 972.5,-25 1052.5,-25 1052.5,-6 972.5,-6"/>
<text text-anchor="middle" x="1012.5" y="-13" font-family="Helvetica,sans-Serif" font-size="10.00">ABLStats.cpp</text>
</a>
</g>
</g>
<!-- Node13&#45;&gt;Node14 -->
<g id="edge13" class="edge">
<title>Node13&#45;&gt;Node14</title>
<path fill="none" stroke="midnightblue" d="M643.34,-72.81C713.05,-67.41 849.63,-54.68 963.5,-31 971.06,-29.43 979.14,-27.25 986.51,-25.06"/>
<polygon fill="midnightblue" stroke="midnightblue" points="642.86,-69.34 633.15,-73.58 643.39,-76.32 642.86,-69.34"/>
</g>
<!-- Node15&#45;&gt;Node3 -->
<g id="edge15" class="edge">
<title>Node15&#45;&gt;Node3</title>
<path fill="none" stroke="midnightblue" d="M511,-114.27C505.53,-105.05 499.08,-94.17 494.69,-86.75"/>
<polygon fill="midnightblue" stroke="midnightblue" points="508.11,-116.26 516.22,-123.08 514.13,-112.7 508.11,-116.26"/>
</g>
<!-- Node15&#45;&gt;Node13 -->
<g id="edge16" class="edge">
<title>Node15&#45;&gt;Node13</title>
<path fill="none" stroke="midnightblue" d="M542.08,-117.38C555.81,-107.62 573.43,-95.11 585.07,-86.83"/>
<polygon fill="midnightblue" stroke="midnightblue" points="539.84,-114.68 533.71,-123.32 543.89,-120.38 539.84,-114.68"/>
</g>
</g>
</svg>
