<?xml version="1.0" encoding="UTF-8" standalone="no"?>
<!DOCTYPE svg PUBLIC "-//W3C//DTD SVG 1.1//EN"
 "http://www.w3.org/Graphics/SVG/1.1/DTD/svg11.dtd">
<!-- Generated by graphviz version 2.43.0 (0)
 -->
<!-- Title: ABLStatsBase.H Pages: 1 -->
<svg width="1062pt" height="151pt"
 viewBox="0.00 0.00 1061.50 151.00" xmlns="http://www.w3.org/2000/svg" xmlns:xlink="http://www.w3.org/1999/xlink">
<g id="graph0" class="graph" transform="scale(1 1) rotate(0) translate(4 147)">
<title>ABLStatsBase.H</title>
<polygon fill="white" stroke="transparent" points="-4,4 -4,-147 1057.5,-147 1057.5,4 -4,4"/>
<!-- Node1 -->
<g id="node1" class="node">
<title>Node1</title>
<g id="a_node1"><a xlink:title=" ">
<polygon fill="#bfbfbf" stroke="black" points="559,-123.5 559,-142.5 654,-142.5 654,-123.5 559,-123.5"/>
<text text-anchor="middle" x="606.5" y="-130.5" font-family="Helvetica,sans-Serif" font-size="10.00">ABLStatsBase.H</text>
</a>
</g>
</g>
<!-- Node2 -->
<g id="node2" class="node">
<title>Node2</title>
<g id="a_node2"><a xlink:href="_a_b_l_8_h.html" target="_top" xlink:title=" ">
<polygon fill="white" stroke="black" points="545.5,-67.5 545.5,-86.5 591.5,-86.5 591.5,-67.5 545.5,-67.5"/>
<text text-anchor="middle" x="568.5" y="-74.5" font-family="Helvetica,sans-Serif" font-size="10.00">ABL.H</text>
</a>
</g>
</g>
<!-- Node1&#45;&gt;Node2 -->
<g id="edge1" class="edge">
<title>Node1&#45;&gt;Node2</title>
<path fill="none" stroke="midnightblue" d="M594.44,-114.86C587.86,-105.5 579.99,-94.33 574.66,-86.75"/>
<polygon fill="midnightblue" stroke="midnightblue" points="591.61,-116.92 600.23,-123.08 597.33,-112.89 591.61,-116.92"/>
</g>
<!-- Node12 -->
<g id="node12" class="node">
<title>Node12</title>
<g id="a_node12"><a xlink:href="_a_b_l_stats_8_h.html" target="_top" xlink:title=" ">
<polygon fill="white" stroke="black" points="794,-67.5 794,-86.5 865,-86.5 865,-67.5 794,-67.5"/>
<text text-anchor="middle" x="829.5" y="-74.5" font-family="Helvetica,sans-Serif" font-size="10.00">ABLStats.H</text>
</a>
</g>
</g>
<!-- Node1&#45;&gt;Node12 -->
<g id="edge11" class="edge">
<title>Node1&#45;&gt;Node12</title>
<path fill="none" stroke="midnightblue" d="M651.56,-121.09C693.69,-110.89 755.74,-95.86 794.33,-86.52"/>
<polygon fill="midnightblue" stroke="midnightblue" points="650.73,-117.69 641.84,-123.44 652.38,-124.49 650.73,-117.69"/>
</g>
<!-- Node3 -->
<g id="node3" class="node">
<title>Node3</title>
<g id="a_node3"><a xlink:href="_a_b_l_forcing_8cpp.html" target="_top" xlink:title=" ">
<polygon fill="white" stroke="black" points="0,-6 0,-25 91,-25 91,-6 0,-6"/>
<text text-anchor="middle" x="45.5" y="-13" font-family="Helvetica,sans-Serif" font-size="10.00">ABLForcing.cpp</text>
</a>
</g>
</g>
<!-- Node2&#45;&gt;Node3 -->
<g id="edge2" class="edge">
<title>Node2&#45;&gt;Node3</title>
<path fill="none" stroke="midnightblue" d="M535.39,-74.66C458.49,-71.15 262.04,-59.86 100.5,-31 91.95,-29.47 82.77,-27.28 74.42,-25.06"/>
<polygon fill="midnightblue" stroke="midnightblue" points="535.29,-78.16 545.43,-75.1 535.6,-71.17 535.29,-78.16"/>
</g>
<!-- Node4 -->
<g id="node4" class="node">
<title>Node4</title>
<g id="a_node4"><a xlink:href="_a_b_l_mean_boussinesq_8cpp.html" target="_top" xlink:title=" ">
<polygon fill="white" stroke="black" points="109.5,-6 109.5,-25 247.5,-25 247.5,-6 109.5,-6"/>
<text text-anchor="middle" x="178.5" y="-13" font-family="Helvetica,sans-Serif" font-size="10.00">ABLMeanBoussinesq.cpp</text>
</a>
</g>
</g>
<!-- Node2&#45;&gt;Node4 -->
<g id="edge3" class="edge">
<title>Node2&#45;&gt;Node4</title>
<path fill="none" stroke="midnightblue" d="M535.11,-71.64C477.95,-64.07 357.7,-47.7 256.5,-31 245.49,-29.18 233.64,-27.07 222.58,-25.02"/>
<polygon fill="midnightblue" stroke="midnightblue" points="534.99,-75.15 545.36,-72.99 535.9,-68.21 534.99,-75.15"/>
</g>
<!-- Node5 -->
<g id="node5" class="node">
<title>Node5</title>
<g id="a_node5"><a xlink:href="_hurricane_forcing_8cpp.html" target="_top" xlink:title=" ">
<polygon fill="white" stroke="black" points="266,-6 266,-25 385,-25 385,-6 266,-6"/>
<text text-anchor="middle" x="325.5" y="-13" font-family="Helvetica,sans-Serif" font-size="10.00">HurricaneForcing.cpp</text>
</a>
</g>
</g>
<!-- Node2&#45;&gt;Node5 -->
<g id="edge4" class="edge">
<title>Node2&#45;&gt;Node5</title>
<path fill="none" stroke="midnightblue" d="M535.46,-67.91C489.64,-56.69 407.15,-36.49 360.37,-25.04"/>
<polygon fill="midnightblue" stroke="midnightblue" points="534.65,-71.32 545.2,-70.29 536.32,-64.52 534.65,-71.32"/>
</g>
<!-- Node6 -->
<g id="node6" class="node">
<title>Node6</title>
<g id="a_node6"><a xlink:href="helics_8cpp.html" target="_top" xlink:title=" ">
<polygon fill="white" stroke="black" points="403,-6 403,-25 468,-25 468,-6 403,-6"/>
<text text-anchor="middle" x="435.5" y="-13" font-family="Helvetica,sans-Serif" font-size="10.00">helics.cpp</text>
</a>
</g>
</g>
<!-- Node2&#45;&gt;Node6 -->
<g id="edge5" class="edge">
<title>Node2&#45;&gt;Node6</title>
<path fill="none" stroke="midnightblue" d="M540.17,-63.33C514.35,-51.78 476.92,-35.03 454.52,-25.01"/>
<polygon fill="midnightblue" stroke="midnightblue" points="538.89,-66.59 549.44,-67.48 541.75,-60.2 538.89,-66.59"/>
</g>
<!-- Node7 -->
<g id="node7" class="node">
<title>Node7</title>
<g id="a_node7"><a xlink:href="incflo_8cpp.html" target="_top" xlink:title=" ">
<polygon fill="white" stroke="black" points="486,-6 486,-25 549,-25 549,-6 486,-6"/>
<text text-anchor="middle" x="517.5" y="-13" font-family="Helvetica,sans-Serif" font-size="10.00">incflo.cpp</text>
</a>
</g>
</g>
<!-- Node2&#45;&gt;Node7 -->
<g id="edge6" class="edge">
<title>Node2&#45;&gt;Node7</title>
<path fill="none" stroke="midnightblue" d="M554.5,-59.67C544.89,-48.45 532.51,-34.02 524.79,-25.01"/>
<polygon fill="midnightblue" stroke="midnightblue" points="552.03,-62.16 561.19,-67.48 557.34,-57.6 552.03,-62.16"/>
</g>
<!-- Node8 -->
<g id="node8" class="node">
<title>Node8</title>
<g id="a_node8"><a xlink:href="incflo__apply__nodal__projection_8cpp.html" target="_top" xlink:title=" ">
<polygon fill="white" stroke="black" points="567,-0.5 567,-30.5 674,-30.5 674,-0.5 567,-0.5"/>
<text text-anchor="start" x="575" y="-18.5" font-family="Helvetica,sans-Serif" font-size="10.00">incflo_apply_nodal</text>
<text text-anchor="middle" x="620.5" y="-7.5" font-family="Helvetica,sans-Serif" font-size="10.00">_projection.cpp</text>
</a>
</g>
</g>
<!-- Node2&#45;&gt;Node8 -->
<g id="edge7" class="edge">
<title>Node2&#45;&gt;Node8</title>
<path fill="none" stroke="midnightblue" d="M582.65,-59.81C590.66,-50.65 600.57,-39.3 608.24,-30.52"/>
<polygon fill="midnightblue" stroke="midnightblue" points="579.9,-57.64 575.95,-67.48 585.17,-62.25 579.9,-57.64"/>
</g>
<!-- Node9 -->
<g id="node9" class="node">
<title>Node9</title>
<g id="a_node9"><a xlink:href="init_8cpp.html" target="_top" xlink:title=" ">
<polygon fill="white" stroke="black" points="692,-6 692,-25 745,-25 745,-6 692,-6"/>
<text text-anchor="middle" x="718.5" y="-13" font-family="Helvetica,sans-Serif" font-size="10.00">init.cpp</text>
</a>
</g>
</g>
<!-- Node2&#45;&gt;Node9 -->
<g id="edge8" class="edge">
<title>Node2&#45;&gt;Node9</title>
<path fill="none" stroke="midnightblue" d="M599.92,-63.67C622.83,-54.66 654.61,-42.12 682.5,-31 687.26,-29.1 692.36,-27.05 697.19,-25.11"/>
<polygon fill="midnightblue" stroke="midnightblue" points="598.4,-60.5 590.37,-67.42 600.96,-67.02 598.4,-60.5"/>
</g>
<!-- Node10 -->
<g id="node10" class="node">
<title>Node10</title>
<g id="a_node10"><a xlink:href="_a_b_l_8cpp.html" target="_top" xlink:title=" ">
<polygon fill="white" stroke="black" points="763.5,-6 763.5,-25 819.5,-25 819.5,-6 763.5,-6"/>
<text text-anchor="middle" x="791.5" y="-13" font-family="Helvetica,sans-Serif" font-size="10.00">ABL.cpp</text>
</a>
</g>
</g>
<!-- Node2&#45;&gt;Node10 -->
<g id="edge9" class="edge">
<title>Node2&#45;&gt;Node10</title>
<path fill="none" stroke="midnightblue" d="M601.35,-69.32C638.6,-61.44 700.99,-47.33 753.5,-31 759.03,-29.28 764.91,-27.17 770.36,-25.11"/>
<polygon fill="midnightblue" stroke="midnightblue" points="600.61,-65.9 591.54,-71.37 602.04,-72.75 600.61,-65.9"/>
</g>
<!-- Node11 -->
<g id="node11" class="node">
<title>Node11</title>
<g id="a_node11"><a xlink:href="_a_b_l_wall_function_8cpp.html" target="_top" xlink:title=" ">
<polygon fill="white" stroke="black" points="838,-6 838,-25 955,-25 955,-6 838,-6"/>
<text text-anchor="middle" x="896.5" y="-13" font-family="Helvetica,sans-Serif" font-size="10.00">ABLWallFunction.cpp</text>
</a>
</g>
</g>
<!-- Node2&#45;&gt;Node11 -->
<g id="edge10" class="edge">
<title>Node2&#45;&gt;Node11</title>
<path fill="none" stroke="midnightblue" d="M601.62,-70.69C651.1,-62.66 747.21,-46.7 828.5,-31 837.98,-29.17 848.18,-27.07 857.72,-25.04"/>
<polygon fill="midnightblue" stroke="midnightblue" points="600.82,-67.27 591.51,-72.32 601.94,-74.18 600.82,-67.27"/>
</g>
<!-- Node13 -->
<g id="node13" class="node">
<title>Node13</title>
<g id="a_node13"><a xlink:href="_a_b_l_stats_8cpp.html" target="_top" xlink:title=" ">
<polygon fill="white" stroke="black" points="973.5,-6 973.5,-25 1053.5,-25 1053.5,-6 973.5,-6"/>
<text text-anchor="middle" x="1013.5" y="-13" font-family="Helvetica,sans-Serif" font-size="10.00">ABLStats.cpp</text>
</a>
</g>
</g>
<!-- Node12&#45;&gt;Node13 -->
<g id="edge12" class="edge">
<title>Node12&#45;&gt;Node13</title>
<path fill="none" stroke="midnightblue" d="M865.43,-64.38C901.2,-52.82 955.24,-35.34 987.19,-25.01"/>
<polygon fill="midnightblue" stroke="midnightblue" points="864.3,-61.07 855.86,-67.48 866.45,-67.73 864.3,-61.07"/>
</g>
</g>
</svg>
