<?xml version="1.0" encoding="UTF-8" standalone="no"?>
<!DOCTYPE svg PUBLIC "-//W3C//DTD SVG 1.1//EN"
 "http://www.w3.org/Graphics/SVG/1.1/DTD/svg11.dtd">
<!-- Generated by graphviz version 2.43.0 (0)
 -->
<!-- Title: ActParser.H Pages: 1 -->
<svg width="1202pt" height="308pt"
 viewBox="0.00 0.00 1201.50 308.00" xmlns="http://www.w3.org/2000/svg" xmlns:xlink="http://www.w3.org/1999/xlink">
<g id="graph0" class="graph" transform="scale(1 1) rotate(0) translate(4 304)">
<title>ActParser.H</title>
<polygon fill="white" stroke="transparent" points="-4,4 -4,-304 1197.5,-304 1197.5,4 -4,4"/>
<!-- Node1 -->
<g id="node1" class="node">
<title>Node1</title>
<g id="a_node1"><a xlink:title=" ">
<polygon fill="#bfbfbf" stroke="black" points="790,-280.5 790,-299.5 862,-299.5 862,-280.5 790,-280.5"/>
<text text-anchor="middle" x="826" y="-287.5" font-family="Helvetica,sans-Serif" font-size="10.00">ActParser.H</text>
</a>
</g>
</g>
<!-- Node2 -->
<g id="node2" class="node">
<title>Node2</title>
<g id="a_node2"><a xlink:href="_actuator_8cpp.html" target="_top" xlink:title=" ">
<polygon fill="white" stroke="black" points="506.5,-0.5 506.5,-19.5 583.5,-19.5 583.5,-0.5 506.5,-0.5"/>
<text text-anchor="middle" x="545" y="-7.5" font-family="Helvetica,sans-Serif" font-size="10.00">Actuator.cpp</text>
</a>
</g>
</g>
<!-- Node1&#45;&gt;Node2 -->
<g id="edge1" class="edge">
<title>Node1&#45;&gt;Node2</title>
<path fill="none" stroke="midnightblue" d="M779.54,-287.01C727.91,-283.38 642.98,-273.09 576,-244 537.84,-227.43 529.74,-218.07 501,-188 474.91,-160.7 450.37,-147.59 463,-112 477.35,-71.56 515.57,-35.51 534.32,-19.61"/>
<polygon fill="midnightblue" stroke="midnightblue" points="779.52,-290.52 789.73,-287.67 779.97,-283.53 779.52,-290.52"/>
</g>
<!-- Node3 -->
<g id="node3" class="node">
<title>Node3</title>
<g id="a_node3"><a xlink:href="actuator__ops_8_h.html" target="_top" xlink:title=" ">
<polygon fill="white" stroke="black" points="728,-168.5 728,-187.5 818,-187.5 818,-168.5 728,-168.5"/>
<text text-anchor="middle" x="773" y="-175.5" font-family="Helvetica,sans-Serif" font-size="10.00">actuator_ops.H</text>
</a>
</g>
</g>
<!-- Node1&#45;&gt;Node3 -->
<g id="edge2" class="edge">
<title>Node1&#45;&gt;Node3</title>
<path fill="none" stroke="midnightblue" d="M817.48,-271.32C805.94,-247.37 785.79,-205.55 777.14,-187.59"/>
<polygon fill="midnightblue" stroke="midnightblue" points="814.35,-272.88 821.84,-280.37 820.65,-269.84 814.35,-272.88"/>
</g>
<!-- Node5 -->
<g id="node5" class="node">
<title>Node5</title>
<g id="a_node5"><a xlink:href="_actuator_model_8_h.html" target="_top" xlink:title=" ">
<polygon fill="white" stroke="black" points="595,-56.5 595,-75.5 693,-75.5 693,-56.5 595,-56.5"/>
<text text-anchor="middle" x="644" y="-63.5" font-family="Helvetica,sans-Serif" font-size="10.00">ActuatorModel.H</text>
</a>
</g>
</g>
<!-- Node1&#45;&gt;Node5 -->
<g id="edge34" class="edge">
<title>Node1&#45;&gt;Node5</title>
<path fill="none" stroke="midnightblue" d="M779.73,-284.13C700.77,-273.04 541.89,-238.04 473,-132 442.63,-85.26 534.27,-72.06 594.9,-68.37"/>
<polygon fill="midnightblue" stroke="midnightblue" points="779.49,-287.63 789.86,-285.48 780.41,-280.69 779.49,-287.63"/>
</g>
<!-- Node16 -->
<g id="node16" class="node">
<title>Node16</title>
<g id="a_node16"><a xlink:href="uniform__ct__ops_8cpp.html" target="_top" xlink:title=" ">
<polygon fill="white" stroke="black" points="0,-0.5 0,-19.5 112,-19.5 112,-0.5 0,-0.5"/>
<text text-anchor="middle" x="56" y="-7.5" font-family="Helvetica,sans-Serif" font-size="10.00">uniform_ct_ops.cpp</text>
</a>
</g>
</g>
<!-- Node1&#45;&gt;Node16 -->
<g id="edge35" class="edge">
<title>Node1&#45;&gt;Node16</title>
<path fill="none" stroke="midnightblue" d="M779.88,-287.48C610.85,-281.3 35,-254.71 35,-179 35,-179 35,-179 35,-121 35,-82.7 47.44,-38.21 53.17,-19.73"/>
<polygon fill="midnightblue" stroke="midnightblue" points="779.84,-290.98 789.96,-287.84 780.09,-283.98 779.84,-290.98"/>
</g>
<!-- Node21 -->
<g id="node21" class="node">
<title>Node21</title>
<g id="a_node21"><a xlink:href="wing__ops_8_h.html" target="_top" xlink:title=" ">
<polygon fill="white" stroke="black" points="970.5,-112.5 970.5,-131.5 1043.5,-131.5 1043.5,-112.5 970.5,-112.5"/>
<text text-anchor="middle" x="1007" y="-119.5" font-family="Helvetica,sans-Serif" font-size="10.00">wing_ops.H</text>
</a>
</g>
</g>
<!-- Node1&#45;&gt;Node21 -->
<g id="edge46" class="edge">
<title>Node1&#45;&gt;Node21</title>
<path fill="none" stroke="midnightblue" d="M826.88,-270.12C829.12,-243.69 837.06,-195.8 865,-168 893.14,-140 938.59,-129.4 970.47,-125.4"/>
<polygon fill="midnightblue" stroke="midnightblue" points="823.37,-270.1 826.21,-280.31 830.36,-270.56 823.37,-270.1"/>
</g>
<!-- Node22 -->
<g id="node22" class="node">
<title>Node22</title>
<g id="a_node22"><a xlink:href="wing__ops_8cpp.html" target="_top" xlink:title=" ">
<polygon fill="white" stroke="black" points="1110.5,-56.5 1110.5,-75.5 1193.5,-75.5 1193.5,-56.5 1110.5,-56.5"/>
<text text-anchor="middle" x="1152" y="-63.5" font-family="Helvetica,sans-Serif" font-size="10.00">wing_ops.cpp</text>
</a>
</g>
</g>
<!-- Node1&#45;&gt;Node22 -->
<g id="edge45" class="edge">
<title>Node1&#45;&gt;Node22</title>
<path fill="none" stroke="midnightblue" d="M872.53,-287.88C948.87,-285.14 1096.23,-275.78 1136,-244 1184.2,-205.48 1195.47,-171.46 1179,-112 1175.16,-98.13 1165.77,-84.24 1159.15,-75.64"/>
<polygon fill="midnightblue" stroke="midnightblue" points="872.12,-284.39 862.24,-288.23 872.35,-291.39 872.12,-284.39"/>
</g>
<!-- Node23 -->
<g id="node23" class="node">
<title>Node23</title>
<g id="a_node23"><a xlink:href="_f_l_l_c_8_h.html" target="_top" xlink:title=" ">
<polygon fill="white" stroke="black" points="921,-224.5 921,-243.5 971,-243.5 971,-224.5 921,-224.5"/>
<text text-anchor="middle" x="946" y="-231.5" font-family="Helvetica,sans-Serif" font-size="10.00">FLLC.H</text>
</a>
</g>
</g>
<!-- Node1&#45;&gt;Node23 -->
<g id="edge36" class="edge">
<title>Node1&#45;&gt;Node23</title>
<path fill="none" stroke="midnightblue" d="M854.37,-276.23C876.82,-266.13 907.54,-252.31 927.07,-243.52"/>
<polygon fill="midnightblue" stroke="midnightblue" points="852.7,-273.15 845.01,-280.44 855.57,-279.53 852.7,-273.15"/>
</g>
<!-- Node27 -->
<g id="node27" class="node">
<title>Node27</title>
<g id="a_node27"><a xlink:href="turbine__utils_8_h.html" target="_top" xlink:title=" ">
<polygon fill="white" stroke="black" points="1039,-224.5 1039,-243.5 1127,-243.5 1127,-224.5 1039,-224.5"/>
<text text-anchor="middle" x="1083" y="-231.5" font-family="Helvetica,sans-Serif" font-size="10.00">turbine_utils.H</text>
</a>
</g>
</g>
<!-- Node1&#45;&gt;Node27 -->
<g id="edge42" class="edge">
<title>Node1&#45;&gt;Node27</title>
<path fill="none" stroke="midnightblue" d="M871.9,-279.36C920.28,-269.19 995.77,-253.33 1042.15,-243.58"/>
<polygon fill="midnightblue" stroke="midnightblue" points="871.07,-275.95 862.01,-281.43 872.51,-282.8 871.07,-275.95"/>
</g>
<!-- Node4 -->
<g id="node4" class="node">
<title>Node4</title>
<g id="a_node4"><a xlink:href="_act_src_line_op_8_h.html" target="_top" xlink:title=" ">
<polygon fill="white" stroke="black" points="482,-112.5 482,-131.5 574,-131.5 574,-112.5 482,-112.5"/>
<text text-anchor="middle" x="528" y="-119.5" font-family="Helvetica,sans-Serif" font-size="10.00">ActSrcLineOp.H</text>
</a>
</g>
</g>
<!-- Node3&#45;&gt;Node4 -->
<g id="edge3" class="edge">
<title>Node3&#45;&gt;Node4</title>
<path fill="none" stroke="midnightblue" d="M724.37,-166.28C678.07,-156.08 609.31,-140.92 566.64,-131.52"/>
<polygon fill="midnightblue" stroke="midnightblue" points="723.66,-169.71 734.18,-168.44 725.17,-162.87 723.66,-169.71"/>
</g>
<!-- Node3&#45;&gt;Node5 -->
<g id="edge10" class="edge">
<title>Node3&#45;&gt;Node5</title>
<path fill="none" stroke="midnightblue" d="M717.82,-176.11C684.33,-172.36 643.93,-161.42 622,-132 609.04,-114.62 625.63,-89.1 636.3,-75.8"/>
<polygon fill="midnightblue" stroke="midnightblue" points="717.69,-179.62 727.97,-177.06 718.34,-172.65 717.69,-179.62"/>
</g>
<!-- Node10 -->
<g id="node10" class="node">
<title>Node10</title>
<g id="a_node10"><a xlink:href="_act_src_disk_op_8_h.html" target="_top" xlink:title=" ">
<polygon fill="white" stroke="black" points="630.5,-112.5 630.5,-131.5 723.5,-131.5 723.5,-112.5 630.5,-112.5"/>
<text text-anchor="middle" x="677" y="-119.5" font-family="Helvetica,sans-Serif" font-size="10.00">ActSrcDiskOp.H</text>
</a>
</g>
</g>
<!-- Node3&#45;&gt;Node10 -->
<g id="edge11" class="edge">
<title>Node3&#45;&gt;Node10</title>
<path fill="none" stroke="midnightblue" d="M748.43,-163.18C730.76,-153.24 707.49,-140.15 692.39,-131.65"/>
<polygon fill="midnightblue" stroke="midnightblue" points="747.14,-166.47 757.58,-168.32 750.58,-160.37 747.14,-166.47"/>
</g>
<!-- Node11 -->
<g id="node11" class="node">
<title>Node11</title>
<g id="a_node11"><a xlink:href="disk__ops_8_h.html" target="_top" xlink:title=" ">
<polygon fill="white" stroke="black" points="215,-112.5 215,-131.5 285,-131.5 285,-112.5 215,-112.5"/>
<text text-anchor="middle" x="250" y="-119.5" font-family="Helvetica,sans-Serif" font-size="10.00">disk_ops.H</text>
</a>
</g>
</g>
<!-- Node3&#45;&gt;Node11 -->
<g id="edge13" class="edge">
<title>Node3&#45;&gt;Node11</title>
<path fill="none" stroke="midnightblue" d="M717.94,-171.32C610.26,-160.2 374.51,-135.86 285.22,-126.64"/>
<polygon fill="midnightblue" stroke="midnightblue" points="717.65,-174.8 727.96,-172.35 718.37,-167.84 717.65,-174.8"/>
</g>
<!-- Node17 -->
<g id="node17" class="node">
<title>Node17</title>
<g id="a_node17"><a xlink:href="_act_src_disk_op___turbine_8_h.html" target="_top" xlink:title=" ">
<polygon fill="white" stroke="black" points="742,-112.5 742,-131.5 876,-131.5 876,-112.5 742,-112.5"/>
<text text-anchor="middle" x="809" y="-119.5" font-family="Helvetica,sans-Serif" font-size="10.00">ActSrcDiskOp_Turbine.H</text>
</a>
</g>
</g>
<!-- Node3&#45;&gt;Node17 -->
<g id="edge22" class="edge">
<title>Node3&#45;&gt;Node17</title>
<path fill="none" stroke="midnightblue" d="M784.62,-159.57C790.82,-150.27 798.17,-139.25 803.17,-131.75"/>
<polygon fill="midnightblue" stroke="midnightblue" points="781.58,-157.82 778.94,-168.08 787.4,-161.7 781.58,-157.82"/>
</g>
<!-- Node18 -->
<g id="node18" class="node">
<title>Node18</title>
<g id="a_node18"><a xlink:href="turbine__fast__ops_8_h.html" target="_top" xlink:title=" ">
<polygon fill="white" stroke="black" points="1062,-112.5 1062,-131.5 1170,-131.5 1170,-112.5 1062,-112.5"/>
<text text-anchor="middle" x="1116" y="-119.5" font-family="Helvetica,sans-Serif" font-size="10.00">turbine_fast_ops.H</text>
</a>
</g>
</g>
<!-- Node3&#45;&gt;Node18 -->
<g id="edge24" class="edge">
<title>Node3&#45;&gt;Node18</title>
<path fill="none" stroke="midnightblue" d="M828.15,-168.32C892.47,-158.19 998.1,-141.56 1061.94,-131.51"/>
<polygon fill="midnightblue" stroke="midnightblue" points="827.53,-164.87 818.19,-169.88 828.62,-171.79 827.53,-164.87"/>
</g>
<!-- Node19 -->
<g id="node19" class="node">
<title>Node19</title>
<g id="a_node19"><a xlink:href="fixed__wing__ops_8_h.html" target="_top" xlink:title=" ">
<polygon fill="white" stroke="black" points="924.5,-56.5 924.5,-75.5 1025.5,-75.5 1025.5,-56.5 924.5,-56.5"/>
<text text-anchor="middle" x="975" y="-63.5" font-family="Helvetica,sans-Serif" font-size="10.00">fixed_wing_ops.H</text>
</a>
</g>
</g>
<!-- Node3&#45;&gt;Node19 -->
<g id="edge26" class="edge">
<title>Node3&#45;&gt;Node19</title>
<path fill="none" stroke="midnightblue" d="M818.27,-165.69C843.63,-158.25 875.24,-147.07 901,-132 928.16,-116.11 954.5,-89.48 967.18,-75.76"/>
<polygon fill="midnightblue" stroke="midnightblue" points="817.19,-162.36 808.53,-168.46 819.1,-169.09 817.19,-162.36"/>
</g>
<!-- Node20 -->
<g id="node20" class="node">
<title>Node20</title>
<g id="a_node20"><a xlink:href="flat__plate__ops_8_h.html" target="_top" xlink:title=" ">
<polygon fill="white" stroke="black" points="811.5,-56.5 811.5,-75.5 906.5,-75.5 906.5,-56.5 811.5,-56.5"/>
<text text-anchor="middle" x="859" y="-63.5" font-family="Helvetica,sans-Serif" font-size="10.00">flat_plate_ops.H</text>
</a>
</g>
</g>
<!-- Node3&#45;&gt;Node20 -->
<g id="edge28" class="edge">
<title>Node3&#45;&gt;Node20</title>
<path fill="none" stroke="midnightblue" d="M827.81,-168.52C849.37,-162.2 872.03,-151.2 885,-132 897.39,-113.67 879.02,-88.55 867.37,-75.56"/>
<polygon fill="midnightblue" stroke="midnightblue" points="826.8,-165.16 818.02,-171.1 828.58,-171.93 826.8,-165.16"/>
</g>
<!-- Node3&#45;&gt;Node21 -->
<g id="edge30" class="edge">
<title>Node3&#45;&gt;Node21</title>
<path fill="none" stroke="midnightblue" d="M820.03,-166.15C864.39,-155.91 929.94,-140.78 970.48,-131.43"/>
<polygon fill="midnightblue" stroke="midnightblue" points="819.03,-162.78 810.08,-168.44 820.61,-169.61 819.03,-162.78"/>
</g>
<!-- Node4&#45;&gt;Node5 -->
<g id="edge4" class="edge">
<title>Node4&#45;&gt;Node5</title>
<path fill="none" stroke="midnightblue" d="M555.72,-108.1C577.39,-98.01 606.9,-84.27 625.71,-75.52"/>
<polygon fill="midnightblue" stroke="midnightblue" points="553.97,-105.05 546.38,-112.44 556.92,-111.4 553.97,-105.05"/>
</g>
<!-- Node5&#45;&gt;Node2 -->
<g id="edge5" class="edge">
<title>Node5&#45;&gt;Node2</title>
<path fill="none" stroke="midnightblue" d="M619.16,-51.45C600.89,-41.48 576.58,-28.23 560.87,-19.65"/>
<polygon fill="midnightblue" stroke="midnightblue" points="617.64,-54.61 628.09,-56.32 620.99,-48.46 617.64,-54.61"/>
</g>
<!-- Node6 -->
<g id="node6" class="node">
<title>Node6</title>
<g id="a_node6"><a xlink:href="_actuator_disk_8cpp.html" target="_top" xlink:title=" ">
<polygon fill="white" stroke="black" points="320,-0.5 320,-19.5 420,-19.5 420,-0.5 320,-0.5"/>
<text text-anchor="middle" x="370" y="-7.5" font-family="Helvetica,sans-Serif" font-size="10.00">ActuatorDisk.cpp</text>
</a>
</g>
</g>
<!-- Node5&#45;&gt;Node6 -->
<g id="edge6" class="edge">
<title>Node5&#45;&gt;Node6</title>
<path fill="none" stroke="midnightblue" d="M590.59,-54.47C538.8,-44.27 461.23,-28.98 413.21,-19.52"/>
<polygon fill="midnightblue" stroke="midnightblue" points="590.1,-57.94 600.58,-56.44 591.45,-51.08 590.1,-57.94"/>
</g>
<!-- Node7 -->
<g id="node7" class="node">
<title>Node7</title>
<g id="a_node7"><a xlink:href="_turbine_fast_8cpp.html" target="_top" xlink:title=" ">
<polygon fill="white" stroke="black" points="989,-0.5 989,-19.5 1081,-19.5 1081,-0.5 989,-0.5"/>
<text text-anchor="middle" x="1035" y="-7.5" font-family="Helvetica,sans-Serif" font-size="10.00">TurbineFast.cpp</text>
</a>
</g>
</g>
<!-- Node5&#45;&gt;Node7 -->
<g id="edge7" class="edge">
<title>Node5&#45;&gt;Node7</title>
<path fill="none" stroke="midnightblue" d="M703.31,-56.81C781.58,-46 917.73,-27.2 988.81,-17.38"/>
<polygon fill="midnightblue" stroke="midnightblue" points="702.55,-53.38 693.12,-58.22 703.51,-60.31 702.55,-53.38"/>
</g>
<!-- Node8 -->
<g id="node8" class="node">
<title>Node8</title>
<g id="a_node8"><a xlink:href="_fixed_wing_8cpp.html" target="_top" xlink:title=" ">
<polygon fill="white" stroke="black" points="833.5,-0.5 833.5,-19.5 920.5,-19.5 920.5,-0.5 833.5,-0.5"/>
<text text-anchor="middle" x="877" y="-7.5" font-family="Helvetica,sans-Serif" font-size="10.00">FixedWing.cpp</text>
</a>
</g>
</g>
<!-- Node5&#45;&gt;Node8 -->
<g id="edge8" class="edge">
<title>Node5&#45;&gt;Node8</title>
<path fill="none" stroke="midnightblue" d="M690.8,-54.15C734.83,-43.95 799.85,-28.88 840.25,-19.52"/>
<polygon fill="midnightblue" stroke="midnightblue" points="689.87,-50.78 680.92,-56.44 691.45,-57.6 689.87,-50.78"/>
</g>
<!-- Node9 -->
<g id="node9" class="node">
<title>Node9</title>
<g id="a_node9"><a xlink:href="_flat_plate_8cpp.html" target="_top" xlink:title=" ">
<polygon fill="white" stroke="black" points="636,-0.5 636,-19.5 716,-19.5 716,-0.5 636,-0.5"/>
<text text-anchor="middle" x="676" y="-7.5" font-family="Helvetica,sans-Serif" font-size="10.00">FlatPlate.cpp</text>
</a>
</g>
</g>
<!-- Node5&#45;&gt;Node9 -->
<g id="edge9" class="edge">
<title>Node5&#45;&gt;Node9</title>
<path fill="none" stroke="midnightblue" d="M654.5,-47.27C659.97,-38.05 666.42,-27.17 670.81,-19.75"/>
<polygon fill="midnightblue" stroke="midnightblue" points="651.37,-45.7 649.28,-56.08 657.39,-49.26 651.37,-45.7"/>
</g>
<!-- Node10&#45;&gt;Node5 -->
<g id="edge12" class="edge">
<title>Node10&#45;&gt;Node5</title>
<path fill="none" stroke="midnightblue" d="M666.17,-103.27C660.53,-94.05 653.88,-83.17 649.35,-75.75"/>
<polygon fill="midnightblue" stroke="midnightblue" points="663.35,-105.38 671.55,-112.08 669.32,-101.73 663.35,-105.38"/>
</g>
<!-- Node12 -->
<g id="node12" class="node">
<title>Node12</title>
<g id="a_node12"><a xlink:href="disk__ops_8cpp.html" target="_top" xlink:title=" ">
<polygon fill="white" stroke="black" points="101,-56.5 101,-75.5 181,-75.5 181,-56.5 101,-56.5"/>
<text text-anchor="middle" x="141" y="-63.5" font-family="Helvetica,sans-Serif" font-size="10.00">disk_ops.cpp</text>
</a>
</g>
</g>
<!-- Node11&#45;&gt;Node12 -->
<g id="edge14" class="edge">
<title>Node11&#45;&gt;Node12</title>
<path fill="none" stroke="midnightblue" d="M223.48,-107.86C203.27,-97.85 176.01,-84.35 158.47,-75.65"/>
<polygon fill="midnightblue" stroke="midnightblue" points="221.97,-111.02 232.49,-112.32 225.08,-104.75 221.97,-111.02"/>
</g>
<!-- Node13 -->
<g id="node13" class="node">
<title>Node13</title>
<g id="a_node13"><a xlink:href="_joukowsky__ops_8cpp.html" target="_top" xlink:title=" ">
<polygon fill="white" stroke="black" points="171,-0.5 171,-19.5 281,-19.5 281,-0.5 171,-0.5"/>
<text text-anchor="middle" x="226" y="-7.5" font-family="Helvetica,sans-Serif" font-size="10.00">Joukowsky_ops.cpp</text>
</a>
</g>
</g>
<!-- Node11&#45;&gt;Node13 -->
<g id="edge15" class="edge">
<title>Node11&#45;&gt;Node13</title>
<path fill="none" stroke="midnightblue" d="M204.94,-114.29C163.23,-107.06 105.65,-94.08 92,-76 67.46,-43.5 123.84,-26.39 170.85,-18.03"/>
<polygon fill="midnightblue" stroke="midnightblue" points="204.46,-117.76 214.9,-115.97 205.62,-110.86 204.46,-117.76"/>
</g>
<!-- Node14 -->
<g id="node14" class="node">
<title>Node14</title>
<g id="a_node14"><a xlink:href="_joukowsky__ops_8_h.html" target="_top" xlink:title=" ">
<polygon fill="white" stroke="black" points="319.5,-56.5 319.5,-75.5 420.5,-75.5 420.5,-56.5 319.5,-56.5"/>
<text text-anchor="middle" x="370" y="-63.5" font-family="Helvetica,sans-Serif" font-size="10.00">Joukowsky_ops.H</text>
</a>
</g>
</g>
<!-- Node11&#45;&gt;Node14 -->
<g id="edge16" class="edge">
<title>Node11&#45;&gt;Node14</title>
<path fill="none" stroke="midnightblue" d="M278.37,-108.23C300.82,-98.13 331.54,-84.31 351.07,-75.52"/>
<polygon fill="midnightblue" stroke="midnightblue" points="276.7,-105.15 269.01,-112.44 279.57,-111.53 276.7,-105.15"/>
</g>
<!-- Node15 -->
<g id="node15" class="node">
<title>Node15</title>
<g id="a_node15"><a xlink:href="uniform__ct__ops_8_h.html" target="_top" xlink:title=" ">
<polygon fill="white" stroke="black" points="199,-56.5 199,-75.5 301,-75.5 301,-56.5 199,-56.5"/>
<text text-anchor="middle" x="250" y="-63.5" font-family="Helvetica,sans-Serif" font-size="10.00">uniform_ct_ops.H</text>
</a>
</g>
</g>
<!-- Node11&#45;&gt;Node15 -->
<g id="edge19" class="edge">
<title>Node11&#45;&gt;Node15</title>
<path fill="none" stroke="midnightblue" d="M250,-101.8C250,-92.91 250,-82.78 250,-75.75"/>
<polygon fill="midnightblue" stroke="midnightblue" points="246.5,-102.08 250,-112.08 253.5,-102.08 246.5,-102.08"/>
</g>
<!-- Node14&#45;&gt;Node6 -->
<g id="edge17" class="edge">
<title>Node14&#45;&gt;Node6</title>
<path fill="none" stroke="midnightblue" d="M370,-45.8C370,-36.91 370,-26.78 370,-19.75"/>
<polygon fill="midnightblue" stroke="midnightblue" points="366.5,-46.08 370,-56.08 373.5,-46.08 366.5,-46.08"/>
</g>
<!-- Node14&#45;&gt;Node13 -->
<g id="edge18" class="edge">
<title>Node14&#45;&gt;Node13</title>
<path fill="none" stroke="midnightblue" d="M337.75,-52.91C310.68,-42.75 272.68,-28.51 248.71,-19.52"/>
<polygon fill="midnightblue" stroke="midnightblue" points="336.59,-56.21 347.18,-56.44 339.05,-49.66 336.59,-56.21"/>
</g>
<!-- Node15&#45;&gt;Node6 -->
<g id="edge20" class="edge">
<title>Node15&#45;&gt;Node6</title>
<path fill="none" stroke="midnightblue" d="M278.37,-52.23C300.82,-42.13 331.54,-28.31 351.07,-19.52"/>
<polygon fill="midnightblue" stroke="midnightblue" points="276.7,-49.15 269.01,-56.44 279.57,-55.53 276.7,-49.15"/>
</g>
<!-- Node15&#45;&gt;Node16 -->
<g id="edge21" class="edge">
<title>Node15&#45;&gt;Node16</title>
<path fill="none" stroke="midnightblue" d="M209.4,-53.7C172.78,-43.51 119.74,-28.74 86.6,-19.52"/>
<polygon fill="midnightblue" stroke="midnightblue" points="208.69,-57.13 219.26,-56.44 210.56,-50.39 208.69,-57.13"/>
</g>
<!-- Node17&#45;&gt;Node5 -->
<g id="edge23" class="edge">
<title>Node17&#45;&gt;Node5</title>
<path fill="none" stroke="midnightblue" d="M773.26,-109.3C742.17,-99.13 697.85,-84.62 670.02,-75.52"/>
<polygon fill="midnightblue" stroke="midnightblue" points="772.26,-112.66 782.86,-112.44 774.44,-106.01 772.26,-112.66"/>
</g>
<!-- Node18&#45;&gt;Node7 -->
<g id="edge25" class="edge">
<title>Node18&#45;&gt;Node7</title>
<path fill="none" stroke="midnightblue" d="M1103.68,-104.27C1086.17,-80.49 1054.73,-37.79 1041.33,-19.59"/>
<polygon fill="midnightblue" stroke="midnightblue" points="1100.9,-106.39 1109.64,-112.37 1106.53,-102.24 1100.9,-106.39"/>
</g>
<!-- Node19&#45;&gt;Node8 -->
<g id="edge27" class="edge">
<title>Node19&#45;&gt;Node8</title>
<path fill="none" stroke="midnightblue" d="M950.41,-51.45C932.32,-41.48 908.27,-28.23 892.71,-19.65"/>
<polygon fill="midnightblue" stroke="midnightblue" points="948.81,-54.56 959.25,-56.32 952.19,-48.43 948.81,-54.56"/>
</g>
<!-- Node20&#45;&gt;Node9 -->
<g id="edge29" class="edge">
<title>Node20&#45;&gt;Node9</title>
<path fill="none" stroke="midnightblue" d="M820.26,-53.57C785.74,-43.38 735.99,-28.7 704.86,-19.52"/>
<polygon fill="midnightblue" stroke="midnightblue" points="819.42,-56.97 830,-56.44 821.4,-50.26 819.42,-56.97"/>
</g>
<!-- Node21&#45;&gt;Node19 -->
<g id="edge31" class="edge">
<title>Node21&#45;&gt;Node19</title>
<path fill="none" stroke="midnightblue" d="M996.5,-103.27C991.03,-94.05 984.58,-83.17 980.19,-75.75"/>
<polygon fill="midnightblue" stroke="midnightblue" points="993.61,-105.26 1001.72,-112.08 999.63,-101.7 993.61,-105.26"/>
</g>
<!-- Node21&#45;&gt;Node20 -->
<g id="edge32" class="edge">
<title>Node21&#45;&gt;Node20</title>
<path fill="none" stroke="midnightblue" d="M973.85,-108.91C946.03,-98.75 906.98,-84.51 882.34,-75.52"/>
<polygon fill="midnightblue" stroke="midnightblue" points="972.96,-112.3 983.55,-112.44 975.35,-105.73 972.96,-112.3"/>
</g>
<!-- Node21&#45;&gt;Node22 -->
<g id="edge33" class="edge">
<title>Node21&#45;&gt;Node22</title>
<path fill="none" stroke="midnightblue" d="M1039.48,-108.91C1066.74,-98.75 1104.99,-84.51 1129.13,-75.52"/>
<polygon fill="midnightblue" stroke="midnightblue" points="1038.13,-105.67 1029.98,-112.44 1040.57,-112.23 1038.13,-105.67"/>
</g>
<!-- Node24 -->
<g id="node24" class="node">
<title>Node24</title>
<g id="a_node24"><a xlink:href="_f_l_l_c_8cpp.html" target="_top" xlink:title=" ">
<polygon fill="white" stroke="black" points="956,-168.5 956,-187.5 1016,-187.5 1016,-168.5 956,-168.5"/>
<text text-anchor="middle" x="986" y="-175.5" font-family="Helvetica,sans-Serif" font-size="10.00">FLLC.cpp</text>
</a>
</g>
</g>
<!-- Node23&#45;&gt;Node24 -->
<g id="edge37" class="edge">
<title>Node23&#45;&gt;Node24</title>
<path fill="none" stroke="midnightblue" d="M958.7,-215.86C965.63,-206.5 973.91,-195.33 979.52,-187.75"/>
<polygon fill="midnightblue" stroke="midnightblue" points="955.75,-213.96 952.61,-224.08 961.37,-218.13 955.75,-213.96"/>
</g>
<!-- Node25 -->
<g id="node25" class="node">
<title>Node25</title>
<g id="a_node25"><a xlink:href="_f_l_l_c_op_8_h.html" target="_top" xlink:title=" ">
<polygon fill="white" stroke="black" points="874,-168.5 874,-187.5 938,-187.5 938,-168.5 874,-168.5"/>
<text text-anchor="middle" x="906" y="-175.5" font-family="Helvetica,sans-Serif" font-size="10.00">FLLCOp.H</text>
</a>
</g>
</g>
<!-- Node23&#45;&gt;Node25 -->
<g id="edge38" class="edge">
<title>Node23&#45;&gt;Node25</title>
<path fill="none" stroke="midnightblue" d="M933.3,-215.86C926.37,-206.5 918.09,-195.33 912.48,-187.75"/>
<polygon fill="midnightblue" stroke="midnightblue" points="930.63,-218.13 939.39,-224.08 936.25,-213.96 930.63,-218.13"/>
</g>
<!-- Node26 -->
<g id="node26" class="node">
<title>Node26</title>
<g id="a_node26"><a xlink:href="turbine__utils_8cpp.html" target="_top" xlink:title=" ">
<polygon fill="white" stroke="black" points="1034,-168.5 1034,-187.5 1132,-187.5 1132,-168.5 1034,-168.5"/>
<text text-anchor="middle" x="1083" y="-175.5" font-family="Helvetica,sans-Serif" font-size="10.00">turbine_utils.cpp</text>
</a>
</g>
</g>
<!-- Node23&#45;&gt;Node26 -->
<g id="edge41" class="edge">
<title>Node23&#45;&gt;Node26</title>
<path fill="none" stroke="midnightblue" d="M977.02,-220.77C1002.76,-210.63 1038.69,-196.47 1061.39,-187.52"/>
<polygon fill="midnightblue" stroke="midnightblue" points="975.73,-217.52 967.71,-224.44 978.29,-224.03 975.73,-217.52"/>
</g>
<!-- Node25&#45;&gt;Node18 -->
<g id="edge39" class="edge">
<title>Node25&#45;&gt;Node18</title>
<path fill="none" stroke="midnightblue" d="M948.26,-166.13C987.95,-155.93 1046.53,-140.86 1082.92,-131.51"/>
<polygon fill="midnightblue" stroke="midnightblue" points="947.17,-162.8 938.35,-168.68 948.91,-169.58 947.17,-162.8"/>
</g>
<!-- Node25&#45;&gt;Node21 -->
<g id="edge40" class="edge">
<title>Node25&#45;&gt;Node21</title>
<path fill="none" stroke="midnightblue" d="M931.08,-163.59C949.76,-153.61 974.7,-140.27 990.81,-131.65"/>
<polygon fill="midnightblue" stroke="midnightblue" points="929.4,-160.52 922.23,-168.32 932.7,-166.7 929.4,-160.52"/>
</g>
<!-- Node27&#45;&gt;Node18 -->
<g id="edge43" class="edge">
<title>Node27&#45;&gt;Node18</title>
<path fill="none" stroke="midnightblue" d="M1110.13,-219.32C1121.9,-211.82 1134.48,-201.32 1141,-188 1150.57,-168.46 1134.32,-144.26 1123.83,-131.62"/>
<polygon fill="midnightblue" stroke="midnightblue" points="1108.23,-216.38 1101.39,-224.47 1111.78,-222.41 1108.23,-216.38"/>
</g>
<!-- Node27&#45;&gt;Node26 -->
<g id="edge44" class="edge">
<title>Node27&#45;&gt;Node26</title>
<path fill="none" stroke="midnightblue" d="M1083,-213.8C1083,-204.91 1083,-194.78 1083,-187.75"/>
<polygon fill="midnightblue" stroke="midnightblue" points="1079.5,-214.08 1083,-224.08 1086.5,-214.08 1079.5,-214.08"/>
</g>
</g>
</svg>
