<?xml version="1.0" encoding="UTF-8" standalone="no"?>
<!DOCTYPE svg PUBLIC "-//W3C//DTD SVG 1.1//EN"
 "http://www.w3.org/Graphics/SVG/1.1/DTD/svg11.dtd">
<!-- Generated by graphviz version 2.43.0 (0)
 -->
<!-- Title: BCOps.H Pages: 1 -->
<svg width="892pt" height="140pt"
 viewBox="0.00 0.00 892.00 140.00" xmlns="http://www.w3.org/2000/svg" xmlns:xlink="http://www.w3.org/1999/xlink">
<g id="graph0" class="graph" transform="scale(1 1) rotate(0) translate(4 136)">
<title>BCOps.H</title>
<polygon fill="white" stroke="transparent" points="-4,4 -4,-136 888,-136 888,4 -4,4"/>
<!-- Node1 -->
<g id="node1" class="node">
<title>Node1</title>
<g id="a_node1"><a xlink:title=" ">
<polygon fill="#bfbfbf" stroke="black" points="419,-112.5 419,-131.5 478,-131.5 478,-112.5 419,-112.5"/>
<text text-anchor="middle" x="448.5" y="-119.5" font-family="Helvetica,sans-Serif" font-size="10.00">BCOps.H</text>
</a>
</g>
</g>
<!-- Node2 -->
<g id="node2" class="node">
<title>Node2</title>
<g id="a_node2"><a xlink:href="density_8cpp.html" target="_top" xlink:title=" ">
<polygon fill="white" stroke="black" points="0,-56.5 0,-75.5 71,-75.5 71,-56.5 0,-56.5"/>
<text text-anchor="middle" x="35.5" y="-63.5" font-family="Helvetica,sans-Serif" font-size="10.00">density.cpp</text>
</a>
</g>
</g>
<!-- Node1&#45;&gt;Node2 -->
<g id="edge1" class="edge">
<title>Node1&#45;&gt;Node2</title>
<path fill="none" stroke="midnightblue" d="M408.49,-117.19C340.6,-110.48 198.61,-95.41 79.5,-76 76.88,-75.57 74.19,-75.1 71.47,-74.6"/>
<polygon fill="midnightblue" stroke="midnightblue" points="408.44,-120.7 418.73,-118.19 409.12,-113.73 408.44,-120.7"/>
</g>
<!-- Node3 -->
<g id="node3" class="node">
<title>Node3</title>
<g id="a_node3"><a xlink:href="icns__bcop_8_h.html" target="_top" xlink:title=" ">
<polygon fill="white" stroke="black" points="89,-56.5 89,-75.5 164,-75.5 164,-56.5 89,-56.5"/>
<text text-anchor="middle" x="126.5" y="-63.5" font-family="Helvetica,sans-Serif" font-size="10.00">icns_bcop.H</text>
</a>
</g>
</g>
<!-- Node1&#45;&gt;Node3 -->
<g id="edge2" class="edge">
<title>Node1&#45;&gt;Node3</title>
<path fill="none" stroke="midnightblue" d="M408.65,-114.83C355.11,-106.45 257.01,-90.82 173.5,-76 170.47,-75.46 167.34,-74.89 164.19,-74.31"/>
<polygon fill="midnightblue" stroke="midnightblue" points="408.33,-118.32 418.75,-116.4 409.41,-111.4 408.33,-118.32"/>
</g>
<!-- Node5 -->
<g id="node5" class="node">
<title>Node5</title>
<g id="a_node5"><a xlink:href="levelset_8cpp.html" target="_top" xlink:title=" ">
<polygon fill="white" stroke="black" points="182.5,-56.5 182.5,-75.5 258.5,-75.5 258.5,-56.5 182.5,-56.5"/>
<text text-anchor="middle" x="220.5" y="-63.5" font-family="Helvetica,sans-Serif" font-size="10.00">levelset.cpp</text>
</a>
</g>
</g>
<!-- Node1&#45;&gt;Node5 -->
<g id="edge4" class="edge">
<title>Node1&#45;&gt;Node5</title>
<path fill="none" stroke="midnightblue" d="M408.89,-111.62C366.01,-101.46 298.21,-85.41 256.71,-75.58"/>
<polygon fill="midnightblue" stroke="midnightblue" points="408.16,-115.04 418.69,-113.94 409.77,-108.23 408.16,-115.04"/>
</g>
<!-- Node6 -->
<g id="node6" class="node">
<title>Node6</title>
<g id="a_node6"><a xlink:href="_s_d_r_8cpp.html" target="_top" xlink:title=" ">
<polygon fill="white" stroke="black" points="277,-56.5 277,-75.5 334,-75.5 334,-56.5 277,-56.5"/>
<text text-anchor="middle" x="305.5" y="-63.5" font-family="Helvetica,sans-Serif" font-size="10.00">SDR.cpp</text>
</a>
</g>
</g>
<!-- Node1&#45;&gt;Node6 -->
<g id="edge5" class="edge">
<title>Node1&#45;&gt;Node6</title>
<path fill="none" stroke="midnightblue" d="M416.47,-108.91C389.59,-98.75 351.86,-84.51 328.05,-75.52"/>
<polygon fill="midnightblue" stroke="midnightblue" points="415.25,-112.19 425.84,-112.44 417.72,-105.64 415.25,-112.19"/>
</g>
<!-- Node7 -->
<g id="node7" class="node">
<title>Node7</title>
<g id="a_node7"><a xlink:href="temperature_8cpp.html" target="_top" xlink:title=" ">
<polygon fill="white" stroke="black" points="352.5,-56.5 352.5,-75.5 450.5,-75.5 450.5,-56.5 352.5,-56.5"/>
<text text-anchor="middle" x="401.5" y="-63.5" font-family="Helvetica,sans-Serif" font-size="10.00">temperature.cpp</text>
</a>
</g>
</g>
<!-- Node1&#45;&gt;Node7 -->
<g id="edge6" class="edge">
<title>Node1&#45;&gt;Node7</title>
<path fill="none" stroke="midnightblue" d="M434.08,-104.43C425.84,-94.97 415.85,-83.48 409.12,-75.75"/>
<polygon fill="midnightblue" stroke="midnightblue" points="431.53,-106.84 440.74,-112.08 436.81,-102.24 431.53,-106.84"/>
</g>
<!-- Node8 -->
<g id="node8" class="node">
<title>Node8</title>
<g id="a_node8"><a xlink:href="_t_k_e_8cpp.html" target="_top" xlink:title=" ">
<polygon fill="white" stroke="black" points="468.5,-56.5 468.5,-75.5 524.5,-75.5 524.5,-56.5 468.5,-56.5"/>
<text text-anchor="middle" x="496.5" y="-63.5" font-family="Helvetica,sans-Serif" font-size="10.00">TKE.cpp</text>
</a>
</g>
</g>
<!-- Node1&#45;&gt;Node8 -->
<g id="edge7" class="edge">
<title>Node1&#45;&gt;Node8</title>
<path fill="none" stroke="midnightblue" d="M463.23,-104.43C471.64,-94.97 481.85,-83.48 488.72,-75.75"/>
<polygon fill="midnightblue" stroke="midnightblue" points="460.45,-102.28 456.43,-112.08 465.69,-106.93 460.45,-102.28"/>
</g>
<!-- Node9 -->
<g id="node9" class="node">
<title>Node9</title>
<g id="a_node9"><a xlink:href="vof_8cpp.html" target="_top" xlink:title=" ">
<polygon fill="white" stroke="black" points="558.5,-0.5 558.5,-19.5 610.5,-19.5 610.5,-0.5 558.5,-0.5"/>
<text text-anchor="middle" x="584.5" y="-7.5" font-family="Helvetica,sans-Serif" font-size="10.00">vof.cpp</text>
</a>
</g>
</g>
<!-- Node1&#45;&gt;Node9 -->
<g id="edge8" class="edge">
<title>Node1&#45;&gt;Node9</title>
<path fill="none" stroke="midnightblue" d="M480.09,-108.14C496.99,-100.35 517.54,-89.34 533.5,-76 553.75,-59.07 571.24,-32.9 579.47,-19.52"/>
<polygon fill="midnightblue" stroke="midnightblue" points="478.35,-105.09 470.63,-112.35 481.19,-111.48 478.35,-105.09"/>
</g>
<!-- Node10 -->
<g id="node10" class="node">
<title>Node10</title>
<g id="a_node10"><a xlink:href="vof__bcop_8_h.html" target="_top" xlink:title=" ">
<polygon fill="white" stroke="black" points="581,-56.5 581,-75.5 652,-75.5 652,-56.5 581,-56.5"/>
<text text-anchor="middle" x="616.5" y="-63.5" font-family="Helvetica,sans-Serif" font-size="10.00">vof_bcop.H</text>
</a>
</g>
</g>
<!-- Node1&#45;&gt;Node10 -->
<g id="edge9" class="edge">
<title>Node1&#45;&gt;Node10</title>
<path fill="none" stroke="midnightblue" d="M484.89,-109.3C516.54,-99.13 561.67,-84.62 590,-75.52"/>
<polygon fill="midnightblue" stroke="midnightblue" points="483.57,-106.05 475.12,-112.44 485.71,-112.72 483.57,-106.05"/>
</g>
<!-- Node11 -->
<g id="node11" class="node">
<title>Node11</title>
<g id="a_node11"><a xlink:href="hos__waves__ops_8_h.html" target="_top" xlink:title=" ">
<polygon fill="white" stroke="black" points="670.5,-56.5 670.5,-75.5 774.5,-75.5 774.5,-56.5 670.5,-56.5"/>
<text text-anchor="middle" x="722.5" y="-63.5" font-family="Helvetica,sans-Serif" font-size="10.00">hos_waves_ops.H</text>
</a>
</g>
</g>
<!-- Node1&#45;&gt;Node11 -->
<g id="edge11" class="edge">
<title>Node1&#45;&gt;Node11</title>
<path fill="none" stroke="midnightblue" d="M488.02,-113.21C538.78,-103.21 626.57,-85.91 679.12,-75.55"/>
<polygon fill="midnightblue" stroke="midnightblue" points="487.22,-109.8 478.08,-115.17 488.57,-116.67 487.22,-109.8"/>
</g>
<!-- Node13 -->
<g id="node13" class="node">
<title>Node13</title>
<g id="a_node13"><a xlink:href="_multi_phase_8cpp.html" target="_top" xlink:title=" ">
<polygon fill="white" stroke="black" points="793,-56.5 793,-75.5 884,-75.5 884,-56.5 793,-56.5"/>
<text text-anchor="middle" x="838.5" y="-63.5" font-family="Helvetica,sans-Serif" font-size="10.00">MultiPhase.cpp</text>
</a>
</g>
</g>
<!-- Node1&#45;&gt;Node13 -->
<g id="edge13" class="edge">
<title>Node1&#45;&gt;Node13</title>
<path fill="none" stroke="midnightblue" d="M488.37,-116.02C551.2,-108.09 677.06,-91.85 783.5,-76 786.56,-75.54 789.72,-75.06 792.9,-74.57"/>
<polygon fill="midnightblue" stroke="midnightblue" points="487.6,-112.59 478.12,-117.31 488.48,-119.53 487.6,-112.59"/>
</g>
<!-- Node4 -->
<g id="node4" class="node">
<title>Node4</title>
<g id="a_node4"><a xlink:href="icns_8cpp.html" target="_top" xlink:title=" ">
<polygon fill="white" stroke="black" points="98.5,-0.5 98.5,-19.5 154.5,-19.5 154.5,-0.5 98.5,-0.5"/>
<text text-anchor="middle" x="126.5" y="-7.5" font-family="Helvetica,sans-Serif" font-size="10.00">icns.cpp</text>
</a>
</g>
</g>
<!-- Node3&#45;&gt;Node4 -->
<g id="edge3" class="edge">
<title>Node3&#45;&gt;Node4</title>
<path fill="none" stroke="midnightblue" d="M126.5,-45.8C126.5,-36.91 126.5,-26.78 126.5,-19.75"/>
<polygon fill="midnightblue" stroke="midnightblue" points="123,-46.08 126.5,-56.08 130,-46.08 123,-46.08"/>
</g>
<!-- Node10&#45;&gt;Node9 -->
<g id="edge10" class="edge">
<title>Node10&#45;&gt;Node9</title>
<path fill="none" stroke="midnightblue" d="M606,-47.27C600.53,-38.05 594.08,-27.17 589.69,-19.75"/>
<polygon fill="midnightblue" stroke="midnightblue" points="603.11,-49.26 611.22,-56.08 609.13,-45.7 603.11,-49.26"/>
</g>
<!-- Node12 -->
<g id="node12" class="node">
<title>Node12</title>
<g id="a_node12"><a xlink:href="_h_o_s_waves_8cpp.html" target="_top" xlink:title=" ">
<polygon fill="white" stroke="black" points="677.5,-0.5 677.5,-19.5 767.5,-19.5 767.5,-0.5 677.5,-0.5"/>
<text text-anchor="middle" x="722.5" y="-7.5" font-family="Helvetica,sans-Serif" font-size="10.00">HOSWaves.cpp</text>
</a>
</g>
</g>
<!-- Node11&#45;&gt;Node12 -->
<g id="edge12" class="edge">
<title>Node11&#45;&gt;Node12</title>
<path fill="none" stroke="midnightblue" d="M722.5,-45.8C722.5,-36.91 722.5,-26.78 722.5,-19.75"/>
<polygon fill="midnightblue" stroke="midnightblue" points="719,-46.08 722.5,-56.08 726,-46.08 719,-46.08"/>
</g>
</g>
</svg>
