<?xml version="1.0" encoding="UTF-8" standalone="no"?>
<!DOCTYPE svg PUBLIC "-//W3C//DTD SVG 1.1//EN"
 "http://www.w3.org/Graphics/SVG/1.1/DTD/svg11.dtd">
<!-- Generated by graphviz version 2.43.0 (0)
 -->
<!-- Title: BCInterface.H Pages: 1 -->
<!--zoomable 196 -->
<svg id="main" version="1.1" xmlns="http://www.w3.org/2000/svg" xmlns:xlink="http://www.w3.org/1999/xlink" xml:space="preserve" onload="init(evt)">
<style type="text/css"><![CDATA[
.edge:hover path { stroke: red; }
.edge:hover polygon { stroke: red; fill: red; }
]]></style>
<script type="text/javascript"><![CDATA[
var edges = document.getElementsByTagName('g');
if (edges && edges.length) {
  for (var i=0;i<edges.length;i++) {
    if (edges[i].id.substr(0,4)=='edge') {
      edges[i].setAttribute('class','edge');
    }
  }
}
]]></script>
        <defs>
                <circle id="rim" cx="0" cy="0" r="7"/>
                <circle id="rim2" cx="0" cy="0" r="3.5"/>
                <g id="zoomPlus">
                        <use xlink:href="#rim" fill="#404040">
                                <set attributeName="fill" to="#808080" begin="zoomplus.mouseover" end="zoomplus.mouseout"/>
                        </use>
                        <path d="M-4,0h8M0,-4v8" fill="none" stroke="white" stroke-width="1.5" pointer-events="none"/>
                </g>
                <g id="zoomMin">
                        <use xlink:href="#rim" fill="#404040">
                                <set attributeName="fill" to="#808080" begin="zoomminus.mouseover" end="zoomminus.mouseout"/>
                        </use>
                        <path d="M-4,0h8" fill="none" stroke="white" stroke-width="1.5" pointer-events="none"/>
                </g>
                <g id="dirArrow">
                        <path fill="none" stroke="white" stroke-width="1.5" d="M0,-3.0v7 M-2.5,-0.5L0,-3.0L2.5,-0.5"/>
                </g>
               <g id="resetDef">
                       <use xlink:href="#rim2" fill="#404040">
                               <set attributeName="fill" to="#808080" begin="reset.mouseover" end="reset.mouseout"/>
                       </use>
               </g>
        </defs>

<script type="text/javascript">
var viewWidth = 892;
var viewHeight = 196;
var sectionId = 'dynsection-1';
</script>
<script xlink:href="svgpan.js"/>
<svg id="graph" class="graph">
<g id="viewport">
<title>BCInterface.H</title>
<polygon fill="white" stroke="transparent" points="-4,4 -4,-192 888,-192 888,4 -4,4"/>
<!-- Node1 -->
<g id="node1" class="node">
<title>Node1</title>
<g id="a_node1"><a xlink:title=" ">
<polygon fill="#bfbfbf" stroke="black" points="424.5,-168.5 424.5,-187.5 508.5,-187.5 508.5,-168.5 424.5,-168.5"/>
<text text-anchor="middle" x="466.5" y="-175.5" font-family="Helvetica,sans-Serif" font-size="10.00">BCInterface.H</text>
</a>
</g>
</g>
<!-- Node2 -->
<g id="node2" class="node">
<title>Node2</title>
<g id="a_node2"><a xlink:href="_b_c_interface_8cpp.html" target="_top" xlink:title=" ">
<polygon fill="white" stroke="black" points="285.5,-112.5 285.5,-131.5 379.5,-131.5 379.5,-112.5 285.5,-112.5"/>
<text text-anchor="middle" x="332.5" y="-119.5" font-family="Helvetica,sans-Serif" font-size="10.00">BCInterface.cpp</text>
</a>
</g>
</g>
<!-- Node1&#45;&gt;Node2 -->
<g id="edge1" class="edge">
<title>Node1&#45;&gt;Node2</title>
<path fill="none" stroke="midnightblue" d="M435.82,-164.64C410.68,-154.5 375.75,-140.43 353.63,-131.52"/>
<polygon fill="midnightblue" stroke="midnightblue" points="434.68,-167.95 445.27,-168.44 437.3,-161.46 434.68,-167.95"/>
</g>
<!-- Node3 -->
<g id="node3" class="node">
<title>Node3</title>
<g id="a_node3"><a xlink:href="_field_8cpp.html" target="_top" xlink:title=" ">
<polygon fill="white" stroke="black" points="397.5,-112.5 397.5,-131.5 457.5,-131.5 457.5,-112.5 397.5,-112.5"/>
<text text-anchor="middle" x="427.5" y="-119.5" font-family="Helvetica,sans-Serif" font-size="10.00">Field.cpp</text>
</a>
</g>
</g>
<!-- Node1&#45;&gt;Node3 -->
<g id="edge2" class="edge">
<title>Node1&#45;&gt;Node3</title>
<path fill="none" stroke="midnightblue" d="M454.12,-159.86C447.36,-150.5 439.29,-139.33 433.82,-131.75"/>
<polygon fill="midnightblue" stroke="midnightblue" points="451.37,-162.03 460.06,-168.08 457.04,-157.93 451.37,-162.03"/>
</g>
<!-- Node4 -->
<g id="node4" class="node">
<title>Node4</title>
<g id="a_node4"><a xlink:href="_b_c_ops_8_h.html" target="_top" xlink:title=" ">
<polygon fill="white" stroke="black" points="476,-112.5 476,-131.5 535,-131.5 535,-112.5 476,-112.5"/>
<text text-anchor="middle" x="505.5" y="-119.5" font-family="Helvetica,sans-Serif" font-size="10.00">BCOps.H</text>
</a>
</g>
</g>
<!-- Node1&#45;&gt;Node4 -->
<g id="edge3" class="edge">
<title>Node1&#45;&gt;Node4</title>
<path fill="none" stroke="midnightblue" d="M478.88,-159.86C485.64,-150.5 493.71,-139.33 499.18,-131.75"/>
<polygon fill="midnightblue" stroke="midnightblue" points="475.96,-157.93 472.94,-168.08 481.63,-162.03 475.96,-157.93"/>
</g>
<!-- Node17 -->
<g id="node17" class="node">
<title>Node17</title>
<g id="a_node17"><a xlink:href="vof__bciface_8_h.html" target="_top" xlink:title=" ">
<polygon fill="white" stroke="black" points="680,-112.5 680,-131.5 763,-131.5 763,-112.5 680,-112.5"/>
<text text-anchor="middle" x="721.5" y="-119.5" font-family="Helvetica,sans-Serif" font-size="10.00">vof_bciface.H</text>
</a>
</g>
</g>
<!-- Node1&#45;&gt;Node17 -->
<g id="edge17" class="edge">
<title>Node1&#45;&gt;Node17</title>
<path fill="none" stroke="midnightblue" d="M516.81,-166.35C565,-156.14 636.78,-140.94 681.28,-131.52"/>
<polygon fill="midnightblue" stroke="midnightblue" points="515.96,-162.95 506.91,-168.44 517.41,-169.8 515.96,-162.95"/>
</g>
<!-- Node5 -->
<g id="node5" class="node">
<title>Node5</title>
<g id="a_node5"><a xlink:href="density_8cpp.html" target="_top" xlink:title=" ">
<polygon fill="white" stroke="black" points="576,-56.5 576,-75.5 647,-75.5 647,-56.5 576,-56.5"/>
<text text-anchor="middle" x="611.5" y="-63.5" font-family="Helvetica,sans-Serif" font-size="10.00">density.cpp</text>
</a>
</g>
</g>
<!-- Node4&#45;&gt;Node5 -->
<g id="edge4" class="edge">
<title>Node4&#45;&gt;Node5</title>
<path fill="none" stroke="midnightblue" d="M531.56,-107.73C551.18,-97.73 577.53,-84.31 594.51,-75.65"/>
<polygon fill="midnightblue" stroke="midnightblue" points="529.85,-104.67 522.53,-112.32 533.03,-110.9 529.85,-104.67"/>
</g>
<!-- Node6 -->
<g id="node6" class="node">
<title>Node6</title>
<g id="a_node6"><a xlink:href="icns__bcop_8_h.html" target="_top" xlink:title=" ">
<polygon fill="white" stroke="black" points="0,-56.5 0,-75.5 75,-75.5 75,-56.5 0,-56.5"/>
<text text-anchor="middle" x="37.5" y="-63.5" font-family="Helvetica,sans-Serif" font-size="10.00">icns_bcop.H</text>
</a>
</g>
</g>
<!-- Node4&#45;&gt;Node6 -->
<g id="edge5" class="edge">
<title>Node4&#45;&gt;Node6</title>
<path fill="none" stroke="midnightblue" d="M465.77,-112.1C296.41,-85.34 250.11,-99.61 84.5,-76 81.46,-75.57 78.31,-75.07 75.16,-74.54"/>
<polygon fill="midnightblue" stroke="midnightblue" points="465.34,-115.58 475.77,-113.71 466.45,-108.67 465.34,-115.58"/>
</g>
<!-- Node8 -->
<g id="node8" class="node">
<title>Node8</title>
<g id="a_node8"><a xlink:href="levelset_8cpp.html" target="_top" xlink:title=" ">
<polygon fill="white" stroke="black" points="93.5,-56.5 93.5,-75.5 169.5,-75.5 169.5,-56.5 93.5,-56.5"/>
<text text-anchor="middle" x="131.5" y="-63.5" font-family="Helvetica,sans-Serif" font-size="10.00">levelset.cpp</text>
</a>
</g>
</g>
<!-- Node4&#45;&gt;Node8 -->
<g id="edge7" class="edge">
<title>Node4&#45;&gt;Node8</title>
<path fill="none" stroke="midnightblue" d="M465.57,-112.01C337.72,-89.79 302.68,-95.63 178.5,-76 175.63,-75.55 172.66,-75.05 169.68,-74.53"/>
<polygon fill="midnightblue" stroke="midnightblue" points="465.3,-115.52 475.75,-113.8 466.51,-108.62 465.3,-115.52"/>
</g>
<!-- Node9 -->
<g id="node9" class="node">
<title>Node9</title>
<g id="a_node9"><a xlink:href="_s_d_r_8cpp.html" target="_top" xlink:title=" ">
<polygon fill="white" stroke="black" points="188,-56.5 188,-75.5 245,-75.5 245,-56.5 188,-56.5"/>
<text text-anchor="middle" x="216.5" y="-63.5" font-family="Helvetica,sans-Serif" font-size="10.00">SDR.cpp</text>
</a>
</g>
</g>
<!-- Node4&#45;&gt;Node9 -->
<g id="edge8" class="edge">
<title>Node4&#45;&gt;Node9</title>
<path fill="none" stroke="midnightblue" d="M465.73,-111.95C371.08,-93.34 345.05,-94.39 254.5,-76 251.44,-75.38 248.26,-74.69 245.09,-73.98"/>
<polygon fill="midnightblue" stroke="midnightblue" points="465.24,-115.42 475.73,-113.94 466.6,-108.56 465.24,-115.42"/>
</g>
<!-- Node10 -->
<g id="node10" class="node">
<title>Node10</title>
<g id="a_node10"><a xlink:href="temperature_8cpp.html" target="_top" xlink:title=" ">
<polygon fill="white" stroke="black" points="263.5,-56.5 263.5,-75.5 361.5,-75.5 361.5,-56.5 263.5,-56.5"/>
<text text-anchor="middle" x="312.5" y="-63.5" font-family="Helvetica,sans-Serif" font-size="10.00">temperature.cpp</text>
</a>
</g>
</g>
<!-- Node4&#45;&gt;Node10 -->
<g id="edge9" class="edge">
<title>Node4&#45;&gt;Node10</title>
<path fill="none" stroke="midnightblue" d="M465.96,-109.94C429.5,-99.74 376.14,-84.8 342.9,-75.51"/>
<polygon fill="midnightblue" stroke="midnightblue" points="465.19,-113.36 475.77,-112.68 467.08,-106.62 465.19,-113.36"/>
</g>
<!-- Node11 -->
<g id="node11" class="node">
<title>Node11</title>
<g id="a_node11"><a xlink:href="_t_k_e_8cpp.html" target="_top" xlink:title=" ">
<polygon fill="white" stroke="black" points="379.5,-56.5 379.5,-75.5 435.5,-75.5 435.5,-56.5 379.5,-56.5"/>
<text text-anchor="middle" x="407.5" y="-63.5" font-family="Helvetica,sans-Serif" font-size="10.00">TKE.cpp</text>
</a>
</g>
</g>
<!-- Node4&#45;&gt;Node11 -->
<g id="edge10" class="edge">
<title>Node4&#45;&gt;Node11</title>
<path fill="none" stroke="midnightblue" d="M480.91,-107.45C462.82,-97.48 438.77,-84.23 423.21,-75.65"/>
<polygon fill="midnightblue" stroke="midnightblue" points="479.31,-110.56 489.75,-112.32 482.69,-104.43 479.31,-110.56"/>
</g>
<!-- Node12 -->
<g id="node12" class="node">
<title>Node12</title>
<g id="a_node12"><a xlink:href="vof_8cpp.html" target="_top" xlink:title=" ">
<polygon fill="white" stroke="black" points="735.5,-0.5 735.5,-19.5 787.5,-19.5 787.5,-0.5 735.5,-0.5"/>
<text text-anchor="middle" x="761.5" y="-7.5" font-family="Helvetica,sans-Serif" font-size="10.00">vof.cpp</text>
</a>
</g>
</g>
<!-- Node4&#45;&gt;Node12 -->
<g id="edge11" class="edge">
<title>Node4&#45;&gt;Node12</title>
<path fill="none" stroke="midnightblue" d="M545.29,-112.2C576.35,-104.62 620.18,-92.31 656.5,-76 692.49,-59.84 730.99,-33.33 749.8,-19.7"/>
<polygon fill="midnightblue" stroke="midnightblue" points="544.19,-108.87 535.27,-114.6 545.81,-115.68 544.19,-108.87"/>
</g>
<!-- Node13 -->
<g id="node13" class="node">
<title>Node13</title>
<g id="a_node13"><a xlink:href="vof__bcop_8_h.html" target="_top" xlink:title=" ">
<polygon fill="white" stroke="black" points="813,-56.5 813,-75.5 884,-75.5 884,-56.5 813,-56.5"/>
<text text-anchor="middle" x="848.5" y="-63.5" font-family="Helvetica,sans-Serif" font-size="10.00">vof_bcop.H</text>
</a>
</g>
</g>
<!-- Node4&#45;&gt;Node13 -->
<g id="edge12" class="edge">
<title>Node4&#45;&gt;Node13</title>
<path fill="none" stroke="midnightblue" d="M545.4,-115.67C602.82,-107.85 712.05,-92.4 804.5,-76 807.26,-75.51 810.12,-74.98 812.99,-74.43"/>
<polygon fill="midnightblue" stroke="midnightblue" points="544.73,-112.23 535.29,-117.04 545.67,-119.17 544.73,-112.23"/>
</g>
<!-- Node14 -->
<g id="node14" class="node">
<title>Node14</title>
<g id="a_node14"><a xlink:href="hos__waves__ops_8_h.html" target="_top" xlink:title=" ">
<polygon fill="white" stroke="black" points="453.5,-56.5 453.5,-75.5 557.5,-75.5 557.5,-56.5 453.5,-56.5"/>
<text text-anchor="middle" x="505.5" y="-63.5" font-family="Helvetica,sans-Serif" font-size="10.00">hos_waves_ops.H</text>
</a>
</g>
</g>
<!-- Node4&#45;&gt;Node14 -->
<g id="edge14" class="edge">
<title>Node4&#45;&gt;Node14</title>
<path fill="none" stroke="midnightblue" d="M505.5,-101.8C505.5,-92.91 505.5,-82.78 505.5,-75.75"/>
<polygon fill="midnightblue" stroke="midnightblue" points="502,-102.08 505.5,-112.08 509,-102.08 502,-102.08"/>
</g>
<!-- Node16 -->
<g id="node16" class="node">
<title>Node16</title>
<g id="a_node16"><a xlink:href="_multi_phase_8cpp.html" target="_top" xlink:title=" ">
<polygon fill="white" stroke="black" points="704,-56.5 704,-75.5 795,-75.5 795,-56.5 704,-56.5"/>
<text text-anchor="middle" x="749.5" y="-63.5" font-family="Helvetica,sans-Serif" font-size="10.00">MultiPhase.cpp</text>
</a>
</g>
</g>
<!-- Node4&#45;&gt;Node16 -->
<g id="edge16" class="edge">
<title>Node4&#45;&gt;Node16</title>
<path fill="none" stroke="midnightblue" d="M545.28,-112.2C591.03,-102.07 665.64,-85.56 710.89,-75.55"/>
<polygon fill="midnightblue" stroke="midnightblue" points="544.43,-108.8 535.42,-114.38 545.94,-115.63 544.43,-108.8"/>
</g>
<!-- Node7 -->
<g id="node7" class="node">
<title>Node7</title>
<g id="a_node7"><a xlink:href="icns_8cpp.html" target="_top" xlink:title=" ">
<polygon fill="white" stroke="black" points="9.5,-0.5 9.5,-19.5 65.5,-19.5 65.5,-0.5 9.5,-0.5"/>
<text text-anchor="middle" x="37.5" y="-7.5" font-family="Helvetica,sans-Serif" font-size="10.00">icns.cpp</text>
</a>
</g>
</g>
<!-- Node6&#45;&gt;Node7 -->
<g id="edge6" class="edge">
<title>Node6&#45;&gt;Node7</title>
<path fill="none" stroke="midnightblue" d="M37.5,-45.8C37.5,-36.91 37.5,-26.78 37.5,-19.75"/>
<polygon fill="midnightblue" stroke="midnightblue" points="34,-46.08 37.5,-56.08 41,-46.08 34,-46.08"/>
</g>
<!-- Node13&#45;&gt;Node12 -->
<g id="edge13" class="edge">
<title>Node13&#45;&gt;Node12</title>
<path fill="none" stroke="midnightblue" d="M825.78,-50.9C809.83,-41 789,-28.07 775.44,-19.65"/>
<polygon fill="midnightblue" stroke="midnightblue" points="824.18,-54.02 834.52,-56.32 827.87,-48.08 824.18,-54.02"/>
</g>
<!-- Node15 -->
<g id="node15" class="node">
<title>Node15</title>
<g id="a_node15"><a xlink:href="_h_o_s_waves_8cpp.html" target="_top" xlink:title=" ">
<polygon fill="white" stroke="black" points="460.5,-0.5 460.5,-19.5 550.5,-19.5 550.5,-0.5 460.5,-0.5"/>
<text text-anchor="middle" x="505.5" y="-7.5" font-family="Helvetica,sans-Serif" font-size="10.00">HOSWaves.cpp</text>
</a>
</g>
</g>
<!-- Node14&#45;&gt;Node15 -->
<g id="edge15" class="edge">
<title>Node14&#45;&gt;Node15</title>
<path fill="none" stroke="midnightblue" d="M505.5,-45.8C505.5,-36.91 505.5,-26.78 505.5,-19.75"/>
<polygon fill="midnightblue" stroke="midnightblue" points="502,-46.08 505.5,-56.08 509,-46.08 502,-46.08"/>
</g>
<!-- Node17&#45;&gt;Node13 -->
<g id="edge18" class="edge">
<title>Node17&#45;&gt;Node13</title>
<path fill="none" stroke="midnightblue" d="M750.89,-108.5C774.7,-98.38 807.61,-84.39 828.47,-75.52"/>
<polygon fill="midnightblue" stroke="midnightblue" points="749.46,-105.31 741.62,-112.44 752.2,-111.75 749.46,-105.31"/>
</g>
</g>
</svg>
        <g id="navigator" transform="translate(0 0)" fill="#404254">
                <rect fill="#f2f5e9" fill-opacity="0.5" stroke="#606060" stroke-width=".5" x="0" y="0" width="60" height="60"/>
                <use id="zoomplus" xlink:href="#zoomPlus" x="17" y="9" onmousedown="handleZoom(evt,'in')"/>
                <use id="zoomminus" xlink:href="#zoomMin" x="42" y="9" onmousedown="handleZoom(evt,'out')"/>
                <use id="reset" xlink:href="#resetDef" x="30" y="36" onmousedown="handleReset()"/>
                <g id="arrowUp" xlink:href="#dirArrow" transform="translate(30 24)" onmousedown="handlePan(0,-1)">
                  <use xlink:href="#rim" fill="#404040">
                        <set attributeName="fill" to="#808080" begin="arrowUp.mouseover" end="arrowUp.mouseout"/>
                  </use>
                  <path fill="none" stroke="white" stroke-width="1.5" d="M0,-3.0v7 M-2.5,-0.5L0,-3.0L2.5,-0.5"/>
                </g>
                <g id="arrowRight" xlink:href="#dirArrow" transform="rotate(90) translate(36 -43)" onmousedown="handlePan(1,0)">
                  <use xlink:href="#rim" fill="#404040">
                        <set attributeName="fill" to="#808080" begin="arrowRight.mouseover" end="arrowRight.mouseout"/>
                  </use>
                  <path fill="none" stroke="white" stroke-width="1.5" d="M0,-3.0v7 M-2.5,-0.5L0,-3.0L2.5,-0.5"/>
                </g>
                <g id="arrowDown" xlink:href="#dirArrow" transform="rotate(180) translate(-30 -48)" onmousedown="handlePan(0,1)">
                  <use xlink:href="#rim" fill="#404040">
                        <set attributeName="fill" to="#808080" begin="arrowDown.mouseover" end="arrowDown.mouseout"/>
                  </use>
                  <path fill="none" stroke="white" stroke-width="1.5" d="M0,-3.0v7 M-2.5,-0.5L0,-3.0L2.5,-0.5"/>
                </g>
                <g id="arrowLeft" xlink:href="#dirArrow" transform="rotate(270) translate(-36 17)" onmousedown="handlePan(-1,0)">
                  <use xlink:href="#rim" fill="#404040">
                        <set attributeName="fill" to="#808080" begin="arrowLeft.mouseover" end="arrowLeft.mouseout"/>
                  </use>
                  <path fill="none" stroke="white" stroke-width="1.5" d="M0,-3.0v7 M-2.5,-0.5L0,-3.0L2.5,-0.5"/>
                </g>
        </g>
        <svg viewBox="0 0 15 15" width="100%" height="30px" preserveAspectRatio="xMaxYMin meet">
         <g id="arrow_out" transform="scale(0.3 0.3)">
          <a xlink:href="_b_c_interface_8_h__dep__incl_org.svg" target="_base">
           <rect id="button" ry="5" rx="5" y="6" x="6" height="38" width="38"
                fill="#f2f5e9" fill-opacity="0.5" stroke="#606060" stroke-width="1.0"/>
           <path id="arrow"
             d="M 11.500037,31.436501 C 11.940474,20.09759 22.043105,11.32322 32.158766,21.979434 L 37.068811,17.246167 C 37.068811,17.246167 37.088388,32 37.088388,32 L 22.160133,31.978069 C 22.160133,31.978069 26.997745,27.140456 26.997745,27.140456 C 18.528582,18.264221 13.291696,25.230495 11.500037,31.436501 z"
             style="fill:#404040;"/>
          </a>
         </g>
        </svg>
</svg>
