<?xml version="1.0" encoding="UTF-8" standalone="no"?>
<!DOCTYPE svg PUBLIC "-//W3C//DTD SVG 1.1//EN"
 "http://www.w3.org/Graphics/SVG/1.1/DTD/svg11.dtd">
<!-- Generated by graphviz version 2.43.0 (0)
 -->
<!-- Title: CFDSim.H Pages: 1 -->
<!--zoomable 274 -->
<svg id="main" version="1.1" xmlns="http://www.w3.org/2000/svg" xmlns:xlink="http://www.w3.org/1999/xlink" xml:space="preserve" onload="init(evt)">
<style type="text/css"><![CDATA[
.edge:hover path { stroke: red; }
.edge:hover polygon { stroke: red; fill: red; }
]]></style>
<script type="text/javascript"><![CDATA[
var edges = document.getElementsByTagName('g');
if (edges && edges.length) {
  for (var i=0;i<edges.length;i++) {
    if (edges[i].id.substr(0,4)=='edge') {
      edges[i].setAttribute('class','edge');
    }
  }
}
]]></script>
        <defs>
                <circle id="rim" cx="0" cy="0" r="7"/>
                <circle id="rim2" cx="0" cy="0" r="3.5"/>
                <g id="zoomPlus">
                        <use xlink:href="#rim" fill="#404040">
                                <set attributeName="fill" to="#808080" begin="zoomplus.mouseover" end="zoomplus.mouseout"/>
                        </use>
                        <path d="M-4,0h8M0,-4v8" fill="none" stroke="white" stroke-width="1.5" pointer-events="none"/>
                </g>
                <g id="zoomMin">
                        <use xlink:href="#rim" fill="#404040">
                                <set attributeName="fill" to="#808080" begin="zoomminus.mouseover" end="zoomminus.mouseout"/>
                        </use>
                        <path d="M-4,0h8" fill="none" stroke="white" stroke-width="1.5" pointer-events="none"/>
                </g>
                <g id="dirArrow">
                        <path fill="none" stroke="white" stroke-width="1.5" d="M0,-3.0v7 M-2.5,-0.5L0,-3.0L2.5,-0.5"/>
                </g>
               <g id="resetDef">
                       <use xlink:href="#rim2" fill="#404040">
                               <set attributeName="fill" to="#808080" begin="reset.mouseover" end="reset.mouseout"/>
                       </use>
               </g>
        </defs>

<script type="text/javascript">
var viewWidth = 2827;
var viewHeight = 274;
var sectionId = 'dynsection-0';
</script>
<script xlink:href="svgpan.js"/>
<svg id="graph" class="graph">
<g id="viewport">
<title>CFDSim.H</title>
<polygon fill="white" stroke="transparent" points="-4,4 -4,-270 2823.14,-270 2823.14,4 -4,4"/>
<!-- Node1 -->
<g id="node1" class="node">
<title>Node1</title>
<g id="a_node1"><a xlink:title=" ">
<polygon fill="#bfbfbf" stroke="black" points="829,-246.5 829,-265.5 895,-265.5 895,-246.5 829,-246.5"/>
<text text-anchor="middle" x="862" y="-253.5" font-family="Helvetica,sans-Serif" font-size="10.00">CFDSim.H</text>
</a>
</g>
</g>
<!-- Node2 -->
<g id="node2" class="node">
<title>Node2</title>
<g id="a_node2"><a xlink:title=" ">
<polygon fill="white" stroke="#bfbfbf" points="331,-118 331,-137 441,-137 441,-118 331,-118"/>
<text text-anchor="middle" x="386" y="-125" font-family="Helvetica,sans-Serif" font-size="10.00">AMReX_AmrCore.H</text>
</a>
</g>
</g>
<!-- Node1&#45;&gt;Node2 -->
<g id="edge1" class="edge">
<title>Node1&#45;&gt;Node2</title>
<path fill="none" stroke="midnightblue" d="M843.4,-246.39C808.94,-230.75 732.5,-197.61 665,-179 573.71,-153.83 548.02,-160.74 455,-143 448.69,-141.8 442.06,-140.48 435.52,-139.14"/>
<polygon fill="midnightblue" stroke="midnightblue" points="435.86,-135.63 425.36,-137.04 434.44,-142.49 435.86,-135.63"/>
</g>
<!-- Node3 -->
<g id="node3" class="node">
<title>Node3</title>
<g id="a_node3"><a xlink:href="_sim_time_8_h.html" target="_top" xlink:title=" ">
<polygon fill="white" stroke="black" points="169,-118 169,-137 313,-137 313,-118 169,-118"/>
<text text-anchor="middle" x="241" y="-125" font-family="Helvetica,sans-Serif" font-size="10.00">amr&#45;wind/core/SimTime.H</text>
</a>
</g>
</g>
<!-- Node1&#45;&gt;Node3 -->
<g id="edge2" class="edge">
<title>Node1&#45;&gt;Node3</title>
<path fill="none" stroke="midnightblue" d="M828.6,-251.69C770.13,-245.59 645.6,-231.22 542,-210 445.64,-190.26 334.44,-157.49 278,-140.12"/>
<polygon fill="midnightblue" stroke="midnightblue" points="278.71,-136.68 268.12,-137.07 276.64,-143.37 278.71,-136.68"/>
</g>
<!-- Node7 -->
<g id="node7" class="node">
<title>Node7</title>
<g id="a_node7"><a xlink:href="_field_repo_8_h.html" target="_top" xlink:title=" ">
<polygon fill="white" stroke="black" points="902.5,-185 902.5,-204 1051.5,-204 1051.5,-185 902.5,-185"/>
<text text-anchor="middle" x="977" y="-192" font-family="Helvetica,sans-Serif" font-size="10.00">amr&#45;wind/core/FieldRepo.H</text>
</a>
</g>
</g>
<!-- Node1&#45;&gt;Node7 -->
<g id="edge6" class="edge">
<title>Node1&#45;&gt;Node7</title>
<path fill="none" stroke="midnightblue" d="M878.48,-246.48C897.61,-236.58 929.37,-220.14 951.65,-208.62"/>
<polygon fill="midnightblue" stroke="midnightblue" points="953.28,-211.71 960.55,-204.01 950.06,-205.5 953.28,-211.71"/>
</g>
<!-- Node28 -->
<g id="node28" class="node">
<title>Node28</title>
<g id="a_node28"><a xlink:href="_p_d_e_base_8_h.html" target="_top" xlink:title=" ">
<polygon fill="white" stroke="black" points="1578.5,-179.5 1578.5,-209.5 1733.5,-209.5 1733.5,-179.5 1578.5,-179.5"/>
<text text-anchor="start" x="1586.5" y="-197.5" font-family="Helvetica,sans-Serif" font-size="10.00">amr&#45;wind/equation_systems</text>
<text text-anchor="middle" x="1656" y="-186.5" font-family="Helvetica,sans-Serif" font-size="10.00">/PDEBase.H</text>
</a>
</g>
</g>
<!-- Node1&#45;&gt;Node28 -->
<g id="edge52" class="edge">
<title>Node1&#45;&gt;Node28</title>
<path fill="none" stroke="midnightblue" d="M895.11,-252.52C1009.92,-243.91 1393.5,-215.17 1568.1,-202.09"/>
<polygon fill="midnightblue" stroke="midnightblue" points="1568.57,-205.56 1578.28,-201.32 1568.05,-198.58 1568.57,-205.56"/>
</g>
<!-- Node36 -->
<g id="node36" class="node">
<title>Node36</title>
<g id="a_node36"><a xlink:href="_physics_8_h.html" target="_top" xlink:title=" ">
<polygon fill="white" stroke="black" points="2509.5,-185 2509.5,-204 2646.5,-204 2646.5,-185 2509.5,-185"/>
<text text-anchor="middle" x="2578" y="-192" font-family="Helvetica,sans-Serif" font-size="10.00">amr&#45;wind/core/Physics.H</text>
</a>
</g>
</g>
<!-- Node1&#45;&gt;Node36 -->
<g id="edge69" class="edge">
<title>Node1&#45;&gt;Node36</title>
<path fill="none" stroke="midnightblue" d="M895.15,-254.66C1096.74,-252.47 2160.26,-239.7 2485,-210 2496.58,-208.94 2508.91,-207.35 2520.67,-205.61"/>
<polygon fill="midnightblue" stroke="midnightblue" points="2521.48,-209.02 2530.83,-204.04 2520.42,-202.1 2521.48,-209.02"/>
</g>
<!-- Node38 -->
<g id="node38" class="node">
<title>Node38</title>
<g id="a_node38"><a xlink:href="_mesh_map_8_h.html" target="_top" xlink:title=" ">
<polygon fill="white" stroke="black" points="2328,-185 2328,-204 2476,-204 2476,-185 2328,-185"/>
<text text-anchor="middle" x="2402" y="-192" font-family="Helvetica,sans-Serif" font-size="10.00">amr&#45;wind/core/MeshMap.H</text>
</a>
</g>
</g>
<!-- Node1&#45;&gt;Node38 -->
<g id="edge74" class="edge">
<title>Node1&#45;&gt;Node38</title>
<path fill="none" stroke="midnightblue" d="M895.24,-253.72C1084.57,-246.4 2028.67,-209.92 2317.74,-198.76"/>
<polygon fill="midnightblue" stroke="midnightblue" points="2317.89,-202.25 2327.75,-198.37 2317.62,-195.26 2317.89,-202.25"/>
</g>
<!-- Node39 -->
<g id="node39" class="node">
<title>Node39</title>
<g id="a_node39"><a xlink:href="helics_8_h.html" target="_top" xlink:title=" ">
<polygon fill="white" stroke="black" points="550.5,-185 550.5,-204 655.5,-204 655.5,-185 550.5,-185"/>
<text text-anchor="middle" x="603" y="-192" font-family="Helvetica,sans-Serif" font-size="10.00">amr&#45;wind/helics.H</text>
</a>
</g>
</g>
<!-- Node1&#45;&gt;Node39 -->
<g id="edge80" class="edge">
<title>Node1&#45;&gt;Node39</title>
<path fill="none" stroke="midnightblue" d="M828.86,-248.41C781.92,-238.25 696.4,-218.68 645.06,-206.39"/>
<polygon fill="midnightblue" stroke="midnightblue" points="645.81,-202.97 635.27,-204.04 644.17,-209.78 645.81,-202.97"/>
</g>
<!-- Node4 -->
<g id="node4" class="node">
<title>Node4</title>
<g id="a_node4"><a xlink:title=" ">
<polygon fill="white" stroke="#bfbfbf" points="0,-56.5 0,-75.5 92,-75.5 92,-56.5 0,-56.5"/>
<text text-anchor="middle" x="46" y="-63.5" font-family="Helvetica,sans-Serif" font-size="10.00">AMReX_REAL.H</text>
</a>
</g>
</g>
<!-- Node3&#45;&gt;Node4 -->
<g id="edge3" class="edge">
<title>Node3&#45;&gt;Node4</title>
<path fill="none" stroke="midnightblue" d="M213.06,-117.98C179.03,-107.59 121.42,-90.01 83.54,-78.45"/>
<polygon fill="midnightblue" stroke="midnightblue" points="84.47,-75.08 73.89,-75.51 82.43,-81.78 84.47,-75.08"/>
</g>
<!-- Node5 -->
<g id="node5" class="node">
<title>Node5</title>
<g id="a_node5"><a xlink:title=" ">
<polygon fill="white" stroke="#bfbfbf" points="110,-56.5 110,-75.5 244,-75.5 244,-56.5 110,-56.5"/>
<text text-anchor="middle" x="177" y="-63.5" font-family="Helvetica,sans-Serif" font-size="10.00">AMReX_GpuQualifiers.H</text>
</a>
</g>
</g>
<!-- Node3&#45;&gt;Node5 -->
<g id="edge4" class="edge">
<title>Node3&#45;&gt;Node5</title>
<path fill="none" stroke="midnightblue" d="M231.83,-117.98C221.85,-108.7 205.69,-93.67 193.49,-82.33"/>
<polygon fill="midnightblue" stroke="midnightblue" points="195.86,-79.75 186.15,-75.51 191.09,-84.88 195.86,-79.75"/>
</g>
<!-- Node6 -->
<g id="node6" class="node">
<title>Node6</title>
<g id="a_node6"><a xlink:title=" ">
<polygon fill="white" stroke="#bfbfbf" points="262,-56.5 262,-75.5 378,-75.5 378,-56.5 262,-56.5"/>
<text text-anchor="middle" x="320" y="-63.5" font-family="Helvetica,sans-Serif" font-size="10.00">AMReX_Extension.H</text>
</a>
</g>
</g>
<!-- Node3&#45;&gt;Node6 -->
<g id="edge5" class="edge">
<title>Node3&#45;&gt;Node6</title>
<path fill="none" stroke="midnightblue" d="M252.32,-117.98C264.87,-108.52 285.35,-93.1 300.5,-81.69"/>
<polygon fill="midnightblue" stroke="midnightblue" points="302.82,-84.32 308.7,-75.51 298.61,-78.73 302.82,-84.32"/>
</g>
<!-- Node7&#45;&gt;Node2 -->
<g id="edge49" class="edge">
<title>Node7&#45;&gt;Node2</title>
<path fill="none" stroke="midnightblue" d="M902.44,-186.39C760.82,-172.88 465.93,-144.67 455,-143 447.76,-141.89 440.14,-140.51 432.71,-139.04"/>
<polygon fill="midnightblue" stroke="midnightblue" points="433.24,-135.58 422.75,-137.01 431.84,-142.44 433.24,-135.58"/>
</g>
<!-- Node8 -->
<g id="node8" class="node">
<title>Node8</title>
<g id="a_node8"><a xlink:title=" ">
<polygon fill="white" stroke="#bfbfbf" points="961,-0.5 961,-19.5 1005,-19.5 1005,-0.5 961,-0.5"/>
<text text-anchor="middle" x="983" y="-7.5" font-family="Helvetica,sans-Serif" font-size="10.00">string</text>
</a>
</g>
</g>
<!-- Node7&#45;&gt;Node8 -->
<g id="edge7" class="edge">
<title>Node7&#45;&gt;Node8</title>
<path fill="none" stroke="midnightblue" d="M902.25,-189.77C773.86,-182.77 522,-166.27 489,-143 455.33,-119.26 429.14,-86.35 457,-56 490.44,-19.57 841.32,-12.58 950.66,-11.29"/>
<polygon fill="midnightblue" stroke="midnightblue" points="950.79,-14.78 960.75,-11.17 950.72,-7.78 950.79,-14.78"/>
</g>
<!-- Node9 -->
<g id="node9" class="node">
<title>Node9</title>
<g id="a_node9"><a xlink:title=" ">
<polygon fill="white" stroke="#bfbfbf" points="2246.5,-56.5 2246.5,-75.5 2339.5,-75.5 2339.5,-56.5 2246.5,-56.5"/>
<text text-anchor="middle" x="2293" y="-63.5" font-family="Helvetica,sans-Serif" font-size="10.00">unordered_map</text>
</a>
</g>
</g>
<!-- Node7&#45;&gt;Node9 -->
<g id="edge8" class="edge">
<title>Node7&#45;&gt;Node9</title>
<path fill="none" stroke="midnightblue" d="M1051.83,-191.36C1283.59,-184.55 1979.9,-162.69 2080,-143 2148.9,-129.45 2225.49,-97.74 2265.39,-79.86"/>
<polygon fill="midnightblue" stroke="midnightblue" points="2267.06,-82.94 2274.72,-75.63 2264.17,-76.57 2267.06,-82.94"/>
</g>
<!-- Node10 -->
<g id="node10" class="node">
<title>Node10</title>
<g id="a_node10"><a xlink:href="_field_desc_types_8_h.html" target="_top" xlink:title=" ">
<polygon fill="white" stroke="black" points="1172,-0.5 1172,-19.5 1348,-19.5 1348,-0.5 1172,-0.5"/>
<text text-anchor="middle" x="1260" y="-7.5" font-family="Helvetica,sans-Serif" font-size="10.00">amr&#45;wind/core/FieldDescTypes.H</text>
</a>
</g>
</g>
<!-- Node7&#45;&gt;Node10 -->
<g id="edge9" class="edge">
<title>Node7&#45;&gt;Node10</title>
<path fill="none" stroke="midnightblue" d="M1011.81,-184.98C1064.21,-170.57 1163.83,-136.86 1226,-76 1239.34,-62.94 1248.56,-43.51 1253.99,-29.3"/>
<polygon fill="midnightblue" stroke="midnightblue" points="1257.37,-30.24 1257.42,-19.64 1250.78,-27.9 1257.37,-30.24"/>
</g>
<!-- Node11 -->
<g id="node11" class="node">
<title>Node11</title>
<g id="a_node11"><a xlink:href="_field_utils_8_h.html" target="_top" xlink:title=" ">
<polygon fill="white" stroke="black" points="1361,-56.5 1361,-75.5 1507,-75.5 1507,-56.5 1361,-56.5"/>
<text text-anchor="middle" x="1434" y="-63.5" font-family="Helvetica,sans-Serif" font-size="10.00">amr&#45;wind/core/FieldUtils.H</text>
</a>
</g>
</g>
<!-- Node7&#45;&gt;Node11 -->
<g id="edge10" class="edge">
<title>Node7&#45;&gt;Node11</title>
<path fill="none" stroke="midnightblue" d="M1034.59,-184.96C1086.9,-176.54 1165.92,-162.15 1233,-143 1295.73,-125.09 1366.55,-96.18 1405.14,-79.66"/>
<polygon fill="midnightblue" stroke="midnightblue" points="1406.88,-82.72 1414.68,-75.55 1404.11,-76.29 1406.88,-82.72"/>
</g>
<!-- Node12 -->
<g id="node12" class="node">
<title>Node12</title>
<g id="a_node12"><a xlink:title=" ">
<polygon fill="white" stroke="#bfbfbf" points="1518.5,-0.5 1518.5,-19.5 1627.5,-19.5 1627.5,-0.5 1518.5,-0.5"/>
<text text-anchor="middle" x="1573" y="-7.5" font-family="Helvetica,sans-Serif" font-size="10.00">AMReX_MultiFab.H</text>
</a>
</g>
</g>
<!-- Node7&#45;&gt;Node12 -->
<g id="edge50" class="edge">
<title>Node7&#45;&gt;Node12</title>
<path fill="none" stroke="midnightblue" d="M1051.68,-186.64C1187.56,-172.78 1468.07,-137.43 1542,-76 1556.25,-64.16 1564.39,-44.24 1568.72,-29.57"/>
<polygon fill="midnightblue" stroke="midnightblue" points="1572.19,-30.15 1571.33,-19.59 1565.41,-28.38 1572.19,-30.15"/>
</g>
<!-- Node14 -->
<g id="node14" class="node">
<title>Node14</title>
<g id="a_node14"><a xlink:href="_field_8_h.html" target="_top" xlink:title=" ">
<polygon fill="white" stroke="black" points="1947,-118 1947,-137 2071,-137 2071,-118 1947,-118"/>
<text text-anchor="middle" x="2009" y="-125" font-family="Helvetica,sans-Serif" font-size="10.00">amr&#45;wind/core/Field.H</text>
</a>
</g>
</g>
<!-- Node7&#45;&gt;Node14 -->
<g id="edge14" class="edge">
<title>Node7&#45;&gt;Node14</title>
<path fill="none" stroke="midnightblue" d="M1051.63,-188.8C1242.81,-176.76 1748.27,-144.92 1936.78,-133.05"/>
<polygon fill="midnightblue" stroke="midnightblue" points="1937.09,-136.54 1946.85,-132.41 1936.65,-129.55 1937.09,-136.54"/>
</g>
<!-- Node22 -->
<g id="node22" class="node">
<title>Node22</title>
<g id="a_node22"><a xlink:href="_int_field_8_h.html" target="_top" xlink:title=" ">
<polygon fill="white" stroke="black" points="497.5,-118 497.5,-137 634.5,-137 634.5,-118 497.5,-118"/>
<text text-anchor="middle" x="566" y="-125" font-family="Helvetica,sans-Serif" font-size="10.00">amr&#45;wind/core/IntField.H</text>
</a>
</g>
</g>
<!-- Node7&#45;&gt;Node22 -->
<g id="edge29" class="edge">
<title>Node7&#45;&gt;Node22</title>
<path fill="none" stroke="midnightblue" d="M922.85,-184.94C847.28,-172.98 710.45,-151.34 629.96,-138.61"/>
<polygon fill="midnightblue" stroke="midnightblue" points="630.37,-135.14 619.95,-137.03 629.28,-142.05 630.37,-135.14"/>
</g>
<!-- Node23 -->
<g id="node23" class="node">
<title>Node23</title>
<g id="a_node23"><a xlink:title=" ">
<polygon fill="white" stroke="#bfbfbf" points="510,-56.5 510,-75.5 622,-75.5 622,-56.5 510,-56.5"/>
<text text-anchor="middle" x="566" y="-63.5" font-family="Helvetica,sans-Serif" font-size="10.00">AMReX_iMultiFab.H</text>
</a>
</g>
</g>
<!-- Node7&#45;&gt;Node23 -->
<g id="edge51" class="edge">
<title>Node7&#45;&gt;Node23</title>
<path fill="none" stroke="midnightblue" d="M913.23,-184.97C862.04,-177.1 788.78,-163.49 727,-143 676.44,-126.23 620.98,-97.6 590.14,-80.67"/>
<polygon fill="midnightblue" stroke="midnightblue" points="591.47,-77.41 581.03,-75.62 588.08,-83.53 591.47,-77.41"/>
</g>
<!-- Node24 -->
<g id="node24" class="node">
<title>Node24</title>
<g id="a_node24"><a xlink:href="_scratch_field_8_h.html" target="_top" xlink:title=" ">
<polygon fill="white" stroke="black" points="922,-118 922,-137 1082,-137 1082,-118 922,-118"/>
<text text-anchor="middle" x="1002" y="-125" font-family="Helvetica,sans-Serif" font-size="10.00">amr&#45;wind/core/ScratchField.H</text>
</a>
</g>
</g>
<!-- Node7&#45;&gt;Node24 -->
<g id="edge33" class="edge">
<title>Node7&#45;&gt;Node24</title>
<path fill="none" stroke="midnightblue" d="M980.37,-184.73C984.12,-174.99 990.28,-158.98 995.06,-146.53"/>
<polygon fill="midnightblue" stroke="midnightblue" points="998.36,-147.72 998.68,-137.13 991.83,-145.2 998.36,-147.72"/>
</g>
<!-- Node27 -->
<g id="node27" class="node">
<title>Node27</title>
<g id="a_node27"><a xlink:href="_int_scratch_field_8_h.html" target="_top" xlink:title=" ">
<polygon fill="white" stroke="black" points="735.5,-112.5 735.5,-142.5 874.5,-142.5 874.5,-112.5 735.5,-112.5"/>
<text text-anchor="start" x="743.5" y="-130.5" font-family="Helvetica,sans-Serif" font-size="10.00">amr&#45;wind/core/IntScratch</text>
<text text-anchor="middle" x="805" y="-119.5" font-family="Helvetica,sans-Serif" font-size="10.00">Field.H</text>
</a>
</g>
</g>
<!-- Node7&#45;&gt;Node27 -->
<g id="edge41" class="edge">
<title>Node7&#45;&gt;Node27</title>
<path fill="none" stroke="midnightblue" d="M954.16,-184.87C928.13,-175.03 884.89,-158.69 851.65,-146.13"/>
<polygon fill="midnightblue" stroke="midnightblue" points="852.71,-142.79 842.12,-142.53 850.24,-149.34 852.71,-142.79"/>
</g>
<!-- Node11&#45;&gt;Node10 -->
<g id="edge11" class="edge">
<title>Node11&#45;&gt;Node10</title>
<path fill="none" stroke="midnightblue" d="M1406.43,-56.44C1376.9,-47.28 1329.88,-32.69 1297.12,-22.52"/>
<polygon fill="midnightblue" stroke="midnightblue" points="1298.03,-19.14 1287.44,-19.52 1295.96,-25.82 1298.03,-19.14"/>
</g>
<!-- Node11&#45;&gt;Node12 -->
<g id="edge12" class="edge">
<title>Node11&#45;&gt;Node12</title>
<path fill="none" stroke="midnightblue" d="M1456.02,-56.44C1479.1,-47.48 1515.56,-33.31 1541.64,-23.18"/>
<polygon fill="midnightblue" stroke="midnightblue" points="1543.02,-26.4 1551.08,-19.52 1540.49,-19.88 1543.02,-26.4"/>
</g>
<!-- Node13 -->
<g id="node13" class="node">
<title>Node13</title>
<g id="a_node13"><a xlink:title=" ">
<polygon fill="white" stroke="#bfbfbf" points="1372,-0.5 1372,-19.5 1496,-19.5 1496,-0.5 1372,-0.5"/>
<text text-anchor="middle" x="1434" y="-7.5" font-family="Helvetica,sans-Serif" font-size="10.00">AMReX_Interpolater.H</text>
</a>
</g>
</g>
<!-- Node11&#45;&gt;Node13 -->
<g id="edge13" class="edge">
<title>Node11&#45;&gt;Node13</title>
<path fill="none" stroke="midnightblue" d="M1434,-56.08C1434,-49.01 1434,-38.86 1434,-29.99"/>
<polygon fill="midnightblue" stroke="midnightblue" points="1437.5,-29.75 1434,-19.75 1430.5,-29.75 1437.5,-29.75"/>
</g>
<!-- Node14&#45;&gt;Node8 -->
<g id="edge15" class="edge">
<title>Node14&#45;&gt;Node8</title>
<path fill="none" stroke="midnightblue" d="M1974.23,-117.92C1941.62,-109.29 1891.89,-94.61 1851,-76 1835.39,-68.9 1834.41,-60.99 1818,-56 1651.57,-5.35 1208.96,-38.6 1036,-20 1029.3,-19.28 1022.17,-18.25 1015.37,-17.14"/>
<polygon fill="midnightblue" stroke="midnightblue" points="1015.54,-13.62 1005.09,-15.37 1014.35,-20.52 1015.54,-13.62"/>
</g>
<!-- Node14&#45;&gt;Node9 -->
<g id="edge17" class="edge">
<title>Node14&#45;&gt;Node9</title>
<path fill="none" stroke="midnightblue" d="M2049.69,-117.98C2100.52,-107.33 2187.47,-89.11 2242.5,-77.58"/>
<polygon fill="midnightblue" stroke="midnightblue" points="2243.32,-80.99 2252.39,-75.51 2241.88,-74.13 2243.32,-80.99"/>
</g>
<!-- Node14&#45;&gt;Node10 -->
<g id="edge23" class="edge">
<title>Node14&#45;&gt;Node10</title>
<path fill="none" stroke="midnightblue" d="M1989.61,-117.98C1966.91,-107.98 1928.18,-90.89 1895,-76 1875.4,-67.21 1871.81,-61.32 1851,-56 1640.29,-2.17 1579.78,-37.47 1363,-20 1361.49,-19.88 1359.97,-19.75 1358.44,-19.63"/>
<polygon fill="midnightblue" stroke="midnightblue" points="1358.46,-16.12 1348.21,-18.79 1357.89,-23.1 1358.46,-16.12"/>
</g>
<!-- Node14&#45;&gt;Node12 -->
<g id="edge19" class="edge">
<title>Node14&#45;&gt;Node12</title>
<path fill="none" stroke="midnightblue" d="M2071.18,-122.94C2141.16,-116.75 2240.05,-100.11 2199,-56 2161.36,-15.55 1790.36,-10.95 1637.9,-10.78"/>
<polygon fill="midnightblue" stroke="midnightblue" points="1637.75,-7.28 1627.75,-10.78 1637.74,-14.28 1637.75,-7.28"/>
</g>
<!-- Node15 -->
<g id="node15" class="node">
<title>Node15</title>
<g id="a_node15"><a xlink:title=" ">
<polygon fill="white" stroke="#bfbfbf" points="2396,-56.5 2396,-75.5 2454,-75.5 2454,-56.5 2396,-56.5"/>
<text text-anchor="middle" x="2425" y="-63.5" font-family="Helvetica,sans-Serif" font-size="10.00">memory</text>
</a>
</g>
</g>
<!-- Node14&#45;&gt;Node15 -->
<g id="edge16" class="edge">
<title>Node14&#45;&gt;Node15</title>
<path fill="none" stroke="midnightblue" d="M2068.6,-117.98C2155.01,-105.62 2312.69,-83.06 2385.82,-72.6"/>
<polygon fill="midnightblue" stroke="midnightblue" points="2386.58,-76.03 2395.98,-71.15 2385.59,-69.1 2386.58,-76.03"/>
</g>
<!-- Node16 -->
<g id="node16" class="node">
<title>Node16</title>
<g id="a_node16"><a xlink:title=" ">
<polygon fill="white" stroke="#bfbfbf" points="2126,-56.5 2126,-75.5 2190,-75.5 2190,-56.5 2126,-56.5"/>
<text text-anchor="middle" x="2158" y="-63.5" font-family="Helvetica,sans-Serif" font-size="10.00">algorithm</text>
</a>
</g>
</g>
<!-- Node14&#45;&gt;Node16 -->
<g id="edge18" class="edge">
<title>Node14&#45;&gt;Node16</title>
<path fill="none" stroke="midnightblue" d="M2030.35,-117.98C2055.69,-107.86 2098.14,-90.9 2127.07,-79.35"/>
<polygon fill="midnightblue" stroke="midnightblue" points="2128.7,-82.47 2136.69,-75.51 2126.11,-75.97 2128.7,-82.47"/>
</g>
<!-- Node17 -->
<g id="node17" class="node">
<title>Node17</title>
<g id="a_node17"><a xlink:title=" ">
<polygon fill="white" stroke="#bfbfbf" points="1903.5,-56.5 1903.5,-75.5 2002.5,-75.5 2002.5,-56.5 1903.5,-56.5"/>
<text text-anchor="middle" x="1953" y="-63.5" font-family="Helvetica,sans-Serif" font-size="10.00">AMReX_BCRec.H</text>
</a>
</g>
</g>
<!-- Node14&#45;&gt;Node17 -->
<g id="edge20" class="edge">
<title>Node14&#45;&gt;Node17</title>
<path fill="none" stroke="midnightblue" d="M2000.98,-117.98C1992.41,-108.87 1978.64,-94.24 1968.04,-82.98"/>
<polygon fill="midnightblue" stroke="midnightblue" points="1970.41,-80.39 1961.01,-75.51 1965.31,-85.19 1970.41,-80.39"/>
</g>
<!-- Node18 -->
<g id="node18" class="node">
<title>Node18</title>
<g id="a_node18"><a xlink:title=" ">
<polygon fill="white" stroke="#bfbfbf" points="2020.5,-56.5 2020.5,-75.5 2107.5,-75.5 2107.5,-56.5 2020.5,-56.5"/>
<text text-anchor="middle" x="2064" y="-63.5" font-family="Helvetica,sans-Serif" font-size="10.00">AMReX_Gpu.H</text>
</a>
</g>
</g>
<!-- Node14&#45;&gt;Node18 -->
<g id="edge21" class="edge">
<title>Node14&#45;&gt;Node18</title>
<path fill="none" stroke="midnightblue" d="M2016.88,-117.98C2025.29,-108.87 2038.82,-94.24 2049.23,-82.98"/>
<polygon fill="midnightblue" stroke="midnightblue" points="2051.92,-85.23 2056.13,-75.51 2046.78,-80.48 2051.92,-85.23"/>
</g>
<!-- Node19 -->
<g id="node19" class="node">
<title>Node19</title>
<g id="a_node19"><a xlink:href="incflo__enums_8_h.html" target="_top" xlink:title=" ">
<polygon fill="white" stroke="black" points="1667.5,-56.5 1667.5,-75.5 1808.5,-75.5 1808.5,-56.5 1667.5,-56.5"/>
<text text-anchor="middle" x="1738" y="-63.5" font-family="Helvetica,sans-Serif" font-size="10.00">amr&#45;wind/incflo_enums.H</text>
</a>
</g>
</g>
<!-- Node14&#45;&gt;Node19 -->
<g id="edge22" class="edge">
<title>Node14&#45;&gt;Node19</title>
<path fill="none" stroke="midnightblue" d="M1970.17,-117.98C1921.88,-107.37 1839.39,-89.26 1786.85,-77.72"/>
<polygon fill="midnightblue" stroke="midnightblue" points="1787.27,-74.24 1776.76,-75.51 1785.77,-81.07 1787.27,-74.24"/>
</g>
<!-- Node20 -->
<g id="node20" class="node">
<title>Node20</title>
<g id="a_node20"><a xlink:href="_view_field_8_h.html" target="_top" xlink:title=" ">
<polygon fill="white" stroke="black" points="1043,-56.5 1043,-75.5 1191,-75.5 1191,-56.5 1043,-56.5"/>
<text text-anchor="middle" x="1117" y="-63.5" font-family="Helvetica,sans-Serif" font-size="10.00">amr&#45;wind/core/ViewField.H</text>
</a>
</g>
</g>
<!-- Node14&#45;&gt;Node20 -->
<g id="edge24" class="edge">
<title>Node14&#45;&gt;Node20</title>
<path fill="none" stroke="midnightblue" d="M1946.98,-122.36C1790.5,-111.93 1379.46,-84.51 1201.33,-72.63"/>
<polygon fill="midnightblue" stroke="midnightblue" points="1201.43,-69.12 1191.22,-71.95 1200.97,-76.11 1201.43,-69.12"/>
</g>
<!-- Node20&#45;&gt;Node8 -->
<g id="edge25" class="edge">
<title>Node20&#45;&gt;Node8</title>
<path fill="none" stroke="midnightblue" d="M1095.77,-56.44C1073.62,-47.52 1038.68,-33.44 1013.56,-23.32"/>
<polygon fill="midnightblue" stroke="midnightblue" points="1014.72,-20.01 1004.13,-19.52 1012.1,-26.5 1014.72,-20.01"/>
</g>
<!-- Node20&#45;&gt;Node10 -->
<g id="edge26" class="edge">
<title>Node20&#45;&gt;Node10</title>
<path fill="none" stroke="midnightblue" d="M1139.66,-56.44C1163.4,-47.48 1200.91,-33.31 1227.74,-23.18"/>
<polygon fill="midnightblue" stroke="midnightblue" points="1229.33,-26.32 1237.45,-19.52 1226.86,-19.77 1229.33,-26.32"/>
</g>
<!-- Node20&#45;&gt;Node12 -->
<g id="edge27" class="edge">
<title>Node20&#45;&gt;Node12</title>
<path fill="none" stroke="midnightblue" d="M1191.06,-56.77C1269.17,-48.01 1395.81,-33.56 1505,-20 1506.09,-19.86 1507.2,-19.73 1508.31,-19.59"/>
<polygon fill="midnightblue" stroke="midnightblue" points="1508.97,-23.03 1518.45,-18.3 1508.09,-16.09 1508.97,-23.03"/>
</g>
<!-- Node21 -->
<g id="node21" class="node">
<title>Node21</title>
<g id="a_node21"><a xlink:title=" ">
<polygon fill="white" stroke="#bfbfbf" points="1045,-0.5 1045,-19.5 1143,-19.5 1143,-0.5 1045,-0.5"/>
<text text-anchor="middle" x="1094" y="-7.5" font-family="Helvetica,sans-Serif" font-size="10.00">AMReX_Vector.H</text>
</a>
</g>
</g>
<!-- Node20&#45;&gt;Node21 -->
<g id="edge28" class="edge">
<title>Node20&#45;&gt;Node21</title>
<path fill="none" stroke="midnightblue" d="M1113.2,-56.08C1110.09,-48.77 1105.58,-38.18 1101.71,-29.1"/>
<polygon fill="midnightblue" stroke="midnightblue" points="1104.87,-27.58 1097.73,-19.75 1098.43,-30.32 1104.87,-27.58"/>
</g>
<!-- Node22&#45;&gt;Node8 -->
<g id="edge30" class="edge">
<title>Node22&#45;&gt;Node8</title>
<path fill="none" stroke="midnightblue" d="M535.33,-117.91C498.11,-106.06 443.22,-83.04 468,-56 500.65,-20.38 842.81,-12.84 950.64,-11.35"/>
<polygon fill="midnightblue" stroke="midnightblue" points="950.95,-14.85 960.9,-11.22 950.86,-7.85 950.95,-14.85"/>
</g>
<!-- Node22&#45;&gt;Node10 -->
<g id="edge31" class="edge">
<title>Node22&#45;&gt;Node10</title>
<path fill="none" stroke="midnightblue" d="M548.05,-117.97C522.27,-104.65 480.06,-78.13 501,-56 525.9,-29.69 1115.86,-22.5 1152,-20 1155.24,-19.78 1158.53,-19.54 1161.85,-19.3"/>
<polygon fill="midnightblue" stroke="midnightblue" points="1162.19,-22.78 1171.9,-18.55 1161.67,-15.8 1162.19,-22.78"/>
</g>
<!-- Node22&#45;&gt;Node23 -->
<g id="edge32" class="edge">
<title>Node22&#45;&gt;Node23</title>
<path fill="none" stroke="midnightblue" d="M566,-117.98C566,-109.58 566,-96.48 566,-85.66"/>
<polygon fill="midnightblue" stroke="midnightblue" points="569.5,-85.51 566,-75.51 562.5,-85.51 569.5,-85.51"/>
</g>
<!-- Node24&#45;&gt;Node8 -->
<g id="edge34" class="edge">
<title>Node24&#45;&gt;Node8</title>
<path fill="none" stroke="midnightblue" d="M1000.57,-117.82C997.52,-99.26 990.29,-55.34 986.12,-29.97"/>
<polygon fill="midnightblue" stroke="midnightblue" points="989.52,-29.08 984.44,-19.78 982.61,-30.22 989.52,-29.08"/>
</g>
<!-- Node24&#45;&gt;Node10 -->
<g id="edge36" class="edge">
<title>Node24&#45;&gt;Node10</title>
<path fill="none" stroke="midnightblue" d="M1075.97,-117.95C1114.96,-110.97 1162.37,-98.43 1200,-76 1220.32,-63.89 1237.91,-42.82 1248.7,-27.96"/>
<polygon fill="midnightblue" stroke="midnightblue" points="1251.65,-29.85 1254.5,-19.64 1245.91,-25.84 1251.65,-29.85"/>
</g>
<!-- Node24&#45;&gt;Node12 -->
<g id="edge38" class="edge">
<title>Node24&#45;&gt;Node12</title>
<path fill="none" stroke="midnightblue" d="M1082.16,-125.73C1207.28,-123.36 1442.32,-113.84 1516,-76 1536.79,-65.33 1553.37,-43.59 1563.18,-28.2"/>
<polygon fill="midnightblue" stroke="midnightblue" points="1566.2,-29.96 1568.38,-19.59 1560.21,-26.34 1566.2,-29.96"/>
</g>
<!-- Node24&#45;&gt;Node20 -->
<g id="edge37" class="edge">
<title>Node24&#45;&gt;Node20</title>
<path fill="none" stroke="midnightblue" d="M1018.48,-117.98C1037.61,-108.08 1069.37,-91.64 1091.65,-80.12"/>
<polygon fill="midnightblue" stroke="midnightblue" points="1093.28,-83.21 1100.55,-75.51 1090.06,-77 1093.28,-83.21"/>
</g>
<!-- Node24&#45;&gt;Node21 -->
<g id="edge39" class="edge">
<title>Node24&#45;&gt;Node21</title>
<path fill="none" stroke="midnightblue" d="M1004.36,-117.94C1008.55,-103.88 1018.34,-75.49 1034,-56 1043.88,-43.7 1057.84,-32.97 1069.81,-25.07"/>
<polygon fill="midnightblue" stroke="midnightblue" points="1071.88,-27.9 1078.48,-19.61 1068.15,-21.98 1071.88,-27.9"/>
</g>
<!-- Node25 -->
<g id="node25" class="node">
<title>Node25</title>
<g id="a_node25"><a xlink:title=" ">
<polygon fill="white" stroke="#bfbfbf" points="903.5,-56.5 903.5,-75.5 948.5,-75.5 948.5,-56.5 903.5,-56.5"/>
<text text-anchor="middle" x="926" y="-63.5" font-family="Helvetica,sans-Serif" font-size="10.00">utility</text>
</a>
</g>
</g>
<!-- Node24&#45;&gt;Node25 -->
<g id="edge35" class="edge">
<title>Node24&#45;&gt;Node25</title>
<path fill="none" stroke="midnightblue" d="M991.11,-117.98C979.03,-108.52 959.33,-93.1 944.76,-81.69"/>
<polygon fill="midnightblue" stroke="midnightblue" points="946.9,-78.92 936.87,-75.51 942.59,-84.43 946.9,-78.92"/>
</g>
<!-- Node26 -->
<g id="node26" class="node">
<title>Node26</title>
<g id="a_node26"><a xlink:title=" ">
<polygon fill="white" stroke="#bfbfbf" points="754.5,-56.5 754.5,-75.5 885.5,-75.5 885.5,-56.5 754.5,-56.5"/>
<text text-anchor="middle" x="820" y="-63.5" font-family="Helvetica,sans-Serif" font-size="10.00">AMReX_PhysBCFunct.H</text>
</a>
</g>
</g>
<!-- Node24&#45;&gt;Node26 -->
<g id="edge40" class="edge">
<title>Node24&#45;&gt;Node26</title>
<path fill="none" stroke="midnightblue" d="M975.92,-117.98C944.43,-107.68 891.3,-90.31 855.94,-78.75"/>
<polygon fill="midnightblue" stroke="midnightblue" points="856.62,-75.29 846.03,-75.51 854.45,-81.94 856.62,-75.29"/>
</g>
<!-- Node27&#45;&gt;Node8 -->
<g id="edge42" class="edge">
<title>Node27&#45;&gt;Node8</title>
<path fill="none" stroke="midnightblue" d="M735.48,-113.39C692.64,-102.26 650.09,-83.64 674,-56 709.5,-14.95 878.49,-10.59 950.44,-10.63"/>
<polygon fill="midnightblue" stroke="midnightblue" points="950.71,-14.13 960.72,-10.67 950.74,-7.13 950.71,-14.13"/>
</g>
<!-- Node27&#45;&gt;Node10 -->
<g id="edge44" class="edge">
<title>Node27&#45;&gt;Node10</title>
<path fill="none" stroke="midnightblue" d="M779.48,-112.41C756.45,-97.95 728.64,-74.95 746,-56 747.74,-54.1 1012.93,-31.65 1161.66,-19.2"/>
<polygon fill="midnightblue" stroke="midnightblue" points="1162.05,-22.68 1171.72,-18.35 1161.46,-15.7 1162.05,-22.68"/>
</g>
<!-- Node27&#45;&gt;Node20 -->
<g id="edge45" class="edge">
<title>Node27&#45;&gt;Node20</title>
<path fill="none" stroke="midnightblue" d="M874.63,-113.22C931.2,-102.43 1009.91,-87.42 1062.09,-77.47"/>
<polygon fill="midnightblue" stroke="midnightblue" points="1063,-80.86 1072.16,-75.55 1061.68,-73.99 1063,-80.86"/>
</g>
<!-- Node27&#45;&gt;Node21 -->
<g id="edge47" class="edge">
<title>Node27&#45;&gt;Node21</title>
<path fill="none" stroke="midnightblue" d="M761.29,-112.44C728.16,-99.55 691.54,-79.01 712,-56 713.33,-54.5 927.66,-29.92 1034.65,-17.74"/>
<polygon fill="midnightblue" stroke="midnightblue" points="1035.12,-21.21 1044.66,-16.6 1034.33,-14.25 1035.12,-21.21"/>
</g>
<!-- Node27&#45;&gt;Node23 -->
<g id="edge46" class="edge">
<title>Node27&#45;&gt;Node23</title>
<path fill="none" stroke="midnightblue" d="M748.66,-112.47C706.35,-101.94 649.21,-87.72 610.18,-78"/>
<polygon fill="midnightblue" stroke="midnightblue" points="610.72,-74.53 600.17,-75.51 609.03,-81.32 610.72,-74.53"/>
</g>
<!-- Node27&#45;&gt;Node25 -->
<g id="edge43" class="edge">
<title>Node27&#45;&gt;Node25</title>
<path fill="none" stroke="midnightblue" d="M833.68,-112.4C853.52,-102.64 879.76,-89.74 899.19,-80.18"/>
<polygon fill="midnightblue" stroke="midnightblue" points="900.96,-83.21 908.39,-75.66 897.88,-76.93 900.96,-83.21"/>
</g>
<!-- Node27&#45;&gt;Node26 -->
<g id="edge48" class="edge">
<title>Node27&#45;&gt;Node26</title>
<path fill="none" stroke="midnightblue" d="M808.55,-112.4C810.58,-104.38 813.13,-94.23 815.32,-85.57"/>
<polygon fill="midnightblue" stroke="midnightblue" points="818.77,-86.21 817.82,-75.66 811.98,-84.5 818.77,-86.21"/>
</g>
<!-- Node28&#45;&gt;Node8 -->
<g id="edge53" class="edge">
<title>Node28&#45;&gt;Node8</title>
<path fill="none" stroke="midnightblue" d="M1579.54,-179.48C1534.93,-170.58 1477.81,-157.93 1428,-143 1324.11,-111.86 1304.1,-86.44 1200,-56 1165.62,-45.95 1066.48,-26.72 1014.95,-16.97"/>
<polygon fill="midnightblue" stroke="midnightblue" points="1015.49,-13.51 1005.02,-15.1 1014.2,-20.39 1015.49,-13.51"/>
</g>
<!-- Node28&#45;&gt;Node10 -->
<g id="edge67" class="edge">
<title>Node28&#45;&gt;Node10</title>
<path fill="none" stroke="midnightblue" d="M1609.38,-179.45C1548.35,-160.18 1438.9,-122.57 1352,-76 1324.89,-61.47 1296.37,-40.26 1278.4,-26.07"/>
<polygon fill="midnightblue" stroke="midnightblue" points="1280.47,-23.24 1270.48,-19.72 1276.1,-28.7 1280.47,-23.24"/>
</g>
<!-- Node28&#45;&gt;Node19 -->
<g id="edge68" class="edge">
<title>Node28&#45;&gt;Node19</title>
<path fill="none" stroke="midnightblue" d="M1698.81,-179.42C1715.69,-171.52 1733.33,-159.8 1743,-143 1753.08,-125.5 1749.35,-101.82 1744.7,-85.57"/>
<polygon fill="midnightblue" stroke="midnightblue" points="1747.91,-84.11 1741.5,-75.68 1741.25,-86.27 1747.91,-84.11"/>
</g>
<!-- Node29 -->
<g id="node29" class="node">
<title>Node29</title>
<g id="a_node29"><a xlink:href="_factory_8_h.html" target="_top" xlink:title=" ">
<polygon fill="white" stroke="black" points="2511,-118 2511,-137 2645,-137 2645,-118 2511,-118"/>
<text text-anchor="middle" x="2578" y="-125" font-family="Helvetica,sans-Serif" font-size="10.00">amr&#45;wind/core/Factory.H</text>
</a>
</g>
</g>
<!-- Node28&#45;&gt;Node29 -->
<g id="edge54" class="edge">
<title>Node28&#45;&gt;Node29</title>
<path fill="none" stroke="midnightblue" d="M1733.56,-190.31C1877.67,-184.01 2196.39,-168.36 2464,-143 2477.83,-141.69 2492.56,-140.02 2506.69,-138.28"/>
<polygon fill="midnightblue" stroke="midnightblue" points="2507.36,-141.73 2516.85,-137.01 2506.49,-134.78 2507.36,-141.73"/>
</g>
<!-- Node33 -->
<g id="node33" class="node">
<title>Node33</title>
<g id="a_node33"><a xlink:href="_coll_mgr_8_h.html" target="_top" xlink:title=" ">
<polygon fill="white" stroke="black" points="2317.5,-118 2317.5,-137 2454.5,-137 2454.5,-118 2317.5,-118"/>
<text text-anchor="middle" x="2386" y="-125" font-family="Helvetica,sans-Serif" font-size="10.00">amr&#45;wind/core/CollMgr.H</text>
</a>
</g>
</g>
<!-- Node28&#45;&gt;Node33 -->
<g id="edge60" class="edge">
<title>Node28&#45;&gt;Node33</title>
<path fill="none" stroke="midnightblue" d="M1733.78,-186.57C1873.74,-174.11 2166.52,-148.04 2307.21,-135.52"/>
<polygon fill="midnightblue" stroke="midnightblue" points="2307.83,-138.97 2317.48,-134.6 2307.21,-132 2307.83,-138.97"/>
</g>
<!-- Node34 -->
<g id="node34" class="node">
<title>Node34</title>
<g id="a_node34"><a xlink:href="_p_d_e_fields_8_h.html" target="_top" xlink:title=" ">
<polygon fill="white" stroke="black" points="1578.5,-112.5 1578.5,-142.5 1733.5,-142.5 1733.5,-112.5 1578.5,-112.5"/>
<text text-anchor="start" x="1586.5" y="-130.5" font-family="Helvetica,sans-Serif" font-size="10.00">amr&#45;wind/equation_systems</text>
<text text-anchor="middle" x="1656" y="-119.5" font-family="Helvetica,sans-Serif" font-size="10.00">/PDEFields.H</text>
</a>
</g>
</g>
<!-- Node28&#45;&gt;Node34 -->
<g id="edge65" class="edge">
<title>Node28&#45;&gt;Node34</title>
<path fill="none" stroke="midnightblue" d="M1656,-179.4C1656,-171.64 1656,-161.81 1656,-152.86"/>
<polygon fill="midnightblue" stroke="midnightblue" points="1659.5,-152.58 1656,-142.58 1652.5,-152.58 1659.5,-152.58"/>
</g>
<!-- Node29&#45;&gt;Node9 -->
<g id="edge56" class="edge">
<title>Node29&#45;&gt;Node9</title>
<path fill="none" stroke="midnightblue" d="M2537.17,-117.98C2486.16,-107.33 2398.9,-89.11 2343.68,-77.58"/>
<polygon fill="midnightblue" stroke="midnightblue" points="2344.26,-74.13 2333.76,-75.51 2342.83,-80.98 2344.26,-74.13"/>
</g>
<!-- Node29&#45;&gt;Node15 -->
<g id="edge55" class="edge">
<title>Node29&#45;&gt;Node15</title>
<path fill="none" stroke="midnightblue" d="M2556.08,-117.98C2529.95,-107.81 2486.09,-90.76 2456.37,-79.2"/>
<polygon fill="midnightblue" stroke="midnightblue" points="2457.47,-75.87 2446.88,-75.51 2454.93,-82.4 2457.47,-75.87"/>
</g>
<!-- Node30 -->
<g id="node30" class="node">
<title>Node30</title>
<g id="a_node30"><a xlink:title=" ">
<polygon fill="white" stroke="#bfbfbf" points="2548,-56.5 2548,-75.5 2608,-75.5 2608,-56.5 2548,-56.5"/>
<text text-anchor="middle" x="2578" y="-63.5" font-family="Helvetica,sans-Serif" font-size="10.00">iostream</text>
</a>
</g>
</g>
<!-- Node29&#45;&gt;Node30 -->
<g id="edge57" class="edge">
<title>Node29&#45;&gt;Node30</title>
<path fill="none" stroke="midnightblue" d="M2578,-117.98C2578,-109.58 2578,-96.48 2578,-85.66"/>
<polygon fill="midnightblue" stroke="midnightblue" points="2581.5,-85.51 2578,-75.51 2574.5,-85.51 2581.5,-85.51"/>
</g>
<!-- Node31 -->
<g id="node31" class="node">
<title>Node31</title>
<g id="a_node31"><a xlink:title=" ">
<polygon fill="white" stroke="#bfbfbf" points="2626,-56.5 2626,-75.5 2716,-75.5 2716,-56.5 2626,-56.5"/>
<text text-anchor="middle" x="2671" y="-63.5" font-family="Helvetica,sans-Serif" font-size="10.00">AMReX_Print.H</text>
</a>
</g>
</g>
<!-- Node29&#45;&gt;Node31 -->
<g id="edge58" class="edge">
<title>Node29&#45;&gt;Node31</title>
<path fill="none" stroke="midnightblue" d="M2591.32,-117.98C2606.38,-108.34 2631.12,-92.52 2649.04,-81.05"/>
<polygon fill="midnightblue" stroke="midnightblue" points="2651.16,-83.85 2657.7,-75.51 2647.39,-77.95 2651.16,-83.85"/>
</g>
<!-- Node32 -->
<g id="node32" class="node">
<title>Node32</title>
<g id="a_node32"><a xlink:title=" ">
<polygon fill="white" stroke="#bfbfbf" points="2734,-56.5 2734,-75.5 2796,-75.5 2796,-56.5 2734,-56.5"/>
<text text-anchor="middle" x="2765" y="-63.5" font-family="Helvetica,sans-Serif" font-size="10.00">AMReX.H</text>
</a>
</g>
</g>
<!-- Node29&#45;&gt;Node32 -->
<g id="edge59" class="edge">
<title>Node29&#45;&gt;Node32</title>
<path fill="none" stroke="midnightblue" d="M2604.79,-117.98C2637.29,-107.64 2692.21,-90.16 2728.54,-78.6"/>
<polygon fill="midnightblue" stroke="midnightblue" points="2729.79,-81.88 2738.26,-75.51 2727.67,-75.21 2729.79,-81.88"/>
</g>
<!-- Node33&#45;&gt;Node8 -->
<g id="edge61" class="edge">
<title>Node33&#45;&gt;Node8</title>
<path fill="none" stroke="midnightblue" d="M2384.33,-117.63C2380.87,-102 2371.29,-69.89 2349,-56 2287.08,-17.4 1108.62,-27.13 1036,-20 1029.29,-19.34 1022.16,-18.34 1015.36,-17.24"/>
<polygon fill="midnightblue" stroke="midnightblue" points="1015.53,-13.72 1005.08,-15.46 1014.34,-20.61 1015.53,-13.72"/>
</g>
<!-- Node33&#45;&gt;Node9 -->
<g id="edge63" class="edge">
<title>Node33&#45;&gt;Node9</title>
<path fill="none" stroke="midnightblue" d="M2372.68,-117.98C2357.62,-108.34 2332.88,-92.52 2314.96,-81.05"/>
<polygon fill="midnightblue" stroke="midnightblue" points="2316.61,-77.95 2306.3,-75.51 2312.84,-83.85 2316.61,-77.95"/>
</g>
<!-- Node33&#45;&gt;Node15 -->
<g id="edge62" class="edge">
<title>Node33&#45;&gt;Node15</title>
<path fill="none" stroke="midnightblue" d="M2391.59,-117.98C2397.38,-109.14 2406.59,-95.09 2413.87,-83.98"/>
<polygon fill="midnightblue" stroke="midnightblue" points="2416.87,-85.79 2419.42,-75.51 2411.01,-81.95 2416.87,-85.79"/>
</g>
<!-- Node33&#45;&gt;Node21 -->
<g id="edge64" class="edge">
<title>Node33&#45;&gt;Node21</title>
<path fill="none" stroke="midnightblue" d="M2407.84,-117.95C2437.91,-105.02 2485.87,-79.52 2463,-56 2412.62,-4.21 1235.03,-25.68 1163,-20 1159.91,-19.76 1156.74,-19.47 1153.55,-19.15"/>
<polygon fill="midnightblue" stroke="midnightblue" points="1153.63,-15.64 1143.31,-18.05 1152.88,-22.6 1153.63,-15.64"/>
</g>
<!-- Node35 -->
<g id="node35" class="node">
<title>Node35</title>
<g id="a_node35"><a xlink:title=" ">
<polygon fill="white" stroke="#bfbfbf" points="1601,-56.5 1601,-75.5 1649,-75.5 1649,-56.5 1601,-56.5"/>
<text text-anchor="middle" x="1625" y="-63.5" font-family="Helvetica,sans-Serif" font-size="10.00">iosfwd</text>
</a>
</g>
</g>
<!-- Node34&#45;&gt;Node35 -->
<g id="edge66" class="edge">
<title>Node34&#45;&gt;Node35</title>
<path fill="none" stroke="midnightblue" d="M1648.65,-112.4C1644.33,-104.11 1638.83,-93.55 1634.23,-84.71"/>
<polygon fill="midnightblue" stroke="midnightblue" points="1637.24,-82.91 1629.51,-75.66 1631.03,-86.14 1637.24,-82.91"/>
</g>
<!-- Node36&#45;&gt;Node12 -->
<g id="edge72" class="edge">
<title>Node36&#45;&gt;Node12</title>
<path fill="none" stroke="midnightblue" d="M2645.1,-184.98C2698.64,-176.84 2767.89,-162.86 2788,-143 2816.03,-115.32 2832.35,-84.36 2805,-56 2764.22,-13.71 1886.88,-10.86 1638.18,-10.91"/>
<polygon fill="midnightblue" stroke="midnightblue" points="1637.86,-7.41 1627.86,-10.91 1637.86,-14.41 1637.86,-7.41"/>
</g>
<!-- Node36&#45;&gt;Node29 -->
<g id="edge70" class="edge">
<title>Node36&#45;&gt;Node29</title>
<path fill="none" stroke="midnightblue" d="M2578,-184.73C2578,-175.18 2578,-159.62 2578,-147.28"/>
<polygon fill="midnightblue" stroke="midnightblue" points="2581.5,-147.13 2578,-137.13 2574.5,-147.13 2581.5,-147.13"/>
</g>
<!-- Node36&#45;&gt;Node33 -->
<g id="edge71" class="edge">
<title>Node36&#45;&gt;Node33</title>
<path fill="none" stroke="midnightblue" d="M2552.5,-184.87C2518.7,-173.42 2458.9,-153.18 2420.92,-140.32"/>
<polygon fill="midnightblue" stroke="midnightblue" points="2421.89,-136.96 2411.3,-137.06 2419.65,-143.59 2421.89,-136.96"/>
</g>
<!-- Node37 -->
<g id="node37" class="node">
<title>Node37</title>
<g id="a_node37"><a xlink:title=" ">
<polygon fill="white" stroke="#bfbfbf" points="2663.5,-118 2663.5,-137 2778.5,-137 2778.5,-118 2663.5,-118"/>
<text text-anchor="middle" x="2721" y="-125" font-family="Helvetica,sans-Serif" font-size="10.00">AMReX_Geometry.H</text>
</a>
</g>
</g>
<!-- Node36&#45;&gt;Node37 -->
<g id="edge73" class="edge">
<title>Node36&#45;&gt;Node37</title>
<path fill="none" stroke="midnightblue" d="M2596.99,-184.87C2621.46,-173.75 2664.2,-154.32 2692.56,-141.43"/>
<polygon fill="midnightblue" stroke="midnightblue" points="2694.28,-144.49 2701.93,-137.17 2691.38,-138.12 2694.28,-144.49"/>
</g>
<!-- Node38&#45;&gt;Node12 -->
<g id="edge78" class="edge">
<title>Node38&#45;&gt;Node12</title>
<path fill="none" stroke="midnightblue" d="M2417.78,-184.84C2432.08,-176.14 2452.61,-161.42 2464,-143 2484.63,-109.63 2506.05,-84.42 2479,-56 2450.06,-25.58 1840.42,-14.61 1637.82,-11.8"/>
<polygon fill="midnightblue" stroke="midnightblue" points="1637.67,-8.3 1627.62,-11.66 1637.58,-15.3 1637.67,-8.3"/>
</g>
<!-- Node38&#45;&gt;Node14 -->
<g id="edge77" class="edge">
<title>Node38&#45;&gt;Node14</title>
<path fill="none" stroke="midnightblue" d="M2350.22,-184.94C2278.11,-173.01 2147.65,-151.43 2070.63,-138.69"/>
<polygon fill="midnightblue" stroke="midnightblue" points="2071.02,-135.21 2060.58,-137.03 2069.88,-142.12 2071.02,-135.21"/>
</g>
<!-- Node38&#45;&gt;Node29 -->
<g id="edge76" class="edge">
<title>Node38&#45;&gt;Node29</title>
<path fill="none" stroke="midnightblue" d="M2425.37,-184.87C2456.09,-173.52 2510.24,-153.52 2545.1,-140.65"/>
<polygon fill="midnightblue" stroke="midnightblue" points="2546.64,-143.81 2554.81,-137.06 2544.22,-137.24 2546.64,-143.81"/>
</g>
<!-- Node38&#45;&gt;Node33 -->
<g id="edge75" class="edge">
<title>Node38&#45;&gt;Node33</title>
<path fill="none" stroke="midnightblue" d="M2399.84,-184.73C2397.47,-175.09 2393.58,-159.3 2390.53,-146.91"/>
<polygon fill="midnightblue" stroke="midnightblue" points="2393.91,-146 2388.12,-137.13 2387.12,-147.67 2393.91,-146"/>
</g>
<!-- Node38&#45;&gt;Node37 -->
<g id="edge79" class="edge">
<title>Node38&#45;&gt;Node37</title>
<path fill="none" stroke="midnightblue" d="M2445.75,-184.95C2496.04,-175.06 2581.05,-158.2 2654,-143 2659.82,-141.79 2665.92,-140.49 2671.97,-139.2"/>
<polygon fill="midnightblue" stroke="midnightblue" points="2673.01,-142.56 2682.05,-137.04 2671.54,-135.71 2673.01,-142.56"/>
</g>
<!-- Node39&#45;&gt;Node1 -->
<g id="edge83" class="edge">
<title>Node39&#45;&gt;Node1</title>
<path fill="none" stroke="midnightblue" d="M644.94,-204.01C693.18,-214.56 771.7,-232.57 819.97,-244.11"/>
<polygon fill="midnightblue" stroke="midnightblue" points="819.25,-247.54 829.79,-246.48 820.89,-240.73 819.25,-247.54"/>
</g>
<!-- Node39&#45;&gt;Node2 -->
<g id="edge81" class="edge">
<title>Node39&#45;&gt;Node2</title>
<path fill="none" stroke="midnightblue" d="M574.18,-184.87C535.65,-173.33 467.24,-152.84 424.38,-140"/>
<polygon fill="midnightblue" stroke="midnightblue" points="425.17,-136.58 414.59,-137.06 423.16,-143.29 425.17,-136.58"/>
</g>
<!-- Node39&#45;&gt;Node3 -->
<g id="edge82" class="edge">
<title>Node39&#45;&gt;Node3</title>
<path fill="none" stroke="midnightblue" d="M555.3,-184.94C489.15,-173.06 369.7,-151.61 298.64,-138.85"/>
<polygon fill="midnightblue" stroke="midnightblue" points="298.98,-135.35 288.52,-137.03 297.74,-142.24 298.98,-135.35"/>
</g>
</g>
</svg>
        <g id="navigator" transform="translate(0 0)" fill="#404254">
                <rect fill="#f2f5e9" fill-opacity="0.5" stroke="#606060" stroke-width=".5" x="0" y="0" width="60" height="60"/>
                <use id="zoomplus" xlink:href="#zoomPlus" x="17" y="9" onmousedown="handleZoom(evt,'in')"/>
                <use id="zoomminus" xlink:href="#zoomMin" x="42" y="9" onmousedown="handleZoom(evt,'out')"/>
                <use id="reset" xlink:href="#resetDef" x="30" y="36" onmousedown="handleReset()"/>
                <g id="arrowUp" xlink:href="#dirArrow" transform="translate(30 24)" onmousedown="handlePan(0,-1)">
                  <use xlink:href="#rim" fill="#404040">
                        <set attributeName="fill" to="#808080" begin="arrowUp.mouseover" end="arrowUp.mouseout"/>
                  </use>
                  <path fill="none" stroke="white" stroke-width="1.5" d="M0,-3.0v7 M-2.5,-0.5L0,-3.0L2.5,-0.5"/>
                </g>
                <g id="arrowRight" xlink:href="#dirArrow" transform="rotate(90) translate(36 -43)" onmousedown="handlePan(1,0)">
                  <use xlink:href="#rim" fill="#404040">
                        <set attributeName="fill" to="#808080" begin="arrowRight.mouseover" end="arrowRight.mouseout"/>
                  </use>
                  <path fill="none" stroke="white" stroke-width="1.5" d="M0,-3.0v7 M-2.5,-0.5L0,-3.0L2.5,-0.5"/>
                </g>
                <g id="arrowDown" xlink:href="#dirArrow" transform="rotate(180) translate(-30 -48)" onmousedown="handlePan(0,1)">
                  <use xlink:href="#rim" fill="#404040">
                        <set attributeName="fill" to="#808080" begin="arrowDown.mouseover" end="arrowDown.mouseout"/>
                  </use>
                  <path fill="none" stroke="white" stroke-width="1.5" d="M0,-3.0v7 M-2.5,-0.5L0,-3.0L2.5,-0.5"/>
                </g>
                <g id="arrowLeft" xlink:href="#dirArrow" transform="rotate(270) translate(-36 17)" onmousedown="handlePan(-1,0)">
                  <use xlink:href="#rim" fill="#404040">
                        <set attributeName="fill" to="#808080" begin="arrowLeft.mouseover" end="arrowLeft.mouseout"/>
                  </use>
                  <path fill="none" stroke="white" stroke-width="1.5" d="M0,-3.0v7 M-2.5,-0.5L0,-3.0L2.5,-0.5"/>
                </g>
        </g>
        <svg viewBox="0 0 15 15" width="100%" height="30px" preserveAspectRatio="xMaxYMin meet">
         <g id="arrow_out" transform="scale(0.3 0.3)">
          <a xlink:href="_c_f_d_sim_8_h__incl_org.svg" target="_base">
           <rect id="button" ry="5" rx="5" y="6" x="6" height="38" width="38"
                fill="#f2f5e9" fill-opacity="0.5" stroke="#606060" stroke-width="1.0"/>
           <path id="arrow"
             d="M 11.500037,31.436501 C 11.940474,20.09759 22.043105,11.32322 32.158766,21.979434 L 37.068811,17.246167 C 37.068811,17.246167 37.088388,32 37.088388,32 L 22.160133,31.978069 C 22.160133,31.978069 26.997745,27.140456 26.997745,27.140456 C 18.528582,18.264221 13.291696,25.230495 11.500037,31.436501 z"
             style="fill:#404040;"/>
          </a>
         </g>
        </svg>
</svg>
