<?xml version="1.0" encoding="UTF-8" standalone="no"?>
<!DOCTYPE svg PUBLIC "-//W3C//DTD SVG 1.1//EN"
 "http://www.w3.org/Graphics/SVG/1.1/DTD/svg11.dtd">
<!-- Generated by graphviz version 2.43.0 (0)
 -->
<!-- Title: DiffusionOps.H Pages: 1 -->
<!--zoomable 252 -->
<svg id="main" version="1.1" xmlns="http://www.w3.org/2000/svg" xmlns:xlink="http://www.w3.org/1999/xlink" xml:space="preserve" onload="init(evt)">
<style type="text/css"><![CDATA[
.edge:hover path { stroke: red; }
.edge:hover polygon { stroke: red; fill: red; }
]]></style>
<script type="text/javascript"><![CDATA[
var edges = document.getElementsByTagName('g');
if (edges && edges.length) {
  for (var i=0;i<edges.length;i++) {
    if (edges[i].id.substr(0,4)=='edge') {
      edges[i].setAttribute('class','edge');
    }
  }
}
]]></script>
        <defs>
                <circle id="rim" cx="0" cy="0" r="7"/>
                <circle id="rim2" cx="0" cy="0" r="3.5"/>
                <g id="zoomPlus">
                        <use xlink:href="#rim" fill="#404040">
                                <set attributeName="fill" to="#808080" begin="zoomplus.mouseover" end="zoomplus.mouseout"/>
                        </use>
                        <path d="M-4,0h8M0,-4v8" fill="none" stroke="white" stroke-width="1.5" pointer-events="none"/>
                </g>
                <g id="zoomMin">
                        <use xlink:href="#rim" fill="#404040">
                                <set attributeName="fill" to="#808080" begin="zoomminus.mouseover" end="zoomminus.mouseout"/>
                        </use>
                        <path d="M-4,0h8" fill="none" stroke="white" stroke-width="1.5" pointer-events="none"/>
                </g>
                <g id="dirArrow">
                        <path fill="none" stroke="white" stroke-width="1.5" d="M0,-3.0v7 M-2.5,-0.5L0,-3.0L2.5,-0.5"/>
                </g>
               <g id="resetDef">
                       <use xlink:href="#rim2" fill="#404040">
                               <set attributeName="fill" to="#808080" begin="reset.mouseover" end="reset.mouseout"/>
                       </use>
               </g>
        </defs>

<script type="text/javascript">
var viewWidth = 2146;
var viewHeight = 252;
var sectionId = 'dynsection-1';
</script>
<script xlink:href="svgpan.js"/>
<svg id="graph" class="graph">
<g id="viewport">
<title>DiffusionOps.H</title>
<polygon fill="white" stroke="transparent" points="-4,4 -4,-248 2142,-248 2142,4 -4,4"/>
<!-- Node1 -->
<g id="node1" class="node">
<title>Node1</title>
<g id="a_node1"><a xlink:title=" ">
<polygon fill="#bfbfbf" stroke="black" points="102,-224.5 102,-243.5 191,-243.5 191,-224.5 102,-224.5"/>
<text text-anchor="middle" x="146.5" y="-231.5" font-family="Helvetica,sans-Serif" font-size="10.00">DiffusionOps.H</text>
</a>
</g>
</g>
<!-- Node2 -->
<g id="node2" class="node">
<title>Node2</title>
<g id="a_node2"><a xlink:href="_diffusion_ops_8cpp.html" target="_top" xlink:title=" ">
<polygon fill="white" stroke="black" points="0,-168.5 0,-187.5 99,-187.5 99,-168.5 0,-168.5"/>
<text text-anchor="middle" x="49.5" y="-175.5" font-family="Helvetica,sans-Serif" font-size="10.00">DiffusionOps.cpp</text>
</a>
</g>
</g>
<!-- Node1&#45;&gt;Node2 -->
<g id="edge1" class="edge">
<title>Node1&#45;&gt;Node2</title>
<path fill="none" stroke="midnightblue" d="M122.16,-219.45C104.26,-209.48 80.45,-196.23 65.05,-187.65"/>
<polygon fill="midnightblue" stroke="midnightblue" points="120.48,-222.52 130.92,-224.32 123.88,-216.4 120.48,-222.52"/>
</g>
<!-- Node3 -->
<g id="node3" class="node">
<title>Node3</title>
<g id="a_node3"><a xlink:href="icns__diffusion_8_h.html" target="_top" xlink:title=" ">
<polygon fill="white" stroke="black" points="18.5,-56.5 18.5,-75.5 112.5,-75.5 112.5,-56.5 18.5,-56.5"/>
<text text-anchor="middle" x="65.5" y="-63.5" font-family="Helvetica,sans-Serif" font-size="10.00">icns_diffusion.H</text>
</a>
</g>
</g>
<!-- Node1&#45;&gt;Node3 -->
<g id="edge2" class="edge">
<title>Node1&#45;&gt;Node3</title>
<path fill="none" stroke="midnightblue" d="M137.65,-214.86C120.27,-179.25 82.31,-101.45 69.68,-75.57"/>
<polygon fill="midnightblue" stroke="midnightblue" points="134.61,-216.62 142.15,-224.08 140.91,-213.55 134.61,-216.62"/>
</g>
<!-- Node5 -->
<g id="node5" class="node">
<title>Node5</title>
<g id="a_node5"><a xlink:href="icns__ops_8_h.html" target="_top" xlink:title=" ">
<polygon fill="white" stroke="black" points="131,-56.5 131,-75.5 200,-75.5 200,-56.5 131,-56.5"/>
<text text-anchor="middle" x="165.5" y="-63.5" font-family="Helvetica,sans-Serif" font-size="10.00">icns_ops.H</text>
</a>
</g>
</g>
<!-- Node1&#45;&gt;Node5 -->
<g id="edge4" class="edge">
<title>Node1&#45;&gt;Node5</title>
<path fill="none" stroke="midnightblue" d="M148.68,-213.93C152.8,-177.92 161.58,-101.23 164.52,-75.57"/>
<polygon fill="midnightblue" stroke="midnightblue" points="145.18,-213.74 147.52,-224.08 152.14,-214.54 145.18,-213.74"/>
</g>
<!-- Node6 -->
<g id="node6" class="node">
<title>Node6</title>
<g id="a_node6"><a xlink:href="_p_d_e_8_h.html" target="_top" xlink:title=" ">
<polygon fill="white" stroke="black" points="984,-168.5 984,-187.5 1031,-187.5 1031,-168.5 984,-168.5"/>
<text text-anchor="middle" x="1007.5" y="-175.5" font-family="Helvetica,sans-Serif" font-size="10.00">PDE.H</text>
</a>
</g>
</g>
<!-- Node1&#45;&gt;Node6 -->
<g id="edge6" class="edge">
<title>Node1&#45;&gt;Node6</title>
<path fill="none" stroke="midnightblue" d="M201.35,-229.56C368.75,-219.06 868.67,-187.71 983.71,-180.49"/>
<polygon fill="midnightblue" stroke="midnightblue" points="201.04,-226.07 191.28,-230.19 201.48,-233.06 201.04,-226.07"/>
</g>
<!-- Node4 -->
<g id="node4" class="node">
<title>Node4</title>
<g id="a_node4"><a xlink:href="icns_8cpp.html" target="_top" xlink:title=" ">
<polygon fill="white" stroke="black" points="200.5,-0.5 200.5,-19.5 256.5,-19.5 256.5,-0.5 200.5,-0.5"/>
<text text-anchor="middle" x="228.5" y="-7.5" font-family="Helvetica,sans-Serif" font-size="10.00">icns.cpp</text>
</a>
</g>
</g>
<!-- Node3&#45;&gt;Node4 -->
<g id="edge3" class="edge">
<title>Node3&#45;&gt;Node4</title>
<path fill="none" stroke="midnightblue" d="M101.2,-53.17C131.9,-43 175.42,-28.59 202.79,-19.52"/>
<polygon fill="midnightblue" stroke="midnightblue" points="99.72,-49.98 91.33,-56.44 101.92,-56.62 99.72,-49.98"/>
</g>
<!-- Node5&#45;&gt;Node4 -->
<g id="edge5" class="edge">
<title>Node5&#45;&gt;Node4</title>
<path fill="none" stroke="midnightblue" d="M183.54,-49.54C194.77,-39.91 208.82,-27.87 218.19,-19.83"/>
<polygon fill="midnightblue" stroke="midnightblue" points="180.94,-47.16 175.62,-56.32 185.49,-52.47 180.94,-47.16"/>
</g>
<!-- Node7 -->
<g id="node7" class="node">
<title>Node7</title>
<g id="a_node7"><a xlink:href="density_8_h.html" target="_top" xlink:title=" ">
<polygon fill="white" stroke="black" points="765.5,-112.5 765.5,-131.5 827.5,-131.5 827.5,-112.5 765.5,-112.5"/>
<text text-anchor="middle" x="796.5" y="-119.5" font-family="Helvetica,sans-Serif" font-size="10.00">density.H</text>
</a>
</g>
</g>
<!-- Node6&#45;&gt;Node7 -->
<g id="edge7" class="edge">
<title>Node6&#45;&gt;Node7</title>
<path fill="none" stroke="midnightblue" d="M973.84,-168.39C933.61,-158.09 866.84,-141 827.72,-130.99"/>
<polygon fill="midnightblue" stroke="midnightblue" points="973.15,-171.82 983.71,-170.91 974.89,-165.04 973.15,-171.82"/>
</g>
<!-- Node10 -->
<g id="node10" class="node">
<title>Node10</title>
<g id="a_node10"><a xlink:href="icns_8_h.html" target="_top" xlink:title=" ">
<polygon fill="white" stroke="black" points="324,-112.5 324,-131.5 371,-131.5 371,-112.5 324,-112.5"/>
<text text-anchor="middle" x="347.5" y="-119.5" font-family="Helvetica,sans-Serif" font-size="10.00">icns.H</text>
</a>
</g>
</g>
<!-- Node6&#45;&gt;Node10 -->
<g id="edge11" class="edge">
<title>Node6&#45;&gt;Node10</title>
<path fill="none" stroke="midnightblue" d="M973.43,-174.21C856.07,-164.61 470.34,-133.05 371,-124.92"/>
<polygon fill="midnightblue" stroke="midnightblue" points="973.37,-177.72 983.62,-175.05 973.94,-170.74 973.37,-177.72"/>
</g>
<!-- Node16 -->
<g id="node16" class="node">
<title>Node16</title>
<g id="a_node16"><a xlink:href="levelset_8_h.html" target="_top" xlink:title=" ">
<polygon fill="white" stroke="black" points="907.5,-112.5 907.5,-131.5 973.5,-131.5 973.5,-112.5 907.5,-112.5"/>
<text text-anchor="middle" x="940.5" y="-119.5" font-family="Helvetica,sans-Serif" font-size="10.00">levelset.H</text>
</a>
</g>
</g>
<!-- Node6&#45;&gt;Node16 -->
<g id="edge22" class="edge">
<title>Node6&#45;&gt;Node16</title>
<path fill="none" stroke="midnightblue" d="M988.67,-161.82C976.66,-152.15 961.53,-139.95 951.46,-131.83"/>
<polygon fill="midnightblue" stroke="midnightblue" points="986.75,-164.77 996.74,-168.32 991.15,-159.32 986.75,-164.77"/>
</g>
<!-- Node19 -->
<g id="node19" class="node">
<title>Node19</title>
<g id="a_node19"><a xlink:href="_s_d_r_8_h.html" target="_top" xlink:title=" ">
<polygon fill="white" stroke="black" points="1081,-112.5 1081,-131.5 1128,-131.5 1128,-112.5 1081,-112.5"/>
<text text-anchor="middle" x="1104.5" y="-119.5" font-family="Helvetica,sans-Serif" font-size="10.00">SDR.H</text>
</a>
</g>
</g>
<!-- Node6&#45;&gt;Node19 -->
<g id="edge26" class="edge">
<title>Node6&#45;&gt;Node19</title>
<path fill="none" stroke="midnightblue" d="M1031.84,-163.45C1049.74,-153.48 1073.55,-140.23 1088.95,-131.65"/>
<polygon fill="midnightblue" stroke="midnightblue" points="1030.12,-160.4 1023.08,-168.32 1033.52,-166.52 1030.12,-160.4"/>
</g>
<!-- Node25 -->
<g id="node25" class="node">
<title>Node25</title>
<g id="a_node25"><a xlink:href="temperature_8_h.html" target="_top" xlink:title=" ">
<polygon fill="white" stroke="black" points="1569.5,-112.5 1569.5,-131.5 1657.5,-131.5 1657.5,-112.5 1569.5,-112.5"/>
<text text-anchor="middle" x="1613.5" y="-119.5" font-family="Helvetica,sans-Serif" font-size="10.00">temperature.H</text>
</a>
</g>
</g>
<!-- Node6&#45;&gt;Node25 -->
<g id="edge35" class="edge">
<title>Node6&#45;&gt;Node25</title>
<path fill="none" stroke="midnightblue" d="M1041.4,-173.98C1144.43,-164.8 1453.85,-137.23 1569.37,-126.93"/>
<polygon fill="midnightblue" stroke="midnightblue" points="1040.91,-170.51 1031.26,-174.88 1041.53,-177.48 1040.91,-170.51"/>
</g>
<!-- Node27 -->
<g id="node27" class="node">
<title>Node27</title>
<g id="a_node27"><a xlink:href="_t_k_e_8_h.html" target="_top" xlink:title=" ">
<polygon fill="white" stroke="black" points="1353.5,-112.5 1353.5,-131.5 1399.5,-131.5 1399.5,-112.5 1353.5,-112.5"/>
<text text-anchor="middle" x="1376.5" y="-119.5" font-family="Helvetica,sans-Serif" font-size="10.00">TKE.H</text>
</a>
</g>
</g>
<!-- Node6&#45;&gt;Node27 -->
<g id="edge37" class="edge">
<title>Node6&#45;&gt;Node27</title>
<path fill="none" stroke="midnightblue" d="M1041.3,-172.05C1115.23,-161.23 1289.76,-135.69 1353.05,-126.43"/>
<polygon fill="midnightblue" stroke="midnightblue" points="1040.53,-168.63 1031.14,-173.54 1041.55,-175.55 1040.53,-168.63"/>
</g>
<!-- Node32 -->
<g id="node32" class="node">
<title>Node32</title>
<g id="a_node32"><a xlink:href="vof_8_h.html" target="_top" xlink:title=" ">
<polygon fill="white" stroke="black" points="1896.5,-112.5 1896.5,-131.5 1938.5,-131.5 1938.5,-112.5 1896.5,-112.5"/>
<text text-anchor="middle" x="1917.5" y="-119.5" font-family="Helvetica,sans-Serif" font-size="10.00">vof.H</text>
</a>
</g>
</g>
<!-- Node6&#45;&gt;Node32 -->
<g id="edge46" class="edge">
<title>Node6&#45;&gt;Node32</title>
<path fill="none" stroke="midnightblue" d="M1041.68,-174.97C1190.18,-166.16 1777.16,-131.33 1896.33,-124.26"/>
<polygon fill="midnightblue" stroke="midnightblue" points="1041.15,-171.5 1031.37,-175.58 1041.56,-178.48 1041.15,-171.5"/>
</g>
<!-- Node8 -->
<g id="node8" class="node">
<title>Node8</title>
<g id="a_node8"><a xlink:href="density_8cpp.html" target="_top" xlink:title=" ">
<polygon fill="white" stroke="black" points="715,-0.5 715,-19.5 786,-19.5 786,-0.5 715,-0.5"/>
<text text-anchor="middle" x="750.5" y="-7.5" font-family="Helvetica,sans-Serif" font-size="10.00">density.cpp</text>
</a>
</g>
</g>
<!-- Node7&#45;&gt;Node8 -->
<g id="edge8" class="edge">
<title>Node7&#45;&gt;Node8</title>
<path fill="none" stroke="midnightblue" d="M772.13,-106.73C761.55,-99.09 750.28,-88.64 744.5,-76 736.02,-57.45 742.43,-32.85 746.99,-19.88"/>
<polygon fill="midnightblue" stroke="midnightblue" points="770.46,-109.82 780.72,-112.47 774.35,-104 770.46,-109.82"/>
</g>
<!-- Node9 -->
<g id="node9" class="node">
<title>Node9</title>
<g id="a_node9"><a xlink:href="density__ops_8_h.html" target="_top" xlink:title=" ">
<polygon fill="white" stroke="black" points="753.5,-56.5 753.5,-75.5 839.5,-75.5 839.5,-56.5 753.5,-56.5"/>
<text text-anchor="middle" x="796.5" y="-63.5" font-family="Helvetica,sans-Serif" font-size="10.00">density_ops.H</text>
</a>
</g>
</g>
<!-- Node7&#45;&gt;Node9 -->
<g id="edge9" class="edge">
<title>Node7&#45;&gt;Node9</title>
<path fill="none" stroke="midnightblue" d="M796.5,-101.8C796.5,-92.91 796.5,-82.78 796.5,-75.75"/>
<polygon fill="midnightblue" stroke="midnightblue" points="793,-102.08 796.5,-112.08 800,-102.08 793,-102.08"/>
</g>
<!-- Node9&#45;&gt;Node8 -->
<g id="edge10" class="edge">
<title>Node9&#45;&gt;Node8</title>
<path fill="none" stroke="midnightblue" d="M782.39,-48.43C774.32,-38.97 764.54,-27.48 757.95,-19.75"/>
<polygon fill="midnightblue" stroke="midnightblue" points="779.75,-50.74 788.9,-56.08 785.08,-46.2 779.75,-50.74"/>
</g>
<!-- Node10&#45;&gt;Node3 -->
<g id="edge18" class="edge">
<title>Node10&#45;&gt;Node3</title>
<path fill="none" stroke="midnightblue" d="M313.81,-114.55C262.97,-104.81 166.55,-86.35 109.99,-75.52"/>
<polygon fill="midnightblue" stroke="midnightblue" points="313.46,-118.05 323.94,-116.49 314.78,-111.17 313.46,-118.05"/>
</g>
<!-- Node10&#45;&gt;Node4 -->
<g id="edge12" class="edge">
<title>Node10&#45;&gt;Node4</title>
<path fill="none" stroke="midnightblue" d="M313.99,-113.66C292.16,-107.22 264.66,-95.71 247.5,-76 233.3,-59.68 229.7,-33.24 228.79,-19.66"/>
<polygon fill="midnightblue" stroke="midnightblue" points="313.3,-117.1 323.87,-116.35 315.14,-110.35 313.3,-117.1"/>
</g>
<!-- Node10&#45;&gt;Node5 -->
<g id="edge19" class="edge">
<title>Node10&#45;&gt;Node5</title>
<path fill="none" stroke="midnightblue" d="M313.69,-110.97C279.38,-100.79 226.83,-85.2 194.4,-75.58"/>
<polygon fill="midnightblue" stroke="midnightblue" points="313.12,-114.45 323.71,-113.94 315.12,-107.74 313.12,-114.45"/>
</g>
<!-- Node11 -->
<g id="node11" class="node">
<title>Node11</title>
<g id="a_node11"><a xlink:href="icns__advection_8_h.html" target="_top" xlink:title=" ">
<polygon fill="white" stroke="black" points="350.5,-56.5 350.5,-75.5 450.5,-75.5 450.5,-56.5 350.5,-56.5"/>
<text text-anchor="middle" x="400.5" y="-63.5" font-family="Helvetica,sans-Serif" font-size="10.00">icns_advection.H</text>
</a>
</g>
</g>
<!-- Node10&#45;&gt;Node11 -->
<g id="edge13" class="edge">
<title>Node10&#45;&gt;Node11</title>
<path fill="none" stroke="midnightblue" d="M363.48,-104.72C372.82,-95.2 384.25,-83.56 391.91,-75.75"/>
<polygon fill="midnightblue" stroke="midnightblue" points="360.76,-102.49 356.25,-112.08 365.75,-107.4 360.76,-102.49"/>
</g>
<!-- Node13 -->
<g id="node13" class="node">
<title>Node13</title>
<g id="a_node13"><a xlink:href="icns__bcop_8_h.html" target="_top" xlink:title=" ">
<polygon fill="white" stroke="black" points="257,-56.5 257,-75.5 332,-75.5 332,-56.5 257,-56.5"/>
<text text-anchor="middle" x="294.5" y="-63.5" font-family="Helvetica,sans-Serif" font-size="10.00">icns_bcop.H</text>
</a>
</g>
</g>
<!-- Node10&#45;&gt;Node13 -->
<g id="edge16" class="edge">
<title>Node10&#45;&gt;Node13</title>
<path fill="none" stroke="midnightblue" d="M331.52,-104.72C322.18,-95.2 310.75,-83.56 303.09,-75.75"/>
<polygon fill="midnightblue" stroke="midnightblue" points="329.25,-107.4 338.75,-112.08 334.24,-102.49 329.25,-107.4"/>
</g>
<!-- Node14 -->
<g id="node14" class="node">
<title>Node14</title>
<g id="a_node14"><a xlink:href="_burggraf_lid_8cpp.html" target="_top" xlink:title=" ">
<polygon fill="white" stroke="black" points="469,-56.5 469,-75.5 562,-75.5 562,-56.5 469,-56.5"/>
<text text-anchor="middle" x="515.5" y="-63.5" font-family="Helvetica,sans-Serif" font-size="10.00">BurggrafLid.cpp</text>
</a>
</g>
</g>
<!-- Node10&#45;&gt;Node14 -->
<g id="edge20" class="edge">
<title>Node10&#45;&gt;Node14</title>
<path fill="none" stroke="midnightblue" d="M380.92,-110.26C412.62,-100.07 459.61,-84.96 488.86,-75.56"/>
<polygon fill="midnightblue" stroke="midnightblue" points="379.66,-106.99 371.21,-113.38 381.81,-113.65 379.66,-106.99"/>
</g>
<!-- Node15 -->
<g id="node15" class="node">
<title>Node15</title>
<g id="a_node15"><a xlink:href="_power_law_profile_8cpp.html" target="_top" xlink:title=" ">
<polygon fill="white" stroke="black" points="580,-56.5 580,-75.5 697,-75.5 697,-56.5 580,-56.5"/>
<text text-anchor="middle" x="638.5" y="-63.5" font-family="Helvetica,sans-Serif" font-size="10.00">PowerLawProfile.cpp</text>
</a>
</g>
</g>
<!-- Node10&#45;&gt;Node15 -->
<g id="edge21" class="edge">
<title>Node10&#45;&gt;Node15</title>
<path fill="none" stroke="midnightblue" d="M381.4,-114.71C433.66,-105.01 533.98,-86.4 592.66,-75.51"/>
<polygon fill="midnightblue" stroke="midnightblue" points="380.51,-111.32 371.31,-116.58 381.78,-118.2 380.51,-111.32"/>
</g>
<!-- Node11&#45;&gt;Node4 -->
<g id="edge14" class="edge">
<title>Node11&#45;&gt;Node4</title>
<path fill="none" stroke="midnightblue" d="M363.67,-53.44C331.24,-43.26 284.76,-28.66 255.63,-19.52"/>
<polygon fill="midnightblue" stroke="midnightblue" points="362.66,-56.79 373.25,-56.44 364.75,-50.11 362.66,-56.79"/>
</g>
<!-- Node12 -->
<g id="node12" class="node">
<title>Node12</title>
<g id="a_node12"><a xlink:href="icns__advection_8cpp.html" target="_top" xlink:title=" ">
<polygon fill="white" stroke="black" points="345.5,-0.5 345.5,-19.5 455.5,-19.5 455.5,-0.5 345.5,-0.5"/>
<text text-anchor="middle" x="400.5" y="-7.5" font-family="Helvetica,sans-Serif" font-size="10.00">icns_advection.cpp</text>
</a>
</g>
</g>
<!-- Node11&#45;&gt;Node12 -->
<g id="edge15" class="edge">
<title>Node11&#45;&gt;Node12</title>
<path fill="none" stroke="midnightblue" d="M400.5,-45.8C400.5,-36.91 400.5,-26.78 400.5,-19.75"/>
<polygon fill="midnightblue" stroke="midnightblue" points="397,-46.08 400.5,-56.08 404,-46.08 397,-46.08"/>
</g>
<!-- Node13&#45;&gt;Node4 -->
<g id="edge17" class="edge">
<title>Node13&#45;&gt;Node4</title>
<path fill="none" stroke="midnightblue" d="M275.95,-49.82C264.12,-40.15 249.21,-27.95 239.3,-19.83"/>
<polygon fill="midnightblue" stroke="midnightblue" points="273.94,-52.7 283.9,-56.32 278.37,-47.28 273.94,-52.7"/>
</g>
<!-- Node17 -->
<g id="node17" class="node">
<title>Node17</title>
<g id="a_node17"><a xlink:href="levelset_8cpp.html" target="_top" xlink:title=" ">
<polygon fill="white" stroke="black" points="859.5,-0.5 859.5,-19.5 935.5,-19.5 935.5,-0.5 859.5,-0.5"/>
<text text-anchor="middle" x="897.5" y="-7.5" font-family="Helvetica,sans-Serif" font-size="10.00">levelset.cpp</text>
</a>
</g>
</g>
<!-- Node16&#45;&gt;Node17 -->
<g id="edge23" class="edge">
<title>Node16&#45;&gt;Node17</title>
<path fill="none" stroke="midnightblue" d="M915.32,-107C904.31,-99.4 892.54,-88.91 886.5,-76 877.76,-57.34 886.75,-32.79 892.86,-19.85"/>
<polygon fill="midnightblue" stroke="midnightblue" points="913.56,-110.03 923.87,-112.46 917.33,-104.13 913.56,-110.03"/>
</g>
<!-- Node18 -->
<g id="node18" class="node">
<title>Node18</title>
<g id="a_node18"><a xlink:href="levelset__ops_8_h.html" target="_top" xlink:title=" ">
<polygon fill="white" stroke="black" points="896,-56.5 896,-75.5 985,-75.5 985,-56.5 896,-56.5"/>
<text text-anchor="middle" x="940.5" y="-63.5" font-family="Helvetica,sans-Serif" font-size="10.00">levelset_ops.H</text>
</a>
</g>
</g>
<!-- Node16&#45;&gt;Node18 -->
<g id="edge24" class="edge">
<title>Node16&#45;&gt;Node18</title>
<path fill="none" stroke="midnightblue" d="M940.5,-101.8C940.5,-92.91 940.5,-82.78 940.5,-75.75"/>
<polygon fill="midnightblue" stroke="midnightblue" points="937,-102.08 940.5,-112.08 944,-102.08 937,-102.08"/>
</g>
<!-- Node18&#45;&gt;Node17 -->
<g id="edge25" class="edge">
<title>Node18&#45;&gt;Node17</title>
<path fill="none" stroke="midnightblue" d="M927.08,-48.14C919.59,-38.74 910.56,-27.4 904.47,-19.75"/>
<polygon fill="midnightblue" stroke="midnightblue" points="924.43,-50.44 933.4,-56.08 929.91,-46.08 924.43,-50.44"/>
</g>
<!-- Node20 -->
<g id="node20" class="node">
<title>Node20</title>
<g id="a_node20"><a xlink:href="_s_d_r_8cpp.html" target="_top" xlink:title=" ">
<polygon fill="white" stroke="black" points="1015,-0.5 1015,-19.5 1072,-19.5 1072,-0.5 1015,-0.5"/>
<text text-anchor="middle" x="1043.5" y="-7.5" font-family="Helvetica,sans-Serif" font-size="10.00">SDR.cpp</text>
</a>
</g>
</g>
<!-- Node19&#45;&gt;Node20 -->
<g id="edge27" class="edge">
<title>Node19&#45;&gt;Node20</title>
<path fill="none" stroke="midnightblue" d="M1071.38,-109C1056.7,-101.84 1040.88,-91.12 1032.5,-76 1022.4,-57.78 1032.22,-32.61 1038.74,-19.59"/>
<polygon fill="midnightblue" stroke="midnightblue" points="1070.22,-112.32 1080.77,-113.21 1073.08,-105.93 1070.22,-112.32"/>
</g>
<!-- Node21 -->
<g id="node21" class="node">
<title>Node21</title>
<g id="a_node21"><a xlink:href="sdr__ops_8_h.html" target="_top" xlink:title=" ">
<polygon fill="white" stroke="black" points="1042,-56.5 1042,-75.5 1107,-75.5 1107,-56.5 1042,-56.5"/>
<text text-anchor="middle" x="1074.5" y="-63.5" font-family="Helvetica,sans-Serif" font-size="10.00">sdr_ops.H</text>
</a>
</g>
</g>
<!-- Node19&#45;&gt;Node21 -->
<g id="edge28" class="edge">
<title>Node19&#45;&gt;Node21</title>
<path fill="none" stroke="midnightblue" d="M1094.65,-103.27C1089.53,-94.05 1083.48,-83.17 1079.36,-75.75"/>
<polygon fill="midnightblue" stroke="midnightblue" points="1091.63,-105.04 1099.55,-112.08 1097.75,-101.64 1091.63,-105.04"/>
</g>
<!-- Node22 -->
<g id="node22" class="node">
<title>Node22</title>
<g id="a_node22"><a xlink:href="_k_omega_s_s_t_8cpp.html" target="_top" xlink:title=" ">
<polygon fill="white" stroke="black" points="1150,-0.5 1150,-19.5 1245,-19.5 1245,-0.5 1150,-0.5"/>
<text text-anchor="middle" x="1197.5" y="-7.5" font-family="Helvetica,sans-Serif" font-size="10.00">KOmegaSST.cpp</text>
</a>
</g>
</g>
<!-- Node19&#45;&gt;Node22 -->
<g id="edge30" class="edge">
<title>Node19&#45;&gt;Node22</title>
<path fill="none" stroke="midnightblue" d="M1116.71,-104.12C1126.56,-90.76 1140.94,-71.8 1154.5,-56 1165.76,-42.88 1179.74,-28.58 1188.64,-19.7"/>
<polygon fill="midnightblue" stroke="midnightblue" points="1113.77,-102.22 1110.69,-112.36 1119.42,-106.35 1113.77,-102.22"/>
</g>
<!-- Node23 -->
<g id="node23" class="node">
<title>Node23</title>
<g id="a_node23"><a xlink:href="_k_omega_s_s_t_i_8_h.html" target="_top" xlink:title=" ">
<polygon fill="white" stroke="black" points="1164,-56.5 1164,-75.5 1253,-75.5 1253,-56.5 1164,-56.5"/>
<text text-anchor="middle" x="1208.5" y="-63.5" font-family="Helvetica,sans-Serif" font-size="10.00">KOmegaSSTI.H</text>
</a>
</g>
</g>
<!-- Node19&#45;&gt;Node23 -->
<g id="edge31" class="edge">
<title>Node19&#45;&gt;Node23</title>
<path fill="none" stroke="midnightblue" d="M1130.33,-107.59C1149.56,-97.61 1175.24,-84.27 1191.83,-75.65"/>
<polygon fill="midnightblue" stroke="midnightblue" points="1128.47,-104.61 1121.21,-112.32 1131.7,-110.82 1128.47,-104.61"/>
</g>
<!-- Node24 -->
<g id="node24" class="node">
<title>Node24</title>
<g id="a_node24"><a xlink:href="_k_omega_s_s_t_i_d_d_e_s_8cpp.html" target="_top" xlink:title=" ">
<polygon fill="white" stroke="black" points="1263.5,-0.5 1263.5,-19.5 1389.5,-19.5 1389.5,-0.5 1263.5,-0.5"/>
<text text-anchor="middle" x="1326.5" y="-7.5" font-family="Helvetica,sans-Serif" font-size="10.00">KOmegaSSTIDDES.cpp</text>
</a>
</g>
</g>
<!-- Node19&#45;&gt;Node24 -->
<g id="edge34" class="edge">
<title>Node19&#45;&gt;Node24</title>
<path fill="none" stroke="midnightblue" d="M1138.14,-116.4C1171.33,-110.74 1222.59,-98.92 1261.5,-76 1287.08,-60.94 1309.8,-33.45 1320.32,-19.54"/>
<polygon fill="midnightblue" stroke="midnightblue" points="1137.36,-112.98 1128.04,-118.02 1138.47,-119.89 1137.36,-112.98"/>
</g>
<!-- Node21&#45;&gt;Node20 -->
<g id="edge29" class="edge">
<title>Node21&#45;&gt;Node20</title>
<path fill="none" stroke="midnightblue" d="M1064.32,-47.27C1059.03,-38.05 1052.78,-27.17 1048.52,-19.75"/>
<polygon fill="midnightblue" stroke="midnightblue" points="1061.37,-49.15 1069.38,-56.08 1067.44,-45.67 1061.37,-49.15"/>
</g>
<!-- Node23&#45;&gt;Node22 -->
<g id="edge32" class="edge">
<title>Node23&#45;&gt;Node22</title>
<path fill="none" stroke="midnightblue" d="M1204.65,-46.1C1202.82,-37.14 1200.73,-26.86 1199.28,-19.75"/>
<polygon fill="midnightblue" stroke="midnightblue" points="1201.26,-46.98 1206.68,-56.08 1208.12,-45.59 1201.26,-46.98"/>
</g>
<!-- Node23&#45;&gt;Node24 -->
<g id="edge33" class="edge">
<title>Node23&#45;&gt;Node24</title>
<path fill="none" stroke="midnightblue" d="M1236.4,-52.23C1258.47,-42.13 1288.68,-28.31 1307.89,-19.52"/>
<polygon fill="midnightblue" stroke="midnightblue" points="1234.83,-49.1 1227.2,-56.44 1237.75,-55.46 1234.83,-49.1"/>
</g>
<!-- Node26 -->
<g id="node26" class="node">
<title>Node26</title>
<g id="a_node26"><a xlink:href="temperature_8cpp.html" target="_top" xlink:title=" ">
<polygon fill="white" stroke="black" points="1715.5,-56.5 1715.5,-75.5 1813.5,-75.5 1813.5,-56.5 1715.5,-56.5"/>
<text text-anchor="middle" x="1764.5" y="-63.5" font-family="Helvetica,sans-Serif" font-size="10.00">temperature.cpp</text>
</a>
</g>
</g>
<!-- Node25&#45;&gt;Node26 -->
<g id="edge36" class="edge">
<title>Node25&#45;&gt;Node26</title>
<path fill="none" stroke="midnightblue" d="M1646.95,-109.04C1675.36,-98.88 1715.44,-84.55 1740.69,-75.52"/>
<polygon fill="midnightblue" stroke="midnightblue" points="1645.66,-105.78 1637.43,-112.44 1648.02,-112.37 1645.66,-105.78"/>
</g>
<!-- Node27&#45;&gt;Node22 -->
<g id="edge42" class="edge">
<title>Node27&#45;&gt;Node22</title>
<path fill="none" stroke="midnightblue" d="M1353.73,-107.01C1316.16,-83.92 1242.27,-38.51 1211.48,-19.59"/>
<polygon fill="midnightblue" stroke="midnightblue" points="1352.1,-110.11 1362.45,-112.37 1355.77,-104.15 1352.1,-110.11"/>
</g>
<!-- Node27&#45;&gt;Node23 -->
<g id="edge43" class="edge">
<title>Node27&#45;&gt;Node23</title>
<path fill="none" stroke="midnightblue" d="M1343.79,-110.49C1312.08,-100.29 1264.56,-85.02 1235.1,-75.55"/>
<polygon fill="midnightblue" stroke="midnightblue" points="1342.9,-113.88 1353.49,-113.6 1345.04,-107.21 1342.9,-113.88"/>
</g>
<!-- Node27&#45;&gt;Node24 -->
<g id="edge44" class="edge">
<title>Node27&#45;&gt;Node24</title>
<path fill="none" stroke="midnightblue" d="M1368.32,-103C1357.41,-79 1338.53,-37.47 1330.41,-19.59"/>
<polygon fill="midnightblue" stroke="midnightblue" points="1365.25,-104.71 1372.58,-112.37 1371.62,-101.82 1365.25,-104.71"/>
</g>
<!-- Node28 -->
<g id="node28" class="node">
<title>Node28</title>
<g id="a_node28"><a xlink:href="_t_k_e_8cpp.html" target="_top" xlink:title=" ">
<polygon fill="white" stroke="black" points="1414.5,-0.5 1414.5,-19.5 1470.5,-19.5 1470.5,-0.5 1414.5,-0.5"/>
<text text-anchor="middle" x="1442.5" y="-7.5" font-family="Helvetica,sans-Serif" font-size="10.00">TKE.cpp</text>
</a>
</g>
</g>
<!-- Node27&#45;&gt;Node28 -->
<g id="edge38" class="edge">
<title>Node27&#45;&gt;Node28</title>
<path fill="none" stroke="midnightblue" d="M1386.72,-103.22C1394.29,-90.11 1404.92,-71.88 1414.5,-56 1422.2,-43.24 1431.37,-28.61 1437.06,-19.58"/>
<polygon fill="midnightblue" stroke="midnightblue" points="1383.55,-101.71 1381.59,-112.12 1389.61,-105.21 1383.55,-101.71"/>
</g>
<!-- Node29 -->
<g id="node29" class="node">
<title>Node29</title>
<g id="a_node29"><a xlink:href="tke__ops_8_h.html" target="_top" xlink:title=" ">
<polygon fill="white" stroke="black" points="1424,-56.5 1424,-75.5 1489,-75.5 1489,-56.5 1424,-56.5"/>
<text text-anchor="middle" x="1456.5" y="-63.5" font-family="Helvetica,sans-Serif" font-size="10.00">tke_ops.H</text>
</a>
</g>
</g>
<!-- Node27&#45;&gt;Node29 -->
<g id="edge39" class="edge">
<title>Node27&#45;&gt;Node29</title>
<path fill="none" stroke="midnightblue" d="M1397.8,-106.62C1412.42,-96.76 1431.33,-83.99 1443.68,-75.65"/>
<polygon fill="midnightblue" stroke="midnightblue" points="1395.68,-103.83 1389.35,-112.32 1399.6,-109.63 1395.68,-103.83"/>
</g>
<!-- Node30 -->
<g id="node30" class="node">
<title>Node30</title>
<g id="a_node30"><a xlink:href="_one_eq_ksgs_8cpp.html" target="_top" xlink:title=" ">
<polygon fill="white" stroke="black" points="1507.5,-56.5 1507.5,-75.5 1599.5,-75.5 1599.5,-56.5 1507.5,-56.5"/>
<text text-anchor="middle" x="1553.5" y="-63.5" font-family="Helvetica,sans-Serif" font-size="10.00">OneEqKsgs.cpp</text>
</a>
</g>
</g>
<!-- Node27&#45;&gt;Node30 -->
<g id="edge41" class="edge">
<title>Node27&#45;&gt;Node30</title>
<path fill="none" stroke="midnightblue" d="M1409.38,-110.97C1442.75,-100.79 1493.85,-85.2 1525.39,-75.58"/>
<polygon fill="midnightblue" stroke="midnightblue" points="1408.18,-107.67 1399.64,-113.94 1410.23,-114.37 1408.18,-107.67"/>
</g>
<!-- Node31 -->
<g id="node31" class="node">
<title>Node31</title>
<g id="a_node31"><a xlink:href="_a_b_l_stats_8cpp.html" target="_top" xlink:title=" ">
<polygon fill="white" stroke="black" points="1617.5,-56.5 1617.5,-75.5 1697.5,-75.5 1697.5,-56.5 1617.5,-56.5"/>
<text text-anchor="middle" x="1657.5" y="-63.5" font-family="Helvetica,sans-Serif" font-size="10.00">ABLStats.cpp</text>
</a>
</g>
</g>
<!-- Node27&#45;&gt;Node31 -->
<g id="edge45" class="edge">
<title>Node27&#45;&gt;Node31</title>
<path fill="none" stroke="midnightblue" d="M1410,-114.56C1461.95,-104.58 1561.73,-85.4 1617.42,-74.7"/>
<polygon fill="midnightblue" stroke="midnightblue" points="1409.13,-111.16 1399.97,-116.49 1410.46,-118.04 1409.13,-111.16"/>
</g>
<!-- Node29&#45;&gt;Node28 -->
<g id="edge40" class="edge">
<title>Node29&#45;&gt;Node28</title>
<path fill="none" stroke="midnightblue" d="M1451.68,-46.4C1449.33,-37.36 1446.63,-26.94 1444.77,-19.75"/>
<polygon fill="midnightblue" stroke="midnightblue" points="1448.29,-47.28 1454.19,-56.08 1455.07,-45.52 1448.29,-47.28"/>
</g>
<!-- Node33 -->
<g id="node33" class="node">
<title>Node33</title>
<g id="a_node33"><a xlink:href="vof_8cpp.html" target="_top" xlink:title=" ">
<polygon fill="white" stroke="black" points="1942.5,-0.5 1942.5,-19.5 1994.5,-19.5 1994.5,-0.5 1942.5,-0.5"/>
<text text-anchor="middle" x="1968.5" y="-7.5" font-family="Helvetica,sans-Serif" font-size="10.00">vof.cpp</text>
</a>
</g>
</g>
<!-- Node32&#45;&gt;Node33 -->
<g id="edge47" class="edge">
<title>Node32&#45;&gt;Node33</title>
<path fill="none" stroke="midnightblue" d="M1891.18,-107.26C1870.7,-94.67 1847.74,-75.15 1860.5,-56 1878.64,-28.79 1916.68,-18.01 1942.41,-13.75"/>
<polygon fill="midnightblue" stroke="midnightblue" points="1889.58,-110.37 1899.99,-112.36 1893.09,-104.32 1889.58,-110.37"/>
</g>
<!-- Node34 -->
<g id="node34" class="node">
<title>Node34</title>
<g id="a_node34"><a xlink:href="vof__advection_8_h.html" target="_top" xlink:title=" ">
<polygon fill="white" stroke="black" points="1869.5,-56.5 1869.5,-75.5 1965.5,-75.5 1965.5,-56.5 1869.5,-56.5"/>
<text text-anchor="middle" x="1917.5" y="-63.5" font-family="Helvetica,sans-Serif" font-size="10.00">vof_advection.H</text>
</a>
</g>
</g>
<!-- Node32&#45;&gt;Node34 -->
<g id="edge48" class="edge">
<title>Node32&#45;&gt;Node34</title>
<path fill="none" stroke="midnightblue" d="M1917.5,-101.8C1917.5,-92.91 1917.5,-82.78 1917.5,-75.75"/>
<polygon fill="midnightblue" stroke="midnightblue" points="1914,-102.08 1917.5,-112.08 1921,-102.08 1914,-102.08"/>
</g>
<!-- Node35 -->
<g id="node35" class="node">
<title>Node35</title>
<g id="a_node35"><a xlink:href="vof__bcop_8_h.html" target="_top" xlink:title=" ">
<polygon fill="white" stroke="black" points="1984,-56.5 1984,-75.5 2055,-75.5 2055,-56.5 1984,-56.5"/>
<text text-anchor="middle" x="2019.5" y="-63.5" font-family="Helvetica,sans-Serif" font-size="10.00">vof_bcop.H</text>
</a>
</g>
</g>
<!-- Node32&#45;&gt;Node35 -->
<g id="edge50" class="edge">
<title>Node32&#45;&gt;Node35</title>
<path fill="none" stroke="midnightblue" d="M1942.83,-107.59C1961.69,-97.61 1986.88,-84.27 2003.15,-75.65"/>
<polygon fill="midnightblue" stroke="midnightblue" points="1941.09,-104.55 1933.89,-112.32 1944.36,-110.74 1941.09,-104.55"/>
</g>
<!-- Node36 -->
<g id="node36" class="node">
<title>Node36</title>
<g id="a_node36"><a xlink:href="vof__ops_8_h.html" target="_top" xlink:title=" ">
<polygon fill="white" stroke="black" points="2073,-56.5 2073,-75.5 2138,-75.5 2138,-56.5 2073,-56.5"/>
<text text-anchor="middle" x="2105.5" y="-63.5" font-family="Helvetica,sans-Serif" font-size="10.00">vof_ops.H</text>
</a>
</g>
</g>
<!-- Node32&#45;&gt;Node36 -->
<g id="edge52" class="edge">
<title>Node32&#45;&gt;Node36</title>
<path fill="none" stroke="midnightblue" d="M1948.46,-112.11C1983.73,-101.98 2040.97,-85.53 2075.74,-75.55"/>
<polygon fill="midnightblue" stroke="midnightblue" points="1947.35,-108.79 1938.7,-114.91 1949.28,-115.51 1947.35,-108.79"/>
</g>
<!-- Node34&#45;&gt;Node33 -->
<g id="edge49" class="edge">
<title>Node34&#45;&gt;Node33</title>
<path fill="none" stroke="midnightblue" d="M1932.88,-48.72C1941.87,-39.2 1952.86,-27.56 1960.24,-19.75"/>
<polygon fill="midnightblue" stroke="midnightblue" points="1930.24,-46.41 1925.92,-56.08 1935.33,-51.22 1930.24,-46.41"/>
</g>
<!-- Node35&#45;&gt;Node33 -->
<g id="edge51" class="edge">
<title>Node35&#45;&gt;Node33</title>
<path fill="none" stroke="midnightblue" d="M2004.12,-48.72C1995.13,-39.2 1984.14,-27.56 1976.76,-19.75"/>
<polygon fill="midnightblue" stroke="midnightblue" points="2001.67,-51.22 2011.08,-56.08 2006.76,-46.41 2001.67,-51.22"/>
</g>
<!-- Node36&#45;&gt;Node33 -->
<g id="edge53" class="edge">
<title>Node36&#45;&gt;Node33</title>
<path fill="none" stroke="midnightblue" d="M2074.48,-52.77C2048.74,-42.63 2012.81,-28.47 1990.11,-19.52"/>
<polygon fill="midnightblue" stroke="midnightblue" points="2073.21,-56.03 2083.79,-56.44 2075.77,-49.52 2073.21,-56.03"/>
</g>
</g>
</svg>
        <g id="navigator" transform="translate(0 0)" fill="#404254">
                <rect fill="#f2f5e9" fill-opacity="0.5" stroke="#606060" stroke-width=".5" x="0" y="0" width="60" height="60"/>
                <use id="zoomplus" xlink:href="#zoomPlus" x="17" y="9" onmousedown="handleZoom(evt,'in')"/>
                <use id="zoomminus" xlink:href="#zoomMin" x="42" y="9" onmousedown="handleZoom(evt,'out')"/>
                <use id="reset" xlink:href="#resetDef" x="30" y="36" onmousedown="handleReset()"/>
                <g id="arrowUp" xlink:href="#dirArrow" transform="translate(30 24)" onmousedown="handlePan(0,-1)">
                  <use xlink:href="#rim" fill="#404040">
                        <set attributeName="fill" to="#808080" begin="arrowUp.mouseover" end="arrowUp.mouseout"/>
                  </use>
                  <path fill="none" stroke="white" stroke-width="1.5" d="M0,-3.0v7 M-2.5,-0.5L0,-3.0L2.5,-0.5"/>
                </g>
                <g id="arrowRight" xlink:href="#dirArrow" transform="rotate(90) translate(36 -43)" onmousedown="handlePan(1,0)">
                  <use xlink:href="#rim" fill="#404040">
                        <set attributeName="fill" to="#808080" begin="arrowRight.mouseover" end="arrowRight.mouseout"/>
                  </use>
                  <path fill="none" stroke="white" stroke-width="1.5" d="M0,-3.0v7 M-2.5,-0.5L0,-3.0L2.5,-0.5"/>
                </g>
                <g id="arrowDown" xlink:href="#dirArrow" transform="rotate(180) translate(-30 -48)" onmousedown="handlePan(0,1)">
                  <use xlink:href="#rim" fill="#404040">
                        <set attributeName="fill" to="#808080" begin="arrowDown.mouseover" end="arrowDown.mouseout"/>
                  </use>
                  <path fill="none" stroke="white" stroke-width="1.5" d="M0,-3.0v7 M-2.5,-0.5L0,-3.0L2.5,-0.5"/>
                </g>
                <g id="arrowLeft" xlink:href="#dirArrow" transform="rotate(270) translate(-36 17)" onmousedown="handlePan(-1,0)">
                  <use xlink:href="#rim" fill="#404040">
                        <set attributeName="fill" to="#808080" begin="arrowLeft.mouseover" end="arrowLeft.mouseout"/>
                  </use>
                  <path fill="none" stroke="white" stroke-width="1.5" d="M0,-3.0v7 M-2.5,-0.5L0,-3.0L2.5,-0.5"/>
                </g>
        </g>
        <svg viewBox="0 0 15 15" width="100%" height="30px" preserveAspectRatio="xMaxYMin meet">
         <g id="arrow_out" transform="scale(0.3 0.3)">
          <a xlink:href="_diffusion_ops_8_h__dep__incl_org.svg" target="_base">
           <rect id="button" ry="5" rx="5" y="6" x="6" height="38" width="38"
                fill="#f2f5e9" fill-opacity="0.5" stroke="#606060" stroke-width="1.0"/>
           <path id="arrow"
             d="M 11.500037,31.436501 C 11.940474,20.09759 22.043105,11.32322 32.158766,21.979434 L 37.068811,17.246167 C 37.068811,17.246167 37.088388,32 37.088388,32 L 22.160133,31.978069 C 22.160133,31.978069 26.997745,27.140456 26.997745,27.140456 C 18.528582,18.264221 13.291696,25.230495 11.500037,31.436501 z"
             style="fill:#404040;"/>
          </a>
         </g>
        </svg>
</svg>
