<?xml version="1.0" encoding="UTF-8" standalone="no"?>
<!DOCTYPE svg PUBLIC "-//W3C//DTD SVG 1.1//EN"
 "http://www.w3.org/Graphics/SVG/1.1/DTD/svg11.dtd">
<!-- Generated by graphviz version 2.43.0 (0)
 -->
<!-- Title: DirectionSelector.H Pages: 1 -->
<svg width="1483pt" height="319pt"
 viewBox="0.00 0.00 1483.00 319.00" xmlns="http://www.w3.org/2000/svg" xmlns:xlink="http://www.w3.org/1999/xlink">
<g id="graph0" class="graph" transform="scale(1 1) rotate(0) translate(4 315)">
<title>DirectionSelector.H</title>
<polygon fill="white" stroke="transparent" points="-4,4 -4,-315 1479,-315 1479,4 -4,4"/>
<!-- Node1 -->
<g id="node1" class="node">
<title>Node1</title>
<g id="a_node1"><a xlink:title=" ">
<polygon fill="#bfbfbf" stroke="black" points="355,-291.5 355,-310.5 465,-310.5 465,-291.5 355,-291.5"/>
<text text-anchor="middle" x="410" y="-298.5" font-family="Helvetica,sans-Serif" font-size="10.00">DirectionSelector.H</text>
</a>
</g>
</g>
<!-- Node2 -->
<g id="node2" class="node">
<title>Node2</title>
<g id="a_node2"><a xlink:href="_channel_flow_8cpp.html" target="_top" xlink:title=" ">
<polygon fill="white" stroke="black" points="70.5,-67.5 70.5,-86.5 169.5,-86.5 169.5,-67.5 70.5,-67.5"/>
<text text-anchor="middle" x="120" y="-74.5" font-family="Helvetica,sans-Serif" font-size="10.00">ChannelFlow.cpp</text>
</a>
</g>
</g>
<!-- Node1&#45;&gt;Node2 -->
<g id="edge1" class="edge">
<title>Node1&#45;&gt;Node2</title>
<path fill="none" stroke="midnightblue" d="M344.64,-290.75C252.46,-276.22 91.59,-244.87 57,-199 28.2,-160.8 84.07,-107.55 108.93,-86.78"/>
<polygon fill="midnightblue" stroke="midnightblue" points="344.29,-294.24 354.71,-292.31 345.37,-287.32 344.29,-294.24"/>
</g>
<!-- Node3 -->
<g id="node3" class="node">
<title>Node3</title>
<g id="a_node3"><a xlink:href="_field_plane_averaging_8_h.html" target="_top" xlink:title=" ">
<polygon fill="white" stroke="black" points="892,-235.5 892,-254.5 1018,-254.5 1018,-235.5 892,-235.5"/>
<text text-anchor="middle" x="955" y="-242.5" font-family="Helvetica,sans-Serif" font-size="10.00">FieldPlaneAveraging.H</text>
</a>
</g>
</g>
<!-- Node1&#45;&gt;Node3 -->
<g id="edge2" class="edge">
<title>Node1&#45;&gt;Node3</title>
<path fill="none" stroke="midnightblue" d="M475.19,-293.54C580.64,-283.09 787.3,-262.62 891.59,-252.28"/>
<polygon fill="midnightblue" stroke="midnightblue" points="474.61,-290.08 465,-294.55 475.3,-297.05 474.61,-290.08"/>
</g>
<!-- Node10 -->
<g id="node10" class="node">
<title>Node10</title>
<g id="a_node10"><a xlink:href="_second_moment_averaging_8_h.html" target="_top" xlink:title=" ">
<polygon fill="white" stroke="black" points="407,-179.5 407,-198.5 559,-198.5 559,-179.5 407,-179.5"/>
<text text-anchor="middle" x="483" y="-186.5" font-family="Helvetica,sans-Serif" font-size="10.00">SecondMomentAveraging.H</text>
</a>
</g>
</g>
<!-- Node1&#45;&gt;Node10 -->
<g id="edge44" class="edge">
<title>Node1&#45;&gt;Node10</title>
<path fill="none" stroke="midnightblue" d="M421.45,-282.85C427.05,-274.46 433.89,-264.21 440,-255 453.32,-234.94 468.91,-211.35 477.17,-198.84"/>
<polygon fill="midnightblue" stroke="midnightblue" points="418.4,-281.12 415.76,-291.38 424.22,-285.01 418.4,-281.12"/>
</g>
<!-- Node13 -->
<g id="node13" class="node">
<title>Node13</title>
<g id="a_node13"><a xlink:href="_a_b_l_stats_8cpp.html" target="_top" xlink:title=" ">
<polygon fill="white" stroke="black" points="231,-6 231,-25 311,-25 311,-6 231,-6"/>
<text text-anchor="middle" x="271" y="-13" font-family="Helvetica,sans-Serif" font-size="10.00">ABLStats.cpp</text>
</a>
</g>
</g>
<!-- Node1&#45;&gt;Node13 -->
<g id="edge46" class="edge">
<title>Node1&#45;&gt;Node13</title>
<path fill="none" stroke="midnightblue" d="M344.54,-295.97C228.78,-287.04 0,-260.47 0,-190 0,-190 0,-190 0,-132 0,-32.91 155.23,-17.65 230.72,-16.09"/>
<polygon fill="midnightblue" stroke="midnightblue" points="344.47,-299.48 354.71,-296.73 345,-292.49 344.47,-299.48"/>
</g>
<!-- Node14 -->
<g id="node14" class="node">
<title>Node14</title>
<g id="a_node14"><a xlink:href="_third_moment_averaging_8_h.html" target="_top" xlink:title=" ">
<polygon fill="white" stroke="black" points="1155.5,-179.5 1155.5,-198.5 1296.5,-198.5 1296.5,-179.5 1155.5,-179.5"/>
<text text-anchor="middle" x="1226" y="-186.5" font-family="Helvetica,sans-Serif" font-size="10.00">ThirdMomentAveraging.H</text>
</a>
</g>
</g>
<!-- Node1&#45;&gt;Node14 -->
<g id="edge45" class="edge">
<title>Node1&#45;&gt;Node14</title>
<path fill="none" stroke="midnightblue" d="M475.31,-300.41C588.67,-299.98 828.75,-294 1027,-255 1094.04,-241.81 1169.94,-212.94 1205.53,-198.53"/>
<polygon fill="midnightblue" stroke="midnightblue" points="475.06,-296.91 465.07,-300.44 475.07,-303.91 475.06,-296.91"/>
</g>
<!-- Node26 -->
<g id="node26" class="node">
<title>Node26</title>
<g id="a_node26"><a xlink:href="_field_plane_averaging_fine_8_h.html" target="_top" xlink:title=" ">
<polygon fill="white" stroke="black" points="285,-235.5 285,-254.5 431,-254.5 431,-235.5 285,-235.5"/>
<text text-anchor="middle" x="358" y="-242.5" font-family="Helvetica,sans-Serif" font-size="10.00">FieldPlaneAveragingFine.H</text>
</a>
</g>
</g>
<!-- Node1&#45;&gt;Node26 -->
<g id="edge36" class="edge">
<title>Node1&#45;&gt;Node26</title>
<path fill="none" stroke="midnightblue" d="M394.32,-283.72C385.16,-274.2 373.95,-262.56 366.43,-254.75"/>
<polygon fill="midnightblue" stroke="midnightblue" points="391.96,-286.31 401.41,-291.08 397,-281.45 391.96,-286.31"/>
</g>
<!-- Node4 -->
<g id="node4" class="node">
<title>Node4</title>
<g id="a_node4"><a xlink:href="_a_b_l_mean_boussinesq_8_h.html" target="_top" xlink:title=" ">
<polygon fill="white" stroke="black" points="1130,-67.5 1130,-86.5 1258,-86.5 1258,-67.5 1130,-67.5"/>
<text text-anchor="middle" x="1194" y="-74.5" font-family="Helvetica,sans-Serif" font-size="10.00">ABLMeanBoussinesq.H</text>
</a>
</g>
</g>
<!-- Node3&#45;&gt;Node4 -->
<g id="edge3" class="edge">
<title>Node3&#45;&gt;Node4</title>
<path fill="none" stroke="midnightblue" d="M989.14,-231.77C1007.91,-224.08 1030.97,-212.96 1049,-199 1083.92,-171.97 1078.91,-151.07 1113,-123 1131.87,-107.45 1156.89,-94.5 1174.1,-86.55"/>
<polygon fill="midnightblue" stroke="midnightblue" points="987.78,-228.55 979.77,-235.48 990.35,-235.06 987.78,-228.55"/>
</g>
<!-- Node7 -->
<g id="node7" class="node">
<title>Node7</title>
<g id="a_node7"><a xlink:href="_hurricane_forcing_8_h.html" target="_top" xlink:title=" ">
<polygon fill="white" stroke="black" points="1286,-67.5 1286,-86.5 1396,-86.5 1396,-67.5 1286,-67.5"/>
<text text-anchor="middle" x="1341" y="-74.5" font-family="Helvetica,sans-Serif" font-size="10.00">HurricaneForcing.H</text>
</a>
</g>
</g>
<!-- Node3&#45;&gt;Node7 -->
<g id="edge6" class="edge">
<title>Node3&#45;&gt;Node7</title>
<path fill="none" stroke="midnightblue" d="M998.26,-232.48C1021.57,-225.08 1050.16,-214.02 1073,-199 1112.4,-173.1 1105.93,-146.15 1147,-123 1171.09,-109.42 1240.85,-95.23 1289.78,-86.51"/>
<polygon fill="midnightblue" stroke="midnightblue" points="997.16,-229.16 988.62,-235.43 999.21,-235.85 997.16,-229.16"/>
</g>
<!-- Node9 -->
<g id="node9" class="node">
<title>Node9</title>
<g id="a_node9"><a xlink:href="_field_plane_averaging_8cpp.html" target="_top" xlink:title=" ">
<polygon fill="white" stroke="black" points="887,-179.5 887,-198.5 1023,-198.5 1023,-179.5 887,-179.5"/>
<text text-anchor="middle" x="955" y="-186.5" font-family="Helvetica,sans-Serif" font-size="10.00">FieldPlaneAveraging.cpp</text>
</a>
</g>
</g>
<!-- Node3&#45;&gt;Node9 -->
<g id="edge9" class="edge">
<title>Node3&#45;&gt;Node9</title>
<path fill="none" stroke="midnightblue" d="M955,-224.8C955,-215.91 955,-205.78 955,-198.75"/>
<polygon fill="midnightblue" stroke="midnightblue" points="951.5,-225.08 955,-235.08 958.5,-225.08 951.5,-225.08"/>
</g>
<!-- Node3&#45;&gt;Node10 -->
<g id="edge10" class="edge">
<title>Node3&#45;&gt;Node10</title>
<path fill="none" stroke="midnightblue" d="M881.64,-235.61C793.42,-225.51 646.16,-208.67 557.45,-198.52"/>
<polygon fill="midnightblue" stroke="midnightblue" points="881.5,-239.11 891.83,-236.77 882.3,-232.16 881.5,-239.11"/>
</g>
<!-- Node12 -->
<g id="node12" class="node">
<title>Node12</title>
<g id="a_node12"><a xlink:href="_a_b_l_stats_8_h.html" target="_top" xlink:title=" ">
<polygon fill="white" stroke="black" points="567.5,-67.5 567.5,-86.5 638.5,-86.5 638.5,-67.5 567.5,-67.5"/>
<text text-anchor="middle" x="603" y="-74.5" font-family="Helvetica,sans-Serif" font-size="10.00">ABLStats.H</text>
</a>
</g>
</g>
<!-- Node3&#45;&gt;Node12 -->
<g id="edge27" class="edge">
<title>Node3&#45;&gt;Node12</title>
<path fill="none" stroke="midnightblue" d="M881.84,-242.96C805.34,-237.7 687.5,-217.05 622,-143 607.67,-126.8 604.12,-100.31 603.26,-86.69"/>
<polygon fill="midnightblue" stroke="midnightblue" points="881.69,-246.46 891.88,-243.58 882.12,-239.47 881.69,-246.46"/>
</g>
<!-- Node3&#45;&gt;Node14 -->
<g id="edge14" class="edge">
<title>Node3&#45;&gt;Node14</title>
<path fill="none" stroke="midnightblue" d="M1007.83,-233.47C1059.04,-223.27 1135.77,-207.98 1183.26,-198.52"/>
<polygon fill="midnightblue" stroke="midnightblue" points="1007.06,-230.06 997.94,-235.44 1008.43,-236.92 1007.06,-230.06"/>
</g>
<!-- Node16 -->
<g id="node16" class="node">
<title>Node16</title>
<g id="a_node16"><a xlink:href="_a_b_l_8_h.html" target="_top" xlink:title=" ">
<polygon fill="white" stroke="black" points="1003,-67.5 1003,-86.5 1049,-86.5 1049,-67.5 1003,-67.5"/>
<text text-anchor="middle" x="1026" y="-74.5" font-family="Helvetica,sans-Serif" font-size="10.00">ABL.H</text>
</a>
</g>
</g>
<!-- Node3&#45;&gt;Node16 -->
<g id="edge17" class="edge">
<title>Node3&#45;&gt;Node16</title>
<path fill="none" stroke="midnightblue" d="M992.57,-231.54C1007.61,-224.5 1023.38,-214.01 1032,-199 1053.25,-161.97 1037.03,-107.58 1029.4,-86.65"/>
<polygon fill="midnightblue" stroke="midnightblue" points="991.18,-228.33 983.37,-235.49 993.94,-234.76 991.18,-228.33"/>
</g>
<!-- Node23 -->
<g id="node23" class="node">
<title>Node23</title>
<g id="a_node23"><a xlink:href="_a_b_l_wall_function_8_h.html" target="_top" xlink:title=" ">
<polygon fill="white" stroke="black" points="761.5,-179.5 761.5,-198.5 868.5,-198.5 868.5,-179.5 761.5,-179.5"/>
<text text-anchor="middle" x="815" y="-186.5" font-family="Helvetica,sans-Serif" font-size="10.00">ABLWallFunction.H</text>
</a>
</g>
</g>
<!-- Node3&#45;&gt;Node23 -->
<g id="edge28" class="edge">
<title>Node3&#45;&gt;Node23</title>
<path fill="none" stroke="midnightblue" d="M923.3,-231.77C897,-221.63 860.28,-207.47 837.08,-198.52"/>
<polygon fill="midnightblue" stroke="midnightblue" points="922.23,-235.11 932.82,-235.44 924.75,-228.58 922.23,-235.11"/>
</g>
<!-- Node5 -->
<g id="node5" class="node">
<title>Node5</title>
<g id="a_node5"><a xlink:href="_a_b_l_mean_boussinesq_8cpp.html" target="_top" xlink:title=" ">
<polygon fill="white" stroke="black" points="1125,-6 1125,-25 1263,-25 1263,-6 1125,-6"/>
<text text-anchor="middle" x="1194" y="-13" font-family="Helvetica,sans-Serif" font-size="10.00">ABLMeanBoussinesq.cpp</text>
</a>
</g>
</g>
<!-- Node4&#45;&gt;Node5 -->
<g id="edge4" class="edge">
<title>Node4&#45;&gt;Node5</title>
<path fill="none" stroke="midnightblue" d="M1194,-57.32C1194,-46.5 1194,-33.4 1194,-25.01"/>
<polygon fill="midnightblue" stroke="midnightblue" points="1190.5,-57.48 1194,-67.48 1197.5,-57.48 1190.5,-57.48"/>
</g>
<!-- Node6 -->
<g id="node6" class="node">
<title>Node6</title>
<g id="a_node6"><a xlink:href="_a_b_l_8cpp.html" target="_top" xlink:title=" ">
<polygon fill="white" stroke="black" points="1419,-6 1419,-25 1475,-25 1475,-6 1419,-6"/>
<text text-anchor="middle" x="1447" y="-13" font-family="Helvetica,sans-Serif" font-size="10.00">ABL.cpp</text>
</a>
</g>
</g>
<!-- Node4&#45;&gt;Node6 -->
<g id="edge5" class="edge">
<title>Node4&#45;&gt;Node6</title>
<path fill="none" stroke="midnightblue" d="M1257.3,-65.71C1300.73,-57.95 1359.42,-46.06 1410,-31 1415.55,-29.35 1421.45,-27.22 1426.86,-25.1"/>
<polygon fill="midnightblue" stroke="midnightblue" points="1256.68,-62.26 1247.44,-67.45 1257.89,-69.16 1256.68,-62.26"/>
</g>
<!-- Node7&#45;&gt;Node6 -->
<g id="edge8" class="edge">
<title>Node7&#45;&gt;Node6</title>
<path fill="none" stroke="midnightblue" d="M1364.95,-62.56C1385.46,-51.04 1414.38,-34.81 1431.84,-25.01"/>
<polygon fill="midnightblue" stroke="midnightblue" points="1363.19,-59.53 1356.19,-67.48 1366.62,-65.63 1363.19,-59.53"/>
</g>
<!-- Node8 -->
<g id="node8" class="node">
<title>Node8</title>
<g id="a_node8"><a xlink:href="_hurricane_forcing_8cpp.html" target="_top" xlink:title=" ">
<polygon fill="white" stroke="black" points="1281.5,-6 1281.5,-25 1400.5,-25 1400.5,-6 1281.5,-6"/>
<text text-anchor="middle" x="1341" y="-13" font-family="Helvetica,sans-Serif" font-size="10.00">HurricaneForcing.cpp</text>
</a>
</g>
</g>
<!-- Node7&#45;&gt;Node8 -->
<g id="edge7" class="edge">
<title>Node7&#45;&gt;Node8</title>
<path fill="none" stroke="midnightblue" d="M1341,-57.32C1341,-46.5 1341,-33.4 1341,-25.01"/>
<polygon fill="midnightblue" stroke="midnightblue" points="1337.5,-57.48 1341,-67.48 1344.5,-57.48 1337.5,-57.48"/>
</g>
<!-- Node11 -->
<g id="node11" class="node">
<title>Node11</title>
<g id="a_node11"><a xlink:href="_second_moment_averaging_8cpp.html" target="_top" xlink:title=" ">
<polygon fill="white" stroke="black" points="413.5,-123.5 413.5,-142.5 574.5,-142.5 574.5,-123.5 413.5,-123.5"/>
<text text-anchor="middle" x="494" y="-130.5" font-family="Helvetica,sans-Serif" font-size="10.00">SecondMomentAveraging.cpp</text>
</a>
</g>
</g>
<!-- Node10&#45;&gt;Node11 -->
<g id="edge11" class="edge">
<title>Node10&#45;&gt;Node11</title>
<path fill="none" stroke="midnightblue" d="M486.85,-169.1C488.68,-160.14 490.77,-149.86 492.22,-142.75"/>
<polygon fill="midnightblue" stroke="midnightblue" points="483.38,-168.59 484.82,-179.08 490.24,-169.98 483.38,-168.59"/>
</g>
<!-- Node10&#45;&gt;Node12 -->
<g id="edge12" class="edge">
<title>Node10&#45;&gt;Node12</title>
<path fill="none" stroke="midnightblue" d="M447.78,-175.67C419.39,-163.79 386.82,-144.5 404,-123 424.07,-97.89 515.71,-85.76 567.35,-80.83"/>
<polygon fill="midnightblue" stroke="midnightblue" points="446.58,-178.96 457.16,-179.4 449.17,-172.46 446.58,-178.96"/>
</g>
<!-- Node12&#45;&gt;Node13 -->
<g id="edge13" class="edge">
<title>Node12&#45;&gt;Node13</title>
<path fill="none" stroke="midnightblue" d="M557.48,-67.84C492.26,-56.15 373.27,-34.83 311.16,-23.7"/>
<polygon fill="midnightblue" stroke="midnightblue" points="557.01,-71.31 567.47,-69.63 558.24,-64.42 557.01,-71.31"/>
</g>
<!-- Node14&#45;&gt;Node12 -->
<g id="edge16" class="edge">
<title>Node14&#45;&gt;Node12</title>
<path fill="none" stroke="midnightblue" d="M1179.22,-177.12C1119.02,-163.35 1011.1,-139.45 918,-123 817.09,-105.16 697.03,-89.55 638.55,-82.3"/>
<polygon fill="midnightblue" stroke="midnightblue" points="1178.64,-180.58 1189.17,-179.4 1180.21,-173.76 1178.64,-180.58"/>
</g>
<!-- Node15 -->
<g id="node15" class="node">
<title>Node15</title>
<g id="a_node15"><a xlink:href="_third_moment_averaging_8cpp.html" target="_top" xlink:title=" ">
<polygon fill="white" stroke="black" points="1155.5,-123.5 1155.5,-142.5 1306.5,-142.5 1306.5,-123.5 1155.5,-123.5"/>
<text text-anchor="middle" x="1231" y="-130.5" font-family="Helvetica,sans-Serif" font-size="10.00">ThirdMomentAveraging.cpp</text>
</a>
</g>
</g>
<!-- Node14&#45;&gt;Node15 -->
<g id="edge15" class="edge">
<title>Node14&#45;&gt;Node15</title>
<path fill="none" stroke="midnightblue" d="M1227.75,-169.1C1228.58,-160.14 1229.53,-149.86 1230.19,-142.75"/>
<polygon fill="midnightblue" stroke="midnightblue" points="1224.26,-168.8 1226.83,-179.08 1231.23,-169.45 1224.26,-168.8"/>
</g>
<!-- Node16&#45;&gt;Node5 -->
<g id="edge19" class="edge">
<title>Node16&#45;&gt;Node5</title>
<path fill="none" stroke="midnightblue" d="M1058.55,-64.47C1091.18,-52.91 1140.66,-35.39 1169.91,-25.03"/>
<polygon fill="midnightblue" stroke="midnightblue" points="1057.27,-61.21 1049.01,-67.85 1059.6,-67.81 1057.27,-61.21"/>
</g>
<!-- Node16&#45;&gt;Node6 -->
<g id="edge25" class="edge">
<title>Node16&#45;&gt;Node6</title>
<path fill="none" stroke="midnightblue" d="M1059.28,-72.59C1146.32,-63.62 1376.32,-39.42 1410,-31 1415.89,-29.53 1422.1,-27.35 1427.72,-25.13"/>
<polygon fill="midnightblue" stroke="midnightblue" points="1058.75,-69.13 1049.16,-73.64 1059.46,-76.09 1058.75,-69.13"/>
</g>
<!-- Node16&#45;&gt;Node8 -->
<g id="edge20" class="edge">
<title>Node16&#45;&gt;Node8</title>
<path fill="none" stroke="midnightblue" d="M1059.08,-70.23C1106.36,-61.93 1195.95,-45.94 1272,-31 1281.49,-29.14 1291.69,-27.04 1301.27,-25.04"/>
<polygon fill="midnightblue" stroke="midnightblue" points="1058.35,-66.81 1049.1,-71.98 1059.55,-73.7 1058.35,-66.81"/>
</g>
<!-- Node17 -->
<g id="node17" class="node">
<title>Node17</title>
<g id="a_node17"><a xlink:href="_a_b_l_forcing_8cpp.html" target="_top" xlink:title=" ">
<polygon fill="white" stroke="black" points="932.5,-6 932.5,-25 1023.5,-25 1023.5,-6 932.5,-6"/>
<text text-anchor="middle" x="978" y="-13" font-family="Helvetica,sans-Serif" font-size="10.00">ABLForcing.cpp</text>
</a>
</g>
</g>
<!-- Node16&#45;&gt;Node17 -->
<g id="edge18" class="edge">
<title>Node16&#45;&gt;Node17</title>
<path fill="none" stroke="midnightblue" d="M1012.83,-59.67C1003.78,-48.45 992.13,-34.02 984.86,-25.01"/>
<polygon fill="midnightblue" stroke="midnightblue" points="1010.12,-61.89 1019.12,-67.48 1015.57,-57.49 1010.12,-61.89"/>
</g>
<!-- Node18 -->
<g id="node18" class="node">
<title>Node18</title>
<g id="a_node18"><a xlink:href="helics_8cpp.html" target="_top" xlink:title=" ">
<polygon fill="white" stroke="black" points="1041.5,-6 1041.5,-25 1106.5,-25 1106.5,-6 1041.5,-6"/>
<text text-anchor="middle" x="1074" y="-13" font-family="Helvetica,sans-Serif" font-size="10.00">helics.cpp</text>
</a>
</g>
</g>
<!-- Node16&#45;&gt;Node18 -->
<g id="edge21" class="edge">
<title>Node16&#45;&gt;Node18</title>
<path fill="none" stroke="midnightblue" d="M1039.17,-59.67C1048.22,-48.45 1059.87,-34.02 1067.14,-25.01"/>
<polygon fill="midnightblue" stroke="midnightblue" points="1036.43,-57.49 1032.88,-67.48 1041.88,-61.89 1036.43,-57.49"/>
</g>
<!-- Node19 -->
<g id="node19" class="node">
<title>Node19</title>
<g id="a_node19"><a xlink:href="incflo_8cpp.html" target="_top" xlink:title=" ">
<polygon fill="white" stroke="black" points="655.5,-6 655.5,-25 718.5,-25 718.5,-6 655.5,-6"/>
<text text-anchor="middle" x="687" y="-13" font-family="Helvetica,sans-Serif" font-size="10.00">incflo.cpp</text>
</a>
</g>
</g>
<!-- Node16&#45;&gt;Node19 -->
<g id="edge22" class="edge">
<title>Node16&#45;&gt;Node19</title>
<path fill="none" stroke="midnightblue" d="M992.89,-67.77C991.58,-67.5 990.28,-67.24 989,-67 873.52,-45.08 841.11,-59.19 727,-31 720.69,-29.44 713.99,-27.24 707.92,-25.02"/>
<polygon fill="midnightblue" stroke="midnightblue" points="992.47,-71.26 1002.99,-70.02 993.99,-64.43 992.47,-71.26"/>
</g>
<!-- Node20 -->
<g id="node20" class="node">
<title>Node20</title>
<g id="a_node20"><a xlink:href="incflo__apply__nodal__projection_8cpp.html" target="_top" xlink:title=" ">
<polygon fill="white" stroke="black" points="736.5,-0.5 736.5,-30.5 843.5,-30.5 843.5,-0.5 736.5,-0.5"/>
<text text-anchor="start" x="744.5" y="-18.5" font-family="Helvetica,sans-Serif" font-size="10.00">incflo_apply_nodal</text>
<text text-anchor="middle" x="790" y="-7.5" font-family="Helvetica,sans-Serif" font-size="10.00">_projection.cpp</text>
</a>
</g>
</g>
<!-- Node16&#45;&gt;Node20 -->
<g id="edge23" class="edge">
<title>Node16&#45;&gt;Node20</title>
<path fill="none" stroke="midnightblue" d="M993.23,-67.74C954.54,-57.98 889.65,-41.62 843.61,-30.02"/>
<polygon fill="midnightblue" stroke="midnightblue" points="992.39,-71.14 1002.94,-70.19 994.1,-64.35 992.39,-71.14"/>
</g>
<!-- Node21 -->
<g id="node21" class="node">
<title>Node21</title>
<g id="a_node21"><a xlink:href="init_8cpp.html" target="_top" xlink:title=" ">
<polygon fill="white" stroke="black" points="861.5,-6 861.5,-25 914.5,-25 914.5,-6 861.5,-6"/>
<text text-anchor="middle" x="888" y="-13" font-family="Helvetica,sans-Serif" font-size="10.00">init.cpp</text>
</a>
</g>
</g>
<!-- Node16&#45;&gt;Node21 -->
<g id="edge24" class="edge">
<title>Node16&#45;&gt;Node21</title>
<path fill="none" stroke="midnightblue" d="M996.96,-63.48C970.16,-51.92 931.08,-35.08 907.74,-25.01"/>
<polygon fill="midnightblue" stroke="midnightblue" points="995.66,-66.73 1006.23,-67.48 998.43,-60.3 995.66,-66.73"/>
</g>
<!-- Node22 -->
<g id="node22" class="node">
<title>Node22</title>
<g id="a_node22"><a xlink:href="_a_b_l_wall_function_8cpp.html" target="_top" xlink:title=" ">
<polygon fill="white" stroke="black" points="520.5,-6 520.5,-25 637.5,-25 637.5,-6 520.5,-6"/>
<text text-anchor="middle" x="579" y="-13" font-family="Helvetica,sans-Serif" font-size="10.00">ABLWallFunction.cpp</text>
</a>
</g>
</g>
<!-- Node16&#45;&gt;Node22 -->
<g id="edge26" class="edge">
<title>Node16&#45;&gt;Node22</title>
<path fill="none" stroke="midnightblue" d="M992.79,-67.7C991.51,-67.45 990.25,-67.22 989,-67 837.97,-40.83 797.35,-55.25 646,-31 635.89,-29.38 625.02,-27.21 615.03,-25.05"/>
<polygon fill="midnightblue" stroke="midnightblue" points="992.1,-71.13 1002.61,-69.81 993.57,-64.29 992.1,-71.13"/>
</g>
<!-- Node23&#45;&gt;Node12 -->
<g id="edge31" class="edge">
<title>Node23&#45;&gt;Node12</title>
<path fill="none" stroke="midnightblue" d="M805.96,-170.26C797.55,-155.49 783.66,-135.01 766,-123 727.28,-96.67 673.53,-85.68 638.52,-81.14"/>
<polygon fill="midnightblue" stroke="midnightblue" points="803.06,-172.25 810.89,-179.39 809.22,-168.93 803.06,-172.25"/>
</g>
<!-- Node23&#45;&gt;Node16 -->
<g id="edge30" class="edge">
<title>Node23&#45;&gt;Node16</title>
<path fill="none" stroke="midnightblue" d="M875.56,-177.53C918.36,-169.18 971.16,-156.65 989,-143 1008.18,-128.32 1019.02,-100.66 1023.52,-86.63"/>
<polygon fill="midnightblue" stroke="midnightblue" points="874.65,-174.14 865.49,-179.46 875.97,-181.02 874.65,-174.14"/>
</g>
<!-- Node23&#45;&gt;Node22 -->
<g id="edge35" class="edge">
<title>Node23&#45;&gt;Node22</title>
<path fill="none" stroke="midnightblue" d="M863.72,-176.74C898.7,-166.25 936.64,-148.4 918,-123 899.47,-97.76 697.17,-45.58 614.19,-25.06"/>
<polygon fill="midnightblue" stroke="midnightblue" points="862.64,-173.4 853.98,-179.5 864.55,-180.14 862.64,-173.4"/>
</g>
<!-- Node24 -->
<g id="node24" class="node">
<title>Node24</title>
<g id="a_node24"><a xlink:href="_boussinesq_bubble_8cpp.html" target="_top" xlink:title=" ">
<polygon fill="white" stroke="black" points="631,-123.5 631,-142.5 757,-142.5 757,-123.5 631,-123.5"/>
<text text-anchor="middle" x="694" y="-130.5" font-family="Helvetica,sans-Serif" font-size="10.00">BoussinesqBubble.cpp</text>
</a>
</g>
</g>
<!-- Node23&#45;&gt;Node24 -->
<g id="edge29" class="edge">
<title>Node23&#45;&gt;Node24</title>
<path fill="none" stroke="midnightblue" d="M786.69,-175.37C764.03,-165.26 732.87,-151.35 713.08,-142.52"/>
<polygon fill="midnightblue" stroke="midnightblue" points="785.27,-178.56 795.83,-179.44 788.12,-172.17 785.27,-178.56"/>
</g>
<!-- Node25 -->
<g id="node25" class="node">
<title>Node25</title>
<g id="a_node25"><a xlink:href="_a_b_l_stats_base_8_h.html" target="_top" xlink:title=" ">
<polygon fill="white" stroke="black" points="813.5,-123.5 813.5,-142.5 908.5,-142.5 908.5,-123.5 813.5,-123.5"/>
<text text-anchor="middle" x="861" y="-130.5" font-family="Helvetica,sans-Serif" font-size="10.00">ABLStatsBase.H</text>
</a>
</g>
</g>
<!-- Node23&#45;&gt;Node25 -->
<g id="edge32" class="edge">
<title>Node23&#45;&gt;Node25</title>
<path fill="none" stroke="midnightblue" d="M829.11,-171.43C837.18,-161.97 846.96,-150.48 853.55,-142.75"/>
<polygon fill="midnightblue" stroke="midnightblue" points="826.42,-169.2 822.6,-179.08 831.75,-173.74 826.42,-169.2"/>
</g>
<!-- Node25&#45;&gt;Node12 -->
<g id="edge34" class="edge">
<title>Node25&#45;&gt;Node12</title>
<path fill="none" stroke="midnightblue" d="M810.05,-121.34C759.44,-110.74 683.17,-94.78 638.7,-85.47"/>
<polygon fill="midnightblue" stroke="midnightblue" points="809.61,-124.82 820.12,-123.44 811.05,-117.97 809.61,-124.82"/>
</g>
<!-- Node25&#45;&gt;Node16 -->
<g id="edge33" class="edge">
<title>Node25&#45;&gt;Node16</title>
<path fill="none" stroke="midnightblue" d="M897.06,-120.2C929.26,-109.66 975.44,-94.55 1002.91,-85.56"/>
<polygon fill="midnightblue" stroke="midnightblue" points="895.56,-117.01 887.14,-123.44 897.74,-123.66 895.56,-117.01"/>
</g>
<!-- Node26&#45;&gt;Node12 -->
<g id="edge42" class="edge">
<title>Node26&#45;&gt;Node12</title>
<path fill="none" stroke="midnightblue" d="M358.34,-225.16C359.88,-198.39 366.83,-149.65 396,-123 420.71,-100.43 514.91,-87.21 567.3,-81.45"/>
<polygon fill="midnightblue" stroke="midnightblue" points="354.83,-225.33 357.95,-235.46 361.82,-225.6 354.83,-225.33"/>
</g>
<!-- Node26&#45;&gt;Node23 -->
<g id="edge43" class="edge">
<title>Node26&#45;&gt;Node23</title>
<path fill="none" stroke="midnightblue" d="M440.11,-234.3C533.17,-223.3 682.2,-205.69 761.42,-196.33"/>
<polygon fill="midnightblue" stroke="midnightblue" points="439.68,-230.82 430.16,-235.47 440.5,-237.78 439.68,-230.82"/>
</g>
<!-- Node27 -->
<g id="node27" class="node">
<title>Node27</title>
<g id="a_node27"><a xlink:href="_wall_function_8_h.html" target="_top" xlink:title=" ">
<polygon fill="white" stroke="black" points="240.5,-179.5 240.5,-198.5 329.5,-198.5 329.5,-179.5 240.5,-179.5"/>
<text text-anchor="middle" x="285" y="-186.5" font-family="Helvetica,sans-Serif" font-size="10.00">WallFunction.H</text>
</a>
</g>
</g>
<!-- Node26&#45;&gt;Node27 -->
<g id="edge37" class="edge">
<title>Node26&#45;&gt;Node27</title>
<path fill="none" stroke="midnightblue" d="M337.86,-229.1C324.72,-219.38 308.02,-207.03 296.94,-198.83"/>
<polygon fill="midnightblue" stroke="midnightblue" points="336.15,-232.19 346.27,-235.32 340.31,-226.56 336.15,-232.19"/>
</g>
<!-- Node30 -->
<g id="node30" class="node">
<title>Node30</title>
<g id="a_node30"><a xlink:href="_field_plane_averaging_fine_8cpp.html" target="_top" xlink:title=" ">
<polygon fill="white" stroke="black" points="66,-179.5 66,-198.5 222,-198.5 222,-179.5 66,-179.5"/>
<text text-anchor="middle" x="144" y="-186.5" font-family="Helvetica,sans-Serif" font-size="10.00">FieldPlaneAveragingFine.cpp</text>
</a>
</g>
</g>
<!-- Node26&#45;&gt;Node30 -->
<g id="edge41" class="edge">
<title>Node26&#45;&gt;Node30</title>
<path fill="none" stroke="midnightblue" d="M314.24,-232.96C273.83,-222.76 214.63,-207.82 177.75,-198.52"/>
<polygon fill="midnightblue" stroke="midnightblue" points="313.54,-236.39 324.09,-235.44 315.25,-229.6 313.54,-236.39"/>
</g>
<!-- Node28 -->
<g id="node28" class="node">
<title>Node28</title>
<g id="a_node28"><a xlink:href="_wall_function_8cpp.html" target="_top" xlink:title=" ">
<polygon fill="white" stroke="black" points="219.5,-123.5 219.5,-142.5 318.5,-142.5 318.5,-123.5 219.5,-123.5"/>
<text text-anchor="middle" x="269" y="-130.5" font-family="Helvetica,sans-Serif" font-size="10.00">WallFunction.cpp</text>
</a>
</g>
</g>
<!-- Node27&#45;&gt;Node28 -->
<g id="edge38" class="edge">
<title>Node27&#45;&gt;Node28</title>
<path fill="none" stroke="midnightblue" d="M279.49,-169.4C276.81,-160.36 273.72,-149.94 271.59,-142.75"/>
<polygon fill="midnightblue" stroke="midnightblue" points="276.16,-170.49 282.36,-179.08 282.87,-168.5 276.16,-170.49"/>
</g>
<!-- Node29 -->
<g id="node29" class="node">
<title>Node29</title>
<g id="a_node29"><a xlink:href="_channel_flow_8_h.html" target="_top" xlink:title=" ">
<polygon fill="white" stroke="black" points="105.5,-123.5 105.5,-142.5 194.5,-142.5 194.5,-123.5 105.5,-123.5"/>
<text text-anchor="middle" x="150" y="-130.5" font-family="Helvetica,sans-Serif" font-size="10.00">ChannelFlow.H</text>
</a>
</g>
</g>
<!-- Node27&#45;&gt;Node29 -->
<g id="edge39" class="edge">
<title>Node27&#45;&gt;Node29</title>
<path fill="none" stroke="midnightblue" d="M254.09,-175.64C228.76,-165.5 193.57,-151.43 171.29,-142.52"/>
<polygon fill="midnightblue" stroke="midnightblue" points="253.02,-178.98 263.61,-179.44 255.62,-172.48 253.02,-178.98"/>
</g>
<!-- Node29&#45;&gt;Node2 -->
<g id="edge40" class="edge">
<title>Node29&#45;&gt;Node2</title>
<path fill="none" stroke="midnightblue" d="M140.15,-114.27C135.03,-105.05 128.98,-94.17 124.86,-86.75"/>
<polygon fill="midnightblue" stroke="midnightblue" points="137.13,-116.04 145.05,-123.08 143.25,-112.64 137.13,-116.04"/>
</g>
</g>
</svg>
