<?xml version="1.0" encoding="UTF-8" standalone="no"?>
<!DOCTYPE svg PUBLIC "-//W3C//DTD SVG 1.1//EN"
 "http://www.w3.org/Graphics/SVG/1.1/DTD/svg11.dtd">
<!-- Generated by graphviz version 2.43.0 (0)
 -->
<!-- Title: FieldPlaneAveragingFine.H Pages: 1 -->
<svg width="1094pt" height="263pt"
 viewBox="0.00 0.00 1094.00 263.00" xmlns="http://www.w3.org/2000/svg" xmlns:xlink="http://www.w3.org/1999/xlink">
<g id="graph0" class="graph" transform="scale(1 1) rotate(0) translate(4 259)">
<title>FieldPlaneAveragingFine.H</title>
<polygon fill="white" stroke="transparent" points="-4,4 -4,-259 1090,-259 1090,4 -4,4"/>
<!-- Node1 -->
<g id="node1" class="node">
<title>Node1</title>
<g id="a_node1"><a xlink:title=" ">
<polygon fill="#bfbfbf" stroke="black" points="226.5,-235.5 226.5,-254.5 372.5,-254.5 372.5,-235.5 226.5,-235.5"/>
<text text-anchor="middle" x="299.5" y="-242.5" font-family="Helvetica,sans-Serif" font-size="10.00">FieldPlaneAveragingFine.H</text>
</a>
</g>
</g>
<!-- Node2 -->
<g id="node2" class="node">
<title>Node2</title>
<g id="a_node2"><a xlink:href="_wall_function_8_h.html" target="_top" xlink:title=" ">
<polygon fill="white" stroke="black" points="61,-179.5 61,-198.5 150,-198.5 150,-179.5 61,-179.5"/>
<text text-anchor="middle" x="105.5" y="-186.5" font-family="Helvetica,sans-Serif" font-size="10.00">WallFunction.H</text>
</a>
</g>
</g>
<!-- Node1&#45;&gt;Node2 -->
<g id="edge1" class="edge">
<title>Node1&#45;&gt;Node2</title>
<path fill="none" stroke="midnightblue" d="M258.9,-232.7C222.28,-222.51 169.24,-207.74 136.1,-198.52"/>
<polygon fill="midnightblue" stroke="midnightblue" points="258.19,-236.13 268.76,-235.44 260.06,-229.39 258.19,-236.13"/>
</g>
<!-- Node6 -->
<g id="node6" class="node">
<title>Node6</title>
<g id="a_node6"><a xlink:href="_field_plane_averaging_fine_8cpp.html" target="_top" xlink:title=" ">
<polygon fill="white" stroke="black" points="168.5,-179.5 168.5,-198.5 324.5,-198.5 324.5,-179.5 168.5,-179.5"/>
<text text-anchor="middle" x="246.5" y="-186.5" font-family="Helvetica,sans-Serif" font-size="10.00">FieldPlaneAveragingFine.cpp</text>
</a>
</g>
</g>
<!-- Node1&#45;&gt;Node6 -->
<g id="edge5" class="edge">
<title>Node1&#45;&gt;Node6</title>
<path fill="none" stroke="midnightblue" d="M283.52,-227.72C274.18,-218.2 262.75,-206.56 255.09,-198.75"/>
<polygon fill="midnightblue" stroke="midnightblue" points="281.25,-230.4 290.75,-235.08 286.24,-225.49 281.25,-230.4"/>
</g>
<!-- Node7 -->
<g id="node7" class="node">
<title>Node7</title>
<g id="a_node7"><a xlink:href="_a_b_l_stats_8_h.html" target="_top" xlink:title=" ">
<polygon fill="white" stroke="black" points="336,-67.5 336,-86.5 407,-86.5 407,-67.5 336,-67.5"/>
<text text-anchor="middle" x="371.5" y="-74.5" font-family="Helvetica,sans-Serif" font-size="10.00">ABLStats.H</text>
</a>
</g>
</g>
<!-- Node1&#45;&gt;Node7 -->
<g id="edge6" class="edge">
<title>Node1&#45;&gt;Node7</title>
<path fill="none" stroke="midnightblue" d="M314,-227.67C320.67,-219.51 328.24,-209.21 333.5,-199 353.87,-159.46 365.75,-106.98 369.86,-86.6"/>
<polygon fill="midnightblue" stroke="midnightblue" points="311.32,-225.42 307.52,-235.31 316.66,-229.95 311.32,-225.42"/>
</g>
<!-- Node9 -->
<g id="node9" class="node">
<title>Node9</title>
<g id="a_node9"><a xlink:href="_a_b_l_wall_function_8_h.html" target="_top" xlink:title=" ">
<polygon fill="white" stroke="black" points="492,-179.5 492,-198.5 599,-198.5 599,-179.5 492,-179.5"/>
<text text-anchor="middle" x="545.5" y="-186.5" font-family="Helvetica,sans-Serif" font-size="10.00">ABLWallFunction.H</text>
</a>
</g>
</g>
<!-- Node1&#45;&gt;Node9 -->
<g id="edge8" class="edge">
<title>Node1&#45;&gt;Node9</title>
<path fill="none" stroke="midnightblue" d="M348.33,-233.28C394.82,-223.08 463.86,-207.92 506.7,-198.52"/>
<polygon fill="midnightblue" stroke="midnightblue" points="347.5,-229.88 338.48,-235.44 349,-236.72 347.5,-229.88"/>
</g>
<!-- Node3 -->
<g id="node3" class="node">
<title>Node3</title>
<g id="a_node3"><a xlink:href="_wall_function_8cpp.html" target="_top" xlink:title=" ">
<polygon fill="white" stroke="black" points="0,-123.5 0,-142.5 99,-142.5 99,-123.5 0,-123.5"/>
<text text-anchor="middle" x="49.5" y="-130.5" font-family="Helvetica,sans-Serif" font-size="10.00">WallFunction.cpp</text>
</a>
</g>
</g>
<!-- Node2&#45;&gt;Node3 -->
<g id="edge2" class="edge">
<title>Node2&#45;&gt;Node3</title>
<path fill="none" stroke="midnightblue" d="M89.17,-172.25C79.24,-162.67 66.91,-150.79 58.66,-142.83"/>
<polygon fill="midnightblue" stroke="midnightblue" points="86.87,-174.9 96.5,-179.32 91.73,-169.86 86.87,-174.9"/>
</g>
<!-- Node4 -->
<g id="node4" class="node">
<title>Node4</title>
<g id="a_node4"><a xlink:href="_channel_flow_8_h.html" target="_top" xlink:title=" ">
<polygon fill="white" stroke="black" points="117,-123.5 117,-142.5 206,-142.5 206,-123.5 117,-123.5"/>
<text text-anchor="middle" x="161.5" y="-130.5" font-family="Helvetica,sans-Serif" font-size="10.00">ChannelFlow.H</text>
</a>
</g>
</g>
<!-- Node2&#45;&gt;Node4 -->
<g id="edge3" class="edge">
<title>Node2&#45;&gt;Node4</title>
<path fill="none" stroke="midnightblue" d="M121.83,-172.25C131.76,-162.67 144.09,-150.79 152.34,-142.83"/>
<polygon fill="midnightblue" stroke="midnightblue" points="119.27,-169.86 114.5,-179.32 124.13,-174.9 119.27,-169.86"/>
</g>
<!-- Node5 -->
<g id="node5" class="node">
<title>Node5</title>
<g id="a_node5"><a xlink:href="_channel_flow_8cpp.html" target="_top" xlink:title=" ">
<polygon fill="white" stroke="black" points="112,-67.5 112,-86.5 211,-86.5 211,-67.5 112,-67.5"/>
<text text-anchor="middle" x="161.5" y="-74.5" font-family="Helvetica,sans-Serif" font-size="10.00">ChannelFlow.cpp</text>
</a>
</g>
</g>
<!-- Node4&#45;&gt;Node5 -->
<g id="edge4" class="edge">
<title>Node4&#45;&gt;Node5</title>
<path fill="none" stroke="midnightblue" d="M161.5,-112.8C161.5,-103.91 161.5,-93.78 161.5,-86.75"/>
<polygon fill="midnightblue" stroke="midnightblue" points="158,-113.08 161.5,-123.08 165,-113.08 158,-113.08"/>
</g>
<!-- Node8 -->
<g id="node8" class="node">
<title>Node8</title>
<g id="a_node8"><a xlink:href="_a_b_l_stats_8cpp.html" target="_top" xlink:title=" ">
<polygon fill="white" stroke="black" points="32.5,-6 32.5,-25 112.5,-25 112.5,-6 32.5,-6"/>
<text text-anchor="middle" x="72.5" y="-13" font-family="Helvetica,sans-Serif" font-size="10.00">ABLStats.cpp</text>
</a>
</g>
</g>
<!-- Node7&#45;&gt;Node8 -->
<g id="edge7" class="edge">
<title>Node7&#45;&gt;Node8</title>
<path fill="none" stroke="midnightblue" d="M325.71,-69.3C275.34,-61.58 192.15,-47.76 121.5,-31 114.25,-29.28 106.48,-27.13 99.32,-25.01"/>
<polygon fill="midnightblue" stroke="midnightblue" points="325.23,-72.77 335.64,-70.81 326.28,-65.85 325.23,-72.77"/>
</g>
<!-- Node9&#45;&gt;Node7 -->
<g id="edge20" class="edge">
<title>Node9&#45;&gt;Node7</title>
<path fill="none" stroke="midnightblue" d="M481.79,-176.99C457.22,-170.31 430.14,-159.71 409.5,-143 390.81,-127.86 379.35,-100.91 374.39,-86.94"/>
<polygon fill="midnightblue" stroke="midnightblue" points="481.22,-180.46 491.77,-179.53 482.94,-173.67 481.22,-180.46"/>
</g>
<!-- Node10 -->
<g id="node10" class="node">
<title>Node10</title>
<g id="a_node10"><a xlink:href="_boussinesq_bubble_8cpp.html" target="_top" xlink:title=" ">
<polygon fill="white" stroke="black" points="418.5,-123.5 418.5,-142.5 544.5,-142.5 544.5,-123.5 418.5,-123.5"/>
<text text-anchor="middle" x="481.5" y="-130.5" font-family="Helvetica,sans-Serif" font-size="10.00">BoussinesqBubble.cpp</text>
</a>
</g>
</g>
<!-- Node9&#45;&gt;Node10 -->
<g id="edge9" class="edge">
<title>Node9&#45;&gt;Node10</title>
<path fill="none" stroke="midnightblue" d="M527.51,-172.82C516.04,-163.15 501.59,-150.95 491.97,-142.83"/>
<polygon fill="midnightblue" stroke="midnightblue" points="525.32,-175.55 535.22,-179.32 529.83,-170.2 525.32,-175.55"/>
</g>
<!-- Node11 -->
<g id="node11" class="node">
<title>Node11</title>
<g id="a_node11"><a xlink:href="_a_b_l_8_h.html" target="_top" xlink:title=" ">
<polygon fill="white" stroke="black" points="625.5,-67.5 625.5,-86.5 671.5,-86.5 671.5,-67.5 625.5,-67.5"/>
<text text-anchor="middle" x="648.5" y="-74.5" font-family="Helvetica,sans-Serif" font-size="10.00">ABL.H</text>
</a>
</g>
</g>
<!-- Node9&#45;&gt;Node11 -->
<g id="edge10" class="edge">
<title>Node9&#45;&gt;Node11</title>
<path fill="none" stroke="midnightblue" d="M608.92,-179.71C631.19,-173.41 654.01,-162.36 667.5,-143 679.74,-125.45 664.97,-100 655.41,-86.75"/>
<polygon fill="midnightblue" stroke="midnightblue" points="607.92,-176.35 599.1,-182.21 609.65,-183.14 607.92,-176.35"/>
</g>
<!-- Node20 -->
<g id="node20" class="node">
<title>Node20</title>
<g id="a_node20"><a xlink:href="_a_b_l_wall_function_8cpp.html" target="_top" xlink:title=" ">
<polygon fill="white" stroke="black" points="969,-6 969,-25 1086,-25 1086,-6 969,-6"/>
<text text-anchor="middle" x="1027.5" y="-13" font-family="Helvetica,sans-Serif" font-size="10.00">ABLWallFunction.cpp</text>
</a>
</g>
</g>
<!-- Node9&#45;&gt;Node20 -->
<g id="edge24" class="edge">
<title>Node9&#45;&gt;Node20</title>
<path fill="none" stroke="midnightblue" d="M582.56,-176.33C610.41,-167.45 649.47,-154.8 683.5,-143 805.54,-100.68 950.34,-45.93 1005.06,-25.08"/>
<polygon fill="midnightblue" stroke="midnightblue" points="581.3,-173.05 572.83,-179.42 583.42,-179.73 581.3,-173.05"/>
</g>
<!-- Node21 -->
<g id="node21" class="node">
<title>Node21</title>
<g id="a_node21"><a xlink:href="_a_b_l_stats_base_8_h.html" target="_top" xlink:title=" ">
<polygon fill="white" stroke="black" points="563,-123.5 563,-142.5 658,-142.5 658,-123.5 563,-123.5"/>
<text text-anchor="middle" x="610.5" y="-130.5" font-family="Helvetica,sans-Serif" font-size="10.00">ABLStatsBase.H</text>
</a>
</g>
</g>
<!-- Node9&#45;&gt;Node21 -->
<g id="edge21" class="edge">
<title>Node9&#45;&gt;Node21</title>
<path fill="none" stroke="midnightblue" d="M563.77,-172.82C575.42,-163.15 590.1,-150.95 599.87,-142.83"/>
<polygon fill="midnightblue" stroke="midnightblue" points="561.4,-170.24 555.94,-179.32 565.87,-175.63 561.4,-170.24"/>
</g>
<!-- Node12 -->
<g id="node12" class="node">
<title>Node12</title>
<g id="a_node12"><a xlink:href="_a_b_l_forcing_8cpp.html" target="_top" xlink:title=" ">
<polygon fill="white" stroke="black" points="131,-6 131,-25 222,-25 222,-6 131,-6"/>
<text text-anchor="middle" x="176.5" y="-13" font-family="Helvetica,sans-Serif" font-size="10.00">ABLForcing.cpp</text>
</a>
</g>
</g>
<!-- Node11&#45;&gt;Node12 -->
<g id="edge11" class="edge">
<title>Node11&#45;&gt;Node12</title>
<path fill="none" stroke="midnightblue" d="M615.14,-74.11C544.1,-69.7 372.83,-57.1 231.5,-31 223.05,-29.44 213.99,-27.27 205.72,-25.07"/>
<polygon fill="midnightblue" stroke="midnightblue" points="615.07,-77.61 625.27,-74.72 615.5,-70.62 615.07,-77.61"/>
</g>
<!-- Node13 -->
<g id="node13" class="node">
<title>Node13</title>
<g id="a_node13"><a xlink:href="_a_b_l_mean_boussinesq_8cpp.html" target="_top" xlink:title=" ">
<polygon fill="white" stroke="black" points="240.5,-6 240.5,-25 378.5,-25 378.5,-6 240.5,-6"/>
<text text-anchor="middle" x="309.5" y="-13" font-family="Helvetica,sans-Serif" font-size="10.00">ABLMeanBoussinesq.cpp</text>
</a>
</g>
</g>
<!-- Node11&#45;&gt;Node13 -->
<g id="edge12" class="edge">
<title>Node11&#45;&gt;Node13</title>
<path fill="none" stroke="midnightblue" d="M615.3,-70.42C565.69,-62.05 469.3,-45.65 387.5,-31 376.92,-29.11 365.55,-27.02 354.85,-25.03"/>
<polygon fill="midnightblue" stroke="midnightblue" points="615,-73.92 625.44,-72.13 616.16,-67.01 615,-73.92"/>
</g>
<!-- Node14 -->
<g id="node14" class="node">
<title>Node14</title>
<g id="a_node14"><a xlink:href="_hurricane_forcing_8cpp.html" target="_top" xlink:title=" ">
<polygon fill="white" stroke="black" points="397,-6 397,-25 516,-25 516,-6 397,-6"/>
<text text-anchor="middle" x="456.5" y="-13" font-family="Helvetica,sans-Serif" font-size="10.00">HurricaneForcing.cpp</text>
</a>
</g>
</g>
<!-- Node11&#45;&gt;Node14 -->
<g id="edge13" class="edge">
<title>Node11&#45;&gt;Node14</title>
<path fill="none" stroke="midnightblue" d="M615.51,-65.78C578.41,-54.28 518.81,-35.81 484.08,-25.05"/>
<polygon fill="midnightblue" stroke="midnightblue" points="614.75,-69.21 625.34,-68.82 616.82,-62.52 614.75,-69.21"/>
</g>
<!-- Node15 -->
<g id="node15" class="node">
<title>Node15</title>
<g id="a_node15"><a xlink:href="helics_8cpp.html" target="_top" xlink:title=" ">
<polygon fill="white" stroke="black" points="534,-6 534,-25 599,-25 599,-6 534,-6"/>
<text text-anchor="middle" x="566.5" y="-13" font-family="Helvetica,sans-Serif" font-size="10.00">helics.cpp</text>
</a>
</g>
</g>
<!-- Node11&#45;&gt;Node15 -->
<g id="edge14" class="edge">
<title>Node11&#45;&gt;Node15</title>
<path fill="none" stroke="midnightblue" d="M628.23,-61.29C612.5,-49.88 591.25,-34.46 578.23,-25.01"/>
<polygon fill="midnightblue" stroke="midnightblue" points="626.6,-64.43 636.75,-67.48 630.71,-58.77 626.6,-64.43"/>
</g>
<!-- Node16 -->
<g id="node16" class="node">
<title>Node16</title>
<g id="a_node16"><a xlink:href="incflo_8cpp.html" target="_top" xlink:title=" ">
<polygon fill="white" stroke="black" points="617,-6 617,-25 680,-25 680,-6 617,-6"/>
<text text-anchor="middle" x="648.5" y="-13" font-family="Helvetica,sans-Serif" font-size="10.00">incflo.cpp</text>
</a>
</g>
</g>
<!-- Node11&#45;&gt;Node16 -->
<g id="edge15" class="edge">
<title>Node11&#45;&gt;Node16</title>
<path fill="none" stroke="midnightblue" d="M648.5,-57.32C648.5,-46.5 648.5,-33.4 648.5,-25.01"/>
<polygon fill="midnightblue" stroke="midnightblue" points="645,-57.48 648.5,-67.48 652,-57.48 645,-57.48"/>
</g>
<!-- Node17 -->
<g id="node17" class="node">
<title>Node17</title>
<g id="a_node17"><a xlink:href="incflo__apply__nodal__projection_8cpp.html" target="_top" xlink:title=" ">
<polygon fill="white" stroke="black" points="698,-0.5 698,-30.5 805,-30.5 805,-0.5 698,-0.5"/>
<text text-anchor="start" x="706" y="-18.5" font-family="Helvetica,sans-Serif" font-size="10.00">incflo_apply_nodal</text>
<text text-anchor="middle" x="751.5" y="-7.5" font-family="Helvetica,sans-Serif" font-size="10.00">_projection.cpp</text>
</a>
</g>
</g>
<!-- Node11&#45;&gt;Node17 -->
<g id="edge16" class="edge">
<title>Node11&#45;&gt;Node17</title>
<path fill="none" stroke="midnightblue" d="M672.26,-62.28C688.74,-52.75 710.63,-40.11 727.22,-30.52"/>
<polygon fill="midnightblue" stroke="midnightblue" points="670.17,-59.44 663.26,-67.48 673.67,-65.5 670.17,-59.44"/>
</g>
<!-- Node18 -->
<g id="node18" class="node">
<title>Node18</title>
<g id="a_node18"><a xlink:href="init_8cpp.html" target="_top" xlink:title=" ">
<polygon fill="white" stroke="black" points="823,-6 823,-25 876,-25 876,-6 823,-6"/>
<text text-anchor="middle" x="849.5" y="-13" font-family="Helvetica,sans-Serif" font-size="10.00">init.cpp</text>
</a>
</g>
</g>
<!-- Node11&#45;&gt;Node18 -->
<g id="edge17" class="edge">
<title>Node11&#45;&gt;Node18</title>
<path fill="none" stroke="midnightblue" d="M681.4,-68.4C715.17,-60.29 769.04,-46.51 814.5,-31 819.6,-29.26 825.03,-27.15 830.05,-25.08"/>
<polygon fill="midnightblue" stroke="midnightblue" points="680.52,-65.01 671.6,-70.73 682.14,-71.82 680.52,-65.01"/>
</g>
<!-- Node19 -->
<g id="node19" class="node">
<title>Node19</title>
<g id="a_node19"><a xlink:href="_a_b_l_8cpp.html" target="_top" xlink:title=" ">
<polygon fill="white" stroke="black" points="894.5,-6 894.5,-25 950.5,-25 950.5,-6 894.5,-6"/>
<text text-anchor="middle" x="922.5" y="-13" font-family="Helvetica,sans-Serif" font-size="10.00">ABL.cpp</text>
</a>
</g>
</g>
<!-- Node11&#45;&gt;Node19 -->
<g id="edge18" class="edge">
<title>Node11&#45;&gt;Node19</title>
<path fill="none" stroke="midnightblue" d="M681.77,-71.67C728.05,-65.21 814.19,-51.55 885.5,-31 891.2,-29.36 897.25,-27.18 902.76,-25.02"/>
<polygon fill="midnightblue" stroke="midnightblue" points="681.14,-68.23 671.71,-73.05 682.09,-75.16 681.14,-68.23"/>
</g>
<!-- Node11&#45;&gt;Node20 -->
<g id="edge19" class="edge">
<title>Node11&#45;&gt;Node20</title>
<path fill="none" stroke="midnightblue" d="M681.83,-71.92C738.88,-64.76 858.85,-48.99 959.5,-31 969.36,-29.24 979.98,-27.09 989.82,-25"/>
<polygon fill="midnightblue" stroke="midnightblue" points="681.09,-68.48 671.6,-73.19 681.96,-75.43 681.09,-68.48"/>
</g>
<!-- Node21&#45;&gt;Node7 -->
<g id="edge23" class="edge">
<title>Node21&#45;&gt;Node7</title>
<path fill="none" stroke="midnightblue" d="M562.63,-121.18C516.75,-110.82 448.56,-95.41 407.24,-86.08"/>
<polygon fill="midnightblue" stroke="midnightblue" points="562.1,-124.65 572.63,-123.44 563.65,-117.83 562.1,-124.65"/>
</g>
<!-- Node21&#45;&gt;Node11 -->
<g id="edge22" class="edge">
<title>Node21&#45;&gt;Node11</title>
<path fill="none" stroke="midnightblue" d="M622.56,-114.86C629.14,-105.5 637.01,-94.33 642.34,-86.75"/>
<polygon fill="midnightblue" stroke="midnightblue" points="619.67,-112.89 616.77,-123.08 625.39,-116.92 619.67,-112.89"/>
</g>
</g>
</svg>
