<?xml version="1.0" encoding="UTF-8" standalone="no"?>
<!DOCTYPE svg PUBLIC "-//W3C//DTD SVG 1.1//EN"
 "http://www.w3.org/Graphics/SVG/1.1/DTD/svg11.dtd">
<!-- Generated by graphviz version 2.43.0 (0)
 -->
<!-- Title: FieldFillPatchOps.H Pages: 1 -->
<svg width="1950pt" height="252pt"
 viewBox="0.00 0.00 1950.00 252.00" xmlns="http://www.w3.org/2000/svg" xmlns:xlink="http://www.w3.org/1999/xlink">
<g id="graph0" class="graph" transform="scale(1 1) rotate(0) translate(4 248)">
<title>FieldFillPatchOps.H</title>
<polygon fill="white" stroke="transparent" points="-4,4 -4,-248 1946,-248 1946,4 -4,4"/>
<!-- Node1 -->
<g id="node1" class="node">
<title>Node1</title>
<g id="a_node1"><a xlink:title=" ">
<polygon fill="#bfbfbf" stroke="black" points="1203,-224.5 1203,-243.5 1313,-243.5 1313,-224.5 1203,-224.5"/>
<text text-anchor="middle" x="1258" y="-231.5" font-family="Helvetica,sans-Serif" font-size="10.00">FieldFillPatchOps.H</text>
</a>
</g>
</g>
<!-- Node2 -->
<g id="node2" class="node">
<title>Node2</title>
<g id="a_node2"><a xlink:href="_field_8_h.html" target="_top" xlink:title=" ">
<polygon fill="white" stroke="black" points="765,-112.5 765,-131.5 889,-131.5 889,-112.5 765,-112.5"/>
<text text-anchor="middle" x="827" y="-119.5" font-family="Helvetica,sans-Serif" font-size="10.00">amr&#45;wind/core/Field.H</text>
</a>
</g>
</g>
<!-- Node1&#45;&gt;Node2 -->
<g id="edge1" class="edge">
<title>Node1&#45;&gt;Node2</title>
<path fill="none" stroke="midnightblue" d="M1203,-225.55C1152.57,-218.11 1076.08,-205.31 1011,-188 955.63,-173.28 893.13,-149.64 857.07,-135.3"/>
<polygon fill="midnightblue" stroke="midnightblue" points="858.22,-131.98 847.63,-131.51 855.61,-138.48 858.22,-131.98"/>
</g>
<!-- Node7 -->
<g id="node7" class="node">
<title>Node7</title>
<g id="a_node7"><a xlink:title=" ">
<polygon fill="white" stroke="#bfbfbf" points="142.5,-0.5 142.5,-19.5 251.5,-19.5 251.5,-0.5 142.5,-0.5"/>
<text text-anchor="middle" x="197" y="-7.5" font-family="Helvetica,sans-Serif" font-size="10.00">AMReX_MultiFab.H</text>
</a>
</g>
</g>
<!-- Node1&#45;&gt;Node7 -->
<g id="edge33" class="edge">
<title>Node1&#45;&gt;Node7</title>
<path fill="none" stroke="midnightblue" d="M1202.97,-230.3C972.52,-218.41 93.3,-167.33 14,-76 8.17,-69.29 8.52,-63 14,-56 21.92,-45.89 88.98,-31.25 139.65,-21.44"/>
<polygon fill="midnightblue" stroke="midnightblue" points="140.38,-24.87 149.54,-19.55 139.06,-17.99 140.38,-24.87"/>
</g>
<!-- Node11 -->
<g id="node11" class="node">
<title>Node11</title>
<g id="a_node11"><a xlink:href="_field_desc_types_8_h.html" target="_top" xlink:title=" ">
<polygon fill="white" stroke="black" points="899,-0.5 899,-19.5 1075,-19.5 1075,-0.5 899,-0.5"/>
<text text-anchor="middle" x="987" y="-7.5" font-family="Helvetica,sans-Serif" font-size="10.00">amr&#45;wind/core/FieldDescTypes.H</text>
</a>
</g>
</g>
<!-- Node1&#45;&gt;Node11 -->
<g id="edge20" class="edge">
<title>Node1&#45;&gt;Node11</title>
<path fill="none" stroke="midnightblue" d="M1206.58,-224.48C1178.46,-217.95 1144.14,-206.75 1118,-188 1057.5,-144.59 1013.23,-64.78 995.51,-29.08"/>
<polygon fill="midnightblue" stroke="midnightblue" points="998.56,-27.35 991.05,-19.88 992.26,-30.4 998.56,-27.35"/>
</g>
<!-- Node14 -->
<g id="node14" class="node">
<title>Node14</title>
<g id="a_node14"><a xlink:href="_sim_time_8_h.html" target="_top" xlink:title=" ">
<polygon fill="white" stroke="black" points="1517,-168.5 1517,-187.5 1661,-187.5 1661,-168.5 1517,-168.5"/>
<text text-anchor="middle" x="1589" y="-175.5" font-family="Helvetica,sans-Serif" font-size="10.00">amr&#45;wind/core/SimTime.H</text>
</a>
</g>
</g>
<!-- Node1&#45;&gt;Node14 -->
<g id="edge16" class="edge">
<title>Node1&#45;&gt;Node14</title>
<path fill="none" stroke="midnightblue" d="M1310.45,-224.44C1369.16,-214.87 1464.23,-199.36 1526.68,-189.17"/>
<polygon fill="midnightblue" stroke="midnightblue" points="1527.49,-192.58 1536.8,-187.52 1526.36,-185.67 1527.49,-192.58"/>
</g>
<!-- Node15 -->
<g id="node15" class="node">
<title>Node15</title>
<g id="a_node15"><a xlink:title=" ">
<polygon fill="white" stroke="#bfbfbf" points="1564,-112.5 1564,-131.5 1656,-131.5 1656,-112.5 1564,-112.5"/>
<text text-anchor="middle" x="1610" y="-119.5" font-family="Helvetica,sans-Serif" font-size="10.00">AMReX_REAL.H</text>
</a>
</g>
</g>
<!-- Node1&#45;&gt;Node15 -->
<g id="edge34" class="edge">
<title>Node1&#45;&gt;Node15</title>
<path fill="none" stroke="midnightblue" d="M1285.33,-224.46C1347.84,-204.93 1501.32,-156.96 1572.55,-134.7"/>
<polygon fill="midnightblue" stroke="midnightblue" points="1573.95,-137.93 1582.45,-131.61 1571.86,-131.25 1573.95,-137.93"/>
</g>
<!-- Node18 -->
<g id="node18" class="node">
<title>Node18</title>
<g id="a_node18"><a xlink:href="_field_utils_8_h.html" target="_top" xlink:title=" ">
<polygon fill="white" stroke="black" points="23,-56.5 23,-75.5 169,-75.5 169,-56.5 23,-56.5"/>
<text text-anchor="middle" x="96" y="-63.5" font-family="Helvetica,sans-Serif" font-size="10.00">amr&#45;wind/core/FieldUtils.H</text>
</a>
</g>
</g>
<!-- Node1&#45;&gt;Node18 -->
<g id="edge21" class="edge">
<title>Node1&#45;&gt;Node18</title>
<path fill="none" stroke="midnightblue" d="M1202.74,-225.11C1011.48,-197.78 377.84,-107.26 165.81,-76.97"/>
<polygon fill="midnightblue" stroke="midnightblue" points="166.13,-73.48 155.74,-75.53 165.14,-80.41 166.13,-73.48"/>
</g>
<!-- Node20 -->
<g id="node20" class="node">
<title>Node20</title>
<g id="a_node20"><a xlink:href="_field_b_c_ops_8_h.html" target="_top" xlink:title=" ">
<polygon fill="white" stroke="black" points="1127,-168.5 1127,-187.5 1283,-187.5 1283,-168.5 1127,-168.5"/>
<text text-anchor="middle" x="1205" y="-175.5" font-family="Helvetica,sans-Serif" font-size="10.00">amr&#45;wind/core/FieldBCOps.H</text>
</a>
</g>
</g>
<!-- Node1&#45;&gt;Node20 -->
<g id="edge25" class="edge">
<title>Node1&#45;&gt;Node20</title>
<path fill="none" stroke="midnightblue" d="M1249.25,-224.08C1241.53,-216.22 1230.1,-204.57 1220.78,-195.08"/>
<polygon fill="midnightblue" stroke="midnightblue" points="1223.09,-192.44 1213.59,-187.75 1218.1,-197.34 1223.09,-192.44"/>
</g>
<!-- Node23 -->
<g id="node23" class="node">
<title>Node23</title>
<g id="a_node23"><a xlink:title=" ">
<polygon fill="white" stroke="#bfbfbf" points="1414.5,-112.5 1414.5,-131.5 1545.5,-131.5 1545.5,-112.5 1414.5,-112.5"/>
<text text-anchor="middle" x="1480" y="-119.5" font-family="Helvetica,sans-Serif" font-size="10.00">AMReX_PhysBCFunct.H</text>
</a>
</g>
</g>
<!-- Node1&#45;&gt;Node23 -->
<g id="edge35" class="edge">
<title>Node1&#45;&gt;Node23</title>
<path fill="none" stroke="midnightblue" d="M1275.42,-224.37C1314.16,-205.17 1407.66,-158.84 1453.61,-136.07"/>
<polygon fill="midnightblue" stroke="midnightblue" points="1455.25,-139.17 1462.66,-131.59 1452.15,-132.9 1455.25,-139.17"/>
</g>
<!-- Node24 -->
<g id="node24" class="node">
<title>Node24</title>
<g id="a_node24"><a xlink:title=" ">
<polygon fill="white" stroke="#bfbfbf" points="1679,-168.5 1679,-187.5 1789,-187.5 1789,-168.5 1679,-168.5"/>
<text text-anchor="middle" x="1734" y="-175.5" font-family="Helvetica,sans-Serif" font-size="10.00">AMReX_AmrCore.H</text>
</a>
</g>
</g>
<!-- Node1&#45;&gt;Node24 -->
<g id="edge32" class="edge">
<title>Node1&#45;&gt;Node24</title>
<path fill="none" stroke="midnightblue" d="M1313.04,-227.53C1390.18,-219.75 1535.08,-204.7 1668.84,-188.11"/>
<polygon fill="midnightblue" stroke="midnightblue" points="1669.37,-191.57 1678.86,-186.86 1668.5,-184.63 1669.37,-191.57"/>
</g>
<!-- Node25 -->
<g id="node25" class="node">
<title>Node25</title>
<g id="a_node25"><a xlink:title=" ">
<polygon fill="white" stroke="#bfbfbf" points="1807.5,-168.5 1807.5,-187.5 1932.5,-187.5 1932.5,-168.5 1807.5,-168.5"/>
<text text-anchor="middle" x="1870" y="-175.5" font-family="Helvetica,sans-Serif" font-size="10.00">AMReX_FillPatchUtil.H</text>
</a>
</g>
</g>
<!-- Node1&#45;&gt;Node25 -->
<g id="edge36" class="edge">
<title>Node1&#45;&gt;Node25</title>
<path fill="none" stroke="midnightblue" d="M1313.26,-229.15C1409.33,-222.29 1613.6,-206.98 1797.08,-188.05"/>
<polygon fill="midnightblue" stroke="midnightblue" points="1797.6,-191.52 1807.19,-187.01 1796.88,-184.56 1797.6,-191.52"/>
</g>
<!-- Node3 -->
<g id="node3" class="node">
<title>Node3</title>
<g id="a_node3"><a xlink:title=" ">
<polygon fill="white" stroke="#bfbfbf" points="758,-0.5 758,-19.5 802,-19.5 802,-0.5 758,-0.5"/>
<text text-anchor="middle" x="780" y="-7.5" font-family="Helvetica,sans-Serif" font-size="10.00">string</text>
</a>
</g>
</g>
<!-- Node2&#45;&gt;Node3 -->
<g id="edge2" class="edge">
<title>Node2&#45;&gt;Node3</title>
<path fill="none" stroke="midnightblue" d="M866.05,-112.45C903.19,-102.44 950.57,-83.65 930,-56 903.01,-19.73 847.79,-11.59 812.4,-10.34"/>
<polygon fill="midnightblue" stroke="midnightblue" points="812.17,-6.84 802.11,-10.15 812.05,-13.84 812.17,-6.84"/>
</g>
<!-- Node4 -->
<g id="node4" class="node">
<title>Node4</title>
<g id="a_node4"><a xlink:title=" ">
<polygon fill="white" stroke="#bfbfbf" points="863,-56.5 863,-75.5 921,-75.5 921,-56.5 863,-56.5"/>
<text text-anchor="middle" x="892" y="-63.5" font-family="Helvetica,sans-Serif" font-size="10.00">memory</text>
</a>
</g>
</g>
<!-- Node2&#45;&gt;Node4 -->
<g id="edge3" class="edge">
<title>Node2&#45;&gt;Node4</title>
<path fill="none" stroke="midnightblue" d="M837.44,-112.32C847.15,-104.26 861.82,-92.08 873.5,-82.37"/>
<polygon fill="midnightblue" stroke="midnightblue" points="875.91,-84.92 881.37,-75.83 871.44,-79.53 875.91,-84.92"/>
</g>
<!-- Node5 -->
<g id="node5" class="node">
<title>Node5</title>
<g id="a_node5"><a xlink:title=" ">
<polygon fill="white" stroke="#bfbfbf" points="225.5,-56.5 225.5,-75.5 318.5,-75.5 318.5,-56.5 225.5,-56.5"/>
<text text-anchor="middle" x="272" y="-63.5" font-family="Helvetica,sans-Serif" font-size="10.00">unordered_map</text>
</a>
</g>
</g>
<!-- Node2&#45;&gt;Node5 -->
<g id="edge4" class="edge">
<title>Node2&#45;&gt;Node5</title>
<path fill="none" stroke="midnightblue" d="M764.62,-116.77C671.94,-110.18 492.21,-96.22 328.95,-76.03"/>
<polygon fill="midnightblue" stroke="midnightblue" points="329.07,-72.52 318.72,-74.76 328.21,-79.47 329.07,-72.52"/>
</g>
<!-- Node6 -->
<g id="node6" class="node">
<title>Node6</title>
<g id="a_node6"><a xlink:title=" ">
<polygon fill="white" stroke="#bfbfbf" points="337,-56.5 337,-75.5 401,-75.5 401,-56.5 337,-56.5"/>
<text text-anchor="middle" x="369" y="-63.5" font-family="Helvetica,sans-Serif" font-size="10.00">algorithm</text>
</a>
</g>
</g>
<!-- Node2&#45;&gt;Node6 -->
<g id="edge5" class="edge">
<title>Node2&#45;&gt;Node6</title>
<path fill="none" stroke="midnightblue" d="M764.9,-116.42C685.25,-110.07 542.7,-97.12 411.4,-76.07"/>
<polygon fill="midnightblue" stroke="midnightblue" points="411.6,-72.55 401.17,-74.41 410.48,-79.46 411.6,-72.55"/>
</g>
<!-- Node2&#45;&gt;Node7 -->
<g id="edge6" class="edge">
<title>Node2&#45;&gt;Node7</title>
<path fill="none" stroke="midnightblue" d="M764.95,-120.38C618.02,-118.36 258,-109.96 216,-76 202.45,-65.04 198.22,-44.98 197.06,-30.04"/>
<polygon fill="midnightblue" stroke="midnightblue" points="200.55,-29.7 196.67,-19.84 193.56,-29.96 200.55,-29.7"/>
</g>
<!-- Node8 -->
<g id="node8" class="node">
<title>Node8</title>
<g id="a_node8"><a xlink:title=" ">
<polygon fill="white" stroke="#bfbfbf" points="419.5,-56.5 419.5,-75.5 518.5,-75.5 518.5,-56.5 419.5,-56.5"/>
<text text-anchor="middle" x="469" y="-63.5" font-family="Helvetica,sans-Serif" font-size="10.00">AMReX_BCRec.H</text>
</a>
</g>
</g>
<!-- Node2&#45;&gt;Node8 -->
<g id="edge7" class="edge">
<title>Node2&#45;&gt;Node8</title>
<path fill="none" stroke="midnightblue" d="M770.23,-112.49C712.2,-103.78 619.17,-89.81 528.48,-76.07"/>
<polygon fill="midnightblue" stroke="midnightblue" points="528.98,-72.61 518.57,-74.57 527.94,-79.53 528.98,-72.61"/>
</g>
<!-- Node9 -->
<g id="node9" class="node">
<title>Node9</title>
<g id="a_node9"><a xlink:title=" ">
<polygon fill="white" stroke="#bfbfbf" points="1053.5,-56.5 1053.5,-75.5 1140.5,-75.5 1140.5,-56.5 1053.5,-56.5"/>
<text text-anchor="middle" x="1097" y="-63.5" font-family="Helvetica,sans-Serif" font-size="10.00">AMReX_Gpu.H</text>
</a>
</g>
</g>
<!-- Node2&#45;&gt;Node9 -->
<g id="edge8" class="edge">
<title>Node2&#45;&gt;Node9</title>
<path fill="none" stroke="midnightblue" d="M869.78,-112.44C917.18,-102.96 993.63,-87.67 1044.58,-77.48"/>
<polygon fill="midnightblue" stroke="midnightblue" points="1045.3,-80.91 1054.42,-75.52 1043.93,-74.05 1045.3,-80.91"/>
</g>
<!-- Node10 -->
<g id="node10" class="node">
<title>Node10</title>
<g id="a_node10"><a xlink:href="incflo__enums_8_h.html" target="_top" xlink:title=" ">
<polygon fill="white" stroke="black" points="703.5,-56.5 703.5,-75.5 844.5,-75.5 844.5,-56.5 703.5,-56.5"/>
<text text-anchor="middle" x="774" y="-63.5" font-family="Helvetica,sans-Serif" font-size="10.00">amr&#45;wind/incflo_enums.H</text>
</a>
</g>
</g>
<!-- Node2&#45;&gt;Node10 -->
<g id="edge9" class="edge">
<title>Node2&#45;&gt;Node10</title>
<path fill="none" stroke="midnightblue" d="M818.25,-112.08C810.53,-104.22 799.1,-92.57 789.78,-83.08"/>
<polygon fill="midnightblue" stroke="midnightblue" points="792.09,-80.44 782.59,-75.75 787.1,-85.34 792.09,-80.44"/>
</g>
<!-- Node2&#45;&gt;Node11 -->
<g id="edge10" class="edge">
<title>Node2&#45;&gt;Node11</title>
<path fill="none" stroke="midnightblue" d="M869.08,-112.47C893.84,-105.79 924.59,-94.46 947,-76 962.14,-63.53 973.15,-43.74 979.74,-29.27"/>
<polygon fill="midnightblue" stroke="midnightblue" points="983.05,-30.43 983.75,-19.85 976.61,-27.68 983.05,-30.43"/>
</g>
<!-- Node12 -->
<g id="node12" class="node">
<title>Node12</title>
<g id="a_node12"><a xlink:href="_view_field_8_h.html" target="_top" xlink:title=" ">
<polygon fill="white" stroke="black" points="537,-56.5 537,-75.5 685,-75.5 685,-56.5 537,-56.5"/>
<text text-anchor="middle" x="611" y="-63.5" font-family="Helvetica,sans-Serif" font-size="10.00">amr&#45;wind/core/ViewField.H</text>
</a>
</g>
</g>
<!-- Node2&#45;&gt;Node12 -->
<g id="edge11" class="edge">
<title>Node2&#45;&gt;Node12</title>
<path fill="none" stroke="midnightblue" d="M792.77,-112.44C755.49,-103.12 695.73,-88.18 654.99,-78"/>
<polygon fill="midnightblue" stroke="midnightblue" points="655.62,-74.55 645.07,-75.52 653.92,-81.34 655.62,-74.55"/>
</g>
<!-- Node12&#45;&gt;Node3 -->
<g id="edge12" class="edge">
<title>Node12&#45;&gt;Node3</title>
<path fill="none" stroke="midnightblue" d="M637.78,-56.44C667.76,-46.86 716.31,-31.35 748.2,-21.16"/>
<polygon fill="midnightblue" stroke="midnightblue" points="749.46,-24.43 757.92,-18.05 747.33,-17.76 749.46,-24.43"/>
</g>
<!-- Node12&#45;&gt;Node7 -->
<g id="edge14" class="edge">
<title>Node12&#45;&gt;Node7</title>
<path fill="none" stroke="midnightblue" d="M545.4,-56.44C467.72,-46.31 339.15,-29.54 261.81,-19.45"/>
<polygon fill="midnightblue" stroke="midnightblue" points="262.08,-15.96 251.72,-18.14 261.18,-22.9 262.08,-15.96"/>
</g>
<!-- Node12&#45;&gt;Node11 -->
<g id="edge13" class="edge">
<title>Node12&#45;&gt;Node11</title>
<path fill="none" stroke="midnightblue" d="M670.58,-56.44C737.68,-46.81 846.6,-31.16 917.52,-20.98"/>
<polygon fill="midnightblue" stroke="midnightblue" points="918.3,-24.4 927.7,-19.52 917.3,-17.47 918.3,-24.4"/>
</g>
<!-- Node13 -->
<g id="node13" class="node">
<title>Node13</title>
<g id="a_node13"><a xlink:title=" ">
<polygon fill="white" stroke="#bfbfbf" points="562,-0.5 562,-19.5 660,-19.5 660,-0.5 562,-0.5"/>
<text text-anchor="middle" x="611" y="-7.5" font-family="Helvetica,sans-Serif" font-size="10.00">AMReX_Vector.H</text>
</a>
</g>
</g>
<!-- Node12&#45;&gt;Node13 -->
<g id="edge15" class="edge">
<title>Node12&#45;&gt;Node13</title>
<path fill="none" stroke="midnightblue" d="M611,-56.08C611,-49.01 611,-38.86 611,-29.99"/>
<polygon fill="midnightblue" stroke="midnightblue" points="614.5,-29.75 611,-19.75 607.5,-29.75 614.5,-29.75"/>
</g>
<!-- Node14&#45;&gt;Node15 -->
<g id="edge17" class="edge">
<title>Node14&#45;&gt;Node15</title>
<path fill="none" stroke="midnightblue" d="M1592.47,-168.08C1595.31,-160.77 1599.43,-150.18 1602.96,-141.1"/>
<polygon fill="midnightblue" stroke="midnightblue" points="1606.23,-142.34 1606.6,-131.75 1599.71,-139.8 1606.23,-142.34"/>
</g>
<!-- Node16 -->
<g id="node16" class="node">
<title>Node16</title>
<g id="a_node16"><a xlink:title=" ">
<polygon fill="white" stroke="#bfbfbf" points="1674,-112.5 1674,-131.5 1808,-131.5 1808,-112.5 1674,-112.5"/>
<text text-anchor="middle" x="1741" y="-119.5" font-family="Helvetica,sans-Serif" font-size="10.00">AMReX_GpuQualifiers.H</text>
</a>
</g>
</g>
<!-- Node14&#45;&gt;Node16 -->
<g id="edge18" class="edge">
<title>Node14&#45;&gt;Node16</title>
<path fill="none" stroke="midnightblue" d="M1613.08,-168.44C1638.54,-159.4 1678.89,-145.06 1707.46,-134.92"/>
<polygon fill="midnightblue" stroke="midnightblue" points="1708.78,-138.16 1717.03,-131.52 1706.43,-131.57 1708.78,-138.16"/>
</g>
<!-- Node17 -->
<g id="node17" class="node">
<title>Node17</title>
<g id="a_node17"><a xlink:title=" ">
<polygon fill="white" stroke="#bfbfbf" points="1826,-112.5 1826,-131.5 1942,-131.5 1942,-112.5 1826,-112.5"/>
<text text-anchor="middle" x="1884" y="-119.5" font-family="Helvetica,sans-Serif" font-size="10.00">AMReX_Extension.H</text>
</a>
</g>
</g>
<!-- Node14&#45;&gt;Node17 -->
<g id="edge19" class="edge">
<title>Node14&#45;&gt;Node17</title>
<path fill="none" stroke="midnightblue" d="M1635.74,-168.44C1687.75,-158.92 1771.75,-143.55 1827.42,-133.36"/>
<polygon fill="midnightblue" stroke="midnightblue" points="1828.27,-136.76 1837.48,-131.52 1827.01,-129.87 1828.27,-136.76"/>
</g>
<!-- Node18&#45;&gt;Node7 -->
<g id="edge23" class="edge">
<title>Node18&#45;&gt;Node7</title>
<path fill="none" stroke="midnightblue" d="M112.23,-56.32C128.35,-47.7 153.3,-34.36 171.96,-24.39"/>
<polygon fill="midnightblue" stroke="midnightblue" points="173.64,-27.46 180.81,-19.65 170.34,-21.28 173.64,-27.46"/>
</g>
<!-- Node18&#45;&gt;Node11 -->
<g id="edge22" class="edge">
<title>Node18&#45;&gt;Node11</title>
<path fill="none" stroke="midnightblue" d="M169.28,-59.31C184.71,-58.17 200.89,-57.01 216,-56 457.54,-39.89 741.86,-24.12 888.49,-16.23"/>
<polygon fill="midnightblue" stroke="midnightblue" points="889.01,-19.7 898.8,-15.67 888.63,-12.71 889.01,-19.7"/>
</g>
<!-- Node19 -->
<g id="node19" class="node">
<title>Node19</title>
<g id="a_node19"><a xlink:title=" ">
<polygon fill="white" stroke="#bfbfbf" points="0,-0.5 0,-19.5 124,-19.5 124,-0.5 0,-0.5"/>
<text text-anchor="middle" x="62" y="-7.5" font-family="Helvetica,sans-Serif" font-size="10.00">AMReX_Interpolater.H</text>
</a>
</g>
</g>
<!-- Node18&#45;&gt;Node19 -->
<g id="edge24" class="edge">
<title>Node18&#45;&gt;Node19</title>
<path fill="none" stroke="midnightblue" d="M90.39,-56.08C85.63,-48.53 78.68,-37.49 72.85,-28.23"/>
<polygon fill="midnightblue" stroke="midnightblue" points="75.8,-26.35 67.51,-19.75 69.88,-30.08 75.8,-26.35"/>
</g>
<!-- Node20&#45;&gt;Node2 -->
<g id="edge27" class="edge">
<title>Node20&#45;&gt;Node2</title>
<path fill="none" stroke="midnightblue" d="M1145.1,-168.44C1077.64,-158.81 968.14,-143.16 896.85,-132.98"/>
<polygon fill="midnightblue" stroke="midnightblue" points="897.01,-129.47 886.62,-131.52 896.02,-136.4 897.01,-129.47"/>
</g>
<!-- Node20&#45;&gt;Node9 -->
<g id="edge28" class="edge">
<title>Node20&#45;&gt;Node9</title>
<path fill="none" stroke="midnightblue" d="M1162.28,-168.48C1141.37,-162.04 1117.79,-150.93 1104,-132 1094.3,-118.68 1093.35,-99.56 1094.35,-85.51"/>
<polygon fill="midnightblue" stroke="midnightblue" points="1097.83,-85.85 1095.43,-75.53 1090.87,-85.09 1097.83,-85.85"/>
</g>
<!-- Node20&#45;&gt;Node11 -->
<g id="edge26" class="edge">
<title>Node20&#45;&gt;Node11</title>
<path fill="none" stroke="midnightblue" d="M1181.55,-168.41C1165.84,-161.28 1146.38,-149.46 1137,-132 1120.81,-101.88 1169.69,-83.22 1149,-56 1137.24,-40.53 1093.92,-28.99 1055.03,-21.46"/>
<polygon fill="midnightblue" stroke="midnightblue" points="1055.21,-17.93 1044.74,-19.54 1053.92,-24.82 1055.21,-17.93"/>
</g>
<!-- Node21 -->
<g id="node21" class="node">
<title>Node21</title>
<g id="a_node21"><a xlink:title=" ">
<polygon fill="white" stroke="#bfbfbf" points="1146.5,-112.5 1146.5,-131.5 1263.5,-131.5 1263.5,-112.5 1146.5,-112.5"/>
<text text-anchor="middle" x="1205" y="-119.5" font-family="Helvetica,sans-Serif" font-size="10.00">AMReX_FArrayBox.H</text>
</a>
</g>
</g>
<!-- Node20&#45;&gt;Node21 -->
<g id="edge29" class="edge">
<title>Node20&#45;&gt;Node21</title>
<path fill="none" stroke="midnightblue" d="M1205,-168.08C1205,-161.01 1205,-150.86 1205,-141.99"/>
<polygon fill="midnightblue" stroke="midnightblue" points="1208.5,-141.75 1205,-131.75 1201.5,-141.75 1208.5,-141.75"/>
</g>
<!-- Node22 -->
<g id="node22" class="node">
<title>Node22</title>
<g id="a_node22"><a xlink:title=" ">
<polygon fill="white" stroke="#bfbfbf" points="1281.5,-112.5 1281.5,-131.5 1396.5,-131.5 1396.5,-112.5 1281.5,-112.5"/>
<text text-anchor="middle" x="1339" y="-119.5" font-family="Helvetica,sans-Serif" font-size="10.00">AMReX_Geometry.H</text>
</a>
</g>
</g>
<!-- Node20&#45;&gt;Node22 -->
<g id="edge30" class="edge">
<title>Node20&#45;&gt;Node22</title>
<path fill="none" stroke="midnightblue" d="M1226.23,-168.44C1248.38,-159.52 1283.32,-145.44 1308.44,-135.32"/>
<polygon fill="midnightblue" stroke="midnightblue" points="1309.9,-138.5 1317.87,-131.52 1307.28,-132.01 1309.9,-138.5"/>
</g>
<!-- Node20&#45;&gt;Node23 -->
<g id="edge31" class="edge">
<title>Node20&#45;&gt;Node23</title>
<path fill="none" stroke="midnightblue" d="M1248.57,-168.44C1296.85,-158.96 1374.71,-143.67 1426.61,-133.48"/>
<polygon fill="midnightblue" stroke="midnightblue" points="1427.49,-136.88 1436.63,-131.52 1426.14,-130.01 1427.49,-136.88"/>
</g>
</g>
</svg>
