<?xml version="1.0" encoding="UTF-8" standalone="no"?>
<!DOCTYPE svg PUBLIC "-//W3C//DTD SVG 1.1//EN"
 "http://www.w3.org/Graphics/SVG/1.1/DTD/svg11.dtd">
<!-- Generated by graphviz version 2.43.0 (0)
 -->
<!-- Title: Field.H Pages: 1 -->
<!--zoomable 196 -->
<svg id="main" version="1.1" xmlns="http://www.w3.org/2000/svg" xmlns:xlink="http://www.w3.org/1999/xlink" xml:space="preserve" onload="init(evt)">
<style type="text/css"><![CDATA[
.edge:hover path { stroke: red; }
.edge:hover polygon { stroke: red; fill: red; }
]]></style>
<script type="text/javascript"><![CDATA[
var edges = document.getElementsByTagName('g');
if (edges && edges.length) {
  for (var i=0;i<edges.length;i++) {
    if (edges[i].id.substr(0,4)=='edge') {
      edges[i].setAttribute('class','edge');
    }
  }
}
]]></script>
        <defs>
                <circle id="rim" cx="0" cy="0" r="7"/>
                <circle id="rim2" cx="0" cy="0" r="3.5"/>
                <g id="zoomPlus">
                        <use xlink:href="#rim" fill="#404040">
                                <set attributeName="fill" to="#808080" begin="zoomplus.mouseover" end="zoomplus.mouseout"/>
                        </use>
                        <path d="M-4,0h8M0,-4v8" fill="none" stroke="white" stroke-width="1.5" pointer-events="none"/>
                </g>
                <g id="zoomMin">
                        <use xlink:href="#rim" fill="#404040">
                                <set attributeName="fill" to="#808080" begin="zoomminus.mouseover" end="zoomminus.mouseout"/>
                        </use>
                        <path d="M-4,0h8" fill="none" stroke="white" stroke-width="1.5" pointer-events="none"/>
                </g>
                <g id="dirArrow">
                        <path fill="none" stroke="white" stroke-width="1.5" d="M0,-3.0v7 M-2.5,-0.5L0,-3.0L2.5,-0.5"/>
                </g>
               <g id="resetDef">
                       <use xlink:href="#rim2" fill="#404040">
                               <set attributeName="fill" to="#808080" begin="reset.mouseover" end="reset.mouseout"/>
                       </use>
               </g>
        </defs>

<script type="text/javascript">
var viewWidth = 4945;
var viewHeight = 196;
var sectionId = 'dynsection-1';
</script>
<script xlink:href="svgpan.js"/>
<svg id="graph" class="graph">
<g id="viewport">
<title>Field.H</title>
<polygon fill="white" stroke="transparent" points="-4,4 -4,-192 4940.57,-192 4940.57,4 -4,4"/>
<!-- Node1 -->
<g id="node1" class="node">
<title>Node1</title>
<g id="a_node1"><a xlink:title=" ">
<polygon fill="#bfbfbf" stroke="black" points="2188.07,-168.5 2188.07,-187.5 2238.07,-187.5 2238.07,-168.5 2188.07,-168.5"/>
<text text-anchor="middle" x="2213.07" y="-175.5" font-family="Helvetica,sans-Serif" font-size="10.00">Field.H</text>
</a>
</g>
</g>
<!-- Node2 -->
<g id="node2" class="node">
<title>Node2</title>
<g id="a_node2"><a xlink:href="_b_c_interface_8_h.html" target="_top" xlink:title=" ">
<polygon fill="white" stroke="black" points="257.07,-112.5 257.07,-131.5 341.07,-131.5 341.07,-112.5 257.07,-112.5"/>
<text text-anchor="middle" x="299.07" y="-119.5" font-family="Helvetica,sans-Serif" font-size="10.00">BCInterface.H</text>
</a>
</g>
</g>
<!-- Node1&#45;&gt;Node2 -->
<g id="edge1" class="edge">
<title>Node1&#45;&gt;Node2</title>
<path fill="none" stroke="midnightblue" d="M2177.54,-176.8C1952.99,-175.41 728.1,-166.33 355.07,-132 350.56,-131.58 345.86,-131.03 341.19,-130.39"/>
<polygon fill="midnightblue" stroke="midnightblue" points="2177.74,-180.3 2187.76,-176.86 2177.79,-173.3 2177.74,-180.3"/>
</g>
<!-- Node4 -->
<g id="node4" class="node">
<title>Node4</title>
<g id="a_node4"><a xlink:href="_field_8cpp.html" target="_top" xlink:title=" ">
<polygon fill="white" stroke="black" points="301.07,-0.5 301.07,-19.5 361.07,-19.5 361.07,-0.5 301.07,-0.5"/>
<text text-anchor="middle" x="331.07" y="-7.5" font-family="Helvetica,sans-Serif" font-size="10.00">Field.cpp</text>
</a>
</g>
</g>
<!-- Node1&#45;&gt;Node4 -->
<g id="edge6" class="edge">
<title>Node1&#45;&gt;Node4</title>
<path fill="none" stroke="midnightblue" d="M2177.71,-176.9C1974.44,-176.17 952.85,-170.61 641.07,-132 526.78,-117.84 487.18,-134.65 388.07,-76 364.05,-61.78 344.84,-33.91 336.14,-19.73"/>
<polygon fill="midnightblue" stroke="midnightblue" points="2177.82,-180.4 2187.83,-176.93 2177.84,-173.4 2177.82,-180.4"/>
</g>
<!-- Node19 -->
<g id="node7" class="node">
<title>Node19</title>
<g id="a_node7"><a xlink:href="field__ops_8_h.html" target="_top" xlink:title=" ">
<polygon fill="white" stroke="red" points="1012.57,-112.5 1012.57,-131.5 1083.57,-131.5 1083.57,-112.5 1012.57,-112.5"/>
<text text-anchor="middle" x="1048.07" y="-119.5" font-family="Helvetica,sans-Serif" font-size="10.00">field_ops.H</text>
</a>
</g>
</g>
<!-- Node1&#45;&gt;Node19 -->
<g id="edge7" class="edge">
<title>Node1&#45;&gt;Node19</title>
<path fill="none" stroke="midnightblue" d="M2177.47,-176.32C2011.26,-173.05 1310.51,-157.95 1093.07,-132 1090.06,-131.64 1086.96,-131.19 1083.85,-130.68"/>
<polygon fill="midnightblue" stroke="midnightblue" points="2177.57,-179.83 2187.64,-176.52 2177.71,-172.83 2177.57,-179.83"/>
</g>
<!-- Node50 -->
<g id="node8" class="node">
<title>Node50</title>
<g id="a_node8"><a xlink:href="_field_b_c_ops_8_h.html" target="_top" xlink:title=" ">
<polygon fill="white" stroke="red" points="27.57,-112.5 27.57,-131.5 110.57,-131.5 110.57,-112.5 27.57,-112.5"/>
<text text-anchor="middle" x="69.07" y="-119.5" font-family="Helvetica,sans-Serif" font-size="10.00">FieldBCOps.H</text>
</a>
</g>
</g>
<!-- Node1&#45;&gt;Node50 -->
<g id="edge8" class="edge">
<title>Node1&#45;&gt;Node50</title>
<path fill="none" stroke="midnightblue" d="M2177.81,-177.1C1979.47,-177.51 982.69,-177.1 170.07,-132 150.56,-130.92 128.98,-129.08 110.79,-127.35"/>
<polygon fill="midnightblue" stroke="midnightblue" points="2177.95,-180.6 2187.94,-177.08 2177.94,-173.6 2177.95,-180.6"/>
</g>
<!-- Node58 -->
<g id="node9" class="node">
<title>Node58</title>
<g id="a_node9"><a xlink:href="_field_fill_patch_ops_8_h.html" target="_top" xlink:title=" ">
<polygon fill="white" stroke="red" points="14.07,-56.5 14.07,-75.5 124.07,-75.5 124.07,-56.5 14.07,-56.5"/>
<text text-anchor="middle" x="69.07" y="-63.5" font-family="Helvetica,sans-Serif" font-size="10.00">FieldFillPatchOps.H</text>
</a>
</g>
</g>
<!-- Node1&#45;&gt;Node58 -->
<g id="edge12" class="edge">
<title>Node1&#45;&gt;Node58</title>
<path fill="none" stroke="midnightblue" d="M2177.63,-176.88C1928.51,-175.95 444.59,-168.9 248.07,-132 186.66,-120.47 118.36,-90.54 86.82,-75.66"/>
<polygon fill="midnightblue" stroke="midnightblue" points="2177.9,-180.38 2187.91,-176.92 2177.93,-173.38 2177.9,-180.38"/>
</g>
<!-- Node102 -->
<g id="node10" class="node">
<title>Node102</title>
<g id="a_node10"><a xlink:href="_field_repo_8_h.html" target="_top" xlink:title=" ">
<polygon fill="white" stroke="red" points="766.57,-112.5 766.57,-131.5 841.57,-131.5 841.57,-112.5 766.57,-112.5"/>
<text text-anchor="middle" x="804.07" y="-119.5" font-family="Helvetica,sans-Serif" font-size="10.00">FieldRepo.H</text>
</a>
</g>
</g>
<!-- Node1&#45;&gt;Node102 -->
<g id="edge13" class="edge">
<title>Node1&#45;&gt;Node102</title>
<path fill="none" stroke="midnightblue" d="M2177.99,-176.49C1992.42,-173.72 1123.62,-159.46 856.07,-132 851.42,-131.52 846.56,-130.88 841.76,-130.15"/>
<polygon fill="midnightblue" stroke="midnightblue" points="2177.97,-179.99 2188.02,-176.64 2178.07,-173 2177.97,-179.99"/>
</g>
<!-- Node250 -->
<g id="node11" class="node">
<title>Node250</title>
<g id="a_node11"><a xlink:href="_view_field_8cpp.html" target="_top" xlink:title=" ">
<polygon fill="white" stroke="black" points="509.07,-56.5 509.07,-75.5 593.07,-75.5 593.07,-56.5 509.07,-56.5"/>
<text text-anchor="middle" x="551.07" y="-63.5" font-family="Helvetica,sans-Serif" font-size="10.00">ViewField.cpp</text>
</a>
</g>
</g>
<!-- Node1&#45;&gt;Node250 -->
<g id="edge24" class="edge">
<title>Node1&#45;&gt;Node250</title>
<path fill="none" stroke="midnightblue" d="M2177.63,-176.72C1964.16,-174.92 853.95,-164.05 706.07,-132 652.17,-120.32 593.37,-90.46 566.29,-75.63"/>
<polygon fill="midnightblue" stroke="midnightblue" points="2177.91,-180.22 2187.94,-176.8 2177.97,-173.22 2177.91,-180.22"/>
</g>
<!-- Node70 -->
<g id="node12" class="node">
<title>Node70</title>
<g id="a_node12"><a xlink:href="_burggraf_lid_8cpp.html" target="_top" xlink:title=" ">
<polygon fill="white" stroke="black" points="610.57,-56.5 610.57,-75.5 703.57,-75.5 703.57,-56.5 610.57,-56.5"/>
<text text-anchor="middle" x="657.07" y="-63.5" font-family="Helvetica,sans-Serif" font-size="10.00">BurggrafLid.cpp</text>
</a>
</g>
</g>
<!-- Node1&#45;&gt;Node70 -->
<g id="edge45" class="edge">
<title>Node1&#45;&gt;Node70</title>
<path fill="none" stroke="midnightblue" d="M2177.8,-177.15C1967.76,-177.9 886.27,-179.38 747.07,-132 712.77,-120.32 680.31,-90.74 665.49,-75.85"/>
<polygon fill="midnightblue" stroke="midnightblue" points="2177.97,-180.65 2187.95,-177.11 2177.94,-173.65 2177.97,-180.65"/>
</g>
<!-- Node292 -->
<g id="node13" class="node">
<title>Node292</title>
<g id="a_node13"><a xlink:href="_linear_profile_8cpp.html" target="_top" xlink:title=" ">
<polygon fill="white" stroke="black" points="722.07,-56.5 722.07,-75.5 820.07,-75.5 820.07,-56.5 722.07,-56.5"/>
<text text-anchor="middle" x="771.07" y="-63.5" font-family="Helvetica,sans-Serif" font-size="10.00">LinearProfile.cpp</text>
</a>
</g>
</g>
<!-- Node1&#45;&gt;Node292 -->
<g id="edge46" class="edge">
<title>Node1&#45;&gt;Node292</title>
<path fill="none" stroke="midnightblue" d="M2177.96,-176.58C1958.41,-173.9 782.61,-158.34 757.07,-132 742.29,-116.75 755.99,-89.84 764.86,-75.91"/>
<polygon fill="midnightblue" stroke="midnightblue" points="2177.93,-180.08 2187.97,-176.71 2178.02,-173.08 2177.93,-180.08"/>
</g>
<!-- Node71 -->
<g id="node14" class="node">
<title>Node71</title>
<g id="a_node14"><a xlink:href="_power_law_profile_8cpp.html" target="_top" xlink:title=" ">
<polygon fill="white" stroke="black" points="876.57,-56.5 876.57,-75.5 993.57,-75.5 993.57,-56.5 876.57,-56.5"/>
<text text-anchor="middle" x="935.07" y="-63.5" font-family="Helvetica,sans-Serif" font-size="10.00">PowerLawProfile.cpp</text>
</a>
</g>
</g>
<!-- Node1&#45;&gt;Node71 -->
<g id="edge47" class="edge">
<title>Node1&#45;&gt;Node71</title>
<path fill="none" stroke="midnightblue" d="M2177.9,-176.62C1981.96,-174.4 1031.75,-162.13 978.07,-132 955.89,-119.55 943.1,-90.33 937.87,-75.69"/>
<polygon fill="midnightblue" stroke="midnightblue" points="2177.91,-180.12 2187.94,-176.73 2177.98,-173.12 2177.91,-180.12"/>
</g>
<!-- Node293 -->
<g id="node15" class="node">
<title>Node293</title>
<g id="a_node15"><a xlink:href="_u_d_f_8cpp.html" target="_top" xlink:title=" ">
<polygon fill="white" stroke="black" points="1012.07,-56.5 1012.07,-75.5 1068.07,-75.5 1068.07,-56.5 1012.07,-56.5"/>
<text text-anchor="middle" x="1040.07" y="-63.5" font-family="Helvetica,sans-Serif" font-size="10.00">UDF.cpp</text>
</a>
</g>
</g>
<!-- Node1&#45;&gt;Node293 -->
<g id="edge48" class="edge">
<title>Node1&#45;&gt;Node293</title>
<path fill="none" stroke="midnightblue" d="M2177.81,-177.07C1981.39,-177.27 1029.48,-176 987.07,-132 968.78,-113.03 1002.85,-88.39 1024.38,-75.58"/>
<polygon fill="midnightblue" stroke="midnightblue" points="2177.88,-180.57 2187.88,-177.05 2177.87,-173.57 2177.88,-180.57"/>
</g>
<!-- Node173 -->
<g id="node16" class="node">
<title>Node173</title>
<g id="a_node16"><a xlink:href="_re_averaging_8cpp.html" target="_top" xlink:title=" ">
<polygon fill="white" stroke="black" points="1086.07,-56.5 1086.07,-75.5 1184.07,-75.5 1184.07,-56.5 1086.07,-56.5"/>
<text text-anchor="middle" x="1135.07" y="-63.5" font-family="Helvetica,sans-Serif" font-size="10.00">ReAveraging.cpp</text>
</a>
</g>
</g>
<!-- Node1&#45;&gt;Node173 -->
<g id="edge51" class="edge">
<title>Node1&#45;&gt;Node173</title>
<path fill="none" stroke="midnightblue" d="M2177.75,-177.06C1981.96,-177.21 1037.18,-175.69 995.07,-132 988.9,-125.6 989.83,-119.18 995.07,-112 1006.46,-96.37 1053.4,-83.48 1089.83,-75.56"/>
<polygon fill="midnightblue" stroke="midnightblue" points="2178.04,-180.56 2188.04,-177.05 2178.04,-173.56 2178.04,-180.56"/>
</g>
<!-- Node174 -->
<g id="node17" class="node">
<title>Node174</title>
<g id="a_node17"><a xlink:href="_reynolds_stress_8cpp.html" target="_top" xlink:title=" ">
<polygon fill="white" stroke="black" points="1202.07,-56.5 1202.07,-75.5 1314.07,-75.5 1314.07,-56.5 1202.07,-56.5"/>
<text text-anchor="middle" x="1258.07" y="-63.5" font-family="Helvetica,sans-Serif" font-size="10.00">ReynoldsStress.cpp</text>
</a>
</g>
</g>
<!-- Node1&#45;&gt;Node174 -->
<g id="edge52" class="edge">
<title>Node1&#45;&gt;Node174</title>
<path fill="none" stroke="midnightblue" d="M2177.67,-177.05C1982.47,-177.15 1044.88,-175.39 1003.07,-132 996.9,-125.6 997.36,-118.81 1003.07,-112 1009.46,-104.38 1128.92,-85.79 1202.03,-75.03"/>
<polygon fill="midnightblue" stroke="midnightblue" points="2177.94,-180.55 2187.93,-177.04 2177.93,-173.55 2177.94,-180.55"/>
</g>
<!-- Node298 -->
<g id="node18" class="node">
<title>Node298</title>
<g id="a_node18"><a xlink:href="_mesh_map_8_h.html" target="_top" xlink:title=" ">
<polygon fill="white" stroke="red" points="1102.07,-112.5 1102.07,-131.5 1176.07,-131.5 1176.07,-112.5 1102.07,-112.5"/>
<text text-anchor="middle" x="1139.07" y="-119.5" font-family="Helvetica,sans-Serif" font-size="10.00">MeshMap.H</text>
</a>
</g>
</g>
<!-- Node1&#45;&gt;Node298 -->
<g id="edge23" class="edge">
<title>Node1&#45;&gt;Node298</title>
<path fill="none" stroke="midnightblue" d="M2177.62,-177.36C2045.85,-178.3 1571.99,-178.06 1185.07,-132 1182.16,-131.65 1179.16,-131.23 1176.15,-130.75"/>
<polygon fill="midnightblue" stroke="midnightblue" points="2177.94,-180.86 2187.91,-177.28 2177.89,-173.86 2177.94,-180.86"/>
</g>
<!-- Node303 -->
<g id="node19" class="node">
<title>Node303</title>
<g id="a_node19"><a xlink:href="_boussinesq_bubble_8_h.html" target="_top" xlink:title=" ">
<polygon fill="white" stroke="red" points="1194.07,-112.5 1194.07,-131.5 1310.07,-131.5 1310.07,-112.5 1194.07,-112.5"/>
<text text-anchor="middle" x="1252.07" y="-119.5" font-family="Helvetica,sans-Serif" font-size="10.00">BoussinesqBubble.H</text>
</a>
</g>
</g>
<!-- Node1&#45;&gt;Node303 -->
<g id="edge25" class="edge">
<title>Node1&#45;&gt;Node303</title>
<path fill="none" stroke="midnightblue" d="M2177.65,-176.28C2057.17,-173.59 1652.17,-162.7 1319.07,-132 1316.15,-131.73 1313.16,-131.43 1310.14,-131.1"/>
<polygon fill="midnightblue" stroke="midnightblue" points="2177.7,-179.78 2187.77,-176.5 2177.85,-172.78 2177.7,-179.78"/>
</g>
<!-- Node151 -->
<g id="node20" class="node">
<title>Node151</title>
<g id="a_node20"><a xlink:href="_burggraf_flow_8_h.html" target="_top" xlink:title=" ">
<polygon fill="white" stroke="red" points="1328.07,-112.5 1328.07,-131.5 1420.07,-131.5 1420.07,-112.5 1328.07,-112.5"/>
<text text-anchor="middle" x="1374.07" y="-119.5" font-family="Helvetica,sans-Serif" font-size="10.00">BurggrafFlow.H</text>
</a>
</g>
</g>
<!-- Node1&#45;&gt;Node151 -->
<g id="edge26" class="edge">
<title>Node1&#45;&gt;Node151</title>
<path fill="none" stroke="midnightblue" d="M2177.68,-176.29C2066.89,-173.78 1716.94,-163.73 1429.07,-132 1426.19,-131.68 1423.22,-131.31 1420.24,-130.91"/>
<polygon fill="midnightblue" stroke="midnightblue" points="2177.87,-179.79 2187.94,-176.52 2178.02,-172.8 2177.87,-179.79"/>
</g>
<!-- Node56 -->
<g id="node21" class="node">
<title>Node56</title>
<g id="a_node21"><a xlink:href="_channel_flow_8_h.html" target="_top" xlink:title=" ">
<polygon fill="white" stroke="red" points="1438.57,-112.5 1438.57,-131.5 1527.57,-131.5 1527.57,-112.5 1438.57,-112.5"/>
<text text-anchor="middle" x="1483.07" y="-119.5" font-family="Helvetica,sans-Serif" font-size="10.00">ChannelFlow.H</text>
</a>
</g>
</g>
<!-- Node1&#45;&gt;Node56 -->
<g id="edge27" class="edge">
<title>Node1&#45;&gt;Node56</title>
<path fill="none" stroke="midnightblue" d="M2177.55,-175.91C2076.77,-172.56 1780.44,-160.79 1536.07,-132 1533.38,-131.68 1530.62,-131.32 1527.84,-130.93"/>
<polygon fill="midnightblue" stroke="midnightblue" points="2177.67,-179.42 2187.78,-176.25 2177.9,-172.42 2177.67,-179.42"/>
</g>
<!-- Node153 -->
<g id="node22" class="node">
<title>Node153</title>
<g id="a_node22"><a xlink:href="_convecting_taylor_vortex_8_h.html" target="_top" xlink:title=" ">
<polygon fill="white" stroke="red" points="1545.57,-112.5 1545.57,-131.5 1688.57,-131.5 1688.57,-112.5 1545.57,-112.5"/>
<text text-anchor="middle" x="1617.07" y="-119.5" font-family="Helvetica,sans-Serif" font-size="10.00">ConvectingTaylorVortex.H</text>
</a>
</g>
</g>
<!-- Node1&#45;&gt;Node153 -->
<g id="edge28" class="edge">
<title>Node1&#45;&gt;Node153</title>
<path fill="none" stroke="midnightblue" d="M2177.84,-174.23C2094.31,-167.61 1877.7,-150.03 1697.07,-132 1694.29,-131.72 1691.45,-131.43 1688.59,-131.14"/>
<polygon fill="midnightblue" stroke="midnightblue" points="2177.57,-177.72 2187.81,-175.02 2178.12,-170.74 2177.57,-177.72"/>
</g>
<!-- Node155 -->
<g id="node23" class="node">
<title>Node155</title>
<g id="a_node23"><a xlink:href="_ekman_spiral_8_h.html" target="_top" xlink:title=" ">
<polygon fill="white" stroke="red" points="1706.57,-112.5 1706.57,-131.5 1795.57,-131.5 1795.57,-112.5 1706.57,-112.5"/>
<text text-anchor="middle" x="1751.07" y="-119.5" font-family="Helvetica,sans-Serif" font-size="10.00">EkmanSpiral.H</text>
</a>
</g>
</g>
<!-- Node1&#45;&gt;Node155 -->
<g id="edge29" class="edge">
<title>Node1&#45;&gt;Node155</title>
<path fill="none" stroke="midnightblue" d="M2177.44,-173.79C2106.3,-167.22 1941.69,-151.24 1804.07,-132 1801.3,-131.61 1798.45,-131.19 1795.57,-130.75"/>
<polygon fill="midnightblue" stroke="midnightblue" points="2177.36,-177.3 2187.64,-174.72 2178,-170.33 2177.36,-177.3"/>
</g>
<!-- Node304 -->
<g id="node24" class="node">
<title>Node304</title>
<g id="a_node24"><a xlink:href="_free_stream_8_h.html" target="_top" xlink:title=" ">
<polygon fill="white" stroke="red" points="1813.57,-112.5 1813.57,-131.5 1896.57,-131.5 1896.57,-112.5 1813.57,-112.5"/>
<text text-anchor="middle" x="1855.07" y="-119.5" font-family="Helvetica,sans-Serif" font-size="10.00">FreeStream.H</text>
</a>
</g>
</g>
<!-- Node1&#45;&gt;Node304 -->
<g id="edge30" class="edge">
<title>Node1&#45;&gt;Node304</title>
<path fill="none" stroke="midnightblue" d="M2177.9,-172.25C2120.63,-164.42 2003.74,-148.08 1905.07,-132 1902.37,-131.56 1899.59,-131.09 1896.8,-130.62"/>
<polygon fill="midnightblue" stroke="midnightblue" points="2177.49,-175.72 2187.88,-173.61 2178.44,-168.79 2177.49,-175.72"/>
</g>
<!-- Node157 -->
<g id="node25" class="node">
<title>Node157</title>
<g id="a_node25"><a xlink:href="_hybrid_r_a_n_s_l_e_s_a_b_l_8_h.html" target="_top" xlink:title=" ">
<polygon fill="white" stroke="red" points="1914.57,-112.5 1914.57,-131.5 2037.57,-131.5 2037.57,-112.5 1914.57,-112.5"/>
<text text-anchor="middle" x="1976.07" y="-119.5" font-family="Helvetica,sans-Serif" font-size="10.00">HybridRANSLESABL.H</text>
</a>
</g>
</g>
<!-- Node1&#45;&gt;Node157 -->
<g id="edge31" class="edge">
<title>Node1&#45;&gt;Node157</title>
<path fill="none" stroke="midnightblue" d="M2177.74,-168.95C2133.7,-158.92 2058.75,-141.84 2013.67,-131.57"/>
<polygon fill="midnightblue" stroke="midnightblue" points="2177.18,-172.41 2187.71,-171.22 2178.74,-165.59 2177.18,-172.41"/>
</g>
<!-- Node159 -->
<g id="node26" class="node">
<title>Node159</title>
<g id="a_node26"><a xlink:href="_m_m_s_8_h.html" target="_top" xlink:title=" ">
<polygon fill="white" stroke="red" points="2055.57,-112.5 2055.57,-131.5 2106.57,-131.5 2106.57,-112.5 2055.57,-112.5"/>
<text text-anchor="middle" x="2081.07" y="-119.5" font-family="Helvetica,sans-Serif" font-size="10.00">MMS.H</text>
</a>
</g>
</g>
<!-- Node1&#45;&gt;Node159 -->
<g id="edge32" class="edge">
<title>Node1&#45;&gt;Node159</title>
<path fill="none" stroke="midnightblue" d="M2182.85,-164.64C2158.08,-154.5 2123.67,-140.43 2101.89,-131.52"/>
<polygon fill="midnightblue" stroke="midnightblue" points="2181.57,-167.9 2192.16,-168.44 2184.22,-161.42 2181.57,-167.9"/>
</g>
<!-- Node305 -->
<g id="node27" class="node">
<title>Node305</title>
<g id="a_node27"><a xlink:href="_dam_break_8_h.html" target="_top" xlink:title=" ">
<polygon fill="white" stroke="red" points="2124.57,-112.5 2124.57,-131.5 2203.57,-131.5 2203.57,-112.5 2124.57,-112.5"/>
<text text-anchor="middle" x="2164.07" y="-119.5" font-family="Helvetica,sans-Serif" font-size="10.00">DamBreak.H</text>
</a>
</g>
</g>
<!-- Node1&#45;&gt;Node305 -->
<g id="edge33" class="edge">
<title>Node1&#45;&gt;Node305</title>
<path fill="none" stroke="midnightblue" d="M2198.04,-160.43C2189.45,-150.97 2179.03,-139.48 2172.01,-131.75"/>
<polygon fill="midnightblue" stroke="midnightblue" points="2195.67,-163.03 2204.98,-168.08 2200.85,-158.33 2195.67,-163.03"/>
</g>
<!-- Node306 -->
<g id="node28" class="node">
<title>Node306</title>
<g id="a_node28"><a xlink:href="_multi_phase_8_h.html" target="_top" xlink:title=" ">
<polygon fill="white" stroke="red" points="2221.57,-112.5 2221.57,-131.5 2302.57,-131.5 2302.57,-112.5 2221.57,-112.5"/>
<text text-anchor="middle" x="2262.07" y="-119.5" font-family="Helvetica,sans-Serif" font-size="10.00">MultiPhase.H</text>
</a>
</g>
</g>
<!-- Node1&#45;&gt;Node306 -->
<g id="edge34" class="edge">
<title>Node1&#45;&gt;Node306</title>
<path fill="none" stroke="midnightblue" d="M2228.11,-160.43C2236.69,-150.97 2247.11,-139.48 2254.13,-131.75"/>
<polygon fill="midnightblue" stroke="midnightblue" points="2225.29,-158.33 2221.16,-168.08 2230.47,-163.03 2225.29,-158.33"/>
</g>
<!-- Node307 -->
<g id="node29" class="node">
<title>Node307</title>
<g id="a_node29"><a xlink:href="_rain_drop_8_h.html" target="_top" xlink:title=" ">
<polygon fill="white" stroke="red" points="2321.07,-112.5 2321.07,-131.5 2393.07,-131.5 2393.07,-112.5 2321.07,-112.5"/>
<text text-anchor="middle" x="2357.07" y="-119.5" font-family="Helvetica,sans-Serif" font-size="10.00">RainDrop.H</text>
</a>
</g>
</g>
<!-- Node1&#45;&gt;Node307 -->
<g id="edge35" class="edge">
<title>Node1&#45;&gt;Node307</title>
<path fill="none" stroke="midnightblue" d="M2245.32,-164.91C2272.39,-154.75 2310.39,-140.51 2334.36,-131.52"/>
<polygon fill="midnightblue" stroke="midnightblue" points="2244.02,-161.66 2235.89,-168.44 2246.48,-168.21 2244.02,-161.66"/>
</g>
<!-- Node308 -->
<g id="node30" class="node">
<title>Node308</title>
<g id="a_node30"><a xlink:href="_sloshing_tank_8_h.html" target="_top" xlink:title=" ">
<polygon fill="white" stroke="red" points="2411.57,-112.5 2411.57,-131.5 2502.57,-131.5 2502.57,-112.5 2411.57,-112.5"/>
<text text-anchor="middle" x="2457.07" y="-119.5" font-family="Helvetica,sans-Serif" font-size="10.00">SloshingTank.H</text>
</a>
</g>
</g>
<!-- Node1&#45;&gt;Node308 -->
<g id="edge36" class="edge">
<title>Node1&#45;&gt;Node308</title>
<path fill="none" stroke="midnightblue" d="M2248.19,-169.23C2293.38,-159.23 2371.62,-141.91 2418.45,-131.55"/>
<polygon fill="midnightblue" stroke="midnightblue" points="2247.27,-165.85 2238.26,-171.42 2248.78,-172.68 2247.27,-165.85"/>
</g>
<!-- Node309 -->
<g id="node31" class="node">
<title>Node309</title>
<g id="a_node31"><a xlink:href="_vortex_patch_8_h.html" target="_top" xlink:title=" ">
<polygon fill="white" stroke="red" points="2520.57,-112.5 2520.57,-131.5 2605.57,-131.5 2605.57,-112.5 2520.57,-112.5"/>
<text text-anchor="middle" x="2563.07" y="-119.5" font-family="Helvetica,sans-Serif" font-size="10.00">VortexPatch.H</text>
</a>
</g>
</g>
<!-- Node1&#45;&gt;Node309 -->
<g id="edge37" class="edge">
<title>Node1&#45;&gt;Node309</title>
<path fill="none" stroke="midnightblue" d="M2248.28,-171.93C2304.08,-163.85 2416.21,-147.37 2511.07,-132 2514.15,-131.5 2517.32,-130.98 2520.52,-130.44"/>
<polygon fill="midnightblue" stroke="midnightblue" points="2247.61,-168.49 2238.22,-173.39 2248.61,-175.42 2247.61,-168.49"/>
</g>
<!-- Node310 -->
<g id="node32" class="node">
<title>Node310</title>
<g id="a_node32"><a xlink:href="_vortex_patch_scalar_vel_8_h.html" target="_top" xlink:title=" ">
<polygon fill="white" stroke="red" points="2624.07,-112.5 2624.07,-131.5 2754.07,-131.5 2754.07,-112.5 2624.07,-112.5"/>
<text text-anchor="middle" x="2689.07" y="-119.5" font-family="Helvetica,sans-Serif" font-size="10.00">VortexPatchScalarVel.H</text>
</a>
</g>
</g>
<!-- Node1&#45;&gt;Node310 -->
<g id="edge38" class="edge">
<title>Node1&#45;&gt;Node310</title>
<path fill="none" stroke="midnightblue" d="M2248.44,-173.12C2318.33,-165.44 2479.04,-147.68 2614.07,-132 2617.33,-131.62 2620.66,-131.23 2624.03,-130.84"/>
<polygon fill="midnightblue" stroke="midnightblue" points="2247.97,-169.65 2238.41,-174.22 2248.74,-176.61 2247.97,-169.65"/>
</g>
<!-- Node311 -->
<g id="node33" class="node">
<title>Node311</title>
<g id="a_node33"><a xlink:href="_zalesak_disk_8_h.html" target="_top" xlink:title=" ">
<polygon fill="white" stroke="red" points="2772.07,-112.5 2772.07,-131.5 2860.07,-131.5 2860.07,-112.5 2772.07,-112.5"/>
<text text-anchor="middle" x="2816.07" y="-119.5" font-family="Helvetica,sans-Serif" font-size="10.00">ZalesakDisk.H</text>
</a>
</g>
</g>
<!-- Node1&#45;&gt;Node311 -->
<g id="edge39" class="edge">
<title>Node1&#45;&gt;Node311</title>
<path fill="none" stroke="midnightblue" d="M2248.25,-175.18C2335.61,-170.43 2569.39,-156.32 2763.07,-132 2765.94,-131.64 2768.89,-131.23 2771.87,-130.8"/>
<polygon fill="midnightblue" stroke="midnightblue" points="2247.89,-171.7 2238.09,-175.73 2248.27,-178.68 2247.89,-171.7"/>
</g>
<!-- Node312 -->
<g id="node34" class="node">
<title>Node312</title>
<g id="a_node34"><a xlink:href="_zalesak_disk_scalar_vel_8_h.html" target="_top" xlink:title=" ">
<polygon fill="white" stroke="red" points="2878.57,-112.5 2878.57,-131.5 3011.57,-131.5 3011.57,-112.5 2878.57,-112.5"/>
<text text-anchor="middle" x="2945.07" y="-119.5" font-family="Helvetica,sans-Serif" font-size="10.00">ZalesakDiskScalarVel.H</text>
</a>
</g>
</g>
<!-- Node1&#45;&gt;Node312 -->
<g id="edge40" class="edge">
<title>Node1&#45;&gt;Node312</title>
<path fill="none" stroke="midnightblue" d="M2248.4,-175.19C2346.82,-170.02 2632.43,-154.11 2869.07,-132 2872.11,-131.72 2875.22,-131.41 2878.36,-131.09"/>
<polygon fill="midnightblue" stroke="midnightblue" points="2247.94,-171.71 2238.13,-175.73 2248.3,-178.7 2247.94,-171.71"/>
</g>
<!-- Node313 -->
<g id="node35" class="node">
<title>Node313</title>
<g id="a_node35"><a xlink:href="_rayleigh_taylor_8_h.html" target="_top" xlink:title=" ">
<polygon fill="white" stroke="red" points="3030.07,-112.5 3030.07,-131.5 3128.07,-131.5 3128.07,-112.5 3030.07,-112.5"/>
<text text-anchor="middle" x="3079.07" y="-119.5" font-family="Helvetica,sans-Serif" font-size="10.00">RayleighTaylor.H</text>
</a>
</g>
</g>
<!-- Node1&#45;&gt;Node313 -->
<g id="edge41" class="edge">
<title>Node1&#45;&gt;Node313</title>
<path fill="none" stroke="midnightblue" d="M2248.37,-176.24C2361.11,-173.54 2722.61,-162.91 3020.07,-132 3023.27,-131.67 3026.55,-131.28 3029.86,-130.87"/>
<polygon fill="midnightblue" stroke="midnightblue" points="2248.16,-172.74 2238.24,-176.47 2248.32,-179.74 2248.16,-172.74"/>
</g>
<!-- Node314 -->
<g id="node36" class="node">
<title>Node314</title>
<g id="a_node36"><a xlink:href="_scalar_advection_8_h.html" target="_top" xlink:title=" ">
<polygon fill="white" stroke="red" points="3146.07,-112.5 3146.07,-131.5 3252.07,-131.5 3252.07,-112.5 3146.07,-112.5"/>
<text text-anchor="middle" x="3199.07" y="-119.5" font-family="Helvetica,sans-Serif" font-size="10.00">ScalarAdvection.H</text>
</a>
</g>
</g>
<!-- Node1&#45;&gt;Node314 -->
<g id="edge42" class="edge">
<title>Node1&#45;&gt;Node314</title>
<path fill="none" stroke="midnightblue" d="M2248.44,-176.49C2371.43,-174.47 2791.8,-165.39 3137.07,-132 3139.99,-131.72 3142.99,-131.39 3146.01,-131.04"/>
<polygon fill="midnightblue" stroke="midnightblue" points="2248.07,-173 2238.13,-176.66 2248.18,-180 2248.07,-173"/>
</g>
<!-- Node168 -->
<g id="node37" class="node">
<title>Node168</title>
<g id="a_node37"><a xlink:href="_synthetic_turbulence_8_h.html" target="_top" xlink:title=" ">
<polygon fill="white" stroke="red" points="3270.57,-112.5 3270.57,-131.5 3395.57,-131.5 3395.57,-112.5 3270.57,-112.5"/>
<text text-anchor="middle" x="3333.07" y="-119.5" font-family="Helvetica,sans-Serif" font-size="10.00">SyntheticTurbulence.H</text>
</a>
</g>
</g>
<!-- Node1&#45;&gt;Node168 -->
<g id="edge43" class="edge">
<title>Node1&#45;&gt;Node168</title>
<path fill="none" stroke="midnightblue" d="M2248.27,-176.53C2381.09,-174.53 2864.4,-165.25 3261.07,-132 3264.08,-131.75 3267.16,-131.46 3270.27,-131.16"/>
<polygon fill="midnightblue" stroke="midnightblue" points="2248.21,-173.03 2238.26,-176.67 2248.31,-180.03 2248.21,-173.03"/>
</g>
<!-- Node315 -->
<g id="node38" class="node">
<title>Node315</title>
<g id="a_node38"><a xlink:href="_taylor_green_vortex_8_h.html" target="_top" xlink:title=" ">
<polygon fill="white" stroke="red" points="3413.57,-112.5 3413.57,-131.5 3530.57,-131.5 3530.57,-112.5 3413.57,-112.5"/>
<text text-anchor="middle" x="3472.07" y="-119.5" font-family="Helvetica,sans-Serif" font-size="10.00">TaylorGreenVortex.H</text>
</a>
</g>
</g>
<!-- Node1&#45;&gt;Node315 -->
<g id="edge44" class="edge">
<title>Node1&#45;&gt;Node315</title>
<path fill="none" stroke="midnightblue" d="M2248.28,-176.88C2392.03,-176.11 2948.48,-170.67 3404.07,-132 3407.16,-131.74 3410.32,-131.44 3413.5,-131.11"/>
<polygon fill="midnightblue" stroke="midnightblue" points="2248.25,-173.38 2238.27,-176.92 2248.29,-180.37 2248.25,-173.38"/>
</g>
<!-- Node316 -->
<g id="node39" class="node">
<title>Node316</title>
<g id="a_node39"><a xlink:href="_vortex_dipole_8_h.html" target="_top" xlink:title=" ">
<polygon fill="white" stroke="red" points="3549.07,-112.5 3549.07,-131.5 3639.07,-131.5 3639.07,-112.5 3549.07,-112.5"/>
<text text-anchor="middle" x="3594.07" y="-119.5" font-family="Helvetica,sans-Serif" font-size="10.00">VortexDipole.H</text>
</a>
</g>
</g>
<!-- Node1&#45;&gt;Node316 -->
<g id="edge49" class="edge">
<title>Node1&#45;&gt;Node316</title>
<path fill="none" stroke="midnightblue" d="M2248.5,-176.41C2432.23,-173.28 3278.07,-157.68 3539.07,-132 3542.25,-131.69 3545.52,-131.31 3548.81,-130.88"/>
<polygon fill="midnightblue" stroke="midnightblue" points="2248.26,-172.92 2238.32,-176.59 2248.38,-179.92 2248.26,-172.92"/>
</g>
<!-- Node317 -->
<g id="node40" class="node">
<title>Node317</title>
<g id="a_node40"><a xlink:href="_vortex_ring_8_h.html" target="_top" xlink:title=" ">
<polygon fill="white" stroke="red" points="3657.07,-112.5 3657.07,-131.5 3737.07,-131.5 3737.07,-112.5 3657.07,-112.5"/>
<text text-anchor="middle" x="3697.07" y="-119.5" font-family="Helvetica,sans-Serif" font-size="10.00">VortexRing.H</text>
</a>
</g>
</g>
<!-- Node1&#45;&gt;Node317 -->
<g id="edge50" class="edge">
<title>Node1&#45;&gt;Node317</title>
<path fill="none" stroke="midnightblue" d="M2248.32,-176.61C2440.57,-174.4 3364.39,-162.33 3648.07,-132 3651,-131.69 3654.01,-131.3 3657.03,-130.86"/>
<polygon fill="midnightblue" stroke="midnightblue" points="2248.17,-173.12 2238.21,-176.73 2248.25,-180.11 2248.17,-173.12"/>
</g>
<!-- Node180 -->
<g id="node41" class="node">
<title>Node180</title>
<g id="a_node41"><a xlink:href="_field_plane_averaging_8_h.html" target="_top" xlink:title=" ">
<polygon fill="white" stroke="red" points="3793.07,-112.5 3793.07,-131.5 3919.07,-131.5 3919.07,-112.5 3793.07,-112.5"/>
<text text-anchor="middle" x="3856.07" y="-119.5" font-family="Helvetica,sans-Serif" font-size="10.00">FieldPlaneAveraging.H</text>
</a>
</g>
</g>
<!-- Node1&#45;&gt;Node180 -->
<g id="edge53" class="edge">
<title>Node1&#45;&gt;Node180</title>
<path fill="none" stroke="midnightblue" d="M2248.6,-177.13C2418.79,-177.51 3167.58,-176.44 3779.07,-132 3783.5,-131.68 3788.07,-131.29 3792.66,-130.86"/>
<polygon fill="midnightblue" stroke="midnightblue" points="2248.47,-173.63 2238.46,-177.1 2248.45,-180.63 2248.47,-173.63"/>
</g>
<!-- Node184 -->
<g id="node42" class="node">
<title>Node184</title>
<g id="a_node42"><a xlink:href="_second_moment_averaging_8_h.html" target="_top" xlink:title=" ">
<polygon fill="white" stroke="red" points="3693.07,-56.5 3693.07,-75.5 3845.07,-75.5 3845.07,-56.5 3693.07,-56.5"/>
<text text-anchor="middle" x="3769.07" y="-63.5" font-family="Helvetica,sans-Serif" font-size="10.00">SecondMomentAveraging.H</text>
</a>
</g>
</g>
<!-- Node1&#45;&gt;Node184 -->
<g id="edge58" class="edge">
<title>Node1&#45;&gt;Node184</title>
<path fill="none" stroke="midnightblue" d="M2248.39,-177.09C2472,-177.49 3683.59,-177.56 3746.07,-132 3764.25,-118.74 3768.14,-89.9 3768.91,-75.52"/>
<polygon fill="midnightblue" stroke="midnightblue" points="2248.22,-173.59 2238.21,-177.07 2248.2,-180.59 2248.22,-173.59"/>
</g>
<!-- Node186 -->
<g id="node43" class="node">
<title>Node186</title>
<g id="a_node43"><a xlink:href="_third_moment_averaging_8_h.html" target="_top" xlink:title=" ">
<polygon fill="white" stroke="red" points="3871.57,-56.5 3871.57,-75.5 4012.57,-75.5 4012.57,-56.5 3871.57,-56.5"/>
<text text-anchor="middle" x="3942.07" y="-63.5" font-family="Helvetica,sans-Serif" font-size="10.00">ThirdMomentAveraging.H</text>
</a>
</g>
</g>
<!-- Node1&#45;&gt;Node186 -->
<g id="edge59" class="edge">
<title>Node1&#45;&gt;Node186</title>
<path fill="none" stroke="midnightblue" d="M2248.44,-176.67C2490.55,-174.37 3894.56,-159.8 3928.07,-132 3944.6,-118.29 3944.5,-90.19 3943.21,-75.85"/>
<polygon fill="midnightblue" stroke="midnightblue" points="2248.08,-173.18 2238.11,-176.77 2248.14,-180.18 2248.08,-173.18"/>
</g>
<!-- Node188 -->
<g id="node44" class="node">
<title>Node188</title>
<g id="a_node44"><a xlink:href="_field_plane_averaging_fine_8_h.html" target="_top" xlink:title=" ">
<polygon fill="white" stroke="red" points="3975.07,-112.5 3975.07,-131.5 4121.07,-131.5 4121.07,-112.5 3975.07,-112.5"/>
<text text-anchor="middle" x="4048.07" y="-119.5" font-family="Helvetica,sans-Serif" font-size="10.00">FieldPlaneAveragingFine.H</text>
</a>
</g>
</g>
<!-- Node1&#45;&gt;Node188 -->
<g id="edge56" class="edge">
<title>Node1&#45;&gt;Node188</title>
<path fill="none" stroke="midnightblue" d="M2248.27,-177.11C2429.21,-177.43 3272.71,-176.4 3961.07,-132 3965.62,-131.71 3970.29,-131.36 3975,-130.97"/>
<polygon fill="midnightblue" stroke="midnightblue" points="2248.26,-173.61 2238.26,-177.08 2248.25,-180.61 2248.26,-173.61"/>
</g>
<!-- Node318 -->
<g id="node45" class="node">
<title>Node318</title>
<g id="a_node45"><a xlink:href="_sampling_container_8cpp.html" target="_top" xlink:title=" ">
<polygon fill="white" stroke="black" points="4139.57,-112.5 4139.57,-131.5 4268.57,-131.5 4268.57,-112.5 4139.57,-112.5"/>
<text text-anchor="middle" x="4204.07" y="-119.5" font-family="Helvetica,sans-Serif" font-size="10.00">SamplingContainer.cpp</text>
</a>
</g>
</g>
<!-- Node1&#45;&gt;Node318 -->
<g id="edge57" class="edge">
<title>Node1&#45;&gt;Node318</title>
<path fill="none" stroke="midnightblue" d="M2248.27,-176.64C2476.02,-174.27 3743.78,-159.96 4130.07,-132 4133.17,-131.78 4136.34,-131.51 4139.53,-131.23"/>
<polygon fill="midnightblue" stroke="midnightblue" points="2248.19,-173.14 2238.22,-176.75 2248.26,-180.14 2248.19,-173.14"/>
</g>
<!-- Node214 -->
<g id="node46" class="node">
<title>Node214</title>
<g id="a_node46"><a xlink:href="_a_b_l_boundary_plane_8_h.html" target="_top" xlink:title=" ">
<polygon fill="white" stroke="red" points="4286.57,-112.5 4286.57,-131.5 4405.57,-131.5 4405.57,-112.5 4286.57,-112.5"/>
<text text-anchor="middle" x="4346.07" y="-119.5" font-family="Helvetica,sans-Serif" font-size="10.00">ABLBoundaryPlane.H</text>
</a>
</g>
</g>
<!-- Node1&#45;&gt;Node214 -->
<g id="edge60" class="edge">
<title>Node1&#45;&gt;Node214</title>
<path fill="none" stroke="midnightblue" d="M2248.34,-176.76C2486.31,-175.08 3860.58,-164.08 4278.07,-132 4280.8,-131.79 4283.59,-131.55 4286.41,-131.27"/>
<polygon fill="midnightblue" stroke="midnightblue" points="2248.15,-173.26 2238.18,-176.83 2248.2,-180.26 2248.15,-173.26"/>
</g>
<!-- Node319 -->
<g id="node47" class="node">
<title>Node319</title>
<g id="a_node47"><a xlink:href="_a_b_l_field_init_8_h.html" target="_top" xlink:title=" ">
<polygon fill="white" stroke="red" points="4423.57,-112.5 4423.57,-131.5 4508.57,-131.5 4508.57,-112.5 4423.57,-112.5"/>
<text text-anchor="middle" x="4466.07" y="-119.5" font-family="Helvetica,sans-Serif" font-size="10.00">ABLFieldInit.H</text>
</a>
</g>
</g>
<!-- Node1&#45;&gt;Node319 -->
<g id="edge61" class="edge">
<title>Node1&#45;&gt;Node319</title>
<path fill="none" stroke="midnightblue" d="M2248.35,-177.03C2495.39,-177.09 3969.31,-175.62 4415.07,-132 4417.84,-131.73 4420.69,-131.39 4423.56,-131.01"/>
<polygon fill="midnightblue" stroke="midnightblue" points="2248.15,-173.53 2238.15,-177.02 2248.15,-180.53 2248.15,-173.53"/>
</g>
<!-- Node321 -->
<g id="node48" class="node">
<title>Node321</title>
<g id="a_node48"><a xlink:href="_a_b_l_field_init_file_8_h.html" target="_top" xlink:title=" ">
<polygon fill="white" stroke="red" points="4527.07,-112.5 4527.07,-131.5 4629.07,-131.5 4629.07,-112.5 4527.07,-112.5"/>
<text text-anchor="middle" x="4578.07" y="-119.5" font-family="Helvetica,sans-Serif" font-size="10.00">ABLFieldInitFile.H</text>
</a>
</g>
</g>
<!-- Node1&#45;&gt;Node321 -->
<g id="edge62" class="edge">
<title>Node1&#45;&gt;Node321</title>
<path fill="none" stroke="midnightblue" d="M2248.39,-176.94C2502.1,-176.4 4049.94,-171.51 4518.07,-132 4521.01,-131.75 4524.02,-131.45 4527.06,-131.11"/>
<polygon fill="midnightblue" stroke="midnightblue" points="2248.26,-173.44 2238.27,-176.96 2248.28,-180.44 2248.26,-173.44"/>
</g>
<!-- Node215 -->
<g id="node49" class="node">
<title>Node215</title>
<g id="a_node49"><a xlink:href="_a_b_l_modulated_power_law_8_h.html" target="_top" xlink:title=" ">
<polygon fill="white" stroke="red" points="4647.07,-112.5 4647.07,-131.5 4793.07,-131.5 4793.07,-112.5 4647.07,-112.5"/>
<text text-anchor="middle" x="4720.07" y="-119.5" font-family="Helvetica,sans-Serif" font-size="10.00">ABLModulatedPowerLaw.H</text>
</a>
</g>
</g>
<!-- Node1&#45;&gt;Node215 -->
<g id="edge63" class="edge">
<title>Node1&#45;&gt;Node215</title>
<path fill="none" stroke="midnightblue" d="M2248.17,-176.79C2508.56,-175.14 4143.55,-163.66 4638.07,-132 4640.93,-131.82 4643.84,-131.61 4646.78,-131.38"/>
<polygon fill="midnightblue" stroke="midnightblue" points="2248.12,-173.29 2238.14,-176.85 2248.16,-180.29 2248.12,-173.29"/>
</g>
<!-- Node323 -->
<g id="node50" class="node">
<title>Node323</title>
<g id="a_node50"><a xlink:href="_actuator_container_8cpp.html" target="_top" xlink:title=" ">
<polygon fill="white" stroke="black" points="4811.57,-112.5 4811.57,-131.5 4936.57,-131.5 4936.57,-112.5 4811.57,-112.5"/>
<text text-anchor="middle" x="4874.07" y="-119.5" font-family="Helvetica,sans-Serif" font-size="10.00">ActuatorContainer.cpp</text>
</a>
</g>
</g>
<!-- Node1&#45;&gt;Node323 -->
<g id="edge64" class="edge">
<title>Node1&#45;&gt;Node323</title>
<path fill="none" stroke="midnightblue" d="M2248.41,-176.91C2519.53,-176.11 4273,-169.56 4802.07,-132 4805.09,-131.79 4808.17,-131.53 4811.28,-131.25"/>
<polygon fill="midnightblue" stroke="midnightblue" points="2248.34,-173.41 2238.35,-176.94 2248.36,-180.41 2248.34,-173.41"/>
</g>
<!-- Node3 -->
<g id="node3" class="node">
<title>Node3</title>
<g id="a_node3"><a xlink:href="_b_c_interface_8cpp.html" target="_top" xlink:title=" ">
<polygon fill="white" stroke="black" points="397.07,-56.5 397.07,-75.5 491.07,-75.5 491.07,-56.5 397.07,-56.5"/>
<text text-anchor="middle" x="444.07" y="-63.5" font-family="Helvetica,sans-Serif" font-size="10.00">BCInterface.cpp</text>
</a>
</g>
</g>
<!-- Node2&#45;&gt;Node3 -->
<g id="edge2" class="edge">
<title>Node2&#45;&gt;Node3</title>
<path fill="none" stroke="midnightblue" d="M331.55,-108.91C358.81,-98.75 397.06,-84.51 421.2,-75.52"/>
<polygon fill="midnightblue" stroke="midnightblue" points="330.2,-105.67 322.05,-112.44 332.64,-112.23 330.2,-105.67"/>
</g>
<!-- Node2&#45;&gt;Node4 -->
<g id="edge3" class="edge">
<title>Node2&#45;&gt;Node4</title>
<path fill="none" stroke="midnightblue" d="M304.4,-102.67C311.4,-78.62 323.39,-37.39 328.57,-19.59"/>
<polygon fill="midnightblue" stroke="midnightblue" points="301.01,-101.79 301.58,-112.37 307.74,-103.74 301.01,-101.79"/>
</g>
<!-- Node5 -->
<g id="node5" class="node">
<title>Node5</title>
<g id="a_node5"><a xlink:href="_b_c_ops_8_h.html" target="_top" xlink:title=" ">
<polygon fill="white" stroke="red" points="142.57,-56.5 142.57,-75.5 201.57,-75.5 201.57,-56.5 142.57,-56.5"/>
<text text-anchor="middle" x="172.07" y="-63.5" font-family="Helvetica,sans-Serif" font-size="10.00">BCOps.H</text>
</a>
</g>
</g>
<!-- Node2&#45;&gt;Node5 -->
<g id="edge4" class="edge">
<title>Node2&#45;&gt;Node5</title>
<path fill="none" stroke="midnightblue" d="M269.68,-108.5C245.87,-98.38 212.96,-84.39 192.1,-75.52"/>
<polygon fill="midnightblue" stroke="midnightblue" points="268.38,-111.75 278.95,-112.44 271.11,-105.31 268.38,-111.75"/>
</g>
<!-- Node18 -->
<g id="node6" class="node">
<title>Node18</title>
<g id="a_node6"><a xlink:href="vof__bciface_8_h.html" target="_top" xlink:title=" ">
<polygon fill="white" stroke="red" points="219.57,-56.5 219.57,-75.5 302.57,-75.5 302.57,-56.5 219.57,-56.5"/>
<text text-anchor="middle" x="261.07" y="-63.5" font-family="Helvetica,sans-Serif" font-size="10.00">vof_bciface.H</text>
</a>
</g>
</g>
<!-- Node2&#45;&gt;Node18 -->
<g id="edge5" class="edge">
<title>Node2&#45;&gt;Node18</title>
<path fill="none" stroke="midnightblue" d="M287.01,-103.86C280.43,-94.5 272.56,-83.33 267.23,-75.75"/>
<polygon fill="midnightblue" stroke="midnightblue" points="284.18,-105.92 292.8,-112.08 289.9,-101.89 284.18,-105.92"/>
</g>
<!-- Node50&#45;&gt;Node4 -->
<g id="edge9" class="edge">
<title>Node50&#45;&gt;Node4</title>
<path fill="none" stroke="midnightblue" d="M40.5,-107.8C16.56,-94.98 -11.28,-74.76 5.07,-56 43.36,-12.07 227.64,-9.58 300.92,-10.38"/>
<polygon fill="midnightblue" stroke="midnightblue" points="39.21,-111.07 49.71,-112.49 42.39,-104.84 39.21,-111.07"/>
</g>
<!-- Node50&#45;&gt;Node58 -->
<g id="edge10" class="edge">
<title>Node50&#45;&gt;Node58</title>
<path fill="none" stroke="midnightblue" d="M69.07,-101.8C69.07,-92.91 69.07,-82.78 69.07,-75.75"/>
<polygon fill="midnightblue" stroke="midnightblue" points="65.57,-102.08 69.07,-112.08 72.57,-102.08 65.57,-102.08"/>
</g>
<!-- Node58&#45;&gt;Node4 -->
<g id="edge11" class="edge">
<title>Node58&#45;&gt;Node4</title>
<path fill="none" stroke="midnightblue" d="M120.6,-54.38C174.32,-43.31 256.7,-26.33 300.78,-17.24"/>
<polygon fill="midnightblue" stroke="midnightblue" points="119.67,-51 110.59,-56.44 121.09,-57.85 119.67,-51"/>
</g>
<!-- Node102&#45;&gt;Node3 -->
<g id="edge14" class="edge">
<title>Node102&#45;&gt;Node3</title>
<path fill="none" stroke="midnightblue" d="M756.21,-114.1C696.29,-105.42 590.54,-89.97 500.07,-76 497.15,-75.55 494.15,-75.08 491.12,-74.6"/>
<polygon fill="midnightblue" stroke="midnightblue" points="755.74,-117.57 766.13,-115.54 756.74,-110.64 755.74,-117.57"/>
</g>
<!-- Node102&#45;&gt;Node4 -->
<g id="edge15" class="edge">
<title>Node102&#45;&gt;Node4</title>
<path fill="none" stroke="midnightblue" d="M819.15,-104.36C830.27,-90.04 841.5,-69.6 829.07,-56 797.41,-21.35 463.89,-13.13 361.07,-11.41"/>
<polygon fill="midnightblue" stroke="midnightblue" points="816.18,-102.45 812.45,-112.36 821.55,-106.94 816.18,-102.45"/>
</g>
<!-- Node102&#45;&gt;Node250 -->
<g id="edge16" class="edge">
<title>Node102&#45;&gt;Node250</title>
<path fill="none" stroke="midnightblue" d="M756.67,-110.88C708.87,-100.68 635.9,-85.11 590.97,-75.52"/>
<polygon fill="midnightblue" stroke="midnightblue" points="755.96,-114.31 766.47,-112.97 757.42,-107.46 755.96,-114.31"/>
</g>
<!-- Node102&#45;&gt;Node70 -->
<g id="edge17" class="edge">
<title>Node102&#45;&gt;Node70</title>
<path fill="none" stroke="midnightblue" d="M771.15,-108.91C743.51,-98.75 704.73,-84.51 680.25,-75.52"/>
<polygon fill="midnightblue" stroke="midnightblue" points="770.18,-112.28 780.78,-112.44 772.6,-105.71 770.18,-112.28"/>
</g>
<!-- Node102&#45;&gt;Node292 -->
<g id="edge18" class="edge">
<title>Node102&#45;&gt;Node292</title>
<path fill="none" stroke="midnightblue" d="M793.24,-103.27C787.6,-94.05 780.95,-83.17 776.42,-75.75"/>
<polygon fill="midnightblue" stroke="midnightblue" points="790.42,-105.38 798.62,-112.08 796.39,-101.73 790.42,-105.38"/>
</g>
<!-- Node102&#45;&gt;Node71 -->
<g id="edge19" class="edge">
<title>Node102&#45;&gt;Node71</title>
<path fill="none" stroke="midnightblue" d="M834.39,-108.5C858.95,-98.38 892.89,-84.39 914.41,-75.52"/>
<polygon fill="midnightblue" stroke="midnightblue" points="832.74,-105.4 824.83,-112.44 835.41,-111.87 832.74,-105.4"/>
</g>
<!-- Node102&#45;&gt;Node293 -->
<g id="edge20" class="edge">
<title>Node102&#45;&gt;Node293</title>
<path fill="none" stroke="midnightblue" d="M851.46,-110.36C891.59,-101.31 950.63,-87.94 1002.07,-76 1005.24,-75.26 1008.56,-74.49 1011.86,-73.71"/>
<polygon fill="midnightblue" stroke="midnightblue" points="850.67,-106.95 841.68,-112.56 852.21,-113.78 850.67,-106.95"/>
</g>
<!-- Node102&#45;&gt;Node173 -->
<g id="edge21" class="edge">
<title>Node102&#45;&gt;Node173</title>
<path fill="none" stroke="midnightblue" d="M851.68,-113.23C914.04,-103.06 1022.82,-85.31 1085.92,-75.02"/>
<polygon fill="midnightblue" stroke="midnightblue" points="851.02,-109.79 841.72,-114.86 852.15,-116.7 851.02,-109.79"/>
</g>
<!-- Node102&#45;&gt;Node174 -->
<g id="edge22" class="edge">
<title>Node102&#45;&gt;Node174</title>
<path fill="none" stroke="midnightblue" d="M851.97,-115.81C925.42,-107.77 1070.29,-91.6 1193.07,-76 1196.01,-75.63 1199.02,-75.24 1202.06,-74.84"/>
<polygon fill="midnightblue" stroke="midnightblue" points="851.22,-112.37 841.66,-116.94 851.98,-119.33 851.22,-112.37"/>
</g>
<!-- Node180&#45;&gt;Node184 -->
<g id="edge54" class="edge">
<title>Node180&#45;&gt;Node184</title>
<path fill="none" stroke="midnightblue" d="M3833.36,-106.9C3817.4,-97 3796.57,-84.07 3783.01,-75.65"/>
<polygon fill="midnightblue" stroke="midnightblue" points="3831.75,-110.02 3842.09,-112.32 3835.44,-104.08 3831.75,-110.02"/>
</g>
<!-- Node180&#45;&gt;Node186 -->
<g id="edge55" class="edge">
<title>Node180&#45;&gt;Node186</title>
<path fill="none" stroke="midnightblue" d="M3878.53,-106.9C3894.3,-97 3914.88,-84.07 3928.29,-75.65"/>
<polygon fill="midnightblue" stroke="midnightblue" points="3876.5,-104.04 3869.89,-112.32 3880.22,-109.97 3876.5,-104.04"/>
</g>
</g>
</svg>
        <g id="navigator" transform="translate(0 0)" fill="#404254">
                <rect fill="#f2f5e9" fill-opacity="0.5" stroke="#606060" stroke-width=".5" x="0" y="0" width="60" height="60"/>
                <use id="zoomplus" xlink:href="#zoomPlus" x="17" y="9" onmousedown="handleZoom(evt,'in')"/>
                <use id="zoomminus" xlink:href="#zoomMin" x="42" y="9" onmousedown="handleZoom(evt,'out')"/>
                <use id="reset" xlink:href="#resetDef" x="30" y="36" onmousedown="handleReset()"/>
                <g id="arrowUp" xlink:href="#dirArrow" transform="translate(30 24)" onmousedown="handlePan(0,-1)">
                  <use xlink:href="#rim" fill="#404040">
                        <set attributeName="fill" to="#808080" begin="arrowUp.mouseover" end="arrowUp.mouseout"/>
                  </use>
                  <path fill="none" stroke="white" stroke-width="1.5" d="M0,-3.0v7 M-2.5,-0.5L0,-3.0L2.5,-0.5"/>
                </g>
                <g id="arrowRight" xlink:href="#dirArrow" transform="rotate(90) translate(36 -43)" onmousedown="handlePan(1,0)">
                  <use xlink:href="#rim" fill="#404040">
                        <set attributeName="fill" to="#808080" begin="arrowRight.mouseover" end="arrowRight.mouseout"/>
                  </use>
                  <path fill="none" stroke="white" stroke-width="1.5" d="M0,-3.0v7 M-2.5,-0.5L0,-3.0L2.5,-0.5"/>
                </g>
                <g id="arrowDown" xlink:href="#dirArrow" transform="rotate(180) translate(-30 -48)" onmousedown="handlePan(0,1)">
                  <use xlink:href="#rim" fill="#404040">
                        <set attributeName="fill" to="#808080" begin="arrowDown.mouseover" end="arrowDown.mouseout"/>
                  </use>
                  <path fill="none" stroke="white" stroke-width="1.5" d="M0,-3.0v7 M-2.5,-0.5L0,-3.0L2.5,-0.5"/>
                </g>
                <g id="arrowLeft" xlink:href="#dirArrow" transform="rotate(270) translate(-36 17)" onmousedown="handlePan(-1,0)">
                  <use xlink:href="#rim" fill="#404040">
                        <set attributeName="fill" to="#808080" begin="arrowLeft.mouseover" end="arrowLeft.mouseout"/>
                  </use>
                  <path fill="none" stroke="white" stroke-width="1.5" d="M0,-3.0v7 M-2.5,-0.5L0,-3.0L2.5,-0.5"/>
                </g>
        </g>
        <svg viewBox="0 0 15 15" width="100%" height="30px" preserveAspectRatio="xMaxYMin meet">
         <g id="arrow_out" transform="scale(0.3 0.3)">
          <a xlink:href="_field_8_h__dep__incl_org.svg" target="_base">
           <rect id="button" ry="5" rx="5" y="6" x="6" height="38" width="38"
                fill="#f2f5e9" fill-opacity="0.5" stroke="#606060" stroke-width="1.0"/>
           <path id="arrow"
             d="M 11.500037,31.436501 C 11.940474,20.09759 22.043105,11.32322 32.158766,21.979434 L 37.068811,17.246167 C 37.068811,17.246167 37.088388,32 37.088388,32 L 22.160133,31.978069 C 22.160133,31.978069 26.997745,27.140456 26.997745,27.140456 C 18.528582,18.264221 13.291696,25.230495 11.500037,31.436501 z"
             style="fill:#404040;"/>
          </a>
         </g>
        </svg>
</svg>
