<?xml version="1.0" encoding="UTF-8" standalone="no"?>
<!DOCTYPE svg PUBLIC "-//W3C//DTD SVG 1.1//EN"
 "http://www.w3.org/Graphics/SVG/1.1/DTD/svg11.dtd">
<!-- Generated by graphviz version 2.43.0 (0)
 -->
<!-- Title: FieldPlaneAveragingFine.H Pages: 1 -->
<svg width="2951pt" height="341pt"
 viewBox="0.00 0.00 2950.50 341.00" xmlns="http://www.w3.org/2000/svg" xmlns:xlink="http://www.w3.org/1999/xlink">
<g id="graph0" class="graph" transform="scale(1 1) rotate(0) translate(4 337)">
<title>FieldPlaneAveragingFine.H</title>
<polygon fill="white" stroke="transparent" points="-4,4 -4,-337 2946.5,-337 2946.5,4 -4,4"/>
<!-- Node1 -->
<g id="node1" class="node">
<title>Node1</title>
<g id="a_node1"><a xlink:title=" ">
<polygon fill="#bfbfbf" stroke="black" points="755,-313.5 755,-332.5 901,-332.5 901,-313.5 755,-313.5"/>
<text text-anchor="middle" x="828" y="-320.5" font-family="Helvetica,sans-Serif" font-size="10.00">FieldPlaneAveragingFine.H</text>
</a>
</g>
</g>
<!-- Node2 -->
<g id="node2" class="node">
<title>Node2</title>
<g id="a_node2"><a xlink:href="_direction_selector_8_h.html" target="_top" xlink:title=" ">
<polygon fill="white" stroke="black" points="705.5,-246.5 705.5,-276.5 818.5,-276.5 818.5,-246.5 705.5,-246.5"/>
<text text-anchor="start" x="713.5" y="-264.5" font-family="Helvetica,sans-Serif" font-size="10.00">amr&#45;wind/utilities</text>
<text text-anchor="middle" x="762" y="-253.5" font-family="Helvetica,sans-Serif" font-size="10.00">/DirectionSelector.H</text>
</a>
</g>
</g>
<!-- Node1&#45;&gt;Node2 -->
<g id="edge1" class="edge">
<title>Node1&#45;&gt;Node2</title>
<path fill="none" stroke="midnightblue" d="M818.54,-313.48C809.86,-305.64 796.62,-293.71 785.14,-283.37"/>
<polygon fill="midnightblue" stroke="midnightblue" points="787.33,-280.62 777.55,-276.52 782.64,-285.82 787.33,-280.62"/>
</g>
<!-- Node5 -->
<g id="node5" class="node">
<title>Node5</title>
<g id="a_node5"><a xlink:href="_c_f_d_sim_8_h.html" target="_top" xlink:title=" ">
<polygon fill="white" stroke="black" points="837,-252 837,-271 953,-271 953,-252 837,-252"/>
<text text-anchor="middle" x="895" y="-259" font-family="Helvetica,sans-Serif" font-size="10.00">amr&#45;wind/CFDSim.H</text>
</a>
</g>
</g>
<!-- Node1&#45;&gt;Node5 -->
<g id="edge4" class="edge">
<title>Node1&#45;&gt;Node5</title>
<path fill="none" stroke="midnightblue" d="M837.6,-313.48C848.05,-304.2 864.97,-289.17 877.74,-277.83"/>
<polygon fill="midnightblue" stroke="midnightblue" points="880.27,-280.27 885.42,-271.01 875.62,-275.03 880.27,-280.27"/>
</g>
<!-- Node7 -->
<g id="node7" class="node">
<title>Node7</title>
<g id="a_node7"><a xlink:href="_sim_time_8_h.html" target="_top" xlink:title=" ">
<polygon fill="white" stroke="black" points="257,-118 257,-137 401,-137 401,-118 257,-118"/>
<text text-anchor="middle" x="329" y="-125" font-family="Helvetica,sans-Serif" font-size="10.00">amr&#45;wind/core/SimTime.H</text>
</a>
</g>
</g>
<!-- Node1&#45;&gt;Node7 -->
<g id="edge89" class="edge">
<title>Node1&#45;&gt;Node7</title>
<path fill="none" stroke="midnightblue" d="M801.55,-313.47C774.79,-304.72 732.3,-290.52 696,-277 569.39,-229.85 420.85,-167.56 358.69,-141.17"/>
<polygon fill="midnightblue" stroke="midnightblue" points="359.71,-137.8 349.13,-137.11 356.97,-144.24 359.71,-137.8"/>
</g>
<!-- Node18 -->
<g id="node18" class="node">
<title>Node18</title>
<g id="a_node18"><a xlink:href="_field_8_h.html" target="_top" xlink:title=" ">
<polygon fill="white" stroke="black" points="1695,-118 1695,-137 1819,-137 1819,-118 1695,-118"/>
<text text-anchor="middle" x="1757" y="-125" font-family="Helvetica,sans-Serif" font-size="10.00">amr&#45;wind/core/Field.H</text>
</a>
</g>
</g>
<!-- Node1&#45;&gt;Node18 -->
<g id="edge88" class="edge">
<title>Node1&#45;&gt;Node18</title>
<path fill="none" stroke="midnightblue" d="M868.82,-313.5C1018.97,-282.22 1540.53,-173.59 1706.13,-139.1"/>
<polygon fill="midnightblue" stroke="midnightblue" points="1706.98,-142.49 1716.05,-137.03 1705.55,-135.64 1706.98,-142.49"/>
</g>
<!-- Node3 -->
<g id="node3" class="node">
<title>Node3</title>
<g id="a_node3"><a xlink:title=" ">
<polygon fill="white" stroke="#bfbfbf" points="568,-185 568,-204 654,-204 654,-185 568,-185"/>
<text text-anchor="middle" x="611" y="-192" font-family="Helvetica,sans-Serif" font-size="10.00">AMReX_Box.H</text>
</a>
</g>
</g>
<!-- Node2&#45;&gt;Node3 -->
<g id="edge2" class="edge">
<title>Node2&#45;&gt;Node3</title>
<path fill="none" stroke="midnightblue" d="M729.24,-246.4C702.74,-234.99 665.78,-219.08 640.27,-208.1"/>
<polygon fill="midnightblue" stroke="midnightblue" points="641.33,-204.75 630.76,-204.01 638.56,-211.18 641.33,-204.75"/>
</g>
<!-- Node4 -->
<g id="node4" class="node">
<title>Node4</title>
<g id="a_node4"><a xlink:title=" ">
<polygon fill="white" stroke="#bfbfbf" points="1563.5,-56.5 1563.5,-75.5 1650.5,-75.5 1650.5,-56.5 1563.5,-56.5"/>
<text text-anchor="middle" x="1607" y="-63.5" font-family="Helvetica,sans-Serif" font-size="10.00">AMReX_Gpu.H</text>
</a>
</g>
</g>
<!-- Node2&#45;&gt;Node4 -->
<g id="edge3" class="edge">
<title>Node2&#45;&gt;Node4</title>
<path fill="none" stroke="midnightblue" d="M818.85,-247.86C821.94,-247.22 825.01,-246.6 828,-246 917,-228.26 940.24,-228.91 1029,-210 1231.66,-166.83 1471.32,-103.59 1565.79,-78.18"/>
<polygon fill="midnightblue" stroke="midnightblue" points="1566.78,-81.54 1575.53,-75.56 1564.96,-74.78 1566.78,-81.54"/>
</g>
<!-- Node6 -->
<g id="node6" class="node">
<title>Node6</title>
<g id="a_node6"><a xlink:title=" ">
<polygon fill="white" stroke="#bfbfbf" points="419,-118 419,-137 529,-137 529,-118 419,-118"/>
<text text-anchor="middle" x="474" y="-125" font-family="Helvetica,sans-Serif" font-size="10.00">AMReX_AmrCore.H</text>
</a>
</g>
</g>
<!-- Node5&#45;&gt;Node6 -->
<g id="edge5" class="edge">
<title>Node5&#45;&gt;Node6</title>
<path fill="none" stroke="midnightblue" d="M890.32,-251.76C880.58,-234.51 856.27,-196.25 824,-179 712.95,-119.66 667.15,-163.96 543,-143 536.19,-141.85 529.03,-140.5 522,-139.1"/>
<polygon fill="midnightblue" stroke="midnightblue" points="522.36,-135.6 511.86,-137.02 520.95,-142.46 522.36,-135.6"/>
</g>
<!-- Node5&#45;&gt;Node7 -->
<g id="edge6" class="edge">
<title>Node5&#45;&gt;Node7</title>
<path fill="none" stroke="midnightblue" d="M858.85,-251.97C806.71,-239.54 715.08,-217.14 701,-210 681.56,-200.14 682.96,-187.74 663,-179 558.96,-133.43 522.14,-161.01 410,-143 401.98,-141.71 393.52,-140.28 385.22,-138.83"/>
<polygon fill="midnightblue" stroke="midnightblue" points="385.67,-135.36 375.21,-137.07 384.45,-142.25 385.67,-135.36"/>
</g>
<!-- Node11 -->
<g id="node11" class="node">
<title>Node11</title>
<g id="a_node11"><a xlink:href="_field_repo_8_h.html" target="_top" xlink:title=" ">
<polygon fill="white" stroke="black" points="871.5,-185 871.5,-204 1020.5,-204 1020.5,-185 871.5,-185"/>
<text text-anchor="middle" x="946" y="-192" font-family="Helvetica,sans-Serif" font-size="10.00">amr&#45;wind/core/FieldRepo.H</text>
</a>
</g>
</g>
<!-- Node5&#45;&gt;Node11 -->
<g id="edge10" class="edge">
<title>Node5&#45;&gt;Node11</title>
<path fill="none" stroke="midnightblue" d="M901.88,-251.73C909.83,-241.6 923.1,-224.69 933.01,-212.06"/>
<polygon fill="midnightblue" stroke="midnightblue" points="935.81,-214.16 939.23,-204.13 930.3,-209.83 935.81,-214.16"/>
</g>
<!-- Node31 -->
<g id="node31" class="node">
<title>Node31</title>
<g id="a_node31"><a xlink:href="_p_d_e_base_8_h.html" target="_top" xlink:title=" ">
<polygon fill="white" stroke="black" points="2304.5,-179.5 2304.5,-209.5 2459.5,-209.5 2459.5,-179.5 2304.5,-179.5"/>
<text text-anchor="start" x="2312.5" y="-197.5" font-family="Helvetica,sans-Serif" font-size="10.00">amr&#45;wind/equation_systems</text>
<text text-anchor="middle" x="2382" y="-186.5" font-family="Helvetica,sans-Serif" font-size="10.00">/PDEBase.H</text>
</a>
</g>
</g>
<!-- Node5&#45;&gt;Node31 -->
<g id="edge56" class="edge">
<title>Node5&#45;&gt;Node31</title>
<path fill="none" stroke="midnightblue" d="M953.33,-260.22C1143.07,-258.93 1759.84,-251.58 2268,-210 2276.52,-209.3 2285.39,-208.43 2294.24,-207.47"/>
<polygon fill="midnightblue" stroke="midnightblue" points="2294.67,-210.94 2304.22,-206.34 2293.89,-203.98 2294.67,-210.94"/>
</g>
<!-- Node39 -->
<g id="node39" class="node">
<title>Node39</title>
<g id="a_node39"><a xlink:href="_physics_8_h.html" target="_top" xlink:title=" ">
<polygon fill="white" stroke="black" points="2121.5,-185 2121.5,-204 2258.5,-204 2258.5,-185 2121.5,-185"/>
<text text-anchor="middle" x="2190" y="-192" font-family="Helvetica,sans-Serif" font-size="10.00">amr&#45;wind/core/Physics.H</text>
</a>
</g>
</g>
<!-- Node5&#45;&gt;Node39 -->
<g id="edge73" class="edge">
<title>Node5&#45;&gt;Node39</title>
<path fill="none" stroke="midnightblue" d="M953.15,-259.01C1121.52,-254.46 1623.92,-239.27 2040,-210 2063.19,-208.37 2088.35,-206.12 2111.32,-203.89"/>
<polygon fill="midnightblue" stroke="midnightblue" points="2111.75,-207.36 2121.36,-202.9 2111.07,-200.39 2111.75,-207.36"/>
</g>
<!-- Node41 -->
<g id="node41" class="node">
<title>Node41</title>
<g id="a_node41"><a xlink:href="_mesh_map_8_h.html" target="_top" xlink:title=" ">
<polygon fill="white" stroke="black" points="1883,-185 1883,-204 2031,-204 2031,-185 1883,-185"/>
<text text-anchor="middle" x="1957" y="-192" font-family="Helvetica,sans-Serif" font-size="10.00">amr&#45;wind/core/MeshMap.H</text>
</a>
</g>
</g>
<!-- Node5&#45;&gt;Node41 -->
<g id="edge78" class="edge">
<title>Node5&#45;&gt;Node41</title>
<path fill="none" stroke="midnightblue" d="M953.23,-256.94C1130.5,-246.09 1664.11,-213.43 1872.41,-200.68"/>
<polygon fill="midnightblue" stroke="midnightblue" points="1872.91,-204.15 1882.68,-200.05 1872.48,-197.17 1872.91,-204.15"/>
</g>
<!-- Node42 -->
<g id="node42" class="node">
<title>Node42</title>
<g id="a_node42"><a xlink:href="helics_8_h.html" target="_top" xlink:title=" ">
<polygon fill="white" stroke="black" points="710.5,-185 710.5,-204 815.5,-204 815.5,-185 710.5,-185"/>
<text text-anchor="middle" x="763" y="-192" font-family="Helvetica,sans-Serif" font-size="10.00">amr&#45;wind/helics.H</text>
</a>
</g>
</g>
<!-- Node5&#45;&gt;Node42 -->
<g id="edge84" class="edge">
<title>Node5&#45;&gt;Node42</title>
<path fill="none" stroke="midnightblue" d="M872.71,-251.87C848.08,-240.89 809.08,-221.82 784.7,-208.94"/>
<polygon fill="midnightblue" stroke="midnightblue" points="786.3,-205.82 775.83,-204.17 782.98,-211.99 786.3,-205.82"/>
</g>
<!-- Node8 -->
<g id="node8" class="node">
<title>Node8</title>
<g id="a_node8"><a xlink:title=" ">
<polygon fill="white" stroke="#bfbfbf" points="286,-56.5 286,-75.5 378,-75.5 378,-56.5 286,-56.5"/>
<text text-anchor="middle" x="332" y="-63.5" font-family="Helvetica,sans-Serif" font-size="10.00">AMReX_REAL.H</text>
</a>
</g>
</g>
<!-- Node7&#45;&gt;Node8 -->
<g id="edge7" class="edge">
<title>Node7&#45;&gt;Node8</title>
<path fill="none" stroke="midnightblue" d="M329.43,-117.98C329.85,-109.58 330.51,-96.48 331.06,-85.66"/>
<polygon fill="midnightblue" stroke="midnightblue" points="334.56,-85.67 331.57,-75.51 327.57,-85.32 334.56,-85.67"/>
</g>
<!-- Node9 -->
<g id="node9" class="node">
<title>Node9</title>
<g id="a_node9"><a xlink:title=" ">
<polygon fill="white" stroke="#bfbfbf" points="0,-56.5 0,-75.5 134,-75.5 134,-56.5 0,-56.5"/>
<text text-anchor="middle" x="67" y="-63.5" font-family="Helvetica,sans-Serif" font-size="10.00">AMReX_GpuQualifiers.H</text>
</a>
</g>
</g>
<!-- Node7&#45;&gt;Node9 -->
<g id="edge8" class="edge">
<title>Node7&#45;&gt;Node9</title>
<path fill="none" stroke="midnightblue" d="M291.46,-117.98C244.77,-107.37 165.02,-89.26 114.22,-77.72"/>
<polygon fill="midnightblue" stroke="midnightblue" points="115,-74.31 104.47,-75.51 113.45,-81.14 115,-74.31"/>
</g>
<!-- Node10 -->
<g id="node10" class="node">
<title>Node10</title>
<g id="a_node10"><a xlink:title=" ">
<polygon fill="white" stroke="#bfbfbf" points="152,-56.5 152,-75.5 268,-75.5 268,-56.5 152,-56.5"/>
<text text-anchor="middle" x="210" y="-63.5" font-family="Helvetica,sans-Serif" font-size="10.00">AMReX_Extension.H</text>
</a>
</g>
</g>
<!-- Node7&#45;&gt;Node10 -->
<g id="edge9" class="edge">
<title>Node7&#45;&gt;Node10</title>
<path fill="none" stroke="midnightblue" d="M311.95,-117.98C292.16,-108.08 259.28,-91.64 236.23,-80.12"/>
<polygon fill="midnightblue" stroke="midnightblue" points="237.53,-76.85 227.02,-75.51 234.4,-83.11 237.53,-76.85"/>
</g>
<!-- Node11&#45;&gt;Node6 -->
<g id="edge53" class="edge">
<title>Node11&#45;&gt;Node6</title>
<path fill="none" stroke="midnightblue" d="M896.73,-184.94C884.12,-182.87 870.58,-180.75 858,-179 718.44,-159.54 682.1,-165.51 543,-143 536.1,-141.88 528.84,-140.54 521.73,-139.13"/>
<polygon fill="midnightblue" stroke="midnightblue" points="521.98,-135.61 511.48,-137.04 520.58,-142.47 521.98,-135.61"/>
</g>
<!-- Node12 -->
<g id="node12" class="node">
<title>Node12</title>
<g id="a_node12"><a xlink:title=" ">
<polygon fill="white" stroke="#bfbfbf" points="1770,-0.5 1770,-19.5 1814,-19.5 1814,-0.5 1770,-0.5"/>
<text text-anchor="middle" x="1792" y="-7.5" font-family="Helvetica,sans-Serif" font-size="10.00">string</text>
</a>
</g>
</g>
<!-- Node11&#45;&gt;Node12 -->
<g id="edge11" class="edge">
<title>Node11&#45;&gt;Node12</title>
<path fill="none" stroke="midnightblue" d="M1020.59,-191.75C1219.65,-186.72 1753.4,-170.8 1828,-143 1879.24,-123.9 1946.33,-100.82 1915,-56 1894.7,-26.95 1853.52,-16.59 1824.42,-12.94"/>
<polygon fill="midnightblue" stroke="midnightblue" points="1824.61,-9.44 1814.3,-11.87 1823.88,-16.4 1824.61,-9.44"/>
</g>
<!-- Node13 -->
<g id="node13" class="node">
<title>Node13</title>
<g id="a_node13"><a xlink:title=" ">
<polygon fill="white" stroke="#bfbfbf" points="2021.5,-56.5 2021.5,-75.5 2114.5,-75.5 2114.5,-56.5 2021.5,-56.5"/>
<text text-anchor="middle" x="2068" y="-63.5" font-family="Helvetica,sans-Serif" font-size="10.00">unordered_map</text>
</a>
</g>
</g>
<!-- Node11&#45;&gt;Node13 -->
<g id="edge12" class="edge">
<title>Node11&#45;&gt;Node13</title>
<path fill="none" stroke="midnightblue" d="M1020.59,-192.08C1236.21,-187.65 1850.39,-172.55 1936,-143 1958.61,-135.19 1959.52,-124.37 1980,-112 1999.58,-100.18 2022.63,-88.46 2040.23,-79.95"/>
<polygon fill="midnightblue" stroke="midnightblue" points="2041.88,-83.04 2049.39,-75.57 2038.86,-76.73 2041.88,-83.04"/>
</g>
<!-- Node14 -->
<g id="node14" class="node">
<title>Node14</title>
<g id="a_node14"><a xlink:href="_field_desc_types_8_h.html" target="_top" xlink:title=" ">
<polygon fill="white" stroke="black" points="707,-0.5 707,-19.5 883,-19.5 883,-0.5 707,-0.5"/>
<text text-anchor="middle" x="795" y="-7.5" font-family="Helvetica,sans-Serif" font-size="10.00">amr&#45;wind/core/FieldDescTypes.H</text>
</a>
</g>
</g>
<!-- Node11&#45;&gt;Node14 -->
<g id="edge13" class="edge">
<title>Node11&#45;&gt;Node14</title>
<path fill="none" stroke="midnightblue" d="M893.67,-184.96C881.32,-182.97 868.2,-180.89 856,-179 802.27,-170.68 649.5,-184.18 614,-143 604.28,-131.73 609.26,-67.45 619,-56 632.52,-40.1 679.13,-28.61 720.98,-21.22"/>
<polygon fill="midnightblue" stroke="midnightblue" points="721.67,-24.65 730.94,-19.52 720.49,-17.75 721.67,-24.65"/>
</g>
<!-- Node15 -->
<g id="node15" class="node">
<title>Node15</title>
<g id="a_node15"><a xlink:href="_field_utils_8_h.html" target="_top" xlink:title=" ">
<polygon fill="white" stroke="black" points="396,-56.5 396,-75.5 542,-75.5 542,-56.5 396,-56.5"/>
<text text-anchor="middle" x="469" y="-63.5" font-family="Helvetica,sans-Serif" font-size="10.00">amr&#45;wind/core/FieldUtils.H</text>
</a>
</g>
</g>
<!-- Node11&#45;&gt;Node15 -->
<g id="edge14" class="edge">
<title>Node11&#45;&gt;Node15</title>
<path fill="none" stroke="midnightblue" d="M894.64,-184.96C882.02,-182.93 868.53,-180.83 856,-179 734.03,-161.19 695.59,-188.42 581,-143 559.1,-134.32 557.43,-125.33 538,-112 522.57,-101.42 504.9,-89.9 491.3,-81.17"/>
<polygon fill="midnightblue" stroke="midnightblue" points="492.92,-78.05 482.61,-75.61 489.15,-83.95 492.92,-78.05"/>
</g>
<!-- Node16 -->
<g id="node16" class="node">
<title>Node16</title>
<g id="a_node16"><a xlink:title=" ">
<polygon fill="white" stroke="#bfbfbf" points="1480.5,-0.5 1480.5,-19.5 1589.5,-19.5 1589.5,-0.5 1480.5,-0.5"/>
<text text-anchor="middle" x="1535" y="-7.5" font-family="Helvetica,sans-Serif" font-size="10.00">AMReX_MultiFab.H</text>
</a>
</g>
</g>
<!-- Node11&#45;&gt;Node16 -->
<g id="edge54" class="edge">
<title>Node11&#45;&gt;Node16</title>
<path fill="none" stroke="midnightblue" d="M1005.84,-184.99C1060.94,-176.52 1144.7,-162.05 1216,-143 1302.91,-119.77 1324.27,-111.33 1407,-76 1443.99,-60.2 1485.21,-38.49 1510.63,-24.6"/>
<polygon fill="midnightblue" stroke="midnightblue" points="1512.48,-27.58 1519.55,-19.69 1509.11,-21.44 1512.48,-27.58"/>
</g>
<!-- Node11&#45;&gt;Node18 -->
<g id="edge18" class="edge">
<title>Node11&#45;&gt;Node18</title>
<path fill="none" stroke="midnightblue" d="M1020.84,-187.5C1176.09,-175.06 1531.41,-146.58 1684.56,-134.31"/>
<polygon fill="midnightblue" stroke="midnightblue" points="1685.1,-137.77 1694.79,-133.49 1684.54,-130.8 1685.1,-137.77"/>
</g>
<!-- Node25 -->
<g id="node25" class="node">
<title>Node25</title>
<g id="a_node25"><a xlink:href="_int_field_8_h.html" target="_top" xlink:title=" ">
<polygon fill="white" stroke="black" points="623.5,-118 623.5,-137 760.5,-137 760.5,-118 623.5,-118"/>
<text text-anchor="middle" x="692" y="-125" font-family="Helvetica,sans-Serif" font-size="10.00">amr&#45;wind/core/IntField.H</text>
</a>
</g>
</g>
<!-- Node11&#45;&gt;Node25 -->
<g id="edge33" class="edge">
<title>Node11&#45;&gt;Node25</title>
<path fill="none" stroke="midnightblue" d="M912.53,-184.94C867.04,-173.29 785.6,-152.45 735.44,-139.62"/>
<polygon fill="midnightblue" stroke="midnightblue" points="736.1,-136.17 725.54,-137.08 734.36,-142.95 736.1,-136.17"/>
</g>
<!-- Node26 -->
<g id="node26" class="node">
<title>Node26</title>
<g id="a_node26"><a xlink:title=" ">
<polygon fill="white" stroke="#bfbfbf" points="636,-56.5 636,-75.5 748,-75.5 748,-56.5 636,-56.5"/>
<text text-anchor="middle" x="692" y="-63.5" font-family="Helvetica,sans-Serif" font-size="10.00">AMReX_iMultiFab.H</text>
</a>
</g>
</g>
<!-- Node11&#45;&gt;Node26 -->
<g id="edge55" class="edge">
<title>Node11&#45;&gt;Node26</title>
<path fill="none" stroke="midnightblue" d="M917.34,-184.93C889.78,-176.16 847.35,-161.25 813,-143 791.87,-131.78 789.12,-124.94 769,-112 751.74,-100.91 731.72,-89.24 716.42,-80.57"/>
<polygon fill="midnightblue" stroke="midnightblue" points="718,-77.44 707.57,-75.59 714.57,-83.54 718,-77.44"/>
</g>
<!-- Node27 -->
<g id="node27" class="node">
<title>Node27</title>
<g id="a_node27"><a xlink:href="_scratch_field_8_h.html" target="_top" xlink:title=" ">
<polygon fill="white" stroke="black" points="1047,-118 1047,-137 1207,-137 1207,-118 1047,-118"/>
<text text-anchor="middle" x="1127" y="-125" font-family="Helvetica,sans-Serif" font-size="10.00">amr&#45;wind/core/ScratchField.H</text>
</a>
</g>
</g>
<!-- Node11&#45;&gt;Node27 -->
<g id="edge37" class="edge">
<title>Node11&#45;&gt;Node27</title>
<path fill="none" stroke="midnightblue" d="M970.04,-184.87C1001.77,-173.47 1057.79,-153.35 1093.62,-140.49"/>
<polygon fill="midnightblue" stroke="midnightblue" points="1094.92,-143.74 1103.15,-137.06 1092.56,-137.15 1094.92,-143.74"/>
</g>
<!-- Node30 -->
<g id="node30" class="node">
<title>Node30</title>
<g id="a_node30"><a xlink:href="_int_scratch_field_8_h.html" target="_top" xlink:title=" ">
<polygon fill="white" stroke="black" points="876.5,-112.5 876.5,-142.5 1015.5,-142.5 1015.5,-112.5 876.5,-112.5"/>
<text text-anchor="start" x="884.5" y="-130.5" font-family="Helvetica,sans-Serif" font-size="10.00">amr&#45;wind/core/IntScratch</text>
<text text-anchor="middle" x="946" y="-119.5" font-family="Helvetica,sans-Serif" font-size="10.00">Field.H</text>
</a>
</g>
</g>
<!-- Node11&#45;&gt;Node30 -->
<g id="edge45" class="edge">
<title>Node11&#45;&gt;Node30</title>
<path fill="none" stroke="midnightblue" d="M946,-184.73C946,-176.54 946,-163.92 946,-152.71"/>
<polygon fill="midnightblue" stroke="midnightblue" points="949.5,-152.59 946,-142.59 942.5,-152.59 949.5,-152.59"/>
</g>
<!-- Node15&#45;&gt;Node14 -->
<g id="edge15" class="edge">
<title>Node15&#45;&gt;Node14</title>
<path fill="none" stroke="midnightblue" d="M520.66,-56.44C578.48,-46.87 672.11,-31.36 733.62,-21.17"/>
<polygon fill="midnightblue" stroke="midnightblue" points="734.29,-24.6 743.59,-19.52 733.15,-17.7 734.29,-24.6"/>
</g>
<!-- Node15&#45;&gt;Node16 -->
<g id="edge16" class="edge">
<title>Node15&#45;&gt;Node16</title>
<path fill="none" stroke="midnightblue" d="M542.15,-60.72C568.85,-59.19 599.29,-57.48 627,-56 943.1,-39.16 1321.22,-21.09 1470.17,-14.05"/>
<polygon fill="midnightblue" stroke="midnightblue" points="1470.67,-17.53 1480.49,-13.56 1470.34,-10.54 1470.67,-17.53"/>
</g>
<!-- Node17 -->
<g id="node17" class="node">
<title>Node17</title>
<g id="a_node17"><a xlink:title=" ">
<polygon fill="white" stroke="#bfbfbf" points="407,-0.5 407,-19.5 531,-19.5 531,-0.5 407,-0.5"/>
<text text-anchor="middle" x="469" y="-7.5" font-family="Helvetica,sans-Serif" font-size="10.00">AMReX_Interpolater.H</text>
</a>
</g>
</g>
<!-- Node15&#45;&gt;Node17 -->
<g id="edge17" class="edge">
<title>Node15&#45;&gt;Node17</title>
<path fill="none" stroke="midnightblue" d="M469,-56.08C469,-49.01 469,-38.86 469,-29.99"/>
<polygon fill="midnightblue" stroke="midnightblue" points="472.5,-29.75 469,-19.75 465.5,-29.75 472.5,-29.75"/>
</g>
<!-- Node18&#45;&gt;Node4 -->
<g id="edge25" class="edge">
<title>Node18&#45;&gt;Node4</title>
<path fill="none" stroke="midnightblue" d="M1735.51,-117.98C1709.89,-107.81 1666.89,-90.76 1637.76,-79.2"/>
<polygon fill="midnightblue" stroke="midnightblue" points="1639.04,-75.94 1628.45,-75.51 1636.46,-82.45 1639.04,-75.94"/>
</g>
<!-- Node18&#45;&gt;Node12 -->
<g id="edge19" class="edge">
<title>Node18&#45;&gt;Node12</title>
<path fill="none" stroke="midnightblue" d="M1819.26,-120.41C1848.2,-114.1 1880.11,-101.41 1898,-76 1919.68,-45.21 1862.61,-26.21 1824.04,-17.22"/>
<polygon fill="midnightblue" stroke="midnightblue" points="1824.73,-13.79 1814.21,-15.05 1823.22,-20.62 1824.73,-13.79"/>
</g>
<!-- Node18&#45;&gt;Node13 -->
<g id="edge21" class="edge">
<title>Node18&#45;&gt;Node13</title>
<path fill="none" stroke="midnightblue" d="M1801.56,-117.98C1857.45,-107.28 1953.23,-88.96 2013.44,-77.44"/>
<polygon fill="midnightblue" stroke="midnightblue" points="2014.36,-80.83 2023.52,-75.51 2013.04,-73.95 2014.36,-80.83"/>
</g>
<!-- Node18&#45;&gt;Node14 -->
<g id="edge27" class="edge">
<title>Node18&#45;&gt;Node14</title>
<path fill="none" stroke="midnightblue" d="M1694.65,-123.44C1591.05,-117.79 1377.12,-103.66 1198,-76 1157.08,-69.68 1147.74,-63.41 1107,-56 1028.32,-41.7 937.82,-29.06 874.62,-20.85"/>
<polygon fill="midnightblue" stroke="midnightblue" points="874.69,-17.33 864.32,-19.52 873.79,-24.27 874.69,-17.33"/>
</g>
<!-- Node18&#45;&gt;Node16 -->
<g id="edge23" class="edge">
<title>Node18&#45;&gt;Node16</title>
<path fill="none" stroke="midnightblue" d="M1747.03,-117.88C1729.97,-103.48 1693.66,-74.3 1659,-56 1632.3,-41.9 1600.22,-30.39 1575.37,-22.54"/>
<polygon fill="midnightblue" stroke="midnightblue" points="1576.14,-19.11 1565.55,-19.51 1574.07,-25.8 1576.14,-19.11"/>
</g>
<!-- Node19 -->
<g id="node19" class="node">
<title>Node19</title>
<g id="a_node19"><a xlink:title=" ">
<polygon fill="white" stroke="#bfbfbf" points="2133,-56.5 2133,-75.5 2191,-75.5 2191,-56.5 2133,-56.5"/>
<text text-anchor="middle" x="2162" y="-63.5" font-family="Helvetica,sans-Serif" font-size="10.00">memory</text>
</a>
</g>
</g>
<!-- Node18&#45;&gt;Node19 -->
<g id="edge20" class="edge">
<title>Node18&#45;&gt;Node19</title>
<path fill="none" stroke="midnightblue" d="M1819.31,-119.77C1890.41,-111.68 2010.34,-96.77 2122.47,-76.14"/>
<polygon fill="midnightblue" stroke="midnightblue" points="2123.41,-79.53 2132.6,-74.26 2122.13,-72.64 2123.41,-79.53"/>
</g>
<!-- Node20 -->
<g id="node20" class="node">
<title>Node20</title>
<g id="a_node20"><a xlink:title=" ">
<polygon fill="white" stroke="#bfbfbf" points="1825,-56.5 1825,-75.5 1889,-75.5 1889,-56.5 1825,-56.5"/>
<text text-anchor="middle" x="1857" y="-63.5" font-family="Helvetica,sans-Serif" font-size="10.00">algorithm</text>
</a>
</g>
</g>
<!-- Node18&#45;&gt;Node20 -->
<g id="edge22" class="edge">
<title>Node18&#45;&gt;Node20</title>
<path fill="none" stroke="midnightblue" d="M1771.33,-117.98C1787.66,-108.25 1814.6,-92.23 1833.91,-80.74"/>
<polygon fill="midnightblue" stroke="midnightblue" points="1835.89,-83.63 1842.7,-75.51 1832.32,-77.61 1835.89,-83.63"/>
</g>
<!-- Node21 -->
<g id="node21" class="node">
<title>Node21</title>
<g id="a_node21"><a xlink:title=" ">
<polygon fill="white" stroke="#bfbfbf" points="1707.5,-56.5 1707.5,-75.5 1806.5,-75.5 1806.5,-56.5 1707.5,-56.5"/>
<text text-anchor="middle" x="1757" y="-63.5" font-family="Helvetica,sans-Serif" font-size="10.00">AMReX_BCRec.H</text>
</a>
</g>
</g>
<!-- Node18&#45;&gt;Node21 -->
<g id="edge24" class="edge">
<title>Node18&#45;&gt;Node21</title>
<path fill="none" stroke="midnightblue" d="M1757,-117.98C1757,-109.58 1757,-96.48 1757,-85.66"/>
<polygon fill="midnightblue" stroke="midnightblue" points="1760.5,-85.51 1757,-75.51 1753.5,-85.51 1760.5,-85.51"/>
</g>
<!-- Node22 -->
<g id="node22" class="node">
<title>Node22</title>
<g id="a_node22"><a xlink:href="incflo__enums_8_h.html" target="_top" xlink:title=" ">
<polygon fill="white" stroke="black" points="2589.5,-56.5 2589.5,-75.5 2730.5,-75.5 2730.5,-56.5 2589.5,-56.5"/>
<text text-anchor="middle" x="2660" y="-63.5" font-family="Helvetica,sans-Serif" font-size="10.00">amr&#45;wind/incflo_enums.H</text>
</a>
</g>
</g>
<!-- Node18&#45;&gt;Node22 -->
<g id="edge26" class="edge">
<title>Node18&#45;&gt;Node22</title>
<path fill="none" stroke="midnightblue" d="M1819.47,-122.35C1864.18,-119.41 1925.79,-115.39 1980,-112 2243.37,-95.54 2312.17,-98.86 2579.35,-76.01"/>
<polygon fill="midnightblue" stroke="midnightblue" points="2579.69,-79.49 2589.35,-75.15 2579.09,-72.52 2579.69,-79.49"/>
</g>
<!-- Node23 -->
<g id="node23" class="node">
<title>Node23</title>
<g id="a_node23"><a xlink:href="_view_field_8_h.html" target="_top" xlink:title=" ">
<polygon fill="white" stroke="black" points="1207,-56.5 1207,-75.5 1355,-75.5 1355,-56.5 1207,-56.5"/>
<text text-anchor="middle" x="1281" y="-63.5" font-family="Helvetica,sans-Serif" font-size="10.00">amr&#45;wind/core/ViewField.H</text>
</a>
</g>
</g>
<!-- Node18&#45;&gt;Node23 -->
<g id="edge28" class="edge">
<title>Node18&#45;&gt;Node23</title>
<path fill="none" stroke="midnightblue" d="M1694.77,-118.72C1608.58,-107.95 1452.89,-88.49 1359.02,-76.75"/>
<polygon fill="midnightblue" stroke="midnightblue" points="1359.37,-73.27 1349.01,-75.5 1358.5,-80.22 1359.37,-73.27"/>
</g>
<!-- Node23&#45;&gt;Node12 -->
<g id="edge29" class="edge">
<title>Node23&#45;&gt;Node12</title>
<path fill="none" stroke="midnightblue" d="M1355.03,-57.18C1468.2,-45.22 1679.52,-22.89 1759.87,-14.39"/>
<polygon fill="midnightblue" stroke="midnightblue" points="1760.31,-17.87 1769.88,-13.34 1759.57,-10.91 1760.31,-17.87"/>
</g>
<!-- Node23&#45;&gt;Node14 -->
<g id="edge30" class="edge">
<title>Node23&#45;&gt;Node14</title>
<path fill="none" stroke="midnightblue" d="M1206.92,-56.77C1119.59,-47.07 974.63,-30.96 882.02,-20.67"/>
<polygon fill="midnightblue" stroke="midnightblue" points="882.16,-17.16 871.83,-19.54 881.38,-24.12 882.16,-17.16"/>
</g>
<!-- Node23&#45;&gt;Node16 -->
<g id="edge31" class="edge">
<title>Node23&#45;&gt;Node16</title>
<path fill="none" stroke="midnightblue" d="M1321.25,-56.44C1365.65,-47 1437.15,-31.8 1485.09,-21.61"/>
<polygon fill="midnightblue" stroke="midnightblue" points="1485.89,-25.02 1494.94,-19.52 1484.43,-18.17 1485.89,-25.02"/>
</g>
<!-- Node24 -->
<g id="node24" class="node">
<title>Node24</title>
<g id="a_node24"><a xlink:title=" ">
<polygon fill="white" stroke="#bfbfbf" points="1162,-0.5 1162,-19.5 1260,-19.5 1260,-0.5 1162,-0.5"/>
<text text-anchor="middle" x="1211" y="-7.5" font-family="Helvetica,sans-Serif" font-size="10.00">AMReX_Vector.H</text>
</a>
</g>
</g>
<!-- Node23&#45;&gt;Node24 -->
<g id="edge32" class="edge">
<title>Node23&#45;&gt;Node24</title>
<path fill="none" stroke="midnightblue" d="M1269.75,-56.32C1259.2,-48.18 1243.2,-35.84 1230.56,-26.09"/>
<polygon fill="midnightblue" stroke="midnightblue" points="1232.51,-23.17 1222.45,-19.83 1228.23,-28.71 1232.51,-23.17"/>
</g>
<!-- Node25&#45;&gt;Node12 -->
<g id="edge34" class="edge">
<title>Node25&#45;&gt;Node12</title>
<path fill="none" stroke="midnightblue" d="M760.55,-120.65C792.84,-117.94 831.89,-114.73 867,-112 977.4,-103.43 1258.5,-109.63 1364,-76 1380.34,-70.79 1380.77,-61.54 1397,-56 1464.04,-33.1 1677.56,-17.99 1759.53,-12.9"/>
<polygon fill="midnightblue" stroke="midnightblue" points="1759.98,-16.38 1769.75,-12.28 1759.55,-9.39 1759.98,-16.38"/>
</g>
<!-- Node25&#45;&gt;Node14 -->
<g id="edge35" class="edge">
<title>Node25&#45;&gt;Node14</title>
<path fill="none" stroke="midnightblue" d="M673.39,-117.83C648.3,-104.97 608.76,-79.77 627,-56 639.12,-40.21 683.3,-28.75 723.32,-21.35"/>
<polygon fill="midnightblue" stroke="midnightblue" points="724.15,-24.75 733.38,-19.55 722.92,-17.86 724.15,-24.75"/>
</g>
<!-- Node25&#45;&gt;Node26 -->
<g id="edge36" class="edge">
<title>Node25&#45;&gt;Node26</title>
<path fill="none" stroke="midnightblue" d="M692,-117.98C692,-109.58 692,-96.48 692,-85.66"/>
<polygon fill="midnightblue" stroke="midnightblue" points="695.5,-85.51 692,-75.51 688.5,-85.51 695.5,-85.51"/>
</g>
<!-- Node27&#45;&gt;Node12 -->
<g id="edge38" class="edge">
<title>Node27&#45;&gt;Node12</title>
<path fill="none" stroke="midnightblue" d="M1199.58,-117.99C1269.83,-109.26 1379.17,-94.39 1473,-76 1509.39,-68.87 1517.77,-63.89 1554,-56 1627.38,-40.02 1714.2,-24.43 1760,-16.47"/>
<polygon fill="midnightblue" stroke="midnightblue" points="1760.68,-19.91 1769.93,-14.75 1759.48,-13.01 1760.68,-19.91"/>
</g>
<!-- Node27&#45;&gt;Node14 -->
<g id="edge40" class="edge">
<title>Node27&#45;&gt;Node14</title>
<path fill="none" stroke="midnightblue" d="M1124.29,-117.87C1119.03,-102.63 1105.87,-71.11 1083,-56 1052.42,-35.79 964.21,-24.04 893.4,-17.65"/>
<polygon fill="midnightblue" stroke="midnightblue" points="893.35,-14.13 883.09,-16.75 892.74,-21.11 893.35,-14.13"/>
</g>
<!-- Node27&#45;&gt;Node16 -->
<g id="edge42" class="edge">
<title>Node27&#45;&gt;Node16</title>
<path fill="none" stroke="midnightblue" d="M1177.96,-117.98C1226.34,-109.34 1300.85,-94.61 1364,-76 1415.16,-60.92 1472.78,-37.66 1506.37,-23.43"/>
<polygon fill="midnightblue" stroke="midnightblue" points="1507.76,-26.65 1515.59,-19.5 1505.02,-20.21 1507.76,-26.65"/>
</g>
<!-- Node27&#45;&gt;Node23 -->
<g id="edge41" class="edge">
<title>Node27&#45;&gt;Node23</title>
<path fill="none" stroke="midnightblue" d="M1149.06,-117.98C1175.37,-107.81 1219.51,-90.76 1249.42,-79.2"/>
<polygon fill="midnightblue" stroke="midnightblue" points="1250.91,-82.38 1258.98,-75.51 1248.39,-75.85 1250.91,-82.38"/>
</g>
<!-- Node27&#45;&gt;Node24 -->
<g id="edge43" class="edge">
<title>Node27&#45;&gt;Node24</title>
<path fill="none" stroke="midnightblue" d="M1133.31,-117.82C1147.18,-98.76 1180.49,-52.95 1198.67,-27.96"/>
<polygon fill="midnightblue" stroke="midnightblue" points="1201.56,-29.93 1204.61,-19.78 1195.9,-25.81 1201.56,-29.93"/>
</g>
<!-- Node28 -->
<g id="node28" class="node">
<title>Node28</title>
<g id="a_node28"><a xlink:title=" ">
<polygon fill="white" stroke="#bfbfbf" points="1029.5,-56.5 1029.5,-75.5 1074.5,-75.5 1074.5,-56.5 1029.5,-56.5"/>
<text text-anchor="middle" x="1052" y="-63.5" font-family="Helvetica,sans-Serif" font-size="10.00">utility</text>
</a>
</g>
</g>
<!-- Node27&#45;&gt;Node28 -->
<g id="edge39" class="edge">
<title>Node27&#45;&gt;Node28</title>
<path fill="none" stroke="midnightblue" d="M1116.25,-117.98C1104.45,-108.61 1085.26,-93.38 1070.92,-82.01"/>
<polygon fill="midnightblue" stroke="midnightblue" points="1072.74,-78.98 1062.73,-75.51 1068.38,-84.47 1072.74,-78.98"/>
</g>
<!-- Node29 -->
<g id="node29" class="node">
<title>Node29</title>
<g id="a_node29"><a xlink:title=" ">
<polygon fill="white" stroke="#bfbfbf" points="880.5,-56.5 880.5,-75.5 1011.5,-75.5 1011.5,-56.5 880.5,-56.5"/>
<text text-anchor="middle" x="946" y="-63.5" font-family="Helvetica,sans-Serif" font-size="10.00">AMReX_PhysBCFunct.H</text>
</a>
</g>
</g>
<!-- Node27&#45;&gt;Node29 -->
<g id="edge44" class="edge">
<title>Node27&#45;&gt;Node29</title>
<path fill="none" stroke="midnightblue" d="M1101.07,-117.98C1069.75,-107.68 1016.91,-90.31 981.74,-78.75"/>
<polygon fill="midnightblue" stroke="midnightblue" points="982.48,-75.31 971.88,-75.51 980.29,-81.96 982.48,-75.31"/>
</g>
<!-- Node30&#45;&gt;Node12 -->
<g id="edge46" class="edge">
<title>Node30&#45;&gt;Node12</title>
<path fill="none" stroke="midnightblue" d="M1015.76,-115.08C1023.26,-113.98 1030.78,-112.93 1038,-112 1197.04,-91.51 1239.2,-104.49 1397,-76 1431.37,-69.79 1438.76,-62.9 1473,-56 1577.01,-35.05 1702.03,-20.44 1759.82,-14.28"/>
<polygon fill="midnightblue" stroke="midnightblue" points="1760.23,-17.75 1769.8,-13.22 1759.49,-10.79 1760.23,-17.75"/>
</g>
<!-- Node30&#45;&gt;Node14 -->
<g id="edge48" class="edge">
<title>Node30&#45;&gt;Node14</title>
<path fill="none" stroke="midnightblue" d="M902.34,-112.42C881.3,-104.13 856.65,-92.09 838,-76 822.83,-62.91 810.83,-43.22 803.4,-28.94"/>
<polygon fill="midnightblue" stroke="midnightblue" points="806.39,-27.09 798.82,-19.67 800.11,-30.19 806.39,-27.09"/>
</g>
<!-- Node30&#45;&gt;Node23 -->
<g id="edge49" class="edge">
<title>Node30&#45;&gt;Node23</title>
<path fill="none" stroke="midnightblue" d="M1015.82,-114.1C1077.14,-103.21 1165.32,-87.55 1222.87,-77.32"/>
<polygon fill="midnightblue" stroke="midnightblue" points="1223.66,-80.74 1232.9,-75.54 1222.44,-73.85 1223.66,-80.74"/>
</g>
<!-- Node30&#45;&gt;Node24 -->
<g id="edge51" class="edge">
<title>Node30&#45;&gt;Node24</title>
<path fill="none" stroke="midnightblue" d="M912.73,-112.49C884.91,-98.84 852.51,-77.1 871,-56 889.18,-35.26 1059.18,-20.96 1151.69,-14.65"/>
<polygon fill="midnightblue" stroke="midnightblue" points="1152.01,-18.14 1161.76,-13.98 1151.54,-11.16 1152.01,-18.14"/>
</g>
<!-- Node30&#45;&gt;Node26 -->
<g id="edge50" class="edge">
<title>Node30&#45;&gt;Node26</title>
<path fill="none" stroke="midnightblue" d="M886.13,-112.47C840.87,-101.87 779.66,-87.53 738.16,-77.81"/>
<polygon fill="midnightblue" stroke="midnightblue" points="738.85,-74.38 728.31,-75.51 737.25,-81.19 738.85,-74.38"/>
</g>
<!-- Node30&#45;&gt;Node28 -->
<g id="edge47" class="edge">
<title>Node30&#45;&gt;Node28</title>
<path fill="none" stroke="midnightblue" d="M971.12,-112.4C988.27,-102.77 1010.86,-90.09 1027.81,-80.58"/>
<polygon fill="midnightblue" stroke="midnightblue" points="1029.57,-83.6 1036.58,-75.66 1026.14,-77.5 1029.57,-83.6"/>
</g>
<!-- Node30&#45;&gt;Node29 -->
<g id="edge52" class="edge">
<title>Node30&#45;&gt;Node29</title>
<path fill="none" stroke="midnightblue" d="M946,-112.4C946,-104.47 946,-94.46 946,-85.86"/>
<polygon fill="midnightblue" stroke="midnightblue" points="949.5,-85.66 946,-75.66 942.5,-85.66 949.5,-85.66"/>
</g>
<!-- Node31&#45;&gt;Node12 -->
<g id="edge57" class="edge">
<title>Node31&#45;&gt;Node12</title>
<path fill="none" stroke="midnightblue" d="M2459.55,-188.97C2589.07,-178.78 2827.07,-147.3 2740,-56 2707.73,-22.16 1987.09,-12.95 1824.43,-11.3"/>
<polygon fill="midnightblue" stroke="midnightblue" points="1824.15,-7.8 1814.11,-11.2 1824.08,-14.8 1824.15,-7.8"/>
</g>
<!-- Node31&#45;&gt;Node14 -->
<g id="edge71" class="edge">
<title>Node31&#45;&gt;Node14</title>
<path fill="none" stroke="midnightblue" d="M2304.23,-182.55C2292.12,-181.15 2279.74,-179.89 2268,-179 2190.37,-173.08 936.14,-178.79 867,-143 823.64,-120.55 805.21,-60.45 798.42,-29.69"/>
<polygon fill="midnightblue" stroke="midnightblue" points="801.84,-28.92 796.42,-19.81 794.97,-30.31 801.84,-28.92"/>
</g>
<!-- Node31&#45;&gt;Node22 -->
<g id="edge72" class="edge">
<title>Node31&#45;&gt;Node22</title>
<path fill="none" stroke="midnightblue" d="M2412.81,-179.48C2467.13,-154.76 2579.14,-103.8 2631.65,-79.9"/>
<polygon fill="midnightblue" stroke="midnightblue" points="2633.38,-82.96 2641.03,-75.63 2630.48,-76.59 2633.38,-82.96"/>
</g>
<!-- Node32 -->
<g id="node32" class="node">
<title>Node32</title>
<g id="a_node32"><a xlink:href="_factory_8_h.html" target="_top" xlink:title=" ">
<polygon fill="white" stroke="black" points="2315,-118 2315,-137 2449,-137 2449,-118 2315,-118"/>
<text text-anchor="middle" x="2382" y="-125" font-family="Helvetica,sans-Serif" font-size="10.00">amr&#45;wind/core/Factory.H</text>
</a>
</g>
</g>
<!-- Node31&#45;&gt;Node32 -->
<g id="edge58" class="edge">
<title>Node31&#45;&gt;Node32</title>
<path fill="none" stroke="midnightblue" d="M2382,-179.4C2382,-170.06 2382,-157.71 2382,-147.52"/>
<polygon fill="midnightblue" stroke="midnightblue" points="2385.5,-147.19 2382,-137.19 2378.5,-147.19 2385.5,-147.19"/>
</g>
<!-- Node36 -->
<g id="node36" class="node">
<title>Node36</title>
<g id="a_node36"><a xlink:href="_coll_mgr_8_h.html" target="_top" xlink:title=" ">
<polygon fill="white" stroke="black" points="2121.5,-118 2121.5,-137 2258.5,-137 2258.5,-118 2121.5,-118"/>
<text text-anchor="middle" x="2190" y="-125" font-family="Helvetica,sans-Serif" font-size="10.00">amr&#45;wind/core/CollMgr.H</text>
</a>
</g>
</g>
<!-- Node31&#45;&gt;Node36 -->
<g id="edge64" class="edge">
<title>Node31&#45;&gt;Node36</title>
<path fill="none" stroke="midnightblue" d="M2340.34,-179.4C2305.76,-167.69 2257.14,-151.23 2224.66,-140.23"/>
<polygon fill="midnightblue" stroke="midnightblue" points="2225.72,-136.9 2215.13,-137.01 2223.48,-143.53 2225.72,-136.9"/>
</g>
<!-- Node37 -->
<g id="node37" class="node">
<title>Node37</title>
<g id="a_node37"><a xlink:href="_p_d_e_fields_8_h.html" target="_top" xlink:title=" ">
<polygon fill="white" stroke="black" points="2787.5,-112.5 2787.5,-142.5 2942.5,-142.5 2942.5,-112.5 2787.5,-112.5"/>
<text text-anchor="start" x="2795.5" y="-130.5" font-family="Helvetica,sans-Serif" font-size="10.00">amr&#45;wind/equation_systems</text>
<text text-anchor="middle" x="2865" y="-119.5" font-family="Helvetica,sans-Serif" font-size="10.00">/PDEFields.H</text>
</a>
</g>
</g>
<!-- Node31&#45;&gt;Node37 -->
<g id="edge69" class="edge">
<title>Node31&#45;&gt;Node37</title>
<path fill="none" stroke="midnightblue" d="M2459.61,-184.12C2538.57,-174.43 2664.43,-158.56 2773,-143 2774.31,-142.81 2775.62,-142.62 2776.95,-142.43"/>
<polygon fill="midnightblue" stroke="midnightblue" points="2777.84,-145.84 2787.22,-140.91 2776.82,-138.91 2777.84,-145.84"/>
</g>
<!-- Node32&#45;&gt;Node13 -->
<g id="edge60" class="edge">
<title>Node32&#45;&gt;Node13</title>
<path fill="none" stroke="midnightblue" d="M2337.01,-117.98C2280.58,-107.28 2183.88,-88.96 2123.08,-77.44"/>
<polygon fill="midnightblue" stroke="midnightblue" points="2123.38,-73.93 2112.91,-75.51 2122.08,-80.81 2123.38,-73.93"/>
</g>
<!-- Node32&#45;&gt;Node19 -->
<g id="edge59" class="edge">
<title>Node32&#45;&gt;Node19</title>
<path fill="none" stroke="midnightblue" d="M2350.48,-117.98C2310.99,-107.3 2243.35,-89 2200.74,-77.48"/>
<polygon fill="midnightblue" stroke="midnightblue" points="2201.57,-74.08 2191.01,-74.85 2199.75,-80.83 2201.57,-74.08"/>
</g>
<!-- Node33 -->
<g id="node33" class="node">
<title>Node33</title>
<g id="a_node33"><a xlink:title=" ">
<polygon fill="white" stroke="#bfbfbf" points="2403,-56.5 2403,-75.5 2463,-75.5 2463,-56.5 2403,-56.5"/>
<text text-anchor="middle" x="2433" y="-63.5" font-family="Helvetica,sans-Serif" font-size="10.00">iostream</text>
</a>
</g>
</g>
<!-- Node32&#45;&gt;Node33 -->
<g id="edge61" class="edge">
<title>Node32&#45;&gt;Node33</title>
<path fill="none" stroke="midnightblue" d="M2389.31,-117.98C2397.03,-108.96 2409.41,-94.52 2419.02,-83.31"/>
<polygon fill="midnightblue" stroke="midnightblue" points="2421.86,-85.38 2425.71,-75.51 2416.54,-80.82 2421.86,-85.38"/>
</g>
<!-- Node34 -->
<g id="node34" class="node">
<title>Node34</title>
<g id="a_node34"><a xlink:title=" ">
<polygon fill="white" stroke="#bfbfbf" points="2481,-56.5 2481,-75.5 2571,-75.5 2571,-56.5 2481,-56.5"/>
<text text-anchor="middle" x="2526" y="-63.5" font-family="Helvetica,sans-Serif" font-size="10.00">AMReX_Print.H</text>
</a>
</g>
</g>
<!-- Node32&#45;&gt;Node34 -->
<g id="edge62" class="edge">
<title>Node32&#45;&gt;Node34</title>
<path fill="none" stroke="midnightblue" d="M2402.63,-117.98C2427.12,-107.86 2468.15,-90.9 2496.11,-79.35"/>
<polygon fill="midnightblue" stroke="midnightblue" points="2497.5,-82.56 2505.41,-75.51 2494.83,-76.09 2497.5,-82.56"/>
</g>
<!-- Node35 -->
<g id="node35" class="node">
<title>Node35</title>
<g id="a_node35"><a xlink:title=" ">
<polygon fill="white" stroke="#bfbfbf" points="2323,-56.5 2323,-75.5 2385,-75.5 2385,-56.5 2323,-56.5"/>
<text text-anchor="middle" x="2354" y="-63.5" font-family="Helvetica,sans-Serif" font-size="10.00">AMReX.H</text>
</a>
</g>
</g>
<!-- Node32&#45;&gt;Node35 -->
<g id="edge63" class="edge">
<title>Node32&#45;&gt;Node35</title>
<path fill="none" stroke="midnightblue" d="M2377.99,-117.98C2373.91,-109.32 2367.48,-95.65 2362.3,-84.65"/>
<polygon fill="midnightblue" stroke="midnightblue" points="2365.43,-83.07 2358,-75.51 2359.1,-86.05 2365.43,-83.07"/>
</g>
<!-- Node36&#45;&gt;Node12 -->
<g id="edge65" class="edge">
<title>Node36&#45;&gt;Node12</title>
<path fill="none" stroke="midnightblue" d="M2202.19,-117.78C2220.4,-103.74 2250.78,-75.68 2233,-56 2205.65,-25.72 1921.03,-14.73 1824.11,-11.85"/>
<polygon fill="midnightblue" stroke="midnightblue" points="1824.12,-8.35 1814.03,-11.56 1823.92,-15.34 1824.12,-8.35"/>
</g>
<!-- Node36&#45;&gt;Node13 -->
<g id="edge67" class="edge">
<title>Node36&#45;&gt;Node13</title>
<path fill="none" stroke="midnightblue" d="M2172.52,-117.98C2152.14,-108.03 2118.22,-91.49 2094.58,-79.96"/>
<polygon fill="midnightblue" stroke="midnightblue" points="2095.97,-76.75 2085.45,-75.51 2092.9,-83.04 2095.97,-76.75"/>
</g>
<!-- Node36&#45;&gt;Node19 -->
<g id="edge66" class="edge">
<title>Node36&#45;&gt;Node19</title>
<path fill="none" stroke="midnightblue" d="M2185.99,-117.98C2181.91,-109.32 2175.48,-95.65 2170.3,-84.65"/>
<polygon fill="midnightblue" stroke="midnightblue" points="2173.43,-83.07 2166,-75.51 2167.1,-86.05 2173.43,-83.07"/>
</g>
<!-- Node36&#45;&gt;Node24 -->
<g id="edge68" class="edge">
<title>Node36&#45;&gt;Node24</title>
<path fill="none" stroke="midnightblue" d="M2195.14,-117.78C2203.14,-102.95 2216.06,-72.8 2200,-56 2191.92,-47.55 1482.47,-20.93 1270.29,-13.15"/>
<polygon fill="midnightblue" stroke="midnightblue" points="1270.39,-9.66 1260.27,-12.79 1270.13,-16.65 1270.39,-9.66"/>
</g>
<!-- Node38 -->
<g id="node38" class="node">
<title>Node38</title>
<g id="a_node38"><a xlink:title=" ">
<polygon fill="white" stroke="#bfbfbf" points="2841,-56.5 2841,-75.5 2889,-75.5 2889,-56.5 2841,-56.5"/>
<text text-anchor="middle" x="2865" y="-63.5" font-family="Helvetica,sans-Serif" font-size="10.00">iosfwd</text>
</a>
</g>
</g>
<!-- Node37&#45;&gt;Node38 -->
<g id="edge70" class="edge">
<title>Node37&#45;&gt;Node38</title>
<path fill="none" stroke="midnightblue" d="M2865,-112.4C2865,-104.47 2865,-94.46 2865,-85.86"/>
<polygon fill="midnightblue" stroke="midnightblue" points="2868.5,-85.66 2865,-75.66 2861.5,-85.66 2868.5,-85.66"/>
</g>
<!-- Node39&#45;&gt;Node16 -->
<g id="edge76" class="edge">
<title>Node39&#45;&gt;Node16</title>
<path fill="none" stroke="midnightblue" d="M2214.97,-184.84C2233.28,-177.02 2256.82,-163.55 2268,-143 2289.41,-103.63 2257.38,-75.45 2217,-56 2189.47,-42.73 1764.39,-21.67 1599.59,-13.95"/>
<polygon fill="midnightblue" stroke="midnightblue" points="1599.74,-10.46 1589.59,-13.49 1599.41,-17.45 1599.74,-10.46"/>
</g>
<!-- Node39&#45;&gt;Node32 -->
<g id="edge74" class="edge">
<title>Node39&#45;&gt;Node32</title>
<path fill="none" stroke="midnightblue" d="M2215.5,-184.87C2249.3,-173.42 2309.1,-153.18 2347.08,-140.32"/>
<polygon fill="midnightblue" stroke="midnightblue" points="2348.35,-143.59 2356.7,-137.06 2346.11,-136.96 2348.35,-143.59"/>
</g>
<!-- Node39&#45;&gt;Node36 -->
<g id="edge75" class="edge">
<title>Node39&#45;&gt;Node36</title>
<path fill="none" stroke="midnightblue" d="M2190,-184.73C2190,-175.18 2190,-159.62 2190,-147.28"/>
<polygon fill="midnightblue" stroke="midnightblue" points="2193.5,-147.13 2190,-137.13 2186.5,-147.13 2193.5,-147.13"/>
</g>
<!-- Node40 -->
<g id="node40" class="node">
<title>Node40</title>
<g id="a_node40"><a xlink:title=" ">
<polygon fill="white" stroke="#bfbfbf" points="1988.5,-118 1988.5,-137 2103.5,-137 2103.5,-118 1988.5,-118"/>
<text text-anchor="middle" x="2046" y="-125" font-family="Helvetica,sans-Serif" font-size="10.00">AMReX_Geometry.H</text>
</a>
</g>
</g>
<!-- Node39&#45;&gt;Node40 -->
<g id="edge77" class="edge">
<title>Node39&#45;&gt;Node40</title>
<path fill="none" stroke="midnightblue" d="M2170.88,-184.87C2146.24,-173.75 2103.19,-154.32 2074.64,-141.43"/>
<polygon fill="midnightblue" stroke="midnightblue" points="2075.76,-138.09 2065.2,-137.17 2072.88,-144.47 2075.76,-138.09"/>
</g>
<!-- Node41&#45;&gt;Node16 -->
<g id="edge82" class="edge">
<title>Node41&#45;&gt;Node16</title>
<path fill="none" stroke="midnightblue" d="M1956.19,-184.95C1953.37,-160.3 1941.61,-88.77 1898,-56 1852.29,-21.66 1691.3,-13.36 1599.81,-11.46"/>
<polygon fill="midnightblue" stroke="midnightblue" points="1599.62,-7.96 1589.55,-11.27 1599.48,-14.96 1599.62,-7.96"/>
</g>
<!-- Node41&#45;&gt;Node18 -->
<g id="edge81" class="edge">
<title>Node41&#45;&gt;Node18</title>
<path fill="none" stroke="midnightblue" d="M1930.44,-184.87C1895.08,-173.38 1832.41,-153.01 1792.87,-140.16"/>
<polygon fill="midnightblue" stroke="midnightblue" points="1793.94,-136.83 1783.35,-137.06 1791.78,-143.48 1793.94,-136.83"/>
</g>
<!-- Node41&#45;&gt;Node32 -->
<g id="edge80" class="edge">
<title>Node41&#45;&gt;Node32</title>
<path fill="none" stroke="midnightblue" d="M2013,-184.94C2091.22,-172.97 2232.92,-151.3 2316.12,-138.58"/>
<polygon fill="midnightblue" stroke="midnightblue" points="2316.86,-142 2326.22,-137.03 2315.8,-135.08 2316.86,-142"/>
</g>
<!-- Node41&#45;&gt;Node36 -->
<g id="edge79" class="edge">
<title>Node41&#45;&gt;Node36</title>
<path fill="none" stroke="midnightblue" d="M1987.94,-184.87C2029.57,-173.25 2103.7,-152.58 2149.66,-139.75"/>
<polygon fill="midnightblue" stroke="midnightblue" points="2150.61,-143.12 2159.3,-137.06 2148.73,-136.38 2150.61,-143.12"/>
</g>
<!-- Node41&#45;&gt;Node40 -->
<g id="edge83" class="edge">
<title>Node41&#45;&gt;Node40</title>
<path fill="none" stroke="midnightblue" d="M1969,-184.73C1983.55,-174.11 2008.28,-156.05 2025.78,-143.26"/>
<polygon fill="midnightblue" stroke="midnightblue" points="2028.18,-145.85 2034.19,-137.13 2024.05,-140.2 2028.18,-145.85"/>
</g>
<!-- Node42&#45;&gt;Node5 -->
<g id="edge87" class="edge">
<title>Node42&#45;&gt;Node5</title>
<path fill="none" stroke="midnightblue" d="M785.28,-204.13C809.84,-215.07 848.71,-234.07 873.1,-246.96"/>
<polygon fill="midnightblue" stroke="midnightblue" points="871.52,-250.08 881.99,-251.73 874.84,-243.92 871.52,-250.08"/>
</g>
<!-- Node42&#45;&gt;Node6 -->
<g id="edge85" class="edge">
<title>Node42&#45;&gt;Node6</title>
<path fill="none" stroke="midnightblue" d="M724.92,-184.94C672.72,-173.2 578.95,-152.11 522.01,-139.3"/>
<polygon fill="midnightblue" stroke="midnightblue" points="522.69,-135.86 512.16,-137.08 521.15,-142.69 522.69,-135.86"/>
</g>
<!-- Node42&#45;&gt;Node7 -->
<g id="edge86" class="edge">
<title>Node42&#45;&gt;Node7</title>
<path fill="none" stroke="midnightblue" d="M726.25,-184.94C716.46,-182.82 705.85,-180.68 696,-179 569.71,-157.43 536.65,-162.29 410,-143 401.68,-141.73 392.89,-140.28 384.3,-138.79"/>
<polygon fill="midnightblue" stroke="midnightblue" points="384.8,-135.33 374.34,-137.04 383.59,-142.22 384.8,-135.33"/>
</g>
</g>
</svg>
