<?xml version="1.0" encoding="UTF-8" standalone="no"?>
<!DOCTYPE svg PUBLIC "-//W3C//DTD SVG 1.1//EN"
 "http://www.w3.org/Graphics/SVG/1.1/DTD/svg11.dtd">
<!-- Generated by graphviz version 2.43.0 (0)
 -->
<!-- Title: FieldPlaneAveraging.H Pages: 1 -->
<!--zoomable 263 -->
<svg id="main" version="1.1" xmlns="http://www.w3.org/2000/svg" xmlns:xlink="http://www.w3.org/1999/xlink" xml:space="preserve" onload="init(evt)">
<style type="text/css"><![CDATA[
.edge:hover path { stroke: red; }
.edge:hover polygon { stroke: red; fill: red; }
]]></style>
<script type="text/javascript"><![CDATA[
var edges = document.getElementsByTagName('g');
if (edges && edges.length) {
  for (var i=0;i<edges.length;i++) {
    if (edges[i].id.substr(0,4)=='edge') {
      edges[i].setAttribute('class','edge');
    }
  }
}
]]></script>
        <defs>
                <circle id="rim" cx="0" cy="0" r="7"/>
                <circle id="rim2" cx="0" cy="0" r="3.5"/>
                <g id="zoomPlus">
                        <use xlink:href="#rim" fill="#404040">
                                <set attributeName="fill" to="#808080" begin="zoomplus.mouseover" end="zoomplus.mouseout"/>
                        </use>
                        <path d="M-4,0h8M0,-4v8" fill="none" stroke="white" stroke-width="1.5" pointer-events="none"/>
                </g>
                <g id="zoomMin">
                        <use xlink:href="#rim" fill="#404040">
                                <set attributeName="fill" to="#808080" begin="zoomminus.mouseover" end="zoomminus.mouseout"/>
                        </use>
                        <path d="M-4,0h8" fill="none" stroke="white" stroke-width="1.5" pointer-events="none"/>
                </g>
                <g id="dirArrow">
                        <path fill="none" stroke="white" stroke-width="1.5" d="M0,-3.0v7 M-2.5,-0.5L0,-3.0L2.5,-0.5"/>
                </g>
               <g id="resetDef">
                       <use xlink:href="#rim2" fill="#404040">
                               <set attributeName="fill" to="#808080" begin="reset.mouseover" end="reset.mouseout"/>
                       </use>
               </g>
        </defs>

<script type="text/javascript">
var viewWidth = 1376;
var viewHeight = 263;
var sectionId = 'dynsection-1';
</script>
<script xlink:href="svgpan.js"/>
<svg id="graph" class="graph">
<g id="viewport">
<title>FieldPlaneAveraging.H</title>
<polygon fill="white" stroke="transparent" points="-4,4 -4,-259 1372,-259 1372,4 -4,4"/>
<!-- Node1 -->
<g id="node1" class="node">
<title>Node1</title>
<g id="a_node1"><a xlink:title=" ">
<polygon fill="#bfbfbf" stroke="black" points="763,-235.5 763,-254.5 889,-254.5 889,-235.5 763,-235.5"/>
<text text-anchor="middle" x="826" y="-242.5" font-family="Helvetica,sans-Serif" font-size="10.00">FieldPlaneAveraging.H</text>
</a>
</g>
</g>
<!-- Node2 -->
<g id="node2" class="node">
<title>Node2</title>
<g id="a_node2"><a xlink:href="_a_b_l_mean_boussinesq_8_h.html" target="_top" xlink:title=" ">
<polygon fill="white" stroke="black" points="104,-67.5 104,-86.5 232,-86.5 232,-67.5 104,-67.5"/>
<text text-anchor="middle" x="168" y="-74.5" font-family="Helvetica,sans-Serif" font-size="10.00">ABLMeanBoussinesq.H</text>
</a>
</g>
</g>
<!-- Node1&#45;&gt;Node2 -->
<g id="edge1" class="edge">
<title>Node1&#45;&gt;Node2</title>
<path fill="none" stroke="midnightblue" d="M752.73,-238.8C684.66,-232.87 580.87,-221 493,-199 372.69,-168.87 235.56,-108.88 186.58,-86.6"/>
<polygon fill="midnightblue" stroke="midnightblue" points="752.66,-242.31 762.92,-239.67 753.25,-235.33 752.66,-242.31"/>
</g>
<!-- Node5 -->
<g id="node5" class="node">
<title>Node5</title>
<g id="a_node5"><a xlink:href="_hurricane_forcing_8_h.html" target="_top" xlink:title=" ">
<polygon fill="white" stroke="black" points="250,-67.5 250,-86.5 360,-86.5 360,-67.5 250,-67.5"/>
<text text-anchor="middle" x="305" y="-74.5" font-family="Helvetica,sans-Serif" font-size="10.00">HurricaneForcing.H</text>
</a>
</g>
</g>
<!-- Node1&#45;&gt;Node5 -->
<g id="edge4" class="edge">
<title>Node1&#45;&gt;Node5</title>
<path fill="none" stroke="midnightblue" d="M752.92,-238.33C695.8,-232.44 614.95,-220.9 547,-199 454.9,-169.32 354.32,-109.05 318.55,-86.65"/>
<polygon fill="midnightblue" stroke="midnightblue" points="752.65,-241.82 762.95,-239.33 753.35,-234.85 752.65,-241.82"/>
</g>
<!-- Node7 -->
<g id="node7" class="node">
<title>Node7</title>
<g id="a_node7"><a xlink:href="_field_plane_averaging_8cpp.html" target="_top" xlink:title=" ">
<polygon fill="white" stroke="black" points="1232,-179.5 1232,-198.5 1368,-198.5 1368,-179.5 1232,-179.5"/>
<text text-anchor="middle" x="1300" y="-186.5" font-family="Helvetica,sans-Serif" font-size="10.00">FieldPlaneAveraging.cpp</text>
</a>
</g>
</g>
<!-- Node1&#45;&gt;Node7 -->
<g id="edge7" class="edge">
<title>Node1&#45;&gt;Node7</title>
<path fill="none" stroke="midnightblue" d="M899.69,-235.73C979.4,-226.76 1110.23,-211.98 1223,-199 1225.94,-198.66 1228.95,-198.31 1231.98,-197.96"/>
<polygon fill="midnightblue" stroke="midnightblue" points="898.81,-232.3 889.26,-236.9 899.59,-239.26 898.81,-232.3"/>
</g>
<!-- Node8 -->
<g id="node8" class="node">
<title>Node8</title>
<g id="a_node8"><a xlink:href="_second_moment_averaging_8_h.html" target="_top" xlink:title=" ">
<polygon fill="white" stroke="black" points="902,-179.5 902,-198.5 1054,-198.5 1054,-179.5 902,-179.5"/>
<text text-anchor="middle" x="978" y="-186.5" font-family="Helvetica,sans-Serif" font-size="10.00">SecondMomentAveraging.H</text>
</a>
</g>
</g>
<!-- Node1&#45;&gt;Node8 -->
<g id="edge8" class="edge">
<title>Node1&#45;&gt;Node8</title>
<path fill="none" stroke="midnightblue" d="M859.67,-232.04C888.27,-221.88 928.61,-207.55 954.03,-198.52"/>
<polygon fill="midnightblue" stroke="midnightblue" points="858.34,-228.8 850.08,-235.44 860.68,-235.39 858.34,-228.8"/>
</g>
<!-- Node10 -->
<g id="node10" class="node">
<title>Node10</title>
<g id="a_node10"><a xlink:href="_a_b_l_stats_8_h.html" target="_top" xlink:title=" ">
<polygon fill="white" stroke="black" points="864.5,-67.5 864.5,-86.5 935.5,-86.5 935.5,-67.5 864.5,-67.5"/>
<text text-anchor="middle" x="900" y="-74.5" font-family="Helvetica,sans-Serif" font-size="10.00">ABLStats.H</text>
</a>
</g>
</g>
<!-- Node1&#45;&gt;Node10 -->
<g id="edge25" class="edge">
<title>Node1&#45;&gt;Node10</title>
<path fill="none" stroke="midnightblue" d="M834.09,-225.86C849.96,-190.25 884.64,-112.45 896.18,-86.57"/>
<polygon fill="midnightblue" stroke="midnightblue" points="830.85,-224.52 829.98,-235.08 837.25,-227.37 830.85,-224.52"/>
</g>
<!-- Node12 -->
<g id="node12" class="node">
<title>Node12</title>
<g id="a_node12"><a xlink:href="_third_moment_averaging_8_h.html" target="_top" xlink:title=" ">
<polygon fill="white" stroke="black" points="1072.5,-179.5 1072.5,-198.5 1213.5,-198.5 1213.5,-179.5 1072.5,-179.5"/>
<text text-anchor="middle" x="1143" y="-186.5" font-family="Helvetica,sans-Serif" font-size="10.00">ThirdMomentAveraging.H</text>
</a>
</g>
</g>
<!-- Node1&#45;&gt;Node12 -->
<g id="edge12" class="edge">
<title>Node1&#45;&gt;Node12</title>
<path fill="none" stroke="midnightblue" d="M886.3,-233.73C946.21,-223.52 1036.99,-208.06 1093.01,-198.52"/>
<polygon fill="midnightblue" stroke="midnightblue" points="885.5,-230.31 876.23,-235.44 886.68,-237.21 885.5,-230.31"/>
</g>
<!-- Node14 -->
<g id="node14" class="node">
<title>Node14</title>
<g id="a_node14"><a xlink:href="_a_b_l_8_h.html" target="_top" xlink:title=" ">
<polygon fill="white" stroke="black" points="486,-67.5 486,-86.5 532,-86.5 532,-67.5 486,-67.5"/>
<text text-anchor="middle" x="509" y="-74.5" font-family="Helvetica,sans-Serif" font-size="10.00">ABL.H</text>
</a>
</g>
</g>
<!-- Node1&#45;&gt;Node14 -->
<g id="edge15" class="edge">
<title>Node1&#45;&gt;Node14</title>
<path fill="none" stroke="midnightblue" d="M752.59,-243.22C678.42,-238.05 567.02,-217.37 511,-143 498.5,-126.41 502.94,-100.09 506.42,-86.6"/>
<polygon fill="midnightblue" stroke="midnightblue" points="752.6,-246.72 762.8,-243.85 753.04,-239.74 752.6,-246.72"/>
</g>
<!-- Node21 -->
<g id="node21" class="node">
<title>Node21</title>
<g id="a_node21"><a xlink:href="_a_b_l_wall_function_8_h.html" target="_top" xlink:title=" ">
<polygon fill="white" stroke="black" points="703.5,-179.5 703.5,-198.5 810.5,-198.5 810.5,-179.5 703.5,-179.5"/>
<text text-anchor="middle" x="757" y="-186.5" font-family="Helvetica,sans-Serif" font-size="10.00">ABLWallFunction.H</text>
</a>
</g>
</g>
<!-- Node1&#45;&gt;Node21 -->
<g id="edge26" class="edge">
<title>Node1&#45;&gt;Node21</title>
<path fill="none" stroke="midnightblue" d="M806.96,-229.1C794.54,-219.38 778.76,-207.03 768.29,-198.83"/>
<polygon fill="midnightblue" stroke="midnightblue" points="804.88,-231.92 814.91,-235.32 809.2,-226.4 804.88,-231.92"/>
</g>
<!-- Node3 -->
<g id="node3" class="node">
<title>Node3</title>
<g id="a_node3"><a xlink:href="_a_b_l_mean_boussinesq_8cpp.html" target="_top" xlink:title=" ">
<polygon fill="white" stroke="black" points="0,-6 0,-25 138,-25 138,-6 0,-6"/>
<text text-anchor="middle" x="69" y="-13" font-family="Helvetica,sans-Serif" font-size="10.00">ABLMeanBoussinesq.cpp</text>
</a>
</g>
</g>
<!-- Node2&#45;&gt;Node3 -->
<g id="edge2" class="edge">
<title>Node2&#45;&gt;Node3</title>
<path fill="none" stroke="midnightblue" d="M145.11,-62.24C125.99,-50.75 99.32,-34.72 83.16,-25.01"/>
<polygon fill="midnightblue" stroke="midnightblue" points="143.44,-65.32 153.82,-67.48 147.05,-59.32 143.44,-65.32"/>
</g>
<!-- Node4 -->
<g id="node4" class="node">
<title>Node4</title>
<g id="a_node4"><a xlink:href="_a_b_l_8cpp.html" target="_top" xlink:title=" ">
<polygon fill="white" stroke="black" points="156,-6 156,-25 212,-25 212,-6 156,-6"/>
<text text-anchor="middle" x="184" y="-13" font-family="Helvetica,sans-Serif" font-size="10.00">ABL.cpp</text>
</a>
</g>
</g>
<!-- Node2&#45;&gt;Node4 -->
<g id="edge3" class="edge">
<title>Node2&#45;&gt;Node4</title>
<path fill="none" stroke="midnightblue" d="M172.93,-57.66C175.86,-46.77 179.43,-33.49 181.71,-25.01"/>
<polygon fill="midnightblue" stroke="midnightblue" points="169.51,-56.91 170.29,-67.48 176.27,-58.73 169.51,-56.91"/>
</g>
<!-- Node5&#45;&gt;Node4 -->
<g id="edge6" class="edge">
<title>Node5&#45;&gt;Node4</title>
<path fill="none" stroke="midnightblue" d="M278.61,-63.02C255.14,-51.48 221.51,-34.94 201.3,-25.01"/>
<polygon fill="midnightblue" stroke="midnightblue" points="277.15,-66.2 287.66,-67.48 280.23,-59.92 277.15,-66.2"/>
</g>
<!-- Node6 -->
<g id="node6" class="node">
<title>Node6</title>
<g id="a_node6"><a xlink:href="_hurricane_forcing_8cpp.html" target="_top" xlink:title=" ">
<polygon fill="white" stroke="black" points="230.5,-6 230.5,-25 349.5,-25 349.5,-6 230.5,-6"/>
<text text-anchor="middle" x="290" y="-13" font-family="Helvetica,sans-Serif" font-size="10.00">HurricaneForcing.cpp</text>
</a>
</g>
</g>
<!-- Node5&#45;&gt;Node6 -->
<g id="edge5" class="edge">
<title>Node5&#45;&gt;Node6</title>
<path fill="none" stroke="midnightblue" d="M300.38,-57.66C297.63,-46.77 294.28,-33.49 292.15,-25.01"/>
<polygon fill="midnightblue" stroke="midnightblue" points="297.01,-58.63 302.85,-67.48 303.8,-56.92 297.01,-58.63"/>
</g>
<!-- Node9 -->
<g id="node9" class="node">
<title>Node9</title>
<g id="a_node9"><a xlink:href="_second_moment_averaging_8cpp.html" target="_top" xlink:title=" ">
<polygon fill="white" stroke="black" points="947.5,-123.5 947.5,-142.5 1108.5,-142.5 1108.5,-123.5 947.5,-123.5"/>
<text text-anchor="middle" x="1028" y="-130.5" font-family="Helvetica,sans-Serif" font-size="10.00">SecondMomentAveraging.cpp</text>
</a>
</g>
</g>
<!-- Node8&#45;&gt;Node9 -->
<g id="edge9" class="edge">
<title>Node8&#45;&gt;Node9</title>
<path fill="none" stroke="midnightblue" d="M993.08,-171.72C1001.89,-162.2 1012.67,-150.56 1019.9,-142.75"/>
<polygon fill="midnightblue" stroke="midnightblue" points="990.48,-169.37 986.26,-179.08 995.62,-174.12 990.48,-169.37"/>
</g>
<!-- Node8&#45;&gt;Node10 -->
<g id="edge10" class="edge">
<title>Node8&#45;&gt;Node10</title>
<path fill="none" stroke="midnightblue" d="M962.84,-171.9C955.31,-163.56 946.28,-153.04 939,-143 925.1,-123.82 911.46,-99.48 904.59,-86.71"/>
<polygon fill="midnightblue" stroke="midnightblue" points="960.41,-174.42 969.76,-179.41 965.56,-169.68 960.41,-174.42"/>
</g>
<!-- Node11 -->
<g id="node11" class="node">
<title>Node11</title>
<g id="a_node11"><a xlink:href="_a_b_l_stats_8cpp.html" target="_top" xlink:title=" ">
<polygon fill="white" stroke="black" points="972,-6 972,-25 1052,-25 1052,-6 972,-6"/>
<text text-anchor="middle" x="1012" y="-13" font-family="Helvetica,sans-Serif" font-size="10.00">ABLStats.cpp</text>
</a>
</g>
</g>
<!-- Node10&#45;&gt;Node11 -->
<g id="edge11" class="edge">
<title>Node10&#45;&gt;Node11</title>
<path fill="none" stroke="midnightblue" d="M925.01,-62.71C946.7,-51.19 977.45,-34.86 995.98,-25.01"/>
<polygon fill="midnightblue" stroke="midnightblue" points="923.24,-59.69 916.05,-67.48 926.52,-65.87 923.24,-59.69"/>
</g>
<!-- Node12&#45;&gt;Node10 -->
<g id="edge14" class="edge">
<title>Node12&#45;&gt;Node10</title>
<path fill="none" stroke="midnightblue" d="M1140.7,-169.3C1137.89,-154.55 1131.66,-134.59 1118,-123 1090.89,-100 990.13,-86.81 935.6,-81.22"/>
<polygon fill="midnightblue" stroke="midnightblue" points="1137.27,-170 1142.26,-179.34 1144.19,-168.92 1137.27,-170"/>
</g>
<!-- Node13 -->
<g id="node13" class="node">
<title>Node13</title>
<g id="a_node13"><a xlink:href="_third_moment_averaging_8cpp.html" target="_top" xlink:title=" ">
<polygon fill="white" stroke="black" points="1165.5,-123.5 1165.5,-142.5 1316.5,-142.5 1316.5,-123.5 1165.5,-123.5"/>
<text text-anchor="middle" x="1241" y="-130.5" font-family="Helvetica,sans-Serif" font-size="10.00">ThirdMomentAveraging.cpp</text>
</a>
</g>
</g>
<!-- Node12&#45;&gt;Node13 -->
<g id="edge13" class="edge">
<title>Node12&#45;&gt;Node13</title>
<path fill="none" stroke="midnightblue" d="M1167.59,-174.45C1185.68,-164.48 1209.73,-151.23 1225.29,-142.65"/>
<polygon fill="midnightblue" stroke="midnightblue" points="1165.81,-171.43 1158.75,-179.32 1169.19,-177.56 1165.81,-171.43"/>
</g>
<!-- Node14&#45;&gt;Node3 -->
<g id="edge17" class="edge">
<title>Node14&#45;&gt;Node3</title>
<path fill="none" stroke="midnightblue" d="M475.34,-72.5C411.26,-65.68 267.39,-49.66 147,-31 135.7,-29.25 123.53,-27.11 112.24,-25.02"/>
<polygon fill="midnightblue" stroke="midnightblue" points="475.33,-76.02 485.64,-73.59 476.06,-69.06 475.33,-76.02"/>
</g>
<!-- Node14&#45;&gt;Node4 -->
<g id="edge23" class="edge">
<title>Node14&#45;&gt;Node4</title>
<path fill="none" stroke="midnightblue" d="M475.82,-73.19C421.72,-68.09 311.45,-55.47 221,-31 215.27,-29.45 209.22,-27.31 203.7,-25.14"/>
<polygon fill="midnightblue" stroke="midnightblue" points="475.59,-76.69 485.87,-74.11 476.23,-69.71 475.59,-76.69"/>
</g>
<!-- Node14&#45;&gt;Node6 -->
<g id="edge18" class="edge">
<title>Node14&#45;&gt;Node6</title>
<path fill="none" stroke="midnightblue" d="M476.29,-67.11C434.5,-55.76 362.67,-36.24 321.48,-25.05"/>
<polygon fill="midnightblue" stroke="midnightblue" points="475.41,-70.5 485.98,-69.74 477.24,-63.75 475.41,-70.5"/>
</g>
<!-- Node15 -->
<g id="node15" class="node">
<title>Node15</title>
<g id="a_node15"><a xlink:href="_a_b_l_forcing_8cpp.html" target="_top" xlink:title=" ">
<polygon fill="white" stroke="black" points="367.5,-6 367.5,-25 458.5,-25 458.5,-6 367.5,-6"/>
<text text-anchor="middle" x="413" y="-13" font-family="Helvetica,sans-Serif" font-size="10.00">ABLForcing.cpp</text>
</a>
</g>
</g>
<!-- Node14&#45;&gt;Node15 -->
<g id="edge16" class="edge">
<title>Node14&#45;&gt;Node15</title>
<path fill="none" stroke="midnightblue" d="M486.55,-62.09C468.03,-50.6 442.33,-34.68 426.73,-25.01"/>
<polygon fill="midnightblue" stroke="midnightblue" points="484.9,-65.18 495.25,-67.48 488.59,-59.23 484.9,-65.18"/>
</g>
<!-- Node16 -->
<g id="node16" class="node">
<title>Node16</title>
<g id="a_node16"><a xlink:href="helics_8cpp.html" target="_top" xlink:title=" ">
<polygon fill="white" stroke="black" points="476.5,-6 476.5,-25 541.5,-25 541.5,-6 476.5,-6"/>
<text text-anchor="middle" x="509" y="-13" font-family="Helvetica,sans-Serif" font-size="10.00">helics.cpp</text>
</a>
</g>
</g>
<!-- Node14&#45;&gt;Node16 -->
<g id="edge19" class="edge">
<title>Node14&#45;&gt;Node16</title>
<path fill="none" stroke="midnightblue" d="M509,-57.32C509,-46.5 509,-33.4 509,-25.01"/>
<polygon fill="midnightblue" stroke="midnightblue" points="505.5,-57.48 509,-67.48 512.5,-57.48 505.5,-57.48"/>
</g>
<!-- Node17 -->
<g id="node17" class="node">
<title>Node17</title>
<g id="a_node17"><a xlink:href="incflo_8cpp.html" target="_top" xlink:title=" ">
<polygon fill="white" stroke="black" points="559.5,-6 559.5,-25 622.5,-25 622.5,-6 559.5,-6"/>
<text text-anchor="middle" x="591" y="-13" font-family="Helvetica,sans-Serif" font-size="10.00">incflo.cpp</text>
</a>
</g>
</g>
<!-- Node14&#45;&gt;Node17 -->
<g id="edge20" class="edge">
<title>Node14&#45;&gt;Node17</title>
<path fill="none" stroke="midnightblue" d="M529.27,-61.29C545,-49.88 566.25,-34.46 579.27,-25.01"/>
<polygon fill="midnightblue" stroke="midnightblue" points="526.79,-58.77 520.75,-67.48 530.9,-64.43 526.79,-58.77"/>
</g>
<!-- Node18 -->
<g id="node18" class="node">
<title>Node18</title>
<g id="a_node18"><a xlink:href="incflo__apply__nodal__projection_8cpp.html" target="_top" xlink:title=" ">
<polygon fill="white" stroke="black" points="640.5,-0.5 640.5,-30.5 747.5,-30.5 747.5,-0.5 640.5,-0.5"/>
<text text-anchor="start" x="648.5" y="-18.5" font-family="Helvetica,sans-Serif" font-size="10.00">incflo_apply_nodal</text>
<text text-anchor="middle" x="694" y="-7.5" font-family="Helvetica,sans-Serif" font-size="10.00">_projection.cpp</text>
</a>
</g>
</g>
<!-- Node14&#45;&gt;Node18 -->
<g id="edge21" class="edge">
<title>Node14&#45;&gt;Node18</title>
<path fill="none" stroke="midnightblue" d="M541.67,-65.49C571.83,-55.79 616.83,-41.32 650.11,-30.61"/>
<polygon fill="midnightblue" stroke="midnightblue" points="540.5,-62.19 532.06,-68.58 542.65,-68.85 540.5,-62.19"/>
</g>
<!-- Node19 -->
<g id="node19" class="node">
<title>Node19</title>
<g id="a_node19"><a xlink:href="init_8cpp.html" target="_top" xlink:title=" ">
<polygon fill="white" stroke="black" points="765.5,-6 765.5,-25 818.5,-25 818.5,-6 765.5,-6"/>
<text text-anchor="middle" x="792" y="-13" font-family="Helvetica,sans-Serif" font-size="10.00">init.cpp</text>
</a>
</g>
</g>
<!-- Node14&#45;&gt;Node19 -->
<g id="edge22" class="edge">
<title>Node14&#45;&gt;Node19</title>
<path fill="none" stroke="midnightblue" d="M542.45,-72.23C590.58,-66.29 681.87,-53.1 757,-31 762.43,-29.4 768.16,-27.24 773.37,-25.08"/>
<polygon fill="midnightblue" stroke="midnightblue" points="541.8,-68.78 532.29,-73.46 542.64,-75.73 541.8,-68.78"/>
</g>
<!-- Node20 -->
<g id="node20" class="node">
<title>Node20</title>
<g id="a_node20"><a xlink:href="_a_b_l_wall_function_8cpp.html" target="_top" xlink:title=" ">
<polygon fill="white" stroke="black" points="836.5,-6 836.5,-25 953.5,-25 953.5,-6 836.5,-6"/>
<text text-anchor="middle" x="895" y="-13" font-family="Helvetica,sans-Serif" font-size="10.00">ABLWallFunction.cpp</text>
</a>
</g>
</g>
<!-- Node14&#45;&gt;Node20 -->
<g id="edge24" class="edge">
<title>Node14&#45;&gt;Node20</title>
<path fill="none" stroke="midnightblue" d="M542.39,-72.1C600.6,-65.13 724.33,-49.5 828,-31 837.72,-29.26 848.19,-27.13 857.88,-25.04"/>
<polygon fill="midnightblue" stroke="midnightblue" points="541.82,-68.65 532.31,-73.3 542.65,-75.6 541.82,-68.65"/>
</g>
<!-- Node21&#45;&gt;Node10 -->
<g id="edge29" class="edge">
<title>Node21&#45;&gt;Node10</title>
<path fill="none" stroke="midnightblue" d="M777.64,-173.4C789.79,-164.71 805.39,-153.39 819,-143 844.8,-123.31 874.36,-99.17 889.64,-86.58"/>
<polygon fill="midnightblue" stroke="midnightblue" points="775.6,-170.56 769.48,-179.21 779.66,-176.26 775.6,-170.56"/>
</g>
<!-- Node21&#45;&gt;Node14 -->
<g id="edge28" class="edge">
<title>Node21&#45;&gt;Node14</title>
<path fill="none" stroke="midnightblue" d="M693.32,-182.85C634.17,-176.79 551.75,-164.7 528,-143 511.85,-128.25 509.14,-100.62 508.86,-86.61"/>
<polygon fill="midnightblue" stroke="midnightblue" points="693.04,-186.34 703.33,-183.84 693.73,-179.37 693.04,-186.34"/>
</g>
<!-- Node21&#45;&gt;Node20 -->
<g id="edge33" class="edge">
<title>Node21&#45;&gt;Node20</title>
<path fill="none" stroke="midnightblue" d="M770.52,-171.2C799.45,-135.24 866.52,-51.9 888.14,-25.02"/>
<polygon fill="midnightblue" stroke="midnightblue" points="767.58,-169.27 764.03,-179.26 773.03,-173.66 767.58,-169.27"/>
</g>
<!-- Node22 -->
<g id="node22" class="node">
<title>Node22</title>
<g id="a_node22"><a xlink:href="_boussinesq_bubble_8cpp.html" target="_top" xlink:title=" ">
<polygon fill="white" stroke="black" points="537,-123.5 537,-142.5 663,-142.5 663,-123.5 537,-123.5"/>
<text text-anchor="middle" x="600" y="-130.5" font-family="Helvetica,sans-Serif" font-size="10.00">BoussinesqBubble.cpp</text>
</a>
</g>
</g>
<!-- Node21&#45;&gt;Node22 -->
<g id="edge27" class="edge">
<title>Node21&#45;&gt;Node22</title>
<path fill="none" stroke="midnightblue" d="M722.61,-176.17C693.05,-166 651.13,-151.59 624.76,-142.52"/>
<polygon fill="midnightblue" stroke="midnightblue" points="721.53,-179.5 732.12,-179.44 723.8,-172.88 721.53,-179.5"/>
</g>
<!-- Node23 -->
<g id="node23" class="node">
<title>Node23</title>
<g id="a_node23"><a xlink:href="_a_b_l_stats_base_8_h.html" target="_top" xlink:title=" ">
<polygon fill="white" stroke="black" points="681.5,-123.5 681.5,-142.5 776.5,-142.5 776.5,-123.5 681.5,-123.5"/>
<text text-anchor="middle" x="729" y="-130.5" font-family="Helvetica,sans-Serif" font-size="10.00">ABLStatsBase.H</text>
</a>
</g>
</g>
<!-- Node21&#45;&gt;Node23 -->
<g id="edge30" class="edge">
<title>Node21&#45;&gt;Node23</title>
<path fill="none" stroke="midnightblue" d="M747.66,-169.98C742.91,-160.82 737.34,-150.09 733.54,-142.75"/>
<polygon fill="midnightblue" stroke="midnightblue" points="744.67,-171.82 752.38,-179.08 750.88,-168.59 744.67,-171.82"/>
</g>
<!-- Node23&#45;&gt;Node10 -->
<g id="edge32" class="edge">
<title>Node23&#45;&gt;Node10</title>
<path fill="none" stroke="midnightblue" d="M766.04,-120.3C798.26,-110.13 844.19,-95.62 873.03,-86.52"/>
<polygon fill="midnightblue" stroke="midnightblue" points="764.58,-117.09 756.1,-123.44 766.69,-123.77 764.58,-117.09"/>
</g>
<!-- Node23&#45;&gt;Node14 -->
<g id="edge31" class="edge">
<title>Node23&#45;&gt;Node14</title>
<path fill="none" stroke="midnightblue" d="M684.41,-121.06C638.36,-109.75 568.28,-92.55 532.22,-83.7"/>
<polygon fill="midnightblue" stroke="midnightblue" points="683.59,-124.46 694.14,-123.44 685.26,-117.66 683.59,-124.46"/>
</g>
</g>
</svg>
        <g id="navigator" transform="translate(0 0)" fill="#404254">
                <rect fill="#f2f5e9" fill-opacity="0.5" stroke="#606060" stroke-width=".5" x="0" y="0" width="60" height="60"/>
                <use id="zoomplus" xlink:href="#zoomPlus" x="17" y="9" onmousedown="handleZoom(evt,'in')"/>
                <use id="zoomminus" xlink:href="#zoomMin" x="42" y="9" onmousedown="handleZoom(evt,'out')"/>
                <use id="reset" xlink:href="#resetDef" x="30" y="36" onmousedown="handleReset()"/>
                <g id="arrowUp" xlink:href="#dirArrow" transform="translate(30 24)" onmousedown="handlePan(0,-1)">
                  <use xlink:href="#rim" fill="#404040">
                        <set attributeName="fill" to="#808080" begin="arrowUp.mouseover" end="arrowUp.mouseout"/>
                  </use>
                  <path fill="none" stroke="white" stroke-width="1.5" d="M0,-3.0v7 M-2.5,-0.5L0,-3.0L2.5,-0.5"/>
                </g>
                <g id="arrowRight" xlink:href="#dirArrow" transform="rotate(90) translate(36 -43)" onmousedown="handlePan(1,0)">
                  <use xlink:href="#rim" fill="#404040">
                        <set attributeName="fill" to="#808080" begin="arrowRight.mouseover" end="arrowRight.mouseout"/>
                  </use>
                  <path fill="none" stroke="white" stroke-width="1.5" d="M0,-3.0v7 M-2.5,-0.5L0,-3.0L2.5,-0.5"/>
                </g>
                <g id="arrowDown" xlink:href="#dirArrow" transform="rotate(180) translate(-30 -48)" onmousedown="handlePan(0,1)">
                  <use xlink:href="#rim" fill="#404040">
                        <set attributeName="fill" to="#808080" begin="arrowDown.mouseover" end="arrowDown.mouseout"/>
                  </use>
                  <path fill="none" stroke="white" stroke-width="1.5" d="M0,-3.0v7 M-2.5,-0.5L0,-3.0L2.5,-0.5"/>
                </g>
                <g id="arrowLeft" xlink:href="#dirArrow" transform="rotate(270) translate(-36 17)" onmousedown="handlePan(-1,0)">
                  <use xlink:href="#rim" fill="#404040">
                        <set attributeName="fill" to="#808080" begin="arrowLeft.mouseover" end="arrowLeft.mouseout"/>
                  </use>
                  <path fill="none" stroke="white" stroke-width="1.5" d="M0,-3.0v7 M-2.5,-0.5L0,-3.0L2.5,-0.5"/>
                </g>
        </g>
        <svg viewBox="0 0 15 15" width="100%" height="30px" preserveAspectRatio="xMaxYMin meet">
         <g id="arrow_out" transform="scale(0.3 0.3)">
          <a xlink:href="_field_plane_averaging_8_h__dep__incl_org.svg" target="_base">
           <rect id="button" ry="5" rx="5" y="6" x="6" height="38" width="38"
                fill="#f2f5e9" fill-opacity="0.5" stroke="#606060" stroke-width="1.0"/>
           <path id="arrow"
             d="M 11.500037,31.436501 C 11.940474,20.09759 22.043105,11.32322 32.158766,21.979434 L 37.068811,17.246167 C 37.068811,17.246167 37.088388,32 37.088388,32 L 22.160133,31.978069 C 22.160133,31.978069 26.997745,27.140456 26.997745,27.140456 C 18.528582,18.264221 13.291696,25.230495 11.500037,31.436501 z"
             style="fill:#404040;"/>
          </a>
         </g>
        </svg>
</svg>
