<?xml version="1.0" encoding="UTF-8" standalone="no"?>
<!DOCTYPE svg PUBLIC "-//W3C//DTD SVG 1.1//EN"
 "http://www.w3.org/Graphics/SVG/1.1/DTD/svg11.dtd">
<!-- Generated by graphviz version 2.43.0 (0)
 -->
<!-- Title: Field.cpp Pages: 1 -->
<svg width="2337pt" height="341pt"
 viewBox="0.00 0.00 2337.00 341.00" xmlns="http://www.w3.org/2000/svg" xmlns:xlink="http://www.w3.org/1999/xlink">
<g id="graph0" class="graph" transform="scale(1 1) rotate(0) translate(4 337)">
<title>Field.cpp</title>
<polygon fill="white" stroke="transparent" points="-4,4 -4,-337 2333,-337 2333,4 -4,4"/>
<!-- Node1 -->
<g id="node1" class="node">
<title>Node1</title>
<g id="a_node1"><a xlink:title=" ">
<polygon fill="#bfbfbf" stroke="black" points="1335.5,-313.5 1335.5,-332.5 1395.5,-332.5 1395.5,-313.5 1335.5,-313.5"/>
<text text-anchor="middle" x="1365.5" y="-320.5" font-family="Helvetica,sans-Serif" font-size="10.00">Field.cpp</text>
</a>
</g>
</g>
<!-- Node2 -->
<g id="node2" class="node">
<title>Node2</title>
<g id="a_node2"><a xlink:title=" ">
<polygon fill="white" stroke="#bfbfbf" points="370,-56.5 370,-75.5 415,-75.5 415,-56.5 370,-56.5"/>
<text text-anchor="middle" x="392.5" y="-63.5" font-family="Helvetica,sans-Serif" font-size="10.00">utility</text>
</a>
</g>
</g>
<!-- Node1&#45;&gt;Node2 -->
<g id="edge1" class="edge">
<title>Node1&#45;&gt;Node2</title>
<path fill="none" stroke="midnightblue" d="M1335.2,-321.04C1233.83,-317.07 898.35,-297.68 638.5,-210 573.14,-187.94 557.87,-178.12 498.5,-143 466.44,-124.03 431.81,-98.06 411.16,-81.92"/>
<polygon fill="midnightblue" stroke="midnightblue" points="413.23,-79.09 403.21,-75.65 408.89,-84.59 413.23,-79.09"/>
</g>
<!-- Node3 -->
<g id="node3" class="node">
<title>Node3</title>
<g id="a_node3"><a xlink:href="_field_8_h.html" target="_top" xlink:title=" ">
<polygon fill="white" stroke="black" points="1992.5,-118 1992.5,-137 2116.5,-137 2116.5,-118 1992.5,-118"/>
<text text-anchor="middle" x="2054.5" y="-125" font-family="Helvetica,sans-Serif" font-size="10.00">amr&#45;wind/core/Field.H</text>
</a>
</g>
</g>
<!-- Node1&#45;&gt;Node3 -->
<g id="edge2" class="edge">
<title>Node1&#45;&gt;Node3</title>
<path fill="none" stroke="midnightblue" d="M1395.73,-315.95C1470.3,-300.77 1668.7,-258.75 1830.5,-210 1900.75,-188.83 1981.13,-157.9 2023.92,-140.87"/>
<polygon fill="midnightblue" stroke="midnightblue" points="2025.47,-144.02 2033.46,-137.06 2022.87,-137.52 2025.47,-144.02"/>
</g>
<!-- Node15 -->
<g id="node15" class="node">
<title>Node15</title>
<g id="a_node15"><a xlink:href="_field_repo_8_h.html" target="_top" xlink:title=" ">
<polygon fill="white" stroke="black" points="648,-185 648,-204 797,-204 797,-185 648,-185"/>
<text text-anchor="middle" x="722.5" y="-192" font-family="Helvetica,sans-Serif" font-size="10.00">amr&#45;wind/core/FieldRepo.H</text>
</a>
</g>
</g>
<!-- Node1&#45;&gt;Node15 -->
<g id="edge17" class="edge">
<title>Node1&#45;&gt;Node15</title>
<path fill="none" stroke="midnightblue" d="M1335.3,-316.76C1288.56,-308.6 1195.9,-292.2 1117.5,-277 993.09,-252.88 847.16,-222.13 772.32,-206.18"/>
<polygon fill="midnightblue" stroke="midnightblue" points="772.75,-202.69 762.24,-204.03 771.29,-209.54 772.75,-202.69"/>
</g>
<!-- Node24 -->
<g id="node24" class="node">
<title>Node24</title>
<g id="a_node24"><a xlink:href="_field_fill_patch_ops_8_h.html" target="_top" xlink:title=" ">
<polygon fill="white" stroke="black" points="1126.5,-246.5 1126.5,-276.5 1280.5,-276.5 1280.5,-246.5 1126.5,-246.5"/>
<text text-anchor="start" x="1134.5" y="-264.5" font-family="Helvetica,sans-Serif" font-size="10.00">amr&#45;wind/core/FieldFillPatch</text>
<text text-anchor="middle" x="1203.5" y="-253.5" font-family="Helvetica,sans-Serif" font-size="10.00">Ops.H</text>
</a>
</g>
</g>
<!-- Node1&#45;&gt;Node24 -->
<g id="edge49" class="edge">
<title>Node1&#45;&gt;Node24</title>
<path fill="none" stroke="midnightblue" d="M1342.29,-313.48C1318.61,-304.78 1281.17,-291.03 1251.14,-280"/>
<polygon fill="midnightblue" stroke="midnightblue" points="1252.27,-276.69 1241.68,-276.52 1249.86,-283.26 1252.27,-276.69"/>
</g>
<!-- Node25 -->
<g id="node25" class="node">
<title>Node25</title>
<g id="a_node25"><a xlink:href="_sim_time_8_h.html" target="_top" xlink:title=" ">
<polygon fill="white" stroke="black" points="1293.5,-185 1293.5,-204 1437.5,-204 1437.5,-185 1293.5,-185"/>
<text text-anchor="middle" x="1365.5" y="-192" font-family="Helvetica,sans-Serif" font-size="10.00">amr&#45;wind/core/SimTime.H</text>
</a>
</g>
</g>
<!-- Node1&#45;&gt;Node25 -->
<g id="edge70" class="edge">
<title>Node1&#45;&gt;Node25</title>
<path fill="none" stroke="midnightblue" d="M1365.5,-313.31C1365.5,-292.99 1365.5,-242.05 1365.5,-214.28"/>
<polygon fill="midnightblue" stroke="midnightblue" points="1369,-214.26 1365.5,-204.26 1362,-214.26 1369,-214.26"/>
</g>
<!-- Node29 -->
<g id="node29" class="node">
<title>Node29</title>
<g id="a_node29"><a xlink:href="_field_b_c_ops_8_h.html" target="_top" xlink:title=" ">
<polygon fill="white" stroke="black" points="1592.5,-185 1592.5,-204 1748.5,-204 1748.5,-185 1592.5,-185"/>
<text text-anchor="middle" x="1670.5" y="-192" font-family="Helvetica,sans-Serif" font-size="10.00">amr&#45;wind/core/FieldBCOps.H</text>
</a>
</g>
</g>
<!-- Node1&#45;&gt;Node29 -->
<g id="edge69" class="edge">
<title>Node1&#45;&gt;Node29</title>
<path fill="none" stroke="midnightblue" d="M1386.46,-313.31C1439.37,-291.36 1578.48,-233.67 1640.23,-208.06"/>
<polygon fill="midnightblue" stroke="midnightblue" points="1641.9,-211.15 1649.79,-204.09 1639.21,-204.69 1641.9,-211.15"/>
</g>
<!-- Node33 -->
<g id="node33" class="node">
<title>Node33</title>
<g id="a_node33"><a xlink:href="_b_c_interface_8_h.html" target="_top" xlink:title=" ">
<polygon fill="white" stroke="black" points="1971,-179.5 1971,-209.5 2138,-209.5 2138,-179.5 1971,-179.5"/>
<text text-anchor="start" x="1979" y="-197.5" font-family="Helvetica,sans-Serif" font-size="10.00">amr&#45;wind/boundary_conditions</text>
<text text-anchor="middle" x="2054.5" y="-186.5" font-family="Helvetica,sans-Serif" font-size="10.00">/BCInterface.H</text>
</a>
</g>
</g>
<!-- Node1&#45;&gt;Node33 -->
<g id="edge71" class="edge">
<title>Node1&#45;&gt;Node33</title>
<path fill="none" stroke="midnightblue" d="M1395.74,-321.19C1495.33,-318.27 1812.21,-306.81 1909.5,-277 1953.6,-263.49 1999.11,-235.11 2027.11,-215.68"/>
<polygon fill="midnightblue" stroke="midnightblue" points="2029.41,-218.34 2035.56,-209.72 2025.37,-212.62 2029.41,-218.34"/>
</g>
<!-- Node4 -->
<g id="node4" class="node">
<title>Node4</title>
<g id="a_node4"><a xlink:title=" ">
<polygon fill="white" stroke="#bfbfbf" points="307.5,-0.5 307.5,-19.5 351.5,-19.5 351.5,-0.5 307.5,-0.5"/>
<text text-anchor="middle" x="329.5" y="-7.5" font-family="Helvetica,sans-Serif" font-size="10.00">string</text>
</a>
</g>
</g>
<!-- Node3&#45;&gt;Node4 -->
<g id="edge3" class="edge">
<title>Node3&#45;&gt;Node4</title>
<path fill="none" stroke="midnightblue" d="M2013.2,-117.92C2001.97,-115.78 1989.8,-113.64 1978.5,-112 1818.49,-88.83 1777.22,-93.61 1616.5,-76 1542.19,-67.86 1524.03,-61.76 1449.5,-56 994.58,-20.84 878.81,-49.76 423.5,-20 402.85,-18.65 379.71,-16.44 361.56,-14.55"/>
<polygon fill="midnightblue" stroke="midnightblue" points="361.82,-11.06 351.5,-13.49 361.08,-18.02 361.82,-11.06"/>
</g>
<!-- Node5 -->
<g id="node5" class="node">
<title>Node5</title>
<g id="a_node5"><a xlink:title=" ">
<polygon fill="white" stroke="#bfbfbf" points="1768.5,-56.5 1768.5,-75.5 1826.5,-75.5 1826.5,-56.5 1768.5,-56.5"/>
<text text-anchor="middle" x="1797.5" y="-63.5" font-family="Helvetica,sans-Serif" font-size="10.00">memory</text>
</a>
</g>
</g>
<!-- Node3&#45;&gt;Node5 -->
<g id="edge4" class="edge">
<title>Node3&#45;&gt;Node5</title>
<path fill="none" stroke="midnightblue" d="M2017.28,-117.99C1975.66,-108.45 1905.95,-92.44 1836.36,-76.19"/>
<polygon fill="midnightblue" stroke="midnightblue" points="1837.08,-72.76 1826.54,-73.9 1835.48,-79.58 1837.08,-72.76"/>
</g>
<!-- Node6 -->
<g id="node6" class="node">
<title>Node6</title>
<g id="a_node6"><a xlink:title=" ">
<polygon fill="white" stroke="#bfbfbf" points="1348,-56.5 1348,-75.5 1441,-75.5 1441,-56.5 1348,-56.5"/>
<text text-anchor="middle" x="1394.5" y="-63.5" font-family="Helvetica,sans-Serif" font-size="10.00">unordered_map</text>
</a>
</g>
</g>
<!-- Node3&#45;&gt;Node6 -->
<g id="edge5" class="edge">
<title>Node3&#45;&gt;Node6</title>
<path fill="none" stroke="midnightblue" d="M2014.41,-117.98C2002.86,-115.77 1990.22,-113.56 1978.5,-112 1786.09,-86.31 1555.91,-73.91 1451.27,-69.27"/>
<polygon fill="midnightblue" stroke="midnightblue" points="1451.38,-65.77 1441.24,-68.83 1451.08,-72.76 1451.38,-65.77"/>
</g>
<!-- Node7 -->
<g id="node7" class="node">
<title>Node7</title>
<g id="a_node7"><a xlink:title=" ">
<polygon fill="white" stroke="#bfbfbf" points="1844.5,-56.5 1844.5,-75.5 1908.5,-75.5 1908.5,-56.5 1844.5,-56.5"/>
<text text-anchor="middle" x="1876.5" y="-63.5" font-family="Helvetica,sans-Serif" font-size="10.00">algorithm</text>
</a>
</g>
</g>
<!-- Node3&#45;&gt;Node7 -->
<g id="edge6" class="edge">
<title>Node3&#45;&gt;Node7</title>
<path fill="none" stroke="midnightblue" d="M2029,-117.98C1998.2,-107.68 1946.23,-90.31 1911.65,-78.75"/>
<polygon fill="midnightblue" stroke="midnightblue" points="1912.55,-75.36 1901.96,-75.51 1910.33,-82 1912.55,-75.36"/>
</g>
<!-- Node8 -->
<g id="node8" class="node">
<title>Node8</title>
<g id="a_node8"><a xlink:title=" ">
<polygon fill="white" stroke="#bfbfbf" points="1103,-0.5 1103,-19.5 1212,-19.5 1212,-0.5 1103,-0.5"/>
<text text-anchor="middle" x="1157.5" y="-7.5" font-family="Helvetica,sans-Serif" font-size="10.00">AMReX_MultiFab.H</text>
</a>
</g>
</g>
<!-- Node3&#45;&gt;Node8 -->
<g id="edge7" class="edge">
<title>Node3&#45;&gt;Node8</title>
<path fill="none" stroke="midnightblue" d="M2054.97,-117.86C2055.26,-102.6 2053.4,-71.06 2034.5,-56 2002.84,-30.77 1419.74,-16.42 1222.26,-12.27"/>
<polygon fill="midnightblue" stroke="midnightblue" points="1222.11,-8.77 1212.04,-12.06 1221.96,-15.77 1222.11,-8.77"/>
</g>
<!-- Node9 -->
<g id="node9" class="node">
<title>Node9</title>
<g id="a_node9"><a xlink:title=" ">
<polygon fill="white" stroke="#bfbfbf" points="1927,-56.5 1927,-75.5 2026,-75.5 2026,-56.5 1927,-56.5"/>
<text text-anchor="middle" x="1976.5" y="-63.5" font-family="Helvetica,sans-Serif" font-size="10.00">AMReX_BCRec.H</text>
</a>
</g>
</g>
<!-- Node3&#45;&gt;Node9 -->
<g id="edge8" class="edge">
<title>Node3&#45;&gt;Node9</title>
<path fill="none" stroke="midnightblue" d="M2043.32,-117.98C2030.93,-108.52 2010.71,-93.1 1995.75,-81.69"/>
<polygon fill="midnightblue" stroke="midnightblue" points="1997.73,-78.79 1987.65,-75.51 1993.48,-84.36 1997.73,-78.79"/>
</g>
<!-- Node10 -->
<g id="node10" class="node">
<title>Node10</title>
<g id="a_node10"><a xlink:title=" ">
<polygon fill="white" stroke="#bfbfbf" points="2083,-56.5 2083,-75.5 2170,-75.5 2170,-56.5 2083,-56.5"/>
<text text-anchor="middle" x="2126.5" y="-63.5" font-family="Helvetica,sans-Serif" font-size="10.00">AMReX_Gpu.H</text>
</a>
</g>
</g>
<!-- Node3&#45;&gt;Node10 -->
<g id="edge9" class="edge">
<title>Node3&#45;&gt;Node10</title>
<path fill="none" stroke="midnightblue" d="M2064.82,-117.98C2076.15,-108.61 2094.57,-93.38 2108.34,-82.01"/>
<polygon fill="midnightblue" stroke="midnightblue" points="2110.72,-84.58 2116.2,-75.51 2106.27,-79.18 2110.72,-84.58"/>
</g>
<!-- Node11 -->
<g id="node11" class="node">
<title>Node11</title>
<g id="a_node11"><a xlink:href="incflo__enums_8_h.html" target="_top" xlink:title=" ">
<polygon fill="white" stroke="black" points="2188,-56.5 2188,-75.5 2329,-75.5 2329,-56.5 2188,-56.5"/>
<text text-anchor="middle" x="2258.5" y="-63.5" font-family="Helvetica,sans-Serif" font-size="10.00">amr&#45;wind/incflo_enums.H</text>
</a>
</g>
</g>
<!-- Node3&#45;&gt;Node11 -->
<g id="edge10" class="edge">
<title>Node3&#45;&gt;Node11</title>
<path fill="none" stroke="midnightblue" d="M2083.73,-117.98C2119.4,-107.57 2179.86,-89.94 2219.48,-78.38"/>
<polygon fill="midnightblue" stroke="midnightblue" points="2220.71,-81.67 2229.33,-75.51 2218.75,-74.95 2220.71,-81.67"/>
</g>
<!-- Node12 -->
<g id="node12" class="node">
<title>Node12</title>
<g id="a_node12"><a xlink:href="_field_desc_types_8_h.html" target="_top" xlink:title=" ">
<polygon fill="white" stroke="black" points="823.5,-0.5 823.5,-19.5 999.5,-19.5 999.5,-0.5 823.5,-0.5"/>
<text text-anchor="middle" x="911.5" y="-7.5" font-family="Helvetica,sans-Serif" font-size="10.00">amr&#45;wind/core/FieldDescTypes.H</text>
</a>
</g>
</g>
<!-- Node3&#45;&gt;Node12 -->
<g id="edge11" class="edge">
<title>Node3&#45;&gt;Node12</title>
<path fill="none" stroke="midnightblue" d="M2011.14,-117.96C2000.48,-115.93 1989.09,-113.83 1978.5,-112 1898.29,-98.15 1697.42,-64.82 1616.5,-56 1501.85,-43.5 1175.19,-25.08 1009.88,-16.18"/>
<polygon fill="midnightblue" stroke="midnightblue" points="1009.88,-12.68 999.71,-15.64 1009.51,-19.67 1009.88,-12.68"/>
</g>
<!-- Node13 -->
<g id="node13" class="node">
<title>Node13</title>
<g id="a_node13"><a xlink:href="_view_field_8_h.html" target="_top" xlink:title=" ">
<polygon fill="white" stroke="black" points="509.5,-56.5 509.5,-75.5 657.5,-75.5 657.5,-56.5 509.5,-56.5"/>
<text text-anchor="middle" x="583.5" y="-63.5" font-family="Helvetica,sans-Serif" font-size="10.00">amr&#45;wind/core/ViewField.H</text>
</a>
</g>
</g>
<!-- Node3&#45;&gt;Node13 -->
<g id="edge12" class="edge">
<title>Node3&#45;&gt;Node13</title>
<path fill="none" stroke="midnightblue" d="M2016.02,-117.92C2004.06,-115.59 1990.78,-113.34 1978.5,-112 1432.18,-52.31 1291.56,-99.53 742.5,-76 718.33,-74.96 692.11,-73.58 668.06,-72.22"/>
<polygon fill="midnightblue" stroke="midnightblue" points="668.08,-68.71 657.9,-71.63 667.68,-75.7 668.08,-68.71"/>
</g>
<!-- Node13&#45;&gt;Node4 -->
<g id="edge13" class="edge">
<title>Node13&#45;&gt;Node4</title>
<path fill="none" stroke="midnightblue" d="M543.25,-56.44C493.03,-45.77 408.13,-27.72 361.89,-17.89"/>
<polygon fill="midnightblue" stroke="midnightblue" points="362.33,-14.4 351.82,-15.75 360.87,-21.25 362.33,-14.4"/>
</g>
<!-- Node13&#45;&gt;Node8 -->
<g id="edge15" class="edge">
<title>Node13&#45;&gt;Node8</title>
<path fill="none" stroke="midnightblue" d="M657.66,-58.02C770.99,-47.36 985.4,-27.19 1092.79,-17.09"/>
<polygon fill="midnightblue" stroke="midnightblue" points="1093.21,-20.56 1102.84,-16.14 1092.56,-13.59 1093.21,-20.56"/>
</g>
<!-- Node13&#45;&gt;Node12 -->
<g id="edge14" class="edge">
<title>Node13&#45;&gt;Node12</title>
<path fill="none" stroke="midnightblue" d="M635.47,-56.44C693.65,-46.87 787.86,-31.36 849.75,-21.17"/>
<polygon fill="midnightblue" stroke="midnightblue" points="850.47,-24.59 859.77,-19.52 849.33,-17.69 850.47,-24.59"/>
</g>
<!-- Node14 -->
<g id="node14" class="node">
<title>Node14</title>
<g id="a_node14"><a xlink:title=" ">
<polygon fill="white" stroke="#bfbfbf" points="432.5,-0.5 432.5,-19.5 530.5,-19.5 530.5,-0.5 432.5,-0.5"/>
<text text-anchor="middle" x="481.5" y="-7.5" font-family="Helvetica,sans-Serif" font-size="10.00">AMReX_Vector.H</text>
</a>
</g>
</g>
<!-- Node13&#45;&gt;Node14 -->
<g id="edge16" class="edge">
<title>Node13&#45;&gt;Node14</title>
<path fill="none" stroke="midnightblue" d="M567.11,-56.32C550.83,-47.7 525.63,-34.36 506.78,-24.39"/>
<polygon fill="midnightblue" stroke="midnightblue" points="508.32,-21.24 497.85,-19.65 505.05,-27.43 508.32,-21.24"/>
</g>
<!-- Node15&#45;&gt;Node3 -->
<g id="edge25" class="edge">
<title>Node15&#45;&gt;Node3</title>
<path fill="none" stroke="midnightblue" d="M797.03,-189.98C861.47,-186.97 957.12,-182.56 1040.5,-179 1442.23,-161.84 1543.87,-177.31 1944.5,-143 1958.4,-141.81 1973.24,-140.13 1987.37,-138.34"/>
<polygon fill="midnightblue" stroke="midnightblue" points="1988.05,-141.78 1997.52,-137.02 1987.15,-134.84 1988.05,-141.78"/>
</g>
<!-- Node15&#45;&gt;Node4 -->
<g id="edge18" class="edge">
<title>Node15&#45;&gt;Node4</title>
<path fill="none" stroke="midnightblue" d="M647.89,-190.41C527.12,-184.62 299.82,-170.23 275.5,-143 265.24,-131.52 277.4,-68.04 283.5,-56 289.38,-44.4 299.42,-34.05 308.62,-26.21"/>
<polygon fill="midnightblue" stroke="midnightblue" points="311.07,-28.73 316.69,-19.75 306.7,-23.26 311.07,-28.73"/>
</g>
<!-- Node15&#45;&gt;Node6 -->
<g id="edge19" class="edge">
<title>Node15&#45;&gt;Node6</title>
<path fill="none" stroke="midnightblue" d="M727.43,-184.87C737.93,-167.47 764.32,-128.42 798.5,-112 822.56,-100.44 1193.15,-78.38 1337.53,-70.18"/>
<polygon fill="midnightblue" stroke="midnightblue" points="1337.74,-73.67 1347.53,-69.61 1337.35,-66.68 1337.74,-73.67"/>
</g>
<!-- Node15&#45;&gt;Node8 -->
<g id="edge47" class="edge">
<title>Node15&#45;&gt;Node8</title>
<path fill="none" stroke="midnightblue" d="M723.52,-184.85C725.97,-168.1 733.77,-131.19 756.5,-112 810.87,-66.1 843.44,-93.13 912.5,-76 984.68,-58.1 1068.32,-35.51 1116.84,-22.22"/>
<polygon fill="midnightblue" stroke="midnightblue" points="1117.92,-25.55 1126.64,-19.53 1116.07,-18.8 1117.92,-25.55"/>
</g>
<!-- Node15&#45;&gt;Node12 -->
<g id="edge20" class="edge">
<title>Node15&#45;&gt;Node12</title>
<path fill="none" stroke="midnightblue" d="M719.96,-184.64C715.84,-168.18 709.8,-132.68 727.5,-112 776.03,-55.31 836.6,-126.55 891.5,-76 904.37,-64.15 909.04,-44.23 910.7,-29.56"/>
<polygon fill="midnightblue" stroke="midnightblue" points="914.19,-29.82 911.46,-19.59 907.21,-29.29 914.19,-29.82"/>
</g>
<!-- Node16 -->
<g id="node16" class="node">
<title>Node16</title>
<g id="a_node16"><a xlink:href="_field_utils_8_h.html" target="_top" xlink:title=" ">
<polygon fill="white" stroke="black" points="1011.5,-118 1011.5,-137 1157.5,-137 1157.5,-118 1011.5,-118"/>
<text text-anchor="middle" x="1084.5" y="-125" font-family="Helvetica,sans-Serif" font-size="10.00">amr&#45;wind/core/FieldUtils.H</text>
</a>
</g>
</g>
<!-- Node15&#45;&gt;Node16 -->
<g id="edge21" class="edge">
<title>Node15&#45;&gt;Node16</title>
<path fill="none" stroke="midnightblue" d="M770.2,-184.94C836.35,-173.06 955.8,-151.61 1026.86,-138.85"/>
<polygon fill="midnightblue" stroke="midnightblue" points="1027.76,-142.24 1036.98,-137.03 1026.52,-135.35 1027.76,-142.24"/>
</g>
<!-- Node18 -->
<g id="node18" class="node">
<title>Node18</title>
<g id="a_node18"><a xlink:href="_int_field_8_h.html" target="_top" xlink:title=" ">
<polygon fill="white" stroke="black" points="0,-118 0,-137 137,-137 137,-118 0,-118"/>
<text text-anchor="middle" x="68.5" y="-125" font-family="Helvetica,sans-Serif" font-size="10.00">amr&#45;wind/core/IntField.H</text>
</a>
</g>
</g>
<!-- Node15&#45;&gt;Node18 -->
<g id="edge26" class="edge">
<title>Node15&#45;&gt;Node18</title>
<path fill="none" stroke="midnightblue" d="M647.86,-188.01C541.17,-179.87 339,-163.35 167.5,-143 156.29,-141.67 144.4,-140.08 132.89,-138.45"/>
<polygon fill="midnightblue" stroke="midnightblue" points="133.29,-134.97 122.9,-137.01 132.29,-141.9 133.29,-134.97"/>
</g>
<!-- Node19 -->
<g id="node19" class="node">
<title>Node19</title>
<g id="a_node19"><a xlink:title=" ">
<polygon fill="white" stroke="#bfbfbf" points="87.5,-56.5 87.5,-75.5 199.5,-75.5 199.5,-56.5 87.5,-56.5"/>
<text text-anchor="middle" x="143.5" y="-63.5" font-family="Helvetica,sans-Serif" font-size="10.00">AMReX_iMultiFab.H</text>
</a>
</g>
</g>
<!-- Node15&#45;&gt;Node19 -->
<g id="edge48" class="edge">
<title>Node15&#45;&gt;Node19</title>
<path fill="none" stroke="midnightblue" d="M647.69,-192.55C525.15,-189.92 287.8,-180.06 213.5,-143 187.25,-129.91 165.98,-102.54 154.03,-84.47"/>
<polygon fill="midnightblue" stroke="midnightblue" points="156.97,-82.56 148.66,-75.99 151.06,-86.31 156.97,-82.56"/>
</g>
<!-- Node20 -->
<g id="node20" class="node">
<title>Node20</title>
<g id="a_node20"><a xlink:href="_scratch_field_8_h.html" target="_top" xlink:title=" ">
<polygon fill="white" stroke="black" points="507.5,-118 507.5,-137 667.5,-137 667.5,-118 507.5,-118"/>
<text text-anchor="middle" x="587.5" y="-125" font-family="Helvetica,sans-Serif" font-size="10.00">amr&#45;wind/core/ScratchField.H</text>
</a>
</g>
</g>
<!-- Node15&#45;&gt;Node20 -->
<g id="edge30" class="edge">
<title>Node15&#45;&gt;Node20</title>
<path fill="none" stroke="midnightblue" d="M704.57,-184.87C681.58,-173.8 641.47,-154.49 614.7,-141.6"/>
<polygon fill="midnightblue" stroke="midnightblue" points="616.03,-138.35 605.5,-137.17 612.99,-144.66 616.03,-138.35"/>
</g>
<!-- Node22 -->
<g id="node22" class="node">
<title>Node22</title>
<g id="a_node22"><a xlink:href="_int_scratch_field_8_h.html" target="_top" xlink:title=" ">
<polygon fill="white" stroke="black" points="285,-112.5 285,-142.5 424,-142.5 424,-112.5 285,-112.5"/>
<text text-anchor="start" x="293" y="-130.5" font-family="Helvetica,sans-Serif" font-size="10.00">amr&#45;wind/core/IntScratch</text>
<text text-anchor="middle" x="354.5" y="-119.5" font-family="Helvetica,sans-Serif" font-size="10.00">Field.H</text>
</a>
</g>
</g>
<!-- Node15&#45;&gt;Node22 -->
<g id="edge38" class="edge">
<title>Node15&#45;&gt;Node22</title>
<path fill="none" stroke="midnightblue" d="M674.01,-184.94C612.96,-174.15 507.26,-155.48 434.24,-142.59"/>
<polygon fill="midnightblue" stroke="midnightblue" points="434.62,-139.1 424.17,-140.81 433.41,-145.99 434.62,-139.1"/>
</g>
<!-- Node23 -->
<g id="node23" class="node">
<title>Node23</title>
<g id="a_node23"><a xlink:title=" ">
<polygon fill="white" stroke="#bfbfbf" points="807.5,-118 807.5,-137 917.5,-137 917.5,-118 807.5,-118"/>
<text text-anchor="middle" x="862.5" y="-125" font-family="Helvetica,sans-Serif" font-size="10.00">AMReX_AmrCore.H</text>
</a>
</g>
</g>
<!-- Node15&#45;&gt;Node23 -->
<g id="edge46" class="edge">
<title>Node15&#45;&gt;Node23</title>
<path fill="none" stroke="midnightblue" d="M741.09,-184.87C765.04,-173.75 806.89,-154.32 834.65,-141.43"/>
<polygon fill="midnightblue" stroke="midnightblue" points="836.24,-144.55 843.83,-137.17 833.29,-138.2 836.24,-144.55"/>
</g>
<!-- Node16&#45;&gt;Node8 -->
<g id="edge23" class="edge">
<title>Node16&#45;&gt;Node8</title>
<path fill="none" stroke="midnightblue" d="M1123.69,-117.95C1146.26,-110.8 1172.8,-98.08 1186.5,-76 1196.21,-60.35 1184.78,-40.89 1173.54,-27.36"/>
<polygon fill="midnightblue" stroke="midnightblue" points="1176.03,-24.9 1166.75,-19.79 1170.82,-29.57 1176.03,-24.9"/>
</g>
<!-- Node16&#45;&gt;Node12 -->
<g id="edge22" class="edge">
<title>Node16&#45;&gt;Node12</title>
<path fill="none" stroke="midnightblue" d="M1075.86,-117.92C1061.36,-103.82 1030.84,-75.39 1001.5,-56 982.44,-43.41 959.36,-31.93 941.35,-23.73"/>
<polygon fill="midnightblue" stroke="midnightblue" points="942.48,-20.4 931.92,-19.52 939.63,-26.79 942.48,-20.4"/>
</g>
<!-- Node17 -->
<g id="node17" class="node">
<title>Node17</title>
<g id="a_node17"><a xlink:title=" ">
<polygon fill="white" stroke="#bfbfbf" points="1053.5,-56.5 1053.5,-75.5 1177.5,-75.5 1177.5,-56.5 1053.5,-56.5"/>
<text text-anchor="middle" x="1115.5" y="-63.5" font-family="Helvetica,sans-Serif" font-size="10.00">AMReX_Interpolater.H</text>
</a>
</g>
</g>
<!-- Node16&#45;&gt;Node17 -->
<g id="edge24" class="edge">
<title>Node16&#45;&gt;Node17</title>
<path fill="none" stroke="midnightblue" d="M1088.94,-117.98C1093.45,-109.32 1100.57,-95.65 1106.31,-84.65"/>
<polygon fill="midnightblue" stroke="midnightblue" points="1109.55,-85.99 1111.07,-75.51 1103.34,-82.76 1109.55,-85.99"/>
</g>
<!-- Node18&#45;&gt;Node4 -->
<g id="edge27" class="edge">
<title>Node18&#45;&gt;Node4</title>
<path fill="none" stroke="midnightblue" d="M60.79,-117.65C49.14,-103.17 29.95,-74.21 45.5,-56 77.58,-18.44 229.8,-12.06 297.22,-11.1"/>
<polygon fill="midnightblue" stroke="midnightblue" points="297.33,-14.6 307.29,-10.99 297.25,-7.6 297.33,-14.6"/>
</g>
<!-- Node18&#45;&gt;Node12 -->
<g id="edge28" class="edge">
<title>Node18&#45;&gt;Node12</title>
<path fill="none" stroke="midnightblue" d="M66.62,-117.54C64.01,-102.36 61.37,-71.7 78.5,-56 105.2,-31.53 598.97,-17.82 813.43,-13"/>
<polygon fill="midnightblue" stroke="midnightblue" points="813.51,-16.5 823.43,-12.78 813.35,-9.5 813.51,-16.5"/>
</g>
<!-- Node18&#45;&gt;Node19 -->
<g id="edge29" class="edge">
<title>Node18&#45;&gt;Node19</title>
<path fill="none" stroke="midnightblue" d="M79.25,-117.98C91.05,-108.61 110.24,-93.38 124.58,-82.01"/>
<polygon fill="midnightblue" stroke="midnightblue" points="127.12,-84.47 132.77,-75.51 122.76,-78.98 127.12,-84.47"/>
</g>
<!-- Node20&#45;&gt;Node2 -->
<g id="edge32" class="edge">
<title>Node20&#45;&gt;Node2</title>
<path fill="none" stroke="midnightblue" d="M559.56,-117.98C524.04,-107.14 462.82,-88.46 425.17,-76.97"/>
<polygon fill="midnightblue" stroke="midnightblue" points="425.81,-73.5 415.22,-73.93 423.77,-80.2 425.81,-73.5"/>
</g>
<!-- Node20&#45;&gt;Node4 -->
<g id="edge31" class="edge">
<title>Node20&#45;&gt;Node4</title>
<path fill="none" stroke="midnightblue" d="M568.11,-117.82C522.99,-97.62 410.79,-47.39 357.92,-23.72"/>
<polygon fill="midnightblue" stroke="midnightblue" points="359.32,-20.52 348.77,-19.62 356.46,-26.91 359.32,-20.52"/>
</g>
<!-- Node20&#45;&gt;Node8 -->
<g id="edge35" class="edge">
<title>Node20&#45;&gt;Node8</title>
<path fill="none" stroke="midnightblue" d="M608.21,-117.95C631.55,-108.21 670.55,-91.6 703.5,-76 721.11,-67.66 723.84,-61.59 742.5,-56 806.37,-36.88 992.79,-22 1092.62,-15.14"/>
<polygon fill="midnightblue" stroke="midnightblue" points="1093.15,-18.61 1102.89,-14.44 1092.67,-11.63 1093.15,-18.61"/>
</g>
<!-- Node20&#45;&gt;Node12 -->
<g id="edge33" class="edge">
<title>Node20&#45;&gt;Node12</title>
<path fill="none" stroke="midnightblue" d="M599.34,-117.99C620.45,-103.21 666.42,-72.79 709.5,-56 751.69,-39.56 801.3,-28.4 840.79,-21.31"/>
<polygon fill="midnightblue" stroke="midnightblue" points="841.62,-24.71 850.87,-19.55 840.41,-17.82 841.62,-24.71"/>
</g>
<!-- Node20&#45;&gt;Node13 -->
<g id="edge34" class="edge">
<title>Node20&#45;&gt;Node13</title>
<path fill="none" stroke="midnightblue" d="M586.93,-117.98C586.36,-109.58 585.48,-96.48 584.75,-85.66"/>
<polygon fill="midnightblue" stroke="midnightblue" points="588.24,-85.25 584.07,-75.51 581.25,-85.72 588.24,-85.25"/>
</g>
<!-- Node20&#45;&gt;Node14 -->
<g id="edge36" class="edge">
<title>Node20&#45;&gt;Node14</title>
<path fill="none" stroke="midnightblue" d="M562.62,-117.98C543.03,-110.05 516.44,-96.35 500.5,-76 490.09,-62.71 485.38,-43.88 483.25,-29.9"/>
<polygon fill="midnightblue" stroke="midnightblue" points="486.72,-29.44 482.04,-19.93 479.77,-30.28 486.72,-29.44"/>
</g>
<!-- Node21 -->
<g id="node21" class="node">
<title>Node21</title>
<g id="a_node21"><a xlink:title=" ">
<polygon fill="white" stroke="#bfbfbf" points="752,-56.5 752,-75.5 883,-75.5 883,-56.5 752,-56.5"/>
<text text-anchor="middle" x="817.5" y="-63.5" font-family="Helvetica,sans-Serif" font-size="10.00">AMReX_PhysBCFunct.H</text>
</a>
</g>
</g>
<!-- Node20&#45;&gt;Node21 -->
<g id="edge37" class="edge">
<title>Node20&#45;&gt;Node21</title>
<path fill="none" stroke="midnightblue" d="M620.45,-117.98C661.1,-107.46 730.29,-89.56 774.92,-78.01"/>
<polygon fill="midnightblue" stroke="midnightblue" points="775.8,-81.4 784.61,-75.51 774.05,-74.63 775.8,-81.4"/>
</g>
<!-- Node22&#45;&gt;Node2 -->
<g id="edge40" class="edge">
<title>Node22&#45;&gt;Node2</title>
<path fill="none" stroke="midnightblue" d="M363.51,-112.4C368.91,-103.93 375.83,-93.1 381.55,-84.14"/>
<polygon fill="midnightblue" stroke="midnightblue" points="384.54,-85.97 386.97,-75.66 378.64,-82.2 384.54,-85.97"/>
</g>
<!-- Node22&#45;&gt;Node4 -->
<g id="edge39" class="edge">
<title>Node22&#45;&gt;Node4</title>
<path fill="none" stroke="midnightblue" d="M326.02,-112.35C312.29,-103.86 297.16,-91.66 289.5,-76 280.83,-58.29 295.75,-39.21 309.77,-26.33"/>
<polygon fill="midnightblue" stroke="midnightblue" points="312.41,-28.68 317.74,-19.53 307.86,-23.36 312.41,-28.68"/>
</g>
<!-- Node22&#45;&gt;Node12 -->
<g id="edge41" class="edge">
<title>Node22&#45;&gt;Node12</title>
<path fill="none" stroke="midnightblue" d="M350.96,-112.4C347.87,-96.38 345.88,-70.57 360.5,-56 391.82,-24.79 663.52,-15.19 813.33,-12.27"/>
<polygon fill="midnightblue" stroke="midnightblue" points="813.53,-15.77 823.46,-12.08 813.4,-8.77 813.53,-15.77"/>
</g>
<!-- Node22&#45;&gt;Node13 -->
<g id="edge42" class="edge">
<title>Node22&#45;&gt;Node13</title>
<path fill="none" stroke="midnightblue" d="M408.48,-112.47C448.85,-101.99 503.3,-87.84 540.69,-78.12"/>
<polygon fill="midnightblue" stroke="midnightblue" points="541.96,-81.41 550.76,-75.51 540.2,-74.63 541.96,-81.41"/>
</g>
<!-- Node22&#45;&gt;Node14 -->
<g id="edge44" class="edge">
<title>Node22&#45;&gt;Node14</title>
<path fill="none" stroke="midnightblue" d="M341.55,-112.39C329.31,-97.29 314.61,-73.2 327.5,-56 339.16,-40.45 383.85,-28.48 422.11,-20.81"/>
<polygon fill="midnightblue" stroke="midnightblue" points="423.04,-24.2 432.19,-18.86 421.71,-17.33 423.04,-24.2"/>
</g>
<!-- Node22&#45;&gt;Node19 -->
<g id="edge43" class="edge">
<title>Node22&#45;&gt;Node19</title>
<path fill="none" stroke="midnightblue" d="M304.76,-112.47C267.73,-102.03 217.82,-87.96 183.38,-78.25"/>
<polygon fill="midnightblue" stroke="midnightblue" points="184.24,-74.85 173.67,-75.51 182.34,-81.59 184.24,-74.85"/>
</g>
<!-- Node22&#45;&gt;Node21 -->
<g id="edge45" class="edge">
<title>Node22&#45;&gt;Node21</title>
<path fill="none" stroke="midnightblue" d="M424.07,-117.56C509.51,-106.58 653.91,-88.02 741.99,-76.7"/>
<polygon fill="midnightblue" stroke="midnightblue" points="742.44,-80.17 751.91,-75.43 741.55,-73.23 742.44,-80.17"/>
</g>
<!-- Node24&#45;&gt;Node3 -->
<g id="edge50" class="edge">
<title>Node24&#45;&gt;Node3</title>
<path fill="none" stroke="midnightblue" d="M1280.7,-257.77C1388.29,-253 1589.06,-240.54 1757.5,-210 1807.54,-200.93 1947.22,-160.33 2015.68,-140.08"/>
<polygon fill="midnightblue" stroke="midnightblue" points="2017.04,-143.32 2025.63,-137.12 2015.05,-136.61 2017.04,-143.32"/>
</g>
<!-- Node24&#45;&gt;Node8 -->
<g id="edge65" class="edge">
<title>Node24&#45;&gt;Node8</title>
<path fill="none" stroke="midnightblue" d="M1204.21,-246.36C1204.68,-236.23 1205.26,-222.28 1205.5,-210 1205.77,-196.22 1205.69,-192.78 1205.5,-179 1205.28,-163 1204.91,-159 1204.5,-143 1204.38,-138.17 1204.4,-60.45 1202.5,-56 1197.44,-44.18 1187.68,-33.81 1178.54,-26.01"/>
<polygon fill="midnightblue" stroke="midnightblue" points="1180.48,-23.08 1170.48,-19.6 1176.13,-28.56 1180.48,-23.08"/>
</g>
<!-- Node24&#45;&gt;Node12 -->
<g id="edge55" class="edge">
<title>Node24&#45;&gt;Node12</title>
<path fill="none" stroke="midnightblue" d="M1126.27,-250.92C1093.81,-243.82 1057.23,-231.48 1029.5,-210 966.51,-161.22 930.29,-68.56 917.17,-29.31"/>
<polygon fill="midnightblue" stroke="midnightblue" points="920.49,-28.17 914.08,-19.73 913.82,-30.32 920.49,-28.17"/>
</g>
<!-- Node24&#45;&gt;Node16 -->
<g id="edge56" class="edge">
<title>Node24&#45;&gt;Node16</title>
<path fill="none" stroke="midnightblue" d="M1203.48,-246.28C1202.74,-228.68 1199.06,-198.64 1183.5,-179 1168.98,-160.67 1146.03,-148.38 1125.88,-140.52"/>
<polygon fill="midnightblue" stroke="midnightblue" points="1126.85,-137.15 1116.26,-137.01 1124.45,-143.72 1126.85,-137.15"/>
</g>
<!-- Node24&#45;&gt;Node21 -->
<g id="edge67" class="edge">
<title>Node24&#45;&gt;Node21</title>
<path fill="none" stroke="midnightblue" d="M1126.42,-251.51C1067.81,-243.29 993.32,-229.46 969.5,-210 932.66,-179.91 960.5,-145.26 926.5,-112 910.14,-95.99 887.28,-85.39 866.72,-78.51"/>
<polygon fill="midnightblue" stroke="midnightblue" points="867.75,-75.17 857.16,-75.52 865.66,-81.85 867.75,-75.17"/>
</g>
<!-- Node24&#45;&gt;Node23 -->
<g id="edge64" class="edge">
<title>Node24&#45;&gt;Node23</title>
<path fill="none" stroke="midnightblue" d="M1126.32,-259.84C1069.08,-256.24 991,-244.54 931.5,-210 904.87,-194.55 883.76,-164.85 872.21,-145.89"/>
<polygon fill="midnightblue" stroke="midnightblue" points="875.13,-143.95 867.06,-137.09 869.09,-147.49 875.13,-143.95"/>
</g>
<!-- Node24&#45;&gt;Node25 -->
<g id="edge51" class="edge">
<title>Node24&#45;&gt;Node25</title>
<path fill="none" stroke="midnightblue" d="M1238.65,-246.4C1267.33,-234.89 1307.44,-218.8 1334.83,-207.81"/>
<polygon fill="midnightblue" stroke="midnightblue" points="1336.32,-210.98 1344.3,-204.01 1333.71,-204.48 1336.32,-210.98"/>
</g>
<!-- Node26 -->
<g id="node26" class="node">
<title>Node26</title>
<g id="a_node26"><a xlink:title=" ">
<polygon fill="white" stroke="#bfbfbf" points="1213.5,-118 1213.5,-137 1305.5,-137 1305.5,-118 1213.5,-118"/>
<text text-anchor="middle" x="1259.5" y="-125" font-family="Helvetica,sans-Serif" font-size="10.00">AMReX_REAL.H</text>
</a>
</g>
</g>
<!-- Node24&#45;&gt;Node26 -->
<g id="edge66" class="edge">
<title>Node24&#45;&gt;Node26</title>
<path fill="none" stroke="midnightblue" d="M1126.49,-249.02C1071.18,-237.45 1011.15,-215.89 1040.5,-179 1050.71,-166.17 1141.98,-148.41 1203.43,-137.73"/>
<polygon fill="midnightblue" stroke="midnightblue" points="1204.13,-141.16 1213.39,-136.01 1202.94,-134.26 1204.13,-141.16"/>
</g>
<!-- Node24&#45;&gt;Node29 -->
<g id="edge57" class="edge">
<title>Node24&#45;&gt;Node29</title>
<path fill="none" stroke="midnightblue" d="M1280.62,-249.77C1369.21,-237.44 1513.38,-217.37 1599.37,-205.4"/>
<polygon fill="midnightblue" stroke="midnightblue" points="1599.88,-208.86 1609.3,-204.02 1598.91,-201.93 1599.88,-208.86"/>
</g>
<!-- Node32 -->
<g id="node32" class="node">
<title>Node32</title>
<g id="a_node32"><a xlink:title=" ">
<polygon fill="white" stroke="#bfbfbf" points="1050,-185 1050,-204 1175,-204 1175,-185 1050,-185"/>
<text text-anchor="middle" x="1112.5" y="-192" font-family="Helvetica,sans-Serif" font-size="10.00">AMReX_FillPatchUtil.H</text>
</a>
</g>
</g>
<!-- Node24&#45;&gt;Node32 -->
<g id="edge68" class="edge">
<title>Node24&#45;&gt;Node32</title>
<path fill="none" stroke="midnightblue" d="M1183.75,-246.4C1168.64,-235.6 1147.86,-220.76 1132.64,-209.89"/>
<polygon fill="midnightblue" stroke="midnightblue" points="1134.58,-206.97 1124.41,-204.01 1130.51,-212.67 1134.58,-206.97"/>
</g>
<!-- Node25&#45;&gt;Node26 -->
<g id="edge52" class="edge">
<title>Node25&#45;&gt;Node26</title>
<path fill="none" stroke="midnightblue" d="M1351.2,-184.73C1333.48,-173.87 1303.07,-155.22 1282.16,-142.39"/>
<polygon fill="midnightblue" stroke="midnightblue" points="1283.92,-139.37 1273.57,-137.13 1280.26,-145.34 1283.92,-139.37"/>
</g>
<!-- Node27 -->
<g id="node27" class="node">
<title>Node27</title>
<g id="a_node27"><a xlink:title=" ">
<polygon fill="white" stroke="#bfbfbf" points="1323.5,-118 1323.5,-137 1457.5,-137 1457.5,-118 1323.5,-118"/>
<text text-anchor="middle" x="1390.5" y="-125" font-family="Helvetica,sans-Serif" font-size="10.00">AMReX_GpuQualifiers.H</text>
</a>
</g>
</g>
<!-- Node25&#45;&gt;Node27 -->
<g id="edge53" class="edge">
<title>Node25&#45;&gt;Node27</title>
<path fill="none" stroke="midnightblue" d="M1368.87,-184.73C1372.62,-174.99 1378.78,-158.98 1383.56,-146.53"/>
<polygon fill="midnightblue" stroke="midnightblue" points="1386.86,-147.72 1387.18,-137.13 1380.33,-145.2 1386.86,-147.72"/>
</g>
<!-- Node28 -->
<g id="node28" class="node">
<title>Node28</title>
<g id="a_node28"><a xlink:title=" ">
<polygon fill="white" stroke="#bfbfbf" points="1475.5,-118 1475.5,-137 1591.5,-137 1591.5,-118 1475.5,-118"/>
<text text-anchor="middle" x="1533.5" y="-125" font-family="Helvetica,sans-Serif" font-size="10.00">AMReX_Extension.H</text>
</a>
</g>
</g>
<!-- Node25&#45;&gt;Node28 -->
<g id="edge54" class="edge">
<title>Node25&#45;&gt;Node28</title>
<path fill="none" stroke="midnightblue" d="M1387.81,-184.87C1417.01,-173.57 1468.38,-153.7 1501.66,-140.82"/>
<polygon fill="midnightblue" stroke="midnightblue" points="1503.3,-143.94 1511.37,-137.06 1500.78,-137.41 1503.3,-143.94"/>
</g>
<!-- Node29&#45;&gt;Node3 -->
<g id="edge59" class="edge">
<title>Node29&#45;&gt;Node3</title>
<path fill="none" stroke="midnightblue" d="M1721.1,-184.94C1791.41,-173.03 1918.5,-151.52 1993.82,-138.77"/>
<polygon fill="midnightblue" stroke="midnightblue" points="1994.82,-142.15 2004.1,-137.03 1993.65,-135.25 1994.82,-142.15"/>
</g>
<!-- Node29&#45;&gt;Node10 -->
<g id="edge60" class="edge">
<title>Node29&#45;&gt;Node10</title>
<path fill="none" stroke="midnightblue" d="M1748.88,-190.35C1872.34,-184.59 2100.7,-170.34 2125.5,-143 2139.39,-127.69 2136.65,-102.65 2132.44,-85.53"/>
<polygon fill="midnightblue" stroke="midnightblue" points="2135.72,-84.26 2129.61,-75.6 2128.98,-86.18 2135.72,-84.26"/>
</g>
<!-- Node29&#45;&gt;Node12 -->
<g id="edge58" class="edge">
<title>Node29&#45;&gt;Node12</title>
<path fill="none" stroke="midnightblue" d="M1669.25,-184.87C1666.29,-167.81 1657.13,-129.89 1632.5,-112 1579.24,-73.32 1403.71,-84.95 1338.5,-76 1208.71,-58.18 1057.19,-34.41 974.06,-21.11"/>
<polygon fill="midnightblue" stroke="midnightblue" points="974.45,-17.63 964.02,-19.5 973.34,-24.54 974.45,-17.63"/>
</g>
<!-- Node29&#45;&gt;Node21 -->
<g id="edge63" class="edge">
<title>Node29&#45;&gt;Node21</title>
<path fill="none" stroke="midnightblue" d="M1666.17,-184.84C1656.89,-167.37 1633.27,-128.21 1600.5,-112 1584.77,-104.22 1086.45,-79.78 893.12,-70.56"/>
<polygon fill="midnightblue" stroke="midnightblue" points="893.19,-67.06 883.04,-70.09 892.86,-74.06 893.19,-67.06"/>
</g>
<!-- Node30 -->
<g id="node30" class="node">
<title>Node30</title>
<g id="a_node30"><a xlink:title=" ">
<polygon fill="white" stroke="#bfbfbf" points="1686,-118 1686,-137 1803,-137 1803,-118 1686,-118"/>
<text text-anchor="middle" x="1744.5" y="-125" font-family="Helvetica,sans-Serif" font-size="10.00">AMReX_FArrayBox.H</text>
</a>
</g>
</g>
<!-- Node29&#45;&gt;Node30 -->
<g id="edge61" class="edge">
<title>Node29&#45;&gt;Node30</title>
<path fill="none" stroke="midnightblue" d="M1680.48,-184.73C1692.35,-174.31 1712.39,-156.71 1726.88,-143.97"/>
<polygon fill="midnightblue" stroke="midnightblue" points="1729.47,-146.36 1734.68,-137.13 1724.86,-141.1 1729.47,-146.36"/>
</g>
<!-- Node31 -->
<g id="node31" class="node">
<title>Node31</title>
<g id="a_node31"><a xlink:title=" ">
<polygon fill="white" stroke="#bfbfbf" points="1821,-118 1821,-137 1936,-137 1936,-118 1821,-118"/>
<text text-anchor="middle" x="1878.5" y="-125" font-family="Helvetica,sans-Serif" font-size="10.00">AMReX_Geometry.H</text>
</a>
</g>
</g>
<!-- Node29&#45;&gt;Node31 -->
<g id="edge62" class="edge">
<title>Node29&#45;&gt;Node31</title>
<path fill="none" stroke="midnightblue" d="M1698.12,-184.87C1734.98,-173.35 1800.35,-152.92 1841.45,-140.08"/>
<polygon fill="midnightblue" stroke="midnightblue" points="1842.6,-143.39 1851.1,-137.06 1840.51,-136.71 1842.6,-143.39"/>
</g>
<!-- Node33&#45;&gt;Node2 -->
<g id="edge75" class="edge">
<title>Node33&#45;&gt;Node2</title>
<path fill="none" stroke="midnightblue" d="M2034.09,-179.42C2019.79,-169.44 2000.3,-155.64 1983.5,-143 1965.81,-129.69 1965.31,-119.56 1944.5,-112 1793.64,-57.23 660.76,-84.67 500.5,-76 475.27,-74.64 446.78,-72.23 425.41,-70.24"/>
<polygon fill="midnightblue" stroke="midnightblue" points="425.51,-66.74 415.23,-69.28 424.86,-73.71 425.51,-66.74"/>
</g>
<!-- Node33&#45;&gt;Node3 -->
<g id="edge72" class="edge">
<title>Node33&#45;&gt;Node3</title>
<path fill="none" stroke="midnightblue" d="M2054.5,-179.4C2054.5,-170.06 2054.5,-157.71 2054.5,-147.52"/>
<polygon fill="midnightblue" stroke="midnightblue" points="2058,-147.19 2054.5,-137.19 2051,-147.19 2058,-147.19"/>
</g>
<!-- Node33&#45;&gt;Node11 -->
<g id="edge73" class="edge">
<title>Node33&#45;&gt;Node11</title>
<path fill="none" stroke="midnightblue" d="M2087.7,-179.41C2108.57,-170.06 2135.76,-156.98 2158.5,-143 2174.72,-133.04 2215.31,-101.32 2239.5,-82.15"/>
<polygon fill="midnightblue" stroke="midnightblue" points="2241.94,-84.69 2247.6,-75.72 2237.59,-79.2 2241.94,-84.69"/>
</g>
<!-- Node34 -->
<g id="node34" class="node">
<title>Node34</title>
<g id="a_node34"><a xlink:title=" ">
<polygon fill="white" stroke="#bfbfbf" points="2210.5,-118 2210.5,-137 2326.5,-137 2326.5,-118 2210.5,-118"/>
<text text-anchor="middle" x="2268.5" y="-125" font-family="Helvetica,sans-Serif" font-size="10.00">AMReX_BC_TYPES.H</text>
</a>
</g>
</g>
<!-- Node33&#45;&gt;Node34 -->
<g id="edge74" class="edge">
<title>Node33&#45;&gt;Node34</title>
<path fill="none" stroke="midnightblue" d="M2100.67,-179.48C2139.53,-167.67 2194.42,-151 2230.71,-139.98"/>
<polygon fill="midnightblue" stroke="midnightblue" points="2231.87,-143.28 2240.42,-137.03 2229.84,-136.59 2231.87,-143.28"/>
</g>
</g>
</svg>
