<?xml version="1.0" encoding="UTF-8" standalone="no"?>
<!DOCTYPE svg PUBLIC "-//W3C//DTD SVG 1.1//EN"
 "http://www.w3.org/Graphics/SVG/1.1/DTD/svg11.dtd">
<!-- Generated by graphviz version 2.43.0 (0)
 -->
<!-- Title: FreeSurface.H Pages: 1 -->
<svg width="2904pt" height="330pt"
 viewBox="0.00 0.00 2904.25 330.00" xmlns="http://www.w3.org/2000/svg" xmlns:xlink="http://www.w3.org/1999/xlink">
<g id="graph0" class="graph" transform="scale(1 1) rotate(0) translate(4 326)">
<title>FreeSurface.H</title>
<polygon fill="white" stroke="transparent" points="-4,4 -4,-326 2900.25,-326 2900.25,4 -4,4"/>
<!-- Node1 -->
<g id="node1" class="node">
<title>Node1</title>
<g id="a_node1"><a xlink:title=" ">
<polygon fill="#bfbfbf" stroke="black" points="89.5,-302.5 89.5,-321.5 174.5,-321.5 174.5,-302.5 89.5,-302.5"/>
<text text-anchor="middle" x="132" y="-309.5" font-family="Helvetica,sans-Serif" font-size="10.00">FreeSurface.H</text>
</a>
</g>
</g>
<!-- Node2 -->
<g id="node2" class="node">
<title>Node2</title>
<g id="a_node2"><a xlink:title=" ">
<polygon fill="white" stroke="#bfbfbf" points="280,-56.5 280,-75.5 338,-75.5 338,-56.5 280,-56.5"/>
<text text-anchor="middle" x="309" y="-63.5" font-family="Helvetica,sans-Serif" font-size="10.00">memory</text>
</a>
</g>
</g>
<!-- Node1&#45;&gt;Node2 -->
<g id="edge1" class="edge">
<title>Node1&#45;&gt;Node2</title>
<path fill="none" stroke="midnightblue" d="M129.73,-302.16C122.49,-271.67 103.04,-169.61 151,-112 154.91,-107.3 224.51,-88.7 270.02,-76.93"/>
<polygon fill="midnightblue" stroke="midnightblue" points="271.08,-80.27 279.89,-74.39 269.34,-73.49 271.08,-80.27"/>
</g>
<!-- Node3 -->
<g id="node3" class="node">
<title>Node3</title>
<g id="a_node3"><a xlink:href="_c_f_d_sim_8_h.html" target="_top" xlink:title=" ">
<polygon fill="white" stroke="black" points="1342,-246.5 1342,-265.5 1458,-265.5 1458,-246.5 1342,-246.5"/>
<text text-anchor="middle" x="1400" y="-253.5" font-family="Helvetica,sans-Serif" font-size="10.00">amr&#45;wind/CFDSim.H</text>
</a>
</g>
</g>
<!-- Node1&#45;&gt;Node3 -->
<g id="edge2" class="edge">
<title>Node1&#45;&gt;Node3</title>
<path fill="none" stroke="midnightblue" d="M174.55,-309.19C360.33,-301.28 1101.31,-269.72 1331.45,-259.92"/>
<polygon fill="midnightblue" stroke="midnightblue" points="1331.85,-263.41 1341.69,-259.48 1331.55,-256.41 1331.85,-263.41"/>
</g>
<!-- Node41 -->
<g id="node41" class="node">
<title>Node41</title>
<g id="a_node41"><a xlink:href="_post_processing_8_h.html" target="_top" xlink:title=" ">
<polygon fill="white" stroke="black" points="0,-179.5 0,-209.5 104,-209.5 104,-179.5 0,-179.5"/>
<text text-anchor="start" x="8" y="-197.5" font-family="Helvetica,sans-Serif" font-size="10.00">amr&#45;wind/utilities</text>
<text text-anchor="middle" x="52" y="-186.5" font-family="Helvetica,sans-Serif" font-size="10.00">/PostProcessing.H</text>
</a>
</g>
</g>
<!-- Node1&#45;&gt;Node41 -->
<g id="edge86" class="edge">
<title>Node1&#45;&gt;Node41</title>
<path fill="none" stroke="midnightblue" d="M125.99,-302.32C113.7,-284.58 85.37,-243.68 67.55,-217.95"/>
<polygon fill="midnightblue" stroke="midnightblue" points="70.3,-215.77 61.73,-209.55 64.55,-219.76 70.3,-215.77"/>
</g>
<!-- Node4 -->
<g id="node4" class="node">
<title>Node4</title>
<g id="a_node4"><a xlink:title=" ">
<polygon fill="white" stroke="#bfbfbf" points="1571,-118 1571,-137 1681,-137 1681,-118 1571,-118"/>
<text text-anchor="middle" x="1626" y="-125" font-family="Helvetica,sans-Serif" font-size="10.00">AMReX_AmrCore.H</text>
</a>
</g>
</g>
<!-- Node3&#45;&gt;Node4 -->
<g id="edge3" class="edge">
<title>Node3&#45;&gt;Node4</title>
<path fill="none" stroke="midnightblue" d="M1445.45,-246.46C1474.75,-239.61 1512.87,-228.08 1543,-210 1571.72,-192.76 1598.06,-163.65 1613.06,-145.29"/>
<polygon fill="midnightblue" stroke="midnightblue" points="1615.98,-147.24 1619.47,-137.23 1610.5,-142.88 1615.98,-147.24"/>
</g>
<!-- Node5 -->
<g id="node5" class="node">
<title>Node5</title>
<g id="a_node5"><a xlink:href="_sim_time_8_h.html" target="_top" xlink:title=" ">
<polygon fill="white" stroke="black" points="1409,-118 1409,-137 1553,-137 1553,-118 1409,-118"/>
<text text-anchor="middle" x="1481" y="-125" font-family="Helvetica,sans-Serif" font-size="10.00">amr&#45;wind/core/SimTime.H</text>
</a>
</g>
</g>
<!-- Node3&#45;&gt;Node5 -->
<g id="edge4" class="edge">
<title>Node3&#45;&gt;Node5</title>
<path fill="none" stroke="midnightblue" d="M1400.56,-246.34C1401.88,-231.47 1406.19,-200.62 1420,-179 1429.44,-164.22 1444.62,-151.63 1457.47,-142.72"/>
<polygon fill="midnightblue" stroke="midnightblue" points="1459.48,-145.58 1465.9,-137.15 1455.63,-139.74 1459.48,-145.58"/>
</g>
<!-- Node9 -->
<g id="node9" class="node">
<title>Node9</title>
<g id="a_node9"><a xlink:href="_field_repo_8_h.html" target="_top" xlink:title=" ">
<polygon fill="white" stroke="black" points="2163.5,-185 2163.5,-204 2312.5,-204 2312.5,-185 2163.5,-185"/>
<text text-anchor="middle" x="2238" y="-192" font-family="Helvetica,sans-Serif" font-size="10.00">amr&#45;wind/core/FieldRepo.H</text>
</a>
</g>
</g>
<!-- Node3&#45;&gt;Node9 -->
<g id="edge8" class="edge">
<title>Node3&#45;&gt;Node9</title>
<path fill="none" stroke="midnightblue" d="M1458.26,-250.86C1603.67,-240.54 1983.04,-213.6 2153.23,-201.52"/>
<polygon fill="midnightblue" stroke="midnightblue" points="2153.67,-205 2163.39,-200.8 2153.17,-198.01 2153.67,-205"/>
</g>
<!-- Node29 -->
<g id="node29" class="node">
<title>Node29</title>
<g id="a_node29"><a xlink:href="_p_d_e_base_8_h.html" target="_top" xlink:title=" ">
<polygon fill="white" stroke="black" points="745.5,-179.5 745.5,-209.5 900.5,-209.5 900.5,-179.5 745.5,-179.5"/>
<text text-anchor="start" x="753.5" y="-197.5" font-family="Helvetica,sans-Serif" font-size="10.00">amr&#45;wind/equation_systems</text>
<text text-anchor="middle" x="823" y="-186.5" font-family="Helvetica,sans-Serif" font-size="10.00">/PDEBase.H</text>
</a>
</g>
</g>
<!-- Node3&#45;&gt;Node29 -->
<g id="edge54" class="edge">
<title>Node3&#45;&gt;Node29</title>
<path fill="none" stroke="midnightblue" d="M1341.77,-248.99C1240.28,-238.53 1030.47,-216.89 911.11,-204.59"/>
<polygon fill="midnightblue" stroke="midnightblue" points="911.21,-201.08 900.91,-203.53 910.49,-208.04 911.21,-201.08"/>
</g>
<!-- Node37 -->
<g id="node37" class="node">
<title>Node37</title>
<g id="a_node37"><a xlink:href="_physics_8_h.html" target="_top" xlink:title=" ">
<polygon fill="white" stroke="black" points="301.5,-185 301.5,-204 438.5,-204 438.5,-185 301.5,-185"/>
<text text-anchor="middle" x="370" y="-192" font-family="Helvetica,sans-Serif" font-size="10.00">amr&#45;wind/core/Physics.H</text>
</a>
</g>
</g>
<!-- Node3&#45;&gt;Node37 -->
<g id="edge71" class="edge">
<title>Node3&#45;&gt;Node37</title>
<path fill="none" stroke="midnightblue" d="M1341.73,-254.51C1193.8,-252.78 791.84,-244.96 459,-210 448.27,-208.87 436.87,-207.3 425.94,-205.61"/>
<polygon fill="midnightblue" stroke="midnightblue" points="426.49,-202.15 416.06,-204.03 425.38,-209.06 426.49,-202.15"/>
</g>
<!-- Node39 -->
<g id="node39" class="node">
<title>Node39</title>
<g id="a_node39"><a xlink:href="_mesh_map_8_h.html" target="_top" xlink:title=" ">
<polygon fill="white" stroke="black" points="468,-185 468,-204 616,-204 616,-185 468,-185"/>
<text text-anchor="middle" x="542" y="-192" font-family="Helvetica,sans-Serif" font-size="10.00">amr&#45;wind/core/MeshMap.H</text>
</a>
</g>
</g>
<!-- Node3&#45;&gt;Node39 -->
<g id="edge76" class="edge">
<title>Node3&#45;&gt;Node39</title>
<path fill="none" stroke="midnightblue" d="M1341.81,-251.19C1226.31,-243.6 959.87,-225.95 736,-210 700.13,-207.44 660.53,-204.51 626.52,-201.94"/>
<polygon fill="midnightblue" stroke="midnightblue" points="626.38,-198.43 616.15,-201.16 625.86,-205.41 626.38,-198.43"/>
</g>
<!-- Node40 -->
<g id="node40" class="node">
<title>Node40</title>
<g id="a_node40"><a xlink:href="helics_8_h.html" target="_top" xlink:title=" ">
<polygon fill="white" stroke="black" points="1428.5,-185 1428.5,-204 1533.5,-204 1533.5,-185 1428.5,-185"/>
<text text-anchor="middle" x="1481" y="-192" font-family="Helvetica,sans-Serif" font-size="10.00">amr&#45;wind/helics.H</text>
</a>
</g>
</g>
<!-- Node3&#45;&gt;Node40 -->
<g id="edge82" class="edge">
<title>Node3&#45;&gt;Node40</title>
<path fill="none" stroke="midnightblue" d="M1406.7,-246.48C1417.72,-236.84 1438.95,-221.02 1456.04,-209.55"/>
<polygon fill="midnightblue" stroke="midnightblue" points="1458.06,-212.41 1464.52,-204.01 1454.23,-206.55 1458.06,-212.41"/>
</g>
<!-- Node6 -->
<g id="node6" class="node">
<title>Node6</title>
<g id="a_node6"><a xlink:title=" ">
<polygon fill="white" stroke="#bfbfbf" points="1700,-56.5 1700,-75.5 1792,-75.5 1792,-56.5 1700,-56.5"/>
<text text-anchor="middle" x="1746" y="-63.5" font-family="Helvetica,sans-Serif" font-size="10.00">AMReX_REAL.H</text>
</a>
</g>
</g>
<!-- Node5&#45;&gt;Node6 -->
<g id="edge5" class="edge">
<title>Node5&#45;&gt;Node6</title>
<path fill="none" stroke="midnightblue" d="M1518.97,-117.98C1566.2,-107.37 1646.86,-89.26 1698.24,-77.72"/>
<polygon fill="midnightblue" stroke="midnightblue" points="1699.11,-81.11 1708.1,-75.51 1697.58,-74.28 1699.11,-81.11"/>
</g>
<!-- Node7 -->
<g id="node7" class="node">
<title>Node7</title>
<g id="a_node7"><a xlink:title=" ">
<polygon fill="white" stroke="#bfbfbf" points="1414,-56.5 1414,-75.5 1548,-75.5 1548,-56.5 1414,-56.5"/>
<text text-anchor="middle" x="1481" y="-63.5" font-family="Helvetica,sans-Serif" font-size="10.00">AMReX_GpuQualifiers.H</text>
</a>
</g>
</g>
<!-- Node5&#45;&gt;Node7 -->
<g id="edge6" class="edge">
<title>Node5&#45;&gt;Node7</title>
<path fill="none" stroke="midnightblue" d="M1481,-117.98C1481,-109.58 1481,-96.48 1481,-85.66"/>
<polygon fill="midnightblue" stroke="midnightblue" points="1484.5,-85.51 1481,-75.51 1477.5,-85.51 1484.5,-85.51"/>
</g>
<!-- Node8 -->
<g id="node8" class="node">
<title>Node8</title>
<g id="a_node8"><a xlink:title=" ">
<polygon fill="white" stroke="#bfbfbf" points="1566,-56.5 1566,-75.5 1682,-75.5 1682,-56.5 1566,-56.5"/>
<text text-anchor="middle" x="1624" y="-63.5" font-family="Helvetica,sans-Serif" font-size="10.00">AMReX_Extension.H</text>
</a>
</g>
</g>
<!-- Node5&#45;&gt;Node8 -->
<g id="edge7" class="edge">
<title>Node5&#45;&gt;Node8</title>
<path fill="none" stroke="midnightblue" d="M1501.49,-117.98C1525.81,-107.86 1566.55,-90.9 1594.32,-79.35"/>
<polygon fill="midnightblue" stroke="midnightblue" points="1595.66,-82.58 1603.55,-75.51 1592.97,-76.12 1595.66,-82.58"/>
</g>
<!-- Node9&#45;&gt;Node4 -->
<g id="edge51" class="edge">
<title>Node9&#45;&gt;Node4</title>
<path fill="none" stroke="midnightblue" d="M2163.26,-185.56C2042.39,-172.72 1806.01,-147.62 1691.41,-135.45"/>
<polygon fill="midnightblue" stroke="midnightblue" points="1691.68,-131.96 1681.37,-134.38 1690.94,-138.92 1691.68,-131.96"/>
</g>
<!-- Node10 -->
<g id="node10" class="node">
<title>Node10</title>
<g id="a_node10"><a xlink:title=" ">
<polygon fill="white" stroke="#bfbfbf" points="2058,-0.5 2058,-19.5 2102,-19.5 2102,-0.5 2058,-0.5"/>
<text text-anchor="middle" x="2080" y="-7.5" font-family="Helvetica,sans-Serif" font-size="10.00">string</text>
</a>
</g>
</g>
<!-- Node9&#45;&gt;Node10 -->
<g id="edge9" class="edge">
<title>Node9&#45;&gt;Node10</title>
<path fill="none" stroke="midnightblue" d="M2312.95,-189.34C2423.05,-182.45 2617.82,-167.01 2639,-143 2651.37,-128.97 2638.45,-63.81 2630,-56 2620.42,-47.14 2228.51,-20.75 2112.21,-13.1"/>
<polygon fill="midnightblue" stroke="midnightblue" points="2112.35,-9.6 2102.14,-12.44 2111.89,-16.59 2112.35,-9.6"/>
</g>
<!-- Node11 -->
<g id="node11" class="node">
<title>Node11</title>
<g id="a_node11"><a xlink:title=" ">
<polygon fill="white" stroke="#bfbfbf" points="581.5,-56.5 581.5,-75.5 674.5,-75.5 674.5,-56.5 581.5,-56.5"/>
<text text-anchor="middle" x="628" y="-63.5" font-family="Helvetica,sans-Serif" font-size="10.00">unordered_map</text>
</a>
</g>
</g>
<!-- Node9&#45;&gt;Node11 -->
<g id="edge10" class="edge">
<title>Node9&#45;&gt;Node11</title>
<path fill="none" stroke="midnightblue" d="M2163.28,-191.7C1937.17,-186.02 1262.43,-167.45 1044,-143 908.89,-127.87 751.56,-94.86 674.87,-77.76"/>
<polygon fill="midnightblue" stroke="midnightblue" points="675.56,-74.32 665.03,-75.55 674.03,-81.15 675.56,-74.32"/>
</g>
<!-- Node12 -->
<g id="node12" class="node">
<title>Node12</title>
<g id="a_node12"><a xlink:href="_field_desc_types_8_h.html" target="_top" xlink:title=" ">
<polygon fill="white" stroke="black" points="2249,-0.5 2249,-19.5 2425,-19.5 2425,-0.5 2249,-0.5"/>
<text text-anchor="middle" x="2337" y="-7.5" font-family="Helvetica,sans-Serif" font-size="10.00">amr&#45;wind/core/FieldDescTypes.H</text>
</a>
</g>
</g>
<!-- Node9&#45;&gt;Node12 -->
<g id="edge11" class="edge">
<title>Node9&#45;&gt;Node12</title>
<path fill="none" stroke="midnightblue" d="M2312.51,-192.77C2470.16,-189.37 2828.26,-171.11 2892,-76 2896.95,-68.62 2898.03,-62.53 2892,-56 2861.75,-23.2 2586.44,-14.3 2435.3,-11.89"/>
<polygon fill="midnightblue" stroke="midnightblue" points="2435.13,-8.39 2425.08,-11.74 2435.03,-15.39 2435.13,-8.39"/>
</g>
<!-- Node13 -->
<g id="node13" class="node">
<title>Node13</title>
<g id="a_node13"><a xlink:href="_field_utils_8_h.html" target="_top" xlink:title=" ">
<polygon fill="white" stroke="black" points="2737,-56.5 2737,-75.5 2883,-75.5 2883,-56.5 2737,-56.5"/>
<text text-anchor="middle" x="2810" y="-63.5" font-family="Helvetica,sans-Serif" font-size="10.00">amr&#45;wind/core/FieldUtils.H</text>
</a>
</g>
</g>
<!-- Node9&#45;&gt;Node13 -->
<g id="edge12" class="edge">
<title>Node9&#45;&gt;Node13</title>
<path fill="none" stroke="midnightblue" d="M2312.95,-188.95C2421.82,-181.68 2618.03,-165.89 2685,-143 2726.13,-128.94 2768.13,-99.71 2791.46,-81.88"/>
<polygon fill="midnightblue" stroke="midnightblue" points="2793.7,-84.57 2799.44,-75.66 2789.4,-79.05 2793.7,-84.57"/>
</g>
<!-- Node14 -->
<g id="node14" class="node">
<title>Node14</title>
<g id="a_node14"><a xlink:title=" ">
<polygon fill="white" stroke="#bfbfbf" points="1765.5,-0.5 1765.5,-19.5 1874.5,-19.5 1874.5,-0.5 1765.5,-0.5"/>
<text text-anchor="middle" x="1820" y="-7.5" font-family="Helvetica,sans-Serif" font-size="10.00">AMReX_MultiFab.H</text>
</a>
</g>
</g>
<!-- Node9&#45;&gt;Node14 -->
<g id="edge52" class="edge">
<title>Node9&#45;&gt;Node14</title>
<path fill="none" stroke="midnightblue" d="M2163.41,-185.12C2083.45,-172.87 1956.27,-143.67 1869,-76 1852.3,-63.05 1838.4,-43.06 1829.72,-28.67"/>
<polygon fill="midnightblue" stroke="midnightblue" points="1832.6,-26.66 1824.57,-19.75 1826.54,-30.16 1832.6,-26.66"/>
</g>
<!-- Node16 -->
<g id="node16" class="node">
<title>Node16</title>
<g id="a_node16"><a xlink:href="_field_8_h.html" target="_top" xlink:title=" ">
<polygon fill="white" stroke="black" points="1053,-118 1053,-137 1177,-137 1177,-118 1053,-118"/>
<text text-anchor="middle" x="1115" y="-125" font-family="Helvetica,sans-Serif" font-size="10.00">amr&#45;wind/core/Field.H</text>
</a>
</g>
</g>
<!-- Node9&#45;&gt;Node16 -->
<g id="edge16" class="edge">
<title>Node9&#45;&gt;Node16</title>
<path fill="none" stroke="midnightblue" d="M2163.45,-189.18C1958.69,-177.33 1389.5,-144.39 1187.36,-132.69"/>
<polygon fill="midnightblue" stroke="midnightblue" points="1187.34,-129.18 1177.16,-132.1 1186.94,-136.17 1187.34,-129.18"/>
</g>
<!-- Node23 -->
<g id="node23" class="node">
<title>Node23</title>
<g id="a_node23"><a xlink:href="_int_field_8_h.html" target="_top" xlink:title=" ">
<polygon fill="white" stroke="black" points="2492.5,-118 2492.5,-137 2629.5,-137 2629.5,-118 2492.5,-118"/>
<text text-anchor="middle" x="2561" y="-125" font-family="Helvetica,sans-Serif" font-size="10.00">amr&#45;wind/core/IntField.H</text>
</a>
</g>
</g>
<!-- Node9&#45;&gt;Node23 -->
<g id="edge31" class="edge">
<title>Node9&#45;&gt;Node23</title>
<path fill="none" stroke="midnightblue" d="M2280.56,-184.94C2339.34,-173.11 2445.3,-151.78 2508.79,-139.01"/>
<polygon fill="midnightblue" stroke="midnightblue" points="2509.49,-142.44 2518.6,-137.03 2508.11,-135.57 2509.49,-142.44"/>
</g>
<!-- Node24 -->
<g id="node24" class="node">
<title>Node24</title>
<g id="a_node24"><a xlink:title=" ">
<polygon fill="white" stroke="#bfbfbf" points="2493,-56.5 2493,-75.5 2605,-75.5 2605,-56.5 2493,-56.5"/>
<text text-anchor="middle" x="2549" y="-63.5" font-family="Helvetica,sans-Serif" font-size="10.00">AMReX_iMultiFab.H</text>
</a>
</g>
</g>
<!-- Node9&#45;&gt;Node24 -->
<g id="edge53" class="edge">
<title>Node9&#45;&gt;Node24</title>
<path fill="none" stroke="midnightblue" d="M2281.25,-184.99C2319.04,-176.75 2374.91,-162.63 2421,-143 2461.06,-125.94 2503.83,-98.42 2528.39,-81.59"/>
<polygon fill="midnightblue" stroke="midnightblue" points="2530.65,-84.29 2536.87,-75.71 2526.66,-78.54 2530.65,-84.29"/>
</g>
<!-- Node25 -->
<g id="node25" class="node">
<title>Node25</title>
<g id="a_node25"><a xlink:href="_scratch_field_8_h.html" target="_top" xlink:title=" ">
<polygon fill="white" stroke="black" points="2039,-118 2039,-137 2199,-137 2199,-118 2039,-118"/>
<text text-anchor="middle" x="2119" y="-125" font-family="Helvetica,sans-Serif" font-size="10.00">amr&#45;wind/core/ScratchField.H</text>
</a>
</g>
</g>
<!-- Node9&#45;&gt;Node25 -->
<g id="edge35" class="edge">
<title>Node9&#45;&gt;Node25</title>
<path fill="none" stroke="midnightblue" d="M2221.95,-184.73C2201.88,-173.77 2167.3,-154.88 2143.81,-142.05"/>
<polygon fill="midnightblue" stroke="midnightblue" points="2145.25,-138.85 2134.79,-137.13 2141.89,-144.99 2145.25,-138.85"/>
</g>
<!-- Node28 -->
<g id="node28" class="node">
<title>Node28</title>
<g id="a_node28"><a xlink:href="_int_scratch_field_8_h.html" target="_top" xlink:title=" ">
<polygon fill="white" stroke="black" points="2272.5,-112.5 2272.5,-142.5 2411.5,-142.5 2411.5,-112.5 2272.5,-112.5"/>
<text text-anchor="start" x="2280.5" y="-130.5" font-family="Helvetica,sans-Serif" font-size="10.00">amr&#45;wind/core/IntScratch</text>
<text text-anchor="middle" x="2342" y="-119.5" font-family="Helvetica,sans-Serif" font-size="10.00">Field.H</text>
</a>
</g>
</g>
<!-- Node9&#45;&gt;Node28 -->
<g id="edge43" class="edge">
<title>Node9&#45;&gt;Node28</title>
<path fill="none" stroke="midnightblue" d="M2252.03,-184.73C2267.03,-175.36 2291.3,-160.19 2310.85,-147.97"/>
<polygon fill="midnightblue" stroke="midnightblue" points="2312.83,-150.86 2319.46,-142.59 2309.12,-144.92 2312.83,-150.86"/>
</g>
<!-- Node13&#45;&gt;Node12 -->
<g id="edge13" class="edge">
<title>Node13&#45;&gt;Node12</title>
<path fill="none" stroke="midnightblue" d="M2736.87,-56.65C2651.85,-46.95 2511.75,-30.95 2421.97,-20.7"/>
<polygon fill="midnightblue" stroke="midnightblue" points="2422.15,-17.2 2411.82,-19.54 2421.36,-24.15 2422.15,-17.2"/>
</g>
<!-- Node13&#45;&gt;Node14 -->
<g id="edge14" class="edge">
<title>Node13&#45;&gt;Node14</title>
<path fill="none" stroke="midnightblue" d="M2736.75,-61.53C2537.13,-52.04 1993.1,-26 1912,-20 1903.28,-19.36 1894.1,-18.58 1885.06,-17.75"/>
<polygon fill="midnightblue" stroke="midnightblue" points="1885.22,-14.25 1874.94,-16.8 1884.57,-21.22 1885.22,-14.25"/>
</g>
<!-- Node15 -->
<g id="node15" class="node">
<title>Node15</title>
<g id="a_node15"><a xlink:title=" ">
<polygon fill="white" stroke="#bfbfbf" points="2748,-0.5 2748,-19.5 2872,-19.5 2872,-0.5 2748,-0.5"/>
<text text-anchor="middle" x="2810" y="-7.5" font-family="Helvetica,sans-Serif" font-size="10.00">AMReX_Interpolater.H</text>
</a>
</g>
</g>
<!-- Node13&#45;&gt;Node15 -->
<g id="edge15" class="edge">
<title>Node13&#45;&gt;Node15</title>
<path fill="none" stroke="midnightblue" d="M2810,-56.08C2810,-49.01 2810,-38.86 2810,-29.99"/>
<polygon fill="midnightblue" stroke="midnightblue" points="2813.5,-29.75 2810,-19.75 2806.5,-29.75 2813.5,-29.75"/>
</g>
<!-- Node16&#45;&gt;Node2 -->
<g id="edge18" class="edge">
<title>Node16&#45;&gt;Node2</title>
<path fill="none" stroke="midnightblue" d="M1052.98,-123.76C898.99,-116.75 501.18,-97.3 348.49,-75.94"/>
<polygon fill="midnightblue" stroke="midnightblue" points="348.76,-72.44 338.36,-74.47 347.76,-79.37 348.76,-72.44"/>
</g>
<!-- Node16&#45;&gt;Node10 -->
<g id="edge17" class="edge">
<title>Node16&#45;&gt;Node10</title>
<path fill="none" stroke="midnightblue" d="M1163.82,-117.92C1207.72,-109.52 1273.63,-95.18 1329,-76 1348.92,-69.1 1351.55,-61.11 1372,-56 1655.27,14.85 1737.87,-52.95 2028,-20 2034.45,-19.27 2041.32,-18.25 2047.87,-17.16"/>
<polygon fill="midnightblue" stroke="midnightblue" points="2048.57,-20.59 2057.81,-15.43 2047.36,-13.7 2048.57,-20.59"/>
</g>
<!-- Node16&#45;&gt;Node11 -->
<g id="edge19" class="edge">
<title>Node16&#45;&gt;Node11</title>
<path fill="none" stroke="midnightblue" d="M1052.8,-120.06C970.97,-111.39 822.44,-95.01 685.02,-76.09"/>
<polygon fill="midnightblue" stroke="midnightblue" points="685.11,-72.57 674.73,-74.66 684.15,-79.5 685.11,-72.57"/>
</g>
<!-- Node16&#45;&gt;Node12 -->
<g id="edge25" class="edge">
<title>Node16&#45;&gt;Node12</title>
<path fill="none" stroke="midnightblue" d="M1177.03,-118.39C1228.12,-110.66 1301.97,-97.04 1364,-76 1383.2,-69.49 1385.36,-61.04 1405,-56 1424.97,-50.88 2002.67,-25.44 2238.35,-15.24"/>
<polygon fill="midnightblue" stroke="midnightblue" points="2238.79,-18.73 2248.63,-14.8 2238.48,-11.73 2238.79,-18.73"/>
</g>
<!-- Node16&#45;&gt;Node14 -->
<g id="edge21" class="edge">
<title>Node16&#45;&gt;Node14</title>
<path fill="none" stroke="midnightblue" d="M1087.7,-117.95C1052.81,-105.7 999.63,-81.78 1024,-56 1048.99,-29.56 1569.97,-16.19 1755.28,-12.26"/>
<polygon fill="midnightblue" stroke="midnightblue" points="1755.5,-15.76 1765.42,-12.05 1755.35,-8.76 1755.5,-15.76"/>
</g>
<!-- Node17 -->
<g id="node17" class="node">
<title>Node17</title>
<g id="a_node17"><a xlink:title=" ">
<polygon fill="white" stroke="#bfbfbf" points="1033,-56.5 1033,-75.5 1097,-75.5 1097,-56.5 1033,-56.5"/>
<text text-anchor="middle" x="1065" y="-63.5" font-family="Helvetica,sans-Serif" font-size="10.00">algorithm</text>
</a>
</g>
</g>
<!-- Node16&#45;&gt;Node17 -->
<g id="edge20" class="edge">
<title>Node16&#45;&gt;Node17</title>
<path fill="none" stroke="midnightblue" d="M1107.84,-117.98C1100.26,-108.96 1088.13,-94.52 1078.71,-83.31"/>
<polygon fill="midnightblue" stroke="midnightblue" points="1081.26,-80.91 1072.15,-75.51 1075.9,-85.42 1081.26,-80.91"/>
</g>
<!-- Node18 -->
<g id="node18" class="node">
<title>Node18</title>
<g id="a_node18"><a xlink:title=" ">
<polygon fill="white" stroke="#bfbfbf" points="1115.5,-56.5 1115.5,-75.5 1214.5,-75.5 1214.5,-56.5 1115.5,-56.5"/>
<text text-anchor="middle" x="1165" y="-63.5" font-family="Helvetica,sans-Serif" font-size="10.00">AMReX_BCRec.H</text>
</a>
</g>
</g>
<!-- Node16&#45;&gt;Node18 -->
<g id="edge22" class="edge">
<title>Node16&#45;&gt;Node18</title>
<path fill="none" stroke="midnightblue" d="M1122.16,-117.98C1129.74,-108.96 1141.87,-94.52 1151.29,-83.31"/>
<polygon fill="midnightblue" stroke="midnightblue" points="1154.1,-85.42 1157.85,-75.51 1148.74,-80.91 1154.1,-85.42"/>
</g>
<!-- Node19 -->
<g id="node19" class="node">
<title>Node19</title>
<g id="a_node19"><a xlink:title=" ">
<polygon fill="white" stroke="#bfbfbf" points="1232.5,-56.5 1232.5,-75.5 1319.5,-75.5 1319.5,-56.5 1232.5,-56.5"/>
<text text-anchor="middle" x="1276" y="-63.5" font-family="Helvetica,sans-Serif" font-size="10.00">AMReX_Gpu.H</text>
</a>
</g>
</g>
<!-- Node16&#45;&gt;Node19 -->
<g id="edge23" class="edge">
<title>Node16&#45;&gt;Node19</title>
<path fill="none" stroke="midnightblue" d="M1138.07,-117.98C1165.68,-107.77 1212.12,-90.61 1243.4,-79.05"/>
<polygon fill="midnightblue" stroke="midnightblue" points="1244.81,-82.26 1252.98,-75.51 1242.38,-75.69 1244.81,-82.26"/>
</g>
<!-- Node20 -->
<g id="node20" class="node">
<title>Node20</title>
<g id="a_node20"><a xlink:href="incflo__enums_8_h.html" target="_top" xlink:title=" ">
<polygon fill="white" stroke="black" points="835.5,-56.5 835.5,-75.5 976.5,-75.5 976.5,-56.5 835.5,-56.5"/>
<text text-anchor="middle" x="906" y="-63.5" font-family="Helvetica,sans-Serif" font-size="10.00">amr&#45;wind/incflo_enums.H</text>
</a>
</g>
</g>
<!-- Node16&#45;&gt;Node20 -->
<g id="edge24" class="edge">
<title>Node16&#45;&gt;Node20</title>
<path fill="none" stroke="midnightblue" d="M1085.06,-117.98C1048.43,-107.55 986.3,-89.86 945.72,-78.31"/>
<polygon fill="midnightblue" stroke="midnightblue" points="946.47,-74.88 935.89,-75.51 944.55,-81.61 946.47,-74.88"/>
</g>
<!-- Node21 -->
<g id="node21" class="node">
<title>Node21</title>
<g id="a_node21"><a xlink:href="_view_field_8_h.html" target="_top" xlink:title=" ">
<polygon fill="white" stroke="black" points="1924,-56.5 1924,-75.5 2072,-75.5 2072,-56.5 1924,-56.5"/>
<text text-anchor="middle" x="1998" y="-63.5" font-family="Helvetica,sans-Serif" font-size="10.00">amr&#45;wind/core/ViewField.H</text>
</a>
</g>
</g>
<!-- Node16&#45;&gt;Node21 -->
<g id="edge26" class="edge">
<title>Node16&#45;&gt;Node21</title>
<path fill="none" stroke="midnightblue" d="M1177.09,-122.32C1332.28,-111.86 1737.22,-84.57 1913.72,-72.68"/>
<polygon fill="midnightblue" stroke="midnightblue" points="1913.99,-76.17 1923.73,-72 1913.52,-69.18 1913.99,-76.17"/>
</g>
<!-- Node21&#45;&gt;Node10 -->
<g id="edge27" class="edge">
<title>Node21&#45;&gt;Node10</title>
<path fill="none" stroke="midnightblue" d="M2011.17,-56.32C2023.85,-47.98 2043.23,-35.21 2058.21,-25.35"/>
<polygon fill="midnightblue" stroke="midnightblue" points="2060.43,-28.08 2066.86,-19.65 2056.58,-22.23 2060.43,-28.08"/>
</g>
<!-- Node21&#45;&gt;Node12 -->
<g id="edge28" class="edge">
<title>Node21&#45;&gt;Node12</title>
<path fill="none" stroke="midnightblue" d="M2051.72,-56.44C2111.97,-46.85 2209.61,-31.29 2273.57,-21.1"/>
<polygon fill="midnightblue" stroke="midnightblue" points="2274.21,-24.55 2283.54,-19.52 2273.11,-17.63 2274.21,-24.55"/>
</g>
<!-- Node21&#45;&gt;Node14 -->
<g id="edge29" class="edge">
<title>Node21&#45;&gt;Node14</title>
<path fill="none" stroke="midnightblue" d="M1969.8,-56.44C1939.59,-47.28 1891.49,-32.69 1857.97,-22.52"/>
<polygon fill="midnightblue" stroke="midnightblue" points="1858.66,-19.07 1848.07,-19.52 1856.63,-25.77 1858.66,-19.07"/>
</g>
<!-- Node22 -->
<g id="node22" class="node">
<title>Node22</title>
<g id="a_node22"><a xlink:title=" ">
<polygon fill="white" stroke="#bfbfbf" points="1921,-0.5 1921,-19.5 2019,-19.5 2019,-0.5 1921,-0.5"/>
<text text-anchor="middle" x="1970" y="-7.5" font-family="Helvetica,sans-Serif" font-size="10.00">AMReX_Vector.H</text>
</a>
</g>
</g>
<!-- Node21&#45;&gt;Node22 -->
<g id="edge30" class="edge">
<title>Node21&#45;&gt;Node22</title>
<path fill="none" stroke="midnightblue" d="M1993.38,-56.08C1989.54,-48.69 1983.98,-37.95 1979.24,-28.81"/>
<polygon fill="midnightblue" stroke="midnightblue" points="1982.25,-27.02 1974.54,-19.75 1976.03,-30.24 1982.25,-27.02"/>
</g>
<!-- Node23&#45;&gt;Node10 -->
<g id="edge32" class="edge">
<title>Node23&#45;&gt;Node10</title>
<path fill="none" stroke="midnightblue" d="M2575.74,-117.83C2597.35,-104.09 2633.07,-76.74 2614,-56 2605.45,-46.7 2226.86,-20.78 2112.43,-13.14"/>
<polygon fill="midnightblue" stroke="midnightblue" points="2112.41,-9.63 2102.2,-12.46 2111.94,-16.62 2112.41,-9.63"/>
</g>
<!-- Node23&#45;&gt;Node12 -->
<g id="edge33" class="edge">
<title>Node23&#45;&gt;Node12</title>
<path fill="none" stroke="midnightblue" d="M2586.63,-117.99C2619.41,-105.78 2669.42,-81.91 2647,-56 2619.95,-24.75 2515.74,-14.74 2435.53,-11.77"/>
<polygon fill="midnightblue" stroke="midnightblue" points="2435.49,-8.27 2425.38,-11.43 2435.25,-15.26 2435.49,-8.27"/>
</g>
<!-- Node23&#45;&gt;Node24 -->
<g id="edge34" class="edge">
<title>Node23&#45;&gt;Node24</title>
<path fill="none" stroke="midnightblue" d="M2559.28,-117.98C2557.57,-109.49 2554.89,-96.2 2552.7,-85.32"/>
<polygon fill="midnightblue" stroke="midnightblue" points="2556.12,-84.62 2550.72,-75.51 2549.26,-86 2556.12,-84.62"/>
</g>
<!-- Node25&#45;&gt;Node10 -->
<g id="edge36" class="edge">
<title>Node25&#45;&gt;Node10</title>
<path fill="none" stroke="midnightblue" d="M2116.07,-117.82C2109.74,-99.09 2094.7,-54.55 2086.18,-29.29"/>
<polygon fill="midnightblue" stroke="midnightblue" points="2089.48,-28.14 2082.97,-19.78 2082.85,-30.38 2089.48,-28.14"/>
</g>
<!-- Node25&#45;&gt;Node12 -->
<g id="edge38" class="edge">
<title>Node25&#45;&gt;Node12</title>
<path fill="none" stroke="midnightblue" d="M2121.38,-117.61C2125.9,-102.54 2137.16,-72.04 2158,-56 2181.17,-38.17 2210.56,-27.33 2238.8,-20.77"/>
<polygon fill="midnightblue" stroke="midnightblue" points="2239.69,-24.16 2248.73,-18.62 2238.21,-17.31 2239.69,-24.16"/>
</g>
<!-- Node25&#45;&gt;Node14 -->
<g id="edge40" class="edge">
<title>Node25&#45;&gt;Node14</title>
<path fill="none" stroke="midnightblue" d="M2052.34,-117.97C2009.11,-110.7 1952.42,-97.85 1906,-76 1879.18,-63.37 1852.63,-41.49 1836.28,-26.64"/>
<polygon fill="midnightblue" stroke="midnightblue" points="1838.41,-23.85 1828.71,-19.6 1833.65,-28.97 1838.41,-23.85"/>
</g>
<!-- Node25&#45;&gt;Node21 -->
<g id="edge39" class="edge">
<title>Node25&#45;&gt;Node21</title>
<path fill="none" stroke="midnightblue" d="M2101.66,-117.98C2081.45,-108.03 2047.81,-91.49 2024.36,-79.96"/>
<polygon fill="midnightblue" stroke="midnightblue" points="2025.82,-76.78 2015.3,-75.51 2022.73,-83.06 2025.82,-76.78"/>
</g>
<!-- Node25&#45;&gt;Node22 -->
<g id="edge41" class="edge">
<title>Node25&#45;&gt;Node22</title>
<path fill="none" stroke="midnightblue" d="M2046.4,-118C1994.58,-110.27 1931.3,-96.83 1915,-76 1900.87,-57.95 1924.04,-37.92 1944.5,-24.93"/>
<polygon fill="midnightblue" stroke="midnightblue" points="1946.51,-27.81 1953.28,-19.65 1942.9,-21.81 1946.51,-27.81"/>
</g>
<!-- Node26 -->
<g id="node26" class="node">
<title>Node26</title>
<g id="a_node26"><a xlink:title=" ">
<polygon fill="white" stroke="#bfbfbf" points="2315.5,-56.5 2315.5,-75.5 2360.5,-75.5 2360.5,-56.5 2315.5,-56.5"/>
<text text-anchor="middle" x="2338" y="-63.5" font-family="Helvetica,sans-Serif" font-size="10.00">utility</text>
</a>
</g>
</g>
<!-- Node25&#45;&gt;Node26 -->
<g id="edge37" class="edge">
<title>Node25&#45;&gt;Node26</title>
<path fill="none" stroke="midnightblue" d="M2151.66,-117.94C2187.22,-108.57 2246.02,-92.95 2305.41,-76.41"/>
<polygon fill="midnightblue" stroke="midnightblue" points="2306.64,-79.7 2315.33,-73.64 2304.76,-72.96 2306.64,-79.7"/>
</g>
<!-- Node27 -->
<g id="node27" class="node">
<title>Node27</title>
<g id="a_node27"><a xlink:title=" ">
<polygon fill="white" stroke="#bfbfbf" points="2166.5,-56.5 2166.5,-75.5 2297.5,-75.5 2297.5,-56.5 2166.5,-56.5"/>
<text text-anchor="middle" x="2232" y="-63.5" font-family="Helvetica,sans-Serif" font-size="10.00">AMReX_PhysBCFunct.H</text>
</a>
</g>
</g>
<!-- Node25&#45;&gt;Node27 -->
<g id="edge42" class="edge">
<title>Node25&#45;&gt;Node27</title>
<path fill="none" stroke="midnightblue" d="M2135.19,-117.98C2153.9,-108.12 2184.92,-91.79 2206.8,-80.27"/>
<polygon fill="midnightblue" stroke="midnightblue" points="2208.62,-83.27 2215.84,-75.51 2205.36,-77.07 2208.62,-83.27"/>
</g>
<!-- Node28&#45;&gt;Node10 -->
<g id="edge44" class="edge">
<title>Node28&#45;&gt;Node10</title>
<path fill="none" stroke="midnightblue" d="M2368.47,-112.43C2391.92,-98.19 2420,-75.53 2403,-56 2384.05,-34.23 2190.36,-18.59 2112.32,-13.13"/>
<polygon fill="midnightblue" stroke="midnightblue" points="2112.33,-9.62 2102.11,-12.42 2111.85,-16.6 2112.33,-9.62"/>
</g>
<!-- Node28&#45;&gt;Node12 -->
<g id="edge46" class="edge">
<title>Node28&#45;&gt;Node12</title>
<path fill="none" stroke="midnightblue" d="M2391.85,-112.41C2424.27,-100.53 2457.68,-81.4 2441,-56 2430.43,-39.91 2412.74,-29.54 2394.92,-22.88"/>
<polygon fill="midnightblue" stroke="midnightblue" points="2395.64,-19.43 2385.05,-19.54 2393.4,-26.06 2395.64,-19.43"/>
</g>
<!-- Node28&#45;&gt;Node21 -->
<g id="edge47" class="edge">
<title>Node28&#45;&gt;Node21</title>
<path fill="none" stroke="midnightblue" d="M2272.39,-114.46C2209.19,-103.53 2117.01,-87.58 2057.26,-77.25"/>
<polygon fill="midnightblue" stroke="midnightblue" points="2057.68,-73.77 2047.23,-75.52 2056.49,-80.67 2057.68,-73.77"/>
</g>
<!-- Node28&#45;&gt;Node22 -->
<g id="edge49" class="edge">
<title>Node28&#45;&gt;Node22</title>
<path fill="none" stroke="midnightblue" d="M2355.59,-112.25C2368.67,-96.8 2384.48,-72.2 2370,-56 2322.16,-2.49 2120.33,-28.06 2049,-20 2042.7,-19.29 2036.12,-18.54 2029.55,-17.8"/>
<polygon fill="midnightblue" stroke="midnightblue" points="2029.64,-14.28 2019.3,-16.63 2028.84,-21.24 2029.64,-14.28"/>
</g>
<!-- Node28&#45;&gt;Node24 -->
<g id="edge48" class="edge">
<title>Node28&#45;&gt;Node24</title>
<path fill="none" stroke="midnightblue" d="M2390.79,-112.47C2426.97,-102.08 2475.67,-88.08 2509.44,-78.37"/>
<polygon fill="midnightblue" stroke="midnightblue" points="2510.76,-81.63 2519.41,-75.51 2508.83,-74.91 2510.76,-81.63"/>
</g>
<!-- Node28&#45;&gt;Node26 -->
<g id="edge45" class="edge">
<title>Node28&#45;&gt;Node26</title>
<path fill="none" stroke="midnightblue" d="M2341.05,-112.4C2340.52,-104.47 2339.85,-94.46 2339.27,-85.86"/>
<polygon fill="midnightblue" stroke="midnightblue" points="2342.74,-85.4 2338.58,-75.66 2335.76,-85.87 2342.74,-85.4"/>
</g>
<!-- Node28&#45;&gt;Node27 -->
<g id="edge50" class="edge">
<title>Node28&#45;&gt;Node27</title>
<path fill="none" stroke="midnightblue" d="M2315.93,-112.4C2298.13,-102.77 2274.69,-90.09 2257.1,-80.58"/>
<polygon fill="midnightblue" stroke="midnightblue" points="2258.47,-77.34 2248.01,-75.66 2255.14,-83.49 2258.47,-77.34"/>
</g>
<!-- Node29&#45;&gt;Node10 -->
<g id="edge55" class="edge">
<title>Node29&#45;&gt;Node10</title>
<path fill="none" stroke="midnightblue" d="M819.66,-179.33C815.79,-163.05 809.16,-135.54 803,-112 798.8,-95.93 795.24,-92.45 793,-76 791.8,-67.19 786.81,-62.38 793,-56 840.82,-6.76 1959.7,-26.87 2028,-20 2034.46,-19.35 2041.33,-18.37 2047.89,-17.29"/>
<polygon fill="midnightblue" stroke="midnightblue" points="2048.58,-20.72 2057.83,-15.55 2047.37,-13.83 2048.58,-20.72"/>
</g>
<!-- Node29&#45;&gt;Node12 -->
<g id="edge69" class="edge">
<title>Node29&#45;&gt;Node12</title>
<path fill="none" stroke="midnightblue" d="M822.79,-179.32C822.35,-145.07 821.71,-60.32 826,-56 851.17,-30.67 2075.31,-21.21 2111,-20 2152.79,-18.58 2198.91,-16.79 2238.54,-15.17"/>
<polygon fill="midnightblue" stroke="midnightblue" points="2238.88,-18.66 2248.73,-14.76 2238.6,-11.67 2238.88,-18.66"/>
</g>
<!-- Node29&#45;&gt;Node20 -->
<g id="edge70" class="edge">
<title>Node29&#45;&gt;Node20</title>
<path fill="none" stroke="midnightblue" d="M868.18,-179.34C885.35,-171.51 903.13,-159.85 913,-143 923.33,-125.37 918.67,-101.4 913.34,-85.13"/>
<polygon fill="midnightblue" stroke="midnightblue" points="916.61,-83.88 909.88,-75.69 910.03,-86.28 916.61,-83.88"/>
</g>
<!-- Node30 -->
<g id="node30" class="node">
<title>Node30</title>
<g id="a_node30"><a xlink:href="_factory_8_h.html" target="_top" xlink:title=" ">
<polygon fill="white" stroke="black" points="160,-118 160,-137 294,-137 294,-118 160,-118"/>
<text text-anchor="middle" x="227" y="-125" font-family="Helvetica,sans-Serif" font-size="10.00">amr&#45;wind/core/Factory.H</text>
</a>
</g>
</g>
<!-- Node29&#45;&gt;Node30 -->
<g id="edge56" class="edge">
<title>Node29&#45;&gt;Node30</title>
<path fill="none" stroke="midnightblue" d="M745.21,-188.18C643.3,-180.71 459.22,-165.44 303,-143 294.87,-141.83 286.29,-140.4 277.94,-138.88"/>
<polygon fill="midnightblue" stroke="midnightblue" points="278.38,-135.41 267.9,-137.02 277.1,-142.29 278.38,-135.41"/>
</g>
<!-- Node34 -->
<g id="node34" class="node">
<title>Node34</title>
<g id="a_node34"><a xlink:href="_coll_mgr_8_h.html" target="_top" xlink:title=" ">
<polygon fill="white" stroke="black" points="484.5,-118 484.5,-137 621.5,-137 621.5,-118 484.5,-118"/>
<text text-anchor="middle" x="553" y="-125" font-family="Helvetica,sans-Serif" font-size="10.00">amr&#45;wind/core/CollMgr.H</text>
</a>
</g>
</g>
<!-- Node29&#45;&gt;Node34 -->
<g id="edge62" class="edge">
<title>Node29&#45;&gt;Node34</title>
<path fill="none" stroke="midnightblue" d="M764.75,-179.48C714.88,-167.47 644.09,-150.43 598.35,-139.42"/>
<polygon fill="midnightblue" stroke="midnightblue" points="598.97,-135.97 588.43,-137.03 597.33,-142.77 598.97,-135.97"/>
</g>
<!-- Node35 -->
<g id="node35" class="node">
<title>Node35</title>
<g id="a_node35"><a xlink:href="_p_d_e_fields_8_h.html" target="_top" xlink:title=" ">
<polygon fill="white" stroke="black" points="639.5,-112.5 639.5,-142.5 794.5,-142.5 794.5,-112.5 639.5,-112.5"/>
<text text-anchor="start" x="647.5" y="-130.5" font-family="Helvetica,sans-Serif" font-size="10.00">amr&#45;wind/equation_systems</text>
<text text-anchor="middle" x="717" y="-119.5" font-family="Helvetica,sans-Serif" font-size="10.00">/PDEFields.H</text>
</a>
</g>
</g>
<!-- Node29&#45;&gt;Node35 -->
<g id="edge67" class="edge">
<title>Node29&#45;&gt;Node35</title>
<path fill="none" stroke="midnightblue" d="M800,-179.4C785,-170.2 765.21,-158.07 748.73,-147.95"/>
<polygon fill="midnightblue" stroke="midnightblue" points="750.31,-144.82 739.96,-142.58 746.65,-150.79 750.31,-144.82"/>
</g>
<!-- Node30&#45;&gt;Node2 -->
<g id="edge57" class="edge">
<title>Node30&#45;&gt;Node2</title>
<path fill="none" stroke="midnightblue" d="M238.75,-117.98C251.78,-108.52 273.04,-93.1 288.76,-81.69"/>
<polygon fill="midnightblue" stroke="midnightblue" points="291.23,-84.21 297.27,-75.51 287.12,-78.55 291.23,-84.21"/>
</g>
<!-- Node30&#45;&gt;Node11 -->
<g id="edge58" class="edge">
<title>Node30&#45;&gt;Node11</title>
<path fill="none" stroke="midnightblue" d="M269.54,-117.99C280.43,-115.92 292.13,-113.79 303,-112 396.77,-96.57 506.34,-82.14 571.3,-73.96"/>
<polygon fill="midnightblue" stroke="midnightblue" points="571.85,-77.42 581.33,-72.7 570.98,-70.47 571.85,-77.42"/>
</g>
<!-- Node31 -->
<g id="node31" class="node">
<title>Node31</title>
<g id="a_node31"><a xlink:title=" ">
<polygon fill="white" stroke="#bfbfbf" points="94,-56.5 94,-75.5 154,-75.5 154,-56.5 94,-56.5"/>
<text text-anchor="middle" x="124" y="-63.5" font-family="Helvetica,sans-Serif" font-size="10.00">iostream</text>
</a>
</g>
</g>
<!-- Node30&#45;&gt;Node31 -->
<g id="edge59" class="edge">
<title>Node30&#45;&gt;Node31</title>
<path fill="none" stroke="midnightblue" d="M212.24,-117.98C195.34,-108.21 167.42,-92.08 147.51,-80.58"/>
<polygon fill="midnightblue" stroke="midnightblue" points="149.14,-77.48 138.73,-75.51 145.64,-83.54 149.14,-77.48"/>
</g>
<!-- Node32 -->
<g id="node32" class="node">
<title>Node32</title>
<g id="a_node32"><a xlink:title=" ">
<polygon fill="white" stroke="#bfbfbf" points="172,-56.5 172,-75.5 262,-75.5 262,-56.5 172,-56.5"/>
<text text-anchor="middle" x="217" y="-63.5" font-family="Helvetica,sans-Serif" font-size="10.00">AMReX_Print.H</text>
</a>
</g>
</g>
<!-- Node30&#45;&gt;Node32 -->
<g id="edge60" class="edge">
<title>Node30&#45;&gt;Node32</title>
<path fill="none" stroke="midnightblue" d="M225.57,-117.98C224.16,-109.58 221.95,-96.48 220.14,-85.66"/>
<polygon fill="midnightblue" stroke="midnightblue" points="223.54,-84.79 218.43,-75.51 216.64,-85.95 223.54,-84.79"/>
</g>
<!-- Node33 -->
<g id="node33" class="node">
<title>Node33</title>
<g id="a_node33"><a xlink:title=" ">
<polygon fill="white" stroke="#bfbfbf" points="356,-56.5 356,-75.5 418,-75.5 418,-56.5 356,-56.5"/>
<text text-anchor="middle" x="387" y="-63.5" font-family="Helvetica,sans-Serif" font-size="10.00">AMReX.H</text>
</a>
</g>
</g>
<!-- Node30&#45;&gt;Node33 -->
<g id="edge61" class="edge">
<title>Node30&#45;&gt;Node33</title>
<path fill="none" stroke="midnightblue" d="M249.92,-117.98C277.37,-107.77 323.52,-90.61 354.6,-79.05"/>
<polygon fill="midnightblue" stroke="midnightblue" points="355.97,-82.28 364.12,-75.51 353.53,-75.71 355.97,-82.28"/>
</g>
<!-- Node34&#45;&gt;Node2 -->
<g id="edge64" class="edge">
<title>Node34&#45;&gt;Node2</title>
<path fill="none" stroke="midnightblue" d="M518.04,-117.98C472.99,-106.99 394.88,-87.94 347.96,-76.5"/>
<polygon fill="midnightblue" stroke="midnightblue" points="348.71,-73.08 338.17,-74.11 347.05,-79.88 348.71,-73.08"/>
</g>
<!-- Node34&#45;&gt;Node10 -->
<g id="edge63" class="edge">
<title>Node34&#45;&gt;Node10</title>
<path fill="none" stroke="midnightblue" d="M552.36,-117.83C551.77,-102.51 553.06,-70.88 572,-56 635.62,-6 1947.48,-27.92 2028,-20 2034.46,-19.36 2041.33,-18.39 2047.89,-17.32"/>
<polygon fill="midnightblue" stroke="midnightblue" points="2048.58,-20.75 2057.83,-15.57 2047.38,-13.85 2048.58,-20.75"/>
</g>
<!-- Node34&#45;&gt;Node11 -->
<g id="edge65" class="edge">
<title>Node34&#45;&gt;Node11</title>
<path fill="none" stroke="midnightblue" d="M563.75,-117.98C575.55,-108.61 594.74,-93.38 609.08,-82.01"/>
<polygon fill="midnightblue" stroke="midnightblue" points="611.62,-84.47 617.27,-75.51 607.26,-78.98 611.62,-84.47"/>
</g>
<!-- Node34&#45;&gt;Node22 -->
<g id="edge66" class="edge">
<title>Node34&#45;&gt;Node22</title>
<path fill="none" stroke="midnightblue" d="M547.1,-117.78C537.86,-102.95 522.63,-72.81 539,-56 565.07,-29.22 1846.71,-22.45 1884,-20 1892.71,-19.43 1901.89,-18.65 1910.89,-17.79"/>
<polygon fill="midnightblue" stroke="midnightblue" points="1911.33,-21.27 1920.94,-16.8 1910.64,-14.3 1911.33,-21.27"/>
</g>
<!-- Node36 -->
<g id="node36" class="node">
<title>Node36</title>
<g id="a_node36"><a xlink:title=" ">
<polygon fill="white" stroke="#bfbfbf" points="693,-56.5 693,-75.5 741,-75.5 741,-56.5 693,-56.5"/>
<text text-anchor="middle" x="717" y="-63.5" font-family="Helvetica,sans-Serif" font-size="10.00">iosfwd</text>
</a>
</g>
</g>
<!-- Node35&#45;&gt;Node36 -->
<g id="edge68" class="edge">
<title>Node35&#45;&gt;Node36</title>
<path fill="none" stroke="midnightblue" d="M717,-112.4C717,-104.47 717,-94.46 717,-85.86"/>
<polygon fill="midnightblue" stroke="midnightblue" points="720.5,-85.66 717,-75.66 713.5,-85.66 720.5,-85.66"/>
</g>
<!-- Node37&#45;&gt;Node14 -->
<g id="edge74" class="edge">
<title>Node37&#45;&gt;Node14</title>
<path fill="none" stroke="midnightblue" d="M303.42,-184.95C198.42,-169.03 13.31,-129.58 85,-56 114.69,-25.53 1443.37,-13.79 1755.05,-11.46"/>
<polygon fill="midnightblue" stroke="midnightblue" points="1755.3,-14.95 1765.28,-11.38 1755.25,-7.95 1755.3,-14.95"/>
</g>
<!-- Node37&#45;&gt;Node30 -->
<g id="edge72" class="edge">
<title>Node37&#45;&gt;Node30</title>
<path fill="none" stroke="midnightblue" d="M351.01,-184.87C326.54,-173.75 283.8,-154.32 255.44,-141.43"/>
<polygon fill="midnightblue" stroke="midnightblue" points="256.62,-138.12 246.07,-137.17 253.72,-144.49 256.62,-138.12"/>
</g>
<!-- Node37&#45;&gt;Node34 -->
<g id="edge73" class="edge">
<title>Node37&#45;&gt;Node34</title>
<path fill="none" stroke="midnightblue" d="M394.3,-184.87C426.38,-173.47 483.03,-153.35 519.25,-140.49"/>
<polygon fill="midnightblue" stroke="midnightblue" points="520.64,-143.71 528.89,-137.06 518.3,-137.11 520.64,-143.71"/>
</g>
<!-- Node38 -->
<g id="node38" class="node">
<title>Node38</title>
<g id="a_node38"><a xlink:title=" ">
<polygon fill="white" stroke="#bfbfbf" points="312.5,-118 312.5,-137 427.5,-137 427.5,-118 312.5,-118"/>
<text text-anchor="middle" x="370" y="-125" font-family="Helvetica,sans-Serif" font-size="10.00">AMReX_Geometry.H</text>
</a>
</g>
</g>
<!-- Node37&#45;&gt;Node38 -->
<g id="edge75" class="edge">
<title>Node37&#45;&gt;Node38</title>
<path fill="none" stroke="midnightblue" d="M370,-184.73C370,-175.18 370,-159.62 370,-147.28"/>
<polygon fill="midnightblue" stroke="midnightblue" points="373.5,-147.13 370,-137.13 366.5,-147.13 373.5,-147.13"/>
</g>
<!-- Node39&#45;&gt;Node14 -->
<g id="edge80" class="edge">
<title>Node39&#45;&gt;Node14</title>
<path fill="none" stroke="midnightblue" d="M522.38,-184.92C506.36,-176.72 484.81,-162.68 475,-143 454.8,-102.48 486.73,-74.62 528,-56 584.34,-30.58 1500.67,-15.58 1754.99,-11.9"/>
<polygon fill="midnightblue" stroke="midnightblue" points="1755.23,-15.39 1765.18,-11.75 1755.13,-8.39 1755.23,-15.39"/>
</g>
<!-- Node39&#45;&gt;Node16 -->
<g id="edge79" class="edge">
<title>Node39&#45;&gt;Node16</title>
<path fill="none" stroke="midnightblue" d="M616.03,-185.1C726.49,-172.57 933.14,-149.13 1042.62,-136.71"/>
<polygon fill="midnightblue" stroke="midnightblue" points="1043.05,-140.18 1052.59,-135.58 1042.26,-133.23 1043.05,-140.18"/>
</g>
<!-- Node39&#45;&gt;Node30 -->
<g id="edge78" class="edge">
<title>Node39&#45;&gt;Node30</title>
<path fill="none" stroke="midnightblue" d="M500.5,-184.94C443.29,-173.13 340.26,-151.87 278.3,-139.09"/>
<polygon fill="midnightblue" stroke="midnightblue" points="278.85,-135.62 268.35,-137.03 277.43,-142.48 278.85,-135.62"/>
</g>
<!-- Node39&#45;&gt;Node34 -->
<g id="edge77" class="edge">
<title>Node39&#45;&gt;Node34</title>
<path fill="none" stroke="midnightblue" d="M543.48,-184.73C545.1,-175.18 547.73,-159.62 549.82,-147.28"/>
<polygon fill="midnightblue" stroke="midnightblue" points="553.32,-147.57 551.54,-137.13 546.42,-146.4 553.32,-147.57"/>
</g>
<!-- Node39&#45;&gt;Node38 -->
<g id="edge81" class="edge">
<title>Node39&#45;&gt;Node38</title>
<path fill="none" stroke="midnightblue" d="M519.16,-184.87C489.13,-173.52 436.22,-153.52 402.16,-140.65"/>
<polygon fill="midnightblue" stroke="midnightblue" points="403.25,-137.32 392.66,-137.06 400.78,-143.87 403.25,-137.32"/>
</g>
<!-- Node40&#45;&gt;Node3 -->
<g id="edge85" class="edge">
<title>Node40&#45;&gt;Node3</title>
<path fill="none" stroke="midnightblue" d="M1474.31,-204.01C1463.31,-213.63 1442.08,-229.46 1424.99,-240.93"/>
<polygon fill="midnightblue" stroke="midnightblue" points="1422.96,-238.07 1416.51,-246.48 1426.79,-243.93 1422.96,-238.07"/>
</g>
<!-- Node40&#45;&gt;Node4 -->
<g id="edge83" class="edge">
<title>Node40&#45;&gt;Node4</title>
<path fill="none" stroke="midnightblue" d="M1500.25,-184.87C1525.17,-173.7 1568.79,-154.15 1597.53,-141.26"/>
<polygon fill="midnightblue" stroke="midnightblue" points="1598.97,-144.45 1606.67,-137.17 1596.11,-138.06 1598.97,-144.45"/>
</g>
<!-- Node40&#45;&gt;Node5 -->
<g id="edge84" class="edge">
<title>Node40&#45;&gt;Node5</title>
<path fill="none" stroke="midnightblue" d="M1481,-184.73C1481,-175.18 1481,-159.62 1481,-147.28"/>
<polygon fill="midnightblue" stroke="midnightblue" points="1484.5,-147.13 1481,-137.13 1477.5,-147.13 1484.5,-147.13"/>
</g>
<!-- Node41&#45;&gt;Node2 -->
<g id="edge87" class="edge">
<title>Node41&#45;&gt;Node2</title>
<path fill="none" stroke="midnightblue" d="M59.54,-179.27C70.08,-160.81 91.01,-128.94 118,-112 174.51,-76.53 200.62,-90.61 269.89,-76.13"/>
<polygon fill="midnightblue" stroke="midnightblue" points="270.95,-79.47 279.95,-73.88 269.43,-72.64 270.95,-79.47"/>
</g>
<!-- Node41&#45;&gt;Node30 -->
<g id="edge88" class="edge">
<title>Node41&#45;&gt;Node30</title>
<path fill="none" stroke="midnightblue" d="M89.97,-179.4C121.22,-167.79 165.04,-151.51 194.64,-140.52"/>
<polygon fill="midnightblue" stroke="midnightblue" points="195.94,-143.77 204.1,-137.01 193.5,-137.21 195.94,-143.77"/>
</g>
</g>
</svg>
