<?xml version="1.0" encoding="UTF-8" standalone="no"?>
<!DOCTYPE svg PUBLIC "-//W3C//DTD SVG 1.1//EN"
 "http://www.w3.org/Graphics/SVG/1.1/DTD/svg11.dtd">
<!-- Generated by graphviz version 2.43.0 (0)
 -->
<!-- Title: Godunov.H Pages: 1 -->
<svg width="1059pt" height="196pt"
 viewBox="0.00 0.00 1059.00 196.00" xmlns="http://www.w3.org/2000/svg" xmlns:xlink="http://www.w3.org/1999/xlink">
<g id="graph0" class="graph" transform="scale(1 1) rotate(0) translate(4 192)">
<title>Godunov.H</title>
<polygon fill="white" stroke="transparent" points="-4,4 -4,-192 1055,-192 1055,4 -4,4"/>
<!-- Node1 -->
<g id="node1" class="node">
<title>Node1</title>
<g id="a_node1"><a xlink:title=" ">
<polygon fill="#bfbfbf" stroke="black" points="377,-168.5 377,-187.5 447,-187.5 447,-168.5 377,-168.5"/>
<text text-anchor="middle" x="412" y="-175.5" font-family="Helvetica,sans-Serif" font-size="10.00">Godunov.H</text>
</a>
</g>
</g>
<!-- Node2 -->
<g id="node2" class="node">
<title>Node2</title>
<g id="a_node2"><a xlink:href="incflo__godunov__advection_8cpp.html" target="_top" xlink:title=" ">
<polygon fill="white" stroke="black" points="0,-112.5 0,-131.5 164,-131.5 164,-112.5 0,-112.5"/>
<text text-anchor="middle" x="82" y="-119.5" font-family="Helvetica,sans-Serif" font-size="10.00">incflo_godunov_advection.cpp</text>
</a>
</g>
</g>
<!-- Node1&#45;&gt;Node2 -->
<g id="edge1" class="edge">
<title>Node1&#45;&gt;Node2</title>
<path fill="none" stroke="midnightblue" d="M366.95,-169.63C306.23,-159.69 198.36,-142.04 134.18,-131.54"/>
<polygon fill="midnightblue" stroke="midnightblue" points="366.56,-173.11 377,-171.27 367.69,-166.2 366.56,-173.11"/>
</g>
<!-- Node3 -->
<g id="node3" class="node">
<title>Node3</title>
<g id="a_node3"><a xlink:href="incflo__godunov__ppm_8cpp.html" target="_top" xlink:title=" ">
<polygon fill="white" stroke="black" points="182.5,-112.5 182.5,-131.5 319.5,-131.5 319.5,-112.5 182.5,-112.5"/>
<text text-anchor="middle" x="251" y="-119.5" font-family="Helvetica,sans-Serif" font-size="10.00">incflo_godunov_ppm.cpp</text>
</a>
</g>
</g>
<!-- Node1&#45;&gt;Node3 -->
<g id="edge2" class="edge">
<title>Node1&#45;&gt;Node3</title>
<path fill="none" stroke="midnightblue" d="M376.74,-165.17C346.42,-155 303.43,-140.59 276.39,-131.52"/>
<polygon fill="midnightblue" stroke="midnightblue" points="375.9,-168.58 386.49,-168.44 378.12,-161.95 375.9,-168.58"/>
</g>
<!-- Node4 -->
<g id="node4" class="node">
<title>Node4</title>
<g id="a_node4"><a xlink:href="incflo__godunov__predict_8cpp.html" target="_top" xlink:title=" ">
<polygon fill="white" stroke="black" points="337.5,-112.5 337.5,-131.5 486.5,-131.5 486.5,-112.5 337.5,-112.5"/>
<text text-anchor="middle" x="412" y="-119.5" font-family="Helvetica,sans-Serif" font-size="10.00">incflo_godunov_predict.cpp</text>
</a>
</g>
</g>
<!-- Node1&#45;&gt;Node4 -->
<g id="edge3" class="edge">
<title>Node1&#45;&gt;Node4</title>
<path fill="none" stroke="midnightblue" d="M412,-157.8C412,-148.91 412,-138.78 412,-131.75"/>
<polygon fill="midnightblue" stroke="midnightblue" points="408.5,-158.08 412,-168.08 415.5,-158.08 408.5,-158.08"/>
</g>
<!-- Node5 -->
<g id="node5" class="node">
<title>Node5</title>
<g id="a_node5"><a xlink:href="incflo__godunov__weno_8cpp.html" target="_top" xlink:title=" ">
<polygon fill="white" stroke="black" points="505,-112.5 505,-131.5 647,-131.5 647,-112.5 505,-112.5"/>
<text text-anchor="middle" x="576" y="-119.5" font-family="Helvetica,sans-Serif" font-size="10.00">incflo_godunov_weno.cpp</text>
</a>
</g>
</g>
<!-- Node1&#45;&gt;Node5 -->
<g id="edge4" class="edge">
<title>Node1&#45;&gt;Node5</title>
<path fill="none" stroke="midnightblue" d="M447.52,-165.3C478.42,-155.13 522.47,-140.62 550.14,-131.52"/>
<polygon fill="midnightblue" stroke="midnightblue" points="446.39,-161.99 437.99,-168.44 448.58,-168.64 446.39,-161.99"/>
</g>
<!-- Node6 -->
<g id="node6" class="node">
<title>Node6</title>
<g id="a_node6"><a xlink:href="_adv_op___godunov_8_h.html" target="_top" xlink:title=" ">
<polygon fill="white" stroke="black" points="665.5,-112.5 665.5,-131.5 772.5,-131.5 772.5,-112.5 665.5,-112.5"/>
<text text-anchor="middle" x="719" y="-119.5" font-family="Helvetica,sans-Serif" font-size="10.00">AdvOp_Godunov.H</text>
</a>
</g>
</g>
<!-- Node1&#45;&gt;Node6 -->
<g id="edge5" class="edge">
<title>Node1&#45;&gt;Node6</title>
<path fill="none" stroke="midnightblue" d="M457.39,-169.02C514.49,-158.97 612.13,-141.8 670.61,-131.51"/>
<polygon fill="midnightblue" stroke="midnightblue" points="456.46,-165.63 447.22,-170.81 457.67,-172.52 456.46,-165.63"/>
</g>
<!-- Node7 -->
<g id="node7" class="node">
<title>Node7</title>
<g id="a_node7"><a xlink:href="density_8cpp.html" target="_top" xlink:title=" ">
<polygon fill="white" stroke="black" points="344.5,-56.5 344.5,-75.5 415.5,-75.5 415.5,-56.5 344.5,-56.5"/>
<text text-anchor="middle" x="380" y="-63.5" font-family="Helvetica,sans-Serif" font-size="10.00">density.cpp</text>
</a>
</g>
</g>
<!-- Node6&#45;&gt;Node7 -->
<g id="edge6" class="edge">
<title>Node6&#45;&gt;Node7</title>
<path fill="none" stroke="midnightblue" d="M655.25,-111.66C582.25,-100.9 467.17,-83.7 424,-76 421.24,-75.51 418.38,-74.97 415.51,-74.42"/>
<polygon fill="midnightblue" stroke="midnightblue" points="654.86,-115.14 665.26,-113.13 655.88,-108.21 654.86,-115.14"/>
</g>
<!-- Node8 -->
<g id="node8" class="node">
<title>Node8</title>
<g id="a_node8"><a xlink:href="icns__advection_8_h.html" target="_top" xlink:title=" ">
<polygon fill="white" stroke="black" points="521,-56.5 521,-75.5 621,-75.5 621,-56.5 521,-56.5"/>
<text text-anchor="middle" x="571" y="-63.5" font-family="Helvetica,sans-Serif" font-size="10.00">icns_advection.H</text>
</a>
</g>
</g>
<!-- Node6&#45;&gt;Node8 -->
<g id="edge7" class="edge">
<title>Node6&#45;&gt;Node8</title>
<path fill="none" stroke="midnightblue" d="M685.85,-108.91C658.03,-98.75 618.98,-84.51 594.34,-75.52"/>
<polygon fill="midnightblue" stroke="midnightblue" points="684.96,-112.3 695.55,-112.44 687.35,-105.73 684.96,-112.3"/>
</g>
<!-- Node11 -->
<g id="node11" class="node">
<title>Node11</title>
<g id="a_node11"><a xlink:href="icns__ops_8_h.html" target="_top" xlink:title=" ">
<polygon fill="white" stroke="black" points="433.5,-56.5 433.5,-75.5 502.5,-75.5 502.5,-56.5 433.5,-56.5"/>
<text text-anchor="middle" x="468" y="-63.5" font-family="Helvetica,sans-Serif" font-size="10.00">icns_ops.H</text>
</a>
</g>
</g>
<!-- Node6&#45;&gt;Node11 -->
<g id="edge10" class="edge">
<title>Node6&#45;&gt;Node11</title>
<path fill="none" stroke="midnightblue" d="M669.43,-110.34C620.2,-99.74 546,-83.78 502.74,-74.47"/>
<polygon fill="midnightblue" stroke="midnightblue" points="668.72,-113.76 679.23,-112.44 670.19,-106.92 668.72,-113.76"/>
</g>
<!-- Node12 -->
<g id="node12" class="node">
<title>Node12</title>
<g id="a_node12"><a xlink:href="levelset_8cpp.html" target="_top" xlink:title=" ">
<polygon fill="white" stroke="black" points="639,-56.5 639,-75.5 715,-75.5 715,-56.5 639,-56.5"/>
<text text-anchor="middle" x="677" y="-63.5" font-family="Helvetica,sans-Serif" font-size="10.00">levelset.cpp</text>
</a>
</g>
</g>
<!-- Node6&#45;&gt;Node12 -->
<g id="edge12" class="edge">
<title>Node6&#45;&gt;Node12</title>
<path fill="none" stroke="midnightblue" d="M705.89,-104.14C698.57,-94.74 689.76,-83.4 683.81,-75.75"/>
<polygon fill="midnightblue" stroke="midnightblue" points="703.16,-106.34 712.06,-112.08 708.69,-102.04 703.16,-106.34"/>
</g>
<!-- Node13 -->
<g id="node13" class="node">
<title>Node13</title>
<g id="a_node13"><a xlink:href="_s_d_r_8cpp.html" target="_top" xlink:title=" ">
<polygon fill="white" stroke="black" points="733.5,-56.5 733.5,-75.5 790.5,-75.5 790.5,-56.5 733.5,-56.5"/>
<text text-anchor="middle" x="762" y="-63.5" font-family="Helvetica,sans-Serif" font-size="10.00">SDR.cpp</text>
</a>
</g>
</g>
<!-- Node6&#45;&gt;Node13 -->
<g id="edge13" class="edge">
<title>Node6&#45;&gt;Node13</title>
<path fill="none" stroke="midnightblue" d="M732.42,-104.14C739.91,-94.74 748.94,-83.4 755.03,-75.75"/>
<polygon fill="midnightblue" stroke="midnightblue" points="729.59,-102.08 726.1,-112.08 735.07,-106.44 729.59,-102.08"/>
</g>
<!-- Node14 -->
<g id="node14" class="node">
<title>Node14</title>
<g id="a_node14"><a xlink:href="temperature_8cpp.html" target="_top" xlink:title=" ">
<polygon fill="white" stroke="black" points="809,-56.5 809,-75.5 907,-75.5 907,-56.5 809,-56.5"/>
<text text-anchor="middle" x="858" y="-63.5" font-family="Helvetica,sans-Serif" font-size="10.00">temperature.cpp</text>
</a>
</g>
</g>
<!-- Node6&#45;&gt;Node14 -->
<g id="edge14" class="edge">
<title>Node6&#45;&gt;Node14</title>
<path fill="none" stroke="midnightblue" d="M750.48,-108.77C776.59,-98.63 813.04,-84.47 836.08,-75.52"/>
<polygon fill="midnightblue" stroke="midnightblue" points="749.08,-105.56 741.02,-112.44 751.61,-112.08 749.08,-105.56"/>
</g>
<!-- Node15 -->
<g id="node15" class="node">
<title>Node15</title>
<g id="a_node15"><a xlink:href="_t_k_e_8cpp.html" target="_top" xlink:title=" ">
<polygon fill="white" stroke="black" points="925,-56.5 925,-75.5 981,-75.5 981,-56.5 925,-56.5"/>
<text text-anchor="middle" x="953" y="-63.5" font-family="Helvetica,sans-Serif" font-size="10.00">TKE.cpp</text>
</a>
</g>
</g>
<!-- Node6&#45;&gt;Node15 -->
<g id="edge15" class="edge">
<title>Node6&#45;&gt;Node15</title>
<path fill="none" stroke="midnightblue" d="M767.16,-110.2C807.07,-101.2 865.27,-87.96 916,-76 918.83,-75.33 921.78,-74.63 924.73,-73.92"/>
<polygon fill="midnightblue" stroke="midnightblue" points="766.16,-106.84 757.17,-112.45 767.7,-113.66 766.16,-106.84"/>
</g>
<!-- Node16 -->
<g id="node16" class="node">
<title>Node16</title>
<g id="a_node16"><a xlink:href="vof_8cpp.html" target="_top" xlink:title=" ">
<polygon fill="white" stroke="black" points="999,-56.5 999,-75.5 1051,-75.5 1051,-56.5 999,-56.5"/>
<text text-anchor="middle" x="1025" y="-63.5" font-family="Helvetica,sans-Serif" font-size="10.00">vof.cpp</text>
</a>
</g>
</g>
<!-- Node6&#45;&gt;Node16 -->
<g id="edge16" class="edge">
<title>Node6&#45;&gt;Node16</title>
<path fill="none" stroke="midnightblue" d="M782.71,-112.02C837.81,-103.88 919.49,-90.89 990,-76 992.82,-75.4 995.76,-74.73 998.68,-74.03"/>
<polygon fill="midnightblue" stroke="midnightblue" points="782.12,-108.57 772.73,-113.49 783.14,-115.5 782.12,-108.57"/>
</g>
<!-- Node9 -->
<g id="node9" class="node">
<title>Node9</title>
<g id="a_node9"><a xlink:href="icns_8cpp.html" target="_top" xlink:title=" ">
<polygon fill="white" stroke="black" points="441,-0.5 441,-19.5 497,-19.5 497,-0.5 441,-0.5"/>
<text text-anchor="middle" x="469" y="-7.5" font-family="Helvetica,sans-Serif" font-size="10.00">icns.cpp</text>
</a>
</g>
</g>
<!-- Node8&#45;&gt;Node9 -->
<g id="edge8" class="edge">
<title>Node8&#45;&gt;Node9</title>
<path fill="none" stroke="midnightblue" d="M545.67,-51.59C526.81,-41.61 501.62,-28.27 485.35,-19.65"/>
<polygon fill="midnightblue" stroke="midnightblue" points="544.14,-54.74 554.61,-56.32 547.41,-48.55 544.14,-54.74"/>
</g>
<!-- Node10 -->
<g id="node10" class="node">
<title>Node10</title>
<g id="a_node10"><a xlink:href="icns__advection_8cpp.html" target="_top" xlink:title=" ">
<polygon fill="white" stroke="black" points="516,-0.5 516,-19.5 626,-19.5 626,-0.5 516,-0.5"/>
<text text-anchor="middle" x="571" y="-7.5" font-family="Helvetica,sans-Serif" font-size="10.00">icns_advection.cpp</text>
</a>
</g>
</g>
<!-- Node8&#45;&gt;Node10 -->
<g id="edge9" class="edge">
<title>Node8&#45;&gt;Node10</title>
<path fill="none" stroke="midnightblue" d="M571,-45.8C571,-36.91 571,-26.78 571,-19.75"/>
<polygon fill="midnightblue" stroke="midnightblue" points="567.5,-46.08 571,-56.08 574.5,-46.08 567.5,-46.08"/>
</g>
<!-- Node11&#45;&gt;Node9 -->
<g id="edge11" class="edge">
<title>Node11&#45;&gt;Node9</title>
<path fill="none" stroke="midnightblue" d="M468.36,-45.8C468.52,-36.91 468.71,-26.78 468.84,-19.75"/>
<polygon fill="midnightblue" stroke="midnightblue" points="464.85,-46.02 468.17,-56.08 471.85,-46.15 464.85,-46.02"/>
</g>
</g>
</svg>
