<?xml version="1.0" encoding="UTF-8" standalone="no"?>
<!DOCTYPE svg PUBLIC "-//W3C//DTD SVG 1.1//EN"
 "http://www.w3.org/Graphics/SVG/1.1/DTD/svg11.dtd">
<!-- Generated by graphviz version 2.43.0 (0)
 -->
<!-- Title: IOManager.H Pages: 1 -->
<svg width="2060pt" height="364pt"
 viewBox="0.00 0.00 2060.00 364.00" xmlns="http://www.w3.org/2000/svg" xmlns:xlink="http://www.w3.org/1999/xlink">
<g id="graph0" class="graph" transform="scale(1 1) rotate(0) translate(4 360)">
<title>IOManager.H</title>
<polygon fill="white" stroke="transparent" points="-4,4 -4,-360 2056,-360 2056,4 -4,4"/>
<!-- Node1 -->
<g id="node1" class="node">
<title>Node1</title>
<g id="a_node1"><a xlink:title=" ">
<polygon fill="#bfbfbf" stroke="black" points="1337,-336.5 1337,-355.5 1417,-355.5 1417,-336.5 1337,-336.5"/>
<text text-anchor="middle" x="1377" y="-343.5" font-family="Helvetica,sans-Serif" font-size="10.00">IOManager.H</text>
</a>
</g>
</g>
<!-- Node2 -->
<g id="node2" class="node">
<title>Node2</title>
<g id="a_node2"><a xlink:href="_c_f_d_sim_8cpp.html" target="_top" xlink:title=" ">
<polygon fill="white" stroke="black" points="453,-280.5 453,-299.5 529,-299.5 529,-280.5 453,-280.5"/>
<text text-anchor="middle" x="491" y="-287.5" font-family="Helvetica,sans-Serif" font-size="10.00">CFDSim.cpp</text>
</a>
</g>
</g>
<!-- Node1&#45;&gt;Node2 -->
<g id="edge1" class="edge">
<title>Node1&#45;&gt;Node2</title>
<path fill="none" stroke="midnightblue" d="M1326.62,-344.6C1196.05,-343.07 836.18,-335.68 539,-300 535.8,-299.62 532.49,-299.15 529.18,-298.63"/>
<polygon fill="midnightblue" stroke="midnightblue" points="1326.68,-348.1 1336.72,-344.71 1326.76,-341.1 1326.68,-348.1"/>
</g>
<!-- Node3 -->
<g id="node3" class="node">
<title>Node3</title>
<g id="a_node3"><a xlink:href="_p_d_e_ops_8_h.html" target="_top" xlink:title=" ">
<polygon fill="white" stroke="black" points="547.5,-280.5 547.5,-299.5 612.5,-299.5 612.5,-280.5 547.5,-280.5"/>
<text text-anchor="middle" x="580" y="-287.5" font-family="Helvetica,sans-Serif" font-size="10.00">PDEOps.H</text>
</a>
</g>
</g>
<!-- Node1&#45;&gt;Node3 -->
<g id="edge2" class="edge">
<title>Node1&#45;&gt;Node3</title>
<path fill="none" stroke="midnightblue" d="M1326.66,-341.59C1176.9,-331.44 736.92,-301.63 612.89,-293.23"/>
<polygon fill="midnightblue" stroke="midnightblue" points="1326.72,-345.1 1336.93,-342.29 1327.19,-338.12 1326.72,-345.1"/>
</g>
<!-- Node47 -->
<g id="node33" class="node">
<title>Node47</title>
<g id="a_node33"><a xlink:href="incflo_8cpp.html" target="_top" xlink:title=" ">
<polygon fill="white" stroke="black" points="998.5,-280.5 998.5,-299.5 1061.5,-299.5 1061.5,-280.5 998.5,-280.5"/>
<text text-anchor="middle" x="1030" y="-287.5" font-family="Helvetica,sans-Serif" font-size="10.00">incflo.cpp</text>
</a>
</g>
</g>
<!-- Node1&#45;&gt;Node47 -->
<g id="edge67" class="edge">
<title>Node1&#45;&gt;Node47</title>
<path fill="none" stroke="midnightblue" d="M1326.66,-338.7C1265.88,-330.83 1160.62,-316.41 1071,-300 1067.99,-299.45 1064.86,-298.84 1061.74,-298.2"/>
<polygon fill="midnightblue" stroke="midnightblue" points="1326.39,-342.19 1336.75,-340 1327.28,-335.25 1326.39,-342.19"/>
</g>
<!-- Node48 -->
<g id="node34" class="node">
<title>Node48</title>
<g id="a_node34"><a xlink:href="_tioga_interface_8cpp.html" target="_top" xlink:title=" ">
<polygon fill="white" stroke="black" points="1079.5,-280.5 1079.5,-299.5 1186.5,-299.5 1186.5,-280.5 1079.5,-280.5"/>
<text text-anchor="middle" x="1133" y="-287.5" font-family="Helvetica,sans-Serif" font-size="10.00">TiogaInterface.cpp</text>
</a>
</g>
</g>
<!-- Node1&#45;&gt;Node48 -->
<g id="edge68" class="edge">
<title>Node1&#45;&gt;Node48</title>
<path fill="none" stroke="midnightblue" d="M1328.57,-334.28C1282.46,-324.08 1213.97,-308.92 1171.48,-299.52"/>
<polygon fill="midnightblue" stroke="midnightblue" points="1327.82,-337.7 1338.34,-336.44 1329.33,-330.87 1327.82,-337.7"/>
</g>
<!-- Node49 -->
<g id="node35" class="node">
<title>Node49</title>
<g id="a_node35"><a xlink:href="_turb_model_base_8_h.html" target="_top" xlink:title=" ">
<polygon fill="white" stroke="black" points="879.5,-280.5 879.5,-299.5 980.5,-299.5 980.5,-280.5 879.5,-280.5"/>
<text text-anchor="middle" x="930" y="-287.5" font-family="Helvetica,sans-Serif" font-size="10.00">TurbModelBase.H</text>
</a>
</g>
</g>
<!-- Node1&#45;&gt;Node49 -->
<g id="edge69" class="edge">
<title>Node1&#45;&gt;Node49</title>
<path fill="none" stroke="midnightblue" d="M1326.88,-339.71C1253.04,-331.79 1110.71,-316.07 990,-300 986.97,-299.6 983.86,-299.17 980.72,-298.73"/>
<polygon fill="midnightblue" stroke="midnightblue" points="1326.52,-343.19 1336.83,-340.77 1327.26,-336.23 1326.52,-343.19"/>
</g>
<!-- Node59 -->
<g id="node43" class="node">
<title>Node59</title>
<g id="a_node43"><a xlink:href="_re_averaging_8cpp.html" target="_top" xlink:title=" ">
<polygon fill="white" stroke="black" points="1205,-280.5 1205,-299.5 1303,-299.5 1303,-280.5 1205,-280.5"/>
<text text-anchor="middle" x="1254" y="-287.5" font-family="Helvetica,sans-Serif" font-size="10.00">ReAveraging.cpp</text>
</a>
</g>
</g>
<!-- Node1&#45;&gt;Node59 -->
<g id="edge78" class="edge">
<title>Node1&#45;&gt;Node59</title>
<path fill="none" stroke="midnightblue" d="M1348.23,-332.37C1325.19,-322.26 1293.52,-308.35 1273.4,-299.52"/>
<polygon fill="midnightblue" stroke="midnightblue" points="1346.95,-335.63 1357.51,-336.44 1349.76,-329.22 1346.95,-335.63"/>
</g>
<!-- Node60 -->
<g id="node44" class="node">
<title>Node60</title>
<g id="a_node44"><a xlink:href="_reynolds_stress_8cpp.html" target="_top" xlink:title=" ">
<polygon fill="white" stroke="black" points="1321,-280.5 1321,-299.5 1433,-299.5 1433,-280.5 1321,-280.5"/>
<text text-anchor="middle" x="1377" y="-287.5" font-family="Helvetica,sans-Serif" font-size="10.00">ReynoldsStress.cpp</text>
</a>
</g>
</g>
<!-- Node1&#45;&gt;Node60 -->
<g id="edge79" class="edge">
<title>Node1&#45;&gt;Node60</title>
<path fill="none" stroke="midnightblue" d="M1377,-325.8C1377,-316.91 1377,-306.78 1377,-299.75"/>
<polygon fill="midnightblue" stroke="midnightblue" points="1373.5,-326.08 1377,-336.08 1380.5,-326.08 1373.5,-326.08"/>
</g>
<!-- Node61 -->
<g id="node45" class="node">
<title>Node61</title>
<g id="a_node45"><a xlink:href="io_8cpp.html" target="_top" xlink:title=" ">
<polygon fill="white" stroke="black" points="1451,-280.5 1451,-299.5 1497,-299.5 1497,-280.5 1451,-280.5"/>
<text text-anchor="middle" x="1474" y="-287.5" font-family="Helvetica,sans-Serif" font-size="10.00">io.cpp</text>
</a>
</g>
</g>
<!-- Node1&#45;&gt;Node61 -->
<g id="edge80" class="edge">
<title>Node1&#45;&gt;Node61</title>
<path fill="none" stroke="midnightblue" d="M1401.34,-331.45C1419.24,-321.48 1443.05,-308.23 1458.45,-299.65"/>
<polygon fill="midnightblue" stroke="midnightblue" points="1399.62,-328.4 1392.58,-336.32 1403.02,-334.52 1399.62,-328.4"/>
</g>
<!-- Node62 -->
<g id="node46" class="node">
<title>Node62</title>
<g id="a_node46"><a xlink:href="_i_o_manager_8cpp.html" target="_top" xlink:title=" ">
<polygon fill="white" stroke="black" points="1515.5,-280.5 1515.5,-299.5 1604.5,-299.5 1604.5,-280.5 1515.5,-280.5"/>
<text text-anchor="middle" x="1560" y="-287.5" font-family="Helvetica,sans-Serif" font-size="10.00">IOManager.cpp</text>
</a>
</g>
</g>
<!-- Node1&#45;&gt;Node62 -->
<g id="edge81" class="edge">
<title>Node1&#45;&gt;Node62</title>
<path fill="none" stroke="midnightblue" d="M1415.74,-333.57C1450.26,-323.38 1500.01,-308.7 1531.14,-299.52"/>
<polygon fill="midnightblue" stroke="midnightblue" points="1414.6,-330.26 1406,-336.44 1416.58,-336.97 1414.6,-330.26"/>
</g>
<!-- Node63 -->
<g id="node47" class="node">
<title>Node63</title>
<g id="a_node47"><a xlink:href="_enstrophy_8cpp.html" target="_top" xlink:title=" ">
<polygon fill="white" stroke="black" points="1622,-280.5 1622,-299.5 1706,-299.5 1706,-280.5 1622,-280.5"/>
<text text-anchor="middle" x="1664" y="-287.5" font-family="Helvetica,sans-Serif" font-size="10.00">Enstrophy.cpp</text>
</a>
</g>
</g>
<!-- Node1&#45;&gt;Node63 -->
<g id="edge82" class="edge">
<title>Node1&#45;&gt;Node63</title>
<path fill="none" stroke="midnightblue" d="M1427.11,-335.57C1482.26,-325.2 1569.93,-308.7 1621.73,-298.95"/>
<polygon fill="midnightblue" stroke="midnightblue" points="1426.39,-332.15 1417.21,-337.43 1427.68,-339.03 1426.39,-332.15"/>
</g>
<!-- Node64 -->
<g id="node48" class="node">
<title>Node64</title>
<g id="a_node48"><a xlink:href="_field_norms_8cpp.html" target="_top" xlink:title=" ">
<polygon fill="white" stroke="black" points="1724,-280.5 1724,-299.5 1816,-299.5 1816,-280.5 1724,-280.5"/>
<text text-anchor="middle" x="1770" y="-287.5" font-family="Helvetica,sans-Serif" font-size="10.00">FieldNorms.cpp</text>
</a>
</g>
</g>
<!-- Node1&#45;&gt;Node64 -->
<g id="edge83" class="edge">
<title>Node1&#45;&gt;Node64</title>
<path fill="none" stroke="midnightblue" d="M1427.25,-338.79C1493.33,-330.5 1613,-315.13 1715,-300 1717.87,-299.57 1720.82,-299.12 1723.8,-298.66"/>
<polygon fill="midnightblue" stroke="midnightblue" points="1426.61,-335.34 1417.12,-340.05 1427.47,-342.28 1426.61,-335.34"/>
</g>
<!-- Node65 -->
<g id="node49" class="node">
<title>Node65</title>
<g id="a_node49"><a xlink:href="_kinetic_energy_8cpp.html" target="_top" xlink:title=" ">
<polygon fill="white" stroke="black" points="1834.5,-280.5 1834.5,-299.5 1937.5,-299.5 1937.5,-280.5 1834.5,-280.5"/>
<text text-anchor="middle" x="1886" y="-287.5" font-family="Helvetica,sans-Serif" font-size="10.00">KineticEnergy.cpp</text>
</a>
</g>
</g>
<!-- Node1&#45;&gt;Node65 -->
<g id="edge84" class="edge">
<title>Node1&#45;&gt;Node65</title>
<path fill="none" stroke="midnightblue" d="M1427.39,-340.71C1510.4,-333.46 1681.05,-317.84 1825,-300 1828.08,-299.62 1831.25,-299.21 1834.44,-298.78"/>
<polygon fill="midnightblue" stroke="midnightblue" points="1426.89,-337.24 1417.23,-341.59 1427.49,-344.21 1426.89,-337.24"/>
</g>
<!-- Node66 -->
<g id="node50" class="node">
<title>Node66</title>
<g id="a_node50"><a xlink:href="_wave_energy_8cpp.html" target="_top" xlink:title=" ">
<polygon fill="white" stroke="black" points="1956,-280.5 1956,-299.5 2052,-299.5 2052,-280.5 1956,-280.5"/>
<text text-anchor="middle" x="2004" y="-287.5" font-family="Helvetica,sans-Serif" font-size="10.00">WaveEnergy.cpp</text>
</a>
</g>
</g>
<!-- Node1&#45;&gt;Node66 -->
<g id="edge85" class="edge">
<title>Node1&#45;&gt;Node66</title>
<path fill="none" stroke="midnightblue" d="M1427.25,-342.35C1526.72,-336.81 1755.63,-322.63 1947,-300 1949.89,-299.66 1952.85,-299.28 1955.83,-298.87"/>
<polygon fill="midnightblue" stroke="midnightblue" points="1426.98,-338.86 1417.19,-342.91 1427.36,-345.85 1426.98,-338.86"/>
</g>
<!-- Node4 -->
<g id="node4" class="node">
<title>Node4</title>
<g id="a_node4"><a xlink:href="_adv_op___godunov_8_h.html" target="_top" xlink:title=" ">
<polygon fill="white" stroke="black" points="526.5,-112.5 526.5,-131.5 633.5,-131.5 633.5,-112.5 526.5,-112.5"/>
<text text-anchor="middle" x="580" y="-119.5" font-family="Helvetica,sans-Serif" font-size="10.00">AdvOp_Godunov.H</text>
</a>
</g>
</g>
<!-- Node3&#45;&gt;Node4 -->
<g id="edge3" class="edge">
<title>Node3&#45;&gt;Node4</title>
<path fill="none" stroke="midnightblue" d="M580,-269.93C580,-233.92 580,-157.23 580,-131.57"/>
<polygon fill="midnightblue" stroke="midnightblue" points="576.5,-270.08 580,-280.08 583.5,-270.08 576.5,-270.08"/>
</g>
<!-- Node9 -->
<g id="node8" class="node">
<title>Node9</title>
<g id="a_node8"><a xlink:href="icns__ops_8_h.html" target="_top" xlink:title=" ">
<polygon fill="white" stroke="black" points="112.5,-56.5 112.5,-75.5 181.5,-75.5 181.5,-56.5 112.5,-56.5"/>
<text text-anchor="middle" x="147" y="-63.5" font-family="Helvetica,sans-Serif" font-size="10.00">icns_ops.H</text>
</a>
</g>
</g>
<!-- Node3&#45;&gt;Node9 -->
<g id="edge65" class="edge">
<title>Node3&#45;&gt;Node9</title>
<path fill="none" stroke="midnightblue" d="M553.07,-276.04C498.42,-249.64 370.67,-187.41 265,-132 227.72,-112.45 184.52,-88.26 162.17,-75.62"/>
<polygon fill="midnightblue" stroke="midnightblue" points="551.58,-279.21 562.11,-280.4 554.62,-272.9 551.58,-279.21"/>
</g>
<!-- Node15 -->
<g id="node14" class="node">
<title>Node15</title>
<g id="a_node14"><a xlink:href="_adv_op___m_o_l_8_h.html" target="_top" xlink:title=" ">
<polygon fill="white" stroke="black" points="342,-112.5 342,-131.5 428,-131.5 428,-112.5 342,-112.5"/>
<text text-anchor="middle" x="385" y="-119.5" font-family="Helvetica,sans-Serif" font-size="10.00">AdvOp_MOL.H</text>
</a>
</g>
</g>
<!-- Node3&#45;&gt;Node15 -->
<g id="edge14" class="edge">
<title>Node3&#45;&gt;Node15</title>
<path fill="none" stroke="midnightblue" d="M562.15,-273.8C522.15,-239.75 426.43,-158.27 395.11,-131.61"/>
<polygon fill="midnightblue" stroke="midnightblue" points="559.91,-276.49 569.79,-280.31 564.44,-271.16 559.91,-276.49"/>
</g>
<!-- Node16 -->
<g id="node15" class="node">
<title>Node16</title>
<g id="a_node15"><a xlink:href="_b_c_ops_8_h.html" target="_top" xlink:title=" ">
<polygon fill="white" stroke="black" points="907.5,-112.5 907.5,-131.5 966.5,-131.5 966.5,-112.5 907.5,-112.5"/>
<text text-anchor="middle" x="937" y="-119.5" font-family="Helvetica,sans-Serif" font-size="10.00">BCOps.H</text>
</a>
</g>
</g>
<!-- Node3&#45;&gt;Node16 -->
<g id="edge23" class="edge">
<title>Node3&#45;&gt;Node16</title>
<path fill="none" stroke="midnightblue" d="M622.59,-279.37C653.62,-271.65 696.29,-259.54 732,-244 771.79,-226.68 884.25,-156.35 923.38,-131.64"/>
<polygon fill="midnightblue" stroke="midnightblue" points="621.43,-276.05 612.54,-281.82 623.08,-282.86 621.43,-276.05"/>
</g>
<!-- Node22 -->
<g id="node20" class="node">
<title>Node22</title>
<g id="a_node20"><a xlink:href="_comp_r_h_s_ops_8_h.html" target="_top" xlink:title=" ">
<polygon fill="white" stroke="black" points="627.5,-224.5 627.5,-243.5 722.5,-243.5 722.5,-224.5 627.5,-224.5"/>
<text text-anchor="middle" x="675" y="-231.5" font-family="Helvetica,sans-Serif" font-size="10.00">CompRHSOps.H</text>
</a>
</g>
</g>
<!-- Node3&#45;&gt;Node22 -->
<g id="edge36" class="edge">
<title>Node3&#45;&gt;Node22</title>
<path fill="none" stroke="midnightblue" d="M604.32,-275.18C621.8,-265.24 644.83,-252.15 659.77,-243.65"/>
<polygon fill="midnightblue" stroke="midnightblue" points="602.23,-272.34 595.26,-280.32 605.69,-278.43 602.23,-272.34"/>
</g>
<!-- Node23 -->
<g id="node21" class="node">
<title>Node23</title>
<g id="a_node21"><a xlink:href="_p_d_e_8_h.html" target="_top" xlink:title=" ">
<polygon fill="white" stroke="black" points="651.5,-168.5 651.5,-187.5 698.5,-187.5 698.5,-168.5 651.5,-168.5"/>
<text text-anchor="middle" x="675" y="-175.5" font-family="Helvetica,sans-Serif" font-size="10.00">PDE.H</text>
</a>
</g>
</g>
<!-- Node3&#45;&gt;Node23 -->
<g id="edge66" class="edge">
<title>Node3&#45;&gt;Node23</title>
<path fill="none" stroke="midnightblue" d="M588.56,-271.06C595.61,-257.33 606.46,-238.38 619,-224 631.79,-209.34 649.79,-195.83 661.89,-187.52"/>
<polygon fill="midnightblue" stroke="midnightblue" points="585.25,-269.86 583.95,-280.37 591.52,-272.96 585.25,-269.86"/>
</g>
<!-- Node27 -->
<g id="node24" class="node">
<title>Node27</title>
<g id="a_node24"><a xlink:href="icns__diffusion_8_h.html" target="_top" xlink:title=" ">
<polygon fill="white" stroke="black" points="0,-56.5 0,-75.5 94,-75.5 94,-56.5 0,-56.5"/>
<text text-anchor="middle" x="47" y="-63.5" font-family="Helvetica,sans-Serif" font-size="10.00">icns_diffusion.H</text>
</a>
</g>
</g>
<!-- Node3&#45;&gt;Node27 -->
<g id="edge64" class="edge">
<title>Node3&#45;&gt;Node27</title>
<path fill="none" stroke="midnightblue" d="M536.96,-280.07C351.09,-254.17 292.63,-303.75 119,-244 75.87,-229.16 54.74,-228.1 33,-188 12.54,-150.26 33.33,-96.29 42.82,-75.56"/>
<polygon fill="midnightblue" stroke="midnightblue" points="536.66,-283.56 547.06,-281.53 537.66,-276.63 536.66,-283.56"/>
</g>
<!-- Node45 -->
<g id="node31" class="node">
<title>Node45</title>
<g id="a_node31"><a xlink:href="_diffusion_ops_8_h.html" target="_top" xlink:title=" ">
<polygon fill="white" stroke="black" points="128.5,-224.5 128.5,-243.5 217.5,-243.5 217.5,-224.5 128.5,-224.5"/>
<text text-anchor="middle" x="173" y="-231.5" font-family="Helvetica,sans-Serif" font-size="10.00">DiffusionOps.H</text>
</a>
</g>
</g>
<!-- Node3&#45;&gt;Node45 -->
<g id="edge59" class="edge">
<title>Node3&#45;&gt;Node45</title>
<path fill="none" stroke="midnightblue" d="M537.51,-280.07C401.2,-257.84 364.53,-261.9 232,-244 227.38,-243.38 222.56,-242.69 217.75,-241.99"/>
<polygon fill="midnightblue" stroke="midnightblue" points="537.06,-283.55 547.5,-281.72 538.2,-276.64 537.06,-283.55"/>
</g>
<!-- Node5 -->
<g id="node5" class="node">
<title>Node5</title>
<g id="a_node5"><a xlink:href="density_8cpp.html" target="_top" xlink:title=" ">
<polygon fill="white" stroke="black" points="488.5,-56.5 488.5,-75.5 559.5,-75.5 559.5,-56.5 488.5,-56.5"/>
<text text-anchor="middle" x="524" y="-63.5" font-family="Helvetica,sans-Serif" font-size="10.00">density.cpp</text>
</a>
</g>
</g>
<!-- Node4&#45;&gt;Node5 -->
<g id="edge4" class="edge">
<title>Node4&#45;&gt;Node5</title>
<path fill="none" stroke="midnightblue" d="M563.67,-105.25C553.74,-95.67 541.41,-83.79 533.16,-75.83"/>
<polygon fill="midnightblue" stroke="midnightblue" points="561.37,-107.9 571,-112.32 566.23,-102.86 561.37,-107.9"/>
</g>
<!-- Node6 -->
<g id="node6" class="node">
<title>Node6</title>
<g id="a_node6"><a xlink:href="icns__advection_8_h.html" target="_top" xlink:title=" ">
<polygon fill="white" stroke="red" points="238,-56.5 238,-75.5 338,-75.5 338,-56.5 238,-56.5"/>
<text text-anchor="middle" x="288" y="-63.5" font-family="Helvetica,sans-Serif" font-size="10.00">icns_advection.H</text>
</a>
</g>
</g>
<!-- Node4&#45;&gt;Node6 -->
<g id="edge5" class="edge">
<title>Node4&#45;&gt;Node6</title>
<path fill="none" stroke="midnightblue" d="M523.77,-110.6C468.58,-100.4 385.44,-85.02 334.05,-75.52"/>
<polygon fill="midnightblue" stroke="midnightblue" points="523.26,-114.07 533.73,-112.44 524.53,-107.18 523.26,-114.07"/>
</g>
<!-- Node4&#45;&gt;Node9 -->
<g id="edge7" class="edge">
<title>Node4&#45;&gt;Node9</title>
<path fill="none" stroke="midnightblue" d="M516.27,-111.93C386.44,-94.85 245.63,-78.35 181.72,-70.98"/>
<polygon fill="midnightblue" stroke="midnightblue" points="516.02,-115.43 526.39,-113.26 516.94,-108.49 516.02,-115.43"/>
</g>
<!-- Node10 -->
<g id="node9" class="node">
<title>Node10</title>
<g id="a_node9"><a xlink:href="levelset_8cpp.html" target="_top" xlink:title=" ">
<polygon fill="white" stroke="black" points="692,-56.5 692,-75.5 768,-75.5 768,-56.5 692,-56.5"/>
<text text-anchor="middle" x="730" y="-63.5" font-family="Helvetica,sans-Serif" font-size="10.00">levelset.cpp</text>
</a>
</g>
</g>
<!-- Node4&#45;&gt;Node10 -->
<g id="edge9" class="edge">
<title>Node4&#45;&gt;Node10</title>
<path fill="none" stroke="midnightblue" d="M613.22,-109.04C641.45,-98.88 681.26,-84.55 706.34,-75.52"/>
<polygon fill="midnightblue" stroke="midnightblue" points="611.99,-105.76 603.77,-112.44 614.36,-112.35 611.99,-105.76"/>
</g>
<!-- Node11 -->
<g id="node10" class="node">
<title>Node11</title>
<g id="a_node10"><a xlink:href="_s_d_r_8cpp.html" target="_top" xlink:title=" ">
<polygon fill="white" stroke="black" points="616.5,-56.5 616.5,-75.5 673.5,-75.5 673.5,-56.5 616.5,-56.5"/>
<text text-anchor="middle" x="645" y="-63.5" font-family="Helvetica,sans-Serif" font-size="10.00">SDR.cpp</text>
</a>
</g>
</g>
<!-- Node4&#45;&gt;Node11 -->
<g id="edge10" class="edge">
<title>Node4&#45;&gt;Node11</title>
<path fill="none" stroke="midnightblue" d="M598.27,-105.82C609.92,-96.15 624.6,-83.95 634.37,-75.83"/>
<polygon fill="midnightblue" stroke="midnightblue" points="595.9,-103.24 590.44,-112.32 600.37,-108.63 595.9,-103.24"/>
</g>
<!-- Node12 -->
<g id="node11" class="node">
<title>Node12</title>
<g id="a_node11"><a xlink:href="temperature_8cpp.html" target="_top" xlink:title=" ">
<polygon fill="white" stroke="black" points="786,-56.5 786,-75.5 884,-75.5 884,-56.5 786,-56.5"/>
<text text-anchor="middle" x="835" y="-63.5" font-family="Helvetica,sans-Serif" font-size="10.00">temperature.cpp</text>
</a>
</g>
</g>
<!-- Node4&#45;&gt;Node12 -->
<g id="edge11" class="edge">
<title>Node4&#45;&gt;Node12</title>
<path fill="none" stroke="midnightblue" d="M630.31,-110.35C678.5,-100.14 750.28,-84.94 794.78,-75.52"/>
<polygon fill="midnightblue" stroke="midnightblue" points="629.46,-106.95 620.41,-112.44 630.91,-113.8 629.46,-106.95"/>
</g>
<!-- Node13 -->
<g id="node12" class="node">
<title>Node13</title>
<g id="a_node12"><a xlink:href="_t_k_e_8cpp.html" target="_top" xlink:title=" ">
<polygon fill="white" stroke="black" points="902,-56.5 902,-75.5 958,-75.5 958,-56.5 902,-56.5"/>
<text text-anchor="middle" x="930" y="-63.5" font-family="Helvetica,sans-Serif" font-size="10.00">TKE.cpp</text>
</a>
</g>
</g>
<!-- Node4&#45;&gt;Node13 -->
<g id="edge12" class="edge">
<title>Node4&#45;&gt;Node13</title>
<path fill="none" stroke="midnightblue" d="M643.76,-111.87C734.39,-98.89 889.95,-76.59 893,-76 895.86,-75.45 898.82,-74.82 901.78,-74.16"/>
<polygon fill="midnightblue" stroke="midnightblue" points="643.25,-108.41 633.85,-113.29 644.25,-115.34 643.25,-108.41"/>
</g>
<!-- Node14 -->
<g id="node13" class="node">
<title>Node14</title>
<g id="a_node13"><a xlink:href="vof_8cpp.html" target="_top" xlink:title=" ">
<polygon fill="white" stroke="black" points="1192,-0.5 1192,-19.5 1244,-19.5 1244,-0.5 1192,-0.5"/>
<text text-anchor="middle" x="1218" y="-7.5" font-family="Helvetica,sans-Serif" font-size="10.00">vof.cpp</text>
</a>
</g>
</g>
<!-- Node4&#45;&gt;Node14 -->
<g id="edge13" class="edge">
<title>Node4&#45;&gt;Node14</title>
<path fill="none" stroke="midnightblue" d="M582.73,-102.2C585.99,-87.08 593.02,-66.67 608,-56 656.11,-21.73 1081.39,-13.04 1191.87,-11.35"/>
<polygon fill="midnightblue" stroke="midnightblue" points="579.28,-101.59 580.96,-112.05 586.17,-102.83 579.28,-101.59"/>
</g>
<!-- Node7 -->
<g id="node7" class="node">
<title>Node7</title>
<g id="a_node7"><a xlink:href="icns_8cpp.html" target="_top" xlink:title=" ">
<polygon fill="white" stroke="black" points="182,-0.5 182,-19.5 238,-19.5 238,-0.5 182,-0.5"/>
<text text-anchor="middle" x="210" y="-7.5" font-family="Helvetica,sans-Serif" font-size="10.00">icns.cpp</text>
</a>
</g>
</g>
<!-- Node6&#45;&gt;Node7 -->
<g id="edge6" class="edge">
<title>Node6&#45;&gt;Node7</title>
<path fill="none" stroke="midnightblue" d="M267.23,-50.62C252.98,-40.76 234.54,-27.99 222.5,-19.65"/>
<polygon fill="midnightblue" stroke="midnightblue" points="265.25,-53.51 275.47,-56.32 269.24,-47.75 265.25,-53.51"/>
</g>
<!-- Node9&#45;&gt;Node7 -->
<g id="edge8" class="edge">
<title>Node9&#45;&gt;Node7</title>
<path fill="none" stroke="midnightblue" d="M165.04,-49.54C176.27,-39.91 190.32,-27.87 199.69,-19.83"/>
<polygon fill="midnightblue" stroke="midnightblue" points="162.44,-47.16 157.12,-56.32 166.99,-52.47 162.44,-47.16"/>
</g>
<!-- Node15&#45;&gt;Node5 -->
<g id="edge15" class="edge">
<title>Node15&#45;&gt;Node5</title>
<path fill="none" stroke="midnightblue" d="M416.48,-108.77C442.59,-98.63 479.04,-84.47 502.08,-75.52"/>
<polygon fill="midnightblue" stroke="midnightblue" points="415.08,-105.56 407.02,-112.44 417.61,-112.08 415.08,-105.56"/>
</g>
<!-- Node15&#45;&gt;Node6 -->
<g id="edge16" class="edge">
<title>Node15&#45;&gt;Node6</title>
<path fill="none" stroke="midnightblue" d="M360.66,-107.45C342.76,-97.48 318.95,-84.23 303.55,-75.65"/>
<polygon fill="midnightblue" stroke="midnightblue" points="358.98,-110.52 369.42,-112.32 362.38,-104.4 358.98,-110.52"/>
</g>
<!-- Node15&#45;&gt;Node9 -->
<g id="edge17" class="edge">
<title>Node15&#45;&gt;Node9</title>
<path fill="none" stroke="midnightblue" d="M337.27,-110.17C291.3,-99.74 222.87,-84.21 181.83,-74.9"/>
<polygon fill="midnightblue" stroke="midnightblue" points="336.76,-113.64 347.29,-112.44 338.31,-106.82 336.76,-113.64"/>
</g>
<!-- Node15&#45;&gt;Node10 -->
<g id="edge18" class="edge">
<title>Node15&#45;&gt;Node10</title>
<path fill="none" stroke="midnightblue" d="M438.26,-111.84C547.82,-94.55 577.24,-93.86 683,-76 685.87,-75.52 688.83,-75 691.81,-74.46"/>
<polygon fill="midnightblue" stroke="midnightblue" points="437.44,-108.42 428.12,-113.45 438.54,-115.34 437.44,-108.42"/>
</g>
<!-- Node15&#45;&gt;Node11 -->
<g id="edge19" class="edge">
<title>Node15&#45;&gt;Node11</title>
<path fill="none" stroke="midnightblue" d="M436.25,-110.36C490.18,-99.16 573.13,-81.93 616.44,-72.93"/>
<polygon fill="midnightblue" stroke="midnightblue" points="435.28,-106.98 426.2,-112.44 436.7,-113.84 435.28,-106.98"/>
</g>
<!-- Node15&#45;&gt;Node12 -->
<g id="edge20" class="edge">
<title>Node15&#45;&gt;Node12</title>
<path fill="none" stroke="midnightblue" d="M438.21,-111.92C589.22,-91.22 629.56,-95.23 777,-76 779.93,-75.62 782.94,-75.21 785.98,-74.78"/>
<polygon fill="midnightblue" stroke="midnightblue" points="437.52,-108.48 428.1,-113.32 438.48,-115.41 437.52,-108.48"/>
</g>
<!-- Node15&#45;&gt;Node13 -->
<g id="edge21" class="edge">
<title>Node15&#45;&gt;Node13</title>
<path fill="none" stroke="midnightblue" d="M438.14,-111.98C640.47,-87.32 695.49,-107.61 893,-76 895.87,-75.54 898.85,-74.97 901.81,-74.35"/>
<polygon fill="midnightblue" stroke="midnightblue" points="437.58,-108.52 428.08,-113.23 438.44,-115.47 437.58,-108.52"/>
</g>
<!-- Node15&#45;&gt;Node14 -->
<g id="edge22" class="edge">
<title>Node15&#45;&gt;Node14</title>
<path fill="none" stroke="midnightblue" d="M404.15,-105.91C426.68,-88.49 463.03,-61.52 479,-56 614.75,-9.06 1076.74,-9.78 1191.86,-10.72"/>
<polygon fill="midnightblue" stroke="midnightblue" points="401.73,-103.36 395.99,-112.26 406.03,-108.88 401.73,-103.36"/>
</g>
<!-- Node16&#45;&gt;Node5 -->
<g id="edge24" class="edge">
<title>Node16&#45;&gt;Node5</title>
<path fill="none" stroke="midnightblue" d="M897.09,-112.06C816.94,-98.88 636.65,-79.07 559.71,-70.8"/>
<polygon fill="midnightblue" stroke="midnightblue" points="896.81,-115.56 907.26,-113.79 897.99,-108.66 896.81,-115.56"/>
</g>
<!-- Node16&#45;&gt;Node10 -->
<g id="edge27" class="edge">
<title>Node16&#45;&gt;Node10</title>
<path fill="none" stroke="midnightblue" d="M897.62,-110.73C858.51,-100.52 799.25,-85.07 762.68,-75.52"/>
<polygon fill="midnightblue" stroke="midnightblue" points="896.78,-114.13 907.34,-113.26 898.55,-107.35 896.78,-114.13"/>
</g>
<!-- Node16&#45;&gt;Node11 -->
<g id="edge28" class="edge">
<title>Node16&#45;&gt;Node11</title>
<path fill="none" stroke="midnightblue" d="M897.39,-111.99C801.29,-93.21 774.91,-94.56 683,-76 679.94,-75.38 676.76,-74.7 673.59,-73.99"/>
<polygon fill="midnightblue" stroke="midnightblue" points="896.74,-115.43 907.23,-113.93 898.1,-108.56 896.74,-115.43"/>
</g>
<!-- Node16&#45;&gt;Node12 -->
<g id="edge29" class="edge">
<title>Node16&#45;&gt;Node12</title>
<path fill="none" stroke="midnightblue" d="M911.67,-107.59C892.81,-97.61 867.62,-84.27 851.35,-75.65"/>
<polygon fill="midnightblue" stroke="midnightblue" points="910.14,-110.74 920.61,-112.32 913.41,-104.55 910.14,-110.74"/>
</g>
<!-- Node16&#45;&gt;Node13 -->
<g id="edge30" class="edge">
<title>Node16&#45;&gt;Node13</title>
<path fill="none" stroke="midnightblue" d="M934.55,-102.1C933.39,-93.14 932.06,-82.86 931.13,-75.75"/>
<polygon fill="midnightblue" stroke="midnightblue" points="931.09,-102.62 935.84,-112.08 938.03,-101.72 931.09,-102.62"/>
</g>
<!-- Node16&#45;&gt;Node14 -->
<g id="edge31" class="edge">
<title>Node16&#45;&gt;Node14</title>
<path fill="none" stroke="midnightblue" d="M977.23,-119.19C1042.36,-115.45 1166.86,-104.66 1199,-76 1215.32,-61.45 1217.96,-33.73 1218.18,-19.66"/>
<polygon fill="midnightblue" stroke="midnightblue" points="976.72,-115.71 966.93,-119.75 977.1,-122.7 976.72,-115.71"/>
</g>
<!-- Node17 -->
<g id="node16" class="node">
<title>Node17</title>
<g id="a_node16"><a xlink:href="icns__bcop_8_h.html" target="_top" xlink:title=" ">
<polygon fill="white" stroke="black" points="356.5,-56.5 356.5,-75.5 431.5,-75.5 431.5,-56.5 356.5,-56.5"/>
<text text-anchor="middle" x="394" y="-63.5" font-family="Helvetica,sans-Serif" font-size="10.00">icns_bcop.H</text>
</a>
</g>
</g>
<!-- Node16&#45;&gt;Node17 -->
<g id="edge25" class="edge">
<title>Node16&#45;&gt;Node17</title>
<path fill="none" stroke="midnightblue" d="M897.18,-112.1C711.63,-83.29 661.78,-93.53 479,-76 463.49,-74.51 446.4,-72.73 431.64,-71.15"/>
<polygon fill="midnightblue" stroke="midnightblue" points="896.85,-115.59 907.27,-113.69 897.94,-108.68 896.85,-115.59"/>
</g>
<!-- Node18 -->
<g id="node17" class="node">
<title>Node18</title>
<g id="a_node17"><a xlink:href="vof__bcop_8_h.html" target="_top" xlink:title=" ">
<polygon fill="white" stroke="black" points="1246.5,-56.5 1246.5,-75.5 1317.5,-75.5 1317.5,-56.5 1246.5,-56.5"/>
<text text-anchor="middle" x="1282" y="-63.5" font-family="Helvetica,sans-Serif" font-size="10.00">vof_bcop.H</text>
</a>
</g>
</g>
<!-- Node16&#45;&gt;Node18 -->
<g id="edge32" class="edge">
<title>Node16&#45;&gt;Node18</title>
<path fill="none" stroke="midnightblue" d="M976.76,-115.28C1033.47,-107.04 1140.83,-91.16 1232,-76 1236.61,-75.23 1241.46,-74.4 1246.24,-73.56"/>
<polygon fill="midnightblue" stroke="midnightblue" points="976.17,-111.83 966.77,-116.73 977.17,-118.76 976.17,-111.83"/>
</g>
<!-- Node19 -->
<g id="node18" class="node">
<title>Node19</title>
<g id="a_node18"><a xlink:href="hos__waves__ops_8_h.html" target="_top" xlink:title=" ">
<polygon fill="white" stroke="red" points="1086,-56.5 1086,-75.5 1190,-75.5 1190,-56.5 1086,-56.5"/>
<text text-anchor="middle" x="1138" y="-63.5" font-family="Helvetica,sans-Serif" font-size="10.00">hos_waves_ops.H</text>
</a>
</g>
</g>
<!-- Node16&#45;&gt;Node19 -->
<g id="edge34" class="edge">
<title>Node16&#45;&gt;Node19</title>
<path fill="none" stroke="midnightblue" d="M976.36,-110.43C1014.32,-100.23 1071.05,-84.99 1106.23,-75.54"/>
<polygon fill="midnightblue" stroke="midnightblue" points="975.41,-107.06 966.66,-113.03 977.22,-113.82 975.41,-107.06"/>
</g>
<!-- Node21 -->
<g id="node19" class="node">
<title>Node21</title>
<g id="a_node19"><a xlink:href="_multi_phase_8cpp.html" target="_top" xlink:title=" ">
<polygon fill="white" stroke="black" points="976.5,-56.5 976.5,-75.5 1067.5,-75.5 1067.5,-56.5 976.5,-56.5"/>
<text text-anchor="middle" x="1022" y="-63.5" font-family="Helvetica,sans-Serif" font-size="10.00">MultiPhase.cpp</text>
</a>
</g>
</g>
<!-- Node16&#45;&gt;Node21 -->
<g id="edge35" class="edge">
<title>Node16&#45;&gt;Node21</title>
<path fill="none" stroke="midnightblue" d="M959.19,-106.9C974.78,-97 995.13,-84.07 1008.38,-75.65"/>
<polygon fill="midnightblue" stroke="midnightblue" points="957.22,-104.01 950.66,-112.32 960.97,-109.92 957.22,-104.01"/>
</g>
<!-- Node17&#45;&gt;Node7 -->
<g id="edge26" class="edge">
<title>Node17&#45;&gt;Node7</title>
<path fill="none" stroke="midnightblue" d="M354.95,-53.54C319.91,-43.26 269.32,-28.41 238.11,-19.25"/>
<polygon fill="midnightblue" stroke="midnightblue" points="354.26,-56.99 364.84,-56.44 356.23,-50.27 354.26,-56.99"/>
</g>
<!-- Node18&#45;&gt;Node14 -->
<g id="edge33" class="edge">
<title>Node18&#45;&gt;Node14</title>
<path fill="none" stroke="midnightblue" d="M1264.01,-49.82C1252.54,-40.15 1238.09,-27.95 1228.47,-19.83"/>
<polygon fill="midnightblue" stroke="midnightblue" points="1261.82,-52.55 1271.72,-56.32 1266.33,-47.2 1261.82,-52.55"/>
</g>
<!-- Node22&#45;&gt;Node23 -->
<g id="edge37" class="edge">
<title>Node22&#45;&gt;Node23</title>
<path fill="none" stroke="midnightblue" d="M675,-213.8C675,-204.91 675,-194.78 675,-187.75"/>
<polygon fill="midnightblue" stroke="midnightblue" points="671.5,-214.08 675,-224.08 678.5,-214.08 671.5,-214.08"/>
</g>
<!-- Node24 -->
<g id="node22" class="node">
<title>Node24</title>
<g id="a_node22"><a xlink:href="density_8_h.html" target="_top" xlink:title=" ">
<polygon fill="white" stroke="red" points="446,-112.5 446,-131.5 508,-131.5 508,-112.5 446,-112.5"/>
<text text-anchor="middle" x="477" y="-119.5" font-family="Helvetica,sans-Serif" font-size="10.00">density.H</text>
</a>
</g>
</g>
<!-- Node23&#45;&gt;Node24 -->
<g id="edge38" class="edge">
<title>Node23&#45;&gt;Node24</title>
<path fill="none" stroke="midnightblue" d="M641.22,-167.79C603.92,-157.61 544.34,-141.37 508.13,-131.49"/>
<polygon fill="midnightblue" stroke="midnightblue" points="640.55,-171.23 651.12,-170.49 642.39,-164.48 640.55,-171.23"/>
</g>
<!-- Node26 -->
<g id="node23" class="node">
<title>Node26</title>
<g id="a_node23"><a xlink:href="icns_8_h.html" target="_top" xlink:title=" ">
<polygon fill="white" stroke="red" points="274.5,-112.5 274.5,-131.5 321.5,-131.5 321.5,-112.5 274.5,-112.5"/>
<text text-anchor="middle" x="298" y="-119.5" font-family="Helvetica,sans-Serif" font-size="10.00">icns.H</text>
</a>
</g>
</g>
<!-- Node23&#45;&gt;Node26 -->
<g id="edge40" class="edge">
<title>Node23&#45;&gt;Node26</title>
<path fill="none" stroke="midnightblue" d="M640.89,-173.89C579.11,-167.95 444.76,-153.64 333,-132 329.3,-131.28 325.42,-130.41 321.63,-129.49"/>
<polygon fill="midnightblue" stroke="midnightblue" points="640.92,-177.41 651.21,-174.87 641.58,-170.44 640.92,-177.41"/>
</g>
<!-- Node30 -->
<g id="node25" class="node">
<title>Node30</title>
<g id="a_node25"><a xlink:href="levelset_8_h.html" target="_top" xlink:title=" ">
<polygon fill="white" stroke="red" points="717,-112.5 717,-131.5 783,-131.5 783,-112.5 717,-112.5"/>
<text text-anchor="middle" x="750" y="-119.5" font-family="Helvetica,sans-Serif" font-size="10.00">levelset.H</text>
</a>
</g>
</g>
<!-- Node23&#45;&gt;Node30 -->
<g id="edge47" class="edge">
<title>Node23&#45;&gt;Node30</title>
<path fill="none" stroke="midnightblue" d="M695.31,-162.38C708.86,-152.62 726.24,-140.11 737.73,-131.83"/>
<polygon fill="midnightblue" stroke="midnightblue" points="693.12,-159.64 687.05,-168.32 697.21,-165.32 693.12,-159.64"/>
</g>
<!-- Node32 -->
<g id="node26" class="node">
<title>Node32</title>
<g id="a_node26"><a xlink:href="_s_d_r_8_h.html" target="_top" xlink:title=" ">
<polygon fill="white" stroke="red" points="651.5,-112.5 651.5,-131.5 698.5,-131.5 698.5,-112.5 651.5,-112.5"/>
<text text-anchor="middle" x="675" y="-119.5" font-family="Helvetica,sans-Serif" font-size="10.00">SDR.H</text>
</a>
</g>
</g>
<!-- Node23&#45;&gt;Node32 -->
<g id="edge49" class="edge">
<title>Node23&#45;&gt;Node32</title>
<path fill="none" stroke="midnightblue" d="M675,-157.8C675,-148.91 675,-138.78 675,-131.75"/>
<polygon fill="midnightblue" stroke="midnightblue" points="671.5,-158.08 675,-168.08 678.5,-158.08 671.5,-158.08"/>
</g>
<!-- Node37 -->
<g id="node27" class="node">
<title>Node37</title>
<g id="a_node27"><a xlink:href="temperature_8_h.html" target="_top" xlink:title=" ">
<polygon fill="white" stroke="black" points="801,-112.5 801,-131.5 889,-131.5 889,-112.5 801,-112.5"/>
<text text-anchor="middle" x="845" y="-119.5" font-family="Helvetica,sans-Serif" font-size="10.00">temperature.H</text>
</a>
</g>
</g>
<!-- Node23&#45;&gt;Node37 -->
<g id="edge51" class="edge">
<title>Node23&#45;&gt;Node37</title>
<path fill="none" stroke="midnightblue" d="M708.47,-166.37C740.61,-156.16 788.52,-140.94 818.2,-131.51"/>
<polygon fill="midnightblue" stroke="midnightblue" points="707.11,-163.13 698.64,-169.49 709.23,-169.8 707.11,-163.13"/>
</g>
<!-- Node38 -->
<g id="node28" class="node">
<title>Node38</title>
<g id="a_node28"><a xlink:href="_t_k_e_8_h.html" target="_top" xlink:title=" ">
<polygon fill="white" stroke="red" points="1186,-112.5 1186,-131.5 1232,-131.5 1232,-112.5 1186,-112.5"/>
<text text-anchor="middle" x="1209" y="-119.5" font-family="Helvetica,sans-Serif" font-size="10.00">TKE.H</text>
</a>
</g>
</g>
<!-- Node23&#45;&gt;Node38 -->
<g id="edge53" class="edge">
<title>Node23&#45;&gt;Node38</title>
<path fill="none" stroke="midnightblue" d="M708.88,-176.12C790.24,-173.54 1002.8,-164.02 1177,-132 1179.84,-131.48 1182.79,-130.82 1185.7,-130.09"/>
<polygon fill="midnightblue" stroke="midnightblue" points="708.62,-172.63 698.73,-176.43 708.83,-179.62 708.62,-172.63"/>
</g>
<!-- Node42 -->
<g id="node30" class="node">
<title>Node42</title>
<g id="a_node30"><a xlink:href="vof_8_h.html" target="_top" xlink:title=" ">
<polygon fill="white" stroke="red" points="1126,-112.5 1126,-131.5 1168,-131.5 1168,-112.5 1126,-112.5"/>
<text text-anchor="middle" x="1147" y="-119.5" font-family="Helvetica,sans-Serif" font-size="10.00">vof.H</text>
</a>
</g>
</g>
<!-- Node23&#45;&gt;Node42 -->
<g id="edge56" class="edge">
<title>Node23&#45;&gt;Node42</title>
<path fill="none" stroke="midnightblue" d="M708.84,-173.13C800.49,-162.64 1051.55,-133.92 1125.96,-125.41"/>
<polygon fill="midnightblue" stroke="midnightblue" points="708.27,-169.67 698.73,-174.29 709.06,-176.63 708.27,-169.67"/>
</g>
<!-- Node24&#45;&gt;Node5 -->
<g id="edge39" class="edge">
<title>Node24&#45;&gt;Node5</title>
<path fill="none" stroke="midnightblue" d="M491.42,-104.43C499.66,-94.97 509.65,-83.48 516.38,-75.75"/>
<polygon fill="midnightblue" stroke="midnightblue" points="488.69,-102.24 484.76,-112.08 493.97,-106.84 488.69,-102.24"/>
</g>
<!-- Node26&#45;&gt;Node6 -->
<g id="edge42" class="edge">
<title>Node26&#45;&gt;Node6</title>
<path fill="none" stroke="midnightblue" d="M294.5,-102.1C292.84,-93.14 290.94,-82.86 289.62,-75.75"/>
<polygon fill="midnightblue" stroke="midnightblue" points="291.09,-102.89 296.35,-112.08 297.97,-101.61 291.09,-102.89"/>
</g>
<!-- Node26&#45;&gt;Node7 -->
<g id="edge41" class="edge">
<title>Node26&#45;&gt;Node7</title>
<path fill="none" stroke="midnightblue" d="M268.17,-107.65C254.46,-100.14 239.04,-89.53 229,-76 216.24,-58.82 212.02,-33.21 210.65,-19.85"/>
<polygon fill="midnightblue" stroke="midnightblue" points="266.81,-110.88 277.3,-112.35 270.02,-104.66 266.81,-110.88"/>
</g>
<!-- Node26&#45;&gt;Node9 -->
<g id="edge46" class="edge">
<title>Node26&#45;&gt;Node9</title>
<path fill="none" stroke="midnightblue" d="M264.9,-109.16C236.51,-99.01 196.28,-84.63 170.93,-75.56"/>
<polygon fill="midnightblue" stroke="midnightblue" points="263.81,-112.49 274.41,-112.56 266.17,-105.9 263.81,-112.49"/>
</g>
<!-- Node26&#45;&gt;Node17 -->
<g id="edge43" class="edge">
<title>Node26&#45;&gt;Node17</title>
<path fill="none" stroke="midnightblue" d="M322.57,-107.18C340.24,-97.24 363.51,-84.15 378.61,-75.65"/>
<polygon fill="midnightblue" stroke="midnightblue" points="320.42,-104.37 313.42,-112.32 323.86,-110.47 320.42,-104.37"/>
</g>
<!-- Node26&#45;&gt;Node27 -->
<g id="edge44" class="edge">
<title>Node26&#45;&gt;Node27</title>
<path fill="none" stroke="midnightblue" d="M264.61,-113.82C218.6,-103.92 135.83,-86.11 86.7,-75.54"/>
<polygon fill="midnightblue" stroke="midnightblue" points="263.87,-117.24 274.39,-115.92 265.35,-110.39 263.87,-117.24"/>
</g>
<!-- Node27&#45;&gt;Node7 -->
<g id="edge45" class="edge">
<title>Node27&#45;&gt;Node7</title>
<path fill="none" stroke="midnightblue" d="M82.7,-53.17C113.4,-43 156.92,-28.59 184.29,-19.52"/>
<polygon fill="midnightblue" stroke="midnightblue" points="81.22,-49.98 72.83,-56.44 83.42,-56.62 81.22,-49.98"/>
</g>
<!-- Node30&#45;&gt;Node10 -->
<g id="edge48" class="edge">
<title>Node30&#45;&gt;Node10</title>
<path fill="none" stroke="midnightblue" d="M743.22,-102.69C739.85,-93.59 735.93,-83.01 733.24,-75.75"/>
<polygon fill="midnightblue" stroke="midnightblue" points="739.94,-103.92 746.7,-112.08 746.51,-101.49 739.94,-103.92"/>
</g>
<!-- Node32&#45;&gt;Node11 -->
<g id="edge50" class="edge">
<title>Node32&#45;&gt;Node11</title>
<path fill="none" stroke="midnightblue" d="M665.15,-103.27C660.03,-94.05 653.98,-83.17 649.86,-75.75"/>
<polygon fill="midnightblue" stroke="midnightblue" points="662.13,-105.04 670.05,-112.08 668.25,-101.64 662.13,-105.04"/>
</g>
<!-- Node37&#45;&gt;Node12 -->
<g id="edge52" class="edge">
<title>Node37&#45;&gt;Node12</title>
<path fill="none" stroke="midnightblue" d="M841.5,-102.1C839.84,-93.14 837.94,-82.86 836.62,-75.75"/>
<polygon fill="midnightblue" stroke="midnightblue" points="838.09,-102.89 843.35,-112.08 844.97,-101.61 838.09,-102.89"/>
</g>
<!-- Node38&#45;&gt;Node13 -->
<g id="edge54" class="edge">
<title>Node38&#45;&gt;Node13</title>
<path fill="none" stroke="midnightblue" d="M1175.88,-111.94C1083.35,-91.43 1057.28,-94.24 968,-76 964.81,-75.35 961.48,-74.62 958.18,-73.88"/>
<polygon fill="midnightblue" stroke="midnightblue" points="1175.13,-115.35 1185.65,-114.13 1176.66,-108.52 1175.13,-115.35"/>
</g>
<!-- Node40 -->
<g id="node29" class="node">
<title>Node40</title>
<g id="a_node29"><a xlink:href="_one_eq_ksgs_8cpp.html" target="_top" xlink:title=" ">
<polygon fill="white" stroke="black" points="1374,-56.5 1374,-75.5 1466,-75.5 1466,-56.5 1374,-56.5"/>
<text text-anchor="middle" x="1420" y="-63.5" font-family="Helvetica,sans-Serif" font-size="10.00">OneEqKsgs.cpp</text>
</a>
</g>
</g>
<!-- Node38&#45;&gt;Node40 -->
<g id="edge55" class="edge">
<title>Node38&#45;&gt;Node40</title>
<path fill="none" stroke="midnightblue" d="M1242.29,-112.48C1281.7,-102.39 1346.93,-85.7 1386.45,-75.59"/>
<polygon fill="midnightblue" stroke="midnightblue" points="1241.21,-109.14 1232.39,-115.01 1242.94,-115.93 1241.21,-109.14"/>
</g>
<!-- Node42&#45;&gt;Node14 -->
<g id="edge57" class="edge">
<title>Node42&#45;&gt;Node14</title>
<path fill="none" stroke="midnightblue" d="M1178.16,-112.05C1246.91,-97.17 1286.46,-127.42 1327,-76 1352.3,-43.9 1283.71,-24.19 1244,-15.77"/>
<polygon fill="midnightblue" stroke="midnightblue" points="1177.15,-108.69 1168.26,-114.46 1178.81,-115.49 1177.15,-108.69"/>
</g>
<!-- Node42&#45;&gt;Node18 -->
<g id="edge58" class="edge">
<title>Node42&#45;&gt;Node18</title>
<path fill="none" stroke="midnightblue" d="M1177.59,-108.76C1202.91,-98.63 1238.23,-84.51 1260.61,-75.56"/>
<polygon fill="midnightblue" stroke="midnightblue" points="1176.08,-105.6 1168.09,-112.56 1178.68,-112.1 1176.08,-105.6"/>
</g>
<!-- Node45&#45;&gt;Node9 -->
<g id="edge62" class="edge">
<title>Node45&#45;&gt;Node9</title>
<path fill="none" stroke="midnightblue" d="M179.32,-214.83C186.72,-190.62 196.46,-146.78 184,-112 178.75,-97.34 166.42,-84.03 157.44,-75.76"/>
<polygon fill="midnightblue" stroke="midnightblue" points="175.95,-213.88 176.18,-224.47 182.61,-216.05 175.95,-213.88"/>
</g>
<!-- Node45&#45;&gt;Node23 -->
<g id="edge63" class="edge">
<title>Node45&#45;&gt;Node23</title>
<path fill="none" stroke="midnightblue" d="M227.65,-227.12C336.34,-215.43 575.7,-189.68 651.5,-181.53"/>
<polygon fill="midnightblue" stroke="midnightblue" points="227.12,-223.66 217.55,-228.21 227.87,-230.62 227.12,-223.66"/>
</g>
<!-- Node45&#45;&gt;Node27 -->
<g id="edge61" class="edge">
<title>Node45&#45;&gt;Node27</title>
<path fill="none" stroke="midnightblue" d="M168.83,-214.39C165.23,-200.81 159.15,-182.35 150,-168 124.42,-127.88 80.07,-91.68 58.91,-75.68"/>
<polygon fill="midnightblue" stroke="midnightblue" points="165.51,-215.56 171.28,-224.45 172.31,-213.91 165.51,-215.56"/>
</g>
<!-- Node46 -->
<g id="node32" class="node">
<title>Node46</title>
<g id="a_node32"><a xlink:href="_diffusion_ops_8cpp.html" target="_top" xlink:title=" ">
<polygon fill="white" stroke="black" points="42.5,-168.5 42.5,-187.5 141.5,-187.5 141.5,-168.5 42.5,-168.5"/>
<text text-anchor="middle" x="92" y="-175.5" font-family="Helvetica,sans-Serif" font-size="10.00">DiffusionOps.cpp</text>
</a>
</g>
</g>
<!-- Node45&#45;&gt;Node46 -->
<g id="edge60" class="edge">
<title>Node45&#45;&gt;Node46</title>
<path fill="none" stroke="midnightblue" d="M151.43,-218.62C136.64,-208.76 117.49,-195.99 104.98,-187.65"/>
<polygon fill="midnightblue" stroke="midnightblue" points="149.72,-221.69 159.99,-224.32 153.61,-215.86 149.72,-221.69"/>
</g>
<!-- Node50 -->
<g id="node36" class="node">
<title>Node50</title>
<g id="a_node36"><a xlink:href="_a_m_d_8_h.html" target="_top" xlink:title=" ">
<polygon fill="white" stroke="black" points="1047,-224.5 1047,-243.5 1097,-243.5 1097,-224.5 1047,-224.5"/>
<text text-anchor="middle" x="1072" y="-231.5" font-family="Helvetica,sans-Serif" font-size="10.00">AMD.H</text>
</a>
</g>
</g>
<!-- Node49&#45;&gt;Node50 -->
<g id="edge70" class="edge">
<title>Node49&#45;&gt;Node50</title>
<path fill="none" stroke="midnightblue" d="M962.16,-276.77C988.83,-266.63 1026.07,-252.47 1049.6,-243.52"/>
<polygon fill="midnightblue" stroke="midnightblue" points="960.6,-273.62 952.5,-280.44 963.09,-280.16 960.6,-273.62"/>
</g>
<!-- Node52 -->
<g id="node38" class="node">
<title>Node52</title>
<g id="a_node38"><a xlink:href="_a_m_d_no_therm_8_h.html" target="_top" xlink:title=" ">
<polygon fill="white" stroke="black" points="1125.5,-224.5 1125.5,-243.5 1220.5,-243.5 1220.5,-224.5 1125.5,-224.5"/>
<text text-anchor="middle" x="1173" y="-231.5" font-family="Helvetica,sans-Serif" font-size="10.00">AMDNoTherm.H</text>
</a>
</g>
</g>
<!-- Node49&#45;&gt;Node52 -->
<g id="edge72" class="edge">
<title>Node49&#45;&gt;Node52</title>
<path fill="none" stroke="midnightblue" d="M978.52,-278.22C1024.44,-268.01 1092.45,-252.9 1134.68,-243.52"/>
<polygon fill="midnightblue" stroke="midnightblue" points="977.51,-274.86 968.5,-280.44 979.03,-281.69 977.51,-274.86"/>
</g>
<!-- Node54 -->
<g id="node40" class="node">
<title>Node54</title>
<g id="a_node40"><a xlink:href="_one_eq_ksgs_8_h.html" target="_top" xlink:title=" ">
<polygon fill="white" stroke="black" points="951,-168.5 951,-187.5 1033,-187.5 1033,-168.5 951,-168.5"/>
<text text-anchor="middle" x="992" y="-175.5" font-family="Helvetica,sans-Serif" font-size="10.00">OneEqKsgs.H</text>
</a>
</g>
</g>
<!-- Node49&#45;&gt;Node54 -->
<g id="edge74" class="edge">
<title>Node49&#45;&gt;Node54</title>
<path fill="none" stroke="midnightblue" d="M953.32,-274.46C963.76,-266.71 975.23,-256.24 982,-244 992.05,-225.81 992.87,-200.63 992.5,-187.6"/>
<polygon fill="midnightblue" stroke="midnightblue" points="951.12,-271.72 944.91,-280.3 955.11,-277.47 951.12,-271.72"/>
</g>
<!-- Node55 -->
<g id="node41" class="node">
<title>Node55</title>
<g id="a_node41"><a xlink:href="_smagorinsky_8_h.html" target="_top" xlink:title=" ">
<polygon fill="white" stroke="red" points="779.5,-224.5 779.5,-243.5 868.5,-243.5 868.5,-224.5 779.5,-224.5"/>
<text text-anchor="middle" x="824" y="-231.5" font-family="Helvetica,sans-Serif" font-size="10.00">Smagorinsky.H</text>
</a>
</g>
</g>
<!-- Node49&#45;&gt;Node55 -->
<g id="edge76" class="edge">
<title>Node49&#45;&gt;Node55</title>
<path fill="none" stroke="midnightblue" d="M903.94,-275.73C884.32,-265.73 857.97,-252.31 840.99,-243.65"/>
<polygon fill="midnightblue" stroke="midnightblue" points="902.47,-278.9 912.97,-280.32 905.65,-272.67 902.47,-278.9"/>
</g>
<!-- Node57 -->
<g id="node42" class="node">
<title>Node57</title>
<g id="a_node42"><a xlink:href="_k_omega_s_s_t_8_h.html" target="_top" xlink:title=" ">
<polygon fill="white" stroke="red" points="887,-224.5 887,-243.5 973,-243.5 973,-224.5 887,-224.5"/>
<text text-anchor="middle" x="930" y="-231.5" font-family="Helvetica,sans-Serif" font-size="10.00">KOmegaSST.H</text>
</a>
</g>
</g>
<!-- Node49&#45;&gt;Node57 -->
<g id="edge77" class="edge">
<title>Node49&#45;&gt;Node57</title>
<path fill="none" stroke="midnightblue" d="M930,-269.8C930,-260.91 930,-250.78 930,-243.75"/>
<polygon fill="midnightblue" stroke="midnightblue" points="926.5,-270.08 930,-280.08 933.5,-270.08 926.5,-270.08"/>
</g>
<!-- Node51 -->
<g id="node37" class="node">
<title>Node51</title>
<g id="a_node37"><a xlink:href="_a_m_d_8cpp.html" target="_top" xlink:title=" ">
<polygon fill="white" stroke="black" points="1051,-168.5 1051,-187.5 1111,-187.5 1111,-168.5 1051,-168.5"/>
<text text-anchor="middle" x="1081" y="-175.5" font-family="Helvetica,sans-Serif" font-size="10.00">AMD.cpp</text>
</a>
</g>
</g>
<!-- Node50&#45;&gt;Node51 -->
<g id="edge71" class="edge">
<title>Node50&#45;&gt;Node51</title>
<path fill="none" stroke="midnightblue" d="M1075.15,-214.1C1076.64,-205.14 1078.36,-194.86 1079.54,-187.75"/>
<polygon fill="midnightblue" stroke="midnightblue" points="1071.68,-213.64 1073.49,-224.08 1078.58,-214.79 1071.68,-213.64"/>
</g>
<!-- Node53 -->
<g id="node39" class="node">
<title>Node53</title>
<g id="a_node39"><a xlink:href="_a_m_d_no_therm_8cpp.html" target="_top" xlink:title=" ">
<polygon fill="white" stroke="black" points="1129.5,-168.5 1129.5,-187.5 1234.5,-187.5 1234.5,-168.5 1129.5,-168.5"/>
<text text-anchor="middle" x="1182" y="-175.5" font-family="Helvetica,sans-Serif" font-size="10.00">AMDNoTherm.cpp</text>
</a>
</g>
</g>
<!-- Node52&#45;&gt;Node53 -->
<g id="edge73" class="edge">
<title>Node52&#45;&gt;Node53</title>
<path fill="none" stroke="midnightblue" d="M1176.15,-214.1C1177.64,-205.14 1179.36,-194.86 1180.54,-187.75"/>
<polygon fill="midnightblue" stroke="midnightblue" points="1172.68,-213.64 1174.49,-224.08 1179.58,-214.79 1172.68,-213.64"/>
</g>
<!-- Node54&#45;&gt;Node40 -->
<g id="edge75" class="edge">
<title>Node54&#45;&gt;Node40</title>
<path fill="none" stroke="midnightblue" d="M1043.01,-167.81C1115.51,-154.74 1239.8,-132.32 1241,-132 1300.05,-116.07 1367.24,-89.22 1399.96,-75.55"/>
<polygon fill="midnightblue" stroke="midnightblue" points="1042.36,-164.37 1033.14,-169.59 1043.61,-171.26 1042.36,-164.37"/>
</g>
</g>
</svg>
