<?xml version="1.0" encoding="UTF-8" standalone="no"?>
<!DOCTYPE svg PUBLIC "-//W3C//DTD SVG 1.1//EN"
 "http://www.w3.org/Graphics/SVG/1.1/DTD/svg11.dtd">
<!-- Generated by graphviz version 2.43.0 (0)
 -->
<!-- Title: IntScratchField.H Pages: 1 -->
<svg width="4002pt" height="196pt"
 viewBox="0.00 0.00 4002.13 196.00" xmlns="http://www.w3.org/2000/svg" xmlns:xlink="http://www.w3.org/1999/xlink">
<g id="graph0" class="graph" transform="scale(1 1) rotate(0) translate(4 192)">
<title>IntScratchField.H</title>
<polygon fill="white" stroke="transparent" points="-4,4 -4,-192 3998.13,-192 3998.13,4 -4,4"/>
<!-- Node1 -->
<g id="node1" class="node">
<title>Node1</title>
<g id="a_node1"><a xlink:title=" ">
<polygon fill="#bfbfbf" stroke="black" points="916,-168.5 916,-187.5 1015,-187.5 1015,-168.5 916,-168.5"/>
<text text-anchor="middle" x="965.5" y="-175.5" font-family="Helvetica,sans-Serif" font-size="10.00">IntScratchField.H</text>
</a>
</g>
</g>
<!-- Node2 -->
<g id="node2" class="node">
<title>Node2</title>
<g id="a_node2"><a xlink:href="_field_repo_8_h.html" target="_top" xlink:title=" ">
<polygon fill="white" stroke="red" points="1838,-112.5 1838,-131.5 1913,-131.5 1913,-112.5 1838,-112.5"/>
<text text-anchor="middle" x="1875.5" y="-119.5" font-family="Helvetica,sans-Serif" font-size="10.00">FieldRepo.H</text>
</a>
</g>
</g>
<!-- Node1&#45;&gt;Node2 -->
<g id="edge1" class="edge">
<title>Node1&#45;&gt;Node2</title>
<path fill="none" stroke="midnightblue" d="M1025.27,-173.45C1198.41,-163.18 1696.94,-133.6 1837.94,-125.23"/>
<polygon fill="midnightblue" stroke="midnightblue" points="1024.85,-169.97 1015.07,-174.06 1025.26,-176.96 1024.85,-169.97"/>
</g>
<!-- Node242 -->
<g id="node18" class="node">
<title>Node242</title>
<g id="a_node18"><a xlink:href="_int_scratch_field_8cpp.html" target="_top" xlink:title=" ">
<polygon fill="white" stroke="black" points="0,-56.5 0,-75.5 109,-75.5 109,-56.5 0,-56.5"/>
<text text-anchor="middle" x="54.5" y="-63.5" font-family="Helvetica,sans-Serif" font-size="10.00">IntScratchField.cpp</text>
</a>
</g>
</g>
<!-- Node1&#45;&gt;Node242 -->
<g id="edge68" class="edge">
<title>Node1&#45;&gt;Node242</title>
<path fill="none" stroke="midnightblue" d="M905.83,-170.32C767.38,-154.73 413.64,-114.34 118.5,-76 115.5,-75.61 112.41,-75.2 109.3,-74.78"/>
<polygon fill="midnightblue" stroke="midnightblue" points="905.48,-173.8 915.81,-171.44 906.26,-166.85 905.48,-173.8"/>
</g>
<!-- Node3 -->
<g id="node3" class="node">
<title>Node3</title>
<g id="a_node3"><a xlink:href="_b_c_interface_8cpp.html" target="_top" xlink:title=" ">
<polygon fill="white" stroke="black" points="1285.5,-0.5 1285.5,-19.5 1379.5,-19.5 1379.5,-0.5 1285.5,-0.5"/>
<text text-anchor="middle" x="1332.5" y="-7.5" font-family="Helvetica,sans-Serif" font-size="10.00">BCInterface.cpp</text>
</a>
</g>
</g>
<!-- Node2&#45;&gt;Node3 -->
<g id="edge2" class="edge">
<title>Node2&#45;&gt;Node3</title>
<path fill="none" stroke="midnightblue" d="M1901.55,-107.47C1923.78,-94.22 1949.77,-73.54 1933.5,-56 1914.73,-35.77 1518.62,-18.32 1379.94,-12.81"/>
<polygon fill="midnightblue" stroke="midnightblue" points="1899.67,-104.51 1892.7,-112.49 1903.12,-110.6 1899.67,-104.51"/>
</g>
<!-- Node4 -->
<g id="node4" class="node">
<title>Node4</title>
<g id="a_node4"><a xlink:href="_fixed_gradient_b_c_8_h.html" target="_top" xlink:title=" ">
<polygon fill="white" stroke="red" points="849.5,-56.5 849.5,-75.5 957.5,-75.5 957.5,-56.5 849.5,-56.5"/>
<text text-anchor="middle" x="903.5" y="-63.5" font-family="Helvetica,sans-Serif" font-size="10.00">FixedGradientBC.H</text>
</a>
</g>
</g>
<!-- Node2&#45;&gt;Node4 -->
<g id="edge3" class="edge">
<title>Node2&#45;&gt;Node4</title>
<path fill="none" stroke="midnightblue" d="M1827.7,-120.19C1692.35,-117.56 1294.92,-107.52 966.5,-76 963.64,-75.73 960.71,-75.41 957.76,-75.08"/>
<polygon fill="midnightblue" stroke="midnightblue" points="1827.68,-123.69 1837.74,-120.38 1827.81,-116.69 1827.68,-123.69"/>
</g>
<!-- Node6 -->
<g id="node5" class="node">
<title>Node6</title>
<g id="a_node5"><a xlink:href="velocity__bcs_8_h.html" target="_top" xlink:title=" ">
<polygon fill="white" stroke="red" points="229.5,-56.5 229.5,-75.5 317.5,-75.5 317.5,-56.5 229.5,-56.5"/>
<text text-anchor="middle" x="273.5" y="-63.5" font-family="Helvetica,sans-Serif" font-size="10.00">velocity_bcs.H</text>
</a>
</g>
</g>
<!-- Node2&#45;&gt;Node6 -->
<g id="edge5" class="edge">
<title>Node2&#45;&gt;Node6</title>
<path fill="none" stroke="midnightblue" d="M1827.56,-120.41C1600.58,-117.49 632.49,-103.63 331.5,-76 327.04,-75.59 322.39,-75.06 317.76,-74.45"/>
<polygon fill="midnightblue" stroke="midnightblue" points="1827.76,-123.91 1837.8,-120.54 1827.85,-116.91 1827.76,-123.91"/>
</g>
<!-- Node9 -->
<g id="node6" class="node">
<title>Node9</title>
<g id="a_node6"><a xlink:href="_c_f_d_sim_8_h.html" target="_top" xlink:title=" ">
<polygon fill="white" stroke="red" points="505.5,-56.5 505.5,-75.5 571.5,-75.5 571.5,-56.5 505.5,-56.5"/>
<text text-anchor="middle" x="538.5" y="-63.5" font-family="Helvetica,sans-Serif" font-size="10.00">CFDSim.H</text>
</a>
</g>
</g>
<!-- Node2&#45;&gt;Node9 -->
<g id="edge6" class="edge">
<title>Node2&#45;&gt;Node9</title>
<path fill="none" stroke="midnightblue" d="M1827.76,-120.32C1624.86,-117.29 833.25,-103.87 585.5,-76 580.96,-75.49 576.2,-74.78 571.53,-73.99"/>
<polygon fill="midnightblue" stroke="midnightblue" points="1827.75,-123.82 1837.8,-120.47 1827.85,-116.82 1827.75,-123.82"/>
</g>
<!-- Node61 -->
<g id="node7" class="node">
<title>Node61</title>
<g id="a_node7"><a xlink:href="_p_d_e_base_8cpp.html" target="_top" xlink:title=" ">
<polygon fill="white" stroke="black" points="250.5,-0.5 250.5,-19.5 330.5,-19.5 330.5,-0.5 250.5,-0.5"/>
<text text-anchor="middle" x="290.5" y="-7.5" font-family="Helvetica,sans-Serif" font-size="10.00">PDEBase.cpp</text>
</a>
</g>
</g>
<!-- Node2&#45;&gt;Node61 -->
<g id="edge38" class="edge">
<title>Node2&#45;&gt;Node61</title>
<path fill="none" stroke="midnightblue" d="M1827.64,-120.49C1578.02,-117.69 434.08,-103.41 364.5,-76 334.59,-64.22 308.7,-34.69 297.06,-19.83"/>
<polygon fill="midnightblue" stroke="midnightblue" points="1827.8,-123.99 1837.84,-120.6 1827.88,-116.99 1827.8,-123.99"/>
</g>
<!-- Node77 -->
<g id="node8" class="node">
<title>Node77</title>
<g id="a_node8"><a xlink:href="_i_b_8cpp.html" target="_top" xlink:title=" ">
<polygon fill="white" stroke="black" points="349,-0.5 349,-19.5 396,-19.5 396,-0.5 349,-0.5"/>
<text text-anchor="middle" x="372.5" y="-7.5" font-family="Helvetica,sans-Serif" font-size="10.00">IB.cpp</text>
</a>
</g>
</g>
<!-- Node2&#45;&gt;Node77 -->
<g id="edge48" class="edge">
<title>Node2&#45;&gt;Node77</title>
<path fill="none" stroke="midnightblue" d="M1827.89,-121.06C1596.94,-121.14 598.93,-118.97 467.5,-76 431.79,-64.32 397.29,-34.74 381.49,-19.85"/>
<polygon fill="midnightblue" stroke="midnightblue" points="1827.99,-124.56 1837.99,-121.05 1827.99,-117.56 1827.99,-124.56"/>
</g>
<!-- Node88 -->
<g id="node9" class="node">
<title>Node88</title>
<g id="a_node9"><a xlink:href="incflo_8_h.html" target="_top" xlink:title=" ">
<polygon fill="white" stroke="red" points="414,-0.5 414,-19.5 467,-19.5 467,-0.5 414,-0.5"/>
<text text-anchor="middle" x="440.5" y="-7.5" font-family="Helvetica,sans-Serif" font-size="10.00">incflo.H</text>
</a>
</g>
</g>
<!-- Node2&#45;&gt;Node88 -->
<g id="edge51" class="edge">
<title>Node2&#45;&gt;Node88</title>
<path fill="none" stroke="midnightblue" d="M1827.67,-120.52C1591.39,-117.99 557.72,-105.28 496.5,-76 471.24,-63.92 452.88,-34.53 444.91,-19.76"/>
<polygon fill="midnightblue" stroke="midnightblue" points="1827.95,-124.02 1837.99,-120.62 1828.03,-117.02 1827.95,-124.02"/>
</g>
<!-- Node116 -->
<g id="node10" class="node">
<title>Node116</title>
<g id="a_node10"><a xlink:href="_ocean_waves_8cpp.html" target="_top" xlink:title=" ">
<polygon fill="white" stroke="black" points="718.5,-0.5 718.5,-19.5 818.5,-19.5 818.5,-0.5 718.5,-0.5"/>
<text text-anchor="middle" x="768.5" y="-7.5" font-family="Helvetica,sans-Serif" font-size="10.00">OceanWaves.cpp</text>
</a>
</g>
</g>
<!-- Node2&#45;&gt;Node116 -->
<g id="edge52" class="edge">
<title>Node2&#45;&gt;Node116</title>
<path fill="none" stroke="midnightblue" d="M1827.92,-121.01C1612.17,-120.81 734.42,-117.47 694.5,-76 673.51,-54.19 716.92,-31.47 745.71,-19.52"/>
<polygon fill="midnightblue" stroke="midnightblue" points="1827.98,-124.51 1837.99,-121.01 1827.99,-117.51 1827.98,-124.51"/>
</g>
<!-- Node125 -->
<g id="node11" class="node">
<title>Node125</title>
<g id="a_node11"><a xlink:href="_tioga_interface_8cpp.html" target="_top" xlink:title=" ">
<polygon fill="white" stroke="black" points="485,-0.5 485,-19.5 592,-19.5 592,-0.5 485,-0.5"/>
<text text-anchor="middle" x="538.5" y="-7.5" font-family="Helvetica,sans-Serif" font-size="10.00">TiogaInterface.cpp</text>
</a>
</g>
</g>
<!-- Node2&#45;&gt;Node125 -->
<g id="edge57" class="edge">
<title>Node2&#45;&gt;Node125</title>
<path fill="none" stroke="midnightblue" d="M1827.73,-120.45C1617.38,-117.84 779.21,-105.65 665.5,-76 620.2,-64.19 572.57,-34.39 550.74,-19.6"/>
<polygon fill="midnightblue" stroke="midnightblue" points="1827.79,-123.95 1837.83,-120.57 1827.88,-116.95 1827.79,-123.95"/>
</g>
<!-- Node152 -->
<g id="node12" class="node">
<title>Node152</title>
<g id="a_node12"><a xlink:href="_vortex_ring_8cpp.html" target="_top" xlink:title=" ">
<polygon fill="white" stroke="black" points="610.5,-0.5 610.5,-19.5 700.5,-19.5 700.5,-0.5 610.5,-0.5"/>
<text text-anchor="middle" x="655.5" y="-7.5" font-family="Helvetica,sans-Serif" font-size="10.00">VortexRing.cpp</text>
</a>
</g>
</g>
<!-- Node2&#45;&gt;Node152 -->
<g id="edge64" class="edge">
<title>Node2&#45;&gt;Node152</title>
<path fill="none" stroke="midnightblue" d="M1827.93,-120.58C1612.15,-118.52 733.76,-108.18 685.5,-76 666.06,-63.04 658.99,-34.06 656.61,-19.58"/>
<polygon fill="midnightblue" stroke="midnightblue" points="1827.96,-124.08 1837.99,-120.68 1828.02,-117.08 1827.96,-124.08"/>
</g>
<!-- Node232 -->
<g id="node13" class="node">
<title>Node232</title>
<g id="a_node13"><a xlink:href="_godunov_8_h.html" target="_top" xlink:title=" ">
<polygon fill="white" stroke="red" points="975.5,-56.5 975.5,-75.5 1045.5,-75.5 1045.5,-56.5 975.5,-56.5"/>
<text text-anchor="middle" x="1010.5" y="-63.5" font-family="Helvetica,sans-Serif" font-size="10.00">Godunov.H</text>
</a>
</g>
</g>
<!-- Node2&#45;&gt;Node232 -->
<g id="edge13" class="edge">
<title>Node2&#45;&gt;Node232</title>
<path fill="none" stroke="midnightblue" d="M1827.53,-120.83C1700.74,-119.84 1346.43,-113.65 1054.5,-76 1051.72,-75.64 1048.85,-75.2 1045.97,-74.72"/>
<polygon fill="midnightblue" stroke="midnightblue" points="1827.65,-124.33 1837.68,-120.9 1827.7,-117.33 1827.65,-124.33"/>
</g>
<!-- Node237 -->
<g id="node14" class="node">
<title>Node237</title>
<g id="a_node14"><a xlink:href="_m_o_l_8_h.html" target="_top" xlink:title=" ">
<polygon fill="white" stroke="red" points="1064,-56.5 1064,-75.5 1113,-75.5 1113,-56.5 1064,-56.5"/>
<text text-anchor="middle" x="1088.5" y="-63.5" font-family="Helvetica,sans-Serif" font-size="10.00">MOL.H</text>
</a>
</g>
</g>
<!-- Node2&#45;&gt;Node237 -->
<g id="edge14" class="edge">
<title>Node2&#45;&gt;Node237</title>
<path fill="none" stroke="midnightblue" d="M1827.73,-121.43C1708.11,-121.79 1386.4,-118.38 1122.5,-76 1119.49,-75.52 1116.35,-74.88 1113.26,-74.16"/>
<polygon fill="midnightblue" stroke="midnightblue" points="1828.01,-124.93 1838,-121.39 1827.98,-117.93 1828.01,-124.93"/>
</g>
<!-- Node239 -->
<g id="node15" class="node">
<title>Node239</title>
<g id="a_node15"><a xlink:href="_field_8cpp.html" target="_top" xlink:title=" ">
<polygon fill="white" stroke="black" points="1131.5,-56.5 1131.5,-75.5 1191.5,-75.5 1191.5,-56.5 1131.5,-56.5"/>
<text text-anchor="middle" x="1161.5" y="-63.5" font-family="Helvetica,sans-Serif" font-size="10.00">Field.cpp</text>
</a>
</g>
</g>
<!-- Node2&#45;&gt;Node239 -->
<g id="edge15" class="edge">
<title>Node2&#45;&gt;Node239</title>
<path fill="none" stroke="midnightblue" d="M1827.78,-120.44C1717.01,-118.57 1434.05,-110.51 1200.5,-76 1197.61,-75.57 1194.62,-75.04 1191.64,-74.46"/>
<polygon fill="midnightblue" stroke="midnightblue" points="1827.9,-123.94 1837.96,-120.6 1828.01,-116.94 1827.9,-123.94"/>
</g>
<!-- Node240 -->
<g id="node16" class="node">
<title>Node240</title>
<g id="a_node16"><a xlink:href="_field_repo_8cpp.html" target="_top" xlink:title=" ">
<polygon fill="white" stroke="black" points="1210,-56.5 1210,-75.5 1295,-75.5 1295,-56.5 1210,-56.5"/>
<text text-anchor="middle" x="1252.5" y="-63.5" font-family="Helvetica,sans-Serif" font-size="10.00">FieldRepo.cpp</text>
</a>
</g>
</g>
<!-- Node2&#45;&gt;Node240 -->
<g id="edge16" class="edge">
<title>Node2&#45;&gt;Node240</title>
<path fill="none" stroke="midnightblue" d="M1827.68,-118.79C1729.26,-113.91 1497.04,-100.63 1303.5,-76 1300.74,-75.65 1297.89,-75.25 1295.03,-74.82"/>
<polygon fill="midnightblue" stroke="midnightblue" points="1827.73,-122.3 1837.89,-119.3 1828.08,-115.31 1827.73,-122.3"/>
</g>
<!-- Node241 -->
<g id="node17" class="node">
<title>Node241</title>
<g id="a_node17"><a xlink:href="_int_field_8cpp.html" target="_top" xlink:title=" ">
<polygon fill="white" stroke="black" points="1313,-56.5 1313,-75.5 1386,-75.5 1386,-56.5 1313,-56.5"/>
<text text-anchor="middle" x="1349.5" y="-63.5" font-family="Helvetica,sans-Serif" font-size="10.00">IntField.cpp</text>
</a>
</g>
</g>
<!-- Node2&#45;&gt;Node241 -->
<g id="edge17" class="edge">
<title>Node2&#45;&gt;Node241</title>
<path fill="none" stroke="midnightblue" d="M1827.66,-118.1C1741.11,-112.51 1552.92,-98.72 1395.5,-76 1392.44,-75.56 1389.27,-75.05 1386.1,-74.5"/>
<polygon fill="midnightblue" stroke="midnightblue" points="1827.5,-121.6 1837.7,-118.74 1827.94,-114.61 1827.5,-121.6"/>
</g>
<!-- Node2&#45;&gt;Node242 -->
<g id="edge18" class="edge">
<title>Node2&#45;&gt;Node242</title>
<path fill="none" stroke="midnightblue" d="M1827.83,-120.52C1582.92,-117.92 464.38,-104.65 118.5,-76 115.48,-75.75 112.39,-75.45 109.27,-75.12"/>
<polygon fill="midnightblue" stroke="midnightblue" points="1827.8,-124.02 1837.83,-120.62 1827.87,-117.02 1827.8,-124.02"/>
</g>
<!-- Node243 -->
<g id="node19" class="node">
<title>Node243</title>
<g id="a_node19"><a xlink:href="_scratch_field_8cpp.html" target="_top" xlink:title=" ">
<polygon fill="white" stroke="black" points="1404.5,-56.5 1404.5,-75.5 1500.5,-75.5 1500.5,-56.5 1404.5,-56.5"/>
<text text-anchor="middle" x="1452.5" y="-63.5" font-family="Helvetica,sans-Serif" font-size="10.00">ScratchField.cpp</text>
</a>
</g>
</g>
<!-- Node2&#45;&gt;Node243 -->
<g id="edge19" class="edge">
<title>Node2&#45;&gt;Node243</title>
<path fill="none" stroke="midnightblue" d="M1827.51,-115.63C1757.5,-107.68 1623.32,-91.98 1509.5,-76 1506.62,-75.6 1503.67,-75.17 1500.68,-74.73"/>
<polygon fill="midnightblue" stroke="midnightblue" points="1827.44,-119.15 1837.77,-116.79 1828.23,-112.19 1827.44,-119.15"/>
</g>
<!-- Node244 -->
<g id="node20" class="node">
<title>Node244</title>
<g id="a_node20"><a xlink:href="_view_field_8cpp.html" target="_top" xlink:title=" ">
<polygon fill="white" stroke="black" points="1518.5,-56.5 1518.5,-75.5 1602.5,-75.5 1602.5,-56.5 1518.5,-56.5"/>
<text text-anchor="middle" x="1560.5" y="-63.5" font-family="Helvetica,sans-Serif" font-size="10.00">ViewField.cpp</text>
</a>
</g>
</g>
<!-- Node2&#45;&gt;Node244 -->
<g id="edge20" class="edge">
<title>Node2&#45;&gt;Node244</title>
<path fill="none" stroke="midnightblue" d="M1827.79,-112.95C1774.91,-104.02 1687.09,-89.11 1611.5,-76 1608.58,-75.49 1605.56,-74.97 1602.52,-74.44"/>
<polygon fill="midnightblue" stroke="midnightblue" points="1827.45,-116.45 1837.89,-114.66 1828.61,-109.54 1827.45,-116.45"/>
</g>
<!-- Node245 -->
<g id="node21" class="node">
<title>Node245</title>
<g id="a_node21"><a xlink:href="field__algebra_8cpp.html" target="_top" xlink:title=" ">
<polygon fill="white" stroke="black" points="1620.5,-56.5 1620.5,-75.5 1720.5,-75.5 1720.5,-56.5 1620.5,-56.5"/>
<text text-anchor="middle" x="1670.5" y="-63.5" font-family="Helvetica,sans-Serif" font-size="10.00">field_algebra.cpp</text>
</a>
</g>
</g>
<!-- Node2&#45;&gt;Node245 -->
<g id="edge21" class="edge">
<title>Node2&#45;&gt;Node245</title>
<path fill="none" stroke="midnightblue" d="M1833.09,-109.83C1794.39,-99.63 1738.01,-84.78 1702.83,-75.52"/>
<polygon fill="midnightblue" stroke="midnightblue" points="1832.46,-113.28 1843.02,-112.44 1834.24,-106.51 1832.46,-113.28"/>
</g>
<!-- Node246 -->
<g id="node22" class="node">
<title>Node246</title>
<g id="a_node22"><a xlink:href="diffusion_8_h.html" target="_top" xlink:title=" ">
<polygon fill="white" stroke="red" points="1739,-56.5 1739,-75.5 1808,-75.5 1808,-56.5 1739,-56.5"/>
<text text-anchor="middle" x="1773.5" y="-63.5" font-family="Helvetica,sans-Serif" font-size="10.00">diffusion.H</text>
</a>
</g>
</g>
<!-- Node2&#45;&gt;Node246 -->
<g id="edge22" class="edge">
<title>Node2&#45;&gt;Node246</title>
<path fill="none" stroke="midnightblue" d="M1850.17,-107.59C1831.31,-97.61 1806.12,-84.27 1789.85,-75.65"/>
<polygon fill="midnightblue" stroke="midnightblue" points="1848.64,-110.74 1859.11,-112.32 1851.91,-104.55 1848.64,-110.74"/>
</g>
<!-- Node247 -->
<g id="node23" class="node">
<title>Node247</title>
<g id="a_node23"><a xlink:href="_density_source_8_h.html" target="_top" xlink:title=" ">
<polygon fill="white" stroke="red" points="1826.5,-56.5 1826.5,-75.5 1924.5,-75.5 1924.5,-56.5 1826.5,-56.5"/>
<text text-anchor="middle" x="1875.5" y="-63.5" font-family="Helvetica,sans-Serif" font-size="10.00">DensitySource.H</text>
</a>
</g>
</g>
<!-- Node2&#45;&gt;Node247 -->
<g id="edge23" class="edge">
<title>Node2&#45;&gt;Node247</title>
<path fill="none" stroke="midnightblue" d="M1875.5,-101.8C1875.5,-92.91 1875.5,-82.78 1875.5,-75.75"/>
<polygon fill="midnightblue" stroke="midnightblue" points="1872,-102.08 1875.5,-112.08 1879,-102.08 1872,-102.08"/>
</g>
<!-- Node248 -->
<g id="node24" class="node">
<title>Node248</title>
<g id="a_node24"><a xlink:href="_momentum_source_8_h.html" target="_top" xlink:title=" ">
<polygon fill="white" stroke="red" points="2132.5,-56.5 2132.5,-75.5 2248.5,-75.5 2248.5,-56.5 2132.5,-56.5"/>
<text text-anchor="middle" x="2190.5" y="-63.5" font-family="Helvetica,sans-Serif" font-size="10.00">MomentumSource.H</text>
</a>
</g>
</g>
<!-- Node2&#45;&gt;Node248 -->
<g id="edge24" class="edge">
<title>Node2&#45;&gt;Node248</title>
<path fill="none" stroke="midnightblue" d="M1923.31,-112.8C1982.07,-102.73 2081.28,-85.72 2140.86,-75.51"/>
<polygon fill="midnightblue" stroke="midnightblue" points="1922.45,-109.4 1913.18,-114.54 1923.63,-116.3 1922.45,-109.4"/>
</g>
<!-- Node163 -->
<g id="node25" class="node">
<title>Node163</title>
<g id="a_node25"><a xlink:href="_a_b_l_mean_boussinesq_8_h.html" target="_top" xlink:title=" ">
<polygon fill="white" stroke="red" points="1723.5,-0.5 1723.5,-19.5 1851.5,-19.5 1851.5,-0.5 1723.5,-0.5"/>
<text text-anchor="middle" x="1787.5" y="-7.5" font-family="Helvetica,sans-Serif" font-size="10.00">ABLMeanBoussinesq.H</text>
</a>
</g>
</g>
<!-- Node2&#45;&gt;Node163 -->
<g id="edge32" class="edge">
<title>Node2&#45;&gt;Node163</title>
<path fill="none" stroke="midnightblue" d="M1916.9,-109.21C1948.83,-98 1984.73,-79.38 1966.5,-56 1952.26,-37.74 1897.07,-25.76 1851.69,-18.78"/>
<polygon fill="midnightblue" stroke="midnightblue" points="1915.56,-105.97 1907.18,-112.45 1917.77,-112.61 1915.56,-105.97"/>
</g>
<!-- Node252 -->
<g id="node26" class="node">
<title>Node252</title>
<g id="a_node26"><a xlink:href="_boussinesq_buoyancy_8_h.html" target="_top" xlink:title=" ">
<polygon fill="white" stroke="red" points="1870,-0.5 1870,-19.5 1999,-19.5 1999,-0.5 1870,-0.5"/>
<text text-anchor="middle" x="1934.5" y="-7.5" font-family="Helvetica,sans-Serif" font-size="10.00">BoussinesqBuoyancy.H</text>
</a>
</g>
</g>
<!-- Node2&#45;&gt;Node252 -->
<g id="edge33" class="edge">
<title>Node2&#45;&gt;Node252</title>
<path fill="none" stroke="midnightblue" d="M1923.48,-117.65C1952.05,-112.89 1986.21,-101.75 2004.5,-76 2021.11,-52.61 1983.31,-31.15 1957.04,-19.69"/>
<polygon fill="midnightblue" stroke="midnightblue" points="1922.64,-114.23 1913.24,-119.13 1923.64,-121.16 1922.64,-114.23"/>
</g>
<!-- Node254 -->
<g id="node27" class="node">
<title>Node254</title>
<g id="a_node27"><a xlink:href="_coriolis_forcing_8_h.html" target="_top" xlink:title=" ">
<polygon fill="white" stroke="red" points="2017,-0.5 2017,-19.5 2116,-19.5 2116,-0.5 2017,-0.5"/>
<text text-anchor="middle" x="2066.5" y="-7.5" font-family="Helvetica,sans-Serif" font-size="10.00">CoriolisForcing.H</text>
</a>
</g>
</g>
<!-- Node2&#45;&gt;Node254 -->
<g id="edge34" class="edge">
<title>Node2&#45;&gt;Node254</title>
<path fill="none" stroke="midnightblue" d="M1923.01,-114.55C1953.47,-108.55 1992.57,-97.19 2021.5,-76 2042.1,-60.92 2056.52,-33.44 2062.87,-19.54"/>
<polygon fill="midnightblue" stroke="midnightblue" points="1922.24,-111.13 1913.04,-116.39 1923.51,-118.02 1922.24,-111.13"/>
</g>
<!-- Node255 -->
<g id="node28" class="node">
<title>Node255</title>
<g id="a_node28"><a xlink:href="_density_buoyancy_8_h.html" target="_top" xlink:title=" ">
<polygon fill="white" stroke="red" points="2134,-0.5 2134,-19.5 2245,-19.5 2245,-0.5 2134,-0.5"/>
<text text-anchor="middle" x="2189.5" y="-7.5" font-family="Helvetica,sans-Serif" font-size="10.00">DensityBuoyancy.H</text>
</a>
</g>
</g>
<!-- Node2&#45;&gt;Node255 -->
<g id="edge35" class="edge">
<title>Node2&#45;&gt;Node255</title>
<path fill="none" stroke="midnightblue" d="M1922.98,-110.65C1957.44,-102.61 2004.92,-90.42 2045.5,-76 2093.06,-59.1 2146.64,-32.92 2173.02,-19.52"/>
<polygon fill="midnightblue" stroke="midnightblue" points="1922.14,-107.26 1913.18,-112.91 1923.71,-114.08 1922.14,-107.26"/>
</g>
<!-- Node257 -->
<g id="node29" class="node">
<title>Node257</title>
<g id="a_node29"><a xlink:href="_gravity_forcing_8_h.html" target="_top" xlink:title=" ">
<polygon fill="white" stroke="red" points="2263.5,-0.5 2263.5,-19.5 2361.5,-19.5 2361.5,-0.5 2263.5,-0.5"/>
<text text-anchor="middle" x="2312.5" y="-7.5" font-family="Helvetica,sans-Serif" font-size="10.00">GravityForcing.H</text>
</a>
</g>
</g>
<!-- Node2&#45;&gt;Node257 -->
<g id="edge36" class="edge">
<title>Node2&#45;&gt;Node257</title>
<path fill="none" stroke="midnightblue" d="M1923.39,-119.7C2012.71,-116.57 2200.77,-106.47 2257.5,-76 2281.98,-62.85 2300.17,-33.96 2308.1,-19.54"/>
<polygon fill="midnightblue" stroke="midnightblue" points="1923.14,-116.21 1913.26,-120.04 1923.37,-123.2 1923.14,-116.21"/>
</g>
<!-- Node164 -->
<g id="node30" class="node">
<title>Node164</title>
<g id="a_node30"><a xlink:href="_hurricane_forcing_8_h.html" target="_top" xlink:title=" ">
<polygon fill="white" stroke="red" points="2379.5,-0.5 2379.5,-19.5 2489.5,-19.5 2489.5,-0.5 2379.5,-0.5"/>
<text text-anchor="middle" x="2434.5" y="-7.5" font-family="Helvetica,sans-Serif" font-size="10.00">HurricaneForcing.H</text>
</a>
</g>
</g>
<!-- Node2&#45;&gt;Node164 -->
<g id="edge37" class="edge">
<title>Node2&#45;&gt;Node164</title>
<path fill="none" stroke="midnightblue" d="M1923.37,-120.29C2000.45,-118.13 2156.33,-109.58 2283.5,-76 2296.99,-72.44 2377.94,-36.41 2415.45,-19.58"/>
<polygon fill="midnightblue" stroke="midnightblue" points="1922.93,-116.8 1913.02,-120.55 1923.11,-123.8 1922.93,-116.8"/>
</g>
<!-- Node260 -->
<g id="node31" class="node">
<title>Node260</title>
<g id="a_node31"><a xlink:href="_m_m_s_forcing_8_h.html" target="_top" xlink:title=" ">
<polygon fill="white" stroke="red" points="3236.5,-0.5 3236.5,-19.5 3322.5,-19.5 3322.5,-0.5 3236.5,-0.5"/>
<text text-anchor="middle" x="3279.5" y="-7.5" font-family="Helvetica,sans-Serif" font-size="10.00">MMSForcing.H</text>
</a>
</g>
</g>
<!-- Node2&#45;&gt;Node260 -->
<g id="edge58" class="edge">
<title>Node2&#45;&gt;Node260</title>
<path fill="none" stroke="midnightblue" d="M1923.3,-120.9C2233.71,-120.13 3952.13,-114.18 3989.5,-76 3995.72,-69.65 3995.58,-62.48 3989.5,-56 3966.58,-31.59 3472.93,-16.24 3322.58,-12.12"/>
<polygon fill="midnightblue" stroke="midnightblue" points="1923.26,-117.4 1913.27,-120.92 1923.28,-124.4 1923.26,-117.4"/>
</g>
<!-- Node261 -->
<g id="node32" class="node">
<title>Node261</title>
<g id="a_node32"><a xlink:href="_p_d_e_helpers_8_h.html" target="_top" xlink:title=" ">
<polygon fill="white" stroke="red" points="127.5,-56.5 127.5,-75.5 211.5,-75.5 211.5,-56.5 127.5,-56.5"/>
<text text-anchor="middle" x="169.5" y="-63.5" font-family="Helvetica,sans-Serif" font-size="10.00">PDEHelpers.H</text>
</a>
</g>
</g>
<!-- Node2&#45;&gt;Node261 -->
<g id="edge39" class="edge">
<title>Node2&#45;&gt;Node261</title>
<path fill="none" stroke="midnightblue" d="M1827.59,-120.65C1590.86,-118.79 544.39,-108.8 220.5,-76 217.64,-75.71 214.69,-75.35 211.73,-74.95"/>
<polygon fill="midnightblue" stroke="midnightblue" points="1827.9,-124.15 1837.93,-120.73 1827.96,-117.15 1827.9,-124.15"/>
</g>
<!-- Node262 -->
<g id="node33" class="node">
<title>Node262</title>
<g id="a_node33"><a xlink:href="_s_d_r_source_8_h.html" target="_top" xlink:title=" ">
<polygon fill="white" stroke="red" points="2342.5,-56.5 2342.5,-75.5 2422.5,-75.5 2422.5,-56.5 2342.5,-56.5"/>
<text text-anchor="middle" x="2382.5" y="-63.5" font-family="Helvetica,sans-Serif" font-size="10.00">SDRSource.H</text>
</a>
</g>
</g>
<!-- Node2&#45;&gt;Node262 -->
<g id="edge41" class="edge">
<title>Node2&#45;&gt;Node262</title>
<path fill="none" stroke="midnightblue" d="M1923.28,-117.3C2006.02,-110.66 2181.24,-95.56 2328.5,-76 2333.02,-75.4 2337.75,-74.71 2342.44,-73.98"/>
<polygon fill="midnightblue" stroke="midnightblue" points="1922.87,-113.82 1913.18,-118.1 1923.43,-120.8 1922.87,-113.82"/>
</g>
<!-- Node264 -->
<g id="node34" class="node">
<title>Node264</title>
<g id="a_node34"><a xlink:href="_source_term_8_h.html" target="_top" xlink:title=" ">
<polygon fill="white" stroke="red" points="2440.5,-56.5 2440.5,-75.5 2524.5,-75.5 2524.5,-56.5 2440.5,-56.5"/>
<text text-anchor="middle" x="2482.5" y="-63.5" font-family="Helvetica,sans-Serif" font-size="10.00">SourceTerm.H</text>
</a>
</g>
</g>
<!-- Node2&#45;&gt;Node264 -->
<g id="edge42" class="edge">
<title>Node2&#45;&gt;Node264</title>
<path fill="none" stroke="midnightblue" d="M1923.05,-118.66C2019.32,-113.59 2244.06,-100.07 2431.5,-76 2434.35,-75.63 2437.29,-75.22 2440.25,-74.77"/>
<polygon fill="midnightblue" stroke="midnightblue" points="1922.85,-115.17 1913.05,-119.18 1923.21,-122.16 1922.85,-115.17"/>
</g>
<!-- Node265 -->
<g id="node35" class="node">
<title>Node265</title>
<g id="a_node35"><a xlink:href="_temperature_source_8_h.html" target="_top" xlink:title=" ">
<polygon fill="white" stroke="red" points="2542.5,-56.5 2542.5,-75.5 2664.5,-75.5 2664.5,-56.5 2542.5,-56.5"/>
<text text-anchor="middle" x="2603.5" y="-63.5" font-family="Helvetica,sans-Serif" font-size="10.00">TemperatureSource.H</text>
</a>
</g>
</g>
<!-- Node2&#45;&gt;Node265 -->
<g id="edge43" class="edge">
<title>Node2&#45;&gt;Node265</title>
<path fill="none" stroke="midnightblue" d="M1923.32,-118.71C2031.94,-113.29 2305.5,-98.43 2533.5,-76 2536.43,-75.71 2539.42,-75.4 2542.44,-75.07"/>
<polygon fill="midnightblue" stroke="midnightblue" points="1922.85,-115.23 1913.03,-119.22 1923.19,-122.22 1922.85,-115.23"/>
</g>
<!-- Node266 -->
<g id="node36" class="node">
<title>Node266</title>
<g id="a_node36"><a xlink:href="_t_k_e_source_8_h.html" target="_top" xlink:title=" ">
<polygon fill="white" stroke="red" points="2683,-56.5 2683,-75.5 2762,-75.5 2762,-56.5 2683,-56.5"/>
<text text-anchor="middle" x="2722.5" y="-63.5" font-family="Helvetica,sans-Serif" font-size="10.00">TKESource.H</text>
</a>
</g>
</g>
<!-- Node2&#45;&gt;Node266 -->
<g id="edge44" class="edge">
<title>Node2&#45;&gt;Node266</title>
<path fill="none" stroke="midnightblue" d="M1923.34,-120.39C2047.54,-118.35 2390.35,-109.85 2673.5,-76 2676.59,-75.63 2679.78,-75.19 2682.98,-74.7"/>
<polygon fill="midnightblue" stroke="midnightblue" points="1922.98,-116.89 1913.04,-120.55 1923.09,-123.89 1922.98,-116.89"/>
</g>
<!-- Node270 -->
<g id="node37" class="node">
<title>Node270</title>
<g id="a_node37"><a xlink:href="_split_advection_8_h.html" target="_top" xlink:title=" ">
<polygon fill="white" stroke="red" points="2779.5,-56.5 2779.5,-75.5 2877.5,-75.5 2877.5,-56.5 2779.5,-56.5"/>
<text text-anchor="middle" x="2828.5" y="-63.5" font-family="Helvetica,sans-Serif" font-size="10.00">SplitAdvection.H</text>
</a>
</g>
</g>
<!-- Node2&#45;&gt;Node270 -->
<g id="edge45" class="edge">
<title>Node2&#45;&gt;Node270</title>
<path fill="none" stroke="midnightblue" d="M1923.45,-120.34C2057.6,-118.11 2448.03,-109.04 2770.5,-76 2773.44,-75.7 2776.46,-75.35 2779.5,-74.97"/>
<polygon fill="midnightblue" stroke="midnightblue" points="1923.06,-116.84 1913.12,-120.5 1923.18,-123.84 1923.06,-116.84"/>
</g>
<!-- Node272 -->
<g id="node38" class="node">
<title>Node272</title>
<g id="a_node38"><a xlink:href="vof__hybridsolver__ops_8_h.html" target="_top" xlink:title=" ">
<polygon fill="white" stroke="red" points="2896,-56.5 2896,-75.5 3027,-75.5 3027,-56.5 2896,-56.5"/>
<text text-anchor="middle" x="2961.5" y="-63.5" font-family="Helvetica,sans-Serif" font-size="10.00">vof_hybridsolver_ops.H</text>
</a>
</g>
</g>
<!-- Node2&#45;&gt;Node272 -->
<g id="edge46" class="edge">
<title>Node2&#45;&gt;Node272</title>
<path fill="none" stroke="midnightblue" d="M1923.54,-120.14C2068.89,-117.26 2516.65,-106.38 2886.5,-76 2889.51,-75.75 2892.58,-75.48 2895.68,-75.18"/>
<polygon fill="midnightblue" stroke="midnightblue" points="1923.13,-116.65 1913.2,-120.34 1923.27,-123.65 1923.13,-116.65"/>
</g>
<!-- Node273 -->
<g id="node39" class="node">
<title>Node273</title>
<g id="a_node39"><a xlink:href="fvm__utils_8_h.html" target="_top" xlink:title=" ">
<polygon fill="white" stroke="red" points="3045,-56.5 3045,-75.5 3118,-75.5 3118,-56.5 3045,-56.5"/>
<text text-anchor="middle" x="3081.5" y="-63.5" font-family="Helvetica,sans-Serif" font-size="10.00">fvm_utils.H</text>
</a>
</g>
</g>
<!-- Node2&#45;&gt;Node273 -->
<g id="edge47" class="edge">
<title>Node2&#45;&gt;Node273</title>
<path fill="none" stroke="midnightblue" d="M1923.29,-120.13C2113.19,-116.53 2814.71,-101.72 3035.5,-76 3038.57,-75.64 3041.74,-75.19 3044.92,-74.69"/>
<polygon fill="midnightblue" stroke="midnightblue" points="1923.01,-116.64 1913.08,-120.32 1923.14,-123.63 1923.01,-116.64"/>
</g>
<!-- Node284 -->
<g id="node40" class="node">
<title>Node284</title>
<g id="a_node40"><a xlink:href="_i_b_8_h.html" target="_top" xlink:title=" ">
<polygon fill="white" stroke="red" points="374,-56.5 374,-75.5 411,-75.5 411,-56.5 374,-56.5"/>
<text text-anchor="middle" x="392.5" y="-63.5" font-family="Helvetica,sans-Serif" font-size="10.00">IB.H</text>
</a>
</g>
</g>
<!-- Node2&#45;&gt;Node284 -->
<g id="edge49" class="edge">
<title>Node2&#45;&gt;Node284</title>
<path fill="none" stroke="midnightblue" d="M1827.59,-121.03C1609.01,-120.91 705.03,-117.86 425.5,-76 420.8,-75.3 415.82,-74.15 411.18,-72.91"/>
<polygon fill="midnightblue" stroke="midnightblue" points="1827.77,-124.53 1837.77,-121.03 1827.78,-117.53 1827.77,-124.53"/>
</g>
<!-- Node285 -->
<g id="node41" class="node">
<title>Node285</title>
<g id="a_node41"><a xlink:href="_ocean_waves_8_h.html" target="_top" xlink:title=" ">
<polygon fill="white" stroke="red" points="703.5,-56.5 703.5,-75.5 793.5,-75.5 793.5,-56.5 703.5,-56.5"/>
<text text-anchor="middle" x="748.5" y="-63.5" font-family="Helvetica,sans-Serif" font-size="10.00">OceanWaves.H</text>
</a>
</g>
</g>
<!-- Node2&#45;&gt;Node285 -->
<g id="edge53" class="edge">
<title>Node2&#45;&gt;Node285</title>
<path fill="none" stroke="midnightblue" d="M1827.26,-120.84C1676.34,-119.95 1199.84,-114.07 807.5,-76 802.96,-75.56 798.24,-75 793.53,-74.39"/>
<polygon fill="midnightblue" stroke="midnightblue" points="1827.54,-124.34 1837.56,-120.9 1827.58,-117.34 1827.54,-124.34"/>
</g>
<!-- Node66 -->
<g id="node42" class="node">
<title>Node66</title>
<g id="a_node42"><a xlink:href="hos__waves__ops_8_h.html" target="_top" xlink:title=" ">
<polygon fill="white" stroke="red" points="836.5,-0.5 836.5,-19.5 940.5,-19.5 940.5,-0.5 836.5,-0.5"/>
<text text-anchor="middle" x="888.5" y="-7.5" font-family="Helvetica,sans-Serif" font-size="10.00">hos_waves_ops.H</text>
</a>
</g>
</g>
<!-- Node2&#45;&gt;Node66 -->
<g id="edge56" class="edge">
<title>Node2&#45;&gt;Node66</title>
<path fill="none" stroke="midnightblue" d="M1827.81,-120.74C1629.02,-119.43 875.04,-112.07 840.5,-76 822.84,-57.56 854.55,-32.49 874.36,-19.53"/>
<polygon fill="midnightblue" stroke="midnightblue" points="1827.92,-124.24 1837.94,-120.8 1827.96,-117.24 1827.92,-124.24"/>
</g>
<!-- Node286 -->
<g id="node43" class="node">
<title>Node286</title>
<g id="a_node43"><a xlink:href="hydrostatic__ops_8_h.html" target="_top" xlink:title=" ">
<polygon fill="white" stroke="red" points="3136.5,-56.5 3136.5,-75.5 3240.5,-75.5 3240.5,-56.5 3136.5,-56.5"/>
<text text-anchor="middle" x="3188.5" y="-63.5" font-family="Helvetica,sans-Serif" font-size="10.00">hydrostatic_ops.H</text>
</a>
</g>
</g>
<!-- Node2&#45;&gt;Node286 -->
<g id="edge59" class="edge">
<title>Node2&#45;&gt;Node286</title>
<path fill="none" stroke="midnightblue" d="M1923.61,-121.14C2090.4,-121.23 2659.22,-118.19 3126.5,-76 3129.75,-75.71 3133.09,-75.36 3136.45,-74.97"/>
<polygon fill="midnightblue" stroke="midnightblue" points="1923.21,-117.64 1913.21,-121.13 1923.2,-124.64 1923.21,-117.64"/>
</g>
<!-- Node38 -->
<g id="node44" class="node">
<title>Node38</title>
<g id="a_node44"><a xlink:href="_burggraf_lid_8cpp.html" target="_top" xlink:title=" ">
<polygon fill="white" stroke="black" points="3259,-56.5 3259,-75.5 3352,-75.5 3352,-56.5 3259,-56.5"/>
<text text-anchor="middle" x="3305.5" y="-63.5" font-family="Helvetica,sans-Serif" font-size="10.00">BurggrafLid.cpp</text>
</a>
</g>
</g>
<!-- Node2&#45;&gt;Node38 -->
<g id="edge60" class="edge">
<title>Node2&#45;&gt;Node38</title>
<path fill="none" stroke="midnightblue" d="M1923.19,-120.25C2134.05,-116.81 2983.9,-101.59 3249.5,-76 3252.54,-75.71 3255.66,-75.35 3258.81,-74.96"/>
<polygon fill="midnightblue" stroke="midnightblue" points="1923.01,-116.75 1913.06,-120.41 1923.12,-123.75 1923.01,-116.75"/>
</g>
<!-- Node287 -->
<g id="node45" class="node">
<title>Node287</title>
<g id="a_node45"><a xlink:href="_linear_profile_8cpp.html" target="_top" xlink:title=" ">
<polygon fill="white" stroke="black" points="3370.5,-56.5 3370.5,-75.5 3468.5,-75.5 3468.5,-56.5 3370.5,-56.5"/>
<text text-anchor="middle" x="3419.5" y="-63.5" font-family="Helvetica,sans-Serif" font-size="10.00">LinearProfile.cpp</text>
</a>
</g>
</g>
<!-- Node2&#45;&gt;Node287 -->
<g id="edge61" class="edge">
<title>Node2&#45;&gt;Node287</title>
<path fill="none" stroke="midnightblue" d="M1923.41,-120.35C2145.08,-117.21 3072.6,-102.69 3361.5,-76 3364.34,-75.74 3367.25,-75.42 3370.19,-75.08"/>
<polygon fill="midnightblue" stroke="midnightblue" points="1923.04,-116.85 1913.09,-120.49 1923.14,-123.85 1923.04,-116.85"/>
</g>
<!-- Node39 -->
<g id="node46" class="node">
<title>Node39</title>
<g id="a_node46"><a xlink:href="_power_law_profile_8cpp.html" target="_top" xlink:title=" ">
<polygon fill="white" stroke="black" points="3487,-56.5 3487,-75.5 3604,-75.5 3604,-56.5 3487,-56.5"/>
<text text-anchor="middle" x="3545.5" y="-63.5" font-family="Helvetica,sans-Serif" font-size="10.00">PowerLawProfile.cpp</text>
</a>
</g>
</g>
<!-- Node2&#45;&gt;Node39 -->
<g id="edge62" class="edge">
<title>Node2&#45;&gt;Node39</title>
<path fill="none" stroke="midnightblue" d="M1923.35,-120.33C2155.28,-116.95 3164.06,-101.08 3477.5,-76 3480.59,-75.75 3483.75,-75.46 3486.94,-75.14"/>
<polygon fill="midnightblue" stroke="midnightblue" points="1923.16,-116.83 1913.21,-120.47 1923.26,-123.83 1923.16,-116.83"/>
</g>
<!-- Node288 -->
<g id="node47" class="node">
<title>Node288</title>
<g id="a_node47"><a xlink:href="_u_d_f_8cpp.html" target="_top" xlink:title=" ">
<polygon fill="white" stroke="black" points="3622.5,-56.5 3622.5,-75.5 3678.5,-75.5 3678.5,-56.5 3622.5,-56.5"/>
<text text-anchor="middle" x="3650.5" y="-63.5" font-family="Helvetica,sans-Serif" font-size="10.00">UDF.cpp</text>
</a>
</g>
</g>
<!-- Node2&#45;&gt;Node288 -->
<g id="edge63" class="edge">
<title>Node2&#45;&gt;Node288</title>
<path fill="none" stroke="midnightblue" d="M1923.48,-121.14C2167.62,-121.62 3273.54,-121.22 3613.5,-76 3616.38,-75.62 3619.37,-75.1 3622.34,-74.5"/>
<polygon fill="midnightblue" stroke="midnightblue" points="1923.18,-117.64 1913.17,-121.11 1923.17,-124.64 1923.18,-117.64"/>
</g>
<!-- Node289 -->
<g id="node48" class="node">
<title>Node289</title>
<g id="a_node48"><a xlink:href="_transport_model_8_h.html" target="_top" xlink:title=" ">
<polygon fill="white" stroke="red" points="3696.5,-56.5 3696.5,-75.5 3798.5,-75.5 3798.5,-56.5 3696.5,-56.5"/>
<text text-anchor="middle" x="3747.5" y="-63.5" font-family="Helvetica,sans-Serif" font-size="10.00">TransportModel.H</text>
</a>
</g>
</g>
<!-- Node2&#45;&gt;Node289 -->
<g id="edge65" class="edge">
<title>Node2&#45;&gt;Node289</title>
<path fill="none" stroke="midnightblue" d="M1923.45,-120.62C2173.52,-118.49 3330.35,-107.1 3687.5,-76 3690.44,-75.74 3693.45,-75.44 3696.49,-75.09"/>
<polygon fill="midnightblue" stroke="midnightblue" points="1923.21,-117.12 1913.24,-120.7 1923.27,-124.12 1923.21,-117.12"/>
</g>
<!-- Node103 -->
<g id="node49" class="node">
<title>Node103</title>
<g id="a_node49"><a xlink:href="_a_m_d_8_h.html" target="_top" xlink:title=" ">
<polygon fill="white" stroke="red" points="3816.5,-56.5 3816.5,-75.5 3866.5,-75.5 3866.5,-56.5 3816.5,-56.5"/>
<text text-anchor="middle" x="3841.5" y="-63.5" font-family="Helvetica,sans-Serif" font-size="10.00">AMD.H</text>
</a>
</g>
</g>
<!-- Node2&#45;&gt;Node103 -->
<g id="edge66" class="edge">
<title>Node2&#45;&gt;Node103</title>
<path fill="none" stroke="midnightblue" d="M1923.36,-120.56C2202.65,-117.9 3616.05,-103.18 3807.5,-76 3810.4,-75.59 3813.41,-75.01 3816.38,-74.35"/>
<polygon fill="midnightblue" stroke="midnightblue" points="1923.12,-117.06 1913.16,-120.66 1923.19,-124.06 1923.12,-117.06"/>
</g>
<!-- Node105 -->
<g id="node50" class="node">
<title>Node105</title>
<g id="a_node50"><a xlink:href="_a_m_d_no_therm_8_h.html" target="_top" xlink:title=" ">
<polygon fill="white" stroke="red" points="3885,-56.5 3885,-75.5 3980,-75.5 3980,-56.5 3885,-56.5"/>
<text text-anchor="middle" x="3932.5" y="-63.5" font-family="Helvetica,sans-Serif" font-size="10.00">AMDNoTherm.H</text>
</a>
</g>
</g>
<!-- Node2&#45;&gt;Node105 -->
<g id="edge67" class="edge">
<title>Node2&#45;&gt;Node105</title>
<path fill="none" stroke="midnightblue" d="M1923.25,-120.8C2188.08,-119.53 3478.88,-111.61 3875.5,-76 3878.59,-75.72 3881.77,-75.38 3884.97,-74.99"/>
<polygon fill="midnightblue" stroke="midnightblue" points="1923.17,-117.3 1913.19,-120.84 1923.2,-124.3 1923.17,-117.3"/>
</g>
<!-- Node4&#45;&gt;Node3 -->
<g id="edge4" class="edge">
<title>Node4&#45;&gt;Node3</title>
<path fill="none" stroke="midnightblue" d="M967.91,-55.83C1088.21,-39.92 1217.55,-24.47 1285.37,-16.5"/>
<polygon fill="midnightblue" stroke="midnightblue" points="967.24,-52.39 957.79,-57.18 968.16,-59.33 967.24,-52.39"/>
</g>
<!-- Node9&#45;&gt;Node61 -->
<g id="edge7" class="edge">
<title>Node9&#45;&gt;Node61</title>
<path fill="none" stroke="midnightblue" d="M495.49,-55.63C448.76,-45.46 374.76,-29.35 329.62,-19.52"/>
<polygon fill="midnightblue" stroke="midnightblue" points="494.8,-59.07 505.31,-57.77 496.28,-52.23 494.8,-59.07"/>
</g>
<!-- Node9&#45;&gt;Node77 -->
<g id="edge8" class="edge">
<title>Node9&#45;&gt;Node77</title>
<path fill="none" stroke="midnightblue" d="M502.28,-53.22C470.09,-42.75 423.97,-27.74 396.26,-18.73"/>
<polygon fill="midnightblue" stroke="midnightblue" points="501.6,-56.68 512.2,-56.44 503.77,-50.02 501.6,-56.68"/>
</g>
<!-- Node9&#45;&gt;Node88 -->
<g id="edge9" class="edge">
<title>Node9&#45;&gt;Node88</title>
<path fill="none" stroke="midnightblue" d="M513.91,-51.45C495.82,-41.48 471.77,-28.23 456.21,-19.65"/>
<polygon fill="midnightblue" stroke="midnightblue" points="512.31,-54.56 522.75,-56.32 515.69,-48.43 512.31,-54.56"/>
</g>
<!-- Node9&#45;&gt;Node116 -->
<g id="edge10" class="edge">
<title>Node9&#45;&gt;Node116</title>
<path fill="none" stroke="midnightblue" d="M581.92,-54.81C625.29,-44.62 691.21,-29.15 731.97,-19.58"/>
<polygon fill="midnightblue" stroke="midnightblue" points="580.88,-51.45 571.94,-57.15 582.48,-58.27 580.88,-51.45"/>
</g>
<!-- Node9&#45;&gt;Node125 -->
<g id="edge11" class="edge">
<title>Node9&#45;&gt;Node125</title>
<path fill="none" stroke="midnightblue" d="M538.5,-45.8C538.5,-36.91 538.5,-26.78 538.5,-19.75"/>
<polygon fill="midnightblue" stroke="midnightblue" points="535,-46.08 538.5,-56.08 542,-46.08 535,-46.08"/>
</g>
<!-- Node9&#45;&gt;Node152 -->
<g id="edge12" class="edge">
<title>Node9&#45;&gt;Node152</title>
<path fill="none" stroke="midnightblue" d="M566.16,-52.23C588.05,-42.13 618,-28.31 637.05,-19.52"/>
<polygon fill="midnightblue" stroke="midnightblue" points="564.65,-49.08 557.04,-56.44 567.59,-55.43 564.65,-49.08"/>
</g>
<!-- Node248&#45;&gt;Node163 -->
<g id="edge25" class="edge">
<title>Node248&#45;&gt;Node163</title>
<path fill="none" stroke="midnightblue" d="M2122.4,-55.87C2046.55,-45.71 1924.9,-29.41 1850.97,-19.5"/>
<polygon fill="midnightblue" stroke="midnightblue" points="2121.95,-59.35 2132.33,-57.21 2122.88,-52.41 2121.95,-59.35"/>
</g>
<!-- Node248&#45;&gt;Node252 -->
<g id="edge26" class="edge">
<title>Node248&#45;&gt;Node252</title>
<path fill="none" stroke="midnightblue" d="M2139.99,-54.35C2091.61,-44.14 2019.55,-28.94 1974.87,-19.52"/>
<polygon fill="midnightblue" stroke="midnightblue" points="2139.43,-57.8 2149.94,-56.44 2140.87,-50.95 2139.43,-57.8"/>
</g>
<!-- Node248&#45;&gt;Node254 -->
<g id="edge27" class="edge">
<title>Node248&#45;&gt;Node254</title>
<path fill="none" stroke="midnightblue" d="M2161.49,-52.37C2138.27,-42.26 2106.34,-28.35 2086.06,-19.52"/>
<polygon fill="midnightblue" stroke="midnightblue" points="2160.29,-55.66 2170.85,-56.44 2163.08,-49.24 2160.29,-55.66"/>
</g>
<!-- Node248&#45;&gt;Node255 -->
<g id="edge28" class="edge">
<title>Node248&#45;&gt;Node255</title>
<path fill="none" stroke="midnightblue" d="M2190.14,-45.8C2189.98,-36.91 2189.79,-26.78 2189.66,-19.75"/>
<polygon fill="midnightblue" stroke="midnightblue" points="2186.65,-46.15 2190.33,-56.08 2193.65,-46.02 2186.65,-46.15"/>
</g>
<!-- Node248&#45;&gt;Node257 -->
<g id="edge29" class="edge">
<title>Node248&#45;&gt;Node257</title>
<path fill="none" stroke="midnightblue" d="M2219.04,-52.37C2241.89,-42.26 2273.31,-28.35 2293.26,-19.52"/>
<polygon fill="midnightblue" stroke="midnightblue" points="2217.56,-49.2 2209.83,-56.44 2220.39,-55.6 2217.56,-49.2"/>
</g>
<!-- Node248&#45;&gt;Node164 -->
<g id="edge30" class="edge">
<title>Node248&#45;&gt;Node164</title>
<path fill="none" stroke="midnightblue" d="M2238.93,-54.28C2285.04,-44.08 2353.53,-28.92 2396.02,-19.52"/>
<polygon fill="midnightblue" stroke="midnightblue" points="2238.17,-50.87 2229.16,-56.44 2239.68,-57.7 2238.17,-50.87"/>
</g>
<!-- Node248&#45;&gt;Node260 -->
<g id="edge31" class="edge">
<title>Node248&#45;&gt;Node260</title>
<path fill="none" stroke="midnightblue" d="M2258.86,-60.48C2282.5,-58.98 2309.16,-57.34 2333.5,-56 2681.54,-36.77 3101.9,-18.53 3236.11,-12.83"/>
<polygon fill="midnightblue" stroke="midnightblue" points="2258.34,-57.01 2248.58,-61.14 2258.79,-64 2258.34,-57.01"/>
</g>
<!-- Node261&#45;&gt;Node61 -->
<g id="edge40" class="edge">
<title>Node261&#45;&gt;Node61</title>
<path fill="none" stroke="midnightblue" d="M197.81,-52.37C220.47,-42.26 251.63,-28.35 271.42,-19.52"/>
<polygon fill="midnightblue" stroke="midnightblue" points="196.38,-49.17 188.67,-56.44 199.23,-55.56 196.38,-49.17"/>
</g>
<!-- Node284&#45;&gt;Node77 -->
<g id="edge50" class="edge">
<title>Node284&#45;&gt;Node77</title>
<path fill="none" stroke="midnightblue" d="M385.72,-46.69C382.35,-37.59 378.43,-27.01 375.74,-19.75"/>
<polygon fill="midnightblue" stroke="midnightblue" points="382.44,-47.92 389.2,-56.08 389.01,-45.49 382.44,-47.92"/>
</g>
<!-- Node285&#45;&gt;Node116 -->
<g id="edge54" class="edge">
<title>Node285&#45;&gt;Node116</title>
<path fill="none" stroke="midnightblue" d="M755.28,-46.69C758.65,-37.59 762.57,-27.01 765.26,-19.75"/>
<polygon fill="midnightblue" stroke="midnightblue" points="751.99,-45.49 751.8,-56.08 758.56,-47.92 751.99,-45.49"/>
</g>
<!-- Node285&#45;&gt;Node66 -->
<g id="edge55" class="edge">
<title>Node285&#45;&gt;Node66</title>
<path fill="none" stroke="midnightblue" d="M780.2,-52.77C806.5,-42.63 843.22,-28.47 866.42,-19.52"/>
<polygon fill="midnightblue" stroke="midnightblue" points="778.75,-49.58 770.68,-56.44 781.27,-56.11 778.75,-49.58"/>
</g>
</g>
</svg>
