<?xml version="1.0" encoding="UTF-8" standalone="no"?>
<!DOCTYPE svg PUBLIC "-//W3C//DTD SVG 1.1//EN"
 "http://www.w3.org/Graphics/SVG/1.1/DTD/svg11.dtd">
<!-- Generated by graphviz version 2.43.0 (0)
 -->
<!-- Title: MLMGOptions.H Pages: 1 -->
<svg width="2166pt" height="319pt"
 viewBox="0.00 0.00 2165.50 319.00" xmlns="http://www.w3.org/2000/svg" xmlns:xlink="http://www.w3.org/1999/xlink">
<g id="graph0" class="graph" transform="scale(1 1) rotate(0) translate(4 315)">
<title>MLMGOptions.H</title>
<polygon fill="white" stroke="transparent" points="-4,4 -4,-315 2161.5,-315 2161.5,4 -4,4"/>
<!-- Node1 -->
<g id="node1" class="node">
<title>Node1</title>
<g id="a_node1"><a xlink:title=" ">
<polygon fill="#bfbfbf" stroke="black" points="564.5,-291.5 564.5,-310.5 659.5,-310.5 659.5,-291.5 564.5,-291.5"/>
<text text-anchor="middle" x="612" y="-298.5" font-family="Helvetica,sans-Serif" font-size="10.00">MLMGOptions.H</text>
</a>
</g>
</g>
<!-- Node2 -->
<g id="node2" class="node">
<title>Node2</title>
<g id="a_node2"><a xlink:href="_m_l_m_g_options_8cpp.html" target="_top" xlink:title=" ">
<polygon fill="white" stroke="black" points="256.5,-230 256.5,-249 361.5,-249 361.5,-230 256.5,-230"/>
<text text-anchor="middle" x="309" y="-237" font-family="Helvetica,sans-Serif" font-size="10.00">MLMGOptions.cpp</text>
</a>
</g>
</g>
<!-- Node1&#45;&gt;Node2 -->
<g id="edge1" class="edge">
<title>Node1&#45;&gt;Node2</title>
<path fill="none" stroke="midnightblue" d="M553.99,-290.04C504.86,-281.42 432.65,-268.26 370,-255 361.37,-253.17 352.1,-251.05 343.45,-249"/>
<polygon fill="midnightblue" stroke="midnightblue" points="553.65,-293.54 564.11,-291.82 554.86,-286.64 553.65,-293.54"/>
</g>
<!-- Node3 -->
<g id="node3" class="node">
<title>Node3</title>
<g id="a_node3"><a xlink:href="_diffusion_ops_8_h.html" target="_top" xlink:title=" ">
<polygon fill="white" stroke="black" points="379.5,-230 379.5,-249 468.5,-249 468.5,-230 379.5,-230"/>
<text text-anchor="middle" x="424" y="-237" font-family="Helvetica,sans-Serif" font-size="10.00">DiffusionOps.H</text>
</a>
</g>
</g>
<!-- Node1&#45;&gt;Node3 -->
<g id="edge2" class="edge">
<title>Node1&#45;&gt;Node3</title>
<path fill="none" stroke="midnightblue" d="M575.29,-288.38C538.74,-276.82 483.53,-259.34 450.89,-249.01"/>
<polygon fill="midnightblue" stroke="midnightblue" points="574.47,-291.79 585.06,-291.48 576.59,-285.12 574.47,-291.79"/>
</g>
<!-- Node14 -->
<g id="node14" class="node">
<title>Node14</title>
<g id="a_node14"><a xlink:href="icns__advection_8cpp.html" target="_top" xlink:title=" ">
<polygon fill="white" stroke="black" points="454,-0.5 454,-19.5 564,-19.5 564,-0.5 454,-0.5"/>
<text text-anchor="middle" x="509" y="-7.5" font-family="Helvetica,sans-Serif" font-size="10.00">icns_advection.cpp</text>
</a>
</g>
</g>
<!-- Node1&#45;&gt;Node14 -->
<g id="edge56" class="edge">
<title>Node1&#45;&gt;Node14</title>
<path fill="none" stroke="midnightblue" d="M634.49,-285.38C662.58,-265.14 707,-225.75 707,-179 707,-179 707,-179 707,-121 707,-90.77 708.91,-76.82 687,-56 654.31,-24.93 603.37,-14.46 564.35,-11.31"/>
<polygon fill="midnightblue" stroke="midnightblue" points="632.23,-282.68 626.02,-291.26 636.23,-288.43 632.23,-282.68"/>
</g>
<!-- Node39 -->
<g id="node39" class="node">
<title>Node39</title>
<g id="a_node39"><a xlink:href="incflo__apply__nodal__projection_8cpp.html" target="_top" xlink:title=" ">
<polygon fill="white" stroke="black" points="735.5,-224.5 735.5,-254.5 842.5,-254.5 842.5,-224.5 735.5,-224.5"/>
<text text-anchor="start" x="743.5" y="-242.5" font-family="Helvetica,sans-Serif" font-size="10.00">incflo_apply_nodal</text>
<text text-anchor="middle" x="789" y="-231.5" font-family="Helvetica,sans-Serif" font-size="10.00">_projection.cpp</text>
</a>
</g>
</g>
<!-- Node1&#45;&gt;Node39 -->
<g id="edge57" class="edge">
<title>Node1&#45;&gt;Node39</title>
<path fill="none" stroke="midnightblue" d="M647.01,-288.23C675.83,-278.54 716.77,-264.78 747.28,-254.52"/>
<polygon fill="midnightblue" stroke="midnightblue" points="645.72,-284.97 637.36,-291.48 647.95,-291.61 645.72,-284.97"/>
</g>
<!-- Node4 -->
<g id="node4" class="node">
<title>Node4</title>
<g id="a_node4"><a xlink:href="_diffusion_ops_8cpp.html" target="_top" xlink:title=" ">
<polygon fill="white" stroke="black" points="164.5,-168.5 164.5,-187.5 263.5,-187.5 263.5,-168.5 164.5,-168.5"/>
<text text-anchor="middle" x="214" y="-175.5" font-family="Helvetica,sans-Serif" font-size="10.00">DiffusionOps.cpp</text>
</a>
</g>
</g>
<!-- Node3&#45;&gt;Node4 -->
<g id="edge3" class="edge">
<title>Node3&#45;&gt;Node4</title>
<path fill="none" stroke="midnightblue" d="M384.03,-227.18C343.23,-215.61 280.81,-197.93 244.03,-187.51"/>
<polygon fill="midnightblue" stroke="midnightblue" points="383.34,-230.62 393.91,-229.98 385.24,-223.88 383.34,-230.62"/>
</g>
<!-- Node5 -->
<g id="node5" class="node">
<title>Node5</title>
<g id="a_node5"><a xlink:href="icns__diffusion_8_h.html" target="_top" xlink:title=" ">
<polygon fill="white" stroke="black" points="0,-56.5 0,-75.5 94,-75.5 94,-56.5 0,-56.5"/>
<text text-anchor="middle" x="47" y="-63.5" font-family="Helvetica,sans-Serif" font-size="10.00">icns_diffusion.H</text>
</a>
</g>
</g>
<!-- Node3&#45;&gt;Node5 -->
<g id="edge4" class="edge">
<title>Node3&#45;&gt;Node5</title>
<path fill="none" stroke="midnightblue" d="M396.66,-225.7C366.27,-211.49 315.7,-187.94 272,-168 196.04,-133.34 105.25,-92.88 66.3,-75.57"/>
<polygon fill="midnightblue" stroke="midnightblue" points="395.24,-228.9 405.78,-229.96 398.21,-222.56 395.24,-228.9"/>
</g>
<!-- Node7 -->
<g id="node7" class="node">
<title>Node7</title>
<g id="a_node7"><a xlink:href="icns__ops_8_h.html" target="_top" xlink:title=" ">
<polygon fill="white" stroke="black" points="112.5,-56.5 112.5,-75.5 181.5,-75.5 181.5,-56.5 112.5,-56.5"/>
<text text-anchor="middle" x="147" y="-63.5" font-family="Helvetica,sans-Serif" font-size="10.00">icns_ops.H</text>
</a>
</g>
</g>
<!-- Node3&#45;&gt;Node7 -->
<g id="edge6" class="edge">
<title>Node3&#45;&gt;Node7</title>
<path fill="none" stroke="midnightblue" d="M412.8,-221.46C394,-194.21 353.47,-140.97 306,-112 267.19,-88.31 215.48,-76.71 181.73,-71.3"/>
<polygon fill="midnightblue" stroke="midnightblue" points="410.02,-223.6 418.52,-229.93 415.82,-219.68 410.02,-223.6"/>
</g>
<!-- Node8 -->
<g id="node8" class="node">
<title>Node8</title>
<g id="a_node8"><a xlink:href="_p_d_e_8_h.html" target="_top" xlink:title=" ">
<polygon fill="white" stroke="black" points="1003.5,-168.5 1003.5,-187.5 1050.5,-187.5 1050.5,-168.5 1003.5,-168.5"/>
<text text-anchor="middle" x="1027" y="-175.5" font-family="Helvetica,sans-Serif" font-size="10.00">PDE.H</text>
</a>
</g>
</g>
<!-- Node3&#45;&gt;Node8 -->
<g id="edge8" class="edge">
<title>Node3&#45;&gt;Node8</title>
<path fill="none" stroke="midnightblue" d="M479.1,-233.06C606.07,-220.54 915.09,-190.04 1003.19,-181.35"/>
<polygon fill="midnightblue" stroke="midnightblue" points="478.44,-229.61 468.83,-234.08 479.13,-236.58 478.44,-229.61"/>
</g>
<!-- Node6 -->
<g id="node6" class="node">
<title>Node6</title>
<g id="a_node6"><a xlink:href="icns_8cpp.html" target="_top" xlink:title=" ">
<polygon fill="white" stroke="black" points="182,-0.5 182,-19.5 238,-19.5 238,-0.5 182,-0.5"/>
<text text-anchor="middle" x="210" y="-7.5" font-family="Helvetica,sans-Serif" font-size="10.00">icns.cpp</text>
</a>
</g>
</g>
<!-- Node5&#45;&gt;Node6 -->
<g id="edge5" class="edge">
<title>Node5&#45;&gt;Node6</title>
<path fill="none" stroke="midnightblue" d="M82.7,-53.17C113.4,-43 156.92,-28.59 184.29,-19.52"/>
<polygon fill="midnightblue" stroke="midnightblue" points="81.22,-49.98 72.83,-56.44 83.42,-56.62 81.22,-49.98"/>
</g>
<!-- Node7&#45;&gt;Node6 -->
<g id="edge7" class="edge">
<title>Node7&#45;&gt;Node6</title>
<path fill="none" stroke="midnightblue" d="M165.04,-49.54C176.27,-39.91 190.32,-27.87 199.69,-19.83"/>
<polygon fill="midnightblue" stroke="midnightblue" points="162.44,-47.16 157.12,-56.32 166.99,-52.47 162.44,-47.16"/>
</g>
<!-- Node9 -->
<g id="node9" class="node">
<title>Node9</title>
<g id="a_node9"><a xlink:href="density_8_h.html" target="_top" xlink:title=" ">
<polygon fill="white" stroke="black" points="785,-112.5 785,-131.5 847,-131.5 847,-112.5 785,-112.5"/>
<text text-anchor="middle" x="816" y="-119.5" font-family="Helvetica,sans-Serif" font-size="10.00">density.H</text>
</a>
</g>
</g>
<!-- Node8&#45;&gt;Node9 -->
<g id="edge9" class="edge">
<title>Node8&#45;&gt;Node9</title>
<path fill="none" stroke="midnightblue" d="M993.34,-168.39C953.11,-158.09 886.34,-141 847.22,-130.99"/>
<polygon fill="midnightblue" stroke="midnightblue" points="992.65,-171.82 1003.21,-170.91 994.39,-165.04 992.65,-171.82"/>
</g>
<!-- Node12 -->
<g id="node12" class="node">
<title>Node12</title>
<g id="a_node12"><a xlink:href="icns_8_h.html" target="_top" xlink:title=" ">
<polygon fill="white" stroke="black" points="358.5,-112.5 358.5,-131.5 405.5,-131.5 405.5,-112.5 358.5,-112.5"/>
<text text-anchor="middle" x="382" y="-119.5" font-family="Helvetica,sans-Serif" font-size="10.00">icns.H</text>
</a>
</g>
</g>
<!-- Node8&#45;&gt;Node12 -->
<g id="edge13" class="edge">
<title>Node8&#45;&gt;Node12</title>
<path fill="none" stroke="midnightblue" d="M993.29,-174.18C878.35,-164.56 503.55,-133.18 405.6,-124.98"/>
<polygon fill="midnightblue" stroke="midnightblue" points="993.02,-177.67 1003.28,-175.01 993.61,-170.69 993.02,-177.67"/>
</g>
<!-- Node18 -->
<g id="node18" class="node">
<title>Node18</title>
<g id="a_node18"><a xlink:href="levelset_8_h.html" target="_top" xlink:title=" ">
<polygon fill="white" stroke="black" points="927,-112.5 927,-131.5 993,-131.5 993,-112.5 927,-112.5"/>
<text text-anchor="middle" x="960" y="-119.5" font-family="Helvetica,sans-Serif" font-size="10.00">levelset.H</text>
</a>
</g>
</g>
<!-- Node8&#45;&gt;Node18 -->
<g id="edge24" class="edge">
<title>Node8&#45;&gt;Node18</title>
<path fill="none" stroke="midnightblue" d="M1008.17,-161.82C996.16,-152.15 981.03,-139.95 970.96,-131.83"/>
<polygon fill="midnightblue" stroke="midnightblue" points="1006.25,-164.77 1016.24,-168.32 1010.65,-159.32 1006.25,-164.77"/>
</g>
<!-- Node21 -->
<g id="node21" class="node">
<title>Node21</title>
<g id="a_node21"><a xlink:href="_s_d_r_8_h.html" target="_top" xlink:title=" ">
<polygon fill="white" stroke="black" points="1100.5,-112.5 1100.5,-131.5 1147.5,-131.5 1147.5,-112.5 1100.5,-112.5"/>
<text text-anchor="middle" x="1124" y="-119.5" font-family="Helvetica,sans-Serif" font-size="10.00">SDR.H</text>
</a>
</g>
</g>
<!-- Node8&#45;&gt;Node21 -->
<g id="edge28" class="edge">
<title>Node8&#45;&gt;Node21</title>
<path fill="none" stroke="midnightblue" d="M1051.34,-163.45C1069.24,-153.48 1093.05,-140.23 1108.45,-131.65"/>
<polygon fill="midnightblue" stroke="midnightblue" points="1049.62,-160.4 1042.58,-168.32 1053.02,-166.52 1049.62,-160.4"/>
</g>
<!-- Node27 -->
<g id="node27" class="node">
<title>Node27</title>
<g id="a_node27"><a xlink:href="temperature_8_h.html" target="_top" xlink:title=" ">
<polygon fill="white" stroke="black" points="1589,-112.5 1589,-131.5 1677,-131.5 1677,-112.5 1589,-112.5"/>
<text text-anchor="middle" x="1633" y="-119.5" font-family="Helvetica,sans-Serif" font-size="10.00">temperature.H</text>
</a>
</g>
</g>
<!-- Node8&#45;&gt;Node27 -->
<g id="edge37" class="edge">
<title>Node8&#45;&gt;Node27</title>
<path fill="none" stroke="midnightblue" d="M1060.9,-173.98C1163.93,-164.8 1473.35,-137.23 1588.87,-126.93"/>
<polygon fill="midnightblue" stroke="midnightblue" points="1060.41,-170.51 1050.76,-174.88 1061.03,-177.48 1060.41,-170.51"/>
</g>
<!-- Node29 -->
<g id="node29" class="node">
<title>Node29</title>
<g id="a_node29"><a xlink:href="_t_k_e_8_h.html" target="_top" xlink:title=" ">
<polygon fill="white" stroke="black" points="1373,-112.5 1373,-131.5 1419,-131.5 1419,-112.5 1373,-112.5"/>
<text text-anchor="middle" x="1396" y="-119.5" font-family="Helvetica,sans-Serif" font-size="10.00">TKE.H</text>
</a>
</g>
</g>
<!-- Node8&#45;&gt;Node29 -->
<g id="edge39" class="edge">
<title>Node8&#45;&gt;Node29</title>
<path fill="none" stroke="midnightblue" d="M1060.8,-172.05C1134.73,-161.23 1309.26,-135.69 1372.55,-126.43"/>
<polygon fill="midnightblue" stroke="midnightblue" points="1060.03,-168.63 1050.64,-173.54 1061.05,-175.55 1060.03,-168.63"/>
</g>
<!-- Node34 -->
<g id="node34" class="node">
<title>Node34</title>
<g id="a_node34"><a xlink:href="vof_8_h.html" target="_top" xlink:title=" ">
<polygon fill="white" stroke="black" points="1916,-112.5 1916,-131.5 1958,-131.5 1958,-112.5 1916,-112.5"/>
<text text-anchor="middle" x="1937" y="-119.5" font-family="Helvetica,sans-Serif" font-size="10.00">vof.H</text>
</a>
</g>
</g>
<!-- Node8&#45;&gt;Node34 -->
<g id="edge48" class="edge">
<title>Node8&#45;&gt;Node34</title>
<path fill="none" stroke="midnightblue" d="M1061.18,-174.97C1209.68,-166.16 1796.66,-131.33 1915.83,-124.26"/>
<polygon fill="midnightblue" stroke="midnightblue" points="1060.65,-171.5 1050.87,-175.58 1061.06,-178.48 1060.65,-171.5"/>
</g>
<!-- Node10 -->
<g id="node10" class="node">
<title>Node10</title>
<g id="a_node10"><a xlink:href="density_8cpp.html" target="_top" xlink:title=" ">
<polygon fill="white" stroke="black" points="734.5,-0.5 734.5,-19.5 805.5,-19.5 805.5,-0.5 734.5,-0.5"/>
<text text-anchor="middle" x="770" y="-7.5" font-family="Helvetica,sans-Serif" font-size="10.00">density.cpp</text>
</a>
</g>
</g>
<!-- Node9&#45;&gt;Node10 -->
<g id="edge10" class="edge">
<title>Node9&#45;&gt;Node10</title>
<path fill="none" stroke="midnightblue" d="M791.63,-106.73C781.05,-99.09 769.78,-88.64 764,-76 755.52,-57.45 761.93,-32.85 766.49,-19.88"/>
<polygon fill="midnightblue" stroke="midnightblue" points="789.96,-109.82 800.22,-112.47 793.85,-104 789.96,-109.82"/>
</g>
<!-- Node11 -->
<g id="node11" class="node">
<title>Node11</title>
<g id="a_node11"><a xlink:href="density__ops_8_h.html" target="_top" xlink:title=" ">
<polygon fill="white" stroke="black" points="773,-56.5 773,-75.5 859,-75.5 859,-56.5 773,-56.5"/>
<text text-anchor="middle" x="816" y="-63.5" font-family="Helvetica,sans-Serif" font-size="10.00">density_ops.H</text>
</a>
</g>
</g>
<!-- Node9&#45;&gt;Node11 -->
<g id="edge11" class="edge">
<title>Node9&#45;&gt;Node11</title>
<path fill="none" stroke="midnightblue" d="M816,-101.8C816,-92.91 816,-82.78 816,-75.75"/>
<polygon fill="midnightblue" stroke="midnightblue" points="812.5,-102.08 816,-112.08 819.5,-102.08 812.5,-102.08"/>
</g>
<!-- Node11&#45;&gt;Node10 -->
<g id="edge12" class="edge">
<title>Node11&#45;&gt;Node10</title>
<path fill="none" stroke="midnightblue" d="M801.89,-48.43C793.82,-38.97 784.04,-27.48 777.45,-19.75"/>
<polygon fill="midnightblue" stroke="midnightblue" points="799.25,-50.74 808.4,-56.08 804.58,-46.2 799.25,-50.74"/>
</g>
<!-- Node12&#45;&gt;Node5 -->
<g id="edge20" class="edge">
<title>Node12&#45;&gt;Node5</title>
<path fill="none" stroke="midnightblue" d="M348.37,-115.58C288.33,-105.9 162.61,-85.63 94.04,-74.58"/>
<polygon fill="midnightblue" stroke="midnightblue" points="348.01,-119.07 358.44,-117.2 349.13,-112.16 348.01,-119.07"/>
</g>
<!-- Node12&#45;&gt;Node6 -->
<g id="edge14" class="edge">
<title>Node12&#45;&gt;Node6</title>
<path fill="none" stroke="midnightblue" d="M348.36,-112.92C305.96,-102.47 237.56,-84.58 229,-76 213.72,-60.69 210.59,-33.81 210.04,-19.9"/>
<polygon fill="midnightblue" stroke="midnightblue" points="347.72,-116.37 358.27,-115.35 349.39,-109.57 347.72,-116.37"/>
</g>
<!-- Node12&#45;&gt;Node7 -->
<g id="edge21" class="edge">
<title>Node12&#45;&gt;Node7</title>
<path fill="none" stroke="midnightblue" d="M348.41,-113.03C346.92,-112.68 345.44,-112.34 344,-112 287.11,-98.76 220.89,-83.71 181.54,-74.8"/>
<polygon fill="midnightblue" stroke="midnightblue" points="347.75,-116.47 358.29,-115.35 349.36,-109.66 347.75,-116.47"/>
</g>
<!-- Node13 -->
<g id="node13" class="node">
<title>Node13</title>
<g id="a_node13"><a xlink:href="icns__advection_8_h.html" target="_top" xlink:title=" ">
<polygon fill="white" stroke="black" points="332,-56.5 332,-75.5 432,-75.5 432,-56.5 332,-56.5"/>
<text text-anchor="middle" x="382" y="-63.5" font-family="Helvetica,sans-Serif" font-size="10.00">icns_advection.H</text>
</a>
</g>
</g>
<!-- Node12&#45;&gt;Node13 -->
<g id="edge15" class="edge">
<title>Node12&#45;&gt;Node13</title>
<path fill="none" stroke="midnightblue" d="M382,-101.8C382,-92.91 382,-82.78 382,-75.75"/>
<polygon fill="midnightblue" stroke="midnightblue" points="378.5,-102.08 382,-112.08 385.5,-102.08 378.5,-102.08"/>
</g>
<!-- Node15 -->
<g id="node15" class="node">
<title>Node15</title>
<g id="a_node15"><a xlink:href="icns__bcop_8_h.html" target="_top" xlink:title=" ">
<polygon fill="white" stroke="black" points="238.5,-56.5 238.5,-75.5 313.5,-75.5 313.5,-56.5 238.5,-56.5"/>
<text text-anchor="middle" x="276" y="-63.5" font-family="Helvetica,sans-Serif" font-size="10.00">icns_bcop.H</text>
</a>
</g>
</g>
<!-- Node12&#45;&gt;Node15 -->
<g id="edge18" class="edge">
<title>Node12&#45;&gt;Node15</title>
<path fill="none" stroke="midnightblue" d="M355.94,-107.73C336.32,-97.73 309.97,-84.31 292.99,-75.65"/>
<polygon fill="midnightblue" stroke="midnightblue" points="354.47,-110.9 364.97,-112.32 357.65,-104.67 354.47,-110.9"/>
</g>
<!-- Node16 -->
<g id="node16" class="node">
<title>Node16</title>
<g id="a_node16"><a xlink:href="_burggraf_lid_8cpp.html" target="_top" xlink:title=" ">
<polygon fill="white" stroke="black" points="450.5,-56.5 450.5,-75.5 543.5,-75.5 543.5,-56.5 450.5,-56.5"/>
<text text-anchor="middle" x="497" y="-63.5" font-family="Helvetica,sans-Serif" font-size="10.00">BurggrafLid.cpp</text>
</a>
</g>
</g>
<!-- Node12&#45;&gt;Node16 -->
<g id="edge22" class="edge">
<title>Node12&#45;&gt;Node16</title>
<path fill="none" stroke="midnightblue" d="M409.48,-108.1C430.97,-98.01 460.22,-84.27 478.86,-75.52"/>
<polygon fill="midnightblue" stroke="midnightblue" points="407.79,-105.02 400.22,-112.44 410.76,-111.36 407.79,-105.02"/>
</g>
<!-- Node17 -->
<g id="node17" class="node">
<title>Node17</title>
<g id="a_node17"><a xlink:href="_power_law_profile_8cpp.html" target="_top" xlink:title=" ">
<polygon fill="white" stroke="black" points="561.5,-56.5 561.5,-75.5 678.5,-75.5 678.5,-56.5 561.5,-56.5"/>
<text text-anchor="middle" x="620" y="-63.5" font-family="Helvetica,sans-Serif" font-size="10.00">PowerLawProfile.cpp</text>
</a>
</g>
</g>
<!-- Node12&#45;&gt;Node17 -->
<g id="edge23" class="edge">
<title>Node12&#45;&gt;Node17</title>
<path fill="none" stroke="midnightblue" d="M415.61,-113.38C459.61,-103.39 536.53,-85.94 582.42,-75.53"/>
<polygon fill="midnightblue" stroke="midnightblue" points="414.67,-110 405.69,-115.62 416.22,-116.83 414.67,-110"/>
</g>
<!-- Node13&#45;&gt;Node6 -->
<g id="edge16" class="edge">
<title>Node13&#45;&gt;Node6</title>
<path fill="none" stroke="midnightblue" d="M345.17,-53.44C312.74,-43.26 266.26,-28.66 237.13,-19.52"/>
<polygon fill="midnightblue" stroke="midnightblue" points="344.16,-56.79 354.75,-56.44 346.25,-50.11 344.16,-56.79"/>
</g>
<!-- Node13&#45;&gt;Node14 -->
<g id="edge17" class="edge">
<title>Node13&#45;&gt;Node14</title>
<path fill="none" stroke="midnightblue" d="M411.39,-52.5C435.2,-42.38 468.11,-28.39 488.97,-19.52"/>
<polygon fill="midnightblue" stroke="midnightblue" points="409.96,-49.31 402.12,-56.44 412.7,-55.75 409.96,-49.31"/>
</g>
<!-- Node15&#45;&gt;Node6 -->
<g id="edge19" class="edge">
<title>Node15&#45;&gt;Node6</title>
<path fill="none" stroke="midnightblue" d="M257.45,-49.82C245.62,-40.15 230.71,-27.95 220.8,-19.83"/>
<polygon fill="midnightblue" stroke="midnightblue" points="255.44,-52.7 265.4,-56.32 259.87,-47.28 255.44,-52.7"/>
</g>
<!-- Node19 -->
<g id="node19" class="node">
<title>Node19</title>
<g id="a_node19"><a xlink:href="levelset_8cpp.html" target="_top" xlink:title=" ">
<polygon fill="white" stroke="black" points="879,-0.5 879,-19.5 955,-19.5 955,-0.5 879,-0.5"/>
<text text-anchor="middle" x="917" y="-7.5" font-family="Helvetica,sans-Serif" font-size="10.00">levelset.cpp</text>
</a>
</g>
</g>
<!-- Node18&#45;&gt;Node19 -->
<g id="edge25" class="edge">
<title>Node18&#45;&gt;Node19</title>
<path fill="none" stroke="midnightblue" d="M934.82,-107C923.81,-99.4 912.04,-88.91 906,-76 897.26,-57.34 906.25,-32.79 912.36,-19.85"/>
<polygon fill="midnightblue" stroke="midnightblue" points="933.06,-110.03 943.37,-112.46 936.83,-104.13 933.06,-110.03"/>
</g>
<!-- Node20 -->
<g id="node20" class="node">
<title>Node20</title>
<g id="a_node20"><a xlink:href="levelset__ops_8_h.html" target="_top" xlink:title=" ">
<polygon fill="white" stroke="black" points="915.5,-56.5 915.5,-75.5 1004.5,-75.5 1004.5,-56.5 915.5,-56.5"/>
<text text-anchor="middle" x="960" y="-63.5" font-family="Helvetica,sans-Serif" font-size="10.00">levelset_ops.H</text>
</a>
</g>
</g>
<!-- Node18&#45;&gt;Node20 -->
<g id="edge26" class="edge">
<title>Node18&#45;&gt;Node20</title>
<path fill="none" stroke="midnightblue" d="M960,-101.8C960,-92.91 960,-82.78 960,-75.75"/>
<polygon fill="midnightblue" stroke="midnightblue" points="956.5,-102.08 960,-112.08 963.5,-102.08 956.5,-102.08"/>
</g>
<!-- Node20&#45;&gt;Node19 -->
<g id="edge27" class="edge">
<title>Node20&#45;&gt;Node19</title>
<path fill="none" stroke="midnightblue" d="M946.58,-48.14C939.09,-38.74 930.06,-27.4 923.97,-19.75"/>
<polygon fill="midnightblue" stroke="midnightblue" points="943.93,-50.44 952.9,-56.08 949.41,-46.08 943.93,-50.44"/>
</g>
<!-- Node22 -->
<g id="node22" class="node">
<title>Node22</title>
<g id="a_node22"><a xlink:href="_s_d_r_8cpp.html" target="_top" xlink:title=" ">
<polygon fill="white" stroke="black" points="1034.5,-0.5 1034.5,-19.5 1091.5,-19.5 1091.5,-0.5 1034.5,-0.5"/>
<text text-anchor="middle" x="1063" y="-7.5" font-family="Helvetica,sans-Serif" font-size="10.00">SDR.cpp</text>
</a>
</g>
</g>
<!-- Node21&#45;&gt;Node22 -->
<g id="edge29" class="edge">
<title>Node21&#45;&gt;Node22</title>
<path fill="none" stroke="midnightblue" d="M1090.88,-109C1076.2,-101.84 1060.38,-91.12 1052,-76 1041.9,-57.78 1051.72,-32.61 1058.24,-19.59"/>
<polygon fill="midnightblue" stroke="midnightblue" points="1089.72,-112.32 1100.27,-113.21 1092.58,-105.93 1089.72,-112.32"/>
</g>
<!-- Node23 -->
<g id="node23" class="node">
<title>Node23</title>
<g id="a_node23"><a xlink:href="sdr__ops_8_h.html" target="_top" xlink:title=" ">
<polygon fill="white" stroke="black" points="1061.5,-56.5 1061.5,-75.5 1126.5,-75.5 1126.5,-56.5 1061.5,-56.5"/>
<text text-anchor="middle" x="1094" y="-63.5" font-family="Helvetica,sans-Serif" font-size="10.00">sdr_ops.H</text>
</a>
</g>
</g>
<!-- Node21&#45;&gt;Node23 -->
<g id="edge30" class="edge">
<title>Node21&#45;&gt;Node23</title>
<path fill="none" stroke="midnightblue" d="M1114.15,-103.27C1109.03,-94.05 1102.98,-83.17 1098.86,-75.75"/>
<polygon fill="midnightblue" stroke="midnightblue" points="1111.13,-105.04 1119.05,-112.08 1117.25,-101.64 1111.13,-105.04"/>
</g>
<!-- Node24 -->
<g id="node24" class="node">
<title>Node24</title>
<g id="a_node24"><a xlink:href="_k_omega_s_s_t_8cpp.html" target="_top" xlink:title=" ">
<polygon fill="white" stroke="black" points="1169.5,-0.5 1169.5,-19.5 1264.5,-19.5 1264.5,-0.5 1169.5,-0.5"/>
<text text-anchor="middle" x="1217" y="-7.5" font-family="Helvetica,sans-Serif" font-size="10.00">KOmegaSST.cpp</text>
</a>
</g>
</g>
<!-- Node21&#45;&gt;Node24 -->
<g id="edge32" class="edge">
<title>Node21&#45;&gt;Node24</title>
<path fill="none" stroke="midnightblue" d="M1136.21,-104.12C1146.06,-90.76 1160.44,-71.8 1174,-56 1185.26,-42.88 1199.24,-28.58 1208.14,-19.7"/>
<polygon fill="midnightblue" stroke="midnightblue" points="1133.27,-102.22 1130.19,-112.36 1138.92,-106.35 1133.27,-102.22"/>
</g>
<!-- Node25 -->
<g id="node25" class="node">
<title>Node25</title>
<g id="a_node25"><a xlink:href="_k_omega_s_s_t_i_8_h.html" target="_top" xlink:title=" ">
<polygon fill="white" stroke="black" points="1183.5,-56.5 1183.5,-75.5 1272.5,-75.5 1272.5,-56.5 1183.5,-56.5"/>
<text text-anchor="middle" x="1228" y="-63.5" font-family="Helvetica,sans-Serif" font-size="10.00">KOmegaSSTI.H</text>
</a>
</g>
</g>
<!-- Node21&#45;&gt;Node25 -->
<g id="edge33" class="edge">
<title>Node21&#45;&gt;Node25</title>
<path fill="none" stroke="midnightblue" d="M1149.83,-107.59C1169.06,-97.61 1194.74,-84.27 1211.33,-75.65"/>
<polygon fill="midnightblue" stroke="midnightblue" points="1147.97,-104.61 1140.71,-112.32 1151.2,-110.82 1147.97,-104.61"/>
</g>
<!-- Node26 -->
<g id="node26" class="node">
<title>Node26</title>
<g id="a_node26"><a xlink:href="_k_omega_s_s_t_i_d_d_e_s_8cpp.html" target="_top" xlink:title=" ">
<polygon fill="white" stroke="black" points="1283,-0.5 1283,-19.5 1409,-19.5 1409,-0.5 1283,-0.5"/>
<text text-anchor="middle" x="1346" y="-7.5" font-family="Helvetica,sans-Serif" font-size="10.00">KOmegaSSTIDDES.cpp</text>
</a>
</g>
</g>
<!-- Node21&#45;&gt;Node26 -->
<g id="edge36" class="edge">
<title>Node21&#45;&gt;Node26</title>
<path fill="none" stroke="midnightblue" d="M1157.64,-116.4C1190.83,-110.74 1242.09,-98.92 1281,-76 1306.58,-60.94 1329.3,-33.45 1339.82,-19.54"/>
<polygon fill="midnightblue" stroke="midnightblue" points="1156.86,-112.98 1147.54,-118.02 1157.97,-119.89 1156.86,-112.98"/>
</g>
<!-- Node23&#45;&gt;Node22 -->
<g id="edge31" class="edge">
<title>Node23&#45;&gt;Node22</title>
<path fill="none" stroke="midnightblue" d="M1083.82,-47.27C1078.53,-38.05 1072.28,-27.17 1068.02,-19.75"/>
<polygon fill="midnightblue" stroke="midnightblue" points="1080.87,-49.15 1088.88,-56.08 1086.94,-45.67 1080.87,-49.15"/>
</g>
<!-- Node25&#45;&gt;Node24 -->
<g id="edge34" class="edge">
<title>Node25&#45;&gt;Node24</title>
<path fill="none" stroke="midnightblue" d="M1224.15,-46.1C1222.32,-37.14 1220.23,-26.86 1218.78,-19.75"/>
<polygon fill="midnightblue" stroke="midnightblue" points="1220.76,-46.98 1226.18,-56.08 1227.62,-45.59 1220.76,-46.98"/>
</g>
<!-- Node25&#45;&gt;Node26 -->
<g id="edge35" class="edge">
<title>Node25&#45;&gt;Node26</title>
<path fill="none" stroke="midnightblue" d="M1255.9,-52.23C1277.97,-42.13 1308.18,-28.31 1327.39,-19.52"/>
<polygon fill="midnightblue" stroke="midnightblue" points="1254.33,-49.1 1246.7,-56.44 1257.25,-55.46 1254.33,-49.1"/>
</g>
<!-- Node28 -->
<g id="node28" class="node">
<title>Node28</title>
<g id="a_node28"><a xlink:href="temperature_8cpp.html" target="_top" xlink:title=" ">
<polygon fill="white" stroke="black" points="1735,-56.5 1735,-75.5 1833,-75.5 1833,-56.5 1735,-56.5"/>
<text text-anchor="middle" x="1784" y="-63.5" font-family="Helvetica,sans-Serif" font-size="10.00">temperature.cpp</text>
</a>
</g>
</g>
<!-- Node27&#45;&gt;Node28 -->
<g id="edge38" class="edge">
<title>Node27&#45;&gt;Node28</title>
<path fill="none" stroke="midnightblue" d="M1666.45,-109.04C1694.86,-98.88 1734.94,-84.55 1760.19,-75.52"/>
<polygon fill="midnightblue" stroke="midnightblue" points="1665.16,-105.78 1656.93,-112.44 1667.52,-112.37 1665.16,-105.78"/>
</g>
<!-- Node29&#45;&gt;Node24 -->
<g id="edge44" class="edge">
<title>Node29&#45;&gt;Node24</title>
<path fill="none" stroke="midnightblue" d="M1373.23,-107.01C1335.66,-83.92 1261.77,-38.51 1230.98,-19.59"/>
<polygon fill="midnightblue" stroke="midnightblue" points="1371.6,-110.11 1381.95,-112.37 1375.27,-104.15 1371.6,-110.11"/>
</g>
<!-- Node29&#45;&gt;Node25 -->
<g id="edge45" class="edge">
<title>Node29&#45;&gt;Node25</title>
<path fill="none" stroke="midnightblue" d="M1363.29,-110.49C1331.58,-100.29 1284.06,-85.02 1254.6,-75.55"/>
<polygon fill="midnightblue" stroke="midnightblue" points="1362.4,-113.88 1372.99,-113.6 1364.54,-107.21 1362.4,-113.88"/>
</g>
<!-- Node29&#45;&gt;Node26 -->
<g id="edge46" class="edge">
<title>Node29&#45;&gt;Node26</title>
<path fill="none" stroke="midnightblue" d="M1387.82,-103C1376.91,-79 1358.03,-37.47 1349.91,-19.59"/>
<polygon fill="midnightblue" stroke="midnightblue" points="1384.75,-104.71 1392.08,-112.37 1391.12,-101.82 1384.75,-104.71"/>
</g>
<!-- Node30 -->
<g id="node30" class="node">
<title>Node30</title>
<g id="a_node30"><a xlink:href="_t_k_e_8cpp.html" target="_top" xlink:title=" ">
<polygon fill="white" stroke="black" points="1434,-0.5 1434,-19.5 1490,-19.5 1490,-0.5 1434,-0.5"/>
<text text-anchor="middle" x="1462" y="-7.5" font-family="Helvetica,sans-Serif" font-size="10.00">TKE.cpp</text>
</a>
</g>
</g>
<!-- Node29&#45;&gt;Node30 -->
<g id="edge40" class="edge">
<title>Node29&#45;&gt;Node30</title>
<path fill="none" stroke="midnightblue" d="M1406.22,-103.22C1413.79,-90.11 1424.42,-71.88 1434,-56 1441.7,-43.24 1450.87,-28.61 1456.56,-19.58"/>
<polygon fill="midnightblue" stroke="midnightblue" points="1403.05,-101.71 1401.09,-112.12 1409.11,-105.21 1403.05,-101.71"/>
</g>
<!-- Node31 -->
<g id="node31" class="node">
<title>Node31</title>
<g id="a_node31"><a xlink:href="tke__ops_8_h.html" target="_top" xlink:title=" ">
<polygon fill="white" stroke="black" points="1443.5,-56.5 1443.5,-75.5 1508.5,-75.5 1508.5,-56.5 1443.5,-56.5"/>
<text text-anchor="middle" x="1476" y="-63.5" font-family="Helvetica,sans-Serif" font-size="10.00">tke_ops.H</text>
</a>
</g>
</g>
<!-- Node29&#45;&gt;Node31 -->
<g id="edge41" class="edge">
<title>Node29&#45;&gt;Node31</title>
<path fill="none" stroke="midnightblue" d="M1417.3,-106.62C1431.92,-96.76 1450.83,-83.99 1463.18,-75.65"/>
<polygon fill="midnightblue" stroke="midnightblue" points="1415.18,-103.83 1408.85,-112.32 1419.1,-109.63 1415.18,-103.83"/>
</g>
<!-- Node32 -->
<g id="node32" class="node">
<title>Node32</title>
<g id="a_node32"><a xlink:href="_one_eq_ksgs_8cpp.html" target="_top" xlink:title=" ">
<polygon fill="white" stroke="black" points="1527,-56.5 1527,-75.5 1619,-75.5 1619,-56.5 1527,-56.5"/>
<text text-anchor="middle" x="1573" y="-63.5" font-family="Helvetica,sans-Serif" font-size="10.00">OneEqKsgs.cpp</text>
</a>
</g>
</g>
<!-- Node29&#45;&gt;Node32 -->
<g id="edge43" class="edge">
<title>Node29&#45;&gt;Node32</title>
<path fill="none" stroke="midnightblue" d="M1428.88,-110.97C1462.25,-100.79 1513.35,-85.2 1544.89,-75.58"/>
<polygon fill="midnightblue" stroke="midnightblue" points="1427.68,-107.67 1419.14,-113.94 1429.73,-114.37 1427.68,-107.67"/>
</g>
<!-- Node33 -->
<g id="node33" class="node">
<title>Node33</title>
<g id="a_node33"><a xlink:href="_a_b_l_stats_8cpp.html" target="_top" xlink:title=" ">
<polygon fill="white" stroke="black" points="1637,-56.5 1637,-75.5 1717,-75.5 1717,-56.5 1637,-56.5"/>
<text text-anchor="middle" x="1677" y="-63.5" font-family="Helvetica,sans-Serif" font-size="10.00">ABLStats.cpp</text>
</a>
</g>
</g>
<!-- Node29&#45;&gt;Node33 -->
<g id="edge47" class="edge">
<title>Node29&#45;&gt;Node33</title>
<path fill="none" stroke="midnightblue" d="M1429.5,-114.56C1481.45,-104.58 1581.23,-85.4 1636.92,-74.7"/>
<polygon fill="midnightblue" stroke="midnightblue" points="1428.63,-111.16 1419.47,-116.49 1429.96,-118.04 1428.63,-111.16"/>
</g>
<!-- Node31&#45;&gt;Node30 -->
<g id="edge42" class="edge">
<title>Node31&#45;&gt;Node30</title>
<path fill="none" stroke="midnightblue" d="M1471.18,-46.4C1468.83,-37.36 1466.13,-26.94 1464.27,-19.75"/>
<polygon fill="midnightblue" stroke="midnightblue" points="1467.79,-47.28 1473.69,-56.08 1474.57,-45.52 1467.79,-47.28"/>
</g>
<!-- Node35 -->
<g id="node35" class="node">
<title>Node35</title>
<g id="a_node35"><a xlink:href="vof_8cpp.html" target="_top" xlink:title=" ">
<polygon fill="white" stroke="black" points="1962,-0.5 1962,-19.5 2014,-19.5 2014,-0.5 1962,-0.5"/>
<text text-anchor="middle" x="1988" y="-7.5" font-family="Helvetica,sans-Serif" font-size="10.00">vof.cpp</text>
</a>
</g>
</g>
<!-- Node34&#45;&gt;Node35 -->
<g id="edge49" class="edge">
<title>Node34&#45;&gt;Node35</title>
<path fill="none" stroke="midnightblue" d="M1910.68,-107.26C1890.2,-94.67 1867.24,-75.15 1880,-56 1898.14,-28.79 1936.18,-18.01 1961.91,-13.75"/>
<polygon fill="midnightblue" stroke="midnightblue" points="1909.08,-110.37 1919.49,-112.36 1912.59,-104.32 1909.08,-110.37"/>
</g>
<!-- Node36 -->
<g id="node36" class="node">
<title>Node36</title>
<g id="a_node36"><a xlink:href="vof__advection_8_h.html" target="_top" xlink:title=" ">
<polygon fill="white" stroke="black" points="1889,-56.5 1889,-75.5 1985,-75.5 1985,-56.5 1889,-56.5"/>
<text text-anchor="middle" x="1937" y="-63.5" font-family="Helvetica,sans-Serif" font-size="10.00">vof_advection.H</text>
</a>
</g>
</g>
<!-- Node34&#45;&gt;Node36 -->
<g id="edge50" class="edge">
<title>Node34&#45;&gt;Node36</title>
<path fill="none" stroke="midnightblue" d="M1937,-101.8C1937,-92.91 1937,-82.78 1937,-75.75"/>
<polygon fill="midnightblue" stroke="midnightblue" points="1933.5,-102.08 1937,-112.08 1940.5,-102.08 1933.5,-102.08"/>
</g>
<!-- Node37 -->
<g id="node37" class="node">
<title>Node37</title>
<g id="a_node37"><a xlink:href="vof__bcop_8_h.html" target="_top" xlink:title=" ">
<polygon fill="white" stroke="black" points="2003.5,-56.5 2003.5,-75.5 2074.5,-75.5 2074.5,-56.5 2003.5,-56.5"/>
<text text-anchor="middle" x="2039" y="-63.5" font-family="Helvetica,sans-Serif" font-size="10.00">vof_bcop.H</text>
</a>
</g>
</g>
<!-- Node34&#45;&gt;Node37 -->
<g id="edge52" class="edge">
<title>Node34&#45;&gt;Node37</title>
<path fill="none" stroke="midnightblue" d="M1962.33,-107.59C1981.19,-97.61 2006.38,-84.27 2022.65,-75.65"/>
<polygon fill="midnightblue" stroke="midnightblue" points="1960.59,-104.55 1953.39,-112.32 1963.86,-110.74 1960.59,-104.55"/>
</g>
<!-- Node38 -->
<g id="node38" class="node">
<title>Node38</title>
<g id="a_node38"><a xlink:href="vof__ops_8_h.html" target="_top" xlink:title=" ">
<polygon fill="white" stroke="black" points="2092.5,-56.5 2092.5,-75.5 2157.5,-75.5 2157.5,-56.5 2092.5,-56.5"/>
<text text-anchor="middle" x="2125" y="-63.5" font-family="Helvetica,sans-Serif" font-size="10.00">vof_ops.H</text>
</a>
</g>
</g>
<!-- Node34&#45;&gt;Node38 -->
<g id="edge54" class="edge">
<title>Node34&#45;&gt;Node38</title>
<path fill="none" stroke="midnightblue" d="M1967.96,-112.11C2003.23,-101.98 2060.47,-85.53 2095.24,-75.55"/>
<polygon fill="midnightblue" stroke="midnightblue" points="1966.85,-108.79 1958.2,-114.91 1968.78,-115.51 1966.85,-108.79"/>
</g>
<!-- Node36&#45;&gt;Node35 -->
<g id="edge51" class="edge">
<title>Node36&#45;&gt;Node35</title>
<path fill="none" stroke="midnightblue" d="M1952.38,-48.72C1961.37,-39.2 1972.36,-27.56 1979.74,-19.75"/>
<polygon fill="midnightblue" stroke="midnightblue" points="1949.74,-46.41 1945.42,-56.08 1954.83,-51.22 1949.74,-46.41"/>
</g>
<!-- Node37&#45;&gt;Node35 -->
<g id="edge53" class="edge">
<title>Node37&#45;&gt;Node35</title>
<path fill="none" stroke="midnightblue" d="M2023.62,-48.72C2014.63,-39.2 2003.64,-27.56 1996.26,-19.75"/>
<polygon fill="midnightblue" stroke="midnightblue" points="2021.17,-51.22 2030.58,-56.08 2026.26,-46.41 2021.17,-51.22"/>
</g>
<!-- Node38&#45;&gt;Node35 -->
<g id="edge55" class="edge">
<title>Node38&#45;&gt;Node35</title>
<path fill="none" stroke="midnightblue" d="M2093.98,-52.77C2068.24,-42.63 2032.31,-28.47 2009.61,-19.52"/>
<polygon fill="midnightblue" stroke="midnightblue" points="2092.71,-56.03 2103.29,-56.44 2095.27,-49.52 2092.71,-56.03"/>
</g>
</g>
</svg>
