<?xml version="1.0" encoding="UTF-8" standalone="no"?>
<!DOCTYPE svg PUBLIC "-//W3C//DTD SVG 1.1//EN"
 "http://www.w3.org/Graphics/SVG/1.1/DTD/svg11.dtd">
<!-- Generated by graphviz version 2.43.0 (0)
 -->
<!-- Title: MOData.H Pages: 1 -->
<svg width="1138pt" height="263pt"
 viewBox="0.00 0.00 1137.50 263.00" xmlns="http://www.w3.org/2000/svg" xmlns:xlink="http://www.w3.org/1999/xlink">
<g id="graph0" class="graph" transform="scale(1 1) rotate(0) translate(4 259)">
<title>MOData.H</title>
<polygon fill="white" stroke="transparent" points="-4,4 -4,-259 1133.5,-259 1133.5,4 -4,4"/>
<!-- Node1 -->
<g id="node1" class="node">
<title>Node1</title>
<g id="a_node1"><a xlink:title=" ">
<polygon fill="#bfbfbf" stroke="black" points="846.5,-235.5 846.5,-254.5 913.5,-254.5 913.5,-235.5 846.5,-235.5"/>
<text text-anchor="middle" x="880" y="-242.5" font-family="Helvetica,sans-Serif" font-size="10.00">MOData.H</text>
</a>
</g>
</g>
<!-- Node2 -->
<g id="node2" class="node">
<title>Node2</title>
<g id="a_node2"><a xlink:href="_a_b_l_wall_function_8_h.html" target="_top" xlink:title=" ">
<polygon fill="white" stroke="black" points="711.5,-179.5 711.5,-198.5 818.5,-198.5 818.5,-179.5 711.5,-179.5"/>
<text text-anchor="middle" x="765" y="-186.5" font-family="Helvetica,sans-Serif" font-size="10.00">ABLWallFunction.H</text>
</a>
</g>
</g>
<!-- Node1&#45;&gt;Node2 -->
<g id="edge1" class="edge">
<title>Node1&#45;&gt;Node2</title>
<path fill="none" stroke="midnightblue" d="M852.52,-231.1C831.03,-221.01 801.78,-207.27 783.14,-198.52"/>
<polygon fill="midnightblue" stroke="midnightblue" points="851.24,-234.36 861.78,-235.44 854.21,-228.02 851.24,-234.36"/>
</g>
<!-- Node17 -->
<g id="node17" class="node">
<title>Node17</title>
<g id="a_node17"><a xlink:href="_m_o_data_8cpp.html" target="_top" xlink:title=" ">
<polygon fill="white" stroke="black" points="841.5,-179.5 841.5,-198.5 918.5,-198.5 918.5,-179.5 841.5,-179.5"/>
<text text-anchor="middle" x="880" y="-186.5" font-family="Helvetica,sans-Serif" font-size="10.00">MOData.cpp</text>
</a>
</g>
</g>
<!-- Node1&#45;&gt;Node17 -->
<g id="edge19" class="edge">
<title>Node1&#45;&gt;Node17</title>
<path fill="none" stroke="midnightblue" d="M880,-224.8C880,-215.91 880,-205.78 880,-198.75"/>
<polygon fill="midnightblue" stroke="midnightblue" points="876.5,-225.08 880,-235.08 883.5,-225.08 876.5,-225.08"/>
</g>
<!-- Node18 -->
<g id="node18" class="node">
<title>Node18</title>
<g id="a_node18"><a xlink:href="_shear_stress_8_h.html" target="_top" xlink:title=" ">
<polygon fill="white" stroke="black" points="939.5,-179.5 939.5,-198.5 1024.5,-198.5 1024.5,-179.5 939.5,-179.5"/>
<text text-anchor="middle" x="982" y="-186.5" font-family="Helvetica,sans-Serif" font-size="10.00">ShearStress.H</text>
</a>
</g>
</g>
<!-- Node1&#45;&gt;Node18 -->
<g id="edge20" class="edge">
<title>Node1&#45;&gt;Node18</title>
<path fill="none" stroke="midnightblue" d="M905.33,-230.59C924.19,-220.61 949.38,-207.27 965.65,-198.65"/>
<polygon fill="midnightblue" stroke="midnightblue" points="903.59,-227.55 896.39,-235.32 906.86,-233.74 903.59,-227.55"/>
</g>
<!-- Node3 -->
<g id="node3" class="node">
<title>Node3</title>
<g id="a_node3"><a xlink:href="_boussinesq_bubble_8cpp.html" target="_top" xlink:title=" ">
<polygon fill="white" stroke="black" points="724,-123.5 724,-142.5 850,-142.5 850,-123.5 724,-123.5"/>
<text text-anchor="middle" x="787" y="-130.5" font-family="Helvetica,sans-Serif" font-size="10.00">BoussinesqBubble.cpp</text>
</a>
</g>
</g>
<!-- Node2&#45;&gt;Node3 -->
<g id="edge2" class="edge">
<title>Node2&#45;&gt;Node3</title>
<path fill="none" stroke="midnightblue" d="M772.46,-169.69C776.17,-160.59 780.48,-150.01 783.43,-142.75"/>
<polygon fill="midnightblue" stroke="midnightblue" points="769.16,-168.5 768.63,-179.08 775.65,-171.14 769.16,-168.5"/>
</g>
<!-- Node4 -->
<g id="node4" class="node">
<title>Node4</title>
<g id="a_node4"><a xlink:href="_a_b_l_8_h.html" target="_top" xlink:title=" ">
<polygon fill="white" stroke="black" points="598,-67.5 598,-86.5 644,-86.5 644,-67.5 598,-67.5"/>
<text text-anchor="middle" x="621" y="-74.5" font-family="Helvetica,sans-Serif" font-size="10.00">ABL.H</text>
</a>
</g>
</g>
<!-- Node2&#45;&gt;Node4 -->
<g id="edge3" class="edge">
<title>Node2&#45;&gt;Node4</title>
<path fill="none" stroke="midnightblue" d="M745.52,-173.12C714.95,-149.77 656.7,-105.27 632.25,-86.59"/>
<polygon fill="midnightblue" stroke="midnightblue" points="743.63,-176.08 753.7,-179.37 747.88,-170.52 743.63,-176.08"/>
</g>
<!-- Node13 -->
<g id="node13" class="node">
<title>Node13</title>
<g id="a_node13"><a xlink:href="_a_b_l_wall_function_8cpp.html" target="_top" xlink:title=" ">
<polygon fill="white" stroke="black" points="935.5,-6 935.5,-25 1052.5,-25 1052.5,-6 935.5,-6"/>
<text text-anchor="middle" x="994" y="-13" font-family="Helvetica,sans-Serif" font-size="10.00">ABLWallFunction.cpp</text>
</a>
</g>
</g>
<!-- Node2&#45;&gt;Node13 -->
<g id="edge18" class="edge">
<title>Node2&#45;&gt;Node13</title>
<path fill="none" stroke="midnightblue" d="M797.03,-175.57C815.85,-167.57 839.67,-156.22 859,-143 913.35,-105.84 967.23,-47.08 986.53,-25.14"/>
<polygon fill="midnightblue" stroke="midnightblue" points="795.59,-172.38 787.7,-179.44 798.27,-178.84 795.59,-172.38"/>
</g>
<!-- Node14 -->
<g id="node14" class="node">
<title>Node14</title>
<g id="a_node14"><a xlink:href="_a_b_l_stats_8_h.html" target="_top" xlink:title=" ">
<polygon fill="white" stroke="black" points="508.5,-67.5 508.5,-86.5 579.5,-86.5 579.5,-67.5 508.5,-67.5"/>
<text text-anchor="middle" x="544" y="-74.5" font-family="Helvetica,sans-Serif" font-size="10.00">ABLStats.H</text>
</a>
</g>
</g>
<!-- Node2&#45;&gt;Node14 -->
<g id="edge13" class="edge">
<title>Node2&#45;&gt;Node14</title>
<path fill="none" stroke="midnightblue" d="M701.34,-180.92C649.88,-173.94 582.85,-161.6 563,-143 547.04,-128.05 544.24,-100.51 543.91,-86.57"/>
<polygon fill="midnightblue" stroke="midnightblue" points="701.03,-184.41 711.4,-182.24 701.94,-177.47 701.03,-184.41"/>
</g>
<!-- Node16 -->
<g id="node16" class="node">
<title>Node16</title>
<g id="a_node16"><a xlink:href="_a_b_l_stats_base_8_h.html" target="_top" xlink:title=" ">
<polygon fill="white" stroke="black" points="572.5,-123.5 572.5,-142.5 667.5,-142.5 667.5,-123.5 572.5,-123.5"/>
<text text-anchor="middle" x="620" y="-130.5" font-family="Helvetica,sans-Serif" font-size="10.00">ABLStatsBase.H</text>
</a>
</g>
</g>
<!-- Node2&#45;&gt;Node16 -->
<g id="edge15" class="edge">
<title>Node2&#45;&gt;Node16</title>
<path fill="none" stroke="midnightblue" d="M732.52,-175.91C705.26,-165.75 667.01,-151.51 642.87,-142.52"/>
<polygon fill="midnightblue" stroke="midnightblue" points="731.43,-179.23 742.02,-179.44 733.87,-172.67 731.43,-179.23"/>
</g>
<!-- Node5 -->
<g id="node5" class="node">
<title>Node5</title>
<g id="a_node5"><a xlink:href="_a_b_l_forcing_8cpp.html" target="_top" xlink:title=" ">
<polygon fill="white" stroke="black" points="826.5,-6 826.5,-25 917.5,-25 917.5,-6 826.5,-6"/>
<text text-anchor="middle" x="872" y="-13" font-family="Helvetica,sans-Serif" font-size="10.00">ABLForcing.cpp</text>
</a>
</g>
</g>
<!-- Node4&#45;&gt;Node5 -->
<g id="edge4" class="edge">
<title>Node4&#45;&gt;Node5</title>
<path fill="none" stroke="midnightblue" d="M654.06,-68.75C693.08,-60.11 759.9,-45.08 817,-31 824.57,-29.13 832.71,-27.04 840.34,-25.03"/>
<polygon fill="midnightblue" stroke="midnightblue" points="653.3,-65.33 644.29,-70.91 654.81,-72.17 653.3,-65.33"/>
</g>
<!-- Node6 -->
<g id="node6" class="node">
<title>Node6</title>
<g id="a_node6"><a xlink:href="_a_b_l_mean_boussinesq_8cpp.html" target="_top" xlink:title=" ">
<polygon fill="white" stroke="black" points="98,-6 98,-25 236,-25 236,-6 98,-6"/>
<text text-anchor="middle" x="167" y="-13" font-family="Helvetica,sans-Serif" font-size="10.00">ABLMeanBoussinesq.cpp</text>
</a>
</g>
</g>
<!-- Node4&#45;&gt;Node6 -->
<g id="edge5" class="edge">
<title>Node4&#45;&gt;Node6</title>
<path fill="none" stroke="midnightblue" d="M587.5,-67.24C435.55,-39.34 393.43,-52.55 245,-31 233.41,-29.32 220.92,-27.15 209.4,-25.01"/>
<polygon fill="midnightblue" stroke="midnightblue" points="587.2,-70.74 597.67,-69.14 588.48,-63.86 587.2,-70.74"/>
</g>
<!-- Node7 -->
<g id="node7" class="node">
<title>Node7</title>
<g id="a_node7"><a xlink:href="_hurricane_forcing_8cpp.html" target="_top" xlink:title=" ">
<polygon fill="white" stroke="black" points="254.5,-6 254.5,-25 373.5,-25 373.5,-6 254.5,-6"/>
<text text-anchor="middle" x="314" y="-13" font-family="Helvetica,sans-Serif" font-size="10.00">HurricaneForcing.cpp</text>
</a>
</g>
</g>
<!-- Node4&#45;&gt;Node7 -->
<g id="edge6" class="edge">
<title>Node4&#45;&gt;Node7</title>
<path fill="none" stroke="midnightblue" d="M588.3,-67.07C588.2,-67.05 588.1,-67.02 588,-67 497.29,-46.75 473.24,-48.69 382,-31 372.52,-29.16 362.32,-27.06 352.79,-25.03"/>
<polygon fill="midnightblue" stroke="midnightblue" points="587.44,-70.46 597.99,-69.43 589.1,-63.66 587.44,-70.46"/>
</g>
<!-- Node8 -->
<g id="node8" class="node">
<title>Node8</title>
<g id="a_node8"><a xlink:href="helics_8cpp.html" target="_top" xlink:title=" ">
<polygon fill="white" stroke="black" points="391.5,-6 391.5,-25 456.5,-25 456.5,-6 391.5,-6"/>
<text text-anchor="middle" x="424" y="-13" font-family="Helvetica,sans-Serif" font-size="10.00">helics.cpp</text>
</a>
</g>
</g>
<!-- Node4&#45;&gt;Node8 -->
<g id="edge7" class="edge">
<title>Node4&#45;&gt;Node8</title>
<path fill="none" stroke="midnightblue" d="M588.24,-66.8C549.66,-55.91 487.91,-38.35 465,-31 459.25,-29.16 453.09,-27.05 447.34,-25.02"/>
<polygon fill="midnightblue" stroke="midnightblue" points="587.41,-70.2 597.99,-69.54 589.31,-63.46 587.41,-70.2"/>
</g>
<!-- Node9 -->
<g id="node9" class="node">
<title>Node9</title>
<g id="a_node9"><a xlink:href="incflo_8cpp.html" target="_top" xlink:title=" ">
<polygon fill="white" stroke="black" points="474.5,-6 474.5,-25 537.5,-25 537.5,-6 474.5,-6"/>
<text text-anchor="middle" x="506" y="-13" font-family="Helvetica,sans-Serif" font-size="10.00">incflo.cpp</text>
</a>
</g>
</g>
<!-- Node4&#45;&gt;Node9 -->
<g id="edge8" class="edge">
<title>Node4&#45;&gt;Node9</title>
<path fill="none" stroke="midnightblue" d="M595.62,-62.87C573.33,-51.33 541.56,-34.9 522.45,-25.01"/>
<polygon fill="midnightblue" stroke="midnightblue" points="594.03,-65.99 604.52,-67.48 597.25,-59.77 594.03,-65.99"/>
</g>
<!-- Node10 -->
<g id="node10" class="node">
<title>Node10</title>
<g id="a_node10"><a xlink:href="incflo__apply__nodal__projection_8cpp.html" target="_top" xlink:title=" ">
<polygon fill="white" stroke="black" points="555.5,-0.5 555.5,-30.5 662.5,-30.5 662.5,-0.5 555.5,-0.5"/>
<text text-anchor="start" x="563.5" y="-18.5" font-family="Helvetica,sans-Serif" font-size="10.00">incflo_apply_nodal</text>
<text text-anchor="middle" x="609" y="-7.5" font-family="Helvetica,sans-Serif" font-size="10.00">_projection.cpp</text>
</a>
</g>
</g>
<!-- Node4&#45;&gt;Node10 -->
<g id="edge9" class="edge">
<title>Node4&#45;&gt;Node10</title>
<path fill="none" stroke="midnightblue" d="M617.27,-57.53C615.52,-48.81 613.45,-38.59 611.83,-30.52"/>
<polygon fill="midnightblue" stroke="midnightblue" points="613.87,-58.36 619.28,-67.48 620.73,-56.98 613.87,-58.36"/>
</g>
<!-- Node11 -->
<g id="node11" class="node">
<title>Node11</title>
<g id="a_node11"><a xlink:href="init_8cpp.html" target="_top" xlink:title=" ">
<polygon fill="white" stroke="black" points="680.5,-6 680.5,-25 733.5,-25 733.5,-6 680.5,-6"/>
<text text-anchor="middle" x="707" y="-13" font-family="Helvetica,sans-Serif" font-size="10.00">init.cpp</text>
</a>
</g>
</g>
<!-- Node4&#45;&gt;Node11 -->
<g id="edge10" class="edge">
<title>Node4&#45;&gt;Node11</title>
<path fill="none" stroke="midnightblue" d="M641.8,-61.61C658.34,-50.17 680.92,-34.55 694.7,-25.01"/>
<polygon fill="midnightblue" stroke="midnightblue" points="639.55,-58.91 633.32,-67.48 643.54,-64.66 639.55,-58.91"/>
</g>
<!-- Node12 -->
<g id="node12" class="node">
<title>Node12</title>
<g id="a_node12"><a xlink:href="_a_b_l_8cpp.html" target="_top" xlink:title=" ">
<polygon fill="white" stroke="black" points="752,-6 752,-25 808,-25 808,-6 752,-6"/>
<text text-anchor="middle" x="780" y="-13" font-family="Helvetica,sans-Serif" font-size="10.00">ABL.cpp</text>
</a>
</g>
</g>
<!-- Node4&#45;&gt;Node12 -->
<g id="edge11" class="edge">
<title>Node4&#45;&gt;Node12</title>
<path fill="none" stroke="midnightblue" d="M654.01,-64.03C678.59,-55.06 712.96,-42.43 743,-31 748.03,-29.09 753.43,-26.99 758.51,-25.01"/>
<polygon fill="midnightblue" stroke="midnightblue" points="652.64,-60.8 644.44,-67.51 655.03,-67.38 652.64,-60.8"/>
</g>
<!-- Node4&#45;&gt;Node13 -->
<g id="edge12" class="edge">
<title>Node4&#45;&gt;Node13</title>
<path fill="none" stroke="midnightblue" d="M654.22,-71.86C710.53,-64.67 828.23,-48.93 927,-31 936.6,-29.26 946.93,-27.14 956.53,-25.07"/>
<polygon fill="midnightblue" stroke="midnightblue" points="653.6,-68.41 644.12,-73.14 654.48,-75.35 653.6,-68.41"/>
</g>
<!-- Node15 -->
<g id="node15" class="node">
<title>Node15</title>
<g id="a_node15"><a xlink:href="_a_b_l_stats_8cpp.html" target="_top" xlink:title=" ">
<polygon fill="white" stroke="black" points="0,-6 0,-25 80,-25 80,-6 0,-6"/>
<text text-anchor="middle" x="40" y="-13" font-family="Helvetica,sans-Serif" font-size="10.00">ABLStats.cpp</text>
</a>
</g>
</g>
<!-- Node14&#45;&gt;Node15 -->
<g id="edge14" class="edge">
<title>Node14&#45;&gt;Node15</title>
<path fill="none" stroke="midnightblue" d="M498.22,-74.33C415.73,-70.7 236.92,-59.93 89,-31 81.25,-29.48 72.97,-27.27 65.46,-25.03"/>
<polygon fill="midnightblue" stroke="midnightblue" points="498.13,-77.83 508.27,-74.76 498.43,-70.84 498.13,-77.83"/>
</g>
<!-- Node16&#45;&gt;Node4 -->
<g id="edge16" class="edge">
<title>Node16&#45;&gt;Node4</title>
<path fill="none" stroke="midnightblue" d="M620.36,-112.8C620.52,-103.91 620.71,-93.78 620.84,-86.75"/>
<polygon fill="midnightblue" stroke="midnightblue" points="616.85,-113.02 620.17,-123.08 623.85,-113.15 616.85,-113.02"/>
</g>
<!-- Node16&#45;&gt;Node14 -->
<g id="edge17" class="edge">
<title>Node16&#45;&gt;Node14</title>
<path fill="none" stroke="midnightblue" d="M599.42,-117.38C585.69,-107.62 568.07,-95.11 556.43,-86.83"/>
<polygon fill="midnightblue" stroke="midnightblue" points="597.61,-120.38 607.79,-123.32 601.66,-114.68 597.61,-120.38"/>
</g>
<!-- Node18&#45;&gt;Node13 -->
<g id="edge23" class="edge">
<title>Node18&#45;&gt;Node13</title>
<path fill="none" stroke="midnightblue" d="M983.34,-168.85C985.94,-131.73 991.56,-51.33 993.4,-25.02"/>
<polygon fill="midnightblue" stroke="midnightblue" points="979.82,-169.04 982.61,-179.26 986.8,-169.53 979.82,-169.04"/>
</g>
<!-- Node19 -->
<g id="node19" class="node">
<title>Node19</title>
<g id="a_node19"><a xlink:href="_shear_stress_simple_8_h.html" target="_top" xlink:title=" ">
<polygon fill="white" stroke="black" points="1010.5,-123.5 1010.5,-142.5 1129.5,-142.5 1129.5,-123.5 1010.5,-123.5"/>
<text text-anchor="middle" x="1070" y="-130.5" font-family="Helvetica,sans-Serif" font-size="10.00">ShearStressSimple.H</text>
</a>
</g>
</g>
<!-- Node18&#45;&gt;Node19 -->
<g id="edge21" class="edge">
<title>Node18&#45;&gt;Node19</title>
<path fill="none" stroke="midnightblue" d="M1004.98,-173.9C1021.11,-164 1042.18,-151.07 1055.9,-142.65"/>
<polygon fill="midnightblue" stroke="midnightblue" points="1002.83,-171.11 996.14,-179.32 1006.49,-177.08 1002.83,-171.11"/>
</g>
<!-- Node20 -->
<g id="node20" class="node">
<title>Node20</title>
<g id="a_node20"><a xlink:href="_wall_function_8cpp.html" target="_top" xlink:title=" ">
<polygon fill="white" stroke="black" points="1020.5,-67.5 1020.5,-86.5 1119.5,-86.5 1119.5,-67.5 1020.5,-67.5"/>
<text text-anchor="middle" x="1070" y="-74.5" font-family="Helvetica,sans-Serif" font-size="10.00">WallFunction.cpp</text>
</a>
</g>
</g>
<!-- Node19&#45;&gt;Node20 -->
<g id="edge22" class="edge">
<title>Node19&#45;&gt;Node20</title>
<path fill="none" stroke="midnightblue" d="M1070,-112.8C1070,-103.91 1070,-93.78 1070,-86.75"/>
<polygon fill="midnightblue" stroke="midnightblue" points="1066.5,-113.08 1070,-123.08 1073.5,-113.08 1066.5,-113.08"/>
</g>
</g>
</svg>
