<?xml version="1.0" encoding="UTF-8" standalone="no"?>
<!DOCTYPE svg PUBLIC "-//W3C//DTD SVG 1.1//EN"
 "http://www.w3.org/Graphics/SVG/1.1/DTD/svg11.dtd">
<!-- Generated by graphviz version 2.43.0 (0)
 -->
<!-- Title: MeshMap.H Pages: 1 -->
<svg width="4604pt" height="252pt"
 viewBox="0.00 0.00 4603.50 252.00" xmlns="http://www.w3.org/2000/svg" xmlns:xlink="http://www.w3.org/1999/xlink">
<g id="graph0" class="graph" transform="scale(1 1) rotate(0) translate(4 248)">
<title>MeshMap.H</title>
<polygon fill="white" stroke="transparent" points="-4,4 -4,-248 4599.5,-248 4599.5,4 -4,4"/>
<!-- Node1 -->
<g id="node1" class="node">
<title>Node1</title>
<g id="a_node1"><a xlink:title=" ">
<polygon fill="#bfbfbf" stroke="black" points="2529,-224.5 2529,-243.5 2603,-243.5 2603,-224.5 2529,-224.5"/>
<text text-anchor="middle" x="2566" y="-231.5" font-family="Helvetica,sans-Serif" font-size="10.00">MeshMap.H</text>
</a>
</g>
</g>
<!-- Node2 -->
<g id="node2" class="node">
<title>Node2</title>
<g id="a_node2"><a xlink:href="_c_f_d_sim_8_h.html" target="_top" xlink:title=" ">
<polygon fill="white" stroke="red" points="2480,-168.5 2480,-187.5 2546,-187.5 2546,-168.5 2480,-168.5"/>
<text text-anchor="middle" x="2513" y="-175.5" font-family="Helvetica,sans-Serif" font-size="10.00">CFDSim.H</text>
</a>
</g>
</g>
<!-- Node1&#45;&gt;Node2 -->
<g id="edge1" class="edge">
<title>Node1&#45;&gt;Node2</title>
<path fill="none" stroke="midnightblue" d="M2550.02,-216.72C2540.68,-207.2 2529.25,-195.56 2521.59,-187.75"/>
<polygon fill="midnightblue" stroke="midnightblue" points="2547.75,-219.4 2557.25,-224.08 2552.74,-214.49 2547.75,-219.4"/>
</g>
<!-- Node8 -->
<g id="node7" class="node">
<title>Node8</title>
<g id="a_node7"><a xlink:href="_mesh_map_8cpp.html" target="_top" xlink:title=" ">
<polygon fill="white" stroke="black" points="0,-112.5 0,-131.5 84,-131.5 84,-112.5 0,-112.5"/>
<text text-anchor="middle" x="42" y="-119.5" font-family="Helvetica,sans-Serif" font-size="10.00">MeshMap.cpp</text>
</a>
</g>
</g>
<!-- Node1&#45;&gt;Node8 -->
<g id="edge58" class="edge">
<title>Node1&#45;&gt;Node8</title>
<path fill="none" stroke="midnightblue" d="M2518.85,-232.29C2270.26,-228.31 1086.77,-206.11 122,-132 109.74,-131.06 96.45,-129.7 84.3,-128.32"/>
<polygon fill="midnightblue" stroke="midnightblue" points="2518.92,-235.79 2528.98,-232.45 2519.03,-228.8 2518.92,-235.79"/>
</g>
<!-- Node227 -->
<g id="node49" class="node">
<title>Node227</title>
<g id="a_node49"><a xlink:href="_channel_flow_map_8_h.html" target="_top" xlink:title=" ">
<polygon fill="white" stroke="red" points="2564.5,-168.5 2564.5,-187.5 2675.5,-187.5 2675.5,-168.5 2564.5,-168.5"/>
<text text-anchor="middle" x="2620" y="-175.5" font-family="Helvetica,sans-Serif" font-size="10.00">ChannelFlowMap.H</text>
</a>
</g>
</g>
<!-- Node1&#45;&gt;Node227 -->
<g id="edge59" class="edge">
<title>Node1&#45;&gt;Node227</title>
<path fill="none" stroke="midnightblue" d="M2582,-217C2591.57,-207.43 2603.36,-195.64 2611.25,-187.75"/>
<polygon fill="midnightblue" stroke="midnightblue" points="2579.51,-214.54 2574.92,-224.08 2584.46,-219.49 2579.51,-214.54"/>
</g>
<!-- Node229 -->
<g id="node50" class="node">
<title>Node229</title>
<g id="a_node50"><a xlink:href="_constant_map_8_h.html" target="_top" xlink:title=" ">
<polygon fill="white" stroke="red" points="2694,-168.5 2694,-187.5 2786,-187.5 2786,-168.5 2694,-168.5"/>
<text text-anchor="middle" x="2740" y="-175.5" font-family="Helvetica,sans-Serif" font-size="10.00">ConstantMap.H</text>
</a>
</g>
</g>
<!-- Node1&#45;&gt;Node229 -->
<g id="edge60" class="edge">
<title>Node1&#45;&gt;Node229</title>
<path fill="none" stroke="midnightblue" d="M2603.26,-221.44C2636.07,-211.26 2683.08,-196.66 2712.56,-187.52"/>
<polygon fill="midnightblue" stroke="midnightblue" points="2602.08,-218.14 2593.57,-224.44 2604.16,-224.82 2602.08,-218.14"/>
</g>
<!-- Node3 -->
<g id="node3" class="node">
<title>Node3</title>
<g id="a_node3"><a xlink:href="_wall_function_8_h.html" target="_top" xlink:title=" ">
<polygon fill="white" stroke="red" points="140.5,-112.5 140.5,-131.5 229.5,-131.5 229.5,-112.5 140.5,-112.5"/>
<text text-anchor="middle" x="185" y="-119.5" font-family="Helvetica,sans-Serif" font-size="10.00">WallFunction.H</text>
</a>
</g>
</g>
<!-- Node2&#45;&gt;Node3 -->
<g id="edge2" class="edge">
<title>Node2&#45;&gt;Node3</title>
<path fill="none" stroke="midnightblue" d="M2469.61,-176.52C2174.64,-173.22 468.75,-153.31 239,-132 235.97,-131.72 232.86,-131.37 229.72,-130.97"/>
<polygon fill="midnightblue" stroke="midnightblue" points="2469.85,-180.02 2479.89,-176.64 2469.93,-173.02 2469.85,-180.02"/>
</g>
<!-- Node5 -->
<g id="node4" class="node">
<title>Node5</title>
<g id="a_node4"><a xlink:href="_channel_flow_8_h.html" target="_top" xlink:title=" ">
<polygon fill="white" stroke="black" points="140.5,-56.5 140.5,-75.5 229.5,-75.5 229.5,-56.5 140.5,-56.5"/>
<text text-anchor="middle" x="185" y="-63.5" font-family="Helvetica,sans-Serif" font-size="10.00">ChannelFlow.H</text>
</a>
</g>
</g>
<!-- Node2&#45;&gt;Node5 -->
<g id="edge41" class="edge">
<title>Node2&#45;&gt;Node5</title>
<path fill="none" stroke="midnightblue" d="M2469.33,-176.59C2147.27,-173.53 152.3,-153.71 131,-132 112.4,-113.05 147.1,-88.4 169.02,-75.59"/>
<polygon fill="midnightblue" stroke="midnightblue" points="2469.61,-180.09 2479.65,-176.69 2469.68,-173.09 2469.61,-180.09"/>
</g>
<!-- Node6 -->
<g id="node5" class="node">
<title>Node6</title>
<g id="a_node5"><a xlink:href="_channel_flow_8cpp.html" target="_top" xlink:title=" ">
<polygon fill="white" stroke="black" points="1787.5,-0.5 1787.5,-19.5 1886.5,-19.5 1886.5,-0.5 1787.5,-0.5"/>
<text text-anchor="middle" x="1837" y="-7.5" font-family="Helvetica,sans-Serif" font-size="10.00">ChannelFlow.cpp</text>
</a>
</g>
</g>
<!-- Node2&#45;&gt;Node6 -->
<g id="edge40" class="edge">
<title>Node2&#45;&gt;Node6</title>
<path fill="none" stroke="midnightblue" d="M2556.52,-168.48C2666.36,-162.11 3415,-165.55 3449,-132 3473.06,-108.26 3475.57,-80.23 3452,-56 3424.03,-27.24 2155.18,-13.94 1886.61,-11.44"/>
<polygon fill="midnightblue" stroke="midnightblue" points="2556.06,-165.01 2546.38,-169.31 2556.63,-171.98 2556.06,-165.01"/>
</g>
<!-- Node7 -->
<g id="node6" class="node">
<title>Node7</title>
<g id="a_node6"><a xlink:href="_c_f_d_sim_8cpp.html" target="_top" xlink:title=" ">
<polygon fill="white" stroke="black" points="248,-112.5 248,-131.5 324,-131.5 324,-112.5 248,-112.5"/>
<text text-anchor="middle" x="286" y="-119.5" font-family="Helvetica,sans-Serif" font-size="10.00">CFDSim.cpp</text>
</a>
</g>
</g>
<!-- Node2&#45;&gt;Node7 -->
<g id="edge5" class="edge">
<title>Node2&#45;&gt;Node7</title>
<path fill="none" stroke="midnightblue" d="M2469.58,-176.54C2181.67,-173.46 552.52,-155.12 333,-132 330.11,-131.7 327.13,-131.31 324.14,-130.86"/>
<polygon fill="midnightblue" stroke="midnightblue" points="2469.6,-180.04 2479.64,-176.65 2469.68,-173.05 2469.6,-180.04"/>
</g>
<!-- Node2&#45;&gt;Node8 -->
<g id="edge6" class="edge">
<title>Node2&#45;&gt;Node8</title>
<path fill="none" stroke="midnightblue" d="M2469.34,-176.56C2163.13,-173.4 342.71,-153.83 98,-132 93.49,-131.6 88.79,-131.05 84.12,-130.42"/>
<polygon fill="midnightblue" stroke="midnightblue" points="2469.55,-180.06 2479.59,-176.66 2469.63,-173.06 2469.55,-180.06"/>
</g>
<!-- Node9 -->
<g id="node8" class="node">
<title>Node9</title>
<g id="a_node8"><a xlink:href="_a_b_l_forcing_8cpp.html" target="_top" xlink:title=" ">
<polygon fill="white" stroke="black" points="342.5,-112.5 342.5,-131.5 433.5,-131.5 433.5,-112.5 342.5,-112.5"/>
<text text-anchor="middle" x="388" y="-119.5" font-family="Helvetica,sans-Serif" font-size="10.00">ABLForcing.cpp</text>
</a>
</g>
</g>
<!-- Node2&#45;&gt;Node9 -->
<g id="edge7" class="edge">
<title>Node2&#45;&gt;Node9</title>
<path fill="none" stroke="midnightblue" d="M2469.62,-176.89C2209.75,-176.09 856.51,-170.14 443,-132 439.92,-131.72 436.75,-131.36 433.56,-130.96"/>
<polygon fill="midnightblue" stroke="midnightblue" points="2469.78,-180.39 2479.79,-176.92 2469.8,-173.39 2469.78,-180.39"/>
</g>
<!-- Node10 -->
<g id="node9" class="node">
<title>Node10</title>
<g id="a_node9"><a xlink:href="_a_b_l_mean_boussinesq_8cpp.html" target="_top" xlink:title=" ">
<polygon fill="white" stroke="black" points="452,-112.5 452,-131.5 590,-131.5 590,-112.5 452,-112.5"/>
<text text-anchor="middle" x="521" y="-119.5" font-family="Helvetica,sans-Serif" font-size="10.00">ABLMeanBoussinesq.cpp</text>
</a>
</g>
</g>
<!-- Node2&#45;&gt;Node10 -->
<g id="edge8" class="edge">
<title>Node2&#45;&gt;Node10</title>
<path fill="none" stroke="midnightblue" d="M2469.81,-176.52C2222.18,-173.7 980.44,-158.43 599,-132 596.14,-131.8 593.23,-131.58 590.29,-131.33"/>
<polygon fill="midnightblue" stroke="midnightblue" points="2469.82,-180.02 2479.86,-176.64 2469.9,-173.02 2469.82,-180.02"/>
</g>
<!-- Node11 -->
<g id="node10" class="node">
<title>Node11</title>
<g id="a_node10"><a xlink:href="_actuator_forcing_8cpp.html" target="_top" xlink:title=" ">
<polygon fill="white" stroke="black" points="608.5,-112.5 608.5,-131.5 721.5,-131.5 721.5,-112.5 608.5,-112.5"/>
<text text-anchor="middle" x="665" y="-119.5" font-family="Helvetica,sans-Serif" font-size="10.00">ActuatorForcing.cpp</text>
</a>
</g>
</g>
<!-- Node2&#45;&gt;Node11 -->
<g id="edge9" class="edge">
<title>Node2&#45;&gt;Node11</title>
<path fill="none" stroke="midnightblue" d="M2469.44,-176.55C2231.24,-174.01 1084.17,-160.45 731,-132 728,-131.76 724.93,-131.47 721.84,-131.16"/>
<polygon fill="midnightblue" stroke="midnightblue" points="2469.74,-180.06 2479.77,-176.66 2469.81,-173.06 2469.74,-180.06"/>
</g>
<!-- Node12 -->
<g id="node11" class="node">
<title>Node12</title>
<g id="a_node11"><a xlink:href="_body_force_8cpp.html" target="_top" xlink:title=" ">
<polygon fill="white" stroke="black" points="740,-112.5 740,-131.5 828,-131.5 828,-112.5 740,-112.5"/>
<text text-anchor="middle" x="784" y="-119.5" font-family="Helvetica,sans-Serif" font-size="10.00">BodyForce.cpp</text>
</a>
</g>
</g>
<!-- Node2&#45;&gt;Node12 -->
<g id="edge10" class="edge">
<title>Node2&#45;&gt;Node12</title>
<path fill="none" stroke="midnightblue" d="M2469.48,-176.67C2239.88,-174.77 1167.44,-164.33 837,-132 834.12,-131.72 831.16,-131.37 828.18,-130.98"/>
<polygon fill="midnightblue" stroke="midnightblue" points="2469.74,-180.17 2479.77,-176.75 2469.8,-173.17 2469.74,-180.17"/>
</g>
<!-- Node13 -->
<g id="node12" class="node">
<title>Node13</title>
<g id="a_node12"><a xlink:href="_boussinesq_buoyancy_8cpp.html" target="_top" xlink:title=" ">
<polygon fill="white" stroke="black" points="846.5,-112.5 846.5,-131.5 985.5,-131.5 985.5,-112.5 846.5,-112.5"/>
<text text-anchor="middle" x="916" y="-119.5" font-family="Helvetica,sans-Serif" font-size="10.00">BoussinesqBuoyancy.cpp</text>
</a>
</g>
</g>
<!-- Node2&#45;&gt;Node13 -->
<g id="edge11" class="edge">
<title>Node2&#45;&gt;Node13</title>
<path fill="none" stroke="midnightblue" d="M2469.82,-176.93C2289.75,-176.39 1580.95,-171.7 1000,-132 995.32,-131.68 990.49,-131.3 985.64,-130.88"/>
<polygon fill="midnightblue" stroke="midnightblue" points="2469.94,-180.43 2479.95,-176.96 2469.96,-173.43 2469.94,-180.43"/>
</g>
<!-- Node14 -->
<g id="node13" class="node">
<title>Node14</title>
<g id="a_node13"><a xlink:href="_burggraf_flow_forcing_8cpp.html" target="_top" xlink:title=" ">
<polygon fill="white" stroke="black" points="2648.5,-56.5 2648.5,-75.5 2785.5,-75.5 2785.5,-56.5 2648.5,-56.5"/>
<text text-anchor="middle" x="2717" y="-63.5" font-family="Helvetica,sans-Serif" font-size="10.00">BurggrafFlowForcing.cpp</text>
</a>
</g>
</g>
<!-- Node2&#45;&gt;Node14 -->
<g id="edge12" class="edge">
<title>Node2&#45;&gt;Node14</title>
<path fill="none" stroke="midnightblue" d="M2469.76,-177.13C2394.81,-176.32 2245.62,-169.88 2213,-132 2207.2,-125.26 2207,-118.56 2213,-112 2241.81,-80.5 2517.43,-70.89 2648.45,-68.09"/>
<polygon fill="midnightblue" stroke="midnightblue" points="2469.8,-180.63 2479.82,-177.21 2469.85,-173.63 2469.8,-180.63"/>
</g>
<!-- Node15 -->
<g id="node14" class="node">
<title>Node15</title>
<g id="a_node14"><a xlink:href="_coriolis_forcing_8cpp.html" target="_top" xlink:title=" ">
<polygon fill="white" stroke="black" points="1042.5,-112.5 1042.5,-131.5 1151.5,-131.5 1151.5,-112.5 1042.5,-112.5"/>
<text text-anchor="middle" x="1097" y="-119.5" font-family="Helvetica,sans-Serif" font-size="10.00">CoriolisForcing.cpp</text>
</a>
</g>
</g>
<!-- Node2&#45;&gt;Node15 -->
<g id="edge13" class="edge">
<title>Node2&#45;&gt;Node15</title>
<path fill="none" stroke="midnightblue" d="M2469.77,-177.27C2301.47,-177.95 1674,-177.13 1160,-132 1157.25,-131.76 1154.43,-131.48 1151.59,-131.17"/>
<polygon fill="midnightblue" stroke="midnightblue" points="2469.97,-180.77 2479.96,-177.22 2469.94,-173.77 2469.97,-180.77"/>
</g>
<!-- Node16 -->
<g id="node15" class="node">
<title>Node16</title>
<g id="a_node15"><a xlink:href="_density_buoyancy_8cpp.html" target="_top" xlink:title=" ">
<polygon fill="white" stroke="black" points="1169.5,-112.5 1169.5,-131.5 1290.5,-131.5 1290.5,-112.5 1169.5,-112.5"/>
<text text-anchor="middle" x="1230" y="-119.5" font-family="Helvetica,sans-Serif" font-size="10.00">DensityBuoyancy.cpp</text>
</a>
</g>
</g>
<!-- Node2&#45;&gt;Node16 -->
<g id="edge14" class="edge">
<title>Node2&#45;&gt;Node16</title>
<path fill="none" stroke="midnightblue" d="M2469.38,-176.84C2311.57,-175.96 1755.62,-170.16 1299,-132 1296.23,-131.77 1293.4,-131.51 1290.55,-131.22"/>
<polygon fill="midnightblue" stroke="midnightblue" points="2469.6,-180.34 2479.62,-176.9 2469.64,-173.34 2469.6,-180.34"/>
</g>
<!-- Node17 -->
<g id="node16" class="node">
<title>Node17</title>
<g id="a_node16"><a xlink:href="_geostrophic_forcing_8cpp.html" target="_top" xlink:title=" ">
<polygon fill="white" stroke="black" points="1308.5,-112.5 1308.5,-131.5 1439.5,-131.5 1439.5,-112.5 1308.5,-112.5"/>
<text text-anchor="middle" x="1374" y="-119.5" font-family="Helvetica,sans-Serif" font-size="10.00">GeostrophicForcing.cpp</text>
</a>
</g>
</g>
<!-- Node2&#45;&gt;Node17 -->
<g id="edge15" class="edge">
<title>Node2&#45;&gt;Node17</title>
<path fill="none" stroke="midnightblue" d="M2469.61,-176.37C2324.73,-173.99 1844.53,-164.05 1449,-132 1445.99,-131.76 1442.92,-131.48 1439.82,-131.19"/>
<polygon fill="midnightblue" stroke="midnightblue" points="2469.79,-179.87 2479.85,-176.53 2469.9,-172.87 2469.79,-179.87"/>
</g>
<!-- Node18 -->
<g id="node17" class="node">
<title>Node18</title>
<g id="a_node17"><a xlink:href="_gravity_forcing_8cpp.html" target="_top" xlink:title=" ">
<polygon fill="white" stroke="black" points="1458,-112.5 1458,-131.5 1566,-131.5 1566,-112.5 1458,-112.5"/>
<text text-anchor="middle" x="1512" y="-119.5" font-family="Helvetica,sans-Serif" font-size="10.00">GravityForcing.cpp</text>
</a>
</g>
</g>
<!-- Node2&#45;&gt;Node18 -->
<g id="edge16" class="edge">
<title>Node2&#45;&gt;Node18</title>
<path fill="none" stroke="midnightblue" d="M2469.45,-176.36C2335.62,-174.1 1918.7,-164.72 1575,-132 1572.14,-131.73 1569.21,-131.42 1566.26,-131.08"/>
<polygon fill="midnightblue" stroke="midnightblue" points="2469.63,-179.87 2479.69,-176.53 2469.75,-172.87 2469.63,-179.87"/>
</g>
<!-- Node19 -->
<g id="node18" class="node">
<title>Node19</title>
<g id="a_node18"><a xlink:href="_hurricane_forcing_8cpp.html" target="_top" xlink:title=" ">
<polygon fill="white" stroke="black" points="1584.5,-112.5 1584.5,-131.5 1703.5,-131.5 1703.5,-112.5 1584.5,-112.5"/>
<text text-anchor="middle" x="1644" y="-119.5" font-family="Helvetica,sans-Serif" font-size="10.00">HurricaneForcing.cpp</text>
</a>
</g>
</g>
<!-- Node2&#45;&gt;Node19 -->
<g id="edge17" class="edge">
<title>Node2&#45;&gt;Node19</title>
<path fill="none" stroke="midnightblue" d="M2469.51,-175.68C2349.07,-171.77 2001.06,-158.85 1713,-132 1709.99,-131.72 1706.92,-131.41 1703.81,-131.07"/>
<polygon fill="midnightblue" stroke="midnightblue" points="2469.68,-179.19 2479.79,-176.01 2469.9,-172.19 2469.68,-179.19"/>
</g>
<!-- Node20 -->
<g id="node19" class="node">
<title>Node20</title>
<g id="a_node19"><a xlink:href="_rayleigh_damping_8cpp.html" target="_top" xlink:title=" ">
<polygon fill="white" stroke="black" points="1722,-112.5 1722,-131.5 1846,-131.5 1846,-112.5 1722,-112.5"/>
<text text-anchor="middle" x="1784" y="-119.5" font-family="Helvetica,sans-Serif" font-size="10.00">RayleighDamping.cpp</text>
</a>
</g>
</g>
<!-- Node2&#45;&gt;Node20 -->
<g id="edge18" class="edge">
<title>Node2&#45;&gt;Node20</title>
<path fill="none" stroke="midnightblue" d="M2469.48,-174.9C2363.95,-169.6 2086.1,-154.53 1855,-132 1852.16,-131.72 1849.25,-131.42 1846.32,-131.11"/>
<polygon fill="midnightblue" stroke="midnightblue" points="2469.57,-178.4 2479.74,-175.41 2469.92,-171.41 2469.57,-178.4"/>
</g>
<!-- Node21 -->
<g id="node20" class="node">
<title>Node21</title>
<g id="a_node20"><a xlink:href="_synth_turb_forcing_8cpp.html" target="_top" xlink:title=" ">
<polygon fill="white" stroke="black" points="1864,-112.5 1864,-131.5 1984,-131.5 1984,-112.5 1864,-112.5"/>
<text text-anchor="middle" x="1924" y="-119.5" font-family="Helvetica,sans-Serif" font-size="10.00">SynthTurbForcing.cpp</text>
</a>
</g>
</g>
<!-- Node2&#45;&gt;Node21 -->
<g id="edge19" class="edge">
<title>Node2&#45;&gt;Node21</title>
<path fill="none" stroke="midnightblue" d="M2469.78,-173.9C2380.56,-167.35 2169.56,-151.15 1993,-132 1990.12,-131.69 1987.17,-131.35 1984.19,-131.01"/>
<polygon fill="midnightblue" stroke="midnightblue" points="2469.57,-177.39 2479.8,-174.63 2470.08,-170.41 2469.57,-177.39"/>
</g>
<!-- Node22 -->
<g id="node21" class="node">
<title>Node22</title>
<g id="a_node21"><a xlink:href="_p_d_e_8_h.html" target="_top" xlink:title=" ">
<polygon fill="white" stroke="red" points="1500.5,-56.5 1500.5,-75.5 1547.5,-75.5 1547.5,-56.5 1500.5,-56.5"/>
<text text-anchor="middle" x="1524" y="-63.5" font-family="Helvetica,sans-Serif" font-size="10.00">PDE.H</text>
</a>
</g>
</g>
<!-- Node2&#45;&gt;Node22 -->
<g id="edge20" class="edge">
<title>Node2&#45;&gt;Node22</title>
<path fill="none" stroke="midnightblue" d="M2469.81,-176.51C2228.65,-173.66 1058.68,-158.48 1033,-132 965.8,-62.72 1394.06,-64.96 1500.47,-66.56"/>
<polygon fill="midnightblue" stroke="midnightblue" points="2469.9,-180.01 2479.94,-176.63 2469.98,-173.01 2469.9,-180.01"/>
</g>
<!-- Node56 -->
<g id="node22" class="node">
<title>Node56</title>
<g id="a_node22"><a xlink:href="_p_d_e_base_8cpp.html" target="_top" xlink:title=" ">
<polygon fill="white" stroke="black" points="2086,-112.5 2086,-131.5 2166,-131.5 2166,-112.5 2086,-112.5"/>
<text text-anchor="middle" x="2126" y="-119.5" font-family="Helvetica,sans-Serif" font-size="10.00">PDEBase.cpp</text>
</a>
</g>
</g>
<!-- Node2&#45;&gt;Node56 -->
<g id="edge21" class="edge">
<title>Node2&#45;&gt;Node56</title>
<path fill="none" stroke="midnightblue" d="M2469.81,-171.6C2406.25,-163.54 2283.82,-147.66 2180,-132 2175.49,-131.32 2170.77,-130.58 2166.08,-129.82"/>
<polygon fill="midnightblue" stroke="midnightblue" points="2469.51,-175.08 2479.87,-172.87 2470.38,-168.14 2469.51,-175.08"/>
</g>
<!-- Node57 -->
<g id="node23" class="node">
<title>Node57</title>
<g id="a_node23"><a xlink:href="_p_d_e_ops_8_h.html" target="_top" xlink:title=" ">
<polygon fill="white" stroke="red" points="2002.5,-112.5 2002.5,-131.5 2067.5,-131.5 2067.5,-112.5 2002.5,-112.5"/>
<text text-anchor="middle" x="2035" y="-119.5" font-family="Helvetica,sans-Serif" font-size="10.00">PDEOps.H</text>
</a>
</g>
</g>
<!-- Node2&#45;&gt;Node57 -->
<g id="edge22" class="edge">
<title>Node2&#45;&gt;Node57</title>
<path fill="none" stroke="midnightblue" d="M2469.74,-174.09C2391.18,-168.47 2219.96,-154.63 2077,-132 2074.05,-131.53 2071,-130.99 2067.95,-130.41"/>
<polygon fill="midnightblue" stroke="midnightblue" points="2469.53,-177.59 2479.75,-174.8 2470.02,-170.61 2469.53,-177.59"/>
</g>
<!-- Node67 -->
<g id="node24" class="node">
<title>Node67</title>
<g id="a_node24"><a xlink:href="_s_d_r_src_8cpp.html" target="_top" xlink:title=" ">
<polygon fill="white" stroke="black" points="2222,-112.5 2222,-131.5 2294,-131.5 2294,-112.5 2222,-112.5"/>
<text text-anchor="middle" x="2258" y="-119.5" font-family="Helvetica,sans-Serif" font-size="10.00">SDRSrc.cpp</text>
</a>
</g>
</g>
<!-- Node2&#45;&gt;Node67 -->
<g id="edge24" class="edge">
<title>Node2&#45;&gt;Node67</title>
<path fill="none" stroke="midnightblue" d="M2469.88,-167.87C2420.54,-157.42 2340.6,-140.49 2294.31,-130.69"/>
<polygon fill="midnightblue" stroke="midnightblue" points="2469.42,-171.35 2479.92,-170 2470.87,-164.5 2469.42,-171.35"/>
</g>
<!-- Node68 -->
<g id="node25" class="node">
<title>Node68</title>
<g id="a_node25"><a xlink:href="_ksgs_m84_src_8cpp.html" target="_top" xlink:title=" ">
<polygon fill="white" stroke="black" points="2312,-112.5 2312,-131.5 2408,-131.5 2408,-112.5 2312,-112.5"/>
<text text-anchor="middle" x="2360" y="-119.5" font-family="Helvetica,sans-Serif" font-size="10.00">KsgsM84Src.cpp</text>
</a>
</g>
</g>
<!-- Node2&#45;&gt;Node68 -->
<g id="edge25" class="edge">
<title>Node2&#45;&gt;Node68</title>
<path fill="none" stroke="midnightblue" d="M2479.11,-165.04C2450.32,-154.88 2409.71,-140.55 2384.13,-131.52"/>
<polygon fill="midnightblue" stroke="midnightblue" points="2478.16,-168.42 2488.76,-168.44 2480.49,-161.81 2478.16,-168.42"/>
</g>
<!-- Node69 -->
<g id="node26" class="node">
<title>Node69</title>
<g id="a_node26"><a xlink:href="_kw_s_s_t_src_8cpp.html" target="_top" xlink:title=" ">
<polygon fill="white" stroke="black" points="2426.5,-112.5 2426.5,-131.5 2511.5,-131.5 2511.5,-112.5 2426.5,-112.5"/>
<text text-anchor="middle" x="2469" y="-119.5" font-family="Helvetica,sans-Serif" font-size="10.00">KwSSTSrc.cpp</text>
</a>
</g>
</g>
<!-- Node2&#45;&gt;Node69 -->
<g id="edge26" class="edge">
<title>Node2&#45;&gt;Node69</title>
<path fill="none" stroke="midnightblue" d="M2499.27,-160.14C2491.6,-150.74 2482.37,-139.4 2476.13,-131.75"/>
<polygon fill="midnightblue" stroke="midnightblue" points="2496.7,-162.54 2505.73,-168.08 2502.13,-158.12 2496.7,-162.54"/>
</g>
<!-- Node70 -->
<g id="node27" class="node">
<title>Node70</title>
<g id="a_node27"><a xlink:href="helics_8_h.html" target="_top" xlink:title=" ">
<polygon fill="white" stroke="red" points="2530,-112.5 2530,-131.5 2586,-131.5 2586,-112.5 2530,-112.5"/>
<text text-anchor="middle" x="2558" y="-119.5" font-family="Helvetica,sans-Serif" font-size="10.00">helics.H</text>
</a>
</g>
</g>
<!-- Node2&#45;&gt;Node70 -->
<g id="edge27" class="edge">
<title>Node2&#45;&gt;Node70</title>
<path fill="none" stroke="midnightblue" d="M2520.95,-159.86C2527.92,-150.5 2537.64,-139.33 2545.58,-131.75"/>
<polygon fill="midnightblue" stroke="midnightblue" points="2518.07,-157.87 2515.26,-168.08 2523.83,-161.85 2518.07,-157.87"/>
</g>
<!-- Node72 -->
<g id="node28" class="node">
<title>Node72</title>
<g id="a_node28"><a xlink:href="_i_b_8cpp.html" target="_top" xlink:title=" ">
<polygon fill="white" stroke="black" points="2604.5,-112.5 2604.5,-131.5 2651.5,-131.5 2651.5,-112.5 2604.5,-112.5"/>
<text text-anchor="middle" x="2628" y="-119.5" font-family="Helvetica,sans-Serif" font-size="10.00">IB.cpp</text>
</a>
</g>
</g>
<!-- Node2&#45;&gt;Node72 -->
<g id="edge29" class="edge">
<title>Node2&#45;&gt;Node72</title>
<path fill="none" stroke="midnightblue" d="M2540.48,-164.1C2561.97,-154.01 2591.22,-140.27 2609.86,-131.52"/>
<polygon fill="midnightblue" stroke="midnightblue" points="2538.79,-161.02 2531.22,-168.44 2541.76,-167.36 2538.79,-161.02"/>
</g>
<!-- Node73 -->
<g id="node29" class="node">
<title>Node73</title>
<g id="a_node29"><a xlink:href="_i_b_ops_8_h.html" target="_top" xlink:title=" ">
<polygon fill="white" stroke="red" points="2670,-112.5 2670,-131.5 2726,-131.5 2726,-112.5 2670,-112.5"/>
<text text-anchor="middle" x="2698" y="-119.5" font-family="Helvetica,sans-Serif" font-size="10.00">IBOps.H</text>
</a>
</g>
</g>
<!-- Node2&#45;&gt;Node73 -->
<g id="edge30" class="edge">
<title>Node2&#45;&gt;Node73</title>
<path fill="none" stroke="midnightblue" d="M2552.26,-165.54C2587.49,-155.26 2638.35,-140.41 2669.73,-131.25"/>
<polygon fill="midnightblue" stroke="midnightblue" points="2550.93,-162.28 2542.31,-168.44 2552.89,-169 2550.93,-162.28"/>
</g>
<!-- Node83 -->
<g id="node30" class="node">
<title>Node83</title>
<g id="a_node30"><a xlink:href="incflo_8_h.html" target="_top" xlink:title=" ">
<polygon fill="white" stroke="red" points="2744.5,-112.5 2744.5,-131.5 2797.5,-131.5 2797.5,-112.5 2744.5,-112.5"/>
<text text-anchor="middle" x="2771" y="-119.5" font-family="Helvetica,sans-Serif" font-size="10.00">incflo.H</text>
</a>
</g>
</g>
<!-- Node2&#45;&gt;Node83 -->
<g id="edge31" class="edge">
<title>Node2&#45;&gt;Node83</title>
<path fill="none" stroke="midnightblue" d="M2556.12,-167.8C2636.58,-151.31 2658.51,-149.2 2735,-132 2738.02,-131.32 2741.17,-130.58 2744.3,-129.83"/>
<polygon fill="midnightblue" stroke="midnightblue" points="2555.09,-164.44 2546.01,-169.88 2556.51,-171.29 2555.09,-164.44"/>
</g>
<!-- Node111 -->
<g id="node31" class="node">
<title>Node111</title>
<g id="a_node31"><a xlink:href="_ocean_waves_8cpp.html" target="_top" xlink:title=" ">
<polygon fill="white" stroke="black" points="2816,-112.5 2816,-131.5 2916,-131.5 2916,-112.5 2816,-112.5"/>
<text text-anchor="middle" x="2866" y="-119.5" font-family="Helvetica,sans-Serif" font-size="10.00">OceanWaves.cpp</text>
</a>
</g>
</g>
<!-- Node2&#45;&gt;Node111 -->
<g id="edge32" class="edge">
<title>Node2&#45;&gt;Node111</title>
<path fill="none" stroke="midnightblue" d="M2556.37,-167.85C2667.62,-148.18 2697.65,-147.9 2806,-132 2809.23,-131.53 2812.56,-131.03 2815.91,-130.54"/>
<polygon fill="midnightblue" stroke="midnightblue" points="2555.66,-164.42 2546.43,-169.62 2556.89,-171.31 2555.66,-164.42"/>
</g>
<!-- Node112 -->
<g id="node32" class="node">
<title>Node112</title>
<g id="a_node32"><a xlink:href="_ocean_waves_ops_8_h.html" target="_top" xlink:title=" ">
<polygon fill="white" stroke="red" points="2934.5,-112.5 2934.5,-131.5 3043.5,-131.5 3043.5,-112.5 2934.5,-112.5"/>
<text text-anchor="middle" x="2989" y="-119.5" font-family="Helvetica,sans-Serif" font-size="10.00">OceanWavesOps.H</text>
</a>
</g>
</g>
<!-- Node2&#45;&gt;Node112 -->
<g id="edge33" class="edge">
<title>Node2&#45;&gt;Node112</title>
<path fill="none" stroke="midnightblue" d="M2556.33,-167.95C2719.98,-142.98 2764.14,-151.13 2925,-132 2928.01,-131.64 2931.09,-131.26 2934.21,-130.86"/>
<polygon fill="midnightblue" stroke="midnightblue" points="2555.76,-164.5 2546.41,-169.48 2556.82,-171.42 2555.76,-164.5"/>
</g>
<!-- Node120 -->
<g id="node33" class="node">
<title>Node120</title>
<g id="a_node33"><a xlink:href="_tioga_interface_8cpp.html" target="_top" xlink:title=" ">
<polygon fill="white" stroke="black" points="3061.5,-112.5 3061.5,-131.5 3168.5,-131.5 3168.5,-112.5 3061.5,-112.5"/>
<text text-anchor="middle" x="3115" y="-119.5" font-family="Helvetica,sans-Serif" font-size="10.00">TiogaInterface.cpp</text>
</a>
</g>
</g>
<!-- Node2&#45;&gt;Node120 -->
<g id="edge34" class="edge">
<title>Node2&#45;&gt;Node120</title>
<path fill="none" stroke="midnightblue" d="M2556.3,-168C2775.97,-137.27 2835.03,-155.33 3052,-132 3055.08,-131.67 3058.23,-131.3 3061.42,-130.91"/>
<polygon fill="midnightblue" stroke="midnightblue" points="2555.81,-164.54 2546.4,-169.41 2556.79,-171.47 2555.81,-164.54"/>
</g>
<!-- Node121 -->
<g id="node34" class="node">
<title>Node121</title>
<g id="a_node34"><a xlink:href="_boussinesq_bubble_8cpp.html" target="_top" xlink:title=" ">
<polygon fill="white" stroke="black" points="3187,-112.5 3187,-131.5 3313,-131.5 3313,-112.5 3187,-112.5"/>
<text text-anchor="middle" x="3250" y="-119.5" font-family="Helvetica,sans-Serif" font-size="10.00">BoussinesqBubble.cpp</text>
</a>
</g>
</g>
<!-- Node2&#45;&gt;Node121 -->
<g id="edge35" class="edge">
<title>Node2&#45;&gt;Node121</title>
<path fill="none" stroke="midnightblue" d="M2556.66,-167.98C2831.19,-131.51 2904.59,-156.65 3177,-132 3180.18,-131.71 3183.43,-131.39 3186.72,-131.06"/>
<polygon fill="midnightblue" stroke="midnightblue" points="2555.83,-164.56 2546.39,-169.36 2556.77,-171.5 2555.83,-164.56"/>
</g>
<!-- Node122 -->
<g id="node35" class="node">
<title>Node122</title>
<g id="a_node35"><a xlink:href="_burggraf_flow_8cpp.html" target="_top" xlink:title=" ">
<polygon fill="white" stroke="black" points="3342.5,-56.5 3342.5,-75.5 3443.5,-75.5 3443.5,-56.5 3342.5,-56.5"/>
<text text-anchor="middle" x="3393" y="-63.5" font-family="Helvetica,sans-Serif" font-size="10.00">BurggrafFlow.cpp</text>
</a>
</g>
</g>
<!-- Node2&#45;&gt;Node122 -->
<g id="edge36" class="edge">
<title>Node2&#45;&gt;Node122</title>
<path fill="none" stroke="midnightblue" d="M2556.35,-168.49C2664.31,-162.22 3399.55,-165.81 3432,-132 3448.68,-114.63 3421.58,-88.88 3404.77,-75.6"/>
<polygon fill="midnightblue" stroke="midnightblue" points="2556.06,-165.01 2546.38,-169.31 2556.64,-171.98 2556.06,-165.01"/>
</g>
<!-- Node123 -->
<g id="node36" class="node">
<title>Node123</title>
<g id="a_node36"><a xlink:href="_burggraf_flow_8_h.html" target="_top" xlink:title=" ">
<polygon fill="white" stroke="black" points="3331,-112.5 3331,-131.5 3423,-131.5 3423,-112.5 3331,-112.5"/>
<text text-anchor="middle" x="3377" y="-119.5" font-family="Helvetica,sans-Serif" font-size="10.00">BurggrafFlow.H</text>
</a>
</g>
</g>
<!-- Node2&#45;&gt;Node123 -->
<g id="edge37" class="edge">
<title>Node2&#45;&gt;Node123</title>
<path fill="none" stroke="midnightblue" d="M2556.48,-168.03C2895.19,-124.94 2985.91,-167.27 3322,-132 3324.89,-131.7 3327.85,-131.34 3330.84,-130.95"/>
<polygon fill="midnightblue" stroke="midnightblue" points="2555.86,-164.58 2546.38,-169.33 2556.75,-171.52 2555.86,-164.58"/>
</g>
<!-- Node124 -->
<g id="node37" class="node">
<title>Node124</title>
<g id="a_node37"><a xlink:href="_convecting_taylor_vortex_8cpp.html" target="_top" xlink:title=" ">
<polygon fill="white" stroke="black" points="3534,-56.5 3534,-75.5 3686,-75.5 3686,-56.5 3534,-56.5"/>
<text text-anchor="middle" x="3610" y="-63.5" font-family="Helvetica,sans-Serif" font-size="10.00">ConvectingTaylorVortex.cpp</text>
</a>
</g>
</g>
<!-- Node2&#45;&gt;Node124 -->
<g id="edge42" class="edge">
<title>Node2&#45;&gt;Node124</title>
<path fill="none" stroke="midnightblue" d="M2556.49,-168.11C2780.36,-143.33 3304.16,-191.75 3503,-132 3523.19,-125.93 3574.23,-91.73 3597.76,-75.52"/>
<polygon fill="midnightblue" stroke="midnightblue" points="2555.9,-164.65 2546.38,-169.3 2556.72,-171.6 2555.9,-164.65"/>
</g>
<!-- Node125 -->
<g id="node38" class="node">
<title>Node125</title>
<g id="a_node38"><a xlink:href="_convecting_taylor_vortex_8_h.html" target="_top" xlink:title=" ">
<polygon fill="white" stroke="red" points="3555.5,-112.5 3555.5,-131.5 3698.5,-131.5 3698.5,-112.5 3555.5,-112.5"/>
<text text-anchor="middle" x="3627" y="-119.5" font-family="Helvetica,sans-Serif" font-size="10.00">ConvectingTaylorVortex.H</text>
</a>
</g>
</g>
<!-- Node2&#45;&gt;Node125 -->
<g id="edge43" class="edge">
<title>Node2&#45;&gt;Node125</title>
<path fill="none" stroke="midnightblue" d="M2556.4,-168.06C2991.89,-114.59 3106.88,-162.61 3541,-132 3545.64,-131.67 3550.42,-131.29 3555.24,-130.88"/>
<polygon fill="midnightblue" stroke="midnightblue" points="2555.87,-164.59 2546.38,-169.3 2556.74,-171.54 2555.87,-164.59"/>
</g>
<!-- Node126 -->
<g id="node39" class="node">
<title>Node126</title>
<g id="a_node39"><a xlink:href="_ekman_spiral_8cpp.html" target="_top" xlink:title=" ">
<polygon fill="white" stroke="black" points="3785,-56.5 3785,-75.5 3883,-75.5 3883,-56.5 3785,-56.5"/>
<text text-anchor="middle" x="3834" y="-63.5" font-family="Helvetica,sans-Serif" font-size="10.00">EkmanSpiral.cpp</text>
</a>
</g>
</g>
<!-- Node2&#45;&gt;Node126 -->
<g id="edge45" class="edge">
<title>Node2&#45;&gt;Node126</title>
<path fill="none" stroke="midnightblue" d="M2556.58,-168.1C2825.68,-138.52 3462.15,-195.19 3707,-132 3725.86,-127.13 3728.66,-120.88 3746,-112 3770.74,-99.33 3799.41,-84.67 3817.13,-75.62"/>
<polygon fill="midnightblue" stroke="midnightblue" points="2555.91,-164.65 2546.38,-169.28 2556.72,-171.6 2555.91,-164.65"/>
</g>
<!-- Node127 -->
<g id="node40" class="node">
<title>Node127</title>
<g id="a_node40"><a xlink:href="_ekman_spiral_8_h.html" target="_top" xlink:title=" ">
<polygon fill="white" stroke="black" points="3866.5,-112.5 3866.5,-131.5 3955.5,-131.5 3955.5,-112.5 3866.5,-112.5"/>
<text text-anchor="middle" x="3911" y="-119.5" font-family="Helvetica,sans-Serif" font-size="10.00">EkmanSpiral.H</text>
</a>
</g>
</g>
<!-- Node2&#45;&gt;Node127 -->
<g id="edge46" class="edge">
<title>Node2&#45;&gt;Node127</title>
<path fill="none" stroke="midnightblue" d="M2556.59,-168.05C3131.55,-100.1 3284.18,-187.39 3857,-132 3860.03,-131.71 3863.14,-131.35 3866.27,-130.94"/>
<polygon fill="midnightblue" stroke="midnightblue" points="2555.89,-164.61 2546.38,-169.27 2556.72,-171.56 2555.89,-164.61"/>
</g>
<!-- Node128 -->
<g id="node41" class="node">
<title>Node128</title>
<g id="a_node41"><a xlink:href="_free_stream_8cpp.html" target="_top" xlink:title=" ">
<polygon fill="white" stroke="black" points="3755.5,-112.5 3755.5,-131.5 3848.5,-131.5 3848.5,-112.5 3755.5,-112.5"/>
<text text-anchor="middle" x="3802" y="-119.5" font-family="Helvetica,sans-Serif" font-size="10.00">FreeStream.cpp</text>
</a>
</g>
</g>
<!-- Node2&#45;&gt;Node128 -->
<g id="edge48" class="edge">
<title>Node2&#45;&gt;Node128</title>
<path fill="none" stroke="midnightblue" d="M2556.46,-168.06C3080.27,-105.43 3219.04,-178.27 3741,-132 3745.69,-131.58 3750.57,-131.05 3755.44,-130.44"/>
<polygon fill="midnightblue" stroke="midnightblue" points="2555.89,-164.61 2546.38,-169.28 2556.73,-171.56 2555.89,-164.61"/>
</g>
<!-- Node93 -->
<g id="node42" class="node">
<title>Node93</title>
<g id="a_node42"><a xlink:href="_hybrid_r_a_n_s_l_e_s_a_b_l_8cpp.html" target="_top" xlink:title=" ">
<polygon fill="white" stroke="black" points="3949.5,-56.5 3949.5,-75.5 4082.5,-75.5 4082.5,-56.5 3949.5,-56.5"/>
<text text-anchor="middle" x="4016" y="-63.5" font-family="Helvetica,sans-Serif" font-size="10.00">HybridRANSLESABL.cpp</text>
</a>
</g>
</g>
<!-- Node2&#45;&gt;Node93 -->
<g id="edge49" class="edge">
<title>Node2&#45;&gt;Node93</title>
<path fill="none" stroke="midnightblue" d="M2556.49,-168.41C2703.23,-159.18 3895.85,-165.83 3964,-132 3988.34,-119.92 4004.97,-90.53 4012.09,-75.76"/>
<polygon fill="midnightblue" stroke="midnightblue" points="2556.05,-164.94 2546.38,-169.26 2556.63,-171.91 2556.05,-164.94"/>
</g>
<!-- Node129 -->
<g id="node43" class="node">
<title>Node129</title>
<g id="a_node43"><a xlink:href="_hybrid_r_a_n_s_l_e_s_a_b_l_8_h.html" target="_top" xlink:title=" ">
<polygon fill="white" stroke="black" points="4012.5,-112.5 4012.5,-131.5 4135.5,-131.5 4135.5,-112.5 4012.5,-112.5"/>
<text text-anchor="middle" x="4074" y="-119.5" font-family="Helvetica,sans-Serif" font-size="10.00">HybridRANSLESABL.H</text>
</a>
</g>
</g>
<!-- Node2&#45;&gt;Node129 -->
<g id="edge50" class="edge">
<title>Node2&#45;&gt;Node129</title>
<path fill="none" stroke="midnightblue" d="M2556.74,-168.04C3193.87,-93.38 3361.54,-177.53 3998,-132 4002.64,-131.67 4007.43,-131.26 4012.24,-130.8"/>
<polygon fill="midnightblue" stroke="midnightblue" points="2555.9,-164.61 2546.38,-169.26 2556.72,-171.57 2555.9,-164.61"/>
</g>
<!-- Node130 -->
<g id="node44" class="node">
<title>Node130</title>
<g id="a_node44"><a xlink:href="_m_m_s_8cpp.html" target="_top" xlink:title=" ">
<polygon fill="white" stroke="black" points="4336.5,-56.5 4336.5,-75.5 4397.5,-75.5 4397.5,-56.5 4336.5,-56.5"/>
<text text-anchor="middle" x="4367" y="-63.5" font-family="Helvetica,sans-Serif" font-size="10.00">MMS.cpp</text>
</a>
</g>
</g>
<!-- Node2&#45;&gt;Node130 -->
<g id="edge52" class="edge">
<title>Node2&#45;&gt;Node130</title>
<path fill="none" stroke="midnightblue" d="M2556.41,-168.21C2771.35,-148.32 3975.66,-174.67 4144,-132 4162.88,-127.21 4164.75,-118.8 4183,-112 4235.38,-92.47 4299.34,-79.03 4336.39,-72.21"/>
<polygon fill="midnightblue" stroke="midnightblue" points="2555.96,-164.74 2546.38,-169.25 2556.69,-171.7 2555.96,-164.74"/>
</g>
<!-- Node131 -->
<g id="node45" class="node">
<title>Node131</title>
<g id="a_node45"><a xlink:href="_m_m_s_8_h.html" target="_top" xlink:title=" ">
<polygon fill="white" stroke="black" points="4544.5,-112.5 4544.5,-131.5 4595.5,-131.5 4595.5,-112.5 4544.5,-112.5"/>
<text text-anchor="middle" x="4570" y="-119.5" font-family="Helvetica,sans-Serif" font-size="10.00">MMS.H</text>
</a>
</g>
</g>
<!-- Node2&#45;&gt;Node131 -->
<g id="edge53" class="edge">
<title>Node2&#45;&gt;Node131</title>
<path fill="none" stroke="midnightblue" d="M2556.61,-168.09C3009.13,-118.77 4103.22,-192.31 4536,-132 4538.66,-131.63 4541.41,-131.12 4544.14,-130.53"/>
<polygon fill="midnightblue" stroke="midnightblue" points="2555.92,-164.65 2546.37,-169.24 2556.7,-171.6 2555.92,-164.65"/>
</g>
<!-- Node132 -->
<g id="node46" class="node">
<title>Node132</title>
<g id="a_node46"><a xlink:href="_m_m_s_forcing_8cpp.html" target="_top" xlink:title=" ">
<polygon fill="white" stroke="black" points="4192,-112.5 4192,-131.5 4288,-131.5 4288,-112.5 4192,-112.5"/>
<text text-anchor="middle" x="4240" y="-119.5" font-family="Helvetica,sans-Serif" font-size="10.00">MMSForcing.cpp</text>
</a>
</g>
</g>
<!-- Node2&#45;&gt;Node132 -->
<g id="edge55" class="edge">
<title>Node2&#45;&gt;Node132</title>
<path fill="none" stroke="midnightblue" d="M2556.43,-168.08C3273.36,-85.03 3462.32,-191.66 4178,-132 4182.44,-131.63 4187.05,-131.15 4191.67,-130.6"/>
<polygon fill="midnightblue" stroke="midnightblue" points="2555.9,-164.62 2546.38,-169.25 2556.71,-171.57 2555.9,-164.62"/>
</g>
<!-- Node133 -->
<g id="node47" class="node">
<title>Node133</title>
<g id="a_node47"><a xlink:href="_breaking_waves_8cpp.html" target="_top" xlink:title=" ">
<polygon fill="white" stroke="black" points="4306.5,-112.5 4306.5,-131.5 4419.5,-131.5 4419.5,-112.5 4306.5,-112.5"/>
<text text-anchor="middle" x="4363" y="-119.5" font-family="Helvetica,sans-Serif" font-size="10.00">BreakingWaves.cpp</text>
</a>
</g>
</g>
<!-- Node2&#45;&gt;Node133 -->
<g id="edge56" class="edge">
<title>Node2&#45;&gt;Node133</title>
<path fill="none" stroke="midnightblue" d="M2556.31,-168.1C3325.92,-79.44 3528.27,-192.16 4297,-132 4300,-131.77 4303.07,-131.49 4306.16,-131.17"/>
<polygon fill="midnightblue" stroke="midnightblue" points="2555.91,-164.62 2546.38,-169.25 2556.71,-171.57 2555.91,-164.62"/>
</g>
<!-- Node134 -->
<g id="node48" class="node">
<title>Node134</title>
<g id="a_node48"><a xlink:href="_dam_break_8cpp.html" target="_top" xlink:title=" ">
<polygon fill="white" stroke="black" points="4437.5,-112.5 4437.5,-131.5 4526.5,-131.5 4526.5,-112.5 4437.5,-112.5"/>
<text text-anchor="middle" x="4482" y="-119.5" font-family="Helvetica,sans-Serif" font-size="10.00">DamBreak.cpp</text>
</a>
</g>
</g>
<!-- Node2&#45;&gt;Node134 -->
<g id="edge57" class="edge">
<title>Node2&#45;&gt;Node134</title>
<path fill="none" stroke="midnightblue" d="M2556.45,-168.08C3384.28,-73.39 3602.95,-209.63 4429,-132 4431.69,-131.75 4434.46,-131.44 4437.24,-131.08"/>
<polygon fill="midnightblue" stroke="midnightblue" points="2555.91,-164.62 2546.37,-169.24 2556.71,-171.58 2555.91,-164.62"/>
</g>
<!-- Node3&#45;&gt;Node5 -->
<g id="edge3" class="edge">
<title>Node3&#45;&gt;Node5</title>
<path fill="none" stroke="midnightblue" d="M185,-101.8C185,-92.91 185,-82.78 185,-75.75"/>
<polygon fill="midnightblue" stroke="midnightblue" points="181.5,-102.08 185,-112.08 188.5,-102.08 181.5,-102.08"/>
</g>
<!-- Node5&#45;&gt;Node6 -->
<g id="edge4" class="edge">
<title>Node5&#45;&gt;Node6</title>
<path fill="none" stroke="midnightblue" d="M239.66,-63.21C492.3,-54.95 1545.03,-20.54 1787.18,-12.63"/>
<polygon fill="midnightblue" stroke="midnightblue" points="239.49,-59.72 229.61,-63.54 239.72,-66.71 239.49,-59.72"/>
</g>
<!-- Node57&#45;&gt;Node22 -->
<g id="edge23" class="edge">
<title>Node57&#45;&gt;Node22</title>
<path fill="none" stroke="midnightblue" d="M1992.07,-112.03C1815.61,-85.26 1615.12,-72.21 1547.54,-68.29"/>
<polygon fill="midnightblue" stroke="midnightblue" points="1991.64,-115.51 2002.05,-113.56 1992.7,-108.59 1991.64,-115.51"/>
</g>
<!-- Node70&#45;&gt;Node2 -->
<g id="edge28" class="edge">
<title>Node70&#45;&gt;Node2</title>
<path fill="none" stroke="midnightblue" d="M2550.09,-140.09C2543.09,-149.48 2533.31,-160.73 2525.34,-168.32"/>
<polygon fill="midnightblue" stroke="midnightblue" points="2552.99,-142.05 2555.79,-131.83 2547.23,-138.07 2552.99,-142.05"/>
</g>
<!-- Node123&#45;&gt;Node14 -->
<g id="edge38" class="edge">
<title>Node123&#45;&gt;Node14</title>
<path fill="none" stroke="midnightblue" d="M3320.72,-111.95C3120.64,-88.55 2896.24,-75.62 2785.69,-70.14"/>
<polygon fill="midnightblue" stroke="midnightblue" points="3320.49,-115.45 3330.83,-113.14 3321.31,-108.49 3320.49,-115.45"/>
</g>
<!-- Node123&#45;&gt;Node122 -->
<g id="edge39" class="edge">
<title>Node123&#45;&gt;Node122</title>
<path fill="none" stroke="midnightblue" d="M3382.51,-102.4C3385.19,-93.36 3388.28,-82.94 3390.41,-75.75"/>
<polygon fill="midnightblue" stroke="midnightblue" points="3379.13,-101.5 3379.64,-112.08 3385.84,-103.49 3379.13,-101.5"/>
</g>
<!-- Node125&#45;&gt;Node124 -->
<g id="edge44" class="edge">
<title>Node125&#45;&gt;Node124</title>
<path fill="none" stroke="midnightblue" d="M3621.14,-102.4C3618.3,-93.36 3615.02,-82.94 3612.75,-75.75"/>
<polygon fill="midnightblue" stroke="midnightblue" points="3617.85,-103.6 3624.19,-112.08 3624.53,-101.49 3617.85,-103.6"/>
</g>
<!-- Node127&#45;&gt;Node126 -->
<g id="edge47" class="edge">
<title>Node127&#45;&gt;Node126</title>
<path fill="none" stroke="midnightblue" d="M3890.1,-106.34C3876.09,-96.52 3858.12,-83.91 3846.34,-75.65"/>
<polygon fill="midnightblue" stroke="midnightblue" points="3888.43,-109.45 3898.63,-112.32 3892.45,-103.72 3888.43,-109.45"/>
</g>
<!-- Node129&#45;&gt;Node93 -->
<g id="edge51" class="edge">
<title>Node129&#45;&gt;Node93</title>
<path fill="none" stroke="midnightblue" d="M4057.09,-105.25C4046.8,-95.67 4034.03,-83.79 4025.49,-75.83"/>
<polygon fill="midnightblue" stroke="midnightblue" points="4054.98,-108.07 4064.68,-112.32 4059.75,-102.95 4054.98,-108.07"/>
</g>
<!-- Node131&#45;&gt;Node130 -->
<g id="edge54" class="edge">
<title>Node131&#45;&gt;Node130</title>
<path fill="none" stroke="midnightblue" d="M4534.49,-111.55C4495.8,-101.26 4434.53,-84.96 4397.8,-75.19"/>
<polygon fill="midnightblue" stroke="midnightblue" points="4533.73,-114.97 4544.29,-114.16 4535.53,-108.21 4533.73,-114.97"/>
</g>
</g>
</svg>
