<?xml version="1.0" encoding="UTF-8" standalone="no"?>
<!DOCTYPE svg PUBLIC "-//W3C//DTD SVG 1.1//EN"
 "http://www.w3.org/Graphics/SVG/1.1/DTD/svg11.dtd">
<!-- Generated by graphviz version 2.43.0 (0)
 -->
<!-- Title: MomentumSource.H Pages: 1 -->
<!--zoomable 196 -->
<svg id="main" version="1.1" xmlns="http://www.w3.org/2000/svg" xmlns:xlink="http://www.w3.org/1999/xlink" xml:space="preserve" onload="init(evt)">
<style type="text/css"><![CDATA[
.edge:hover path { stroke: red; }
.edge:hover polygon { stroke: red; fill: red; }
]]></style>
<script type="text/javascript"><![CDATA[
var edges = document.getElementsByTagName('g');
if (edges && edges.length) {
  for (var i=0;i<edges.length;i++) {
    if (edges[i].id.substr(0,4)=='edge') {
      edges[i].setAttribute('class','edge');
    }
  }
}
]]></script>
        <defs>
                <circle id="rim" cx="0" cy="0" r="7"/>
                <circle id="rim2" cx="0" cy="0" r="3.5"/>
                <g id="zoomPlus">
                        <use xlink:href="#rim" fill="#404040">
                                <set attributeName="fill" to="#808080" begin="zoomplus.mouseover" end="zoomplus.mouseout"/>
                        </use>
                        <path d="M-4,0h8M0,-4v8" fill="none" stroke="white" stroke-width="1.5" pointer-events="none"/>
                </g>
                <g id="zoomMin">
                        <use xlink:href="#rim" fill="#404040">
                                <set attributeName="fill" to="#808080" begin="zoomminus.mouseover" end="zoomminus.mouseout"/>
                        </use>
                        <path d="M-4,0h8" fill="none" stroke="white" stroke-width="1.5" pointer-events="none"/>
                </g>
                <g id="dirArrow">
                        <path fill="none" stroke="white" stroke-width="1.5" d="M0,-3.0v7 M-2.5,-0.5L0,-3.0L2.5,-0.5"/>
                </g>
               <g id="resetDef">
                       <use xlink:href="#rim2" fill="#404040">
                               <set attributeName="fill" to="#808080" begin="reset.mouseover" end="reset.mouseout"/>
                       </use>
               </g>
        </defs>

<script type="text/javascript">
var viewWidth = 2747;
var viewHeight = 196;
var sectionId = 'dynsection-1';
</script>
<script xlink:href="svgpan.js"/>
<svg id="graph" class="graph">
<g id="viewport">
<title>MomentumSource.H</title>
<polygon fill="white" stroke="transparent" points="-4,4 -4,-192 2742.5,-192 2742.5,4 -4,4"/>
<!-- Node1 -->
<g id="node1" class="node">
<title>Node1</title>
<g id="a_node1"><a xlink:title=" ">
<polygon fill="#bfbfbf" stroke="black" points="1676.5,-168.5 1676.5,-187.5 1792.5,-187.5 1792.5,-168.5 1676.5,-168.5"/>
<text text-anchor="middle" x="1734.5" y="-175.5" font-family="Helvetica,sans-Serif" font-size="10.00">MomentumSource.H</text>
</a>
</g>
</g>
<!-- Node2 -->
<g id="node2" class="node">
<title>Node2</title>
<g id="a_node2"><a xlink:href="icns_8_h.html" target="_top" xlink:title=" ">
<polygon fill="white" stroke="black" points="377,-112.5 377,-131.5 424,-131.5 424,-112.5 377,-112.5"/>
<text text-anchor="middle" x="400.5" y="-119.5" font-family="Helvetica,sans-Serif" font-size="10.00">icns.H</text>
</a>
</g>
</g>
<!-- Node1&#45;&gt;Node2 -->
<g id="edge1" class="edge">
<title>Node1&#45;&gt;Node2</title>
<path fill="none" stroke="midnightblue" d="M1666.02,-174.23C1418.42,-164.21 576.2,-130.11 424.13,-123.96"/>
<polygon fill="midnightblue" stroke="midnightblue" points="1666.19,-177.74 1676.32,-174.64 1666.47,-170.74 1666.19,-177.74"/>
</g>
<!-- Node11 -->
<g id="node11" class="node">
<title>Node11</title>
<g id="a_node11"><a xlink:href="_a_b_l_forcing_8_h.html" target="_top" xlink:title=" ">
<polygon fill="white" stroke="black" points="846,-112.5 846,-131.5 927,-131.5 927,-112.5 846,-112.5"/>
<text text-anchor="middle" x="886.5" y="-119.5" font-family="Helvetica,sans-Serif" font-size="10.00">ABLForcing.H</text>
</a>
</g>
</g>
<!-- Node1&#45;&gt;Node11 -->
<g id="edge14" class="edge">
<title>Node1&#45;&gt;Node11</title>
<path fill="none" stroke="midnightblue" d="M1666.03,-173.53C1534.47,-166.73 1237.27,-150.65 987.5,-132 967.66,-130.52 945.66,-128.59 927.27,-126.9"/>
<polygon fill="midnightblue" stroke="midnightblue" points="1666.18,-177.05 1676.35,-174.07 1666.54,-170.06 1666.18,-177.05"/>
</g>
<!-- Node15 -->
<g id="node15" class="node">
<title>Node15</title>
<g id="a_node15"><a xlink:href="_a_b_l_mean_boussinesq_8_h.html" target="_top" xlink:title=" ">
<polygon fill="white" stroke="black" points="996.5,-112.5 996.5,-131.5 1124.5,-131.5 1124.5,-112.5 996.5,-112.5"/>
<text text-anchor="middle" x="1060.5" y="-119.5" font-family="Helvetica,sans-Serif" font-size="10.00">ABLMeanBoussinesq.H</text>
</a>
</g>
</g>
<!-- Node1&#45;&gt;Node15 -->
<g id="edge18" class="edge">
<title>Node1&#45;&gt;Node15</title>
<path fill="none" stroke="midnightblue" d="M1666.3,-172.96C1554.75,-166.12 1326.35,-151.1 1133.5,-132 1130.58,-131.71 1127.59,-131.4 1124.57,-131.08"/>
<polygon fill="midnightblue" stroke="midnightblue" points="1666.21,-176.46 1676.4,-173.58 1666.63,-169.48 1666.21,-176.46"/>
</g>
<!-- Node17 -->
<g id="node17" class="node">
<title>Node17</title>
<g id="a_node17"><a xlink:href="_actuator_forcing_8_h.html" target="_top" xlink:title=" ">
<polygon fill="white" stroke="black" points="1280.5,-112.5 1280.5,-131.5 1384.5,-131.5 1384.5,-112.5 1280.5,-112.5"/>
<text text-anchor="middle" x="1332.5" y="-119.5" font-family="Helvetica,sans-Serif" font-size="10.00">ActuatorForcing.H</text>
</a>
</g>
</g>
<!-- Node1&#45;&gt;Node17 -->
<g id="edge21" class="edge">
<title>Node1&#45;&gt;Node17</title>
<path fill="none" stroke="midnightblue" d="M1666.55,-167.87C1586.96,-157.18 1456.86,-139.7 1384.75,-130.02"/>
<polygon fill="midnightblue" stroke="midnightblue" points="1666.1,-171.34 1676.48,-169.21 1667.03,-164.41 1666.1,-171.34"/>
</g>
<!-- Node19 -->
<g id="node19" class="node">
<title>Node19</title>
<g id="a_node19"><a xlink:href="_body_force_8_h.html" target="_top" xlink:title=" ">
<polygon fill="white" stroke="black" points="1412.5,-112.5 1412.5,-131.5 1490.5,-131.5 1490.5,-112.5 1412.5,-112.5"/>
<text text-anchor="middle" x="1451.5" y="-119.5" font-family="Helvetica,sans-Serif" font-size="10.00">BodyForce.H</text>
</a>
</g>
</g>
<!-- Node1&#45;&gt;Node19 -->
<g id="edge23" class="edge">
<title>Node1&#45;&gt;Node19</title>
<path fill="none" stroke="midnightblue" d="M1679.65,-166.53C1624.15,-155.94 1539.75,-139.84 1490.66,-130.47"/>
<polygon fill="midnightblue" stroke="midnightblue" points="1679.18,-170.01 1689.66,-168.44 1680.49,-163.13 1679.18,-170.01"/>
</g>
<!-- Node21 -->
<g id="node21" class="node">
<title>Node21</title>
<g id="a_node21"><a xlink:href="_boussinesq_buoyancy_8_h.html" target="_top" xlink:title=" ">
<polygon fill="white" stroke="black" points="1518,-112.5 1518,-131.5 1647,-131.5 1647,-112.5 1518,-112.5"/>
<text text-anchor="middle" x="1582.5" y="-119.5" font-family="Helvetica,sans-Serif" font-size="10.00">BoussinesqBuoyancy.H</text>
</a>
</g>
</g>
<!-- Node1&#45;&gt;Node21 -->
<g id="edge25" class="edge">
<title>Node1&#45;&gt;Node21</title>
<path fill="none" stroke="midnightblue" d="M1700.83,-165.04C1672.23,-154.88 1631.89,-140.55 1606.47,-131.52"/>
<polygon fill="midnightblue" stroke="midnightblue" points="1699.82,-168.39 1710.42,-168.44 1702.16,-161.8 1699.82,-168.39"/>
</g>
<!-- Node23 -->
<g id="node23" class="node">
<title>Node23</title>
<g id="a_node23"><a xlink:href="_burggraf_flow_forcing_8_h.html" target="_top" xlink:title=" ">
<polygon fill="white" stroke="black" points="1670.5,-112.5 1670.5,-131.5 1798.5,-131.5 1798.5,-112.5 1670.5,-112.5"/>
<text text-anchor="middle" x="1734.5" y="-119.5" font-family="Helvetica,sans-Serif" font-size="10.00">BurggrafFlowForcing.H</text>
</a>
</g>
</g>
<!-- Node1&#45;&gt;Node23 -->
<g id="edge27" class="edge">
<title>Node1&#45;&gt;Node23</title>
<path fill="none" stroke="midnightblue" d="M1734.5,-157.8C1734.5,-148.91 1734.5,-138.78 1734.5,-131.75"/>
<polygon fill="midnightblue" stroke="midnightblue" points="1731,-158.08 1734.5,-168.08 1738,-158.08 1731,-158.08"/>
</g>
<!-- Node25 -->
<g id="node25" class="node">
<title>Node25</title>
<g id="a_node25"><a xlink:href="_coriolis_forcing_8_h.html" target="_top" xlink:title=" ">
<polygon fill="white" stroke="black" points="1821,-112.5 1821,-131.5 1920,-131.5 1920,-112.5 1821,-112.5"/>
<text text-anchor="middle" x="1870.5" y="-119.5" font-family="Helvetica,sans-Serif" font-size="10.00">CoriolisForcing.H</text>
</a>
</g>
</g>
<!-- Node1&#45;&gt;Node25 -->
<g id="edge29" class="edge">
<title>Node1&#45;&gt;Node25</title>
<path fill="none" stroke="midnightblue" d="M1765.63,-164.64C1791.16,-154.5 1826.61,-140.43 1849.05,-131.52"/>
<polygon fill="midnightblue" stroke="midnightblue" points="1764.05,-161.5 1756.05,-168.44 1766.64,-168.01 1764.05,-161.5"/>
</g>
<!-- Node27 -->
<g id="node27" class="node">
<title>Node27</title>
<g id="a_node27"><a xlink:href="_density_buoyancy_8_h.html" target="_top" xlink:title=" ">
<polygon fill="white" stroke="black" points="1945,-112.5 1945,-131.5 2056,-131.5 2056,-112.5 1945,-112.5"/>
<text text-anchor="middle" x="2000.5" y="-119.5" font-family="Helvetica,sans-Serif" font-size="10.00">DensityBuoyancy.H</text>
</a>
</g>
</g>
<!-- Node1&#45;&gt;Node27 -->
<g id="edge31" class="edge">
<title>Node1&#45;&gt;Node27</title>
<path fill="none" stroke="midnightblue" d="M1786.67,-166.41C1836.94,-156.2 1912.03,-140.96 1958.55,-131.52"/>
<polygon fill="midnightblue" stroke="midnightblue" points="1785.75,-163.02 1776.65,-168.44 1787.14,-169.88 1785.75,-163.02"/>
</g>
<!-- Node29 -->
<g id="node29" class="node">
<title>Node29</title>
<g id="a_node29"><a xlink:href="_geostrophic_forcing_8_h.html" target="_top" xlink:title=" ">
<polygon fill="white" stroke="black" points="2083,-112.5 2083,-131.5 2204,-131.5 2204,-112.5 2083,-112.5"/>
<text text-anchor="middle" x="2143.5" y="-119.5" font-family="Helvetica,sans-Serif" font-size="10.00">GeostrophicForcing.H</text>
</a>
</g>
</g>
<!-- Node1&#45;&gt;Node29 -->
<g id="edge33" class="edge">
<title>Node1&#45;&gt;Node29</title>
<path fill="none" stroke="midnightblue" d="M1802.9,-167.97C1881.14,-157.64 2008.04,-140.88 2082.87,-131.01"/>
<polygon fill="midnightblue" stroke="midnightblue" points="1802.12,-164.54 1792.67,-169.32 1803.04,-171.48 1802.12,-164.54"/>
</g>
<!-- Node31 -->
<g id="node31" class="node">
<title>Node31</title>
<g id="a_node31"><a xlink:href="_gravity_forcing_8_h.html" target="_top" xlink:title=" ">
<polygon fill="white" stroke="black" points="2231.5,-112.5 2231.5,-131.5 2329.5,-131.5 2329.5,-112.5 2231.5,-112.5"/>
<text text-anchor="middle" x="2280.5" y="-119.5" font-family="Helvetica,sans-Serif" font-size="10.00">GravityForcing.H</text>
</a>
</g>
</g>
<!-- Node1&#45;&gt;Node31 -->
<g id="edge35" class="edge">
<title>Node1&#45;&gt;Node31</title>
<path fill="none" stroke="midnightblue" d="M1802.81,-171.39C1895.65,-163.57 2066.81,-148.49 2212.5,-132 2218.65,-131.3 2225.11,-130.52 2231.5,-129.71"/>
<polygon fill="midnightblue" stroke="midnightblue" points="1802.37,-167.91 1792.7,-172.23 1802.96,-174.88 1802.37,-167.91"/>
</g>
<!-- Node33 -->
<g id="node33" class="node">
<title>Node33</title>
<g id="a_node33"><a xlink:href="_hurricane_forcing_8_h.html" target="_top" xlink:title=" ">
<polygon fill="white" stroke="black" points="1142.5,-112.5 1142.5,-131.5 1252.5,-131.5 1252.5,-112.5 1142.5,-112.5"/>
<text text-anchor="middle" x="1197.5" y="-119.5" font-family="Helvetica,sans-Serif" font-size="10.00">HurricaneForcing.H</text>
</a>
</g>
</g>
<!-- Node1&#45;&gt;Node33 -->
<g id="edge37" class="edge">
<title>Node1&#45;&gt;Node33</title>
<path fill="none" stroke="midnightblue" d="M1666.23,-170.88C1575.87,-162.67 1411.61,-147.33 1271.5,-132 1265.45,-131.34 1259.13,-130.62 1252.84,-129.88"/>
<polygon fill="midnightblue" stroke="midnightblue" points="1666.07,-174.38 1676.35,-171.8 1666.7,-167.41 1666.07,-174.38"/>
</g>
<!-- Node35 -->
<g id="node35" class="node">
<title>Node35</title>
<g id="a_node35"><a xlink:href="_rayleigh_damping_8_h.html" target="_top" xlink:title=" ">
<polygon fill="white" stroke="black" points="2357.5,-112.5 2357.5,-131.5 2471.5,-131.5 2471.5,-112.5 2357.5,-112.5"/>
<text text-anchor="middle" x="2414.5" y="-119.5" font-family="Helvetica,sans-Serif" font-size="10.00">RayleighDamping.H</text>
</a>
</g>
</g>
<!-- Node1&#45;&gt;Node35 -->
<g id="edge40" class="edge">
<title>Node1&#45;&gt;Node35</title>
<path fill="none" stroke="midnightblue" d="M1803.03,-172.87C1915.13,-165.89 2144.64,-150.69 2338.5,-132 2344.58,-131.41 2350.93,-130.75 2357.26,-130.05"/>
<polygon fill="midnightblue" stroke="midnightblue" points="1802.64,-169.39 1792.88,-173.5 1803.08,-176.37 1802.64,-169.39"/>
</g>
<!-- Node37 -->
<g id="node37" class="node">
<title>Node37</title>
<g id="a_node37"><a xlink:href="_synth_turb_forcing_8_h.html" target="_top" xlink:title=" ">
<polygon fill="white" stroke="black" points="2499.5,-112.5 2499.5,-131.5 2609.5,-131.5 2609.5,-112.5 2499.5,-112.5"/>
<text text-anchor="middle" x="2554.5" y="-119.5" font-family="Helvetica,sans-Serif" font-size="10.00">SynthTurbForcing.H</text>
</a>
</g>
</g>
<!-- Node1&#45;&gt;Node37 -->
<g id="edge42" class="edge">
<title>Node1&#45;&gt;Node37</title>
<path fill="none" stroke="midnightblue" d="M1802.94,-174.26C1934.43,-168.7 2231.4,-154.64 2480.5,-132 2486.56,-131.45 2492.89,-130.8 2499.18,-130.1"/>
<polygon fill="midnightblue" stroke="midnightblue" points="1802.47,-170.78 1792.63,-174.7 1802.77,-177.77 1802.47,-170.78"/>
</g>
<!-- Node39 -->
<g id="node39" class="node">
<title>Node39</title>
<g id="a_node39"><a xlink:href="_m_m_s_forcing_8_h.html" target="_top" xlink:title=" ">
<polygon fill="white" stroke="black" points="2637.5,-112.5 2637.5,-131.5 2723.5,-131.5 2723.5,-112.5 2637.5,-112.5"/>
<text text-anchor="middle" x="2680.5" y="-119.5" font-family="Helvetica,sans-Serif" font-size="10.00">MMSForcing.H</text>
</a>
</g>
</g>
<!-- Node1&#45;&gt;Node39 -->
<g id="edge44" class="edge">
<title>Node1&#45;&gt;Node39</title>
<path fill="none" stroke="midnightblue" d="M1802.89,-175.69C1951.58,-172.37 2315.31,-161.66 2618.5,-132 2624.56,-131.41 2630.94,-130.64 2637.2,-129.81"/>
<polygon fill="midnightblue" stroke="midnightblue" points="1802.48,-172.2 1792.56,-175.92 1802.63,-179.2 1802.48,-172.2"/>
</g>
<!-- Node3 -->
<g id="node3" class="node">
<title>Node3</title>
<g id="a_node3"><a xlink:href="icns_8cpp.html" target="_top" xlink:title=" ">
<polygon fill="white" stroke="black" points="334.5,-0.5 334.5,-19.5 390.5,-19.5 390.5,-0.5 334.5,-0.5"/>
<text text-anchor="middle" x="362.5" y="-7.5" font-family="Helvetica,sans-Serif" font-size="10.00">icns.cpp</text>
</a>
</g>
</g>
<!-- Node2&#45;&gt;Node3 -->
<g id="edge2" class="edge">
<title>Node2&#45;&gt;Node3</title>
<path fill="none" stroke="midnightblue" d="M411.88,-103.53C419.1,-90.09 425.83,-71.29 418.5,-56 410.58,-39.47 393.29,-27.08 380,-19.54"/>
<polygon fill="midnightblue" stroke="midnightblue" points="408.81,-101.85 406.73,-112.24 414.83,-105.42 408.81,-101.85"/>
</g>
<!-- Node4 -->
<g id="node4" class="node">
<title>Node4</title>
<g id="a_node4"><a xlink:href="icns__advection_8_h.html" target="_top" xlink:title=" ">
<polygon fill="white" stroke="black" points="465.5,-56.5 465.5,-75.5 565.5,-75.5 565.5,-56.5 465.5,-56.5"/>
<text text-anchor="middle" x="515.5" y="-63.5" font-family="Helvetica,sans-Serif" font-size="10.00">icns_advection.H</text>
</a>
</g>
</g>
<!-- Node2&#45;&gt;Node4 -->
<g id="edge3" class="edge">
<title>Node2&#45;&gt;Node4</title>
<path fill="none" stroke="midnightblue" d="M427.98,-108.1C449.47,-98.01 478.72,-84.27 497.36,-75.52"/>
<polygon fill="midnightblue" stroke="midnightblue" points="426.29,-105.02 418.72,-112.44 429.26,-111.36 426.29,-105.02"/>
</g>
<!-- Node6 -->
<g id="node6" class="node">
<title>Node6</title>
<g id="a_node6"><a xlink:href="icns__bcop_8_h.html" target="_top" xlink:title=" ">
<polygon fill="white" stroke="black" points="135,-56.5 135,-75.5 210,-75.5 210,-56.5 135,-56.5"/>
<text text-anchor="middle" x="172.5" y="-63.5" font-family="Helvetica,sans-Serif" font-size="10.00">icns_bcop.H</text>
</a>
</g>
</g>
<!-- Node2&#45;&gt;Node6 -->
<g id="edge6" class="edge">
<title>Node2&#45;&gt;Node6</title>
<path fill="none" stroke="midnightblue" d="M367.15,-113.1C324.84,-103.08 252.16,-85.87 208.59,-75.55"/>
<polygon fill="midnightblue" stroke="midnightblue" points="366.42,-116.53 376.96,-115.42 368.03,-109.71 366.42,-116.53"/>
</g>
<!-- Node7 -->
<g id="node7" class="node">
<title>Node7</title>
<g id="a_node7"><a xlink:href="icns__diffusion_8_h.html" target="_top" xlink:title=" ">
<polygon fill="white" stroke="black" points="315.5,-56.5 315.5,-75.5 409.5,-75.5 409.5,-56.5 315.5,-56.5"/>
<text text-anchor="middle" x="362.5" y="-63.5" font-family="Helvetica,sans-Serif" font-size="10.00">icns_diffusion.H</text>
</a>
</g>
</g>
<!-- Node2&#45;&gt;Node7 -->
<g id="edge8" class="edge">
<title>Node2&#45;&gt;Node7</title>
<path fill="none" stroke="midnightblue" d="M388.44,-103.86C381.86,-94.5 373.99,-83.33 368.66,-75.75"/>
<polygon fill="midnightblue" stroke="midnightblue" points="385.61,-105.92 394.23,-112.08 391.33,-101.89 385.61,-105.92"/>
</g>
<!-- Node8 -->
<g id="node8" class="node">
<title>Node8</title>
<g id="a_node8"><a xlink:href="icns__ops_8_h.html" target="_top" xlink:title=" ">
<polygon fill="white" stroke="black" points="228,-56.5 228,-75.5 297,-75.5 297,-56.5 228,-56.5"/>
<text text-anchor="middle" x="262.5" y="-63.5" font-family="Helvetica,sans-Serif" font-size="10.00">icns_ops.H</text>
</a>
</g>
</g>
<!-- Node2&#45;&gt;Node8 -->
<g id="edge10" class="edge">
<title>Node2&#45;&gt;Node8</title>
<path fill="none" stroke="midnightblue" d="M369.25,-108.77C343.33,-98.63 307.14,-84.47 284.26,-75.52"/>
<polygon fill="midnightblue" stroke="midnightblue" points="368.05,-112.06 378.63,-112.44 370.6,-105.54 368.05,-112.06"/>
</g>
<!-- Node9 -->
<g id="node9" class="node">
<title>Node9</title>
<g id="a_node9"><a xlink:href="_burggraf_lid_8cpp.html" target="_top" xlink:title=" ">
<polygon fill="white" stroke="black" points="584,-56.5 584,-75.5 677,-75.5 677,-56.5 584,-56.5"/>
<text text-anchor="middle" x="630.5" y="-63.5" font-family="Helvetica,sans-Serif" font-size="10.00">BurggrafLid.cpp</text>
</a>
</g>
</g>
<!-- Node2&#45;&gt;Node9 -->
<g id="edge12" class="edge">
<title>Node2&#45;&gt;Node9</title>
<path fill="none" stroke="midnightblue" d="M434.15,-113.1C476.82,-103.08 550.14,-85.87 594.09,-75.55"/>
<polygon fill="midnightblue" stroke="midnightblue" points="433.18,-109.73 424.25,-115.42 434.78,-116.55 433.18,-109.73"/>
</g>
<!-- Node10 -->
<g id="node10" class="node">
<title>Node10</title>
<g id="a_node10"><a xlink:href="_power_law_profile_8cpp.html" target="_top" xlink:title=" ">
<polygon fill="white" stroke="black" points="0,-56.5 0,-75.5 117,-75.5 117,-56.5 0,-56.5"/>
<text text-anchor="middle" x="58.5" y="-63.5" font-family="Helvetica,sans-Serif" font-size="10.00">PowerLawProfile.cpp</text>
</a>
</g>
</g>
<!-- Node2&#45;&gt;Node10 -->
<g id="edge13" class="edge">
<title>Node2&#45;&gt;Node10</title>
<path fill="none" stroke="midnightblue" d="M367.05,-115.72C307.84,-106.37 184.11,-86.83 112.63,-75.55"/>
<polygon fill="midnightblue" stroke="midnightblue" points="366.57,-119.19 376.99,-117.29 367.66,-112.27 366.57,-119.19"/>
</g>
<!-- Node4&#45;&gt;Node3 -->
<g id="edge4" class="edge">
<title>Node4&#45;&gt;Node3</title>
<path fill="none" stroke="midnightblue" d="M481.61,-53.04C452.82,-42.88 412.21,-28.55 386.63,-19.52"/>
<polygon fill="midnightblue" stroke="midnightblue" points="480.66,-56.42 491.26,-56.44 482.99,-49.81 480.66,-56.42"/>
</g>
<!-- Node5 -->
<g id="node5" class="node">
<title>Node5</title>
<g id="a_node5"><a xlink:href="icns__advection_8cpp.html" target="_top" xlink:title=" ">
<polygon fill="white" stroke="black" points="460.5,-0.5 460.5,-19.5 570.5,-19.5 570.5,-0.5 460.5,-0.5"/>
<text text-anchor="middle" x="515.5" y="-7.5" font-family="Helvetica,sans-Serif" font-size="10.00">icns_advection.cpp</text>
</a>
</g>
</g>
<!-- Node4&#45;&gt;Node5 -->
<g id="edge5" class="edge">
<title>Node4&#45;&gt;Node5</title>
<path fill="none" stroke="midnightblue" d="M515.5,-45.8C515.5,-36.91 515.5,-26.78 515.5,-19.75"/>
<polygon fill="midnightblue" stroke="midnightblue" points="512,-46.08 515.5,-56.08 519,-46.08 512,-46.08"/>
</g>
<!-- Node6&#45;&gt;Node3 -->
<g id="edge7" class="edge">
<title>Node6&#45;&gt;Node3</title>
<path fill="none" stroke="midnightblue" d="M212.44,-53.65C248.99,-43.26 302.14,-28.16 334.39,-18.99"/>
<polygon fill="midnightblue" stroke="midnightblue" points="211.27,-50.34 202.61,-56.44 213.18,-57.08 211.27,-50.34"/>
</g>
<!-- Node7&#45;&gt;Node3 -->
<g id="edge9" class="edge">
<title>Node7&#45;&gt;Node3</title>
<path fill="none" stroke="midnightblue" d="M362.5,-45.8C362.5,-36.91 362.5,-26.78 362.5,-19.75"/>
<polygon fill="midnightblue" stroke="midnightblue" points="359,-46.08 362.5,-56.08 366,-46.08 359,-46.08"/>
</g>
<!-- Node8&#45;&gt;Node3 -->
<g id="edge11" class="edge">
<title>Node8&#45;&gt;Node3</title>
<path fill="none" stroke="midnightblue" d="M287.59,-51.45C306.05,-41.48 330.6,-28.23 346.47,-19.65"/>
<polygon fill="midnightblue" stroke="midnightblue" points="285.7,-48.49 278.57,-56.32 289.03,-54.65 285.7,-48.49"/>
</g>
<!-- Node12 -->
<g id="node12" class="node">
<title>Node12</title>
<g id="a_node12"><a xlink:href="_a_b_l_forcing_8cpp.html" target="_top" xlink:title=" ">
<polygon fill="white" stroke="black" points="794,-56.5 794,-75.5 885,-75.5 885,-56.5 794,-56.5"/>
<text text-anchor="middle" x="839.5" y="-63.5" font-family="Helvetica,sans-Serif" font-size="10.00">ABLForcing.cpp</text>
</a>
</g>
</g>
<!-- Node11&#45;&gt;Node12 -->
<g id="edge15" class="edge">
<title>Node11&#45;&gt;Node12</title>
<path fill="none" stroke="midnightblue" d="M872.08,-104.43C863.84,-94.97 853.85,-83.48 847.12,-75.75"/>
<polygon fill="midnightblue" stroke="midnightblue" points="869.53,-106.84 878.74,-112.08 874.81,-102.24 869.53,-106.84"/>
</g>
<!-- Node13 -->
<g id="node13" class="node">
<title>Node13</title>
<g id="a_node13"><a xlink:href="_a_b_l_8cpp.html" target="_top" xlink:title=" ">
<polygon fill="white" stroke="black" points="1059.5,-56.5 1059.5,-75.5 1115.5,-75.5 1115.5,-56.5 1059.5,-56.5"/>
<text text-anchor="middle" x="1087.5" y="-63.5" font-family="Helvetica,sans-Serif" font-size="10.00">ABL.cpp</text>
</a>
</g>
</g>
<!-- Node11&#45;&gt;Node13 -->
<g id="edge16" class="edge">
<title>Node11&#45;&gt;Node13</title>
<path fill="none" stroke="midnightblue" d="M928.16,-109.81C967.45,-99.25 1025.25,-83.72 1059.37,-74.56"/>
<polygon fill="midnightblue" stroke="midnightblue" points="927.1,-106.47 918.35,-112.44 928.91,-113.23 927.1,-106.47"/>
</g>
<!-- Node14 -->
<g id="node14" class="node">
<title>Node14</title>
<g id="a_node14"><a xlink:href="_a_b_l_stats_8cpp.html" target="_top" xlink:title=" ">
<polygon fill="white" stroke="black" points="695.5,-56.5 695.5,-75.5 775.5,-75.5 775.5,-56.5 695.5,-56.5"/>
<text text-anchor="middle" x="735.5" y="-63.5" font-family="Helvetica,sans-Serif" font-size="10.00">ABLStats.cpp</text>
</a>
</g>
</g>
<!-- Node11&#45;&gt;Node14 -->
<g id="edge17" class="edge">
<title>Node11&#45;&gt;Node14</title>
<path fill="none" stroke="midnightblue" d="M853.05,-109.04C824.64,-98.88 784.56,-84.55 759.31,-75.52"/>
<polygon fill="midnightblue" stroke="midnightblue" points="851.98,-112.37 862.57,-112.44 854.34,-105.78 851.98,-112.37"/>
</g>
<!-- Node15&#45;&gt;Node13 -->
<g id="edge20" class="edge">
<title>Node15&#45;&gt;Node13</title>
<path fill="none" stroke="midnightblue" d="M1069.51,-102.98C1074.09,-93.82 1079.45,-83.09 1083.12,-75.75"/>
<polygon fill="midnightblue" stroke="midnightblue" points="1066.3,-101.57 1064.96,-112.08 1072.56,-104.7 1066.3,-101.57"/>
</g>
<!-- Node16 -->
<g id="node16" class="node">
<title>Node16</title>
<g id="a_node16"><a xlink:href="_a_b_l_mean_boussinesq_8cpp.html" target="_top" xlink:title=" ">
<polygon fill="white" stroke="black" points="903.5,-56.5 903.5,-75.5 1041.5,-75.5 1041.5,-56.5 903.5,-56.5"/>
<text text-anchor="middle" x="972.5" y="-63.5" font-family="Helvetica,sans-Serif" font-size="10.00">ABLMeanBoussinesq.cpp</text>
</a>
</g>
</g>
<!-- Node15&#45;&gt;Node16 -->
<g id="edge19" class="edge">
<title>Node15&#45;&gt;Node16</title>
<path fill="none" stroke="midnightblue" d="M1037.52,-106.9C1021.39,-97 1000.32,-84.07 986.6,-75.65"/>
<polygon fill="midnightblue" stroke="midnightblue" points="1036.01,-110.08 1046.36,-112.32 1039.67,-104.11 1036.01,-110.08"/>
</g>
<!-- Node18 -->
<g id="node18" class="node">
<title>Node18</title>
<g id="a_node18"><a xlink:href="_actuator_forcing_8cpp.html" target="_top" xlink:title=" ">
<polygon fill="white" stroke="black" points="1271,-56.5 1271,-75.5 1384,-75.5 1384,-56.5 1271,-56.5"/>
<text text-anchor="middle" x="1327.5" y="-63.5" font-family="Helvetica,sans-Serif" font-size="10.00">ActuatorForcing.cpp</text>
</a>
</g>
</g>
<!-- Node17&#45;&gt;Node18 -->
<g id="edge22" class="edge">
<title>Node17&#45;&gt;Node18</title>
<path fill="none" stroke="midnightblue" d="M1330.75,-102.1C1329.92,-93.14 1328.97,-82.86 1328.31,-75.75"/>
<polygon fill="midnightblue" stroke="midnightblue" points="1327.27,-102.45 1331.67,-112.08 1334.24,-101.8 1327.27,-102.45"/>
</g>
<!-- Node20 -->
<g id="node20" class="node">
<title>Node20</title>
<g id="a_node20"><a xlink:href="_body_force_8cpp.html" target="_top" xlink:title=" ">
<polygon fill="white" stroke="black" points="1402.5,-56.5 1402.5,-75.5 1490.5,-75.5 1490.5,-56.5 1402.5,-56.5"/>
<text text-anchor="middle" x="1446.5" y="-63.5" font-family="Helvetica,sans-Serif" font-size="10.00">BodyForce.cpp</text>
</a>
</g>
</g>
<!-- Node19&#45;&gt;Node20 -->
<g id="edge24" class="edge">
<title>Node19&#45;&gt;Node20</title>
<path fill="none" stroke="midnightblue" d="M1449.75,-102.1C1448.92,-93.14 1447.97,-82.86 1447.31,-75.75"/>
<polygon fill="midnightblue" stroke="midnightblue" points="1446.27,-102.45 1450.67,-112.08 1453.24,-101.8 1446.27,-102.45"/>
</g>
<!-- Node22 -->
<g id="node22" class="node">
<title>Node22</title>
<g id="a_node22"><a xlink:href="_boussinesq_buoyancy_8cpp.html" target="_top" xlink:title=" ">
<polygon fill="white" stroke="black" points="1509,-56.5 1509,-75.5 1648,-75.5 1648,-56.5 1509,-56.5"/>
<text text-anchor="middle" x="1578.5" y="-63.5" font-family="Helvetica,sans-Serif" font-size="10.00">BoussinesqBuoyancy.cpp</text>
</a>
</g>
</g>
<!-- Node21&#45;&gt;Node22 -->
<g id="edge26" class="edge">
<title>Node21&#45;&gt;Node22</title>
<path fill="none" stroke="midnightblue" d="M1581.1,-102.1C1580.44,-93.14 1579.67,-82.86 1579.15,-75.75"/>
<polygon fill="midnightblue" stroke="midnightblue" points="1577.61,-102.37 1581.84,-112.08 1584.59,-101.85 1577.61,-102.37"/>
</g>
<!-- Node24 -->
<g id="node24" class="node">
<title>Node24</title>
<g id="a_node24"><a xlink:href="_burggraf_flow_forcing_8cpp.html" target="_top" xlink:title=" ">
<polygon fill="white" stroke="black" points="1666,-56.5 1666,-75.5 1803,-75.5 1803,-56.5 1666,-56.5"/>
<text text-anchor="middle" x="1734.5" y="-63.5" font-family="Helvetica,sans-Serif" font-size="10.00">BurggrafFlowForcing.cpp</text>
</a>
</g>
</g>
<!-- Node23&#45;&gt;Node24 -->
<g id="edge28" class="edge">
<title>Node23&#45;&gt;Node24</title>
<path fill="none" stroke="midnightblue" d="M1734.5,-101.8C1734.5,-92.91 1734.5,-82.78 1734.5,-75.75"/>
<polygon fill="midnightblue" stroke="midnightblue" points="1731,-102.08 1734.5,-112.08 1738,-102.08 1731,-102.08"/>
</g>
<!-- Node26 -->
<g id="node26" class="node">
<title>Node26</title>
<g id="a_node26"><a xlink:href="_coriolis_forcing_8cpp.html" target="_top" xlink:title=" ">
<polygon fill="white" stroke="black" points="1821,-56.5 1821,-75.5 1930,-75.5 1930,-56.5 1821,-56.5"/>
<text text-anchor="middle" x="1875.5" y="-63.5" font-family="Helvetica,sans-Serif" font-size="10.00">CoriolisForcing.cpp</text>
</a>
</g>
</g>
<!-- Node25&#45;&gt;Node26 -->
<g id="edge30" class="edge">
<title>Node25&#45;&gt;Node26</title>
<path fill="none" stroke="midnightblue" d="M1872.25,-102.1C1873.08,-93.14 1874.03,-82.86 1874.69,-75.75"/>
<polygon fill="midnightblue" stroke="midnightblue" points="1868.76,-101.8 1871.33,-112.08 1875.73,-102.45 1868.76,-101.8"/>
</g>
<!-- Node28 -->
<g id="node28" class="node">
<title>Node28</title>
<g id="a_node28"><a xlink:href="_density_buoyancy_8cpp.html" target="_top" xlink:title=" ">
<polygon fill="white" stroke="black" points="1948,-56.5 1948,-75.5 2069,-75.5 2069,-56.5 1948,-56.5"/>
<text text-anchor="middle" x="2008.5" y="-63.5" font-family="Helvetica,sans-Serif" font-size="10.00">DensityBuoyancy.cpp</text>
</a>
</g>
</g>
<!-- Node27&#45;&gt;Node28 -->
<g id="edge32" class="edge">
<title>Node27&#45;&gt;Node28</title>
<path fill="none" stroke="midnightblue" d="M2003.3,-102.1C2004.63,-93.14 2006.15,-82.86 2007.2,-75.75"/>
<polygon fill="midnightblue" stroke="midnightblue" points="1999.82,-101.68 2001.82,-112.08 2006.75,-102.7 1999.82,-101.68"/>
</g>
<!-- Node30 -->
<g id="node30" class="node">
<title>Node30</title>
<g id="a_node30"><a xlink:href="_geostrophic_forcing_8cpp.html" target="_top" xlink:title=" ">
<polygon fill="white" stroke="black" points="2087,-56.5 2087,-75.5 2218,-75.5 2218,-56.5 2087,-56.5"/>
<text text-anchor="middle" x="2152.5" y="-63.5" font-family="Helvetica,sans-Serif" font-size="10.00">GeostrophicForcing.cpp</text>
</a>
</g>
</g>
<!-- Node29&#45;&gt;Node30 -->
<g id="edge34" class="edge">
<title>Node29&#45;&gt;Node30</title>
<path fill="none" stroke="midnightblue" d="M2146.65,-102.1C2148.14,-93.14 2149.86,-82.86 2151.04,-75.75"/>
<polygon fill="midnightblue" stroke="midnightblue" points="2143.18,-101.64 2144.99,-112.08 2150.08,-102.79 2143.18,-101.64"/>
</g>
<!-- Node32 -->
<g id="node32" class="node">
<title>Node32</title>
<g id="a_node32"><a xlink:href="_gravity_forcing_8cpp.html" target="_top" xlink:title=" ">
<polygon fill="white" stroke="black" points="2236.5,-56.5 2236.5,-75.5 2344.5,-75.5 2344.5,-56.5 2236.5,-56.5"/>
<text text-anchor="middle" x="2290.5" y="-63.5" font-family="Helvetica,sans-Serif" font-size="10.00">GravityForcing.cpp</text>
</a>
</g>
</g>
<!-- Node31&#45;&gt;Node32 -->
<g id="edge36" class="edge">
<title>Node31&#45;&gt;Node32</title>
<path fill="none" stroke="midnightblue" d="M2284,-102.1C2285.66,-93.14 2287.56,-82.86 2288.88,-75.75"/>
<polygon fill="midnightblue" stroke="midnightblue" points="2280.53,-101.61 2282.15,-112.08 2287.41,-102.89 2280.53,-101.61"/>
</g>
<!-- Node33&#45;&gt;Node13 -->
<g id="edge39" class="edge">
<title>Node33&#45;&gt;Node13</title>
<path fill="none" stroke="midnightblue" d="M1170.74,-107.86C1150.34,-97.85 1122.83,-84.35 1105.13,-75.65"/>
<polygon fill="midnightblue" stroke="midnightblue" points="1169.31,-111.06 1179.83,-112.32 1172.39,-104.78 1169.31,-111.06"/>
</g>
<!-- Node34 -->
<g id="node34" class="node">
<title>Node34</title>
<g id="a_node34"><a xlink:href="_hurricane_forcing_8cpp.html" target="_top" xlink:title=" ">
<polygon fill="white" stroke="black" points="1134,-56.5 1134,-75.5 1253,-75.5 1253,-56.5 1134,-56.5"/>
<text text-anchor="middle" x="1193.5" y="-63.5" font-family="Helvetica,sans-Serif" font-size="10.00">HurricaneForcing.cpp</text>
</a>
</g>
</g>
<!-- Node33&#45;&gt;Node34 -->
<g id="edge38" class="edge">
<title>Node33&#45;&gt;Node34</title>
<path fill="none" stroke="midnightblue" d="M1196.1,-102.1C1195.44,-93.14 1194.67,-82.86 1194.15,-75.75"/>
<polygon fill="midnightblue" stroke="midnightblue" points="1192.61,-102.37 1196.84,-112.08 1199.59,-101.85 1192.61,-102.37"/>
</g>
<!-- Node36 -->
<g id="node36" class="node">
<title>Node36</title>
<g id="a_node36"><a xlink:href="_rayleigh_damping_8cpp.html" target="_top" xlink:title=" ">
<polygon fill="white" stroke="black" points="2362.5,-56.5 2362.5,-75.5 2486.5,-75.5 2486.5,-56.5 2362.5,-56.5"/>
<text text-anchor="middle" x="2424.5" y="-63.5" font-family="Helvetica,sans-Serif" font-size="10.00">RayleighDamping.cpp</text>
</a>
</g>
</g>
<!-- Node35&#45;&gt;Node36 -->
<g id="edge41" class="edge">
<title>Node35&#45;&gt;Node36</title>
<path fill="none" stroke="midnightblue" d="M2418,-102.1C2419.66,-93.14 2421.56,-82.86 2422.88,-75.75"/>
<polygon fill="midnightblue" stroke="midnightblue" points="2414.53,-101.61 2416.15,-112.08 2421.41,-102.89 2414.53,-101.61"/>
</g>
<!-- Node38 -->
<g id="node38" class="node">
<title>Node38</title>
<g id="a_node38"><a xlink:href="_synth_turb_forcing_8cpp.html" target="_top" xlink:title=" ">
<polygon fill="white" stroke="black" points="2504.5,-56.5 2504.5,-75.5 2624.5,-75.5 2624.5,-56.5 2504.5,-56.5"/>
<text text-anchor="middle" x="2564.5" y="-63.5" font-family="Helvetica,sans-Serif" font-size="10.00">SynthTurbForcing.cpp</text>
</a>
</g>
</g>
<!-- Node37&#45;&gt;Node38 -->
<g id="edge43" class="edge">
<title>Node37&#45;&gt;Node38</title>
<path fill="none" stroke="midnightblue" d="M2558,-102.1C2559.66,-93.14 2561.56,-82.86 2562.88,-75.75"/>
<polygon fill="midnightblue" stroke="midnightblue" points="2554.53,-101.61 2556.15,-112.08 2561.41,-102.89 2554.53,-101.61"/>
</g>
<!-- Node40 -->
<g id="node40" class="node">
<title>Node40</title>
<g id="a_node40"><a xlink:href="_m_m_s_forcing_8cpp.html" target="_top" xlink:title=" ">
<polygon fill="white" stroke="black" points="2642.5,-56.5 2642.5,-75.5 2738.5,-75.5 2738.5,-56.5 2642.5,-56.5"/>
<text text-anchor="middle" x="2690.5" y="-63.5" font-family="Helvetica,sans-Serif" font-size="10.00">MMSForcing.cpp</text>
</a>
</g>
</g>
<!-- Node39&#45;&gt;Node40 -->
<g id="edge45" class="edge">
<title>Node39&#45;&gt;Node40</title>
<path fill="none" stroke="midnightblue" d="M2684,-102.1C2685.66,-93.14 2687.56,-82.86 2688.88,-75.75"/>
<polygon fill="midnightblue" stroke="midnightblue" points="2680.53,-101.61 2682.15,-112.08 2687.41,-102.89 2680.53,-101.61"/>
</g>
</g>
</svg>
        <g id="navigator" transform="translate(0 0)" fill="#404254">
                <rect fill="#f2f5e9" fill-opacity="0.5" stroke="#606060" stroke-width=".5" x="0" y="0" width="60" height="60"/>
                <use id="zoomplus" xlink:href="#zoomPlus" x="17" y="9" onmousedown="handleZoom(evt,'in')"/>
                <use id="zoomminus" xlink:href="#zoomMin" x="42" y="9" onmousedown="handleZoom(evt,'out')"/>
                <use id="reset" xlink:href="#resetDef" x="30" y="36" onmousedown="handleReset()"/>
                <g id="arrowUp" xlink:href="#dirArrow" transform="translate(30 24)" onmousedown="handlePan(0,-1)">
                  <use xlink:href="#rim" fill="#404040">
                        <set attributeName="fill" to="#808080" begin="arrowUp.mouseover" end="arrowUp.mouseout"/>
                  </use>
                  <path fill="none" stroke="white" stroke-width="1.5" d="M0,-3.0v7 M-2.5,-0.5L0,-3.0L2.5,-0.5"/>
                </g>
                <g id="arrowRight" xlink:href="#dirArrow" transform="rotate(90) translate(36 -43)" onmousedown="handlePan(1,0)">
                  <use xlink:href="#rim" fill="#404040">
                        <set attributeName="fill" to="#808080" begin="arrowRight.mouseover" end="arrowRight.mouseout"/>
                  </use>
                  <path fill="none" stroke="white" stroke-width="1.5" d="M0,-3.0v7 M-2.5,-0.5L0,-3.0L2.5,-0.5"/>
                </g>
                <g id="arrowDown" xlink:href="#dirArrow" transform="rotate(180) translate(-30 -48)" onmousedown="handlePan(0,1)">
                  <use xlink:href="#rim" fill="#404040">
                        <set attributeName="fill" to="#808080" begin="arrowDown.mouseover" end="arrowDown.mouseout"/>
                  </use>
                  <path fill="none" stroke="white" stroke-width="1.5" d="M0,-3.0v7 M-2.5,-0.5L0,-3.0L2.5,-0.5"/>
                </g>
                <g id="arrowLeft" xlink:href="#dirArrow" transform="rotate(270) translate(-36 17)" onmousedown="handlePan(-1,0)">
                  <use xlink:href="#rim" fill="#404040">
                        <set attributeName="fill" to="#808080" begin="arrowLeft.mouseover" end="arrowLeft.mouseout"/>
                  </use>
                  <path fill="none" stroke="white" stroke-width="1.5" d="M0,-3.0v7 M-2.5,-0.5L0,-3.0L2.5,-0.5"/>
                </g>
        </g>
        <svg viewBox="0 0 15 15" width="100%" height="30px" preserveAspectRatio="xMaxYMin meet">
         <g id="arrow_out" transform="scale(0.3 0.3)">
          <a xlink:href="_momentum_source_8_h__dep__incl_org.svg" target="_base">
           <rect id="button" ry="5" rx="5" y="6" x="6" height="38" width="38"
                fill="#f2f5e9" fill-opacity="0.5" stroke="#606060" stroke-width="1.0"/>
           <path id="arrow"
             d="M 11.500037,31.436501 C 11.940474,20.09759 22.043105,11.32322 32.158766,21.979434 L 37.068811,17.246167 C 37.068811,17.246167 37.088388,32 37.088388,32 L 22.160133,31.978069 C 22.160133,31.978069 26.997745,27.140456 26.997745,27.140456 C 18.528582,18.264221 13.291696,25.230495 11.500037,31.436501 z"
             style="fill:#404040;"/>
          </a>
         </g>
        </svg>
</svg>
