<?xml version="1.0" encoding="UTF-8" standalone="no"?>
<!DOCTYPE svg PUBLIC "-//W3C//DTD SVG 1.1//EN"
 "http://www.w3.org/Graphics/SVG/1.1/DTD/svg11.dtd">
<!-- Generated by graphviz version 2.43.0 (0)
 -->
<!-- Title: MultiPhase.H Pages: 1 -->
<!--zoomable 252 -->
<svg id="main" version="1.1" xmlns="http://www.w3.org/2000/svg" xmlns:xlink="http://www.w3.org/1999/xlink" xml:space="preserve" onload="init(evt)">
<style type="text/css"><![CDATA[
.edge:hover path { stroke: red; }
.edge:hover polygon { stroke: red; fill: red; }
]]></style>
<script type="text/javascript"><![CDATA[
var edges = document.getElementsByTagName('g');
if (edges && edges.length) {
  for (var i=0;i<edges.length;i++) {
    if (edges[i].id.substr(0,4)=='edge') {
      edges[i].setAttribute('class','edge');
    }
  }
}
]]></script>
        <defs>
                <circle id="rim" cx="0" cy="0" r="7"/>
                <circle id="rim2" cx="0" cy="0" r="3.5"/>
                <g id="zoomPlus">
                        <use xlink:href="#rim" fill="#404040">
                                <set attributeName="fill" to="#808080" begin="zoomplus.mouseover" end="zoomplus.mouseout"/>
                        </use>
                        <path d="M-4,0h8M0,-4v8" fill="none" stroke="white" stroke-width="1.5" pointer-events="none"/>
                </g>
                <g id="zoomMin">
                        <use xlink:href="#rim" fill="#404040">
                                <set attributeName="fill" to="#808080" begin="zoomminus.mouseover" end="zoomminus.mouseout"/>
                        </use>
                        <path d="M-4,0h8" fill="none" stroke="white" stroke-width="1.5" pointer-events="none"/>
                </g>
                <g id="dirArrow">
                        <path fill="none" stroke="white" stroke-width="1.5" d="M0,-3.0v7 M-2.5,-0.5L0,-3.0L2.5,-0.5"/>
                </g>
               <g id="resetDef">
                       <use xlink:href="#rim2" fill="#404040">
                               <set attributeName="fill" to="#808080" begin="reset.mouseover" end="reset.mouseout"/>
                       </use>
               </g>
        </defs>

<script type="text/javascript">
var viewWidth = 2265;
var viewHeight = 252;
var sectionId = 'dynsection-1';
</script>
<script xlink:href="svgpan.js"/>
<svg id="graph" class="graph">
<g id="viewport">
<title>MultiPhase.H</title>
<polygon fill="white" stroke="transparent" points="-4,4 -4,-248 2260.5,-248 2260.5,4 -4,4"/>
<!-- Node1 -->
<g id="node1" class="node">
<title>Node1</title>
<g id="a_node1"><a xlink:title=" ">
<polygon fill="#bfbfbf" stroke="black" points="996,-224.5 996,-243.5 1077,-243.5 1077,-224.5 996,-224.5"/>
<text text-anchor="middle" x="1036.5" y="-231.5" font-family="Helvetica,sans-Serif" font-size="10.00">MultiPhase.H</text>
</a>
</g>
</g>
<!-- Node2 -->
<g id="node2" class="node">
<title>Node2</title>
<g id="a_node2"><a xlink:href="levelset__ops_8_h.html" target="_top" xlink:title=" ">
<polygon fill="white" stroke="black" points="0,-168.5 0,-187.5 89,-187.5 89,-168.5 0,-168.5"/>
<text text-anchor="middle" x="44.5" y="-175.5" font-family="Helvetica,sans-Serif" font-size="10.00">levelset_ops.H</text>
</a>
</g>
</g>
<!-- Node1&#45;&gt;Node2 -->
<g id="edge1" class="edge">
<title>Node1&#45;&gt;Node2</title>
<path fill="none" stroke="midnightblue" d="M985.53,-232.71C844.12,-231.44 435.06,-224.62 97.5,-188 94.81,-187.71 92.05,-187.37 89.27,-186.99"/>
<polygon fill="midnightblue" stroke="midnightblue" points="985.61,-236.21 995.64,-232.79 985.67,-229.21 985.61,-236.21"/>
</g>
<!-- Node4 -->
<g id="node4" class="node">
<title>Node4</title>
<g id="a_node4"><a xlink:href="vof__ops_8_h.html" target="_top" xlink:title=" ">
<polygon fill="white" stroke="black" points="107,-168.5 107,-187.5 172,-187.5 172,-168.5 107,-168.5"/>
<text text-anchor="middle" x="139.5" y="-175.5" font-family="Helvetica,sans-Serif" font-size="10.00">vof_ops.H</text>
</a>
</g>
</g>
<!-- Node1&#45;&gt;Node4 -->
<g id="edge3" class="edge">
<title>Node1&#45;&gt;Node4</title>
<path fill="none" stroke="midnightblue" d="M985.51,-233.13C852.56,-232.85 484.58,-228.19 181.5,-188 178.54,-187.61 175.48,-187.12 172.43,-186.57"/>
<polygon fill="midnightblue" stroke="midnightblue" points="985.79,-236.63 995.79,-233.14 985.8,-229.63 985.79,-236.63"/>
</g>
<!-- Node6 -->
<g id="node6" class="node">
<title>Node6</title>
<g id="a_node6"><a xlink:href="_ocean_waves_8cpp.html" target="_top" xlink:title=" ">
<polygon fill="white" stroke="black" points="190.5,-168.5 190.5,-187.5 290.5,-187.5 290.5,-168.5 190.5,-168.5"/>
<text text-anchor="middle" x="240.5" y="-175.5" font-family="Helvetica,sans-Serif" font-size="10.00">OceanWaves.cpp</text>
</a>
</g>
</g>
<!-- Node1&#45;&gt;Node6 -->
<g id="edge5" class="edge">
<title>Node1&#45;&gt;Node6</title>
<path fill="none" stroke="midnightblue" d="M985.3,-231.47C865.22,-227.53 556.25,-215.36 299.5,-188 296.62,-187.69 293.66,-187.34 290.67,-186.97"/>
<polygon fill="midnightblue" stroke="midnightblue" points="985.54,-234.98 995.65,-231.8 985.76,-227.98 985.54,-234.98"/>
</g>
<!-- Node7 -->
<g id="node7" class="node">
<title>Node7</title>
<g id="a_node7"><a xlink:href="hos__waves__ops_8_h.html" target="_top" xlink:title=" ">
<polygon fill="white" stroke="black" points="308.5,-168.5 308.5,-187.5 412.5,-187.5 412.5,-168.5 308.5,-168.5"/>
<text text-anchor="middle" x="360.5" y="-175.5" font-family="Helvetica,sans-Serif" font-size="10.00">hos_waves_ops.H</text>
</a>
</g>
</g>
<!-- Node1&#45;&gt;Node7 -->
<g id="edge6" class="edge">
<title>Node1&#45;&gt;Node7</title>
<path fill="none" stroke="midnightblue" d="M985.71,-230.55C880.32,-225.18 630.3,-211.01 421.5,-188 418.63,-187.68 415.68,-187.33 412.71,-186.96"/>
<polygon fill="midnightblue" stroke="midnightblue" points="985.58,-234.05 995.75,-231.06 985.94,-227.06 985.58,-234.05"/>
</g>
<!-- Node9 -->
<g id="node9" class="node">
<title>Node9</title>
<g id="a_node9"><a xlink:href="linear__waves__ops_8_h.html" target="_top" xlink:title=" ">
<polygon fill="white" stroke="black" points="430.5,-168.5 430.5,-187.5 544.5,-187.5 544.5,-168.5 430.5,-168.5"/>
<text text-anchor="middle" x="487.5" y="-175.5" font-family="Helvetica,sans-Serif" font-size="10.00">linear_waves_ops.H</text>
</a>
</g>
</g>
<!-- Node1&#45;&gt;Node9 -->
<g id="edge8" class="edge">
<title>Node1&#45;&gt;Node9</title>
<path fill="none" stroke="midnightblue" d="M985.74,-228.99C897.66,-221.86 710.84,-206.05 553.5,-188 550.63,-187.67 547.69,-187.32 544.72,-186.95"/>
<polygon fill="midnightblue" stroke="midnightblue" points="985.48,-232.48 995.73,-229.79 986.04,-225.5 985.48,-232.48"/>
</g>
<!-- Node11 -->
<g id="node11" class="node">
<title>Node11</title>
<g id="a_node11"><a xlink:href="relaxation__zones__ops_8cpp.html" target="_top" xlink:title=" ">
<polygon fill="white" stroke="black" points="563,-168.5 563,-187.5 706,-187.5 706,-168.5 563,-168.5"/>
<text text-anchor="middle" x="634.5" y="-175.5" font-family="Helvetica,sans-Serif" font-size="10.00">relaxation_zones_ops.cpp</text>
</a>
</g>
</g>
<!-- Node1&#45;&gt;Node11 -->
<g id="edge10" class="edge">
<title>Node1&#45;&gt;Node11</title>
<path fill="none" stroke="midnightblue" d="M985.4,-226.14C912.2,-216.3 777.58,-198.22 698.06,-187.54"/>
<polygon fill="midnightblue" stroke="midnightblue" points="985.36,-229.66 995.74,-227.53 986.3,-222.72 985.36,-229.66"/>
</g>
<!-- Node12 -->
<g id="node12" class="node">
<title>Node12</title>
<g id="a_node12"><a xlink:href="stokes__waves__ops_8_h.html" target="_top" xlink:title=" ">
<polygon fill="white" stroke="black" points="724.5,-168.5 724.5,-187.5 842.5,-187.5 842.5,-168.5 724.5,-168.5"/>
<text text-anchor="middle" x="783.5" y="-175.5" font-family="Helvetica,sans-Serif" font-size="10.00">stokes_waves_ops.H</text>
</a>
</g>
</g>
<!-- Node1&#45;&gt;Node12 -->
<g id="edge11" class="edge">
<title>Node1&#45;&gt;Node12</title>
<path fill="none" stroke="midnightblue" d="M986.58,-222.35C938.77,-212.14 867.55,-196.94 823.4,-187.52"/>
<polygon fill="midnightblue" stroke="midnightblue" points="985.9,-225.78 996.41,-224.44 987.36,-218.93 985.9,-225.78"/>
</g>
<!-- Node14 -->
<g id="node14" class="node">
<title>Node14</title>
<g id="a_node14"><a xlink:href="_breaking_waves_8cpp.html" target="_top" xlink:title=" ">
<polygon fill="white" stroke="black" points="861,-168.5 861,-187.5 974,-187.5 974,-168.5 861,-168.5"/>
<text text-anchor="middle" x="917.5" y="-175.5" font-family="Helvetica,sans-Serif" font-size="10.00">BreakingWaves.cpp</text>
</a>
</g>
</g>
<!-- Node1&#45;&gt;Node14 -->
<g id="edge13" class="edge">
<title>Node1&#45;&gt;Node14</title>
<path fill="none" stroke="midnightblue" d="M1008.36,-220.23C986.1,-210.13 955.64,-196.31 936.27,-187.52"/>
<polygon fill="midnightblue" stroke="midnightblue" points="1007.09,-223.5 1017.64,-224.44 1009.98,-217.12 1007.09,-223.5"/>
</g>
<!-- Node15 -->
<g id="node15" class="node">
<title>Node15</title>
<g id="a_node15"><a xlink:href="_dam_break_8cpp.html" target="_top" xlink:title=" ">
<polygon fill="white" stroke="black" points="992,-168.5 992,-187.5 1081,-187.5 1081,-168.5 992,-168.5"/>
<text text-anchor="middle" x="1036.5" y="-175.5" font-family="Helvetica,sans-Serif" font-size="10.00">DamBreak.cpp</text>
</a>
</g>
</g>
<!-- Node1&#45;&gt;Node15 -->
<g id="edge14" class="edge">
<title>Node1&#45;&gt;Node15</title>
<path fill="none" stroke="midnightblue" d="M1036.5,-213.8C1036.5,-204.91 1036.5,-194.78 1036.5,-187.75"/>
<polygon fill="midnightblue" stroke="midnightblue" points="1033,-214.08 1036.5,-224.08 1040,-214.08 1033,-214.08"/>
</g>
<!-- Node16 -->
<g id="node16" class="node">
<title>Node16</title>
<g id="a_node16"><a xlink:href="_multi_phase_8cpp.html" target="_top" xlink:title=" ">
<polygon fill="white" stroke="black" points="1099,-168.5 1099,-187.5 1190,-187.5 1190,-168.5 1099,-168.5"/>
<text text-anchor="middle" x="1144.5" y="-175.5" font-family="Helvetica,sans-Serif" font-size="10.00">MultiPhase.cpp</text>
</a>
</g>
</g>
<!-- Node1&#45;&gt;Node16 -->
<g id="edge15" class="edge">
<title>Node1&#45;&gt;Node16</title>
<path fill="none" stroke="midnightblue" d="M1063.05,-219.73C1083.05,-209.73 1109.89,-196.31 1127.19,-187.65"/>
<polygon fill="midnightblue" stroke="midnightblue" points="1061.23,-216.72 1053.85,-224.32 1064.36,-222.98 1061.23,-216.72"/>
</g>
<!-- Node17 -->
<g id="node17" class="node">
<title>Node17</title>
<g id="a_node17"><a xlink:href="_rain_drop_8cpp.html" target="_top" xlink:title=" ">
<polygon fill="white" stroke="black" points="1208.5,-168.5 1208.5,-187.5 1290.5,-187.5 1290.5,-168.5 1208.5,-168.5"/>
<text text-anchor="middle" x="1249.5" y="-175.5" font-family="Helvetica,sans-Serif" font-size="10.00">RainDrop.cpp</text>
</a>
</g>
</g>
<!-- Node1&#45;&gt;Node17 -->
<g id="edge16" class="edge">
<title>Node1&#45;&gt;Node17</title>
<path fill="none" stroke="midnightblue" d="M1080.05,-221.96C1120.28,-211.76 1179.2,-196.82 1215.91,-187.52"/>
<polygon fill="midnightblue" stroke="midnightblue" points="1079.08,-218.59 1070.25,-224.44 1080.8,-225.38 1079.08,-218.59"/>
</g>
<!-- Node18 -->
<g id="node18" class="node">
<title>Node18</title>
<g id="a_node18"><a xlink:href="_vortex_patch_8cpp.html" target="_top" xlink:title=" ">
<polygon fill="white" stroke="black" points="1309,-168.5 1309,-187.5 1404,-187.5 1404,-168.5 1309,-168.5"/>
<text text-anchor="middle" x="1356.5" y="-175.5" font-family="Helvetica,sans-Serif" font-size="10.00">VortexPatch.cpp</text>
</a>
</g>
</g>
<!-- Node1&#45;&gt;Node18 -->
<g id="edge17" class="edge">
<title>Node1&#45;&gt;Node18</title>
<path fill="none" stroke="midnightblue" d="M1087.16,-224.45C1148,-214.18 1249.25,-197.1 1308.76,-187.06"/>
<polygon fill="midnightblue" stroke="midnightblue" points="1086.31,-221.05 1077.03,-226.16 1087.47,-227.95 1086.31,-221.05"/>
</g>
<!-- Node19 -->
<g id="node19" class="node">
<title>Node19</title>
<g id="a_node19"><a xlink:href="_vortex_patch_scalar_vel_8cpp.html" target="_top" xlink:title=" ">
<polygon fill="white" stroke="black" points="1422.5,-168.5 1422.5,-187.5 1562.5,-187.5 1562.5,-168.5 1422.5,-168.5"/>
<text text-anchor="middle" x="1492.5" y="-175.5" font-family="Helvetica,sans-Serif" font-size="10.00">VortexPatchScalarVel.cpp</text>
</a>
</g>
</g>
<!-- Node1&#45;&gt;Node19 -->
<g id="edge18" class="edge">
<title>Node1&#45;&gt;Node19</title>
<path fill="none" stroke="midnightblue" d="M1087.41,-226.97C1169.18,-217.29 1329.93,-198.25 1422.45,-187.3"/>
<polygon fill="midnightblue" stroke="midnightblue" points="1086.89,-223.51 1077.37,-228.16 1087.71,-230.46 1086.89,-223.51"/>
</g>
<!-- Node20 -->
<g id="node20" class="node">
<title>Node20</title>
<g id="a_node20"><a xlink:href="_zalesak_disk_8cpp.html" target="_top" xlink:title=" ">
<polygon fill="white" stroke="black" points="1580.5,-168.5 1580.5,-187.5 1678.5,-187.5 1678.5,-168.5 1580.5,-168.5"/>
<text text-anchor="middle" x="1629.5" y="-175.5" font-family="Helvetica,sans-Serif" font-size="10.00">ZalesakDisk.cpp</text>
</a>
</g>
</g>
<!-- Node1&#45;&gt;Node20 -->
<g id="edge19" class="edge">
<title>Node1&#45;&gt;Node20</title>
<path fill="none" stroke="midnightblue" d="M1087.42,-229.91C1182.67,-223.86 1394.2,-209.19 1571.5,-188 1574.43,-187.65 1577.45,-187.26 1580.49,-186.85"/>
<polygon fill="midnightblue" stroke="midnightblue" points="1086.96,-226.43 1077.2,-230.55 1087.4,-233.42 1086.96,-226.43"/>
</g>
<!-- Node21 -->
<g id="node21" class="node">
<title>Node21</title>
<g id="a_node21"><a xlink:href="_zalesak_disk_scalar_vel_8cpp.html" target="_top" xlink:title=" ">
<polygon fill="white" stroke="black" points="1697,-168.5 1697,-187.5 1840,-187.5 1840,-168.5 1697,-168.5"/>
<text text-anchor="middle" x="1768.5" y="-175.5" font-family="Helvetica,sans-Serif" font-size="10.00">ZalesakDiskScalarVel.cpp</text>
</a>
</g>
</g>
<!-- Node1&#45;&gt;Node21 -->
<g id="edge20" class="edge">
<title>Node1&#45;&gt;Node21</title>
<path fill="none" stroke="midnightblue" d="M1087.42,-230.2C1197.19,-224.02 1464.24,-208.11 1687.5,-188 1690.6,-187.72 1693.77,-187.42 1696.96,-187.11"/>
<polygon fill="midnightblue" stroke="midnightblue" points="1087.09,-226.72 1077.3,-230.77 1087.48,-233.71 1087.09,-226.72"/>
</g>
<!-- Node22 -->
<g id="node22" class="node">
<title>Node22</title>
<g id="a_node22"><a xlink:href="_two_phase_transport_8_h.html" target="_top" xlink:title=" ">
<polygon fill="white" stroke="black" points="1858.5,-168.5 1858.5,-187.5 1978.5,-187.5 1978.5,-168.5 1858.5,-168.5"/>
<text text-anchor="middle" x="1918.5" y="-175.5" font-family="Helvetica,sans-Serif" font-size="10.00">TwoPhaseTransport.H</text>
</a>
</g>
</g>
<!-- Node1&#45;&gt;Node22 -->
<g id="edge21" class="edge">
<title>Node1&#45;&gt;Node22</title>
<path fill="none" stroke="midnightblue" d="M1087.41,-231.46C1215.48,-227.31 1561.32,-214.38 1848.5,-188 1851.67,-187.71 1854.92,-187.38 1858.2,-187.03"/>
<polygon fill="midnightblue" stroke="midnightblue" points="1087.01,-227.97 1077.13,-231.79 1087.24,-234.97 1087.01,-227.97"/>
</g>
<!-- Node32 -->
<g id="node32" class="node">
<title>Node32</title>
<g id="a_node32"><a xlink:href="_wave_energy_8cpp.html" target="_top" xlink:title=" ">
<polygon fill="white" stroke="black" points="1996.5,-168.5 1996.5,-187.5 2092.5,-187.5 2092.5,-168.5 1996.5,-168.5"/>
<text text-anchor="middle" x="2044.5" y="-175.5" font-family="Helvetica,sans-Serif" font-size="10.00">WaveEnergy.cpp</text>
</a>
</g>
</g>
<!-- Node1&#45;&gt;Node32 -->
<g id="edge33" class="edge">
<title>Node1&#45;&gt;Node32</title>
<path fill="none" stroke="midnightblue" d="M1087.6,-232.54C1230.29,-230.85 1645.01,-223.04 1987.5,-188 1990.39,-187.7 1993.36,-187.36 1996.35,-186.98"/>
<polygon fill="midnightblue" stroke="midnightblue" points="1087.36,-229.05 1077.4,-232.66 1087.44,-236.05 1087.36,-229.05"/>
</g>
<!-- Node3 -->
<g id="node3" class="node">
<title>Node3</title>
<g id="a_node3"><a xlink:href="levelset_8cpp.html" target="_top" xlink:title=" ">
<polygon fill="white" stroke="black" points="6.5,-112.5 6.5,-131.5 82.5,-131.5 82.5,-112.5 6.5,-112.5"/>
<text text-anchor="middle" x="44.5" y="-119.5" font-family="Helvetica,sans-Serif" font-size="10.00">levelset.cpp</text>
</a>
</g>
</g>
<!-- Node2&#45;&gt;Node3 -->
<g id="edge2" class="edge">
<title>Node2&#45;&gt;Node3</title>
<path fill="none" stroke="midnightblue" d="M44.5,-157.8C44.5,-148.91 44.5,-138.78 44.5,-131.75"/>
<polygon fill="midnightblue" stroke="midnightblue" points="41,-158.08 44.5,-168.08 48,-158.08 41,-158.08"/>
</g>
<!-- Node5 -->
<g id="node5" class="node">
<title>Node5</title>
<g id="a_node5"><a xlink:href="vof_8cpp.html" target="_top" xlink:title=" ">
<polygon fill="white" stroke="black" points="113.5,-112.5 113.5,-131.5 165.5,-131.5 165.5,-112.5 113.5,-112.5"/>
<text text-anchor="middle" x="139.5" y="-119.5" font-family="Helvetica,sans-Serif" font-size="10.00">vof.cpp</text>
</a>
</g>
</g>
<!-- Node4&#45;&gt;Node5 -->
<g id="edge4" class="edge">
<title>Node4&#45;&gt;Node5</title>
<path fill="none" stroke="midnightblue" d="M139.5,-157.8C139.5,-148.91 139.5,-138.78 139.5,-131.75"/>
<polygon fill="midnightblue" stroke="midnightblue" points="136,-158.08 139.5,-168.08 143,-158.08 136,-158.08"/>
</g>
<!-- Node8 -->
<g id="node8" class="node">
<title>Node8</title>
<g id="a_node8"><a xlink:href="_h_o_s_waves_8cpp.html" target="_top" xlink:title=" ">
<polygon fill="white" stroke="black" points="315.5,-112.5 315.5,-131.5 405.5,-131.5 405.5,-112.5 315.5,-112.5"/>
<text text-anchor="middle" x="360.5" y="-119.5" font-family="Helvetica,sans-Serif" font-size="10.00">HOSWaves.cpp</text>
</a>
</g>
</g>
<!-- Node7&#45;&gt;Node8 -->
<g id="edge7" class="edge">
<title>Node7&#45;&gt;Node8</title>
<path fill="none" stroke="midnightblue" d="M360.5,-157.8C360.5,-148.91 360.5,-138.78 360.5,-131.75"/>
<polygon fill="midnightblue" stroke="midnightblue" points="357,-158.08 360.5,-168.08 364,-158.08 357,-158.08"/>
</g>
<!-- Node10 -->
<g id="node10" class="node">
<title>Node10</title>
<g id="a_node10"><a xlink:href="_linear_waves_8cpp.html" target="_top" xlink:title=" ">
<polygon fill="white" stroke="black" points="438,-112.5 438,-131.5 537,-131.5 537,-112.5 438,-112.5"/>
<text text-anchor="middle" x="487.5" y="-119.5" font-family="Helvetica,sans-Serif" font-size="10.00">LinearWaves.cpp</text>
</a>
</g>
</g>
<!-- Node9&#45;&gt;Node10 -->
<g id="edge9" class="edge">
<title>Node9&#45;&gt;Node10</title>
<path fill="none" stroke="midnightblue" d="M487.5,-157.8C487.5,-148.91 487.5,-138.78 487.5,-131.75"/>
<polygon fill="midnightblue" stroke="midnightblue" points="484,-158.08 487.5,-168.08 491,-158.08 484,-158.08"/>
</g>
<!-- Node13 -->
<g id="node13" class="node">
<title>Node13</title>
<g id="a_node13"><a xlink:href="_stokes_waves_8cpp.html" target="_top" xlink:title=" ">
<polygon fill="white" stroke="black" points="733,-112.5 733,-131.5 834,-131.5 834,-112.5 733,-112.5"/>
<text text-anchor="middle" x="783.5" y="-119.5" font-family="Helvetica,sans-Serif" font-size="10.00">StokesWaves.cpp</text>
</a>
</g>
</g>
<!-- Node12&#45;&gt;Node13 -->
<g id="edge12" class="edge">
<title>Node12&#45;&gt;Node13</title>
<path fill="none" stroke="midnightblue" d="M783.5,-157.8C783.5,-148.91 783.5,-138.78 783.5,-131.75"/>
<polygon fill="midnightblue" stroke="midnightblue" points="780,-158.08 783.5,-168.08 787,-158.08 780,-158.08"/>
</g>
<!-- Node23 -->
<g id="node23" class="node">
<title>Node23</title>
<g id="a_node23"><a xlink:href="_turb_model_defs_8_h.html" target="_top" xlink:title=" ">
<polygon fill="white" stroke="black" points="1868.5,-112.5 1868.5,-131.5 1968.5,-131.5 1968.5,-112.5 1868.5,-112.5"/>
<text text-anchor="middle" x="1918.5" y="-119.5" font-family="Helvetica,sans-Serif" font-size="10.00">TurbModelDefs.H</text>
</a>
</g>
</g>
<!-- Node22&#45;&gt;Node23 -->
<g id="edge22" class="edge">
<title>Node22&#45;&gt;Node23</title>
<path fill="none" stroke="midnightblue" d="M1918.5,-157.8C1918.5,-148.91 1918.5,-138.78 1918.5,-131.75"/>
<polygon fill="midnightblue" stroke="midnightblue" points="1915,-158.08 1918.5,-168.08 1922,-158.08 1915,-158.08"/>
</g>
<!-- Node24 -->
<g id="node24" class="node">
<title>Node24</title>
<g id="a_node24"><a xlink:href="_laminar_model_8cpp.html" target="_top" xlink:title=" ">
<polygon fill="white" stroke="black" points="1489,-56.5 1489,-75.5 1596,-75.5 1596,-56.5 1489,-56.5"/>
<text text-anchor="middle" x="1542.5" y="-63.5" font-family="Helvetica,sans-Serif" font-size="10.00">LaminarModel.cpp</text>
</a>
</g>
</g>
<!-- Node23&#45;&gt;Node24 -->
<g id="edge23" class="edge">
<title>Node23&#45;&gt;Node24</title>
<path fill="none" stroke="midnightblue" d="M1857.85,-112.29C1785.41,-101.89 1665.37,-84.65 1596.16,-74.71"/>
<polygon fill="midnightblue" stroke="midnightblue" points="1857.79,-115.82 1868.18,-113.77 1858.78,-108.89 1857.79,-115.82"/>
</g>
<!-- Node25 -->
<g id="node25" class="node">
<title>Node25</title>
<g id="a_node25"><a xlink:href="_a_m_d_8cpp.html" target="_top" xlink:title=" ">
<polygon fill="white" stroke="black" points="1614.5,-56.5 1614.5,-75.5 1674.5,-75.5 1674.5,-56.5 1614.5,-56.5"/>
<text text-anchor="middle" x="1644.5" y="-63.5" font-family="Helvetica,sans-Serif" font-size="10.00">AMD.cpp</text>
</a>
</g>
</g>
<!-- Node23&#45;&gt;Node25 -->
<g id="edge24" class="edge">
<title>Node23&#45;&gt;Node25</title>
<path fill="none" stroke="midnightblue" d="M1861.01,-110.61C1813.36,-101.86 1743.9,-88.75 1683.5,-76 1680.64,-75.4 1677.68,-74.75 1674.71,-74.09"/>
<polygon fill="midnightblue" stroke="midnightblue" points="1860.67,-114.11 1871.13,-112.47 1861.93,-107.23 1860.67,-114.11"/>
</g>
<!-- Node26 -->
<g id="node26" class="node">
<title>Node26</title>
<g id="a_node26"><a xlink:href="_a_m_d_no_therm_8cpp.html" target="_top" xlink:title=" ">
<polygon fill="white" stroke="black" points="1693,-56.5 1693,-75.5 1798,-75.5 1798,-56.5 1693,-56.5"/>
<text text-anchor="middle" x="1745.5" y="-63.5" font-family="Helvetica,sans-Serif" font-size="10.00">AMDNoTherm.cpp</text>
</a>
</g>
</g>
<!-- Node23&#45;&gt;Node26 -->
<g id="edge25" class="edge">
<title>Node23&#45;&gt;Node26</title>
<path fill="none" stroke="midnightblue" d="M1881.45,-109.44C1848.84,-99.26 1802.09,-84.66 1772.78,-75.52"/>
<polygon fill="midnightblue" stroke="midnightblue" points="1880.5,-112.8 1891.09,-112.44 1882.58,-106.12 1880.5,-112.8"/>
</g>
<!-- Node27 -->
<g id="node27" class="node">
<title>Node27</title>
<g id="a_node27"><a xlink:href="_one_eq_ksgs_8cpp.html" target="_top" xlink:title=" ">
<polygon fill="white" stroke="black" points="1816.5,-56.5 1816.5,-75.5 1908.5,-75.5 1908.5,-56.5 1816.5,-56.5"/>
<text text-anchor="middle" x="1862.5" y="-63.5" font-family="Helvetica,sans-Serif" font-size="10.00">OneEqKsgs.cpp</text>
</a>
</g>
</g>
<!-- Node23&#45;&gt;Node27 -->
<g id="edge26" class="edge">
<title>Node23&#45;&gt;Node27</title>
<path fill="none" stroke="midnightblue" d="M1902.17,-105.25C1892.24,-95.67 1879.91,-83.79 1871.66,-75.83"/>
<polygon fill="midnightblue" stroke="midnightblue" points="1899.87,-107.9 1909.5,-112.32 1904.73,-102.86 1899.87,-107.9"/>
</g>
<!-- Node28 -->
<g id="node28" class="node">
<title>Node28</title>
<g id="a_node28"><a xlink:href="_smagorinsky_8cpp.html" target="_top" xlink:title=" ">
<polygon fill="white" stroke="black" points="1926.5,-56.5 1926.5,-75.5 2024.5,-75.5 2024.5,-56.5 1926.5,-56.5"/>
<text text-anchor="middle" x="1975.5" y="-63.5" font-family="Helvetica,sans-Serif" font-size="10.00">Smagorinsky.cpp</text>
</a>
</g>
</g>
<!-- Node23&#45;&gt;Node28 -->
<g id="edge27" class="edge">
<title>Node23&#45;&gt;Node28</title>
<path fill="none" stroke="midnightblue" d="M1935.12,-105.25C1945.23,-95.67 1957.78,-83.79 1966.18,-75.83"/>
<polygon fill="midnightblue" stroke="midnightblue" points="1932.51,-102.91 1927.66,-112.32 1937.32,-107.99 1932.51,-102.91"/>
</g>
<!-- Node29 -->
<g id="node29" class="node">
<title>Node29</title>
<g id="a_node29"><a xlink:href="_k_omega_s_s_t_8cpp.html" target="_top" xlink:title=" ">
<polygon fill="white" stroke="black" points="2013,-0.5 2013,-19.5 2108,-19.5 2108,-0.5 2013,-0.5"/>
<text text-anchor="middle" x="2060.5" y="-7.5" font-family="Helvetica,sans-Serif" font-size="10.00">KOmegaSST.cpp</text>
</a>
</g>
</g>
<!-- Node23&#45;&gt;Node29 -->
<g id="edge28" class="edge">
<title>Node23&#45;&gt;Node29</title>
<path fill="none" stroke="midnightblue" d="M1972.83,-109.5C1993.94,-102.73 2016.97,-92.19 2033.5,-76 2049.56,-60.27 2056.48,-33.57 2059.11,-19.8"/>
<polygon fill="midnightblue" stroke="midnightblue" points="1971.56,-106.23 1962.98,-112.44 1973.56,-112.93 1971.56,-106.23"/>
</g>
<!-- Node30 -->
<g id="node30" class="node">
<title>Node30</title>
<g id="a_node30"><a xlink:href="_k_omega_s_s_t_i_8_h.html" target="_top" xlink:title=" ">
<polygon fill="white" stroke="black" points="2081,-56.5 2081,-75.5 2170,-75.5 2170,-56.5 2081,-56.5"/>
<text text-anchor="middle" x="2125.5" y="-63.5" font-family="Helvetica,sans-Serif" font-size="10.00">KOmegaSSTI.H</text>
</a>
</g>
</g>
<!-- Node23&#45;&gt;Node30 -->
<g id="edge29" class="edge">
<title>Node23&#45;&gt;Node30</title>
<path fill="none" stroke="midnightblue" d="M1961.32,-109.83C2000.41,-99.63 2057.33,-84.78 2092.85,-75.52"/>
<polygon fill="midnightblue" stroke="midnightblue" points="1960.09,-106.53 1951.3,-112.44 1961.86,-113.31 1960.09,-106.53"/>
</g>
<!-- Node31 -->
<g id="node31" class="node">
<title>Node31</title>
<g id="a_node31"><a xlink:href="_k_omega_s_s_t_i_d_d_e_s_8cpp.html" target="_top" xlink:title=" ">
<polygon fill="white" stroke="black" points="2130.5,-0.5 2130.5,-19.5 2256.5,-19.5 2256.5,-0.5 2130.5,-0.5"/>
<text text-anchor="middle" x="2193.5" y="-7.5" font-family="Helvetica,sans-Serif" font-size="10.00">KOmegaSSTIDDES.cpp</text>
</a>
</g>
</g>
<!-- Node23&#45;&gt;Node31 -->
<g id="edge32" class="edge">
<title>Node23&#45;&gt;Node31</title>
<path fill="none" stroke="midnightblue" d="M1978.63,-118.14C2046.28,-113.67 2150.41,-102.58 2178.5,-76 2194.15,-61.2 2194.98,-33.59 2194.26,-19.6"/>
<polygon fill="midnightblue" stroke="midnightblue" points="1978.28,-114.66 1968.52,-118.78 1978.72,-121.65 1978.28,-114.66"/>
</g>
<!-- Node30&#45;&gt;Node29 -->
<g id="edge30" class="edge">
<title>Node30&#45;&gt;Node29</title>
<path fill="none" stroke="midnightblue" d="M2107.23,-49.82C2095.58,-40.15 2080.9,-27.95 2071.13,-19.83"/>
<polygon fill="midnightblue" stroke="midnightblue" points="2105.13,-52.63 2115.06,-56.32 2109.6,-47.24 2105.13,-52.63"/>
</g>
<!-- Node30&#45;&gt;Node31 -->
<g id="edge31" class="edge">
<title>Node30&#45;&gt;Node31</title>
<path fill="none" stroke="midnightblue" d="M2144.26,-50.1C2156.5,-40.38 2172.06,-28.03 2182.38,-19.83"/>
<polygon fill="midnightblue" stroke="midnightblue" points="2142.08,-47.36 2136.43,-56.32 2146.43,-52.85 2142.08,-47.36"/>
</g>
</g>
</svg>
        <g id="navigator" transform="translate(0 0)" fill="#404254">
                <rect fill="#f2f5e9" fill-opacity="0.5" stroke="#606060" stroke-width=".5" x="0" y="0" width="60" height="60"/>
                <use id="zoomplus" xlink:href="#zoomPlus" x="17" y="9" onmousedown="handleZoom(evt,'in')"/>
                <use id="zoomminus" xlink:href="#zoomMin" x="42" y="9" onmousedown="handleZoom(evt,'out')"/>
                <use id="reset" xlink:href="#resetDef" x="30" y="36" onmousedown="handleReset()"/>
                <g id="arrowUp" xlink:href="#dirArrow" transform="translate(30 24)" onmousedown="handlePan(0,-1)">
                  <use xlink:href="#rim" fill="#404040">
                        <set attributeName="fill" to="#808080" begin="arrowUp.mouseover" end="arrowUp.mouseout"/>
                  </use>
                  <path fill="none" stroke="white" stroke-width="1.5" d="M0,-3.0v7 M-2.5,-0.5L0,-3.0L2.5,-0.5"/>
                </g>
                <g id="arrowRight" xlink:href="#dirArrow" transform="rotate(90) translate(36 -43)" onmousedown="handlePan(1,0)">
                  <use xlink:href="#rim" fill="#404040">
                        <set attributeName="fill" to="#808080" begin="arrowRight.mouseover" end="arrowRight.mouseout"/>
                  </use>
                  <path fill="none" stroke="white" stroke-width="1.5" d="M0,-3.0v7 M-2.5,-0.5L0,-3.0L2.5,-0.5"/>
                </g>
                <g id="arrowDown" xlink:href="#dirArrow" transform="rotate(180) translate(-30 -48)" onmousedown="handlePan(0,1)">
                  <use xlink:href="#rim" fill="#404040">
                        <set attributeName="fill" to="#808080" begin="arrowDown.mouseover" end="arrowDown.mouseout"/>
                  </use>
                  <path fill="none" stroke="white" stroke-width="1.5" d="M0,-3.0v7 M-2.5,-0.5L0,-3.0L2.5,-0.5"/>
                </g>
                <g id="arrowLeft" xlink:href="#dirArrow" transform="rotate(270) translate(-36 17)" onmousedown="handlePan(-1,0)">
                  <use xlink:href="#rim" fill="#404040">
                        <set attributeName="fill" to="#808080" begin="arrowLeft.mouseover" end="arrowLeft.mouseout"/>
                  </use>
                  <path fill="none" stroke="white" stroke-width="1.5" d="M0,-3.0v7 M-2.5,-0.5L0,-3.0L2.5,-0.5"/>
                </g>
        </g>
        <svg viewBox="0 0 15 15" width="100%" height="30px" preserveAspectRatio="xMaxYMin meet">
         <g id="arrow_out" transform="scale(0.3 0.3)">
          <a xlink:href="_multi_phase_8_h__dep__incl_org.svg" target="_base">
           <rect id="button" ry="5" rx="5" y="6" x="6" height="38" width="38"
                fill="#f2f5e9" fill-opacity="0.5" stroke="#606060" stroke-width="1.0"/>
           <path id="arrow"
             d="M 11.500037,31.436501 C 11.940474,20.09759 22.043105,11.32322 32.158766,21.979434 L 37.068811,17.246167 C 37.068811,17.246167 37.088388,32 37.088388,32 L 22.160133,31.978069 C 22.160133,31.978069 26.997745,27.140456 26.997745,27.140456 C 18.528582,18.264221 13.291696,25.230495 11.500037,31.436501 z"
             style="fill:#404040;"/>
          </a>
         </g>
        </svg>
</svg>
