<?xml version="1.0" encoding="UTF-8" standalone="no"?>
<!DOCTYPE svg PUBLIC "-//W3C//DTD SVG 1.1//EN"
 "http://www.w3.org/Graphics/SVG/1.1/DTD/svg11.dtd">
<!-- Generated by graphviz version 2.43.0 (0)
 -->
<!-- Title: PDE.H Pages: 1 -->
<svg width="2116pt" height="196pt"
 viewBox="0.00 0.00 2115.50 196.00" xmlns="http://www.w3.org/2000/svg" xmlns:xlink="http://www.w3.org/1999/xlink">
<g id="graph0" class="graph" transform="scale(1 1) rotate(0) translate(4 192)">
<title>PDE.H</title>
<polygon fill="white" stroke="transparent" points="-4,4 -4,-192 2111.5,-192 2111.5,4 -4,4"/>
<!-- Node1 -->
<g id="node1" class="node">
<title>Node1</title>
<g id="a_node1"><a xlink:title=" ">
<polygon fill="#bfbfbf" stroke="black" points="1081,-168.5 1081,-187.5 1128,-187.5 1128,-168.5 1081,-168.5"/>
<text text-anchor="middle" x="1104.5" y="-175.5" font-family="Helvetica,sans-Serif" font-size="10.00">PDE.H</text>
</a>
</g>
</g>
<!-- Node2 -->
<g id="node2" class="node">
<title>Node2</title>
<g id="a_node2"><a xlink:href="density_8_h.html" target="_top" xlink:title=" ">
<polygon fill="white" stroke="black" points="39.5,-112.5 39.5,-131.5 101.5,-131.5 101.5,-112.5 39.5,-112.5"/>
<text text-anchor="middle" x="70.5" y="-119.5" font-family="Helvetica,sans-Serif" font-size="10.00">density.H</text>
</a>
</g>
</g>
<!-- Node1&#45;&gt;Node2 -->
<g id="edge1" class="edge">
<title>Node1&#45;&gt;Node2</title>
<path fill="none" stroke="midnightblue" d="M1070.95,-175.25C914.02,-167.05 253.57,-132.56 101.72,-124.63"/>
<polygon fill="midnightblue" stroke="midnightblue" points="1070.79,-178.74 1080.96,-175.77 1071.16,-171.75 1070.79,-178.74"/>
</g>
<!-- Node5 -->
<g id="node5" class="node">
<title>Node5</title>
<g id="a_node5"><a xlink:href="icns_8_h.html" target="_top" xlink:title=" ">
<polygon fill="white" stroke="black" points="562,-112.5 562,-131.5 609,-131.5 609,-112.5 562,-112.5"/>
<text text-anchor="middle" x="585.5" y="-119.5" font-family="Helvetica,sans-Serif" font-size="10.00">icns.H</text>
</a>
</g>
</g>
<!-- Node1&#45;&gt;Node5 -->
<g id="edge5" class="edge">
<title>Node1&#45;&gt;Node5</title>
<path fill="none" stroke="midnightblue" d="M1070.67,-173.48C973.1,-163.33 692.84,-134.17 609.29,-125.48"/>
<polygon fill="midnightblue" stroke="midnightblue" points="1070.54,-176.99 1080.85,-174.54 1071.27,-170.02 1070.54,-176.99"/>
</g>
<!-- Node14 -->
<g id="node14" class="node">
<title>Node14</title>
<g id="a_node14"><a xlink:href="levelset_8_h.html" target="_top" xlink:title=" ">
<polygon fill="white" stroke="black" points="877.5,-112.5 877.5,-131.5 943.5,-131.5 943.5,-112.5 877.5,-112.5"/>
<text text-anchor="middle" x="910.5" y="-119.5" font-family="Helvetica,sans-Serif" font-size="10.00">levelset.H</text>
</a>
</g>
</g>
<!-- Node1&#45;&gt;Node14 -->
<g id="edge18" class="edge">
<title>Node1&#45;&gt;Node14</title>
<path fill="none" stroke="midnightblue" d="M1071.02,-167.68C1034.51,-157.52 976.57,-141.39 941.2,-131.55"/>
<polygon fill="midnightblue" stroke="midnightblue" points="1070.14,-171.07 1080.71,-170.38 1072.02,-164.33 1070.14,-171.07"/>
</g>
<!-- Node17 -->
<g id="node17" class="node">
<title>Node17</title>
<g id="a_node17"><a xlink:href="_s_d_r_8_h.html" target="_top" xlink:title=" ">
<polygon fill="white" stroke="black" points="1081,-112.5 1081,-131.5 1128,-131.5 1128,-112.5 1081,-112.5"/>
<text text-anchor="middle" x="1104.5" y="-119.5" font-family="Helvetica,sans-Serif" font-size="10.00">SDR.H</text>
</a>
</g>
</g>
<!-- Node1&#45;&gt;Node17 -->
<g id="edge22" class="edge">
<title>Node1&#45;&gt;Node17</title>
<path fill="none" stroke="midnightblue" d="M1104.5,-157.8C1104.5,-148.91 1104.5,-138.78 1104.5,-131.75"/>
<polygon fill="midnightblue" stroke="midnightblue" points="1101,-158.08 1104.5,-168.08 1108,-158.08 1101,-158.08"/>
</g>
<!-- Node23 -->
<g id="node23" class="node">
<title>Node23</title>
<g id="a_node23"><a xlink:href="temperature_8_h.html" target="_top" xlink:title=" ">
<polygon fill="white" stroke="black" points="1546.5,-112.5 1546.5,-131.5 1634.5,-131.5 1634.5,-112.5 1546.5,-112.5"/>
<text text-anchor="middle" x="1590.5" y="-119.5" font-family="Helvetica,sans-Serif" font-size="10.00">temperature.H</text>
</a>
</g>
</g>
<!-- Node1&#45;&gt;Node23 -->
<g id="edge31" class="edge">
<title>Node1&#45;&gt;Node23</title>
<path fill="none" stroke="midnightblue" d="M1138.24,-173.25C1223.97,-163.73 1450.15,-138.59 1546.27,-127.91"/>
<polygon fill="midnightblue" stroke="midnightblue" points="1137.82,-169.78 1128.27,-174.36 1138.6,-176.73 1137.82,-169.78"/>
</g>
<!-- Node25 -->
<g id="node25" class="node">
<title>Node25</title>
<g id="a_node25"><a xlink:href="_t_k_e_8_h.html" target="_top" xlink:title=" ">
<polygon fill="white" stroke="black" points="1391.5,-112.5 1391.5,-131.5 1437.5,-131.5 1437.5,-112.5 1391.5,-112.5"/>
<text text-anchor="middle" x="1414.5" y="-119.5" font-family="Helvetica,sans-Serif" font-size="10.00">TKE.H</text>
</a>
</g>
</g>
<!-- Node1&#45;&gt;Node25 -->
<g id="edge33" class="edge">
<title>Node1&#45;&gt;Node25</title>
<path fill="none" stroke="midnightblue" d="M1137.93,-171.18C1201.23,-160.15 1337.12,-136.48 1391.4,-127.02"/>
<polygon fill="midnightblue" stroke="midnightblue" points="1137.31,-167.73 1128.05,-172.9 1138.51,-174.63 1137.31,-167.73"/>
</g>
<!-- Node30 -->
<g id="node30" class="node">
<title>Node30</title>
<g id="a_node30"><a xlink:href="vof_8_h.html" target="_top" xlink:title=" ">
<polygon fill="white" stroke="black" points="1901.5,-112.5 1901.5,-131.5 1943.5,-131.5 1943.5,-112.5 1901.5,-112.5"/>
<text text-anchor="middle" x="1922.5" y="-119.5" font-family="Helvetica,sans-Serif" font-size="10.00">vof.H</text>
</a>
</g>
</g>
<!-- Node1&#45;&gt;Node30 -->
<g id="edge42" class="edge">
<title>Node1&#45;&gt;Node30</title>
<path fill="none" stroke="midnightblue" d="M1138.44,-174.76C1276.12,-165.67 1790.89,-131.69 1901.49,-124.39"/>
<polygon fill="midnightblue" stroke="midnightblue" points="1137.85,-171.29 1128.1,-175.44 1138.31,-178.28 1137.85,-171.29"/>
</g>
<!-- Node3 -->
<g id="node3" class="node">
<title>Node3</title>
<g id="a_node3"><a xlink:href="density_8cpp.html" target="_top" xlink:title=" ">
<polygon fill="white" stroke="black" points="0,-0.5 0,-19.5 71,-19.5 71,-0.5 0,-0.5"/>
<text text-anchor="middle" x="35.5" y="-7.5" font-family="Helvetica,sans-Serif" font-size="10.00">density.cpp</text>
</a>
</g>
</g>
<!-- Node2&#45;&gt;Node3 -->
<g id="edge2" class="edge">
<title>Node2&#45;&gt;Node3</title>
<path fill="none" stroke="midnightblue" d="M46.13,-106.73C35.55,-99.09 24.28,-88.64 18.5,-76 9.77,-56.9 21.72,-32.53 29.59,-19.74"/>
<polygon fill="midnightblue" stroke="midnightblue" points="44.46,-109.82 54.72,-112.47 48.35,-104 44.46,-109.82"/>
</g>
<!-- Node4 -->
<g id="node4" class="node">
<title>Node4</title>
<g id="a_node4"><a xlink:href="density__ops_8_h.html" target="_top" xlink:title=" ">
<polygon fill="white" stroke="black" points="27.5,-56.5 27.5,-75.5 113.5,-75.5 113.5,-56.5 27.5,-56.5"/>
<text text-anchor="middle" x="70.5" y="-63.5" font-family="Helvetica,sans-Serif" font-size="10.00">density_ops.H</text>
</a>
</g>
</g>
<!-- Node2&#45;&gt;Node4 -->
<g id="edge3" class="edge">
<title>Node2&#45;&gt;Node4</title>
<path fill="none" stroke="midnightblue" d="M70.5,-101.8C70.5,-92.91 70.5,-82.78 70.5,-75.75"/>
<polygon fill="midnightblue" stroke="midnightblue" points="67,-102.08 70.5,-112.08 74,-102.08 67,-102.08"/>
</g>
<!-- Node4&#45;&gt;Node3 -->
<g id="edge4" class="edge">
<title>Node4&#45;&gt;Node3</title>
<path fill="none" stroke="midnightblue" d="M59.2,-47.57C53.18,-38.27 46.03,-27.25 41.17,-19.75"/>
<polygon fill="midnightblue" stroke="midnightblue" points="56.34,-49.6 64.72,-56.08 62.22,-45.79 56.34,-49.6"/>
</g>
<!-- Node6 -->
<g id="node6" class="node">
<title>Node6</title>
<g id="a_node6"><a xlink:href="icns_8cpp.html" target="_top" xlink:title=" ">
<polygon fill="white" stroke="black" points="608.5,-0.5 608.5,-19.5 664.5,-19.5 664.5,-0.5 608.5,-0.5"/>
<text text-anchor="middle" x="636.5" y="-7.5" font-family="Helvetica,sans-Serif" font-size="10.00">icns.cpp</text>
</a>
</g>
</g>
<!-- Node5&#45;&gt;Node6 -->
<g id="edge6" class="edge">
<title>Node5&#45;&gt;Node6</title>
<path fill="none" stroke="midnightblue" d="M619.04,-118.15C669.16,-113.12 759.82,-100.77 779.5,-76 812.16,-34.9 714.84,-18.86 664.56,-13.43"/>
<polygon fill="midnightblue" stroke="midnightblue" points="618.62,-114.67 609,-119.11 619.29,-121.64 618.62,-114.67"/>
</g>
<!-- Node7 -->
<g id="node7" class="node">
<title>Node7</title>
<g id="a_node7"><a xlink:href="icns__advection_8_h.html" target="_top" xlink:title=" ">
<polygon fill="white" stroke="black" points="131.5,-56.5 131.5,-75.5 231.5,-75.5 231.5,-56.5 131.5,-56.5"/>
<text text-anchor="middle" x="181.5" y="-63.5" font-family="Helvetica,sans-Serif" font-size="10.00">icns_advection.H</text>
</a>
</g>
</g>
<!-- Node5&#45;&gt;Node7 -->
<g id="edge7" class="edge">
<title>Node5&#45;&gt;Node7</title>
<path fill="none" stroke="midnightblue" d="M551.66,-116.83C489.82,-109.16 354.42,-92.12 240.5,-76 237.63,-75.59 234.68,-75.17 231.7,-74.73"/>
<polygon fill="midnightblue" stroke="midnightblue" points="551.28,-120.31 561.63,-118.07 552.14,-113.37 551.28,-120.31"/>
</g>
<!-- Node9 -->
<g id="node9" class="node">
<title>Node9</title>
<g id="a_node9"><a xlink:href="icns__bcop_8_h.html" target="_top" xlink:title=" ">
<polygon fill="white" stroke="black" points="496,-56.5 496,-75.5 571,-75.5 571,-56.5 496,-56.5"/>
<text text-anchor="middle" x="533.5" y="-63.5" font-family="Helvetica,sans-Serif" font-size="10.00">icns_bcop.H</text>
</a>
</g>
</g>
<!-- Node5&#45;&gt;Node9 -->
<g id="edge10" class="edge">
<title>Node5&#45;&gt;Node9</title>
<path fill="none" stroke="midnightblue" d="M569.82,-104.72C560.66,-95.2 549.45,-83.56 541.93,-75.75"/>
<polygon fill="midnightblue" stroke="midnightblue" points="567.46,-107.31 576.91,-112.08 572.5,-102.45 567.46,-107.31"/>
</g>
<!-- Node10 -->
<g id="node10" class="node">
<title>Node10</title>
<g id="a_node10"><a xlink:href="icns__diffusion_8_h.html" target="_top" xlink:title=" ">
<polygon fill="white" stroke="black" points="589.5,-56.5 589.5,-75.5 683.5,-75.5 683.5,-56.5 589.5,-56.5"/>
<text text-anchor="middle" x="636.5" y="-63.5" font-family="Helvetica,sans-Serif" font-size="10.00">icns_diffusion.H</text>
</a>
</g>
</g>
<!-- Node5&#45;&gt;Node10 -->
<g id="edge12" class="edge">
<title>Node5&#45;&gt;Node10</title>
<path fill="none" stroke="midnightblue" d="M600.88,-104.72C609.87,-95.2 620.86,-83.56 628.24,-75.75"/>
<polygon fill="midnightblue" stroke="midnightblue" points="598.24,-102.41 593.92,-112.08 603.33,-107.22 598.24,-102.41"/>
</g>
<!-- Node11 -->
<g id="node11" class="node">
<title>Node11</title>
<g id="a_node11"><a xlink:href="icns__ops_8_h.html" target="_top" xlink:title=" ">
<polygon fill="white" stroke="black" points="702,-56.5 702,-75.5 771,-75.5 771,-56.5 702,-56.5"/>
<text text-anchor="middle" x="736.5" y="-63.5" font-family="Helvetica,sans-Serif" font-size="10.00">icns_ops.H</text>
</a>
</g>
</g>
<!-- Node5&#45;&gt;Node11 -->
<g id="edge14" class="edge">
<title>Node5&#45;&gt;Node11</title>
<path fill="none" stroke="midnightblue" d="M618.6,-109.16C646.99,-99.01 687.22,-84.63 712.57,-75.56"/>
<polygon fill="midnightblue" stroke="midnightblue" points="617.33,-105.9 609.09,-112.56 619.69,-112.49 617.33,-105.9"/>
</g>
<!-- Node12 -->
<g id="node12" class="node">
<title>Node12</title>
<g id="a_node12"><a xlink:href="_burggraf_lid_8cpp.html" target="_top" xlink:title=" ">
<polygon fill="white" stroke="black" points="250,-56.5 250,-75.5 343,-75.5 343,-56.5 250,-56.5"/>
<text text-anchor="middle" x="296.5" y="-63.5" font-family="Helvetica,sans-Serif" font-size="10.00">BurggrafLid.cpp</text>
</a>
</g>
</g>
<!-- Node5&#45;&gt;Node12 -->
<g id="edge16" class="edge">
<title>Node5&#45;&gt;Node12</title>
<path fill="none" stroke="midnightblue" d="M551.83,-114.71C499.93,-105.01 400.3,-86.4 342.02,-75.51"/>
<polygon fill="midnightblue" stroke="midnightblue" points="551.38,-118.18 561.85,-116.58 552.66,-111.3 551.38,-118.18"/>
</g>
<!-- Node13 -->
<g id="node13" class="node">
<title>Node13</title>
<g id="a_node13"><a xlink:href="_power_law_profile_8cpp.html" target="_top" xlink:title=" ">
<polygon fill="white" stroke="black" points="361,-56.5 361,-75.5 478,-75.5 478,-56.5 361,-56.5"/>
<text text-anchor="middle" x="419.5" y="-63.5" font-family="Helvetica,sans-Serif" font-size="10.00">PowerLawProfile.cpp</text>
</a>
</g>
</g>
<!-- Node5&#45;&gt;Node13 -->
<g id="edge17" class="edge">
<title>Node5&#45;&gt;Node13</title>
<path fill="none" stroke="midnightblue" d="M552.1,-110.14C520.75,-99.94 474.48,-84.88 445.7,-75.52"/>
<polygon fill="midnightblue" stroke="midnightblue" points="551.12,-113.5 561.72,-113.26 553.29,-106.84 551.12,-113.5"/>
</g>
<!-- Node7&#45;&gt;Node6 -->
<g id="edge8" class="edge">
<title>Node7&#45;&gt;Node6</title>
<path fill="none" stroke="midnightblue" d="M242.01,-55.84C385.7,-36.9 544.56,-20.31 608.12,-13.85"/>
<polygon fill="midnightblue" stroke="midnightblue" points="241.15,-52.43 231.69,-57.21 242.07,-59.37 241.15,-52.43"/>
</g>
<!-- Node8 -->
<g id="node8" class="node">
<title>Node8</title>
<g id="a_node8"><a xlink:href="icns__advection_8cpp.html" target="_top" xlink:title=" ">
<polygon fill="white" stroke="black" points="126.5,-0.5 126.5,-19.5 236.5,-19.5 236.5,-0.5 126.5,-0.5"/>
<text text-anchor="middle" x="181.5" y="-7.5" font-family="Helvetica,sans-Serif" font-size="10.00">icns_advection.cpp</text>
</a>
</g>
</g>
<!-- Node7&#45;&gt;Node8 -->
<g id="edge9" class="edge">
<title>Node7&#45;&gt;Node8</title>
<path fill="none" stroke="midnightblue" d="M181.5,-45.8C181.5,-36.91 181.5,-26.78 181.5,-19.75"/>
<polygon fill="midnightblue" stroke="midnightblue" points="178,-46.08 181.5,-56.08 185,-46.08 178,-46.08"/>
</g>
<!-- Node9&#45;&gt;Node6 -->
<g id="edge11" class="edge">
<title>Node9&#45;&gt;Node6</title>
<path fill="none" stroke="midnightblue" d="M559.08,-51.59C578.12,-41.61 603.56,-28.27 619.99,-19.65"/>
<polygon fill="midnightblue" stroke="midnightblue" points="557.28,-48.58 550.05,-56.32 560.53,-54.78 557.28,-48.58"/>
</g>
<!-- Node10&#45;&gt;Node6 -->
<g id="edge13" class="edge">
<title>Node10&#45;&gt;Node6</title>
<path fill="none" stroke="midnightblue" d="M636.5,-45.8C636.5,-36.91 636.5,-26.78 636.5,-19.75"/>
<polygon fill="midnightblue" stroke="midnightblue" points="633,-46.08 636.5,-56.08 640,-46.08 633,-46.08"/>
</g>
<!-- Node11&#45;&gt;Node6 -->
<g id="edge15" class="edge">
<title>Node11&#45;&gt;Node6</title>
<path fill="none" stroke="midnightblue" d="M711.41,-51.45C692.95,-41.48 668.4,-28.23 652.53,-19.65"/>
<polygon fill="midnightblue" stroke="midnightblue" points="709.97,-54.65 720.43,-56.32 713.3,-48.49 709.97,-54.65"/>
</g>
<!-- Node15 -->
<g id="node15" class="node">
<title>Node15</title>
<g id="a_node15"><a xlink:href="levelset_8cpp.html" target="_top" xlink:title=" ">
<polygon fill="white" stroke="black" points="835.5,-0.5 835.5,-19.5 911.5,-19.5 911.5,-0.5 835.5,-0.5"/>
<text text-anchor="middle" x="873.5" y="-7.5" font-family="Helvetica,sans-Serif" font-size="10.00">levelset.cpp</text>
</a>
</g>
</g>
<!-- Node14&#45;&gt;Node15 -->
<g id="edge19" class="edge">
<title>Node14&#45;&gt;Node15</title>
<path fill="none" stroke="midnightblue" d="M885.32,-107C874.31,-99.4 862.54,-88.91 856.5,-76 847.59,-56.99 859.62,-32.58 867.54,-19.76"/>
<polygon fill="midnightblue" stroke="midnightblue" points="883.56,-110.03 893.87,-112.46 887.33,-104.13 883.56,-110.03"/>
</g>
<!-- Node16 -->
<g id="node16" class="node">
<title>Node16</title>
<g id="a_node16"><a xlink:href="levelset__ops_8_h.html" target="_top" xlink:title=" ">
<polygon fill="white" stroke="black" points="866,-56.5 866,-75.5 955,-75.5 955,-56.5 866,-56.5"/>
<text text-anchor="middle" x="910.5" y="-63.5" font-family="Helvetica,sans-Serif" font-size="10.00">levelset_ops.H</text>
</a>
</g>
</g>
<!-- Node14&#45;&gt;Node16 -->
<g id="edge20" class="edge">
<title>Node14&#45;&gt;Node16</title>
<path fill="none" stroke="midnightblue" d="M910.5,-101.8C910.5,-92.91 910.5,-82.78 910.5,-75.75"/>
<polygon fill="midnightblue" stroke="midnightblue" points="907,-102.08 910.5,-112.08 914,-102.08 907,-102.08"/>
</g>
<!-- Node16&#45;&gt;Node15 -->
<g id="edge21" class="edge">
<title>Node16&#45;&gt;Node15</title>
<path fill="none" stroke="midnightblue" d="M898.55,-47.57C892.19,-38.27 884.63,-27.25 879.5,-19.75"/>
<polygon fill="midnightblue" stroke="midnightblue" points="895.85,-49.81 904.39,-56.08 901.63,-45.86 895.85,-49.81"/>
</g>
<!-- Node18 -->
<g id="node18" class="node">
<title>Node18</title>
<g id="a_node18"><a xlink:href="_s_d_r_8cpp.html" target="_top" xlink:title=" ">
<polygon fill="white" stroke="black" points="980,-0.5 980,-19.5 1037,-19.5 1037,-0.5 980,-0.5"/>
<text text-anchor="middle" x="1008.5" y="-7.5" font-family="Helvetica,sans-Serif" font-size="10.00">SDR.cpp</text>
</a>
</g>
</g>
<!-- Node17&#45;&gt;Node18 -->
<g id="edge23" class="edge">
<title>Node17&#45;&gt;Node18</title>
<path fill="none" stroke="midnightblue" d="M1090.17,-104.59C1069.48,-80.87 1031.95,-37.87 1016,-19.59"/>
<polygon fill="midnightblue" stroke="midnightblue" points="1087.75,-107.14 1096.97,-112.37 1093.03,-102.53 1087.75,-107.14"/>
</g>
<!-- Node19 -->
<g id="node19" class="node">
<title>Node19</title>
<g id="a_node19"><a xlink:href="sdr__ops_8_h.html" target="_top" xlink:title=" ">
<polygon fill="white" stroke="black" points="973,-56.5 973,-75.5 1038,-75.5 1038,-56.5 973,-56.5"/>
<text text-anchor="middle" x="1005.5" y="-63.5" font-family="Helvetica,sans-Serif" font-size="10.00">sdr_ops.H</text>
</a>
</g>
</g>
<!-- Node17&#45;&gt;Node19 -->
<g id="edge24" class="edge">
<title>Node17&#45;&gt;Node19</title>
<path fill="none" stroke="midnightblue" d="M1079.66,-107.45C1061.39,-97.48 1037.08,-84.23 1021.37,-75.65"/>
<polygon fill="midnightblue" stroke="midnightblue" points="1078.14,-110.61 1088.59,-112.32 1081.49,-104.46 1078.14,-110.61"/>
</g>
<!-- Node20 -->
<g id="node20" class="node">
<title>Node20</title>
<g id="a_node20"><a xlink:href="_k_omega_s_s_t_8cpp.html" target="_top" xlink:title=" ">
<polygon fill="white" stroke="black" points="1231,-0.5 1231,-19.5 1326,-19.5 1326,-0.5 1231,-0.5"/>
<text text-anchor="middle" x="1278.5" y="-7.5" font-family="Helvetica,sans-Serif" font-size="10.00">KOmegaSST.cpp</text>
</a>
</g>
</g>
<!-- Node17&#45;&gt;Node20 -->
<g id="edge26" class="edge">
<title>Node17&#45;&gt;Node20</title>
<path fill="none" stroke="midnightblue" d="M1138.07,-114.69C1165.06,-108.35 1202.89,-96.51 1230.5,-76 1251.22,-60.61 1266.95,-33.76 1274.16,-19.88"/>
<polygon fill="midnightblue" stroke="midnightblue" points="1137.31,-111.27 1128.31,-116.85 1138.83,-118.1 1137.31,-111.27"/>
</g>
<!-- Node21 -->
<g id="node21" class="node">
<title>Node21</title>
<g id="a_node21"><a xlink:href="_k_omega_s_s_t_i_8_h.html" target="_top" xlink:title=" ">
<polygon fill="white" stroke="black" points="1133,-56.5 1133,-75.5 1222,-75.5 1222,-56.5 1133,-56.5"/>
<text text-anchor="middle" x="1177.5" y="-63.5" font-family="Helvetica,sans-Serif" font-size="10.00">KOmegaSSTI.H</text>
</a>
</g>
</g>
<!-- Node17&#45;&gt;Node21 -->
<g id="edge27" class="edge">
<title>Node17&#45;&gt;Node21</title>
<path fill="none" stroke="midnightblue" d="M1124.64,-106.1C1137.78,-96.38 1154.48,-84.03 1165.56,-75.83"/>
<polygon fill="midnightblue" stroke="midnightblue" points="1122.19,-103.56 1116.23,-112.32 1126.35,-109.19 1122.19,-103.56"/>
</g>
<!-- Node22 -->
<g id="node22" class="node">
<title>Node22</title>
<g id="a_node22"><a xlink:href="_k_omega_s_s_t_i_d_d_e_s_8cpp.html" target="_top" xlink:title=" ">
<polygon fill="white" stroke="black" points="1086.5,-0.5 1086.5,-19.5 1212.5,-19.5 1212.5,-0.5 1086.5,-0.5"/>
<text text-anchor="middle" x="1149.5" y="-7.5" font-family="Helvetica,sans-Serif" font-size="10.00">KOmegaSSTIDDES.cpp</text>
</a>
</g>
</g>
<!-- Node17&#45;&gt;Node22 -->
<g id="edge30" class="edge">
<title>Node17&#45;&gt;Node22</title>
<path fill="none" stroke="midnightblue" d="M1108.64,-102.56C1111.91,-89.32 1117,-71.2 1123.5,-56 1129.18,-42.73 1137.91,-28.47 1143.67,-19.64"/>
<polygon fill="midnightblue" stroke="midnightblue" points="1105.21,-101.82 1106.33,-112.36 1112.03,-103.43 1105.21,-101.82"/>
</g>
<!-- Node19&#45;&gt;Node18 -->
<g id="edge25" class="edge">
<title>Node19&#45;&gt;Node18</title>
<path fill="none" stroke="midnightblue" d="M1006.57,-45.8C1007.06,-36.91 1007.62,-26.78 1008.01,-19.75"/>
<polygon fill="midnightblue" stroke="midnightblue" points="1003.06,-45.9 1006,-56.08 1010.04,-46.29 1003.06,-45.9"/>
</g>
<!-- Node21&#45;&gt;Node20 -->
<g id="edge28" class="edge">
<title>Node21&#45;&gt;Node20</title>
<path fill="none" stroke="midnightblue" d="M1202.58,-51.59C1221.26,-41.61 1246.2,-28.27 1262.31,-19.65"/>
<polygon fill="midnightblue" stroke="midnightblue" points="1200.9,-48.52 1193.73,-56.32 1204.2,-54.7 1200.9,-48.52"/>
</g>
<!-- Node21&#45;&gt;Node22 -->
<g id="edge29" class="edge">
<title>Node21&#45;&gt;Node22</title>
<path fill="none" stroke="midnightblue" d="M1168.16,-46.98C1163.41,-37.82 1157.84,-27.09 1154.04,-19.75"/>
<polygon fill="midnightblue" stroke="midnightblue" points="1165.17,-48.82 1172.88,-56.08 1171.38,-45.59 1165.17,-48.82"/>
</g>
<!-- Node24 -->
<g id="node24" class="node">
<title>Node24</title>
<g id="a_node24"><a xlink:href="temperature_8cpp.html" target="_top" xlink:title=" ">
<polygon fill="white" stroke="black" points="1684.5,-56.5 1684.5,-75.5 1782.5,-75.5 1782.5,-56.5 1684.5,-56.5"/>
<text text-anchor="middle" x="1733.5" y="-63.5" font-family="Helvetica,sans-Serif" font-size="10.00">temperature.cpp</text>
</a>
</g>
</g>
<!-- Node23&#45;&gt;Node24 -->
<g id="edge32" class="edge">
<title>Node23&#45;&gt;Node24</title>
<path fill="none" stroke="midnightblue" d="M1622.53,-108.91C1649.41,-98.75 1687.14,-84.51 1710.95,-75.52"/>
<polygon fill="midnightblue" stroke="midnightblue" points="1621.28,-105.64 1613.16,-112.44 1623.75,-112.19 1621.28,-105.64"/>
</g>
<!-- Node25&#45;&gt;Node20 -->
<g id="edge38" class="edge">
<title>Node25&#45;&gt;Node20</title>
<path fill="none" stroke="midnightblue" d="M1447.78,-113.41C1485.3,-103.33 1538.29,-83.53 1515.5,-56 1491.93,-27.53 1388.2,-16.93 1326.05,-13.09"/>
<polygon fill="midnightblue" stroke="midnightblue" points="1446.5,-110.13 1437.68,-116 1448.24,-116.91 1446.5,-110.13"/>
</g>
<!-- Node25&#45;&gt;Node21 -->
<g id="edge39" class="edge">
<title>Node25&#45;&gt;Node21</title>
<path fill="none" stroke="midnightblue" d="M1381.51,-113.48C1337.82,-103.53 1260.97,-86.02 1215.09,-75.56"/>
<polygon fill="midnightblue" stroke="midnightblue" points="1380.82,-116.91 1391.34,-115.72 1382.37,-110.09 1380.82,-116.91"/>
</g>
<!-- Node25&#45;&gt;Node22 -->
<g id="edge40" class="edge">
<title>Node25&#45;&gt;Node22</title>
<path fill="none" stroke="midnightblue" d="M1384.26,-108.45C1329.83,-85.86 1216.74,-38.91 1170.2,-19.59"/>
<polygon fill="midnightblue" stroke="midnightblue" points="1383.13,-111.77 1393.71,-112.37 1385.81,-105.3 1383.13,-111.77"/>
</g>
<!-- Node26 -->
<g id="node26" class="node">
<title>Node26</title>
<g id="a_node26"><a xlink:href="_t_k_e_8cpp.html" target="_top" xlink:title=" ">
<polygon fill="white" stroke="black" points="1597.5,-0.5 1597.5,-19.5 1653.5,-19.5 1653.5,-0.5 1597.5,-0.5"/>
<text text-anchor="middle" x="1625.5" y="-7.5" font-family="Helvetica,sans-Serif" font-size="10.00">TKE.cpp</text>
</a>
</g>
</g>
<!-- Node25&#45;&gt;Node26 -->
<g id="edge34" class="edge">
<title>Node25&#45;&gt;Node26</title>
<path fill="none" stroke="midnightblue" d="M1447.89,-119.24C1503.93,-115.51 1613.06,-104.67 1636.5,-76 1649.83,-59.7 1638.32,-33.25 1630.78,-19.66"/>
<polygon fill="midnightblue" stroke="midnightblue" points="1447.52,-115.76 1437.76,-119.88 1447.96,-122.74 1447.52,-115.76"/>
</g>
<!-- Node27 -->
<g id="node27" class="node">
<title>Node27</title>
<g id="a_node27"><a xlink:href="tke__ops_8_h.html" target="_top" xlink:title=" ">
<polygon fill="white" stroke="black" points="1563,-56.5 1563,-75.5 1628,-75.5 1628,-56.5 1563,-56.5"/>
<text text-anchor="middle" x="1595.5" y="-63.5" font-family="Helvetica,sans-Serif" font-size="10.00">tke_ops.H</text>
</a>
</g>
</g>
<!-- Node25&#45;&gt;Node27 -->
<g id="edge35" class="edge">
<title>Node25&#45;&gt;Node27</title>
<path fill="none" stroke="midnightblue" d="M1447.76,-111.08C1481.94,-100.88 1534.58,-85.17 1566.93,-75.52"/>
<polygon fill="midnightblue" stroke="midnightblue" points="1446.37,-107.84 1437.79,-114.05 1448.38,-114.55 1446.37,-107.84"/>
</g>
<!-- Node28 -->
<g id="node28" class="node">
<title>Node28</title>
<g id="a_node28"><a xlink:href="_one_eq_ksgs_8cpp.html" target="_top" xlink:title=" ">
<polygon fill="white" stroke="black" points="1316.5,-56.5 1316.5,-75.5 1408.5,-75.5 1408.5,-56.5 1316.5,-56.5"/>
<text text-anchor="middle" x="1362.5" y="-63.5" font-family="Helvetica,sans-Serif" font-size="10.00">OneEqKsgs.cpp</text>
</a>
</g>
</g>
<!-- Node25&#45;&gt;Node28 -->
<g id="edge37" class="edge">
<title>Node25&#45;&gt;Node28</title>
<path fill="none" stroke="midnightblue" d="M1398.82,-104.72C1389.66,-95.2 1378.45,-83.56 1370.93,-75.75"/>
<polygon fill="midnightblue" stroke="midnightblue" points="1396.46,-107.31 1405.91,-112.08 1401.5,-102.45 1396.46,-107.31"/>
</g>
<!-- Node29 -->
<g id="node29" class="node">
<title>Node29</title>
<g id="a_node29"><a xlink:href="_a_b_l_stats_8cpp.html" target="_top" xlink:title=" ">
<polygon fill="white" stroke="black" points="1426.5,-56.5 1426.5,-75.5 1506.5,-75.5 1506.5,-56.5 1426.5,-56.5"/>
<text text-anchor="middle" x="1466.5" y="-63.5" font-family="Helvetica,sans-Serif" font-size="10.00">ABLStats.cpp</text>
</a>
</g>
</g>
<!-- Node25&#45;&gt;Node29 -->
<g id="edge41" class="edge">
<title>Node25&#45;&gt;Node29</title>
<path fill="none" stroke="midnightblue" d="M1430.18,-104.72C1439.34,-95.2 1450.55,-83.56 1458.07,-75.75"/>
<polygon fill="midnightblue" stroke="midnightblue" points="1427.5,-102.45 1423.09,-112.08 1432.54,-107.31 1427.5,-102.45"/>
</g>
<!-- Node27&#45;&gt;Node26 -->
<g id="edge36" class="edge">
<title>Node27&#45;&gt;Node26</title>
<path fill="none" stroke="midnightblue" d="M1605.35,-47.27C1610.47,-38.05 1616.52,-27.17 1620.64,-19.75"/>
<polygon fill="midnightblue" stroke="midnightblue" points="1602.25,-45.64 1600.45,-56.08 1608.37,-49.04 1602.25,-45.64"/>
</g>
<!-- Node31 -->
<g id="node31" class="node">
<title>Node31</title>
<g id="a_node31"><a xlink:href="vof_8cpp.html" target="_top" xlink:title=" ">
<polygon fill="white" stroke="black" points="1926.5,-0.5 1926.5,-19.5 1978.5,-19.5 1978.5,-0.5 1926.5,-0.5"/>
<text text-anchor="middle" x="1952.5" y="-7.5" font-family="Helvetica,sans-Serif" font-size="10.00">vof.cpp</text>
</a>
</g>
</g>
<!-- Node30&#45;&gt;Node31 -->
<g id="edge43" class="edge">
<title>Node30&#45;&gt;Node31</title>
<path fill="none" stroke="midnightblue" d="M1942.55,-105.53C1951.03,-97.71 1959.99,-87.45 1964.5,-76 1972.07,-56.78 1963.06,-32.46 1957.05,-19.7"/>
<polygon fill="midnightblue" stroke="midnightblue" points="1940.03,-103.07 1934.71,-112.24 1944.59,-108.39 1940.03,-103.07"/>
</g>
<!-- Node32 -->
<g id="node32" class="node">
<title>Node32</title>
<g id="a_node32"><a xlink:href="vof__advection_8_h.html" target="_top" xlink:title=" ">
<polygon fill="white" stroke="black" points="2011.5,-56.5 2011.5,-75.5 2107.5,-75.5 2107.5,-56.5 2011.5,-56.5"/>
<text text-anchor="middle" x="2059.5" y="-63.5" font-family="Helvetica,sans-Serif" font-size="10.00">vof_advection.H</text>
</a>
</g>
</g>
<!-- Node30&#45;&gt;Node32 -->
<g id="edge44" class="edge">
<title>Node30&#45;&gt;Node32</title>
<path fill="none" stroke="midnightblue" d="M1953.23,-108.89C1978.91,-98.77 2014.89,-84.59 2037.69,-75.6"/>
<polygon fill="midnightblue" stroke="midnightblue" points="1951.63,-105.76 1943.61,-112.68 1954.19,-112.27 1951.63,-105.76"/>
</g>
<!-- Node33 -->
<g id="node33" class="node">
<title>Node33</title>
<g id="a_node33"><a xlink:href="vof__bcop_8_h.html" target="_top" xlink:title=" ">
<polygon fill="white" stroke="black" points="1801,-56.5 1801,-75.5 1872,-75.5 1872,-56.5 1801,-56.5"/>
<text text-anchor="middle" x="1836.5" y="-63.5" font-family="Helvetica,sans-Serif" font-size="10.00">vof_bcop.H</text>
</a>
</g>
</g>
<!-- Node30&#45;&gt;Node33 -->
<g id="edge46" class="edge">
<title>Node30&#45;&gt;Node33</title>
<path fill="none" stroke="midnightblue" d="M1900.05,-106.9C1884.28,-97 1863.69,-84.07 1850.28,-75.65"/>
<polygon fill="midnightblue" stroke="midnightblue" points="1898.35,-109.97 1908.68,-112.32 1902.07,-104.04 1898.35,-109.97"/>
</g>
<!-- Node34 -->
<g id="node34" class="node">
<title>Node34</title>
<g id="a_node34"><a xlink:href="vof__ops_8_h.html" target="_top" xlink:title=" ">
<polygon fill="white" stroke="black" points="1890,-56.5 1890,-75.5 1955,-75.5 1955,-56.5 1890,-56.5"/>
<text text-anchor="middle" x="1922.5" y="-63.5" font-family="Helvetica,sans-Serif" font-size="10.00">vof_ops.H</text>
</a>
</g>
</g>
<!-- Node30&#45;&gt;Node34 -->
<g id="edge48" class="edge">
<title>Node30&#45;&gt;Node34</title>
<path fill="none" stroke="midnightblue" d="M1922.5,-101.8C1922.5,-92.91 1922.5,-82.78 1922.5,-75.75"/>
<polygon fill="midnightblue" stroke="midnightblue" points="1919,-102.08 1922.5,-112.08 1926,-102.08 1919,-102.08"/>
</g>
<!-- Node32&#45;&gt;Node31 -->
<g id="edge45" class="edge">
<title>Node32&#45;&gt;Node31</title>
<path fill="none" stroke="midnightblue" d="M2033.2,-51.73C2013.39,-41.73 1986.79,-28.31 1969.65,-19.65"/>
<polygon fill="midnightblue" stroke="midnightblue" points="2031.8,-54.94 2042.31,-56.32 2034.96,-48.69 2031.8,-54.94"/>
</g>
<!-- Node33&#45;&gt;Node31 -->
<g id="edge47" class="edge">
<title>Node33&#45;&gt;Node31</title>
<path fill="none" stroke="midnightblue" d="M1864.22,-52.1C1885.89,-42.01 1915.4,-28.27 1934.21,-19.52"/>
<polygon fill="midnightblue" stroke="midnightblue" points="1862.47,-49.05 1854.88,-56.44 1865.42,-55.4 1862.47,-49.05"/>
</g>
<!-- Node34&#45;&gt;Node31 -->
<g id="edge49" class="edge">
<title>Node34&#45;&gt;Node31</title>
<path fill="none" stroke="midnightblue" d="M1932.35,-47.27C1937.47,-38.05 1943.52,-27.17 1947.64,-19.75"/>
<polygon fill="midnightblue" stroke="midnightblue" points="1929.25,-45.64 1927.45,-56.08 1935.37,-49.04 1929.25,-45.64"/>
</g>
</g>
</svg>
