<?xml version="1.0" encoding="UTF-8" standalone="no"?>
<!DOCTYPE svg PUBLIC "-//W3C//DTD SVG 1.1//EN"
 "http://www.w3.org/Graphics/SVG/1.1/DTD/svg11.dtd">
<!-- Generated by graphviz version 2.43.0 (0)
 -->
<!-- Title: PDEBase.H Pages: 1 -->
<!--zoomable 252 -->
<svg id="main" version="1.1" xmlns="http://www.w3.org/2000/svg" xmlns:xlink="http://www.w3.org/1999/xlink" xml:space="preserve" onload="init(evt)">
<style type="text/css"><![CDATA[
.edge:hover path { stroke: red; }
.edge:hover polygon { stroke: red; fill: red; }
]]></style>
<script type="text/javascript"><![CDATA[
var edges = document.getElementsByTagName('g');
if (edges && edges.length) {
  for (var i=0;i<edges.length;i++) {
    if (edges[i].id.substr(0,4)=='edge') {
      edges[i].setAttribute('class','edge');
    }
  }
}
]]></script>
        <defs>
                <circle id="rim" cx="0" cy="0" r="7"/>
                <circle id="rim2" cx="0" cy="0" r="3.5"/>
                <g id="zoomPlus">
                        <use xlink:href="#rim" fill="#404040">
                                <set attributeName="fill" to="#808080" begin="zoomplus.mouseover" end="zoomplus.mouseout"/>
                        </use>
                        <path d="M-4,0h8M0,-4v8" fill="none" stroke="white" stroke-width="1.5" pointer-events="none"/>
                </g>
                <g id="zoomMin">
                        <use xlink:href="#rim" fill="#404040">
                                <set attributeName="fill" to="#808080" begin="zoomminus.mouseover" end="zoomminus.mouseout"/>
                        </use>
                        <path d="M-4,0h8" fill="none" stroke="white" stroke-width="1.5" pointer-events="none"/>
                </g>
                <g id="dirArrow">
                        <path fill="none" stroke="white" stroke-width="1.5" d="M0,-3.0v7 M-2.5,-0.5L0,-3.0L2.5,-0.5"/>
                </g>
               <g id="resetDef">
                       <use xlink:href="#rim2" fill="#404040">
                               <set attributeName="fill" to="#808080" begin="reset.mouseover" end="reset.mouseout"/>
                       </use>
               </g>
        </defs>

<script type="text/javascript">
var viewWidth = 4612;
var viewHeight = 252;
var sectionId = 'dynsection-1';
</script>
<script xlink:href="svgpan.js"/>
<svg id="graph" class="graph">
<g id="viewport">
<title>PDEBase.H</title>
<polygon fill="white" stroke="transparent" points="-4,4 -4,-248 4607.5,-248 4607.5,4 -4,4"/>
<!-- Node1 -->
<g id="node1" class="node">
<title>Node1</title>
<g id="a_node1"><a xlink:title=" ">
<polygon fill="#bfbfbf" stroke="black" points="4196,-224.5 4196,-243.5 4267,-243.5 4267,-224.5 4196,-224.5"/>
<text text-anchor="middle" x="4231.5" y="-231.5" font-family="Helvetica,sans-Serif" font-size="10.00">PDEBase.H</text>
</a>
</g>
</g>
<!-- Node2 -->
<g id="node2" class="node">
<title>Node2</title>
<g id="a_node2"><a xlink:href="_c_f_d_sim_8_h.html" target="_top" xlink:title=" ">
<polygon fill="white" stroke="red" points="2044.5,-168.5 2044.5,-187.5 2110.5,-187.5 2110.5,-168.5 2044.5,-168.5"/>
<text text-anchor="middle" x="2077.5" y="-175.5" font-family="Helvetica,sans-Serif" font-size="10.00">CFDSim.H</text>
</a>
</g>
</g>
<!-- Node1&#45;&gt;Node2 -->
<g id="edge1" class="edge">
<title>Node1&#45;&gt;Node2</title>
<path fill="none" stroke="midnightblue" d="M4185.89,-231.86C3899.81,-224.68 2357.21,-186.01 2110.72,-179.83"/>
<polygon fill="midnightblue" stroke="midnightblue" points="4185.83,-235.36 4195.91,-232.11 4186,-228.36 4185.83,-235.36"/>
</g>
<!-- Node22 -->
<g id="node21" class="node">
<title>Node22</title>
<g id="a_node21"><a xlink:href="_p_d_e_8_h.html" target="_top" xlink:title=" ">
<polygon fill="white" stroke="red" points="0,-56.5 0,-75.5 47,-75.5 47,-56.5 0,-56.5"/>
<text text-anchor="middle" x="23.5" y="-63.5" font-family="Helvetica,sans-Serif" font-size="10.00">PDE.H</text>
</a>
</g>
</g>
<!-- Node1&#45;&gt;Node22 -->
<g id="edge55" class="edge">
<title>Node1&#45;&gt;Node22</title>
<path fill="none" stroke="midnightblue" d="M4185.79,-232.78C3735.19,-230.46 103.12,-209.4 25.5,-132 10.63,-117.17 16.31,-89.58 20.53,-75.6"/>
<polygon fill="midnightblue" stroke="midnightblue" points="4185.82,-236.28 4195.84,-232.83 4185.86,-229.28 4185.82,-236.28"/>
</g>
<!-- Node56 -->
<g id="node22" class="node">
<title>Node56</title>
<g id="a_node22"><a xlink:href="_p_d_e_base_8cpp.html" target="_top" xlink:title=" ">
<polygon fill="white" stroke="black" points="4060.5,-112.5 4060.5,-131.5 4140.5,-131.5 4140.5,-112.5 4060.5,-112.5"/>
<text text-anchor="middle" x="4100.5" y="-119.5" font-family="Helvetica,sans-Serif" font-size="10.00">PDEBase.cpp</text>
</a>
</g>
</g>
<!-- Node1&#45;&gt;Node56 -->
<g id="edge56" class="edge">
<title>Node1&#45;&gt;Node56</title>
<path fill="none" stroke="midnightblue" d="M4213.42,-217.82C4185.52,-194.39 4132.88,-150.19 4110.73,-131.59"/>
<polygon fill="midnightblue" stroke="midnightblue" points="4211.31,-220.62 4221.22,-224.37 4215.81,-215.26 4211.31,-220.62"/>
</g>
<!-- Node85 -->
<g id="node31" class="node">
<title>Node85</title>
<g id="a_node31"><a xlink:href="incflo_8cpp.html" target="_top" xlink:title=" ">
<polygon fill="white" stroke="black" points="3956,-56.5 3956,-75.5 4019,-75.5 4019,-56.5 3956,-56.5"/>
<text text-anchor="middle" x="3987.5" y="-63.5" font-family="Helvetica,sans-Serif" font-size="10.00">incflo.cpp</text>
</a>
</g>
</g>
<!-- Node1&#45;&gt;Node85 -->
<g id="edge57" class="edge">
<title>Node1&#45;&gt;Node85</title>
<path fill="none" stroke="midnightblue" d="M4185.65,-229.58C4126.5,-222.43 4025.72,-200.31 3979.5,-132 3967.9,-114.86 3976.84,-89.24 3982.97,-75.86"/>
<polygon fill="midnightblue" stroke="midnightblue" points="4185.51,-233.09 4195.84,-230.72 4186.29,-226.13 4185.51,-233.09"/>
</g>
<!-- Node86 -->
<g id="node32" class="node">
<title>Node86</title>
<g id="a_node32"><a xlink:href="incflo__advance_8cpp.html" target="_top" xlink:title=" ">
<polygon fill="white" stroke="black" points="4151.5,-56.5 4151.5,-75.5 4261.5,-75.5 4261.5,-56.5 4151.5,-56.5"/>
<text text-anchor="middle" x="4206.5" y="-63.5" font-family="Helvetica,sans-Serif" font-size="10.00">incflo_advance.cpp</text>
</a>
</g>
</g>
<!-- Node1&#45;&gt;Node86 -->
<g id="edge58" class="edge">
<title>Node1&#45;&gt;Node86</title>
<path fill="none" stroke="midnightblue" d="M4241.35,-215.35C4256.89,-186.44 4284.36,-130.36 4274.5,-112 4265.12,-94.54 4245.66,-82.72 4229.95,-75.59"/>
<polygon fill="midnightblue" stroke="midnightblue" points="4238.16,-213.88 4236.43,-224.34 4244.3,-217.24 4238.16,-213.88"/>
</g>
<!-- Node120 -->
<g id="node35" class="node">
<title>Node120</title>
<g id="a_node35"><a xlink:href="_tioga_interface_8cpp.html" target="_top" xlink:title=" ">
<polygon fill="white" stroke="black" points="4159,-112.5 4159,-131.5 4266,-131.5 4266,-112.5 4159,-112.5"/>
<text text-anchor="middle" x="4212.5" y="-119.5" font-family="Helvetica,sans-Serif" font-size="10.00">TiogaInterface.cpp</text>
</a>
</g>
</g>
<!-- Node1&#45;&gt;Node120 -->
<g id="edge59" class="edge">
<title>Node1&#45;&gt;Node120</title>
<path fill="none" stroke="midnightblue" d="M4228.28,-214.35C4224.12,-190.25 4217.04,-149.31 4213.98,-131.59"/>
<polygon fill="midnightblue" stroke="midnightblue" points="4224.86,-215.11 4230.01,-224.37 4231.76,-213.92 4224.86,-215.11"/>
</g>
<!-- Node49 -->
<g id="node47" class="node">
<title>Node49</title>
<g id="a_node47"><a xlink:href="_one_eq_ksgs_8cpp.html" target="_top" xlink:title=" ">
<polygon fill="white" stroke="black" points="4278.5,-168.5 4278.5,-187.5 4370.5,-187.5 4370.5,-168.5 4278.5,-168.5"/>
<text text-anchor="middle" x="4324.5" y="-175.5" font-family="Helvetica,sans-Serif" font-size="10.00">OneEqKsgs.cpp</text>
</a>
</g>
</g>
<!-- Node1&#45;&gt;Node49 -->
<g id="edge60" class="edge">
<title>Node1&#45;&gt;Node49</title>
<path fill="none" stroke="midnightblue" d="M4255.31,-219.18C4272.42,-209.24 4294.97,-196.15 4309.6,-187.65"/>
<polygon fill="midnightblue" stroke="midnightblue" points="4253.33,-216.28 4246.44,-224.32 4256.85,-222.33 4253.33,-216.28"/>
</g>
<!-- Node41 -->
<g id="node48" class="node">
<title>Node41</title>
<g id="a_node48"><a xlink:href="_k_omega_s_s_t_8cpp.html" target="_top" xlink:title=" ">
<polygon fill="white" stroke="black" points="4356,-112.5 4356,-131.5 4451,-131.5 4451,-112.5 4356,-112.5"/>
<text text-anchor="middle" x="4403.5" y="-119.5" font-family="Helvetica,sans-Serif" font-size="10.00">KOmegaSST.cpp</text>
</a>
</g>
</g>
<!-- Node1&#45;&gt;Node41 -->
<g id="edge61" class="edge">
<title>Node1&#45;&gt;Node41</title>
<path fill="none" stroke="midnightblue" d="M4277.13,-229.71C4309.45,-225.1 4351.82,-214.1 4379.5,-188 4395.6,-172.81 4400.96,-145.88 4402.69,-131.93"/>
<polygon fill="midnightblue" stroke="midnightblue" points="4276.5,-226.26 4267.02,-230.99 4277.38,-233.21 4276.5,-226.26"/>
</g>
<!-- Node42 -->
<g id="node49" class="node">
<title>Node42</title>
<g id="a_node49"><a xlink:href="_k_omega_s_s_t_i_8_h.html" target="_top" xlink:title=" ">
<polygon fill="white" stroke="black" points="4427,-168.5 4427,-187.5 4516,-187.5 4516,-168.5 4427,-168.5"/>
<text text-anchor="middle" x="4471.5" y="-175.5" font-family="Helvetica,sans-Serif" font-size="10.00">KOmegaSSTI.H</text>
</a>
</g>
</g>
<!-- Node1&#45;&gt;Node42 -->
<g id="edge62" class="edge">
<title>Node1&#45;&gt;Node42</title>
<path fill="none" stroke="midnightblue" d="M4277.04,-222.75C4322.39,-212.55 4391.21,-197.07 4433.65,-187.52"/>
<polygon fill="midnightblue" stroke="midnightblue" points="4276.16,-219.36 4267.17,-224.97 4277.7,-226.19 4276.16,-219.36"/>
</g>
<!-- Node43 -->
<g id="node50" class="node">
<title>Node43</title>
<g id="a_node50"><a xlink:href="_k_omega_s_s_t_i_d_d_e_s_8cpp.html" target="_top" xlink:title=" ">
<polygon fill="white" stroke="black" points="4477.5,-112.5 4477.5,-131.5 4603.5,-131.5 4603.5,-112.5 4477.5,-112.5"/>
<text text-anchor="middle" x="4540.5" y="-119.5" font-family="Helvetica,sans-Serif" font-size="10.00">KOmegaSSTIDDES.cpp</text>
</a>
</g>
</g>
<!-- Node1&#45;&gt;Node43 -->
<g id="edge65" class="edge">
<title>Node1&#45;&gt;Node43</title>
<path fill="none" stroke="midnightblue" d="M4277.49,-231.99C4350.72,-229.41 4489.21,-220.28 4524.5,-188 4540.45,-173.41 4541.67,-145.71 4541.14,-131.65"/>
<polygon fill="midnightblue" stroke="midnightblue" points="4277.05,-228.5 4267.17,-232.32 4277.28,-235.5 4277.05,-228.5"/>
</g>
<!-- Node3 -->
<g id="node3" class="node">
<title>Node3</title>
<g id="a_node3"><a xlink:href="_wall_function_8_h.html" target="_top" xlink:title=" ">
<polygon fill="white" stroke="red" points="638,-112.5 638,-131.5 727,-131.5 727,-112.5 638,-112.5"/>
<text text-anchor="middle" x="682.5" y="-119.5" font-family="Helvetica,sans-Serif" font-size="10.00">WallFunction.H</text>
</a>
</g>
</g>
<!-- Node2&#45;&gt;Node3 -->
<g id="edge2" class="edge">
<title>Node2&#45;&gt;Node3</title>
<path fill="none" stroke="midnightblue" d="M2033.99,-177.39C1866.57,-178.5 1248.01,-179 741.5,-132 736.86,-131.57 732.02,-131.01 727.21,-130.39"/>
<polygon fill="midnightblue" stroke="midnightblue" points="2034.38,-180.89 2044.36,-177.32 2034.33,-173.89 2034.38,-180.89"/>
</g>
<!-- Node5 -->
<g id="node4" class="node">
<title>Node5</title>
<g id="a_node4"><a xlink:href="_channel_flow_8_h.html" target="_top" xlink:title=" ">
<polygon fill="white" stroke="black" points="638,-56.5 638,-75.5 727,-75.5 727,-56.5 638,-56.5"/>
<text text-anchor="middle" x="682.5" y="-63.5" font-family="Helvetica,sans-Serif" font-size="10.00">ChannelFlow.H</text>
</a>
</g>
</g>
<!-- Node2&#45;&gt;Node5 -->
<g id="edge43" class="edge">
<title>Node2&#45;&gt;Node5</title>
<path fill="none" stroke="midnightblue" d="M2034.22,-176.97C1821.9,-176.65 895.93,-172.89 774.5,-132 756.52,-125.95 712.96,-91.74 692.91,-75.53"/>
<polygon fill="midnightblue" stroke="midnightblue" points="2034.35,-180.47 2044.35,-176.99 2034.36,-173.47 2034.35,-180.47"/>
</g>
<!-- Node6 -->
<g id="node5" class="node">
<title>Node6</title>
<g id="a_node5"><a xlink:href="_channel_flow_8cpp.html" target="_top" xlink:title=" ">
<polygon fill="white" stroke="black" points="596,-0.5 596,-19.5 695,-19.5 695,-0.5 596,-0.5"/>
<text text-anchor="middle" x="645.5" y="-7.5" font-family="Helvetica,sans-Serif" font-size="10.00">ChannelFlow.cpp</text>
</a>
</g>
</g>
<!-- Node2&#45;&gt;Node6 -->
<g id="edge42" class="edge">
<title>Node2&#45;&gt;Node6</title>
<path fill="none" stroke="midnightblue" d="M2034.09,-176.48C1795.52,-173.49 653.6,-157.89 628.5,-132 598.23,-100.78 627.34,-41.97 640.14,-19.78"/>
<polygon fill="midnightblue" stroke="midnightblue" points="2034.4,-179.98 2044.45,-176.6 2034.49,-172.98 2034.4,-179.98"/>
</g>
<!-- Node7 -->
<g id="node6" class="node">
<title>Node7</title>
<g id="a_node6"><a xlink:href="_c_f_d_sim_8cpp.html" target="_top" xlink:title=" ">
<polygon fill="white" stroke="black" points="1135.5,-112.5 1135.5,-131.5 1211.5,-131.5 1211.5,-112.5 1135.5,-112.5"/>
<text text-anchor="middle" x="1173.5" y="-119.5" font-family="Helvetica,sans-Serif" font-size="10.00">CFDSim.cpp</text>
</a>
</g>
</g>
<!-- Node2&#45;&gt;Node7 -->
<g id="edge5" class="edge">
<title>Node2&#45;&gt;Node7</title>
<path fill="none" stroke="midnightblue" d="M2034.25,-176.81C1908.27,-175.83 1530.88,-169.69 1220.5,-132 1217.61,-131.65 1214.64,-131.23 1211.65,-130.76"/>
<polygon fill="midnightblue" stroke="midnightblue" points="2034.25,-180.31 2044.27,-176.89 2034.3,-173.31 2034.25,-180.31"/>
</g>
<!-- Node8 -->
<g id="node7" class="node">
<title>Node8</title>
<g id="a_node7"><a xlink:href="_mesh_map_8cpp.html" target="_top" xlink:title=" ">
<polygon fill="white" stroke="black" points="1229.5,-112.5 1229.5,-131.5 1313.5,-131.5 1313.5,-112.5 1229.5,-112.5"/>
<text text-anchor="middle" x="1271.5" y="-119.5" font-family="Helvetica,sans-Serif" font-size="10.00">MeshMap.cpp</text>
</a>
</g>
</g>
<!-- Node2&#45;&gt;Node8 -->
<g id="edge6" class="edge">
<title>Node2&#45;&gt;Node8</title>
<path fill="none" stroke="midnightblue" d="M2034.03,-176.16C1918.06,-173.54 1591.86,-163.69 1322.5,-132 1319.64,-131.66 1316.7,-131.27 1313.75,-130.84"/>
<polygon fill="midnightblue" stroke="midnightblue" points="2034.19,-179.66 2044.26,-176.38 2034.34,-172.66 2034.19,-179.66"/>
</g>
<!-- Node9 -->
<g id="node8" class="node">
<title>Node9</title>
<g id="a_node8"><a xlink:href="_a_b_l_forcing_8cpp.html" target="_top" xlink:title=" ">
<polygon fill="white" stroke="black" points="1332,-112.5 1332,-131.5 1423,-131.5 1423,-112.5 1332,-112.5"/>
<text text-anchor="middle" x="1377.5" y="-119.5" font-family="Helvetica,sans-Serif" font-size="10.00">ABLForcing.cpp</text>
</a>
</g>
</g>
<!-- Node2&#45;&gt;Node9 -->
<g id="edge7" class="edge">
<title>Node2&#45;&gt;Node9</title>
<path fill="none" stroke="midnightblue" d="M2034.04,-175.36C1929.92,-171.12 1658.06,-158.27 1432.5,-132 1429.42,-131.64 1426.26,-131.23 1423.07,-130.79"/>
<polygon fill="midnightblue" stroke="midnightblue" points="2034.04,-178.86 2044.17,-175.76 2034.32,-171.87 2034.04,-178.86"/>
</g>
<!-- Node10 -->
<g id="node9" class="node">
<title>Node10</title>
<g id="a_node9"><a xlink:href="_a_b_l_mean_boussinesq_8cpp.html" target="_top" xlink:title=" ">
<polygon fill="white" stroke="black" points="1441.5,-112.5 1441.5,-131.5 1579.5,-131.5 1579.5,-112.5 1441.5,-112.5"/>
<text text-anchor="middle" x="1510.5" y="-119.5" font-family="Helvetica,sans-Serif" font-size="10.00">ABLMeanBoussinesq.cpp</text>
</a>
</g>
</g>
<!-- Node2&#45;&gt;Node10 -->
<g id="edge8" class="edge">
<title>Node2&#45;&gt;Node10</title>
<path fill="none" stroke="midnightblue" d="M2034.32,-173.21C1949.7,-165.73 1756.12,-148.38 1593.5,-132 1589.03,-131.55 1584.42,-131.08 1579.78,-130.59"/>
<polygon fill="midnightblue" stroke="midnightblue" points="2034.06,-176.7 2044.33,-174.09 2034.67,-169.73 2034.06,-176.7"/>
</g>
<!-- Node11 -->
<g id="node10" class="node">
<title>Node11</title>
<g id="a_node10"><a xlink:href="_actuator_forcing_8cpp.html" target="_top" xlink:title=" ">
<polygon fill="white" stroke="black" points="1961,-112.5 1961,-131.5 2074,-131.5 2074,-112.5 1961,-112.5"/>
<text text-anchor="middle" x="2017.5" y="-119.5" font-family="Helvetica,sans-Serif" font-size="10.00">ActuatorForcing.cpp</text>
</a>
</g>
</g>
<!-- Node2&#45;&gt;Node11 -->
<g id="edge9" class="edge">
<title>Node2&#45;&gt;Node11</title>
<path fill="none" stroke="midnightblue" d="M2060.32,-161.54C2049.62,-151.91 2036.24,-139.87 2027.32,-131.83"/>
<polygon fill="midnightblue" stroke="midnightblue" points="2058.09,-164.24 2067.86,-168.32 2062.77,-159.03 2058.09,-164.24"/>
</g>
<!-- Node12 -->
<g id="node11" class="node">
<title>Node12</title>
<g id="a_node11"><a xlink:href="_body_force_8cpp.html" target="_top" xlink:title=" ">
<polygon fill="white" stroke="black" points="2092.5,-112.5 2092.5,-131.5 2180.5,-131.5 2180.5,-112.5 2092.5,-112.5"/>
<text text-anchor="middle" x="2136.5" y="-119.5" font-family="Helvetica,sans-Serif" font-size="10.00">BodyForce.cpp</text>
</a>
</g>
</g>
<!-- Node2&#45;&gt;Node12 -->
<g id="edge10" class="edge">
<title>Node2&#45;&gt;Node12</title>
<path fill="none" stroke="midnightblue" d="M2094.39,-161.54C2104.91,-151.91 2118.07,-139.87 2126.85,-131.83"/>
<polygon fill="midnightblue" stroke="midnightblue" points="2091.99,-158.99 2086.98,-168.32 2096.72,-164.15 2091.99,-158.99"/>
</g>
<!-- Node13 -->
<g id="node12" class="node">
<title>Node13</title>
<g id="a_node12"><a xlink:href="_boussinesq_buoyancy_8cpp.html" target="_top" xlink:title=" ">
<polygon fill="white" stroke="black" points="2199,-112.5 2199,-131.5 2338,-131.5 2338,-112.5 2199,-112.5"/>
<text text-anchor="middle" x="2268.5" y="-119.5" font-family="Helvetica,sans-Serif" font-size="10.00">BoussinesqBuoyancy.cpp</text>
</a>
</g>
</g>
<!-- Node2&#45;&gt;Node13 -->
<g id="edge11" class="edge">
<title>Node2&#45;&gt;Node13</title>
<path fill="none" stroke="midnightblue" d="M2117.47,-165.7C2153.52,-155.51 2205.74,-140.74 2238.38,-131.52"/>
<polygon fill="midnightblue" stroke="midnightblue" points="2116.44,-162.35 2107.76,-168.44 2118.34,-169.09 2116.44,-162.35"/>
</g>
<!-- Node14 -->
<g id="node13" class="node">
<title>Node14</title>
<g id="a_node13"><a xlink:href="_burggraf_flow_forcing_8cpp.html" target="_top" xlink:title=" ">
<polygon fill="white" stroke="black" points="2335,-56.5 2335,-75.5 2472,-75.5 2472,-56.5 2335,-56.5"/>
<text text-anchor="middle" x="2403.5" y="-63.5" font-family="Helvetica,sans-Serif" font-size="10.00">BurggrafFlowForcing.cpp</text>
</a>
</g>
</g>
<!-- Node2&#45;&gt;Node14 -->
<g id="edge12" class="edge">
<title>Node2&#45;&gt;Node14</title>
<path fill="none" stroke="midnightblue" d="M2120.69,-173.32C2186.56,-167.12 2308.51,-153.16 2346.5,-132 2370.89,-118.41 2389.93,-90.26 2398.52,-75.87"/>
<polygon fill="midnightblue" stroke="midnightblue" points="2120.25,-169.85 2110.62,-174.25 2120.9,-176.82 2120.25,-169.85"/>
</g>
<!-- Node15 -->
<g id="node14" class="node">
<title>Node15</title>
<g id="a_node14"><a xlink:href="_coriolis_forcing_8cpp.html" target="_top" xlink:title=" ">
<polygon fill="white" stroke="black" points="2505,-112.5 2505,-131.5 2614,-131.5 2614,-112.5 2505,-112.5"/>
<text text-anchor="middle" x="2559.5" y="-119.5" font-family="Helvetica,sans-Serif" font-size="10.00">CoriolisForcing.cpp</text>
</a>
</g>
</g>
<!-- Node2&#45;&gt;Node15 -->
<g id="edge13" class="edge">
<title>Node2&#45;&gt;Node15</title>
<path fill="none" stroke="midnightblue" d="M2120.72,-172.81C2196.65,-165.36 2358.87,-148.96 2495.5,-132 2498.51,-131.63 2501.59,-131.23 2504.7,-130.83"/>
<polygon fill="midnightblue" stroke="midnightblue" points="2120.21,-169.35 2110.6,-173.81 2120.89,-176.31 2120.21,-169.35"/>
</g>
<!-- Node16 -->
<g id="node15" class="node">
<title>Node16</title>
<g id="a_node15"><a xlink:href="_density_buoyancy_8cpp.html" target="_top" xlink:title=" ">
<polygon fill="white" stroke="black" points="2632,-112.5 2632,-131.5 2753,-131.5 2753,-112.5 2632,-112.5"/>
<text text-anchor="middle" x="2692.5" y="-119.5" font-family="Helvetica,sans-Serif" font-size="10.00">DensityBuoyancy.cpp</text>
</a>
</g>
</g>
<!-- Node2&#45;&gt;Node16 -->
<g id="edge14" class="edge">
<title>Node2&#45;&gt;Node16</title>
<path fill="none" stroke="midnightblue" d="M2120.81,-174.1C2213.14,-167.76 2436.13,-151.66 2622.5,-132 2625.55,-131.68 2628.67,-131.33 2631.81,-130.97"/>
<polygon fill="midnightblue" stroke="midnightblue" points="2120.46,-170.61 2110.73,-174.79 2120.94,-177.6 2120.46,-170.61"/>
</g>
<!-- Node17 -->
<g id="node16" class="node">
<title>Node17</title>
<g id="a_node16"><a xlink:href="_geostrophic_forcing_8cpp.html" target="_top" xlink:title=" ">
<polygon fill="white" stroke="black" points="2771,-112.5 2771,-131.5 2902,-131.5 2902,-112.5 2771,-112.5"/>
<text text-anchor="middle" x="2836.5" y="-119.5" font-family="Helvetica,sans-Serif" font-size="10.00">GeostrophicForcing.cpp</text>
</a>
</g>
</g>
<!-- Node2&#45;&gt;Node17 -->
<g id="edge15" class="edge">
<title>Node2&#45;&gt;Node17</title>
<path fill="none" stroke="midnightblue" d="M2120.84,-174.96C2229.07,-169.69 2519.82,-154.43 2761.5,-132 2764.5,-131.72 2767.57,-131.42 2770.67,-131.1"/>
<polygon fill="midnightblue" stroke="midnightblue" points="2120.47,-171.47 2110.65,-175.45 2120.81,-178.46 2120.47,-171.47"/>
</g>
<!-- Node18 -->
<g id="node17" class="node">
<title>Node18</title>
<g id="a_node17"><a xlink:href="_gravity_forcing_8cpp.html" target="_top" xlink:title=" ">
<polygon fill="white" stroke="black" points="2920.5,-112.5 2920.5,-131.5 3028.5,-131.5 3028.5,-112.5 2920.5,-112.5"/>
<text text-anchor="middle" x="2974.5" y="-119.5" font-family="Helvetica,sans-Serif" font-size="10.00">GravityForcing.cpp</text>
</a>
</g>
</g>
<!-- Node2&#45;&gt;Node18 -->
<g id="edge16" class="edge">
<title>Node2&#45;&gt;Node18</title>
<path fill="none" stroke="midnightblue" d="M2120.69,-175.97C2244.13,-172.76 2609,-161.29 2910.5,-132 2913.74,-131.69 2917.06,-131.33 2920.42,-130.94"/>
<polygon fill="midnightblue" stroke="midnightblue" points="2120.42,-172.48 2110.51,-176.23 2120.6,-179.48 2120.42,-172.48"/>
</g>
<!-- Node19 -->
<g id="node18" class="node">
<title>Node19</title>
<g id="a_node18"><a xlink:href="_hurricane_forcing_8cpp.html" target="_top" xlink:title=" ">
<polygon fill="white" stroke="black" points="3047,-112.5 3047,-131.5 3166,-131.5 3166,-112.5 3047,-112.5"/>
<text text-anchor="middle" x="3106.5" y="-119.5" font-family="Helvetica,sans-Serif" font-size="10.00">HurricaneForcing.cpp</text>
</a>
</g>
</g>
<!-- Node2&#45;&gt;Node19 -->
<g id="edge17" class="edge">
<title>Node2&#45;&gt;Node19</title>
<path fill="none" stroke="midnightblue" d="M2121.12,-176.24C2257.01,-173.6 2684.74,-163.22 3037.5,-132 3040.51,-131.73 3043.59,-131.43 3046.69,-131.11"/>
<polygon fill="midnightblue" stroke="midnightblue" points="2120.66,-172.75 2110.73,-176.44 2120.79,-179.75 2120.66,-172.75"/>
</g>
<!-- Node20 -->
<g id="node19" class="node">
<title>Node20</title>
<g id="a_node19"><a xlink:href="_rayleigh_damping_8cpp.html" target="_top" xlink:title=" ">
<polygon fill="white" stroke="black" points="3184.5,-112.5 3184.5,-131.5 3308.5,-131.5 3308.5,-112.5 3184.5,-112.5"/>
<text text-anchor="middle" x="3246.5" y="-119.5" font-family="Helvetica,sans-Serif" font-size="10.00">RayleighDamping.cpp</text>
</a>
</g>
</g>
<!-- Node2&#45;&gt;Node20 -->
<g id="edge18" class="edge">
<title>Node2&#45;&gt;Node20</title>
<path fill="none" stroke="midnightblue" d="M2120.79,-176.52C2268.39,-174.61 2765.45,-165.9 3174.5,-132 3177.76,-131.73 3181.11,-131.42 3184.48,-131.09"/>
<polygon fill="midnightblue" stroke="midnightblue" points="2120.73,-173.02 2110.77,-176.65 2120.81,-180.02 2120.73,-173.02"/>
</g>
<!-- Node21 -->
<g id="node20" class="node">
<title>Node21</title>
<g id="a_node20"><a xlink:href="_synth_turb_forcing_8cpp.html" target="_top" xlink:title=" ">
<polygon fill="white" stroke="black" points="3364.5,-112.5 3364.5,-131.5 3484.5,-131.5 3484.5,-112.5 3364.5,-112.5"/>
<text text-anchor="middle" x="3424.5" y="-119.5" font-family="Helvetica,sans-Serif" font-size="10.00">SynthTurbForcing.cpp</text>
</a>
</g>
</g>
<!-- Node2&#45;&gt;Node21 -->
<g id="edge19" class="edge">
<title>Node2&#45;&gt;Node21</title>
<path fill="none" stroke="midnightblue" d="M2120.54,-176.81C2282.25,-175.84 2868.88,-169.73 3350.5,-132 3355.02,-131.65 3359.68,-131.22 3364.37,-130.75"/>
<polygon fill="midnightblue" stroke="midnightblue" points="2120.49,-173.31 2110.51,-176.87 2120.53,-180.31 2120.49,-173.31"/>
</g>
<!-- Node2&#45;&gt;Node22 -->
<g id="edge20" class="edge">
<title>Node2&#45;&gt;Node22</title>
<path fill="none" stroke="midnightblue" d="M2034.01,-176.75C1742.55,-174.95 83.42,-163.38 42.5,-132 25.15,-118.69 22.98,-90.41 23.09,-75.94"/>
<polygon fill="midnightblue" stroke="midnightblue" points="2034.17,-180.25 2044.19,-176.81 2034.21,-173.25 2034.17,-180.25"/>
</g>
<!-- Node2&#45;&gt;Node56 -->
<g id="edge21" class="edge">
<title>Node2&#45;&gt;Node56</title>
<path fill="none" stroke="midnightblue" d="M2120.83,-176.93C2373.38,-176.37 3657.72,-171.59 4050.5,-132 4053.75,-131.67 4057.1,-131.25 4060.46,-130.77"/>
<polygon fill="midnightblue" stroke="midnightblue" points="2120.59,-173.43 2110.59,-176.95 2120.6,-180.43 2120.59,-173.43"/>
</g>
<!-- Node57 -->
<g id="node23" class="node">
<title>Node57</title>
<g id="a_node23"><a xlink:href="_p_d_e_ops_8_h.html" target="_top" xlink:title=" ">
<polygon fill="white" stroke="red" points="126,-112.5 126,-131.5 191,-131.5 191,-112.5 126,-112.5"/>
<text text-anchor="middle" x="158.5" y="-119.5" font-family="Helvetica,sans-Serif" font-size="10.00">PDEOps.H</text>
</a>
</g>
</g>
<!-- Node2&#45;&gt;Node57 -->
<g id="edge22" class="edge">
<title>Node2&#45;&gt;Node57</title>
<path fill="none" stroke="midnightblue" d="M2033.94,-177.06C1788.14,-177.25 572.3,-175.9 200.5,-132 197.54,-131.65 194.48,-131.19 191.42,-130.66"/>
<polygon fill="midnightblue" stroke="midnightblue" points="2034.26,-180.56 2044.26,-177.05 2034.25,-173.56 2034.26,-180.56"/>
</g>
<!-- Node67 -->
<g id="node24" class="node">
<title>Node67</title>
<g id="a_node24"><a xlink:href="_s_d_r_src_8cpp.html" target="_top" xlink:title=" ">
<polygon fill="white" stroke="black" points="3502.5,-112.5 3502.5,-131.5 3574.5,-131.5 3574.5,-112.5 3502.5,-112.5"/>
<text text-anchor="middle" x="3538.5" y="-119.5" font-family="Helvetica,sans-Serif" font-size="10.00">SDRSrc.cpp</text>
</a>
</g>
</g>
<!-- Node2&#45;&gt;Node67 -->
<g id="edge24" class="edge">
<title>Node2&#45;&gt;Node67</title>
<path fill="none" stroke="midnightblue" d="M2120.72,-176.59C2327.58,-174.49 3217.76,-163.73 3493.5,-132 3496.35,-131.67 3499.29,-131.26 3502.23,-130.79"/>
<polygon fill="midnightblue" stroke="midnightblue" points="2120.52,-173.09 2110.56,-176.69 2120.6,-180.09 2120.52,-173.09"/>
</g>
<!-- Node68 -->
<g id="node25" class="node">
<title>Node68</title>
<g id="a_node25"><a xlink:href="_ksgs_m84_src_8cpp.html" target="_top" xlink:title=" ">
<polygon fill="white" stroke="black" points="3592.5,-112.5 3592.5,-131.5 3688.5,-131.5 3688.5,-112.5 3592.5,-112.5"/>
<text text-anchor="middle" x="3640.5" y="-119.5" font-family="Helvetica,sans-Serif" font-size="10.00">KsgsM84Src.cpp</text>
</a>
</g>
</g>
<!-- Node2&#45;&gt;Node68 -->
<g id="edge25" class="edge">
<title>Node2&#45;&gt;Node68</title>
<path fill="none" stroke="midnightblue" d="M2120.99,-176.45C2336.19,-173.59 3288.49,-159.59 3583.5,-132 3586.39,-131.73 3589.36,-131.4 3592.35,-131.04"/>
<polygon fill="midnightblue" stroke="midnightblue" points="2120.68,-172.95 2110.73,-176.58 2120.78,-179.95 2120.68,-172.95"/>
</g>
<!-- Node69 -->
<g id="node26" class="node">
<title>Node69</title>
<g id="a_node26"><a xlink:href="_kw_s_s_t_src_8cpp.html" target="_top" xlink:title=" ">
<polygon fill="white" stroke="black" points="3707,-112.5 3707,-131.5 3792,-131.5 3792,-112.5 3707,-112.5"/>
<text text-anchor="middle" x="3749.5" y="-119.5" font-family="Helvetica,sans-Serif" font-size="10.00">KwSSTSrc.cpp</text>
</a>
</g>
</g>
<!-- Node2&#45;&gt;Node69 -->
<g id="edge26" class="edge">
<title>Node2&#45;&gt;Node69</title>
<path fill="none" stroke="midnightblue" d="M2120.65,-176.64C2344.86,-174.65 3378.68,-163.85 3697.5,-132 3700.51,-131.7 3703.61,-131.33 3706.72,-130.91"/>
<polygon fill="midnightblue" stroke="midnightblue" points="2120.56,-173.14 2110.59,-176.73 2120.62,-180.14 2120.56,-173.14"/>
</g>
<!-- Node70 -->
<g id="node27" class="node">
<title>Node70</title>
<g id="a_node27"><a xlink:href="helics_8_h.html" target="_top" xlink:title=" ">
<polygon fill="white" stroke="red" points="3810.5,-112.5 3810.5,-131.5 3866.5,-131.5 3866.5,-112.5 3810.5,-112.5"/>
<text text-anchor="middle" x="3838.5" y="-119.5" font-family="Helvetica,sans-Serif" font-size="10.00">helics.H</text>
</a>
</g>
</g>
<!-- Node2&#45;&gt;Node70 -->
<g id="edge27" class="edge">
<title>Node2&#45;&gt;Node70</title>
<path fill="none" stroke="midnightblue" d="M2120.81,-177.08C2353.22,-177.32 3453.59,-175.95 3791.5,-132 3797.55,-131.21 3804.04,-129.87 3810.31,-128.45"/>
<polygon fill="midnightblue" stroke="midnightblue" points="2120.72,-173.58 2110.71,-177.07 2120.71,-180.58 2120.72,-173.58"/>
</g>
<!-- Node72 -->
<g id="node28" class="node">
<title>Node72</title>
<g id="a_node28"><a xlink:href="_i_b_8cpp.html" target="_top" xlink:title=" ">
<polygon fill="white" stroke="black" points="3885,-112.5 3885,-131.5 3932,-131.5 3932,-112.5 3885,-112.5"/>
<text text-anchor="middle" x="3908.5" y="-119.5" font-family="Helvetica,sans-Serif" font-size="10.00">IB.cpp</text>
</a>
</g>
</g>
<!-- Node2&#45;&gt;Node72 -->
<g id="edge29" class="edge">
<title>Node2&#45;&gt;Node72</title>
<path fill="none" stroke="midnightblue" d="M2120.74,-176.54C2377.55,-173.74 3697.14,-158.16 3875.5,-132 3878.56,-131.55 3881.73,-130.91 3884.85,-130.18"/>
<polygon fill="midnightblue" stroke="midnightblue" points="2120.64,-173.04 2110.68,-176.65 2120.72,-180.04 2120.64,-173.04"/>
</g>
<!-- Node73 -->
<g id="node29" class="node">
<title>Node73</title>
<g id="a_node29"><a xlink:href="_i_b_ops_8_h.html" target="_top" xlink:title=" ">
<polygon fill="white" stroke="red" points="51.5,-112.5 51.5,-131.5 107.5,-131.5 107.5,-112.5 51.5,-112.5"/>
<text text-anchor="middle" x="79.5" y="-119.5" font-family="Helvetica,sans-Serif" font-size="10.00">IBOps.H</text>
</a>
</g>
</g>
<!-- Node2&#45;&gt;Node73 -->
<g id="edge30" class="edge">
<title>Node2&#45;&gt;Node73</title>
<path fill="none" stroke="midnightblue" d="M2034.28,-176.57C1764.08,-173.79 312.35,-157.76 116.5,-132 113.62,-131.62 110.63,-131.11 107.66,-130.51"/>
<polygon fill="midnightblue" stroke="midnightblue" points="2034.43,-180.07 2044.47,-176.67 2034.5,-173.07 2034.43,-180.07"/>
</g>
<!-- Node83 -->
<g id="node30" class="node">
<title>Node83</title>
<g id="a_node30"><a xlink:href="incflo_8_h.html" target="_top" xlink:title=" ">
<polygon fill="white" stroke="red" points="3989,-112.5 3989,-131.5 4042,-131.5 4042,-112.5 3989,-112.5"/>
<text text-anchor="middle" x="4015.5" y="-119.5" font-family="Helvetica,sans-Serif" font-size="10.00">incflo.H</text>
</a>
</g>
</g>
<!-- Node2&#45;&gt;Node83 -->
<g id="edge31" class="edge">
<title>Node2&#45;&gt;Node83</title>
<path fill="none" stroke="midnightblue" d="M2121.07,-176.51C2365.66,-173.69 3570.06,-158.64 3940.5,-132 3956.59,-130.84 3974.53,-128.72 3988.83,-126.83"/>
<polygon fill="midnightblue" stroke="midnightblue" points="2120.77,-173.02 2110.81,-176.63 2120.85,-180.02 2120.77,-173.02"/>
</g>
<!-- Node111 -->
<g id="node33" class="node">
<title>Node111</title>
<g id="a_node33"><a xlink:href="_ocean_waves_8cpp.html" target="_top" xlink:title=" ">
<polygon fill="white" stroke="black" points="209.5,-112.5 209.5,-131.5 309.5,-131.5 309.5,-112.5 209.5,-112.5"/>
<text text-anchor="middle" x="259.5" y="-119.5" font-family="Helvetica,sans-Serif" font-size="10.00">OceanWaves.cpp</text>
</a>
</g>
</g>
<!-- Node2&#45;&gt;Node111 -->
<g id="edge34" class="edge">
<title>Node2&#45;&gt;Node111</title>
<path fill="none" stroke="midnightblue" d="M2034.12,-176.63C1798.11,-174.51 666.69,-162.89 318.5,-132 315.61,-131.74 312.65,-131.44 309.66,-131.09"/>
<polygon fill="midnightblue" stroke="midnightblue" points="2034.33,-180.13 2044.36,-176.72 2034.39,-173.13 2034.33,-180.13"/>
</g>
<!-- Node112 -->
<g id="node34" class="node">
<title>Node112</title>
<g id="a_node34"><a xlink:href="_ocean_waves_ops_8_h.html" target="_top" xlink:title=" ">
<polygon fill="white" stroke="red" points="328,-112.5 328,-131.5 437,-131.5 437,-112.5 328,-112.5"/>
<text text-anchor="middle" x="382.5" y="-119.5" font-family="Helvetica,sans-Serif" font-size="10.00">OceanWavesOps.H</text>
</a>
</g>
</g>
<!-- Node2&#45;&gt;Node112 -->
<g id="edge35" class="edge">
<title>Node2&#45;&gt;Node112</title>
<path fill="none" stroke="midnightblue" d="M2034.07,-176.46C1808.43,-173.57 767.96,-158.95 446.5,-132 443.48,-131.75 440.39,-131.45 437.27,-131.11"/>
<polygon fill="midnightblue" stroke="midnightblue" points="2034.15,-179.96 2044.19,-176.59 2034.24,-172.96 2034.15,-179.96"/>
</g>
<!-- Node2&#45;&gt;Node120 -->
<g id="edge36" class="edge">
<title>Node2&#45;&gt;Node120</title>
<path fill="none" stroke="midnightblue" d="M2120.91,-176.77C2380.98,-175.28 3735.23,-165.97 4149.5,-132 4152.58,-131.75 4155.75,-131.44 4158.93,-131.1"/>
<polygon fill="midnightblue" stroke="midnightblue" points="2120.71,-173.27 2110.73,-176.83 2120.75,-180.27 2120.71,-173.27"/>
</g>
<!-- Node121 -->
<g id="node36" class="node">
<title>Node121</title>
<g id="a_node36"><a xlink:href="_boussinesq_bubble_8cpp.html" target="_top" xlink:title=" ">
<polygon fill="white" stroke="black" points="455.5,-112.5 455.5,-131.5 581.5,-131.5 581.5,-112.5 455.5,-112.5"/>
<text text-anchor="middle" x="518.5" y="-119.5" font-family="Helvetica,sans-Serif" font-size="10.00">BoussinesqBubble.cpp</text>
</a>
</g>
</g>
<!-- Node2&#45;&gt;Node121 -->
<g id="edge37" class="edge">
<title>Node2&#45;&gt;Node121</title>
<path fill="none" stroke="midnightblue" d="M2034.31,-177.04C1856.47,-176.94 1163.41,-173.73 595.5,-132 591.07,-131.67 586.5,-131.28 581.91,-130.85"/>
<polygon fill="midnightblue" stroke="midnightblue" points="2034.32,-180.54 2044.32,-177.05 2034.32,-173.54 2034.32,-180.54"/>
</g>
<!-- Node122 -->
<g id="node37" class="node">
<title>Node122</title>
<g id="a_node37"><a xlink:href="_burggraf_flow_8cpp.html" target="_top" xlink:title=" ">
<polygon fill="white" stroke="black" points="2870,-56.5 2870,-75.5 2971,-75.5 2971,-56.5 2870,-56.5"/>
<text text-anchor="middle" x="2920.5" y="-63.5" font-family="Helvetica,sans-Serif" font-size="10.00">BurggrafFlow.cpp</text>
</a>
</g>
</g>
<!-- Node2&#45;&gt;Node122 -->
<g id="edge38" class="edge">
<title>Node2&#45;&gt;Node122</title>
<path fill="none" stroke="midnightblue" d="M2120.92,-177.09C2335.62,-177.35 3275.13,-175.94 3317.5,-132 3366.65,-81.04 3088.93,-70.03 2971.26,-67.65"/>
<polygon fill="midnightblue" stroke="midnightblue" points="2120.68,-173.59 2110.68,-177.08 2120.67,-180.59 2120.68,-173.59"/>
</g>
<!-- Node123 -->
<g id="node38" class="node">
<title>Node123</title>
<g id="a_node38"><a xlink:href="_burggraf_flow_8_h.html" target="_top" xlink:title=" ">
<polygon fill="white" stroke="black" points="2394.5,-112.5 2394.5,-131.5 2486.5,-131.5 2486.5,-112.5 2394.5,-112.5"/>
<text text-anchor="middle" x="2440.5" y="-119.5" font-family="Helvetica,sans-Serif" font-size="10.00">BurggrafFlow.H</text>
</a>
</g>
</g>
<!-- Node2&#45;&gt;Node123 -->
<g id="edge39" class="edge">
<title>Node2&#45;&gt;Node123</title>
<path fill="none" stroke="midnightblue" d="M2120.72,-170.6C2179.51,-161.89 2287.96,-145.81 2380.5,-132 2384.98,-131.33 2389.65,-130.63 2394.31,-129.93"/>
<polygon fill="midnightblue" stroke="midnightblue" points="2120.06,-167.16 2110.68,-172.09 2121.09,-174.09 2120.06,-167.16"/>
</g>
<!-- Node124 -->
<g id="node39" class="node">
<title>Node124</title>
<g id="a_node39"><a xlink:href="_convecting_taylor_vortex_8cpp.html" target="_top" xlink:title=" ">
<polygon fill="white" stroke="black" points="1120.5,-56.5 1120.5,-75.5 1272.5,-75.5 1272.5,-56.5 1120.5,-56.5"/>
<text text-anchor="middle" x="1196.5" y="-63.5" font-family="Helvetica,sans-Serif" font-size="10.00">ConvectingTaylorVortex.cpp</text>
</a>
</g>
</g>
<!-- Node2&#45;&gt;Node124 -->
<g id="edge44" class="edge">
<title>Node2&#45;&gt;Node124</title>
<path fill="none" stroke="midnightblue" d="M2034.38,-174.81C1936.9,-169.51 1702.21,-154.75 1626.5,-132 1608.22,-126.51 1606.74,-117.63 1588.5,-112 1482.14,-79.17 1352.86,-69.89 1272.61,-67.48"/>
<polygon fill="midnightblue" stroke="midnightblue" points="2034.3,-178.31 2044.47,-175.35 2034.67,-171.32 2034.3,-178.31"/>
</g>
<!-- Node125 -->
<g id="node40" class="node">
<title>Node125</title>
<g id="a_node40"><a xlink:href="_convecting_taylor_vortex_8_h.html" target="_top" xlink:title=" ">
<polygon fill="white" stroke="red" points="784,-112.5 784,-131.5 927,-131.5 927,-112.5 784,-112.5"/>
<text text-anchor="middle" x="855.5" y="-119.5" font-family="Helvetica,sans-Serif" font-size="10.00">ConvectingTaylorVortex.H</text>
</a>
</g>
</g>
<!-- Node2&#45;&gt;Node125 -->
<g id="edge45" class="edge">
<title>Node2&#45;&gt;Node125</title>
<path fill="none" stroke="midnightblue" d="M2034.01,-176.42C1882.36,-174.17 1362.98,-164.43 935.5,-132 932.71,-131.79 929.87,-131.56 927.01,-131.3"/>
<polygon fill="midnightblue" stroke="midnightblue" points="2034.23,-179.93 2044.28,-176.57 2034.33,-172.93 2034.23,-179.93"/>
</g>
<!-- Node126 -->
<g id="node41" class="node">
<title>Node126</title>
<g id="a_node41"><a xlink:href="_ekman_spiral_8cpp.html" target="_top" xlink:title=" ">
<polygon fill="white" stroke="black" points="1648.5,-56.5 1648.5,-75.5 1746.5,-75.5 1746.5,-56.5 1648.5,-56.5"/>
<text text-anchor="middle" x="1697.5" y="-63.5" font-family="Helvetica,sans-Serif" font-size="10.00">EkmanSpiral.cpp</text>
</a>
</g>
</g>
<!-- Node2&#45;&gt;Node126 -->
<g id="edge47" class="edge">
<title>Node2&#45;&gt;Node126</title>
<path fill="none" stroke="midnightblue" d="M2034.1,-175.12C1978.75,-171.56 1880.82,-161.32 1802.5,-132 1764.95,-117.94 1726.23,-89.74 1708.09,-75.56"/>
<polygon fill="midnightblue" stroke="midnightblue" points="2034.07,-178.63 2044.26,-175.73 2034.49,-171.64 2034.07,-178.63"/>
</g>
<!-- Node127 -->
<g id="node42" class="node">
<title>Node127</title>
<g id="a_node42"><a xlink:href="_ekman_spiral_8_h.html" target="_top" xlink:title=" ">
<polygon fill="white" stroke="black" points="1636,-112.5 1636,-131.5 1725,-131.5 1725,-112.5 1636,-112.5"/>
<text text-anchor="middle" x="1680.5" y="-119.5" font-family="Helvetica,sans-Serif" font-size="10.00">EkmanSpiral.H</text>
</a>
</g>
</g>
<!-- Node2&#45;&gt;Node127 -->
<g id="edge48" class="edge">
<title>Node2&#45;&gt;Node127</title>
<path fill="none" stroke="midnightblue" d="M2034.2,-171.5C1969.86,-163.27 1845.25,-147.1 1739.5,-132 1734.88,-131.34 1730.07,-130.64 1725.26,-129.92"/>
<polygon fill="midnightblue" stroke="midnightblue" points="2034,-175.01 2044.37,-172.8 2034.89,-168.06 2034,-175.01"/>
</g>
<!-- Node128 -->
<g id="node43" class="node">
<title>Node128</title>
<g id="a_node43"><a xlink:href="_free_stream_8cpp.html" target="_top" xlink:title=" ">
<polygon fill="white" stroke="black" points="945,-112.5 945,-131.5 1038,-131.5 1038,-112.5 945,-112.5"/>
<text text-anchor="middle" x="991.5" y="-119.5" font-family="Helvetica,sans-Serif" font-size="10.00">FreeStream.cpp</text>
</a>
</g>
</g>
<!-- Node2&#45;&gt;Node128 -->
<g id="edge50" class="edge">
<title>Node2&#45;&gt;Node128</title>
<path fill="none" stroke="midnightblue" d="M2034.43,-176.95C1892.71,-176.38 1428.13,-171.41 1046.5,-132 1043.81,-131.72 1041.04,-131.4 1038.26,-131.04"/>
<polygon fill="midnightblue" stroke="midnightblue" points="2034.44,-180.45 2044.46,-176.98 2034.47,-173.45 2034.44,-180.45"/>
</g>
<!-- Node93 -->
<g id="node44" class="node">
<title>Node93</title>
<g id="a_node44"><a xlink:href="_hybrid_r_a_n_s_l_e_s_a_b_l_8cpp.html" target="_top" xlink:title=" ">
<polygon fill="white" stroke="black" points="1782,-56.5 1782,-75.5 1915,-75.5 1915,-56.5 1782,-56.5"/>
<text text-anchor="middle" x="1848.5" y="-63.5" font-family="Helvetica,sans-Serif" font-size="10.00">HybridRANSLESABL.cpp</text>
</a>
</g>
</g>
<!-- Node2&#45;&gt;Node93 -->
<g id="edge51" class="edge">
<title>Node2&#45;&gt;Node93</title>
<path fill="none" stroke="midnightblue" d="M2034.29,-176.22C1966.17,-173.96 1838.65,-165.29 1810.5,-132 1795.14,-113.83 1820.83,-88.64 1836.96,-75.6"/>
<polygon fill="midnightblue" stroke="midnightblue" points="2034.19,-179.71 2044.29,-176.51 2034.4,-172.72 2034.19,-179.71"/>
</g>
<!-- Node129 -->
<g id="node45" class="node">
<title>Node129</title>
<g id="a_node45"><a xlink:href="_hybrid_r_a_n_s_l_e_s_a_b_l_8_h.html" target="_top" xlink:title=" ">
<polygon fill="white" stroke="black" points="1820,-112.5 1820,-131.5 1943,-131.5 1943,-112.5 1820,-112.5"/>
<text text-anchor="middle" x="1881.5" y="-119.5" font-family="Helvetica,sans-Serif" font-size="10.00">HybridRANSLESABL.H</text>
</a>
</g>
</g>
<!-- Node2&#45;&gt;Node129 -->
<g id="edge52" class="edge">
<title>Node2&#45;&gt;Node129</title>
<path fill="none" stroke="midnightblue" d="M2036.48,-165.7C1999.49,-155.51 1945.9,-140.74 1912.41,-131.52"/>
<polygon fill="midnightblue" stroke="midnightblue" points="2035.87,-169.16 2046.44,-168.44 2037.73,-162.41 2035.87,-169.16"/>
</g>
<!-- Node130 -->
<g id="node46" class="node">
<title>Node130</title>
<g id="a_node46"><a xlink:href="_m_m_s_8cpp.html" target="_top" xlink:title=" ">
<polygon fill="white" stroke="black" points="1056,-112.5 1056,-131.5 1117,-131.5 1117,-112.5 1056,-112.5"/>
<text text-anchor="middle" x="1086.5" y="-119.5" font-family="Helvetica,sans-Serif" font-size="10.00">MMS.cpp</text>
</a>
</g>
</g>
<!-- Node2&#45;&gt;Node130 -->
<g id="edge54" class="edge">
<title>Node2&#45;&gt;Node130</title>
<path fill="none" stroke="midnightblue" d="M2034.13,-177.62C1899.07,-178.99 1474.17,-178.97 1126.5,-132 1123.54,-131.6 1120.47,-131.09 1117.41,-130.51"/>
<polygon fill="midnightblue" stroke="midnightblue" points="2034.5,-181.12 2044.46,-177.51 2034.42,-174.12 2034.5,-181.12"/>
</g>
<!-- Node3&#45;&gt;Node5 -->
<g id="edge3" class="edge">
<title>Node3&#45;&gt;Node5</title>
<path fill="none" stroke="midnightblue" d="M682.5,-101.8C682.5,-92.91 682.5,-82.78 682.5,-75.75"/>
<polygon fill="midnightblue" stroke="midnightblue" points="679,-102.08 682.5,-112.08 686,-102.08 679,-102.08"/>
</g>
<!-- Node5&#45;&gt;Node6 -->
<g id="edge4" class="edge">
<title>Node5&#45;&gt;Node6</title>
<path fill="none" stroke="midnightblue" d="M670.55,-47.57C664.19,-38.27 656.63,-27.25 651.5,-19.75"/>
<polygon fill="midnightblue" stroke="midnightblue" points="667.85,-49.81 676.39,-56.08 673.63,-45.86 667.85,-49.81"/>
</g>
<!-- Node57&#45;&gt;Node22 -->
<g id="edge23" class="edge">
<title>Node57&#45;&gt;Node22</title>
<path fill="none" stroke="midnightblue" d="M127.59,-108.64C102.26,-98.5 67.07,-84.43 44.79,-75.52"/>
<polygon fill="midnightblue" stroke="midnightblue" points="126.52,-111.98 137.11,-112.44 129.12,-105.48 126.52,-111.98"/>
</g>
<!-- Node70&#45;&gt;Node2 -->
<g id="edge28" class="edge">
<title>Node70&#45;&gt;Node2</title>
<path fill="none" stroke="midnightblue" d="M3802.58,-132.82C3442.11,-176.97 2318.08,-177.35 2110.57,-177.06"/>
<polygon fill="midnightblue" stroke="midnightblue" points="3803.28,-136.26 3812.76,-131.53 3802.4,-129.31 3803.28,-136.26"/>
</g>
<!-- Node83&#45;&gt;Node85 -->
<g id="edge32" class="edge">
<title>Node83&#45;&gt;Node85</title>
<path fill="none" stroke="midnightblue" d="M4006.16,-102.98C4001.41,-93.82 3995.84,-83.09 3992.04,-75.75"/>
<polygon fill="midnightblue" stroke="midnightblue" points="4003.17,-104.82 4010.88,-112.08 4009.38,-101.59 4003.17,-104.82"/>
</g>
<!-- Node83&#45;&gt;Node86 -->
<g id="edge33" class="edge">
<title>Node83&#45;&gt;Node86</title>
<path fill="none" stroke="midnightblue" d="M4051.71,-110.76C4087.81,-100.56 4142.61,-85.06 4176.39,-75.51"/>
<polygon fill="midnightblue" stroke="midnightblue" points="4050.73,-107.4 4042.06,-113.49 4052.63,-114.14 4050.73,-107.4"/>
</g>
<!-- Node123&#45;&gt;Node14 -->
<g id="edge40" class="edge">
<title>Node123&#45;&gt;Node14</title>
<path fill="none" stroke="midnightblue" d="M2428.55,-103.57C2422.19,-94.27 2414.63,-83.25 2409.5,-75.75"/>
<polygon fill="midnightblue" stroke="midnightblue" points="2425.85,-105.81 2434.39,-112.08 2431.63,-101.86 2425.85,-105.81"/>
</g>
<!-- Node123&#45;&gt;Node122 -->
<g id="edge41" class="edge">
<title>Node123&#45;&gt;Node122</title>
<path fill="none" stroke="midnightblue" d="M2496.8,-111.89C2637.69,-93.15 2791.73,-78.46 2869.69,-71.44"/>
<polygon fill="midnightblue" stroke="midnightblue" points="2496.13,-108.45 2486.69,-113.25 2497.06,-115.39 2496.13,-108.45"/>
</g>
<!-- Node125&#45;&gt;Node124 -->
<g id="edge46" class="edge">
<title>Node125&#45;&gt;Node124</title>
<path fill="none" stroke="midnightblue" d="M919.57,-110.85C984,-100.65 1082.22,-85.1 1142.72,-75.52"/>
<polygon fill="midnightblue" stroke="midnightblue" points="918.86,-107.42 909.53,-112.44 919.96,-114.34 918.86,-107.42"/>
</g>
<!-- Node127&#45;&gt;Node126 -->
<g id="edge49" class="edge">
<title>Node127&#45;&gt;Node126</title>
<path fill="none" stroke="midnightblue" d="M1686.36,-102.4C1689.2,-93.36 1692.48,-82.94 1694.75,-75.75"/>
<polygon fill="midnightblue" stroke="midnightblue" points="1682.97,-101.49 1683.31,-112.08 1689.65,-103.6 1682.97,-101.49"/>
</g>
<!-- Node129&#45;&gt;Node93 -->
<g id="edge53" class="edge">
<title>Node129&#45;&gt;Node93</title>
<path fill="none" stroke="midnightblue" d="M1870.67,-103.27C1865.03,-94.05 1858.38,-83.17 1853.85,-75.75"/>
<polygon fill="midnightblue" stroke="midnightblue" points="1867.85,-105.38 1876.05,-112.08 1873.82,-101.73 1867.85,-105.38"/>
</g>
<!-- Node42&#45;&gt;Node41 -->
<g id="edge63" class="edge">
<title>Node42&#45;&gt;Node41</title>
<path fill="none" stroke="midnightblue" d="M4452.74,-162.1C4440.5,-152.38 4424.94,-140.03 4414.62,-131.83"/>
<polygon fill="midnightblue" stroke="midnightblue" points="4450.57,-164.85 4460.57,-168.32 4454.92,-159.36 4450.57,-164.85"/>
</g>
<!-- Node42&#45;&gt;Node43 -->
<g id="edge64" class="edge">
<title>Node42&#45;&gt;Node43</title>
<path fill="none" stroke="midnightblue" d="M4490.54,-162.1C4502.96,-152.38 4518.74,-140.03 4529.21,-131.83"/>
<polygon fill="midnightblue" stroke="midnightblue" points="4488.3,-159.4 4482.59,-168.32 4492.62,-164.92 4488.3,-159.4"/>
</g>
</g>
</svg>
        <g id="navigator" transform="translate(0 0)" fill="#404254">
                <rect fill="#f2f5e9" fill-opacity="0.5" stroke="#606060" stroke-width=".5" x="0" y="0" width="60" height="60"/>
                <use id="zoomplus" xlink:href="#zoomPlus" x="17" y="9" onmousedown="handleZoom(evt,'in')"/>
                <use id="zoomminus" xlink:href="#zoomMin" x="42" y="9" onmousedown="handleZoom(evt,'out')"/>
                <use id="reset" xlink:href="#resetDef" x="30" y="36" onmousedown="handleReset()"/>
                <g id="arrowUp" xlink:href="#dirArrow" transform="translate(30 24)" onmousedown="handlePan(0,-1)">
                  <use xlink:href="#rim" fill="#404040">
                        <set attributeName="fill" to="#808080" begin="arrowUp.mouseover" end="arrowUp.mouseout"/>
                  </use>
                  <path fill="none" stroke="white" stroke-width="1.5" d="M0,-3.0v7 M-2.5,-0.5L0,-3.0L2.5,-0.5"/>
                </g>
                <g id="arrowRight" xlink:href="#dirArrow" transform="rotate(90) translate(36 -43)" onmousedown="handlePan(1,0)">
                  <use xlink:href="#rim" fill="#404040">
                        <set attributeName="fill" to="#808080" begin="arrowRight.mouseover" end="arrowRight.mouseout"/>
                  </use>
                  <path fill="none" stroke="white" stroke-width="1.5" d="M0,-3.0v7 M-2.5,-0.5L0,-3.0L2.5,-0.5"/>
                </g>
                <g id="arrowDown" xlink:href="#dirArrow" transform="rotate(180) translate(-30 -48)" onmousedown="handlePan(0,1)">
                  <use xlink:href="#rim" fill="#404040">
                        <set attributeName="fill" to="#808080" begin="arrowDown.mouseover" end="arrowDown.mouseout"/>
                  </use>
                  <path fill="none" stroke="white" stroke-width="1.5" d="M0,-3.0v7 M-2.5,-0.5L0,-3.0L2.5,-0.5"/>
                </g>
                <g id="arrowLeft" xlink:href="#dirArrow" transform="rotate(270) translate(-36 17)" onmousedown="handlePan(-1,0)">
                  <use xlink:href="#rim" fill="#404040">
                        <set attributeName="fill" to="#808080" begin="arrowLeft.mouseover" end="arrowLeft.mouseout"/>
                  </use>
                  <path fill="none" stroke="white" stroke-width="1.5" d="M0,-3.0v7 M-2.5,-0.5L0,-3.0L2.5,-0.5"/>
                </g>
        </g>
        <svg viewBox="0 0 15 15" width="100%" height="30px" preserveAspectRatio="xMaxYMin meet">
         <g id="arrow_out" transform="scale(0.3 0.3)">
          <a xlink:href="_p_d_e_base_8_h__dep__incl_org.svg" target="_base">
           <rect id="button" ry="5" rx="5" y="6" x="6" height="38" width="38"
                fill="#f2f5e9" fill-opacity="0.5" stroke="#606060" stroke-width="1.0"/>
           <path id="arrow"
             d="M 11.500037,31.436501 C 11.940474,20.09759 22.043105,11.32322 32.158766,21.979434 L 37.068811,17.246167 C 37.068811,17.246167 37.088388,32 37.088388,32 L 22.160133,31.978069 C 22.160133,31.978069 26.997745,27.140456 26.997745,27.140456 C 18.528582,18.264221 13.291696,25.230495 11.500037,31.436501 z"
             style="fill:#404040;"/>
          </a>
         </g>
        </svg>
</svg>
