<?xml version="1.0" encoding="UTF-8" standalone="no"?>
<!DOCTYPE svg PUBLIC "-//W3C//DTD SVG 1.1//EN"
 "http://www.w3.org/Graphics/SVG/1.1/DTD/svg11.dtd">
<!-- Generated by graphviz version 2.43.0 (0)
 -->
<!-- Title: PDEOps.H Pages: 1 -->
<svg width="2063pt" height="364pt"
 viewBox="0.00 0.00 2063.00 364.00" xmlns="http://www.w3.org/2000/svg" xmlns:xlink="http://www.w3.org/1999/xlink">
<g id="graph0" class="graph" transform="scale(1 1) rotate(0) translate(4 360)">
<title>PDEOps.H</title>
<polygon fill="white" stroke="transparent" points="-4,4 -4,-360 2059,-360 2059,4 -4,4"/>
<!-- Node1 -->
<g id="node1" class="node">
<title>Node1</title>
<g id="a_node1"><a xlink:title=" ">
<polygon fill="#bfbfbf" stroke="black" points="1097.5,-336.5 1097.5,-355.5 1162.5,-355.5 1162.5,-336.5 1097.5,-336.5"/>
<text text-anchor="middle" x="1130" y="-343.5" font-family="Helvetica,sans-Serif" font-size="10.00">PDEOps.H</text>
</a>
</g>
</g>
<!-- Node2 -->
<g id="node2" class="node">
<title>Node2</title>
<g id="a_node2"><a xlink:href="_adv_op___godunov_8_h.html" target="_top" xlink:title=" ">
<polygon fill="white" stroke="black" points="679.5,-112.5 679.5,-131.5 786.5,-131.5 786.5,-112.5 679.5,-112.5"/>
<text text-anchor="middle" x="733" y="-119.5" font-family="Helvetica,sans-Serif" font-size="10.00">AdvOp_Godunov.H</text>
</a>
</g>
</g>
<!-- Node1&#45;&gt;Node2 -->
<g id="edge1" class="edge">
<title>Node1&#45;&gt;Node2</title>
<path fill="none" stroke="midnightblue" d="M1106.15,-331.38C1053.8,-301.52 924.78,-228.14 816,-168 792.76,-155.15 765.7,-140.54 748.95,-131.55"/>
<polygon fill="midnightblue" stroke="midnightblue" points="1104.6,-334.52 1115.02,-336.44 1108.06,-328.44 1104.6,-334.52"/>
</g>
<!-- Node7 -->
<g id="node7" class="node">
<title>Node7</title>
<g id="a_node7"><a xlink:href="icns__ops_8_h.html" target="_top" xlink:title=" ">
<polygon fill="white" stroke="black" points="1589.5,-56.5 1589.5,-75.5 1658.5,-75.5 1658.5,-56.5 1589.5,-56.5"/>
<text text-anchor="middle" x="1624" y="-63.5" font-family="Helvetica,sans-Serif" font-size="10.00">icns_ops.H</text>
</a>
</g>
</g>
<!-- Node1&#45;&gt;Node7 -->
<g id="edge88" class="edge">
<title>Node1&#45;&gt;Node7</title>
<path fill="none" stroke="midnightblue" d="M1172.86,-343.75C1286.35,-339.29 1586,-319.5 1586,-235 1586,-235 1586,-235 1586,-177 1586,-137.4 1608.27,-93.96 1618.72,-75.77"/>
<polygon fill="midnightblue" stroke="midnightblue" points="1172.66,-340.26 1162.79,-344.13 1172.92,-347.25 1172.66,-340.26"/>
</g>
<!-- Node13 -->
<g id="node13" class="node">
<title>Node13</title>
<g id="a_node13"><a xlink:href="_adv_op___m_o_l_8_h.html" target="_top" xlink:title=" ">
<polygon fill="white" stroke="black" points="575,-112.5 575,-131.5 661,-131.5 661,-112.5 575,-112.5"/>
<text text-anchor="middle" x="618" y="-119.5" font-family="Helvetica,sans-Serif" font-size="10.00">AdvOp_MOL.H</text>
</a>
</g>
</g>
<!-- Node1&#45;&gt;Node13 -->
<g id="edge13" class="edge">
<title>Node1&#45;&gt;Node13</title>
<path fill="none" stroke="midnightblue" d="M1097.03,-332.86C1073.49,-324.06 1041.13,-311.7 1013,-300 866.26,-238.95 692.37,-157.96 636.35,-131.65"/>
<polygon fill="midnightblue" stroke="midnightblue" points="1095.95,-336.2 1106.54,-336.4 1098.39,-329.64 1095.95,-336.2"/>
</g>
<!-- Node14 -->
<g id="node14" class="node">
<title>Node14</title>
<g id="a_node14"><a xlink:href="_b_c_ops_8_h.html" target="_top" xlink:title=" ">
<polygon fill="white" stroke="black" points="351.5,-112.5 351.5,-131.5 410.5,-131.5 410.5,-112.5 351.5,-112.5"/>
<text text-anchor="middle" x="381" y="-119.5" font-family="Helvetica,sans-Serif" font-size="10.00">BCOps.H</text>
</a>
</g>
</g>
<!-- Node1&#45;&gt;Node14 -->
<g id="edge22" class="edge">
<title>Node1&#45;&gt;Node14</title>
<path fill="none" stroke="midnightblue" d="M1087.01,-341.45C946.17,-328.99 501.89,-282.75 400,-188 383.99,-173.11 381.21,-145.54 380.89,-131.58"/>
<polygon fill="midnightblue" stroke="midnightblue" points="1087.12,-344.98 1097.38,-342.36 1087.73,-338 1087.12,-344.98"/>
</g>
<!-- Node20 -->
<g id="node20" class="node">
<title>Node20</title>
<g id="a_node20"><a xlink:href="_comp_r_h_s_ops_8_h.html" target="_top" xlink:title=" ">
<polygon fill="white" stroke="black" points="1120.5,-280.5 1120.5,-299.5 1215.5,-299.5 1215.5,-280.5 1120.5,-280.5"/>
<text text-anchor="middle" x="1168" y="-287.5" font-family="Helvetica,sans-Serif" font-size="10.00">CompRHSOps.H</text>
</a>
</g>
</g>
<!-- Node1&#45;&gt;Node20 -->
<g id="edge36" class="edge">
<title>Node1&#45;&gt;Node20</title>
<path fill="none" stroke="midnightblue" d="M1142.06,-327.86C1148.64,-318.5 1156.51,-307.33 1161.84,-299.75"/>
<polygon fill="midnightblue" stroke="midnightblue" points="1139.17,-325.89 1136.27,-336.08 1144.89,-329.92 1139.17,-325.89"/>
</g>
<!-- Node21 -->
<g id="node21" class="node">
<title>Node21</title>
<g id="a_node21"><a xlink:href="_p_d_e_8_h.html" target="_top" xlink:title=" ">
<polygon fill="white" stroke="black" points="1110.5,-224.5 1110.5,-243.5 1157.5,-243.5 1157.5,-224.5 1110.5,-224.5"/>
<text text-anchor="middle" x="1134" y="-231.5" font-family="Helvetica,sans-Serif" font-size="10.00">PDE.H</text>
</a>
</g>
</g>
<!-- Node1&#45;&gt;Node21 -->
<g id="edge89" class="edge">
<title>Node1&#45;&gt;Node21</title>
<path fill="none" stroke="midnightblue" d="M1120.04,-327.02C1114.07,-314.03 1108.29,-296.02 1112,-280 1115.14,-266.44 1122.95,-252.26 1128.36,-243.52"/>
<polygon fill="midnightblue" stroke="midnightblue" points="1117.06,-328.88 1124.7,-336.23 1123.31,-325.73 1117.06,-328.88"/>
</g>
<!-- Node25 -->
<g id="node25" class="node">
<title>Node25</title>
<g id="a_node25"><a xlink:href="icns__diffusion_8_h.html" target="_top" xlink:title=" ">
<polygon fill="white" stroke="black" points="1961,-56.5 1961,-75.5 2055,-75.5 2055,-56.5 1961,-56.5"/>
<text text-anchor="middle" x="2008" y="-63.5" font-family="Helvetica,sans-Serif" font-size="10.00">icns_diffusion.H</text>
</a>
</g>
</g>
<!-- Node1&#45;&gt;Node25 -->
<g id="edge87" class="edge">
<title>Node1&#45;&gt;Node25</title>
<path fill="none" stroke="midnightblue" d="M1172.59,-343.89C1342.14,-338.91 1960,-315.26 1960,-235 1960,-235 1960,-235 1960,-177 1960,-136.16 1988.14,-93.38 2001.33,-75.56"/>
<polygon fill="midnightblue" stroke="midnightblue" points="1172.43,-340.39 1162.54,-344.18 1172.63,-347.39 1172.43,-340.39"/>
</g>
<!-- Node43 -->
<g id="node43" class="node">
<title>Node43</title>
<g id="a_node43"><a xlink:href="_diffusion_ops_8_h.html" target="_top" xlink:title=" ">
<polygon fill="white" stroke="black" points="1614.5,-280.5 1614.5,-299.5 1703.5,-299.5 1703.5,-280.5 1614.5,-280.5"/>
<text text-anchor="middle" x="1659" y="-287.5" font-family="Helvetica,sans-Serif" font-size="10.00">DiffusionOps.H</text>
</a>
</g>
</g>
<!-- Node1&#45;&gt;Node43 -->
<g id="edge82" class="edge">
<title>Node1&#45;&gt;Node43</title>
<path fill="none" stroke="midnightblue" d="M1172.56,-341.73C1255.13,-335.2 1442.81,-319.5 1600,-300 1604.63,-299.43 1609.45,-298.78 1614.26,-298.09"/>
<polygon fill="midnightblue" stroke="midnightblue" points="1172.24,-338.24 1162.55,-342.51 1172.79,-345.22 1172.24,-338.24"/>
</g>
<!-- Node3 -->
<g id="node3" class="node">
<title>Node3</title>
<g id="a_node3"><a xlink:href="density_8cpp.html" target="_top" xlink:title=" ">
<polygon fill="white" stroke="black" points="231.5,-56.5 231.5,-75.5 302.5,-75.5 302.5,-56.5 231.5,-56.5"/>
<text text-anchor="middle" x="267" y="-63.5" font-family="Helvetica,sans-Serif" font-size="10.00">density.cpp</text>
</a>
</g>
</g>
<!-- Node2&#45;&gt;Node3 -->
<g id="edge2" class="edge">
<title>Node2&#45;&gt;Node3</title>
<path fill="none" stroke="midnightblue" d="M669.09,-111.95C605.52,-104.28 388.86,-80.4 302.66,-70.92"/>
<polygon fill="midnightblue" stroke="midnightblue" points="669.05,-115.48 679.4,-113.23 669.9,-108.53 669.05,-115.48"/>
</g>
<!-- Node4 -->
<g id="node4" class="node">
<title>Node4</title>
<g id="a_node4"><a xlink:href="icns__advection_8_h.html" target="_top" xlink:title=" ">
<polygon fill="white" stroke="black" points="1120,-56.5 1120,-75.5 1220,-75.5 1220,-56.5 1120,-56.5"/>
<text text-anchor="middle" x="1170" y="-63.5" font-family="Helvetica,sans-Serif" font-size="10.00">icns_advection.H</text>
</a>
</g>
</g>
<!-- Node2&#45;&gt;Node4 -->
<g id="edge3" class="edge">
<title>Node2&#45;&gt;Node4</title>
<path fill="none" stroke="midnightblue" d="M797.01,-111.77C936.91,-93.87 974.17,-94.22 1111,-76 1113.88,-75.62 1116.83,-75.21 1119.81,-74.79"/>
<polygon fill="midnightblue" stroke="midnightblue" points="796.23,-108.34 786.75,-113.09 797.12,-115.29 796.23,-108.34"/>
</g>
<!-- Node2&#45;&gt;Node7 -->
<g id="edge6" class="edge">
<title>Node2&#45;&gt;Node7</title>
<path fill="none" stroke="midnightblue" d="M796.83,-111.92C1144.43,-79.63 1236.72,-118.72 1580,-76 1583.09,-75.61 1586.3,-75.13 1589.5,-74.59"/>
<polygon fill="midnightblue" stroke="midnightblue" points="796.36,-108.45 786.73,-112.87 797.01,-115.42 796.36,-108.45"/>
</g>
<!-- Node8 -->
<g id="node8" class="node">
<title>Node8</title>
<g id="a_node8"><a xlink:href="levelset_8cpp.html" target="_top" xlink:title=" ">
<polygon fill="white" stroke="black" points="475,-56.5 475,-75.5 551,-75.5 551,-56.5 475,-56.5"/>
<text text-anchor="middle" x="513" y="-63.5" font-family="Helvetica,sans-Serif" font-size="10.00">levelset.cpp</text>
</a>
</g>
</g>
<!-- Node2&#45;&gt;Node8 -->
<g id="edge8" class="edge">
<title>Node2&#45;&gt;Node8</title>
<path fill="none" stroke="midnightblue" d="M688.28,-110.02C646.72,-99.82 585.69,-84.84 547.7,-75.52"/>
<polygon fill="midnightblue" stroke="midnightblue" points="687.59,-113.46 698.14,-112.44 689.26,-106.66 687.59,-113.46"/>
</g>
<!-- Node9 -->
<g id="node9" class="node">
<title>Node9</title>
<g id="a_node9"><a xlink:href="_s_d_r_8cpp.html" target="_top" xlink:title=" ">
<polygon fill="white" stroke="black" points="719.5,-56.5 719.5,-75.5 776.5,-75.5 776.5,-56.5 719.5,-56.5"/>
<text text-anchor="middle" x="748" y="-63.5" font-family="Helvetica,sans-Serif" font-size="10.00">SDR.cpp</text>
</a>
</g>
</g>
<!-- Node2&#45;&gt;Node9 -->
<g id="edge9" class="edge">
<title>Node2&#45;&gt;Node9</title>
<path fill="none" stroke="midnightblue" d="M738.17,-102.4C740.68,-93.36 743.57,-82.94 745.57,-75.75"/>
<polygon fill="midnightblue" stroke="midnightblue" points="734.78,-101.51 735.48,-112.08 741.53,-103.38 734.78,-101.51"/>
</g>
<!-- Node10 -->
<g id="node10" class="node">
<title>Node10</title>
<g id="a_node10"><a xlink:href="temperature_8cpp.html" target="_top" xlink:title=" ">
<polygon fill="white" stroke="black" points="359,-56.5 359,-75.5 457,-75.5 457,-56.5 359,-56.5"/>
<text text-anchor="middle" x="408" y="-63.5" font-family="Helvetica,sans-Serif" font-size="10.00">temperature.cpp</text>
</a>
</g>
</g>
<!-- Node2&#45;&gt;Node10 -->
<g id="edge10" class="edge">
<title>Node2&#45;&gt;Node10</title>
<path fill="none" stroke="midnightblue" d="M671.43,-110.77C609.26,-100.44 514.44,-84.69 457.13,-75.16"/>
<polygon fill="midnightblue" stroke="midnightblue" points="671.06,-114.26 681.5,-112.44 672.21,-107.35 671.06,-114.26"/>
</g>
<!-- Node11 -->
<g id="node11" class="node">
<title>Node11</title>
<g id="a_node11"><a xlink:href="_t_k_e_8cpp.html" target="_top" xlink:title=" ">
<polygon fill="white" stroke="black" points="607,-56.5 607,-75.5 663,-75.5 663,-56.5 607,-56.5"/>
<text text-anchor="middle" x="635" y="-63.5" font-family="Helvetica,sans-Serif" font-size="10.00">TKE.cpp</text>
</a>
</g>
</g>
<!-- Node2&#45;&gt;Node11 -->
<g id="edge11" class="edge">
<title>Node2&#45;&gt;Node11</title>
<path fill="none" stroke="midnightblue" d="M708.41,-107.45C690.32,-97.48 666.27,-84.23 650.71,-75.65"/>
<polygon fill="midnightblue" stroke="midnightblue" points="706.81,-110.56 717.25,-112.32 710.19,-104.43 706.81,-110.56"/>
</g>
<!-- Node12 -->
<g id="node12" class="node">
<title>Node12</title>
<g id="a_node12"><a xlink:href="vof_8cpp.html" target="_top" xlink:title=" ">
<polygon fill="white" stroke="black" points="804,-0.5 804,-19.5 856,-19.5 856,-0.5 804,-0.5"/>
<text text-anchor="middle" x="830" y="-7.5" font-family="Helvetica,sans-Serif" font-size="10.00">vof.cpp</text>
</a>
</g>
</g>
<!-- Node2&#45;&gt;Node12 -->
<g id="edge12" class="edge">
<title>Node2&#45;&gt;Node12</title>
<path fill="none" stroke="midnightblue" d="M719.04,-104.19C709.34,-90.35 699.82,-70.69 710,-56 731.1,-25.55 775.52,-15.67 803.99,-12.49"/>
<polygon fill="midnightblue" stroke="midnightblue" points="716.39,-106.5 725.23,-112.33 721.96,-102.26 716.39,-106.5"/>
</g>
<!-- Node5 -->
<g id="node5" class="node">
<title>Node5</title>
<g id="a_node5"><a xlink:href="icns_8cpp.html" target="_top" xlink:title=" ">
<polygon fill="white" stroke="black" points="1596,-0.5 1596,-19.5 1652,-19.5 1652,-0.5 1596,-0.5"/>
<text text-anchor="middle" x="1624" y="-7.5" font-family="Helvetica,sans-Serif" font-size="10.00">icns.cpp</text>
</a>
</g>
</g>
<!-- Node4&#45;&gt;Node5 -->
<g id="edge4" class="edge">
<title>Node4&#45;&gt;Node5</title>
<path fill="none" stroke="midnightblue" d="M1229.7,-56.04C1229.8,-56.03 1229.9,-56.01 1230,-56 1366.85,-37.93 1531.02,-20.56 1595.77,-13.88"/>
<polygon fill="midnightblue" stroke="midnightblue" points="1229.51,-52.53 1220.07,-57.35 1230.45,-59.47 1229.51,-52.53"/>
</g>
<!-- Node6 -->
<g id="node6" class="node">
<title>Node6</title>
<g id="a_node6"><a xlink:href="icns__advection_8cpp.html" target="_top" xlink:title=" ">
<polygon fill="white" stroke="black" points="1115,-0.5 1115,-19.5 1225,-19.5 1225,-0.5 1115,-0.5"/>
<text text-anchor="middle" x="1170" y="-7.5" font-family="Helvetica,sans-Serif" font-size="10.00">icns_advection.cpp</text>
</a>
</g>
</g>
<!-- Node4&#45;&gt;Node6 -->
<g id="edge5" class="edge">
<title>Node4&#45;&gt;Node6</title>
<path fill="none" stroke="midnightblue" d="M1170,-45.8C1170,-36.91 1170,-26.78 1170,-19.75"/>
<polygon fill="midnightblue" stroke="midnightblue" points="1166.5,-46.08 1170,-56.08 1173.5,-46.08 1166.5,-46.08"/>
</g>
<!-- Node7&#45;&gt;Node5 -->
<g id="edge7" class="edge">
<title>Node7&#45;&gt;Node5</title>
<path fill="none" stroke="midnightblue" d="M1624,-45.8C1624,-36.91 1624,-26.78 1624,-19.75"/>
<polygon fill="midnightblue" stroke="midnightblue" points="1620.5,-46.08 1624,-56.08 1627.5,-46.08 1620.5,-46.08"/>
</g>
<!-- Node13&#45;&gt;Node3 -->
<g id="edge14" class="edge">
<title>Node13&#45;&gt;Node3</title>
<path fill="none" stroke="midnightblue" d="M565.3,-112.05C565.2,-112.03 565.1,-112.02 565,-112 470.46,-96.84 358.8,-80.36 302.81,-72.19"/>
<polygon fill="midnightblue" stroke="midnightblue" points="564.48,-115.46 574.91,-113.62 565.61,-108.55 564.48,-115.46"/>
</g>
<!-- Node13&#45;&gt;Node4 -->
<g id="edge15" class="edge">
<title>Node13&#45;&gt;Node4</title>
<path fill="none" stroke="midnightblue" d="M671.12,-111.97C866.8,-87.58 918.92,-98.46 1111,-76 1113.88,-75.66 1116.84,-75.29 1119.82,-74.9"/>
<polygon fill="midnightblue" stroke="midnightblue" points="670.57,-108.51 661.09,-113.24 671.44,-115.46 670.57,-108.51"/>
</g>
<!-- Node13&#45;&gt;Node7 -->
<g id="edge16" class="edge">
<title>Node13&#45;&gt;Node7</title>
<path fill="none" stroke="midnightblue" d="M671.25,-112.03C1074.29,-70.3 1181.52,-124.31 1580,-76 1583.1,-75.62 1586.3,-75.15 1589.5,-74.61"/>
<polygon fill="midnightblue" stroke="midnightblue" points="670.65,-108.57 661.07,-113.1 671.38,-115.53 670.65,-108.57"/>
</g>
<!-- Node13&#45;&gt;Node8 -->
<g id="edge17" class="edge">
<title>Node13&#45;&gt;Node8</title>
<path fill="none" stroke="midnightblue" d="M592.19,-107.73C572.75,-97.73 546.65,-84.31 529.83,-75.65"/>
<polygon fill="midnightblue" stroke="midnightblue" points="590.64,-110.86 601.13,-112.32 593.84,-104.64 590.64,-110.86"/>
</g>
<!-- Node13&#45;&gt;Node9 -->
<g id="edge18" class="edge">
<title>Node13&#45;&gt;Node9</title>
<path fill="none" stroke="midnightblue" d="M648.09,-108.5C672.46,-98.38 706.14,-84.39 727.5,-75.52"/>
<polygon fill="midnightblue" stroke="midnightblue" points="646.49,-105.38 638.6,-112.44 649.18,-111.84 646.49,-105.38"/>
</g>
<!-- Node13&#45;&gt;Node10 -->
<g id="edge19" class="edge">
<title>Node13&#45;&gt;Node10</title>
<path fill="none" stroke="midnightblue" d="M574.81,-109.89C535.15,-99.7 477.23,-84.8 441.12,-75.52"/>
<polygon fill="midnightblue" stroke="midnightblue" points="574.17,-113.34 584.72,-112.44 575.91,-106.56 574.17,-113.34"/>
</g>
<!-- Node13&#45;&gt;Node11 -->
<g id="edge20" class="edge">
<title>Node13&#45;&gt;Node11</title>
<path fill="none" stroke="midnightblue" d="M623.86,-102.4C626.7,-93.36 629.98,-82.94 632.25,-75.75"/>
<polygon fill="midnightblue" stroke="midnightblue" points="620.47,-101.49 620.81,-112.08 627.15,-103.6 620.47,-101.49"/>
</g>
<!-- Node13&#45;&gt;Node12 -->
<g id="edge21" class="edge">
<title>Node13&#45;&gt;Node12</title>
<path fill="none" stroke="midnightblue" d="M604.93,-104.09C595.65,-89.88 586.66,-69.75 598,-56 623.84,-24.66 748.49,-14.88 803.65,-12.06"/>
<polygon fill="midnightblue" stroke="midnightblue" points="602.22,-106.32 610.86,-112.44 607.93,-102.26 602.22,-106.32"/>
</g>
<!-- Node14&#45;&gt;Node3 -->
<g id="edge23" class="edge">
<title>Node14&#45;&gt;Node3</title>
<path fill="none" stroke="midnightblue" d="M353.76,-108.1C332.46,-98.01 303.46,-84.27 284.98,-75.52"/>
<polygon fill="midnightblue" stroke="midnightblue" points="352.4,-111.33 362.94,-112.44 355.4,-105 352.4,-111.33"/>
</g>
<!-- Node14&#45;&gt;Node8 -->
<g id="edge26" class="edge">
<title>Node14&#45;&gt;Node8</title>
<path fill="none" stroke="midnightblue" d="M411.22,-108.64C435.99,-98.5 470.4,-84.43 492.18,-75.52"/>
<polygon fill="midnightblue" stroke="midnightblue" points="409.85,-105.42 401.92,-112.44 412.5,-111.9 409.85,-105.42"/>
</g>
<!-- Node14&#45;&gt;Node9 -->
<g id="edge27" class="edge">
<title>Node14&#45;&gt;Node9</title>
<path fill="none" stroke="midnightblue" d="M420.65,-115.17C495.09,-104.21 654.13,-80.81 719.27,-71.23"/>
<polygon fill="midnightblue" stroke="midnightblue" points="420.11,-111.71 410.72,-116.63 421.13,-118.63 420.11,-111.71"/>
</g>
<!-- Node14&#45;&gt;Node10 -->
<g id="edge28" class="edge">
<title>Node14&#45;&gt;Node10</title>
<path fill="none" stroke="midnightblue" d="M390.01,-102.98C394.59,-93.82 399.95,-83.09 403.62,-75.75"/>
<polygon fill="midnightblue" stroke="midnightblue" points="386.8,-101.57 385.46,-112.08 393.06,-104.7 386.8,-101.57"/>
</g>
<!-- Node14&#45;&gt;Node11 -->
<g id="edge29" class="edge">
<title>Node14&#45;&gt;Node11</title>
<path fill="none" stroke="midnightblue" d="M420.43,-112.62C472.07,-101.64 561.32,-82.66 606.72,-73.01"/>
<polygon fill="midnightblue" stroke="midnightblue" points="419.69,-109.2 410.63,-114.7 421.14,-116.04 419.69,-109.2"/>
</g>
<!-- Node14&#45;&gt;Node12 -->
<g id="edge30" class="edge">
<title>Node14&#45;&gt;Node12</title>
<path fill="none" stroke="midnightblue" d="M363.87,-104.92C350.81,-90.75 337.07,-70.2 350,-56 380.75,-22.23 707.94,-13.33 803.77,-11.44"/>
<polygon fill="midnightblue" stroke="midnightblue" points="361.38,-107.38 370.89,-112.06 366.37,-102.48 361.38,-107.38"/>
</g>
<!-- Node15 -->
<g id="node15" class="node">
<title>Node15</title>
<g id="a_node15"><a xlink:href="icns__bcop_8_h.html" target="_top" xlink:title=" ">
<polygon fill="white" stroke="black" points="1238.5,-56.5 1238.5,-75.5 1313.5,-75.5 1313.5,-56.5 1238.5,-56.5"/>
<text text-anchor="middle" x="1276" y="-63.5" font-family="Helvetica,sans-Serif" font-size="10.00">icns_bcop.H</text>
</a>
</g>
</g>
<!-- Node14&#45;&gt;Node15 -->
<g id="edge24" class="edge">
<title>Node14&#45;&gt;Node15</title>
<path fill="none" stroke="midnightblue" d="M420.72,-115.82C432.68,-114.41 445.86,-112.99 458,-112 799.9,-84.07 888.34,-116.36 1229,-76 1232.05,-75.64 1235.2,-75.19 1238.36,-74.7"/>
<polygon fill="midnightblue" stroke="midnightblue" points="420.07,-112.37 410.57,-117.06 420.92,-119.32 420.07,-112.37"/>
</g>
<!-- Node16 -->
<g id="node16" class="node">
<title>Node16</title>
<g id="a_node16"><a xlink:href="vof__bcop_8_h.html" target="_top" xlink:title=" ">
<polygon fill="white" stroke="black" points="794.5,-56.5 794.5,-75.5 865.5,-75.5 865.5,-56.5 794.5,-56.5"/>
<text text-anchor="middle" x="830" y="-63.5" font-family="Helvetica,sans-Serif" font-size="10.00">vof_bcop.H</text>
</a>
</g>
</g>
<!-- Node14&#45;&gt;Node16 -->
<g id="edge31" class="edge">
<title>Node14&#45;&gt;Node16</title>
<path fill="none" stroke="midnightblue" d="M420.76,-116.3C432.73,-114.9 445.9,-113.37 458,-112 603.28,-95.51 640.51,-98.36 785,-76 787.99,-75.54 791.09,-75.01 794.19,-74.46"/>
<polygon fill="midnightblue" stroke="midnightblue" points="420.14,-112.85 410.61,-117.49 420.95,-119.8 420.14,-112.85"/>
</g>
<!-- Node17 -->
<g id="node17" class="node">
<title>Node17</title>
<g id="a_node17"><a xlink:href="hos__waves__ops_8_h.html" target="_top" xlink:title=" ">
<polygon fill="white" stroke="black" points="0,-56.5 0,-75.5 104,-75.5 104,-56.5 0,-56.5"/>
<text text-anchor="middle" x="52" y="-63.5" font-family="Helvetica,sans-Serif" font-size="10.00">hos_waves_ops.H</text>
</a>
</g>
</g>
<!-- Node14&#45;&gt;Node17 -->
<g id="edge33" class="edge">
<title>Node14&#45;&gt;Node17</title>
<path fill="none" stroke="midnightblue" d="M341.1,-114.45C281.62,-104.69 169.67,-86.31 103.9,-75.52"/>
<polygon fill="midnightblue" stroke="midnightblue" points="340.79,-117.95 351.22,-116.11 341.92,-111.04 340.79,-117.95"/>
</g>
<!-- Node19 -->
<g id="node19" class="node">
<title>Node19</title>
<g id="a_node19"><a xlink:href="_multi_phase_8cpp.html" target="_top" xlink:title=" ">
<polygon fill="white" stroke="black" points="122.5,-56.5 122.5,-75.5 213.5,-75.5 213.5,-56.5 122.5,-56.5"/>
<text text-anchor="middle" x="168" y="-63.5" font-family="Helvetica,sans-Serif" font-size="10.00">MultiPhase.cpp</text>
</a>
</g>
</g>
<!-- Node14&#45;&gt;Node19 -->
<g id="edge35" class="edge">
<title>Node14&#45;&gt;Node19</title>
<path fill="none" stroke="midnightblue" d="M341.65,-111.02C301.41,-100.82 239.58,-85.15 201.57,-75.51"/>
<polygon fill="midnightblue" stroke="midnightblue" points="340.83,-114.43 351.38,-113.49 342.55,-107.64 340.83,-114.43"/>
</g>
<!-- Node15&#45;&gt;Node5 -->
<g id="edge25" class="edge">
<title>Node15&#45;&gt;Node5</title>
<path fill="none" stroke="midnightblue" d="M1323.64,-55.95C1430.17,-37.95 1543.93,-21.94 1595.72,-14.84"/>
<polygon fill="midnightblue" stroke="midnightblue" points="1322.96,-52.52 1313.69,-57.64 1324.13,-59.42 1322.96,-52.52"/>
</g>
<!-- Node16&#45;&gt;Node12 -->
<g id="edge32" class="edge">
<title>Node16&#45;&gt;Node12</title>
<path fill="none" stroke="midnightblue" d="M830,-45.8C830,-36.91 830,-26.78 830,-19.75"/>
<polygon fill="midnightblue" stroke="midnightblue" points="826.5,-46.08 830,-56.08 833.5,-46.08 826.5,-46.08"/>
</g>
<!-- Node18 -->
<g id="node18" class="node">
<title>Node18</title>
<g id="a_node18"><a xlink:href="_h_o_s_waves_8cpp.html" target="_top" xlink:title=" ">
<polygon fill="white" stroke="black" points="7,-0.5 7,-19.5 97,-19.5 97,-0.5 7,-0.5"/>
<text text-anchor="middle" x="52" y="-7.5" font-family="Helvetica,sans-Serif" font-size="10.00">HOSWaves.cpp</text>
</a>
</g>
</g>
<!-- Node17&#45;&gt;Node18 -->
<g id="edge34" class="edge">
<title>Node17&#45;&gt;Node18</title>
<path fill="none" stroke="midnightblue" d="M52,-45.8C52,-36.91 52,-26.78 52,-19.75"/>
<polygon fill="midnightblue" stroke="midnightblue" points="48.5,-46.08 52,-56.08 55.5,-46.08 48.5,-46.08"/>
</g>
<!-- Node20&#45;&gt;Node21 -->
<g id="edge37" class="edge">
<title>Node20&#45;&gt;Node21</title>
<path fill="none" stroke="midnightblue" d="M1157.02,-271.57C1151.17,-262.27 1144.23,-251.25 1139.51,-243.75"/>
<polygon fill="midnightblue" stroke="midnightblue" points="1154.1,-273.49 1162.39,-280.08 1160.02,-269.76 1154.1,-273.49"/>
</g>
<!-- Node22 -->
<g id="node22" class="node">
<title>Node22</title>
<g id="a_node22"><a xlink:href="density_8_h.html" target="_top" xlink:title=" ">
<polygon fill="white" stroke="black" points="221,-168.5 221,-187.5 283,-187.5 283,-168.5 221,-168.5"/>
<text text-anchor="middle" x="252" y="-175.5" font-family="Helvetica,sans-Serif" font-size="10.00">density.H</text>
</a>
</g>
</g>
<!-- Node21&#45;&gt;Node22 -->
<g id="edge38" class="edge">
<title>Node21&#45;&gt;Node22</title>
<path fill="none" stroke="midnightblue" d="M1100.22,-230.93C959.25,-222.3 418.97,-189.22 283.13,-180.91"/>
<polygon fill="midnightblue" stroke="midnightblue" points="1100.21,-234.44 1110.41,-231.56 1100.64,-227.45 1100.21,-234.44"/>
</g>
<!-- Node24 -->
<g id="node24" class="node">
<title>Node24</title>
<g id="a_node24"><a xlink:href="icns_8_h.html" target="_top" xlink:title=" ">
<polygon fill="white" stroke="black" points="1676.5,-112.5 1676.5,-131.5 1723.5,-131.5 1723.5,-112.5 1676.5,-112.5"/>
<text text-anchor="middle" x="1700" y="-119.5" font-family="Helvetica,sans-Serif" font-size="10.00">icns.H</text>
</a>
</g>
</g>
<!-- Node21&#45;&gt;Node24 -->
<g id="edge42" class="edge">
<title>Node21&#45;&gt;Node24</title>
<path fill="none" stroke="midnightblue" d="M1167.55,-226.48C1271.6,-206.26 1587.13,-144.94 1676.3,-127.61"/>
<polygon fill="midnightblue" stroke="midnightblue" points="1166.75,-223.07 1157.6,-228.41 1168.08,-229.94 1166.75,-223.07"/>
</g>
<!-- Node28 -->
<g id="node28" class="node">
<title>Node28</title>
<g id="a_node28"><a xlink:href="levelset_8_h.html" target="_top" xlink:title=" ">
<polygon fill="white" stroke="black" points="515,-168.5 515,-187.5 581,-187.5 581,-168.5 515,-168.5"/>
<text text-anchor="middle" x="548" y="-175.5" font-family="Helvetica,sans-Serif" font-size="10.00">levelset.H</text>
</a>
</g>
</g>
<!-- Node21&#45;&gt;Node28 -->
<g id="edge51" class="edge">
<title>Node21&#45;&gt;Node28</title>
<path fill="none" stroke="midnightblue" d="M1100.08,-229.87C996.27,-220.31 683.67,-191.5 581.04,-182.04"/>
<polygon fill="midnightblue" stroke="midnightblue" points="1100.02,-233.38 1110.3,-230.82 1100.67,-226.41 1100.02,-233.38"/>
</g>
<!-- Node30 -->
<g id="node30" class="node">
<title>Node30</title>
<g id="a_node30"><a xlink:href="_s_d_r_8_h.html" target="_top" xlink:title=" ">
<polygon fill="white" stroke="black" points="1249.5,-168.5 1249.5,-187.5 1296.5,-187.5 1296.5,-168.5 1249.5,-168.5"/>
<text text-anchor="middle" x="1273" y="-175.5" font-family="Helvetica,sans-Serif" font-size="10.00">SDR.H</text>
</a>
</g>
</g>
<!-- Node21&#45;&gt;Node30 -->
<g id="edge55" class="edge">
<title>Node21&#45;&gt;Node30</title>
<path fill="none" stroke="midnightblue" d="M1165.48,-220.77C1191.59,-210.63 1228.04,-196.47 1251.08,-187.52"/>
<polygon fill="midnightblue" stroke="midnightblue" points="1164.08,-217.56 1156.02,-224.44 1166.61,-224.08 1164.08,-217.56"/>
</g>
<!-- Node35 -->
<g id="node35" class="node">
<title>Node35</title>
<g id="a_node35"><a xlink:href="temperature_8_h.html" target="_top" xlink:title=" ">
<polygon fill="white" stroke="black" points="409,-168.5 409,-187.5 497,-187.5 497,-168.5 409,-168.5"/>
<text text-anchor="middle" x="453" y="-175.5" font-family="Helvetica,sans-Serif" font-size="10.00">temperature.H</text>
</a>
</g>
</g>
<!-- Node21&#45;&gt;Node35 -->
<g id="edge64" class="edge">
<title>Node21&#45;&gt;Node35</title>
<path fill="none" stroke="midnightblue" d="M1100.16,-231.73C1005.82,-227.93 731.97,-215.22 506,-188 503.13,-187.65 500.17,-187.26 497.2,-186.83"/>
<polygon fill="midnightblue" stroke="midnightblue" points="1100.12,-235.23 1110.25,-232.13 1100.4,-228.23 1100.12,-235.23"/>
</g>
<!-- Node36 -->
<g id="node36" class="node">
<title>Node36</title>
<g id="a_node36"><a xlink:href="_t_k_e_8_h.html" target="_top" xlink:title=" ">
<polygon fill="white" stroke="black" points="1093,-168.5 1093,-187.5 1139,-187.5 1139,-168.5 1093,-168.5"/>
<text text-anchor="middle" x="1116" y="-175.5" font-family="Helvetica,sans-Serif" font-size="10.00">TKE.H</text>
</a>
</g>
</g>
<!-- Node21&#45;&gt;Node36 -->
<g id="edge66" class="edge">
<title>Node21&#45;&gt;Node36</title>
<path fill="none" stroke="midnightblue" d="M1127.8,-214.4C1124.79,-205.36 1121.31,-194.94 1118.92,-187.75"/>
<polygon fill="midnightblue" stroke="midnightblue" points="1124.54,-215.7 1131.03,-224.08 1131.19,-213.49 1124.54,-215.7"/>
</g>
<!-- Node40 -->
<g id="node40" class="node">
<title>Node40</title>
<g id="a_node40"><a xlink:href="vof_8_h.html" target="_top" xlink:title=" ">
<polygon fill="white" stroke="black" points="1256,-112.5 1256,-131.5 1298,-131.5 1298,-112.5 1256,-112.5"/>
<text text-anchor="middle" x="1277" y="-119.5" font-family="Helvetica,sans-Serif" font-size="10.00">vof.H</text>
</a>
</g>
</g>
<!-- Node21&#45;&gt;Node40 -->
<g id="edge75" class="edge">
<title>Node21&#45;&gt;Node40</title>
<path fill="none" stroke="midnightblue" d="M1153.35,-218.12C1183.7,-194.77 1241.55,-150.27 1265.83,-131.59"/>
<polygon fill="midnightblue" stroke="midnightblue" points="1151.01,-215.5 1145.22,-224.37 1155.28,-221.05 1151.01,-215.5"/>
</g>
<!-- Node22&#45;&gt;Node3 -->
<g id="edge39" class="edge">
<title>Node22&#45;&gt;Node3</title>
<path fill="none" stroke="midnightblue" d="M227.53,-162.73C209.51,-150.26 189.78,-131.18 200,-112 209.29,-94.56 228.67,-82.68 244.21,-75.53"/>
<polygon fill="midnightblue" stroke="midnightblue" points="225.81,-165.79 236.1,-168.3 229.62,-159.92 225.81,-165.79"/>
</g>
<!-- Node23 -->
<g id="node23" class="node">
<title>Node23</title>
<g id="a_node23"><a xlink:href="density__ops_8_h.html" target="_top" xlink:title=" ">
<polygon fill="white" stroke="black" points="209,-112.5 209,-131.5 295,-131.5 295,-112.5 209,-112.5"/>
<text text-anchor="middle" x="252" y="-119.5" font-family="Helvetica,sans-Serif" font-size="10.00">density_ops.H</text>
</a>
</g>
</g>
<!-- Node22&#45;&gt;Node23 -->
<g id="edge40" class="edge">
<title>Node22&#45;&gt;Node23</title>
<path fill="none" stroke="midnightblue" d="M252,-157.8C252,-148.91 252,-138.78 252,-131.75"/>
<polygon fill="midnightblue" stroke="midnightblue" points="248.5,-158.08 252,-168.08 255.5,-158.08 248.5,-158.08"/>
</g>
<!-- Node23&#45;&gt;Node3 -->
<g id="edge41" class="edge">
<title>Node23&#45;&gt;Node3</title>
<path fill="none" stroke="midnightblue" d="M257.17,-102.4C259.68,-93.36 262.57,-82.94 264.57,-75.75"/>
<polygon fill="midnightblue" stroke="midnightblue" points="253.78,-101.51 254.48,-112.08 260.53,-103.38 253.78,-101.51"/>
</g>
<!-- Node24&#45;&gt;Node4 -->
<g id="edge44" class="edge">
<title>Node24&#45;&gt;Node4</title>
<path fill="none" stroke="midnightblue" d="M1666.38,-118.4C1589.16,-112.3 1393.18,-96.04 1230,-76 1226.76,-75.6 1223.42,-75.17 1220.06,-74.71"/>
<polygon fill="midnightblue" stroke="midnightblue" points="1666.23,-121.9 1676.48,-119.2 1666.78,-114.92 1666.23,-121.9"/>
</g>
<!-- Node24&#45;&gt;Node5 -->
<g id="edge43" class="edge">
<title>Node24&#45;&gt;Node5</title>
<path fill="none" stroke="midnightblue" d="M1733.77,-118.93C1788.24,-114.82 1891.68,-103.5 1914,-76 1919.6,-69.1 1919.78,-62.75 1914,-56 1880.44,-16.83 1718.52,-11.47 1652.31,-10.94"/>
<polygon fill="midnightblue" stroke="midnightblue" points="1733.29,-115.46 1723.56,-119.66 1733.79,-122.44 1733.29,-115.46"/>
</g>
<!-- Node24&#45;&gt;Node7 -->
<g id="edge48" class="edge">
<title>Node24&#45;&gt;Node7</title>
<path fill="none" stroke="midnightblue" d="M1679.42,-106.38C1665.69,-96.62 1648.07,-84.11 1636.43,-75.83"/>
<polygon fill="midnightblue" stroke="midnightblue" points="1677.61,-109.38 1687.79,-112.32 1681.66,-103.68 1677.61,-109.38"/>
</g>
<!-- Node24&#45;&gt;Node15 -->
<g id="edge45" class="edge">
<title>Node24&#45;&gt;Node15</title>
<path fill="none" stroke="midnightblue" d="M1665.83,-117.74C1599.53,-111.22 1448.87,-95.54 1323,-76 1319.96,-75.53 1316.82,-75.01 1313.67,-74.46"/>
<polygon fill="midnightblue" stroke="midnightblue" points="1665.81,-121.25 1676.1,-118.74 1666.49,-114.28 1665.81,-121.25"/>
</g>
<!-- Node24&#45;&gt;Node25 -->
<g id="edge46" class="edge">
<title>Node24&#45;&gt;Node25</title>
<path fill="none" stroke="midnightblue" d="M1733.59,-115.11C1788.6,-105.47 1898.05,-86.28 1960.83,-75.27"/>
<polygon fill="midnightblue" stroke="midnightblue" points="1732.9,-111.68 1723.66,-116.85 1734.11,-118.57 1732.9,-111.68"/>
</g>
<!-- Node26 -->
<g id="node26" class="node">
<title>Node26</title>
<g id="a_node26"><a xlink:href="_burggraf_lid_8cpp.html" target="_top" xlink:title=" ">
<polygon fill="white" stroke="black" points="1676.5,-56.5 1676.5,-75.5 1769.5,-75.5 1769.5,-56.5 1676.5,-56.5"/>
<text text-anchor="middle" x="1723" y="-63.5" font-family="Helvetica,sans-Serif" font-size="10.00">BurggrafLid.cpp</text>
</a>
</g>
</g>
<!-- Node24&#45;&gt;Node26 -->
<g id="edge49" class="edge">
<title>Node24&#45;&gt;Node26</title>
<path fill="none" stroke="midnightblue" d="M1707.8,-102.69C1711.68,-93.59 1716.18,-83.01 1719.27,-75.75"/>
<polygon fill="midnightblue" stroke="midnightblue" points="1704.5,-101.51 1703.8,-112.08 1710.94,-104.25 1704.5,-101.51"/>
</g>
<!-- Node27 -->
<g id="node27" class="node">
<title>Node27</title>
<g id="a_node27"><a xlink:href="_power_law_profile_8cpp.html" target="_top" xlink:title=" ">
<polygon fill="white" stroke="black" points="1787.5,-56.5 1787.5,-75.5 1904.5,-75.5 1904.5,-56.5 1787.5,-56.5"/>
<text text-anchor="middle" x="1846" y="-63.5" font-family="Helvetica,sans-Serif" font-size="10.00">PowerLawProfile.cpp</text>
</a>
</g>
</g>
<!-- Node24&#45;&gt;Node27 -->
<g id="edge50" class="edge">
<title>Node24&#45;&gt;Node27</title>
<path fill="none" stroke="midnightblue" d="M1732.7,-108.91C1760.15,-98.75 1798.67,-84.51 1822.97,-75.52"/>
<polygon fill="midnightblue" stroke="midnightblue" points="1731.3,-105.69 1723.13,-112.44 1733.73,-112.26 1731.3,-105.69"/>
</g>
<!-- Node25&#45;&gt;Node5 -->
<g id="edge47" class="edge">
<title>Node25&#45;&gt;Node5</title>
<path fill="none" stroke="midnightblue" d="M1950.79,-56.55C1949.52,-56.36 1948.25,-56.18 1947,-56 1837.99,-40.37 1708.18,-22.51 1652.09,-14.84"/>
<polygon fill="midnightblue" stroke="midnightblue" points="1950.32,-60.01 1960.72,-57.99 1951.32,-53.09 1950.32,-60.01"/>
</g>
<!-- Node28&#45;&gt;Node8 -->
<g id="edge52" class="edge">
<title>Node28&#45;&gt;Node8</title>
<path fill="none" stroke="midnightblue" d="M505.27,-166.44C487.43,-159.7 468.46,-148.93 458,-132 444.32,-109.87 475.45,-87.45 496.24,-75.59"/>
<polygon fill="midnightblue" stroke="midnightblue" points="504.4,-169.85 515,-169.79 506.68,-163.23 504.4,-169.85"/>
</g>
<!-- Node29 -->
<g id="node29" class="node">
<title>Node29</title>
<g id="a_node29"><a xlink:href="levelset__ops_8_h.html" target="_top" xlink:title=" ">
<polygon fill="white" stroke="black" points="467.5,-112.5 467.5,-131.5 556.5,-131.5 556.5,-112.5 467.5,-112.5"/>
<text text-anchor="middle" x="512" y="-119.5" font-family="Helvetica,sans-Serif" font-size="10.00">levelset_ops.H</text>
</a>
</g>
</g>
<!-- Node28&#45;&gt;Node29 -->
<g id="edge53" class="edge">
<title>Node28&#45;&gt;Node29</title>
<path fill="none" stroke="midnightblue" d="M536.38,-159.57C530.18,-150.27 522.83,-139.25 517.83,-131.75"/>
<polygon fill="midnightblue" stroke="midnightblue" points="533.6,-161.7 542.06,-168.08 539.42,-157.82 533.6,-161.7"/>
</g>
<!-- Node29&#45;&gt;Node8 -->
<g id="edge54" class="edge">
<title>Node29&#45;&gt;Node8</title>
<path fill="none" stroke="midnightblue" d="M512.36,-101.8C512.52,-92.91 512.71,-82.78 512.84,-75.75"/>
<polygon fill="midnightblue" stroke="midnightblue" points="508.85,-102.02 512.17,-112.08 515.85,-102.15 508.85,-102.02"/>
</g>
<!-- Node30&#45;&gt;Node9 -->
<g id="edge56" class="edge">
<title>Node30&#45;&gt;Node9</title>
<path fill="none" stroke="midnightblue" d="M1241.17,-164.66C1219.27,-155.98 1189.63,-143.84 1164,-132 1146.32,-123.83 1143.67,-117.56 1125,-112 979.37,-68.6 934.71,-102.02 785,-76 782.26,-75.52 779.43,-74.96 776.6,-74.36"/>
<polygon fill="midnightblue" stroke="midnightblue" points="1240.05,-167.98 1250.64,-168.39 1242.62,-161.47 1240.05,-167.98"/>
</g>
<!-- Node31 -->
<g id="node31" class="node">
<title>Node31</title>
<g id="a_node31"><a xlink:href="sdr__ops_8_h.html" target="_top" xlink:title=" ">
<polygon fill="white" stroke="black" points="1172.5,-112.5 1172.5,-131.5 1237.5,-131.5 1237.5,-112.5 1172.5,-112.5"/>
<text text-anchor="middle" x="1205" y="-119.5" font-family="Helvetica,sans-Serif" font-size="10.00">sdr_ops.H</text>
</a>
</g>
</g>
<!-- Node30&#45;&gt;Node31 -->
<g id="edge57" class="edge">
<title>Node30&#45;&gt;Node31</title>
<path fill="none" stroke="midnightblue" d="M1254.24,-162.1C1242,-152.38 1226.44,-140.03 1216.12,-131.83"/>
<polygon fill="midnightblue" stroke="midnightblue" points="1252.07,-164.85 1262.07,-168.32 1256.42,-159.36 1252.07,-164.85"/>
</g>
<!-- Node32 -->
<g id="node32" class="node">
<title>Node32</title>
<g id="a_node32"><a xlink:href="_k_omega_s_s_t_8cpp.html" target="_top" xlink:title=" ">
<polygon fill="white" stroke="black" points="1331.5,-56.5 1331.5,-75.5 1426.5,-75.5 1426.5,-56.5 1331.5,-56.5"/>
<text text-anchor="middle" x="1379" y="-63.5" font-family="Helvetica,sans-Serif" font-size="10.00">KOmegaSST.cpp</text>
</a>
</g>
</g>
<!-- Node30&#45;&gt;Node32 -->
<g id="edge59" class="edge">
<title>Node30&#45;&gt;Node32</title>
<path fill="none" stroke="midnightblue" d="M1298.69,-163.4C1312.07,-155.46 1328.08,-144.54 1340,-132 1356.5,-114.64 1369.25,-89.11 1375.24,-75.8"/>
<polygon fill="midnightblue" stroke="midnightblue" points="1296.87,-160.4 1289.92,-168.4 1300.34,-166.48 1296.87,-160.4"/>
</g>
<!-- Node33 -->
<g id="node33" class="node">
<title>Node33</title>
<g id="a_node33"><a xlink:href="_k_omega_s_s_t_i_8_h.html" target="_top" xlink:title=" ">
<polygon fill="white" stroke="black" points="1430.5,-112.5 1430.5,-131.5 1519.5,-131.5 1519.5,-112.5 1430.5,-112.5"/>
<text text-anchor="middle" x="1475" y="-119.5" font-family="Helvetica,sans-Serif" font-size="10.00">KOmegaSSTI.H</text>
</a>
</g>
</g>
<!-- Node30&#45;&gt;Node33 -->
<g id="edge60" class="edge">
<title>Node30&#45;&gt;Node33</title>
<path fill="none" stroke="midnightblue" d="M1306.6,-168.02C1344.5,-157.89 1405.7,-141.52 1442.95,-131.57"/>
<polygon fill="midnightblue" stroke="midnightblue" points="1305.32,-164.74 1296.57,-170.7 1307.13,-171.5 1305.32,-164.74"/>
</g>
<!-- Node34 -->
<g id="node34" class="node">
<title>Node34</title>
<g id="a_node34"><a xlink:href="_k_omega_s_s_t_i_d_d_e_s_8cpp.html" target="_top" xlink:title=" ">
<polygon fill="white" stroke="black" points="1445,-56.5 1445,-75.5 1571,-75.5 1571,-56.5 1445,-56.5"/>
<text text-anchor="middle" x="1508" y="-63.5" font-family="Helvetica,sans-Serif" font-size="10.00">KOmegaSSTIDDES.cpp</text>
</a>
</g>
</g>
<!-- Node30&#45;&gt;Node34 -->
<g id="edge63" class="edge">
<title>Node30&#45;&gt;Node34</title>
<path fill="none" stroke="midnightblue" d="M1306.72,-173.48C1372.94,-166.23 1514.82,-148.89 1529,-132 1543.03,-115.29 1526.04,-89.02 1515.38,-75.57"/>
<polygon fill="midnightblue" stroke="midnightblue" points="1306.34,-170 1296.77,-174.56 1307.09,-176.96 1306.34,-170"/>
</g>
<!-- Node31&#45;&gt;Node9 -->
<g id="edge58" class="edge">
<title>Node31&#45;&gt;Node9</title>
<path fill="none" stroke="midnightblue" d="M1162.46,-112.67C1160.95,-112.44 1159.46,-112.21 1158,-112 993.14,-88.31 949.22,-103.75 785,-76 782.26,-75.54 779.43,-74.98 776.6,-74.38"/>
<polygon fill="midnightblue" stroke="midnightblue" points="1162.01,-116.14 1172.45,-114.36 1163.17,-109.24 1162.01,-116.14"/>
</g>
<!-- Node33&#45;&gt;Node32 -->
<g id="edge61" class="edge">
<title>Node33&#45;&gt;Node32</title>
<path fill="none" stroke="midnightblue" d="M1450.43,-107.18C1432.76,-97.24 1409.49,-84.15 1394.39,-75.65"/>
<polygon fill="midnightblue" stroke="midnightblue" points="1449.14,-110.47 1459.58,-112.32 1452.58,-104.37 1449.14,-110.47"/>
</g>
<!-- Node33&#45;&gt;Node34 -->
<g id="edge62" class="edge">
<title>Node33&#45;&gt;Node34</title>
<path fill="none" stroke="midnightblue" d="M1485.83,-103.27C1491.47,-94.05 1498.12,-83.17 1502.65,-75.75"/>
<polygon fill="midnightblue" stroke="midnightblue" points="1482.68,-101.73 1480.45,-112.08 1488.65,-105.38 1482.68,-101.73"/>
</g>
<!-- Node35&#45;&gt;Node10 -->
<g id="edge65" class="edge">
<title>Node35&#45;&gt;Node10</title>
<path fill="none" stroke="midnightblue" d="M399.17,-168.54C377.65,-162.23 354.95,-151.22 342,-132 326.37,-108.79 362.47,-87.1 387.21,-75.59"/>
<polygon fill="midnightblue" stroke="midnightblue" points="398.37,-171.95 408.93,-171.12 400.16,-165.18 398.37,-171.95"/>
</g>
<!-- Node36&#45;&gt;Node11 -->
<g id="edge67" class="edge">
<title>Node36&#45;&gt;Node11</title>
<path fill="none" stroke="midnightblue" d="M1082.67,-170.57C1034.3,-161.04 947.11,-143.11 917,-132 899.09,-125.39 897.03,-118.25 879,-112 839.31,-98.25 718.51,-79.34 663.2,-71.11"/>
<polygon fill="midnightblue" stroke="midnightblue" points="1082.17,-174.03 1092.66,-172.52 1083.52,-167.16 1082.17,-174.03"/>
</g>
<!-- Node36&#45;&gt;Node32 -->
<g id="edge71" class="edge">
<title>Node36&#45;&gt;Node32</title>
<path fill="none" stroke="midnightblue" d="M1149.19,-174.24C1188.74,-169.84 1255.87,-158.81 1307,-132 1334.74,-117.46 1360.18,-89.73 1372.02,-75.66"/>
<polygon fill="midnightblue" stroke="midnightblue" points="1148.63,-170.78 1139.04,-175.29 1149.35,-177.74 1148.63,-170.78"/>
</g>
<!-- Node36&#45;&gt;Node33 -->
<g id="edge72" class="edge">
<title>Node36&#45;&gt;Node33</title>
<path fill="none" stroke="midnightblue" d="M1149.05,-172.03C1213.77,-162.29 1357.24,-140.71 1430.33,-129.72"/>
<polygon fill="midnightblue" stroke="midnightblue" points="1148.37,-168.59 1139,-173.54 1149.41,-175.51 1148.37,-168.59"/>
</g>
<!-- Node36&#45;&gt;Node34 -->
<g id="edge73" class="edge">
<title>Node36&#45;&gt;Node34</title>
<path fill="none" stroke="midnightblue" d="M1149.28,-171.83C1192.54,-164.74 1270.23,-150.7 1335,-132 1391.87,-115.58 1456.63,-89.07 1488.36,-75.54"/>
<polygon fill="midnightblue" stroke="midnightblue" points="1148.62,-168.39 1139.31,-173.45 1149.74,-175.3 1148.62,-168.39"/>
</g>
<!-- Node37 -->
<g id="node37" class="node">
<title>Node37</title>
<g id="a_node37"><a xlink:href="tke__ops_8_h.html" target="_top" xlink:title=" ">
<polygon fill="white" stroke="black" points="804.5,-112.5 804.5,-131.5 869.5,-131.5 869.5,-112.5 804.5,-112.5"/>
<text text-anchor="middle" x="837" y="-119.5" font-family="Helvetica,sans-Serif" font-size="10.00">tke_ops.H</text>
</a>
</g>
</g>
<!-- Node36&#45;&gt;Node37 -->
<g id="edge68" class="edge">
<title>Node36&#45;&gt;Node37</title>
<path fill="none" stroke="midnightblue" d="M1082.64,-170.54C1028.76,-160.11 923.23,-139.69 869.75,-129.34"/>
<polygon fill="midnightblue" stroke="midnightblue" points="1082.21,-174.02 1092.69,-172.49 1083.54,-167.15 1082.21,-174.02"/>
</g>
<!-- Node38 -->
<g id="node38" class="node">
<title>Node38</title>
<g id="a_node38"><a xlink:href="_one_eq_ksgs_8cpp.html" target="_top" xlink:title=" ">
<polygon fill="white" stroke="black" points="926,-112.5 926,-131.5 1018,-131.5 1018,-112.5 926,-112.5"/>
<text text-anchor="middle" x="972" y="-119.5" font-family="Helvetica,sans-Serif" font-size="10.00">OneEqKsgs.cpp</text>
</a>
</g>
</g>
<!-- Node36&#45;&gt;Node38 -->
<g id="edge70" class="edge">
<title>Node36&#45;&gt;Node38</title>
<path fill="none" stroke="midnightblue" d="M1083.75,-164.91C1056.68,-154.75 1018.68,-140.51 994.71,-131.52"/>
<polygon fill="midnightblue" stroke="midnightblue" points="1082.59,-168.21 1093.18,-168.44 1085.05,-161.66 1082.59,-168.21"/>
</g>
<!-- Node39 -->
<g id="node39" class="node">
<title>Node39</title>
<g id="a_node39"><a xlink:href="_a_b_l_stats_8cpp.html" target="_top" xlink:title=" ">
<polygon fill="white" stroke="black" points="1036,-112.5 1036,-131.5 1116,-131.5 1116,-112.5 1036,-112.5"/>
<text text-anchor="middle" x="1076" y="-119.5" font-family="Helvetica,sans-Serif" font-size="10.00">ABLStats.cpp</text>
</a>
</g>
</g>
<!-- Node36&#45;&gt;Node39 -->
<g id="edge74" class="edge">
<title>Node36&#45;&gt;Node39</title>
<path fill="none" stroke="midnightblue" d="M1103.3,-159.86C1096.37,-150.5 1088.09,-139.33 1082.48,-131.75"/>
<polygon fill="midnightblue" stroke="midnightblue" points="1100.63,-162.13 1109.39,-168.08 1106.25,-157.96 1100.63,-162.13"/>
</g>
<!-- Node37&#45;&gt;Node11 -->
<g id="edge69" class="edge">
<title>Node37&#45;&gt;Node11</title>
<path fill="none" stroke="midnightblue" d="M795.13,-109.81C755.65,-99.25 697.56,-83.72 663.27,-74.56"/>
<polygon fill="midnightblue" stroke="midnightblue" points="794.43,-113.24 804.99,-112.44 796.24,-106.48 794.43,-113.24"/>
</g>
<!-- Node40&#45;&gt;Node12 -->
<g id="edge76" class="edge">
<title>Node40&#45;&gt;Node12</title>
<path fill="none" stroke="midnightblue" d="M1245.96,-112.19C1098.49,-84.51 1048.35,-130.99 913,-76 881.12,-63.05 851.3,-34.07 837.71,-19.58"/>
<polygon fill="midnightblue" stroke="midnightblue" points="1245.33,-115.63 1255.82,-114.12 1246.68,-108.76 1245.33,-115.63"/>
</g>
<!-- Node40&#45;&gt;Node16 -->
<g id="edge79" class="edge">
<title>Node40&#45;&gt;Node16</title>
<path fill="none" stroke="midnightblue" d="M1245.54,-112.08C1084.35,-81.03 1039.01,-98.07 880,-76 875.37,-75.36 870.51,-74.59 865.72,-73.79"/>
<polygon fill="midnightblue" stroke="midnightblue" points="1245.34,-115.61 1255.82,-114.09 1246.68,-108.74 1245.34,-115.61"/>
</g>
<!-- Node41 -->
<g id="node41" class="node">
<title>Node41</title>
<g id="a_node41"><a xlink:href="vof__advection_8_h.html" target="_top" xlink:title=" ">
<polygon fill="white" stroke="black" points="922,-56.5 922,-75.5 1018,-75.5 1018,-56.5 922,-56.5"/>
<text text-anchor="middle" x="970" y="-63.5" font-family="Helvetica,sans-Serif" font-size="10.00">vof_advection.H</text>
</a>
</g>
</g>
<!-- Node40&#45;&gt;Node41 -->
<g id="edge77" class="edge">
<title>Node40&#45;&gt;Node41</title>
<path fill="none" stroke="midnightblue" d="M1245.99,-112.15C1203.15,-103.5 1085.45,-84.96 1018.23,-74.48"/>
<polygon fill="midnightblue" stroke="midnightblue" points="1245.27,-115.57 1255.79,-114.26 1246.75,-108.73 1245.27,-115.57"/>
</g>
<!-- Node42 -->
<g id="node42" class="node">
<title>Node42</title>
<g id="a_node42"><a xlink:href="vof__ops_8_h.html" target="_top" xlink:title=" ">
<polygon fill="white" stroke="black" points="1036.5,-56.5 1036.5,-75.5 1101.5,-75.5 1101.5,-56.5 1036.5,-56.5"/>
<text text-anchor="middle" x="1069" y="-63.5" font-family="Helvetica,sans-Serif" font-size="10.00">vof_ops.H</text>
</a>
</g>
</g>
<!-- Node40&#45;&gt;Node42 -->
<g id="edge80" class="edge">
<title>Node40&#45;&gt;Node42</title>
<path fill="none" stroke="midnightblue" d="M1246.01,-111.81C1190.07,-96.46 1135.42,-82.96 1101.59,-74.79"/>
<polygon fill="midnightblue" stroke="midnightblue" points="1245.16,-115.21 1255.73,-114.49 1247.02,-108.46 1245.16,-115.21"/>
</g>
<!-- Node41&#45;&gt;Node12 -->
<g id="edge78" class="edge">
<title>Node41&#45;&gt;Node12</title>
<path fill="none" stroke="midnightblue" d="M938.3,-52.77C912,-42.63 875.28,-28.47 852.08,-19.52"/>
<polygon fill="midnightblue" stroke="midnightblue" points="937.23,-56.11 947.82,-56.44 939.75,-49.58 937.23,-56.11"/>
</g>
<!-- Node42&#45;&gt;Node12 -->
<g id="edge81" class="edge">
<title>Node42&#45;&gt;Node12</title>
<path fill="none" stroke="midnightblue" d="M1026.21,-55.33C976.79,-44.17 897.05,-26.15 856.1,-16.9"/>
<polygon fill="midnightblue" stroke="midnightblue" points="1025.74,-58.81 1036.27,-57.6 1027.29,-51.99 1025.74,-58.81"/>
</g>
<!-- Node43&#45;&gt;Node7 -->
<g id="edge85" class="edge">
<title>Node43&#45;&gt;Node7</title>
<path fill="none" stroke="midnightblue" d="M1651.93,-270.69C1649.06,-262.62 1645.97,-252.95 1644,-244 1629.94,-180.28 1625.47,-101.36 1624.33,-75.58"/>
<polygon fill="midnightblue" stroke="midnightblue" points="1648.69,-272.03 1655.45,-280.19 1655.26,-269.6 1648.69,-272.03"/>
</g>
<!-- Node43&#45;&gt;Node21 -->
<g id="edge86" class="edge">
<title>Node43&#45;&gt;Node21</title>
<path fill="none" stroke="midnightblue" d="M1604.08,-283.35C1491.05,-271.72 1236.42,-245.53 1157.66,-237.43"/>
<polygon fill="midnightblue" stroke="midnightblue" points="1603.93,-286.85 1614.24,-284.4 1604.65,-279.89 1603.93,-286.85"/>
</g>
<!-- Node43&#45;&gt;Node25 -->
<g id="edge84" class="edge">
<title>Node43&#45;&gt;Node25</title>
<path fill="none" stroke="midnightblue" d="M1691.44,-276.69C1711.9,-268.44 1738.61,-256.78 1761,-244 1773.66,-236.78 1948.54,-110.11 1996.12,-75.62"/>
<polygon fill="midnightblue" stroke="midnightblue" points="1689.94,-273.52 1681.94,-280.46 1692.52,-280.03 1689.94,-273.52"/>
</g>
<!-- Node44 -->
<g id="node44" class="node">
<title>Node44</title>
<g id="a_node44"><a xlink:href="_diffusion_ops_8cpp.html" target="_top" xlink:title=" ">
<polygon fill="white" stroke="black" points="1652.5,-224.5 1652.5,-243.5 1751.5,-243.5 1751.5,-224.5 1652.5,-224.5"/>
<text text-anchor="middle" x="1702" y="-231.5" font-family="Helvetica,sans-Serif" font-size="10.00">DiffusionOps.cpp</text>
</a>
</g>
</g>
<!-- Node43&#45;&gt;Node44 -->
<g id="edge83" class="edge">
<title>Node43&#45;&gt;Node44</title>
<path fill="none" stroke="midnightblue" d="M1672.42,-272.14C1679.91,-262.74 1688.94,-251.4 1695.03,-243.75"/>
<polygon fill="midnightblue" stroke="midnightblue" points="1669.59,-270.08 1666.1,-280.08 1675.07,-274.44 1669.59,-270.08"/>
</g>
</g>
</svg>
