<?xml version="1.0" encoding="UTF-8" standalone="no"?>
<!DOCTYPE svg PUBLIC "-//W3C//DTD SVG 1.1//EN"
 "http://www.w3.org/Graphics/SVG/1.1/DTD/svg11.dtd">
<!-- Generated by graphviz version 2.43.0 (0)
 -->
<!-- Title: PDEHelpers.H Pages: 1 -->
<!--zoomable 330 -->
<svg id="main" version="1.1" xmlns="http://www.w3.org/2000/svg" xmlns:xlink="http://www.w3.org/1999/xlink" xml:space="preserve" onload="init(evt)">
<style type="text/css"><![CDATA[
.edge:hover path { stroke: red; }
.edge:hover polygon { stroke: red; fill: red; }
]]></style>
<script type="text/javascript"><![CDATA[
var edges = document.getElementsByTagName('g');
if (edges && edges.length) {
  for (var i=0;i<edges.length;i++) {
    if (edges[i].id.substr(0,4)=='edge') {
      edges[i].setAttribute('class','edge');
    }
  }
}
]]></script>
        <defs>
                <circle id="rim" cx="0" cy="0" r="7"/>
                <circle id="rim2" cx="0" cy="0" r="3.5"/>
                <g id="zoomPlus">
                        <use xlink:href="#rim" fill="#404040">
                                <set attributeName="fill" to="#808080" begin="zoomplus.mouseover" end="zoomplus.mouseout"/>
                        </use>
                        <path d="M-4,0h8M0,-4v8" fill="none" stroke="white" stroke-width="1.5" pointer-events="none"/>
                </g>
                <g id="zoomMin">
                        <use xlink:href="#rim" fill="#404040">
                                <set attributeName="fill" to="#808080" begin="zoomminus.mouseover" end="zoomminus.mouseout"/>
                        </use>
                        <path d="M-4,0h8" fill="none" stroke="white" stroke-width="1.5" pointer-events="none"/>
                </g>
                <g id="dirArrow">
                        <path fill="none" stroke="white" stroke-width="1.5" d="M0,-3.0v7 M-2.5,-0.5L0,-3.0L2.5,-0.5"/>
                </g>
               <g id="resetDef">
                       <use xlink:href="#rim2" fill="#404040">
                               <set attributeName="fill" to="#808080" begin="reset.mouseover" end="reset.mouseout"/>
                       </use>
               </g>
        </defs>

<script type="text/javascript">
var viewWidth = 2613;
var viewHeight = 330;
var sectionId = 'dynsection-0';
</script>
<script xlink:href="svgpan.js"/>
<svg id="graph" class="graph">
<g id="viewport">
<title>PDEHelpers.H</title>
<polygon fill="white" stroke="transparent" points="-4,4 -4,-326 2609,-326 2609,4 -4,4"/>
<!-- Node1 -->
<g id="node1" class="node">
<title>Node1</title>
<g id="a_node1"><a xlink:title=" ">
<polygon fill="#bfbfbf" stroke="black" points="1821,-302.5 1821,-321.5 1905,-321.5 1905,-302.5 1821,-302.5"/>
<text text-anchor="middle" x="1863" y="-309.5" font-family="Helvetica,sans-Serif" font-size="10.00">PDEHelpers.H</text>
</a>
</g>
</g>
<!-- Node2 -->
<g id="node2" class="node">
<title>Node2</title>
<g id="a_node2"><a xlink:title=" ">
<polygon fill="white" stroke="#bfbfbf" points="260,-0.5 260,-19.5 304,-19.5 304,-0.5 260,-0.5"/>
<text text-anchor="middle" x="282" y="-7.5" font-family="Helvetica,sans-Serif" font-size="10.00">string</text>
</a>
</g>
</g>
<!-- Node1&#45;&gt;Node2 -->
<g id="edge1" class="edge">
<title>Node1&#45;&gt;Node2</title>
<path fill="none" stroke="midnightblue" d="M1820.59,-310.53C1543.28,-307.2 0,-284.4 0,-190 0,-190 0,-190 0,-126.5 0,-78.44 39.06,-77.58 82,-56 136.88,-28.42 208.66,-17.57 249.61,-13.43"/>
<polygon fill="midnightblue" stroke="midnightblue" points="250.19,-16.9 259.82,-12.48 249.53,-9.93 250.19,-16.9"/>
</g>
<!-- Node3 -->
<g id="node3" class="node">
<title>Node3</title>
<g id="a_node3"><a xlink:href="_p_d_e_fields_8_h.html" target="_top" xlink:title=" ">
<polygon fill="white" stroke="black" points="2184.5,-235.5 2184.5,-265.5 2339.5,-265.5 2339.5,-235.5 2184.5,-235.5"/>
<text text-anchor="start" x="2192.5" y="-253.5" font-family="Helvetica,sans-Serif" font-size="10.00">amr&#45;wind/equation_systems</text>
<text text-anchor="middle" x="2262" y="-242.5" font-family="Helvetica,sans-Serif" font-size="10.00">/PDEFields.H</text>
</a>
</g>
</g>
<!-- Node1&#45;&gt;Node3 -->
<g id="edge2" class="edge">
<title>Node1&#45;&gt;Node3</title>
<path fill="none" stroke="midnightblue" d="M1905.32,-304.69C1969.02,-295.19 2090.93,-277.01 2174.33,-264.57"/>
<polygon fill="midnightblue" stroke="midnightblue" points="2174.93,-268.02 2184.3,-263.09 2173.89,-261.1 2174.93,-268.02"/>
</g>
<!-- Node5 -->
<g id="node5" class="node">
<title>Node5</title>
<g id="a_node5"><a xlink:href="_sim_time_8_h.html" target="_top" xlink:title=" ">
<polygon fill="white" stroke="black" points="2178,-179.5 2178,-198.5 2322,-198.5 2322,-179.5 2178,-179.5"/>
<text text-anchor="middle" x="2250" y="-186.5" font-family="Helvetica,sans-Serif" font-size="10.00">amr&#45;wind/core/SimTime.H</text>
</a>
</g>
</g>
<!-- Node1&#45;&gt;Node5 -->
<g id="edge4" class="edge">
<title>Node1&#45;&gt;Node5</title>
<path fill="none" stroke="midnightblue" d="M1890.21,-302.49C1958.13,-281.26 2135.21,-225.89 2212.74,-201.65"/>
<polygon fill="midnightblue" stroke="midnightblue" points="2214.06,-204.9 2222.56,-198.58 2211.97,-198.22 2214.06,-204.9"/>
</g>
<!-- Node9 -->
<g id="node9" class="node">
<title>Node9</title>
<g id="a_node9"><a xlink:href="_field_repo_8_h.html" target="_top" xlink:title=" ">
<polygon fill="white" stroke="black" points="769.5,-179.5 769.5,-198.5 918.5,-198.5 918.5,-179.5 769.5,-179.5"/>
<text text-anchor="middle" x="844" y="-186.5" font-family="Helvetica,sans-Serif" font-size="10.00">amr&#45;wind/core/FieldRepo.H</text>
</a>
</g>
</g>
<!-- Node1&#45;&gt;Node9 -->
<g id="edge8" class="edge">
<title>Node1&#45;&gt;Node9</title>
<path fill="none" stroke="midnightblue" d="M1820.83,-305.99C1666.72,-287.69 1132.24,-224.23 926.04,-199.74"/>
<polygon fill="midnightblue" stroke="midnightblue" points="926.22,-196.24 915.88,-198.53 925.39,-203.19 926.22,-196.24"/>
</g>
<!-- Node30 -->
<g id="node30" class="node">
<title>Node30</title>
<g id="a_node30"><a xlink:href="_field_fill_patch_ops_8_h.html" target="_top" xlink:title=" ">
<polygon fill="white" stroke="black" points="1734,-235.5 1734,-265.5 1888,-265.5 1888,-235.5 1734,-235.5"/>
<text text-anchor="start" x="1742" y="-253.5" font-family="Helvetica,sans-Serif" font-size="10.00">amr&#45;wind/core/FieldFillPatch</text>
<text text-anchor="middle" x="1811" y="-242.5" font-family="Helvetica,sans-Serif" font-size="10.00">Ops.H</text>
</a>
</g>
</g>
<!-- Node1&#45;&gt;Node30 -->
<g id="edge54" class="edge">
<title>Node1&#45;&gt;Node30</title>
<path fill="none" stroke="midnightblue" d="M1855.55,-302.48C1848.9,-294.87 1838.88,-283.4 1830.02,-273.26"/>
<polygon fill="midnightblue" stroke="midnightblue" points="1832.47,-270.75 1823.26,-265.52 1827.2,-275.36 1832.47,-270.75"/>
</g>
<!-- Node31 -->
<g id="node31" class="node">
<title>Node31</title>
<g id="a_node31"><a xlink:href="_field_b_c_ops_8_h.html" target="_top" xlink:title=" ">
<polygon fill="white" stroke="black" points="1900,-179.5 1900,-198.5 2056,-198.5 2056,-179.5 1900,-179.5"/>
<text text-anchor="middle" x="1978" y="-186.5" font-family="Helvetica,sans-Serif" font-size="10.00">amr&#45;wind/core/FieldBCOps.H</text>
</a>
</g>
</g>
<!-- Node1&#45;&gt;Node31 -->
<g id="edge71" class="edge">
<title>Node1&#45;&gt;Node31</title>
<path fill="none" stroke="midnightblue" d="M1871.27,-302.3C1890.42,-282.15 1938.03,-232.06 1962.67,-206.12"/>
<polygon fill="midnightblue" stroke="midnightblue" points="1965.45,-208.28 1969.8,-198.62 1960.38,-203.46 1965.45,-208.28"/>
</g>
<!-- Node4 -->
<g id="node4" class="node">
<title>Node4</title>
<g id="a_node4"><a xlink:title=" ">
<polygon fill="white" stroke="#bfbfbf" points="2340,-179.5 2340,-198.5 2388,-198.5 2388,-179.5 2340,-179.5"/>
<text text-anchor="middle" x="2364" y="-186.5" font-family="Helvetica,sans-Serif" font-size="10.00">iosfwd</text>
</a>
</g>
</g>
<!-- Node3&#45;&gt;Node4 -->
<g id="edge3" class="edge">
<title>Node3&#45;&gt;Node4</title>
<path fill="none" stroke="midnightblue" d="M2286.17,-235.4C2302.52,-225.86 2324.01,-213.32 2340.27,-203.84"/>
<polygon fill="midnightblue" stroke="midnightblue" points="2342.28,-206.72 2349.16,-198.66 2338.76,-200.67 2342.28,-206.72"/>
</g>
<!-- Node6 -->
<g id="node6" class="node">
<title>Node6</title>
<g id="a_node6"><a xlink:title=" ">
<polygon fill="white" stroke="#bfbfbf" points="2227,-118 2227,-137 2319,-137 2319,-118 2227,-118"/>
<text text-anchor="middle" x="2273" y="-125" font-family="Helvetica,sans-Serif" font-size="10.00">AMReX_REAL.H</text>
</a>
</g>
</g>
<!-- Node5&#45;&gt;Node6 -->
<g id="edge5" class="edge">
<title>Node5&#45;&gt;Node6</title>
<path fill="none" stroke="midnightblue" d="M2253.3,-179.48C2256.61,-170.9 2261.82,-157.43 2266.05,-146.48"/>
<polygon fill="midnightblue" stroke="midnightblue" points="2269.37,-147.6 2269.71,-137.01 2262.84,-145.07 2269.37,-147.6"/>
</g>
<!-- Node7 -->
<g id="node7" class="node">
<title>Node7</title>
<g id="a_node7"><a xlink:title=" ">
<polygon fill="white" stroke="#bfbfbf" points="2471,-118 2471,-137 2605,-137 2605,-118 2471,-118"/>
<text text-anchor="middle" x="2538" y="-125" font-family="Helvetica,sans-Serif" font-size="10.00">AMReX_GpuQualifiers.H</text>
</a>
</g>
</g>
<!-- Node5&#45;&gt;Node7 -->
<g id="edge6" class="edge">
<title>Node5&#45;&gt;Node7</title>
<path fill="none" stroke="midnightblue" d="M2291.26,-179.48C2342.8,-168.83 2430.98,-150.61 2486.79,-139.08"/>
<polygon fill="midnightblue" stroke="midnightblue" points="2487.73,-142.46 2496.81,-137.01 2486.31,-135.6 2487.73,-142.46"/>
</g>
<!-- Node8 -->
<g id="node8" class="node">
<title>Node8</title>
<g id="a_node8"><a xlink:title=" ">
<polygon fill="white" stroke="#bfbfbf" points="2337,-118 2337,-137 2453,-137 2453,-118 2337,-118"/>
<text text-anchor="middle" x="2395" y="-125" font-family="Helvetica,sans-Serif" font-size="10.00">AMReX_Extension.H</text>
</a>
</g>
</g>
<!-- Node5&#45;&gt;Node8 -->
<g id="edge7" class="edge">
<title>Node5&#45;&gt;Node8</title>
<path fill="none" stroke="midnightblue" d="M2270.77,-179.48C2295.43,-169.36 2336.75,-152.4 2364.9,-140.85"/>
<polygon fill="midnightblue" stroke="midnightblue" points="2366.34,-144.04 2374.26,-137.01 2363.68,-137.57 2366.34,-144.04"/>
</g>
<!-- Node9&#45;&gt;Node2 -->
<g id="edge9" class="edge">
<title>Node9&#45;&gt;Node2</title>
<path fill="none" stroke="midnightblue" d="M769.47,-186.29C583.49,-181.65 112.1,-167.52 89,-143 79.92,-133.36 80.31,-70 92,-56 111.94,-32.13 200.95,-19.35 249.74,-14.04"/>
<polygon fill="midnightblue" stroke="midnightblue" points="250.21,-17.51 259.79,-12.99 249.48,-10.55 250.21,-17.51"/>
</g>
<!-- Node10 -->
<g id="node10" class="node">
<title>Node10</title>
<g id="a_node10"><a xlink:title=" ">
<polygon fill="white" stroke="#bfbfbf" points="1032.5,-56.5 1032.5,-75.5 1125.5,-75.5 1125.5,-56.5 1032.5,-56.5"/>
<text text-anchor="middle" x="1079" y="-63.5" font-family="Helvetica,sans-Serif" font-size="10.00">unordered_map</text>
</a>
</g>
</g>
<!-- Node9&#45;&gt;Node10 -->
<g id="edge10" class="edge">
<title>Node9&#45;&gt;Node10</title>
<path fill="none" stroke="midnightblue" d="M860.56,-179.39C876.96,-170.7 902.65,-156.64 924,-143 943.85,-130.32 946.36,-123.36 967,-112 991.3,-98.62 1020.43,-87.04 1042.89,-78.98"/>
<polygon fill="midnightblue" stroke="midnightblue" points="1044.11,-82.26 1052.38,-75.64 1041.79,-75.66 1044.11,-82.26"/>
</g>
<!-- Node11 -->
<g id="node11" class="node">
<title>Node11</title>
<g id="a_node11"><a xlink:href="_field_desc_types_8_h.html" target="_top" xlink:title=" ">
<polygon fill="white" stroke="black" points="916,-0.5 916,-19.5 1092,-19.5 1092,-0.5 916,-0.5"/>
<text text-anchor="middle" x="1004" y="-7.5" font-family="Helvetica,sans-Serif" font-size="10.00">amr&#45;wind/core/FieldDescTypes.H</text>
</a>
</g>
</g>
<!-- Node9&#45;&gt;Node11 -->
<g id="edge11" class="edge">
<title>Node9&#45;&gt;Node11</title>
<path fill="none" stroke="midnightblue" d="M851.97,-179.31C869.18,-160.52 911.13,-114.68 946,-76 960.79,-59.6 977.57,-40.76 989.27,-27.6"/>
<polygon fill="midnightblue" stroke="midnightblue" points="992.12,-29.66 996.15,-19.86 986.89,-25.01 992.12,-29.66"/>
</g>
<!-- Node12 -->
<g id="node12" class="node">
<title>Node12</title>
<g id="a_node12"><a xlink:href="_field_utils_8_h.html" target="_top" xlink:title=" ">
<polygon fill="white" stroke="black" points="1717,-118 1717,-137 1863,-137 1863,-118 1717,-118"/>
<text text-anchor="middle" x="1790" y="-125" font-family="Helvetica,sans-Serif" font-size="10.00">amr&#45;wind/core/FieldUtils.H</text>
</a>
</g>
</g>
<!-- Node9&#45;&gt;Node12 -->
<g id="edge12" class="edge">
<title>Node9&#45;&gt;Node12</title>
<path fill="none" stroke="midnightblue" d="M918.63,-183.31C1092.69,-172.36 1524.56,-145.2 1706.78,-133.73"/>
<polygon fill="midnightblue" stroke="midnightblue" points="1707.08,-137.22 1716.85,-133.1 1706.65,-130.24 1707.08,-137.22"/>
</g>
<!-- Node13 -->
<g id="node13" class="node">
<title>Node13</title>
<g id="a_node13"><a xlink:title=" ">
<polygon fill="white" stroke="#bfbfbf" points="755.5,-0.5 755.5,-19.5 864.5,-19.5 864.5,-0.5 755.5,-0.5"/>
<text text-anchor="middle" x="810" y="-7.5" font-family="Helvetica,sans-Serif" font-size="10.00">AMReX_MultiFab.H</text>
</a>
</g>
</g>
<!-- Node9&#45;&gt;Node13 -->
<g id="edge52" class="edge">
<title>Node9&#45;&gt;Node13</title>
<path fill="none" stroke="midnightblue" d="M838.97,-179.38C828.61,-161.1 805.2,-116.72 797,-76 793.84,-60.31 797.95,-42.49 802.36,-29.48"/>
<polygon fill="midnightblue" stroke="midnightblue" points="805.75,-30.42 805.99,-19.83 799.19,-27.96 805.75,-30.42"/>
</g>
<!-- Node15 -->
<g id="node15" class="node">
<title>Node15</title>
<g id="a_node15"><a xlink:href="_field_8_h.html" target="_top" xlink:title=" ">
<polygon fill="white" stroke="black" points="1346,-118 1346,-137 1470,-137 1470,-118 1346,-118"/>
<text text-anchor="middle" x="1408" y="-125" font-family="Helvetica,sans-Serif" font-size="10.00">amr&#45;wind/core/Field.H</text>
</a>
</g>
</g>
<!-- Node9&#45;&gt;Node15 -->
<g id="edge16" class="edge">
<title>Node9&#45;&gt;Node15</title>
<path fill="none" stroke="midnightblue" d="M918.6,-180.13C1027.36,-168.66 1228.17,-147.47 1335.64,-136.13"/>
<polygon fill="midnightblue" stroke="midnightblue" points="1336.17,-139.6 1345.75,-135.07 1335.44,-132.64 1336.17,-139.6"/>
</g>
<!-- Node23 -->
<g id="node23" class="node">
<title>Node23</title>
<g id="a_node23"><a xlink:href="_int_field_8_h.html" target="_top" xlink:title=" ">
<polygon fill="white" stroke="black" points="98.5,-118 98.5,-137 235.5,-137 235.5,-118 98.5,-118"/>
<text text-anchor="middle" x="167" y="-125" font-family="Helvetica,sans-Serif" font-size="10.00">amr&#45;wind/core/IntField.H</text>
</a>
</g>
</g>
<!-- Node9&#45;&gt;Node23 -->
<g id="edge31" class="edge">
<title>Node9&#45;&gt;Node23</title>
<path fill="none" stroke="midnightblue" d="M769.22,-183.9C658.59,-177.45 444.89,-163.51 264,-143 252.75,-141.72 240.79,-140.13 229.26,-138.47"/>
<polygon fill="midnightblue" stroke="midnightblue" points="229.67,-135 219.27,-137.01 228.65,-141.92 229.67,-135"/>
</g>
<!-- Node24 -->
<g id="node24" class="node">
<title>Node24</title>
<g id="a_node24"><a xlink:title=" ">
<polygon fill="white" stroke="#bfbfbf" points="142,-56.5 142,-75.5 254,-75.5 254,-56.5 142,-56.5"/>
<text text-anchor="middle" x="198" y="-63.5" font-family="Helvetica,sans-Serif" font-size="10.00">AMReX_iMultiFab.H</text>
</a>
</g>
</g>
<!-- Node9&#45;&gt;Node24 -->
<g id="edge53" class="edge">
<title>Node9&#45;&gt;Node24</title>
<path fill="none" stroke="midnightblue" d="M769.29,-186.67C641.67,-183.58 387.38,-173.68 304,-143 267.93,-129.73 233.09,-100.64 213.7,-82.55"/>
<polygon fill="midnightblue" stroke="midnightblue" points="216.03,-79.93 206.39,-75.54 211.19,-84.99 216.03,-79.93"/>
</g>
<!-- Node25 -->
<g id="node25" class="node">
<title>Node25</title>
<g id="a_node25"><a xlink:href="_scratch_field_8_h.html" target="_top" xlink:title=" ">
<polygon fill="white" stroke="black" points="555,-118 555,-137 715,-137 715,-118 555,-118"/>
<text text-anchor="middle" x="635" y="-125" font-family="Helvetica,sans-Serif" font-size="10.00">amr&#45;wind/core/ScratchField.H</text>
</a>
</g>
</g>
<!-- Node9&#45;&gt;Node25 -->
<g id="edge35" class="edge">
<title>Node9&#45;&gt;Node25</title>
<path fill="none" stroke="midnightblue" d="M814.06,-179.48C777.43,-169.05 715.3,-151.36 674.72,-139.81"/>
<polygon fill="midnightblue" stroke="midnightblue" points="675.47,-136.38 664.89,-137.01 673.55,-143.11 675.47,-136.38"/>
</g>
<!-- Node28 -->
<g id="node28" class="node">
<title>Node28</title>
<g id="a_node28"><a xlink:href="_int_scratch_field_8_h.html" target="_top" xlink:title=" ">
<polygon fill="white" stroke="black" points="313.5,-112.5 313.5,-142.5 452.5,-142.5 452.5,-112.5 313.5,-112.5"/>
<text text-anchor="start" x="321.5" y="-130.5" font-family="Helvetica,sans-Serif" font-size="10.00">amr&#45;wind/core/IntScratch</text>
<text text-anchor="middle" x="383" y="-119.5" font-family="Helvetica,sans-Serif" font-size="10.00">Field.H</text>
</a>
</g>
</g>
<!-- Node9&#45;&gt;Node28 -->
<g id="edge43" class="edge">
<title>Node9&#45;&gt;Node28</title>
<path fill="none" stroke="midnightblue" d="M777.95,-179.48C694.76,-168.74 551.95,-150.31 462.77,-138.8"/>
<polygon fill="midnightblue" stroke="midnightblue" points="463.06,-135.3 452.7,-137.5 462.17,-142.25 463.06,-135.3"/>
</g>
<!-- Node29 -->
<g id="node29" class="node">
<title>Node29</title>
<g id="a_node29"><a xlink:title=" ">
<polygon fill="white" stroke="#bfbfbf" points="976,-118 976,-137 1086,-137 1086,-118 976,-118"/>
<text text-anchor="middle" x="1031" y="-125" font-family="Helvetica,sans-Serif" font-size="10.00">AMReX_AmrCore.H</text>
</a>
</g>
</g>
<!-- Node9&#45;&gt;Node29 -->
<g id="edge51" class="edge">
<title>Node9&#45;&gt;Node29</title>
<path fill="none" stroke="midnightblue" d="M870.79,-179.48C903.29,-169.14 958.21,-151.66 994.54,-140.1"/>
<polygon fill="midnightblue" stroke="midnightblue" points="995.79,-143.38 1004.26,-137.01 993.67,-136.71 995.79,-143.38"/>
</g>
<!-- Node12&#45;&gt;Node11 -->
<g id="edge13" class="edge">
<title>Node12&#45;&gt;Node11</title>
<path fill="none" stroke="midnightblue" d="M1799.93,-117.66C1815.03,-103.2 1840.28,-74.26 1823,-56 1798.59,-30.21 1314.93,-17.29 1102.56,-12.84"/>
<polygon fill="midnightblue" stroke="midnightblue" points="1102.42,-9.34 1092.35,-12.63 1102.27,-16.34 1102.42,-9.34"/>
</g>
<!-- Node12&#45;&gt;Node13 -->
<g id="edge14" class="edge">
<title>Node12&#45;&gt;Node13</title>
<path fill="none" stroke="midnightblue" d="M1793.22,-117.71C1798.07,-102.78 1805.05,-72.49 1789,-56 1754.79,-20.86 955.93,-23.27 907,-20 896.58,-19.3 885.54,-18.42 874.79,-17.48"/>
<polygon fill="midnightblue" stroke="midnightblue" points="874.87,-13.97 864.6,-16.56 874.24,-20.94 874.87,-13.97"/>
</g>
<!-- Node14 -->
<g id="node14" class="node">
<title>Node14</title>
<g id="a_node14"><a xlink:title=" ">
<polygon fill="white" stroke="#bfbfbf" points="1875,-56.5 1875,-75.5 1999,-75.5 1999,-56.5 1875,-56.5"/>
<text text-anchor="middle" x="1937" y="-63.5" font-family="Helvetica,sans-Serif" font-size="10.00">AMReX_Interpolater.H</text>
</a>
</g>
</g>
<!-- Node12&#45;&gt;Node14 -->
<g id="edge15" class="edge">
<title>Node12&#45;&gt;Node14</title>
<path fill="none" stroke="midnightblue" d="M1811.06,-117.98C1836.06,-107.86 1877.94,-90.9 1906.49,-79.35"/>
<polygon fill="midnightblue" stroke="midnightblue" points="1908.02,-82.51 1915.98,-75.51 1905.39,-76.02 1908.02,-82.51"/>
</g>
<!-- Node15&#45;&gt;Node2 -->
<g id="edge17" class="edge">
<title>Node15&#45;&gt;Node2</title>
<path fill="none" stroke="midnightblue" d="M1345.76,-119.05C1296.36,-111.81 1226.17,-98.53 1168,-76 1151.65,-69.67 1150.79,-61.04 1134,-56 986.1,-11.58 594.2,-28.39 440,-20 396.5,-17.63 346.26,-14.74 314.33,-12.89"/>
<polygon fill="midnightblue" stroke="midnightblue" points="314.43,-9.39 304.24,-12.3 314.02,-16.38 314.43,-9.39"/>
</g>
<!-- Node15&#45;&gt;Node10 -->
<g id="edge19" class="edge">
<title>Node15&#45;&gt;Node10</title>
<path fill="none" stroke="midnightblue" d="M1360.86,-117.98C1301.33,-107.21 1199,-88.7 1135.38,-77.2"/>
<polygon fill="midnightblue" stroke="midnightblue" points="1135.98,-73.75 1125.52,-75.41 1134.74,-80.64 1135.98,-73.75"/>
</g>
<!-- Node15&#45;&gt;Node11 -->
<g id="edge25" class="edge">
<title>Node15&#45;&gt;Node11</title>
<path fill="none" stroke="midnightblue" d="M1470.29,-126.6C1557.41,-124.73 1699.34,-113.21 1646,-56 1609.77,-17.14 1272.95,-11.18 1102.23,-10.69"/>
<polygon fill="midnightblue" stroke="midnightblue" points="1102.23,-7.19 1092.23,-10.67 1102.22,-14.19 1102.23,-7.19"/>
</g>
<!-- Node15&#45;&gt;Node13 -->
<g id="edge21" class="edge">
<title>Node15&#45;&gt;Node13</title>
<path fill="none" stroke="midnightblue" d="M1365.44,-117.97C1325.07,-109.32 1263.03,-94.59 1211,-76 1191.15,-68.91 1188.26,-61.83 1168,-56 1140.52,-48.09 970.11,-28.57 874.64,-18.03"/>
<polygon fill="midnightblue" stroke="midnightblue" points="874.84,-14.53 864.52,-16.91 874.07,-21.49 874.84,-14.53"/>
</g>
<!-- Node16 -->
<g id="node16" class="node">
<title>Node16</title>
<g id="a_node16"><a xlink:title=" ">
<polygon fill="white" stroke="#bfbfbf" points="1497,-56.5 1497,-75.5 1555,-75.5 1555,-56.5 1497,-56.5"/>
<text text-anchor="middle" x="1526" y="-63.5" font-family="Helvetica,sans-Serif" font-size="10.00">memory</text>
</a>
</g>
</g>
<!-- Node15&#45;&gt;Node16 -->
<g id="edge18" class="edge">
<title>Node15&#45;&gt;Node16</title>
<path fill="none" stroke="midnightblue" d="M1424.91,-117.98C1444.53,-108.08 1477.13,-91.64 1499.99,-80.12"/>
<polygon fill="midnightblue" stroke="midnightblue" points="1501.77,-83.14 1509.12,-75.51 1498.62,-76.89 1501.77,-83.14"/>
</g>
<!-- Node17 -->
<g id="node17" class="node">
<title>Node17</title>
<g id="a_node17"><a xlink:title=" ">
<polygon fill="white" stroke="#bfbfbf" points="1573,-56.5 1573,-75.5 1637,-75.5 1637,-56.5 1573,-56.5"/>
<text text-anchor="middle" x="1605" y="-63.5" font-family="Helvetica,sans-Serif" font-size="10.00">algorithm</text>
</a>
</g>
</g>
<!-- Node15&#45;&gt;Node17 -->
<g id="edge20" class="edge">
<title>Node15&#45;&gt;Node17</title>
<path fill="none" stroke="midnightblue" d="M1436.23,-117.98C1470.6,-107.59 1528.81,-90.01 1567.08,-78.45"/>
<polygon fill="midnightblue" stroke="midnightblue" points="1568.27,-81.75 1576.83,-75.51 1566.24,-75.05 1568.27,-81.75"/>
</g>
<!-- Node18 -->
<g id="node18" class="node">
<title>Node18</title>
<g id="a_node18"><a xlink:title=" ">
<polygon fill="white" stroke="#bfbfbf" points="1220.5,-56.5 1220.5,-75.5 1319.5,-75.5 1319.5,-56.5 1220.5,-56.5"/>
<text text-anchor="middle" x="1270" y="-63.5" font-family="Helvetica,sans-Serif" font-size="10.00">AMReX_BCRec.H</text>
</a>
</g>
</g>
<!-- Node15&#45;&gt;Node18 -->
<g id="edge22" class="edge">
<title>Node15&#45;&gt;Node18</title>
<path fill="none" stroke="midnightblue" d="M1388.23,-117.98C1364.86,-107.9 1325.79,-91.05 1299,-79.5"/>
<polygon fill="midnightblue" stroke="midnightblue" points="1300.3,-76.25 1289.74,-75.51 1297.53,-82.68 1300.3,-76.25"/>
</g>
<!-- Node19 -->
<g id="node19" class="node">
<title>Node19</title>
<g id="a_node19"><a xlink:title=" ">
<polygon fill="white" stroke="#bfbfbf" points="1693.5,-56.5 1693.5,-75.5 1780.5,-75.5 1780.5,-56.5 1693.5,-56.5"/>
<text text-anchor="middle" x="1737" y="-63.5" font-family="Helvetica,sans-Serif" font-size="10.00">AMReX_Gpu.H</text>
</a>
</g>
</g>
<!-- Node15&#45;&gt;Node19 -->
<g id="edge23" class="edge">
<title>Node15&#45;&gt;Node19</title>
<path fill="none" stroke="midnightblue" d="M1455.14,-117.98C1515.48,-107.06 1619.77,-88.2 1683.17,-76.74"/>
<polygon fill="midnightblue" stroke="midnightblue" points="1684.15,-80.12 1693.36,-74.89 1682.9,-73.23 1684.15,-80.12"/>
</g>
<!-- Node20 -->
<g id="node20" class="node">
<title>Node20</title>
<g id="a_node20"><a xlink:href="incflo__enums_8_h.html" target="_top" xlink:title=" ">
<polygon fill="white" stroke="black" points="1337.5,-56.5 1337.5,-75.5 1478.5,-75.5 1478.5,-56.5 1337.5,-56.5"/>
<text text-anchor="middle" x="1408" y="-63.5" font-family="Helvetica,sans-Serif" font-size="10.00">amr&#45;wind/incflo_enums.H</text>
</a>
</g>
</g>
<!-- Node15&#45;&gt;Node20 -->
<g id="edge24" class="edge">
<title>Node15&#45;&gt;Node20</title>
<path fill="none" stroke="midnightblue" d="M1408,-117.98C1408,-109.58 1408,-96.48 1408,-85.66"/>
<polygon fill="midnightblue" stroke="midnightblue" points="1411.5,-85.51 1408,-75.51 1404.5,-85.51 1411.5,-85.51"/>
</g>
<!-- Node21 -->
<g id="node21" class="node">
<title>Node21</title>
<g id="a_node21"><a xlink:href="_view_field_8_h.html" target="_top" xlink:title=" ">
<polygon fill="white" stroke="black" points="526,-56.5 526,-75.5 674,-75.5 674,-56.5 526,-56.5"/>
<text text-anchor="middle" x="600" y="-63.5" font-family="Helvetica,sans-Serif" font-size="10.00">amr&#45;wind/core/ViewField.H</text>
</a>
</g>
</g>
<!-- Node15&#45;&gt;Node21 -->
<g id="edge26" class="edge">
<title>Node15&#45;&gt;Node21</title>
<path fill="none" stroke="midnightblue" d="M1345.94,-121.93C1202.33,-111.35 846.99,-85.19 684.06,-73.19"/>
<polygon fill="midnightblue" stroke="midnightblue" points="684.32,-69.7 674.09,-72.46 683.8,-76.68 684.32,-69.7"/>
</g>
<!-- Node21&#45;&gt;Node2 -->
<g id="edge27" class="edge">
<title>Node21&#45;&gt;Node2</title>
<path fill="none" stroke="midnightblue" d="M549.61,-56.44C483.47,-45.21 369.3,-25.82 313.94,-16.42"/>
<polygon fill="midnightblue" stroke="midnightblue" points="314.45,-12.96 304,-14.74 313.27,-19.86 314.45,-12.96"/>
</g>
<!-- Node21&#45;&gt;Node11 -->
<g id="edge28" class="edge">
<title>Node21&#45;&gt;Node11</title>
<path fill="none" stroke="midnightblue" d="M664.02,-56.44C736.41,-46.77 854.11,-31.04 930.28,-20.85"/>
<polygon fill="midnightblue" stroke="midnightblue" points="930.84,-24.31 940.28,-19.52 929.91,-17.37 930.84,-24.31"/>
</g>
<!-- Node21&#45;&gt;Node13 -->
<g id="edge29" class="edge">
<title>Node21&#45;&gt;Node13</title>
<path fill="none" stroke="midnightblue" d="M633.28,-56.44C669.45,-47.14 727.38,-32.25 766.98,-22.06"/>
<polygon fill="midnightblue" stroke="midnightblue" points="768.07,-25.4 776.88,-19.52 766.32,-18.62 768.07,-25.4"/>
</g>
<!-- Node22 -->
<g id="node22" class="node">
<title>Node22</title>
<g id="a_node22"><a xlink:title=" ">
<polygon fill="white" stroke="#bfbfbf" points="449,-0.5 449,-19.5 547,-19.5 547,-0.5 449,-0.5"/>
<text text-anchor="middle" x="498" y="-7.5" font-family="Helvetica,sans-Serif" font-size="10.00">AMReX_Vector.H</text>
</a>
</g>
</g>
<!-- Node21&#45;&gt;Node22 -->
<g id="edge30" class="edge">
<title>Node21&#45;&gt;Node22</title>
<path fill="none" stroke="midnightblue" d="M583.61,-56.32C567.33,-47.7 542.13,-34.36 523.28,-24.39"/>
<polygon fill="midnightblue" stroke="midnightblue" points="524.82,-21.24 514.35,-19.65 521.55,-27.43 524.82,-21.24"/>
</g>
<!-- Node23&#45;&gt;Node2 -->
<g id="edge32" class="edge">
<title>Node23&#45;&gt;Node2</title>
<path fill="none" stroke="midnightblue" d="M147.84,-117.88C122,-105.06 81.26,-79.93 100,-56 118.28,-32.65 202.75,-19.74 249.92,-14.24"/>
<polygon fill="midnightblue" stroke="midnightblue" points="250.39,-17.71 259.93,-13.12 249.61,-10.75 250.39,-17.71"/>
</g>
<!-- Node23&#45;&gt;Node11 -->
<g id="edge33" class="edge">
<title>Node23&#45;&gt;Node11</title>
<path fill="none" stroke="midnightblue" d="M156.85,-117.67C141.42,-103.22 115.57,-74.3 133,-56 161.39,-26.2 831.91,-22.41 873,-20 883.63,-19.38 894.74,-18.68 905.8,-17.96"/>
<polygon fill="midnightblue" stroke="midnightblue" points="906.18,-21.44 915.93,-17.29 905.72,-14.46 906.18,-21.44"/>
</g>
<!-- Node23&#45;&gt;Node24 -->
<g id="edge34" class="edge">
<title>Node23&#45;&gt;Node24</title>
<path fill="none" stroke="midnightblue" d="M171.44,-117.98C175.95,-109.32 183.07,-95.65 188.81,-84.65"/>
<polygon fill="midnightblue" stroke="midnightblue" points="192.05,-85.99 193.57,-75.51 185.84,-82.76 192.05,-85.99"/>
</g>
<!-- Node25&#45;&gt;Node2 -->
<g id="edge36" class="edge">
<title>Node25&#45;&gt;Node2</title>
<path fill="none" stroke="midnightblue" d="M612.95,-117.96C576.99,-104.16 503.38,-76.46 440,-56 396.65,-42.01 345.89,-27.96 313.84,-19.37"/>
<polygon fill="midnightblue" stroke="midnightblue" points="314.69,-15.98 304.13,-16.78 312.89,-22.74 314.69,-15.98"/>
</g>
<!-- Node25&#45;&gt;Node11 -->
<g id="edge38" class="edge">
<title>Node25&#45;&gt;Node11</title>
<path fill="none" stroke="midnightblue" d="M651.6,-117.97C680.48,-103.43 742.12,-73.72 797,-56 844.37,-40.71 899.51,-29.01 940.96,-21.38"/>
<polygon fill="midnightblue" stroke="midnightblue" points="941.71,-24.8 950.92,-19.57 940.46,-17.91 941.71,-24.8"/>
</g>
<!-- Node25&#45;&gt;Node13 -->
<g id="edge40" class="edge">
<title>Node25&#45;&gt;Node13</title>
<path fill="none" stroke="midnightblue" d="M644.96,-117.88C661.27,-103.98 694.98,-76.12 726,-56 744.22,-44.18 765.83,-32.66 782.57,-24.23"/>
<polygon fill="midnightblue" stroke="midnightblue" points="784.41,-27.22 791.81,-19.64 781.29,-20.95 784.41,-27.22"/>
</g>
<!-- Node25&#45;&gt;Node21 -->
<g id="edge39" class="edge">
<title>Node25&#45;&gt;Node21</title>
<path fill="none" stroke="midnightblue" d="M629.99,-117.98C624.84,-109.23 616.69,-95.37 610.18,-84.31"/>
<polygon fill="midnightblue" stroke="midnightblue" points="613.09,-82.35 605.01,-75.51 607.06,-85.9 613.09,-82.35"/>
</g>
<!-- Node25&#45;&gt;Node22 -->
<g id="edge41" class="edge">
<title>Node25&#45;&gt;Node22</title>
<path fill="none" stroke="midnightblue" d="M592.5,-117.92C567.28,-110.75 536.51,-98.01 517,-76 505.68,-63.23 501.08,-44.04 499.23,-29.81"/>
<polygon fill="midnightblue" stroke="midnightblue" points="502.7,-29.31 498.26,-19.69 495.73,-29.98 502.7,-29.31"/>
</g>
<!-- Node26 -->
<g id="node26" class="node">
<title>Node26</title>
<g id="a_node26"><a xlink:title=" ">
<polygon fill="white" stroke="#bfbfbf" points="386.5,-56.5 386.5,-75.5 431.5,-75.5 431.5,-56.5 386.5,-56.5"/>
<text text-anchor="middle" x="409" y="-63.5" font-family="Helvetica,sans-Serif" font-size="10.00">utility</text>
</a>
</g>
</g>
<!-- Node25&#45;&gt;Node26 -->
<g id="edge37" class="edge">
<title>Node25&#45;&gt;Node26</title>
<path fill="none" stroke="midnightblue" d="M602.62,-117.98C559.68,-106.67 484.34,-86.83 441.39,-75.53"/>
<polygon fill="midnightblue" stroke="midnightblue" points="442.29,-72.14 431.72,-72.98 440.5,-78.91 442.29,-72.14"/>
</g>
<!-- Node27 -->
<g id="node27" class="node">
<title>Node27</title>
<g id="a_node27"><a xlink:title=" ">
<polygon fill="white" stroke="#bfbfbf" points="806.5,-56.5 806.5,-75.5 937.5,-75.5 937.5,-56.5 806.5,-56.5"/>
<text text-anchor="middle" x="872" y="-63.5" font-family="Helvetica,sans-Serif" font-size="10.00">AMReX_PhysBCFunct.H</text>
</a>
</g>
</g>
<!-- Node25&#45;&gt;Node27 -->
<g id="edge42" class="edge">
<title>Node25&#45;&gt;Node27</title>
<path fill="none" stroke="midnightblue" d="M668.96,-117.98C710.84,-107.46 782.13,-89.56 828.13,-78.01"/>
<polygon fill="midnightblue" stroke="midnightblue" points="829.26,-81.34 838.11,-75.51 827.56,-74.55 829.26,-81.34"/>
</g>
<!-- Node28&#45;&gt;Node2 -->
<g id="edge44" class="edge">
<title>Node28&#45;&gt;Node2</title>
<path fill="none" stroke="midnightblue" d="M352.54,-112.44C336.79,-103.85 318.34,-91.51 306,-76 295.25,-62.48 289,-43.67 285.6,-29.77"/>
<polygon fill="midnightblue" stroke="midnightblue" points="288.99,-28.89 283.44,-19.86 282.15,-30.37 288.99,-28.89"/>
</g>
<!-- Node28&#45;&gt;Node11 -->
<g id="edge46" class="edge">
<title>Node28&#45;&gt;Node11</title>
<path fill="none" stroke="midnightblue" d="M376.26,-112.31C369.84,-96.44 363.02,-71.02 377,-56 378.11,-54.8 729.43,-30.15 905.63,-17.85"/>
<polygon fill="midnightblue" stroke="midnightblue" points="905.95,-21.34 915.69,-17.15 905.47,-14.35 905.95,-21.34"/>
</g>
<!-- Node28&#45;&gt;Node21 -->
<g id="edge47" class="edge">
<title>Node28&#45;&gt;Node21</title>
<path fill="none" stroke="midnightblue" d="M434.15,-112.47C472.24,-102.03 523.57,-87.96 558.98,-78.25"/>
<polygon fill="midnightblue" stroke="midnightblue" points="560.26,-81.53 568.98,-75.51 558.41,-74.78 560.26,-81.53"/>
</g>
<!-- Node28&#45;&gt;Node22 -->
<g id="edge49" class="edge">
<title>Node28&#45;&gt;Node22</title>
<path fill="none" stroke="midnightblue" d="M365.59,-112.3C349.64,-97.55 330.41,-74.13 344,-56 355.66,-40.45 400.35,-28.48 438.61,-20.81"/>
<polygon fill="midnightblue" stroke="midnightblue" points="439.54,-24.2 448.69,-18.86 438.21,-17.33 439.54,-24.2"/>
</g>
<!-- Node28&#45;&gt;Node24 -->
<g id="edge48" class="edge">
<title>Node28&#45;&gt;Node24</title>
<path fill="none" stroke="midnightblue" d="M339.16,-112.4C307.19,-102.12 264.38,-88.35 234.32,-78.68"/>
<polygon fill="midnightblue" stroke="midnightblue" points="235.24,-75.3 224.65,-75.57 233.1,-81.96 235.24,-75.3"/>
</g>
<!-- Node28&#45;&gt;Node26 -->
<g id="edge45" class="edge">
<title>Node28&#45;&gt;Node26</title>
<path fill="none" stroke="midnightblue" d="M389.16,-112.4C392.74,-104.2 397.3,-93.78 401.14,-84.99"/>
<polygon fill="midnightblue" stroke="midnightblue" points="404.42,-86.22 405.22,-75.66 398.01,-83.42 404.42,-86.22"/>
</g>
<!-- Node28&#45;&gt;Node27 -->
<g id="edge50" class="edge">
<title>Node28&#45;&gt;Node27</title>
<path fill="none" stroke="midnightblue" d="M452.54,-118.04C543.49,-106.97 702.28,-87.65 796.21,-76.22"/>
<polygon fill="midnightblue" stroke="midnightblue" points="796.71,-79.69 806.22,-75 795.87,-72.74 796.71,-79.69"/>
</g>
<!-- Node30&#45;&gt;Node5 -->
<g id="edge56" class="edge">
<title>Node30&#45;&gt;Node5</title>
<path fill="none" stroke="midnightblue" d="M1888.22,-239.03C1969.74,-227.99 2097.25,-210.7 2177.1,-199.88"/>
<polygon fill="midnightblue" stroke="midnightblue" points="2177.64,-203.34 2187.07,-198.53 2176.69,-196.4 2177.64,-203.34"/>
</g>
<!-- Node30&#45;&gt;Node6 -->
<g id="edge68" class="edge">
<title>Node30&#45;&gt;Node6</title>
<path fill="none" stroke="midnightblue" d="M1888.01,-236.89C1938.69,-227.93 2006.26,-214.72 2065,-199 2128.5,-182.01 2200.8,-155.93 2241.25,-140.71"/>
<polygon fill="midnightblue" stroke="midnightblue" points="2242.71,-143.9 2250.82,-137.09 2240.23,-137.35 2242.71,-143.9"/>
</g>
<!-- Node30&#45;&gt;Node11 -->
<g id="edge57" class="edge">
<title>Node30&#45;&gt;Node11</title>
<path fill="none" stroke="midnightblue" d="M1817.73,-235.3C1831.47,-207.72 1865.37,-146.6 1911,-112 1950.67,-81.93 2042.4,-91.98 2008,-56 1977.02,-23.6 1348.66,-14.22 1102.08,-11.78"/>
<polygon fill="midnightblue" stroke="midnightblue" points="1102.09,-8.28 1092.05,-11.68 1102.02,-15.28 1102.09,-8.28"/>
</g>
<!-- Node30&#45;&gt;Node12 -->
<g id="edge58" class="edge">
<title>Node30&#45;&gt;Node12</title>
<path fill="none" stroke="midnightblue" d="M1808.51,-235.14C1804.7,-213.2 1797.43,-171.33 1793.23,-147.09"/>
<polygon fill="midnightblue" stroke="midnightblue" points="1796.64,-146.31 1791.48,-137.05 1789.75,-147.5 1796.64,-146.31"/>
</g>
<!-- Node30&#45;&gt;Node13 -->
<g id="edge67" class="edge">
<title>Node30&#45;&gt;Node13</title>
<path fill="none" stroke="midnightblue" d="M1738.02,-235.45C1598.37,-208.12 1284.01,-144.44 1023,-76 959.95,-59.47 887.56,-36.52 845.48,-22.77"/>
<polygon fill="midnightblue" stroke="midnightblue" points="846.31,-19.36 835.71,-19.57 844.13,-26.01 846.31,-19.36"/>
</g>
<!-- Node30&#45;&gt;Node15 -->
<g id="edge55" class="edge">
<title>Node30&#45;&gt;Node15</title>
<path fill="none" stroke="midnightblue" d="M1763.98,-235.38C1683.37,-211.18 1520.33,-162.23 1446.21,-139.97"/>
<polygon fill="midnightblue" stroke="midnightblue" points="1446.95,-136.54 1436.36,-137.02 1444.93,-143.24 1446.95,-136.54"/>
</g>
<!-- Node30&#45;&gt;Node27 -->
<g id="edge69" class="edge">
<title>Node30&#45;&gt;Node27</title>
<path fill="none" stroke="midnightblue" d="M1733.78,-246.49C1575.52,-239.87 1225.1,-222.73 1176,-199 1128.43,-176.01 1141.11,-137.8 1095,-112 1069.85,-97.93 1000.92,-85.28 946.29,-77"/>
<polygon fill="midnightblue" stroke="midnightblue" points="946.68,-73.52 936.27,-75.51 945.64,-80.44 946.68,-73.52"/>
</g>
<!-- Node30&#45;&gt;Node29 -->
<g id="edge66" class="edge">
<title>Node30&#45;&gt;Node29</title>
<path fill="none" stroke="midnightblue" d="M1733.82,-247.1C1561.55,-241.32 1156.36,-225.09 1100,-199 1074.95,-187.41 1054.1,-162.47 1042.08,-145.59"/>
<polygon fill="midnightblue" stroke="midnightblue" points="1044.87,-143.46 1036.34,-137.17 1039.08,-147.4 1044.87,-143.46"/>
</g>
<!-- Node30&#45;&gt;Node31 -->
<g id="edge59" class="edge">
<title>Node30&#45;&gt;Node31</title>
<path fill="none" stroke="midnightblue" d="M1850.58,-235.4C1879.1,-225.24 1917.17,-211.67 1944.26,-202.02"/>
<polygon fill="midnightblue" stroke="midnightblue" points="1945.45,-205.31 1953.7,-198.66 1943.11,-198.72 1945.45,-205.31"/>
</g>
<!-- Node34 -->
<g id="node34" class="node">
<title>Node34</title>
<g id="a_node34"><a xlink:title=" ">
<polygon fill="white" stroke="#bfbfbf" points="1657.5,-179.5 1657.5,-198.5 1782.5,-198.5 1782.5,-179.5 1657.5,-179.5"/>
<text text-anchor="middle" x="1720" y="-186.5" font-family="Helvetica,sans-Serif" font-size="10.00">AMReX_FillPatchUtil.H</text>
</a>
</g>
</g>
<!-- Node30&#45;&gt;Node34 -->
<g id="edge70" class="edge">
<title>Node30&#45;&gt;Node34</title>
<path fill="none" stroke="midnightblue" d="M1789.43,-235.4C1775.12,-226.04 1756.39,-213.79 1741.99,-204.38"/>
<polygon fill="midnightblue" stroke="midnightblue" points="1743.53,-201.2 1733.24,-198.66 1739.7,-207.06 1743.53,-201.2"/>
</g>
<!-- Node31&#45;&gt;Node11 -->
<g id="edge60" class="edge">
<title>Node31&#45;&gt;Node11</title>
<path fill="none" stroke="midnightblue" d="M2001.45,-179.41C2017.16,-172.28 2036.62,-160.46 2046,-143 2053.72,-128.63 2047.11,-61.84 2041,-56 2007.4,-23.91 1354.73,-14.32 1102.41,-11.8"/>
<polygon fill="midnightblue" stroke="midnightblue" points="1102.18,-8.3 1092.15,-11.7 1102.11,-15.3 1102.18,-8.3"/>
</g>
<!-- Node31&#45;&gt;Node15 -->
<g id="edge61" class="edge">
<title>Node31&#45;&gt;Node15</title>
<path fill="none" stroke="midnightblue" d="M1899.94,-179.85C1789.17,-168.29 1587.93,-147.28 1480.37,-136.05"/>
<polygon fill="midnightblue" stroke="midnightblue" points="1480.57,-132.56 1470.26,-135 1479.84,-139.52 1480.57,-132.56"/>
</g>
<!-- Node31&#45;&gt;Node19 -->
<g id="edge62" class="edge">
<title>Node31&#45;&gt;Node19</title>
<path fill="none" stroke="midnightblue" d="M1899.92,-185.84C1829.12,-182.04 1732.23,-171.6 1708,-143 1693.39,-125.75 1708.39,-100.35 1721.69,-83.74"/>
<polygon fill="midnightblue" stroke="midnightblue" points="1724.5,-85.83 1728.32,-75.95 1719.17,-81.3 1724.5,-85.83"/>
</g>
<!-- Node31&#45;&gt;Node27 -->
<g id="edge65" class="edge">
<title>Node31&#45;&gt;Node27</title>
<path fill="none" stroke="midnightblue" d="M1899.79,-183.41C1753.56,-174.69 1443.86,-155.46 1337,-143 1259.17,-133.93 1037.43,-95.87 930.75,-77.29"/>
<polygon fill="midnightblue" stroke="midnightblue" points="931.24,-73.83 920.79,-75.56 930.04,-80.72 931.24,-73.83"/>
</g>
<!-- Node32 -->
<g id="node32" class="node">
<title>Node32</title>
<g id="a_node32"><a xlink:title=" ">
<polygon fill="white" stroke="#bfbfbf" points="1919.5,-118 1919.5,-137 2036.5,-137 2036.5,-118 1919.5,-118"/>
<text text-anchor="middle" x="1978" y="-125" font-family="Helvetica,sans-Serif" font-size="10.00">AMReX_FArrayBox.H</text>
</a>
</g>
</g>
<!-- Node31&#45;&gt;Node32 -->
<g id="edge63" class="edge">
<title>Node31&#45;&gt;Node32</title>
<path fill="none" stroke="midnightblue" d="M1978,-179.48C1978,-171.08 1978,-157.98 1978,-147.16"/>
<polygon fill="midnightblue" stroke="midnightblue" points="1981.5,-147.01 1978,-137.01 1974.5,-147.01 1981.5,-147.01"/>
</g>
<!-- Node33 -->
<g id="node33" class="node">
<title>Node33</title>
<g id="a_node33"><a xlink:title=" ">
<polygon fill="white" stroke="#bfbfbf" points="2093.5,-118 2093.5,-137 2208.5,-137 2208.5,-118 2093.5,-118"/>
<text text-anchor="middle" x="2151" y="-125" font-family="Helvetica,sans-Serif" font-size="10.00">AMReX_Geometry.H</text>
</a>
</g>
</g>
<!-- Node31&#45;&gt;Node33 -->
<g id="edge64" class="edge">
<title>Node31&#45;&gt;Node33</title>
<path fill="none" stroke="midnightblue" d="M2002.79,-179.48C2032.59,-169.22 2082.79,-151.96 2116.4,-140.4"/>
<polygon fill="midnightblue" stroke="midnightblue" points="2117.94,-143.57 2126.26,-137.01 2115.66,-136.95 2117.94,-143.57"/>
</g>
</g>
</svg>
        <g id="navigator" transform="translate(0 0)" fill="#404254">
                <rect fill="#f2f5e9" fill-opacity="0.5" stroke="#606060" stroke-width=".5" x="0" y="0" width="60" height="60"/>
                <use id="zoomplus" xlink:href="#zoomPlus" x="17" y="9" onmousedown="handleZoom(evt,'in')"/>
                <use id="zoomminus" xlink:href="#zoomMin" x="42" y="9" onmousedown="handleZoom(evt,'out')"/>
                <use id="reset" xlink:href="#resetDef" x="30" y="36" onmousedown="handleReset()"/>
                <g id="arrowUp" xlink:href="#dirArrow" transform="translate(30 24)" onmousedown="handlePan(0,-1)">
                  <use xlink:href="#rim" fill="#404040">
                        <set attributeName="fill" to="#808080" begin="arrowUp.mouseover" end="arrowUp.mouseout"/>
                  </use>
                  <path fill="none" stroke="white" stroke-width="1.5" d="M0,-3.0v7 M-2.5,-0.5L0,-3.0L2.5,-0.5"/>
                </g>
                <g id="arrowRight" xlink:href="#dirArrow" transform="rotate(90) translate(36 -43)" onmousedown="handlePan(1,0)">
                  <use xlink:href="#rim" fill="#404040">
                        <set attributeName="fill" to="#808080" begin="arrowRight.mouseover" end="arrowRight.mouseout"/>
                  </use>
                  <path fill="none" stroke="white" stroke-width="1.5" d="M0,-3.0v7 M-2.5,-0.5L0,-3.0L2.5,-0.5"/>
                </g>
                <g id="arrowDown" xlink:href="#dirArrow" transform="rotate(180) translate(-30 -48)" onmousedown="handlePan(0,1)">
                  <use xlink:href="#rim" fill="#404040">
                        <set attributeName="fill" to="#808080" begin="arrowDown.mouseover" end="arrowDown.mouseout"/>
                  </use>
                  <path fill="none" stroke="white" stroke-width="1.5" d="M0,-3.0v7 M-2.5,-0.5L0,-3.0L2.5,-0.5"/>
                </g>
                <g id="arrowLeft" xlink:href="#dirArrow" transform="rotate(270) translate(-36 17)" onmousedown="handlePan(-1,0)">
                  <use xlink:href="#rim" fill="#404040">
                        <set attributeName="fill" to="#808080" begin="arrowLeft.mouseover" end="arrowLeft.mouseout"/>
                  </use>
                  <path fill="none" stroke="white" stroke-width="1.5" d="M0,-3.0v7 M-2.5,-0.5L0,-3.0L2.5,-0.5"/>
                </g>
        </g>
        <svg viewBox="0 0 15 15" width="100%" height="30px" preserveAspectRatio="xMaxYMin meet">
         <g id="arrow_out" transform="scale(0.3 0.3)">
          <a xlink:href="_p_d_e_helpers_8_h__incl_org.svg" target="_base">
           <rect id="button" ry="5" rx="5" y="6" x="6" height="38" width="38"
                fill="#f2f5e9" fill-opacity="0.5" stroke="#606060" stroke-width="1.0"/>
           <path id="arrow"
             d="M 11.500037,31.436501 C 11.940474,20.09759 22.043105,11.32322 32.158766,21.979434 L 37.068811,17.246167 C 37.068811,17.246167 37.088388,32 37.088388,32 L 22.160133,31.978069 C 22.160133,31.978069 26.997745,27.140456 26.997745,27.140456 C 18.528582,18.264221 13.291696,25.230495 11.500037,31.436501 z"
             style="fill:#404040;"/>
          </a>
         </g>
        </svg>
</svg>
