<?xml version="1.0" encoding="UTF-8" standalone="no"?>
<!DOCTYPE svg PUBLIC "-//W3C//DTD SVG 1.1//EN"
 "http://www.w3.org/Graphics/SVG/1.1/DTD/svg11.dtd">
<!-- Generated by graphviz version 2.43.0 (0)
 -->
<!-- Title: Physics.H Pages: 1 -->
<!--zoomable 196 -->
<svg id="main" version="1.1" xmlns="http://www.w3.org/2000/svg" xmlns:xlink="http://www.w3.org/1999/xlink" xml:space="preserve" onload="init(evt)">
<style type="text/css"><![CDATA[
.edge:hover path { stroke: red; }
.edge:hover polygon { stroke: red; fill: red; }
]]></style>
<script type="text/javascript"><![CDATA[
var edges = document.getElementsByTagName('g');
if (edges && edges.length) {
  for (var i=0;i<edges.length;i++) {
    if (edges[i].id.substr(0,4)=='edge') {
      edges[i].setAttribute('class','edge');
    }
  }
}
]]></script>
        <defs>
                <circle id="rim" cx="0" cy="0" r="7"/>
                <circle id="rim2" cx="0" cy="0" r="3.5"/>
                <g id="zoomPlus">
                        <use xlink:href="#rim" fill="#404040">
                                <set attributeName="fill" to="#808080" begin="zoomplus.mouseover" end="zoomplus.mouseout"/>
                        </use>
                        <path d="M-4,0h8M0,-4v8" fill="none" stroke="white" stroke-width="1.5" pointer-events="none"/>
                </g>
                <g id="zoomMin">
                        <use xlink:href="#rim" fill="#404040">
                                <set attributeName="fill" to="#808080" begin="zoomminus.mouseover" end="zoomminus.mouseout"/>
                        </use>
                        <path d="M-4,0h8" fill="none" stroke="white" stroke-width="1.5" pointer-events="none"/>
                </g>
                <g id="dirArrow">
                        <path fill="none" stroke="white" stroke-width="1.5" d="M0,-3.0v7 M-2.5,-0.5L0,-3.0L2.5,-0.5"/>
                </g>
               <g id="resetDef">
                       <use xlink:href="#rim2" fill="#404040">
                               <set attributeName="fill" to="#808080" begin="reset.mouseover" end="reset.mouseout"/>
                       </use>
               </g>
        </defs>

<script type="text/javascript">
var viewWidth = 4480;
var viewHeight = 196;
var sectionId = 'dynsection-1';
</script>
<script xlink:href="svgpan.js"/>
<svg id="graph" class="graph">
<g id="viewport">
<title>Physics.H</title>
<polygon fill="white" stroke="transparent" points="-4,4 -4,-192 4476,-192 4476,4 -4,4"/>
<!-- Node1 -->
<g id="node1" class="node">
<title>Node1</title>
<g id="a_node1"><a xlink:title=" ">
<polygon fill="#bfbfbf" stroke="black" points="2726,-168.5 2726,-187.5 2790,-187.5 2790,-168.5 2726,-168.5"/>
<text text-anchor="middle" x="2758" y="-175.5" font-family="Helvetica,sans-Serif" font-size="10.00">Physics.H</text>
</a>
</g>
</g>
<!-- Node2 -->
<g id="node2" class="node">
<title>Node2</title>
<g id="a_node2"><a xlink:href="_c_f_d_sim_8_h.html" target="_top" xlink:title=" ">
<polygon fill="white" stroke="red" points="1861,-112.5 1861,-131.5 1927,-131.5 1927,-112.5 1861,-112.5"/>
<text text-anchor="middle" x="1894" y="-119.5" font-family="Helvetica,sans-Serif" font-size="10.00">CFDSim.H</text>
</a>
</g>
</g>
<!-- Node1&#45;&gt;Node2 -->
<g id="edge1" class="edge">
<title>Node1&#45;&gt;Node2</title>
<path fill="none" stroke="midnightblue" d="M2715.81,-174.36C2566.12,-165.01 2062.25,-133.52 1927.42,-125.09"/>
<polygon fill="midnightblue" stroke="midnightblue" points="2715.77,-177.87 2725.97,-175 2716.2,-170.88 2715.77,-177.87"/>
</g>
<!-- Node5 -->
<g id="node4" class="node">
<title>Node5</title>
<g id="a_node4"><a xlink:href="_channel_flow_8_h.html" target="_top" xlink:title=" ">
<polygon fill="white" stroke="red" points="1166.5,-0.5 1166.5,-19.5 1255.5,-19.5 1255.5,-0.5 1166.5,-0.5"/>
<text text-anchor="middle" x="1211" y="-7.5" font-family="Helvetica,sans-Serif" font-size="10.00">ChannelFlow.H</text>
</a>
</g>
</g>
<!-- Node1&#45;&gt;Node5 -->
<g id="edge35" class="edge">
<title>Node1&#45;&gt;Node5</title>
<path fill="none" stroke="midnightblue" d="M2715.25,-176.86C2415.33,-175.82 631.77,-168.11 394,-132 305.7,-118.59 254.64,-147.42 201,-76 195.66,-68.89 194.86,-62.42 201,-56 234.8,-20.66 975.28,-12.75 1166.34,-11.29"/>
<polygon fill="midnightblue" stroke="midnightblue" points="2715.68,-180.37 2725.69,-176.9 2715.7,-173.37 2715.68,-180.37"/>
</g>
<!-- Node123 -->
<g id="node22" class="node">
<title>Node123</title>
<g id="a_node22"><a xlink:href="_burggraf_flow_8_h.html" target="_top" xlink:title=" ">
<polygon fill="white" stroke="red" points="2371,-56.5 2371,-75.5 2463,-75.5 2463,-56.5 2371,-56.5"/>
<text text-anchor="middle" x="2417" y="-63.5" font-family="Helvetica,sans-Serif" font-size="10.00">BurggrafFlow.H</text>
</a>
</g>
</g>
<!-- Node1&#45;&gt;Node123 -->
<g id="edge34" class="edge">
<title>Node1&#45;&gt;Node123</title>
<path fill="none" stroke="midnightblue" d="M2715.59,-175.99C2607.73,-172.99 2329.5,-162.34 2302,-132 2276.9,-104.3 2330.38,-85.52 2372.56,-75.53"/>
<polygon fill="midnightblue" stroke="midnightblue" points="2715.69,-179.49 2725.78,-176.27 2715.88,-172.5 2715.69,-179.49"/>
</g>
<!-- Node125 -->
<g id="node23" class="node">
<title>Node125</title>
<g id="a_node23"><a xlink:href="_convecting_taylor_vortex_8_h.html" target="_top" xlink:title=" ">
<polygon fill="white" stroke="red" points="2481.5,-56.5 2481.5,-75.5 2624.5,-75.5 2624.5,-56.5 2481.5,-56.5"/>
<text text-anchor="middle" x="2553" y="-63.5" font-family="Helvetica,sans-Serif" font-size="10.00">ConvectingTaylorVortex.H</text>
</a>
</g>
</g>
<!-- Node1&#45;&gt;Node125 -->
<g id="edge36" class="edge">
<title>Node1&#45;&gt;Node125</title>
<path fill="none" stroke="midnightblue" d="M2715.58,-175.91C2609.07,-172.74 2336.93,-161.77 2310,-132 2304.04,-125.41 2304.32,-118.83 2310,-112 2321.04,-98.72 2414.31,-84.35 2482.01,-75.51"/>
<polygon fill="midnightblue" stroke="midnightblue" points="2715.56,-179.41 2725.66,-176.2 2715.76,-172.41 2715.56,-179.41"/>
</g>
<!-- Node127 -->
<g id="node24" class="node">
<title>Node127</title>
<g id="a_node24"><a xlink:href="_ekman_spiral_8_h.html" target="_top" xlink:title=" ">
<polygon fill="white" stroke="red" points="2642.5,-56.5 2642.5,-75.5 2731.5,-75.5 2731.5,-56.5 2642.5,-56.5"/>
<text text-anchor="middle" x="2687" y="-63.5" font-family="Helvetica,sans-Serif" font-size="10.00">EkmanSpiral.H</text>
</a>
</g>
</g>
<!-- Node1&#45;&gt;Node127 -->
<g id="edge37" class="edge">
<title>Node1&#45;&gt;Node127</title>
<path fill="none" stroke="midnightblue" d="M2715.53,-175.64C2613.31,-171.93 2360.16,-159.98 2335,-132 2302.94,-96.35 2253.18,-131.23 2634,-76 2636.77,-75.6 2639.62,-75.17 2642.49,-74.72"/>
<polygon fill="midnightblue" stroke="midnightblue" points="2715.68,-179.15 2725.8,-176 2715.93,-172.15 2715.68,-179.15"/>
</g>
<!-- Node129 -->
<g id="node25" class="node">
<title>Node129</title>
<g id="a_node25"><a xlink:href="_hybrid_r_a_n_s_l_e_s_a_b_l_8_h.html" target="_top" xlink:title=" ">
<polygon fill="white" stroke="red" points="2749.5,-56.5 2749.5,-75.5 2872.5,-75.5 2872.5,-56.5 2749.5,-56.5"/>
<text text-anchor="middle" x="2811" y="-63.5" font-family="Helvetica,sans-Serif" font-size="10.00">HybridRANSLESABL.H</text>
</a>
</g>
</g>
<!-- Node1&#45;&gt;Node129 -->
<g id="edge39" class="edge">
<title>Node1&#45;&gt;Node129</title>
<path fill="none" stroke="midnightblue" d="M2715.63,-176.9C2600.33,-175.92 2292.79,-168.06 2344,-112 2373.87,-79.3 2696.97,-80.82 2741,-76 2743.68,-75.71 2746.42,-75.4 2749.18,-75.08"/>
<polygon fill="midnightblue" stroke="midnightblue" points="2715.83,-180.41 2725.86,-176.98 2715.88,-173.41 2715.83,-180.41"/>
</g>
<!-- Node131 -->
<g id="node26" class="node">
<title>Node131</title>
<g id="a_node26"><a xlink:href="_m_m_s_8_h.html" target="_top" xlink:title=" ">
<polygon fill="white" stroke="red" points="2890.5,-56.5 2890.5,-75.5 2941.5,-75.5 2941.5,-56.5 2890.5,-56.5"/>
<text text-anchor="middle" x="2916" y="-63.5" font-family="Helvetica,sans-Serif" font-size="10.00">MMS.H</text>
</a>
</g>
</g>
<!-- Node1&#45;&gt;Node131 -->
<g id="edge40" class="edge">
<title>Node1&#45;&gt;Node131</title>
<path fill="none" stroke="midnightblue" d="M2715.47,-176.25C2607.67,-173.62 2335.49,-161.98 2382,-112 2419.94,-71.22 2827.06,-85.17 2882,-76 2884.77,-75.54 2887.64,-74.95 2890.49,-74.3"/>
<polygon fill="midnightblue" stroke="midnightblue" points="2715.59,-179.76 2725.67,-176.49 2715.75,-172.76 2715.59,-179.76"/>
</g>
<!-- Node144 -->
<g id="node27" class="node">
<title>Node144</title>
<g id="a_node27"><a xlink:href="_synthetic_turbulence_8_h.html" target="_top" xlink:title=" ">
<polygon fill="white" stroke="red" points="2959.5,-56.5 2959.5,-75.5 3084.5,-75.5 3084.5,-56.5 2959.5,-56.5"/>
<text text-anchor="middle" x="3022" y="-63.5" font-family="Helvetica,sans-Serif" font-size="10.00">SyntheticTurbulence.H</text>
</a>
</g>
</g>
<!-- Node1&#45;&gt;Node144 -->
<g id="edge52" class="edge">
<title>Node1&#45;&gt;Node144</title>
<path fill="none" stroke="midnightblue" d="M2715.92,-174.52C2628.88,-168.98 2435.52,-154.25 2416,-132 2410.14,-125.32 2409.93,-118.49 2416,-112 2456.69,-68.48 2891.7,-81.75 2951,-76 2953.72,-75.74 2956.5,-75.45 2959.3,-75.15"/>
<polygon fill="midnightblue" stroke="midnightblue" points="2715.79,-178.02 2725.99,-175.16 2716.23,-171.04 2715.79,-178.02"/>
</g>
<!-- Node227 -->
<g id="node28" class="node">
<title>Node227</title>
<g id="a_node28"><a xlink:href="_i_b_8_h.html" target="_top" xlink:title=" ">
<polygon fill="white" stroke="red" points="2424.5,-112.5 2424.5,-131.5 2461.5,-131.5 2461.5,-112.5 2424.5,-112.5"/>
<text text-anchor="middle" x="2443" y="-119.5" font-family="Helvetica,sans-Serif" font-size="10.00">IB.H</text>
</a>
</g>
</g>
<!-- Node1&#45;&gt;Node227 -->
<g id="edge29" class="edge">
<title>Node1&#45;&gt;Node227</title>
<path fill="none" stroke="midnightblue" d="M2715.87,-172.47C2659.57,-165.95 2556.92,-152.41 2471,-132 2467.92,-131.27 2464.69,-130.36 2461.56,-129.41"/>
<polygon fill="midnightblue" stroke="midnightblue" points="2715.5,-175.95 2725.83,-173.61 2716.29,-169 2715.5,-175.95"/>
</g>
<!-- Node86 -->
<g id="node29" class="node">
<title>Node86</title>
<g id="a_node29"><a xlink:href="incflo__advance_8cpp.html" target="_top" xlink:title=" ">
<polygon fill="white" stroke="black" points="2480,-112.5 2480,-131.5 2590,-131.5 2590,-112.5 2480,-112.5"/>
<text text-anchor="middle" x="2535" y="-119.5" font-family="Helvetica,sans-Serif" font-size="10.00">incflo_advance.cpp</text>
</a>
</g>
</g>
<!-- Node1&#45;&gt;Node86 -->
<g id="edge30" class="edge">
<title>Node1&#45;&gt;Node86</title>
<path fill="none" stroke="midnightblue" d="M2715.64,-166.74C2673.59,-156.56 2609.86,-141.13 2570.41,-131.58"/>
<polygon fill="midnightblue" stroke="midnightblue" points="2715.03,-170.2 2725.57,-169.15 2716.68,-163.39 2715.03,-170.2"/>
</g>
<!-- Node228 -->
<g id="node30" class="node">
<title>Node228</title>
<g id="a_node30"><a xlink:href="_ocean_waves_8_h.html" target="_top" xlink:title=" ">
<polygon fill="white" stroke="red" points="2608,-112.5 2608,-131.5 2698,-131.5 2698,-112.5 2608,-112.5"/>
<text text-anchor="middle" x="2653" y="-119.5" font-family="Helvetica,sans-Serif" font-size="10.00">OceanWaves.H</text>
</a>
</g>
</g>
<!-- Node1&#45;&gt;Node228 -->
<g id="edge31" class="edge">
<title>Node1&#45;&gt;Node228</title>
<path fill="none" stroke="midnightblue" d="M2732.19,-163.73C2712.75,-153.73 2686.65,-140.31 2669.83,-131.65"/>
<polygon fill="midnightblue" stroke="midnightblue" points="2730.64,-166.86 2741.13,-168.32 2733.84,-160.64 2730.64,-166.86"/>
</g>
<!-- Node229 -->
<g id="node31" class="node">
<title>Node229</title>
<g id="a_node31"><a xlink:href="_boussinesq_bubble_8_h.html" target="_top" xlink:title=" ">
<polygon fill="white" stroke="red" points="0,-112.5 0,-131.5 116,-131.5 116,-112.5 0,-112.5"/>
<text text-anchor="middle" x="58" y="-119.5" font-family="Helvetica,sans-Serif" font-size="10.00">BoussinesqBubble.H</text>
</a>
</g>
</g>
<!-- Node1&#45;&gt;Node229 -->
<g id="edge32" class="edge">
<title>Node1&#45;&gt;Node229</title>
<path fill="none" stroke="midnightblue" d="M2715.32,-176.9C2418.86,-176.09 662.8,-169.75 130,-132 125.48,-131.68 120.8,-131.27 116.11,-130.81"/>
<polygon fill="midnightblue" stroke="midnightblue" points="2715.62,-180.4 2725.63,-176.92 2715.64,-173.4 2715.62,-180.4"/>
</g>
<!-- Node91 -->
<g id="node32" class="node">
<title>Node91</title>
<g id="a_node32"><a xlink:href="init_8cpp.html" target="_top" xlink:title=" ">
<polygon fill="white" stroke="black" points="100.5,-56.5 100.5,-75.5 153.5,-75.5 153.5,-56.5 100.5,-56.5"/>
<text text-anchor="middle" x="127" y="-63.5" font-family="Helvetica,sans-Serif" font-size="10.00">init.cpp</text>
</a>
</g>
</g>
<!-- Node1&#45;&gt;Node91 -->
<g id="edge56" class="edge">
<title>Node1&#45;&gt;Node91</title>
<path fill="none" stroke="midnightblue" d="M2715.41,-176.82C2383.79,-175.36 225.88,-164.58 168,-132 146.14,-119.7 134.28,-90.41 129.52,-75.72"/>
<polygon fill="midnightblue" stroke="midnightblue" points="2715.55,-180.32 2725.57,-176.86 2715.58,-173.32 2715.55,-180.32"/>
</g>
<!-- Node230 -->
<g id="node33" class="node">
<title>Node230</title>
<g id="a_node33"><a xlink:href="_free_stream_8_h.html" target="_top" xlink:title=" ">
<polygon fill="white" stroke="red" points="2716.5,-112.5 2716.5,-131.5 2799.5,-131.5 2799.5,-112.5 2716.5,-112.5"/>
<text text-anchor="middle" x="2758" y="-119.5" font-family="Helvetica,sans-Serif" font-size="10.00">FreeStream.H</text>
</a>
</g>
</g>
<!-- Node1&#45;&gt;Node230 -->
<g id="edge38" class="edge">
<title>Node1&#45;&gt;Node230</title>
<path fill="none" stroke="midnightblue" d="M2758,-157.8C2758,-148.91 2758,-138.78 2758,-131.75"/>
<polygon fill="midnightblue" stroke="midnightblue" points="2754.5,-158.08 2758,-168.08 2761.5,-158.08 2754.5,-158.08"/>
</g>
<!-- Node231 -->
<g id="node34" class="node">
<title>Node231</title>
<g id="a_node34"><a xlink:href="_breaking_waves_8_h.html" target="_top" xlink:title=" ">
<polygon fill="white" stroke="red" points="2817.5,-112.5 2817.5,-131.5 2920.5,-131.5 2920.5,-112.5 2817.5,-112.5"/>
<text text-anchor="middle" x="2869" y="-119.5" font-family="Helvetica,sans-Serif" font-size="10.00">BreakingWaves.H</text>
</a>
</g>
</g>
<!-- Node1&#45;&gt;Node231 -->
<g id="edge41" class="edge">
<title>Node1&#45;&gt;Node231</title>
<path fill="none" stroke="midnightblue" d="M2785.01,-163.86C2805.59,-153.85 2833.34,-140.35 2851.21,-131.65"/>
<polygon fill="midnightblue" stroke="midnightblue" points="2783.3,-160.8 2775.83,-168.32 2786.36,-167.1 2783.3,-160.8"/>
</g>
<!-- Node232 -->
<g id="node35" class="node">
<title>Node232</title>
<g id="a_node35"><a xlink:href="_dam_break_8_h.html" target="_top" xlink:title=" ">
<polygon fill="white" stroke="red" points="2938.5,-112.5 2938.5,-131.5 3017.5,-131.5 3017.5,-112.5 2938.5,-112.5"/>
<text text-anchor="middle" x="2978" y="-119.5" font-family="Helvetica,sans-Serif" font-size="10.00">DamBreak.H</text>
</a>
</g>
</g>
<!-- Node1&#45;&gt;Node232 -->
<g id="edge42" class="edge">
<title>Node1&#45;&gt;Node232</title>
<path fill="none" stroke="midnightblue" d="M2800.28,-166.62C2841.83,-156.42 2904.48,-141.05 2943.22,-131.54"/>
<polygon fill="midnightblue" stroke="midnightblue" points="2799.34,-163.25 2790.46,-169.03 2801.01,-170.05 2799.34,-163.25"/>
</g>
<!-- Node233 -->
<g id="node36" class="node">
<title>Node233</title>
<g id="a_node36"><a xlink:href="_multi_phase_8_h.html" target="_top" xlink:title=" ">
<polygon fill="white" stroke="red" points="3035.5,-112.5 3035.5,-131.5 3116.5,-131.5 3116.5,-112.5 3035.5,-112.5"/>
<text text-anchor="middle" x="3076" y="-119.5" font-family="Helvetica,sans-Serif" font-size="10.00">MultiPhase.H</text>
</a>
</g>
</g>
<!-- Node1&#45;&gt;Node233 -->
<g id="edge43" class="edge">
<title>Node1&#45;&gt;Node233</title>
<path fill="none" stroke="midnightblue" d="M2800.38,-170.12C2853.4,-161.47 2946.99,-146.04 3027,-132 3029.73,-131.52 3032.54,-131.02 3035.37,-130.51"/>
<polygon fill="midnightblue" stroke="midnightblue" points="2799.63,-166.7 2790.33,-171.76 2800.76,-173.61 2799.63,-166.7"/>
</g>
<!-- Node235 -->
<g id="node37" class="node">
<title>Node235</title>
<g id="a_node37"><a xlink:href="_rain_drop_8_h.html" target="_top" xlink:title=" ">
<polygon fill="white" stroke="red" points="3135,-112.5 3135,-131.5 3207,-131.5 3207,-112.5 3135,-112.5"/>
<text text-anchor="middle" x="3171" y="-119.5" font-family="Helvetica,sans-Serif" font-size="10.00">RainDrop.H</text>
</a>
</g>
</g>
<!-- Node1&#45;&gt;Node235 -->
<g id="edge44" class="edge">
<title>Node1&#45;&gt;Node235</title>
<path fill="none" stroke="midnightblue" d="M2800.09,-172.9C2868.6,-165.99 3008.44,-150.92 3126,-132 3128.83,-131.54 3131.76,-131.04 3134.69,-130.51"/>
<polygon fill="midnightblue" stroke="midnightblue" points="2799.71,-169.42 2790.11,-173.9 2800.41,-176.39 2799.71,-169.42"/>
</g>
<!-- Node236 -->
<g id="node38" class="node">
<title>Node236</title>
<g id="a_node38"><a xlink:href="_sloshing_tank_8_h.html" target="_top" xlink:title=" ">
<polygon fill="white" stroke="red" points="3225.5,-112.5 3225.5,-131.5 3316.5,-131.5 3316.5,-112.5 3225.5,-112.5"/>
<text text-anchor="middle" x="3271" y="-119.5" font-family="Helvetica,sans-Serif" font-size="10.00">SloshingTank.H</text>
</a>
</g>
</g>
<!-- Node1&#45;&gt;Node236 -->
<g id="edge45" class="edge">
<title>Node1&#45;&gt;Node236</title>
<path fill="none" stroke="midnightblue" d="M2800.28,-173.76C2881.18,-167.36 3063.42,-151.96 3216,-132 3219.07,-131.6 3222.23,-131.16 3225.41,-130.69"/>
<polygon fill="midnightblue" stroke="midnightblue" points="2799.7,-170.29 2790.01,-174.57 2800.25,-177.27 2799.7,-170.29"/>
</g>
<!-- Node237 -->
<g id="node39" class="node">
<title>Node237</title>
<g id="a_node39"><a xlink:href="_vortex_patch_8_h.html" target="_top" xlink:title=" ">
<polygon fill="white" stroke="red" points="3334.5,-112.5 3334.5,-131.5 3419.5,-131.5 3419.5,-112.5 3334.5,-112.5"/>
<text text-anchor="middle" x="3377" y="-119.5" font-family="Helvetica,sans-Serif" font-size="10.00">VortexPatch.H</text>
</a>
</g>
</g>
<!-- Node1&#45;&gt;Node237 -->
<g id="edge46" class="edge">
<title>Node1&#45;&gt;Node237</title>
<path fill="none" stroke="midnightblue" d="M2800.15,-175.04C2894.59,-170.35 3130.22,-156.97 3326,-132 3328.76,-131.65 3331.61,-131.25 3334.47,-130.82"/>
<polygon fill="midnightblue" stroke="midnightblue" points="2799.95,-171.55 2790.14,-175.53 2800.3,-178.54 2799.95,-171.55"/>
</g>
<!-- Node238 -->
<g id="node40" class="node">
<title>Node238</title>
<g id="a_node40"><a xlink:href="_vortex_patch_scalar_vel_8_h.html" target="_top" xlink:title=" ">
<polygon fill="white" stroke="red" points="3438,-112.5 3438,-131.5 3568,-131.5 3568,-112.5 3438,-112.5"/>
<text text-anchor="middle" x="3503" y="-119.5" font-family="Helvetica,sans-Serif" font-size="10.00">VortexPatchScalarVel.H</text>
</a>
</g>
</g>
<!-- Node1&#45;&gt;Node238 -->
<g id="edge47" class="edge">
<title>Node1&#45;&gt;Node238</title>
<path fill="none" stroke="midnightblue" d="M2800.47,-174.95C2906.59,-169.66 3191.88,-154.35 3429,-132 3431.83,-131.73 3434.73,-131.44 3437.65,-131.14"/>
<polygon fill="midnightblue" stroke="midnightblue" points="2799.99,-171.47 2790.18,-175.46 2800.34,-178.46 2799.99,-171.47"/>
</g>
<!-- Node239 -->
<g id="node41" class="node">
<title>Node239</title>
<g id="a_node41"><a xlink:href="_zalesak_disk_8_h.html" target="_top" xlink:title=" ">
<polygon fill="white" stroke="red" points="3586,-112.5 3586,-131.5 3674,-131.5 3674,-112.5 3586,-112.5"/>
<text text-anchor="middle" x="3630" y="-119.5" font-family="Helvetica,sans-Serif" font-size="10.00">ZalesakDisk.H</text>
</a>
</g>
</g>
<!-- Node1&#45;&gt;Node239 -->
<g id="edge48" class="edge">
<title>Node1&#45;&gt;Node239</title>
<path fill="none" stroke="midnightblue" d="M2800.45,-176.36C2921.88,-174.17 3280.97,-165.16 3577,-132 3579.88,-131.68 3582.83,-131.3 3585.81,-130.89"/>
<polygon fill="midnightblue" stroke="midnightblue" points="2800.05,-172.87 2790.11,-176.54 2800.17,-179.87 2800.05,-172.87"/>
</g>
<!-- Node240 -->
<g id="node42" class="node">
<title>Node240</title>
<g id="a_node42"><a xlink:href="_zalesak_disk_scalar_vel_8_h.html" target="_top" xlink:title=" ">
<polygon fill="white" stroke="red" points="3692.5,-112.5 3692.5,-131.5 3825.5,-131.5 3825.5,-112.5 3692.5,-112.5"/>
<text text-anchor="middle" x="3759" y="-119.5" font-family="Helvetica,sans-Serif" font-size="10.00">ZalesakDiskScalarVel.H</text>
</a>
</g>
</g>
<!-- Node1&#45;&gt;Node240 -->
<g id="edge49" class="edge">
<title>Node1&#45;&gt;Node240</title>
<path fill="none" stroke="midnightblue" d="M2800.01,-175.99C2930.9,-172.63 3342.92,-160.37 3683,-132 3686.05,-131.75 3689.16,-131.46 3692.3,-131.16"/>
<polygon fill="midnightblue" stroke="midnightblue" points="2799.91,-172.49 2790,-176.25 2800.09,-179.49 2799.91,-172.49"/>
</g>
<!-- Node241 -->
<g id="node43" class="node">
<title>Node241</title>
<g id="a_node43"><a xlink:href="_rayleigh_taylor_8_h.html" target="_top" xlink:title=" ">
<polygon fill="white" stroke="red" points="3844,-112.5 3844,-131.5 3942,-131.5 3942,-112.5 3844,-112.5"/>
<text text-anchor="middle" x="3893" y="-119.5" font-family="Helvetica,sans-Serif" font-size="10.00">RayleighTaylor.H</text>
</a>
</g>
</g>
<!-- Node1&#45;&gt;Node241 -->
<g id="edge50" class="edge">
<title>Node1&#45;&gt;Node241</title>
<path fill="none" stroke="midnightblue" d="M2800.48,-176.93C2945.45,-176.35 3433.9,-171.37 3835,-132 3837.84,-131.72 3840.75,-131.4 3843.69,-131.04"/>
<polygon fill="midnightblue" stroke="midnightblue" points="2800.24,-173.44 2790.25,-176.97 2800.26,-180.44 2800.24,-173.44"/>
</g>
<!-- Node242 -->
<g id="node44" class="node">
<title>Node242</title>
<g id="a_node44"><a xlink:href="_scalar_advection_8_h.html" target="_top" xlink:title=" ">
<polygon fill="white" stroke="red" points="3960,-112.5 3960,-131.5 4066,-131.5 4066,-112.5 3960,-112.5"/>
<text text-anchor="middle" x="4013" y="-119.5" font-family="Helvetica,sans-Serif" font-size="10.00">ScalarAdvection.H</text>
</a>
</g>
</g>
<!-- Node1&#45;&gt;Node242 -->
<g id="edge51" class="edge">
<title>Node1&#45;&gt;Node242</title>
<path fill="none" stroke="midnightblue" d="M2800.36,-177.03C2954.8,-176.79 3502.06,-172.93 3951,-132 3953.92,-131.73 3956.92,-131.42 3959.94,-131.08"/>
<polygon fill="midnightblue" stroke="midnightblue" points="2800.34,-173.53 2790.35,-177.04 2800.35,-180.53 2800.34,-173.53"/>
</g>
<!-- Node243 -->
<g id="node45" class="node">
<title>Node243</title>
<g id="a_node45"><a xlink:href="_taylor_green_vortex_8_h.html" target="_top" xlink:title=" ">
<polygon fill="white" stroke="red" points="4084.5,-112.5 4084.5,-131.5 4201.5,-131.5 4201.5,-112.5 4084.5,-112.5"/>
<text text-anchor="middle" x="4143" y="-119.5" font-family="Helvetica,sans-Serif" font-size="10.00">TaylorGreenVortex.H</text>
</a>
</g>
</g>
<!-- Node1&#45;&gt;Node243 -->
<g id="edge53" class="edge">
<title>Node1&#45;&gt;Node243</title>
<path fill="none" stroke="midnightblue" d="M2800.32,-177.05C2964.45,-176.93 3574.71,-173.56 4075,-132 4078.09,-131.74 4081.25,-131.45 4084.43,-131.12"/>
<polygon fill="midnightblue" stroke="midnightblue" points="2800.15,-173.55 2790.16,-177.05 2800.16,-180.55 2800.15,-173.55"/>
</g>
<!-- Node244 -->
<g id="node46" class="node">
<title>Node244</title>
<g id="a_node46"><a xlink:href="_vortex_dipole_8_h.html" target="_top" xlink:title=" ">
<polygon fill="white" stroke="red" points="4220,-112.5 4220,-131.5 4310,-131.5 4310,-112.5 4220,-112.5"/>
<text text-anchor="middle" x="4265" y="-119.5" font-family="Helvetica,sans-Serif" font-size="10.00">VortexDipole.H</text>
</a>
</g>
</g>
<!-- Node1&#45;&gt;Node244 -->
<g id="edge54" class="edge">
<title>Node1&#45;&gt;Node244</title>
<path fill="none" stroke="midnightblue" d="M2800.28,-176.46C3008.52,-173.67 3926.63,-159.97 4211,-132 4213.93,-131.71 4216.95,-131.36 4219.98,-130.97"/>
<polygon fill="midnightblue" stroke="midnightblue" points="2800.02,-172.96 2790.06,-176.59 2800.11,-179.96 2800.02,-172.96"/>
</g>
<!-- Node245 -->
<g id="node47" class="node">
<title>Node245</title>
<g id="a_node47"><a xlink:href="_vortex_ring_8_h.html" target="_top" xlink:title=" ">
<polygon fill="white" stroke="red" points="4328,-112.5 4328,-131.5 4408,-131.5 4408,-112.5 4328,-112.5"/>
<text text-anchor="middle" x="4368" y="-119.5" font-family="Helvetica,sans-Serif" font-size="10.00">VortexRing.H</text>
</a>
</g>
</g>
<!-- Node1&#45;&gt;Node245 -->
<g id="edge55" class="edge">
<title>Node1&#45;&gt;Node245</title>
<path fill="none" stroke="midnightblue" d="M2800.26,-176.66C3017.72,-174.75 4012.28,-164.4 4319,-132 4321.92,-131.69 4324.94,-131.31 4327.96,-130.87"/>
<polygon fill="midnightblue" stroke="midnightblue" points="2800.18,-173.16 2790.21,-176.74 2800.24,-180.16 2800.18,-173.16"/>
</g>
<!-- Node109 -->
<g id="node48" class="node">
<title>Node109</title>
<g id="a_node48"><a xlink:href="io_8cpp.html" target="_top" xlink:title=" ">
<polygon fill="white" stroke="black" points="4426,-112.5 4426,-131.5 4472,-131.5 4472,-112.5 4426,-112.5"/>
<text text-anchor="middle" x="4449" y="-119.5" font-family="Helvetica,sans-Serif" font-size="10.00">io.cpp</text>
</a>
</g>
</g>
<!-- Node1&#45;&gt;Node109 -->
<g id="edge57" class="edge">
<title>Node1&#45;&gt;Node109</title>
<path fill="none" stroke="midnightblue" d="M2800.42,-177.27C3026.53,-178.47 4091.72,-181.37 4417,-132 4419.85,-131.57 4422.81,-130.96 4425.73,-130.26"/>
<polygon fill="midnightblue" stroke="midnightblue" points="2800.32,-173.77 2790.3,-177.21 2800.28,-180.77 2800.32,-173.77"/>
</g>
<!-- Node166 -->
<g id="node49" class="node">
<title>Node166</title>
<g id="a_node49"><a xlink:href="_a_b_l_8_h.html" target="_top" xlink:title=" ">
<polygon fill="white" stroke="red" points="403,-112.5 403,-131.5 449,-131.5 449,-112.5 403,-112.5"/>
<text text-anchor="middle" x="426" y="-119.5" font-family="Helvetica,sans-Serif" font-size="10.00">ABL.H</text>
</a>
</g>
</g>
<!-- Node1&#45;&gt;Node166 -->
<g id="edge58" class="edge">
<title>Node1&#45;&gt;Node166</title>
<path fill="none" stroke="midnightblue" d="M2715.63,-176.02C2420,-169.17 670.81,-128.67 449.1,-123.53"/>
<polygon fill="midnightblue" stroke="midnightblue" points="2715.84,-179.52 2725.92,-176.26 2716.01,-172.53 2715.84,-179.52"/>
</g>
<!-- Node246 -->
<g id="node50" class="node">
<title>Node246</title>
<g id="a_node50"><a xlink:href="_actuator_8_h.html" target="_top" xlink:title=" ">
<polygon fill="white" stroke="red" points="1205,-112.5 1205,-131.5 1273,-131.5 1273,-112.5 1205,-112.5"/>
<text text-anchor="middle" x="1239" y="-119.5" font-family="Helvetica,sans-Serif" font-size="10.00">Actuator.H</text>
</a>
</g>
</g>
<!-- Node1&#45;&gt;Node246 -->
<g id="edge63" class="edge">
<title>Node1&#45;&gt;Node246</title>
<path fill="none" stroke="midnightblue" d="M2715.71,-175.5C2494.52,-167.63 1473.33,-131.33 1273.11,-124.21"/>
<polygon fill="midnightblue" stroke="midnightblue" points="2715.8,-179 2725.92,-175.86 2716.05,-172.01 2715.8,-179"/>
</g>
<!-- Node3 -->
<g id="node3" class="node">
<title>Node3</title>
<g id="a_node3"><a xlink:href="_wall_function_8_h.html" target="_top" xlink:title=" ">
<polygon fill="white" stroke="red" points="1166.5,-56.5 1166.5,-75.5 1255.5,-75.5 1255.5,-56.5 1166.5,-56.5"/>
<text text-anchor="middle" x="1211" y="-63.5" font-family="Helvetica,sans-Serif" font-size="10.00">WallFunction.H</text>
</a>
</g>
</g>
<!-- Node2&#45;&gt;Node3 -->
<g id="edge2" class="edge">
<title>Node2&#45;&gt;Node3</title>
<path fill="none" stroke="midnightblue" d="M1850.5,-119.35C1748.02,-115.13 1483.49,-102.41 1264,-76 1261.31,-75.68 1258.55,-75.31 1255.78,-74.92"/>
<polygon fill="midnightblue" stroke="midnightblue" points="1850.63,-122.85 1860.76,-119.76 1850.91,-115.86 1850.63,-122.85"/>
</g>
<!-- Node2&#45;&gt;Node5 -->
<g id="edge23" class="edge">
<title>Node2&#45;&gt;Node5</title>
<path fill="none" stroke="midnightblue" d="M1933.28,-109.23C1966.21,-97.47 2004.77,-78.01 1984,-56 1958.88,-29.37 1416.61,-15.47 1255.65,-11.93"/>
<polygon fill="midnightblue" stroke="midnightblue" points="1932.09,-105.94 1923.76,-112.48 1934.36,-112.56 1932.09,-105.94"/>
</g>
<!-- Node7 -->
<g id="node5" class="node">
<title>Node7</title>
<g id="a_node5"><a xlink:href="_c_f_d_sim_8cpp.html" target="_top" xlink:title=" ">
<polygon fill="white" stroke="black" points="2031,-56.5 2031,-75.5 2107,-75.5 2107,-56.5 2031,-56.5"/>
<text text-anchor="middle" x="2069" y="-63.5" font-family="Helvetica,sans-Serif" font-size="10.00">CFDSim.cpp</text>
</a>
</g>
</g>
<!-- Node2&#45;&gt;Node7 -->
<g id="edge4" class="edge">
<title>Node2&#45;&gt;Node7</title>
<path fill="none" stroke="midnightblue" d="M1931.47,-109.44C1964.47,-99.26 2011.76,-84.66 2041.4,-75.52"/>
<polygon fill="midnightblue" stroke="midnightblue" points="1930.25,-106.15 1921.73,-112.44 1932.32,-112.84 1930.25,-106.15"/>
</g>
<!-- Node8 -->
<g id="node6" class="node">
<title>Node8</title>
<g id="a_node6"><a xlink:href="_mesh_map_8cpp.html" target="_top" xlink:title=" ">
<polygon fill="white" stroke="black" points="2125,-56.5 2125,-75.5 2209,-75.5 2209,-56.5 2125,-56.5"/>
<text text-anchor="middle" x="2167" y="-63.5" font-family="Helvetica,sans-Serif" font-size="10.00">MeshMap.cpp</text>
</a>
</g>
</g>
<!-- Node2&#45;&gt;Node8 -->
<g id="edge5" class="edge">
<title>Node2&#45;&gt;Node8</title>
<path fill="none" stroke="midnightblue" d="M1937.32,-112.43C1988.67,-102.27 2073.71,-85.45 2124.64,-75.38"/>
<polygon fill="midnightblue" stroke="midnightblue" points="1936.33,-109.06 1927.2,-114.43 1937.69,-115.93 1936.33,-109.06"/>
</g>
<!-- Node9 -->
<g id="node7" class="node">
<title>Node9</title>
<g id="a_node7"><a xlink:href="_a_b_l_forcing_8cpp.html" target="_top" xlink:title=" ">
<polygon fill="white" stroke="black" points="503.5,-56.5 503.5,-75.5 594.5,-75.5 594.5,-56.5 503.5,-56.5"/>
<text text-anchor="middle" x="549" y="-63.5" font-family="Helvetica,sans-Serif" font-size="10.00">ABLForcing.cpp</text>
</a>
</g>
</g>
<!-- Node2&#45;&gt;Node9 -->
<g id="edge6" class="edge">
<title>Node2&#45;&gt;Node9</title>
<path fill="none" stroke="midnightblue" d="M1850.57,-120.25C1654.81,-116.74 853.07,-101.09 603,-76 600.26,-75.72 597.44,-75.4 594.61,-75.03"/>
<polygon fill="midnightblue" stroke="midnightblue" points="1850.7,-123.75 1860.76,-120.43 1850.82,-116.75 1850.7,-123.75"/>
</g>
<!-- Node10 -->
<g id="node8" class="node">
<title>Node10</title>
<g id="a_node8"><a xlink:href="_a_b_l_mean_boussinesq_8cpp.html" target="_top" xlink:title=" ">
<polygon fill="white" stroke="black" points="210,-56.5 210,-75.5 348,-75.5 348,-56.5 210,-56.5"/>
<text text-anchor="middle" x="279" y="-63.5" font-family="Helvetica,sans-Serif" font-size="10.00">ABLMeanBoussinesq.cpp</text>
</a>
</g>
</g>
<!-- Node2&#45;&gt;Node10 -->
<g id="edge7" class="edge">
<title>Node2&#45;&gt;Node10</title>
<path fill="none" stroke="midnightblue" d="M1850.67,-120.23C1633.18,-116.31 659.09,-97.81 357,-76 354.14,-75.79 351.23,-75.56 348.29,-75.31"/>
<polygon fill="midnightblue" stroke="midnightblue" points="1850.68,-123.73 1860.74,-120.41 1850.8,-116.74 1850.68,-123.73"/>
</g>
<!-- Node11 -->
<g id="node9" class="node">
<title>Node11</title>
<g id="a_node9"><a xlink:href="_actuator_forcing_8cpp.html" target="_top" xlink:title=" ">
<polygon fill="white" stroke="black" points="612.5,-56.5 612.5,-75.5 725.5,-75.5 725.5,-56.5 612.5,-56.5"/>
<text text-anchor="middle" x="669" y="-63.5" font-family="Helvetica,sans-Serif" font-size="10.00">ActuatorForcing.cpp</text>
</a>
</g>
</g>
<!-- Node2&#45;&gt;Node11 -->
<g id="edge8" class="edge">
<title>Node2&#45;&gt;Node11</title>
<path fill="none" stroke="midnightblue" d="M1850.31,-120.86C1696.84,-120.03 1168.26,-114.39 734,-76 731.28,-75.76 728.49,-75.48 725.68,-75.18"/>
<polygon fill="midnightblue" stroke="midnightblue" points="1850.69,-124.36 1860.7,-120.91 1850.72,-117.36 1850.69,-124.36"/>
</g>
<!-- Node12 -->
<g id="node10" class="node">
<title>Node12</title>
<g id="a_node10"><a xlink:href="_body_force_8cpp.html" target="_top" xlink:title=" ">
<polygon fill="white" stroke="black" points="2227,-56.5 2227,-75.5 2315,-75.5 2315,-56.5 2227,-56.5"/>
<text text-anchor="middle" x="2271" y="-63.5" font-family="Helvetica,sans-Serif" font-size="10.00">BodyForce.cpp</text>
</a>
</g>
</g>
<!-- Node2&#45;&gt;Node12 -->
<g id="edge9" class="edge">
<title>Node2&#45;&gt;Node12</title>
<path fill="none" stroke="midnightblue" d="M1937.39,-115.4C1999.6,-107.27 2117.72,-91.47 2218,-76 2220.86,-75.56 2223.8,-75.09 2226.77,-74.61"/>
<polygon fill="midnightblue" stroke="midnightblue" points="1936.63,-111.97 1927.16,-116.73 1937.53,-118.91 1936.63,-111.97"/>
</g>
<!-- Node13 -->
<g id="node11" class="node">
<title>Node13</title>
<g id="a_node11"><a xlink:href="_boussinesq_buoyancy_8cpp.html" target="_top" xlink:title=" ">
<polygon fill="white" stroke="black" points="743.5,-56.5 743.5,-75.5 882.5,-75.5 882.5,-56.5 743.5,-56.5"/>
<text text-anchor="middle" x="813" y="-63.5" font-family="Helvetica,sans-Serif" font-size="10.00">BoussinesqBuoyancy.cpp</text>
</a>
</g>
</g>
<!-- Node2&#45;&gt;Node13 -->
<g id="edge10" class="edge">
<title>Node2&#45;&gt;Node13</title>
<path fill="none" stroke="midnightblue" d="M1850.32,-120.13C1710.51,-117.12 1261.43,-105.64 891,-76 888.28,-75.78 885.51,-75.54 882.72,-75.29"/>
<polygon fill="midnightblue" stroke="midnightblue" points="1850.54,-123.64 1860.61,-120.35 1850.69,-116.64 1850.54,-123.64"/>
</g>
<!-- Node14 -->
<g id="node12" class="node">
<title>Node14</title>
<g id="a_node12"><a xlink:href="_burggraf_flow_forcing_8cpp.html" target="_top" xlink:title=" ">
<polygon fill="white" stroke="black" points="2311.5,-0.5 2311.5,-19.5 2448.5,-19.5 2448.5,-0.5 2311.5,-0.5"/>
<text text-anchor="middle" x="2380" y="-7.5" font-family="Helvetica,sans-Serif" font-size="10.00">BurggrafFlowForcing.cpp</text>
</a>
</g>
</g>
<!-- Node2&#45;&gt;Node14 -->
<g id="edge11" class="edge">
<title>Node2&#45;&gt;Node14</title>
<path fill="none" stroke="midnightblue" d="M1937.18,-120.48C2032.45,-118.69 2257.49,-110.79 2324,-76 2348.81,-63.02 2367.38,-34.05 2375.5,-19.57"/>
<polygon fill="midnightblue" stroke="midnightblue" points="1936.96,-116.98 1927.02,-120.65 1937.08,-123.98 1936.96,-116.98"/>
</g>
<!-- Node15 -->
<g id="node13" class="node">
<title>Node15</title>
<g id="a_node13"><a xlink:href="_coriolis_forcing_8cpp.html" target="_top" xlink:title=" ">
<polygon fill="white" stroke="black" points="900.5,-56.5 900.5,-75.5 1009.5,-75.5 1009.5,-56.5 900.5,-56.5"/>
<text text-anchor="middle" x="955" y="-63.5" font-family="Helvetica,sans-Serif" font-size="10.00">CoriolisForcing.cpp</text>
</a>
</g>
</g>
<!-- Node2&#45;&gt;Node15 -->
<g id="edge12" class="edge">
<title>Node2&#45;&gt;Node15</title>
<path fill="none" stroke="midnightblue" d="M1850.76,-120.16C1723.1,-117.4 1336.82,-106.9 1018,-76 1015.25,-75.73 1012.44,-75.43 1009.6,-75.11"/>
<polygon fill="midnightblue" stroke="midnightblue" points="1850.83,-123.67 1860.91,-120.38 1850.98,-116.67 1850.83,-123.67"/>
</g>
<!-- Node16 -->
<g id="node14" class="node">
<title>Node16</title>
<g id="a_node14"><a xlink:href="_density_buoyancy_8cpp.html" target="_top" xlink:title=" ">
<polygon fill="white" stroke="black" points="1027.5,-56.5 1027.5,-75.5 1148.5,-75.5 1148.5,-56.5 1027.5,-56.5"/>
<text text-anchor="middle" x="1088" y="-63.5" font-family="Helvetica,sans-Serif" font-size="10.00">DensityBuoyancy.cpp</text>
</a>
</g>
</g>
<!-- Node2&#45;&gt;Node16 -->
<g id="edge13" class="edge">
<title>Node2&#45;&gt;Node16</title>
<path fill="none" stroke="midnightblue" d="M1850.83,-119.4C1737.11,-114.97 1419.96,-101.15 1157,-76 1154.23,-75.74 1151.41,-75.45 1148.56,-75.14"/>
<polygon fill="midnightblue" stroke="midnightblue" points="1850.75,-122.9 1860.88,-119.79 1851.02,-115.91 1850.75,-122.9"/>
</g>
<!-- Node17 -->
<g id="node15" class="node">
<title>Node17</title>
<g id="a_node15"><a xlink:href="_geostrophic_forcing_8cpp.html" target="_top" xlink:title=" ">
<polygon fill="white" stroke="black" points="1273.5,-56.5 1273.5,-75.5 1404.5,-75.5 1404.5,-56.5 1273.5,-56.5"/>
<text text-anchor="middle" x="1339" y="-63.5" font-family="Helvetica,sans-Serif" font-size="10.00">GeostrophicForcing.cpp</text>
</a>
</g>
</g>
<!-- Node2&#45;&gt;Node17 -->
<g id="edge14" class="edge">
<title>Node2&#45;&gt;Node17</title>
<path fill="none" stroke="midnightblue" d="M1850.59,-117.31C1766.34,-110.07 1574.82,-93.18 1414,-76 1411,-75.68 1407.94,-75.34 1404.84,-75"/>
<polygon fill="midnightblue" stroke="midnightblue" points="1850.54,-120.82 1860.8,-118.19 1851.14,-113.84 1850.54,-120.82"/>
</g>
<!-- Node18 -->
<g id="node16" class="node">
<title>Node18</title>
<g id="a_node16"><a xlink:href="_gravity_forcing_8cpp.html" target="_top" xlink:title=" ">
<polygon fill="white" stroke="black" points="1423,-56.5 1423,-75.5 1531,-75.5 1531,-56.5 1423,-56.5"/>
<text text-anchor="middle" x="1477" y="-63.5" font-family="Helvetica,sans-Serif" font-size="10.00">GravityForcing.cpp</text>
</a>
</g>
</g>
<!-- Node2&#45;&gt;Node18 -->
<g id="edge15" class="edge">
<title>Node2&#45;&gt;Node18</title>
<path fill="none" stroke="midnightblue" d="M1850.65,-115.71C1783.89,-107.51 1651.89,-91.1 1540,-76 1537.15,-75.62 1534.23,-75.22 1531.29,-74.81"/>
<polygon fill="midnightblue" stroke="midnightblue" points="1850.44,-119.21 1860.79,-116.95 1851.29,-112.26 1850.44,-119.21"/>
</g>
<!-- Node19 -->
<g id="node17" class="node">
<title>Node19</title>
<g id="a_node17"><a xlink:href="_hurricane_forcing_8cpp.html" target="_top" xlink:title=" ">
<polygon fill="white" stroke="black" points="366.5,-56.5 366.5,-75.5 485.5,-75.5 485.5,-56.5 366.5,-56.5"/>
<text text-anchor="middle" x="426" y="-63.5" font-family="Helvetica,sans-Serif" font-size="10.00">HurricaneForcing.cpp</text>
</a>
</g>
</g>
<!-- Node2&#45;&gt;Node19 -->
<g id="edge16" class="edge">
<title>Node2&#45;&gt;Node19</title>
<path fill="none" stroke="midnightblue" d="M1850.63,-120.19C1645.04,-116.25 767.21,-98.42 494,-76 491.27,-75.78 488.48,-75.52 485.67,-75.24"/>
<polygon fill="midnightblue" stroke="midnightblue" points="1850.67,-123.69 1860.74,-120.38 1850.81,-116.69 1850.67,-123.69"/>
</g>
<!-- Node20 -->
<g id="node18" class="node">
<title>Node20</title>
<g id="a_node18"><a xlink:href="_rayleigh_damping_8cpp.html" target="_top" xlink:title=" ">
<polygon fill="white" stroke="black" points="1549,-56.5 1549,-75.5 1673,-75.5 1673,-56.5 1549,-56.5"/>
<text text-anchor="middle" x="1611" y="-63.5" font-family="Helvetica,sans-Serif" font-size="10.00">RayleighDamping.cpp</text>
</a>
</g>
</g>
<!-- Node2&#45;&gt;Node20 -->
<g id="edge17" class="edge">
<title>Node2&#45;&gt;Node20</title>
<path fill="none" stroke="midnightblue" d="M1850.94,-112.78C1798.24,-102.73 1709.42,-85.78 1655.9,-75.57"/>
<polygon fill="midnightblue" stroke="midnightblue" points="1850.5,-116.26 1860.98,-114.7 1851.82,-109.39 1850.5,-116.26"/>
</g>
<!-- Node21 -->
<g id="node19" class="node">
<title>Node21</title>
<g id="a_node19"><a xlink:href="_synth_turb_forcing_8cpp.html" target="_top" xlink:title=" ">
<polygon fill="white" stroke="black" points="1691,-56.5 1691,-75.5 1811,-75.5 1811,-56.5 1691,-56.5"/>
<text text-anchor="middle" x="1751" y="-63.5" font-family="Helvetica,sans-Serif" font-size="10.00">SynthTurbForcing.cpp</text>
</a>
</g>
</g>
<!-- Node2&#45;&gt;Node21 -->
<g id="edge18" class="edge">
<title>Node2&#45;&gt;Node21</title>
<path fill="none" stroke="midnightblue" d="M1861.97,-108.91C1835.09,-98.75 1797.36,-84.51 1773.55,-75.52"/>
<polygon fill="midnightblue" stroke="midnightblue" points="1860.75,-112.19 1871.34,-112.44 1863.22,-105.64 1860.75,-112.19"/>
</g>
<!-- Node22 -->
<g id="node20" class="node">
<title>Node22</title>
<g id="a_node20"><a xlink:href="_p_d_e_8_h.html" target="_top" xlink:title=" ">
<polygon fill="white" stroke="red" points="1829.5,-56.5 1829.5,-75.5 1876.5,-75.5 1876.5,-56.5 1829.5,-56.5"/>
<text text-anchor="middle" x="1853" y="-63.5" font-family="Helvetica,sans-Serif" font-size="10.00">PDE.H</text>
</a>
</g>
</g>
<!-- Node2&#45;&gt;Node22 -->
<g id="edge19" class="edge">
<title>Node2&#45;&gt;Node22</title>
<path fill="none" stroke="midnightblue" d="M1880.98,-103.86C1873.88,-94.5 1865.4,-83.33 1859.64,-75.75"/>
<polygon fill="midnightblue" stroke="midnightblue" points="1878.39,-106.24 1887.23,-112.08 1883.97,-102 1878.39,-106.24"/>
</g>
<!-- Node56 -->
<g id="node21" class="node">
<title>Node56</title>
<g id="a_node21"><a xlink:href="_p_d_e_base_8cpp.html" target="_top" xlink:title=" ">
<polygon fill="white" stroke="black" points="1895,-56.5 1895,-75.5 1975,-75.5 1975,-56.5 1895,-56.5"/>
<text text-anchor="middle" x="1935" y="-63.5" font-family="Helvetica,sans-Serif" font-size="10.00">PDEBase.cpp</text>
</a>
</g>
</g>
<!-- Node2&#45;&gt;Node56 -->
<g id="edge20" class="edge">
<title>Node2&#45;&gt;Node56</title>
<path fill="none" stroke="midnightblue" d="M1907.02,-103.86C1914.12,-94.5 1922.6,-83.33 1928.36,-75.75"/>
<polygon fill="midnightblue" stroke="midnightblue" points="1904.03,-102 1900.77,-112.08 1909.61,-106.24 1904.03,-102"/>
</g>
<!-- Node2&#45;&gt;Node123 -->
<g id="edge21" class="edge">
<title>Node2&#45;&gt;Node123</title>
<path fill="none" stroke="midnightblue" d="M1937.39,-117.54C2019.46,-110.83 2203.04,-95.02 2357,-76 2361.5,-75.44 2366.17,-74.82 2370.85,-74.17"/>
<polygon fill="midnightblue" stroke="midnightblue" points="1936.87,-114.07 1927.19,-118.37 1937.44,-121.05 1936.87,-114.07"/>
</g>
<!-- Node2&#45;&gt;Node125 -->
<g id="edge24" class="edge">
<title>Node2&#45;&gt;Node125</title>
<path fill="none" stroke="midnightblue" d="M1937.49,-118.11C2033.84,-111.59 2272.55,-94.84 2472,-76 2475.1,-75.71 2478.26,-75.4 2481.46,-75.08"/>
<polygon fill="midnightblue" stroke="midnightblue" points="1937.01,-114.63 1927.26,-118.8 1937.48,-121.61 1937.01,-114.63"/>
</g>
<!-- Node2&#45;&gt;Node127 -->
<g id="edge25" class="edge">
<title>Node2&#45;&gt;Node127</title>
<path fill="none" stroke="midnightblue" d="M1937.4,-119.99C2051.73,-116.98 2370.51,-106.29 2634,-76 2636.69,-75.69 2639.45,-75.34 2642.23,-74.95"/>
<polygon fill="midnightblue" stroke="midnightblue" points="1937.21,-116.49 1927.3,-120.25 1937.39,-123.49 1937.21,-116.49"/>
</g>
<!-- Node2&#45;&gt;Node129 -->
<g id="edge26" class="edge">
<title>Node2&#45;&gt;Node129</title>
<path fill="none" stroke="midnightblue" d="M1937.46,-119.84C2062.51,-116.25 2433.91,-103.86 2741,-76 2743.68,-75.76 2746.42,-75.49 2749.19,-75.2"/>
<polygon fill="midnightblue" stroke="midnightblue" points="1937.06,-116.35 1927.16,-120.13 1937.25,-123.35 1937.06,-116.35"/>
</g>
<!-- Node2&#45;&gt;Node131 -->
<g id="edge27" class="edge">
<title>Node2&#45;&gt;Node131</title>
<path fill="none" stroke="midnightblue" d="M1937.32,-120.26C2102.9,-117.22 2695.79,-104.55 2882,-76 2884.66,-75.59 2887.4,-75.06 2890.13,-74.46"/>
<polygon fill="midnightblue" stroke="midnightblue" points="1936.98,-116.76 1927.04,-120.44 1937.1,-123.76 1936.98,-116.76"/>
</g>
<!-- Node2&#45;&gt;Node144 -->
<g id="edge28" class="edge">
<title>Node2&#45;&gt;Node144</title>
<path fill="none" stroke="midnightblue" d="M1937.61,-120.45C2082.15,-118.34 2558.63,-109.16 2951,-76 2953.72,-75.77 2956.5,-75.51 2959.31,-75.23"/>
<polygon fill="midnightblue" stroke="midnightblue" points="1937.34,-116.95 1927.39,-120.59 1937.44,-123.95 1937.34,-116.95"/>
</g>
<!-- Node3&#45;&gt;Node5 -->
<g id="edge3" class="edge">
<title>Node3&#45;&gt;Node5</title>
<path fill="none" stroke="midnightblue" d="M1211,-45.8C1211,-36.91 1211,-26.78 1211,-19.75"/>
<polygon fill="midnightblue" stroke="midnightblue" points="1207.5,-46.08 1211,-56.08 1214.5,-46.08 1207.5,-46.08"/>
</g>
<!-- Node123&#45;&gt;Node14 -->
<g id="edge22" class="edge">
<title>Node123&#45;&gt;Node14</title>
<path fill="none" stroke="midnightblue" d="M2405.05,-47.57C2398.69,-38.27 2391.13,-27.25 2386,-19.75"/>
<polygon fill="midnightblue" stroke="midnightblue" points="2402.35,-49.81 2410.89,-56.08 2408.13,-45.86 2402.35,-49.81"/>
</g>
<!-- Node229&#45;&gt;Node91 -->
<g id="edge33" class="edge">
<title>Node229&#45;&gt;Node91</title>
<path fill="none" stroke="midnightblue" d="M77.04,-106.1C89.46,-96.38 105.24,-84.03 115.71,-75.83"/>
<polygon fill="midnightblue" stroke="midnightblue" points="74.8,-103.4 69.09,-112.32 79.12,-108.92 74.8,-103.4"/>
</g>
<!-- Node166&#45;&gt;Node9 -->
<g id="edge59" class="edge">
<title>Node166&#45;&gt;Node9</title>
<path fill="none" stroke="midnightblue" d="M454.77,-108.37C477.81,-98.26 509.48,-84.35 529.6,-75.52"/>
<polygon fill="midnightblue" stroke="midnightblue" points="453.24,-105.22 445.49,-112.44 456.05,-111.63 453.24,-105.22"/>
</g>
<!-- Node166&#45;&gt;Node10 -->
<g id="edge60" class="edge">
<title>Node166&#45;&gt;Node10</title>
<path fill="none" stroke="midnightblue" d="M393.08,-108.91C365.44,-98.75 326.66,-84.51 302.18,-75.52"/>
<polygon fill="midnightblue" stroke="midnightblue" points="392.11,-112.28 402.71,-112.44 394.53,-105.71 392.11,-112.28"/>
</g>
<!-- Node166&#45;&gt;Node19 -->
<g id="edge61" class="edge">
<title>Node166&#45;&gt;Node19</title>
<path fill="none" stroke="midnightblue" d="M426,-101.8C426,-92.91 426,-82.78 426,-75.75"/>
<polygon fill="midnightblue" stroke="midnightblue" points="422.5,-102.08 426,-112.08 429.5,-102.08 422.5,-102.08"/>
</g>
<!-- Node166&#45;&gt;Node91 -->
<g id="edge62" class="edge">
<title>Node166&#45;&gt;Node91</title>
<path fill="none" stroke="midnightblue" d="M392.47,-114.95C332.58,-104.13 208.36,-81.69 153.75,-71.83"/>
<polygon fill="midnightblue" stroke="midnightblue" points="392.08,-118.43 402.54,-116.76 393.32,-111.54 392.08,-118.43"/>
</g>
<!-- Node246&#45;&gt;Node11 -->
<g id="edge64" class="edge">
<title>Node246&#45;&gt;Node11</title>
<path fill="none" stroke="midnightblue" d="M1194.82,-117.79C1106.92,-111.25 903.97,-95.33 734,-76 731.28,-75.69 728.5,-75.36 725.7,-75.02"/>
<polygon fill="midnightblue" stroke="midnightblue" points="1194.72,-121.29 1204.95,-118.54 1195.24,-114.31 1194.72,-121.29"/>
</g>
</g>
</svg>
        <g id="navigator" transform="translate(0 0)" fill="#404254">
                <rect fill="#f2f5e9" fill-opacity="0.5" stroke="#606060" stroke-width=".5" x="0" y="0" width="60" height="60"/>
                <use id="zoomplus" xlink:href="#zoomPlus" x="17" y="9" onmousedown="handleZoom(evt,'in')"/>
                <use id="zoomminus" xlink:href="#zoomMin" x="42" y="9" onmousedown="handleZoom(evt,'out')"/>
                <use id="reset" xlink:href="#resetDef" x="30" y="36" onmousedown="handleReset()"/>
                <g id="arrowUp" xlink:href="#dirArrow" transform="translate(30 24)" onmousedown="handlePan(0,-1)">
                  <use xlink:href="#rim" fill="#404040">
                        <set attributeName="fill" to="#808080" begin="arrowUp.mouseover" end="arrowUp.mouseout"/>
                  </use>
                  <path fill="none" stroke="white" stroke-width="1.5" d="M0,-3.0v7 M-2.5,-0.5L0,-3.0L2.5,-0.5"/>
                </g>
                <g id="arrowRight" xlink:href="#dirArrow" transform="rotate(90) translate(36 -43)" onmousedown="handlePan(1,0)">
                  <use xlink:href="#rim" fill="#404040">
                        <set attributeName="fill" to="#808080" begin="arrowRight.mouseover" end="arrowRight.mouseout"/>
                  </use>
                  <path fill="none" stroke="white" stroke-width="1.5" d="M0,-3.0v7 M-2.5,-0.5L0,-3.0L2.5,-0.5"/>
                </g>
                <g id="arrowDown" xlink:href="#dirArrow" transform="rotate(180) translate(-30 -48)" onmousedown="handlePan(0,1)">
                  <use xlink:href="#rim" fill="#404040">
                        <set attributeName="fill" to="#808080" begin="arrowDown.mouseover" end="arrowDown.mouseout"/>
                  </use>
                  <path fill="none" stroke="white" stroke-width="1.5" d="M0,-3.0v7 M-2.5,-0.5L0,-3.0L2.5,-0.5"/>
                </g>
                <g id="arrowLeft" xlink:href="#dirArrow" transform="rotate(270) translate(-36 17)" onmousedown="handlePan(-1,0)">
                  <use xlink:href="#rim" fill="#404040">
                        <set attributeName="fill" to="#808080" begin="arrowLeft.mouseover" end="arrowLeft.mouseout"/>
                  </use>
                  <path fill="none" stroke="white" stroke-width="1.5" d="M0,-3.0v7 M-2.5,-0.5L0,-3.0L2.5,-0.5"/>
                </g>
        </g>
        <svg viewBox="0 0 15 15" width="100%" height="30px" preserveAspectRatio="xMaxYMin meet">
         <g id="arrow_out" transform="scale(0.3 0.3)">
          <a xlink:href="_physics_8_h__dep__incl_org.svg" target="_base">
           <rect id="button" ry="5" rx="5" y="6" x="6" height="38" width="38"
                fill="#f2f5e9" fill-opacity="0.5" stroke="#606060" stroke-width="1.0"/>
           <path id="arrow"
             d="M 11.500037,31.436501 C 11.940474,20.09759 22.043105,11.32322 32.158766,21.979434 L 37.068811,17.246167 C 37.068811,17.246167 37.088388,32 37.088388,32 L 22.160133,31.978069 C 22.160133,31.978069 26.997745,27.140456 26.997745,27.140456 C 18.528582,18.264221 13.291696,25.230495 11.500037,31.436501 z"
             style="fill:#404040;"/>
          </a>
         </g>
        </svg>
</svg>
