<?xml version="1.0" encoding="UTF-8" standalone="no"?>
<!DOCTYPE svg PUBLIC "-//W3C//DTD SVG 1.1//EN"
 "http://www.w3.org/Graphics/SVG/1.1/DTD/svg11.dtd">
<!-- Generated by graphviz version 2.43.0 (0)
 -->
<!-- Title: RayleighDamping.H Pages: 1 -->
<svg width="2243pt" height="330pt"
 viewBox="0.00 0.00 2242.97 330.00" xmlns="http://www.w3.org/2000/svg" xmlns:xlink="http://www.w3.org/1999/xlink">
<g id="graph0" class="graph" transform="scale(1 1) rotate(0) translate(4 326)">
<title>RayleighDamping.H</title>
<polygon fill="white" stroke="transparent" points="-4,4 -4,-326 2238.97,-326 2238.97,4 -4,4"/>
<!-- Node1 -->
<g id="node1" class="node">
<title>Node1</title>
<g id="a_node1"><a xlink:title=" ">
<polygon fill="#bfbfbf" stroke="black" points="1049,-302.5 1049,-321.5 1163,-321.5 1163,-302.5 1049,-302.5"/>
<text text-anchor="middle" x="1106" y="-309.5" font-family="Helvetica,sans-Serif" font-size="10.00">RayleighDamping.H</text>
</a>
</g>
</g>
<!-- Node2 -->
<g id="node2" class="node">
<title>Node2</title>
<g id="a_node2"><a xlink:href="_momentum_source_8_h.html" target="_top" xlink:title=" ">
<polygon fill="white" stroke="black" points="819.5,-235.5 819.5,-265.5 974.5,-265.5 974.5,-235.5 819.5,-235.5"/>
<text text-anchor="start" x="827.5" y="-253.5" font-family="Helvetica,sans-Serif" font-size="10.00">amr&#45;wind/equation_systems</text>
<text text-anchor="middle" x="897" y="-242.5" font-family="Helvetica,sans-Serif" font-size="10.00">/icns/MomentumSource.H</text>
</a>
</g>
</g>
<!-- Node1&#45;&gt;Node2 -->
<g id="edge1" class="edge">
<title>Node1&#45;&gt;Node2</title>
<path fill="none" stroke="midnightblue" d="M1076.06,-302.48C1044.84,-293.59 995.1,-279.43 955.96,-268.29"/>
<polygon fill="midnightblue" stroke="midnightblue" points="956.83,-264.89 946.26,-265.52 954.92,-271.63 956.83,-264.89"/>
</g>
<!-- Node29 -->
<g id="node29" class="node">
<title>Node29</title>
<g id="a_node29"><a xlink:href="_sim_time_8_h.html" target="_top" xlink:title=" ">
<polygon fill="white" stroke="black" points="1441,-241 1441,-260 1585,-260 1585,-241 1441,-241"/>
<text text-anchor="middle" x="1513" y="-248" font-family="Helvetica,sans-Serif" font-size="10.00">amr&#45;wind/core/SimTime.H</text>
</a>
</g>
</g>
<!-- Node1&#45;&gt;Node29 -->
<g id="edge57" class="edge">
<title>Node1&#45;&gt;Node29</title>
<path fill="none" stroke="midnightblue" d="M1163.02,-302.66C1236.82,-291.87 1365.31,-273.09 1444.38,-261.53"/>
<polygon fill="midnightblue" stroke="midnightblue" points="1445.33,-264.93 1454.72,-260.02 1444.32,-258 1445.33,-264.93"/>
</g>
<!-- Node3 -->
<g id="node3" class="node">
<title>Node3</title>
<g id="a_node3"><a xlink:href="_factory_8_h.html" target="_top" xlink:title=" ">
<polygon fill="white" stroke="black" points="114,-118 114,-137 248,-137 248,-118 114,-118"/>
<text text-anchor="middle" x="181" y="-125" font-family="Helvetica,sans-Serif" font-size="10.00">amr&#45;wind/core/Factory.H</text>
</a>
</g>
</g>
<!-- Node2&#45;&gt;Node3 -->
<g id="edge2" class="edge">
<title>Node2&#45;&gt;Node3</title>
<path fill="none" stroke="midnightblue" d="M819.29,-249.35C672.55,-248.08 360.58,-240.42 262,-199 234.04,-187.25 208.92,-161.98 194.31,-145.1"/>
<polygon fill="midnightblue" stroke="midnightblue" points="196.76,-142.59 187.66,-137.16 191.39,-147.08 196.76,-142.59"/>
</g>
<!-- Node9 -->
<g id="node9" class="node">
<title>Node9</title>
<g id="a_node9"><a xlink:href="_field_desc_types_8_h.html" target="_top" xlink:title=" ">
<polygon fill="white" stroke="black" points="1305,-0.5 1305,-19.5 1481,-19.5 1481,-0.5 1305,-0.5"/>
<text text-anchor="middle" x="1393" y="-7.5" font-family="Helvetica,sans-Serif" font-size="10.00">amr&#45;wind/core/FieldDescTypes.H</text>
</a>
</g>
</g>
<!-- Node2&#45;&gt;Node9 -->
<g id="edge8" class="edge">
<title>Node2&#45;&gt;Node9</title>
<path fill="none" stroke="midnightblue" d="M974.86,-246.24C1068.44,-241.07 1218.78,-228.37 1266,-199 1332.34,-157.74 1372.12,-67.56 1386.67,-29.03"/>
<polygon fill="midnightblue" stroke="midnightblue" points="1389.97,-30.21 1390.11,-19.62 1383.39,-27.81 1389.97,-30.21"/>
</g>
<!-- Node10 -->
<g id="node10" class="node">
<title>Node10</title>
<g id="a_node10"><a xlink:href="_field_utils_8_h.html" target="_top" xlink:title=" ">
<polygon fill="white" stroke="black" points="352,-118 352,-137 498,-137 498,-118 352,-118"/>
<text text-anchor="middle" x="425" y="-125" font-family="Helvetica,sans-Serif" font-size="10.00">amr&#45;wind/core/FieldUtils.H</text>
</a>
</g>
</g>
<!-- Node2&#45;&gt;Node10 -->
<g id="edge9" class="edge">
<title>Node2&#45;&gt;Node10</title>
<path fill="none" stroke="midnightblue" d="M841.93,-235.38C746.84,-211.01 553.82,-161.52 467.91,-139.5"/>
<polygon fill="midnightblue" stroke="midnightblue" points="468.78,-136.11 458.22,-137.02 467.04,-142.89 468.78,-136.11"/>
</g>
<!-- Node11 -->
<g id="node11" class="node">
<title>Node11</title>
<g id="a_node11"><a xlink:title=" ">
<polygon fill="white" stroke="#bfbfbf" points="571.5,-0.5 571.5,-19.5 680.5,-19.5 680.5,-0.5 571.5,-0.5"/>
<text text-anchor="middle" x="626" y="-7.5" font-family="Helvetica,sans-Serif" font-size="10.00">AMReX_MultiFab.H</text>
</a>
</g>
</g>
<!-- Node2&#45;&gt;Node11 -->
<g id="edge56" class="edge">
<title>Node2&#45;&gt;Node11</title>
<path fill="none" stroke="midnightblue" d="M821.88,-235.49C768.14,-225.44 694.09,-211.51 629,-199 473.65,-169.15 343.38,-226.61 295,-76 292.28,-67.54 289.15,-62.7 295,-56 328.81,-17.28 474.55,-10.61 560.96,-10.16"/>
<polygon fill="midnightblue" stroke="midnightblue" points="561.21,-13.66 571.2,-10.14 561.19,-6.66 561.21,-13.66"/>
</g>
<!-- Node13 -->
<g id="node13" class="node">
<title>Node13</title>
<g id="a_node13"><a xlink:href="_field_repo_8_h.html" target="_top" xlink:title=" ">
<polygon fill="white" stroke="black" points="1108.5,-179.5 1108.5,-198.5 1257.5,-198.5 1257.5,-179.5 1108.5,-179.5"/>
<text text-anchor="middle" x="1183" y="-186.5" font-family="Helvetica,sans-Serif" font-size="10.00">amr&#45;wind/core/FieldRepo.H</text>
</a>
</g>
</g>
<!-- Node2&#45;&gt;Node13 -->
<g id="edge13" class="edge">
<title>Node2&#45;&gt;Node13</title>
<path fill="none" stroke="midnightblue" d="M964.42,-235.47C1015.8,-224.78 1085.47,-210.29 1132.21,-200.57"/>
<polygon fill="midnightblue" stroke="midnightblue" points="1133.03,-203.97 1142.11,-198.51 1131.61,-197.12 1133.03,-203.97"/>
</g>
<!-- Node4 -->
<g id="node4" class="node">
<title>Node4</title>
<g id="a_node4"><a xlink:title=" ">
<polygon fill="white" stroke="#bfbfbf" points="522,-56.5 522,-75.5 580,-75.5 580,-56.5 522,-56.5"/>
<text text-anchor="middle" x="551" y="-63.5" font-family="Helvetica,sans-Serif" font-size="10.00">memory</text>
</a>
</g>
</g>
<!-- Node3&#45;&gt;Node4 -->
<g id="edge3" class="edge">
<title>Node3&#45;&gt;Node4</title>
<path fill="none" stroke="midnightblue" d="M234.01,-117.98C309.12,-105.9 444.8,-84.08 511.63,-73.33"/>
<polygon fill="midnightblue" stroke="midnightblue" points="512.43,-76.75 521.74,-71.7 511.32,-69.84 512.43,-76.75"/>
</g>
<!-- Node5 -->
<g id="node5" class="node">
<title>Node5</title>
<g id="a_node5"><a xlink:title=" ">
<polygon fill="white" stroke="#bfbfbf" points="636.5,-56.5 636.5,-75.5 729.5,-75.5 729.5,-56.5 636.5,-56.5"/>
<text text-anchor="middle" x="683" y="-63.5" font-family="Helvetica,sans-Serif" font-size="10.00">unordered_map</text>
</a>
</g>
</g>
<!-- Node3&#45;&gt;Node5 -->
<g id="edge4" class="edge">
<title>Node3&#45;&gt;Node5</title>
<path fill="none" stroke="midnightblue" d="M248.18,-118.54C347.84,-106.73 533.08,-84.77 626.3,-73.72"/>
<polygon fill="midnightblue" stroke="midnightblue" points="626.87,-77.18 636.39,-72.52 626.05,-70.23 626.87,-77.18"/>
</g>
<!-- Node6 -->
<g id="node6" class="node">
<title>Node6</title>
<g id="a_node6"><a xlink:title=" ">
<polygon fill="white" stroke="#bfbfbf" points="188,-56.5 188,-75.5 248,-75.5 248,-56.5 188,-56.5"/>
<text text-anchor="middle" x="218" y="-63.5" font-family="Helvetica,sans-Serif" font-size="10.00">iostream</text>
</a>
</g>
</g>
<!-- Node3&#45;&gt;Node6 -->
<g id="edge5" class="edge">
<title>Node3&#45;&gt;Node6</title>
<path fill="none" stroke="midnightblue" d="M186.3,-117.98C191.74,-109.23 200.36,-95.37 207.24,-84.31"/>
<polygon fill="midnightblue" stroke="midnightblue" points="210.4,-85.85 212.71,-75.51 204.46,-82.15 210.4,-85.85"/>
</g>
<!-- Node7 -->
<g id="node7" class="node">
<title>Node7</title>
<g id="a_node7"><a xlink:title=" ">
<polygon fill="white" stroke="#bfbfbf" points="0,-56.5 0,-75.5 90,-75.5 90,-56.5 0,-56.5"/>
<text text-anchor="middle" x="45" y="-63.5" font-family="Helvetica,sans-Serif" font-size="10.00">AMReX_Print.H</text>
</a>
</g>
</g>
<!-- Node3&#45;&gt;Node7 -->
<g id="edge6" class="edge">
<title>Node3&#45;&gt;Node7</title>
<path fill="none" stroke="midnightblue" d="M161.51,-117.98C138.59,-107.95 100.31,-91.2 73.92,-79.65"/>
<polygon fill="midnightblue" stroke="midnightblue" points="75.01,-76.31 64.45,-75.51 72.21,-82.72 75.01,-76.31"/>
</g>
<!-- Node8 -->
<g id="node8" class="node">
<title>Node8</title>
<g id="a_node8"><a xlink:title=" ">
<polygon fill="white" stroke="#bfbfbf" points="108,-56.5 108,-75.5 170,-75.5 170,-56.5 108,-56.5"/>
<text text-anchor="middle" x="139" y="-63.5" font-family="Helvetica,sans-Serif" font-size="10.00">AMReX.H</text>
</a>
</g>
</g>
<!-- Node3&#45;&gt;Node8 -->
<g id="edge7" class="edge">
<title>Node3&#45;&gt;Node8</title>
<path fill="none" stroke="midnightblue" d="M174.98,-117.98C168.74,-109.14 158.83,-95.09 150.98,-83.98"/>
<polygon fill="midnightblue" stroke="midnightblue" points="153.63,-81.66 145.01,-75.51 147.91,-85.7 153.63,-81.66"/>
</g>
<!-- Node10&#45;&gt;Node9 -->
<g id="edge10" class="edge">
<title>Node10&#45;&gt;Node9</title>
<path fill="none" stroke="midnightblue" d="M459.25,-117.95C492.89,-109.09 545.35,-94.02 589,-76 606.64,-68.72 608.61,-61.12 627,-56 749.82,-21.8 1117.2,-13.58 1294.77,-11.62"/>
<polygon fill="midnightblue" stroke="midnightblue" points="1294.94,-15.12 1304.9,-11.51 1294.86,-8.12 1294.94,-15.12"/>
</g>
<!-- Node10&#45;&gt;Node11 -->
<g id="edge11" class="edge">
<title>Node10&#45;&gt;Node11</title>
<path fill="none" stroke="midnightblue" d="M429.49,-117.73C437.57,-102.82 455.97,-72.57 480,-56 504.31,-39.24 535.09,-28.55 562.11,-21.81"/>
<polygon fill="midnightblue" stroke="midnightblue" points="562.95,-25.21 571.88,-19.51 561.34,-18.4 562.95,-25.21"/>
</g>
<!-- Node12 -->
<g id="node12" class="node">
<title>Node12</title>
<g id="a_node12"><a xlink:title=" ">
<polygon fill="white" stroke="#bfbfbf" points="304,-56.5 304,-75.5 428,-75.5 428,-56.5 304,-56.5"/>
<text text-anchor="middle" x="366" y="-63.5" font-family="Helvetica,sans-Serif" font-size="10.00">AMReX_Interpolater.H</text>
</a>
</g>
</g>
<!-- Node10&#45;&gt;Node12 -->
<g id="edge12" class="edge">
<title>Node10&#45;&gt;Node12</title>
<path fill="none" stroke="midnightblue" d="M416.55,-117.98C407.43,-108.78 392.73,-93.96 381.52,-82.66"/>
<polygon fill="midnightblue" stroke="midnightblue" points="383.96,-80.15 374.44,-75.51 378.99,-85.07 383.96,-80.15"/>
</g>
<!-- Node13&#45;&gt;Node5 -->
<g id="edge15" class="edge">
<title>Node13&#45;&gt;Node5</title>
<path fill="none" stroke="midnightblue" d="M1133.76,-179.48C1101.32,-172.59 1058.61,-161.02 1024,-143 1004.67,-132.93 1005.96,-120.75 986,-112 885.42,-67.91 847.93,-92.3 739.68,-76.81"/>
<polygon fill="midnightblue" stroke="midnightblue" points="740.09,-73.34 729.68,-75.3 739.04,-80.26 740.09,-73.34"/>
</g>
<!-- Node13&#45;&gt;Node9 -->
<g id="edge16" class="edge">
<title>Node13&#45;&gt;Node9</title>
<path fill="none" stroke="midnightblue" d="M1193.13,-179.46C1226.31,-151.5 1332.06,-62.37 1374.81,-26.33"/>
<polygon fill="midnightblue" stroke="midnightblue" points="1377.09,-28.99 1382.48,-19.87 1372.58,-23.64 1377.09,-28.99"/>
</g>
<!-- Node13&#45;&gt;Node10 -->
<g id="edge17" class="edge">
<title>Node13&#45;&gt;Node10</title>
<path fill="none" stroke="midnightblue" d="M1108.31,-185.39C984.18,-180.51 727.7,-168.15 512,-143 501.96,-141.83 491.32,-140.3 481.05,-138.67"/>
<polygon fill="midnightblue" stroke="midnightblue" points="481.37,-135.18 470.93,-137.02 480.24,-142.09 481.37,-135.18"/>
</g>
<!-- Node13&#45;&gt;Node11 -->
<g id="edge54" class="edge">
<title>Node13&#45;&gt;Node11</title>
<path fill="none" stroke="midnightblue" d="M1108.35,-187.26C949.73,-183.93 587.51,-166.37 513,-76 491.56,-50 533.28,-32.26 571.95,-21.96"/>
<polygon fill="midnightblue" stroke="midnightblue" points="572.83,-25.35 581.67,-19.5 571.12,-18.56 572.83,-25.35"/>
</g>
<!-- Node14 -->
<g id="node14" class="node">
<title>Node14</title>
<g id="a_node14"><a xlink:title=" ">
<polygon fill="white" stroke="#bfbfbf" points="1859,-0.5 1859,-19.5 1903,-19.5 1903,-0.5 1859,-0.5"/>
<text text-anchor="middle" x="1881" y="-7.5" font-family="Helvetica,sans-Serif" font-size="10.00">string</text>
</a>
</g>
</g>
<!-- Node13&#45;&gt;Node14 -->
<g id="edge14" class="edge">
<title>Node13&#45;&gt;Node14</title>
<path fill="none" stroke="midnightblue" d="M1257.79,-184.77C1494.45,-174.54 2211.46,-143.52 2212,-143 2239.8,-116.04 2242.5,-85.15 2217,-56 2177.75,-11.15 1990.29,-9.1 1913.7,-10.2"/>
<polygon fill="midnightblue" stroke="midnightblue" points="1913.18,-6.71 1903.24,-10.38 1913.3,-13.71 1913.18,-6.71"/>
</g>
<!-- Node15 -->
<g id="node15" class="node">
<title>Node15</title>
<g id="a_node15"><a xlink:href="_field_8_h.html" target="_top" xlink:title=" ">
<polygon fill="white" stroke="black" points="1033,-118 1033,-137 1157,-137 1157,-118 1033,-118"/>
<text text-anchor="middle" x="1095" y="-125" font-family="Helvetica,sans-Serif" font-size="10.00">amr&#45;wind/core/Field.H</text>
</a>
</g>
</g>
<!-- Node13&#45;&gt;Node15 -->
<g id="edge18" class="edge">
<title>Node13&#45;&gt;Node15</title>
<path fill="none" stroke="midnightblue" d="M1170.39,-179.48C1156.28,-169.93 1133.17,-154.31 1116.25,-142.87"/>
<polygon fill="midnightblue" stroke="midnightblue" points="1117.83,-139.71 1107.58,-137.01 1113.91,-145.51 1117.83,-139.71"/>
</g>
<!-- Node22 -->
<g id="node22" class="node">
<title>Node22</title>
<g id="a_node22"><a xlink:href="_int_field_8_h.html" target="_top" xlink:title=" ">
<polygon fill="white" stroke="black" points="2065.5,-118 2065.5,-137 2202.5,-137 2202.5,-118 2065.5,-118"/>
<text text-anchor="middle" x="2134" y="-125" font-family="Helvetica,sans-Serif" font-size="10.00">amr&#45;wind/core/IntField.H</text>
</a>
</g>
</g>
<!-- Node13&#45;&gt;Node22 -->
<g id="edge33" class="edge">
<title>Node13&#45;&gt;Node22</title>
<path fill="none" stroke="midnightblue" d="M1257.69,-184.72C1434.47,-176.83 1874.74,-156.46 2022,-143 2035.83,-141.74 2050.57,-140.06 2064.67,-138.3"/>
<polygon fill="midnightblue" stroke="midnightblue" points="2065.33,-141.75 2074.8,-137.01 2064.44,-134.8 2065.33,-141.75"/>
</g>
<!-- Node23 -->
<g id="node23" class="node">
<title>Node23</title>
<g id="a_node23"><a xlink:title=" ">
<polygon fill="white" stroke="#bfbfbf" points="2047,-56.5 2047,-75.5 2159,-75.5 2159,-56.5 2047,-56.5"/>
<text text-anchor="middle" x="2103" y="-63.5" font-family="Helvetica,sans-Serif" font-size="10.00">AMReX_iMultiFab.H</text>
</a>
</g>
</g>
<!-- Node13&#45;&gt;Node23 -->
<g id="edge55" class="edge">
<title>Node13&#45;&gt;Node23</title>
<path fill="none" stroke="midnightblue" d="M1257.68,-184.52C1445.44,-175.65 1924.64,-152.25 1958,-143 2005.53,-129.83 2055.25,-99.59 2082.35,-81.48"/>
<polygon fill="midnightblue" stroke="midnightblue" points="2084.66,-84.14 2090.95,-75.62 2080.72,-78.35 2084.66,-84.14"/>
</g>
<!-- Node24 -->
<g id="node24" class="node">
<title>Node24</title>
<g id="a_node24"><a xlink:href="_scratch_field_8_h.html" target="_top" xlink:title=" ">
<polygon fill="white" stroke="black" points="1504,-118 1504,-137 1664,-137 1664,-118 1504,-118"/>
<text text-anchor="middle" x="1584" y="-125" font-family="Helvetica,sans-Serif" font-size="10.00">amr&#45;wind/core/ScratchField.H</text>
</a>
</g>
</g>
<!-- Node13&#45;&gt;Node24 -->
<g id="edge37" class="edge">
<title>Node13&#45;&gt;Node24</title>
<path fill="none" stroke="midnightblue" d="M1240.45,-179.48C1313.41,-168.65 1439.09,-150 1516.52,-138.51"/>
<polygon fill="midnightblue" stroke="midnightblue" points="1517.28,-141.94 1526.65,-137.01 1516.25,-135.01 1517.28,-141.94"/>
</g>
<!-- Node27 -->
<g id="node27" class="node">
<title>Node27</title>
<g id="a_node27"><a xlink:href="_int_scratch_field_8_h.html" target="_top" xlink:title=" ">
<polygon fill="white" stroke="black" points="1809.5,-112.5 1809.5,-142.5 1948.5,-142.5 1948.5,-112.5 1809.5,-112.5"/>
<text text-anchor="start" x="1817.5" y="-130.5" font-family="Helvetica,sans-Serif" font-size="10.00">amr&#45;wind/core/IntScratch</text>
<text text-anchor="middle" x="1879" y="-119.5" font-family="Helvetica,sans-Serif" font-size="10.00">Field.H</text>
</a>
</g>
</g>
<!-- Node13&#45;&gt;Node27 -->
<g id="edge45" class="edge">
<title>Node13&#45;&gt;Node27</title>
<path fill="none" stroke="midnightblue" d="M1257.81,-181.6C1389.9,-170.31 1663.24,-146.94 1798.96,-135.34"/>
<polygon fill="midnightblue" stroke="midnightblue" points="1799.61,-138.8 1809.28,-134.46 1799.02,-131.83 1799.61,-138.8"/>
</g>
<!-- Node28 -->
<g id="node28" class="node">
<title>Node28</title>
<g id="a_node28"><a xlink:title=" ">
<polygon fill="white" stroke="#bfbfbf" points="867,-118 867,-137 977,-137 977,-118 867,-118"/>
<text text-anchor="middle" x="922" y="-125" font-family="Helvetica,sans-Serif" font-size="10.00">AMReX_AmrCore.H</text>
</a>
</g>
</g>
<!-- Node13&#45;&gt;Node28 -->
<g id="edge53" class="edge">
<title>Node13&#45;&gt;Node28</title>
<path fill="none" stroke="midnightblue" d="M1145.61,-179.48C1099.19,-168.89 1019.98,-150.84 969.36,-139.3"/>
<polygon fill="midnightblue" stroke="midnightblue" points="969.85,-135.82 959.33,-137.01 968.3,-142.64 969.85,-135.82"/>
</g>
<!-- Node15&#45;&gt;Node4 -->
<g id="edge20" class="edge">
<title>Node15&#45;&gt;Node4</title>
<path fill="none" stroke="midnightblue" d="M1033.65,-117.99C1018.12,-115.93 1001.45,-113.8 986,-112 826.72,-93.42 786.41,-93.43 627,-76 615.05,-74.69 602.05,-73.19 590.24,-71.78"/>
<polygon fill="midnightblue" stroke="midnightblue" points="590.56,-68.3 580.22,-70.58 589.73,-75.25 590.56,-68.3"/>
</g>
<!-- Node15&#45;&gt;Node5 -->
<g id="edge21" class="edge">
<title>Node15&#45;&gt;Node5</title>
<path fill="none" stroke="midnightblue" d="M1052.47,-117.93C1041.58,-115.86 1029.88,-113.75 1019,-112 897.3,-92.44 866.09,-93 744,-76 742.54,-75.8 741.06,-75.59 739.57,-75.38"/>
<polygon fill="midnightblue" stroke="midnightblue" points="740.01,-71.91 729.62,-73.96 739.02,-78.84 740.01,-71.91"/>
</g>
<!-- Node15&#45;&gt;Node9 -->
<g id="edge27" class="edge">
<title>Node15&#45;&gt;Node9</title>
<path fill="none" stroke="midnightblue" d="M1121.12,-117.99C1150.3,-108.34 1198.84,-91.89 1240,-76 1283.97,-59.02 1334.11,-37.25 1364.65,-23.71"/>
<polygon fill="midnightblue" stroke="midnightblue" points="1366.13,-26.89 1373.85,-19.62 1363.29,-20.49 1366.13,-26.89"/>
</g>
<!-- Node15&#45;&gt;Node11 -->
<g id="edge23" class="edge">
<title>Node15&#45;&gt;Node11</title>
<path fill="none" stroke="midnightblue" d="M1052.05,-117.99C1041.27,-115.94 1029.73,-113.82 1019,-112 911.79,-93.81 880.53,-109.25 777,-76 758.45,-70.04 755.72,-64.08 738,-56 711.59,-43.95 680.98,-31.77 658.43,-23.12"/>
<polygon fill="midnightblue" stroke="midnightblue" points="659.59,-19.82 649,-19.53 657.1,-26.36 659.59,-19.82"/>
</g>
<!-- Node15&#45;&gt;Node14 -->
<g id="edge19" class="edge">
<title>Node15&#45;&gt;Node14</title>
<path fill="none" stroke="midnightblue" d="M1157.34,-123.8C1252.76,-118.87 1440.43,-105.99 1597,-76 1628.78,-69.91 1635.59,-63.78 1667,-56 1731.04,-40.14 1806.74,-25.08 1848.77,-17.04"/>
<polygon fill="midnightblue" stroke="midnightblue" points="1849.53,-20.45 1858.7,-15.15 1848.22,-13.58 1849.53,-20.45"/>
</g>
<!-- Node16 -->
<g id="node16" class="node">
<title>Node16</title>
<g id="a_node16"><a xlink:title=" ">
<polygon fill="white" stroke="#bfbfbf" points="786,-56.5 786,-75.5 850,-75.5 850,-56.5 786,-56.5"/>
<text text-anchor="middle" x="818" y="-63.5" font-family="Helvetica,sans-Serif" font-size="10.00">algorithm</text>
</a>
</g>
</g>
<!-- Node15&#45;&gt;Node16 -->
<g id="edge22" class="edge">
<title>Node15&#45;&gt;Node16</title>
<path fill="none" stroke="midnightblue" d="M1054.9,-117.99C1009.95,-108.43 934.62,-92.37 860.24,-76.26"/>
<polygon fill="midnightblue" stroke="midnightblue" points="860.74,-72.79 850.23,-74.09 859.26,-79.63 860.74,-72.79"/>
</g>
<!-- Node17 -->
<g id="node17" class="node">
<title>Node17</title>
<g id="a_node17"><a xlink:title=" ">
<polygon fill="white" stroke="#bfbfbf" points="868.5,-56.5 868.5,-75.5 967.5,-75.5 967.5,-56.5 868.5,-56.5"/>
<text text-anchor="middle" x="918" y="-63.5" font-family="Helvetica,sans-Serif" font-size="10.00">AMReX_BCRec.H</text>
</a>
</g>
</g>
<!-- Node15&#45;&gt;Node17 -->
<g id="edge24" class="edge">
<title>Node15&#45;&gt;Node17</title>
<path fill="none" stroke="midnightblue" d="M1069.64,-117.98C1039.02,-107.68 987.34,-90.31 952.95,-78.75"/>
<polygon fill="midnightblue" stroke="midnightblue" points="953.91,-75.38 943.31,-75.51 951.68,-82.01 953.91,-75.38"/>
</g>
<!-- Node18 -->
<g id="node18" class="node">
<title>Node18</title>
<g id="a_node18"><a xlink:title=" ">
<polygon fill="white" stroke="#bfbfbf" points="985.5,-56.5 985.5,-75.5 1072.5,-75.5 1072.5,-56.5 985.5,-56.5"/>
<text text-anchor="middle" x="1029" y="-63.5" font-family="Helvetica,sans-Serif" font-size="10.00">AMReX_Gpu.H</text>
</a>
</g>
</g>
<!-- Node15&#45;&gt;Node18 -->
<g id="edge25" class="edge">
<title>Node15&#45;&gt;Node18</title>
<path fill="none" stroke="midnightblue" d="M1085.54,-117.98C1075.25,-108.7 1058.58,-93.67 1046.01,-82.33"/>
<polygon fill="midnightblue" stroke="midnightblue" points="1048.21,-79.61 1038.44,-75.51 1043.52,-84.8 1048.21,-79.61"/>
</g>
<!-- Node19 -->
<g id="node19" class="node">
<title>Node19</title>
<g id="a_node19"><a xlink:href="incflo__enums_8_h.html" target="_top" xlink:title=" ">
<polygon fill="white" stroke="black" points="1090.5,-56.5 1090.5,-75.5 1231.5,-75.5 1231.5,-56.5 1090.5,-56.5"/>
<text text-anchor="middle" x="1161" y="-63.5" font-family="Helvetica,sans-Serif" font-size="10.00">amr&#45;wind/incflo_enums.H</text>
</a>
</g>
</g>
<!-- Node15&#45;&gt;Node19 -->
<g id="edge26" class="edge">
<title>Node15&#45;&gt;Node19</title>
<path fill="none" stroke="midnightblue" d="M1104.46,-117.98C1114.75,-108.7 1131.42,-93.67 1143.99,-82.33"/>
<polygon fill="midnightblue" stroke="midnightblue" points="1146.48,-84.8 1151.56,-75.51 1141.79,-79.61 1146.48,-84.8"/>
</g>
<!-- Node20 -->
<g id="node20" class="node">
<title>Node20</title>
<g id="a_node20"><a xlink:href="_view_field_8_h.html" target="_top" xlink:title=" ">
<polygon fill="white" stroke="black" points="1440,-56.5 1440,-75.5 1588,-75.5 1588,-56.5 1440,-56.5"/>
<text text-anchor="middle" x="1514" y="-63.5" font-family="Helvetica,sans-Serif" font-size="10.00">amr&#45;wind/core/ViewField.H</text>
</a>
</g>
</g>
<!-- Node15&#45;&gt;Node20 -->
<g id="edge28" class="edge">
<title>Node15&#45;&gt;Node20</title>
<path fill="none" stroke="midnightblue" d="M1155.03,-117.98C1231.42,-107.13 1363.12,-88.43 1443.99,-76.94"/>
<polygon fill="midnightblue" stroke="midnightblue" points="1444.67,-80.38 1454.08,-75.51 1443.69,-73.45 1444.67,-80.38"/>
</g>
<!-- Node20&#45;&gt;Node9 -->
<g id="edge30" class="edge">
<title>Node20&#45;&gt;Node9</title>
<path fill="none" stroke="midnightblue" d="M1494.83,-56.44C1475.09,-47.64 1444.11,-33.81 1421.51,-23.72"/>
<polygon fill="midnightblue" stroke="midnightblue" points="1422.64,-20.4 1412.08,-19.52 1419.79,-26.79 1422.64,-20.4"/>
</g>
<!-- Node20&#45;&gt;Node11 -->
<g id="edge31" class="edge">
<title>Node20&#45;&gt;Node11</title>
<path fill="none" stroke="midnightblue" d="M1439.82,-60.49C1269.32,-50.12 851.86,-24.74 690.83,-14.94"/>
<polygon fill="midnightblue" stroke="midnightblue" points="690.8,-11.43 680.6,-14.32 690.37,-18.42 690.8,-11.43"/>
</g>
<!-- Node20&#45;&gt;Node14 -->
<g id="edge29" class="edge">
<title>Node20&#45;&gt;Node14</title>
<path fill="none" stroke="midnightblue" d="M1572.15,-56.44C1650.49,-44.92 1787.2,-24.8 1849.03,-15.7"/>
<polygon fill="midnightblue" stroke="midnightblue" points="1849.59,-19.16 1858.98,-14.24 1848.57,-12.23 1849.59,-19.16"/>
</g>
<!-- Node21 -->
<g id="node21" class="node">
<title>Node21</title>
<g id="a_node21"><a xlink:title=" ">
<polygon fill="white" stroke="#bfbfbf" points="1605,-0.5 1605,-19.5 1703,-19.5 1703,-0.5 1605,-0.5"/>
<text text-anchor="middle" x="1654" y="-7.5" font-family="Helvetica,sans-Serif" font-size="10.00">AMReX_Vector.H</text>
</a>
</g>
</g>
<!-- Node20&#45;&gt;Node21 -->
<g id="edge32" class="edge">
<title>Node20&#45;&gt;Node21</title>
<path fill="none" stroke="midnightblue" d="M1536.18,-56.44C1559.43,-47.48 1596.15,-33.31 1622.42,-23.18"/>
<polygon fill="midnightblue" stroke="midnightblue" points="1623.85,-26.38 1631.92,-19.52 1621.33,-19.85 1623.85,-26.38"/>
</g>
<!-- Node22&#45;&gt;Node9 -->
<g id="edge35" class="edge">
<title>Node22&#45;&gt;Node9</title>
<path fill="none" stroke="midnightblue" d="M2144.13,-117.69C2159.54,-103.27 2185.35,-74.38 2168,-56 2162.26,-49.91 1698.79,-26.18 1491.4,-15.85"/>
<polygon fill="midnightblue" stroke="midnightblue" points="1491.28,-12.34 1481.12,-15.34 1490.94,-19.33 1491.28,-12.34"/>
</g>
<!-- Node22&#45;&gt;Node14 -->
<g id="edge34" class="edge">
<title>Node22&#45;&gt;Node14</title>
<path fill="none" stroke="midnightblue" d="M2153.05,-117.83C2179.25,-104.76 2221.05,-79.07 2201,-56 2163.9,-13.32 1986.81,-9.95 1913.2,-10.45"/>
<polygon fill="midnightblue" stroke="midnightblue" points="1913.08,-6.95 1903.12,-10.55 1913.15,-13.95 1913.08,-6.95"/>
</g>
<!-- Node22&#45;&gt;Node23 -->
<g id="edge36" class="edge">
<title>Node22&#45;&gt;Node23</title>
<path fill="none" stroke="midnightblue" d="M2129.56,-117.98C2125.05,-109.32 2117.93,-95.65 2112.19,-84.65"/>
<polygon fill="midnightblue" stroke="midnightblue" points="2115.16,-82.76 2107.43,-75.51 2108.95,-85.99 2115.16,-82.76"/>
</g>
<!-- Node24&#45;&gt;Node9 -->
<g id="edge40" class="edge">
<title>Node24&#45;&gt;Node9</title>
<path fill="none" stroke="midnightblue" d="M1527.64,-117.98C1496.49,-110.95 1458.62,-98.35 1431,-76 1415.95,-63.83 1405.6,-43.99 1399.55,-29.43"/>
<polygon fill="midnightblue" stroke="midnightblue" points="1402.75,-28.02 1395.89,-19.94 1396.22,-30.53 1402.75,-28.02"/>
</g>
<!-- Node24&#45;&gt;Node11 -->
<g id="edge42" class="edge">
<title>Node24&#45;&gt;Node11</title>
<path fill="none" stroke="midnightblue" d="M1549.59,-117.91C1487.95,-102.87 1354.43,-71.85 1240,-56 1041.08,-28.44 803.42,-17.1 691.03,-13.01"/>
<polygon fill="midnightblue" stroke="midnightblue" points="690.99,-9.51 680.87,-12.65 690.74,-16.5 690.99,-9.51"/>
</g>
<!-- Node24&#45;&gt;Node14 -->
<g id="edge38" class="edge">
<title>Node24&#45;&gt;Node14</title>
<path fill="none" stroke="midnightblue" d="M1596.93,-117.98C1619.46,-103.46 1667.74,-73.77 1712,-56 1758.09,-37.49 1814.28,-24.26 1848.85,-17.12"/>
<polygon fill="midnightblue" stroke="midnightblue" points="1849.73,-20.52 1858.84,-15.1 1848.35,-13.65 1849.73,-20.52"/>
</g>
<!-- Node24&#45;&gt;Node20 -->
<g id="edge41" class="edge">
<title>Node24&#45;&gt;Node20</title>
<path fill="none" stroke="midnightblue" d="M1573.97,-117.98C1562.95,-108.61 1545.04,-93.38 1531.66,-82.01"/>
<polygon fill="midnightblue" stroke="midnightblue" points="1533.9,-79.32 1524.01,-75.51 1529.36,-84.65 1533.9,-79.32"/>
</g>
<!-- Node24&#45;&gt;Node21 -->
<g id="edge43" class="edge">
<title>Node24&#45;&gt;Node21</title>
<path fill="none" stroke="midnightblue" d="M1589.26,-117.82C1600.71,-98.92 1628.09,-53.75 1643.32,-28.62"/>
<polygon fill="midnightblue" stroke="midnightblue" points="1646.49,-30.15 1648.68,-19.78 1640.5,-26.52 1646.49,-30.15"/>
</g>
<!-- Node25 -->
<g id="node25" class="node">
<title>Node25</title>
<g id="a_node25"><a xlink:title=" ">
<polygon fill="white" stroke="#bfbfbf" points="1720.5,-56.5 1720.5,-75.5 1765.5,-75.5 1765.5,-56.5 1720.5,-56.5"/>
<text text-anchor="middle" x="1743" y="-63.5" font-family="Helvetica,sans-Serif" font-size="10.00">utility</text>
</a>
</g>
</g>
<!-- Node24&#45;&gt;Node25 -->
<g id="edge39" class="edge">
<title>Node24&#45;&gt;Node25</title>
<path fill="none" stroke="midnightblue" d="M1606.78,-117.98C1634.05,-107.77 1679.91,-90.61 1710.8,-79.05"/>
<polygon fill="midnightblue" stroke="midnightblue" points="1712.12,-82.29 1720.26,-75.51 1709.67,-75.74 1712.12,-82.29"/>
</g>
<!-- Node26 -->
<g id="node26" class="node">
<title>Node26</title>
<g id="a_node26"><a xlink:title=" ">
<polygon fill="white" stroke="#bfbfbf" points="1783.5,-56.5 1783.5,-75.5 1914.5,-75.5 1914.5,-56.5 1783.5,-56.5"/>
<text text-anchor="middle" x="1849" y="-63.5" font-family="Helvetica,sans-Serif" font-size="10.00">AMReX_PhysBCFunct.H</text>
</a>
</g>
</g>
<!-- Node24&#45;&gt;Node26 -->
<g id="edge44" class="edge">
<title>Node24&#45;&gt;Node26</title>
<path fill="none" stroke="midnightblue" d="M1621.97,-117.98C1669.2,-107.37 1749.86,-89.26 1801.24,-77.72"/>
<polygon fill="midnightblue" stroke="midnightblue" points="1802.11,-81.11 1811.1,-75.51 1800.58,-74.28 1802.11,-81.11"/>
</g>
<!-- Node27&#45;&gt;Node9 -->
<g id="edge48" class="edge">
<title>Node27&#45;&gt;Node9</title>
<path fill="none" stroke="midnightblue" d="M1898.84,-112.25C1917.39,-97.24 1940.01,-73.43 1924,-56 1909.58,-40.31 1640.81,-23.89 1491.32,-15.92"/>
<polygon fill="midnightblue" stroke="midnightblue" points="1491.38,-12.42 1481.21,-15.39 1491.01,-19.41 1491.38,-12.42"/>
</g>
<!-- Node27&#45;&gt;Node14 -->
<g id="edge46" class="edge">
<title>Node27&#45;&gt;Node14</title>
<path fill="none" stroke="midnightblue" d="M1945.36,-112.41C1964.64,-104.91 1983.56,-93.45 1995,-76 2017.1,-42.27 1954.14,-24.11 1913.18,-16.11"/>
<polygon fill="midnightblue" stroke="midnightblue" points="1913.78,-12.66 1903.31,-14.3 1912.51,-19.55 1913.78,-12.66"/>
</g>
<!-- Node27&#45;&gt;Node20 -->
<g id="edge49" class="edge">
<title>Node27&#45;&gt;Node20</title>
<path fill="none" stroke="midnightblue" d="M1809.49,-115.17C1742.24,-104.21 1641.26,-87.74 1576.49,-77.19"/>
<polygon fill="midnightblue" stroke="midnightblue" points="1576.85,-73.7 1566.42,-75.55 1575.73,-80.61 1576.85,-73.7"/>
</g>
<!-- Node27&#45;&gt;Node21 -->
<g id="edge51" class="edge">
<title>Node27&#45;&gt;Node21</title>
<path fill="none" stroke="midnightblue" d="M1914.2,-112.37C1942.78,-98.89 1975.54,-77.49 1957,-56 1926.21,-20.3 1792.75,-12.47 1713.58,-11.02"/>
<polygon fill="midnightblue" stroke="midnightblue" points="1713.32,-7.52 1703.26,-10.86 1713.21,-14.52 1713.32,-7.52"/>
</g>
<!-- Node27&#45;&gt;Node23 -->
<g id="edge50" class="edge">
<title>Node27&#45;&gt;Node23</title>
<path fill="none" stroke="midnightblue" d="M1931.8,-112.47C1971.29,-101.99 2024.56,-87.84 2061.13,-78.12"/>
<polygon fill="midnightblue" stroke="midnightblue" points="2062.21,-81.46 2070.98,-75.51 2060.41,-74.69 2062.21,-81.46"/>
</g>
<!-- Node27&#45;&gt;Node25 -->
<g id="edge47" class="edge">
<title>Node27&#45;&gt;Node25</title>
<path fill="none" stroke="midnightblue" d="M1846.77,-112.4C1824.16,-102.51 1794.16,-89.38 1772.24,-79.79"/>
<polygon fill="midnightblue" stroke="midnightblue" points="1773.35,-76.46 1762.79,-75.66 1770.55,-82.87 1773.35,-76.46"/>
</g>
<!-- Node27&#45;&gt;Node26 -->
<g id="edge52" class="edge">
<title>Node27&#45;&gt;Node26</title>
<path fill="none" stroke="midnightblue" d="M1871.89,-112.4C1867.71,-104.11 1862.39,-93.55 1857.93,-84.71"/>
<polygon fill="midnightblue" stroke="midnightblue" points="1860.99,-83.01 1853.37,-75.66 1854.74,-86.16 1860.99,-83.01"/>
</g>
<!-- Node30 -->
<g id="node30" class="node">
<title>Node30</title>
<g id="a_node30"><a xlink:title=" ">
<polygon fill="white" stroke="#bfbfbf" points="1402,-179.5 1402,-198.5 1494,-198.5 1494,-179.5 1402,-179.5"/>
<text text-anchor="middle" x="1448" y="-186.5" font-family="Helvetica,sans-Serif" font-size="10.00">AMReX_REAL.H</text>
</a>
</g>
</g>
<!-- Node29&#45;&gt;Node30 -->
<g id="edge58" class="edge">
<title>Node29&#45;&gt;Node30</title>
<path fill="none" stroke="midnightblue" d="M1503.69,-240.98C1493.55,-231.7 1477.14,-216.67 1464.75,-205.33"/>
<polygon fill="midnightblue" stroke="midnightblue" points="1467.04,-202.68 1457.3,-198.51 1462.31,-207.84 1467.04,-202.68"/>
</g>
<!-- Node31 -->
<g id="node31" class="node">
<title>Node31</title>
<g id="a_node31"><a xlink:title=" ">
<polygon fill="white" stroke="#bfbfbf" points="1512,-179.5 1512,-198.5 1646,-198.5 1646,-179.5 1512,-179.5"/>
<text text-anchor="middle" x="1579" y="-186.5" font-family="Helvetica,sans-Serif" font-size="10.00">AMReX_GpuQualifiers.H</text>
</a>
</g>
</g>
<!-- Node29&#45;&gt;Node31 -->
<g id="edge59" class="edge">
<title>Node29&#45;&gt;Node31</title>
<path fill="none" stroke="midnightblue" d="M1522.46,-240.98C1532.75,-231.7 1549.42,-216.67 1561.99,-205.33"/>
<polygon fill="midnightblue" stroke="midnightblue" points="1564.48,-207.8 1569.56,-198.51 1559.79,-202.61 1564.48,-207.8"/>
</g>
<!-- Node32 -->
<g id="node32" class="node">
<title>Node32</title>
<g id="a_node32"><a xlink:title=" ">
<polygon fill="white" stroke="#bfbfbf" points="1664,-179.5 1664,-198.5 1780,-198.5 1780,-179.5 1664,-179.5"/>
<text text-anchor="middle" x="1722" y="-186.5" font-family="Helvetica,sans-Serif" font-size="10.00">AMReX_Extension.H</text>
</a>
</g>
</g>
<!-- Node29&#45;&gt;Node32 -->
<g id="edge60" class="edge">
<title>Node29&#45;&gt;Node32</title>
<path fill="none" stroke="midnightblue" d="M1542.94,-240.98C1579.57,-230.55 1641.7,-212.86 1682.28,-201.31"/>
<polygon fill="midnightblue" stroke="midnightblue" points="1683.45,-204.61 1692.11,-198.51 1681.53,-197.88 1683.45,-204.61"/>
</g>
</g>
</svg>
