<?xml version="1.0" encoding="UTF-8" standalone="no"?>
<!DOCTYPE svg PUBLIC "-//W3C//DTD SVG 1.1//EN"
 "http://www.w3.org/Graphics/SVG/1.1/DTD/svg11.dtd">
<!-- Generated by graphviz version 2.43.0 (0)
 -->
<!-- Title: SchemeTraits.H Pages: 1 -->
<svg width="2018pt" height="364pt"
 viewBox="0.00 0.00 2017.50 364.00" xmlns="http://www.w3.org/2000/svg" xmlns:xlink="http://www.w3.org/1999/xlink">
<g id="graph0" class="graph" transform="scale(1 1) rotate(0) translate(4 360)">
<title>SchemeTraits.H</title>
<polygon fill="white" stroke="transparent" points="-4,4 -4,-360 2013.5,-360 2013.5,4 -4,4"/>
<!-- Node1 -->
<g id="node1" class="node">
<title>Node1</title>
<g id="a_node1"><a xlink:title=" ">
<polygon fill="#bfbfbf" stroke="black" points="949,-336.5 949,-355.5 1041,-355.5 1041,-336.5 949,-336.5"/>
<text text-anchor="middle" x="995" y="-343.5" font-family="Helvetica,sans-Serif" font-size="10.00">SchemeTraits.H</text>
</a>
</g>
</g>
<!-- Node2 -->
<g id="node2" class="node">
<title>Node2</title>
<g id="a_node2"><a xlink:href="_adv_op___godunov_8_h.html" target="_top" xlink:title=" ">
<polygon fill="white" stroke="black" points="827.5,-112.5 827.5,-131.5 934.5,-131.5 934.5,-112.5 827.5,-112.5"/>
<text text-anchor="middle" x="881" y="-119.5" font-family="Helvetica,sans-Serif" font-size="10.00">AdvOp_Godunov.H</text>
</a>
</g>
</g>
<!-- Node1&#45;&gt;Node2 -->
<g id="edge1" class="edge">
<title>Node1&#45;&gt;Node2</title>
<path fill="none" stroke="midnightblue" d="M948.02,-333.07C930.54,-326.25 912.24,-315.8 901,-300 862.81,-246.33 874.33,-159.44 879.27,-131.76"/>
<polygon fill="midnightblue" stroke="midnightblue" points="947,-336.43 957.6,-336.5 949.36,-329.84 947,-336.43"/>
</g>
<!-- Node13 -->
<g id="node13" class="node">
<title>Node13</title>
<g id="a_node13"><a xlink:href="_adv_op___m_o_l_8_h.html" target="_top" xlink:title=" ">
<polygon fill="white" stroke="black" points="723,-112.5 723,-131.5 809,-131.5 809,-112.5 723,-112.5"/>
<text text-anchor="middle" x="766" y="-119.5" font-family="Helvetica,sans-Serif" font-size="10.00">AdvOp_MOL.H</text>
</a>
</g>
</g>
<!-- Node1&#45;&gt;Node13 -->
<g id="edge13" class="edge">
<title>Node1&#45;&gt;Node13</title>
<path fill="none" stroke="midnightblue" d="M950.83,-333.29C929.65,-326.13 904.85,-315.34 886,-300 824.39,-249.84 781.93,-159.86 769.65,-131.68"/>
<polygon fill="midnightblue" stroke="midnightblue" points="950,-336.7 960.59,-336.42 952.14,-330.03 950,-336.7"/>
</g>
<!-- Node14 -->
<g id="node14" class="node">
<title>Node14</title>
<g id="a_node14"><a xlink:href="_comp_r_h_s_ops_8_h.html" target="_top" xlink:title=" ">
<polygon fill="white" stroke="black" points="909.5,-280.5 909.5,-299.5 1004.5,-299.5 1004.5,-280.5 909.5,-280.5"/>
<text text-anchor="middle" x="957" y="-287.5" font-family="Helvetica,sans-Serif" font-size="10.00">CompRHSOps.H</text>
</a>
</g>
</g>
<!-- Node1&#45;&gt;Node14 -->
<g id="edge22" class="edge">
<title>Node1&#45;&gt;Node14</title>
<path fill="none" stroke="midnightblue" d="M982.94,-327.86C976.36,-318.5 968.49,-307.33 963.16,-299.75"/>
<polygon fill="midnightblue" stroke="midnightblue" points="980.11,-329.92 988.73,-336.08 985.83,-325.89 980.11,-329.92"/>
</g>
<!-- Node16 -->
<g id="node16" class="node">
<title>Node16</title>
<g id="a_node16"><a xlink:href="density_8_h.html" target="_top" xlink:title=" ">
<polygon fill="white" stroke="black" points="529,-168.5 529,-187.5 591,-187.5 591,-168.5 529,-168.5"/>
<text text-anchor="middle" x="560" y="-175.5" font-family="Helvetica,sans-Serif" font-size="10.00">density.H</text>
</a>
</g>
</g>
<!-- Node1&#45;&gt;Node16 -->
<g id="edge70" class="edge">
<title>Node1&#45;&gt;Node16</title>
<path fill="none" stroke="midnightblue" d="M938.77,-339.21C891.72,-333.12 823.42,-321.36 767,-300 686.8,-269.64 601.64,-209.79 571.43,-187.57"/>
<polygon fill="midnightblue" stroke="midnightblue" points="938.41,-342.69 948.77,-340.46 939.28,-335.74 938.41,-342.69"/>
</g>
<!-- Node18 -->
<g id="node18" class="node">
<title>Node18</title>
<g id="a_node18"><a xlink:href="icns_8_h.html" target="_top" xlink:title=" ">
<polygon fill="white" stroke="black" points="309.5,-112.5 309.5,-131.5 356.5,-131.5 356.5,-112.5 309.5,-112.5"/>
<text text-anchor="middle" x="333" y="-119.5" font-family="Helvetica,sans-Serif" font-size="10.00">icns.H</text>
</a>
</g>
</g>
<!-- Node1&#45;&gt;Node18 -->
<g id="edge76" class="edge">
<title>Node1&#45;&gt;Node18</title>
<path fill="none" stroke="midnightblue" d="M938.53,-344.77C802.6,-343.62 460.46,-337.02 353,-300 310.93,-285.51 290.89,-283.29 270,-244 247.65,-201.97 299.24,-151.35 322.43,-131.53"/>
<polygon fill="midnightblue" stroke="midnightblue" points="938.7,-348.27 948.73,-344.85 938.76,-341.27 938.7,-348.27"/>
</g>
<!-- Node23 -->
<g id="node23" class="node">
<title>Node23</title>
<g id="a_node23"><a xlink:href="levelset_8_h.html" target="_top" xlink:title=" ">
<polygon fill="white" stroke="black" points="680,-168.5 680,-187.5 746,-187.5 746,-168.5 680,-168.5"/>
<text text-anchor="middle" x="713" y="-175.5" font-family="Helvetica,sans-Serif" font-size="10.00">levelset.H</text>
</a>
</g>
</g>
<!-- Node1&#45;&gt;Node23 -->
<g id="edge77" class="edge">
<title>Node1&#45;&gt;Node23</title>
<path fill="none" stroke="midnightblue" d="M938.7,-343.98C894.94,-340.66 834.55,-330.29 791,-300 748.73,-270.6 723.98,-210.17 715.93,-187.68"/>
<polygon fill="midnightblue" stroke="midnightblue" points="938.68,-347.49 948.89,-344.65 939.14,-340.5 938.68,-347.49"/>
</g>
<!-- Node25 -->
<g id="node25" class="node">
<title>Node25</title>
<g id="a_node25"><a xlink:href="_s_d_r_8_h.html" target="_top" xlink:title=" ">
<polygon fill="white" stroke="black" points="1061.5,-168.5 1061.5,-187.5 1108.5,-187.5 1108.5,-168.5 1061.5,-168.5"/>
<text text-anchor="middle" x="1085" y="-175.5" font-family="Helvetica,sans-Serif" font-size="10.00">SDR.H</text>
</a>
</g>
</g>
<!-- Node1&#45;&gt;Node25 -->
<g id="edge79" class="edge">
<title>Node1&#45;&gt;Node25</title>
<path fill="none" stroke="midnightblue" d="M1008.42,-328.33C1014.75,-320.07 1022.18,-309.78 1028,-300 1051.86,-259.88 1073.39,-208.17 1081.54,-187.8"/>
<polygon fill="midnightblue" stroke="midnightblue" points="1005.52,-326.35 1002.1,-336.38 1011.02,-330.67 1005.52,-326.35"/>
</g>
<!-- Node30 -->
<g id="node30" class="node">
<title>Node30</title>
<g id="a_node30"><a xlink:href="temperature_8_h.html" target="_top" xlink:title=" ">
<polygon fill="white" stroke="black" points="919,-168.5 919,-187.5 1007,-187.5 1007,-168.5 919,-168.5"/>
<text text-anchor="middle" x="963" y="-175.5" font-family="Helvetica,sans-Serif" font-size="10.00">temperature.H</text>
</a>
</g>
</g>
<!-- Node1&#45;&gt;Node30 -->
<g id="edge80" class="edge">
<title>Node1&#45;&gt;Node30</title>
<path fill="none" stroke="midnightblue" d="M1005.15,-327.11C1011.28,-314.17 1017.32,-296.18 1014,-280 1006.38,-242.86 981.26,-204.32 969.36,-187.59"/>
<polygon fill="midnightblue" stroke="midnightblue" points="1001.89,-325.8 1000.39,-336.28 1008.1,-329.02 1001.89,-325.8"/>
</g>
<!-- Node31 -->
<g id="node31" class="node">
<title>Node31</title>
<g id="a_node31"><a xlink:href="_t_k_e_8_h.html" target="_top" xlink:title=" ">
<polygon fill="white" stroke="black" points="1222,-168.5 1222,-187.5 1268,-187.5 1268,-168.5 1222,-168.5"/>
<text text-anchor="middle" x="1245" y="-175.5" font-family="Helvetica,sans-Serif" font-size="10.00">TKE.H</text>
</a>
</g>
</g>
<!-- Node1&#45;&gt;Node31 -->
<g id="edge81" class="edge">
<title>Node1&#45;&gt;Node31</title>
<path fill="none" stroke="midnightblue" d="M1016.62,-330.65C1067.11,-297.12 1191.55,-214.49 1232.04,-187.61"/>
<polygon fill="midnightblue" stroke="midnightblue" points="1014.48,-327.86 1008.09,-336.31 1018.36,-333.69 1014.48,-327.86"/>
</g>
<!-- Node34 -->
<g id="node34" class="node">
<title>Node34</title>
<g id="a_node34"><a xlink:href="_a_b_l_stats_8cpp.html" target="_top" xlink:title=" ">
<polygon fill="white" stroke="black" points="1605,-112.5 1605,-131.5 1685,-131.5 1685,-112.5 1605,-112.5"/>
<text text-anchor="middle" x="1645" y="-119.5" font-family="Helvetica,sans-Serif" font-size="10.00">ABLStats.cpp</text>
</a>
</g>
</g>
<!-- Node1&#45;&gt;Node34 -->
<g id="edge84" class="edge">
<title>Node1&#45;&gt;Node34</title>
<path fill="none" stroke="midnightblue" d="M1029.56,-333.2C1145.59,-293.57 1519.59,-165.83 1619.99,-131.54"/>
<polygon fill="midnightblue" stroke="midnightblue" points="1028.41,-329.89 1020.08,-336.43 1030.68,-336.51 1028.41,-329.89"/>
</g>
<!-- Node35 -->
<g id="node35" class="node">
<title>Node35</title>
<g id="a_node35"><a xlink:href="vof_8_h.html" target="_top" xlink:title=" ">
<polygon fill="white" stroke="black" points="1730,-168.5 1730,-187.5 1772,-187.5 1772,-168.5 1730,-168.5"/>
<text text-anchor="middle" x="1751" y="-175.5" font-family="Helvetica,sans-Serif" font-size="10.00">vof.H</text>
</a>
</g>
</g>
<!-- Node1&#45;&gt;Node35 -->
<g id="edge82" class="edge">
<title>Node1&#45;&gt;Node35</title>
<path fill="none" stroke="midnightblue" d="M1051.27,-341.94C1115.12,-337.34 1221.84,-326.18 1310,-300 1330.21,-294 1333.14,-287.07 1353,-280 1493.37,-230.04 1669.81,-194.34 1729.87,-182.91"/>
<polygon fill="midnightblue" stroke="midnightblue" points="1050.75,-338.47 1041.02,-342.65 1051.24,-345.45 1050.75,-338.47"/>
</g>
<!-- Node39 -->
<g id="node39" class="node">
<title>Node39</title>
<g id="a_node39"><a xlink:href="_diffusion_ops_8_h.html" target="_top" xlink:title=" ">
<polygon fill="white" stroke="black" points="362.5,-280.5 362.5,-299.5 451.5,-299.5 451.5,-280.5 362.5,-280.5"/>
<text text-anchor="middle" x="407" y="-287.5" font-family="Helvetica,sans-Serif" font-size="10.00">DiffusionOps.H</text>
</a>
</g>
</g>
<!-- Node1&#45;&gt;Node39 -->
<g id="edge71" class="edge">
<title>Node1&#45;&gt;Node39</title>
<path fill="none" stroke="midnightblue" d="M938.74,-339.83C822.4,-329.15 557.39,-304.81 451.72,-295.11"/>
<polygon fill="midnightblue" stroke="midnightblue" points="938.58,-343.33 948.86,-340.76 939.22,-336.36 938.58,-343.33"/>
</g>
<!-- Node41 -->
<g id="node41" class="node">
<title>Node41</title>
<g id="a_node41"><a xlink:href="_p_d_e_base_8cpp.html" target="_top" xlink:title=" ">
<polygon fill="white" stroke="black" points="1362,-280.5 1362,-299.5 1442,-299.5 1442,-280.5 1362,-280.5"/>
<text text-anchor="middle" x="1402" y="-287.5" font-family="Helvetica,sans-Serif" font-size="10.00">PDEBase.cpp</text>
</a>
</g>
</g>
<!-- Node1&#45;&gt;Node41 -->
<g id="edge78" class="edge">
<title>Node1&#45;&gt;Node41</title>
<path fill="none" stroke="midnightblue" d="M1051.37,-338.49C1121.13,-330.28 1243.49,-315.36 1348,-300 1352.51,-299.34 1357.23,-298.61 1361.92,-297.86"/>
<polygon fill="midnightblue" stroke="midnightblue" points="1050.58,-335.06 1041.05,-339.7 1051.39,-342.01 1050.58,-335.06"/>
</g>
<!-- Node42 -->
<g id="node42" class="node">
<title>Node42</title>
<g id="a_node42"><a xlink:href="incflo_8cpp.html" target="_top" xlink:title=" ">
<polygon fill="white" stroke="black" points="1460.5,-280.5 1460.5,-299.5 1523.5,-299.5 1523.5,-280.5 1460.5,-280.5"/>
<text text-anchor="middle" x="1492" y="-287.5" font-family="Helvetica,sans-Serif" font-size="10.00">incflo.cpp</text>
</a>
</g>
</g>
<!-- Node1&#45;&gt;Node42 -->
<g id="edge83" class="edge">
<title>Node1&#45;&gt;Node42</title>
<path fill="none" stroke="midnightblue" d="M1051.29,-341.59C1137.67,-335.86 1307.93,-322.68 1451,-300 1454.02,-299.52 1457.16,-298.96 1460.29,-298.35"/>
<polygon fill="midnightblue" stroke="midnightblue" points="1050.93,-338.1 1041.18,-342.25 1051.39,-345.09 1050.93,-338.1"/>
</g>
<!-- Node3 -->
<g id="node3" class="node">
<title>Node3</title>
<g id="a_node3"><a xlink:href="density_8cpp.html" target="_top" xlink:title=" ">
<polygon fill="white" stroke="black" points="577.5,-56.5 577.5,-75.5 648.5,-75.5 648.5,-56.5 577.5,-56.5"/>
<text text-anchor="middle" x="613" y="-63.5" font-family="Helvetica,sans-Serif" font-size="10.00">density.cpp</text>
</a>
</g>
</g>
<!-- Node2&#45;&gt;Node3 -->
<g id="edge2" class="edge">
<title>Node2&#45;&gt;Node3</title>
<path fill="none" stroke="midnightblue" d="M828.64,-110.45C775.61,-99.76 695,-83.52 648.83,-74.22"/>
<polygon fill="midnightblue" stroke="midnightblue" points="828.04,-113.9 838.53,-112.44 829.42,-107.04 828.04,-113.9"/>
</g>
<!-- Node4 -->
<g id="node4" class="node">
<title>Node4</title>
<g id="a_node4"><a xlink:href="icns__advection_8_h.html" target="_top" xlink:title=" ">
<polygon fill="white" stroke="black" points="761,-56.5 761,-75.5 861,-75.5 861,-56.5 761,-56.5"/>
<text text-anchor="middle" x="811" y="-63.5" font-family="Helvetica,sans-Serif" font-size="10.00">icns_advection.H</text>
</a>
</g>
</g>
<!-- Node2&#45;&gt;Node4 -->
<g id="edge3" class="edge">
<title>Node2&#45;&gt;Node4</title>
<path fill="none" stroke="midnightblue" d="M861.69,-106.1C849.09,-96.38 833.07,-84.03 822.45,-75.83"/>
<polygon fill="midnightblue" stroke="midnightblue" points="859.7,-108.99 869.75,-112.32 863.97,-103.44 859.7,-108.99"/>
</g>
<!-- Node7 -->
<g id="node7" class="node">
<title>Node7</title>
<g id="a_node7"><a xlink:href="icns__ops_8_h.html" target="_top" xlink:title=" ">
<polygon fill="white" stroke="black" points="490.5,-56.5 490.5,-75.5 559.5,-75.5 559.5,-56.5 490.5,-56.5"/>
<text text-anchor="middle" x="525" y="-63.5" font-family="Helvetica,sans-Serif" font-size="10.00">icns_ops.H</text>
</a>
</g>
</g>
<!-- Node2&#45;&gt;Node7 -->
<g id="edge6" class="edge">
<title>Node2&#45;&gt;Node7</title>
<path fill="none" stroke="midnightblue" d="M817.4,-111.91C727.68,-99.07 574.11,-77.08 568,-76 565.3,-75.52 562.5,-75 559.7,-74.46"/>
<polygon fill="midnightblue" stroke="midnightblue" points="817.08,-115.4 827.47,-113.35 818.07,-108.47 817.08,-115.4"/>
</g>
<!-- Node8 -->
<g id="node8" class="node">
<title>Node8</title>
<g id="a_node8"><a xlink:href="levelset_8cpp.html" target="_top" xlink:title=" ">
<polygon fill="white" stroke="black" points="667,-56.5 667,-75.5 743,-75.5 743,-56.5 667,-56.5"/>
<text text-anchor="middle" x="705" y="-63.5" font-family="Helvetica,sans-Serif" font-size="10.00">levelset.cpp</text>
</a>
</g>
</g>
<!-- Node2&#45;&gt;Node8 -->
<g id="edge8" class="edge">
<title>Node2&#45;&gt;Node8</title>
<path fill="none" stroke="midnightblue" d="M843.31,-109.44C810.13,-99.26 762.57,-84.66 732.76,-75.52"/>
<polygon fill="midnightblue" stroke="midnightblue" points="842.53,-112.86 853.11,-112.44 844.58,-106.16 842.53,-112.86"/>
</g>
<!-- Node9 -->
<g id="node9" class="node">
<title>Node9</title>
<g id="a_node9"><a xlink:href="_s_d_r_8cpp.html" target="_top" xlink:title=" ">
<polygon fill="white" stroke="black" points="995.5,-56.5 995.5,-75.5 1052.5,-75.5 1052.5,-56.5 995.5,-56.5"/>
<text text-anchor="middle" x="1024" y="-63.5" font-family="Helvetica,sans-Serif" font-size="10.00">SDR.cpp</text>
</a>
</g>
</g>
<!-- Node2&#45;&gt;Node9 -->
<g id="edge9" class="edge">
<title>Node2&#45;&gt;Node9</title>
<path fill="none" stroke="midnightblue" d="M913.03,-108.91C939.91,-98.75 977.64,-84.51 1001.45,-75.52"/>
<polygon fill="midnightblue" stroke="midnightblue" points="911.78,-105.64 903.66,-112.44 914.25,-112.19 911.78,-105.64"/>
</g>
<!-- Node10 -->
<g id="node10" class="node">
<title>Node10</title>
<g id="a_node10"><a xlink:href="temperature_8cpp.html" target="_top" xlink:title=" ">
<polygon fill="white" stroke="black" points="879,-56.5 879,-75.5 977,-75.5 977,-56.5 879,-56.5"/>
<text text-anchor="middle" x="928" y="-63.5" font-family="Helvetica,sans-Serif" font-size="10.00">temperature.cpp</text>
</a>
</g>
</g>
<!-- Node2&#45;&gt;Node10 -->
<g id="edge10" class="edge">
<title>Node2&#45;&gt;Node10</title>
<path fill="none" stroke="midnightblue" d="M895.42,-104.43C903.66,-94.97 913.65,-83.48 920.38,-75.75"/>
<polygon fill="midnightblue" stroke="midnightblue" points="892.69,-102.24 888.76,-112.08 897.97,-106.84 892.69,-102.24"/>
</g>
<!-- Node11 -->
<g id="node11" class="node">
<title>Node11</title>
<g id="a_node11"><a xlink:href="_t_k_e_8cpp.html" target="_top" xlink:title=" ">
<polygon fill="white" stroke="black" points="1095,-56.5 1095,-75.5 1151,-75.5 1151,-56.5 1095,-56.5"/>
<text text-anchor="middle" x="1123" y="-63.5" font-family="Helvetica,sans-Serif" font-size="10.00">TKE.cpp</text>
</a>
</g>
</g>
<!-- Node2&#45;&gt;Node11 -->
<g id="edge11" class="edge">
<title>Node2&#45;&gt;Node11</title>
<path fill="none" stroke="midnightblue" d="M929.19,-110.25C978.67,-99.21 1054.03,-82.39 1094.66,-73.32"/>
<polygon fill="midnightblue" stroke="midnightblue" points="928.34,-106.85 919.35,-112.44 929.87,-113.68 928.34,-106.85"/>
</g>
<!-- Node12 -->
<g id="node12" class="node">
<title>Node12</title>
<g id="a_node12"><a xlink:href="vof_8cpp.html" target="_top" xlink:title=" ">
<polygon fill="white" stroke="black" points="1725,-56.5 1725,-75.5 1777,-75.5 1777,-56.5 1725,-56.5"/>
<text text-anchor="middle" x="1751" y="-63.5" font-family="Helvetica,sans-Serif" font-size="10.00">vof.cpp</text>
</a>
</g>
</g>
<!-- Node2&#45;&gt;Node12 -->
<g id="edge12" class="edge">
<title>Node2&#45;&gt;Node12</title>
<path fill="none" stroke="midnightblue" d="M944.73,-115.09C957.4,-113.99 970.62,-112.91 983,-112 1273.72,-90.66 1626.94,-73 1724.79,-68.25"/>
<polygon fill="midnightblue" stroke="midnightblue" points="944.36,-111.6 934.71,-115.96 944.97,-118.58 944.36,-111.6"/>
</g>
<!-- Node5 -->
<g id="node5" class="node">
<title>Node5</title>
<g id="a_node5"><a xlink:href="icns_8cpp.html" target="_top" xlink:title=" ">
<polygon fill="white" stroke="black" points="407,-0.5 407,-19.5 463,-19.5 463,-0.5 407,-0.5"/>
<text text-anchor="middle" x="435" y="-7.5" font-family="Helvetica,sans-Serif" font-size="10.00">icns.cpp</text>
</a>
</g>
</g>
<!-- Node4&#45;&gt;Node5 -->
<g id="edge4" class="edge">
<title>Node4&#45;&gt;Node5</title>
<path fill="none" stroke="midnightblue" d="M750.62,-55.81C637.93,-39.26 516.66,-22.32 463,-14.88"/>
<polygon fill="midnightblue" stroke="midnightblue" points="750.39,-59.31 760.79,-57.31 751.41,-52.39 750.39,-59.31"/>
</g>
<!-- Node6 -->
<g id="node6" class="node">
<title>Node6</title>
<g id="a_node6"><a xlink:href="icns__advection_8cpp.html" target="_top" xlink:title=" ">
<polygon fill="white" stroke="black" points="756,-0.5 756,-19.5 866,-19.5 866,-0.5 756,-0.5"/>
<text text-anchor="middle" x="811" y="-7.5" font-family="Helvetica,sans-Serif" font-size="10.00">icns_advection.cpp</text>
</a>
</g>
</g>
<!-- Node4&#45;&gt;Node6 -->
<g id="edge5" class="edge">
<title>Node4&#45;&gt;Node6</title>
<path fill="none" stroke="midnightblue" d="M811,-45.8C811,-36.91 811,-26.78 811,-19.75"/>
<polygon fill="midnightblue" stroke="midnightblue" points="807.5,-46.08 811,-56.08 814.5,-46.08 807.5,-46.08"/>
</g>
<!-- Node7&#45;&gt;Node5 -->
<g id="edge7" class="edge">
<title>Node7&#45;&gt;Node5</title>
<path fill="none" stroke="midnightblue" d="M501.96,-51.18C485.4,-41.24 463.58,-28.15 449.42,-19.65"/>
<polygon fill="midnightblue" stroke="midnightblue" points="500.16,-54.18 510.54,-56.32 503.77,-48.18 500.16,-54.18"/>
</g>
<!-- Node13&#45;&gt;Node3 -->
<g id="edge14" class="edge">
<title>Node13&#45;&gt;Node3</title>
<path fill="none" stroke="midnightblue" d="M732.11,-109.04C703.32,-98.88 662.71,-84.55 637.13,-75.52"/>
<polygon fill="midnightblue" stroke="midnightblue" points="731.16,-112.42 741.76,-112.44 733.49,-105.81 731.16,-112.42"/>
</g>
<!-- Node13&#45;&gt;Node4 -->
<g id="edge15" class="edge">
<title>Node13&#45;&gt;Node4</title>
<path fill="none" stroke="midnightblue" d="M780.05,-104.14C787.89,-94.74 797.33,-83.4 803.71,-75.75"/>
<polygon fill="midnightblue" stroke="midnightblue" points="777.14,-102.16 773.43,-112.08 782.52,-106.64 777.14,-102.16"/>
</g>
<!-- Node13&#45;&gt;Node7 -->
<g id="edge16" class="edge">
<title>Node13&#45;&gt;Node7</title>
<path fill="none" stroke="midnightblue" d="M717.93,-110.23C671.24,-99.77 601.48,-84.14 559.88,-74.82"/>
<polygon fill="midnightblue" stroke="midnightblue" points="717.29,-113.67 727.81,-112.44 718.82,-106.84 717.29,-113.67"/>
</g>
<!-- Node13&#45;&gt;Node8 -->
<g id="edge17" class="edge">
<title>Node13&#45;&gt;Node8</title>
<path fill="none" stroke="midnightblue" d="M748.53,-105.54C737.66,-95.91 724.06,-83.87 714.98,-75.83"/>
<polygon fill="midnightblue" stroke="midnightblue" points="746.39,-108.32 756.2,-112.32 751.03,-103.07 746.39,-108.32"/>
</g>
<!-- Node13&#45;&gt;Node9 -->
<g id="edge18" class="edge">
<title>Node13&#45;&gt;Node9</title>
<path fill="none" stroke="midnightblue" d="M819.12,-110.61C863.74,-101.77 929.14,-88.55 986,-76 989.05,-75.33 992.22,-74.61 995.39,-73.88"/>
<polygon fill="midnightblue" stroke="midnightblue" points="818.21,-107.22 809.08,-112.6 819.57,-114.09 818.21,-107.22"/>
</g>
<!-- Node13&#45;&gt;Node10 -->
<g id="edge19" class="edge">
<title>Node13&#45;&gt;Node10</title>
<path fill="none" stroke="midnightblue" d="M801.48,-109.17C831.99,-99 875.24,-84.59 902.45,-75.52"/>
<polygon fill="midnightblue" stroke="midnightblue" points="800.05,-105.96 791.67,-112.44 802.26,-112.6 800.05,-105.96"/>
</g>
<!-- Node13&#45;&gt;Node11 -->
<g id="edge20" class="edge">
<title>Node13&#45;&gt;Node11</title>
<path fill="none" stroke="midnightblue" d="M819.04,-111.94C862.01,-105.5 1028.05,-81.01 1094.94,-71.14"/>
<polygon fill="midnightblue" stroke="midnightblue" points="818.48,-108.49 809.12,-113.45 819.53,-115.41 818.48,-108.49"/>
</g>
<!-- Node13&#45;&gt;Node12 -->
<g id="edge21" class="edge">
<title>Node13&#45;&gt;Node12</title>
<path fill="none" stroke="midnightblue" d="M819.26,-112.03C1021.05,-91.16 1595.29,-71.98 1724.84,-67.83"/>
<polygon fill="midnightblue" stroke="midnightblue" points="818.64,-108.58 809.07,-113.12 819.39,-115.54 818.64,-108.58"/>
</g>
<!-- Node15 -->
<g id="node15" class="node">
<title>Node15</title>
<g id="a_node15"><a xlink:href="_p_d_e_8_h.html" target="_top" xlink:title=" ">
<polygon fill="white" stroke="black" points="933.5,-224.5 933.5,-243.5 980.5,-243.5 980.5,-224.5 933.5,-224.5"/>
<text text-anchor="middle" x="957" y="-231.5" font-family="Helvetica,sans-Serif" font-size="10.00">PDE.H</text>
</a>
</g>
</g>
<!-- Node14&#45;&gt;Node15 -->
<g id="edge23" class="edge">
<title>Node14&#45;&gt;Node15</title>
<path fill="none" stroke="midnightblue" d="M957,-269.8C957,-260.91 957,-250.78 957,-243.75"/>
<polygon fill="midnightblue" stroke="midnightblue" points="953.5,-270.08 957,-280.08 960.5,-270.08 953.5,-270.08"/>
</g>
<!-- Node15&#45;&gt;Node16 -->
<g id="edge24" class="edge">
<title>Node15&#45;&gt;Node16</title>
<path fill="none" stroke="midnightblue" d="M923.41,-228.43C847.7,-218.13 664.67,-193.24 591.24,-183.25"/>
<polygon fill="midnightblue" stroke="midnightblue" points="922.97,-231.9 933.35,-229.78 923.92,-224.97 922.97,-231.9"/>
</g>
<!-- Node15&#45;&gt;Node18 -->
<g id="edge28" class="edge">
<title>Node15&#45;&gt;Node18</title>
<path fill="none" stroke="midnightblue" d="M923.39,-232.19C849.54,-229.82 667.96,-220.87 520,-188 457.26,-174.06 386.4,-145.8 352.76,-131.58"/>
<polygon fill="midnightblue" stroke="midnightblue" points="923.38,-235.69 933.48,-232.49 923.59,-228.69 923.38,-235.69"/>
</g>
<!-- Node15&#45;&gt;Node23 -->
<g id="edge38" class="edge">
<title>Node15&#45;&gt;Node23</title>
<path fill="none" stroke="midnightblue" d="M923.23,-225.53C876.49,-215.18 792.63,-196.62 746.2,-186.35"/>
<polygon fill="midnightblue" stroke="midnightblue" points="922.64,-228.98 933.16,-227.72 924.15,-222.15 922.64,-228.98"/>
</g>
<!-- Node15&#45;&gt;Node25 -->
<g id="edge42" class="edge">
<title>Node15&#45;&gt;Node25</title>
<path fill="none" stroke="midnightblue" d="M986.62,-220.5C1010.62,-210.38 1043.78,-196.39 1064.81,-187.52"/>
<polygon fill="midnightblue" stroke="midnightblue" points="985.14,-217.33 977.28,-224.44 987.86,-223.78 985.14,-217.33"/>
</g>
<!-- Node15&#45;&gt;Node30 -->
<g id="edge51" class="edge">
<title>Node15&#45;&gt;Node30</title>
<path fill="none" stroke="midnightblue" d="M959.1,-214.1C960.1,-205.14 961.24,-194.86 962.03,-187.75"/>
<polygon fill="midnightblue" stroke="midnightblue" points="955.62,-213.76 957.99,-224.08 962.57,-214.53 955.62,-213.76"/>
</g>
<!-- Node15&#45;&gt;Node31 -->
<g id="edge53" class="edge">
<title>Node15&#45;&gt;Node31</title>
<path fill="none" stroke="midnightblue" d="M990.52,-226.71C1049.68,-215.62 1171.15,-192.85 1221.91,-183.33"/>
<polygon fill="midnightblue" stroke="midnightblue" points="989.75,-223.3 980.57,-228.58 991.04,-230.18 989.75,-223.3"/>
</g>
<!-- Node15&#45;&gt;Node35 -->
<g id="edge62" class="edge">
<title>Node15&#45;&gt;Node35</title>
<path fill="none" stroke="midnightblue" d="M990.9,-230.69C1125.69,-221.53 1621.54,-187.8 1729.96,-180.43"/>
<polygon fill="midnightblue" stroke="midnightblue" points="990.5,-227.21 980.76,-231.38 990.98,-234.2 990.5,-227.21"/>
</g>
<!-- Node16&#45;&gt;Node3 -->
<g id="edge25" class="edge">
<title>Node16&#45;&gt;Node3</title>
<path fill="none" stroke="midnightblue" d="M518.99,-166.55C485.07,-155.85 445.27,-137.22 464,-112 470.91,-102.7 535.43,-85.66 577.27,-75.43"/>
<polygon fill="midnightblue" stroke="midnightblue" points="518.22,-169.97 528.8,-169.49 520.22,-163.27 518.22,-169.97"/>
</g>
<!-- Node17 -->
<g id="node17" class="node">
<title>Node17</title>
<g id="a_node17"><a xlink:href="density__ops_8_h.html" target="_top" xlink:title=" ">
<polygon fill="white" stroke="black" points="473,-112.5 473,-131.5 559,-131.5 559,-112.5 473,-112.5"/>
<text text-anchor="middle" x="516" y="-119.5" font-family="Helvetica,sans-Serif" font-size="10.00">density_ops.H</text>
</a>
</g>
</g>
<!-- Node16&#45;&gt;Node17 -->
<g id="edge26" class="edge">
<title>Node16&#45;&gt;Node17</title>
<path fill="none" stroke="midnightblue" d="M546.27,-160.14C538.6,-150.74 529.37,-139.4 523.13,-131.75"/>
<polygon fill="midnightblue" stroke="midnightblue" points="543.7,-162.54 552.73,-168.08 549.13,-158.12 543.7,-162.54"/>
</g>
<!-- Node17&#45;&gt;Node3 -->
<g id="edge27" class="edge">
<title>Node17&#45;&gt;Node3</title>
<path fill="none" stroke="midnightblue" d="M540.34,-107.45C558.24,-97.48 582.05,-84.23 597.45,-75.65"/>
<polygon fill="midnightblue" stroke="midnightblue" points="538.62,-104.4 531.58,-112.32 542.02,-110.52 538.62,-104.4"/>
</g>
<!-- Node18&#45;&gt;Node4 -->
<g id="edge30" class="edge">
<title>Node18&#45;&gt;Node4</title>
<path fill="none" stroke="midnightblue" d="M366.85,-117.88C438.18,-111.19 609.15,-94.56 752,-76 754.88,-75.63 757.83,-75.23 760.81,-74.81"/>
<polygon fill="midnightblue" stroke="midnightblue" points="366.3,-114.41 356.67,-118.83 366.95,-121.38 366.3,-114.41"/>
</g>
<!-- Node18&#45;&gt;Node5 -->
<g id="edge29" class="edge">
<title>Node18&#45;&gt;Node5</title>
<path fill="none" stroke="midnightblue" d="M307.25,-107.25C286.57,-94.38 263.08,-74.43 277,-56 292.64,-35.29 365.9,-21.28 406.95,-14.91"/>
<polygon fill="midnightblue" stroke="midnightblue" points="305.73,-110.41 316.12,-112.47 309.28,-104.38 305.73,-110.41"/>
</g>
<!-- Node18&#45;&gt;Node7 -->
<g id="edge35" class="edge">
<title>Node18&#45;&gt;Node7</title>
<path fill="none" stroke="midnightblue" d="M366.6,-111.55C402.76,-101.38 459.76,-85.35 494.62,-75.55"/>
<polygon fill="midnightblue" stroke="midnightblue" points="365.22,-108.3 356.54,-114.38 367.12,-115.04 365.22,-108.3"/>
</g>
<!-- Node19 -->
<g id="node19" class="node">
<title>Node19</title>
<g id="a_node19"><a xlink:href="icns__bcop_8_h.html" target="_top" xlink:title=" ">
<polygon fill="white" stroke="black" points="397.5,-56.5 397.5,-75.5 472.5,-75.5 472.5,-56.5 397.5,-56.5"/>
<text text-anchor="middle" x="435" y="-63.5" font-family="Helvetica,sans-Serif" font-size="10.00">icns_bcop.H</text>
</a>
</g>
</g>
<!-- Node18&#45;&gt;Node19 -->
<g id="edge31" class="edge">
<title>Node18&#45;&gt;Node19</title>
<path fill="none" stroke="midnightblue" d="M358.33,-107.59C377.19,-97.61 402.38,-84.27 418.65,-75.65"/>
<polygon fill="midnightblue" stroke="midnightblue" points="356.59,-104.55 349.39,-112.32 359.86,-110.74 356.59,-104.55"/>
</g>
<!-- Node20 -->
<g id="node20" class="node">
<title>Node20</title>
<g id="a_node20"><a xlink:href="icns__diffusion_8_h.html" target="_top" xlink:title=" ">
<polygon fill="white" stroke="black" points="0,-56.5 0,-75.5 94,-75.5 94,-56.5 0,-56.5"/>
<text text-anchor="middle" x="47" y="-63.5" font-family="Helvetica,sans-Serif" font-size="10.00">icns_diffusion.H</text>
</a>
</g>
</g>
<!-- Node18&#45;&gt;Node20 -->
<g id="edge33" class="edge">
<title>Node18&#45;&gt;Node20</title>
<path fill="none" stroke="midnightblue" d="M299.16,-114.61C247.68,-104.89 149.61,-86.37 92.12,-75.52"/>
<polygon fill="midnightblue" stroke="midnightblue" points="298.63,-118.07 309.11,-116.49 299.93,-111.19 298.63,-118.07"/>
</g>
<!-- Node21 -->
<g id="node21" class="node">
<title>Node21</title>
<g id="a_node21"><a xlink:href="_burggraf_lid_8cpp.html" target="_top" xlink:title=" ">
<polygon fill="white" stroke="black" points="286.5,-56.5 286.5,-75.5 379.5,-75.5 379.5,-56.5 286.5,-56.5"/>
<text text-anchor="middle" x="333" y="-63.5" font-family="Helvetica,sans-Serif" font-size="10.00">BurggrafLid.cpp</text>
</a>
</g>
</g>
<!-- Node18&#45;&gt;Node21 -->
<g id="edge36" class="edge">
<title>Node18&#45;&gt;Node21</title>
<path fill="none" stroke="midnightblue" d="M333,-101.8C333,-92.91 333,-82.78 333,-75.75"/>
<polygon fill="midnightblue" stroke="midnightblue" points="329.5,-102.08 333,-112.08 336.5,-102.08 329.5,-102.08"/>
</g>
<!-- Node22 -->
<g id="node22" class="node">
<title>Node22</title>
<g id="a_node22"><a xlink:href="_power_law_profile_8cpp.html" target="_top" xlink:title=" ">
<polygon fill="white" stroke="black" points="112.5,-56.5 112.5,-75.5 229.5,-75.5 229.5,-56.5 112.5,-56.5"/>
<text text-anchor="middle" x="171" y="-63.5" font-family="Helvetica,sans-Serif" font-size="10.00">PowerLawProfile.cpp</text>
</a>
</g>
</g>
<!-- Node18&#45;&gt;Node22 -->
<g id="edge37" class="edge">
<title>Node18&#45;&gt;Node22</title>
<path fill="none" stroke="midnightblue" d="M299.67,-109.89C269.15,-99.72 224.59,-84.86 196.73,-75.58"/>
<polygon fill="midnightblue" stroke="midnightblue" points="298.85,-113.31 309.44,-113.15 301.06,-106.67 298.85,-113.31"/>
</g>
<!-- Node19&#45;&gt;Node5 -->
<g id="edge32" class="edge">
<title>Node19&#45;&gt;Node5</title>
<path fill="none" stroke="midnightblue" d="M435,-45.8C435,-36.91 435,-26.78 435,-19.75"/>
<polygon fill="midnightblue" stroke="midnightblue" points="431.5,-46.08 435,-56.08 438.5,-46.08 431.5,-46.08"/>
</g>
<!-- Node20&#45;&gt;Node5 -->
<g id="edge34" class="edge">
<title>Node20&#45;&gt;Node5</title>
<path fill="none" stroke="midnightblue" d="M104.03,-55.88C222.77,-38.39 351.35,-21.68 406.98,-14.56"/>
<polygon fill="midnightblue" stroke="midnightblue" points="103.42,-52.43 94.04,-57.35 104.45,-59.35 103.42,-52.43"/>
</g>
<!-- Node23&#45;&gt;Node8 -->
<g id="edge39" class="edge">
<title>Node23&#45;&gt;Node8</title>
<path fill="none" stroke="midnightblue" d="M711.64,-158.35C709.89,-134.25 706.91,-93.31 705.62,-75.59"/>
<polygon fill="midnightblue" stroke="midnightblue" points="708.16,-158.65 712.37,-168.37 715.14,-158.14 708.16,-158.65"/>
</g>
<!-- Node24 -->
<g id="node24" class="node">
<title>Node24</title>
<g id="a_node24"><a xlink:href="levelset__ops_8_h.html" target="_top" xlink:title=" ">
<polygon fill="white" stroke="black" points="577.5,-112.5 577.5,-131.5 666.5,-131.5 666.5,-112.5 577.5,-112.5"/>
<text text-anchor="middle" x="622" y="-119.5" font-family="Helvetica,sans-Serif" font-size="10.00">levelset_ops.H</text>
</a>
</g>
</g>
<!-- Node23&#45;&gt;Node24 -->
<g id="edge40" class="edge">
<title>Node23&#45;&gt;Node24</title>
<path fill="none" stroke="midnightblue" d="M689.71,-163.18C672.96,-153.24 650.9,-140.15 636.58,-131.65"/>
<polygon fill="midnightblue" stroke="midnightblue" points="687.99,-166.23 698.38,-168.32 691.57,-160.21 687.99,-166.23"/>
</g>
<!-- Node24&#45;&gt;Node8 -->
<g id="edge41" class="edge">
<title>Node24&#45;&gt;Node8</title>
<path fill="none" stroke="midnightblue" d="M644.1,-106.62C659.26,-96.76 678.88,-83.99 691.7,-75.65"/>
<polygon fill="midnightblue" stroke="midnightblue" points="641.81,-103.94 635.34,-112.32 645.63,-109.8 641.81,-103.94"/>
</g>
<!-- Node25&#45;&gt;Node9 -->
<g id="edge43" class="edge">
<title>Node25&#45;&gt;Node9</title>
<path fill="none" stroke="midnightblue" d="M1081.89,-158.05C1079.11,-144.56 1074.18,-126.37 1066,-112 1057.75,-97.51 1043.96,-83.97 1034.44,-75.6"/>
<polygon fill="midnightblue" stroke="midnightblue" points="1078.48,-158.88 1083.74,-168.08 1085.36,-157.61 1078.48,-158.88"/>
</g>
<!-- Node26 -->
<g id="node26" class="node">
<title>Node26</title>
<g id="a_node26"><a xlink:href="sdr__ops_8_h.html" target="_top" xlink:title=" ">
<polygon fill="white" stroke="black" points="991.5,-112.5 991.5,-131.5 1056.5,-131.5 1056.5,-112.5 991.5,-112.5"/>
<text text-anchor="middle" x="1024" y="-119.5" font-family="Helvetica,sans-Serif" font-size="10.00">sdr_ops.H</text>
</a>
</g>
</g>
<!-- Node25&#45;&gt;Node26 -->
<g id="edge44" class="edge">
<title>Node25&#45;&gt;Node26</title>
<path fill="none" stroke="midnightblue" d="M1067.53,-161.54C1056.66,-151.91 1043.06,-139.87 1033.98,-131.83"/>
<polygon fill="midnightblue" stroke="midnightblue" points="1065.39,-164.32 1075.2,-168.32 1070.03,-159.07 1065.39,-164.32"/>
</g>
<!-- Node27 -->
<g id="node27" class="node">
<title>Node27</title>
<g id="a_node27"><a xlink:href="_k_omega_s_s_t_8cpp.html" target="_top" xlink:title=" ">
<polygon fill="white" stroke="black" points="1371.5,-56.5 1371.5,-75.5 1466.5,-75.5 1466.5,-56.5 1371.5,-56.5"/>
<text text-anchor="middle" x="1419" y="-63.5" font-family="Helvetica,sans-Serif" font-size="10.00">KOmegaSST.cpp</text>
</a>
</g>
</g>
<!-- Node25&#45;&gt;Node27 -->
<g id="edge46" class="edge">
<title>Node25&#45;&gt;Node27</title>
<path fill="none" stroke="midnightblue" d="M1118.84,-174.94C1185.3,-170.38 1330.05,-157.73 1372,-132 1394.08,-118.46 1408.89,-90.28 1415.33,-75.88"/>
<polygon fill="midnightblue" stroke="midnightblue" points="1118.25,-171.47 1108.5,-175.63 1118.71,-178.46 1118.25,-171.47"/>
</g>
<!-- Node28 -->
<g id="node28" class="node">
<title>Node28</title>
<g id="a_node28"><a xlink:href="_k_omega_s_s_t_i_8_h.html" target="_top" xlink:title=" ">
<polygon fill="white" stroke="black" points="1273.5,-112.5 1273.5,-131.5 1362.5,-131.5 1362.5,-112.5 1273.5,-112.5"/>
<text text-anchor="middle" x="1318" y="-119.5" font-family="Helvetica,sans-Serif" font-size="10.00">KOmegaSSTI.H</text>
</a>
</g>
</g>
<!-- Node25&#45;&gt;Node28 -->
<g id="edge47" class="edge">
<title>Node25&#45;&gt;Node28</title>
<path fill="none" stroke="midnightblue" d="M1118.61,-169.21C1161.72,-159.22 1236.25,-141.95 1280.96,-131.59"/>
<polygon fill="midnightblue" stroke="midnightblue" points="1117.58,-165.86 1108.62,-171.53 1119.16,-172.68 1117.58,-165.86"/>
</g>
<!-- Node29 -->
<g id="node29" class="node">
<title>Node29</title>
<g id="a_node29"><a xlink:href="_k_omega_s_s_t_i_d_d_e_s_8cpp.html" target="_top" xlink:title=" ">
<polygon fill="white" stroke="black" points="1227,-56.5 1227,-75.5 1353,-75.5 1353,-56.5 1227,-56.5"/>
<text text-anchor="middle" x="1290" y="-63.5" font-family="Helvetica,sans-Serif" font-size="10.00">KOmegaSSTIDDES.cpp</text>
</a>
</g>
</g>
<!-- Node25&#45;&gt;Node29 -->
<g id="edge50" class="edge">
<title>Node25&#45;&gt;Node29</title>
<path fill="none" stroke="midnightblue" d="M1116.45,-164.75C1137.16,-156.32 1164.66,-144.44 1188,-132 1221.73,-114.03 1259.05,-88.76 1277.81,-75.65"/>
<polygon fill="midnightblue" stroke="midnightblue" points="1115.14,-161.5 1107.17,-168.48 1117.75,-168 1115.14,-161.5"/>
</g>
<!-- Node26&#45;&gt;Node9 -->
<g id="edge45" class="edge">
<title>Node26&#45;&gt;Node9</title>
<path fill="none" stroke="midnightblue" d="M1024,-101.8C1024,-92.91 1024,-82.78 1024,-75.75"/>
<polygon fill="midnightblue" stroke="midnightblue" points="1020.5,-102.08 1024,-112.08 1027.5,-102.08 1020.5,-102.08"/>
</g>
<!-- Node28&#45;&gt;Node27 -->
<g id="edge48" class="edge">
<title>Node28&#45;&gt;Node27</title>
<path fill="none" stroke="midnightblue" d="M1343.08,-107.59C1361.76,-97.61 1386.7,-84.27 1402.81,-75.65"/>
<polygon fill="midnightblue" stroke="midnightblue" points="1341.4,-104.52 1334.23,-112.32 1344.7,-110.7 1341.4,-104.52"/>
</g>
<!-- Node28&#45;&gt;Node29 -->
<g id="edge49" class="edge">
<title>Node28&#45;&gt;Node29</title>
<path fill="none" stroke="midnightblue" d="M1308.66,-102.98C1303.91,-93.82 1298.34,-83.09 1294.54,-75.75"/>
<polygon fill="midnightblue" stroke="midnightblue" points="1305.67,-104.82 1313.38,-112.08 1311.88,-101.59 1305.67,-104.82"/>
</g>
<!-- Node30&#45;&gt;Node10 -->
<g id="edge52" class="edge">
<title>Node30&#45;&gt;Node10</title>
<path fill="none" stroke="midnightblue" d="M957.43,-158.49C953.48,-145.46 948.01,-127.64 943,-112 938.93,-99.3 934,-84.65 930.94,-75.61"/>
<polygon fill="midnightblue" stroke="midnightblue" points="954.1,-159.59 960.35,-168.15 960.81,-157.56 954.1,-159.59"/>
</g>
<!-- Node31&#45;&gt;Node11 -->
<g id="edge54" class="edge">
<title>Node31&#45;&gt;Node11</title>
<path fill="none" stroke="midnightblue" d="M1232.26,-160.31C1221.33,-146.54 1204.72,-126.91 1188,-112 1171.92,-97.66 1151.11,-83.98 1137.43,-75.55"/>
<polygon fill="midnightblue" stroke="midnightblue" points="1229.67,-162.67 1238.58,-168.4 1235.19,-158.37 1229.67,-162.67"/>
</g>
<!-- Node31&#45;&gt;Node27 -->
<g id="edge58" class="edge">
<title>Node31&#45;&gt;Node27</title>
<path fill="none" stroke="midnightblue" d="M1278.02,-168.11C1317.56,-157.23 1379.53,-139.36 1388,-132 1405.55,-116.75 1413.96,-89.35 1417.25,-75.5"/>
<polygon fill="midnightblue" stroke="midnightblue" points="1276.98,-164.76 1268.26,-170.78 1278.83,-171.52 1276.98,-164.76"/>
</g>
<!-- Node31&#45;&gt;Node28 -->
<g id="edge59" class="edge">
<title>Node31&#45;&gt;Node28</title>
<path fill="none" stroke="midnightblue" d="M1265.14,-162.1C1278.28,-152.38 1294.98,-140.03 1306.06,-131.83"/>
<polygon fill="midnightblue" stroke="midnightblue" points="1262.69,-159.56 1256.73,-168.32 1266.85,-165.19 1262.69,-159.56"/>
</g>
<!-- Node31&#45;&gt;Node29 -->
<g id="edge60" class="edge">
<title>Node31&#45;&gt;Node29</title>
<path fill="none" stroke="midnightblue" d="M1278.03,-167.45C1313.74,-156.79 1366.35,-140 1372,-132 1389.82,-106.78 1347.81,-86.39 1317.58,-75.54"/>
<polygon fill="midnightblue" stroke="midnightblue" points="1276.61,-164.22 1268.01,-170.41 1278.6,-170.93 1276.61,-164.22"/>
</g>
<!-- Node32 -->
<g id="node32" class="node">
<title>Node32</title>
<g id="a_node32"><a xlink:href="tke__ops_8_h.html" target="_top" xlink:title=" ">
<polygon fill="white" stroke="black" points="1113.5,-112.5 1113.5,-131.5 1178.5,-131.5 1178.5,-112.5 1113.5,-112.5"/>
<text text-anchor="middle" x="1146" y="-119.5" font-family="Helvetica,sans-Serif" font-size="10.00">tke_ops.H</text>
</a>
</g>
</g>
<!-- Node31&#45;&gt;Node32 -->
<g id="edge55" class="edge">
<title>Node31&#45;&gt;Node32</title>
<path fill="none" stroke="midnightblue" d="M1220.16,-163.45C1201.89,-153.48 1177.58,-140.23 1161.87,-131.65"/>
<polygon fill="midnightblue" stroke="midnightblue" points="1218.64,-166.61 1229.09,-168.32 1221.99,-160.46 1218.64,-166.61"/>
</g>
<!-- Node33 -->
<g id="node33" class="node">
<title>Node33</title>
<g id="a_node33"><a xlink:href="_one_eq_ksgs_8cpp.html" target="_top" xlink:title=" ">
<polygon fill="white" stroke="black" points="1495,-112.5 1495,-131.5 1587,-131.5 1587,-112.5 1495,-112.5"/>
<text text-anchor="middle" x="1541" y="-119.5" font-family="Helvetica,sans-Serif" font-size="10.00">OneEqKsgs.cpp</text>
</a>
</g>
</g>
<!-- Node31&#45;&gt;Node33 -->
<g id="edge57" class="edge">
<title>Node31&#45;&gt;Node33</title>
<path fill="none" stroke="midnightblue" d="M1278.12,-168.83C1279.43,-168.54 1280.73,-168.27 1282,-168 1356.17,-152.55 1443.05,-138.22 1494.97,-130.05"/>
<polygon fill="midnightblue" stroke="midnightblue" points="1277,-165.5 1268.04,-171.14 1278.57,-172.32 1277,-165.5"/>
</g>
<!-- Node31&#45;&gt;Node34 -->
<g id="edge61" class="edge">
<title>Node31&#45;&gt;Node34</title>
<path fill="none" stroke="midnightblue" d="M1278.21,-168.71C1279.49,-168.46 1280.76,-168.22 1282,-168 1420.29,-143.35 1457.06,-152.7 1596,-132 1598.91,-131.57 1601.91,-131.09 1604.93,-130.59"/>
<polygon fill="midnightblue" stroke="midnightblue" points="1277.42,-165.3 1268.39,-170.84 1278.91,-172.14 1277.42,-165.3"/>
</g>
<!-- Node32&#45;&gt;Node11 -->
<g id="edge56" class="edge">
<title>Node32&#45;&gt;Node11</title>
<path fill="none" stroke="midnightblue" d="M1138.2,-102.69C1134.32,-93.59 1129.82,-83.01 1126.73,-75.75"/>
<polygon fill="midnightblue" stroke="midnightblue" points="1135.06,-104.25 1142.2,-112.08 1141.5,-101.51 1135.06,-104.25"/>
</g>
<!-- Node35&#45;&gt;Node12 -->
<g id="edge63" class="edge">
<title>Node35&#45;&gt;Node12</title>
<path fill="none" stroke="midnightblue" d="M1741.57,-159.25C1737.79,-151.17 1733.89,-141.35 1732,-132 1727.85,-111.49 1738.66,-88.08 1745.63,-75.71"/>
<polygon fill="midnightblue" stroke="midnightblue" points="1738.53,-160.99 1746.12,-168.37 1744.79,-157.86 1738.53,-160.99"/>
</g>
<!-- Node36 -->
<g id="node36" class="node">
<title>Node36</title>
<g id="a_node36"><a xlink:href="vof__advection_8_h.html" target="_top" xlink:title=" ">
<polygon fill="white" stroke="black" points="1741,-112.5 1741,-131.5 1837,-131.5 1837,-112.5 1741,-112.5"/>
<text text-anchor="middle" x="1789" y="-119.5" font-family="Helvetica,sans-Serif" font-size="10.00">vof_advection.H</text>
</a>
</g>
</g>
<!-- Node35&#45;&gt;Node36 -->
<g id="edge64" class="edge">
<title>Node35&#45;&gt;Node36</title>
<path fill="none" stroke="midnightblue" d="M1763.06,-159.86C1769.64,-150.5 1777.51,-139.33 1782.84,-131.75"/>
<polygon fill="midnightblue" stroke="midnightblue" points="1760.17,-157.89 1757.27,-168.08 1765.89,-161.92 1760.17,-157.89"/>
</g>
<!-- Node37 -->
<g id="node37" class="node">
<title>Node37</title>
<g id="a_node37"><a xlink:href="vof__bcop_8_h.html" target="_top" xlink:title=" ">
<polygon fill="white" stroke="black" points="1855.5,-112.5 1855.5,-131.5 1926.5,-131.5 1926.5,-112.5 1855.5,-112.5"/>
<text text-anchor="middle" x="1891" y="-119.5" font-family="Helvetica,sans-Serif" font-size="10.00">vof_bcop.H</text>
</a>
</g>
</g>
<!-- Node35&#45;&gt;Node37 -->
<g id="edge66" class="edge">
<title>Node35&#45;&gt;Node37</title>
<path fill="none" stroke="midnightblue" d="M1781.74,-165.14C1807.98,-155.02 1845.1,-140.7 1868.61,-131.64"/>
<polygon fill="midnightblue" stroke="midnightblue" points="1780.33,-161.93 1772.26,-168.8 1782.85,-168.47 1780.33,-161.93"/>
</g>
<!-- Node38 -->
<g id="node38" class="node">
<title>Node38</title>
<g id="a_node38"><a xlink:href="vof__ops_8_h.html" target="_top" xlink:title=" ">
<polygon fill="white" stroke="black" points="1944.5,-112.5 1944.5,-131.5 2009.5,-131.5 2009.5,-112.5 1944.5,-112.5"/>
<text text-anchor="middle" x="1977" y="-119.5" font-family="Helvetica,sans-Serif" font-size="10.00">vof_ops.H</text>
</a>
</g>
</g>
<!-- Node35&#45;&gt;Node38 -->
<g id="edge68" class="edge">
<title>Node35&#45;&gt;Node38</title>
<path fill="none" stroke="midnightblue" d="M1782.09,-169.57C1824.73,-159.38 1901.02,-141.15 1944.43,-130.78"/>
<polygon fill="midnightblue" stroke="midnightblue" points="1781.17,-166.19 1772.26,-171.92 1782.8,-173 1781.17,-166.19"/>
</g>
<!-- Node36&#45;&gt;Node12 -->
<g id="edge65" class="edge">
<title>Node36&#45;&gt;Node12</title>
<path fill="none" stroke="midnightblue" d="M1776.94,-103.86C1770.36,-94.5 1762.49,-83.33 1757.16,-75.75"/>
<polygon fill="midnightblue" stroke="midnightblue" points="1774.11,-105.92 1782.73,-112.08 1779.83,-101.89 1774.11,-105.92"/>
</g>
<!-- Node37&#45;&gt;Node12 -->
<g id="edge67" class="edge">
<title>Node37&#45;&gt;Node12</title>
<path fill="none" stroke="midnightblue" d="M1859.3,-108.77C1833,-98.63 1796.28,-84.47 1773.08,-75.52"/>
<polygon fill="midnightblue" stroke="midnightblue" points="1858.23,-112.11 1868.82,-112.44 1860.75,-105.58 1858.23,-112.11"/>
</g>
<!-- Node38&#45;&gt;Node12 -->
<g id="edge69" class="edge">
<title>Node38&#45;&gt;Node12</title>
<path fill="none" stroke="midnightblue" d="M1934.4,-110.82C1888.16,-99.77 1815.76,-82.47 1777.21,-73.26"/>
<polygon fill="midnightblue" stroke="midnightblue" points="1933.6,-114.23 1944.14,-113.15 1935.22,-107.42 1933.6,-114.23"/>
</g>
<!-- Node39&#45;&gt;Node7 -->
<g id="edge74" class="edge">
<title>Node39&#45;&gt;Node7</title>
<path fill="none" stroke="midnightblue" d="M407.9,-270.27C410.43,-235.78 419.98,-161.25 456,-112 468.24,-95.26 488.75,-83.05 504.24,-75.6"/>
<polygon fill="midnightblue" stroke="midnightblue" points="404.41,-270.14 407.29,-280.34 411.39,-270.57 404.41,-270.14"/>
</g>
<!-- Node39&#45;&gt;Node15 -->
<g id="edge75" class="edge">
<title>Node39&#45;&gt;Node15</title>
<path fill="none" stroke="midnightblue" d="M461.75,-283.62C579.28,-272.09 851.67,-245.34 933.4,-237.32"/>
<polygon fill="midnightblue" stroke="midnightblue" points="461.15,-280.17 451.54,-284.63 461.84,-287.13 461.15,-280.17"/>
</g>
<!-- Node39&#45;&gt;Node20 -->
<g id="edge73" class="edge">
<title>Node39&#45;&gt;Node20</title>
<path fill="none" stroke="midnightblue" d="M359.53,-277.86C332.36,-270.41 298.17,-259.17 270,-244 176.88,-193.83 83.61,-103.85 55.52,-75.68"/>
<polygon fill="midnightblue" stroke="midnightblue" points="358.64,-281.25 369.21,-280.44 360.44,-274.48 358.64,-281.25"/>
</g>
<!-- Node40 -->
<g id="node40" class="node">
<title>Node40</title>
<g id="a_node40"><a xlink:href="_diffusion_ops_8cpp.html" target="_top" xlink:title=" ">
<polygon fill="white" stroke="black" points="279.5,-224.5 279.5,-243.5 378.5,-243.5 378.5,-224.5 279.5,-224.5"/>
<text text-anchor="middle" x="329" y="-231.5" font-family="Helvetica,sans-Serif" font-size="10.00">DiffusionOps.cpp</text>
</a>
</g>
</g>
<!-- Node39&#45;&gt;Node40 -->
<g id="edge72" class="edge">
<title>Node39&#45;&gt;Node40</title>
<path fill="none" stroke="midnightblue" d="M386.23,-274.62C371.98,-264.76 353.54,-251.99 341.5,-243.65"/>
<polygon fill="midnightblue" stroke="midnightblue" points="384.25,-277.51 394.47,-280.32 388.24,-271.75 384.25,-277.51"/>
</g>
</g>
</svg>
