<?xml version="1.0" encoding="UTF-8" standalone="no"?>
<!DOCTYPE svg PUBLIC "-//W3C//DTD SVG 1.1//EN"
 "http://www.w3.org/Graphics/SVG/1.1/DTD/svg11.dtd">
<!-- Generated by graphviz version 2.43.0 (0)
 -->
<!-- Title: ScratchField.H Pages: 1 -->
<!--zoomable 196 -->
<svg id="main" version="1.1" xmlns="http://www.w3.org/2000/svg" xmlns:xlink="http://www.w3.org/1999/xlink" xml:space="preserve" onload="init(evt)">
<style type="text/css"><![CDATA[
.edge:hover path { stroke: red; }
.edge:hover polygon { stroke: red; fill: red; }
]]></style>
<script type="text/javascript"><![CDATA[
var edges = document.getElementsByTagName('g');
if (edges && edges.length) {
  for (var i=0;i<edges.length;i++) {
    if (edges[i].id.substr(0,4)=='edge') {
      edges[i].setAttribute('class','edge');
    }
  }
}
]]></script>
        <defs>
                <circle id="rim" cx="0" cy="0" r="7"/>
                <circle id="rim2" cx="0" cy="0" r="3.5"/>
                <g id="zoomPlus">
                        <use xlink:href="#rim" fill="#404040">
                                <set attributeName="fill" to="#808080" begin="zoomplus.mouseover" end="zoomplus.mouseout"/>
                        </use>
                        <path d="M-4,0h8M0,-4v8" fill="none" stroke="white" stroke-width="1.5" pointer-events="none"/>
                </g>
                <g id="zoomMin">
                        <use xlink:href="#rim" fill="#404040">
                                <set attributeName="fill" to="#808080" begin="zoomminus.mouseover" end="zoomminus.mouseout"/>
                        </use>
                        <path d="M-4,0h8" fill="none" stroke="white" stroke-width="1.5" pointer-events="none"/>
                </g>
                <g id="dirArrow">
                        <path fill="none" stroke="white" stroke-width="1.5" d="M0,-3.0v7 M-2.5,-0.5L0,-3.0L2.5,-0.5"/>
                </g>
               <g id="resetDef">
                       <use xlink:href="#rim2" fill="#404040">
                               <set attributeName="fill" to="#808080" begin="reset.mouseover" end="reset.mouseout"/>
                       </use>
               </g>
        </defs>

<script type="text/javascript">
var viewWidth = 4026;
var viewHeight = 196;
var sectionId = 'dynsection-1';
</script>
<script xlink:href="svgpan.js"/>
<svg id="graph" class="graph">
<g id="viewport">
<title>ScratchField.H</title>
<polygon fill="white" stroke="transparent" points="-4,4 -4,-192 4022,-192 4022,4 -4,4"/>
<!-- Node1 -->
<g id="node1" class="node">
<title>Node1</title>
<g id="a_node1"><a xlink:title=" ">
<polygon fill="#bfbfbf" stroke="black" points="113,-168.5 113,-187.5 199,-187.5 199,-168.5 113,-168.5"/>
<text text-anchor="middle" x="156" y="-175.5" font-family="Helvetica,sans-Serif" font-size="10.00">ScratchField.H</text>
</a>
</g>
</g>
<!-- Node2 -->
<g id="node2" class="node">
<title>Node2</title>
<g id="a_node2"><a xlink:href="_field_repo_8_h.html" target="_top" xlink:title=" ">
<polygon fill="white" stroke="red" points="1788.5,-112.5 1788.5,-131.5 1863.5,-131.5 1863.5,-112.5 1788.5,-112.5"/>
<text text-anchor="middle" x="1826" y="-119.5" font-family="Helvetica,sans-Serif" font-size="10.00">FieldRepo.H</text>
</a>
</g>
</g>
<!-- Node1&#45;&gt;Node2 -->
<g id="edge1" class="edge">
<title>Node1&#45;&gt;Node2</title>
<path fill="none" stroke="midnightblue" d="M209.58,-175.27C466.56,-166.96 1569.42,-131.3 1788.19,-124.22"/>
<polygon fill="midnightblue" stroke="midnightblue" points="209.27,-171.78 199.38,-175.6 209.49,-178.77 209.27,-171.78"/>
</g>
<!-- Node243 -->
<g id="node19" class="node">
<title>Node243</title>
<g id="a_node19"><a xlink:href="_scratch_field_8cpp.html" target="_top" xlink:title=" ">
<polygon fill="white" stroke="black" points="0,-56.5 0,-75.5 96,-75.5 96,-56.5 0,-56.5"/>
<text text-anchor="middle" x="48" y="-63.5" font-family="Helvetica,sans-Serif" font-size="10.00">ScratchField.cpp</text>
</a>
</g>
</g>
<!-- Node1&#45;&gt;Node243 -->
<g id="edge68" class="edge">
<title>Node1&#45;&gt;Node243</title>
<path fill="none" stroke="midnightblue" d="M140.49,-161.21C117.34,-137.63 74.54,-94.03 56.44,-75.59"/>
<polygon fill="midnightblue" stroke="midnightblue" points="138.02,-163.68 147.53,-168.37 143.02,-158.78 138.02,-163.68"/>
</g>
<!-- Node244 -->
<g id="node20" class="node">
<title>Node244</title>
<g id="a_node20"><a xlink:href="_view_field_8cpp.html" target="_top" xlink:title=" ">
<polygon fill="white" stroke="black" points="114,-56.5 114,-75.5 198,-75.5 198,-56.5 114,-56.5"/>
<text text-anchor="middle" x="156" y="-63.5" font-family="Helvetica,sans-Serif" font-size="10.00">ViewField.cpp</text>
</a>
</g>
</g>
<!-- Node1&#45;&gt;Node244 -->
<g id="edge69" class="edge">
<title>Node1&#45;&gt;Node244</title>
<path fill="none" stroke="midnightblue" d="M156,-158.35C156,-134.25 156,-93.31 156,-75.59"/>
<polygon fill="midnightblue" stroke="midnightblue" points="152.5,-158.37 156,-168.37 159.5,-158.37 152.5,-158.37"/>
</g>
<!-- Node3 -->
<g id="node3" class="node">
<title>Node3</title>
<g id="a_node3"><a xlink:href="_b_c_interface_8cpp.html" target="_top" xlink:title=" ">
<polygon fill="white" stroke="black" points="3876,-0.5 3876,-19.5 3970,-19.5 3970,-0.5 3876,-0.5"/>
<text text-anchor="middle" x="3923" y="-7.5" font-family="Helvetica,sans-Serif" font-size="10.00">BCInterface.cpp</text>
</a>
</g>
</g>
<!-- Node2&#45;&gt;Node3 -->
<g id="edge2" class="edge">
<title>Node2&#45;&gt;Node3</title>
<path fill="none" stroke="midnightblue" d="M1873.89,-121C2172.51,-120.87 3769.49,-118.18 3863,-76 3889.32,-64.13 3909.34,-34.64 3918.12,-19.81"/>
<polygon fill="midnightblue" stroke="midnightblue" points="1873.82,-117.5 1863.82,-121 1873.82,-124.5 1873.82,-117.5"/>
</g>
<!-- Node4 -->
<g id="node4" class="node">
<title>Node4</title>
<g id="a_node4"><a xlink:href="_fixed_gradient_b_c_8_h.html" target="_top" xlink:title=" ">
<polygon fill="white" stroke="red" points="3910,-56.5 3910,-75.5 4018,-75.5 4018,-56.5 3910,-56.5"/>
<text text-anchor="middle" x="3964" y="-63.5" font-family="Helvetica,sans-Serif" font-size="10.00">FixedGradientBC.H</text>
</a>
</g>
</g>
<!-- Node2&#45;&gt;Node4 -->
<g id="edge3" class="edge">
<title>Node2&#45;&gt;Node4</title>
<path fill="none" stroke="midnightblue" d="M1874.09,-120.67C2145.11,-118.72 3484.41,-107.62 3896,-76 3900.51,-75.65 3905.18,-75.21 3909.87,-74.71"/>
<polygon fill="midnightblue" stroke="midnightblue" points="1873.77,-117.18 1863.8,-120.75 1873.82,-124.18 1873.77,-117.18"/>
</g>
<!-- Node6 -->
<g id="node5" class="node">
<title>Node6</title>
<g id="a_node5"><a xlink:href="velocity__bcs_8_h.html" target="_top" xlink:title=" ">
<polygon fill="white" stroke="red" points="216,-56.5 216,-75.5 304,-75.5 304,-56.5 216,-56.5"/>
<text text-anchor="middle" x="260" y="-63.5" font-family="Helvetica,sans-Serif" font-size="10.00">velocity_bcs.H</text>
</a>
</g>
</g>
<!-- Node2&#45;&gt;Node6 -->
<g id="edge5" class="edge">
<title>Node2&#45;&gt;Node6</title>
<path fill="none" stroke="midnightblue" d="M1778.08,-120.37C1554.4,-117.32 611.49,-103.04 318,-76 313.54,-75.59 308.89,-75.05 304.26,-74.45"/>
<polygon fill="midnightblue" stroke="midnightblue" points="1778.14,-123.87 1788.18,-120.51 1778.23,-116.87 1778.14,-123.87"/>
</g>
<!-- Node9 -->
<g id="node6" class="node">
<title>Node9</title>
<g id="a_node6"><a xlink:href="_c_f_d_sim_8_h.html" target="_top" xlink:title=" ">
<polygon fill="white" stroke="red" points="594,-56.5 594,-75.5 660,-75.5 660,-56.5 594,-56.5"/>
<text text-anchor="middle" x="627" y="-63.5" font-family="Helvetica,sans-Serif" font-size="10.00">CFDSim.H</text>
</a>
</g>
</g>
<!-- Node2&#45;&gt;Node9 -->
<g id="edge6" class="edge">
<title>Node2&#45;&gt;Node9</title>
<path fill="none" stroke="midnightblue" d="M1778.22,-120.09C1589.19,-116.35 893.19,-101.12 674,-76 669.46,-75.48 664.7,-74.77 660.03,-73.97"/>
<polygon fill="midnightblue" stroke="midnightblue" points="1778.33,-123.59 1788.39,-120.29 1778.46,-116.6 1778.33,-123.59"/>
</g>
<!-- Node61 -->
<g id="node7" class="node">
<title>Node61</title>
<g id="a_node7"><a xlink:href="_p_d_e_base_8cpp.html" target="_top" xlink:title=" ">
<polygon fill="white" stroke="black" points="339,-0.5 339,-19.5 419,-19.5 419,-0.5 339,-0.5"/>
<text text-anchor="middle" x="379" y="-7.5" font-family="Helvetica,sans-Serif" font-size="10.00">PDEBase.cpp</text>
</a>
</g>
</g>
<!-- Node2&#45;&gt;Node61 -->
<g id="edge38" class="edge">
<title>Node2&#45;&gt;Node61</title>
<path fill="none" stroke="midnightblue" d="M1778.16,-120.45C1527.55,-117.44 376.43,-102.22 351,-76 335.26,-59.77 356.61,-33.29 369.87,-19.68"/>
<polygon fill="midnightblue" stroke="midnightblue" points="1778.36,-123.95 1788.4,-120.57 1778.44,-116.95 1778.36,-123.95"/>
</g>
<!-- Node77 -->
<g id="node8" class="node">
<title>Node77</title>
<g id="a_node8"><a xlink:href="_i_b_8cpp.html" target="_top" xlink:title=" ">
<polygon fill="white" stroke="black" points="437.5,-0.5 437.5,-19.5 484.5,-19.5 484.5,-0.5 437.5,-0.5"/>
<text text-anchor="middle" x="461" y="-7.5" font-family="Helvetica,sans-Serif" font-size="10.00">IB.cpp</text>
</a>
</g>
</g>
<!-- Node2&#45;&gt;Node77 -->
<g id="edge48" class="edge">
<title>Node2&#45;&gt;Node77</title>
<path fill="none" stroke="midnightblue" d="M1778.01,-120.79C1545.55,-119.57 545.62,-112.26 491,-76 471.53,-63.08 464.48,-34.08 462.11,-19.59"/>
<polygon fill="midnightblue" stroke="midnightblue" points="1778.16,-124.29 1788.17,-120.84 1778.19,-117.29 1778.16,-124.29"/>
</g>
<!-- Node88 -->
<g id="node9" class="node">
<title>Node88</title>
<g id="a_node9"><a xlink:href="incflo_8_h.html" target="_top" xlink:title=" ">
<polygon fill="white" stroke="red" points="502.5,-0.5 502.5,-19.5 555.5,-19.5 555.5,-0.5 502.5,-0.5"/>
<text text-anchor="middle" x="529" y="-7.5" font-family="Helvetica,sans-Serif" font-size="10.00">incflo.H</text>
</a>
</g>
</g>
<!-- Node2&#45;&gt;Node88 -->
<g id="edge51" class="edge">
<title>Node2&#45;&gt;Node88</title>
<path fill="none" stroke="midnightblue" d="M1778.04,-120.33C1556.4,-117.11 639.64,-102.26 585,-76 559.76,-63.87 541.39,-34.5 533.41,-19.75"/>
<polygon fill="midnightblue" stroke="midnightblue" points="1778.32,-123.84 1788.37,-120.48 1778.42,-116.84 1778.32,-123.84"/>
</g>
<!-- Node116 -->
<g id="node10" class="node">
<title>Node116</title>
<g id="a_node10"><a xlink:href="_ocean_waves_8cpp.html" target="_top" xlink:title=" ">
<polygon fill="white" stroke="black" points="807,-0.5 807,-19.5 907,-19.5 907,-0.5 807,-0.5"/>
<text text-anchor="middle" x="857" y="-7.5" font-family="Helvetica,sans-Serif" font-size="10.00">OceanWaves.cpp</text>
</a>
</g>
</g>
<!-- Node2&#45;&gt;Node116 -->
<g id="edge52" class="edge">
<title>Node2&#45;&gt;Node116</title>
<path fill="none" stroke="midnightblue" d="M1778.27,-120.76C1578.46,-119.51 817.83,-112.37 783,-76 762.06,-54.14 805.45,-31.44 834.23,-19.5"/>
<polygon fill="midnightblue" stroke="midnightblue" points="1778.43,-124.26 1788.45,-120.82 1778.47,-117.26 1778.43,-124.26"/>
</g>
<!-- Node125 -->
<g id="node11" class="node">
<title>Node125</title>
<g id="a_node11"><a xlink:href="_tioga_interface_8cpp.html" target="_top" xlink:title=" ">
<polygon fill="white" stroke="black" points="573.5,-0.5 573.5,-19.5 680.5,-19.5 680.5,-0.5 573.5,-0.5"/>
<text text-anchor="middle" x="627" y="-7.5" font-family="Helvetica,sans-Serif" font-size="10.00">TiogaInterface.cpp</text>
</a>
</g>
</g>
<!-- Node2&#45;&gt;Node125 -->
<g id="edge57" class="edge">
<title>Node2&#45;&gt;Node125</title>
<path fill="none" stroke="midnightblue" d="M1778.08,-120.2C1582.93,-116.76 853.72,-102.26 754,-76 708.73,-64.08 661.08,-34.33 639.24,-19.58"/>
<polygon fill="midnightblue" stroke="midnightblue" points="1778.24,-123.7 1788.3,-120.37 1778.36,-116.7 1778.24,-123.7"/>
</g>
<!-- Node152 -->
<g id="node12" class="node">
<title>Node152</title>
<g id="a_node12"><a xlink:href="_vortex_ring_8cpp.html" target="_top" xlink:title=" ">
<polygon fill="white" stroke="black" points="699,-0.5 699,-19.5 789,-19.5 789,-0.5 699,-0.5"/>
<text text-anchor="middle" x="744" y="-7.5" font-family="Helvetica,sans-Serif" font-size="10.00">VortexRing.cpp</text>
</a>
</g>
</g>
<!-- Node2&#45;&gt;Node152 -->
<g id="edge64" class="edge">
<title>Node2&#45;&gt;Node152</title>
<path fill="none" stroke="midnightblue" d="M1778.23,-120.34C1578.18,-117.38 816.19,-104.28 774,-76 754.59,-62.99 747.51,-34.03 745.12,-19.57"/>
<polygon fill="midnightblue" stroke="midnightblue" points="1778.37,-123.84 1788.42,-120.48 1778.47,-116.84 1778.37,-123.84"/>
</g>
<!-- Node232 -->
<g id="node13" class="node">
<title>Node232</title>
<g id="a_node13"><a xlink:href="_godunov_8_h.html" target="_top" xlink:title=" ">
<polygon fill="white" stroke="red" points="938,-56.5 938,-75.5 1008,-75.5 1008,-56.5 938,-56.5"/>
<text text-anchor="middle" x="973" y="-63.5" font-family="Helvetica,sans-Serif" font-size="10.00">Godunov.H</text>
</a>
</g>
</g>
<!-- Node2&#45;&gt;Node232 -->
<g id="edge13" class="edge">
<title>Node2&#45;&gt;Node232</title>
<path fill="none" stroke="midnightblue" d="M1778.29,-120.78C1652.97,-119.66 1304.33,-113.17 1017,-76 1014.22,-75.64 1011.35,-75.2 1008.47,-74.72"/>
<polygon fill="midnightblue" stroke="midnightblue" points="1778.29,-124.28 1788.32,-120.86 1778.35,-117.28 1778.29,-124.28"/>
</g>
<!-- Node237 -->
<g id="node14" class="node">
<title>Node237</title>
<g id="a_node14"><a xlink:href="_m_o_l_8_h.html" target="_top" xlink:title=" ">
<polygon fill="white" stroke="red" points="1026.5,-56.5 1026.5,-75.5 1075.5,-75.5 1075.5,-56.5 1026.5,-56.5"/>
<text text-anchor="middle" x="1051" y="-63.5" font-family="Helvetica,sans-Serif" font-size="10.00">MOL.H</text>
</a>
</g>
</g>
<!-- Node2&#45;&gt;Node237 -->
<g id="edge14" class="edge">
<title>Node2&#45;&gt;Node237</title>
<path fill="none" stroke="midnightblue" d="M1778.14,-121.36C1659.77,-121.55 1344.07,-117.73 1085,-76 1081.99,-75.51 1078.85,-74.88 1075.76,-74.16"/>
<polygon fill="midnightblue" stroke="midnightblue" points="1778.32,-124.86 1788.32,-121.33 1778.31,-117.86 1778.32,-124.86"/>
</g>
<!-- Node239 -->
<g id="node15" class="node">
<title>Node239</title>
<g id="a_node15"><a xlink:href="_field_8cpp.html" target="_top" xlink:title=" ">
<polygon fill="white" stroke="black" points="1094,-56.5 1094,-75.5 1154,-75.5 1154,-56.5 1094,-56.5"/>
<text text-anchor="middle" x="1124" y="-63.5" font-family="Helvetica,sans-Serif" font-size="10.00">Field.cpp</text>
</a>
</g>
</g>
<!-- Node2&#45;&gt;Node239 -->
<g id="edge15" class="edge">
<title>Node2&#45;&gt;Node239</title>
<path fill="none" stroke="midnightblue" d="M1778.34,-120.36C1668.99,-118.32 1391.85,-109.95 1163,-76 1160.11,-75.57 1157.12,-75.04 1154.14,-74.45"/>
<polygon fill="midnightblue" stroke="midnightblue" points="1778.33,-123.86 1788.39,-120.54 1778.46,-116.86 1778.33,-123.86"/>
</g>
<!-- Node240 -->
<g id="node16" class="node">
<title>Node240</title>
<g id="a_node16"><a xlink:href="_field_repo_8cpp.html" target="_top" xlink:title=" ">
<polygon fill="white" stroke="black" points="1172.5,-56.5 1172.5,-75.5 1257.5,-75.5 1257.5,-56.5 1172.5,-56.5"/>
<text text-anchor="middle" x="1215" y="-63.5" font-family="Helvetica,sans-Serif" font-size="10.00">FieldRepo.cpp</text>
</a>
</g>
</g>
<!-- Node2&#45;&gt;Node240 -->
<g id="edge16" class="edge">
<title>Node2&#45;&gt;Node240</title>
<path fill="none" stroke="midnightblue" d="M1778.11,-118.68C1681.15,-113.65 1454.79,-100.19 1266,-76 1263.24,-75.65 1260.39,-75.25 1257.53,-74.82"/>
<polygon fill="midnightblue" stroke="midnightblue" points="1778.02,-122.18 1788.18,-119.2 1778.38,-115.19 1778.02,-122.18"/>
</g>
<!-- Node241 -->
<g id="node17" class="node">
<title>Node241</title>
<g id="a_node17"><a xlink:href="_int_field_8cpp.html" target="_top" xlink:title=" ">
<polygon fill="white" stroke="black" points="1275.5,-56.5 1275.5,-75.5 1348.5,-75.5 1348.5,-56.5 1275.5,-56.5"/>
<text text-anchor="middle" x="1312" y="-63.5" font-family="Helvetica,sans-Serif" font-size="10.00">IntField.cpp</text>
</a>
</g>
</g>
<!-- Node2&#45;&gt;Node241 -->
<g id="edge17" class="edge">
<title>Node2&#45;&gt;Node241</title>
<path fill="none" stroke="midnightblue" d="M1778.34,-118.04C1693.37,-112.39 1510.23,-98.61 1357,-76 1354.32,-75.6 1351.56,-75.16 1348.78,-74.67"/>
<polygon fill="midnightblue" stroke="midnightblue" points="1778.25,-121.54 1788.45,-118.7 1778.71,-114.55 1778.25,-121.54"/>
</g>
<!-- Node242 -->
<g id="node18" class="node">
<title>Node242</title>
<g id="a_node18"><a xlink:href="_int_scratch_field_8cpp.html" target="_top" xlink:title=" ">
<polygon fill="white" stroke="black" points="1366.5,-56.5 1366.5,-75.5 1475.5,-75.5 1475.5,-56.5 1366.5,-56.5"/>
<text text-anchor="middle" x="1421" y="-63.5" font-family="Helvetica,sans-Serif" font-size="10.00">IntScratchField.cpp</text>
</a>
</g>
</g>
<!-- Node2&#45;&gt;Node242 -->
<g id="edge18" class="edge">
<title>Node2&#45;&gt;Node242</title>
<path fill="none" stroke="midnightblue" d="M1778.31,-114.84C1712.36,-106.28 1589.6,-90.26 1485,-76 1482,-75.59 1478.92,-75.17 1475.81,-74.74"/>
<polygon fill="midnightblue" stroke="midnightblue" points="1778.03,-118.33 1788.39,-116.14 1778.93,-111.39 1778.03,-118.33"/>
</g>
<!-- Node2&#45;&gt;Node243 -->
<g id="edge19" class="edge">
<title>Node2&#45;&gt;Node243</title>
<path fill="none" stroke="midnightblue" d="M1778.15,-120.59C1535.9,-118.41 443.01,-106.97 105,-76 102.11,-75.73 99.14,-75.41 96.15,-75.05"/>
<polygon fill="midnightblue" stroke="midnightblue" points="1778.35,-124.1 1788.39,-120.69 1778.42,-117.1 1778.35,-124.1"/>
</g>
<!-- Node2&#45;&gt;Node244 -->
<g id="edge20" class="edge">
<title>Node2&#45;&gt;Node244</title>
<path fill="none" stroke="midnightblue" d="M1778,-120.62C1544.22,-118.61 523.32,-108.13 207,-76 204.14,-75.71 201.19,-75.35 198.23,-74.95"/>
<polygon fill="midnightblue" stroke="midnightblue" points="1778.18,-124.12 1788.21,-120.7 1778.24,-117.12 1778.18,-124.12"/>
</g>
<!-- Node245 -->
<g id="node21" class="node">
<title>Node245</title>
<g id="a_node21"><a xlink:href="field__algebra_8cpp.html" target="_top" xlink:title=" ">
<polygon fill="white" stroke="black" points="1494,-56.5 1494,-75.5 1594,-75.5 1594,-56.5 1494,-56.5"/>
<text text-anchor="middle" x="1544" y="-63.5" font-family="Helvetica,sans-Serif" font-size="10.00">field_algebra.cpp</text>
</a>
</g>
</g>
<!-- Node2&#45;&gt;Node245 -->
<g id="edge21" class="edge">
<title>Node2&#45;&gt;Node245</title>
<path fill="none" stroke="midnightblue" d="M1778.42,-111.89C1725.37,-101.73 1640.24,-85.43 1588.48,-75.52"/>
<polygon fill="midnightblue" stroke="midnightblue" points="1777.78,-115.33 1788.26,-113.77 1779.1,-108.46 1777.78,-115.33"/>
</g>
<!-- Node246 -->
<g id="node22" class="node">
<title>Node246</title>
<g id="a_node22"><a xlink:href="diffusion_8_h.html" target="_top" xlink:title=" ">
<polygon fill="white" stroke="red" points="1612.5,-56.5 1612.5,-75.5 1681.5,-75.5 1681.5,-56.5 1612.5,-56.5"/>
<text text-anchor="middle" x="1647" y="-63.5" font-family="Helvetica,sans-Serif" font-size="10.00">diffusion.H</text>
</a>
</g>
</g>
<!-- Node2&#45;&gt;Node246 -->
<g id="edge22" class="edge">
<title>Node2&#45;&gt;Node246</title>
<path fill="none" stroke="midnightblue" d="M1787.67,-109.44C1753.92,-99.26 1705.55,-84.66 1675.23,-75.52"/>
<polygon fill="midnightblue" stroke="midnightblue" points="1787.05,-112.91 1797.64,-112.44 1789.07,-106.2 1787.05,-112.91"/>
</g>
<!-- Node247 -->
<g id="node23" class="node">
<title>Node247</title>
<g id="a_node23"><a xlink:href="_density_source_8_h.html" target="_top" xlink:title=" ">
<polygon fill="white" stroke="red" points="1700,-56.5 1700,-75.5 1798,-75.5 1798,-56.5 1700,-56.5"/>
<text text-anchor="middle" x="1749" y="-63.5" font-family="Helvetica,sans-Serif" font-size="10.00">DensitySource.H</text>
</a>
</g>
</g>
<!-- Node2&#45;&gt;Node247 -->
<g id="edge23" class="edge">
<title>Node2&#45;&gt;Node247</title>
<path fill="none" stroke="midnightblue" d="M1805.1,-106.34C1791.09,-96.52 1773.12,-83.91 1761.34,-75.65"/>
<polygon fill="midnightblue" stroke="midnightblue" points="1803.43,-109.45 1813.63,-112.32 1807.45,-103.72 1803.43,-109.45"/>
</g>
<!-- Node248 -->
<g id="node24" class="node">
<title>Node248</title>
<g id="a_node24"><a xlink:href="_momentum_source_8_h.html" target="_top" xlink:title=" ">
<polygon fill="white" stroke="red" points="1968,-56.5 1968,-75.5 2084,-75.5 2084,-56.5 1968,-56.5"/>
<text text-anchor="middle" x="2026" y="-63.5" font-family="Helvetica,sans-Serif" font-size="10.00">MomentumSource.H</text>
</a>
</g>
</g>
<!-- Node2&#45;&gt;Node248 -->
<g id="edge24" class="edge">
<title>Node2&#45;&gt;Node248</title>
<path fill="none" stroke="midnightblue" d="M1867.37,-109.83C1905.14,-99.63 1960.14,-84.78 1994.46,-75.52"/>
<polygon fill="midnightblue" stroke="midnightblue" points="1866.43,-106.46 1857.69,-112.44 1868.26,-113.22 1866.43,-106.46"/>
</g>
<!-- Node163 -->
<g id="node25" class="node">
<title>Node163</title>
<g id="a_node25"><a xlink:href="_a_b_l_mean_boussinesq_8_h.html" target="_top" xlink:title=" ">
<polygon fill="white" stroke="red" points="1541,-0.5 1541,-19.5 1669,-19.5 1669,-0.5 1541,-0.5"/>
<text text-anchor="middle" x="1605" y="-7.5" font-family="Helvetica,sans-Serif" font-size="10.00">ABLMeanBoussinesq.H</text>
</a>
</g>
</g>
<!-- Node2&#45;&gt;Node163 -->
<g id="edge32" class="edge">
<title>Node2&#45;&gt;Node163</title>
<path fill="none" stroke="midnightblue" d="M1825.45,-102.04C1823.99,-87.43 1819.59,-67.8 1807,-56 1795.95,-45.65 1711.94,-29.43 1655.79,-19.55"/>
<polygon fill="midnightblue" stroke="midnightblue" points="1821.98,-102.67 1826.09,-112.43 1828.97,-102.23 1821.98,-102.67"/>
</g>
<!-- Node252 -->
<g id="node26" class="node">
<title>Node252</title>
<g id="a_node26"><a xlink:href="_boussinesq_buoyancy_8_h.html" target="_top" xlink:title=" ">
<polygon fill="white" stroke="red" points="1687.5,-0.5 1687.5,-19.5 1816.5,-19.5 1816.5,-0.5 1687.5,-0.5"/>
<text text-anchor="middle" x="1752" y="-7.5" font-family="Helvetica,sans-Serif" font-size="10.00">BoussinesqBuoyancy.H</text>
</a>
</g>
</g>
<!-- Node2&#45;&gt;Node252 -->
<g id="edge33" class="edge">
<title>Node2&#45;&gt;Node252</title>
<path fill="none" stroke="midnightblue" d="M1836.34,-103.4C1842.97,-89.62 1848.82,-70.42 1840,-56 1828.63,-37.41 1806.88,-26.19 1787.85,-19.6"/>
<polygon fill="midnightblue" stroke="midnightblue" points="1833.2,-101.87 1831.58,-112.34 1839.37,-105.16 1833.2,-101.87"/>
</g>
<!-- Node254 -->
<g id="node27" class="node">
<title>Node254</title>
<g id="a_node27"><a xlink:href="_coriolis_forcing_8_h.html" target="_top" xlink:title=" ">
<polygon fill="white" stroke="red" points="1834.5,-0.5 1834.5,-19.5 1933.5,-19.5 1933.5,-0.5 1834.5,-0.5"/>
<text text-anchor="middle" x="1884" y="-7.5" font-family="Helvetica,sans-Serif" font-size="10.00">CoriolisForcing.H</text>
</a>
</g>
</g>
<!-- Node2&#45;&gt;Node254 -->
<g id="edge34" class="edge">
<title>Node2&#45;&gt;Node254</title>
<path fill="none" stroke="midnightblue" d="M1849.65,-106.63C1860.17,-98.92 1871.6,-88.44 1878,-76 1887.43,-57.66 1886.48,-32.54 1885.15,-19.56"/>
<polygon fill="midnightblue" stroke="midnightblue" points="1847.43,-103.9 1841.15,-112.44 1851.38,-109.68 1847.43,-103.9"/>
</g>
<!-- Node255 -->
<g id="node28" class="node">
<title>Node255</title>
<g id="a_node28"><a xlink:href="_density_buoyancy_8_h.html" target="_top" xlink:title=" ">
<polygon fill="white" stroke="red" points="1951.5,-0.5 1951.5,-19.5 2062.5,-19.5 2062.5,-0.5 1951.5,-0.5"/>
<text text-anchor="middle" x="2007" y="-7.5" font-family="Helvetica,sans-Serif" font-size="10.00">DensityBuoyancy.H</text>
</a>
</g>
</g>
<!-- Node2&#45;&gt;Node255 -->
<g id="edge35" class="edge">
<title>Node2&#45;&gt;Node255</title>
<path fill="none" stroke="midnightblue" d="M1849.02,-107.01C1887.02,-83.92 1961.73,-38.51 1992.86,-19.59"/>
<polygon fill="midnightblue" stroke="midnightblue" points="1846.93,-104.18 1840.2,-112.37 1850.57,-110.17 1846.93,-104.18"/>
</g>
<!-- Node257 -->
<g id="node29" class="node">
<title>Node257</title>
<g id="a_node29"><a xlink:href="_gravity_forcing_8_h.html" target="_top" xlink:title=" ">
<polygon fill="white" stroke="red" points="2081,-0.5 2081,-19.5 2179,-19.5 2179,-0.5 2081,-0.5"/>
<text text-anchor="middle" x="2130" y="-7.5" font-family="Helvetica,sans-Serif" font-size="10.00">GravityForcing.H</text>
</a>
</g>
</g>
<!-- Node2&#45;&gt;Node257 -->
<g id="edge36" class="edge">
<title>Node2&#45;&gt;Node257</title>
<path fill="none" stroke="midnightblue" d="M1873.86,-117.83C1940.88,-112.59 2058.4,-100.19 2093,-76 2112.79,-62.16 2123.36,-34.12 2127.65,-19.82"/>
<polygon fill="midnightblue" stroke="midnightblue" points="1873.26,-114.37 1863.56,-118.62 1873.79,-121.35 1873.26,-114.37"/>
</g>
<!-- Node164 -->
<g id="node30" class="node">
<title>Node164</title>
<g id="a_node30"><a xlink:href="_hurricane_forcing_8_h.html" target="_top" xlink:title=" ">
<polygon fill="white" stroke="red" points="2197,-0.5 2197,-19.5 2307,-19.5 2307,-0.5 2197,-0.5"/>
<text text-anchor="middle" x="2252" y="-7.5" font-family="Helvetica,sans-Serif" font-size="10.00">HurricaneForcing.H</text>
</a>
</g>
</g>
<!-- Node2&#45;&gt;Node164 -->
<g id="edge37" class="edge">
<title>Node2&#45;&gt;Node164</title>
<path fill="none" stroke="midnightblue" d="M1873.72,-117.8C1931.8,-112.95 2032.37,-101.45 2115,-76 2161.8,-61.59 2212.91,-33.81 2237.37,-19.69"/>
<polygon fill="midnightblue" stroke="midnightblue" points="1873.41,-114.31 1863.73,-118.61 1873.98,-121.29 1873.41,-114.31"/>
</g>
<!-- Node260 -->
<g id="node31" class="node">
<title>Node260</title>
<g id="a_node31"><a xlink:href="_m_m_s_forcing_8_h.html" target="_top" xlink:title=" ">
<polygon fill="white" stroke="red" points="2325,-0.5 2325,-19.5 2411,-19.5 2411,-0.5 2325,-0.5"/>
<text text-anchor="middle" x="2368" y="-7.5" font-family="Helvetica,sans-Serif" font-size="10.00">MMSForcing.H</text>
</a>
</g>
</g>
<!-- Node2&#45;&gt;Node260 -->
<g id="edge58" class="edge">
<title>Node2&#45;&gt;Node260</title>
<path fill="none" stroke="midnightblue" d="M1874.18,-117.79C1938.7,-112.72 2056.37,-100.78 2154,-76 2178.4,-69.81 2183.08,-63.84 2207,-56 2250.44,-41.76 2301.37,-28.01 2334.13,-19.54"/>
<polygon fill="midnightblue" stroke="midnightblue" points="1873.62,-114.32 1863.91,-118.57 1874.15,-121.3 1873.62,-114.32"/>
</g>
<!-- Node261 -->
<g id="node32" class="node">
<title>Node261</title>
<g id="a_node32"><a xlink:href="_p_d_e_helpers_8_h.html" target="_top" xlink:title=" ">
<polygon fill="white" stroke="red" points="360,-56.5 360,-75.5 444,-75.5 444,-56.5 360,-56.5"/>
<text text-anchor="middle" x="402" y="-63.5" font-family="Helvetica,sans-Serif" font-size="10.00">PDEHelpers.H</text>
</a>
</g>
</g>
<!-- Node2&#45;&gt;Node261 -->
<g id="edge39" class="edge">
<title>Node2&#45;&gt;Node261</title>
<path fill="none" stroke="midnightblue" d="M1778.17,-120.24C1567.65,-116.77 722.3,-101.48 458,-76 453.49,-75.57 448.79,-75 444.12,-74.36"/>
<polygon fill="midnightblue" stroke="midnightblue" points="1778.23,-123.74 1788.28,-120.41 1778.34,-116.74 1778.23,-123.74"/>
</g>
<!-- Node262 -->
<g id="node33" class="node">
<title>Node262</title>
<g id="a_node33"><a xlink:href="_s_d_r_source_8_h.html" target="_top" xlink:title=" ">
<polygon fill="white" stroke="red" points="2216,-56.5 2216,-75.5 2296,-75.5 2296,-56.5 2216,-56.5"/>
<text text-anchor="middle" x="2256" y="-63.5" font-family="Helvetica,sans-Serif" font-size="10.00">SDRSource.H</text>
</a>
</g>
</g>
<!-- Node2&#45;&gt;Node262 -->
<g id="edge41" class="edge">
<title>Node2&#45;&gt;Node262</title>
<path fill="none" stroke="midnightblue" d="M1873.75,-116C1945.24,-108.35 2084.3,-92.84 2202,-76 2206.52,-75.35 2211.24,-74.63 2215.93,-73.89"/>
<polygon fill="midnightblue" stroke="midnightblue" points="1873.27,-112.53 1863.7,-117.07 1874.01,-119.49 1873.27,-112.53"/>
</g>
<!-- Node264 -->
<g id="node34" class="node">
<title>Node264</title>
<g id="a_node34"><a xlink:href="_source_term_8_h.html" target="_top" xlink:title=" ">
<polygon fill="white" stroke="red" points="2314,-56.5 2314,-75.5 2398,-75.5 2398,-56.5 2314,-56.5"/>
<text text-anchor="middle" x="2356" y="-63.5" font-family="Helvetica,sans-Serif" font-size="10.00">SourceTerm.H</text>
</a>
</g>
</g>
<!-- Node2&#45;&gt;Node264 -->
<g id="edge42" class="edge">
<title>Node2&#45;&gt;Node264</title>
<path fill="none" stroke="midnightblue" d="M1873.7,-117.8C1960,-111.74 2147.71,-97.23 2305,-76 2307.85,-75.62 2310.79,-75.19 2313.74,-74.73"/>
<polygon fill="midnightblue" stroke="midnightblue" points="1873.42,-114.32 1863.69,-118.5 1873.91,-121.3 1873.42,-114.32"/>
</g>
<!-- Node265 -->
<g id="node35" class="node">
<title>Node265</title>
<g id="a_node35"><a xlink:href="_temperature_source_8_h.html" target="_top" xlink:title=" ">
<polygon fill="white" stroke="red" points="2416,-56.5 2416,-75.5 2538,-75.5 2538,-56.5 2416,-56.5"/>
<text text-anchor="middle" x="2477" y="-63.5" font-family="Helvetica,sans-Serif" font-size="10.00">TemperatureSource.H</text>
</a>
</g>
</g>
<!-- Node2&#45;&gt;Node265 -->
<g id="edge43" class="edge">
<title>Node2&#45;&gt;Node265</title>
<path fill="none" stroke="midnightblue" d="M1873.82,-118.12C1973.24,-111.94 2209.44,-96.34 2407,-76 2409.93,-75.7 2412.92,-75.38 2415.94,-75.04"/>
<polygon fill="midnightblue" stroke="midnightblue" points="1873.55,-114.63 1863.78,-118.74 1873.98,-121.61 1873.55,-114.63"/>
</g>
<!-- Node266 -->
<g id="node36" class="node">
<title>Node266</title>
<g id="a_node36"><a xlink:href="_t_k_e_source_8_h.html" target="_top" xlink:title=" ">
<polygon fill="white" stroke="red" points="2556.5,-56.5 2556.5,-75.5 2635.5,-75.5 2635.5,-56.5 2556.5,-56.5"/>
<text text-anchor="middle" x="2596" y="-63.5" font-family="Helvetica,sans-Serif" font-size="10.00">TKESource.H</text>
</a>
</g>
</g>
<!-- Node2&#45;&gt;Node266 -->
<g id="edge44" class="edge">
<title>Node2&#45;&gt;Node266</title>
<path fill="none" stroke="midnightblue" d="M1873.98,-119.98C1989.98,-117.09 2294.7,-106.93 2547,-76 2550.09,-75.62 2553.28,-75.17 2556.48,-74.68"/>
<polygon fill="midnightblue" stroke="midnightblue" points="1873.59,-116.49 1863.68,-120.23 1873.76,-123.49 1873.59,-116.49"/>
</g>
<!-- Node270 -->
<g id="node37" class="node">
<title>Node270</title>
<g id="a_node37"><a xlink:href="_split_advection_8_h.html" target="_top" xlink:title=" ">
<polygon fill="white" stroke="red" points="2653,-56.5 2653,-75.5 2751,-75.5 2751,-56.5 2653,-56.5"/>
<text text-anchor="middle" x="2702" y="-63.5" font-family="Helvetica,sans-Serif" font-size="10.00">SplitAdvection.H</text>
</a>
</g>
</g>
<!-- Node2&#45;&gt;Node270 -->
<g id="edge45" class="edge">
<title>Node2&#45;&gt;Node270</title>
<path fill="none" stroke="midnightblue" d="M1873.77,-120.07C2000.04,-117.25 2353,-106.99 2645,-76 2647.59,-75.73 2650.24,-75.41 2652.92,-75.07"/>
<polygon fill="midnightblue" stroke="midnightblue" points="1873.58,-116.58 1863.66,-120.29 1873.73,-123.57 1873.58,-116.58"/>
</g>
<!-- Node272 -->
<g id="node38" class="node">
<title>Node272</title>
<g id="a_node38"><a xlink:href="vof__hybridsolver__ops_8_h.html" target="_top" xlink:title=" ">
<polygon fill="white" stroke="red" points="2769.5,-56.5 2769.5,-75.5 2900.5,-75.5 2900.5,-56.5 2769.5,-56.5"/>
<text text-anchor="middle" x="2835" y="-63.5" font-family="Helvetica,sans-Serif" font-size="10.00">vof_hybridsolver_ops.H</text>
</a>
</g>
</g>
<!-- Node2&#45;&gt;Node272 -->
<g id="edge46" class="edge">
<title>Node2&#45;&gt;Node272</title>
<path fill="none" stroke="midnightblue" d="M1874.11,-119.89C2012.16,-116.45 2421.42,-104.44 2760,-76 2763.01,-75.75 2766.08,-75.47 2769.18,-75.17"/>
<polygon fill="midnightblue" stroke="midnightblue" points="1873.79,-116.4 1863.88,-120.14 1873.96,-123.4 1873.79,-116.4"/>
</g>
<!-- Node273 -->
<g id="node39" class="node">
<title>Node273</title>
<g id="a_node39"><a xlink:href="fvm__utils_8_h.html" target="_top" xlink:title=" ">
<polygon fill="white" stroke="red" points="2918.5,-56.5 2918.5,-75.5 2991.5,-75.5 2991.5,-56.5 2918.5,-56.5"/>
<text text-anchor="middle" x="2955" y="-63.5" font-family="Helvetica,sans-Serif" font-size="10.00">fvm_utils.H</text>
</a>
</g>
</g>
<!-- Node2&#45;&gt;Node273 -->
<g id="edge47" class="edge">
<title>Node2&#45;&gt;Node273</title>
<path fill="none" stroke="midnightblue" d="M1873.64,-120.01C2055.34,-116.09 2704.88,-100.62 2910,-76 2912.69,-75.68 2915.46,-75.28 2918.24,-74.84"/>
<polygon fill="midnightblue" stroke="midnightblue" points="1873.52,-116.51 1863.59,-120.23 1873.67,-123.51 1873.52,-116.51"/>
</g>
<!-- Node284 -->
<g id="node40" class="node">
<title>Node284</title>
<g id="a_node40"><a xlink:href="_i_b_8_h.html" target="_top" xlink:title=" ">
<polygon fill="white" stroke="red" points="500.5,-56.5 500.5,-75.5 537.5,-75.5 537.5,-56.5 500.5,-56.5"/>
<text text-anchor="middle" x="519" y="-63.5" font-family="Helvetica,sans-Serif" font-size="10.00">IB.H</text>
</a>
</g>
</g>
<!-- Node2&#45;&gt;Node284 -->
<g id="edge49" class="edge">
<title>Node2&#45;&gt;Node284</title>
<path fill="none" stroke="midnightblue" d="M1778.15,-120.79C1576.5,-119.66 795.17,-112.95 552,-76 547.3,-75.29 542.32,-74.14 537.69,-72.9"/>
<polygon fill="midnightblue" stroke="midnightblue" points="1778.39,-124.29 1788.41,-120.84 1778.43,-117.29 1778.39,-124.29"/>
</g>
<!-- Node285 -->
<g id="node41" class="node">
<title>Node285</title>
<g id="a_node41"><a xlink:href="_ocean_waves_8_h.html" target="_top" xlink:title=" ">
<polygon fill="white" stroke="red" points="792,-56.5 792,-75.5 882,-75.5 882,-56.5 792,-56.5"/>
<text text-anchor="middle" x="837" y="-63.5" font-family="Helvetica,sans-Serif" font-size="10.00">OceanWaves.H</text>
</a>
</g>
</g>
<!-- Node2&#45;&gt;Node285 -->
<g id="edge53" class="edge">
<title>Node2&#45;&gt;Node285</title>
<path fill="none" stroke="midnightblue" d="M1778.05,-120.42C1640.46,-118.39 1232.64,-109.73 896,-76 891.46,-75.55 886.74,-74.98 882.04,-74.36"/>
<polygon fill="midnightblue" stroke="midnightblue" points="1778.2,-123.92 1788.25,-120.57 1778.3,-116.92 1778.2,-123.92"/>
</g>
<!-- Node66 -->
<g id="node42" class="node">
<title>Node66</title>
<g id="a_node42"><a xlink:href="hos__waves__ops_8_h.html" target="_top" xlink:title=" ">
<polygon fill="white" stroke="red" points="925,-0.5 925,-19.5 1029,-19.5 1029,-0.5 925,-0.5"/>
<text text-anchor="middle" x="977" y="-7.5" font-family="Helvetica,sans-Serif" font-size="10.00">hos_waves_ops.H</text>
</a>
</g>
</g>
<!-- Node2&#45;&gt;Node66 -->
<g id="edge56" class="edge">
<title>Node2&#45;&gt;Node66</title>
<path fill="none" stroke="midnightblue" d="M1778.27,-120.41C1596.79,-117.92 958.48,-107 929,-76 911.4,-57.5 943.09,-32.45 962.88,-19.52"/>
<polygon fill="midnightblue" stroke="midnightblue" points="1778.26,-123.91 1788.31,-120.54 1778.36,-116.91 1778.26,-123.91"/>
</g>
<!-- Node286 -->
<g id="node43" class="node">
<title>Node286</title>
<g id="a_node43"><a xlink:href="hydrostatic__ops_8_h.html" target="_top" xlink:title=" ">
<polygon fill="white" stroke="red" points="3010,-56.5 3010,-75.5 3114,-75.5 3114,-56.5 3010,-56.5"/>
<text text-anchor="middle" x="3062" y="-63.5" font-family="Helvetica,sans-Serif" font-size="10.00">hydrostatic_ops.H</text>
</a>
</g>
</g>
<!-- Node2&#45;&gt;Node286 -->
<g id="edge59" class="edge">
<title>Node2&#45;&gt;Node286</title>
<path fill="none" stroke="midnightblue" d="M1874.09,-121.02C2034.37,-120.69 2564.84,-116.41 3001,-76 3003.88,-75.73 3006.83,-75.42 3009.8,-75.08"/>
<polygon fill="midnightblue" stroke="midnightblue" points="1873.63,-117.52 1863.64,-121.04 1873.64,-124.52 1873.63,-117.52"/>
</g>
<!-- Node38 -->
<g id="node44" class="node">
<title>Node38</title>
<g id="a_node44"><a xlink:href="_burggraf_lid_8cpp.html" target="_top" xlink:title=" ">
<polygon fill="white" stroke="black" points="3132.5,-56.5 3132.5,-75.5 3225.5,-75.5 3225.5,-56.5 3132.5,-56.5"/>
<text text-anchor="middle" x="3179" y="-63.5" font-family="Helvetica,sans-Serif" font-size="10.00">BurggrafLid.cpp</text>
</a>
</g>
</g>
<!-- Node2&#45;&gt;Node38 -->
<g id="edge60" class="edge">
<title>Node2&#45;&gt;Node38</title>
<path fill="none" stroke="midnightblue" d="M1873.64,-121.49C2043.71,-122.76 2636.75,-123.32 3123,-76 3126.04,-75.7 3129.16,-75.35 3132.31,-74.95"/>
<polygon fill="midnightblue" stroke="midnightblue" points="1873.55,-117.98 1863.52,-121.4 1873.49,-124.98 1873.55,-117.98"/>
</g>
<!-- Node287 -->
<g id="node45" class="node">
<title>Node287</title>
<g id="a_node45"><a xlink:href="_linear_profile_8cpp.html" target="_top" xlink:title=" ">
<polygon fill="white" stroke="black" points="3244,-56.5 3244,-75.5 3342,-75.5 3342,-56.5 3244,-56.5"/>
<text text-anchor="middle" x="3293" y="-63.5" font-family="Helvetica,sans-Serif" font-size="10.00">LinearProfile.cpp</text>
</a>
</g>
</g>
<!-- Node2&#45;&gt;Node287 -->
<g id="edge61" class="edge">
<title>Node2&#45;&gt;Node287</title>
<path fill="none" stroke="midnightblue" d="M1873.84,-120.26C2088.24,-116.81 2962.11,-101.43 3235,-76 3237.84,-75.74 3240.75,-75.42 3243.69,-75.07"/>
<polygon fill="midnightblue" stroke="midnightblue" points="1873.49,-116.76 1863.55,-120.42 1873.6,-123.76 1873.49,-116.76"/>
</g>
<!-- Node39 -->
<g id="node46" class="node">
<title>Node39</title>
<g id="a_node46"><a xlink:href="_power_law_profile_8cpp.html" target="_top" xlink:title=" ">
<polygon fill="white" stroke="black" points="3360.5,-56.5 3360.5,-75.5 3477.5,-75.5 3477.5,-56.5 3360.5,-56.5"/>
<text text-anchor="middle" x="3419" y="-63.5" font-family="Helvetica,sans-Serif" font-size="10.00">PowerLawProfile.cpp</text>
</a>
</g>
</g>
<!-- Node2&#45;&gt;Node39 -->
<g id="edge62" class="edge">
<title>Node2&#45;&gt;Node39</title>
<path fill="none" stroke="midnightblue" d="M1873.62,-121.36C2061.61,-122.42 2770.26,-122.88 3351,-76 3354.09,-75.75 3357.25,-75.46 3360.44,-75.14"/>
<polygon fill="midnightblue" stroke="midnightblue" points="1873.54,-117.86 1863.52,-121.3 1873.5,-124.86 1873.54,-117.86"/>
</g>
<!-- Node288 -->
<g id="node47" class="node">
<title>Node288</title>
<g id="a_node47"><a xlink:href="_u_d_f_8cpp.html" target="_top" xlink:title=" ">
<polygon fill="white" stroke="black" points="3496,-56.5 3496,-75.5 3552,-75.5 3552,-56.5 3496,-56.5"/>
<text text-anchor="middle" x="3524" y="-63.5" font-family="Helvetica,sans-Serif" font-size="10.00">UDF.cpp</text>
</a>
</g>
</g>
<!-- Node2&#45;&gt;Node288 -->
<g id="edge63" class="edge">
<title>Node2&#45;&gt;Node288</title>
<path fill="none" stroke="midnightblue" d="M1873.77,-121.07C2110.91,-121.2 3162.99,-119.3 3487,-76 3489.88,-75.61 3492.87,-75.1 3495.84,-74.5"/>
<polygon fill="midnightblue" stroke="midnightblue" points="1873.75,-117.57 1863.74,-121.06 1873.74,-124.57 1873.75,-117.57"/>
</g>
<!-- Node289 -->
<g id="node48" class="node">
<title>Node289</title>
<g id="a_node48"><a xlink:href="_transport_model_8_h.html" target="_top" xlink:title=" ">
<polygon fill="white" stroke="red" points="3570,-56.5 3570,-75.5 3672,-75.5 3672,-56.5 3570,-56.5"/>
<text text-anchor="middle" x="3621" y="-63.5" font-family="Helvetica,sans-Serif" font-size="10.00">TransportModel.H</text>
</a>
</g>
</g>
<!-- Node2&#45;&gt;Node289 -->
<g id="edge65" class="edge">
<title>Node2&#45;&gt;Node289</title>
<path fill="none" stroke="midnightblue" d="M1873.84,-120.56C2117.24,-118.17 3219.94,-105.89 3561,-76 3563.94,-75.74 3566.95,-75.43 3569.99,-75.09"/>
<polygon fill="midnightblue" stroke="midnightblue" points="1873.52,-117.06 1863.56,-120.66 1873.59,-124.06 1873.52,-117.06"/>
</g>
<!-- Node103 -->
<g id="node49" class="node">
<title>Node103</title>
<g id="a_node49"><a xlink:href="_a_m_d_8_h.html" target="_top" xlink:title=" ">
<polygon fill="white" stroke="red" points="3690,-56.5 3690,-75.5 3740,-75.5 3740,-56.5 3690,-56.5"/>
<text text-anchor="middle" x="3715" y="-63.5" font-family="Helvetica,sans-Serif" font-size="10.00">AMD.H</text>
</a>
</g>
</g>
<!-- Node2&#45;&gt;Node103 -->
<g id="edge66" class="edge">
<title>Node2&#45;&gt;Node103</title>
<path fill="none" stroke="midnightblue" d="M1874.1,-120.51C2147.26,-117.62 3497.68,-102.12 3681,-76 3683.9,-75.59 3686.91,-75.01 3689.88,-74.35"/>
<polygon fill="midnightblue" stroke="midnightblue" points="1873.69,-117.01 1863.73,-120.62 1873.77,-124.01 1873.69,-117.01"/>
</g>
<!-- Node105 -->
<g id="node50" class="node">
<title>Node105</title>
<g id="a_node50"><a xlink:href="_a_m_d_no_therm_8_h.html" target="_top" xlink:title=" ">
<polygon fill="white" stroke="red" points="3758.5,-56.5 3758.5,-75.5 3853.5,-75.5 3853.5,-56.5 3758.5,-56.5"/>
<text text-anchor="middle" x="3806" y="-63.5" font-family="Helvetica,sans-Serif" font-size="10.00">AMDNoTherm.H</text>
</a>
</g>
</g>
<!-- Node2&#45;&gt;Node105 -->
<g id="edge67" class="edge">
<title>Node2&#45;&gt;Node105</title>
<path fill="none" stroke="midnightblue" d="M1873.95,-120.74C2133.1,-119.23 3368.67,-110.32 3749,-76 3752.09,-75.72 3755.27,-75.38 3758.47,-74.99"/>
<polygon fill="midnightblue" stroke="midnightblue" points="1873.72,-117.25 1863.74,-120.8 1873.76,-124.25 1873.72,-117.25"/>
</g>
<!-- Node4&#45;&gt;Node3 -->
<g id="edge4" class="edge">
<title>Node4&#45;&gt;Node3</title>
<path fill="none" stroke="midnightblue" d="M3950.98,-47.86C3943.88,-38.5 3935.4,-27.33 3929.64,-19.75"/>
<polygon fill="midnightblue" stroke="midnightblue" points="3948.39,-50.24 3957.23,-56.08 3953.97,-46 3948.39,-50.24"/>
</g>
<!-- Node9&#45;&gt;Node61 -->
<g id="edge7" class="edge">
<title>Node9&#45;&gt;Node61</title>
<path fill="none" stroke="midnightblue" d="M583.99,-55.63C537.26,-45.46 463.26,-29.35 418.12,-19.52"/>
<polygon fill="midnightblue" stroke="midnightblue" points="583.3,-59.07 593.81,-57.77 584.78,-52.23 583.3,-59.07"/>
</g>
<!-- Node9&#45;&gt;Node77 -->
<g id="edge8" class="edge">
<title>Node9&#45;&gt;Node77</title>
<path fill="none" stroke="midnightblue" d="M590.78,-53.22C558.59,-42.75 512.47,-27.74 484.76,-18.73"/>
<polygon fill="midnightblue" stroke="midnightblue" points="590.1,-56.68 600.7,-56.44 592.27,-50.02 590.1,-56.68"/>
</g>
<!-- Node9&#45;&gt;Node88 -->
<g id="edge9" class="edge">
<title>Node9&#45;&gt;Node88</title>
<path fill="none" stroke="midnightblue" d="M602.41,-51.45C584.32,-41.48 560.27,-28.23 544.71,-19.65"/>
<polygon fill="midnightblue" stroke="midnightblue" points="600.81,-54.56 611.25,-56.32 604.19,-48.43 600.81,-54.56"/>
</g>
<!-- Node9&#45;&gt;Node116 -->
<g id="edge10" class="edge">
<title>Node9&#45;&gt;Node116</title>
<path fill="none" stroke="midnightblue" d="M670.42,-54.81C713.79,-44.62 779.71,-29.15 820.47,-19.58"/>
<polygon fill="midnightblue" stroke="midnightblue" points="669.38,-51.45 660.44,-57.15 670.98,-58.27 669.38,-51.45"/>
</g>
<!-- Node9&#45;&gt;Node125 -->
<g id="edge11" class="edge">
<title>Node9&#45;&gt;Node125</title>
<path fill="none" stroke="midnightblue" d="M627,-45.8C627,-36.91 627,-26.78 627,-19.75"/>
<polygon fill="midnightblue" stroke="midnightblue" points="623.5,-46.08 627,-56.08 630.5,-46.08 623.5,-46.08"/>
</g>
<!-- Node9&#45;&gt;Node152 -->
<g id="edge12" class="edge">
<title>Node9&#45;&gt;Node152</title>
<path fill="none" stroke="midnightblue" d="M654.66,-52.23C676.55,-42.13 706.5,-28.31 725.55,-19.52"/>
<polygon fill="midnightblue" stroke="midnightblue" points="653.15,-49.08 645.54,-56.44 656.09,-55.43 653.15,-49.08"/>
</g>
<!-- Node248&#45;&gt;Node163 -->
<g id="edge25" class="edge">
<title>Node248&#45;&gt;Node163</title>
<path fill="none" stroke="midnightblue" d="M1957.96,-56.27C1878.2,-46.04 1747.03,-29.22 1669.04,-19.21"/>
<polygon fill="midnightblue" stroke="midnightblue" points="1957.54,-59.75 1967.9,-57.55 1958.43,-52.8 1957.54,-59.75"/>
</g>
<!-- Node248&#45;&gt;Node252 -->
<g id="edge26" class="edge">
<title>Node248&#45;&gt;Node252</title>
<path fill="none" stroke="midnightblue" d="M1972.59,-54.47C1920.8,-44.27 1843.23,-28.98 1795.21,-19.52"/>
<polygon fill="midnightblue" stroke="midnightblue" points="1972.1,-57.94 1982.58,-56.44 1973.45,-51.08 1972.1,-57.94"/>
</g>
<!-- Node248&#45;&gt;Node254 -->
<g id="edge27" class="edge">
<title>Node248&#45;&gt;Node254</title>
<path fill="none" stroke="midnightblue" d="M1993.84,-52.77C1967.17,-42.63 1929.93,-28.47 1906.4,-19.52"/>
<polygon fill="midnightblue" stroke="midnightblue" points="1992.91,-56.16 2003.5,-56.44 1995.4,-49.62 1992.91,-56.16"/>
</g>
<!-- Node248&#45;&gt;Node255 -->
<g id="edge28" class="edge">
<title>Node248&#45;&gt;Node255</title>
<path fill="none" stroke="midnightblue" d="M2019.45,-46.4C2016.28,-37.36 2012.61,-26.94 2010.08,-19.75"/>
<polygon fill="midnightblue" stroke="midnightblue" points="2016.24,-47.81 2022.86,-56.08 2022.85,-45.49 2016.24,-47.81"/>
</g>
<!-- Node248&#45;&gt;Node257 -->
<g id="edge29" class="edge">
<title>Node248&#45;&gt;Node257</title>
<path fill="none" stroke="midnightblue" d="M2051.83,-51.59C2071.06,-41.61 2096.74,-28.27 2113.33,-19.65"/>
<polygon fill="midnightblue" stroke="midnightblue" points="2049.97,-48.61 2042.71,-56.32 2053.2,-54.82 2049.97,-48.61"/>
</g>
<!-- Node248&#45;&gt;Node164 -->
<g id="edge30" class="edge">
<title>Node248&#45;&gt;Node164</title>
<path fill="none" stroke="midnightblue" d="M2071.67,-54.09C2114.36,-43.89 2177.25,-28.86 2216.36,-19.52"/>
<polygon fill="midnightblue" stroke="midnightblue" points="2070.72,-50.72 2061.81,-56.44 2072.35,-57.52 2070.72,-50.72"/>
</g>
<!-- Node248&#45;&gt;Node260 -->
<g id="edge31" class="edge">
<title>Node248&#45;&gt;Node260</title>
<path fill="none" stroke="midnightblue" d="M2092.63,-55C2151.45,-46.09 2239.48,-32.56 2316,-20 2318.89,-19.53 2321.88,-19.03 2324.88,-18.52"/>
<polygon fill="midnightblue" stroke="midnightblue" points="2092.09,-51.54 2082.73,-56.5 2093.14,-58.46 2092.09,-51.54"/>
</g>
<!-- Node261&#45;&gt;Node61 -->
<g id="edge40" class="edge">
<title>Node261&#45;&gt;Node61</title>
<path fill="none" stroke="midnightblue" d="M394.2,-46.69C390.32,-37.59 385.82,-27.01 382.73,-19.75"/>
<polygon fill="midnightblue" stroke="midnightblue" points="391.06,-48.25 398.2,-56.08 397.5,-45.51 391.06,-48.25"/>
</g>
<!-- Node284&#45;&gt;Node77 -->
<g id="edge50" class="edge">
<title>Node284&#45;&gt;Node77</title>
<path fill="none" stroke="midnightblue" d="M502.09,-49.25C491.8,-39.67 479.03,-27.79 470.49,-19.83"/>
<polygon fill="midnightblue" stroke="midnightblue" points="499.98,-52.07 509.68,-56.32 504.75,-46.95 499.98,-52.07"/>
</g>
<!-- Node285&#45;&gt;Node116 -->
<g id="edge54" class="edge">
<title>Node285&#45;&gt;Node116</title>
<path fill="none" stroke="midnightblue" d="M843.78,-46.69C847.15,-37.59 851.07,-27.01 853.76,-19.75"/>
<polygon fill="midnightblue" stroke="midnightblue" points="840.49,-45.49 840.3,-56.08 847.06,-47.92 840.49,-45.49"/>
</g>
<!-- Node285&#45;&gt;Node66 -->
<g id="edge55" class="edge">
<title>Node285&#45;&gt;Node66</title>
<path fill="none" stroke="midnightblue" d="M868.7,-52.77C895,-42.63 931.72,-28.47 954.92,-19.52"/>
<polygon fill="midnightblue" stroke="midnightblue" points="867.25,-49.58 859.18,-56.44 869.77,-56.11 867.25,-49.58"/>
</g>
</g>
</svg>
        <g id="navigator" transform="translate(0 0)" fill="#404254">
                <rect fill="#f2f5e9" fill-opacity="0.5" stroke="#606060" stroke-width=".5" x="0" y="0" width="60" height="60"/>
                <use id="zoomplus" xlink:href="#zoomPlus" x="17" y="9" onmousedown="handleZoom(evt,'in')"/>
                <use id="zoomminus" xlink:href="#zoomMin" x="42" y="9" onmousedown="handleZoom(evt,'out')"/>
                <use id="reset" xlink:href="#resetDef" x="30" y="36" onmousedown="handleReset()"/>
                <g id="arrowUp" xlink:href="#dirArrow" transform="translate(30 24)" onmousedown="handlePan(0,-1)">
                  <use xlink:href="#rim" fill="#404040">
                        <set attributeName="fill" to="#808080" begin="arrowUp.mouseover" end="arrowUp.mouseout"/>
                  </use>
                  <path fill="none" stroke="white" stroke-width="1.5" d="M0,-3.0v7 M-2.5,-0.5L0,-3.0L2.5,-0.5"/>
                </g>
                <g id="arrowRight" xlink:href="#dirArrow" transform="rotate(90) translate(36 -43)" onmousedown="handlePan(1,0)">
                  <use xlink:href="#rim" fill="#404040">
                        <set attributeName="fill" to="#808080" begin="arrowRight.mouseover" end="arrowRight.mouseout"/>
                  </use>
                  <path fill="none" stroke="white" stroke-width="1.5" d="M0,-3.0v7 M-2.5,-0.5L0,-3.0L2.5,-0.5"/>
                </g>
                <g id="arrowDown" xlink:href="#dirArrow" transform="rotate(180) translate(-30 -48)" onmousedown="handlePan(0,1)">
                  <use xlink:href="#rim" fill="#404040">
                        <set attributeName="fill" to="#808080" begin="arrowDown.mouseover" end="arrowDown.mouseout"/>
                  </use>
                  <path fill="none" stroke="white" stroke-width="1.5" d="M0,-3.0v7 M-2.5,-0.5L0,-3.0L2.5,-0.5"/>
                </g>
                <g id="arrowLeft" xlink:href="#dirArrow" transform="rotate(270) translate(-36 17)" onmousedown="handlePan(-1,0)">
                  <use xlink:href="#rim" fill="#404040">
                        <set attributeName="fill" to="#808080" begin="arrowLeft.mouseover" end="arrowLeft.mouseout"/>
                  </use>
                  <path fill="none" stroke="white" stroke-width="1.5" d="M0,-3.0v7 M-2.5,-0.5L0,-3.0L2.5,-0.5"/>
                </g>
        </g>
        <svg viewBox="0 0 15 15" width="100%" height="30px" preserveAspectRatio="xMaxYMin meet">
         <g id="arrow_out" transform="scale(0.3 0.3)">
          <a xlink:href="_scratch_field_8_h__dep__incl_org.svg" target="_base">
           <rect id="button" ry="5" rx="5" y="6" x="6" height="38" width="38"
                fill="#f2f5e9" fill-opacity="0.5" stroke="#606060" stroke-width="1.0"/>
           <path id="arrow"
             d="M 11.500037,31.436501 C 11.940474,20.09759 22.043105,11.32322 32.158766,21.979434 L 37.068811,17.246167 C 37.068811,17.246167 37.088388,32 37.088388,32 L 22.160133,31.978069 C 22.160133,31.978069 26.997745,27.140456 26.997745,27.140456 C 18.528582,18.264221 13.291696,25.230495 11.500037,31.436501 z"
             style="fill:#404040;"/>
          </a>
         </g>
        </svg>
</svg>
