<?xml version="1.0" encoding="UTF-8" standalone="no"?>
<!DOCTYPE svg PUBLIC "-//W3C//DTD SVG 1.1//EN"
 "http://www.w3.org/Graphics/SVG/1.1/DTD/svg11.dtd">
<!-- Generated by graphviz version 2.43.0 (0)
 -->
<!-- Title: SimTime.H Pages: 1 -->
<svg width="3850pt" height="252pt"
 viewBox="0.00 0.00 3850.00 252.00" xmlns="http://www.w3.org/2000/svg" xmlns:xlink="http://www.w3.org/1999/xlink">
<g id="graph0" class="graph" transform="scale(1 1) rotate(0) translate(4 248)">
<title>SimTime.H</title>
<polygon fill="white" stroke="transparent" points="-4,4 -4,-248 3846,-248 3846,4 -4,4"/>
<!-- Node1 -->
<g id="node1" class="node">
<title>Node1</title>
<g id="a_node1"><a xlink:title=" ">
<polygon fill="#bfbfbf" stroke="black" points="915.5,-224.5 915.5,-243.5 986.5,-243.5 986.5,-224.5 915.5,-224.5"/>
<text text-anchor="middle" x="951" y="-231.5" font-family="Helvetica,sans-Serif" font-size="10.00">SimTime.H</text>
</a>
</g>
</g>
<!-- Node2 -->
<g id="node2" class="node">
<title>Node2</title>
<g id="a_node2"><a xlink:href="velocity__bcs_8_h.html" target="_top" xlink:title=" ">
<polygon fill="white" stroke="black" points="0,-112.5 0,-131.5 88,-131.5 88,-112.5 0,-112.5"/>
<text text-anchor="middle" x="44" y="-119.5" font-family="Helvetica,sans-Serif" font-size="10.00">velocity_bcs.H</text>
</a>
</g>
</g>
<!-- Node1&#45;&gt;Node2 -->
<g id="edge1" class="edge">
<title>Node1&#45;&gt;Node2</title>
<path fill="none" stroke="midnightblue" d="M905.22,-232.38C725.95,-229.73 79.95,-218.12 49,-188 33.92,-173.32 38.11,-145.66 41.53,-131.63"/>
<polygon fill="midnightblue" stroke="midnightblue" points="905.32,-235.88 915.37,-232.53 905.42,-228.88 905.32,-235.88"/>
</g>
<!-- Node5 -->
<g id="node4" class="node">
<title>Node5</title>
<g id="a_node4"><a xlink:href="_c_f_d_sim_8_h.html" target="_top" xlink:title=" ">
<polygon fill="white" stroke="red" points="2070,-168.5 2070,-187.5 2136,-187.5 2136,-168.5 2070,-168.5"/>
<text text-anchor="middle" x="2103" y="-175.5" font-family="Helvetica,sans-Serif" font-size="10.00">CFDSim.H</text>
</a>
</g>
</g>
<!-- Node1&#45;&gt;Node5 -->
<g id="edge3" class="edge">
<title>Node1&#45;&gt;Node5</title>
<path fill="none" stroke="midnightblue" d="M996.92,-230.85C1186.58,-221.96 1906.57,-188.21 2069.91,-180.55"/>
<polygon fill="midnightblue" stroke="midnightblue" points="996.57,-227.36 986.74,-231.32 996.89,-234.35 996.57,-227.36"/>
</g>
<!-- Node71 -->
<g id="node27" class="node">
<title>Node71</title>
<g id="a_node27"><a xlink:href="helics_8_h.html" target="_top" xlink:title=" ">
<polygon fill="white" stroke="red" points="3365,-112.5 3365,-131.5 3421,-131.5 3421,-112.5 3365,-112.5"/>
<text text-anchor="middle" x="3393" y="-119.5" font-family="Helvetica,sans-Serif" font-size="10.00">helics.H</text>
</a>
</g>
</g>
<!-- Node1&#45;&gt;Node71 -->
<g id="edge66" class="edge">
<title>Node1&#45;&gt;Node71</title>
<path fill="none" stroke="midnightblue" d="M996.76,-232.48C1202.02,-229.96 2032.72,-218 2145,-188 2163.44,-183.07 2164.54,-172.86 2183,-168 2435.19,-101.57 3097.57,-167.01 3356,-132 3358.88,-131.61 3361.87,-131.09 3364.83,-130.49"/>
<polygon fill="midnightblue" stroke="midnightblue" points="996.58,-228.98 986.63,-232.6 996.67,-235.98 996.58,-228.98"/>
</g>
<!-- Node84 -->
<g id="node30" class="node">
<title>Node84</title>
<g id="a_node30"><a xlink:href="incflo_8_h.html" target="_top" xlink:title=" ">
<polygon fill="white" stroke="red" points="3581.5,-112.5 3581.5,-131.5 3634.5,-131.5 3634.5,-112.5 3581.5,-112.5"/>
<text text-anchor="middle" x="3608" y="-119.5" font-family="Helvetica,sans-Serif" font-size="10.00">incflo.H</text>
</a>
</g>
</g>
<!-- Node1&#45;&gt;Node84 -->
<g id="edge67" class="edge">
<title>Node1&#45;&gt;Node84</title>
<path fill="none" stroke="midnightblue" d="M996.6,-232.58C1219.02,-230.38 2184.62,-219.1 2315,-188 2335.5,-183.11 2337.49,-172.86 2358,-168 2620.63,-105.81 3304.64,-168.94 3572,-132 3575.06,-131.58 3578.24,-131 3581.39,-130.33"/>
<polygon fill="midnightblue" stroke="midnightblue" points="996.54,-229.08 986.58,-232.68 996.61,-236.08 996.54,-229.08"/>
</g>
<!-- Node64 -->
<g id="node35" class="node">
<title>Node64</title>
<g id="a_node35"><a xlink:href="_multi_phase_8cpp.html" target="_top" xlink:title=" ">
<polygon fill="white" stroke="black" points="3652.5,-112.5 3652.5,-131.5 3743.5,-131.5 3743.5,-112.5 3652.5,-112.5"/>
<text text-anchor="middle" x="3698" y="-119.5" font-family="Helvetica,sans-Serif" font-size="10.00">MultiPhase.cpp</text>
</a>
</g>
</g>
<!-- Node1&#45;&gt;Node64 -->
<g id="edge69" class="edge">
<title>Node1&#45;&gt;Node64</title>
<path fill="none" stroke="midnightblue" d="M997.01,-232.55C1223.65,-230.19 2215.73,-218.19 2350,-188 2371.75,-183.11 2374.24,-172.85 2396,-168 2666.79,-107.59 3367.86,-158.87 3644,-132 3646.74,-131.73 3649.56,-131.41 3652.39,-131.05"/>
<polygon fill="midnightblue" stroke="midnightblue" points="996.77,-229.05 986.81,-232.65 996.84,-236.05 996.77,-229.05"/>
</g>
<!-- Node158 -->
<g id="node36" class="node">
<title>Node158</title>
<g id="a_node36"><a xlink:href="_field_plane_averaging_8_h.html" target="_top" xlink:title=" ">
<polygon fill="white" stroke="red" points="1109,-112.5 1109,-131.5 1235,-131.5 1235,-112.5 1109,-112.5"/>
<text text-anchor="middle" x="1172" y="-119.5" font-family="Helvetica,sans-Serif" font-size="10.00">FieldPlaneAveraging.H</text>
</a>
</g>
</g>
<!-- Node1&#45;&gt;Node158 -->
<g id="edge70" class="edge">
<title>Node1&#45;&gt;Node158</title>
<path fill="none" stroke="midnightblue" d="M996.59,-222.65C1024.55,-215.24 1060.53,-203.78 1090,-188 1119.47,-172.22 1148.94,-145.54 1163.18,-131.79"/>
<polygon fill="midnightblue" stroke="midnightblue" points="995.49,-219.32 986.67,-225.19 997.23,-226.1 995.49,-219.32"/>
</g>
<!-- Node167 -->
<g id="node37" class="node">
<title>Node167</title>
<g id="a_node37"><a xlink:href="_a_b_l_8_h.html" target="_top" xlink:title=" ">
<polygon fill="white" stroke="red" points="1059,-56.5 1059,-75.5 1105,-75.5 1105,-56.5 1059,-56.5"/>
<text text-anchor="middle" x="1082" y="-63.5" font-family="Helvetica,sans-Serif" font-size="10.00">ABL.H</text>
</a>
</g>
</g>
<!-- Node1&#45;&gt;Node167 -->
<g id="edge72" class="edge">
<title>Node1&#45;&gt;Node167</title>
<path fill="none" stroke="midnightblue" d="M905.3,-231.88C742.33,-227.09 203.91,-204.18 291,-112 318.07,-83.35 930.99,-69.93 1058.78,-67.43"/>
<polygon fill="midnightblue" stroke="midnightblue" points="905.38,-235.38 915.48,-232.17 905.58,-228.38 905.38,-235.38"/>
</g>
<!-- Node171 -->
<g id="node38" class="node">
<title>Node171</title>
<g id="a_node38"><a xlink:href="_field_plane_averaging_fine_8_h.html" target="_top" xlink:title=" ">
<polygon fill="white" stroke="red" points="402,-112.5 402,-131.5 548,-131.5 548,-112.5 402,-112.5"/>
<text text-anchor="middle" x="475" y="-119.5" font-family="Helvetica,sans-Serif" font-size="10.00">FieldPlaneAveragingFine.H</text>
</a>
</g>
</g>
<!-- Node1&#45;&gt;Node171 -->
<g id="edge71" class="edge">
<title>Node1&#45;&gt;Node171</title>
<path fill="none" stroke="midnightblue" d="M905.19,-230.47C817.19,-225.14 627.83,-211.31 567,-188 532.67,-174.85 499.14,-145.96 483.76,-131.54"/>
<polygon fill="midnightblue" stroke="midnightblue" points="905.21,-233.98 915.4,-231.08 905.63,-226.99 905.21,-233.98"/>
</g>
<!-- Node227 -->
<g id="node39" class="node">
<title>Node227</title>
<g id="a_node39"><a xlink:href="_fast_iface_8cpp.html" target="_top" xlink:title=" ">
<polygon fill="white" stroke="black" points="3762,-112.5 3762,-131.5 3842,-131.5 3842,-112.5 3762,-112.5"/>
<text text-anchor="middle" x="3802" y="-119.5" font-family="Helvetica,sans-Serif" font-size="10.00">FastIface.cpp</text>
</a>
</g>
</g>
<!-- Node1&#45;&gt;Node227 -->
<g id="edge73" class="edge">
<title>Node1&#45;&gt;Node227</title>
<path fill="none" stroke="midnightblue" d="M996.78,-232.68C1226.65,-230.94 2249.43,-221.36 2387,-188 2407.09,-183.13 2408.9,-172.83 2429,-168 2715.19,-99.24 3460.27,-162.68 3753,-132 3755.92,-131.69 3758.94,-131.31 3761.96,-130.87"/>
<polygon fill="midnightblue" stroke="midnightblue" points="996.72,-229.18 986.75,-232.76 996.77,-236.18 996.72,-229.18"/>
</g>
<!-- Node228 -->
<g id="node40" class="node">
<title>Node228</title>
<g id="a_node40"><a xlink:href="_field_8cpp.html" target="_top" xlink:title=" ">
<polygon fill="white" stroke="black" points="133,-112.5 133,-131.5 193,-131.5 193,-112.5 133,-112.5"/>
<text text-anchor="middle" x="163" y="-119.5" font-family="Helvetica,sans-Serif" font-size="10.00">Field.cpp</text>
</a>
</g>
</g>
<!-- Node1&#45;&gt;Node228 -->
<g id="edge45" class="edge">
<title>Node1&#45;&gt;Node228</title>
<path fill="none" stroke="midnightblue" d="M905.15,-232.22C754.57,-229.37 281.31,-218.08 220,-188 194.67,-175.57 175.8,-146.34 167.57,-131.69"/>
<polygon fill="midnightblue" stroke="midnightblue" points="905.36,-235.72 915.42,-232.41 905.49,-228.72 905.36,-235.72"/>
</g>
<!-- Node229 -->
<g id="node41" class="node">
<title>Node229</title>
<g id="a_node41"><a xlink:href="_field_fill_patch_ops_8_h.html" target="_top" xlink:title=" ">
<polygon fill="white" stroke="red" points="58,-168.5 58,-187.5 168,-187.5 168,-168.5 58,-168.5"/>
<text text-anchor="middle" x="113" y="-175.5" font-family="Helvetica,sans-Serif" font-size="10.00">FieldFillPatchOps.H</text>
</a>
</g>
</g>
<!-- Node1&#45;&gt;Node229 -->
<g id="edge46" class="edge">
<title>Node1&#45;&gt;Node229</title>
<path fill="none" stroke="midnightblue" d="M905.05,-231.45C785.63,-227.19 455.67,-213.82 182,-188 177.55,-187.58 172.94,-187.09 168.32,-186.57"/>
<polygon fill="midnightblue" stroke="midnightblue" points="905.17,-234.96 915.29,-231.82 905.42,-227.96 905.17,-234.96"/>
</g>
<!-- Node230 -->
<g id="node42" class="node">
<title>Node230</title>
<g id="a_node42"><a xlink:href="_p_d_e_helpers_8_h.html" target="_top" xlink:title=" ">
<polygon fill="white" stroke="red" points="300,-112.5 300,-131.5 384,-131.5 384,-112.5 300,-112.5"/>
<text text-anchor="middle" x="342" y="-119.5" font-family="Helvetica,sans-Serif" font-size="10.00">PDEHelpers.H</text>
</a>
</g>
</g>
<!-- Node1&#45;&gt;Node230 -->
<g id="edge65" class="edge">
<title>Node1&#45;&gt;Node230</title>
<path fill="none" stroke="midnightblue" d="M904.99,-231.57C826.68,-228.36 662.88,-218.32 528,-188 465.59,-173.97 395.11,-145.76 361.65,-131.56"/>
<polygon fill="midnightblue" stroke="midnightblue" points="905.33,-235.08 915.46,-231.97 905.6,-228.09 905.33,-235.08"/>
</g>
<!-- Node231 -->
<g id="node43" class="node">
<title>Node231</title>
<g id="a_node43"><a xlink:href="_sim_time_8cpp.html" target="_top" xlink:title=" ">
<polygon fill="white" stroke="black" points="2438,-168.5 2438,-187.5 2518,-187.5 2518,-168.5 2438,-168.5"/>
<text text-anchor="middle" x="2478" y="-175.5" font-family="Helvetica,sans-Serif" font-size="10.00">SimTime.cpp</text>
</a>
</g>
</g>
<!-- Node1&#45;&gt;Node231 -->
<g id="edge52" class="edge">
<title>Node1&#45;&gt;Node231</title>
<path fill="none" stroke="midnightblue" d="M996.71,-232.43C1213.22,-229.62 2137,-216.17 2424,-188 2428.54,-187.55 2433.28,-186.96 2437.98,-186.29"/>
<polygon fill="midnightblue" stroke="midnightblue" points="996.6,-228.93 986.65,-232.56 996.69,-235.93 996.6,-228.93"/>
</g>
<!-- Node232 -->
<g id="node44" class="node">
<title>Node232</title>
<g id="a_node44"><a xlink:href="_a_b_l_forcing_8_h.html" target="_top" xlink:title=" ">
<polygon fill="white" stroke="red" points="576.5,-56.5 576.5,-75.5 657.5,-75.5 657.5,-56.5 576.5,-56.5"/>
<text text-anchor="middle" x="617" y="-63.5" font-family="Helvetica,sans-Serif" font-size="10.00">ABLForcing.H</text>
</a>
</g>
</g>
<!-- Node1&#45;&gt;Node232 -->
<g id="edge53" class="edge">
<title>Node1&#45;&gt;Node232</title>
<path fill="none" stroke="midnightblue" d="M904.99,-231.75C769.18,-227.79 376.25,-214.17 325,-188 296.06,-173.22 289.11,-162.53 278,-132 274.96,-123.65 272.14,-118.69 278,-112 297.41,-89.84 490.54,-74.99 576.31,-69.44"/>
<polygon fill="midnightblue" stroke="midnightblue" points="904.98,-235.26 915.07,-232.04 905.18,-228.26 904.98,-235.26"/>
</g>
<!-- Node233 -->
<g id="node45" class="node">
<title>Node233</title>
<g id="a_node45"><a xlink:href="_actuator_forcing_8_h.html" target="_top" xlink:title=" ">
<polygon fill="white" stroke="black" points="576,-168.5 576,-187.5 680,-187.5 680,-168.5 576,-168.5"/>
<text text-anchor="middle" x="628" y="-175.5" font-family="Helvetica,sans-Serif" font-size="10.00">ActuatorForcing.H</text>
</a>
</g>
</g>
<!-- Node1&#45;&gt;Node233 -->
<g id="edge55" class="edge">
<title>Node1&#45;&gt;Node233</title>
<path fill="none" stroke="midnightblue" d="M905.3,-225.36C845.59,-215.38 741.33,-197.95 679.08,-187.54"/>
<polygon fill="midnightblue" stroke="midnightblue" points="904.76,-228.82 915.2,-227.01 905.91,-221.91 904.76,-228.82"/>
</g>
<!-- Node234 -->
<g id="node46" class="node">
<title>Node234</title>
<g id="a_node46"><a xlink:href="_body_force_8_h.html" target="_top" xlink:title=" ">
<polygon fill="white" stroke="black" points="708,-168.5 708,-187.5 786,-187.5 786,-168.5 708,-168.5"/>
<text text-anchor="middle" x="747" y="-175.5" font-family="Helvetica,sans-Serif" font-size="10.00">BodyForce.H</text>
</a>
</g>
</g>
<!-- Node1&#45;&gt;Node234 -->
<g id="edge57" class="edge">
<title>Node1&#45;&gt;Node234</title>
<path fill="none" stroke="midnightblue" d="M908.8,-221.83C870.28,-211.63 814.18,-196.78 779.17,-187.52"/>
<polygon fill="midnightblue" stroke="midnightblue" points="908.11,-225.27 918.68,-224.44 909.9,-218.5 908.11,-225.27"/>
</g>
<!-- Node235 -->
<g id="node47" class="node">
<title>Node235</title>
<g id="a_node47"><a xlink:href="_burggraf_flow_forcing_8_h.html" target="_top" xlink:title=" ">
<polygon fill="white" stroke="black" points="811,-168.5 811,-187.5 939,-187.5 939,-168.5 811,-168.5"/>
<text text-anchor="middle" x="875" y="-175.5" font-family="Helvetica,sans-Serif" font-size="10.00">BurggrafFlowForcing.H</text>
</a>
</g>
</g>
<!-- Node1&#45;&gt;Node235 -->
<g id="edge59" class="edge">
<title>Node1&#45;&gt;Node235</title>
<path fill="none" stroke="midnightblue" d="M930.42,-218.38C916.69,-208.62 899.07,-196.11 887.43,-187.83"/>
<polygon fill="midnightblue" stroke="midnightblue" points="928.61,-221.38 938.79,-224.32 932.66,-215.68 928.61,-221.38"/>
</g>
<!-- Node236 -->
<g id="node48" class="node">
<title>Node236</title>
<g id="a_node48"><a xlink:href="_geostrophic_forcing_8_h.html" target="_top" xlink:title=" ">
<polygon fill="white" stroke="black" points="960.5,-168.5 960.5,-187.5 1081.5,-187.5 1081.5,-168.5 960.5,-168.5"/>
<text text-anchor="middle" x="1021" y="-175.5" font-family="Helvetica,sans-Serif" font-size="10.00">GeostrophicForcing.H</text>
</a>
</g>
</g>
<!-- Node1&#45;&gt;Node236 -->
<g id="edge61" class="edge">
<title>Node1&#45;&gt;Node236</title>
<path fill="none" stroke="midnightblue" d="M970.31,-218.1C982.91,-208.38 998.93,-196.03 1009.55,-187.83"/>
<polygon fill="midnightblue" stroke="midnightblue" points="968.03,-215.44 962.25,-224.32 972.3,-220.99 968.03,-215.44"/>
</g>
<!-- Node237 -->
<g id="node49" class="node">
<title>Node237</title>
<g id="a_node49"><a xlink:href="_rayleigh_damping_8_h.html" target="_top" xlink:title=" ">
<polygon fill="white" stroke="black" points="2192,-168.5 2192,-187.5 2306,-187.5 2306,-168.5 2192,-168.5"/>
<text text-anchor="middle" x="2249" y="-175.5" font-family="Helvetica,sans-Serif" font-size="10.00">RayleighDamping.H</text>
</a>
</g>
</g>
<!-- Node1&#45;&gt;Node237 -->
<g id="edge63" class="edge">
<title>Node1&#45;&gt;Node237</title>
<path fill="none" stroke="midnightblue" d="M996.78,-232.8C1158.51,-231.76 1718.03,-225.51 2178,-188 2182.46,-187.64 2187.07,-187.2 2191.69,-186.71"/>
<polygon fill="midnightblue" stroke="midnightblue" points="996.68,-229.3 986.7,-232.86 996.72,-236.3 996.68,-229.3"/>
</g>
<!-- Node238 -->
<g id="node50" class="node">
<title>Node238</title>
<g id="a_node50"><a xlink:href="_breaking_waves_8_h.html" target="_top" xlink:title=" ">
<polygon fill="white" stroke="red" points="2536.5,-168.5 2536.5,-187.5 2639.5,-187.5 2639.5,-168.5 2536.5,-168.5"/>
<text text-anchor="middle" x="2588" y="-175.5" font-family="Helvetica,sans-Serif" font-size="10.00">BreakingWaves.H</text>
</a>
</g>
</g>
<!-- Node1&#45;&gt;Node238 -->
<g id="edge68" class="edge">
<title>Node1&#45;&gt;Node238</title>
<path fill="none" stroke="midnightblue" d="M996.94,-232.42C1222.95,-229.46 2218.32,-215.08 2527,-188 2530.09,-187.73 2533.27,-187.4 2536.47,-187.04"/>
<polygon fill="midnightblue" stroke="midnightblue" points="996.72,-228.92 986.76,-232.55 996.81,-235.92 996.72,-228.92"/>
</g>
<!-- Node3 -->
<g id="node3" class="node">
<title>Node3</title>
<g id="a_node3"><a xlink:href="icns__bcop_8_h.html" target="_top" xlink:title=" ">
<polygon fill="white" stroke="red" points="6.5,-56.5 6.5,-75.5 81.5,-75.5 81.5,-56.5 6.5,-56.5"/>
<text text-anchor="middle" x="44" y="-63.5" font-family="Helvetica,sans-Serif" font-size="10.00">icns_bcop.H</text>
</a>
</g>
</g>
<!-- Node2&#45;&gt;Node3 -->
<g id="edge2" class="edge">
<title>Node2&#45;&gt;Node3</title>
<path fill="none" stroke="midnightblue" d="M44,-101.8C44,-92.91 44,-82.78 44,-75.75"/>
<polygon fill="midnightblue" stroke="midnightblue" points="40.5,-102.08 44,-112.08 47.5,-102.08 40.5,-102.08"/>
</g>
<!-- Node6 -->
<g id="node5" class="node">
<title>Node6</title>
<g id="a_node5"><a xlink:href="_wall_function_8_h.html" target="_top" xlink:title=" ">
<polygon fill="white" stroke="red" points="1221.5,-56.5 1221.5,-75.5 1310.5,-75.5 1310.5,-56.5 1221.5,-56.5"/>
<text text-anchor="middle" x="1266" y="-63.5" font-family="Helvetica,sans-Serif" font-size="10.00">WallFunction.H</text>
</a>
</g>
</g>
<!-- Node5&#45;&gt;Node6 -->
<g id="edge4" class="edge">
<title>Node5&#45;&gt;Node6</title>
<path fill="none" stroke="midnightblue" d="M2059.49,-176.4C1905.41,-174 1391.3,-163.68 1325,-132 1299.15,-119.65 1279.45,-90.38 1270.8,-75.71"/>
<polygon fill="midnightblue" stroke="midnightblue" points="2059.48,-179.9 2069.54,-176.55 2059.59,-172.9 2059.48,-179.9"/>
</g>
<!-- Node10 -->
<g id="node6" class="node">
<title>Node10</title>
<g id="a_node6"><a xlink:href="_c_f_d_sim_8cpp.html" target="_top" xlink:title=" ">
<polygon fill="white" stroke="black" points="2125,-112.5 2125,-131.5 2201,-131.5 2201,-112.5 2125,-112.5"/>
<text text-anchor="middle" x="2163" y="-119.5" font-family="Helvetica,sans-Serif" font-size="10.00">CFDSim.cpp</text>
</a>
</g>
</g>
<!-- Node5&#45;&gt;Node10 -->
<g id="edge5" class="edge">
<title>Node5&#45;&gt;Node10</title>
<path fill="none" stroke="midnightblue" d="M2120.18,-161.54C2130.88,-151.91 2144.26,-139.87 2153.18,-131.83"/>
<polygon fill="midnightblue" stroke="midnightblue" points="2117.73,-159.03 2112.64,-168.32 2122.41,-164.24 2117.73,-159.03"/>
</g>
<!-- Node11 -->
<g id="node7" class="node">
<title>Node11</title>
<g id="a_node7"><a xlink:href="_mesh_map_8cpp.html" target="_top" xlink:title=" ">
<polygon fill="white" stroke="black" points="2219,-112.5 2219,-131.5 2303,-131.5 2303,-112.5 2219,-112.5"/>
<text text-anchor="middle" x="2261" y="-119.5" font-family="Helvetica,sans-Serif" font-size="10.00">MeshMap.cpp</text>
</a>
</g>
</g>
<!-- Node5&#45;&gt;Node11 -->
<g id="edge6" class="edge">
<title>Node5&#45;&gt;Node11</title>
<path fill="none" stroke="midnightblue" d="M2137.61,-165.17C2167.36,-155 2209.55,-140.59 2236.08,-131.52"/>
<polygon fill="midnightblue" stroke="midnightblue" points="2136.37,-161.9 2128.04,-168.44 2138.63,-168.52 2136.37,-161.9"/>
</g>
<!-- Node12 -->
<g id="node8" class="node">
<title>Node12</title>
<g id="a_node8"><a xlink:href="_a_b_l_forcing_8cpp.html" target="_top" xlink:title=" ">
<polygon fill="white" stroke="black" points="1036.5,-0.5 1036.5,-19.5 1127.5,-19.5 1127.5,-0.5 1036.5,-0.5"/>
<text text-anchor="middle" x="1082" y="-7.5" font-family="Helvetica,sans-Serif" font-size="10.00">ABLForcing.cpp</text>
</a>
</g>
</g>
<!-- Node5&#45;&gt;Node12 -->
<g id="edge7" class="edge">
<title>Node5&#45;&gt;Node12</title>
<path fill="none" stroke="midnightblue" d="M2059.64,-176.83C1909.52,-175.91 1417.85,-170 1359,-132 1326.93,-111.29 1349.69,-78.7 1319,-56 1289.25,-33.99 1187.6,-20.92 1127.52,-14.94"/>
<polygon fill="midnightblue" stroke="midnightblue" points="2059.83,-180.33 2069.85,-176.89 2059.87,-173.33 2059.83,-180.33"/>
</g>
<!-- Node13 -->
<g id="node9" class="node">
<title>Node13</title>
<g id="a_node9"><a xlink:href="_a_b_l_mean_boussinesq_8cpp.html" target="_top" xlink:title=" ">
<polygon fill="white" stroke="black" points="1398,-0.5 1398,-19.5 1536,-19.5 1536,-0.5 1398,-0.5"/>
<text text-anchor="middle" x="1467" y="-7.5" font-family="Helvetica,sans-Serif" font-size="10.00">ABLMeanBoussinesq.cpp</text>
</a>
</g>
</g>
<!-- Node5&#45;&gt;Node13 -->
<g id="edge8" class="edge">
<title>Node5&#45;&gt;Node13</title>
<path fill="none" stroke="midnightblue" d="M2146.14,-167.1C2230.15,-152.08 2363.01,-169.47 2312,-112 2260.69,-54.2 1728.7,-23.41 1536.11,-14.09"/>
<polygon fill="midnightblue" stroke="midnightblue" points="2145.27,-163.7 2136.15,-169.1 2146.64,-170.57 2145.27,-163.7"/>
</g>
<!-- Node14 -->
<g id="node10" class="node">
<title>Node14</title>
<g id="a_node10"><a xlink:href="_actuator_forcing_8cpp.html" target="_top" xlink:title=" ">
<polygon fill="white" stroke="black" points="566.5,-112.5 566.5,-131.5 679.5,-131.5 679.5,-112.5 566.5,-112.5"/>
<text text-anchor="middle" x="623" y="-119.5" font-family="Helvetica,sans-Serif" font-size="10.00">ActuatorForcing.cpp</text>
</a>
</g>
</g>
<!-- Node5&#45;&gt;Node14 -->
<g id="edge9" class="edge">
<title>Node5&#45;&gt;Node14</title>
<path fill="none" stroke="midnightblue" d="M2059.54,-177.26C1886.29,-177.94 1228.1,-177.21 689,-132 686,-131.75 682.94,-131.46 679.84,-131.13"/>
<polygon fill="midnightblue" stroke="midnightblue" points="2059.8,-180.76 2069.78,-177.21 2059.77,-173.76 2059.8,-180.76"/>
</g>
<!-- Node15 -->
<g id="node11" class="node">
<title>Node15</title>
<g id="a_node11"><a xlink:href="_body_force_8cpp.html" target="_top" xlink:title=" ">
<polygon fill="white" stroke="black" points="698,-112.5 698,-131.5 786,-131.5 786,-112.5 698,-112.5"/>
<text text-anchor="middle" x="742" y="-119.5" font-family="Helvetica,sans-Serif" font-size="10.00">BodyForce.cpp</text>
</a>
</g>
</g>
<!-- Node5&#45;&gt;Node15 -->
<g id="edge10" class="edge">
<title>Node5&#45;&gt;Node15</title>
<path fill="none" stroke="midnightblue" d="M2059.65,-176.29C1862.43,-172.94 1048.6,-157.78 795,-132 792.12,-131.71 789.16,-131.35 786.19,-130.96"/>
<polygon fill="midnightblue" stroke="midnightblue" points="2059.84,-179.79 2069.9,-176.46 2059.96,-172.79 2059.84,-179.79"/>
</g>
<!-- Node16 -->
<g id="node12" class="node">
<title>Node16</title>
<g id="a_node12"><a xlink:href="_boussinesq_buoyancy_8cpp.html" target="_top" xlink:title=" ">
<polygon fill="white" stroke="black" points="2397.5,-112.5 2397.5,-131.5 2536.5,-131.5 2536.5,-112.5 2397.5,-112.5"/>
<text text-anchor="middle" x="2467" y="-119.5" font-family="Helvetica,sans-Serif" font-size="10.00">BoussinesqBuoyancy.cpp</text>
</a>
</g>
</g>
<!-- Node5&#45;&gt;Node16 -->
<g id="edge11" class="edge">
<title>Node5&#45;&gt;Node16</title>
<path fill="none" stroke="midnightblue" d="M2146.15,-168.65C2147.45,-168.43 2148.73,-168.21 2150,-168 2236.22,-153.63 2336.13,-139.94 2400.37,-131.51"/>
<polygon fill="midnightblue" stroke="midnightblue" points="2145.31,-165.25 2136.09,-170.46 2146.55,-172.14 2145.31,-165.25"/>
</g>
<!-- Node17 -->
<g id="node13" class="node">
<title>Node17</title>
<g id="a_node13"><a xlink:href="_burggraf_flow_forcing_8cpp.html" target="_top" xlink:title=" ">
<polygon fill="white" stroke="black" points="804.5,-112.5 804.5,-131.5 941.5,-131.5 941.5,-112.5 804.5,-112.5"/>
<text text-anchor="middle" x="873" y="-119.5" font-family="Helvetica,sans-Serif" font-size="10.00">BurggrafFlowForcing.cpp</text>
</a>
</g>
</g>
<!-- Node5&#45;&gt;Node17 -->
<g id="edge12" class="edge">
<title>Node5&#45;&gt;Node17</title>
<path fill="none" stroke="midnightblue" d="M2059.6,-176.52C1907.15,-174.56 1382.02,-165.63 950,-132 947.32,-131.79 944.58,-131.56 941.82,-131.31"/>
<polygon fill="midnightblue" stroke="midnightblue" points="2059.88,-180.02 2069.93,-176.64 2059.97,-173.02 2059.88,-180.02"/>
</g>
<!-- Node18 -->
<g id="node14" class="node">
<title>Node18</title>
<g id="a_node14"><a xlink:href="_coriolis_forcing_8cpp.html" target="_top" xlink:title=" ">
<polygon fill="white" stroke="black" points="2554.5,-112.5 2554.5,-131.5 2663.5,-131.5 2663.5,-112.5 2554.5,-112.5"/>
<text text-anchor="middle" x="2609" y="-119.5" font-family="Helvetica,sans-Serif" font-size="10.00">CoriolisForcing.cpp</text>
</a>
</g>
</g>
<!-- Node5&#45;&gt;Node18 -->
<g id="edge13" class="edge">
<title>Node5&#45;&gt;Node18</title>
<path fill="none" stroke="midnightblue" d="M2146.14,-168.57C2147.44,-168.37 2148.73,-168.18 2150,-168 2325,-143.35 2370.47,-152.5 2546,-132 2548.74,-131.68 2551.55,-131.34 2554.39,-130.98"/>
<polygon fill="midnightblue" stroke="midnightblue" points="2145.35,-165.15 2136.06,-170.25 2146.49,-172.06 2145.35,-165.15"/>
</g>
<!-- Node19 -->
<g id="node15" class="node">
<title>Node19</title>
<g id="a_node15"><a xlink:href="_density_buoyancy_8cpp.html" target="_top" xlink:title=" ">
<polygon fill="white" stroke="black" points="2681.5,-112.5 2681.5,-131.5 2802.5,-131.5 2802.5,-112.5 2681.5,-112.5"/>
<text text-anchor="middle" x="2742" y="-119.5" font-family="Helvetica,sans-Serif" font-size="10.00">DensityBuoyancy.cpp</text>
</a>
</g>
</g>
<!-- Node5&#45;&gt;Node19 -->
<g id="edge14" class="edge">
<title>Node5&#45;&gt;Node19</title>
<path fill="none" stroke="midnightblue" d="M2146.13,-168.53C2147.43,-168.34 2148.73,-168.17 2150,-168 2381.06,-138.04 2441.15,-155.08 2673,-132 2675.76,-131.72 2678.59,-131.43 2681.44,-131.11"/>
<polygon fill="midnightblue" stroke="midnightblue" points="2145.36,-165.11 2136.04,-170.15 2146.47,-172.02 2145.36,-165.11"/>
</g>
<!-- Node20 -->
<g id="node16" class="node">
<title>Node20</title>
<g id="a_node16"><a xlink:href="_geostrophic_forcing_8cpp.html" target="_top" xlink:title=" ">
<polygon fill="white" stroke="black" points="959.5,-112.5 959.5,-131.5 1090.5,-131.5 1090.5,-112.5 959.5,-112.5"/>
<text text-anchor="middle" x="1025" y="-119.5" font-family="Helvetica,sans-Serif" font-size="10.00">GeostrophicForcing.cpp</text>
</a>
</g>
</g>
<!-- Node5&#45;&gt;Node20 -->
<g id="edge15" class="edge">
<title>Node5&#45;&gt;Node20</title>
<path fill="none" stroke="midnightblue" d="M2059.32,-176.2C1919.48,-173.4 1470.36,-162.49 1100,-132 1096.99,-131.75 1093.92,-131.48 1090.82,-131.18"/>
<polygon fill="midnightblue" stroke="midnightblue" points="2059.54,-179.71 2069.61,-176.41 2059.68,-172.71 2059.54,-179.71"/>
</g>
<!-- Node21 -->
<g id="node17" class="node">
<title>Node21</title>
<g id="a_node17"><a xlink:href="_gravity_forcing_8cpp.html" target="_top" xlink:title=" ">
<polygon fill="white" stroke="black" points="2821,-112.5 2821,-131.5 2929,-131.5 2929,-112.5 2821,-112.5"/>
<text text-anchor="middle" x="2875" y="-119.5" font-family="Helvetica,sans-Serif" font-size="10.00">GravityForcing.cpp</text>
</a>
</g>
</g>
<!-- Node5&#45;&gt;Node21 -->
<g id="edge16" class="edge">
<title>Node5&#45;&gt;Node21</title>
<path fill="none" stroke="midnightblue" d="M2146.13,-168.51C2147.43,-168.33 2148.72,-168.16 2150,-168 2442.48,-132.21 2518.76,-160.86 2812,-132 2814.86,-131.72 2817.79,-131.4 2820.74,-131.06"/>
<polygon fill="midnightblue" stroke="midnightblue" points="2145.37,-165.08 2136.04,-170.09 2146.46,-172 2145.37,-165.08"/>
</g>
<!-- Node22 -->
<g id="node18" class="node">
<title>Node22</title>
<g id="a_node18"><a xlink:href="_hurricane_forcing_8cpp.html" target="_top" xlink:title=" ">
<polygon fill="white" stroke="black" points="2057.5,-0.5 2057.5,-19.5 2176.5,-19.5 2176.5,-0.5 2057.5,-0.5"/>
<text text-anchor="middle" x="2117" y="-7.5" font-family="Helvetica,sans-Serif" font-size="10.00">HurricaneForcing.cpp</text>
</a>
</g>
</g>
<!-- Node5&#45;&gt;Node22 -->
<g id="edge17" class="edge">
<title>Node5&#45;&gt;Node22</title>
<path fill="none" stroke="midnightblue" d="M2146.04,-167.35C2201.38,-159.57 2317.2,-165.13 2345,-132 2366.71,-106.12 2366.45,-82.09 2345,-56 2324.06,-30.52 2236.86,-19.23 2176.59,-14.4"/>
<polygon fill="midnightblue" stroke="midnightblue" points="2145.41,-163.91 2136.13,-169.03 2146.58,-170.81 2145.41,-163.91"/>
</g>
<!-- Node23 -->
<g id="node19" class="node">
<title>Node23</title>
<g id="a_node19"><a xlink:href="_rayleigh_damping_8cpp.html" target="_top" xlink:title=" ">
<polygon fill="white" stroke="black" points="3439,-112.5 3439,-131.5 3563,-131.5 3563,-112.5 3439,-112.5"/>
<text text-anchor="middle" x="3501" y="-119.5" font-family="Helvetica,sans-Serif" font-size="10.00">RayleighDamping.cpp</text>
</a>
</g>
</g>
<!-- Node5&#45;&gt;Node23 -->
<g id="edge18" class="edge">
<title>Node5&#45;&gt;Node23</title>
<path fill="none" stroke="midnightblue" d="M2146.18,-171.48C2158.09,-170.13 2171.03,-168.84 2183,-168 2736.08,-128.97 2877.21,-174.91 3430,-132 3432.85,-131.78 3435.76,-131.52 3438.7,-131.25"/>
<polygon fill="midnightblue" stroke="midnightblue" points="2145.56,-168.03 2136.03,-172.66 2146.37,-174.98 2145.56,-168.03"/>
</g>
<!-- Node24 -->
<g id="node20" class="node">
<title>Node24</title>
<g id="a_node20"><a xlink:href="_synth_turb_forcing_8cpp.html" target="_top" xlink:title=" ">
<polygon fill="white" stroke="black" points="2947,-112.5 2947,-131.5 3067,-131.5 3067,-112.5 2947,-112.5"/>
<text text-anchor="middle" x="3007" y="-119.5" font-family="Helvetica,sans-Serif" font-size="10.00">SynthTurbForcing.cpp</text>
</a>
</g>
</g>
<!-- Node5&#45;&gt;Node24 -->
<g id="edge19" class="edge">
<title>Node5&#45;&gt;Node24</title>
<path fill="none" stroke="midnightblue" d="M2146.13,-168.49C2147.43,-168.32 2148.72,-168.15 2150,-168 2498.17,-126.93 2588.76,-162.7 2938,-132 2940.89,-131.75 2943.84,-131.46 2946.82,-131.15"/>
<polygon fill="midnightblue" stroke="midnightblue" points="2145.38,-165.07 2136.03,-170.06 2146.45,-171.98 2145.38,-165.07"/>
</g>
<!-- Node25 -->
<g id="node21" class="node">
<title>Node25</title>
<g id="a_node21"><a xlink:href="_p_d_e_8_h.html" target="_top" xlink:title=" ">
<polygon fill="white" stroke="red" points="3078.5,-0.5 3078.5,-19.5 3125.5,-19.5 3125.5,-0.5 3078.5,-0.5"/>
<text text-anchor="middle" x="3102" y="-7.5" font-family="Helvetica,sans-Serif" font-size="10.00">PDE.H</text>
</a>
</g>
</g>
<!-- Node5&#45;&gt;Node25 -->
<g id="edge20" class="edge">
<title>Node5&#45;&gt;Node25</title>
<path fill="none" stroke="midnightblue" d="M2146.11,-167.69C2285.56,-155.78 3009.41,-192.29 3093,-132 3121.42,-111.5 3118.55,-90.75 3114,-56 3112.32,-43.17 3108.05,-28.8 3105.09,-19.83"/>
<polygon fill="midnightblue" stroke="midnightblue" points="2145.66,-164.21 2136.09,-168.76 2146.4,-171.17 2145.66,-164.21"/>
</g>
<!-- Node57 -->
<g id="node22" class="node">
<title>Node57</title>
<g id="a_node22"><a xlink:href="_p_d_e_base_8cpp.html" target="_top" xlink:title=" ">
<polygon fill="white" stroke="black" points="1123,-56.5 1123,-75.5 1203,-75.5 1203,-56.5 1123,-56.5"/>
<text text-anchor="middle" x="1163" y="-63.5" font-family="Helvetica,sans-Serif" font-size="10.00">PDEBase.cpp</text>
</a>
</g>
</g>
<!-- Node5&#45;&gt;Node57 -->
<g id="edge21" class="edge">
<title>Node5&#45;&gt;Node57</title>
<path fill="none" stroke="midnightblue" d="M2059.44,-176.86C1913.29,-176.04 1441.33,-170.4 1295,-132 1271.16,-125.74 1208.24,-91.98 1178.72,-75.74"/>
<polygon fill="midnightblue" stroke="midnightblue" points="2059.77,-180.36 2069.79,-176.91 2059.81,-173.36 2059.77,-180.36"/>
</g>
<!-- Node58 -->
<g id="node23" class="node">
<title>Node58</title>
<g id="a_node23"><a xlink:href="_p_d_e_ops_8_h.html" target="_top" xlink:title=" ">
<polygon fill="white" stroke="red" points="3039.5,-56.5 3039.5,-75.5 3104.5,-75.5 3104.5,-56.5 3039.5,-56.5"/>
<text text-anchor="middle" x="3072" y="-63.5" font-family="Helvetica,sans-Serif" font-size="10.00">PDEOps.H</text>
</a>
</g>
</g>
<!-- Node5&#45;&gt;Node58 -->
<g id="edge22" class="edge">
<title>Node5&#45;&gt;Node58</title>
<path fill="none" stroke="midnightblue" d="M2146.12,-168.48C2147.43,-168.31 2148.72,-168.15 2150,-168 2201.15,-162.14 3040.31,-169.1 3076,-132 3090.58,-116.84 3081.86,-89.4 3076,-75.52"/>
<polygon fill="midnightblue" stroke="midnightblue" points="2145.38,-165.05 2136.03,-170.03 2146.44,-171.97 2145.38,-165.05"/>
</g>
<!-- Node68 -->
<g id="node24" class="node">
<title>Node68</title>
<g id="a_node24"><a xlink:href="_s_d_r_src_8cpp.html" target="_top" xlink:title=" ">
<polygon fill="white" stroke="black" points="3161,-112.5 3161,-131.5 3233,-131.5 3233,-112.5 3161,-112.5"/>
<text text-anchor="middle" x="3197" y="-119.5" font-family="Helvetica,sans-Serif" font-size="10.00">SDRSrc.cpp</text>
</a>
</g>
</g>
<!-- Node5&#45;&gt;Node68 -->
<g id="edge24" class="edge">
<title>Node5&#45;&gt;Node68</title>
<path fill="none" stroke="midnightblue" d="M2146.12,-168.48C2147.43,-168.3 2148.72,-168.14 2150,-168 2590.59,-118.16 2706.14,-179.39 3147,-132 3151.47,-131.52 3156.15,-130.87 3160.77,-130.15"/>
<polygon fill="midnightblue" stroke="midnightblue" points="2145.38,-165.05 2136.03,-170.02 2146.44,-171.97 2145.38,-165.05"/>
</g>
<!-- Node69 -->
<g id="node25" class="node">
<title>Node69</title>
<g id="a_node25"><a xlink:href="_ksgs_m84_src_8cpp.html" target="_top" xlink:title=" ">
<polygon fill="white" stroke="black" points="3251,-112.5 3251,-131.5 3347,-131.5 3347,-112.5 3251,-112.5"/>
<text text-anchor="middle" x="3299" y="-119.5" font-family="Helvetica,sans-Serif" font-size="10.00">KsgsM84Src.cpp</text>
</a>
</g>
</g>
<!-- Node5&#45;&gt;Node69 -->
<g id="edge25" class="edge">
<title>Node5&#45;&gt;Node69</title>
<path fill="none" stroke="midnightblue" d="M2146.12,-168.47C2147.43,-168.3 2148.72,-168.14 2150,-168 2632.6,-114.17 2758.58,-177.96 3242,-132 3244.89,-131.73 3247.86,-131.4 3250.85,-131.03"/>
<polygon fill="midnightblue" stroke="midnightblue" points="2145.39,-165.04 2136.03,-170 2146.44,-171.96 2145.39,-165.04"/>
</g>
<!-- Node70 -->
<g id="node26" class="node">
<title>Node70</title>
<g id="a_node26"><a xlink:href="_kw_s_s_t_src_8cpp.html" target="_top" xlink:title=" ">
<polygon fill="white" stroke="black" points="1367.5,-112.5 1367.5,-131.5 1452.5,-131.5 1452.5,-112.5 1367.5,-112.5"/>
<text text-anchor="middle" x="1410" y="-119.5" font-family="Helvetica,sans-Serif" font-size="10.00">KwSSTSrc.cpp</text>
</a>
</g>
</g>
<!-- Node5&#45;&gt;Node70 -->
<g id="edge26" class="edge">
<title>Node5&#45;&gt;Node70</title>
<path fill="none" stroke="midnightblue" d="M2059.8,-175.48C1956.28,-171.5 1686.04,-159.18 1462,-132 1458.91,-131.62 1455.72,-131.19 1452.52,-130.72"/>
<polygon fill="midnightblue" stroke="midnightblue" points="2059.74,-178.98 2069.86,-175.86 2060,-171.98 2059.74,-178.98"/>
</g>
<!-- Node5&#45;&gt;Node71 -->
<g id="edge27" class="edge">
<title>Node5&#45;&gt;Node71</title>
<path fill="none" stroke="midnightblue" d="M2146.42,-167.48C2675.84,-110.58 2818.96,-203.31 3347,-132 3352.77,-131.22 3358.94,-129.91 3364.92,-128.53"/>
<polygon fill="midnightblue" stroke="midnightblue" points="2145.79,-164.02 2136.23,-168.58 2146.55,-170.98 2145.79,-164.02"/>
</g>
<!-- Node73 -->
<g id="node28" class="node">
<title>Node73</title>
<g id="a_node28"><a xlink:href="_i_b_8cpp.html" target="_top" xlink:title=" ">
<polygon fill="white" stroke="black" points="1470.5,-112.5 1470.5,-131.5 1517.5,-131.5 1517.5,-112.5 1470.5,-112.5"/>
<text text-anchor="middle" x="1494" y="-119.5" font-family="Helvetica,sans-Serif" font-size="10.00">IB.cpp</text>
</a>
</g>
</g>
<!-- Node5&#45;&gt;Node73 -->
<g id="edge29" class="edge">
<title>Node5&#45;&gt;Node73</title>
<path fill="none" stroke="midnightblue" d="M2059.7,-176.39C1963.3,-174.44 1723.93,-166.23 1527,-132 1523.96,-131.47 1520.79,-130.79 1517.67,-130.03"/>
<polygon fill="midnightblue" stroke="midnightblue" points="2059.87,-179.9 2069.93,-176.59 2060,-172.9 2059.87,-179.9"/>
</g>
<!-- Node74 -->
<g id="node29" class="node">
<title>Node74</title>
<g id="a_node29"><a xlink:href="_i_b_ops_8_h.html" target="_top" xlink:title=" ">
<polygon fill="white" stroke="red" points="1536,-112.5 1536,-131.5 1592,-131.5 1592,-112.5 1536,-112.5"/>
<text text-anchor="middle" x="1564" y="-119.5" font-family="Helvetica,sans-Serif" font-size="10.00">IBOps.H</text>
</a>
</g>
</g>
<!-- Node5&#45;&gt;Node74 -->
<g id="edge30" class="edge">
<title>Node5&#45;&gt;Node74</title>
<path fill="none" stroke="midnightblue" d="M2059.84,-175.3C1972.64,-171.39 1769.4,-159.87 1601,-132 1598.13,-131.53 1595.15,-130.95 1592.19,-130.32"/>
<polygon fill="midnightblue" stroke="midnightblue" points="2059.75,-178.8 2069.89,-175.74 2060.06,-171.81 2059.75,-178.8"/>
</g>
<!-- Node5&#45;&gt;Node84 -->
<g id="edge31" class="edge">
<title>Node5&#45;&gt;Node84</title>
<path fill="none" stroke="midnightblue" d="M2146.18,-171.45C2158.09,-170.11 2171.03,-168.83 2183,-168 2491.04,-146.72 3266.06,-173.69 3572,-132 3575.06,-131.58 3578.24,-131.01 3581.39,-130.34"/>
<polygon fill="midnightblue" stroke="midnightblue" points="2145.55,-168 2136.03,-172.64 2146.36,-174.96 2145.55,-168"/>
</g>
<!-- Node112 -->
<g id="node31" class="node">
<title>Node112</title>
<g id="a_node31"><a xlink:href="_ocean_waves_8cpp.html" target="_top" xlink:title=" ">
<polygon fill="white" stroke="black" points="1610,-112.5 1610,-131.5 1710,-131.5 1710,-112.5 1610,-112.5"/>
<text text-anchor="middle" x="1660" y="-119.5" font-family="Helvetica,sans-Serif" font-size="10.00">OceanWaves.cpp</text>
</a>
</g>
</g>
<!-- Node5&#45;&gt;Node112 -->
<g id="edge32" class="edge">
<title>Node5&#45;&gt;Node112</title>
<path fill="none" stroke="midnightblue" d="M2059.57,-172.35C1988.49,-164.65 1842.93,-148.44 1720,-132 1716.76,-131.57 1713.43,-131.11 1710.07,-130.63"/>
<polygon fill="midnightblue" stroke="midnightblue" points="2059.59,-175.88 2069.91,-173.47 2060.35,-168.92 2059.59,-175.88"/>
</g>
<!-- Node113 -->
<g id="node32" class="node">
<title>Node113</title>
<g id="a_node32"><a xlink:href="_ocean_waves_ops_8_h.html" target="_top" xlink:title=" ">
<polygon fill="white" stroke="red" points="1728.5,-112.5 1728.5,-131.5 1837.5,-131.5 1837.5,-112.5 1728.5,-112.5"/>
<text text-anchor="middle" x="1783" y="-119.5" font-family="Helvetica,sans-Serif" font-size="10.00">OceanWavesOps.H</text>
</a>
</g>
</g>
<!-- Node5&#45;&gt;Node113 -->
<g id="edge33" class="edge">
<title>Node5&#45;&gt;Node113</title>
<path fill="none" stroke="midnightblue" d="M2059.9,-169.73C2001.14,-159.81 1896.1,-142.09 1833.65,-131.55"/>
<polygon fill="midnightblue" stroke="midnightblue" points="2059.52,-173.21 2069.96,-171.42 2060.68,-166.31 2059.52,-173.21"/>
</g>
<!-- Node121 -->
<g id="node33" class="node">
<title>Node121</title>
<g id="a_node33"><a xlink:href="_tioga_interface_8cpp.html" target="_top" xlink:title=" ">
<polygon fill="white" stroke="black" points="1855.5,-112.5 1855.5,-131.5 1962.5,-131.5 1962.5,-112.5 1855.5,-112.5"/>
<text text-anchor="middle" x="1909" y="-119.5" font-family="Helvetica,sans-Serif" font-size="10.00">TiogaInterface.cpp</text>
</a>
</g>
</g>
<!-- Node5&#45;&gt;Node121 -->
<g id="edge34" class="edge">
<title>Node5&#45;&gt;Node121</title>
<path fill="none" stroke="midnightblue" d="M2062.4,-165.7C2025.78,-155.51 1972.74,-140.74 1939.6,-131.52"/>
<polygon fill="midnightblue" stroke="midnightblue" points="2061.69,-169.13 2072.26,-168.44 2063.56,-162.39 2061.69,-169.13"/>
</g>
<!-- Node122 -->
<g id="node34" class="node">
<title>Node122</title>
<g id="a_node34"><a xlink:href="_boussinesq_bubble_8cpp.html" target="_top" xlink:title=" ">
<polygon fill="white" stroke="black" points="1981,-112.5 1981,-131.5 2107,-131.5 2107,-112.5 1981,-112.5"/>
<text text-anchor="middle" x="2044" y="-119.5" font-family="Helvetica,sans-Serif" font-size="10.00">BoussinesqBubble.cpp</text>
</a>
</g>
</g>
<!-- Node5&#45;&gt;Node122 -->
<g id="edge35" class="edge">
<title>Node5&#45;&gt;Node122</title>
<path fill="none" stroke="midnightblue" d="M2086.11,-161.54C2075.59,-151.91 2062.43,-139.87 2053.65,-131.83"/>
<polygon fill="midnightblue" stroke="midnightblue" points="2083.78,-164.15 2093.52,-168.32 2088.51,-158.99 2083.78,-164.15"/>
</g>
<!-- Node5&#45;&gt;Node64 -->
<g id="edge36" class="edge">
<title>Node5&#45;&gt;Node64</title>
<path fill="none" stroke="midnightblue" d="M2146.18,-171.44C2158.09,-170.1 2171.03,-168.82 2183,-168 2831.01,-123.65 2997.39,-193.54 3644,-132 3646.74,-131.74 3649.56,-131.42 3652.39,-131.06"/>
<polygon fill="midnightblue" stroke="midnightblue" points="2145.55,-167.99 2136.03,-172.63 2146.36,-174.95 2145.55,-167.99"/>
</g>
<!-- Node5&#45;&gt;Node158 -->
<g id="edge37" class="edge">
<title>Node5&#45;&gt;Node158</title>
<path fill="none" stroke="midnightblue" d="M2059.64,-175.69C1934.03,-171.69 1559.14,-158.27 1249,-132 1244.57,-131.63 1240.01,-131.2 1235.42,-130.74"/>
<polygon fill="midnightblue" stroke="midnightblue" points="2059.87,-179.2 2069.98,-176.02 2060.09,-172.2 2059.87,-179.2"/>
</g>
<!-- Node5&#45;&gt;Node171 -->
<g id="edge42" class="edge">
<title>Node5&#45;&gt;Node171</title>
<path fill="none" stroke="midnightblue" d="M2059.76,-177.01C1877.19,-176.79 1151.52,-173.21 557,-132 554.14,-131.8 551.23,-131.58 548.29,-131.34"/>
<polygon fill="midnightblue" stroke="midnightblue" points="2059.77,-180.51 2069.77,-177.02 2059.77,-173.51 2059.77,-180.51"/>
</g>
<!-- Node5&#45;&gt;Node227 -->
<g id="edge44" class="edge">
<title>Node5&#45;&gt;Node227</title>
<path fill="none" stroke="midnightblue" d="M2146.18,-171.43C2158.09,-170.09 2171.03,-168.81 2183,-168 2879.37,-120.94 3058.69,-203.27 3753,-132 3755.93,-131.7 3758.94,-131.32 3761.96,-130.89"/>
<polygon fill="midnightblue" stroke="midnightblue" points="2145.55,-167.98 2136.02,-172.62 2146.36,-174.93 2145.55,-167.98"/>
</g>
<!-- Node58&#45;&gt;Node25 -->
<g id="edge23" class="edge">
<title>Node58&#45;&gt;Node25</title>
<path fill="none" stroke="midnightblue" d="M3081.85,-47.27C3086.97,-38.05 3093.02,-27.17 3097.14,-19.75"/>
<polygon fill="midnightblue" stroke="midnightblue" points="3078.75,-45.64 3076.95,-56.08 3084.87,-49.04 3078.75,-45.64"/>
</g>
<!-- Node71&#45;&gt;Node5 -->
<g id="edge28" class="edge">
<title>Node71&#45;&gt;Node5</title>
<path fill="none" stroke="midnightblue" d="M3358.04,-132.88C2831.77,-202.57 2688.64,-109.76 2159,-168 2151.65,-168.81 2143.73,-170.14 2136.15,-171.54"/>
<polygon fill="midnightblue" stroke="midnightblue" points="3358.73,-136.32 3368.18,-131.53 3357.8,-129.38 3358.73,-136.32"/>
</g>
<!-- Node158&#45;&gt;Node167 -->
<g id="edge38" class="edge">
<title>Node158&#45;&gt;Node167</title>
<path fill="none" stroke="midnightblue" d="M1148.96,-107.18C1132.4,-97.24 1110.58,-84.15 1096.42,-75.65"/>
<polygon fill="midnightblue" stroke="midnightblue" points="1147.16,-110.18 1157.54,-112.32 1150.77,-104.18 1147.16,-110.18"/>
</g>
<!-- Node167&#45;&gt;Node12 -->
<g id="edge39" class="edge">
<title>Node167&#45;&gt;Node12</title>
<path fill="none" stroke="midnightblue" d="M1082,-45.8C1082,-36.91 1082,-26.78 1082,-19.75"/>
<polygon fill="midnightblue" stroke="midnightblue" points="1078.5,-46.08 1082,-56.08 1085.5,-46.08 1078.5,-46.08"/>
</g>
<!-- Node167&#45;&gt;Node13 -->
<g id="edge40" class="edge">
<title>Node167&#45;&gt;Node13</title>
<path fill="none" stroke="midnightblue" d="M1115.31,-55.99C1218.75,-35.37 1328.55,-23.25 1397.85,-16.78"/>
<polygon fill="midnightblue" stroke="midnightblue" points="1114.43,-52.6 1105.32,-58.01 1115.82,-59.46 1114.43,-52.6"/>
</g>
<!-- Node167&#45;&gt;Node22 -->
<g id="edge41" class="edge">
<title>Node167&#45;&gt;Node22</title>
<path fill="none" stroke="midnightblue" d="M1115.46,-56.2C1316.87,-26.11 1873.79,-14.88 2057.45,-11.88"/>
<polygon fill="midnightblue" stroke="midnightblue" points="1114.62,-52.79 1105.28,-57.79 1115.7,-59.7 1114.62,-52.79"/>
</g>
<!-- Node171&#45;&gt;Node6 -->
<g id="edge43" class="edge">
<title>Node171&#45;&gt;Node6</title>
<path fill="none" stroke="midnightblue" d="M558.3,-111.94C849.27,-88.53 925.47,-107.65 1212,-76 1215.02,-75.67 1218.13,-75.27 1221.26,-74.85"/>
<polygon fill="midnightblue" stroke="midnightblue" points="557.98,-108.45 548.3,-112.76 558.55,-115.43 557.98,-108.45"/>
</g>
<!-- Node229&#45;&gt;Node2 -->
<g id="edge47" class="edge">
<title>Node229&#45;&gt;Node2</title>
<path fill="none" stroke="midnightblue" d="M93.96,-162.1C81.54,-152.38 65.76,-140.03 55.29,-131.83"/>
<polygon fill="midnightblue" stroke="midnightblue" points="91.88,-164.92 101.91,-168.32 96.2,-159.4 91.88,-164.92"/>
</g>
<!-- Node229&#45;&gt;Node228 -->
<g id="edge48" class="edge">
<title>Node229&#45;&gt;Node228</title>
<path fill="none" stroke="midnightblue" d="M128.08,-160.72C136.89,-151.2 147.67,-139.56 154.9,-131.75"/>
<polygon fill="midnightblue" stroke="midnightblue" points="125.48,-158.37 121.26,-168.08 130.62,-163.12 125.48,-158.37"/>
</g>
<!-- Node229&#45;&gt;Node230 -->
<g id="edge49" class="edge">
<title>Node229&#45;&gt;Node230</title>
<path fill="none" stroke="midnightblue" d="M159.27,-166.09C202.54,-155.89 266.26,-140.86 305.88,-131.52"/>
<polygon fill="midnightblue" stroke="midnightblue" points="158.22,-162.74 149.29,-168.44 159.82,-169.55 158.22,-162.74"/>
</g>
<!-- Node230&#45;&gt;Node57 -->
<g id="edge50" class="edge">
<title>Node230&#45;&gt;Node57</title>
<path fill="none" stroke="midnightblue" d="M394.24,-112.01C713.56,-76.8 798.57,-112.68 1114,-76 1116.92,-75.66 1119.93,-75.25 1122.95,-74.8"/>
<polygon fill="midnightblue" stroke="midnightblue" points="393.79,-108.54 384.24,-113.13 394.57,-115.5 393.79,-108.54"/>
</g>
<!-- Node230&#45;&gt;Node58 -->
<g id="edge51" class="edge">
<title>Node230&#45;&gt;Node58</title>
<path fill="none" stroke="midnightblue" d="M394.49,-112.1C715.35,-85.15 2754.85,-69.33 3039.13,-67.24"/>
<polygon fill="midnightblue" stroke="midnightblue" points="393.88,-108.64 384.23,-113.02 394.5,-115.61 393.88,-108.64"/>
</g>
<!-- Node232&#45;&gt;Node12 -->
<g id="edge54" class="edge">
<title>Node232&#45;&gt;Node12</title>
<path fill="none" stroke="midnightblue" d="M667.96,-59.08C759.18,-48.49 949.02,-26.44 1036.3,-16.31"/>
<polygon fill="midnightblue" stroke="midnightblue" points="667.39,-55.62 657.86,-60.26 668.2,-62.58 667.39,-55.62"/>
</g>
<!-- Node233&#45;&gt;Node14 -->
<g id="edge56" class="edge">
<title>Node233&#45;&gt;Node14</title>
<path fill="none" stroke="midnightblue" d="M626.25,-158.1C625.42,-149.14 624.47,-138.86 623.81,-131.75"/>
<polygon fill="midnightblue" stroke="midnightblue" points="622.77,-158.45 627.17,-168.08 629.74,-157.8 622.77,-158.45"/>
</g>
<!-- Node234&#45;&gt;Node15 -->
<g id="edge58" class="edge">
<title>Node234&#45;&gt;Node15</title>
<path fill="none" stroke="midnightblue" d="M745.25,-158.1C744.42,-149.14 743.47,-138.86 742.81,-131.75"/>
<polygon fill="midnightblue" stroke="midnightblue" points="741.77,-158.45 746.17,-168.08 748.74,-157.8 741.77,-158.45"/>
</g>
<!-- Node235&#45;&gt;Node17 -->
<g id="edge60" class="edge">
<title>Node235&#45;&gt;Node17</title>
<path fill="none" stroke="midnightblue" d="M874.29,-157.8C873.96,-148.91 873.58,-138.78 873.32,-131.75"/>
<polygon fill="midnightblue" stroke="midnightblue" points="870.8,-158.22 874.67,-168.08 877.8,-157.96 870.8,-158.22"/>
</g>
<!-- Node236&#45;&gt;Node20 -->
<g id="edge62" class="edge">
<title>Node236&#45;&gt;Node20</title>
<path fill="none" stroke="midnightblue" d="M1022.4,-158.1C1023.06,-149.14 1023.83,-138.86 1024.35,-131.75"/>
<polygon fill="midnightblue" stroke="midnightblue" points="1018.91,-157.85 1021.66,-168.08 1025.89,-158.37 1018.91,-157.85"/>
</g>
<!-- Node237&#45;&gt;Node23 -->
<g id="edge64" class="edge">
<title>Node237&#45;&gt;Node23</title>
<path fill="none" stroke="midnightblue" d="M2316.63,-168.28C2317.76,-168.18 2318.89,-168.09 2320,-168 2812.04,-128.92 2937.96,-171.08 3430,-132 3432.85,-131.77 3435.76,-131.52 3438.7,-131.23"/>
<polygon fill="midnightblue" stroke="midnightblue" points="2315.92,-164.83 2306.3,-169.27 2316.59,-171.8 2315.92,-164.83"/>
</g>
</g>
</svg>
