<?xml version="1.0" encoding="UTF-8" standalone="no"?>
<!DOCTYPE svg PUBLIC "-//W3C//DTD SVG 1.1//EN"
 "http://www.w3.org/Graphics/SVG/1.1/DTD/svg11.dtd">
<!-- Generated by graphviz version 2.43.0 (0)
 -->
<!-- Title: SourceTerm.H Pages: 1 -->
<svg width="452pt" height="196pt"
 viewBox="0.00 0.00 451.50 196.00" xmlns="http://www.w3.org/2000/svg" xmlns:xlink="http://www.w3.org/1999/xlink">
<g id="graph0" class="graph" transform="scale(1 1) rotate(0) translate(4 192)">
<title>SourceTerm.H</title>
<polygon fill="white" stroke="transparent" points="-4,4 -4,-192 447.5,-192 447.5,4 -4,4"/>
<!-- Node1 -->
<g id="node1" class="node">
<title>Node1</title>
<g id="a_node1"><a xlink:title=" ">
<polygon fill="#bfbfbf" stroke="black" points="106,-168.5 106,-187.5 190,-187.5 190,-168.5 106,-168.5"/>
<text text-anchor="middle" x="148" y="-175.5" font-family="Helvetica,sans-Serif" font-size="10.00">SourceTerm.H</text>
</a>
</g>
</g>
<!-- Node2 -->
<g id="node2" class="node">
<title>Node2</title>
<g id="a_node2"><a xlink:href="levelset_8_h.html" target="_top" xlink:title=" ">
<polygon fill="white" stroke="black" points="41,-112.5 41,-131.5 107,-131.5 107,-112.5 41,-112.5"/>
<text text-anchor="middle" x="74" y="-119.5" font-family="Helvetica,sans-Serif" font-size="10.00">levelset.H</text>
</a>
</g>
</g>
<!-- Node1&#45;&gt;Node2 -->
<g id="edge1" class="edge">
<title>Node1&#45;&gt;Node2</title>
<path fill="none" stroke="midnightblue" d="M127.97,-162.38C114.59,-152.62 97.44,-140.11 86.11,-131.83"/>
<polygon fill="midnightblue" stroke="midnightblue" points="125.97,-165.26 136.11,-168.32 130.1,-159.6 125.97,-165.26"/>
</g>
<!-- Node5 -->
<g id="node5" class="node">
<title>Node5</title>
<g id="a_node5"><a xlink:href="vof_8_h.html" target="_top" xlink:title=" ">
<polygon fill="white" stroke="black" points="202,-112.5 202,-131.5 244,-131.5 244,-112.5 202,-112.5"/>
<text text-anchor="middle" x="223" y="-119.5" font-family="Helvetica,sans-Serif" font-size="10.00">vof.H</text>
</a>
</g>
</g>
<!-- Node1&#45;&gt;Node5 -->
<g id="edge5" class="edge">
<title>Node1&#45;&gt;Node5</title>
<path fill="none" stroke="midnightblue" d="M168.31,-162.38C181.86,-152.62 199.24,-140.11 210.73,-131.83"/>
<polygon fill="midnightblue" stroke="midnightblue" points="166.12,-159.64 160.05,-168.32 170.21,-165.32 166.12,-159.64"/>
</g>
<!-- Node3 -->
<g id="node3" class="node">
<title>Node3</title>
<g id="a_node3"><a xlink:href="levelset_8cpp.html" target="_top" xlink:title=" ">
<polygon fill="white" stroke="black" points="0,-0.5 0,-19.5 76,-19.5 76,-0.5 0,-0.5"/>
<text text-anchor="middle" x="38" y="-7.5" font-family="Helvetica,sans-Serif" font-size="10.00">levelset.cpp</text>
</a>
</g>
</g>
<!-- Node2&#45;&gt;Node3 -->
<g id="edge2" class="edge">
<title>Node2&#45;&gt;Node3</title>
<path fill="none" stroke="midnightblue" d="M48.82,-107C37.81,-99.4 26.04,-88.91 20,-76 11.06,-56.91 23.59,-32.53 31.82,-19.74"/>
<polygon fill="midnightblue" stroke="midnightblue" points="47.06,-110.03 57.37,-112.46 50.83,-104.13 47.06,-110.03"/>
</g>
<!-- Node4 -->
<g id="node4" class="node">
<title>Node4</title>
<g id="a_node4"><a xlink:href="levelset__ops_8_h.html" target="_top" xlink:title=" ">
<polygon fill="white" stroke="black" points="29.5,-56.5 29.5,-75.5 118.5,-75.5 118.5,-56.5 29.5,-56.5"/>
<text text-anchor="middle" x="74" y="-63.5" font-family="Helvetica,sans-Serif" font-size="10.00">levelset_ops.H</text>
</a>
</g>
</g>
<!-- Node2&#45;&gt;Node4 -->
<g id="edge3" class="edge">
<title>Node2&#45;&gt;Node4</title>
<path fill="none" stroke="midnightblue" d="M74,-101.8C74,-92.91 74,-82.78 74,-75.75"/>
<polygon fill="midnightblue" stroke="midnightblue" points="70.5,-102.08 74,-112.08 77.5,-102.08 70.5,-102.08"/>
</g>
<!-- Node4&#45;&gt;Node3 -->
<g id="edge4" class="edge">
<title>Node4&#45;&gt;Node3</title>
<path fill="none" stroke="midnightblue" d="M62.38,-47.57C56.18,-38.27 48.83,-27.25 43.83,-19.75"/>
<polygon fill="midnightblue" stroke="midnightblue" points="59.6,-49.7 68.06,-56.08 65.42,-45.82 59.6,-49.7"/>
</g>
<!-- Node6 -->
<g id="node6" class="node">
<title>Node6</title>
<g id="a_node6"><a xlink:href="vof_8cpp.html" target="_top" xlink:title=" ">
<polygon fill="white" stroke="black" points="248,-0.5 248,-19.5 300,-19.5 300,-0.5 248,-0.5"/>
<text text-anchor="middle" x="274" y="-7.5" font-family="Helvetica,sans-Serif" font-size="10.00">vof.cpp</text>
</a>
</g>
</g>
<!-- Node5&#45;&gt;Node6 -->
<g id="edge6" class="edge">
<title>Node5&#45;&gt;Node6</title>
<path fill="none" stroke="midnightblue" d="M196.68,-107.26C176.2,-94.67 153.24,-75.15 166,-56 184.14,-28.79 222.18,-18.01 247.91,-13.75"/>
<polygon fill="midnightblue" stroke="midnightblue" points="195.08,-110.37 205.49,-112.36 198.59,-104.32 195.08,-110.37"/>
</g>
<!-- Node7 -->
<g id="node7" class="node">
<title>Node7</title>
<g id="a_node7"><a xlink:href="vof__advection_8_h.html" target="_top" xlink:title=" ">
<polygon fill="white" stroke="black" points="175,-56.5 175,-75.5 271,-75.5 271,-56.5 175,-56.5"/>
<text text-anchor="middle" x="223" y="-63.5" font-family="Helvetica,sans-Serif" font-size="10.00">vof_advection.H</text>
</a>
</g>
</g>
<!-- Node5&#45;&gt;Node7 -->
<g id="edge7" class="edge">
<title>Node5&#45;&gt;Node7</title>
<path fill="none" stroke="midnightblue" d="M223,-101.8C223,-92.91 223,-82.78 223,-75.75"/>
<polygon fill="midnightblue" stroke="midnightblue" points="219.5,-102.08 223,-112.08 226.5,-102.08 219.5,-102.08"/>
</g>
<!-- Node8 -->
<g id="node8" class="node">
<title>Node8</title>
<g id="a_node8"><a xlink:href="vof__bcop_8_h.html" target="_top" xlink:title=" ">
<polygon fill="white" stroke="black" points="289.5,-56.5 289.5,-75.5 360.5,-75.5 360.5,-56.5 289.5,-56.5"/>
<text text-anchor="middle" x="325" y="-63.5" font-family="Helvetica,sans-Serif" font-size="10.00">vof_bcop.H</text>
</a>
</g>
</g>
<!-- Node5&#45;&gt;Node8 -->
<g id="edge9" class="edge">
<title>Node5&#45;&gt;Node8</title>
<path fill="none" stroke="midnightblue" d="M248.33,-107.59C267.19,-97.61 292.38,-84.27 308.65,-75.65"/>
<polygon fill="midnightblue" stroke="midnightblue" points="246.59,-104.55 239.39,-112.32 249.86,-110.74 246.59,-104.55"/>
</g>
<!-- Node9 -->
<g id="node9" class="node">
<title>Node9</title>
<g id="a_node9"><a xlink:href="vof__ops_8_h.html" target="_top" xlink:title=" ">
<polygon fill="white" stroke="black" points="378.5,-56.5 378.5,-75.5 443.5,-75.5 443.5,-56.5 378.5,-56.5"/>
<text text-anchor="middle" x="411" y="-63.5" font-family="Helvetica,sans-Serif" font-size="10.00">vof_ops.H</text>
</a>
</g>
</g>
<!-- Node5&#45;&gt;Node9 -->
<g id="edge11" class="edge">
<title>Node5&#45;&gt;Node9</title>
<path fill="none" stroke="midnightblue" d="M253.96,-112.11C289.23,-101.98 346.47,-85.53 381.24,-75.55"/>
<polygon fill="midnightblue" stroke="midnightblue" points="252.85,-108.79 244.2,-114.91 254.78,-115.51 252.85,-108.79"/>
</g>
<!-- Node7&#45;&gt;Node6 -->
<g id="edge8" class="edge">
<title>Node7&#45;&gt;Node6</title>
<path fill="none" stroke="midnightblue" d="M238.38,-48.72C247.37,-39.2 258.36,-27.56 265.74,-19.75"/>
<polygon fill="midnightblue" stroke="midnightblue" points="235.74,-46.41 231.42,-56.08 240.83,-51.22 235.74,-46.41"/>
</g>
<!-- Node8&#45;&gt;Node6 -->
<g id="edge10" class="edge">
<title>Node8&#45;&gt;Node6</title>
<path fill="none" stroke="midnightblue" d="M309.62,-48.72C300.63,-39.2 289.64,-27.56 282.26,-19.75"/>
<polygon fill="midnightblue" stroke="midnightblue" points="307.17,-51.22 316.58,-56.08 312.26,-46.41 307.17,-51.22"/>
</g>
<!-- Node9&#45;&gt;Node6 -->
<g id="edge12" class="edge">
<title>Node9&#45;&gt;Node6</title>
<path fill="none" stroke="midnightblue" d="M379.98,-52.77C354.24,-42.63 318.31,-28.47 295.61,-19.52"/>
<polygon fill="midnightblue" stroke="midnightblue" points="378.71,-56.03 389.29,-56.44 381.27,-49.52 378.71,-56.03"/>
</g>
</g>
</svg>
