<?xml version="1.0" encoding="UTF-8" standalone="no"?>
<!DOCTYPE svg PUBLIC "-//W3C//DTD SVG 1.1//EN"
 "http://www.w3.org/Graphics/SVG/1.1/DTD/svg11.dtd">
<!-- Generated by graphviz version 2.43.0 (0)
 -->
<!-- Title: SynthTurbForcing.cpp Pages: 1 -->
<svg width="2996pt" height="408pt"
 viewBox="0.00 0.00 2995.68 408.00" xmlns="http://www.w3.org/2000/svg" xmlns:xlink="http://www.w3.org/1999/xlink">
<g id="graph0" class="graph" transform="scale(1 1) rotate(0) translate(4 404)">
<title>SynthTurbForcing.cpp</title>
<polygon fill="white" stroke="transparent" points="-4,4 -4,-404 2991.68,-404 2991.68,4 -4,4"/>
<!-- Node1 -->
<g id="node1" class="node">
<title>Node1</title>
<g id="a_node1"><a xlink:title=" ">
<polygon fill="#bfbfbf" stroke="black" points="2348.68,-380.5 2348.68,-399.5 2468.68,-399.5 2468.68,-380.5 2348.68,-380.5"/>
<text text-anchor="middle" x="2408.68" y="-387.5" font-family="Helvetica,sans-Serif" font-size="10.00">SynthTurbForcing.cpp</text>
</a>
</g>
</g>
<!-- Node2 -->
<g id="node2" class="node">
<title>Node2</title>
<g id="a_node2"><a xlink:href="_synth_turb_forcing_8_h.html" target="_top" xlink:title=" ">
<polygon fill="white" stroke="black" points="1480.18,-313.5 1480.18,-343.5 1685.18,-343.5 1685.18,-313.5 1480.18,-313.5"/>
<text text-anchor="start" x="1488.18" y="-331.5" font-family="Helvetica,sans-Serif" font-size="10.00">amr&#45;wind/equation_systems</text>
<text text-anchor="middle" x="1582.68" y="-320.5" font-family="Helvetica,sans-Serif" font-size="10.00">/icns/source_terms/SynthTurbForcing.H</text>
</a>
</g>
</g>
<!-- Node1&#45;&gt;Node2 -->
<g id="edge1" class="edge">
<title>Node1&#45;&gt;Node2</title>
<path fill="none" stroke="midnightblue" d="M2348.61,-384.67C2211.41,-374.79 1873.21,-350.43 1695.66,-337.64"/>
<polygon fill="midnightblue" stroke="midnightblue" points="1695.73,-334.13 1685.51,-336.91 1695.23,-341.12 1695.73,-334.13"/>
</g>
<!-- Node19 -->
<g id="node19" class="node">
<title>Node19</title>
<g id="a_node19"><a xlink:title=" ">
<polygon fill="white" stroke="#bfbfbf" points="2177.18,-56.5 2177.18,-75.5 2264.18,-75.5 2264.18,-56.5 2177.18,-56.5"/>
<text text-anchor="middle" x="2220.68" y="-63.5" font-family="Helvetica,sans-Serif" font-size="10.00">AMReX_Gpu.H</text>
</a>
</g>
</g>
<!-- Node1&#45;&gt;Node19 -->
<g id="edge92" class="edge">
<title>Node1&#45;&gt;Node19</title>
<path fill="none" stroke="midnightblue" d="M2453.57,-380.49C2539.7,-362.87 2719.68,-319.26 2719.68,-262.5 2719.68,-262.5 2719.68,-262.5 2719.68,-193.5 2719.68,-156.31 2728.7,-136.46 2700.68,-112 2669.12,-84.45 2393.35,-72.47 2274.64,-68.56"/>
<polygon fill="midnightblue" stroke="midnightblue" points="2274.44,-65.05 2264.34,-68.22 2274.22,-72.04 2274.44,-65.05"/>
</g>
<!-- Node30 -->
<g id="node30" class="node">
<title>Node30</title>
<g id="a_node30"><a xlink:href="_c_f_d_sim_8_h.html" target="_top" xlink:title=" ">
<polygon fill="white" stroke="black" points="2350.68,-252 2350.68,-271 2466.68,-271 2466.68,-252 2350.68,-252"/>
<text text-anchor="middle" x="2408.68" y="-259" font-family="Helvetica,sans-Serif" font-size="10.00">amr&#45;wind/CFDSim.H</text>
</a>
</g>
</g>
<!-- Node1&#45;&gt;Node30 -->
<g id="edge58" class="edge">
<title>Node1&#45;&gt;Node30</title>
<path fill="none" stroke="midnightblue" d="M2408.68,-380.31C2408.68,-359.99 2408.68,-309.05 2408.68,-281.28"/>
<polygon fill="midnightblue" stroke="midnightblue" points="2412.18,-281.26 2408.68,-271.26 2405.18,-281.26 2412.18,-281.26"/>
</g>
<!-- Node3 -->
<g id="node3" class="node">
<title>Node3</title>
<g id="a_node3"><a xlink:href="_momentum_source_8_h.html" target="_top" xlink:title=" ">
<polygon fill="white" stroke="black" points="895.18,-246.5 895.18,-276.5 1050.18,-276.5 1050.18,-246.5 895.18,-246.5"/>
<text text-anchor="start" x="903.18" y="-264.5" font-family="Helvetica,sans-Serif" font-size="10.00">amr&#45;wind/equation_systems</text>
<text text-anchor="middle" x="972.68" y="-253.5" font-family="Helvetica,sans-Serif" font-size="10.00">/icns/MomentumSource.H</text>
</a>
</g>
</g>
<!-- Node2&#45;&gt;Node3 -->
<g id="edge2" class="edge">
<title>Node2&#45;&gt;Node3</title>
<path fill="none" stroke="midnightblue" d="M1479.89,-316.55C1362.18,-304 1171.34,-283.67 1060.36,-271.84"/>
<polygon fill="midnightblue" stroke="midnightblue" points="1060.52,-268.34 1050.21,-270.76 1059.78,-275.3 1060.52,-268.34"/>
</g>
<!-- Node4 -->
<g id="node4" class="node">
<title>Node4</title>
<g id="a_node4"><a xlink:href="_factory_8_h.html" target="_top" xlink:title=" ">
<polygon fill="white" stroke="black" points="1807.68,-118 1807.68,-137 1941.68,-137 1941.68,-118 1807.68,-118"/>
<text text-anchor="middle" x="1874.68" y="-125" font-family="Helvetica,sans-Serif" font-size="10.00">amr&#45;wind/core/Factory.H</text>
</a>
</g>
</g>
<!-- Node3&#45;&gt;Node4 -->
<g id="edge3" class="edge">
<title>Node3&#45;&gt;Node4</title>
<path fill="none" stroke="midnightblue" d="M1050.36,-259.96C1248.05,-258.01 1759.26,-249.2 1824.68,-210 1848.23,-195.89 1862.22,-166 1869.17,-146.6"/>
<polygon fill="midnightblue" stroke="midnightblue" points="1872.51,-147.67 1872.33,-137.08 1865.86,-145.47 1872.51,-147.67"/>
</g>
<!-- Node10 -->
<g id="node10" class="node">
<title>Node10</title>
<g id="a_node10"><a xlink:href="_field_desc_types_8_h.html" target="_top" xlink:title=" ">
<polygon fill="white" stroke="black" points="609.68,-0.5 609.68,-19.5 785.68,-19.5 785.68,-0.5 609.68,-0.5"/>
<text text-anchor="middle" x="697.68" y="-7.5" font-family="Helvetica,sans-Serif" font-size="10.00">amr&#45;wind/core/FieldDescTypes.H</text>
</a>
</g>
</g>
<!-- Node3&#45;&gt;Node10 -->
<g id="edge9" class="edge">
<title>Node3&#45;&gt;Node10</title>
<path fill="none" stroke="midnightblue" d="M895.18,-258.65C701.91,-252.77 204.28,-229.4 66.68,-143 35.88,-123.66 30.64,-110.69 19.68,-76 17.01,-67.52 13.61,-62.49 19.68,-56 29.46,-45.55 414,-25.09 599.52,-15.79"/>
<polygon fill="midnightblue" stroke="midnightblue" points="599.74,-19.29 609.55,-15.29 599.39,-12.3 599.74,-19.29"/>
</g>
<!-- Node11 -->
<g id="node11" class="node">
<title>Node11</title>
<g id="a_node11"><a xlink:href="_field_utils_8_h.html" target="_top" xlink:title=" ">
<polygon fill="white" stroke="black" points="75.68,-118 75.68,-137 221.68,-137 221.68,-118 75.68,-118"/>
<text text-anchor="middle" x="148.68" y="-125" font-family="Helvetica,sans-Serif" font-size="10.00">amr&#45;wind/core/FieldUtils.H</text>
</a>
</g>
</g>
<!-- Node3&#45;&gt;Node11 -->
<g id="edge10" class="edge">
<title>Node3&#45;&gt;Node11</title>
<path fill="none" stroke="midnightblue" d="M894.93,-248.29C760.49,-227.13 475.93,-182.17 235.68,-143 227.32,-141.64 218.51,-140.18 209.83,-138.75"/>
<polygon fill="midnightblue" stroke="midnightblue" points="210.18,-135.26 199.74,-137.07 209.03,-142.16 210.18,-135.26"/>
</g>
<!-- Node12 -->
<g id="node12" class="node">
<title>Node12</title>
<g id="a_node12"><a xlink:title=" ">
<polygon fill="white" stroke="#bfbfbf" points="361.18,-0.5 361.18,-19.5 470.18,-19.5 470.18,-0.5 361.18,-0.5"/>
<text text-anchor="middle" x="415.68" y="-7.5" font-family="Helvetica,sans-Serif" font-size="10.00">AMReX_MultiFab.H</text>
</a>
</g>
</g>
<!-- Node3&#45;&gt;Node12 -->
<g id="edge57" class="edge">
<title>Node3&#45;&gt;Node12</title>
<path fill="none" stroke="midnightblue" d="M895.09,-259.8C719.38,-257.56 295.75,-248.24 158.68,-210 96.83,-192.74 70.83,-193.11 30.68,-143 5.99,-112.19 -13.64,-85.43 12.68,-56 34.79,-31.28 242.67,-18.57 350.88,-13.58"/>
<polygon fill="midnightblue" stroke="midnightblue" points="351.2,-17.07 361.03,-13.13 350.89,-10.08 351.2,-17.07"/>
</g>
<!-- Node14 -->
<g id="node14" class="node">
<title>Node14</title>
<g id="a_node14"><a xlink:href="_field_repo_8_h.html" target="_top" xlink:title=" ">
<polygon fill="white" stroke="black" points="949.18,-185 949.18,-204 1098.18,-204 1098.18,-185 949.18,-185"/>
<text text-anchor="middle" x="1023.68" y="-192" font-family="Helvetica,sans-Serif" font-size="10.00">amr&#45;wind/core/FieldRepo.H</text>
</a>
</g>
</g>
<!-- Node3&#45;&gt;Node14 -->
<g id="edge14" class="edge">
<title>Node3&#45;&gt;Node14</title>
<path fill="none" stroke="midnightblue" d="M983.75,-246.4C991.62,-236.36 1002.23,-222.84 1010.54,-212.25"/>
<polygon fill="midnightblue" stroke="midnightblue" points="1013.44,-214.22 1016.86,-204.19 1007.93,-209.9 1013.44,-214.22"/>
</g>
<!-- Node5 -->
<g id="node5" class="node">
<title>Node5</title>
<g id="a_node5"><a xlink:title=" ">
<polygon fill="white" stroke="#bfbfbf" points="1675.68,-56.5 1675.68,-75.5 1733.68,-75.5 1733.68,-56.5 1675.68,-56.5"/>
<text text-anchor="middle" x="1704.68" y="-63.5" font-family="Helvetica,sans-Serif" font-size="10.00">memory</text>
</a>
</g>
</g>
<!-- Node4&#45;&gt;Node5 -->
<g id="edge4" class="edge">
<title>Node4&#45;&gt;Node5</title>
<path fill="none" stroke="midnightblue" d="M1850.33,-117.98C1821.04,-107.72 1771.71,-90.46 1738.68,-78.9"/>
<polygon fill="midnightblue" stroke="midnightblue" points="1739.59,-75.51 1728.99,-75.51 1737.28,-82.12 1739.59,-75.51"/>
</g>
<!-- Node6 -->
<g id="node6" class="node">
<title>Node6</title>
<g id="a_node6"><a xlink:title=" ">
<polygon fill="white" stroke="#bfbfbf" points="1564.18,-56.5 1564.18,-75.5 1657.18,-75.5 1657.18,-56.5 1564.18,-56.5"/>
<text text-anchor="middle" x="1610.68" y="-63.5" font-family="Helvetica,sans-Serif" font-size="10.00">unordered_map</text>
</a>
</g>
</g>
<!-- Node4&#45;&gt;Node6 -->
<g id="edge5" class="edge">
<title>Node4&#45;&gt;Node6</title>
<path fill="none" stroke="midnightblue" d="M1836.86,-117.98C1789.81,-107.37 1709.45,-89.26 1658.27,-77.72"/>
<polygon fill="midnightblue" stroke="midnightblue" points="1658.96,-74.29 1648.44,-75.51 1657.42,-81.12 1658.96,-74.29"/>
</g>
<!-- Node7 -->
<g id="node7" class="node">
<title>Node7</title>
<g id="a_node7"><a xlink:title=" ">
<polygon fill="white" stroke="#bfbfbf" points="1751.68,-56.5 1751.68,-75.5 1811.68,-75.5 1811.68,-56.5 1751.68,-56.5"/>
<text text-anchor="middle" x="1781.68" y="-63.5" font-family="Helvetica,sans-Serif" font-size="10.00">iostream</text>
</a>
</g>
</g>
<!-- Node4&#45;&gt;Node7 -->
<g id="edge6" class="edge">
<title>Node4&#45;&gt;Node7</title>
<path fill="none" stroke="midnightblue" d="M1861.36,-117.98C1846.3,-108.34 1821.57,-92.52 1803.65,-81.05"/>
<polygon fill="midnightblue" stroke="midnightblue" points="1805.29,-77.95 1794.98,-75.51 1801.52,-83.85 1805.29,-77.95"/>
</g>
<!-- Node8 -->
<g id="node8" class="node">
<title>Node8</title>
<g id="a_node8"><a xlink:title=" ">
<polygon fill="white" stroke="#bfbfbf" points="1829.68,-56.5 1829.68,-75.5 1919.68,-75.5 1919.68,-56.5 1829.68,-56.5"/>
<text text-anchor="middle" x="1874.68" y="-63.5" font-family="Helvetica,sans-Serif" font-size="10.00">AMReX_Print.H</text>
</a>
</g>
</g>
<!-- Node4&#45;&gt;Node8 -->
<g id="edge7" class="edge">
<title>Node4&#45;&gt;Node8</title>
<path fill="none" stroke="midnightblue" d="M1874.68,-117.98C1874.68,-109.58 1874.68,-96.48 1874.68,-85.66"/>
<polygon fill="midnightblue" stroke="midnightblue" points="1878.18,-85.51 1874.68,-75.51 1871.18,-85.51 1878.18,-85.51"/>
</g>
<!-- Node9 -->
<g id="node9" class="node">
<title>Node9</title>
<g id="a_node9"><a xlink:title=" ">
<polygon fill="white" stroke="#bfbfbf" points="1937.68,-56.5 1937.68,-75.5 1999.68,-75.5 1999.68,-56.5 1937.68,-56.5"/>
<text text-anchor="middle" x="1968.68" y="-63.5" font-family="Helvetica,sans-Serif" font-size="10.00">AMReX.H</text>
</a>
</g>
</g>
<!-- Node4&#45;&gt;Node9 -->
<g id="edge8" class="edge">
<title>Node4&#45;&gt;Node9</title>
<path fill="none" stroke="midnightblue" d="M1888.15,-117.98C1903.37,-108.34 1928.37,-92.52 1946.48,-81.05"/>
<polygon fill="midnightblue" stroke="midnightblue" points="1948.66,-83.81 1955.24,-75.51 1944.92,-77.9 1948.66,-83.81"/>
</g>
<!-- Node11&#45;&gt;Node10 -->
<g id="edge11" class="edge">
<title>Node11&#45;&gt;Node10</title>
<path fill="none" stroke="midnightblue" d="M165.04,-117.92C194.75,-102.75 259.95,-71.35 318.68,-56 412.09,-31.59 521.95,-20.39 599.27,-15.27"/>
<polygon fill="midnightblue" stroke="midnightblue" points="599.73,-18.74 609.48,-14.61 599.28,-11.76 599.73,-18.74"/>
</g>
<!-- Node11&#45;&gt;Node12 -->
<g id="edge12" class="edge">
<title>Node11&#45;&gt;Node12</title>
<path fill="none" stroke="midnightblue" d="M152.9,-117.98C160.82,-102.9 179.44,-71.65 204.68,-56 248.69,-28.72 306.69,-17.78 350.75,-13.49"/>
<polygon fill="midnightblue" stroke="midnightblue" points="351.12,-16.97 360.77,-12.6 350.5,-10 351.12,-16.97"/>
</g>
<!-- Node13 -->
<g id="node13" class="node">
<title>Node13</title>
<g id="a_node13"><a xlink:title=" ">
<polygon fill="white" stroke="#bfbfbf" points="28.68,-56.5 28.68,-75.5 152.68,-75.5 152.68,-56.5 28.68,-56.5"/>
<text text-anchor="middle" x="90.68" y="-63.5" font-family="Helvetica,sans-Serif" font-size="10.00">AMReX_Interpolater.H</text>
</a>
</g>
</g>
<!-- Node11&#45;&gt;Node13 -->
<g id="edge13" class="edge">
<title>Node11&#45;&gt;Node13</title>
<path fill="none" stroke="midnightblue" d="M140.37,-117.98C131.5,-108.87 117.24,-94.24 106.26,-82.98"/>
<polygon fill="midnightblue" stroke="midnightblue" points="108.46,-80.23 98.98,-75.51 103.45,-85.11 108.46,-80.23"/>
</g>
<!-- Node14&#45;&gt;Node6 -->
<g id="edge16" class="edge">
<title>Node14&#45;&gt;Node6</title>
<path fill="none" stroke="midnightblue" d="M1098.53,-188.92C1208.97,-181.54 1409.95,-165.51 1478.68,-143 1521.88,-128.85 1566.58,-99.44 1591.29,-81.64"/>
<polygon fill="midnightblue" stroke="midnightblue" points="1593.45,-84.39 1599.45,-75.66 1589.31,-78.75 1593.45,-84.39"/>
</g>
<!-- Node14&#45;&gt;Node10 -->
<g id="edge17" class="edge">
<title>Node14&#45;&gt;Node10</title>
<path fill="none" stroke="midnightblue" d="M949.04,-190.31C784.11,-182.89 401.67,-163.55 382.68,-143 373.38,-132.93 373.59,-69.23 385.68,-56 413.79,-25.25 518.8,-15.16 599.32,-12.03"/>
<polygon fill="midnightblue" stroke="midnightblue" points="599.64,-15.52 609.5,-11.67 599.39,-8.53 599.64,-15.52"/>
</g>
<!-- Node14&#45;&gt;Node11 -->
<g id="edge18" class="edge">
<title>Node14&#45;&gt;Node11</title>
<path fill="none" stroke="midnightblue" d="M949.04,-191.23C808.86,-186.42 496.82,-173.05 235.68,-143 225.64,-141.84 215,-140.32 204.73,-138.7"/>
<polygon fill="midnightblue" stroke="midnightblue" points="205.05,-135.2 194.61,-137.05 203.92,-142.11 205.05,-135.2"/>
</g>
<!-- Node14&#45;&gt;Node12 -->
<g id="edge55" class="edge">
<title>Node14&#45;&gt;Node12</title>
<path fill="none" stroke="midnightblue" d="M949.08,-192.26C787.77,-188.95 417.39,-177.61 372.68,-143 341.06,-118.52 330.99,-91.36 349.68,-56 357.11,-41.95 371.1,-31.47 384.3,-24.17"/>
<polygon fill="midnightblue" stroke="midnightblue" points="385.91,-27.28 393.22,-19.62 382.73,-21.04 385.91,-27.28"/>
</g>
<!-- Node15 -->
<g id="node15" class="node">
<title>Node15</title>
<g id="a_node15"><a xlink:title=" ">
<polygon fill="white" stroke="#bfbfbf" points="1199.68,-0.5 1199.68,-19.5 1243.68,-19.5 1243.68,-0.5 1199.68,-0.5"/>
<text text-anchor="middle" x="1221.68" y="-7.5" font-family="Helvetica,sans-Serif" font-size="10.00">string</text>
</a>
</g>
</g>
<!-- Node14&#45;&gt;Node15 -->
<g id="edge15" class="edge">
<title>Node14&#45;&gt;Node15</title>
<path fill="none" stroke="midnightblue" d="M1082.27,-184.99C1130.42,-176.72 1193.28,-162.54 1209.68,-143 1236.59,-110.93 1231.32,-57.77 1226.01,-29.7"/>
<polygon fill="midnightblue" stroke="midnightblue" points="1229.38,-28.71 1223.9,-19.65 1222.53,-30.15 1229.38,-28.71"/>
</g>
<!-- Node16 -->
<g id="node16" class="node">
<title>Node16</title>
<g id="a_node16"><a xlink:href="_field_8_h.html" target="_top" xlink:title=" ">
<polygon fill="white" stroke="black" points="1345.68,-118 1345.68,-137 1469.68,-137 1469.68,-118 1345.68,-118"/>
<text text-anchor="middle" x="1407.68" y="-125" font-family="Helvetica,sans-Serif" font-size="10.00">amr&#45;wind/core/Field.H</text>
</a>
</g>
</g>
<!-- Node14&#45;&gt;Node16 -->
<g id="edge19" class="edge">
<title>Node14&#45;&gt;Node16</title>
<path fill="none" stroke="midnightblue" d="M1074.28,-184.94C1144.59,-173.03 1271.69,-151.52 1347.01,-138.77"/>
<polygon fill="midnightblue" stroke="midnightblue" points="1348,-142.15 1357.28,-137.03 1346.84,-135.25 1348,-142.15"/>
</g>
<!-- Node23 -->
<g id="node23" class="node">
<title>Node23</title>
<g id="a_node23"><a xlink:href="_int_field_8_h.html" target="_top" xlink:title=" ">
<polygon fill="white" stroke="black" points="1064.18,-118 1064.18,-137 1201.18,-137 1201.18,-118 1064.18,-118"/>
<text text-anchor="middle" x="1132.68" y="-125" font-family="Helvetica,sans-Serif" font-size="10.00">amr&#45;wind/core/IntField.H</text>
</a>
</g>
</g>
<!-- Node14&#45;&gt;Node23 -->
<g id="edge34" class="edge">
<title>Node14&#45;&gt;Node23</title>
<path fill="none" stroke="midnightblue" d="M1038.38,-184.73C1056.61,-173.87 1087.88,-155.22 1109.39,-142.39"/>
<polygon fill="midnightblue" stroke="midnightblue" points="1111.42,-145.26 1118.22,-137.13 1107.83,-139.24 1111.42,-145.26"/>
</g>
<!-- Node24 -->
<g id="node24" class="node">
<title>Node24</title>
<g id="a_node24"><a xlink:title=" ">
<polygon fill="white" stroke="#bfbfbf" points="967.68,-56.5 967.68,-75.5 1079.68,-75.5 1079.68,-56.5 967.68,-56.5"/>
<text text-anchor="middle" x="1023.68" y="-63.5" font-family="Helvetica,sans-Serif" font-size="10.00">AMReX_iMultiFab.H</text>
</a>
</g>
</g>
<!-- Node14&#45;&gt;Node24 -->
<g id="edge56" class="edge">
<title>Node14&#45;&gt;Node24</title>
<path fill="none" stroke="midnightblue" d="M1023.68,-184.81C1023.68,-164.49 1023.68,-113.55 1023.68,-85.78"/>
<polygon fill="midnightblue" stroke="midnightblue" points="1027.18,-85.76 1023.68,-75.76 1020.18,-85.76 1027.18,-85.76"/>
</g>
<!-- Node25 -->
<g id="node25" class="node">
<title>Node25</title>
<g id="a_node25"><a xlink:href="_scratch_field_8_h.html" target="_top" xlink:title=" ">
<polygon fill="white" stroke="black" points="391.68,-118 391.68,-137 551.68,-137 551.68,-118 391.68,-118"/>
<text text-anchor="middle" x="471.68" y="-125" font-family="Helvetica,sans-Serif" font-size="10.00">amr&#45;wind/core/ScratchField.H</text>
</a>
</g>
</g>
<!-- Node14&#45;&gt;Node25 -->
<g id="edge38" class="edge">
<title>Node14&#45;&gt;Node25</title>
<path fill="none" stroke="midnightblue" d="M951.23,-184.97C848.8,-172.91 662.14,-150.93 554.4,-138.24"/>
<polygon fill="midnightblue" stroke="midnightblue" points="554.56,-134.74 544.22,-137.04 553.74,-141.69 554.56,-134.74"/>
</g>
<!-- Node28 -->
<g id="node28" class="node">
<title>Node28</title>
<g id="a_node28"><a xlink:href="_int_scratch_field_8_h.html" target="_top" xlink:title=" ">
<polygon fill="white" stroke="black" points="781.18,-112.5 781.18,-142.5 920.18,-142.5 920.18,-112.5 781.18,-112.5"/>
<text text-anchor="start" x="789.18" y="-130.5" font-family="Helvetica,sans-Serif" font-size="10.00">amr&#45;wind/core/IntScratch</text>
<text text-anchor="middle" x="850.68" y="-119.5" font-family="Helvetica,sans-Serif" font-size="10.00">Field.H</text>
</a>
</g>
</g>
<!-- Node14&#45;&gt;Node28 -->
<g id="edge46" class="edge">
<title>Node14&#45;&gt;Node28</title>
<path fill="none" stroke="midnightblue" d="M1000.71,-184.87C974.53,-175.03 931.03,-158.69 897.6,-146.13"/>
<polygon fill="midnightblue" stroke="midnightblue" points="898.61,-142.77 888.02,-142.53 896.15,-149.32 898.61,-142.77"/>
</g>
<!-- Node29 -->
<g id="node29" class="node">
<title>Node29</title>
<g id="a_node29"><a xlink:title=" ">
<polygon fill="white" stroke="#bfbfbf" points="2581.68,-118 2581.68,-137 2691.68,-137 2691.68,-118 2581.68,-118"/>
<text text-anchor="middle" x="2636.68" y="-125" font-family="Helvetica,sans-Serif" font-size="10.00">AMReX_AmrCore.H</text>
</a>
</g>
</g>
<!-- Node14&#45;&gt;Node29 -->
<g id="edge54" class="edge">
<title>Node14&#45;&gt;Node29</title>
<path fill="none" stroke="midnightblue" d="M1098.21,-191.89C1387.18,-185.52 2424.97,-161.59 2571.68,-143 2579.02,-142.07 2586.74,-140.7 2594.21,-139.17"/>
<polygon fill="midnightblue" stroke="midnightblue" points="2595.13,-142.55 2604.16,-137.01 2593.64,-135.71 2595.13,-142.55"/>
</g>
<!-- Node16&#45;&gt;Node5 -->
<g id="edge21" class="edge">
<title>Node16&#45;&gt;Node5</title>
<path fill="none" stroke="midnightblue" d="M1453.92,-117.93C1503.6,-108.62 1585.13,-93.03 1665.52,-75.97"/>
<polygon fill="midnightblue" stroke="midnightblue" points="1666.27,-79.39 1675.32,-73.89 1664.81,-72.55 1666.27,-79.39"/>
</g>
<!-- Node16&#45;&gt;Node6 -->
<g id="edge22" class="edge">
<title>Node16&#45;&gt;Node6</title>
<path fill="none" stroke="midnightblue" d="M1436.77,-117.98C1472.27,-107.57 1532.43,-89.94 1571.86,-78.38"/>
<polygon fill="midnightblue" stroke="midnightblue" points="1573.04,-81.68 1581.65,-75.51 1571.07,-74.96 1573.04,-81.68"/>
</g>
<!-- Node16&#45;&gt;Node10 -->
<g id="edge28" class="edge">
<title>Node16&#45;&gt;Node10</title>
<path fill="none" stroke="midnightblue" d="M1377.37,-117.91C1324.2,-103.15 1210.49,-72.92 1112.68,-56 1005.12,-37.39 880.46,-25.1 796.06,-18.14"/>
<polygon fill="midnightblue" stroke="midnightblue" points="796.23,-14.64 785.97,-17.32 795.66,-21.62 796.23,-14.64"/>
</g>
<!-- Node16&#45;&gt;Node12 -->
<g id="edge24" class="edge">
<title>Node16&#45;&gt;Node12</title>
<path fill="none" stroke="midnightblue" d="M1345.41,-122.16C1286.27,-116.51 1195.66,-103.83 1121.68,-76 1105.63,-69.96 1105.04,-61.16 1088.68,-56 1060,-46.94 643.74,-23.43 480.6,-14.51"/>
<polygon fill="midnightblue" stroke="midnightblue" points="480.4,-10.99 470.22,-13.94 480.02,-17.98 480.4,-10.99"/>
</g>
<!-- Node16&#45;&gt;Node15 -->
<g id="edge20" class="edge">
<title>Node16&#45;&gt;Node15</title>
<path fill="none" stroke="midnightblue" d="M1427.81,-117.84C1454.93,-104.97 1497.65,-79.78 1477.68,-56 1449.43,-22.35 1316.03,-13.85 1253.8,-11.72"/>
<polygon fill="midnightblue" stroke="midnightblue" points="1253.85,-8.22 1243.74,-11.41 1253.63,-15.21 1253.85,-8.22"/>
</g>
<!-- Node17 -->
<g id="node17" class="node">
<title>Node17</title>
<g id="a_node17"><a xlink:title=" ">
<polygon fill="white" stroke="#bfbfbf" points="1287.68,-56.5 1287.68,-75.5 1351.68,-75.5 1351.68,-56.5 1287.68,-56.5"/>
<text text-anchor="middle" x="1319.68" y="-63.5" font-family="Helvetica,sans-Serif" font-size="10.00">algorithm</text>
</a>
</g>
</g>
<!-- Node16&#45;&gt;Node17 -->
<g id="edge23" class="edge">
<title>Node16&#45;&gt;Node17</title>
<path fill="none" stroke="midnightblue" d="M1395.07,-117.98C1380.96,-108.43 1357.85,-92.81 1340.93,-81.37"/>
<polygon fill="midnightblue" stroke="midnightblue" points="1342.51,-78.21 1332.27,-75.51 1338.59,-84.01 1342.51,-78.21"/>
</g>
<!-- Node18 -->
<g id="node18" class="node">
<title>Node18</title>
<g id="a_node18"><a xlink:title=" ">
<polygon fill="white" stroke="#bfbfbf" points="1370.18,-56.5 1370.18,-75.5 1469.18,-75.5 1469.18,-56.5 1370.18,-56.5"/>
<text text-anchor="middle" x="1419.68" y="-63.5" font-family="Helvetica,sans-Serif" font-size="10.00">AMReX_BCRec.H</text>
</a>
</g>
</g>
<!-- Node16&#45;&gt;Node18 -->
<g id="edge25" class="edge">
<title>Node16&#45;&gt;Node18</title>
<path fill="none" stroke="midnightblue" d="M1409.4,-117.98C1411.11,-109.49 1413.79,-96.2 1415.99,-85.32"/>
<polygon fill="midnightblue" stroke="midnightblue" points="1419.42,-86 1417.97,-75.51 1412.56,-84.62 1419.42,-86"/>
</g>
<!-- Node16&#45;&gt;Node19 -->
<g id="edge26" class="edge">
<title>Node16&#45;&gt;Node19</title>
<path fill="none" stroke="midnightblue" d="M1469.7,-122.74C1632.43,-112.84 2065.49,-86.14 2166.85,-75.88"/>
<polygon fill="midnightblue" stroke="midnightblue" points="2167.5,-79.33 2177.06,-74.77 2166.74,-72.37 2167.5,-79.33"/>
</g>
<!-- Node20 -->
<g id="node20" class="node">
<title>Node20</title>
<g id="a_node20"><a xlink:href="incflo__enums_8_h.html" target="_top" xlink:title=" ">
<polygon fill="white" stroke="black" points="2018.18,-56.5 2018.18,-75.5 2159.18,-75.5 2159.18,-56.5 2018.18,-56.5"/>
<text text-anchor="middle" x="2088.68" y="-63.5" font-family="Helvetica,sans-Serif" font-size="10.00">amr&#45;wind/incflo_enums.H</text>
</a>
</g>
</g>
<!-- Node16&#45;&gt;Node20 -->
<g id="edge27" class="edge">
<title>Node16&#45;&gt;Node20</title>
<path fill="none" stroke="midnightblue" d="M1470.03,-121.84C1577.49,-113.69 1804.78,-95.88 2008.06,-76.04"/>
<polygon fill="midnightblue" stroke="midnightblue" points="2008.41,-79.52 2018.02,-75.06 2007.73,-72.55 2008.41,-79.52"/>
</g>
<!-- Node21 -->
<g id="node21" class="node">
<title>Node21</title>
<g id="a_node21"><a xlink:href="_view_field_8_h.html" target="_top" xlink:title=" ">
<polygon fill="white" stroke="black" points="725.68,-56.5 725.68,-75.5 873.68,-75.5 873.68,-56.5 725.68,-56.5"/>
<text text-anchor="middle" x="799.68" y="-63.5" font-family="Helvetica,sans-Serif" font-size="10.00">amr&#45;wind/core/ViewField.H</text>
</a>
</g>
</g>
<!-- Node16&#45;&gt;Node21 -->
<g id="edge29" class="edge">
<title>Node16&#45;&gt;Node21</title>
<path fill="none" stroke="midnightblue" d="M1345.47,-120.41C1235.82,-109.68 1008.05,-87.39 884.24,-75.27"/>
<polygon fill="midnightblue" stroke="midnightblue" points="884.34,-71.77 874.05,-74.28 883.66,-78.73 884.34,-71.77"/>
</g>
<!-- Node21&#45;&gt;Node10 -->
<g id="edge31" class="edge">
<title>Node21&#45;&gt;Node10</title>
<path fill="none" stroke="midnightblue" d="M783.29,-56.32C767.01,-47.7 741.82,-34.36 722.97,-24.39"/>
<polygon fill="midnightblue" stroke="midnightblue" points="724.51,-21.24 714.03,-19.65 721.23,-27.43 724.51,-21.24"/>
</g>
<!-- Node21&#45;&gt;Node12 -->
<g id="edge32" class="edge">
<title>Node21&#45;&gt;Node12</title>
<path fill="none" stroke="midnightblue" d="M738.84,-56.44C668.39,-46.54 552.82,-30.28 480.66,-20.14"/>
<polygon fill="midnightblue" stroke="midnightblue" points="480.73,-16.61 470.34,-18.69 479.75,-23.54 480.73,-16.61"/>
</g>
<!-- Node21&#45;&gt;Node15 -->
<g id="edge30" class="edge">
<title>Node21&#45;&gt;Node15</title>
<path fill="none" stroke="midnightblue" d="M866.55,-56.44C958.54,-44.67 1120.55,-23.94 1189.34,-15.14"/>
<polygon fill="midnightblue" stroke="midnightblue" points="1190.08,-18.57 1199.55,-13.83 1189.19,-11.63 1190.08,-18.57"/>
</g>
<!-- Node22 -->
<g id="node22" class="node">
<title>Node22</title>
<g id="a_node22"><a xlink:title=" ">
<polygon fill="white" stroke="#bfbfbf" points="828.68,-0.5 828.68,-19.5 926.68,-19.5 926.68,-0.5 828.68,-0.5"/>
<text text-anchor="middle" x="877.68" y="-7.5" font-family="Helvetica,sans-Serif" font-size="10.00">AMReX_Vector.H</text>
</a>
</g>
</g>
<!-- Node21&#45;&gt;Node22 -->
<g id="edge33" class="edge">
<title>Node21&#45;&gt;Node22</title>
<path fill="none" stroke="midnightblue" d="M812.21,-56.32C824.27,-47.98 842.71,-35.21 856.95,-25.35"/>
<polygon fill="midnightblue" stroke="midnightblue" points="858.95,-28.22 865.18,-19.65 854.97,-22.47 858.95,-28.22"/>
</g>
<!-- Node23&#45;&gt;Node10 -->
<g id="edge36" class="edge">
<title>Node23&#45;&gt;Node10</title>
<path fill="none" stroke="midnightblue" d="M1130.04,-117.78C1124.87,-102.39 1111.85,-70.65 1088.68,-56 1076.4,-48.24 907.78,-30.92 796.03,-20.17"/>
<polygon fill="midnightblue" stroke="midnightblue" points="796.36,-16.69 786.07,-19.22 795.69,-23.66 796.36,-16.69"/>
</g>
<!-- Node23&#45;&gt;Node15 -->
<g id="edge35" class="edge">
<title>Node23&#45;&gt;Node15</title>
<path fill="none" stroke="midnightblue" d="M1139.37,-117.82C1154.06,-98.76 1189.36,-52.95 1208.62,-27.96"/>
<polygon fill="midnightblue" stroke="midnightblue" points="1211.58,-29.84 1214.92,-19.78 1206.04,-25.57 1211.58,-29.84"/>
</g>
<!-- Node23&#45;&gt;Node24 -->
<g id="edge37" class="edge">
<title>Node23&#45;&gt;Node24</title>
<path fill="none" stroke="midnightblue" d="M1117.07,-117.98C1099.1,-108.17 1069.36,-91.93 1048.28,-80.42"/>
<polygon fill="midnightblue" stroke="midnightblue" points="1049.73,-77.23 1039.27,-75.51 1046.37,-83.37 1049.73,-77.23"/>
</g>
<!-- Node25&#45;&gt;Node10 -->
<g id="edge41" class="edge">
<title>Node25&#45;&gt;Node10</title>
<path fill="none" stroke="midnightblue" d="M449.22,-117.87C419.58,-105.25 373.49,-80.57 394.68,-56 420.82,-25.7 520.94,-15.47 599.02,-12.19"/>
<polygon fill="midnightblue" stroke="midnightblue" points="599.54,-15.67 609.4,-11.79 599.27,-8.68 599.54,-15.67"/>
</g>
<!-- Node25&#45;&gt;Node12 -->
<g id="edge43" class="edge">
<title>Node25&#45;&gt;Node12</title>
<path fill="none" stroke="midnightblue" d="M422.69,-117.96C398.47,-110.99 371.35,-98.46 356.68,-76 343.92,-56.46 367.54,-37.04 388.58,-24.59"/>
<polygon fill="midnightblue" stroke="midnightblue" points="390.3,-27.63 397.32,-19.7 386.88,-21.52 390.3,-27.63"/>
</g>
<!-- Node25&#45;&gt;Node15 -->
<g id="edge39" class="edge">
<title>Node25&#45;&gt;Node15</title>
<path fill="none" stroke="midnightblue" d="M467.29,-117.78C460.51,-102.95 449.85,-72.81 465.68,-56 478.29,-42.62 1045.99,-18.27 1189.16,-12.33"/>
<polygon fill="midnightblue" stroke="midnightblue" points="1189.63,-15.82 1199.47,-11.91 1189.34,-8.82 1189.63,-15.82"/>
</g>
<!-- Node25&#45;&gt;Node21 -->
<g id="edge42" class="edge">
<title>Node25&#45;&gt;Node21</title>
<path fill="none" stroke="midnightblue" d="M518.68,-117.98C577.86,-107.24 679.47,-88.81 742.93,-77.29"/>
<polygon fill="midnightblue" stroke="midnightblue" points="743.56,-80.74 752.78,-75.51 742.31,-73.85 743.56,-80.74"/>
</g>
<!-- Node25&#45;&gt;Node22 -->
<g id="edge44" class="edge">
<title>Node25&#45;&gt;Node22</title>
<path fill="none" stroke="midnightblue" d="M460.61,-117.9C443.72,-103.76 415.22,-75.29 432.68,-56 459.81,-26.04 754.48,-24.18 794.68,-20 802.39,-19.2 810.49,-18.34 818.49,-17.48"/>
<polygon fill="midnightblue" stroke="midnightblue" points="818.97,-20.95 828.54,-16.4 818.22,-13.99 818.97,-20.95"/>
</g>
<!-- Node26 -->
<g id="node26" class="node">
<title>Node26</title>
<g id="a_node26"><a xlink:title=" ">
<polygon fill="white" stroke="#bfbfbf" points="475.18,-56.5 475.18,-75.5 520.18,-75.5 520.18,-56.5 475.18,-56.5"/>
<text text-anchor="middle" x="497.68" y="-63.5" font-family="Helvetica,sans-Serif" font-size="10.00">utility</text>
</a>
</g>
</g>
<!-- Node25&#45;&gt;Node26 -->
<g id="edge40" class="edge">
<title>Node25&#45;&gt;Node26</title>
<path fill="none" stroke="midnightblue" d="M475.41,-117.98C479.15,-109.4 485.04,-95.93 489.82,-84.98"/>
<polygon fill="midnightblue" stroke="midnightblue" points="493.17,-86.07 493.96,-75.51 486.75,-83.27 493.17,-86.07"/>
</g>
<!-- Node27 -->
<g id="node27" class="node">
<title>Node27</title>
<g id="a_node27"><a xlink:title=" ">
<polygon fill="white" stroke="#bfbfbf" points="538.18,-56.5 538.18,-75.5 669.18,-75.5 669.18,-56.5 538.18,-56.5"/>
<text text-anchor="middle" x="603.68" y="-63.5" font-family="Helvetica,sans-Serif" font-size="10.00">AMReX_PhysBCFunct.H</text>
</a>
</g>
</g>
<!-- Node25&#45;&gt;Node27 -->
<g id="edge45" class="edge">
<title>Node25&#45;&gt;Node27</title>
<path fill="none" stroke="midnightblue" d="M490.6,-117.98C512.85,-107.95 550,-91.2 575.61,-79.65"/>
<polygon fill="midnightblue" stroke="midnightblue" points="577.13,-82.81 584.81,-75.51 574.25,-76.43 577.13,-82.81"/>
</g>
<!-- Node28&#45;&gt;Node10 -->
<g id="edge49" class="edge">
<title>Node28&#45;&gt;Node10</title>
<path fill="none" stroke="midnightblue" d="M780.87,-113.41C757.72,-105.93 733.58,-94.23 716.68,-76 705.08,-63.48 700.53,-44.25 698.76,-29.96"/>
<polygon fill="midnightblue" stroke="midnightblue" points="702.23,-29.42 697.86,-19.77 695.25,-30.04 702.23,-29.42"/>
</g>
<!-- Node28&#45;&gt;Node15 -->
<g id="edge47" class="edge">
<title>Node28&#45;&gt;Node15</title>
<path fill="none" stroke="midnightblue" d="M867.42,-112.4C887.67,-96.12 923.46,-69.82 958.68,-56 1037.79,-24.96 1138.58,-15.3 1189.35,-12.32"/>
<polygon fill="midnightblue" stroke="midnightblue" points="1189.6,-15.81 1199.4,-11.77 1189.22,-8.82 1189.6,-15.81"/>
</g>
<!-- Node28&#45;&gt;Node21 -->
<g id="edge50" class="edge">
<title>Node28&#45;&gt;Node21</title>
<path fill="none" stroke="midnightblue" d="M838.6,-112.4C831.11,-103.66 821.47,-92.41 813.65,-83.3"/>
<polygon fill="midnightblue" stroke="midnightblue" points="816.27,-80.97 807.1,-75.66 810.95,-85.53 816.27,-80.97"/>
</g>
<!-- Node28&#45;&gt;Node22 -->
<g id="edge52" class="edge">
<title>Node28&#45;&gt;Node22</title>
<path fill="none" stroke="midnightblue" d="M862.92,-112.12C870.22,-102.57 878.81,-89.36 882.68,-76 887.12,-60.71 885.17,-42.61 882.52,-29.39"/>
<polygon fill="midnightblue" stroke="midnightblue" points="885.92,-28.56 880.24,-19.61 879.1,-30.14 885.92,-28.56"/>
</g>
<!-- Node28&#45;&gt;Node24 -->
<g id="edge51" class="edge">
<title>Node28&#45;&gt;Node24</title>
<path fill="none" stroke="midnightblue" d="M891.68,-112.4C921.32,-102.21 960.91,-88.59 988.98,-78.93"/>
<polygon fill="midnightblue" stroke="midnightblue" points="990.44,-82.13 998.76,-75.57 988.17,-75.51 990.44,-82.13"/>
</g>
<!-- Node28&#45;&gt;Node26 -->
<g id="edge48" class="edge">
<title>Node28&#45;&gt;Node26</title>
<path fill="none" stroke="midnightblue" d="M781.11,-118.18C717.87,-110.04 621.89,-96.2 530.28,-76.14"/>
<polygon fill="midnightblue" stroke="midnightblue" points="530.8,-72.67 520.28,-73.92 529.29,-79.5 530.8,-72.67"/>
</g>
<!-- Node28&#45;&gt;Node27 -->
<g id="edge53" class="edge">
<title>Node28&#45;&gt;Node27</title>
<path fill="none" stroke="midnightblue" d="M792.46,-112.47C748.54,-101.9 689.18,-87.59 648.82,-77.87"/>
<polygon fill="midnightblue" stroke="midnightblue" points="649.54,-74.45 639,-75.51 647.9,-81.25 649.54,-74.45"/>
</g>
<!-- Node30&#45;&gt;Node14 -->
<g id="edge64" class="edge">
<title>Node30&#45;&gt;Node14</title>
<path fill="none" stroke="midnightblue" d="M2350.5,-257.77C2132.76,-247.55 1365.44,-211.54 1108.35,-199.47"/>
<polygon fill="midnightblue" stroke="midnightblue" points="1108.47,-195.98 1098.32,-199 1108.15,-202.97 1108.47,-195.98"/>
</g>
<!-- Node30&#45;&gt;Node29 -->
<g id="edge59" class="edge">
<title>Node30&#45;&gt;Node29</title>
<path fill="none" stroke="midnightblue" d="M2418.97,-251.82C2438.09,-235.95 2480.82,-201.82 2520.68,-179 2547.37,-163.73 2579.56,-150.05 2603.25,-140.8"/>
<polygon fill="midnightblue" stroke="midnightblue" points="2604.77,-143.97 2612.85,-137.11 2602.26,-137.43 2604.77,-143.97"/>
</g>
<!-- Node31 -->
<g id="node31" class="node">
<title>Node31</title>
<g id="a_node31"><a xlink:href="_sim_time_8_h.html" target="_top" xlink:title=" ">
<polygon fill="white" stroke="black" points="2747.68,-118 2747.68,-137 2891.68,-137 2891.68,-118 2747.68,-118"/>
<text text-anchor="middle" x="2819.68" y="-125" font-family="Helvetica,sans-Serif" font-size="10.00">amr&#45;wind/core/SimTime.H</text>
</a>
</g>
</g>
<!-- Node30&#45;&gt;Node31 -->
<g id="edge60" class="edge">
<title>Node30&#45;&gt;Node31</title>
<path fill="none" stroke="midnightblue" d="M2465.17,-251.99C2513.37,-243.87 2584.12,-229.92 2643.68,-210 2699.78,-191.24 2761.76,-159.85 2795.14,-142"/>
<polygon fill="midnightblue" stroke="midnightblue" points="2797.01,-144.96 2804.15,-137.13 2793.69,-138.8 2797.01,-144.96"/>
</g>
<!-- Node35 -->
<g id="node35" class="node">
<title>Node35</title>
<g id="a_node35"><a xlink:href="_p_d_e_base_8_h.html" target="_top" xlink:title=" ">
<polygon fill="white" stroke="black" points="2264.18,-179.5 2264.18,-209.5 2419.18,-209.5 2419.18,-179.5 2264.18,-179.5"/>
<text text-anchor="start" x="2272.18" y="-197.5" font-family="Helvetica,sans-Serif" font-size="10.00">amr&#45;wind/equation_systems</text>
<text text-anchor="middle" x="2341.68" y="-186.5" font-family="Helvetica,sans-Serif" font-size="10.00">/PDEBase.H</text>
</a>
</g>
</g>
<!-- Node30&#45;&gt;Node35 -->
<g id="edge65" class="edge">
<title>Node30&#45;&gt;Node35</title>
<path fill="none" stroke="midnightblue" d="M2399.65,-251.73C2390.42,-242.78 2375.74,-228.54 2363.47,-216.63"/>
<polygon fill="midnightblue" stroke="midnightblue" points="2365.82,-214.04 2356.21,-209.59 2360.95,-219.06 2365.82,-214.04"/>
</g>
<!-- Node39 -->
<g id="node39" class="node">
<title>Node39</title>
<g id="a_node39"><a xlink:href="_physics_8_h.html" target="_top" xlink:title=" ">
<polygon fill="white" stroke="black" points="1993.18,-185 1993.18,-204 2130.18,-204 2130.18,-185 1993.18,-185"/>
<text text-anchor="middle" x="2061.68" y="-192" font-family="Helvetica,sans-Serif" font-size="10.00">amr&#45;wind/core/Physics.H</text>
</a>
</g>
</g>
<!-- Node30&#45;&gt;Node39 -->
<g id="edge77" class="edge">
<title>Node30&#45;&gt;Node39</title>
<path fill="none" stroke="midnightblue" d="M2362.96,-251.94C2299.68,-240.08 2185.51,-218.7 2117.35,-205.93"/>
<polygon fill="midnightblue" stroke="midnightblue" points="2117.7,-202.43 2107.23,-204.03 2116.41,-209.31 2117.7,-202.43"/>
</g>
<!-- Node41 -->
<g id="node41" class="node">
<title>Node41</title>
<g id="a_node41"><a xlink:href="_mesh_map_8_h.html" target="_top" xlink:title=" ">
<polygon fill="white" stroke="black" points="1667.68,-185 1667.68,-204 1815.68,-204 1815.68,-185 1667.68,-185"/>
<text text-anchor="middle" x="1741.68" y="-192" font-family="Helvetica,sans-Serif" font-size="10.00">amr&#45;wind/core/MeshMap.H</text>
</a>
</g>
</g>
<!-- Node30&#45;&gt;Node41 -->
<g id="edge82" class="edge">
<title>Node30&#45;&gt;Node41</title>
<path fill="none" stroke="midnightblue" d="M2350.66,-254.85C2232.46,-243.33 1963.38,-217.1 1825.91,-203.71"/>
<polygon fill="midnightblue" stroke="midnightblue" points="1826.14,-200.21 1815.85,-202.73 1825.46,-207.18 1826.14,-200.21"/>
</g>
<!-- Node42 -->
<g id="node42" class="node">
<title>Node42</title>
<g id="a_node42"><a xlink:href="helics_8_h.html" target="_top" xlink:title=" ">
<polygon fill="white" stroke="black" points="2530.18,-185 2530.18,-204 2635.18,-204 2635.18,-185 2530.18,-185"/>
<text text-anchor="middle" x="2582.68" y="-192" font-family="Helvetica,sans-Serif" font-size="10.00">amr&#45;wind/helics.H</text>
</a>
</g>
</g>
<!-- Node30&#45;&gt;Node42 -->
<g id="edge88" class="edge">
<title>Node30&#45;&gt;Node42</title>
<path fill="none" stroke="midnightblue" d="M2427.03,-251.87C2455.1,-240.47 2508.76,-220.35 2545.22,-207.49"/>
<polygon fill="midnightblue" stroke="midnightblue" points="2546.73,-210.67 2555.01,-204.06 2544.42,-204.06 2546.73,-210.67"/>
</g>
<!-- Node32 -->
<g id="node32" class="node">
<title>Node32</title>
<g id="a_node32"><a xlink:title=" ">
<polygon fill="white" stroke="#bfbfbf" points="2895.68,-56.5 2895.68,-75.5 2987.68,-75.5 2987.68,-56.5 2895.68,-56.5"/>
<text text-anchor="middle" x="2941.68" y="-63.5" font-family="Helvetica,sans-Serif" font-size="10.00">AMReX_REAL.H</text>
</a>
</g>
</g>
<!-- Node31&#45;&gt;Node32 -->
<g id="edge61" class="edge">
<title>Node31&#45;&gt;Node32</title>
<path fill="none" stroke="midnightblue" d="M2837.16,-117.98C2857.55,-108.03 2891.46,-91.49 2915.11,-79.96"/>
<polygon fill="midnightblue" stroke="midnightblue" points="2916.78,-83.04 2924.24,-75.51 2913.71,-76.75 2916.78,-83.04"/>
</g>
<!-- Node33 -->
<g id="node33" class="node">
<title>Node33</title>
<g id="a_node33"><a xlink:title=" ">
<polygon fill="white" stroke="#bfbfbf" points="2609.68,-56.5 2609.68,-75.5 2743.68,-75.5 2743.68,-56.5 2609.68,-56.5"/>
<text text-anchor="middle" x="2676.68" y="-63.5" font-family="Helvetica,sans-Serif" font-size="10.00">AMReX_GpuQualifiers.H</text>
</a>
</g>
</g>
<!-- Node31&#45;&gt;Node33 -->
<g id="edge62" class="edge">
<title>Node31&#45;&gt;Node33</title>
<path fill="none" stroke="midnightblue" d="M2799.19,-117.98C2774.88,-107.86 2734.13,-90.9 2706.37,-79.35"/>
<polygon fill="midnightblue" stroke="midnightblue" points="2707.71,-76.12 2697.13,-75.51 2705.02,-82.58 2707.71,-76.12"/>
</g>
<!-- Node34 -->
<g id="node34" class="node">
<title>Node34</title>
<g id="a_node34"><a xlink:title=" ">
<polygon fill="white" stroke="#bfbfbf" points="2761.68,-56.5 2761.68,-75.5 2877.68,-75.5 2877.68,-56.5 2761.68,-56.5"/>
<text text-anchor="middle" x="2819.68" y="-63.5" font-family="Helvetica,sans-Serif" font-size="10.00">AMReX_Extension.H</text>
</a>
</g>
</g>
<!-- Node31&#45;&gt;Node34 -->
<g id="edge63" class="edge">
<title>Node31&#45;&gt;Node34</title>
<path fill="none" stroke="midnightblue" d="M2819.68,-117.98C2819.68,-109.58 2819.68,-96.48 2819.68,-85.66"/>
<polygon fill="midnightblue" stroke="midnightblue" points="2823.18,-85.51 2819.68,-75.51 2816.18,-85.51 2823.18,-85.51"/>
</g>
<!-- Node35&#45;&gt;Node4 -->
<g id="edge67" class="edge">
<title>Node35&#45;&gt;Node4</title>
<path fill="none" stroke="midnightblue" d="M2264.04,-182.69C2175.48,-170.37 2031.85,-150.38 1946.01,-138.43"/>
<polygon fill="midnightblue" stroke="midnightblue" points="1946.48,-134.96 1936.09,-137.05 1945.51,-141.89 1946.48,-134.96"/>
</g>
<!-- Node35&#45;&gt;Node10 -->
<g id="edge75" class="edge">
<title>Node35&#45;&gt;Node10</title>
<path fill="none" stroke="midnightblue" d="M2343.04,-179.34C2344.9,-150.7 2344.44,-86.09 2306.68,-56 2274.37,-30.25 860.95,-22.02 819.68,-20 812,-19.62 804.05,-19.17 796.06,-18.68"/>
<polygon fill="midnightblue" stroke="midnightblue" points="796.15,-15.18 785.94,-18.03 795.7,-22.16 796.15,-15.18"/>
</g>
<!-- Node35&#45;&gt;Node15 -->
<g id="edge66" class="edge">
<title>Node35&#45;&gt;Node15</title>
<path fill="none" stroke="midnightblue" d="M2350.34,-179.15C2365.91,-151.31 2394.11,-89.74 2361.68,-56 2322.27,-15.01 1435.98,-11.35 1254.12,-11.03"/>
<polygon fill="midnightblue" stroke="midnightblue" points="1254.11,-7.53 1244.1,-11.01 1254.1,-14.53 1254.11,-7.53"/>
</g>
<!-- Node35&#45;&gt;Node20 -->
<g id="edge76" class="edge">
<title>Node35&#45;&gt;Node20</title>
<path fill="none" stroke="midnightblue" d="M2313.64,-179.48C2264.41,-154.86 2163.12,-104.22 2115.08,-80.2"/>
<polygon fill="midnightblue" stroke="midnightblue" points="2116.45,-76.97 2105.94,-75.63 2113.32,-83.23 2116.45,-76.97"/>
</g>
<!-- Node36 -->
<g id="node36" class="node">
<title>Node36</title>
<g id="a_node36"><a xlink:href="_coll_mgr_8_h.html" target="_top" xlink:title=" ">
<polygon fill="white" stroke="black" points="1993.18,-118 1993.18,-137 2130.18,-137 2130.18,-118 1993.18,-118"/>
<text text-anchor="middle" x="2061.68" y="-125" font-family="Helvetica,sans-Serif" font-size="10.00">amr&#45;wind/core/CollMgr.H</text>
</a>
</g>
</g>
<!-- Node35&#45;&gt;Node36 -->
<g id="edge68" class="edge">
<title>Node35&#45;&gt;Node36</title>
<path fill="none" stroke="midnightblue" d="M2281.27,-179.48C2229.45,-167.45 2155.84,-150.36 2108.42,-139.35"/>
<polygon fill="midnightblue" stroke="midnightblue" points="2108.95,-135.88 2098.42,-137.03 2107.37,-142.7 2108.95,-135.88"/>
</g>
<!-- Node37 -->
<g id="node37" class="node">
<title>Node37</title>
<g id="a_node37"><a xlink:href="_p_d_e_fields_8_h.html" target="_top" xlink:title=" ">
<polygon fill="white" stroke="black" points="2408.18,-112.5 2408.18,-142.5 2563.18,-142.5 2563.18,-112.5 2408.18,-112.5"/>
<text text-anchor="start" x="2416.18" y="-130.5" font-family="Helvetica,sans-Serif" font-size="10.00">amr&#45;wind/equation_systems</text>
<text text-anchor="middle" x="2485.68" y="-119.5" font-family="Helvetica,sans-Serif" font-size="10.00">/PDEFields.H</text>
</a>
</g>
</g>
<!-- Node35&#45;&gt;Node37 -->
<g id="edge73" class="edge">
<title>Node35&#45;&gt;Node37</title>
<path fill="none" stroke="midnightblue" d="M2372.93,-179.4C2394.16,-169.81 2422.43,-157.05 2445.36,-146.7"/>
<polygon fill="midnightblue" stroke="midnightblue" points="2446.82,-149.88 2454.5,-142.58 2443.94,-143.5 2446.82,-149.88"/>
</g>
<!-- Node36&#45;&gt;Node5 -->
<g id="edge70" class="edge">
<title>Node36&#45;&gt;Node5</title>
<path fill="none" stroke="midnightblue" d="M1998.79,-117.97C1936.47,-109.2 1838.12,-94.49 1744.06,-76.16"/>
<polygon fill="midnightblue" stroke="midnightblue" points="1744.58,-72.69 1734.09,-74.2 1743.23,-79.56 1744.58,-72.69"/>
</g>
<!-- Node36&#45;&gt;Node6 -->
<g id="edge71" class="edge">
<title>Node36&#45;&gt;Node6</title>
<path fill="none" stroke="midnightblue" d="M1996.83,-117.99C1981.69,-116.01 1965.62,-113.92 1950.68,-112 1827.7,-96.17 1794.3,-94.19 1667.52,-76.08"/>
<polygon fill="midnightblue" stroke="midnightblue" points="1667.81,-72.59 1657.42,-74.63 1666.82,-79.51 1667.81,-72.59"/>
</g>
<!-- Node36&#45;&gt;Node15 -->
<g id="edge69" class="edge">
<title>Node36&#45;&gt;Node15</title>
<path fill="none" stroke="midnightblue" d="M2130.48,-124.04C2205.31,-119.74 2317.89,-108 2344.68,-76 2350.39,-69.18 2350.84,-62.41 2344.68,-56 2305.89,-15.62 1433.66,-11.48 1253.9,-11.05"/>
<polygon fill="midnightblue" stroke="midnightblue" points="1253.77,-7.55 1243.77,-11.03 1253.76,-14.55 1253.77,-7.55"/>
</g>
<!-- Node36&#45;&gt;Node22 -->
<g id="edge72" class="edge">
<title>Node36&#45;&gt;Node22</title>
<path fill="none" stroke="midnightblue" d="M2130.19,-124.1C2208.08,-119.1 2318.83,-103.66 2272.68,-56 2269.73,-52.95 1202.65,-20.75 937.02,-12.78"/>
<polygon fill="midnightblue" stroke="midnightblue" points="936.91,-9.27 926.81,-12.47 936.7,-16.27 936.91,-9.27"/>
</g>
<!-- Node38 -->
<g id="node38" class="node">
<title>Node38</title>
<g id="a_node38"><a xlink:title=" ">
<polygon fill="white" stroke="#bfbfbf" points="2472.68,-56.5 2472.68,-75.5 2520.68,-75.5 2520.68,-56.5 2472.68,-56.5"/>
<text text-anchor="middle" x="2496.68" y="-63.5" font-family="Helvetica,sans-Serif" font-size="10.00">iosfwd</text>
</a>
</g>
</g>
<!-- Node37&#45;&gt;Node38 -->
<g id="edge74" class="edge">
<title>Node37&#45;&gt;Node38</title>
<path fill="none" stroke="midnightblue" d="M2488.29,-112.4C2489.77,-104.38 2491.65,-94.23 2493.25,-85.57"/>
<polygon fill="midnightblue" stroke="midnightblue" points="2496.71,-86.13 2495.08,-75.66 2489.82,-84.85 2496.71,-86.13"/>
</g>
<!-- Node39&#45;&gt;Node4 -->
<g id="edge78" class="edge">
<title>Node39&#45;&gt;Node4</title>
<path fill="none" stroke="midnightblue" d="M2036.85,-184.87C2004.07,-173.47 1946.18,-153.35 1909.17,-140.49"/>
<polygon fill="midnightblue" stroke="midnightblue" points="1909.91,-137.04 1899.32,-137.06 1907.62,-143.65 1909.91,-137.04"/>
</g>
<!-- Node39&#45;&gt;Node12 -->
<g id="edge80" class="edge">
<title>Node39&#45;&gt;Node12</title>
<path fill="none" stroke="midnightblue" d="M2098.88,-184.98C2174.3,-166.17 2333.16,-117.79 2272.68,-56 2240.19,-22.8 647.11,-21.63 600.68,-20 560.76,-18.6 516.01,-16.44 480.53,-14.59"/>
<polygon fill="midnightblue" stroke="midnightblue" points="480.48,-11.08 470.31,-14.05 480.11,-18.07 480.48,-11.08"/>
</g>
<!-- Node39&#45;&gt;Node36 -->
<g id="edge79" class="edge">
<title>Node39&#45;&gt;Node36</title>
<path fill="none" stroke="midnightblue" d="M2061.68,-184.73C2061.68,-175.18 2061.68,-159.62 2061.68,-147.28"/>
<polygon fill="midnightblue" stroke="midnightblue" points="2065.18,-147.13 2061.68,-137.13 2058.18,-147.13 2065.18,-147.13"/>
</g>
<!-- Node40 -->
<g id="node40" class="node">
<title>Node40</title>
<g id="a_node40"><a xlink:title=" ">
<polygon fill="white" stroke="#bfbfbf" points="1674.18,-118 1674.18,-137 1789.18,-137 1789.18,-118 1674.18,-118"/>
<text text-anchor="middle" x="1731.68" y="-125" font-family="Helvetica,sans-Serif" font-size="10.00">AMReX_Geometry.H</text>
</a>
</g>
</g>
<!-- Node39&#45;&gt;Node40 -->
<g id="edge81" class="edge">
<title>Node39&#45;&gt;Node40</title>
<path fill="none" stroke="midnightblue" d="M2015.53,-184.98C1962.97,-175.19 1874.53,-158.49 1798.68,-143 1792.78,-141.8 1786.59,-140.5 1780.47,-139.2"/>
<polygon fill="midnightblue" stroke="midnightblue" points="1780.78,-135.68 1770.27,-137.01 1779.31,-142.53 1780.78,-135.68"/>
</g>
<!-- Node41&#45;&gt;Node4 -->
<g id="edge84" class="edge">
<title>Node41&#45;&gt;Node4</title>
<path fill="none" stroke="midnightblue" d="M1759.34,-184.87C1782,-173.8 1821.51,-154.49 1847.88,-141.6"/>
<polygon fill="midnightblue" stroke="midnightblue" points="1849.5,-144.7 1856.95,-137.17 1846.43,-138.41 1849.5,-144.7"/>
</g>
<!-- Node41&#45;&gt;Node12 -->
<g id="edge86" class="edge">
<title>Node41&#45;&gt;Node12</title>
<path fill="none" stroke="midnightblue" d="M1727.34,-184.96C1680.39,-157.16 1531.24,-70.28 1477.68,-56 1289.22,-5.74 795.54,-28.74 600.68,-20 560.77,-18.21 516.03,-16.04 480.54,-14.28"/>
<polygon fill="midnightblue" stroke="midnightblue" points="480.48,-10.77 470.32,-13.77 480.13,-17.76 480.48,-10.77"/>
</g>
<!-- Node41&#45;&gt;Node16 -->
<g id="edge85" class="edge">
<title>Node41&#45;&gt;Node16</title>
<path fill="none" stroke="midnightblue" d="M1697.67,-184.94C1636.89,-173.11 1527.33,-151.78 1461.67,-139.01"/>
<polygon fill="midnightblue" stroke="midnightblue" points="1462.01,-135.51 1451.52,-137.03 1460.67,-142.38 1462.01,-135.51"/>
</g>
<!-- Node41&#45;&gt;Node36 -->
<g id="edge83" class="edge">
<title>Node41&#45;&gt;Node36</title>
<path fill="none" stroke="midnightblue" d="M1783.85,-184.94C1841.96,-173.13 1946.62,-151.87 2009.57,-139.09"/>
<polygon fill="midnightblue" stroke="midnightblue" points="2010.58,-142.45 2019.68,-137.03 2009.18,-135.59 2010.58,-142.45"/>
</g>
<!-- Node41&#45;&gt;Node40 -->
<g id="edge87" class="edge">
<title>Node41&#45;&gt;Node40</title>
<path fill="none" stroke="midnightblue" d="M1740.33,-184.73C1738.86,-175.18 1736.47,-159.62 1734.57,-147.28"/>
<polygon fill="midnightblue" stroke="midnightblue" points="1737.99,-146.48 1733.01,-137.13 1731.07,-147.54 1737.99,-146.48"/>
</g>
<!-- Node42&#45;&gt;Node29 -->
<g id="edge89" class="edge">
<title>Node42&#45;&gt;Node29</title>
<path fill="none" stroke="midnightblue" d="M2589.97,-184.73C2598.39,-174.6 2612.43,-157.69 2622.93,-145.06"/>
<polygon fill="midnightblue" stroke="midnightblue" points="2625.82,-147.06 2629.52,-137.13 2620.43,-142.58 2625.82,-147.06"/>
</g>
<!-- Node42&#45;&gt;Node30 -->
<g id="edge91" class="edge">
<title>Node42&#45;&gt;Node30</title>
<path fill="none" stroke="midnightblue" d="M2564.5,-204.06C2536.53,-215.42 2482.89,-235.54 2446.36,-248.44"/>
<polygon fill="midnightblue" stroke="midnightblue" points="2444.83,-245.26 2436.55,-251.87 2447.14,-251.87 2444.83,-245.26"/>
</g>
<!-- Node42&#45;&gt;Node31 -->
<g id="edge90" class="edge">
<title>Node42&#45;&gt;Node31</title>
<path fill="none" stroke="midnightblue" d="M2614.15,-184.87C2656.5,-173.25 2731.9,-152.58 2778.65,-139.75"/>
<polygon fill="midnightblue" stroke="midnightblue" points="2779.74,-143.08 2788.46,-137.06 2777.89,-136.33 2779.74,-143.08"/>
</g>
</g>
</svg>
