<?xml version="1.0" encoding="UTF-8" standalone="no"?>
<!DOCTYPE svg PUBLIC "-//W3C//DTD SVG 1.1//EN"
 "http://www.w3.org/Graphics/SVG/1.1/DTD/svg11.dtd">
<!-- Generated by graphviz version 2.43.0 (0)
 -->
<!-- Title: TurbModelDefs.H Pages: 1 -->
<svg width="776pt" height="140pt"
 viewBox="0.00 0.00 775.50 140.00" xmlns="http://www.w3.org/2000/svg" xmlns:xlink="http://www.w3.org/1999/xlink">
<g id="graph0" class="graph" transform="scale(1 1) rotate(0) translate(4 136)">
<title>TurbModelDefs.H</title>
<polygon fill="white" stroke="transparent" points="-4,4 -4,-136 771.5,-136 771.5,4 -4,4"/>
<!-- Node1 -->
<g id="node1" class="node">
<title>Node1</title>
<g id="a_node1"><a xlink:title=" ">
<polygon fill="#bfbfbf" stroke="black" points="379.5,-112.5 379.5,-131.5 479.5,-131.5 479.5,-112.5 379.5,-112.5"/>
<text text-anchor="middle" x="429.5" y="-119.5" font-family="Helvetica,sans-Serif" font-size="10.00">TurbModelDefs.H</text>
</a>
</g>
</g>
<!-- Node2 -->
<g id="node2" class="node">
<title>Node2</title>
<g id="a_node2"><a xlink:href="_laminar_model_8cpp.html" target="_top" xlink:title=" ">
<polygon fill="white" stroke="black" points="0,-56.5 0,-75.5 107,-75.5 107,-56.5 0,-56.5"/>
<text text-anchor="middle" x="53.5" y="-63.5" font-family="Helvetica,sans-Serif" font-size="10.00">LaminarModel.cpp</text>
</a>
</g>
</g>
<!-- Node1&#45;&gt;Node2 -->
<g id="edge1" class="edge">
<title>Node1&#45;&gt;Node2</title>
<path fill="none" stroke="midnightblue" d="M368.85,-112.29C296.41,-101.89 176.37,-84.65 107.16,-74.71"/>
<polygon fill="midnightblue" stroke="midnightblue" points="368.79,-115.82 379.18,-113.77 369.78,-108.89 368.79,-115.82"/>
</g>
<!-- Node3 -->
<g id="node3" class="node">
<title>Node3</title>
<g id="a_node3"><a xlink:href="_a_m_d_8cpp.html" target="_top" xlink:title=" ">
<polygon fill="white" stroke="black" points="125.5,-56.5 125.5,-75.5 185.5,-75.5 185.5,-56.5 125.5,-56.5"/>
<text text-anchor="middle" x="155.5" y="-63.5" font-family="Helvetica,sans-Serif" font-size="10.00">AMD.cpp</text>
</a>
</g>
</g>
<!-- Node1&#45;&gt;Node3 -->
<g id="edge2" class="edge">
<title>Node1&#45;&gt;Node3</title>
<path fill="none" stroke="midnightblue" d="M372.01,-110.61C324.36,-101.86 254.9,-88.75 194.5,-76 191.64,-75.4 188.68,-74.75 185.71,-74.09"/>
<polygon fill="midnightblue" stroke="midnightblue" points="371.67,-114.11 382.13,-112.47 372.93,-107.23 371.67,-114.11"/>
</g>
<!-- Node4 -->
<g id="node4" class="node">
<title>Node4</title>
<g id="a_node4"><a xlink:href="_a_m_d_no_therm_8cpp.html" target="_top" xlink:title=" ">
<polygon fill="white" stroke="black" points="204,-56.5 204,-75.5 309,-75.5 309,-56.5 204,-56.5"/>
<text text-anchor="middle" x="256.5" y="-63.5" font-family="Helvetica,sans-Serif" font-size="10.00">AMDNoTherm.cpp</text>
</a>
</g>
</g>
<!-- Node1&#45;&gt;Node4 -->
<g id="edge3" class="edge">
<title>Node1&#45;&gt;Node4</title>
<path fill="none" stroke="midnightblue" d="M392.45,-109.44C359.84,-99.26 313.09,-84.66 283.78,-75.52"/>
<polygon fill="midnightblue" stroke="midnightblue" points="391.5,-112.8 402.09,-112.44 393.58,-106.12 391.5,-112.8"/>
</g>
<!-- Node5 -->
<g id="node5" class="node">
<title>Node5</title>
<g id="a_node5"><a xlink:href="_one_eq_ksgs_8cpp.html" target="_top" xlink:title=" ">
<polygon fill="white" stroke="black" points="327.5,-56.5 327.5,-75.5 419.5,-75.5 419.5,-56.5 327.5,-56.5"/>
<text text-anchor="middle" x="373.5" y="-63.5" font-family="Helvetica,sans-Serif" font-size="10.00">OneEqKsgs.cpp</text>
</a>
</g>
</g>
<!-- Node1&#45;&gt;Node5 -->
<g id="edge4" class="edge">
<title>Node1&#45;&gt;Node5</title>
<path fill="none" stroke="midnightblue" d="M413.17,-105.25C403.24,-95.67 390.91,-83.79 382.66,-75.83"/>
<polygon fill="midnightblue" stroke="midnightblue" points="410.87,-107.9 420.5,-112.32 415.73,-102.86 410.87,-107.9"/>
</g>
<!-- Node6 -->
<g id="node6" class="node">
<title>Node6</title>
<g id="a_node6"><a xlink:href="_smagorinsky_8cpp.html" target="_top" xlink:title=" ">
<polygon fill="white" stroke="black" points="437.5,-56.5 437.5,-75.5 535.5,-75.5 535.5,-56.5 437.5,-56.5"/>
<text text-anchor="middle" x="486.5" y="-63.5" font-family="Helvetica,sans-Serif" font-size="10.00">Smagorinsky.cpp</text>
</a>
</g>
</g>
<!-- Node1&#45;&gt;Node6 -->
<g id="edge5" class="edge">
<title>Node1&#45;&gt;Node6</title>
<path fill="none" stroke="midnightblue" d="M446.12,-105.25C456.23,-95.67 468.78,-83.79 477.18,-75.83"/>
<polygon fill="midnightblue" stroke="midnightblue" points="443.51,-102.91 438.66,-112.32 448.32,-107.99 443.51,-102.91"/>
</g>
<!-- Node7 -->
<g id="node7" class="node">
<title>Node7</title>
<g id="a_node7"><a xlink:href="_k_omega_s_s_t_8cpp.html" target="_top" xlink:title=" ">
<polygon fill="white" stroke="black" points="524,-0.5 524,-19.5 619,-19.5 619,-0.5 524,-0.5"/>
<text text-anchor="middle" x="571.5" y="-7.5" font-family="Helvetica,sans-Serif" font-size="10.00">KOmegaSST.cpp</text>
</a>
</g>
</g>
<!-- Node1&#45;&gt;Node7 -->
<g id="edge6" class="edge">
<title>Node1&#45;&gt;Node7</title>
<path fill="none" stroke="midnightblue" d="M483.83,-109.5C504.94,-102.73 527.97,-92.19 544.5,-76 560.56,-60.27 567.48,-33.57 570.11,-19.8"/>
<polygon fill="midnightblue" stroke="midnightblue" points="482.56,-106.23 473.98,-112.44 484.56,-112.93 482.56,-106.23"/>
</g>
<!-- Node8 -->
<g id="node8" class="node">
<title>Node8</title>
<g id="a_node8"><a xlink:href="_k_omega_s_s_t_i_8_h.html" target="_top" xlink:title=" ">
<polygon fill="white" stroke="black" points="592,-56.5 592,-75.5 681,-75.5 681,-56.5 592,-56.5"/>
<text text-anchor="middle" x="636.5" y="-63.5" font-family="Helvetica,sans-Serif" font-size="10.00">KOmegaSSTI.H</text>
</a>
</g>
</g>
<!-- Node1&#45;&gt;Node8 -->
<g id="edge7" class="edge">
<title>Node1&#45;&gt;Node8</title>
<path fill="none" stroke="midnightblue" d="M472.32,-109.83C511.41,-99.63 568.33,-84.78 603.85,-75.52"/>
<polygon fill="midnightblue" stroke="midnightblue" points="471.09,-106.53 462.3,-112.44 472.86,-113.31 471.09,-106.53"/>
</g>
<!-- Node9 -->
<g id="node9" class="node">
<title>Node9</title>
<g id="a_node9"><a xlink:href="_k_omega_s_s_t_i_d_d_e_s_8cpp.html" target="_top" xlink:title=" ">
<polygon fill="white" stroke="black" points="641.5,-0.5 641.5,-19.5 767.5,-19.5 767.5,-0.5 641.5,-0.5"/>
<text text-anchor="middle" x="704.5" y="-7.5" font-family="Helvetica,sans-Serif" font-size="10.00">KOmegaSSTIDDES.cpp</text>
</a>
</g>
</g>
<!-- Node1&#45;&gt;Node9 -->
<g id="edge10" class="edge">
<title>Node1&#45;&gt;Node9</title>
<path fill="none" stroke="midnightblue" d="M489.63,-118.14C557.28,-113.67 661.41,-102.58 689.5,-76 705.15,-61.2 705.98,-33.59 705.26,-19.6"/>
<polygon fill="midnightblue" stroke="midnightblue" points="489.28,-114.66 479.52,-118.78 489.72,-121.65 489.28,-114.66"/>
</g>
<!-- Node8&#45;&gt;Node7 -->
<g id="edge8" class="edge">
<title>Node8&#45;&gt;Node7</title>
<path fill="none" stroke="midnightblue" d="M618.23,-49.82C606.58,-40.15 591.9,-27.95 582.13,-19.83"/>
<polygon fill="midnightblue" stroke="midnightblue" points="616.13,-52.63 626.06,-56.32 620.6,-47.24 616.13,-52.63"/>
</g>
<!-- Node8&#45;&gt;Node9 -->
<g id="edge9" class="edge">
<title>Node8&#45;&gt;Node9</title>
<path fill="none" stroke="midnightblue" d="M655.26,-50.1C667.5,-40.38 683.06,-28.03 693.38,-19.83"/>
<polygon fill="midnightblue" stroke="midnightblue" points="653.08,-47.36 647.43,-56.32 657.43,-52.85 653.08,-47.36"/>
</g>
</g>
</svg>
