<?xml version="1.0" encoding="UTF-8" standalone="no"?>
<!DOCTYPE svg PUBLIC "-//W3C//DTD SVG 1.1//EN"
 "http://www.w3.org/Graphics/SVG/1.1/DTD/svg11.dtd">
<!-- Generated by graphviz version 2.43.0 (0)
 -->
<!-- Title: TurbModelBase.H Pages: 1 -->
<!--zoomable 196 -->
<svg id="main" version="1.1" xmlns="http://www.w3.org/2000/svg" xmlns:xlink="http://www.w3.org/1999/xlink" xml:space="preserve" onload="init(evt)">
<style type="text/css"><![CDATA[
.edge:hover path { stroke: red; }
.edge:hover polygon { stroke: red; fill: red; }
]]></style>
<script type="text/javascript"><![CDATA[
var edges = document.getElementsByTagName('g');
if (edges && edges.length) {
  for (var i=0;i<edges.length;i++) {
    if (edges[i].id.substr(0,4)=='edge') {
      edges[i].setAttribute('class','edge');
    }
  }
}
]]></script>
        <defs>
                <circle id="rim" cx="0" cy="0" r="7"/>
                <circle id="rim2" cx="0" cy="0" r="3.5"/>
                <g id="zoomPlus">
                        <use xlink:href="#rim" fill="#404040">
                                <set attributeName="fill" to="#808080" begin="zoomplus.mouseover" end="zoomplus.mouseout"/>
                        </use>
                        <path d="M-4,0h8M0,-4v8" fill="none" stroke="white" stroke-width="1.5" pointer-events="none"/>
                </g>
                <g id="zoomMin">
                        <use xlink:href="#rim" fill="#404040">
                                <set attributeName="fill" to="#808080" begin="zoomminus.mouseover" end="zoomminus.mouseout"/>
                        </use>
                        <path d="M-4,0h8" fill="none" stroke="white" stroke-width="1.5" pointer-events="none"/>
                </g>
                <g id="dirArrow">
                        <path fill="none" stroke="white" stroke-width="1.5" d="M0,-3.0v7 M-2.5,-0.5L0,-3.0L2.5,-0.5"/>
                </g>
               <g id="resetDef">
                       <use xlink:href="#rim2" fill="#404040">
                               <set attributeName="fill" to="#808080" begin="reset.mouseover" end="reset.mouseout"/>
                       </use>
               </g>
        </defs>

<script type="text/javascript">
var viewWidth = 697;
var viewHeight = 196;
var sectionId = 'dynsection-1';
</script>
<script xlink:href="svgpan.js"/>
<svg id="graph" class="graph">
<g id="viewport">
<title>TurbModelBase.H</title>
<polygon fill="white" stroke="transparent" points="-4,4 -4,-192 693,-192 693,4 -4,4"/>
<!-- Node1 -->
<g id="node1" class="node">
<title>Node1</title>
<g id="a_node1"><a xlink:title=" ">
<polygon fill="#bfbfbf" stroke="black" points="197.5,-168.5 197.5,-187.5 298.5,-187.5 298.5,-168.5 197.5,-168.5"/>
<text text-anchor="middle" x="248" y="-175.5" font-family="Helvetica,sans-Serif" font-size="10.00">TurbModelBase.H</text>
</a>
</g>
</g>
<!-- Node2 -->
<g id="node2" class="node">
<title>Node2</title>
<g id="a_node2"><a xlink:href="_a_m_d_8_h.html" target="_top" xlink:title=" ">
<polygon fill="white" stroke="black" points="15,-112.5 15,-131.5 65,-131.5 65,-112.5 15,-112.5"/>
<text text-anchor="middle" x="40" y="-119.5" font-family="Helvetica,sans-Serif" font-size="10.00">AMD.H</text>
</a>
</g>
</g>
<!-- Node1&#45;&gt;Node2 -->
<g id="edge1" class="edge">
<title>Node1&#45;&gt;Node2</title>
<path fill="none" stroke="midnightblue" d="M205.33,-165.92C163.16,-154.97 100.06,-138.59 65.28,-129.56"/>
<polygon fill="midnightblue" stroke="midnightblue" points="204.48,-169.32 215.04,-168.44 206.24,-162.54 204.48,-169.32"/>
</g>
<!-- Node4 -->
<g id="node4" class="node">
<title>Node4</title>
<g id="a_node4"><a xlink:href="_a_m_d_no_therm_8_h.html" target="_top" xlink:title=" ">
<polygon fill="white" stroke="black" points="88.5,-112.5 88.5,-131.5 183.5,-131.5 183.5,-112.5 88.5,-112.5"/>
<text text-anchor="middle" x="136" y="-119.5" font-family="Helvetica,sans-Serif" font-size="10.00">AMDNoTherm.H</text>
</a>
</g>
</g>
<!-- Node1&#45;&gt;Node4 -->
<g id="edge3" class="edge">
<title>Node1&#45;&gt;Node4</title>
<path fill="none" stroke="midnightblue" d="M220.75,-163.86C199.98,-153.85 171.98,-140.35 153.95,-131.65"/>
<polygon fill="midnightblue" stroke="midnightblue" points="219.48,-167.13 230.01,-168.32 222.52,-160.83 219.48,-167.13"/>
</g>
<!-- Node6 -->
<g id="node6" class="node">
<title>Node6</title>
<g id="a_node6"><a xlink:href="_one_eq_ksgs_8_h.html" target="_top" xlink:title=" ">
<polygon fill="white" stroke="black" points="207,-112.5 207,-131.5 289,-131.5 289,-112.5 207,-112.5"/>
<text text-anchor="middle" x="248" y="-119.5" font-family="Helvetica,sans-Serif" font-size="10.00">OneEqKsgs.H</text>
</a>
</g>
</g>
<!-- Node1&#45;&gt;Node6 -->
<g id="edge5" class="edge">
<title>Node1&#45;&gt;Node6</title>
<path fill="none" stroke="midnightblue" d="M248,-157.8C248,-148.91 248,-138.78 248,-131.75"/>
<polygon fill="midnightblue" stroke="midnightblue" points="244.5,-158.08 248,-168.08 251.5,-158.08 244.5,-158.08"/>
</g>
<!-- Node8 -->
<g id="node8" class="node">
<title>Node8</title>
<g id="a_node8"><a xlink:href="_smagorinsky_8_h.html" target="_top" xlink:title=" ">
<polygon fill="white" stroke="black" points="311.5,-112.5 311.5,-131.5 400.5,-131.5 400.5,-112.5 311.5,-112.5"/>
<text text-anchor="middle" x="356" y="-119.5" font-family="Helvetica,sans-Serif" font-size="10.00">Smagorinsky.H</text>
</a>
</g>
</g>
<!-- Node1&#45;&gt;Node8 -->
<g id="edge7" class="edge">
<title>Node1&#45;&gt;Node8</title>
<path fill="none" stroke="midnightblue" d="M274.55,-163.73C294.55,-153.73 321.39,-140.31 338.69,-131.65"/>
<polygon fill="midnightblue" stroke="midnightblue" points="272.73,-160.72 265.35,-168.32 275.86,-166.98 272.73,-160.72"/>
</g>
<!-- Node10 -->
<g id="node10" class="node">
<title>Node10</title>
<g id="a_node10"><a xlink:href="_k_omega_s_s_t_8_h.html" target="_top" xlink:title=" ">
<polygon fill="white" stroke="black" points="443,-112.5 443,-131.5 529,-131.5 529,-112.5 443,-112.5"/>
<text text-anchor="middle" x="486" y="-119.5" font-family="Helvetica,sans-Serif" font-size="10.00">KOmegaSST.H</text>
</a>
</g>
</g>
<!-- Node1&#45;&gt;Node10 -->
<g id="edge9" class="edge">
<title>Node1&#45;&gt;Node10</title>
<path fill="none" stroke="midnightblue" d="M295.52,-166.22C340.5,-156.01 407.1,-140.9 448.46,-131.52"/>
<polygon fill="midnightblue" stroke="midnightblue" points="294.69,-162.82 285.71,-168.44 296.24,-169.64 294.69,-162.82"/>
</g>
<!-- Node3 -->
<g id="node3" class="node">
<title>Node3</title>
<g id="a_node3"><a xlink:href="_a_m_d_8cpp.html" target="_top" xlink:title=" ">
<polygon fill="white" stroke="black" points="0,-56.5 0,-75.5 60,-75.5 60,-56.5 0,-56.5"/>
<text text-anchor="middle" x="30" y="-63.5" font-family="Helvetica,sans-Serif" font-size="10.00">AMD.cpp</text>
</a>
</g>
</g>
<!-- Node2&#45;&gt;Node3 -->
<g id="edge2" class="edge">
<title>Node2&#45;&gt;Node3</title>
<path fill="none" stroke="midnightblue" d="M36.5,-102.1C34.84,-93.14 32.94,-82.86 31.62,-75.75"/>
<polygon fill="midnightblue" stroke="midnightblue" points="33.09,-102.89 38.35,-112.08 39.97,-101.61 33.09,-102.89"/>
</g>
<!-- Node5 -->
<g id="node5" class="node">
<title>Node5</title>
<g id="a_node5"><a xlink:href="_a_m_d_no_therm_8cpp.html" target="_top" xlink:title=" ">
<polygon fill="white" stroke="black" points="78.5,-56.5 78.5,-75.5 183.5,-75.5 183.5,-56.5 78.5,-56.5"/>
<text text-anchor="middle" x="131" y="-63.5" font-family="Helvetica,sans-Serif" font-size="10.00">AMDNoTherm.cpp</text>
</a>
</g>
</g>
<!-- Node4&#45;&gt;Node5 -->
<g id="edge4" class="edge">
<title>Node4&#45;&gt;Node5</title>
<path fill="none" stroke="midnightblue" d="M134.25,-102.1C133.42,-93.14 132.47,-82.86 131.81,-75.75"/>
<polygon fill="midnightblue" stroke="midnightblue" points="130.77,-102.45 135.17,-112.08 137.74,-101.8 130.77,-102.45"/>
</g>
<!-- Node7 -->
<g id="node7" class="node">
<title>Node7</title>
<g id="a_node7"><a xlink:href="_one_eq_ksgs_8cpp.html" target="_top" xlink:title=" ">
<polygon fill="white" stroke="black" points="202,-56.5 202,-75.5 294,-75.5 294,-56.5 202,-56.5"/>
<text text-anchor="middle" x="248" y="-63.5" font-family="Helvetica,sans-Serif" font-size="10.00">OneEqKsgs.cpp</text>
</a>
</g>
</g>
<!-- Node6&#45;&gt;Node7 -->
<g id="edge6" class="edge">
<title>Node6&#45;&gt;Node7</title>
<path fill="none" stroke="midnightblue" d="M248,-101.8C248,-92.91 248,-82.78 248,-75.75"/>
<polygon fill="midnightblue" stroke="midnightblue" points="244.5,-102.08 248,-112.08 251.5,-102.08 244.5,-102.08"/>
</g>
<!-- Node9 -->
<g id="node9" class="node">
<title>Node9</title>
<g id="a_node9"><a xlink:href="_smagorinsky_8cpp.html" target="_top" xlink:title=" ">
<polygon fill="white" stroke="black" points="312,-56.5 312,-75.5 410,-75.5 410,-56.5 312,-56.5"/>
<text text-anchor="middle" x="361" y="-63.5" font-family="Helvetica,sans-Serif" font-size="10.00">Smagorinsky.cpp</text>
</a>
</g>
</g>
<!-- Node8&#45;&gt;Node9 -->
<g id="edge8" class="edge">
<title>Node8&#45;&gt;Node9</title>
<path fill="none" stroke="midnightblue" d="M357.75,-102.1C358.58,-93.14 359.53,-82.86 360.19,-75.75"/>
<polygon fill="midnightblue" stroke="midnightblue" points="354.26,-101.8 356.83,-112.08 361.23,-102.45 354.26,-101.8"/>
</g>
<!-- Node11 -->
<g id="node11" class="node">
<title>Node11</title>
<g id="a_node11"><a xlink:href="_k_omega_s_s_t_8cpp.html" target="_top" xlink:title=" ">
<polygon fill="white" stroke="black" points="422.5,-0.5 422.5,-19.5 517.5,-19.5 517.5,-0.5 422.5,-0.5"/>
<text text-anchor="middle" x="470" y="-7.5" font-family="Helvetica,sans-Serif" font-size="10.00">KOmegaSST.cpp</text>
</a>
</g>
</g>
<!-- Node10&#45;&gt;Node11 -->
<g id="edge10" class="edge">
<title>Node10&#45;&gt;Node11</title>
<path fill="none" stroke="midnightblue" d="M472.01,-104.37C466.15,-96.34 460.01,-86.24 457,-76 451.15,-56.13 459.95,-32.07 465.7,-19.53"/>
<polygon fill="midnightblue" stroke="midnightblue" points="469.41,-106.73 478.33,-112.46 474.93,-102.42 469.41,-106.73"/>
</g>
<!-- Node12 -->
<g id="node12" class="node">
<title>Node12</title>
<g id="a_node12"><a xlink:href="_k_omega_s_s_t_i_8_h.html" target="_top" xlink:title=" ">
<polygon fill="white" stroke="black" points="466.5,-56.5 466.5,-75.5 555.5,-75.5 555.5,-56.5 466.5,-56.5"/>
<text text-anchor="middle" x="511" y="-63.5" font-family="Helvetica,sans-Serif" font-size="10.00">KOmegaSSTI.H</text>
</a>
</g>
</g>
<!-- Node10&#45;&gt;Node12 -->
<g id="edge11" class="edge">
<title>Node10&#45;&gt;Node12</title>
<path fill="none" stroke="midnightblue" d="M494.34,-102.98C498.58,-93.82 503.55,-83.09 506.95,-75.75"/>
<polygon fill="midnightblue" stroke="midnightblue" points="491.15,-101.54 490.13,-112.08 497.51,-104.48 491.15,-101.54"/>
</g>
<!-- Node14 -->
<g id="node14" class="node">
<title>Node14</title>
<g id="a_node14"><a xlink:href="_k_omega_s_s_t_i_d_d_e_s_8_h.html" target="_top" xlink:title=" ">
<polygon fill="white" stroke="black" points="573,-56.5 573,-75.5 689,-75.5 689,-56.5 573,-56.5"/>
<text text-anchor="middle" x="631" y="-63.5" font-family="Helvetica,sans-Serif" font-size="10.00">KOmegaSSTIDDES.H</text>
</a>
</g>
</g>
<!-- Node10&#45;&gt;Node14 -->
<g id="edge14" class="edge">
<title>Node10&#45;&gt;Node14</title>
<path fill="none" stroke="midnightblue" d="M518.48,-108.91C545.74,-98.75 583.99,-84.51 608.13,-75.52"/>
<polygon fill="midnightblue" stroke="midnightblue" points="517.13,-105.67 508.98,-112.44 519.57,-112.23 517.13,-105.67"/>
</g>
<!-- Node12&#45;&gt;Node11 -->
<g id="edge12" class="edge">
<title>Node12&#45;&gt;Node11</title>
<path fill="none" stroke="midnightblue" d="M497.98,-47.86C490.88,-38.5 482.4,-27.33 476.64,-19.75"/>
<polygon fill="midnightblue" stroke="midnightblue" points="495.39,-50.24 504.23,-56.08 500.97,-46 495.39,-50.24"/>
</g>
<!-- Node13 -->
<g id="node13" class="node">
<title>Node13</title>
<g id="a_node13"><a xlink:href="_k_omega_s_s_t_i_d_d_e_s_8cpp.html" target="_top" xlink:title=" ">
<polygon fill="white" stroke="black" points="552,-0.5 552,-19.5 678,-19.5 678,-0.5 552,-0.5"/>
<text text-anchor="middle" x="615" y="-7.5" font-family="Helvetica,sans-Serif" font-size="10.00">KOmegaSSTIDDES.cpp</text>
</a>
</g>
</g>
<!-- Node12&#45;&gt;Node13 -->
<g id="edge13" class="edge">
<title>Node12&#45;&gt;Node13</title>
<path fill="none" stroke="midnightblue" d="M536.83,-51.59C556.06,-41.61 581.74,-28.27 598.33,-19.65"/>
<polygon fill="midnightblue" stroke="midnightblue" points="534.97,-48.61 527.71,-56.32 538.2,-54.82 534.97,-48.61"/>
</g>
<!-- Node14&#45;&gt;Node13 -->
<g id="edge15" class="edge">
<title>Node14&#45;&gt;Node13</title>
<path fill="none" stroke="midnightblue" d="M625.49,-46.4C622.81,-37.36 619.72,-26.94 617.59,-19.75"/>
<polygon fill="midnightblue" stroke="midnightblue" points="622.16,-47.49 628.36,-56.08 628.87,-45.5 622.16,-47.49"/>
</g>
</g>
</svg>
        <g id="navigator" transform="translate(0 0)" fill="#404254">
                <rect fill="#f2f5e9" fill-opacity="0.5" stroke="#606060" stroke-width=".5" x="0" y="0" width="60" height="60"/>
                <use id="zoomplus" xlink:href="#zoomPlus" x="17" y="9" onmousedown="handleZoom(evt,'in')"/>
                <use id="zoomminus" xlink:href="#zoomMin" x="42" y="9" onmousedown="handleZoom(evt,'out')"/>
                <use id="reset" xlink:href="#resetDef" x="30" y="36" onmousedown="handleReset()"/>
                <g id="arrowUp" xlink:href="#dirArrow" transform="translate(30 24)" onmousedown="handlePan(0,-1)">
                  <use xlink:href="#rim" fill="#404040">
                        <set attributeName="fill" to="#808080" begin="arrowUp.mouseover" end="arrowUp.mouseout"/>
                  </use>
                  <path fill="none" stroke="white" stroke-width="1.5" d="M0,-3.0v7 M-2.5,-0.5L0,-3.0L2.5,-0.5"/>
                </g>
                <g id="arrowRight" xlink:href="#dirArrow" transform="rotate(90) translate(36 -43)" onmousedown="handlePan(1,0)">
                  <use xlink:href="#rim" fill="#404040">
                        <set attributeName="fill" to="#808080" begin="arrowRight.mouseover" end="arrowRight.mouseout"/>
                  </use>
                  <path fill="none" stroke="white" stroke-width="1.5" d="M0,-3.0v7 M-2.5,-0.5L0,-3.0L2.5,-0.5"/>
                </g>
                <g id="arrowDown" xlink:href="#dirArrow" transform="rotate(180) translate(-30 -48)" onmousedown="handlePan(0,1)">
                  <use xlink:href="#rim" fill="#404040">
                        <set attributeName="fill" to="#808080" begin="arrowDown.mouseover" end="arrowDown.mouseout"/>
                  </use>
                  <path fill="none" stroke="white" stroke-width="1.5" d="M0,-3.0v7 M-2.5,-0.5L0,-3.0L2.5,-0.5"/>
                </g>
                <g id="arrowLeft" xlink:href="#dirArrow" transform="rotate(270) translate(-36 17)" onmousedown="handlePan(-1,0)">
                  <use xlink:href="#rim" fill="#404040">
                        <set attributeName="fill" to="#808080" begin="arrowLeft.mouseover" end="arrowLeft.mouseout"/>
                  </use>
                  <path fill="none" stroke="white" stroke-width="1.5" d="M0,-3.0v7 M-2.5,-0.5L0,-3.0L2.5,-0.5"/>
                </g>
        </g>
        <svg viewBox="0 0 15 15" width="100%" height="30px" preserveAspectRatio="xMaxYMin meet">
         <g id="arrow_out" transform="scale(0.3 0.3)">
          <a xlink:href="_turb_model_base_8_h__dep__incl_org.svg" target="_base">
           <rect id="button" ry="5" rx="5" y="6" x="6" height="38" width="38"
                fill="#f2f5e9" fill-opacity="0.5" stroke="#606060" stroke-width="1.0"/>
           <path id="arrow"
             d="M 11.500037,31.436501 C 11.940474,20.09759 22.043105,11.32322 32.158766,21.979434 L 37.068811,17.246167 C 37.068811,17.246167 37.088388,32 37.088388,32 L 22.160133,31.978069 C 22.160133,31.978069 26.997745,27.140456 26.997745,27.140456 C 18.528582,18.264221 13.291696,25.230495 11.500037,31.436501 z"
             style="fill:#404040;"/>
          </a>
         </g>
        </svg>
</svg>
