<?xml version="1.0" encoding="UTF-8" standalone="no"?>
<!DOCTYPE svg PUBLIC "-//W3C//DTD SVG 1.1//EN"
 "http://www.w3.org/Graphics/SVG/1.1/DTD/svg11.dtd">
<!-- Generated by graphviz version 2.43.0 (0)
 -->
<!-- Title: UDF.cpp Pages: 1 -->
<!--zoomable 274 -->
<svg id="main" version="1.1" xmlns="http://www.w3.org/2000/svg" xmlns:xlink="http://www.w3.org/1999/xlink" xml:space="preserve" onload="init(evt)">
<style type="text/css"><![CDATA[
.edge:hover path { stroke: red; }
.edge:hover polygon { stroke: red; fill: red; }
]]></style>
<script type="text/javascript"><![CDATA[
var edges = document.getElementsByTagName('g');
if (edges && edges.length) {
  for (var i=0;i<edges.length;i++) {
    if (edges[i].id.substr(0,4)=='edge') {
      edges[i].setAttribute('class','edge');
    }
  }
}
]]></script>
        <defs>
                <circle id="rim" cx="0" cy="0" r="7"/>
                <circle id="rim2" cx="0" cy="0" r="3.5"/>
                <g id="zoomPlus">
                        <use xlink:href="#rim" fill="#404040">
                                <set attributeName="fill" to="#808080" begin="zoomplus.mouseover" end="zoomplus.mouseout"/>
                        </use>
                        <path d="M-4,0h8M0,-4v8" fill="none" stroke="white" stroke-width="1.5" pointer-events="none"/>
                </g>
                <g id="zoomMin">
                        <use xlink:href="#rim" fill="#404040">
                                <set attributeName="fill" to="#808080" begin="zoomminus.mouseover" end="zoomminus.mouseout"/>
                        </use>
                        <path d="M-4,0h8" fill="none" stroke="white" stroke-width="1.5" pointer-events="none"/>
                </g>
                <g id="dirArrow">
                        <path fill="none" stroke="white" stroke-width="1.5" d="M0,-3.0v7 M-2.5,-0.5L0,-3.0L2.5,-0.5"/>
                </g>
               <g id="resetDef">
                       <use xlink:href="#rim2" fill="#404040">
                               <set attributeName="fill" to="#808080" begin="reset.mouseover" end="reset.mouseout"/>
                       </use>
               </g>
        </defs>

<script type="text/javascript">
var viewWidth = 2125;
var viewHeight = 274;
var sectionId = 'dynsection-0';
</script>
<script xlink:href="svgpan.js"/>
<svg id="graph" class="graph">
<g id="viewport">
<title>UDF.cpp</title>
<polygon fill="white" stroke="transparent" points="-4,4 -4,-270 2120.64,-270 2120.64,4 -4,4"/>
<!-- Node1 -->
<g id="node1" class="node">
<title>Node1</title>
<g id="a_node1"><a xlink:title=" ">
<polygon fill="#bfbfbf" stroke="black" points="1543.64,-246.5 1543.64,-265.5 1599.64,-265.5 1599.64,-246.5 1543.64,-246.5"/>
<text text-anchor="middle" x="1571.64" y="-253.5" font-family="Helvetica,sans-Serif" font-size="10.00">UDF.cpp</text>
</a>
</g>
</g>
<!-- Node2 -->
<g id="node2" class="node">
<title>Node2</title>
<g id="a_node2"><a xlink:href="_u_d_f_8_h.html" target="_top" xlink:title=" ">
<polygon fill="white" stroke="black" points="1798.14,-179.5 1798.14,-209.5 1925.14,-209.5 1925.14,-179.5 1798.14,-179.5"/>
<text text-anchor="start" x="1806.14" y="-197.5" font-family="Helvetica,sans-Serif" font-size="10.00">amr&#45;wind/physics/udfs</text>
<text text-anchor="middle" x="1861.64" y="-186.5" font-family="Helvetica,sans-Serif" font-size="10.00">/UDF.H</text>
</a>
</g>
</g>
<!-- Node1&#45;&gt;Node2 -->
<g id="edge1" class="edge">
<title>Node1&#45;&gt;Node2</title>
<path fill="none" stroke="midnightblue" d="M1599.71,-249.24C1642.79,-240.4 1726.67,-223.19 1787.94,-210.62"/>
<polygon fill="midnightblue" stroke="midnightblue" points="1788.86,-214.01 1797.95,-208.57 1787.45,-207.15 1788.86,-214.01"/>
</g>
<!-- Node10 -->
<g id="node10" class="node">
<title>Node10</title>
<g id="a_node10"><a xlink:href="_field_8_h.html" target="_top" xlink:title=" ">
<polygon fill="white" stroke="black" points="1205.64,-118 1205.64,-137 1329.64,-137 1329.64,-118 1205.64,-118"/>
<text text-anchor="middle" x="1267.64" y="-125" font-family="Helvetica,sans-Serif" font-size="10.00">amr&#45;wind/core/Field.H</text>
</a>
</g>
</g>
<!-- Node1&#45;&gt;Node10 -->
<g id="edge9" class="edge">
<title>Node1&#45;&gt;Node10</title>
<path fill="none" stroke="midnightblue" d="M1543.51,-254.07C1500.33,-251.61 1416.16,-242.63 1353.64,-210 1322.94,-193.98 1295.43,-163.79 1280.18,-144.99"/>
<polygon fill="midnightblue" stroke="midnightblue" points="1282.84,-142.7 1273.9,-137.02 1277.34,-147.04 1282.84,-142.7"/>
</g>
<!-- Node19 -->
<g id="node19" class="node">
<title>Node19</title>
<g id="a_node19"><a xlink:href="_field_repo_8_h.html" target="_top" xlink:title=" ">
<polygon fill="white" stroke="black" points="405.14,-185 405.14,-204 554.14,-204 554.14,-185 405.14,-185"/>
<text text-anchor="middle" x="479.64" y="-192" font-family="Helvetica,sans-Serif" font-size="10.00">amr&#45;wind/core/FieldRepo.H</text>
</a>
</g>
</g>
<!-- Node1&#45;&gt;Node19 -->
<g id="edge24" class="edge">
<title>Node1&#45;&gt;Node19</title>
<path fill="none" stroke="midnightblue" d="M1543.55,-253.47C1404.96,-245.92 791.72,-212.5 564.61,-200.13"/>
<polygon fill="midnightblue" stroke="midnightblue" points="564.59,-196.62 554.42,-199.57 564.21,-203.61 564.59,-196.62"/>
</g>
<!-- Node29 -->
<g id="node29" class="node">
<title>Node29</title>
<g id="a_node29"><a xlink:href="_linear_profile_8_h.html" target="_top" xlink:title=" ">
<polygon fill="white" stroke="black" points="1363.14,-179.5 1363.14,-209.5 1490.14,-209.5 1490.14,-179.5 1363.14,-179.5"/>
<text text-anchor="start" x="1371.14" y="-197.5" font-family="Helvetica,sans-Serif" font-size="10.00">amr&#45;wind/physics/udfs</text>
<text text-anchor="middle" x="1426.64" y="-186.5" font-family="Helvetica,sans-Serif" font-size="10.00">/LinearProfile.H</text>
</a>
</g>
</g>
<!-- Node1&#45;&gt;Node29 -->
<g id="edge56" class="edge">
<title>Node1&#45;&gt;Node29</title>
<path fill="none" stroke="midnightblue" d="M1550.86,-246.48C1529.94,-237.89 1497.02,-224.38 1470.33,-213.43"/>
<polygon fill="midnightblue" stroke="midnightblue" points="1471.39,-210.08 1460.81,-209.52 1468.73,-216.56 1471.39,-210.08"/>
</g>
<!-- Node31 -->
<g id="node31" class="node">
<title>Node31</title>
<g id="a_node31"><a xlink:href="_power_law_profile_8_h.html" target="_top" xlink:title=" ">
<polygon fill="white" stroke="black" points="1508.14,-179.5 1508.14,-209.5 1635.14,-209.5 1635.14,-179.5 1508.14,-179.5"/>
<text text-anchor="start" x="1516.14" y="-197.5" font-family="Helvetica,sans-Serif" font-size="10.00">amr&#45;wind/physics/udfs</text>
<text text-anchor="middle" x="1571.64" y="-186.5" font-family="Helvetica,sans-Serif" font-size="10.00">/PowerLawProfile.H</text>
</a>
</g>
</g>
<!-- Node1&#45;&gt;Node31 -->
<g id="edge59" class="edge">
<title>Node1&#45;&gt;Node31</title>
<path fill="none" stroke="midnightblue" d="M1571.64,-246.48C1571.64,-239.47 1571.64,-229.19 1571.64,-219.7"/>
<polygon fill="midnightblue" stroke="midnightblue" points="1575.14,-219.52 1571.64,-209.52 1568.14,-219.52 1575.14,-219.52"/>
</g>
<!-- Node32 -->
<g id="node32" class="node">
<title>Node32</title>
<g id="a_node32"><a xlink:href="_burggraf_lid_8_h.html" target="_top" xlink:title=" ">
<polygon fill="white" stroke="black" points="1653.14,-179.5 1653.14,-209.5 1780.14,-209.5 1780.14,-179.5 1653.14,-179.5"/>
<text text-anchor="start" x="1661.14" y="-197.5" font-family="Helvetica,sans-Serif" font-size="10.00">amr&#45;wind/physics/udfs</text>
<text text-anchor="middle" x="1716.64" y="-186.5" font-family="Helvetica,sans-Serif" font-size="10.00">/BurggrafLid.H</text>
</a>
</g>
</g>
<!-- Node1&#45;&gt;Node32 -->
<g id="edge62" class="edge">
<title>Node1&#45;&gt;Node32</title>
<path fill="none" stroke="midnightblue" d="M1592.41,-246.48C1613.33,-237.89 1646.25,-224.38 1672.94,-213.43"/>
<polygon fill="midnightblue" stroke="midnightblue" points="1674.54,-216.56 1682.46,-209.52 1671.88,-210.08 1674.54,-216.56"/>
</g>
<!-- Node33 -->
<g id="node33" class="node">
<title>Node33</title>
<g id="a_node33"><a xlink:title=" ">
<polygon fill="white" stroke="#bfbfbf" points="1943.14,-185 1943.14,-204 2062.14,-204 2062.14,-185 1943.14,-185"/>
<text text-anchor="middle" x="2002.64" y="-192" font-family="Helvetica,sans-Serif" font-size="10.00">AMReX_ParmParse.H</text>
</a>
</g>
</g>
<!-- Node1&#45;&gt;Node33 -->
<g id="edge65" class="edge">
<title>Node1&#45;&gt;Node33</title>
<path fill="none" stroke="midnightblue" d="M1599.92,-252.3C1661.04,-246.27 1809.95,-230.65 1933.64,-210 1940.45,-208.86 1947.61,-207.52 1954.64,-206.12"/>
<polygon fill="midnightblue" stroke="midnightblue" points="1955.69,-209.48 1964.78,-204.05 1954.28,-202.62 1955.69,-209.48"/>
</g>
<!-- Node3 -->
<g id="node3" class="node">
<title>Node3</title>
<g id="a_node3"><a xlink:href="_factory_8_h.html" target="_top" xlink:title=" ">
<polygon fill="white" stroke="black" points="1823.64,-118 1823.64,-137 1957.64,-137 1957.64,-118 1823.64,-118"/>
<text text-anchor="middle" x="1890.64" y="-125" font-family="Helvetica,sans-Serif" font-size="10.00">amr&#45;wind/core/Factory.H</text>
</a>
</g>
</g>
<!-- Node2&#45;&gt;Node3 -->
<g id="edge2" class="edge">
<title>Node2&#45;&gt;Node3</title>
<path fill="none" stroke="midnightblue" d="M1867.93,-179.4C1872.23,-169.76 1877.96,-156.91 1882.59,-146.54"/>
<polygon fill="midnightblue" stroke="midnightblue" points="1885.88,-147.75 1886.76,-137.19 1879.49,-144.9 1885.88,-147.75"/>
</g>
<!-- Node9 -->
<g id="node9" class="node">
<title>Node9</title>
<g id="a_node9"><a xlink:title=" ">
<polygon fill="white" stroke="#bfbfbf" points="1687.14,-56.5 1687.14,-75.5 1774.14,-75.5 1774.14,-56.5 1687.14,-56.5"/>
<text text-anchor="middle" x="1730.64" y="-63.5" font-family="Helvetica,sans-Serif" font-size="10.00">AMReX_Gpu.H</text>
</a>
</g>
</g>
<!-- Node2&#45;&gt;Node9 -->
<g id="edge8" class="edge">
<title>Node2&#45;&gt;Node9</title>
<path fill="none" stroke="midnightblue" d="M1847.12,-179.48C1822.59,-155.8 1773.11,-108.02 1747.24,-83.04"/>
<polygon fill="midnightblue" stroke="midnightblue" points="1749.36,-80.22 1739.74,-75.79 1744.5,-85.25 1749.36,-80.22"/>
</g>
<!-- Node4 -->
<g id="node4" class="node">
<title>Node4</title>
<g id="a_node4"><a xlink:title=" ">
<polygon fill="white" stroke="#bfbfbf" points="1792.64,-56.5 1792.64,-75.5 1850.64,-75.5 1850.64,-56.5 1792.64,-56.5"/>
<text text-anchor="middle" x="1821.64" y="-63.5" font-family="Helvetica,sans-Serif" font-size="10.00">memory</text>
</a>
</g>
</g>
<!-- Node3&#45;&gt;Node4 -->
<g id="edge3" class="edge">
<title>Node3&#45;&gt;Node4</title>
<path fill="none" stroke="midnightblue" d="M1880.75,-117.98C1869.99,-108.7 1852.57,-93.67 1839.42,-82.33"/>
<polygon fill="midnightblue" stroke="midnightblue" points="1841.36,-79.39 1831.5,-75.51 1836.79,-84.69 1841.36,-79.39"/>
</g>
<!-- Node5 -->
<g id="node5" class="node">
<title>Node5</title>
<g id="a_node5"><a xlink:title=" ">
<polygon fill="white" stroke="#bfbfbf" points="1576.14,-56.5 1576.14,-75.5 1669.14,-75.5 1669.14,-56.5 1576.14,-56.5"/>
<text text-anchor="middle" x="1622.64" y="-63.5" font-family="Helvetica,sans-Serif" font-size="10.00">unordered_map</text>
</a>
</g>
</g>
<!-- Node3&#45;&gt;Node5 -->
<g id="edge4" class="edge">
<title>Node3&#45;&gt;Node5</title>
<path fill="none" stroke="midnightblue" d="M1852.24,-117.98C1804.48,-107.37 1722.9,-89.26 1670.94,-77.72"/>
<polygon fill="midnightblue" stroke="midnightblue" points="1671.48,-74.26 1660.96,-75.51 1669.97,-81.09 1671.48,-74.26"/>
</g>
<!-- Node6 -->
<g id="node6" class="node">
<title>Node6</title>
<g id="a_node6"><a xlink:title=" ">
<polygon fill="white" stroke="#bfbfbf" points="1948.64,-56.5 1948.64,-75.5 2008.64,-75.5 2008.64,-56.5 1948.64,-56.5"/>
<text text-anchor="middle" x="1978.64" y="-63.5" font-family="Helvetica,sans-Serif" font-size="10.00">iostream</text>
</a>
</g>
</g>
<!-- Node3&#45;&gt;Node6 -->
<g id="edge5" class="edge">
<title>Node3&#45;&gt;Node6</title>
<path fill="none" stroke="midnightblue" d="M1903.24,-117.98C1917.36,-108.43 1940.47,-92.81 1957.39,-81.37"/>
<polygon fill="midnightblue" stroke="midnightblue" points="1959.73,-84.01 1966.05,-75.51 1955.81,-78.21 1959.73,-84.01"/>
</g>
<!-- Node7 -->
<g id="node7" class="node">
<title>Node7</title>
<g id="a_node7"><a xlink:title=" ">
<polygon fill="white" stroke="#bfbfbf" points="2026.64,-56.5 2026.64,-75.5 2116.64,-75.5 2116.64,-56.5 2026.64,-56.5"/>
<text text-anchor="middle" x="2071.64" y="-63.5" font-family="Helvetica,sans-Serif" font-size="10.00">AMReX_Print.H</text>
</a>
</g>
</g>
<!-- Node3&#45;&gt;Node7 -->
<g id="edge6" class="edge">
<title>Node3&#45;&gt;Node7</title>
<path fill="none" stroke="midnightblue" d="M1916.57,-117.98C1947.89,-107.68 2000.73,-90.31 2035.89,-78.75"/>
<polygon fill="midnightblue" stroke="midnightblue" points="2037.34,-81.96 2045.75,-75.51 2035.16,-75.31 2037.34,-81.96"/>
</g>
<!-- Node8 -->
<g id="node8" class="node">
<title>Node8</title>
<g id="a_node8"><a xlink:title=" ">
<polygon fill="white" stroke="#bfbfbf" points="1868.64,-56.5 1868.64,-75.5 1930.64,-75.5 1930.64,-56.5 1868.64,-56.5"/>
<text text-anchor="middle" x="1899.64" y="-63.5" font-family="Helvetica,sans-Serif" font-size="10.00">AMReX.H</text>
</a>
</g>
</g>
<!-- Node3&#45;&gt;Node8 -->
<g id="edge7" class="edge">
<title>Node3&#45;&gt;Node8</title>
<path fill="none" stroke="midnightblue" d="M1891.93,-117.98C1893.2,-109.58 1895.18,-96.48 1896.81,-85.66"/>
<polygon fill="midnightblue" stroke="midnightblue" points="1900.31,-85.92 1898.35,-75.51 1893.39,-84.87 1900.31,-85.92"/>
</g>
<!-- Node10&#45;&gt;Node4 -->
<g id="edge11" class="edge">
<title>Node10&#45;&gt;Node4</title>
<path fill="none" stroke="midnightblue" d="M1329.81,-123C1425.04,-117.07 1612.87,-103.12 1782.23,-75.84"/>
<polygon fill="midnightblue" stroke="midnightblue" points="1783.02,-79.25 1792.33,-74.19 1781.9,-72.35 1783.02,-79.25"/>
</g>
<!-- Node10&#45;&gt;Node5 -->
<g id="edge12" class="edge">
<title>Node10&#45;&gt;Node5</title>
<path fill="none" stroke="midnightblue" d="M1318.5,-117.98C1384.06,-106.99 1497.71,-87.94 1565.97,-76.5"/>
<polygon fill="midnightblue" stroke="midnightblue" points="1566.82,-79.9 1576.11,-74.8 1565.67,-73 1566.82,-79.9"/>
</g>
<!-- Node10&#45;&gt;Node9 -->
<g id="edge16" class="edge">
<title>Node10&#45;&gt;Node9</title>
<path fill="none" stroke="midnightblue" d="M1329.92,-119.72C1408.33,-110.99 1547.41,-94.85 1676.89,-76.05"/>
<polygon fill="midnightblue" stroke="midnightblue" points="1677.6,-79.48 1686.99,-74.57 1676.59,-72.56 1677.6,-79.48"/>
</g>
<!-- Node11 -->
<g id="node11" class="node">
<title>Node11</title>
<g id="a_node11"><a xlink:title=" ">
<polygon fill="white" stroke="#bfbfbf" points="655.64,-0.5 655.64,-19.5 699.64,-19.5 699.64,-0.5 655.64,-0.5"/>
<text text-anchor="middle" x="677.64" y="-7.5" font-family="Helvetica,sans-Serif" font-size="10.00">string</text>
</a>
</g>
</g>
<!-- Node10&#45;&gt;Node11 -->
<g id="edge10" class="edge">
<title>Node10&#45;&gt;Node11</title>
<path fill="none" stroke="midnightblue" d="M1242.13,-117.95C1197.38,-103.25 1101.58,-73.12 1018.64,-56 906.37,-32.83 770.72,-19.1 709.89,-13.69"/>
<polygon fill="midnightblue" stroke="midnightblue" points="710.03,-10.19 699.76,-12.8 709.42,-17.16 710.03,-10.19"/>
</g>
<!-- Node12 -->
<g id="node12" class="node">
<title>Node12</title>
<g id="a_node12"><a xlink:title=" ">
<polygon fill="white" stroke="#bfbfbf" points="1217.64,-56.5 1217.64,-75.5 1281.64,-75.5 1281.64,-56.5 1217.64,-56.5"/>
<text text-anchor="middle" x="1249.64" y="-63.5" font-family="Helvetica,sans-Serif" font-size="10.00">algorithm</text>
</a>
</g>
</g>
<!-- Node10&#45;&gt;Node12 -->
<g id="edge13" class="edge">
<title>Node10&#45;&gt;Node12</title>
<path fill="none" stroke="midnightblue" d="M1265.06,-117.98C1262.49,-109.49 1258.47,-96.2 1255.18,-85.32"/>
<polygon fill="midnightblue" stroke="midnightblue" points="1258.46,-84.07 1252.21,-75.51 1251.76,-86.09 1258.46,-84.07"/>
</g>
<!-- Node13 -->
<g id="node13" class="node">
<title>Node13</title>
<g id="a_node13"><a xlink:title=" ">
<polygon fill="white" stroke="#bfbfbf" points="1059.14,-0.5 1059.14,-19.5 1168.14,-19.5 1168.14,-0.5 1059.14,-0.5"/>
<text text-anchor="middle" x="1113.64" y="-7.5" font-family="Helvetica,sans-Serif" font-size="10.00">AMReX_MultiFab.H</text>
</a>
</g>
</g>
<!-- Node10&#45;&gt;Node13 -->
<g id="edge14" class="edge">
<title>Node10&#45;&gt;Node13</title>
<path fill="none" stroke="midnightblue" d="M1256.06,-117.82C1229.97,-98.25 1166.33,-50.52 1133.68,-26.03"/>
<polygon fill="midnightblue" stroke="midnightblue" points="1135.45,-22.98 1125.35,-19.78 1131.25,-28.58 1135.45,-22.98"/>
</g>
<!-- Node14 -->
<g id="node14" class="node">
<title>Node14</title>
<g id="a_node14"><a xlink:title=" ">
<polygon fill="white" stroke="#bfbfbf" points="1300.14,-56.5 1300.14,-75.5 1399.14,-75.5 1399.14,-56.5 1300.14,-56.5"/>
<text text-anchor="middle" x="1349.64" y="-63.5" font-family="Helvetica,sans-Serif" font-size="10.00">AMReX_BCRec.H</text>
</a>
</g>
</g>
<!-- Node10&#45;&gt;Node14 -->
<g id="edge15" class="edge">
<title>Node10&#45;&gt;Node14</title>
<path fill="none" stroke="midnightblue" d="M1279.38,-117.98C1292.42,-108.52 1313.67,-93.1 1329.4,-81.69"/>
<polygon fill="midnightblue" stroke="midnightblue" points="1331.87,-84.21 1337.91,-75.51 1327.76,-78.55 1331.87,-84.21"/>
</g>
<!-- Node15 -->
<g id="node15" class="node">
<title>Node15</title>
<g id="a_node15"><a xlink:href="incflo__enums_8_h.html" target="_top" xlink:title=" ">
<polygon fill="white" stroke="black" points="1417.14,-56.5 1417.14,-75.5 1558.14,-75.5 1558.14,-56.5 1417.14,-56.5"/>
<text text-anchor="middle" x="1487.64" y="-63.5" font-family="Helvetica,sans-Serif" font-size="10.00">amr&#45;wind/incflo_enums.H</text>
</a>
</g>
</g>
<!-- Node10&#45;&gt;Node15 -->
<g id="edge17" class="edge">
<title>Node10&#45;&gt;Node15</title>
<path fill="none" stroke="midnightblue" d="M1299.16,-117.98C1337.87,-107.5 1403.66,-89.71 1446.37,-78.16"/>
<polygon fill="midnightblue" stroke="midnightblue" points="1447.43,-81.5 1456.17,-75.51 1445.61,-74.74 1447.43,-81.5"/>
</g>
<!-- Node16 -->
<g id="node16" class="node">
<title>Node16</title>
<g id="a_node16"><a xlink:href="_field_desc_types_8_h.html" target="_top" xlink:title=" ">
<polygon fill="white" stroke="black" points="304.64,-0.5 304.64,-19.5 480.64,-19.5 480.64,-0.5 304.64,-0.5"/>
<text text-anchor="middle" x="392.64" y="-7.5" font-family="Helvetica,sans-Serif" font-size="10.00">amr&#45;wind/core/FieldDescTypes.H</text>
</a>
</g>
</g>
<!-- Node10&#45;&gt;Node16 -->
<g id="edge18" class="edge">
<title>Node10&#45;&gt;Node16</title>
<path fill="none" stroke="midnightblue" d="M1205.48,-120.89C1124.08,-113.1 977.08,-97.5 852.64,-76 812.69,-69.1 803.59,-62.89 763.64,-56 671.73,-40.14 566.07,-27.9 491.08,-20.22"/>
<polygon fill="midnightblue" stroke="midnightblue" points="491,-16.7 480.7,-19.17 490.3,-23.66 491,-16.7"/>
</g>
<!-- Node17 -->
<g id="node17" class="node">
<title>Node17</title>
<g id="a_node17"><a xlink:href="_view_field_8_h.html" target="_top" xlink:title=" ">
<polygon fill="white" stroke="black" points="861.64,-56.5 861.64,-75.5 1009.64,-75.5 1009.64,-56.5 861.64,-56.5"/>
<text text-anchor="middle" x="935.64" y="-63.5" font-family="Helvetica,sans-Serif" font-size="10.00">amr&#45;wind/core/ViewField.H</text>
</a>
</g>
</g>
<!-- Node10&#45;&gt;Node17 -->
<g id="edge19" class="edge">
<title>Node10&#45;&gt;Node17</title>
<path fill="none" stroke="midnightblue" d="M1220.07,-117.98C1160.16,-107.24 1057.31,-88.81 993.08,-77.29"/>
<polygon fill="midnightblue" stroke="midnightblue" points="993.58,-73.83 983.12,-75.51 992.34,-80.72 993.58,-73.83"/>
</g>
<!-- Node17&#45;&gt;Node11 -->
<g id="edge20" class="edge">
<title>Node17&#45;&gt;Node11</title>
<path fill="none" stroke="midnightblue" d="M894.76,-56.44C843.37,-45.69 756.25,-27.45 709.52,-17.67"/>
<polygon fill="midnightblue" stroke="midnightblue" points="710.14,-14.23 699.64,-15.6 708.71,-21.08 710.14,-14.23"/>
</g>
<!-- Node17&#45;&gt;Node13 -->
<g id="edge22" class="edge">
<title>Node17&#45;&gt;Node13</title>
<path fill="none" stroke="midnightblue" d="M963.84,-56.44C994.05,-47.28 1042.15,-32.69 1075.67,-22.52"/>
<polygon fill="midnightblue" stroke="midnightblue" points="1077.01,-25.77 1085.56,-19.52 1074.98,-19.07 1077.01,-25.77"/>
</g>
<!-- Node17&#45;&gt;Node16 -->
<g id="edge21" class="edge">
<title>Node17&#45;&gt;Node16</title>
<path fill="none" stroke="midnightblue" d="M861.56,-57.63C764.7,-48 594.88,-31.11 488.36,-20.52"/>
<polygon fill="midnightblue" stroke="midnightblue" points="488.56,-17.02 478.26,-19.51 487.86,-23.99 488.56,-17.02"/>
</g>
<!-- Node18 -->
<g id="node18" class="node">
<title>Node18</title>
<g id="a_node18"><a xlink:title=" ">
<polygon fill="white" stroke="#bfbfbf" points="886.64,-0.5 886.64,-19.5 984.64,-19.5 984.64,-0.5 886.64,-0.5"/>
<text text-anchor="middle" x="935.64" y="-7.5" font-family="Helvetica,sans-Serif" font-size="10.00">AMReX_Vector.H</text>
</a>
</g>
</g>
<!-- Node17&#45;&gt;Node18 -->
<g id="edge23" class="edge">
<title>Node17&#45;&gt;Node18</title>
<path fill="none" stroke="midnightblue" d="M935.64,-56.08C935.64,-49.01 935.64,-38.86 935.64,-29.99"/>
<polygon fill="midnightblue" stroke="midnightblue" points="939.14,-29.75 935.64,-19.75 932.14,-29.75 939.14,-29.75"/>
</g>
<!-- Node19&#45;&gt;Node5 -->
<g id="edge26" class="edge">
<title>Node19&#45;&gt;Node5</title>
<path fill="none" stroke="midnightblue" d="M554.3,-194.18C704.07,-194.42 1051.42,-189.38 1338.64,-143 1430.23,-128.21 1534.95,-96.1 1587.96,-78.73"/>
<polygon fill="midnightblue" stroke="midnightblue" points="1589.16,-82.02 1597.55,-75.56 1586.96,-75.38 1589.16,-82.02"/>
</g>
<!-- Node19&#45;&gt;Node10 -->
<g id="edge32" class="edge">
<title>Node19&#45;&gt;Node10</title>
<path fill="none" stroke="midnightblue" d="M554.14,-189.67C680.26,-182.82 943.76,-166.91 1165.64,-143 1177.58,-141.71 1190.29,-140.1 1202.52,-138.43"/>
<polygon fill="midnightblue" stroke="midnightblue" points="1203.25,-141.86 1212.67,-137.01 1202.28,-134.93 1203.25,-141.86"/>
</g>
<!-- Node19&#45;&gt;Node11 -->
<g id="edge25" class="edge">
<title>Node19&#45;&gt;Node11</title>
<path fill="none" stroke="midnightblue" d="M472.51,-184.87C465.13,-175.32 454.07,-159.13 449.64,-143 438.6,-102.81 450.73,-80.24 484.64,-56 533.07,-21.38 604.2,-13 645.22,-11.21"/>
<polygon fill="midnightblue" stroke="midnightblue" points="645.58,-14.7 655.46,-10.87 645.35,-7.7 645.58,-14.7"/>
</g>
<!-- Node19&#45;&gt;Node13 -->
<g id="edge54" class="edge">
<title>Node19&#45;&gt;Node13</title>
<path fill="none" stroke="midnightblue" d="M554.47,-189.35C636.46,-183.6 771.4,-170.63 884.64,-143 967.97,-122.67 997.07,-127.54 1065.64,-76 1082.4,-63.4 1095.95,-43.35 1104.33,-28.85"/>
<polygon fill="midnightblue" stroke="midnightblue" points="1107.52,-30.3 1109.28,-19.85 1101.39,-26.93 1107.52,-30.3"/>
</g>
<!-- Node19&#45;&gt;Node16 -->
<g id="edge27" class="edge">
<title>Node19&#45;&gt;Node16</title>
<path fill="none" stroke="midnightblue" d="M405.09,-191.87C298.71,-188.35 109.79,-177.33 51.64,-143 20.09,-124.38 14.84,-110.88 3.64,-76 0.92,-67.54 -2.28,-62.64 3.64,-56 22.71,-34.59 185.64,-21.85 294.49,-15.66"/>
<polygon fill="midnightblue" stroke="midnightblue" points="294.74,-19.15 304.53,-15.1 294.35,-12.16 294.74,-19.15"/>
</g>
<!-- Node20 -->
<g id="node20" class="node">
<title>Node20</title>
<g id="a_node20"><a xlink:href="_field_utils_8_h.html" target="_top" xlink:title=" ">
<polygon fill="white" stroke="black" points="12.64,-56.5 12.64,-75.5 158.64,-75.5 158.64,-56.5 12.64,-56.5"/>
<text text-anchor="middle" x="85.64" y="-63.5" font-family="Helvetica,sans-Serif" font-size="10.00">amr&#45;wind/core/FieldUtils.H</text>
</a>
</g>
</g>
<!-- Node19&#45;&gt;Node20 -->
<g id="edge28" class="edge">
<title>Node19&#45;&gt;Node20</title>
<path fill="none" stroke="midnightblue" d="M404.92,-188.89C350.8,-183.26 277.01,-170.76 217.64,-143 197.89,-133.77 198.04,-123.68 179.64,-112 159.6,-99.29 135.43,-87.79 116.61,-79.6"/>
<polygon fill="midnightblue" stroke="midnightblue" points="117.88,-76.34 107.31,-75.63 115.13,-82.77 117.88,-76.34"/>
</g>
<!-- Node22 -->
<g id="node22" class="node">
<title>Node22</title>
<g id="a_node22"><a xlink:href="_int_field_8_h.html" target="_top" xlink:title=" ">
<polygon fill="white" stroke="black" points="227.14,-118 227.14,-137 364.14,-137 364.14,-118 227.14,-118"/>
<text text-anchor="middle" x="295.64" y="-125" font-family="Helvetica,sans-Serif" font-size="10.00">amr&#45;wind/core/IntField.H</text>
</a>
</g>
</g>
<!-- Node19&#45;&gt;Node22 -->
<g id="edge33" class="edge">
<title>Node19&#45;&gt;Node22</title>
<path fill="none" stroke="midnightblue" d="M455.2,-184.87C422.94,-173.47 365.99,-153.35 329.57,-140.49"/>
<polygon fill="midnightblue" stroke="midnightblue" points="330.47,-137.09 319.88,-137.06 328.14,-143.69 330.47,-137.09"/>
</g>
<!-- Node23 -->
<g id="node23" class="node">
<title>Node23</title>
<g id="a_node23"><a xlink:title=" ">
<polygon fill="white" stroke="#bfbfbf" points="252.64,-56.5 252.64,-75.5 364.64,-75.5 364.64,-56.5 252.64,-56.5"/>
<text text-anchor="middle" x="308.64" y="-63.5" font-family="Helvetica,sans-Serif" font-size="10.00">AMReX_iMultiFab.H</text>
</a>
</g>
</g>
<!-- Node19&#45;&gt;Node23 -->
<g id="edge55" class="edge">
<title>Node19&#45;&gt;Node23</title>
<path fill="none" stroke="midnightblue" d="M468.5,-184.79C449.16,-169.73 408.06,-137.93 372.64,-112 358.53,-101.67 342.42,-90.35 329.9,-81.65"/>
<polygon fill="midnightblue" stroke="midnightblue" points="331.7,-78.64 321.49,-75.82 327.72,-84.39 331.7,-78.64"/>
</g>
<!-- Node24 -->
<g id="node24" class="node">
<title>Node24</title>
<g id="a_node24"><a xlink:href="_scratch_field_8_h.html" target="_top" xlink:title=" ">
<polygon fill="white" stroke="black" points="715.64,-118 715.64,-137 875.64,-137 875.64,-118 715.64,-118"/>
<text text-anchor="middle" x="795.64" y="-125" font-family="Helvetica,sans-Serif" font-size="10.00">amr&#45;wind/core/ScratchField.H</text>
</a>
</g>
</g>
<!-- Node19&#45;&gt;Node24 -->
<g id="edge37" class="edge">
<title>Node19&#45;&gt;Node24</title>
<path fill="none" stroke="midnightblue" d="M521.27,-184.94C578.66,-173.13 682.01,-151.87 744.18,-139.09"/>
<polygon fill="midnightblue" stroke="midnightblue" points="745.07,-142.47 754.16,-137.03 743.66,-135.62 745.07,-142.47"/>
</g>
<!-- Node27 -->
<g id="node27" class="node">
<title>Node27</title>
<g id="a_node27"><a xlink:href="_int_scratch_field_8_h.html" target="_top" xlink:title=" ">
<polygon fill="white" stroke="black" points="459.14,-112.5 459.14,-142.5 598.14,-142.5 598.14,-112.5 459.14,-112.5"/>
<text text-anchor="start" x="467.14" y="-130.5" font-family="Helvetica,sans-Serif" font-size="10.00">amr&#45;wind/core/IntScratch</text>
<text text-anchor="middle" x="528.64" y="-119.5" font-family="Helvetica,sans-Serif" font-size="10.00">Field.H</text>
</a>
</g>
</g>
<!-- Node19&#45;&gt;Node27 -->
<g id="edge45" class="edge">
<title>Node19&#45;&gt;Node27</title>
<path fill="none" stroke="midnightblue" d="M486.24,-184.73C492.8,-176.03 503.12,-162.34 511.94,-150.65"/>
<polygon fill="midnightblue" stroke="midnightblue" points="514.79,-152.68 518.02,-142.59 509.2,-148.47 514.79,-152.68"/>
</g>
<!-- Node28 -->
<g id="node28" class="node">
<title>Node28</title>
<g id="a_node28"><a xlink:title=" ">
<polygon fill="white" stroke="#bfbfbf" points="60.64,-118 60.64,-137 170.64,-137 170.64,-118 60.64,-118"/>
<text text-anchor="middle" x="115.64" y="-125" font-family="Helvetica,sans-Serif" font-size="10.00">AMReX_AmrCore.H</text>
</a>
</g>
</g>
<!-- Node19&#45;&gt;Node28 -->
<g id="edge53" class="edge">
<title>Node19&#45;&gt;Node28</title>
<path fill="none" stroke="midnightblue" d="M426.24,-184.98C367.06,-175.39 268.85,-159.05 184.64,-143 178.32,-141.8 171.7,-140.48 165.15,-139.14"/>
<polygon fill="midnightblue" stroke="midnightblue" points="165.49,-135.64 154.99,-137.04 164.08,-142.49 165.49,-135.64"/>
</g>
<!-- Node20&#45;&gt;Node13 -->
<g id="edge30" class="edge">
<title>Node20&#45;&gt;Node13</title>
<path fill="none" stroke="midnightblue" d="M158.79,-60.7C185.49,-59.16 215.92,-57.45 243.64,-56 576.89,-38.51 660.55,-40.48 993.64,-20 1011.59,-18.9 1031.03,-17.52 1048.94,-16.17"/>
<polygon fill="midnightblue" stroke="midnightblue" points="1049.29,-19.66 1059,-15.41 1048.76,-12.68 1049.29,-19.66"/>
</g>
<!-- Node20&#45;&gt;Node16 -->
<g id="edge29" class="edge">
<title>Node20&#45;&gt;Node16</title>
<path fill="none" stroke="midnightblue" d="M134.28,-56.44C188.51,-46.9 276.18,-31.48 334.12,-21.29"/>
<polygon fill="midnightblue" stroke="midnightblue" points="334.98,-24.7 344.22,-19.52 333.76,-17.8 334.98,-24.7"/>
</g>
<!-- Node21 -->
<g id="node21" class="node">
<title>Node21</title>
<g id="a_node21"><a xlink:title=" ">
<polygon fill="white" stroke="#bfbfbf" points="23.64,-0.5 23.64,-19.5 147.64,-19.5 147.64,-0.5 23.64,-0.5"/>
<text text-anchor="middle" x="85.64" y="-7.5" font-family="Helvetica,sans-Serif" font-size="10.00">AMReX_Interpolater.H</text>
</a>
</g>
</g>
<!-- Node20&#45;&gt;Node21 -->
<g id="edge31" class="edge">
<title>Node20&#45;&gt;Node21</title>
<path fill="none" stroke="midnightblue" d="M85.64,-56.08C85.64,-49.01 85.64,-38.86 85.64,-29.99"/>
<polygon fill="midnightblue" stroke="midnightblue" points="89.14,-29.75 85.64,-19.75 82.14,-29.75 89.14,-29.75"/>
</g>
<!-- Node22&#45;&gt;Node11 -->
<g id="edge34" class="edge">
<title>Node22&#45;&gt;Node11</title>
<path fill="none" stroke="midnightblue" d="M281.16,-117.84C259.96,-104.11 224.9,-76.78 243.64,-56 257.1,-41.07 546.69,-19.96 645.18,-13.18"/>
<polygon fill="midnightblue" stroke="midnightblue" points="645.69,-16.66 655.43,-12.48 645.21,-9.67 645.69,-16.66"/>
</g>
<!-- Node22&#45;&gt;Node16 -->
<g id="edge35" class="edge">
<title>Node22&#45;&gt;Node16</title>
<path fill="none" stroke="midnightblue" d="M269.83,-117.93C237.81,-105.93 189.84,-82.57 210.64,-56 223.5,-39.57 269.13,-28.31 311.49,-21.16"/>
<polygon fill="midnightblue" stroke="midnightblue" points="312.28,-24.58 321.59,-19.52 311.16,-17.67 312.28,-24.58"/>
</g>
<!-- Node22&#45;&gt;Node23 -->
<g id="edge36" class="edge">
<title>Node22&#45;&gt;Node23</title>
<path fill="none" stroke="midnightblue" d="M297.5,-117.98C299.35,-109.49 302.26,-96.2 304.63,-85.32"/>
<polygon fill="midnightblue" stroke="midnightblue" points="308.06,-86.03 306.78,-75.51 301.22,-84.53 308.06,-86.03"/>
</g>
<!-- Node24&#45;&gt;Node11 -->
<g id="edge38" class="edge">
<title>Node24&#45;&gt;Node11</title>
<path fill="none" stroke="midnightblue" d="M794.82,-117.6C793.04,-103.05 787.61,-73.98 771.64,-56 755.29,-37.6 729.78,-26.05 709.46,-19.26"/>
<polygon fill="midnightblue" stroke="midnightblue" points="710.26,-15.85 699.67,-16.22 708.18,-22.53 710.26,-15.85"/>
</g>
<!-- Node24&#45;&gt;Node13 -->
<g id="edge42" class="edge">
<title>Node24&#45;&gt;Node13</title>
<path fill="none" stroke="midnightblue" d="M875.79,-119.49C924,-112.92 985.53,-100.27 1035.64,-76 1060.53,-63.94 1084.22,-42.24 1098.82,-27.25"/>
<polygon fill="midnightblue" stroke="midnightblue" points="1101.62,-29.39 1105.95,-19.72 1096.53,-24.57 1101.62,-29.39"/>
</g>
<!-- Node24&#45;&gt;Node16 -->
<g id="edge40" class="edge">
<title>Node24&#45;&gt;Node16</title>
<path fill="none" stroke="midnightblue" d="M791.31,-117.77C783.17,-102.36 763.98,-70.6 737.64,-56 696.47,-33.19 577.59,-21.47 490.86,-15.8"/>
<polygon fill="midnightblue" stroke="midnightblue" points="490.91,-12.3 480.71,-15.15 490.47,-19.28 490.91,-12.3"/>
</g>
<!-- Node24&#45;&gt;Node17 -->
<g id="edge41" class="edge">
<title>Node24&#45;&gt;Node17</title>
<path fill="none" stroke="midnightblue" d="M815.69,-117.98C839.4,-107.9 879.04,-91.05 906.22,-79.5"/>
<polygon fill="midnightblue" stroke="midnightblue" points="907.78,-82.64 915.61,-75.51 905.04,-76.2 907.78,-82.64"/>
</g>
<!-- Node24&#45;&gt;Node18 -->
<g id="edge43" class="edge">
<title>Node24&#45;&gt;Node18</title>
<path fill="none" stroke="midnightblue" d="M875.8,-118.82C932.23,-111.56 1000.77,-98.37 1018.64,-76 1036.31,-53.87 1002.29,-34.74 972.61,-23.08"/>
<polygon fill="midnightblue" stroke="midnightblue" points="973.79,-19.78 963.2,-19.55 971.34,-26.34 973.79,-19.78"/>
</g>
<!-- Node25 -->
<g id="node25" class="node">
<title>Node25</title>
<g id="a_node25"><a xlink:title=" ">
<polygon fill="white" stroke="#bfbfbf" points="684.14,-56.5 684.14,-75.5 729.14,-75.5 729.14,-56.5 684.14,-56.5"/>
<text text-anchor="middle" x="706.64" y="-63.5" font-family="Helvetica,sans-Serif" font-size="10.00">utility</text>
</a>
</g>
</g>
<!-- Node24&#45;&gt;Node25 -->
<g id="edge39" class="edge">
<title>Node24&#45;&gt;Node25</title>
<path fill="none" stroke="midnightblue" d="M782.88,-117.98C768.61,-108.43 745.24,-92.81 728.13,-81.37"/>
<polygon fill="midnightblue" stroke="midnightblue" points="729.62,-78.16 719.36,-75.51 725.73,-83.98 729.62,-78.16"/>
</g>
<!-- Node26 -->
<g id="node26" class="node">
<title>Node26</title>
<g id="a_node26"><a xlink:title=" ">
<polygon fill="white" stroke="#bfbfbf" points="535.14,-56.5 535.14,-75.5 666.14,-75.5 666.14,-56.5 535.14,-56.5"/>
<text text-anchor="middle" x="600.64" y="-63.5" font-family="Helvetica,sans-Serif" font-size="10.00">AMReX_PhysBCFunct.H</text>
</a>
</g>
</g>
<!-- Node24&#45;&gt;Node26 -->
<g id="edge44" class="edge">
<title>Node24&#45;&gt;Node26</title>
<path fill="none" stroke="midnightblue" d="M767.7,-117.98C733.67,-107.59 676.05,-90.01 638.17,-78.45"/>
<polygon fill="midnightblue" stroke="midnightblue" points="639.11,-75.08 628.52,-75.51 637.07,-81.78 639.11,-75.08"/>
</g>
<!-- Node27&#45;&gt;Node11 -->
<g id="edge46" class="edge">
<title>Node27&#45;&gt;Node11</title>
<path fill="none" stroke="midnightblue" d="M512.35,-112.32C497.17,-97.38 478.79,-73.61 492.64,-56 511.29,-32.26 597.53,-19.49 645.4,-14.12"/>
<polygon fill="midnightblue" stroke="midnightblue" points="645.98,-17.57 655.55,-13.02 645.24,-10.61 645.98,-17.57"/>
</g>
<!-- Node27&#45;&gt;Node16 -->
<g id="edge48" class="edge">
<title>Node27&#45;&gt;Node16</title>
<path fill="none" stroke="midnightblue" d="M505.4,-112.43C490.35,-102.89 470.64,-89.59 454.64,-76 436.72,-60.79 418.41,-40.96 406.38,-27.22"/>
<polygon fill="midnightblue" stroke="midnightblue" points="408.94,-24.83 399.76,-19.55 403.64,-29.41 408.94,-24.83"/>
</g>
<!-- Node27&#45;&gt;Node17 -->
<g id="edge49" class="edge">
<title>Node27&#45;&gt;Node17</title>
<path fill="none" stroke="midnightblue" d="M598.14,-116.34C673.27,-105.36 792.28,-87.96 867.05,-77.03"/>
<polygon fill="midnightblue" stroke="midnightblue" points="867.91,-80.44 877.3,-75.53 866.9,-73.51 867.91,-80.44"/>
</g>
<!-- Node27&#45;&gt;Node18 -->
<g id="edge51" class="edge">
<title>Node27&#45;&gt;Node18</title>
<path fill="none" stroke="midnightblue" d="M522.85,-112.39C517.42,-96.59 511.98,-71.24 525.64,-56 548.61,-30.36 768.41,-17.85 876.38,-13.21"/>
<polygon fill="midnightblue" stroke="midnightblue" points="876.62,-16.7 886.46,-12.79 876.33,-9.71 876.62,-16.7"/>
</g>
<!-- Node27&#45;&gt;Node23 -->
<g id="edge50" class="edge">
<title>Node27&#45;&gt;Node23</title>
<path fill="none" stroke="midnightblue" d="M476.78,-112.47C437.99,-101.99 385.68,-87.84 349.76,-78.12"/>
<polygon fill="midnightblue" stroke="midnightblue" points="350.66,-74.74 340.09,-75.51 348.83,-81.5 350.66,-74.74"/>
</g>
<!-- Node27&#45;&gt;Node25 -->
<g id="edge47" class="edge">
<title>Node27&#45;&gt;Node25</title>
<path fill="none" stroke="midnightblue" d="M570.82,-112.4C602.46,-101.82 645.12,-87.56 674.14,-77.86"/>
<polygon fill="midnightblue" stroke="midnightblue" points="675.41,-81.13 683.79,-74.64 673.19,-74.49 675.41,-81.13"/>
</g>
<!-- Node27&#45;&gt;Node26 -->
<g id="edge52" class="edge">
<title>Node27&#45;&gt;Node26</title>
<path fill="none" stroke="midnightblue" d="M545.7,-112.4C556.7,-103.31 571,-91.49 582.25,-82.19"/>
<polygon fill="midnightblue" stroke="midnightblue" points="584.68,-84.73 590.16,-75.66 580.22,-79.33 584.68,-84.73"/>
</g>
<!-- Node29&#45;&gt;Node9 -->
<g id="edge58" class="edge">
<title>Node29&#45;&gt;Node9</title>
<path fill="none" stroke="midnightblue" d="M1446.43,-179.21C1472.1,-161.27 1518.79,-130.58 1562.64,-112 1599.55,-96.36 1643.36,-84.84 1676.99,-77.37"/>
<polygon fill="midnightblue" stroke="midnightblue" points="1678.04,-80.72 1687.08,-75.18 1676.56,-73.88 1678.04,-80.72"/>
</g>
<!-- Node30 -->
<g id="node30" class="node">
<title>Node30</title>
<g id="a_node30"><a xlink:title=" ">
<polygon fill="white" stroke="#bfbfbf" points="1587.14,-118 1587.14,-137 1702.14,-137 1702.14,-118 1587.14,-118"/>
<text text-anchor="middle" x="1644.64" y="-125" font-family="Helvetica,sans-Serif" font-size="10.00">AMReX_Geometry.H</text>
</a>
</g>
</g>
<!-- Node29&#45;&gt;Node30 -->
<g id="edge57" class="edge">
<title>Node29&#45;&gt;Node30</title>
<path fill="none" stroke="midnightblue" d="M1473.67,-179.48C1513.26,-167.67 1569.17,-151 1606.14,-139.98"/>
<polygon fill="midnightblue" stroke="midnightblue" points="1607.45,-143.24 1616.03,-137.03 1605.45,-136.53 1607.45,-143.24"/>
</g>
<!-- Node31&#45;&gt;Node9 -->
<g id="edge61" class="edge">
<title>Node31&#45;&gt;Node9</title>
<path fill="none" stroke="midnightblue" d="M1568.26,-179.38C1564.9,-161.6 1562.22,-131.1 1577.64,-112 1584.52,-103.47 1641.4,-88.28 1683.81,-77.93"/>
<polygon fill="midnightblue" stroke="midnightblue" points="1684.8,-81.29 1693.69,-75.54 1683.15,-74.49 1684.8,-81.29"/>
</g>
<!-- Node31&#45;&gt;Node30 -->
<g id="edge60" class="edge">
<title>Node31&#45;&gt;Node30</title>
<path fill="none" stroke="midnightblue" d="M1587.48,-179.4C1599.2,-168.96 1615.15,-154.75 1627.23,-144"/>
<polygon fill="midnightblue" stroke="midnightblue" points="1629.73,-146.46 1634.87,-137.19 1625.08,-141.23 1629.73,-146.46"/>
</g>
<!-- Node32&#45;&gt;Node9 -->
<g id="edge64" class="edge">
<title>Node32&#45;&gt;Node9</title>
<path fill="none" stroke="midnightblue" d="M1718.19,-179.48C1720.71,-156.72 1725.69,-111.7 1728.53,-86.06"/>
<polygon fill="midnightblue" stroke="midnightblue" points="1732.04,-86.11 1729.66,-75.79 1725.08,-85.34 1732.04,-86.11"/>
</g>
<!-- Node32&#45;&gt;Node30 -->
<g id="edge63" class="edge">
<title>Node32&#45;&gt;Node30</title>
<path fill="none" stroke="midnightblue" d="M1701.01,-179.4C1689.45,-168.96 1673.71,-154.75 1661.8,-144"/>
<polygon fill="midnightblue" stroke="midnightblue" points="1664.04,-141.3 1654.27,-137.19 1659.34,-146.49 1664.04,-141.3"/>
</g>
</g>
</svg>
        <g id="navigator" transform="translate(0 0)" fill="#404254">
                <rect fill="#f2f5e9" fill-opacity="0.5" stroke="#606060" stroke-width=".5" x="0" y="0" width="60" height="60"/>
                <use id="zoomplus" xlink:href="#zoomPlus" x="17" y="9" onmousedown="handleZoom(evt,'in')"/>
                <use id="zoomminus" xlink:href="#zoomMin" x="42" y="9" onmousedown="handleZoom(evt,'out')"/>
                <use id="reset" xlink:href="#resetDef" x="30" y="36" onmousedown="handleReset()"/>
                <g id="arrowUp" xlink:href="#dirArrow" transform="translate(30 24)" onmousedown="handlePan(0,-1)">
                  <use xlink:href="#rim" fill="#404040">
                        <set attributeName="fill" to="#808080" begin="arrowUp.mouseover" end="arrowUp.mouseout"/>
                  </use>
                  <path fill="none" stroke="white" stroke-width="1.5" d="M0,-3.0v7 M-2.5,-0.5L0,-3.0L2.5,-0.5"/>
                </g>
                <g id="arrowRight" xlink:href="#dirArrow" transform="rotate(90) translate(36 -43)" onmousedown="handlePan(1,0)">
                  <use xlink:href="#rim" fill="#404040">
                        <set attributeName="fill" to="#808080" begin="arrowRight.mouseover" end="arrowRight.mouseout"/>
                  </use>
                  <path fill="none" stroke="white" stroke-width="1.5" d="M0,-3.0v7 M-2.5,-0.5L0,-3.0L2.5,-0.5"/>
                </g>
                <g id="arrowDown" xlink:href="#dirArrow" transform="rotate(180) translate(-30 -48)" onmousedown="handlePan(0,1)">
                  <use xlink:href="#rim" fill="#404040">
                        <set attributeName="fill" to="#808080" begin="arrowDown.mouseover" end="arrowDown.mouseout"/>
                  </use>
                  <path fill="none" stroke="white" stroke-width="1.5" d="M0,-3.0v7 M-2.5,-0.5L0,-3.0L2.5,-0.5"/>
                </g>
                <g id="arrowLeft" xlink:href="#dirArrow" transform="rotate(270) translate(-36 17)" onmousedown="handlePan(-1,0)">
                  <use xlink:href="#rim" fill="#404040">
                        <set attributeName="fill" to="#808080" begin="arrowLeft.mouseover" end="arrowLeft.mouseout"/>
                  </use>
                  <path fill="none" stroke="white" stroke-width="1.5" d="M0,-3.0v7 M-2.5,-0.5L0,-3.0L2.5,-0.5"/>
                </g>
        </g>
        <svg viewBox="0 0 15 15" width="100%" height="30px" preserveAspectRatio="xMaxYMin meet">
         <g id="arrow_out" transform="scale(0.3 0.3)">
          <a xlink:href="_u_d_f_8cpp__incl_org.svg" target="_base">
           <rect id="button" ry="5" rx="5" y="6" x="6" height="38" width="38"
                fill="#f2f5e9" fill-opacity="0.5" stroke="#606060" stroke-width="1.0"/>
           <path id="arrow"
             d="M 11.500037,31.436501 C 11.940474,20.09759 22.043105,11.32322 32.158766,21.979434 L 37.068811,17.246167 C 37.068811,17.246167 37.088388,32 37.088388,32 L 22.160133,31.978069 C 22.160133,31.978069 26.997745,27.140456 26.997745,27.140456 C 18.528582,18.264221 13.291696,25.230495 11.500037,31.436501 z"
             style="fill:#404040;"/>
          </a>
         </g>
        </svg>
</svg>
