<?xml version="1.0" encoding="UTF-8" standalone="no"?>
<!DOCTYPE svg PUBLIC "-//W3C//DTD SVG 1.1//EN"
 "http://www.w3.org/Graphics/SVG/1.1/DTD/svg11.dtd">
<!-- Generated by graphviz version 2.43.0 (0)
 -->
<!-- Title: UniformCt.H Pages: 1 -->
<svg width="602pt" height="252pt"
 viewBox="0.00 0.00 601.87 252.00" xmlns="http://www.w3.org/2000/svg" xmlns:xlink="http://www.w3.org/1999/xlink">
<g id="graph0" class="graph" transform="scale(1 1) rotate(0) translate(4 248)">
<title>UniformCt.H</title>
<polygon fill="white" stroke="transparent" points="-4,4 -4,-248 597.87,-248 597.87,4 -4,4"/>
<!-- Node1 -->
<g id="node1" class="node">
<title>Node1</title>
<g id="a_node1"><a xlink:title=" ">
<polygon fill="#bfbfbf" stroke="black" points="480,-224.5 480,-243.5 557,-243.5 557,-224.5 480,-224.5"/>
<text text-anchor="middle" x="518.5" y="-231.5" font-family="Helvetica,sans-Serif" font-size="10.00">UniformCt.H</text>
</a>
</g>
</g>
<!-- Node2 -->
<g id="node2" class="node">
<title>Node2</title>
<g id="a_node2"><a xlink:href="_actuator_disk_8cpp.html" target="_top" xlink:title=" ">
<polygon fill="white" stroke="black" points="409.5,-0.5 409.5,-19.5 509.5,-19.5 509.5,-0.5 409.5,-0.5"/>
<text text-anchor="middle" x="459.5" y="-7.5" font-family="Helvetica,sans-Serif" font-size="10.00">ActuatorDisk.cpp</text>
</a>
</g>
</g>
<!-- Node1&#45;&gt;Node2 -->
<g id="edge1" class="edge">
<title>Node1&#45;&gt;Node2</title>
<path fill="none" stroke="midnightblue" d="M545.9,-219.19C557.94,-211.66 571.01,-201.17 578.5,-188 595.25,-158.55 599.1,-142.57 584.5,-112 562.49,-65.93 508.07,-34.11 478.83,-19.72"/>
<polygon fill="midnightblue" stroke="midnightblue" points="543.89,-216.31 537.01,-224.37 547.41,-222.36 543.89,-216.31"/>
</g>
<!-- Node3 -->
<g id="node3" class="node">
<title>Node3</title>
<g id="a_node3"><a xlink:href="disk__spreading_8_h.html" target="_top" xlink:title=" ">
<polygon fill="white" stroke="black" points="347,-168.5 347,-187.5 448,-187.5 448,-168.5 347,-168.5"/>
<text text-anchor="middle" x="397.5" y="-175.5" font-family="Helvetica,sans-Serif" font-size="10.00">disk_spreading.H</text>
</a>
</g>
</g>
<!-- Node1&#45;&gt;Node3 -->
<g id="edge2" class="edge">
<title>Node1&#45;&gt;Node3</title>
<path fill="none" stroke="midnightblue" d="M490.19,-220.37C467.53,-210.26 436.37,-196.35 416.58,-187.52"/>
<polygon fill="midnightblue" stroke="midnightblue" points="488.77,-223.56 499.33,-224.44 491.62,-217.17 488.77,-223.56"/>
</g>
<!-- Node10 -->
<g id="node10" class="node">
<title>Node10</title>
<g id="a_node10"><a xlink:href="uniform__ct__ops_8_h.html" target="_top" xlink:title=" ">
<polygon fill="white" stroke="black" points="467.5,-168.5 467.5,-187.5 569.5,-187.5 569.5,-168.5 467.5,-168.5"/>
<text text-anchor="middle" x="518.5" y="-175.5" font-family="Helvetica,sans-Serif" font-size="10.00">uniform_ct_ops.H</text>
</a>
</g>
</g>
<!-- Node1&#45;&gt;Node10 -->
<g id="edge11" class="edge">
<title>Node1&#45;&gt;Node10</title>
<path fill="none" stroke="midnightblue" d="M518.5,-213.8C518.5,-204.91 518.5,-194.78 518.5,-187.75"/>
<polygon fill="midnightblue" stroke="midnightblue" points="515,-214.08 518.5,-224.08 522,-214.08 515,-214.08"/>
</g>
<!-- Node3&#45;&gt;Node2 -->
<g id="edge10" class="edge">
<title>Node3&#45;&gt;Node2</title>
<path fill="none" stroke="midnightblue" d="M403.84,-159.02C412.23,-135.33 427.61,-92.4 441.5,-56 446.36,-43.27 452.28,-28.63 455.97,-19.59"/>
<polygon fill="midnightblue" stroke="midnightblue" points="400.53,-157.86 400.5,-168.46 407.13,-160.2 400.53,-157.86"/>
</g>
<!-- Node4 -->
<g id="node4" class="node">
<title>Node4</title>
<g id="a_node4"><a xlink:href="_act_src_disk_op_8_h.html" target="_top" xlink:title=" ">
<polygon fill="white" stroke="black" points="275,-112.5 275,-131.5 368,-131.5 368,-112.5 275,-112.5"/>
<text text-anchor="middle" x="321.5" y="-119.5" font-family="Helvetica,sans-Serif" font-size="10.00">ActSrcDiskOp.H</text>
</a>
</g>
</g>
<!-- Node3&#45;&gt;Node4 -->
<g id="edge3" class="edge">
<title>Node3&#45;&gt;Node4</title>
<path fill="none" stroke="midnightblue" d="M376.92,-162.38C363.19,-152.62 345.57,-140.11 333.93,-131.83"/>
<polygon fill="midnightblue" stroke="midnightblue" points="375.11,-165.38 385.29,-168.32 379.16,-159.68 375.11,-165.38"/>
</g>
<!-- Node5 -->
<g id="node5" class="node">
<title>Node5</title>
<g id="a_node5"><a xlink:href="_actuator_model_8_h.html" target="_top" xlink:title=" ">
<polygon fill="white" stroke="black" points="247.5,-56.5 247.5,-75.5 345.5,-75.5 345.5,-56.5 247.5,-56.5"/>
<text text-anchor="middle" x="296.5" y="-63.5" font-family="Helvetica,sans-Serif" font-size="10.00">ActuatorModel.H</text>
</a>
</g>
</g>
<!-- Node4&#45;&gt;Node5 -->
<g id="edge4" class="edge">
<title>Node4&#45;&gt;Node5</title>
<path fill="none" stroke="midnightblue" d="M313.16,-102.98C308.92,-93.82 303.95,-83.09 300.55,-75.75"/>
<polygon fill="midnightblue" stroke="midnightblue" points="309.99,-104.48 317.37,-112.08 316.35,-101.54 309.99,-104.48"/>
</g>
<!-- Node5&#45;&gt;Node2 -->
<g id="edge6" class="edge">
<title>Node5&#45;&gt;Node2</title>
<path fill="none" stroke="midnightblue" d="M332.2,-53.17C362.9,-43 406.42,-28.59 433.79,-19.52"/>
<polygon fill="midnightblue" stroke="midnightblue" points="330.72,-49.98 322.33,-56.44 332.92,-56.62 330.72,-49.98"/>
</g>
<!-- Node6 -->
<g id="node6" class="node">
<title>Node6</title>
<g id="a_node6"><a xlink:href="_actuator_8cpp.html" target="_top" xlink:title=" ">
<polygon fill="white" stroke="black" points="0,-0.5 0,-19.5 77,-19.5 77,-0.5 0,-0.5"/>
<text text-anchor="middle" x="38.5" y="-7.5" font-family="Helvetica,sans-Serif" font-size="10.00">Actuator.cpp</text>
</a>
</g>
</g>
<!-- Node5&#45;&gt;Node6 -->
<g id="edge5" class="edge">
<title>Node5&#45;&gt;Node6</title>
<path fill="none" stroke="midnightblue" d="M245.75,-54.38C196.23,-44.01 121.97,-28.47 77.08,-19.08"/>
<polygon fill="midnightblue" stroke="midnightblue" points="245.11,-57.82 255.62,-56.44 246.55,-50.97 245.11,-57.82"/>
</g>
<!-- Node7 -->
<g id="node7" class="node">
<title>Node7</title>
<g id="a_node7"><a xlink:href="_turbine_fast_8cpp.html" target="_top" xlink:title=" ">
<polygon fill="white" stroke="black" points="95.5,-0.5 95.5,-19.5 187.5,-19.5 187.5,-0.5 95.5,-0.5"/>
<text text-anchor="middle" x="141.5" y="-7.5" font-family="Helvetica,sans-Serif" font-size="10.00">TurbineFast.cpp</text>
</a>
</g>
</g>
<!-- Node5&#45;&gt;Node7 -->
<g id="edge7" class="edge">
<title>Node5&#45;&gt;Node7</title>
<path fill="none" stroke="midnightblue" d="M262.17,-53.04C233,-42.88 191.86,-28.55 165.95,-19.52"/>
<polygon fill="midnightblue" stroke="midnightblue" points="261.34,-56.46 271.94,-56.44 263.65,-49.85 261.34,-56.46"/>
</g>
<!-- Node8 -->
<g id="node8" class="node">
<title>Node8</title>
<g id="a_node8"><a xlink:href="_fixed_wing_8cpp.html" target="_top" xlink:title=" ">
<polygon fill="white" stroke="black" points="206,-0.5 206,-19.5 293,-19.5 293,-0.5 206,-0.5"/>
<text text-anchor="middle" x="249.5" y="-7.5" font-family="Helvetica,sans-Serif" font-size="10.00">FixedWing.cpp</text>
</a>
</g>
</g>
<!-- Node5&#45;&gt;Node8 -->
<g id="edge8" class="edge">
<title>Node5&#45;&gt;Node8</title>
<path fill="none" stroke="midnightblue" d="M282.08,-48.43C273.84,-38.97 263.85,-27.48 257.12,-19.75"/>
<polygon fill="midnightblue" stroke="midnightblue" points="279.53,-50.84 288.74,-56.08 284.81,-46.24 279.53,-50.84"/>
</g>
<!-- Node9 -->
<g id="node9" class="node">
<title>Node9</title>
<g id="a_node9"><a xlink:href="_flat_plate_8cpp.html" target="_top" xlink:title=" ">
<polygon fill="white" stroke="black" points="311.5,-0.5 311.5,-19.5 391.5,-19.5 391.5,-0.5 311.5,-0.5"/>
<text text-anchor="middle" x="351.5" y="-7.5" font-family="Helvetica,sans-Serif" font-size="10.00">FlatPlate.cpp</text>
</a>
</g>
</g>
<!-- Node5&#45;&gt;Node9 -->
<g id="edge9" class="edge">
<title>Node5&#45;&gt;Node9</title>
<path fill="none" stroke="midnightblue" d="M312.79,-49C322.54,-39.43 334.55,-27.64 342.59,-19.75"/>
<polygon fill="midnightblue" stroke="midnightblue" points="310.27,-46.58 305.58,-56.08 315.17,-51.57 310.27,-46.58"/>
</g>
<!-- Node10&#45;&gt;Node2 -->
<g id="edge12" class="edge">
<title>Node10&#45;&gt;Node2</title>
<path fill="none" stroke="midnightblue" d="M487.95,-163.56C475.17,-156.22 461.65,-145.77 454.5,-132 434.83,-94.12 449.5,-40.23 456.42,-19.54"/>
<polygon fill="midnightblue" stroke="midnightblue" points="486.54,-166.77 497.02,-168.36 489.82,-160.59 486.54,-166.77"/>
</g>
<!-- Node11 -->
<g id="node11" class="node">
<title>Node11</title>
<g id="a_node11"><a xlink:href="uniform__ct__ops_8cpp.html" target="_top" xlink:title=" ">
<polygon fill="white" stroke="black" points="463.5,-112.5 463.5,-131.5 575.5,-131.5 575.5,-112.5 463.5,-112.5"/>
<text text-anchor="middle" x="519.5" y="-119.5" font-family="Helvetica,sans-Serif" font-size="10.00">uniform_ct_ops.cpp</text>
</a>
</g>
</g>
<!-- Node10&#45;&gt;Node11 -->
<g id="edge13" class="edge">
<title>Node10&#45;&gt;Node11</title>
<path fill="none" stroke="midnightblue" d="M518.86,-157.8C519.02,-148.91 519.21,-138.78 519.34,-131.75"/>
<polygon fill="midnightblue" stroke="midnightblue" points="515.35,-158.02 518.67,-168.08 522.35,-158.15 515.35,-158.02"/>
</g>
</g>
</svg>
