<?xml version="1.0" encoding="UTF-8" standalone="no"?>
<!DOCTYPE svg PUBLIC "-//W3C//DTD SVG 1.1//EN"
 "http://www.w3.org/Graphics/SVG/1.1/DTD/svg11.dtd">
<!-- Generated by graphviz version 2.43.0 (0)
 -->
<!-- Title: actuator_utils.H Pages: 1 -->
<!--zoomable 308 -->
<svg id="main" version="1.1" xmlns="http://www.w3.org/2000/svg" xmlns:xlink="http://www.w3.org/1999/xlink" xml:space="preserve" onload="init(evt)">
<style type="text/css"><![CDATA[
.edge:hover path { stroke: red; }
.edge:hover polygon { stroke: red; fill: red; }
]]></style>
<script type="text/javascript"><![CDATA[
var edges = document.getElementsByTagName('g');
if (edges && edges.length) {
  for (var i=0;i<edges.length;i++) {
    if (edges[i].id.substr(0,4)=='edge') {
      edges[i].setAttribute('class','edge');
    }
  }
}
]]></script>
        <defs>
                <circle id="rim" cx="0" cy="0" r="7"/>
                <circle id="rim2" cx="0" cy="0" r="3.5"/>
                <g id="zoomPlus">
                        <use xlink:href="#rim" fill="#404040">
                                <set attributeName="fill" to="#808080" begin="zoomplus.mouseover" end="zoomplus.mouseout"/>
                        </use>
                        <path d="M-4,0h8M0,-4v8" fill="none" stroke="white" stroke-width="1.5" pointer-events="none"/>
                </g>
                <g id="zoomMin">
                        <use xlink:href="#rim" fill="#404040">
                                <set attributeName="fill" to="#808080" begin="zoomminus.mouseover" end="zoomminus.mouseout"/>
                        </use>
                        <path d="M-4,0h8" fill="none" stroke="white" stroke-width="1.5" pointer-events="none"/>
                </g>
                <g id="dirArrow">
                        <path fill="none" stroke="white" stroke-width="1.5" d="M0,-3.0v7 M-2.5,-0.5L0,-3.0L2.5,-0.5"/>
                </g>
               <g id="resetDef">
                       <use xlink:href="#rim2" fill="#404040">
                               <set attributeName="fill" to="#808080" begin="reset.mouseover" end="reset.mouseout"/>
                       </use>
               </g>
        </defs>

<script type="text/javascript">
var viewWidth = 959;
var viewHeight = 308;
var sectionId = 'dynsection-1';
</script>
<script xlink:href="svgpan.js"/>
<svg id="graph" class="graph">
<g id="viewport">
<title>actuator_utils.H</title>
<polygon fill="white" stroke="transparent" points="-4,4 -4,-304 955,-304 955,4 -4,4"/>
<!-- Node1 -->
<g id="node1" class="node">
<title>Node1</title>
<g id="a_node1"><a xlink:title=" ">
<polygon fill="#bfbfbf" stroke="black" points="508,-280.5 508,-299.5 602,-299.5 602,-280.5 508,-280.5"/>
<text text-anchor="middle" x="555" y="-287.5" font-family="Helvetica,sans-Serif" font-size="10.00">actuator_utils.H</text>
</a>
</g>
</g>
<!-- Node2 -->
<g id="node2" class="node">
<title>Node2</title>
<g id="a_node2"><a xlink:href="_act_src_line_op_8_h.html" target="_top" xlink:title=" ">
<polygon fill="white" stroke="black" points="603,-112.5 603,-131.5 695,-131.5 695,-112.5 603,-112.5"/>
<text text-anchor="middle" x="649" y="-119.5" font-family="Helvetica,sans-Serif" font-size="10.00">ActSrcLineOp.H</text>
</a>
</g>
</g>
<!-- Node1&#45;&gt;Node2 -->
<g id="edge1" class="edge">
<title>Node1&#45;&gt;Node2</title>
<path fill="none" stroke="midnightblue" d="M578.03,-274.74C589.07,-266.87 601.66,-256.23 610,-244 635.24,-206.98 644.97,-152.59 647.92,-131.65"/>
<polygon fill="midnightblue" stroke="midnightblue" points="575.95,-271.92 569.63,-280.43 579.87,-277.72 575.95,-271.92"/>
</g>
<!-- Node9 -->
<g id="node9" class="node">
<title>Node9</title>
<g id="a_node9"><a xlink:href="actuator__ops_i_8_h.html" target="_top" xlink:title=" ">
<polygon fill="white" stroke="black" points="508.5,-224.5 508.5,-243.5 601.5,-243.5 601.5,-224.5 508.5,-224.5"/>
<text text-anchor="middle" x="555" y="-231.5" font-family="Helvetica,sans-Serif" font-size="10.00">actuator_opsI.H</text>
</a>
</g>
</g>
<!-- Node1&#45;&gt;Node9 -->
<g id="edge8" class="edge">
<title>Node1&#45;&gt;Node9</title>
<path fill="none" stroke="midnightblue" d="M555,-269.8C555,-260.91 555,-250.78 555,-243.75"/>
<polygon fill="midnightblue" stroke="midnightblue" points="551.5,-270.08 555,-280.08 558.5,-270.08 551.5,-270.08"/>
</g>
<!-- Node11 -->
<g id="node11" class="node">
<title>Node11</title>
<g id="a_node11"><a xlink:href="_act_src_disk_op_8_h.html" target="_top" xlink:title=" ">
<polygon fill="white" stroke="black" points="263.5,-112.5 263.5,-131.5 356.5,-131.5 356.5,-112.5 263.5,-112.5"/>
<text text-anchor="middle" x="310" y="-119.5" font-family="Helvetica,sans-Serif" font-size="10.00">ActSrcDiskOp.H</text>
</a>
</g>
</g>
<!-- Node1&#45;&gt;Node11 -->
<g id="edge36" class="edge">
<title>Node1&#45;&gt;Node11</title>
<path fill="none" stroke="midnightblue" d="M531.78,-275.18C517.32,-266.45 498.42,-254.82 482,-244 420.73,-203.62 349.64,-152.05 321.92,-131.76"/>
<polygon fill="midnightblue" stroke="midnightblue" points="530.2,-278.31 540.57,-280.46 533.8,-272.31 530.2,-278.31"/>
</g>
<!-- Node18 -->
<g id="node18" class="node">
<title>Node18</title>
<g id="a_node18"><a xlink:href="_act_src_disk_op___turbine_8_h.html" target="_top" xlink:title=" ">
<polygon fill="white" stroke="black" points="375,-112.5 375,-131.5 509,-131.5 509,-112.5 375,-112.5"/>
<text text-anchor="middle" x="442" y="-119.5" font-family="Helvetica,sans-Serif" font-size="10.00">ActSrcDiskOp_Turbine.H</text>
</a>
</g>
</g>
<!-- Node1&#45;&gt;Node18 -->
<g id="edge40" class="edge">
<title>Node1&#45;&gt;Node18</title>
<path fill="none" stroke="midnightblue" d="M532.64,-274.65C521.47,-266.65 508.38,-255.91 499,-244 469.84,-206.97 451.08,-152.58 444.57,-131.65"/>
<polygon fill="midnightblue" stroke="midnightblue" points="530.85,-277.67 541.07,-280.45 534.81,-271.9 530.85,-277.67"/>
</g>
<!-- Node19 -->
<g id="node19" class="node">
<title>Node19</title>
<g id="a_node19"><a xlink:href="turbine__fast__ops_8_h.html" target="_top" xlink:title=" ">
<polygon fill="white" stroke="black" points="843,-112.5 843,-131.5 951,-131.5 951,-112.5 843,-112.5"/>
<text text-anchor="middle" x="897" y="-119.5" font-family="Helvetica,sans-Serif" font-size="10.00">turbine_fast_ops.H</text>
</a>
</g>
</g>
<!-- Node1&#45;&gt;Node19 -->
<g id="edge41" class="edge">
<title>Node1&#45;&gt;Node19</title>
<path fill="none" stroke="midnightblue" d="M581.55,-275.84C608.18,-262.65 650.38,-241.82 687,-224 757.93,-189.48 842.65,-148.95 878.99,-131.59"/>
<polygon fill="midnightblue" stroke="midnightblue" points="579.89,-272.75 572.48,-280.33 583,-279.02 579.89,-272.75"/>
</g>
<!-- Node24 -->
<g id="node24" class="node">
<title>Node24</title>
<g id="a_node24"><a xlink:href="actuator__utils_8cpp.html" target="_top" xlink:title=" ">
<polygon fill="white" stroke="black" points="696,-224.5 696,-243.5 800,-243.5 800,-224.5 696,-224.5"/>
<text text-anchor="middle" x="748" y="-231.5" font-family="Helvetica,sans-Serif" font-size="10.00">actuator_utils.cpp</text>
</a>
</g>
</g>
<!-- Node1&#45;&gt;Node24 -->
<g id="edge35" class="edge">
<title>Node1&#45;&gt;Node24</title>
<path fill="none" stroke="midnightblue" d="M595.39,-277.7C631.82,-267.51 684.59,-252.74 717.56,-243.52"/>
<polygon fill="midnightblue" stroke="midnightblue" points="594.27,-274.38 585.58,-280.44 596.15,-281.12 594.27,-274.38"/>
</g>
<!-- Node25 -->
<g id="node25" class="node">
<title>Node25</title>
<g id="a_node25"><a xlink:href="disk__spreading_8_h.html" target="_top" xlink:title=" ">
<polygon fill="white" stroke="black" points="259.5,-168.5 259.5,-187.5 360.5,-187.5 360.5,-168.5 259.5,-168.5"/>
<text text-anchor="middle" x="310" y="-175.5" font-family="Helvetica,sans-Serif" font-size="10.00">disk_spreading.H</text>
</a>
</g>
</g>
<!-- Node1&#45;&gt;Node25 -->
<g id="edge37" class="edge">
<title>Node1&#45;&gt;Node25</title>
<path fill="none" stroke="midnightblue" d="M505.76,-277.93C476.31,-270.36 438.58,-258.98 407,-244 373.11,-227.93 337.55,-201.14 320.43,-187.52"/>
<polygon fill="midnightblue" stroke="midnightblue" points="505.27,-281.41 515.82,-280.44 506.97,-274.62 505.27,-281.41"/>
</g>
<!-- Node3 -->
<g id="node3" class="node">
<title>Node3</title>
<g id="a_node3"><a xlink:href="_actuator_model_8_h.html" target="_top" xlink:title=" ">
<polygon fill="white" stroke="black" points="437,-56.5 437,-75.5 535,-75.5 535,-56.5 437,-56.5"/>
<text text-anchor="middle" x="486" y="-63.5" font-family="Helvetica,sans-Serif" font-size="10.00">ActuatorModel.H</text>
</a>
</g>
</g>
<!-- Node2&#45;&gt;Node3 -->
<g id="edge2" class="edge">
<title>Node2&#45;&gt;Node3</title>
<path fill="none" stroke="midnightblue" d="M613.3,-109.17C582.6,-99 539.08,-84.59 511.71,-75.52"/>
<polygon fill="midnightblue" stroke="midnightblue" points="612.58,-112.62 623.17,-112.44 614.78,-105.98 612.58,-112.62"/>
</g>
<!-- Node4 -->
<g id="node4" class="node">
<title>Node4</title>
<g id="a_node4"><a xlink:href="_actuator_8cpp.html" target="_top" xlink:title=" ">
<polygon fill="white" stroke="black" points="447.5,-0.5 447.5,-19.5 524.5,-19.5 524.5,-0.5 447.5,-0.5"/>
<text text-anchor="middle" x="486" y="-7.5" font-family="Helvetica,sans-Serif" font-size="10.00">Actuator.cpp</text>
</a>
</g>
</g>
<!-- Node3&#45;&gt;Node4 -->
<g id="edge3" class="edge">
<title>Node3&#45;&gt;Node4</title>
<path fill="none" stroke="midnightblue" d="M486,-45.8C486,-36.91 486,-26.78 486,-19.75"/>
<polygon fill="midnightblue" stroke="midnightblue" points="482.5,-46.08 486,-56.08 489.5,-46.08 482.5,-46.08"/>
</g>
<!-- Node5 -->
<g id="node5" class="node">
<title>Node5</title>
<g id="a_node5"><a xlink:href="_actuator_disk_8cpp.html" target="_top" xlink:title=" ">
<polygon fill="white" stroke="black" points="172,-0.5 172,-19.5 272,-19.5 272,-0.5 172,-0.5"/>
<text text-anchor="middle" x="222" y="-7.5" font-family="Helvetica,sans-Serif" font-size="10.00">ActuatorDisk.cpp</text>
</a>
</g>
</g>
<!-- Node3&#45;&gt;Node5 -->
<g id="edge4" class="edge">
<title>Node3&#45;&gt;Node5</title>
<path fill="none" stroke="midnightblue" d="M434.22,-54.41C384.33,-44.2 309.8,-28.96 263.64,-19.52"/>
<polygon fill="midnightblue" stroke="midnightblue" points="433.67,-57.87 444.17,-56.44 435.07,-51.01 433.67,-57.87"/>
</g>
<!-- Node6 -->
<g id="node6" class="node">
<title>Node6</title>
<g id="a_node6"><a xlink:href="_turbine_fast_8cpp.html" target="_top" xlink:title=" ">
<polygon fill="white" stroke="black" points="827,-0.5 827,-19.5 919,-19.5 919,-0.5 827,-0.5"/>
<text text-anchor="middle" x="873" y="-7.5" font-family="Helvetica,sans-Serif" font-size="10.00">TurbineFast.cpp</text>
</a>
</g>
</g>
<!-- Node3&#45;&gt;Node6 -->
<g id="edge5" class="edge">
<title>Node3&#45;&gt;Node6</title>
<path fill="none" stroke="midnightblue" d="M545.03,-55.87C651.95,-40.33 765.19,-25.18 826.92,-17.04"/>
<polygon fill="midnightblue" stroke="midnightblue" points="544.43,-52.42 535.04,-57.33 545.44,-59.35 544.43,-52.42"/>
</g>
<!-- Node7 -->
<g id="node7" class="node">
<title>Node7</title>
<g id="a_node7"><a xlink:href="_fixed_wing_8cpp.html" target="_top" xlink:title=" ">
<polygon fill="white" stroke="black" points="697.5,-0.5 697.5,-19.5 784.5,-19.5 784.5,-0.5 697.5,-0.5"/>
<text text-anchor="middle" x="741" y="-7.5" font-family="Helvetica,sans-Serif" font-size="10.00">FixedWing.cpp</text>
</a>
</g>
</g>
<!-- Node3&#45;&gt;Node7 -->
<g id="edge6" class="edge">
<title>Node3&#45;&gt;Node7</title>
<path fill="none" stroke="midnightblue" d="M536.31,-54.35C584.5,-44.14 656.28,-28.94 700.78,-19.52"/>
<polygon fill="midnightblue" stroke="midnightblue" points="535.46,-50.95 526.41,-56.44 536.91,-57.8 535.46,-50.95"/>
</g>
<!-- Node8 -->
<g id="node8" class="node">
<title>Node8</title>
<g id="a_node8"><a xlink:href="_flat_plate_8cpp.html" target="_top" xlink:title=" ">
<polygon fill="white" stroke="black" points="552,-0.5 552,-19.5 632,-19.5 632,-0.5 552,-0.5"/>
<text text-anchor="middle" x="592" y="-7.5" font-family="Helvetica,sans-Serif" font-size="10.00">FlatPlate.cpp</text>
</a>
</g>
</g>
<!-- Node3&#45;&gt;Node8 -->
<g id="edge7" class="edge">
<title>Node3&#45;&gt;Node8</title>
<path fill="none" stroke="midnightblue" d="M512.06,-51.73C531.68,-41.73 558.03,-28.31 575.01,-19.65"/>
<polygon fill="midnightblue" stroke="midnightblue" points="510.35,-48.67 503.03,-56.32 513.53,-54.9 510.35,-48.67"/>
</g>
<!-- Node10 -->
<g id="node10" class="node">
<title>Node10</title>
<g id="a_node10"><a xlink:href="actuator__ops_8_h.html" target="_top" xlink:title=" ">
<polygon fill="white" stroke="black" points="511,-168.5 511,-187.5 601,-187.5 601,-168.5 511,-168.5"/>
<text text-anchor="middle" x="556" y="-175.5" font-family="Helvetica,sans-Serif" font-size="10.00">actuator_ops.H</text>
</a>
</g>
</g>
<!-- Node9&#45;&gt;Node10 -->
<g id="edge9" class="edge">
<title>Node9&#45;&gt;Node10</title>
<path fill="none" stroke="midnightblue" d="M555.36,-213.8C555.52,-204.91 555.71,-194.78 555.84,-187.75"/>
<polygon fill="midnightblue" stroke="midnightblue" points="551.85,-214.02 555.17,-224.08 558.85,-214.15 551.85,-214.02"/>
</g>
<!-- Node10&#45;&gt;Node2 -->
<g id="edge10" class="edge">
<title>Node10&#45;&gt;Node2</title>
<path fill="none" stroke="midnightblue" d="M579.81,-163.18C596.92,-153.24 619.47,-140.15 634.1,-131.65"/>
<polygon fill="midnightblue" stroke="midnightblue" points="577.83,-160.28 570.94,-168.32 581.35,-166.33 577.83,-160.28"/>
</g>
<!-- Node10&#45;&gt;Node3 -->
<g id="edge11" class="edge">
<title>Node10&#45;&gt;Node3</title>
<path fill="none" stroke="midnightblue" d="M546.32,-159.49C538.88,-146.26 528.17,-127.75 518,-112 509.68,-99.12 499.26,-84.76 492.61,-75.8"/>
<polygon fill="midnightblue" stroke="midnightblue" points="543.39,-161.41 551.32,-168.44 549.5,-158 543.39,-161.41"/>
</g>
<!-- Node10&#45;&gt;Node11 -->
<g id="edge12" class="edge">
<title>Node10&#45;&gt;Node11</title>
<path fill="none" stroke="midnightblue" d="M507.17,-166.28C460.68,-156.08 391.64,-140.92 348.8,-131.52"/>
<polygon fill="midnightblue" stroke="midnightblue" points="506.5,-169.72 517.02,-168.44 508,-162.88 506.5,-169.72"/>
</g>
<!-- Node12 -->
<g id="node12" class="node">
<title>Node12</title>
<g id="a_node12"><a xlink:href="disk__ops_8_h.html" target="_top" xlink:title=" ">
<polygon fill="white" stroke="black" points="175,-112.5 175,-131.5 245,-131.5 245,-112.5 175,-112.5"/>
<text text-anchor="middle" x="210" y="-119.5" font-family="Helvetica,sans-Serif" font-size="10.00">disk_ops.H</text>
</a>
</g>
</g>
<!-- Node10&#45;&gt;Node12 -->
<g id="edge14" class="edge">
<title>Node10&#45;&gt;Node12</title>
<path fill="none" stroke="midnightblue" d="M500.73,-169.67C440.06,-161.42 339.86,-147.17 254,-132 251.08,-131.48 248.06,-130.92 245.03,-130.34"/>
<polygon fill="midnightblue" stroke="midnightblue" points="500.47,-173.17 510.85,-171.05 501.41,-166.23 500.47,-173.17"/>
</g>
<!-- Node10&#45;&gt;Node18 -->
<g id="edge23" class="edge">
<title>Node10&#45;&gt;Node18</title>
<path fill="none" stroke="midnightblue" d="M528.76,-164.1C507.46,-154.01 478.46,-140.27 459.98,-131.52"/>
<polygon fill="midnightblue" stroke="midnightblue" points="527.4,-167.33 537.94,-168.44 530.4,-161 527.4,-167.33"/>
</g>
<!-- Node10&#45;&gt;Node19 -->
<g id="edge25" class="edge">
<title>Node10&#45;&gt;Node19</title>
<path fill="none" stroke="midnightblue" d="M611.18,-168.26C675.1,-158.14 779.72,-141.57 843.09,-131.54"/>
<polygon fill="midnightblue" stroke="midnightblue" points="610.61,-164.81 601.28,-169.83 611.71,-171.72 610.61,-164.81"/>
</g>
<!-- Node20 -->
<g id="node20" class="node">
<title>Node20</title>
<g id="a_node20"><a xlink:href="fixed__wing__ops_8_h.html" target="_top" xlink:title=" ">
<polygon fill="white" stroke="black" points="767.5,-56.5 767.5,-75.5 868.5,-75.5 868.5,-56.5 767.5,-56.5"/>
<text text-anchor="middle" x="818" y="-63.5" font-family="Helvetica,sans-Serif" font-size="10.00">fixed_wing_ops.H</text>
</a>
</g>
</g>
<!-- Node10&#45;&gt;Node20 -->
<g id="edge27" class="edge">
<title>Node10&#45;&gt;Node20</title>
<path fill="none" stroke="midnightblue" d="M611.53,-169.51C677.72,-160.12 781.19,-143.83 795,-132 811.91,-117.51 816.39,-89.76 817.57,-75.67"/>
<polygon fill="midnightblue" stroke="midnightblue" points="610.66,-166.09 601.25,-170.95 611.64,-173.03 610.66,-166.09"/>
</g>
<!-- Node21 -->
<g id="node21" class="node">
<title>Node21</title>
<g id="a_node21"><a xlink:href="flat__plate__ops_8_h.html" target="_top" xlink:title=" ">
<polygon fill="white" stroke="black" points="553.5,-56.5 553.5,-75.5 648.5,-75.5 648.5,-56.5 553.5,-56.5"/>
<text text-anchor="middle" x="601" y="-63.5" font-family="Helvetica,sans-Serif" font-size="10.00">flat_plate_ops.H</text>
</a>
</g>
</g>
<!-- Node10&#45;&gt;Node21 -->
<g id="edge29" class="edge">
<title>Node10&#45;&gt;Node21</title>
<path fill="none" stroke="midnightblue" d="M563.36,-159C573.18,-135 590.17,-93.47 597.49,-75.59"/>
<polygon fill="midnightblue" stroke="midnightblue" points="560.08,-157.79 559.53,-168.37 566.56,-160.44 560.08,-157.79"/>
</g>
<!-- Node22 -->
<g id="node22" class="node">
<title>Node22</title>
<g id="a_node22"><a xlink:href="wing__ops_8_h.html" target="_top" xlink:title=" ">
<polygon fill="white" stroke="black" points="713.5,-112.5 713.5,-131.5 786.5,-131.5 786.5,-112.5 713.5,-112.5"/>
<text text-anchor="middle" x="750" y="-119.5" font-family="Helvetica,sans-Serif" font-size="10.00">wing_ops.H</text>
</a>
</g>
</g>
<!-- Node10&#45;&gt;Node22 -->
<g id="edge31" class="edge">
<title>Node10&#45;&gt;Node22</title>
<path fill="none" stroke="midnightblue" d="M596.6,-165.7C633.22,-155.51 686.26,-140.74 719.4,-131.52"/>
<polygon fill="midnightblue" stroke="midnightblue" points="595.44,-162.39 586.74,-168.44 597.31,-169.13 595.44,-162.39"/>
</g>
<!-- Node11&#45;&gt;Node3 -->
<g id="edge13" class="edge">
<title>Node11&#45;&gt;Node3</title>
<path fill="none" stroke="midnightblue" d="M347.69,-109.44C380.87,-99.26 428.43,-84.66 458.24,-75.52"/>
<polygon fill="midnightblue" stroke="midnightblue" points="346.42,-106.16 337.89,-112.44 348.47,-112.86 346.42,-106.16"/>
</g>
<!-- Node13 -->
<g id="node13" class="node">
<title>Node13</title>
<g id="a_node13"><a xlink:href="disk__ops_8cpp.html" target="_top" xlink:title=" ">
<polygon fill="white" stroke="black" points="219,-56.5 219,-75.5 299,-75.5 299,-56.5 219,-56.5"/>
<text text-anchor="middle" x="259" y="-63.5" font-family="Helvetica,sans-Serif" font-size="10.00">disk_ops.cpp</text>
</a>
</g>
</g>
<!-- Node12&#45;&gt;Node13 -->
<g id="edge15" class="edge">
<title>Node12&#45;&gt;Node13</title>
<path fill="none" stroke="midnightblue" d="M225.03,-104.43C233.62,-94.97 244.04,-83.48 251.06,-75.75"/>
<polygon fill="midnightblue" stroke="midnightblue" points="222.22,-102.33 218.09,-112.08 227.4,-107.03 222.22,-102.33"/>
</g>
<!-- Node14 -->
<g id="node14" class="node">
<title>Node14</title>
<g id="a_node14"><a xlink:href="_joukowsky__ops_8cpp.html" target="_top" xlink:title=" ">
<polygon fill="white" stroke="black" points="0,-0.5 0,-19.5 110,-19.5 110,-0.5 0,-0.5"/>
<text text-anchor="middle" x="55" y="-7.5" font-family="Helvetica,sans-Serif" font-size="10.00">Joukowsky_ops.cpp</text>
</a>
</g>
</g>
<!-- Node12&#45;&gt;Node14 -->
<g id="edge16" class="edge">
<title>Node12&#45;&gt;Node14</title>
<path fill="none" stroke="midnightblue" d="M165,-112.26C140.57,-105.65 111.14,-94.46 90,-76 72.24,-60.49 61.93,-33.7 57.53,-19.85"/>
<polygon fill="midnightblue" stroke="midnightblue" points="164.23,-115.67 174.78,-114.73 165.94,-108.89 164.23,-115.67"/>
</g>
<!-- Node15 -->
<g id="node15" class="node">
<title>Node15</title>
<g id="a_node15"><a xlink:href="_joukowsky__ops_8_h.html" target="_top" xlink:title=" ">
<polygon fill="white" stroke="black" points="99.5,-56.5 99.5,-75.5 200.5,-75.5 200.5,-56.5 99.5,-56.5"/>
<text text-anchor="middle" x="150" y="-63.5" font-family="Helvetica,sans-Serif" font-size="10.00">Joukowsky_ops.H</text>
</a>
</g>
</g>
<!-- Node12&#45;&gt;Node15 -->
<g id="edge17" class="edge">
<title>Node12&#45;&gt;Node15</title>
<path fill="none" stroke="midnightblue" d="M192.82,-105.54C182.12,-95.91 168.74,-83.87 159.82,-75.83"/>
<polygon fill="midnightblue" stroke="midnightblue" points="190.59,-108.24 200.36,-112.32 195.27,-103.03 190.59,-108.24"/>
</g>
<!-- Node16 -->
<g id="node16" class="node">
<title>Node16</title>
<g id="a_node16"><a xlink:href="uniform__ct__ops_8_h.html" target="_top" xlink:title=" ">
<polygon fill="white" stroke="black" points="317,-56.5 317,-75.5 419,-75.5 419,-56.5 317,-56.5"/>
<text text-anchor="middle" x="368" y="-63.5" font-family="Helvetica,sans-Serif" font-size="10.00">uniform_ct_ops.H</text>
</a>
</g>
</g>
<!-- Node12&#45;&gt;Node16 -->
<g id="edge20" class="edge">
<title>Node12&#45;&gt;Node16</title>
<path fill="none" stroke="midnightblue" d="M244.61,-109.17C274.36,-99 316.55,-84.59 343.08,-75.52"/>
<polygon fill="midnightblue" stroke="midnightblue" points="243.37,-105.9 235.04,-112.44 245.63,-112.52 243.37,-105.9"/>
</g>
<!-- Node15&#45;&gt;Node5 -->
<g id="edge18" class="edge">
<title>Node15&#45;&gt;Node5</title>
<path fill="none" stroke="midnightblue" d="M169.87,-50.1C182.82,-40.38 199.3,-28.03 210.22,-19.83"/>
<polygon fill="midnightblue" stroke="midnightblue" points="167.47,-47.52 161.57,-56.32 171.67,-53.12 167.47,-47.52"/>
</g>
<!-- Node15&#45;&gt;Node14 -->
<g id="edge19" class="edge">
<title>Node15&#45;&gt;Node14</title>
<path fill="none" stroke="midnightblue" d="M125.68,-51.18C108.2,-41.24 85.17,-28.15 70.23,-19.65"/>
<polygon fill="midnightblue" stroke="midnightblue" points="124.31,-54.43 134.74,-56.32 127.77,-48.34 124.31,-54.43"/>
</g>
<!-- Node16&#45;&gt;Node5 -->
<g id="edge21" class="edge">
<title>Node16&#45;&gt;Node5</title>
<path fill="none" stroke="midnightblue" d="M335.3,-52.91C307.85,-42.75 269.33,-28.51 245.03,-19.52"/>
<polygon fill="midnightblue" stroke="midnightblue" points="334.27,-56.26 344.87,-56.44 336.7,-49.69 334.27,-56.26"/>
</g>
<!-- Node17 -->
<g id="node17" class="node">
<title>Node17</title>
<g id="a_node17"><a xlink:href="uniform__ct__ops_8cpp.html" target="_top" xlink:title=" ">
<polygon fill="white" stroke="black" points="312,-0.5 312,-19.5 424,-19.5 424,-0.5 312,-0.5"/>
<text text-anchor="middle" x="368" y="-7.5" font-family="Helvetica,sans-Serif" font-size="10.00">uniform_ct_ops.cpp</text>
</a>
</g>
</g>
<!-- Node16&#45;&gt;Node17 -->
<g id="edge22" class="edge">
<title>Node16&#45;&gt;Node17</title>
<path fill="none" stroke="midnightblue" d="M368,-45.8C368,-36.91 368,-26.78 368,-19.75"/>
<polygon fill="midnightblue" stroke="midnightblue" points="364.5,-46.08 368,-56.08 371.5,-46.08 364.5,-46.08"/>
</g>
<!-- Node18&#45;&gt;Node3 -->
<g id="edge24" class="edge">
<title>Node18&#45;&gt;Node3</title>
<path fill="none" stroke="midnightblue" d="M455.73,-104.14C463.4,-94.74 472.63,-83.4 478.87,-75.75"/>
<polygon fill="midnightblue" stroke="midnightblue" points="452.87,-102.12 449.27,-112.08 458.3,-106.54 452.87,-102.12"/>
</g>
<!-- Node19&#45;&gt;Node6 -->
<g id="edge26" class="edge">
<title>Node19&#45;&gt;Node6</title>
<path fill="none" stroke="midnightblue" d="M892.93,-102.35C887.67,-78.25 878.74,-37.31 874.87,-19.59"/>
<polygon fill="midnightblue" stroke="midnightblue" points="889.57,-103.34 895.12,-112.37 896.4,-101.85 889.57,-103.34"/>
</g>
<!-- Node20&#45;&gt;Node7 -->
<g id="edge28" class="edge">
<title>Node20&#45;&gt;Node7</title>
<path fill="none" stroke="midnightblue" d="M797.1,-50.34C783.09,-40.52 765.12,-27.91 753.34,-19.65"/>
<polygon fill="midnightblue" stroke="midnightblue" points="795.43,-53.45 805.63,-56.32 799.45,-47.72 795.43,-53.45"/>
</g>
<!-- Node21&#45;&gt;Node8 -->
<g id="edge30" class="edge">
<title>Node21&#45;&gt;Node8</title>
<path fill="none" stroke="midnightblue" d="M597.85,-46.1C596.36,-37.14 594.64,-26.86 593.46,-19.75"/>
<polygon fill="midnightblue" stroke="midnightblue" points="594.42,-46.79 599.51,-56.08 601.32,-45.64 594.42,-46.79"/>
</g>
<!-- Node22&#45;&gt;Node20 -->
<g id="edge32" class="edge">
<title>Node22&#45;&gt;Node20</title>
<path fill="none" stroke="midnightblue" d="M768.76,-106.1C781,-96.38 796.56,-84.03 806.88,-75.83"/>
<polygon fill="midnightblue" stroke="midnightblue" points="766.58,-103.36 760.93,-112.32 770.93,-108.85 766.58,-103.36"/>
</g>
<!-- Node22&#45;&gt;Node21 -->
<g id="edge33" class="edge">
<title>Node22&#45;&gt;Node21</title>
<path fill="none" stroke="midnightblue" d="M716.63,-108.91C688.62,-98.75 649.3,-84.51 624.5,-75.52"/>
<polygon fill="midnightblue" stroke="midnightblue" points="715.8,-112.33 726.39,-112.44 718.18,-105.75 715.8,-112.33"/>
</g>
<!-- Node23 -->
<g id="node23" class="node">
<title>Node23</title>
<g id="a_node23"><a xlink:href="wing__ops_8cpp.html" target="_top" xlink:title=" ">
<polygon fill="white" stroke="black" points="666.5,-56.5 666.5,-75.5 749.5,-75.5 749.5,-56.5 666.5,-56.5"/>
<text text-anchor="middle" x="708" y="-63.5" font-family="Helvetica,sans-Serif" font-size="10.00">wing_ops.cpp</text>
</a>
</g>
</g>
<!-- Node22&#45;&gt;Node23 -->
<g id="edge34" class="edge">
<title>Node22&#45;&gt;Node23</title>
<path fill="none" stroke="midnightblue" d="M736.89,-104.14C729.57,-94.74 720.76,-83.4 714.81,-75.75"/>
<polygon fill="midnightblue" stroke="midnightblue" points="734.16,-106.34 743.06,-112.08 739.69,-102.04 734.16,-106.34"/>
</g>
<!-- Node25&#45;&gt;Node5 -->
<g id="edge39" class="edge">
<title>Node25&#45;&gt;Node5</title>
<path fill="none" stroke="midnightblue" d="M249.34,-169.65C195.06,-159.31 119.62,-134.62 90,-76 71.68,-39.75 127.04,-23.45 171.62,-16.31"/>
<polygon fill="midnightblue" stroke="midnightblue" points="248.75,-173.1 259.21,-171.42 249.99,-166.21 248.75,-173.1"/>
</g>
<!-- Node25&#45;&gt;Node11 -->
<g id="edge38" class="edge">
<title>Node25&#45;&gt;Node11</title>
<path fill="none" stroke="midnightblue" d="M310,-157.8C310,-148.91 310,-138.78 310,-131.75"/>
<polygon fill="midnightblue" stroke="midnightblue" points="306.5,-158.08 310,-168.08 313.5,-158.08 306.5,-158.08"/>
</g>
</g>
</svg>
        <g id="navigator" transform="translate(0 0)" fill="#404254">
                <rect fill="#f2f5e9" fill-opacity="0.5" stroke="#606060" stroke-width=".5" x="0" y="0" width="60" height="60"/>
                <use id="zoomplus" xlink:href="#zoomPlus" x="17" y="9" onmousedown="handleZoom(evt,'in')"/>
                <use id="zoomminus" xlink:href="#zoomMin" x="42" y="9" onmousedown="handleZoom(evt,'out')"/>
                <use id="reset" xlink:href="#resetDef" x="30" y="36" onmousedown="handleReset()"/>
                <g id="arrowUp" xlink:href="#dirArrow" transform="translate(30 24)" onmousedown="handlePan(0,-1)">
                  <use xlink:href="#rim" fill="#404040">
                        <set attributeName="fill" to="#808080" begin="arrowUp.mouseover" end="arrowUp.mouseout"/>
                  </use>
                  <path fill="none" stroke="white" stroke-width="1.5" d="M0,-3.0v7 M-2.5,-0.5L0,-3.0L2.5,-0.5"/>
                </g>
                <g id="arrowRight" xlink:href="#dirArrow" transform="rotate(90) translate(36 -43)" onmousedown="handlePan(1,0)">
                  <use xlink:href="#rim" fill="#404040">
                        <set attributeName="fill" to="#808080" begin="arrowRight.mouseover" end="arrowRight.mouseout"/>
                  </use>
                  <path fill="none" stroke="white" stroke-width="1.5" d="M0,-3.0v7 M-2.5,-0.5L0,-3.0L2.5,-0.5"/>
                </g>
                <g id="arrowDown" xlink:href="#dirArrow" transform="rotate(180) translate(-30 -48)" onmousedown="handlePan(0,1)">
                  <use xlink:href="#rim" fill="#404040">
                        <set attributeName="fill" to="#808080" begin="arrowDown.mouseover" end="arrowDown.mouseout"/>
                  </use>
                  <path fill="none" stroke="white" stroke-width="1.5" d="M0,-3.0v7 M-2.5,-0.5L0,-3.0L2.5,-0.5"/>
                </g>
                <g id="arrowLeft" xlink:href="#dirArrow" transform="rotate(270) translate(-36 17)" onmousedown="handlePan(-1,0)">
                  <use xlink:href="#rim" fill="#404040">
                        <set attributeName="fill" to="#808080" begin="arrowLeft.mouseover" end="arrowLeft.mouseout"/>
                  </use>
                  <path fill="none" stroke="white" stroke-width="1.5" d="M0,-3.0v7 M-2.5,-0.5L0,-3.0L2.5,-0.5"/>
                </g>
        </g>
        <svg viewBox="0 0 15 15" width="100%" height="30px" preserveAspectRatio="xMaxYMin meet">
         <g id="arrow_out" transform="scale(0.3 0.3)">
          <a xlink:href="actuator__utils_8_h__dep__incl_org.svg" target="_base">
           <rect id="button" ry="5" rx="5" y="6" x="6" height="38" width="38"
                fill="#f2f5e9" fill-opacity="0.5" stroke="#606060" stroke-width="1.0"/>
           <path id="arrow"
             d="M 11.500037,31.436501 C 11.940474,20.09759 22.043105,11.32322 32.158766,21.979434 L 37.068811,17.246167 C 37.068811,17.246167 37.088388,32 37.088388,32 L 22.160133,31.978069 C 22.160133,31.978069 26.997745,27.140456 26.997745,27.140456 C 18.528582,18.264221 13.291696,25.230495 11.500037,31.436501 z"
             style="fill:#404040;"/>
          </a>
         </g>
        </svg>
</svg>
