<?xml version="1.0" encoding="UTF-8" standalone="no"?>
<!DOCTYPE svg PUBLIC "-//W3C//DTD SVG 1.1//EN"
 "http://www.w3.org/Graphics/SVG/1.1/DTD/svg11.dtd">
<!-- Generated by graphviz version 2.43.0 (0)
 -->
<!-- Title: actuator_types.H Pages: 1 -->
<!--zoomable 420 -->
<svg id="main" version="1.1" xmlns="http://www.w3.org/2000/svg" xmlns:xlink="http://www.w3.org/1999/xlink" xml:space="preserve" onload="init(evt)">
<style type="text/css"><![CDATA[
.edge:hover path { stroke: red; }
.edge:hover polygon { stroke: red; fill: red; }
]]></style>
<script type="text/javascript"><![CDATA[
var edges = document.getElementsByTagName('g');
if (edges && edges.length) {
  for (var i=0;i<edges.length;i++) {
    if (edges[i].id.substr(0,4)=='edge') {
      edges[i].setAttribute('class','edge');
    }
  }
}
]]></script>
        <defs>
                <circle id="rim" cx="0" cy="0" r="7"/>
                <circle id="rim2" cx="0" cy="0" r="3.5"/>
                <g id="zoomPlus">
                        <use xlink:href="#rim" fill="#404040">
                                <set attributeName="fill" to="#808080" begin="zoomplus.mouseover" end="zoomplus.mouseout"/>
                        </use>
                        <path d="M-4,0h8M0,-4v8" fill="none" stroke="white" stroke-width="1.5" pointer-events="none"/>
                </g>
                <g id="zoomMin">
                        <use xlink:href="#rim" fill="#404040">
                                <set attributeName="fill" to="#808080" begin="zoomminus.mouseover" end="zoomminus.mouseout"/>
                        </use>
                        <path d="M-4,0h8" fill="none" stroke="white" stroke-width="1.5" pointer-events="none"/>
                </g>
                <g id="dirArrow">
                        <path fill="none" stroke="white" stroke-width="1.5" d="M0,-3.0v7 M-2.5,-0.5L0,-3.0L2.5,-0.5"/>
                </g>
               <g id="resetDef">
                       <use xlink:href="#rim2" fill="#404040">
                               <set attributeName="fill" to="#808080" begin="reset.mouseover" end="reset.mouseout"/>
                       </use>
               </g>
        </defs>

<script type="text/javascript">
var viewWidth = 1716;
var viewHeight = 420;
var sectionId = 'dynsection-1';
</script>
<script xlink:href="svgpan.js"/>
<svg id="graph" class="graph">
<g id="viewport">
<title>actuator_types.H</title>
<polygon fill="white" stroke="transparent" points="-4,4 -4,-416 1712,-416 1712,4 -4,4"/>
<!-- Node1 -->
<g id="node1" class="node">
<title>Node1</title>
<g id="a_node1"><a xlink:title=" ">
<polygon fill="#bfbfbf" stroke="black" points="1056,-392.5 1056,-411.5 1156,-411.5 1156,-392.5 1056,-392.5"/>
<text text-anchor="middle" x="1106" y="-399.5" font-family="Helvetica,sans-Serif" font-size="10.00">actuator_types.H</text>
</a>
</g>
</g>
<!-- Node2 -->
<g id="node2" class="node">
<title>Node2</title>
<g id="a_node2"><a xlink:href="_act_src_line_op_8_h.html" target="_top" xlink:title=" ">
<polygon fill="white" stroke="black" points="581,-112.5 581,-131.5 673,-131.5 673,-112.5 581,-112.5"/>
<text text-anchor="middle" x="627" y="-119.5" font-family="Helvetica,sans-Serif" font-size="10.00">ActSrcLineOp.H</text>
</a>
</g>
</g>
<!-- Node1&#45;&gt;Node2 -->
<g id="edge1" class="edge">
<title>Node1&#45;&gt;Node2</title>
<path fill="none" stroke="midnightblue" d="M1045.51,-398.53C924.47,-391.93 664,-368.7 664,-291 664,-291 664,-291 664,-233 664,-193.31 642.09,-149.56 631.99,-131.51"/>
<polygon fill="midnightblue" stroke="midnightblue" points="1045.56,-402.04 1055.73,-399.06 1045.92,-395.05 1045.56,-402.04"/>
</g>
<!-- Node3 -->
<g id="node3" class="node">
<title>Node3</title>
<g id="a_node3"><a xlink:href="_actuator_model_8_h.html" target="_top" xlink:title=" ">
<polygon fill="white" stroke="black" points="652,-56.5 652,-75.5 750,-75.5 750,-56.5 652,-56.5"/>
<text text-anchor="middle" x="701" y="-63.5" font-family="Helvetica,sans-Serif" font-size="10.00">ActuatorModel.H</text>
</a>
</g>
</g>
<!-- Node1&#45;&gt;Node3 -->
<g id="edge35" class="edge">
<title>Node1&#45;&gt;Node3</title>
<path fill="none" stroke="midnightblue" d="M1045.58,-401.59C902.13,-401.35 553,-390.56 553,-291 553,-291 553,-291 553,-177 553,-146.9 551.27,-133.82 572,-112 592.83,-90.07 624.91,-78.83 651.87,-73.06"/>
<polygon fill="midnightblue" stroke="midnightblue" points="1045.95,-405.09 1055.95,-401.58 1045.95,-398.09 1045.95,-405.09"/>
</g>
<!-- Node9 -->
<g id="node9" class="node">
<title>Node9</title>
<g id="a_node9"><a xlink:href="actuator__ops_8_h.html" target="_top" xlink:title=" ">
<polygon fill="white" stroke="black" points="722,-168.5 722,-187.5 812,-187.5 812,-168.5 722,-168.5"/>
<text text-anchor="middle" x="767" y="-175.5" font-family="Helvetica,sans-Serif" font-size="10.00">actuator_ops.H</text>
</a>
</g>
</g>
<!-- Node1&#45;&gt;Node9 -->
<g id="edge8" class="edge">
<title>Node1&#45;&gt;Node9</title>
<path fill="none" stroke="midnightblue" d="M1084.13,-386.68C1019.67,-344.46 831.72,-221.39 780.2,-187.64"/>
<polygon fill="midnightblue" stroke="midnightblue" points="1082.43,-389.75 1092.71,-392.3 1086.26,-383.89 1082.43,-389.75"/>
</g>
<!-- Node21 -->
<g id="node21" class="node">
<title>Node21</title>
<g id="a_node21"><a xlink:href="wing__ops_8_h.html" target="_top" xlink:title=" ">
<polygon fill="white" stroke="black" points="1237.5,-112.5 1237.5,-131.5 1310.5,-131.5 1310.5,-112.5 1237.5,-112.5"/>
<text text-anchor="middle" x="1274" y="-119.5" font-family="Helvetica,sans-Serif" font-size="10.00">wing_ops.H</text>
</a>
</g>
</g>
<!-- Node1&#45;&gt;Node21 -->
<g id="edge80" class="edge">
<title>Node1&#45;&gt;Node21</title>
<path fill="none" stroke="midnightblue" d="M1163.8,-389.97C1215.1,-376.43 1282,-347.87 1282,-291 1282,-291 1282,-291 1282,-233 1282,-195.09 1277.21,-150.02 1275.05,-131.54"/>
<polygon fill="midnightblue" stroke="midnightblue" points="1162.94,-386.57 1154.09,-392.4 1164.64,-393.36 1162.94,-386.57"/>
</g>
<!-- Node23 -->
<g id="node23" class="node">
<title>Node23</title>
<g id="a_node23"><a xlink:href="actuator__utils_8cpp.html" target="_top" xlink:title=" ">
<polygon fill="white" stroke="black" points="1386,-336.5 1386,-355.5 1490,-355.5 1490,-336.5 1386,-336.5"/>
<text text-anchor="middle" x="1438" y="-343.5" font-family="Helvetica,sans-Serif" font-size="10.00">actuator_utils.cpp</text>
</a>
</g>
</g>
<!-- Node1&#45;&gt;Node23 -->
<g id="edge34" class="edge">
<title>Node1&#45;&gt;Node23</title>
<path fill="none" stroke="midnightblue" d="M1166.21,-391.21C1228.97,-381 1326.31,-365.17 1385.88,-355.48"/>
<polygon fill="midnightblue" stroke="midnightblue" points="1165.37,-387.8 1156.06,-392.86 1166.5,-394.71 1165.37,-387.8"/>
</g>
<!-- Node24 -->
<g id="node24" class="node">
<title>Node24</title>
<g id="a_node24"><a xlink:href="_airfoil_table_8_h.html" target="_top" xlink:title=" ">
<polygon fill="white" stroke="black" points="1422,-168.5 1422,-187.5 1504,-187.5 1504,-168.5 1422,-168.5"/>
<text text-anchor="middle" x="1463" y="-175.5" font-family="Helvetica,sans-Serif" font-size="10.00">AirfoilTable.H</text>
</a>
</g>
</g>
<!-- Node1&#45;&gt;Node24 -->
<g id="edge36" class="edge">
<title>Node1&#45;&gt;Node24</title>
<path fill="none" stroke="midnightblue" d="M1166.21,-398.42C1210.17,-394.17 1269.75,-383.32 1315,-356 1388.72,-311.48 1443,-216.9 1458.5,-187.74"/>
<polygon fill="midnightblue" stroke="midnightblue" points="1165.88,-394.94 1156.23,-399.3 1166.5,-401.91 1165.88,-394.94"/>
</g>
<!-- Node29 -->
<g id="node29" class="node">
<title>Node29</title>
<g id="a_node29"><a xlink:href="disk__types_8_h.html" target="_top" xlink:title=" ">
<polygon fill="white" stroke="black" points="382,-336.5 382,-355.5 462,-355.5 462,-336.5 382,-336.5"/>
<text text-anchor="middle" x="422" y="-343.5" font-family="Helvetica,sans-Serif" font-size="10.00">disk_types.H</text>
</a>
</g>
</g>
<!-- Node1&#45;&gt;Node29 -->
<g id="edge47" class="edge">
<title>Node1&#45;&gt;Node29</title>
<path fill="none" stroke="midnightblue" d="M1045.68,-396.24C908.76,-385.43 577.42,-359.27 462.25,-350.18"/>
<polygon fill="midnightblue" stroke="midnightblue" points="1045.74,-399.75 1055.98,-397.05 1046.29,-392.77 1045.74,-399.75"/>
</g>
<!-- Node34 -->
<g id="node34" class="node">
<title>Node34</title>
<g id="a_node34"><a xlink:href="_f_l_l_c_8_h.html" target="_top" xlink:title=" ">
<polygon fill="white" stroke="black" points="1147,-224.5 1147,-243.5 1197,-243.5 1197,-224.5 1147,-224.5"/>
<text text-anchor="middle" x="1172" y="-231.5" font-family="Helvetica,sans-Serif" font-size="10.00">FLLC.H</text>
</a>
</g>
</g>
<!-- Node1&#45;&gt;Node34 -->
<g id="edge61" class="edge">
<title>Node1&#45;&gt;Node34</title>
<path fill="none" stroke="midnightblue" d="M1113.4,-382.39C1127.63,-346.59 1158.35,-269.34 1168.59,-243.57"/>
<polygon fill="midnightblue" stroke="midnightblue" points="1109.99,-381.49 1109.55,-392.08 1116.5,-384.08 1109.99,-381.49"/>
</g>
<!-- Node36 -->
<g id="node36" class="node">
<title>Node36</title>
<g id="a_node36"><a xlink:href="_f_l_l_c_op_8_h.html" target="_top" xlink:title=" ">
<polygon fill="white" stroke="black" points="1074,-168.5 1074,-187.5 1138,-187.5 1138,-168.5 1074,-168.5"/>
<text text-anchor="middle" x="1106" y="-175.5" font-family="Helvetica,sans-Serif" font-size="10.00">FLLCOp.H</text>
</a>
</g>
</g>
<!-- Node1&#45;&gt;Node36 -->
<g id="edge67" class="edge">
<title>Node1&#45;&gt;Node36</title>
<path fill="none" stroke="midnightblue" d="M1106,-382.3C1106,-336.64 1106,-220.85 1106,-187.88"/>
<polygon fill="midnightblue" stroke="midnightblue" points="1102.5,-382.3 1106,-392.3 1109.5,-382.3 1102.5,-382.3"/>
</g>
<!-- Node38 -->
<g id="node38" class="node">
<title>Node38</title>
<g id="a_node38"><a xlink:href="turbine__types_8_h.html" target="_top" xlink:title=" ">
<polygon fill="white" stroke="black" points="923,-224.5 923,-243.5 1017,-243.5 1017,-224.5 923,-224.5"/>
<text text-anchor="middle" x="970" y="-231.5" font-family="Helvetica,sans-Serif" font-size="10.00">turbine_types.H</text>
</a>
</g>
</g>
<!-- Node1&#45;&gt;Node38 -->
<g id="edge68" class="edge">
<title>Node1&#45;&gt;Node38</title>
<path fill="none" stroke="midnightblue" d="M1092.24,-384.21C1063.61,-349.26 998.5,-269.79 977.02,-243.57"/>
<polygon fill="midnightblue" stroke="midnightblue" points="1089.64,-386.56 1098.69,-392.08 1095.06,-382.12 1089.64,-386.56"/>
</g>
<!-- Node41 -->
<g id="node41" class="node">
<title>Node41</title>
<g id="a_node41"><a xlink:href="_actuator_wing_8_h.html" target="_top" xlink:title=" ">
<polygon fill="white" stroke="black" points="1310.5,-168.5 1310.5,-187.5 1403.5,-187.5 1403.5,-168.5 1310.5,-168.5"/>
<text text-anchor="middle" x="1357" y="-175.5" font-family="Helvetica,sans-Serif" font-size="10.00">ActuatorWing.H</text>
</a>
</g>
</g>
<!-- Node1&#45;&gt;Node41 -->
<g id="edge76" class="edge">
<title>Node1&#45;&gt;Node41</title>
<path fill="none" stroke="midnightblue" d="M1166.31,-393.13C1214.52,-385.71 1277.05,-373.15 1296,-356 1309.25,-344 1344.78,-221.91 1354.51,-187.8"/>
<polygon fill="midnightblue" stroke="midnightblue" points="1165.63,-389.7 1156.26,-394.64 1166.67,-396.62 1165.63,-389.7"/>
</g>
<!-- Node2&#45;&gt;Node3 -->
<g id="edge2" class="edge">
<title>Node2&#45;&gt;Node3</title>
<path fill="none" stroke="midnightblue" d="M647.03,-106.38C660.41,-96.62 677.56,-84.11 688.89,-75.83"/>
<polygon fill="midnightblue" stroke="midnightblue" points="644.9,-103.6 638.89,-112.32 649.03,-109.26 644.9,-103.6"/>
</g>
<!-- Node4 -->
<g id="node4" class="node">
<title>Node4</title>
<g id="a_node4"><a xlink:href="_actuator_8cpp.html" target="_top" xlink:title=" ">
<polygon fill="white" stroke="black" points="662.5,-0.5 662.5,-19.5 739.5,-19.5 739.5,-0.5 662.5,-0.5"/>
<text text-anchor="middle" x="701" y="-7.5" font-family="Helvetica,sans-Serif" font-size="10.00">Actuator.cpp</text>
</a>
</g>
</g>
<!-- Node3&#45;&gt;Node4 -->
<g id="edge3" class="edge">
<title>Node3&#45;&gt;Node4</title>
<path fill="none" stroke="midnightblue" d="M701,-45.8C701,-36.91 701,-26.78 701,-19.75"/>
<polygon fill="midnightblue" stroke="midnightblue" points="697.5,-46.08 701,-56.08 704.5,-46.08 697.5,-46.08"/>
</g>
<!-- Node5 -->
<g id="node5" class="node">
<title>Node5</title>
<g id="a_node5"><a xlink:href="_actuator_disk_8cpp.html" target="_top" xlink:title=" ">
<polygon fill="white" stroke="black" points="183,-0.5 183,-19.5 283,-19.5 283,-0.5 183,-0.5"/>
<text text-anchor="middle" x="233" y="-7.5" font-family="Helvetica,sans-Serif" font-size="10.00">ActuatorDisk.cpp</text>
</a>
</g>
</g>
<!-- Node3&#45;&gt;Node5 -->
<g id="edge4" class="edge">
<title>Node3&#45;&gt;Node5</title>
<path fill="none" stroke="midnightblue" d="M641.72,-58.16C548.77,-47.43 370.38,-26.85 283.3,-16.8"/>
<polygon fill="midnightblue" stroke="midnightblue" points="641.47,-61.65 651.8,-59.32 642.27,-54.7 641.47,-61.65"/>
</g>
<!-- Node6 -->
<g id="node6" class="node">
<title>Node6</title>
<g id="a_node6"><a xlink:href="_turbine_fast_8cpp.html" target="_top" xlink:title=" ">
<polygon fill="white" stroke="black" points="921,-0.5 921,-19.5 1013,-19.5 1013,-0.5 921,-0.5"/>
<text text-anchor="middle" x="967" y="-7.5" font-family="Helvetica,sans-Serif" font-size="10.00">TurbineFast.cpp</text>
</a>
</g>
</g>
<!-- Node3&#45;&gt;Node6 -->
<g id="edge5" class="edge">
<title>Node3&#45;&gt;Node6</title>
<path fill="none" stroke="midnightblue" d="M753.17,-54.41C803.44,-44.2 878.53,-28.96 925.05,-19.52"/>
<polygon fill="midnightblue" stroke="midnightblue" points="752.25,-51.02 743.15,-56.44 753.64,-57.88 752.25,-51.02"/>
</g>
<!-- Node7 -->
<g id="node7" class="node">
<title>Node7</title>
<g id="a_node7"><a xlink:href="_fixed_wing_8cpp.html" target="_top" xlink:title=" ">
<polygon fill="white" stroke="black" points="1254.5,-0.5 1254.5,-19.5 1341.5,-19.5 1341.5,-0.5 1254.5,-0.5"/>
<text text-anchor="middle" x="1298" y="-7.5" font-family="Helvetica,sans-Serif" font-size="10.00">FixedWing.cpp</text>
</a>
</g>
</g>
<!-- Node3&#45;&gt;Node7 -->
<g id="edge6" class="edge">
<title>Node3&#45;&gt;Node7</title>
<path fill="none" stroke="midnightblue" d="M760.2,-59.65C879.99,-48.81 1148.71,-24.5 1254.25,-14.96"/>
<polygon fill="midnightblue" stroke="midnightblue" points="759.75,-56.17 750.11,-60.56 760.38,-63.14 759.75,-56.17"/>
</g>
<!-- Node8 -->
<g id="node8" class="node">
<title>Node8</title>
<g id="a_node8"><a xlink:href="_flat_plate_8cpp.html" target="_top" xlink:title=" ">
<polygon fill="white" stroke="black" points="1041,-0.5 1041,-19.5 1121,-19.5 1121,-0.5 1041,-0.5"/>
<text text-anchor="middle" x="1081" y="-7.5" font-family="Helvetica,sans-Serif" font-size="10.00">FlatPlate.cpp</text>
</a>
</g>
</g>
<!-- Node3&#45;&gt;Node8 -->
<g id="edge7" class="edge">
<title>Node3&#45;&gt;Node8</title>
<path fill="none" stroke="midnightblue" d="M760.22,-56.92C824.66,-48.07 930.7,-33.36 1022,-20 1028.05,-19.11 1034.44,-18.16 1040.7,-17.21"/>
<polygon fill="midnightblue" stroke="midnightblue" points="759.68,-53.46 750.24,-58.28 760.63,-60.39 759.68,-53.46"/>
</g>
<!-- Node9&#45;&gt;Node2 -->
<g id="edge9" class="edge">
<title>Node9&#45;&gt;Node2</title>
<path fill="none" stroke="midnightblue" d="M735.3,-164.77C709,-154.63 672.28,-140.47 649.08,-131.52"/>
<polygon fill="midnightblue" stroke="midnightblue" points="734.23,-168.11 744.82,-168.44 736.75,-161.58 734.23,-168.11"/>
</g>
<!-- Node9&#45;&gt;Node3 -->
<g id="edge10" class="edge">
<title>Node9&#45;&gt;Node3</title>
<path fill="none" stroke="midnightblue" d="M747.05,-162.03C737.64,-154.04 726.98,-143.5 720,-132 708.89,-113.71 703.98,-88.57 702.06,-75.57"/>
<polygon fill="midnightblue" stroke="midnightblue" points="744.89,-164.78 754.86,-168.34 749.29,-159.33 744.89,-164.78"/>
</g>
<!-- Node10 -->
<g id="node10" class="node">
<title>Node10</title>
<g id="a_node10"><a xlink:href="_act_src_disk_op_8_h.html" target="_top" xlink:title=" ">
<polygon fill="white" stroke="black" points="431.5,-112.5 431.5,-131.5 524.5,-131.5 524.5,-112.5 431.5,-112.5"/>
<text text-anchor="middle" x="478" y="-119.5" font-family="Helvetica,sans-Serif" font-size="10.00">ActSrcDiskOp.H</text>
</a>
</g>
</g>
<!-- Node9&#45;&gt;Node10 -->
<g id="edge11" class="edge">
<title>Node9&#45;&gt;Node10</title>
<path fill="none" stroke="midnightblue" d="M712,-166.72C657.46,-156.53 574.87,-141.1 523.79,-131.56"/>
<polygon fill="midnightblue" stroke="midnightblue" points="711.37,-170.17 721.84,-168.56 712.66,-163.29 711.37,-170.17"/>
</g>
<!-- Node11 -->
<g id="node11" class="node">
<title>Node11</title>
<g id="a_node11"><a xlink:href="disk__ops_8_h.html" target="_top" xlink:title=" ">
<polygon fill="white" stroke="black" points="343,-112.5 343,-131.5 413,-131.5 413,-112.5 343,-112.5"/>
<text text-anchor="middle" x="378" y="-119.5" font-family="Helvetica,sans-Serif" font-size="10.00">disk_ops.H</text>
</a>
</g>
</g>
<!-- Node9&#45;&gt;Node11 -->
<g id="edge13" class="edge">
<title>Node9&#45;&gt;Node11</title>
<path fill="none" stroke="midnightblue" d="M711.82,-171.04C643.55,-163.39 523.86,-149.04 422,-132 419.08,-131.51 416.05,-130.97 413.02,-130.4"/>
<polygon fill="midnightblue" stroke="midnightblue" points="711.59,-174.54 721.91,-172.17 712.36,-167.58 711.59,-174.54"/>
</g>
<!-- Node17 -->
<g id="node17" class="node">
<title>Node17</title>
<g id="a_node17"><a xlink:href="_act_src_disk_op___turbine_8_h.html" target="_top" xlink:title=" ">
<polygon fill="white" stroke="black" points="729,-112.5 729,-131.5 863,-131.5 863,-112.5 729,-112.5"/>
<text text-anchor="middle" x="796" y="-119.5" font-family="Helvetica,sans-Serif" font-size="10.00">ActSrcDiskOp_Turbine.H</text>
</a>
</g>
</g>
<!-- Node9&#45;&gt;Node17 -->
<g id="edge22" class="edge">
<title>Node9&#45;&gt;Node17</title>
<path fill="none" stroke="midnightblue" d="M776.68,-158.98C781.6,-149.82 787.36,-139.09 791.3,-131.75"/>
<polygon fill="midnightblue" stroke="midnightblue" points="773.44,-157.62 771.79,-168.08 779.6,-160.93 773.44,-157.62"/>
</g>
<!-- Node18 -->
<g id="node18" class="node">
<title>Node18</title>
<g id="a_node18"><a xlink:href="turbine__fast__ops_8_h.html" target="_top" xlink:title=" ">
<polygon fill="white" stroke="black" points="995,-112.5 995,-131.5 1103,-131.5 1103,-112.5 995,-112.5"/>
<text text-anchor="middle" x="1049" y="-119.5" font-family="Helvetica,sans-Serif" font-size="10.00">turbine_fast_ops.H</text>
</a>
</g>
</g>
<!-- Node9&#45;&gt;Node18 -->
<g id="edge24" class="edge">
<title>Node9&#45;&gt;Node18</title>
<path fill="none" stroke="midnightblue" d="M821.64,-166.54C874.94,-156.33 955,-141 1004.53,-131.52"/>
<polygon fill="midnightblue" stroke="midnightblue" points="820.85,-163.13 811.68,-168.44 822.16,-170 820.85,-163.13"/>
</g>
<!-- Node19 -->
<g id="node19" class="node">
<title>Node19</title>
<g id="a_node19"><a xlink:href="fixed__wing__ops_8_h.html" target="_top" xlink:title=" ">
<polygon fill="white" stroke="black" points="1247.5,-56.5 1247.5,-75.5 1348.5,-75.5 1348.5,-56.5 1247.5,-56.5"/>
<text text-anchor="middle" x="1298" y="-63.5" font-family="Helvetica,sans-Serif" font-size="10.00">fixed_wing_ops.H</text>
</a>
</g>
</g>
<!-- Node9&#45;&gt;Node19 -->
<g id="edge26" class="edge">
<title>Node9&#45;&gt;Node19</title>
<path fill="none" stroke="midnightblue" d="M800.94,-165.23C843.64,-150.81 919.46,-126.53 986,-112 1096.96,-87.78 1126.64,-92.56 1239,-76 1241.77,-75.59 1244.61,-75.17 1247.47,-74.74"/>
<polygon fill="midnightblue" stroke="midnightblue" points="799.67,-161.96 791.33,-168.5 801.92,-168.59 799.67,-161.96"/>
</g>
<!-- Node20 -->
<g id="node20" class="node">
<title>Node20</title>
<g id="a_node20"><a xlink:href="flat__plate__ops_8_h.html" target="_top" xlink:title=" ">
<polygon fill="white" stroke="black" points="1033.5,-56.5 1033.5,-75.5 1128.5,-75.5 1128.5,-56.5 1033.5,-56.5"/>
<text text-anchor="middle" x="1081" y="-63.5" font-family="Helvetica,sans-Serif" font-size="10.00">flat_plate_ops.H</text>
</a>
</g>
</g>
<!-- Node9&#45;&gt;Node20 -->
<g id="edge28" class="edge">
<title>Node9&#45;&gt;Node20</title>
<path fill="none" stroke="midnightblue" d="M796.98,-164.44C818.04,-155.54 846.83,-143.24 872,-132 891.24,-123.4 895.2,-119.23 915,-112 957.63,-96.44 1008.16,-83.49 1042.18,-75.54"/>
<polygon fill="midnightblue" stroke="midnightblue" points="795.46,-161.28 787.6,-168.39 798.18,-167.73 795.46,-161.28"/>
</g>
<!-- Node9&#45;&gt;Node21 -->
<g id="edge30" class="edge">
<title>Node9&#45;&gt;Node21</title>
<path fill="none" stroke="midnightblue" d="M822.35,-171.58C834.43,-170.4 847.15,-169.16 859,-168 1023,-151.98 1064.96,-155.85 1228,-132 1231.06,-131.55 1234.22,-131.04 1237.4,-130.49"/>
<polygon fill="midnightblue" stroke="midnightblue" points="822,-168.1 812.39,-172.56 822.68,-175.07 822,-168.1"/>
</g>
<!-- Node10&#45;&gt;Node3 -->
<g id="edge12" class="edge">
<title>Node10&#45;&gt;Node3</title>
<path fill="none" stroke="midnightblue" d="M523.06,-110.09C565.19,-99.89 627.24,-84.86 665.83,-75.52"/>
<polygon fill="midnightblue" stroke="midnightblue" points="522.23,-106.69 513.34,-112.44 523.88,-113.49 522.23,-106.69"/>
</g>
<!-- Node12 -->
<g id="node12" class="node">
<title>Node12</title>
<g id="a_node12"><a xlink:href="disk__ops_8cpp.html" target="_top" xlink:title=" ">
<polygon fill="white" stroke="black" points="410,-56.5 410,-75.5 490,-75.5 490,-56.5 410,-56.5"/>
<text text-anchor="middle" x="450" y="-63.5" font-family="Helvetica,sans-Serif" font-size="10.00">disk_ops.cpp</text>
</a>
</g>
</g>
<!-- Node11&#45;&gt;Node12 -->
<g id="edge14" class="edge">
<title>Node11&#45;&gt;Node12</title>
<path fill="none" stroke="midnightblue" d="M397.87,-106.1C410.82,-96.38 427.3,-84.03 438.22,-75.83"/>
<polygon fill="midnightblue" stroke="midnightblue" points="395.47,-103.52 389.57,-112.32 399.67,-109.12 395.47,-103.52"/>
</g>
<!-- Node13 -->
<g id="node13" class="node">
<title>Node13</title>
<g id="a_node13"><a xlink:href="_joukowsky__ops_8cpp.html" target="_top" xlink:title=" ">
<polygon fill="white" stroke="black" points="382,-0.5 382,-19.5 492,-19.5 492,-0.5 382,-0.5"/>
<text text-anchor="middle" x="437" y="-7.5" font-family="Helvetica,sans-Serif" font-size="10.00">Joukowsky_ops.cpp</text>
</a>
</g>
</g>
<!-- Node11&#45;&gt;Node13 -->
<g id="edge15" class="edge">
<title>Node11&#45;&gt;Node13</title>
<path fill="none" stroke="midnightblue" d="M422.84,-110.05C453.39,-101.58 489.88,-89.12 499,-76 514.58,-53.59 479.88,-31.44 456.37,-19.67"/>
<polygon fill="midnightblue" stroke="midnightblue" points="421.92,-106.68 413.18,-112.66 423.74,-113.43 421.92,-106.68"/>
</g>
<!-- Node14 -->
<g id="node14" class="node">
<title>Node14</title>
<g id="a_node14"><a xlink:href="_joukowsky__ops_8_h.html" target="_top" xlink:title=" ">
<polygon fill="white" stroke="black" points="290.5,-56.5 290.5,-75.5 391.5,-75.5 391.5,-56.5 290.5,-56.5"/>
<text text-anchor="middle" x="341" y="-63.5" font-family="Helvetica,sans-Serif" font-size="10.00">Joukowsky_ops.H</text>
</a>
</g>
</g>
<!-- Node11&#45;&gt;Node14 -->
<g id="edge16" class="edge">
<title>Node11&#45;&gt;Node14</title>
<path fill="none" stroke="midnightblue" d="M366.05,-103.57C359.69,-94.27 352.13,-83.25 347,-75.75"/>
<polygon fill="midnightblue" stroke="midnightblue" points="363.35,-105.81 371.89,-112.08 369.13,-101.86 363.35,-105.81"/>
</g>
<!-- Node15 -->
<g id="node15" class="node">
<title>Node15</title>
<g id="a_node15"><a xlink:href="uniform__ct__ops_8_h.html" target="_top" xlink:title=" ">
<polygon fill="white" stroke="black" points="5,-56.5 5,-75.5 107,-75.5 107,-56.5 5,-56.5"/>
<text text-anchor="middle" x="56" y="-63.5" font-family="Helvetica,sans-Serif" font-size="10.00">uniform_ct_ops.H</text>
</a>
</g>
</g>
<!-- Node11&#45;&gt;Node15 -->
<g id="edge19" class="edge">
<title>Node11&#45;&gt;Node15</title>
<path fill="none" stroke="midnightblue" d="M332.71,-113.41C273.21,-103.43 169.01,-85.95 106.86,-75.53"/>
<polygon fill="midnightblue" stroke="midnightblue" points="332.49,-116.92 342.93,-115.12 333.64,-110.01 332.49,-116.92"/>
</g>
<!-- Node14&#45;&gt;Node5 -->
<g id="edge17" class="edge">
<title>Node14&#45;&gt;Node5</title>
<path fill="none" stroke="midnightblue" d="M314.45,-51.73C294.45,-41.73 267.61,-28.31 250.31,-19.65"/>
<polygon fill="midnightblue" stroke="midnightblue" points="313.14,-54.98 323.65,-56.32 316.27,-48.72 313.14,-54.98"/>
</g>
<!-- Node14&#45;&gt;Node13 -->
<g id="edge18" class="edge">
<title>Node14&#45;&gt;Node13</title>
<path fill="none" stroke="midnightblue" d="M365.57,-51.18C383.24,-41.24 406.51,-28.15 421.61,-19.65"/>
<polygon fill="midnightblue" stroke="midnightblue" points="363.42,-48.37 356.42,-56.32 366.86,-54.47 363.42,-48.37"/>
</g>
<!-- Node15&#45;&gt;Node5 -->
<g id="edge20" class="edge">
<title>Node15&#45;&gt;Node5</title>
<path fill="none" stroke="midnightblue" d="M93.9,-53.44C127.28,-43.26 175.1,-28.66 205.09,-19.52"/>
<polygon fill="midnightblue" stroke="midnightblue" points="92.59,-50.18 84.05,-56.44 94.63,-56.87 92.59,-50.18"/>
</g>
<!-- Node16 -->
<g id="node16" class="node">
<title>Node16</title>
<g id="a_node16"><a xlink:href="uniform__ct__ops_8cpp.html" target="_top" xlink:title=" ">
<polygon fill="white" stroke="black" points="0,-0.5 0,-19.5 112,-19.5 112,-0.5 0,-0.5"/>
<text text-anchor="middle" x="56" y="-7.5" font-family="Helvetica,sans-Serif" font-size="10.00">uniform_ct_ops.cpp</text>
</a>
</g>
</g>
<!-- Node15&#45;&gt;Node16 -->
<g id="edge21" class="edge">
<title>Node15&#45;&gt;Node16</title>
<path fill="none" stroke="midnightblue" d="M56,-45.8C56,-36.91 56,-26.78 56,-19.75"/>
<polygon fill="midnightblue" stroke="midnightblue" points="52.5,-46.08 56,-56.08 59.5,-46.08 52.5,-46.08"/>
</g>
<!-- Node17&#45;&gt;Node3 -->
<g id="edge23" class="edge">
<title>Node17&#45;&gt;Node3</title>
<path fill="none" stroke="midnightblue" d="M771.68,-107.18C754.2,-97.24 731.17,-84.15 716.23,-75.65"/>
<polygon fill="midnightblue" stroke="midnightblue" points="770.31,-110.43 780.74,-112.32 773.77,-104.34 770.31,-110.43"/>
</g>
<!-- Node18&#45;&gt;Node6 -->
<g id="edge25" class="edge">
<title>Node18&#45;&gt;Node6</title>
<path fill="none" stroke="midnightblue" d="M1036.53,-104.27C1018.8,-80.49 986.97,-37.79 973.4,-19.59"/>
<polygon fill="midnightblue" stroke="midnightblue" points="1033.78,-106.44 1042.57,-112.37 1039.4,-102.26 1033.78,-106.44"/>
</g>
<!-- Node19&#45;&gt;Node7 -->
<g id="edge27" class="edge">
<title>Node19&#45;&gt;Node7</title>
<path fill="none" stroke="midnightblue" d="M1298,-45.8C1298,-36.91 1298,-26.78 1298,-19.75"/>
<polygon fill="midnightblue" stroke="midnightblue" points="1294.5,-46.08 1298,-56.08 1301.5,-46.08 1294.5,-46.08"/>
</g>
<!-- Node20&#45;&gt;Node8 -->
<g id="edge29" class="edge">
<title>Node20&#45;&gt;Node8</title>
<path fill="none" stroke="midnightblue" d="M1081,-45.8C1081,-36.91 1081,-26.78 1081,-19.75"/>
<polygon fill="midnightblue" stroke="midnightblue" points="1077.5,-46.08 1081,-56.08 1084.5,-46.08 1077.5,-46.08"/>
</g>
<!-- Node21&#45;&gt;Node19 -->
<g id="edge31" class="edge">
<title>Node21&#45;&gt;Node19</title>
<path fill="none" stroke="midnightblue" d="M1282.14,-102.69C1286.18,-93.59 1290.88,-83.01 1294.11,-75.75"/>
<polygon fill="midnightblue" stroke="midnightblue" points="1278.83,-101.52 1277.96,-112.08 1285.22,-104.37 1278.83,-101.52"/>
</g>
<!-- Node21&#45;&gt;Node20 -->
<g id="edge32" class="edge">
<title>Node21&#45;&gt;Node20</title>
<path fill="none" stroke="midnightblue" d="M1233.61,-109.7C1197.18,-99.51 1144.41,-84.74 1111.44,-75.52"/>
<polygon fill="midnightblue" stroke="midnightblue" points="1232.85,-113.12 1243.42,-112.44 1234.73,-106.38 1232.85,-113.12"/>
</g>
<!-- Node22 -->
<g id="node22" class="node">
<title>Node22</title>
<g id="a_node22"><a xlink:href="wing__ops_8cpp.html" target="_top" xlink:title=" ">
<polygon fill="white" stroke="black" points="1146.5,-56.5 1146.5,-75.5 1229.5,-75.5 1229.5,-56.5 1146.5,-56.5"/>
<text text-anchor="middle" x="1188" y="-63.5" font-family="Helvetica,sans-Serif" font-size="10.00">wing_ops.cpp</text>
</a>
</g>
</g>
<!-- Node21&#45;&gt;Node22 -->
<g id="edge33" class="edge">
<title>Node21&#45;&gt;Node22</title>
<path fill="none" stroke="midnightblue" d="M1251.55,-106.9C1235.78,-97 1215.19,-84.07 1201.78,-75.65"/>
<polygon fill="midnightblue" stroke="midnightblue" points="1249.85,-109.97 1260.18,-112.32 1253.57,-104.04 1249.85,-109.97"/>
</g>
<!-- Node24&#45;&gt;Node21 -->
<g id="edge46" class="edge">
<title>Node24&#45;&gt;Node21</title>
<path fill="none" stroke="midnightblue" d="M1422.99,-165.57C1387.33,-155.38 1335.96,-140.7 1303.81,-131.52"/>
<polygon fill="midnightblue" stroke="midnightblue" points="1422.48,-169.06 1433.05,-168.44 1424.4,-162.33 1422.48,-169.06"/>
</g>
<!-- Node25 -->
<g id="node25" class="node">
<title>Node25</title>
<g id="a_node25"><a xlink:href="_airfoil_table_8cpp.html" target="_top" xlink:title=" ">
<polygon fill="white" stroke="black" points="1616,-112.5 1616,-131.5 1708,-131.5 1708,-112.5 1616,-112.5"/>
<text text-anchor="middle" x="1662" y="-119.5" font-family="Helvetica,sans-Serif" font-size="10.00">AirfoilTable.cpp</text>
</a>
</g>
</g>
<!-- Node24&#45;&gt;Node25 -->
<g id="edge37" class="edge">
<title>Node24&#45;&gt;Node25</title>
<path fill="none" stroke="midnightblue" d="M1504.65,-165.7C1542.21,-155.51 1596.61,-140.74 1630.62,-131.52"/>
<polygon fill="midnightblue" stroke="midnightblue" points="1503.27,-162.45 1494.53,-168.44 1505.1,-169.2 1503.27,-162.45"/>
</g>
<!-- Node26 -->
<g id="node26" class="node">
<title>Node26</title>
<g id="a_node26"><a xlink:href="_airfoil_table_i_8_h.html" target="_top" xlink:title=" ">
<polygon fill="white" stroke="black" points="1512.5,-112.5 1512.5,-131.5 1597.5,-131.5 1597.5,-112.5 1512.5,-112.5"/>
<text text-anchor="middle" x="1555" y="-119.5" font-family="Helvetica,sans-Serif" font-size="10.00">AirfoilTableI.H</text>
</a>
</g>
</g>
<!-- Node24&#45;&gt;Node26 -->
<g id="edge38" class="edge">
<title>Node24&#45;&gt;Node26</title>
<path fill="none" stroke="midnightblue" d="M1481.45,-162.62C1497.07,-152.76 1519.13,-139.99 1535.15,-131.65"/>
<polygon fill="midnightblue" stroke="midnightblue" points="1479.15,-159.94 1472.67,-168.32 1482.96,-165.81 1479.15,-159.94"/>
</g>
<!-- Node27 -->
<g id="node27" class="node">
<title>Node27</title>
<g id="a_node27"><a xlink:href="_fixed_wing_8_h.html" target="_top" xlink:title=" ">
<polygon fill="white" stroke="black" points="1417.5,-112.5 1417.5,-131.5 1494.5,-131.5 1494.5,-112.5 1417.5,-112.5"/>
<text text-anchor="middle" x="1456" y="-119.5" font-family="Helvetica,sans-Serif" font-size="10.00">FixedWing.H</text>
</a>
</g>
</g>
<!-- Node24&#45;&gt;Node27 -->
<g id="edge40" class="edge">
<title>Node24&#45;&gt;Node27</title>
<path fill="none" stroke="midnightblue" d="M1460.55,-158.1C1459.39,-149.14 1458.06,-138.86 1457.13,-131.75"/>
<polygon fill="midnightblue" stroke="midnightblue" points="1457.09,-158.62 1461.84,-168.08 1464.03,-157.72 1457.09,-158.62"/>
</g>
<!-- Node28 -->
<g id="node28" class="node">
<title>Node28</title>
<g id="a_node28"><a xlink:href="_flat_plate_8_h.html" target="_top" xlink:title=" ">
<polygon fill="white" stroke="black" points="1328.5,-112.5 1328.5,-131.5 1399.5,-131.5 1399.5,-112.5 1328.5,-112.5"/>
<text text-anchor="middle" x="1364" y="-119.5" font-family="Helvetica,sans-Serif" font-size="10.00">FlatPlate.H</text>
</a>
</g>
</g>
<!-- Node24&#45;&gt;Node28 -->
<g id="edge43" class="edge">
<title>Node24&#45;&gt;Node28</title>
<path fill="none" stroke="midnightblue" d="M1438.16,-163.45C1419.89,-153.48 1395.58,-140.23 1379.87,-131.65"/>
<polygon fill="midnightblue" stroke="midnightblue" points="1436.64,-166.61 1447.09,-168.32 1439.99,-160.46 1436.64,-166.61"/>
</g>
<!-- Node26&#45;&gt;Node24 -->
<g id="edge39" class="edge">
<title>Node26&#45;&gt;Node24</title>
<path fill="none" stroke="midnightblue" d="M1536.59,-137.35C1520.98,-147.21 1498.92,-159.98 1482.9,-168.32"/>
<polygon fill="midnightblue" stroke="midnightblue" points="1538.88,-140.04 1545.37,-131.65 1535.07,-134.17 1538.88,-140.04"/>
</g>
<!-- Node27&#45;&gt;Node7 -->
<g id="edge42" class="edge">
<title>Node27&#45;&gt;Node7</title>
<path fill="none" stroke="midnightblue" d="M1442.01,-104.13C1429.65,-89.99 1410.6,-69.94 1391,-56 1368.93,-40.31 1340.54,-27.47 1320.96,-19.58"/>
<polygon fill="midnightblue" stroke="midnightblue" points="1439.63,-106.73 1448.78,-112.07 1444.95,-102.19 1439.63,-106.73"/>
</g>
<!-- Node27&#45;&gt;Node19 -->
<g id="edge41" class="edge">
<title>Node27&#45;&gt;Node19</title>
<path fill="none" stroke="midnightblue" d="M1421.39,-109.17C1391.64,-99 1349.45,-84.59 1322.92,-75.52"/>
<polygon fill="midnightblue" stroke="midnightblue" points="1420.37,-112.52 1430.96,-112.44 1422.63,-105.9 1420.37,-112.52"/>
</g>
<!-- Node28&#45;&gt;Node8 -->
<g id="edge45" class="edge">
<title>Node28&#45;&gt;Node8</title>
<path fill="none" stroke="midnightblue" d="M1367.86,-102.2C1369.66,-87.7 1369.34,-68.15 1358,-56 1326.54,-22.3 1190.22,-13.83 1121.26,-11.71"/>
<polygon fill="midnightblue" stroke="midnightblue" points="1364.4,-101.65 1366.22,-112.08 1371.31,-102.79 1364.4,-101.65"/>
</g>
<!-- Node28&#45;&gt;Node20 -->
<g id="edge44" class="edge">
<title>Node28&#45;&gt;Node20</title>
<path fill="none" stroke="midnightblue" d="M1318.33,-111.69C1246.41,-97.61 1173.8,-84.08 1127.75,-75.58"/>
<polygon fill="midnightblue" stroke="midnightblue" points="1317.98,-115.19 1328.47,-113.68 1319.33,-108.32 1317.98,-115.19"/>
</g>
<!-- Node29&#45;&gt;Node10 -->
<g id="edge48" class="edge">
<title>Node29&#45;&gt;Node10</title>
<path fill="none" stroke="midnightblue" d="M427.45,-326.8C429.85,-318.63 432.65,-308.85 435,-300 452.14,-235.51 470.24,-157.09 476.07,-131.51"/>
<polygon fill="midnightblue" stroke="midnightblue" points="424.09,-325.82 424.6,-336.4 430.8,-327.81 424.09,-325.82"/>
</g>
<!-- Node30 -->
<g id="node30" class="node">
<title>Node30</title>
<g id="a_node30"><a xlink:href="_actuator_disk_8_h.html" target="_top" xlink:title=" ">
<polygon fill="white" stroke="black" points="336,-280.5 336,-299.5 426,-299.5 426,-280.5 336,-280.5"/>
<text text-anchor="middle" x="381" y="-287.5" font-family="Helvetica,sans-Serif" font-size="10.00">ActuatorDisk.H</text>
</a>
</g>
</g>
<!-- Node29&#45;&gt;Node30 -->
<g id="edge49" class="edge">
<title>Node29&#45;&gt;Node30</title>
<path fill="none" stroke="midnightblue" d="M408.98,-327.86C401.88,-318.5 393.4,-307.33 387.64,-299.75"/>
<polygon fill="midnightblue" stroke="midnightblue" points="406.39,-330.24 415.23,-336.08 411.97,-326 406.39,-330.24"/>
</g>
<!-- Node31 -->
<g id="node31" class="node">
<title>Node31</title>
<g id="a_node31"><a xlink:href="_joukowsky_8_h.html" target="_top" xlink:title=" ">
<polygon fill="white" stroke="black" points="271.5,-224.5 271.5,-243.5 348.5,-243.5 348.5,-224.5 271.5,-224.5"/>
<text text-anchor="middle" x="310" y="-231.5" font-family="Helvetica,sans-Serif" font-size="10.00">Joukowsky.H</text>
</a>
</g>
</g>
<!-- Node29&#45;&gt;Node31 -->
<g id="edge60" class="edge">
<title>Node29&#45;&gt;Node31</title>
<path fill="none" stroke="midnightblue" d="M377.31,-332.97C359.34,-326.04 339.87,-315.53 327,-300 313.3,-283.48 310.51,-257.13 310.03,-243.61"/>
<polygon fill="midnightblue" stroke="midnightblue" points="376.49,-336.39 387.08,-336.46 378.84,-329.8 376.49,-336.39"/>
</g>
<!-- Node30&#45;&gt;Node11 -->
<g id="edge50" class="edge">
<title>Node30&#45;&gt;Node11</title>
<path fill="none" stroke="midnightblue" d="M380.66,-269.93C380,-233.92 378.62,-157.23 378.15,-131.57"/>
<polygon fill="midnightblue" stroke="midnightblue" points="377.16,-270.14 380.84,-280.08 384.16,-270.01 377.16,-270.14"/>
</g>
<!-- Node30&#45;&gt;Node31 -->
<g id="edge51" class="edge">
<title>Node30&#45;&gt;Node31</title>
<path fill="none" stroke="midnightblue" d="M361.41,-274.1C348.63,-264.38 332.39,-252.03 321.61,-243.83"/>
<polygon fill="midnightblue" stroke="midnightblue" points="359.51,-277.06 369.59,-280.32 363.75,-271.48 359.51,-277.06"/>
</g>
<!-- Node32 -->
<g id="node32" class="node">
<title>Node32</title>
<g id="a_node32"><a xlink:href="_uniform_ct_8_h.html" target="_top" xlink:title=" ">
<polygon fill="white" stroke="black" points="119.5,-224.5 119.5,-243.5 196.5,-243.5 196.5,-224.5 119.5,-224.5"/>
<text text-anchor="middle" x="158" y="-231.5" font-family="Helvetica,sans-Serif" font-size="10.00">UniformCt.H</text>
</a>
</g>
</g>
<!-- Node30&#45;&gt;Node32 -->
<g id="edge54" class="edge">
<title>Node30&#45;&gt;Node32</title>
<path fill="none" stroke="midnightblue" d="M335.94,-278.09C293.81,-267.89 231.76,-252.86 193.17,-243.52"/>
<polygon fill="midnightblue" stroke="midnightblue" points="335.12,-281.49 345.66,-280.44 336.77,-274.69 335.12,-281.49"/>
</g>
<!-- Node31&#45;&gt;Node5 -->
<g id="edge52" class="edge">
<title>Node31&#45;&gt;Node5</title>
<path fill="none" stroke="midnightblue" d="M303.61,-214.58C287.85,-169.14 247.54,-52.92 236.08,-19.88"/>
<polygon fill="midnightblue" stroke="midnightblue" points="300.4,-216 306.98,-224.3 307.01,-213.7 300.4,-216"/>
</g>
<!-- Node31&#45;&gt;Node14 -->
<g id="edge53" class="edge">
<title>Node31&#45;&gt;Node14</title>
<path fill="none" stroke="midnightblue" d="M313.56,-213.93C320.29,-177.92 334.61,-101.23 339.4,-75.57"/>
<polygon fill="midnightblue" stroke="midnightblue" points="310.06,-213.6 311.67,-224.08 316.94,-214.89 310.06,-213.6"/>
</g>
<!-- Node32&#45;&gt;Node5 -->
<g id="edge55" class="edge">
<title>Node32&#45;&gt;Node5</title>
<path fill="none" stroke="midnightblue" d="M146.93,-215.37C140.13,-202.34 133.5,-184.13 138,-168 155.55,-105.09 205.91,-42.26 225.28,-19.72"/>
<polygon fill="midnightblue" stroke="midnightblue" points="143.98,-217.27 151.99,-224.21 150.06,-213.79 143.98,-217.27"/>
</g>
<!-- Node32&#45;&gt;Node15 -->
<g id="edge59" class="edge">
<title>Node32&#45;&gt;Node15</title>
<path fill="none" stroke="midnightblue" d="M136.28,-218.4C125.72,-210.42 113.51,-199.77 105,-188 78.05,-150.71 63.03,-96.48 57.97,-75.62"/>
<polygon fill="midnightblue" stroke="midnightblue" points="134.49,-221.42 144.65,-224.44 138.59,-215.74 134.49,-221.42"/>
</g>
<!-- Node33 -->
<g id="node33" class="node">
<title>Node33</title>
<g id="a_node33"><a xlink:href="disk__spreading_8_h.html" target="_top" xlink:title=" ">
<polygon fill="white" stroke="black" points="147.5,-168.5 147.5,-187.5 248.5,-187.5 248.5,-168.5 147.5,-168.5"/>
<text text-anchor="middle" x="198" y="-175.5" font-family="Helvetica,sans-Serif" font-size="10.00">disk_spreading.H</text>
</a>
</g>
</g>
<!-- Node32&#45;&gt;Node33 -->
<g id="edge56" class="edge">
<title>Node32&#45;&gt;Node33</title>
<path fill="none" stroke="midnightblue" d="M170.7,-215.86C177.63,-206.5 185.91,-195.33 191.52,-187.75"/>
<polygon fill="midnightblue" stroke="midnightblue" points="167.75,-213.96 164.61,-224.08 173.37,-218.13 167.75,-213.96"/>
</g>
<!-- Node33&#45;&gt;Node5 -->
<g id="edge58" class="edge">
<title>Node33&#45;&gt;Node5</title>
<path fill="none" stroke="midnightblue" d="M202.02,-157.93C209.61,-121.92 225.78,-45.23 231.19,-19.57"/>
<polygon fill="midnightblue" stroke="midnightblue" points="198.52,-157.57 199.88,-168.08 205.37,-159.01 198.52,-157.57"/>
</g>
<!-- Node33&#45;&gt;Node10 -->
<g id="edge57" class="edge">
<title>Node33&#45;&gt;Node10</title>
<path fill="none" stroke="midnightblue" d="M252.25,-166.54C305.17,-156.33 384.67,-141 433.84,-131.52"/>
<polygon fill="midnightblue" stroke="midnightblue" points="251.52,-163.11 242.37,-168.44 252.85,-169.99 251.52,-163.11"/>
</g>
<!-- Node35 -->
<g id="node35" class="node">
<title>Node35</title>
<g id="a_node35"><a xlink:href="_f_l_l_c_8cpp.html" target="_top" xlink:title=" ">
<polygon fill="white" stroke="black" points="1156,-168.5 1156,-187.5 1216,-187.5 1216,-168.5 1156,-168.5"/>
<text text-anchor="middle" x="1186" y="-175.5" font-family="Helvetica,sans-Serif" font-size="10.00">FLLC.cpp</text>
</a>
</g>
</g>
<!-- Node34&#45;&gt;Node35 -->
<g id="edge62" class="edge">
<title>Node34&#45;&gt;Node35</title>
<path fill="none" stroke="midnightblue" d="M1176.82,-214.4C1179.17,-205.36 1181.87,-194.94 1183.73,-187.75"/>
<polygon fill="midnightblue" stroke="midnightblue" points="1173.43,-213.52 1174.31,-224.08 1180.21,-215.28 1173.43,-213.52"/>
</g>
<!-- Node34&#45;&gt;Node36 -->
<g id="edge63" class="edge">
<title>Node34&#45;&gt;Node36</title>
<path fill="none" stroke="midnightblue" d="M1153.45,-217.82C1141.62,-208.15 1126.71,-195.95 1116.8,-187.83"/>
<polygon fill="midnightblue" stroke="midnightblue" points="1151.44,-220.7 1161.4,-224.32 1155.87,-215.28 1151.44,-220.7"/>
</g>
<!-- Node37 -->
<g id="node37" class="node">
<title>Node37</title>
<g id="a_node37"><a xlink:href="turbine__utils_8cpp.html" target="_top" xlink:title=" ">
<polygon fill="white" stroke="black" points="1121,-112.5 1121,-131.5 1219,-131.5 1219,-112.5 1121,-112.5"/>
<text text-anchor="middle" x="1170" y="-119.5" font-family="Helvetica,sans-Serif" font-size="10.00">turbine_utils.cpp</text>
</a>
</g>
</g>
<!-- Node34&#45;&gt;Node37 -->
<g id="edge66" class="edge">
<title>Node34&#45;&gt;Node37</title>
<path fill="none" stroke="midnightblue" d="M1196.71,-218.83C1214.67,-206.54 1234.32,-187.68 1225,-168 1217.23,-151.61 1200.25,-139.21 1187.2,-131.61"/>
<polygon fill="midnightblue" stroke="midnightblue" points="1194.7,-215.97 1188.17,-224.31 1198.48,-221.86 1194.7,-215.97"/>
</g>
<!-- Node36&#45;&gt;Node18 -->
<g id="edge64" class="edge">
<title>Node36&#45;&gt;Node18</title>
<path fill="none" stroke="midnightblue" d="M1089.38,-161.25C1079.27,-151.67 1066.72,-139.79 1058.32,-131.83"/>
<polygon fill="midnightblue" stroke="midnightblue" points="1087.18,-163.99 1096.84,-168.32 1091.99,-158.91 1087.18,-163.99"/>
</g>
<!-- Node36&#45;&gt;Node21 -->
<g id="edge65" class="edge">
<title>Node36&#45;&gt;Node21</title>
<path fill="none" stroke="midnightblue" d="M1142.39,-165.3C1174.04,-155.13 1219.17,-140.62 1247.5,-131.52"/>
<polygon fill="midnightblue" stroke="midnightblue" points="1141.07,-162.05 1132.62,-168.44 1143.21,-168.72 1141.07,-162.05"/>
</g>
<!-- Node38&#45;&gt;Node17 -->
<g id="edge69" class="edge">
<title>Node38&#45;&gt;Node17</title>
<path fill="none" stroke="midnightblue" d="M929.87,-221.26C907.84,-213.73 880.68,-202.61 859,-188 835.02,-171.84 812.97,-145.33 802.46,-131.7"/>
<polygon fill="midnightblue" stroke="midnightblue" points="929,-224.65 939.59,-224.46 931.19,-218.01 929,-224.65"/>
</g>
<!-- Node39 -->
<g id="node39" class="node">
<title>Node39</title>
<g id="a_node39"><a xlink:href="_turbine_fast_8_h.html" target="_top" xlink:title=" ">
<polygon fill="white" stroke="black" points="868,-168.5 868,-187.5 950,-187.5 950,-168.5 868,-168.5"/>
<text text-anchor="middle" x="909" y="-175.5" font-family="Helvetica,sans-Serif" font-size="10.00">TurbineFast.H</text>
</a>
</g>
</g>
<!-- Node38&#45;&gt;Node39 -->
<g id="edge70" class="edge">
<title>Node38&#45;&gt;Node39</title>
<path fill="none" stroke="midnightblue" d="M952.53,-217.54C941.66,-207.91 928.06,-195.87 918.98,-187.83"/>
<polygon fill="midnightblue" stroke="midnightblue" points="950.39,-220.32 960.2,-224.32 955.03,-215.07 950.39,-220.32"/>
</g>
<!-- Node40 -->
<g id="node40" class="node">
<title>Node40</title>
<g id="a_node40"><a xlink:href="turbine__utils_8_h.html" target="_top" xlink:title=" ">
<polygon fill="white" stroke="black" points="968,-168.5 968,-187.5 1056,-187.5 1056,-168.5 968,-168.5"/>
<text text-anchor="middle" x="1012" y="-175.5" font-family="Helvetica,sans-Serif" font-size="10.00">turbine_utils.H</text>
</a>
</g>
</g>
<!-- Node38&#45;&gt;Node40 -->
<g id="edge73" class="edge">
<title>Node38&#45;&gt;Node40</title>
<path fill="none" stroke="midnightblue" d="M983.11,-216.14C990.43,-206.74 999.24,-195.4 1005.19,-187.75"/>
<polygon fill="midnightblue" stroke="midnightblue" points="980.31,-214.04 976.94,-224.08 985.84,-218.34 980.31,-214.04"/>
</g>
<!-- Node39&#45;&gt;Node6 -->
<g id="edge72" class="edge">
<title>Node39&#45;&gt;Node6</title>
<path fill="none" stroke="midnightblue" d="M915.5,-158.39C928.01,-122.59 955,-45.34 964.01,-19.57"/>
<polygon fill="midnightblue" stroke="midnightblue" points="912.11,-157.48 912.12,-168.08 918.72,-159.79 912.11,-157.48"/>
</g>
<!-- Node39&#45;&gt;Node18 -->
<g id="edge71" class="edge">
<title>Node39&#45;&gt;Node18</title>
<path fill="none" stroke="midnightblue" d="M940.7,-164.77C967,-154.63 1003.72,-140.47 1026.92,-131.52"/>
<polygon fill="midnightblue" stroke="midnightblue" points="939.25,-161.58 931.18,-168.44 941.77,-168.11 939.25,-161.58"/>
</g>
<!-- Node40&#45;&gt;Node18 -->
<g id="edge74" class="edge">
<title>Node40&#45;&gt;Node18</title>
<path fill="none" stroke="midnightblue" d="M1023.95,-159.57C1030.31,-150.27 1037.87,-139.25 1043,-131.75"/>
<polygon fill="midnightblue" stroke="midnightblue" points="1020.87,-157.86 1018.11,-168.08 1026.65,-161.81 1020.87,-157.86"/>
</g>
<!-- Node40&#45;&gt;Node37 -->
<g id="edge75" class="edge">
<title>Node40&#45;&gt;Node37</title>
<path fill="none" stroke="midnightblue" d="M1046.61,-165.17C1076.36,-155 1118.55,-140.59 1145.08,-131.52"/>
<polygon fill="midnightblue" stroke="midnightblue" points="1045.37,-161.9 1037.04,-168.44 1047.63,-168.52 1045.37,-161.9"/>
</g>
<!-- Node41&#45;&gt;Node21 -->
<g id="edge79" class="edge">
<title>Node41&#45;&gt;Node21</title>
<path fill="none" stroke="midnightblue" d="M1334.9,-162.62C1319.74,-152.76 1300.12,-139.99 1287.3,-131.65"/>
<polygon fill="midnightblue" stroke="midnightblue" points="1333.37,-165.8 1343.66,-168.32 1337.19,-159.94 1333.37,-165.8"/>
</g>
<!-- Node41&#45;&gt;Node27 -->
<g id="edge77" class="edge">
<title>Node41&#45;&gt;Node27</title>
<path fill="none" stroke="midnightblue" d="M1381.84,-163.45C1400.11,-153.48 1424.42,-140.23 1440.13,-131.65"/>
<polygon fill="midnightblue" stroke="midnightblue" points="1380.01,-160.46 1372.91,-168.32 1383.36,-166.61 1380.01,-160.46"/>
</g>
<!-- Node41&#45;&gt;Node28 -->
<g id="edge78" class="edge">
<title>Node41&#45;&gt;Node28</title>
<path fill="none" stroke="midnightblue" d="M1359.45,-158.1C1360.61,-149.14 1361.94,-138.86 1362.87,-131.75"/>
<polygon fill="midnightblue" stroke="midnightblue" points="1355.97,-157.72 1358.16,-168.08 1362.91,-158.62 1355.97,-157.72"/>
</g>
</g>
</svg>
        <g id="navigator" transform="translate(0 0)" fill="#404254">
                <rect fill="#f2f5e9" fill-opacity="0.5" stroke="#606060" stroke-width=".5" x="0" y="0" width="60" height="60"/>
                <use id="zoomplus" xlink:href="#zoomPlus" x="17" y="9" onmousedown="handleZoom(evt,'in')"/>
                <use id="zoomminus" xlink:href="#zoomMin" x="42" y="9" onmousedown="handleZoom(evt,'out')"/>
                <use id="reset" xlink:href="#resetDef" x="30" y="36" onmousedown="handleReset()"/>
                <g id="arrowUp" xlink:href="#dirArrow" transform="translate(30 24)" onmousedown="handlePan(0,-1)">
                  <use xlink:href="#rim" fill="#404040">
                        <set attributeName="fill" to="#808080" begin="arrowUp.mouseover" end="arrowUp.mouseout"/>
                  </use>
                  <path fill="none" stroke="white" stroke-width="1.5" d="M0,-3.0v7 M-2.5,-0.5L0,-3.0L2.5,-0.5"/>
                </g>
                <g id="arrowRight" xlink:href="#dirArrow" transform="rotate(90) translate(36 -43)" onmousedown="handlePan(1,0)">
                  <use xlink:href="#rim" fill="#404040">
                        <set attributeName="fill" to="#808080" begin="arrowRight.mouseover" end="arrowRight.mouseout"/>
                  </use>
                  <path fill="none" stroke="white" stroke-width="1.5" d="M0,-3.0v7 M-2.5,-0.5L0,-3.0L2.5,-0.5"/>
                </g>
                <g id="arrowDown" xlink:href="#dirArrow" transform="rotate(180) translate(-30 -48)" onmousedown="handlePan(0,1)">
                  <use xlink:href="#rim" fill="#404040">
                        <set attributeName="fill" to="#808080" begin="arrowDown.mouseover" end="arrowDown.mouseout"/>
                  </use>
                  <path fill="none" stroke="white" stroke-width="1.5" d="M0,-3.0v7 M-2.5,-0.5L0,-3.0L2.5,-0.5"/>
                </g>
                <g id="arrowLeft" xlink:href="#dirArrow" transform="rotate(270) translate(-36 17)" onmousedown="handlePan(-1,0)">
                  <use xlink:href="#rim" fill="#404040">
                        <set attributeName="fill" to="#808080" begin="arrowLeft.mouseover" end="arrowLeft.mouseout"/>
                  </use>
                  <path fill="none" stroke="white" stroke-width="1.5" d="M0,-3.0v7 M-2.5,-0.5L0,-3.0L2.5,-0.5"/>
                </g>
        </g>
        <svg viewBox="0 0 15 15" width="100%" height="30px" preserveAspectRatio="xMaxYMin meet">
         <g id="arrow_out" transform="scale(0.3 0.3)">
          <a xlink:href="actuator__types_8_h__dep__incl_org.svg" target="_base">
           <rect id="button" ry="5" rx="5" y="6" x="6" height="38" width="38"
                fill="#f2f5e9" fill-opacity="0.5" stroke="#606060" stroke-width="1.0"/>
           <path id="arrow"
             d="M 11.500037,31.436501 C 11.940474,20.09759 22.043105,11.32322 32.158766,21.979434 L 37.068811,17.246167 C 37.068811,17.246167 37.088388,32 37.088388,32 L 22.160133,31.978069 C 22.160133,31.978069 26.997745,27.140456 26.997745,27.140456 C 18.528582,18.264221 13.291696,25.230495 11.500037,31.436501 z"
             style="fill:#404040;"/>
          </a>
         </g>
        </svg>
</svg>
