<?xml version="1.0" encoding="UTF-8" standalone="no"?>
<!DOCTYPE svg PUBLIC "-//W3C//DTD SVG 1.1//EN"
 "http://www.w3.org/Graphics/SVG/1.1/DTD/svg11.dtd">
<!-- Generated by graphviz version 2.43.0 (0)
 -->
<!-- Title: actuator_ops.H Pages: 1 -->
<svg width="938pt" height="196pt"
 viewBox="0.00 0.00 937.50 196.00" xmlns="http://www.w3.org/2000/svg" xmlns:xlink="http://www.w3.org/1999/xlink">
<g id="graph0" class="graph" transform="scale(1 1) rotate(0) translate(4 192)">
<title>actuator_ops.H</title>
<polygon fill="white" stroke="transparent" points="-4,4 -4,-192 933.5,-192 933.5,4 -4,4"/>
<!-- Node1 -->
<g id="node1" class="node">
<title>Node1</title>
<g id="a_node1"><a xlink:title=" ">
<polygon fill="#bfbfbf" stroke="black" points="563,-168.5 563,-187.5 653,-187.5 653,-168.5 563,-168.5"/>
<text text-anchor="middle" x="608" y="-175.5" font-family="Helvetica,sans-Serif" font-size="10.00">actuator_ops.H</text>
</a>
</g>
</g>
<!-- Node2 -->
<g id="node2" class="node">
<title>Node2</title>
<g id="a_node2"><a xlink:href="_act_src_line_op_8_h.html" target="_top" xlink:title=" ">
<polygon fill="white" stroke="black" points="562,-112.5 562,-131.5 654,-131.5 654,-112.5 562,-112.5"/>
<text text-anchor="middle" x="608" y="-119.5" font-family="Helvetica,sans-Serif" font-size="10.00">ActSrcLineOp.H</text>
</a>
</g>
</g>
<!-- Node1&#45;&gt;Node2 -->
<g id="edge1" class="edge">
<title>Node1&#45;&gt;Node2</title>
<path fill="none" stroke="midnightblue" d="M608,-157.8C608,-148.91 608,-138.78 608,-131.75"/>
<polygon fill="midnightblue" stroke="midnightblue" points="604.5,-158.08 608,-168.08 611.5,-158.08 604.5,-158.08"/>
</g>
<!-- Node3 -->
<g id="node3" class="node">
<title>Node3</title>
<g id="a_node3"><a xlink:href="_actuator_model_8_h.html" target="_top" xlink:title=" ">
<polygon fill="white" stroke="black" points="498,-56.5 498,-75.5 596,-75.5 596,-56.5 498,-56.5"/>
<text text-anchor="middle" x="547" y="-63.5" font-family="Helvetica,sans-Serif" font-size="10.00">ActuatorModel.H</text>
</a>
</g>
</g>
<!-- Node1&#45;&gt;Node3 -->
<g id="edge8" class="edge">
<title>Node1&#45;&gt;Node3</title>
<path fill="none" stroke="midnightblue" d="M633.29,-163.26C653.29,-150.54 675.88,-130.81 663,-112 653.36,-97.92 611.43,-84.08 580.74,-75.54"/>
<polygon fill="midnightblue" stroke="midnightblue" points="631.47,-160.27 624.7,-168.42 635.08,-166.27 631.47,-160.27"/>
</g>
<!-- Node9 -->
<g id="node9" class="node">
<title>Node9</title>
<g id="a_node9"><a xlink:href="_act_src_disk_op_8_h.html" target="_top" xlink:title=" ">
<polygon fill="white" stroke="black" points="298.5,-112.5 298.5,-131.5 391.5,-131.5 391.5,-112.5 298.5,-112.5"/>
<text text-anchor="middle" x="345" y="-119.5" font-family="Helvetica,sans-Serif" font-size="10.00">ActSrcDiskOp.H</text>
</a>
</g>
</g>
<!-- Node1&#45;&gt;Node9 -->
<g id="edge9" class="edge">
<title>Node1&#45;&gt;Node9</title>
<path fill="none" stroke="midnightblue" d="M556.42,-166.41C506.72,-156.2 432.47,-140.96 386.48,-131.52"/>
<polygon fill="midnightblue" stroke="midnightblue" points="555.83,-169.86 566.33,-168.44 557.24,-163 555.83,-169.86"/>
</g>
<!-- Node10 -->
<g id="node10" class="node">
<title>Node10</title>
<g id="a_node10"><a xlink:href="disk__ops_8_h.html" target="_top" xlink:title=" ">
<polygon fill="white" stroke="black" points="84,-112.5 84,-131.5 154,-131.5 154,-112.5 84,-112.5"/>
<text text-anchor="middle" x="119" y="-119.5" font-family="Helvetica,sans-Serif" font-size="10.00">disk_ops.H</text>
</a>
</g>
</g>
<!-- Node1&#45;&gt;Node10 -->
<g id="edge11" class="edge">
<title>Node1&#45;&gt;Node10</title>
<path fill="none" stroke="midnightblue" d="M552.85,-173.22C468.53,-167.04 302.64,-153.29 163,-132 160.07,-131.55 157.04,-131.04 154.01,-130.49"/>
<polygon fill="midnightblue" stroke="midnightblue" points="552.74,-176.72 562.96,-173.96 553.24,-169.74 552.74,-176.72"/>
</g>
<!-- Node16 -->
<g id="node16" class="node">
<title>Node16</title>
<g id="a_node16"><a xlink:href="_act_src_disk_op___turbine_8_h.html" target="_top" xlink:title=" ">
<polygon fill="white" stroke="black" points="410,-112.5 410,-131.5 544,-131.5 544,-112.5 410,-112.5"/>
<text text-anchor="middle" x="477" y="-119.5" font-family="Helvetica,sans-Serif" font-size="10.00">ActSrcDiskOp_Turbine.H</text>
</a>
</g>
</g>
<!-- Node1&#45;&gt;Node16 -->
<g id="edge20" class="edge">
<title>Node1&#45;&gt;Node16</title>
<path fill="none" stroke="midnightblue" d="M577.68,-164.5C553.12,-154.38 519.18,-140.39 497.66,-131.52"/>
<polygon fill="midnightblue" stroke="midnightblue" points="576.66,-167.87 587.24,-168.44 579.33,-161.4 576.66,-167.87"/>
</g>
<!-- Node17 -->
<g id="node17" class="node">
<title>Node17</title>
<g id="a_node17"><a xlink:href="turbine__fast__ops_8_h.html" target="_top" xlink:title=" ">
<polygon fill="white" stroke="black" points="172,-112.5 172,-131.5 280,-131.5 280,-112.5 172,-112.5"/>
<text text-anchor="middle" x="226" y="-119.5" font-family="Helvetica,sans-Serif" font-size="10.00">turbine_fast_ops.H</text>
</a>
</g>
</g>
<!-- Node1&#45;&gt;Node17 -->
<g id="edge22" class="edge">
<title>Node1&#45;&gt;Node17</title>
<path fill="none" stroke="midnightblue" d="M552.77,-169.19C479.92,-158.89 352.49,-140.88 280.17,-130.66"/>
<polygon fill="midnightblue" stroke="midnightblue" points="552.29,-172.66 562.68,-170.59 553.27,-165.73 552.29,-172.66"/>
</g>
<!-- Node18 -->
<g id="node18" class="node">
<title>Node18</title>
<g id="a_node18"><a xlink:href="fixed__wing__ops_8_h.html" target="_top" xlink:title=" ">
<polygon fill="white" stroke="black" points="614.5,-56.5 614.5,-75.5 715.5,-75.5 715.5,-56.5 614.5,-56.5"/>
<text text-anchor="middle" x="665" y="-63.5" font-family="Helvetica,sans-Serif" font-size="10.00">fixed_wing_ops.H</text>
</a>
</g>
</g>
<!-- Node1&#45;&gt;Node18 -->
<g id="edge24" class="edge">
<title>Node1&#45;&gt;Node18</title>
<path fill="none" stroke="midnightblue" d="M653.38,-164.77C669.74,-157.93 686.49,-147.54 696,-132 707.74,-112.8 687.65,-88.47 674.68,-75.71"/>
<polygon fill="midnightblue" stroke="midnightblue" points="651.95,-161.57 643.85,-168.4 654.44,-168.11 651.95,-161.57"/>
</g>
<!-- Node19 -->
<g id="node19" class="node">
<title>Node19</title>
<g id="a_node19"><a xlink:href="flat__plate__ops_8_h.html" target="_top" xlink:title=" ">
<polygon fill="white" stroke="black" points="834.5,-56.5 834.5,-75.5 929.5,-75.5 929.5,-56.5 834.5,-56.5"/>
<text text-anchor="middle" x="882" y="-63.5" font-family="Helvetica,sans-Serif" font-size="10.00">flat_plate_ops.H</text>
</a>
</g>
</g>
<!-- Node1&#45;&gt;Node19 -->
<g id="edge26" class="edge">
<title>Node1&#45;&gt;Node19</title>
<path fill="none" stroke="midnightblue" d="M663.34,-176.34C710.99,-173.44 779.94,-163.47 831,-132 853.71,-118 870.34,-90.03 877.74,-75.78"/>
<polygon fill="midnightblue" stroke="midnightblue" points="663.01,-172.85 653.21,-176.87 663.38,-179.84 663.01,-172.85"/>
</g>
<!-- Node20 -->
<g id="node20" class="node">
<title>Node20</title>
<g id="a_node20"><a xlink:href="wing__ops_8_h.html" target="_top" xlink:title=" ">
<polygon fill="white" stroke="black" points="748.5,-112.5 748.5,-131.5 821.5,-131.5 821.5,-112.5 748.5,-112.5"/>
<text text-anchor="middle" x="785" y="-119.5" font-family="Helvetica,sans-Serif" font-size="10.00">wing_ops.H</text>
</a>
</g>
</g>
<!-- Node1&#45;&gt;Node20 -->
<g id="edge28" class="edge">
<title>Node1&#45;&gt;Node20</title>
<path fill="none" stroke="midnightblue" d="M645.9,-165.44C679.28,-155.26 727.1,-140.66 757.09,-131.52"/>
<polygon fill="midnightblue" stroke="midnightblue" points="644.59,-162.18 636.05,-168.44 646.63,-168.87 644.59,-162.18"/>
</g>
<!-- Node2&#45;&gt;Node3 -->
<g id="edge2" class="edge">
<title>Node2&#45;&gt;Node3</title>
<path fill="none" stroke="midnightblue" d="M590.53,-105.54C579.66,-95.91 566.06,-83.87 556.98,-75.83"/>
<polygon fill="midnightblue" stroke="midnightblue" points="588.39,-108.32 598.2,-112.32 593.03,-103.07 588.39,-108.32"/>
</g>
<!-- Node4 -->
<g id="node4" class="node">
<title>Node4</title>
<g id="a_node4"><a xlink:href="_actuator_8cpp.html" target="_top" xlink:title=" ">
<polygon fill="white" stroke="black" points="513.5,-0.5 513.5,-19.5 590.5,-19.5 590.5,-0.5 513.5,-0.5"/>
<text text-anchor="middle" x="552" y="-7.5" font-family="Helvetica,sans-Serif" font-size="10.00">Actuator.cpp</text>
</a>
</g>
</g>
<!-- Node3&#45;&gt;Node4 -->
<g id="edge3" class="edge">
<title>Node3&#45;&gt;Node4</title>
<path fill="none" stroke="midnightblue" d="M548.75,-46.1C549.58,-37.14 550.53,-26.86 551.19,-19.75"/>
<polygon fill="midnightblue" stroke="midnightblue" points="545.26,-45.8 547.83,-56.08 552.23,-46.45 545.26,-45.8"/>
</g>
<!-- Node5 -->
<g id="node5" class="node">
<title>Node5</title>
<g id="a_node5"><a xlink:href="_actuator_disk_8cpp.html" target="_top" xlink:title=" ">
<polygon fill="white" stroke="black" points="155,-0.5 155,-19.5 255,-19.5 255,-0.5 155,-0.5"/>
<text text-anchor="middle" x="205" y="-7.5" font-family="Helvetica,sans-Serif" font-size="10.00">ActuatorDisk.cpp</text>
</a>
</g>
</g>
<!-- Node3&#45;&gt;Node5 -->
<g id="edge4" class="edge">
<title>Node3&#45;&gt;Node5</title>
<path fill="none" stroke="midnightblue" d="M487.79,-55.65C421.98,-45.26 316.86,-28.66 255.02,-18.9"/>
<polygon fill="midnightblue" stroke="midnightblue" points="487.58,-59.16 498,-57.26 488.67,-52.25 487.58,-59.16"/>
</g>
<!-- Node6 -->
<g id="node6" class="node">
<title>Node6</title>
<g id="a_node6"><a xlink:href="_turbine_fast_8cpp.html" target="_top" xlink:title=" ">
<polygon fill="white" stroke="black" points="403,-0.5 403,-19.5 495,-19.5 495,-0.5 403,-0.5"/>
<text text-anchor="middle" x="449" y="-7.5" font-family="Helvetica,sans-Serif" font-size="10.00">TurbineFast.cpp</text>
</a>
</g>
</g>
<!-- Node3&#45;&gt;Node6 -->
<g id="edge5" class="edge">
<title>Node3&#45;&gt;Node6</title>
<path fill="none" stroke="midnightblue" d="M522.41,-51.45C504.32,-41.48 480.27,-28.23 464.71,-19.65"/>
<polygon fill="midnightblue" stroke="midnightblue" points="520.81,-54.56 531.25,-56.32 524.19,-48.43 520.81,-54.56"/>
</g>
<!-- Node7 -->
<g id="node7" class="node">
<title>Node7</title>
<g id="a_node7"><a xlink:href="_fixed_wing_8cpp.html" target="_top" xlink:title=" ">
<polygon fill="white" stroke="black" points="612.5,-0.5 612.5,-19.5 699.5,-19.5 699.5,-0.5 612.5,-0.5"/>
<text text-anchor="middle" x="656" y="-7.5" font-family="Helvetica,sans-Serif" font-size="10.00">FixedWing.cpp</text>
</a>
</g>
</g>
<!-- Node3&#45;&gt;Node7 -->
<g id="edge6" class="edge">
<title>Node3&#45;&gt;Node7</title>
<path fill="none" stroke="midnightblue" d="M573.52,-51.86C593.73,-41.85 620.99,-28.35 638.53,-19.65"/>
<polygon fill="midnightblue" stroke="midnightblue" points="571.92,-48.75 564.51,-56.32 575.03,-55.02 571.92,-48.75"/>
</g>
<!-- Node8 -->
<g id="node8" class="node">
<title>Node8</title>
<g id="a_node8"><a xlink:href="_flat_plate_8cpp.html" target="_top" xlink:title=" ">
<polygon fill="white" stroke="black" points="780,-0.5 780,-19.5 860,-19.5 860,-0.5 780,-0.5"/>
<text text-anchor="middle" x="820" y="-7.5" font-family="Helvetica,sans-Serif" font-size="10.00">FlatPlate.cpp</text>
</a>
</g>
</g>
<!-- Node3&#45;&gt;Node8 -->
<g id="edge7" class="edge">
<title>Node3&#45;&gt;Node8</title>
<path fill="none" stroke="midnightblue" d="M600.07,-54.5C652.64,-44.1 731.98,-28.41 779.61,-18.99"/>
<polygon fill="midnightblue" stroke="midnightblue" points="599.39,-51.07 590.26,-56.44 600.75,-57.94 599.39,-51.07"/>
</g>
<!-- Node9&#45;&gt;Node3 -->
<g id="edge10" class="edge">
<title>Node9&#45;&gt;Node3</title>
<path fill="none" stroke="midnightblue" d="M386.79,-109.83C424.93,-99.63 480.48,-84.78 515.14,-75.52"/>
<polygon fill="midnightblue" stroke="midnightblue" points="385.76,-106.48 377.01,-112.44 387.57,-113.24 385.76,-106.48"/>
</g>
<!-- Node11 -->
<g id="node11" class="node">
<title>Node11</title>
<g id="a_node11"><a xlink:href="disk__ops_8cpp.html" target="_top" xlink:title=" ">
<polygon fill="white" stroke="black" points="56,-56.5 56,-75.5 136,-75.5 136,-56.5 56,-56.5"/>
<text text-anchor="middle" x="96" y="-63.5" font-family="Helvetica,sans-Serif" font-size="10.00">disk_ops.cpp</text>
</a>
</g>
</g>
<!-- Node10&#45;&gt;Node11 -->
<g id="edge12" class="edge">
<title>Node10&#45;&gt;Node11</title>
<path fill="none" stroke="midnightblue" d="M111.2,-102.69C107.32,-93.59 102.82,-83.01 99.73,-75.75"/>
<polygon fill="midnightblue" stroke="midnightblue" points="108.06,-104.25 115.2,-112.08 114.5,-101.51 108.06,-104.25"/>
</g>
<!-- Node12 -->
<g id="node12" class="node">
<title>Node12</title>
<g id="a_node12"><a xlink:href="_joukowsky__ops_8cpp.html" target="_top" xlink:title=" ">
<polygon fill="white" stroke="black" points="0,-0.5 0,-19.5 110,-19.5 110,-0.5 0,-0.5"/>
<text text-anchor="middle" x="55" y="-7.5" font-family="Helvetica,sans-Serif" font-size="10.00">Joukowsky_ops.cpp</text>
</a>
</g>
</g>
<!-- Node10&#45;&gt;Node12 -->
<g id="edge13" class="edge">
<title>Node10&#45;&gt;Node12</title>
<path fill="none" stroke="midnightblue" d="M84.34,-108.24C70.1,-101.08 55.09,-90.59 47,-76 36.97,-57.9 45.24,-32.68 50.87,-19.62"/>
<polygon fill="midnightblue" stroke="midnightblue" points="82.95,-111.45 93.5,-112.47 85.89,-105.1 82.95,-111.45"/>
</g>
<!-- Node13 -->
<g id="node13" class="node">
<title>Node13</title>
<g id="a_node13"><a xlink:href="_joukowsky__ops_8_h.html" target="_top" xlink:title=" ">
<polygon fill="white" stroke="black" points="154.5,-56.5 154.5,-75.5 255.5,-75.5 255.5,-56.5 154.5,-56.5"/>
<text text-anchor="middle" x="205" y="-63.5" font-family="Helvetica,sans-Serif" font-size="10.00">Joukowsky_ops.H</text>
</a>
</g>
</g>
<!-- Node10&#45;&gt;Node13 -->
<g id="edge14" class="edge">
<title>Node10&#45;&gt;Node13</title>
<path fill="none" stroke="midnightblue" d="M141.45,-106.9C157.22,-97 177.81,-84.07 191.22,-75.65"/>
<polygon fill="midnightblue" stroke="midnightblue" points="139.43,-104.04 132.82,-112.32 143.15,-109.97 139.43,-104.04"/>
</g>
<!-- Node14 -->
<g id="node14" class="node">
<title>Node14</title>
<g id="a_node14"><a xlink:href="uniform__ct__ops_8_h.html" target="_top" xlink:title=" ">
<polygon fill="white" stroke="black" points="274,-56.5 274,-75.5 376,-75.5 376,-56.5 274,-56.5"/>
<text text-anchor="middle" x="325" y="-63.5" font-family="Helvetica,sans-Serif" font-size="10.00">uniform_ct_ops.H</text>
</a>
</g>
</g>
<!-- Node10&#45;&gt;Node14 -->
<g id="edge17" class="edge">
<title>Node10&#45;&gt;Node14</title>
<path fill="none" stroke="midnightblue" d="M161.62,-109.83C200.51,-99.63 257.16,-84.78 292.51,-75.52"/>
<polygon fill="midnightblue" stroke="midnightblue" points="160.43,-106.52 151.64,-112.44 162.2,-113.29 160.43,-106.52"/>
</g>
<!-- Node13&#45;&gt;Node5 -->
<g id="edge15" class="edge">
<title>Node13&#45;&gt;Node5</title>
<path fill="none" stroke="midnightblue" d="M205,-45.8C205,-36.91 205,-26.78 205,-19.75"/>
<polygon fill="midnightblue" stroke="midnightblue" points="201.5,-46.08 205,-56.08 208.5,-46.08 201.5,-46.08"/>
</g>
<!-- Node13&#45;&gt;Node12 -->
<g id="edge16" class="edge">
<title>Node13&#45;&gt;Node12</title>
<path fill="none" stroke="midnightblue" d="M171.78,-53.04C143.55,-42.88 103.74,-28.55 78.66,-19.52"/>
<polygon fill="midnightblue" stroke="midnightblue" points="170.64,-56.35 181.23,-56.44 173.01,-49.76 170.64,-56.35"/>
</g>
<!-- Node14&#45;&gt;Node5 -->
<g id="edge18" class="edge">
<title>Node14&#45;&gt;Node5</title>
<path fill="none" stroke="midnightblue" d="M296.63,-52.23C274.18,-42.13 243.46,-28.31 223.93,-19.52"/>
<polygon fill="midnightblue" stroke="midnightblue" points="295.43,-55.53 305.99,-56.44 298.3,-49.15 295.43,-55.53"/>
</g>
<!-- Node15 -->
<g id="node15" class="node">
<title>Node15</title>
<g id="a_node15"><a xlink:href="uniform__ct__ops_8cpp.html" target="_top" xlink:title=" ">
<polygon fill="white" stroke="black" points="273,-0.5 273,-19.5 385,-19.5 385,-0.5 273,-0.5"/>
<text text-anchor="middle" x="329" y="-7.5" font-family="Helvetica,sans-Serif" font-size="10.00">uniform_ct_ops.cpp</text>
</a>
</g>
</g>
<!-- Node14&#45;&gt;Node15 -->
<g id="edge19" class="edge">
<title>Node14&#45;&gt;Node15</title>
<path fill="none" stroke="midnightblue" d="M326.4,-46.1C327.06,-37.14 327.83,-26.86 328.35,-19.75"/>
<polygon fill="midnightblue" stroke="midnightblue" points="322.91,-45.85 325.66,-56.08 329.89,-46.37 322.91,-45.85"/>
</g>
<!-- Node16&#45;&gt;Node3 -->
<g id="edge21" class="edge">
<title>Node16&#45;&gt;Node3</title>
<path fill="none" stroke="midnightblue" d="M496.31,-106.1C508.91,-96.38 524.93,-84.03 535.55,-75.83"/>
<polygon fill="midnightblue" stroke="midnightblue" points="494.03,-103.44 488.25,-112.32 498.3,-108.99 494.03,-103.44"/>
</g>
<!-- Node17&#45;&gt;Node6 -->
<g id="edge23" class="edge">
<title>Node17&#45;&gt;Node6</title>
<path fill="none" stroke="midnightblue" d="M290.33,-110.69C320.55,-103.93 356.17,-93.07 385,-76 410.35,-61 432.65,-33.48 442.95,-19.56"/>
<polygon fill="midnightblue" stroke="midnightblue" points="289.36,-107.32 280.31,-112.83 290.82,-114.17 289.36,-107.32"/>
</g>
<!-- Node18&#45;&gt;Node7 -->
<g id="edge25" class="edge">
<title>Node18&#45;&gt;Node7</title>
<path fill="none" stroke="midnightblue" d="M661.85,-46.1C660.36,-37.14 658.64,-26.86 657.46,-19.75"/>
<polygon fill="midnightblue" stroke="midnightblue" points="658.42,-46.79 663.51,-56.08 665.32,-45.64 658.42,-46.79"/>
</g>
<!-- Node19&#45;&gt;Node8 -->
<g id="edge27" class="edge">
<title>Node19&#45;&gt;Node8</title>
<path fill="none" stroke="midnightblue" d="M864.25,-49.54C853.19,-39.91 839.37,-27.87 830.14,-19.83"/>
<polygon fill="midnightblue" stroke="midnightblue" points="862.2,-52.4 872.04,-56.32 866.8,-47.12 862.2,-52.4"/>
</g>
<!-- Node20&#45;&gt;Node18 -->
<g id="edge29" class="edge">
<title>Node20&#45;&gt;Node18</title>
<path fill="none" stroke="midnightblue" d="M756.63,-108.23C734.18,-98.13 703.46,-84.31 683.93,-75.52"/>
<polygon fill="midnightblue" stroke="midnightblue" points="755.43,-111.53 765.99,-112.44 758.3,-105.15 755.43,-111.53"/>
</g>
<!-- Node20&#45;&gt;Node19 -->
<g id="edge30" class="edge">
<title>Node20&#45;&gt;Node19</title>
<path fill="none" stroke="midnightblue" d="M809.34,-107.45C827.24,-97.48 851.05,-84.23 866.45,-75.65"/>
<polygon fill="midnightblue" stroke="midnightblue" points="807.62,-104.4 800.58,-112.32 811.02,-110.52 807.62,-104.4"/>
</g>
<!-- Node21 -->
<g id="node21" class="node">
<title>Node21</title>
<g id="a_node21"><a xlink:href="wing__ops_8cpp.html" target="_top" xlink:title=" ">
<polygon fill="white" stroke="black" points="733.5,-56.5 733.5,-75.5 816.5,-75.5 816.5,-56.5 733.5,-56.5"/>
<text text-anchor="middle" x="775" y="-63.5" font-family="Helvetica,sans-Serif" font-size="10.00">wing_ops.cpp</text>
</a>
</g>
</g>
<!-- Node20&#45;&gt;Node21 -->
<g id="edge31" class="edge">
<title>Node20&#45;&gt;Node21</title>
<path fill="none" stroke="midnightblue" d="M781.5,-102.1C779.84,-93.14 777.94,-82.86 776.62,-75.75"/>
<polygon fill="midnightblue" stroke="midnightblue" points="778.09,-102.89 783.35,-112.08 784.97,-101.61 778.09,-102.89"/>
</g>
</g>
</svg>
