<?xml version="1.0" encoding="UTF-8" standalone="no"?>
<!DOCTYPE svg PUBLIC "-//W3C//DTD SVG 1.1//EN"
 "http://www.w3.org/Graphics/SVG/1.1/DTD/svg11.dtd">
<!-- Generated by graphviz version 2.43.0 (0)
 -->
<!-- Title: amr_wind::sampling::Sampling Pages: 1 -->
<svg width="2104pt" height="717pt"
 viewBox="0.00 0.00 2104.00 717.31" xmlns="http://www.w3.org/2000/svg" xmlns:xlink="http://www.w3.org/1999/xlink">
<g id="graph0" class="graph" transform="scale(1 1) rotate(0) translate(4 713.31)">
<title>amr_wind::sampling::Sampling</title>
<polygon fill="white" stroke="transparent" points="-4,4 -4,-713.31 2100,-713.31 2100,4 -4,4"/>
<!-- Node1 -->
<g id="node1" class="node">
<title>Node1</title>
<g id="a_node1"><a xlink:title="Collection of data sampling objects.">
<polygon fill="#bfbfbf" stroke="black" points="1971.5,-593.81 1971.5,-623.81 2087.5,-623.81 2087.5,-593.81 1971.5,-593.81"/>
<text text-anchor="start" x="1979.5" y="-611.81" font-family="Helvetica,sans-Serif" font-size="10.00">amr_wind::sampling</text>
<text text-anchor="middle" x="2029.5" y="-600.81" font-family="Helvetica,sans-Serif" font-size="10.00">::Sampling</text>
</a>
</g>
</g>
<!-- Node2 -->
<g id="node2" class="node">
<title>Node2</title>
<g id="a_node2"><a xlink:title=" ">
<polygon fill="white" stroke="#bfbfbf" points="1720,-678.81 1720,-708.81 1866,-708.81 1866,-678.81 1720,-678.81"/>
<text text-anchor="start" x="1728" y="-696.81" font-family="Helvetica,sans-Serif" font-size="10.00">PostProcessBase::Register</text>
<text text-anchor="middle" x="1793" y="-685.81" font-family="Helvetica,sans-Serif" font-size="10.00">&lt; Sampling &gt;</text>
</a>
</g>
</g>
<!-- Node2&#45;&gt;Node1 -->
<g id="edge1" class="edge">
<title>Node2&#45;&gt;Node1</title>
<path fill="none" stroke="midnightblue" d="M1876.32,-683.4C1899.1,-678.94 1923.46,-672.65 1945,-663.81 1969.25,-653.86 1993.94,-636.51 2010.12,-623.96"/>
<polygon fill="midnightblue" stroke="midnightblue" points="1875.52,-679.99 1866.33,-685.27 1876.8,-686.87 1875.52,-679.99"/>
</g>
<!-- Node3 -->
<g id="node3" class="node">
<title>Node3</title>
<g id="a_node3"><a xlink:title=" ">
<polygon fill="white" stroke="#bfbfbf" points="1496,-554.81 1496,-584.81 1702,-584.81 1702,-554.81 1496,-554.81"/>
<text text-anchor="start" x="1504" y="-572.81" font-family="Helvetica,sans-Serif" font-size="10.00">std::unique_ptr&lt; amr</text>
<text text-anchor="middle" x="1599" y="-561.81" font-family="Helvetica,sans-Serif" font-size="10.00">_wind::sampling::SamplingContainer &gt;</text>
</a>
</g>
</g>
<!-- Node3&#45;&gt;Node1 -->
<g id="edge2" class="edge">
<title>Node3&#45;&gt;Node1</title>
<path fill="none" stroke="#9a32cd" stroke-dasharray="5,2" d="M1712.1,-580.01C1795.27,-587.58 1905.26,-597.59 1971.23,-603.6"/>
<polygon fill="#9a32cd" stroke="#9a32cd" points="1712.37,-576.52 1702.09,-579.1 1711.73,-583.49 1712.37,-576.52"/>
<text text-anchor="middle" x="1793" y="-595.81" font-family="Helvetica,sans-Serif" font-size="10.00"> m_scontainer</text>
</g>
<!-- Node4 -->
<g id="node4" class="node">
<title>Node4</title>
<g id="a_node4"><a xlink:title=" ">
<polygon fill="white" stroke="#bfbfbf" points="973.5,-351.31 973.5,-370.31 1091.5,-370.31 1091.5,-351.31 973.5,-351.31"/>
<text text-anchor="middle" x="1032.5" y="-358.31" font-family="Helvetica,sans-Serif" font-size="10.00">std::unique_ptr&lt; T &gt;</text>
</a>
</g>
</g>
<!-- Node4&#45;&gt;Node3 -->
<g id="edge3" class="edge">
<title>Node4&#45;&gt;Node3</title>
<path fill="none" stroke="orange" stroke-dasharray="5,2" d="M1035.51,-380.7C1040.69,-420.14 1058.31,-507.8 1115,-546.81 1145.49,-567.79 1363.24,-570.78 1495.74,-570.61"/>
<polygon fill="orange" stroke="orange" points="1038.99,-380.25 1034.34,-370.73 1032.03,-381.07 1038.99,-380.25"/>
<text text-anchor="start" x="1148.5" y="-580.81" font-family="Helvetica,sans-Serif" font-size="10.00"> &lt; amr_wind::sampling</text>
<text text-anchor="middle" x="1205.5" y="-569.81" font-family="Helvetica,sans-Serif" font-size="10.00">::SamplingContainer &gt;</text>
</g>
<!-- Node7 -->
<g id="node7" class="node">
<title>Node7</title>
<g id="a_node7"><a xlink:title=" ">
<polygon fill="white" stroke="#bfbfbf" points="1329.5,-177.81 1329.5,-207.81 1462.5,-207.81 1462.5,-177.81 1329.5,-177.81"/>
<text text-anchor="start" x="1337.5" y="-195.81" font-family="Helvetica,sans-Serif" font-size="10.00">std::unique_ptr&lt; amr</text>
<text text-anchor="middle" x="1396" y="-184.81" font-family="Helvetica,sans-Serif" font-size="10.00">_wind::helics_storage &gt;</text>
</a>
</g>
</g>
<!-- Node4&#45;&gt;Node7 -->
<g id="edge7" class="edge">
<title>Node4&#45;&gt;Node7</title>
<path fill="none" stroke="orange" stroke-dasharray="5,2" d="M1038.41,-341.06C1047.5,-309.05 1070.26,-246.54 1115,-217.81 1178.96,-176.73 1268.73,-176.38 1329.24,-182.41"/>
<polygon fill="orange" stroke="orange" points="1034.95,-340.43 1035.75,-351 1041.71,-342.24 1034.95,-340.43"/>
<text text-anchor="start" x="1157" y="-231.81" font-family="Helvetica,sans-Serif" font-size="10.00"> &lt; amr_wind::helics</text>
<text text-anchor="middle" x="1205.5" y="-220.81" font-family="Helvetica,sans-Serif" font-size="10.00">_storage &gt;</text>
</g>
<!-- Node8 -->
<g id="node8" class="node">
<title>Node8</title>
<g id="a_node8"><a xlink:title=" ">
<polygon fill="white" stroke="#bfbfbf" points="1336,-434.81 1336,-464.81 1456,-464.81 1456,-434.81 1336,-434.81"/>
<text text-anchor="start" x="1344" y="-452.81" font-family="Helvetica,sans-Serif" font-size="10.00">std::unique_ptr&lt; amr</text>
<text text-anchor="middle" x="1396" y="-441.81" font-family="Helvetica,sans-Serif" font-size="10.00">_wind::IOManager &gt;</text>
</a>
</g>
</g>
<!-- Node4&#45;&gt;Node8 -->
<g id="edge9" class="edge">
<title>Node4&#45;&gt;Node8</title>
<path fill="none" stroke="orange" stroke-dasharray="5,2" d="M1054.41,-376.61C1070.22,-387.72 1092.89,-401.95 1115,-409.81 1188.22,-435.84 1277.91,-444.97 1335.73,-448.15"/>
<polygon fill="orange" stroke="orange" points="1056.12,-373.52 1045.96,-370.5 1052.02,-379.19 1056.12,-373.52"/>
<text text-anchor="middle" x="1205.5" y="-447.81" font-family="Helvetica,sans-Serif" font-size="10.00"> &lt; amr_wind::IOManager &gt;</text>
</g>
<!-- Node9 -->
<g id="node9" class="node">
<title>Node9</title>
<g id="a_node9"><a xlink:title=" ">
<polygon fill="white" stroke="#bfbfbf" points="1314,-324.81 1314,-354.81 1478,-354.81 1478,-324.81 1314,-324.81"/>
<text text-anchor="start" x="1322" y="-342.81" font-family="Helvetica,sans-Serif" font-size="10.00">std::unique_ptr&lt; amr</text>
<text text-anchor="middle" x="1396" y="-331.81" font-family="Helvetica,sans-Serif" font-size="10.00">_wind::PostProcessManager &gt;</text>
</a>
</g>
</g>
<!-- Node4&#45;&gt;Node9 -->
<g id="edge11" class="edge">
<title>Node4&#45;&gt;Node9</title>
<path fill="none" stroke="orange" stroke-dasharray="5,2" d="M1102.06,-356.58C1106.44,-356.32 1110.78,-356.06 1115,-355.81 1181.95,-351.84 1257.92,-347.51 1313.82,-344.36"/>
<polygon fill="orange" stroke="orange" points="1101.59,-353.1 1091.82,-357.2 1102.01,-360.09 1101.59,-353.1"/>
<text text-anchor="middle" x="1205.5" y="-358.81" font-family="Helvetica,sans-Serif" font-size="10.00"> &lt; amr_wind::PostProcessManager &gt;</text>
</g>
<!-- Node18 -->
<g id="node18" class="node">
<title>Node18</title>
<g id="a_node18"><a xlink:title=" ">
<polygon fill="white" stroke="#bfbfbf" points="1534,-465.81 1534,-495.81 1664,-495.81 1664,-465.81 1534,-465.81"/>
<text text-anchor="start" x="1542" y="-483.81" font-family="Helvetica,sans-Serif" font-size="10.00">std::unique_ptr&lt; amr</text>
<text text-anchor="middle" x="1599" y="-472.81" font-family="Helvetica,sans-Serif" font-size="10.00">_wind::pde::PDEBase &gt;</text>
</a>
</g>
</g>
<!-- Node4&#45;&gt;Node18 -->
<g id="edge24" class="edge">
<title>Node4&#45;&gt;Node18</title>
<path fill="none" stroke="orange" stroke-dasharray="5,2" d="M1042.62,-379.23C1055.29,-402.59 1080.59,-441.95 1115,-459.81 1186.06,-496.68 1419.38,-490.26 1533.71,-484.6"/>
<polygon fill="orange" stroke="orange" points="1045.7,-377.57 1037.97,-370.31 1039.49,-380.8 1045.7,-377.57"/>
<text text-anchor="middle" x="1205.5" y="-489.81" font-family="Helvetica,sans-Serif" font-size="10.00"> &lt; amr_wind::pde::PDEBase &gt;</text>
</g>
<!-- Node20 -->
<g id="node20" class="node">
<title>Node20</title>
<g id="a_node20"><a xlink:title=" ">
<polygon fill="white" stroke="#bfbfbf" points="1324.5,-226.81 1324.5,-256.81 1467.5,-256.81 1467.5,-226.81 1324.5,-226.81"/>
<text text-anchor="start" x="1332.5" y="-244.81" font-family="Helvetica,sans-Serif" font-size="10.00">std::unique_ptr&lt; amr</text>
<text text-anchor="middle" x="1396" y="-233.81" font-family="Helvetica,sans-Serif" font-size="10.00">_wind::OversetManager &gt;</text>
</a>
</g>
</g>
<!-- Node4&#45;&gt;Node20 -->
<g id="edge27" class="edge">
<title>Node4&#45;&gt;Node20</title>
<path fill="none" stroke="orange" stroke-dasharray="5,2" d="M1046.87,-343.26C1061.52,-325.42 1086.72,-298.52 1115,-284.81 1181.16,-252.73 1265.54,-243.46 1324.29,-241.29"/>
<polygon fill="orange" stroke="orange" points="1044.05,-341.19 1040.56,-351.19 1049.53,-345.55 1044.05,-341.19"/>
<text text-anchor="middle" x="1205.5" y="-287.81" font-family="Helvetica,sans-Serif" font-size="10.00"> &lt; amr_wind::OversetManager &gt;</text>
</g>
<!-- Node21 -->
<g id="node21" class="node">
<title>Node21</title>
<g id="a_node21"><a xlink:title=" ">
<polygon fill="white" stroke="#bfbfbf" points="1315.5,-374.31 1315.5,-415.31 1476.5,-415.31 1476.5,-374.31 1315.5,-374.31"/>
<text text-anchor="start" x="1323.5" y="-403.31" font-family="Helvetica,sans-Serif" font-size="10.00">std::unique_ptr&lt; amr</text>
<text text-anchor="start" x="1323.5" y="-392.31" font-family="Helvetica,sans-Serif" font-size="10.00">_wind::turbulence::Turbulence</text>
<text text-anchor="middle" x="1396" y="-381.31" font-family="Helvetica,sans-Serif" font-size="10.00">Model &gt;</text>
</a>
</g>
</g>
<!-- Node4&#45;&gt;Node21 -->
<g id="edge29" class="edge">
<title>Node4&#45;&gt;Node21</title>
<path fill="none" stroke="orange" stroke-dasharray="5,2" d="M1101.84,-367.24C1162.63,-372.95 1251.55,-381.32 1315.5,-387.33"/>
<polygon fill="orange" stroke="orange" points="1101.87,-363.72 1091.58,-366.27 1101.21,-370.69 1101.87,-363.72"/>
<text text-anchor="start" x="1145" y="-397.81" font-family="Helvetica,sans-Serif" font-size="10.00"> &lt; amr_wind::turbulence</text>
<text text-anchor="middle" x="1205.5" y="-386.81" font-family="Helvetica,sans-Serif" font-size="10.00">::TurbulenceModel &gt;</text>
</g>
<!-- Node24 -->
<g id="node24" class="node">
<title>Node24</title>
<g id="a_node24"><a xlink:title=" ">
<polygon fill="white" stroke="#bfbfbf" points="1336,-89.81 1336,-119.81 1456,-119.81 1456,-89.81 1336,-89.81"/>
<text text-anchor="start" x="1344" y="-107.81" font-family="Helvetica,sans-Serif" font-size="10.00">std::unique_ptr&lt; amr</text>
<text text-anchor="middle" x="1396" y="-96.81" font-family="Helvetica,sans-Serif" font-size="10.00">_wind::MeshMap &gt;</text>
</a>
</g>
</g>
<!-- Node4&#45;&gt;Node24 -->
<g id="edge35" class="edge">
<title>Node4&#45;&gt;Node24</title>
<path fill="none" stroke="orange" stroke-dasharray="5,2" d="M1035.67,-341.23C1041.18,-301.45 1059.44,-211.03 1115,-164.81 1177.39,-112.9 1274.07,-102.8 1335.94,-102.29"/>
<polygon fill="orange" stroke="orange" points="1032.19,-340.88 1034.41,-351.24 1039.14,-341.75 1032.19,-340.88"/>
<text text-anchor="middle" x="1205.5" y="-167.81" font-family="Helvetica,sans-Serif" font-size="10.00"> &lt; amr_wind::MeshMap &gt;</text>
</g>
<!-- Node25 -->
<g id="node25" class="node">
<title>Node25</title>
<g id="a_node25"><a xlink:title=" ">
<polygon fill="white" stroke="#bfbfbf" points="1332,-275.81 1332,-305.81 1460,-305.81 1460,-275.81 1332,-275.81"/>
<text text-anchor="start" x="1340" y="-293.81" font-family="Helvetica,sans-Serif" font-size="10.00">std::unique_ptr&lt; amr</text>
<text text-anchor="middle" x="1396" y="-282.81" font-family="Helvetica,sans-Serif" font-size="10.00">_wind::ExtSolverMgr &gt;</text>
</a>
</g>
</g>
<!-- Node4&#45;&gt;Node25 -->
<g id="edge37" class="edge">
<title>Node4&#45;&gt;Node25</title>
<path fill="none" stroke="orange" stroke-dasharray="5,2" d="M1063.88,-347.38C1078.99,-341.19 1097.68,-334.25 1115,-329.81 1188.22,-311.04 1274.67,-300.74 1331.94,-295.51"/>
<polygon fill="orange" stroke="orange" points="1062.39,-344.21 1054.52,-351.31 1065.1,-350.67 1062.39,-344.21"/>
<text text-anchor="middle" x="1205.5" y="-332.81" font-family="Helvetica,sans-Serif" font-size="10.00"> &lt; amr_wind::ExtSolverMgr &gt;</text>
</g>
<!-- Node5 -->
<g id="node5" class="node">
<title>Node5</title>
<g id="a_node5"><a xlink:title=" ">
<polygon fill="white" stroke="#bfbfbf" points="37.5,-351.31 37.5,-370.31 66.5,-370.31 66.5,-351.31 37.5,-351.31"/>
<text text-anchor="middle" x="52" y="-358.31" font-family="Helvetica,sans-Serif" font-size="10.00">T</text>
</a>
</g>
</g>
<!-- Node5&#45;&gt;Node4 -->
<g id="edge4" class="edge">
<title>Node5&#45;&gt;Node4</title>
<path fill="none" stroke="#9a32cd" stroke-dasharray="5,2" d="M77.07,-363.07C113.41,-366.29 184.48,-371.81 245,-371.81 245,-371.81 245,-371.81 744.5,-371.81 823.78,-371.81 915.29,-367.57 973.26,-364.35"/>
<polygon fill="#9a32cd" stroke="#9a32cd" points="77.23,-359.58 66.96,-362.16 76.6,-366.55 77.23,-359.58"/>
<text text-anchor="middle" x="509" y="-374.81" font-family="Helvetica,sans-Serif" font-size="10.00"> ptr</text>
</g>
<!-- Node16 -->
<g id="node16" class="node">
<title>Node16</title>
<g id="a_node16"><a xlink:title=" ">
<polygon fill="white" stroke="#bfbfbf" points="189,-310.81 189,-340.81 303,-340.81 303,-310.81 189,-310.81"/>
<text text-anchor="start" x="197" y="-328.81" font-family="Helvetica,sans-Serif" font-size="10.00">std::unordered_map</text>
<text text-anchor="middle" x="246" y="-317.81" font-family="Helvetica,sans-Serif" font-size="10.00">&lt; K, T &gt;</text>
</a>
</g>
</g>
<!-- Node5&#45;&gt;Node16 -->
<g id="edge20" class="edge">
<title>Node5&#45;&gt;Node16</title>
<path fill="none" stroke="#9a32cd" stroke-dasharray="5,2" d="M76.52,-355.85C89.84,-353.09 106.83,-349.64 122,-346.81 143.83,-342.73 167.89,-338.55 188.91,-335.01"/>
<polygon fill="#9a32cd" stroke="#9a32cd" points="75.8,-352.42 66.72,-357.89 77.23,-359.28 75.8,-352.42"/>
<text text-anchor="middle" x="146.5" y="-349.81" font-family="Helvetica,sans-Serif" font-size="10.00"> elements</text>
</g>
<!-- Node6 -->
<g id="node6" class="node">
<title>Node6</title>
<g id="a_node6"><a xlink:href="classamr__wind_1_1_c_f_d_sim.html" target="_top" xlink:title="Data structures for a CFD simulation.">
<polygon fill="white" stroke="black" points="1738,-307.31 1738,-326.31 1848,-326.31 1848,-307.31 1738,-307.31"/>
<text text-anchor="middle" x="1793" y="-314.31" font-family="Helvetica,sans-Serif" font-size="10.00">amr_wind::CFDSim</text>
</a>
</g>
</g>
<!-- Node6&#45;&gt;Node1 -->
<g id="edge5" class="edge">
<title>Node6&#45;&gt;Node1</title>
<path fill="none" stroke="#9a32cd" stroke-dasharray="5,2" d="M1808.08,-334.35C1850.54,-387.21 1976.77,-544.39 2016.43,-593.78"/>
<polygon fill="#9a32cd" stroke="#9a32cd" points="1810.79,-332.13 1801.8,-326.52 1805.33,-336.51 1810.79,-332.13"/>
<text text-anchor="middle" x="1914.5" y="-499.81" font-family="Helvetica,sans-Serif" font-size="10.00"> m_sim</text>
</g>
<!-- Node10 -->
<g id="node10" class="node">
<title>Node10</title>
<g id="a_node10"><a xlink:href="classamr__wind_1_1pde_1_1_p_d_e_mgr.html" target="_top" xlink:title="PDE systems manager.">
<polygon fill="white" stroke="black" points="1963,-341.31 1963,-360.31 2096,-360.31 2096,-341.31 1963,-341.31"/>
<text text-anchor="middle" x="2029.5" y="-348.31" font-family="Helvetica,sans-Serif" font-size="10.00">amr_wind::pde::PDEMgr</text>
</a>
</g>
</g>
<!-- Node6&#45;&gt;Node10 -->
<g id="edge21" class="edge">
<title>Node6&#45;&gt;Node10</title>
<path fill="none" stroke="#9a32cd" stroke-dasharray="5,2" d="M1858.39,-326.15C1890.92,-330.86 1930.3,-336.57 1962.98,-341.31"/>
<polygon fill="#9a32cd" stroke="#9a32cd" points="1858.49,-322.62 1848.09,-324.65 1857.49,-329.55 1858.49,-322.62"/>
<text text-anchor="middle" x="1914.5" y="-340.81" font-family="Helvetica,sans-Serif" font-size="10.00"> m_sim</text>
</g>
<!-- Node7&#45;&gt;Node6 -->
<g id="edge6" class="edge">
<title>Node7&#45;&gt;Node6</title>
<path fill="none" stroke="#9a32cd" stroke-dasharray="5,2" d="M1472.73,-190.12C1536.73,-190.73 1629.33,-198.54 1702,-232.81 1739.31,-250.4 1771.52,-289.21 1785.11,-307.25"/>
<polygon fill="#9a32cd" stroke="#9a32cd" points="1472.72,-186.62 1462.71,-190.08 1472.69,-193.62 1472.72,-186.62"/>
<text text-anchor="middle" x="1599" y="-235.81" font-family="Helvetica,sans-Serif" font-size="10.00"> m_helics</text>
</g>
<!-- Node8&#45;&gt;Node6 -->
<g id="edge8" class="edge">
<title>Node8&#45;&gt;Node6</title>
<path fill="none" stroke="#9a32cd" stroke-dasharray="5,2" d="M1466.33,-442.52C1543.12,-433.67 1661.46,-417.44 1702,-397.81 1738.14,-380.31 1770.45,-343.84 1784.53,-326.44"/>
<polygon fill="#9a32cd" stroke="#9a32cd" points="1465.79,-439.06 1456.25,-443.67 1466.58,-446.02 1465.79,-439.06"/>
<text text-anchor="middle" x="1599" y="-440.81" font-family="Helvetica,sans-Serif" font-size="10.00"> m_io_mgr</text>
</g>
<!-- Node9&#45;&gt;Node6 -->
<g id="edge10" class="edge">
<title>Node9&#45;&gt;Node6</title>
<path fill="none" stroke="#9a32cd" stroke-dasharray="5,2" d="M1488.58,-334.48C1565.84,-329.98 1673.81,-323.69 1737.95,-319.96"/>
<polygon fill="#9a32cd" stroke="#9a32cd" points="1488.14,-331 1478.37,-335.07 1488.55,-337.98 1488.14,-331"/>
<text text-anchor="middle" x="1599" y="-335.81" font-family="Helvetica,sans-Serif" font-size="10.00"> m_post_mgr</text>
</g>
<!-- Node10&#45;&gt;Node6 -->
<g id="edge12" class="edge">
<title>Node10&#45;&gt;Node6</title>
<path fill="none" stroke="#9a32cd" stroke-dasharray="5,2" d="M2000.95,-336.93C1985.04,-329.69 1964.39,-321.57 1945,-317.81 1913.34,-311.67 1877.25,-311.2 1848.29,-312.37"/>
<polygon fill="#9a32cd" stroke="#9a32cd" points="1999.66,-340.19 2010.2,-341.29 2002.64,-333.86 1999.66,-340.19"/>
<text text-anchor="middle" x="1914.5" y="-320.81" font-family="Helvetica,sans-Serif" font-size="10.00"> m_pde_mgr</text>
</g>
<!-- Node11 -->
<g id="node11" class="node">
<title>Node11</title>
<g id="a_node11"><a xlink:href="classamr__wind_1_1_coll_mgr.html" target="_top" xlink:title=" ">
<polygon fill="white" stroke="black" points="1146,-7.81 1146,-37.81 1265,-37.81 1265,-7.81 1146,-7.81"/>
<text text-anchor="start" x="1154" y="-25.81" font-family="Helvetica,sans-Serif" font-size="10.00">amr_wind::CollMgr&lt;</text>
<text text-anchor="middle" x="1205.5" y="-14.81" font-family="Helvetica,sans-Serif" font-size="10.00"> PDEMgr, PDEBase &gt;</text>
</a>
</g>
</g>
<!-- Node11&#45;&gt;Node10 -->
<g id="edge13" class="edge">
<title>Node11&#45;&gt;Node10</title>
<path fill="none" stroke="midnightblue" d="M1275.2,-11.59C1373.96,1.43 1559.82,14.11 1702,-45.81 1862.47,-113.44 1992.58,-297.01 2022.18,-341.16"/>
<polygon fill="midnightblue" stroke="midnightblue" points="1274.48,-8.15 1265.05,-12.97 1275.43,-15.09 1274.48,-8.15"/>
</g>
<!-- Node12 -->
<g id="node12" class="node">
<title>Node12</title>
<g id="a_node12"><a xlink:href="classamr__wind_1_1_coll_mgr.html" target="_top" xlink:title="Interface to manage objects of sub&#45;classes based on factory registration.">
<polygon fill="white" stroke="black" points="679,-46.31 679,-87.31 808,-87.31 808,-46.31 679,-46.31"/>
<text text-anchor="start" x="687" y="-75.31" font-family="Helvetica,sans-Serif" font-size="10.00">amr_wind::CollMgr&lt;</text>
<text text-anchor="start" x="687" y="-64.31" font-family="Helvetica,sans-Serif" font-size="10.00"> Collection, Type, allow</text>
<text text-anchor="middle" x="743.5" y="-53.31" font-family="Helvetica,sans-Serif" font-size="10.00">_duplicates &gt;</text>
</a>
</g>
</g>
<!-- Node12&#45;&gt;Node11 -->
<g id="edge14" class="edge">
<title>Node12&#45;&gt;Node11</title>
<path fill="none" stroke="orange" stroke-dasharray="5,2" d="M817.94,-52.92C820.65,-52.53 823.35,-52.15 826,-51.81 938.74,-37.16 1071.4,-29.08 1145.95,-25.38"/>
<polygon fill="orange" stroke="orange" points="817.37,-49.47 808.02,-54.45 818.44,-56.39 817.37,-49.47"/>
<text text-anchor="middle" x="888" y="-54.81" font-family="Helvetica,sans-Serif" font-size="10.00"> &lt; PDEMgr, PDEBase &gt;</text>
</g>
<!-- Node27 -->
<g id="node27" class="node">
<title>Node27</title>
<g id="a_node27"><a xlink:href="classamr__wind_1_1_coll_mgr.html" target="_top" xlink:title=" ">
<polygon fill="white" stroke="black" points="968,-51.81 968,-81.81 1097,-81.81 1097,-51.81 968,-51.81"/>
<text text-anchor="start" x="976" y="-69.81" font-family="Helvetica,sans-Serif" font-size="10.00">amr_wind::CollMgr&lt;</text>
<text text-anchor="middle" x="1032.5" y="-58.81" font-family="Helvetica,sans-Serif" font-size="10.00"> PhysicsMgr, Physics &gt;</text>
</a>
</g>
</g>
<!-- Node12&#45;&gt;Node27 -->
<g id="edge40" class="edge">
<title>Node12&#45;&gt;Node27</title>
<path fill="none" stroke="orange" stroke-dasharray="5,2" d="M818.47,-66.81C864.77,-66.81 923.81,-66.81 967.98,-66.81"/>
<polygon fill="orange" stroke="orange" points="818.19,-63.31 808.19,-66.81 818.19,-70.31 818.19,-63.31"/>
<text text-anchor="middle" x="888" y="-69.81" font-family="Helvetica,sans-Serif" font-size="10.00"> &lt; PhysicsMgr, Physics &gt;</text>
</g>
<!-- Node13 -->
<g id="node13" class="node">
<title>Node13</title>
<g id="a_node13"><a xlink:title=" ">
<polygon fill="white" stroke="#bfbfbf" points="452,-304.81 452,-334.81 566,-334.81 566,-304.81 452,-304.81"/>
<text text-anchor="start" x="460" y="-322.81" font-family="Helvetica,sans-Serif" font-size="10.00">std::unordered_map</text>
<text text-anchor="middle" x="509" y="-311.81" font-family="Helvetica,sans-Serif" font-size="10.00">&lt; std::string, int &gt;</text>
</a>
</g>
</g>
<!-- Node13&#45;&gt;Node12 -->
<g id="edge15" class="edge">
<title>Node13&#45;&gt;Node12</title>
<path fill="none" stroke="#9a32cd" stroke-dasharray="5,2" d="M530.73,-297.25C575.4,-248.65 680.18,-134.63 723.37,-87.63"/>
<polygon fill="#9a32cd" stroke="#9a32cd" points="528.04,-295.01 523.85,-304.74 533.19,-299.75 528.04,-295.01"/>
<text text-anchor="middle" x="624.5" y="-233.81" font-family="Helvetica,sans-Serif" font-size="10.00"> m_obj_map</text>
</g>
<!-- Node14 -->
<g id="node14" class="node">
<title>Node14</title>
<g id="a_node14"><a xlink:title=" ">
<polygon fill="white" stroke="#bfbfbf" points="213.5,-567.31 213.5,-586.31 278.5,-586.31 278.5,-567.31 213.5,-567.31"/>
<text text-anchor="middle" x="246" y="-574.31" font-family="Helvetica,sans-Serif" font-size="10.00">std::string</text>
</a>
</g>
</g>
<!-- Node14&#45;&gt;Node1 -->
<g id="edge41" class="edge">
<title>Node14&#45;&gt;Node1</title>
<path fill="none" stroke="#9a32cd" stroke-dasharray="5,2" d="M269.96,-591.72C284.14,-600.28 303.01,-610.54 321,-616.81 400.7,-644.56 423.6,-649.81 508,-649.81 508,-649.81 508,-649.81 1794,-649.81 1856.41,-649.81 1926.78,-635.54 1974.01,-623.84"/>
<polygon fill="#9a32cd" stroke="#9a32cd" points="271.72,-588.69 261.38,-586.4 268.03,-594.64 271.72,-588.69"/>
<text text-anchor="middle" x="1032.5" y="-674.81" font-family="Helvetica,sans-Serif" font-size="10.00"> m_label</text>
<text text-anchor="middle" x="1032.5" y="-663.81" font-family="Helvetica,sans-Serif" font-size="10.00">m_ncfile_name</text>
<text text-anchor="middle" x="1032.5" y="-652.81" font-family="Helvetica,sans-Serif" font-size="10.00">m_out_fmt</text>
</g>
<!-- Node14&#45;&gt;Node10 -->
<g id="edge22" class="edge">
<title>Node14&#45;&gt;Node10</title>
<path fill="none" stroke="#9a32cd" stroke-dasharray="5,2" d="M288.7,-583.54C340.11,-591.24 430.25,-602.81 508,-602.81 508,-602.81 508,-602.81 889,-602.81 1106.12,-602.81 1666.58,-679.68 1866,-593.81 1969.25,-549.35 2015.48,-399.91 2026.07,-360.44"/>
<polygon fill="#9a32cd" stroke="#9a32cd" points="289.05,-580.05 278.64,-582.01 288,-586.97 289.05,-580.05"/>
<text text-anchor="middle" x="1032.5" y="-614.81" font-family="Helvetica,sans-Serif" font-size="10.00"> m_scheme</text>
</g>
<!-- Node14&#45;&gt;Node13 -->
<g id="edge16" class="edge">
<title>Node14&#45;&gt;Node13</title>
<path fill="none" stroke="#9a32cd" stroke-dasharray="5,2" d="M269.89,-561.6C284.3,-552.27 303.44,-540.33 321,-530.81 368.02,-505.31 398.26,-522.86 430,-479.81 464.62,-432.86 414,-397.2 448,-349.81 452.35,-343.75 458.27,-338.85 464.71,-334.9"/>
<polygon fill="#9a32cd" stroke="#9a32cd" points="267.62,-558.9 261.16,-567.3 271.45,-564.76 267.62,-558.9"/>
<text text-anchor="middle" x="375.5" y="-533.81" font-family="Helvetica,sans-Serif" font-size="10.00"> keys</text>
</g>
<!-- Node23 -->
<g id="node23" class="node">
<title>Node23</title>
<g id="a_node23"><a xlink:title=" ">
<polygon fill="white" stroke="#bfbfbf" points="448,-516.81 448,-546.81 570,-546.81 570,-516.81 448,-516.81"/>
<text text-anchor="start" x="456" y="-534.81" font-family="Helvetica,sans-Serif" font-size="10.00">std::unordered_map</text>
<text text-anchor="middle" x="509" y="-523.81" font-family="Helvetica,sans-Serif" font-size="10.00">&lt; std::string, size_t &gt;</text>
</a>
</g>
</g>
<!-- Node14&#45;&gt;Node23 -->
<g id="edge32" class="edge">
<title>Node14&#45;&gt;Node23</title>
<path fill="none" stroke="#9a32cd" stroke-dasharray="5,2" d="M288.85,-569.59C331.8,-562.19 399.06,-550.59 447.74,-542.2"/>
<polygon fill="#9a32cd" stroke="#9a32cd" points="288,-566.19 278.74,-571.34 289.19,-573.09 288,-566.19"/>
<text text-anchor="middle" x="375.5" y="-565.81" font-family="Helvetica,sans-Serif" font-size="10.00"> keys</text>
</g>
<!-- Node15 -->
<g id="node15" class="node">
<title>Node15</title>
<g id="a_node15"><a xlink:title=" ">
<polygon fill="white" stroke="#bfbfbf" points="0,-561.81 0,-591.81 104,-591.81 104,-561.81 0,-561.81"/>
<text text-anchor="start" x="8" y="-579.81" font-family="Helvetica,sans-Serif" font-size="10.00">std::basic_string&lt;</text>
<text text-anchor="middle" x="52" y="-568.81" font-family="Helvetica,sans-Serif" font-size="10.00"> Char &gt;</text>
</a>
</g>
</g>
<!-- Node15&#45;&gt;Node14 -->
<g id="edge17" class="edge">
<title>Node15&#45;&gt;Node14</title>
<path fill="none" stroke="midnightblue" d="M114.23,-576.81C147.25,-576.81 186.63,-576.81 213.48,-576.81"/>
<polygon fill="midnightblue" stroke="midnightblue" points="114.2,-573.31 104.2,-576.81 114.2,-580.31 114.2,-573.31"/>
</g>
<!-- Node16&#45;&gt;Node13 -->
<g id="edge18" class="edge">
<title>Node16&#45;&gt;Node13</title>
<path fill="none" stroke="orange" stroke-dasharray="5,2" d="M313.35,-324.28C356.14,-323.3 411.16,-322.03 451.79,-321.1"/>
<polygon fill="orange" stroke="orange" points="313.23,-320.79 303.31,-324.51 313.39,-327.78 313.23,-320.79"/>
<text text-anchor="middle" x="375.5" y="-326.81" font-family="Helvetica,sans-Serif" font-size="10.00"> &lt; std::string, int &gt;</text>
</g>
<!-- Node16&#45;&gt;Node23 -->
<g id="edge33" class="edge">
<title>Node16&#45;&gt;Node23</title>
<path fill="none" stroke="orange" stroke-dasharray="5,2" d="M274.13,-347.22C327.06,-389 442.94,-480.46 488.78,-516.64"/>
<polygon fill="orange" stroke="orange" points="276.21,-344.4 266.19,-340.96 271.87,-349.9 276.21,-344.4"/>
<text text-anchor="middle" x="375.5" y="-467.81" font-family="Helvetica,sans-Serif" font-size="10.00"> &lt; std::string, size_t &gt;</text>
</g>
<!-- Node17 -->
<g id="node17" class="node">
<title>Node17</title>
<g id="a_node17"><a xlink:title=" ">
<polygon fill="white" stroke="#bfbfbf" points="37.5,-302.31 37.5,-321.31 66.5,-321.31 66.5,-302.31 37.5,-302.31"/>
<text text-anchor="middle" x="52" y="-309.31" font-family="Helvetica,sans-Serif" font-size="10.00">K</text>
</a>
</g>
</g>
<!-- Node17&#45;&gt;Node16 -->
<g id="edge19" class="edge">
<title>Node17&#45;&gt;Node16</title>
<path fill="none" stroke="#9a32cd" stroke-dasharray="5,2" d="M77.08,-310.85C100.97,-310.17 138.59,-309.85 171,-312.81 176.85,-313.34 182.92,-314.09 188.97,-314.96"/>
<polygon fill="#9a32cd" stroke="#9a32cd" points="76.72,-307.36 66.84,-311.19 76.95,-314.36 76.72,-307.36"/>
<text text-anchor="middle" x="146.5" y="-315.81" font-family="Helvetica,sans-Serif" font-size="10.00"> keys</text>
</g>
<!-- Node18&#45;&gt;Node10 -->
<g id="edge23" class="edge">
<title>Node18&#45;&gt;Node10</title>
<path fill="none" stroke="#9a32cd" stroke-dasharray="5,2" d="M1666.14,-463.01C1678.1,-459.69 1690.44,-456.2 1702,-452.81 1811.98,-420.55 1941.7,-378.95 1998.89,-360.44"/>
<polygon fill="#9a32cd" stroke="#9a32cd" points="1664.92,-459.72 1656.22,-465.75 1666.79,-466.47 1664.92,-459.72"/>
<text text-anchor="middle" x="1793" y="-449.81" font-family="Helvetica,sans-Serif" font-size="10.00"> m_icns</text>
</g>
<!-- Node19 -->
<g id="node19" class="node">
<title>Node19</title>
<g id="a_node19"><a xlink:href="classamr__wind_1_1_sim_time.html" target="_top" xlink:title="Time manager for simulations.">
<polygon fill="white" stroke="black" points="1339,-139.31 1339,-158.31 1453,-158.31 1453,-139.31 1339,-139.31"/>
<text text-anchor="middle" x="1396" y="-146.31" font-family="Helvetica,sans-Serif" font-size="10.00">amr_wind::SimTime</text>
</a>
</g>
</g>
<!-- Node19&#45;&gt;Node6 -->
<g id="edge25" class="edge">
<title>Node19&#45;&gt;Node6</title>
<path fill="none" stroke="#9a32cd" stroke-dasharray="5,2" d="M1463.47,-138.98C1528.98,-132.76 1629.51,-132.81 1702,-176.81 1753.38,-207.99 1780.68,-280.92 1789.11,-307.18"/>
<polygon fill="#9a32cd" stroke="#9a32cd" points="1462.86,-135.53 1453.27,-140.03 1463.58,-142.49 1462.86,-135.53"/>
<text text-anchor="middle" x="1599" y="-179.81" font-family="Helvetica,sans-Serif" font-size="10.00"> m_time</text>
</g>
<!-- Node20&#45;&gt;Node6 -->
<g id="edge26" class="edge">
<title>Node20&#45;&gt;Node6</title>
<path fill="none" stroke="#9a32cd" stroke-dasharray="5,2" d="M1477.79,-246.01C1539.91,-250.63 1627.45,-260.22 1702,-279.81 1727.33,-286.46 1754.98,-298.62 1772.85,-307.18"/>
<polygon fill="#9a32cd" stroke="#9a32cd" points="1477.88,-242.5 1467.66,-245.28 1477.38,-249.49 1477.88,-242.5"/>
<text text-anchor="middle" x="1599" y="-282.81" font-family="Helvetica,sans-Serif" font-size="10.00"> m_overset_mgr</text>
</g>
<!-- Node21&#45;&gt;Node6 -->
<g id="edge28" class="edge">
<title>Node21&#45;&gt;Node6</title>
<path fill="none" stroke="#9a32cd" stroke-dasharray="5,2" d="M1486.78,-385.26C1547.98,-377.71 1630.56,-365.47 1702,-347.81 1724.78,-342.18 1749.98,-333.26 1767.91,-326.43"/>
<polygon fill="#9a32cd" stroke="#9a32cd" points="1486.27,-381.79 1476.76,-386.48 1487.11,-388.74 1486.27,-381.79"/>
<text text-anchor="middle" x="1599" y="-385.81" font-family="Helvetica,sans-Serif" font-size="10.00"> m_turbulence</text>
</g>
<!-- Node22 -->
<g id="node22" class="node">
<title>Node22</title>
<g id="a_node22"><a xlink:href="classamr__wind_1_1_field_repo.html" target="_top" xlink:title="Field Repository.">
<polygon fill="white" stroke="black" points="828.5,-522.31 828.5,-541.31 947.5,-541.31 947.5,-522.31 828.5,-522.31"/>
<text text-anchor="middle" x="888" y="-529.31" font-family="Helvetica,sans-Serif" font-size="10.00">amr_wind::FieldRepo</text>
</a>
</g>
</g>
<!-- Node22&#45;&gt;Node6 -->
<g id="edge30" class="edge">
<title>Node22&#45;&gt;Node6</title>
<path fill="none" stroke="#9a32cd" stroke-dasharray="5,2" d="M957.92,-531.95C1149.15,-532.05 1674.18,-530.08 1702,-505.81 1738.01,-474.4 1699.59,-443.01 1720,-399.81 1734.59,-368.94 1763.98,-340.66 1780.34,-326.44"/>
<polygon fill="#9a32cd" stroke="#9a32cd" points="957.71,-528.45 947.71,-531.95 957.71,-535.45 957.71,-528.45"/>
<text text-anchor="middle" x="1205.5" y="-533.81" font-family="Helvetica,sans-Serif" font-size="10.00"> m_repo</text>
</g>
<!-- Node23&#45;&gt;Node22 -->
<g id="edge31" class="edge">
<title>Node23&#45;&gt;Node22</title>
<path fill="none" stroke="#9a32cd" stroke-dasharray="5,2" d="M580.42,-531.81C651.91,-531.81 761.34,-531.81 828.3,-531.81"/>
<polygon fill="#9a32cd" stroke="#9a32cd" points="580.15,-528.31 570.15,-531.81 580.15,-535.31 580.15,-528.31"/>
<text text-anchor="middle" x="624.5" y="-545.81" font-family="Helvetica,sans-Serif" font-size="10.00"> m_fid_map</text>
<text text-anchor="middle" x="624.5" y="-534.81" font-family="Helvetica,sans-Serif" font-size="10.00">m_int_fid_map</text>
</g>
<!-- Node24&#45;&gt;Node6 -->
<g id="edge34" class="edge">
<title>Node24&#45;&gt;Node6</title>
<path fill="none" stroke="#9a32cd" stroke-dasharray="5,2" d="M1466.24,-89.69C1532.6,-79.27 1632.64,-74.66 1702,-121.81 1768.3,-166.88 1786.72,-273.79 1790.92,-306.87"/>
<polygon fill="#9a32cd" stroke="#9a32cd" points="1465.59,-86.25 1456.29,-91.34 1466.73,-93.16 1465.59,-86.25"/>
<text text-anchor="middle" x="1599" y="-124.81" font-family="Helvetica,sans-Serif" font-size="10.00"> m_mesh_map</text>
</g>
<!-- Node25&#45;&gt;Node6 -->
<g id="edge36" class="edge">
<title>Node25&#45;&gt;Node6</title>
<path fill="none" stroke="#9a32cd" stroke-dasharray="5,2" d="M1470.21,-293.45C1532.04,-295.97 1622.9,-300.35 1702,-306.81 1713.6,-307.76 1726.01,-308.99 1737.79,-310.27"/>
<polygon fill="#9a32cd" stroke="#9a32cd" points="1470.29,-289.95 1460.16,-293.05 1470.01,-296.95 1470.29,-289.95"/>
<text text-anchor="middle" x="1599" y="-309.81" font-family="Helvetica,sans-Serif" font-size="10.00"> m_ext_solver_mgr</text>
</g>
<!-- Node26 -->
<g id="node26" class="node">
<title>Node26</title>
<g id="a_node26"><a xlink:href="classamr__wind_1_1_physics_mgr.html" target="_top" xlink:title="A collection of Physics models instances that are active during a simulation.">
<polygon fill="white" stroke="black" points="1333,-51.31 1333,-70.31 1459,-70.31 1459,-51.31 1333,-51.31"/>
<text text-anchor="middle" x="1396" y="-58.31" font-family="Helvetica,sans-Serif" font-size="10.00">amr_wind::PhysicsMgr</text>
</a>
</g>
</g>
<!-- Node26&#45;&gt;Node6 -->
<g id="edge38" class="edge">
<title>Node26&#45;&gt;Node6</title>
<path fill="none" stroke="#9a32cd" stroke-dasharray="5,2" d="M1469.62,-53.61C1547.93,-47.4 1666.22,-43.02 1702,-68.81 1783.94,-127.86 1791.49,-269.17 1792.01,-307.23"/>
<polygon fill="#9a32cd" stroke="#9a32cd" points="1469,-50.15 1459.32,-54.45 1469.58,-57.12 1469,-50.15"/>
<text text-anchor="middle" x="1599" y="-71.81" font-family="Helvetica,sans-Serif" font-size="10.00"> m_physics_mgr</text>
</g>
<!-- Node27&#45;&gt;Node26 -->
<g id="edge39" class="edge">
<title>Node27&#45;&gt;Node26</title>
<path fill="none" stroke="midnightblue" d="M1107.69,-65.58C1174.07,-64.48 1270.29,-62.88 1332.75,-61.84"/>
<polygon fill="midnightblue" stroke="midnightblue" points="1107.24,-62.08 1097.3,-65.75 1107.35,-69.08 1107.24,-62.08"/>
</g>
</g>
</svg>
