<?xml version="1.0" encoding="UTF-8" standalone="no"?>
<!DOCTYPE svg PUBLIC "-//W3C//DTD SVG 1.1//EN"
 "http://www.w3.org/Graphics/SVG/1.1/DTD/svg11.dtd">
<!-- Generated by graphviz version 2.43.0 (0)
 -->
<!-- Title: amr_wind::turbulence::TurbModel&lt; Transport &gt; Pages: 1 -->
<svg width="1375pt" height="235pt"
 viewBox="0.00 0.00 1375.00 235.00" xmlns="http://www.w3.org/2000/svg" xmlns:xlink="http://www.w3.org/1999/xlink">
<g id="graph0" class="graph" transform="scale(1 1) rotate(0) translate(4 231)">
<title>amr_wind::turbulence::TurbModel&lt; Transport &gt;</title>
<polygon fill="white" stroke="transparent" points="-4,4 -4,-231 1371,-231 1371,4 -4,4"/>
<!-- Node1 -->
<g id="node1" class="node">
<title>Node1</title>
<g id="a_node1"><a xlink:title="Turbulence model with a specific transport model.">
<polygon fill="#bfbfbf" stroke="black" points="615,-122.5 615,-152.5 755,-152.5 755,-122.5 615,-122.5"/>
<text text-anchor="start" x="623" y="-140.5" font-family="Helvetica,sans-Serif" font-size="10.00">amr_wind::turbulence</text>
<text text-anchor="middle" x="685" y="-129.5" font-family="Helvetica,sans-Serif" font-size="10.00">::TurbModel&lt; Transport &gt;</text>
</a>
</g>
</g>
<!-- Node5 -->
<g id="node5" class="node">
<title>Node5</title>
<g id="a_node5"><a xlink:href="classamr__wind_1_1turbulence_1_1_laminar.html" target="_top" xlink:title="Laminar model.">
<polygon fill="white" stroke="black" points="809,-147.5 809,-177.5 939,-177.5 939,-147.5 809,-147.5"/>
<text text-anchor="start" x="817" y="-165.5" font-family="Helvetica,sans-Serif" font-size="10.00">amr_wind::turbulence</text>
<text text-anchor="middle" x="874" y="-154.5" font-family="Helvetica,sans-Serif" font-size="10.00">::Laminar&lt; Transport &gt;</text>
</a>
</g>
</g>
<!-- Node1&#45;&gt;Node5 -->
<g id="edge4" class="edge">
<title>Node1&#45;&gt;Node5</title>
<path fill="none" stroke="midnightblue" d="M765.1,-148.08C779.69,-150.03 794.75,-152.04 808.83,-153.92"/>
<polygon fill="midnightblue" stroke="midnightblue" points="765.48,-144.59 755.1,-146.74 764.55,-151.53 765.48,-144.59"/>
</g>
<!-- Node6 -->
<g id="node6" class="node">
<title>Node6</title>
<g id="a_node6"><a xlink:href="classamr__wind_1_1turbulence_1_1_turb_model_base.html" target="_top" xlink:title="Turbulence model aspects common to both LES and RANS models.">
<polygon fill="white" stroke="black" points="792,-98.5 792,-128.5 956,-128.5 956,-98.5 792,-98.5"/>
<text text-anchor="start" x="800" y="-116.5" font-family="Helvetica,sans-Serif" font-size="10.00">amr_wind::turbulence</text>
<text text-anchor="middle" x="874" y="-105.5" font-family="Helvetica,sans-Serif" font-size="10.00">::TurbModelBase&lt; Transport &gt;</text>
</a>
</g>
</g>
<!-- Node1&#45;&gt;Node6 -->
<g id="edge5" class="edge">
<title>Node1&#45;&gt;Node6</title>
<path fill="none" stroke="midnightblue" d="M765.03,-127.36C773.9,-126.22 782.95,-125.06 791.85,-123.91"/>
<polygon fill="midnightblue" stroke="midnightblue" points="764.57,-123.89 755.1,-128.63 765.46,-130.83 764.57,-123.89"/>
</g>
<!-- Node2 -->
<g id="node2" class="node">
<title>Node2</title>
<g id="a_node2"><a xlink:href="classamr__wind_1_1turbulence_1_1_turbulence_model.html" target="_top" xlink:title="Abstract representation of a turbulence model.">
<polygon fill="white" stroke="black" points="456,-122.5 456,-152.5 578,-152.5 578,-122.5 456,-122.5"/>
<text text-anchor="start" x="464" y="-140.5" font-family="Helvetica,sans-Serif" font-size="10.00">amr_wind::turbulence</text>
<text text-anchor="middle" x="517" y="-129.5" font-family="Helvetica,sans-Serif" font-size="10.00">::TurbulenceModel</text>
</a>
</g>
</g>
<!-- Node2&#45;&gt;Node1 -->
<g id="edge1" class="edge">
<title>Node2&#45;&gt;Node1</title>
<path fill="none" stroke="midnightblue" d="M588.55,-137.5C597.28,-137.5 606.21,-137.5 614.92,-137.5"/>
<polygon fill="midnightblue" stroke="midnightblue" points="588.4,-134 578.4,-137.5 588.4,-141 588.4,-134"/>
</g>
<!-- Node3 -->
<g id="node3" class="node">
<title>Node3</title>
<g id="a_node3"><a xlink:href="structamr__wind_1_1_factory.html" target="_top" xlink:title=" ">
<polygon fill="white" stroke="black" points="250,-122.5 250,-152.5 419,-152.5 419,-122.5 250,-122.5"/>
<text text-anchor="start" x="258" y="-140.5" font-family="Helvetica,sans-Serif" font-size="10.00">amr_wind::Factory&lt;</text>
<text text-anchor="middle" x="334.5" y="-129.5" font-family="Helvetica,sans-Serif" font-size="10.00"> TurbulenceModel, CFDSim &amp; &gt;</text>
</a>
</g>
</g>
<!-- Node3&#45;&gt;Node2 -->
<g id="edge2" class="edge">
<title>Node3&#45;&gt;Node2</title>
<path fill="none" stroke="midnightblue" d="M429.3,-137.5C438.29,-137.5 447.24,-137.5 455.78,-137.5"/>
<polygon fill="midnightblue" stroke="midnightblue" points="429.15,-134 419.15,-137.5 429.15,-141 429.15,-134"/>
</g>
<!-- Node4 -->
<g id="node4" class="node">
<title>Node4</title>
<g id="a_node4"><a xlink:href="structamr__wind_1_1_factory.html" target="_top" xlink:title="Runtime selection of options based on string keyword lookup.">
<polygon fill="white" stroke="black" points="0,-122.5 0,-152.5 114,-152.5 114,-122.5 0,-122.5"/>
<text text-anchor="start" x="8" y="-140.5" font-family="Helvetica,sans-Serif" font-size="10.00">amr_wind::Factory&lt;</text>
<text text-anchor="middle" x="57" y="-129.5" font-family="Helvetica,sans-Serif" font-size="10.00"> Base, Args &gt;</text>
</a>
</g>
</g>
<!-- Node4&#45;&gt;Node3 -->
<g id="edge3" class="edge">
<title>Node4&#45;&gt;Node3</title>
<path fill="none" stroke="orange" stroke-dasharray="5,2" d="M124.43,-137.5C162.09,-137.5 209.58,-137.5 249.77,-137.5"/>
<polygon fill="orange" stroke="orange" points="124.08,-134 114.08,-137.5 124.08,-141 124.08,-134"/>
<text text-anchor="start" x="132" y="-151.5" font-family="Helvetica,sans-Serif" font-size="10.00"> &lt; TurbulenceModel,</text>
<text text-anchor="middle" x="182" y="-140.5" font-family="Helvetica,sans-Serif" font-size="10.00"> CFDSim &amp; &gt;</text>
</g>
<!-- Node7 -->
<g id="node7" class="node">
<title>Node7</title>
<g id="a_node7"><a xlink:href="classamr__wind_1_1turbulence_1_1_a_m_d.html" target="_top" xlink:title="AMD LES Model.">
<polygon fill="white" stroke="black" points="1011,-196.5 1011,-226.5 1133,-226.5 1133,-196.5 1011,-196.5"/>
<text text-anchor="start" x="1019" y="-214.5" font-family="Helvetica,sans-Serif" font-size="10.00">amr_wind::turbulence</text>
<text text-anchor="middle" x="1072" y="-203.5" font-family="Helvetica,sans-Serif" font-size="10.00">::AMD&lt; Transport &gt;</text>
</a>
</g>
</g>
<!-- Node6&#45;&gt;Node7 -->
<g id="edge6" class="edge">
<title>Node6&#45;&gt;Node7</title>
<path fill="none" stroke="midnightblue" d="M949.27,-133.25C951.59,-134.58 953.84,-135.99 956,-137.5 978.65,-153.36 970.44,-171.52 993,-187.5 998.43,-191.35 1004.5,-194.59 1010.79,-197.32"/>
<polygon fill="midnightblue" stroke="midnightblue" points="950.51,-129.95 940.01,-128.55 947.35,-136.2 950.51,-129.95"/>
</g>
<!-- Node8 -->
<g id="node8" class="node">
<title>Node8</title>
<g id="a_node8"><a xlink:href="classamr__wind_1_1turbulence_1_1_a_m_d_no_therm.html" target="_top" xlink:title="AMD LES Model.">
<polygon fill="white" stroke="black" points="993,-147.5 993,-177.5 1151,-177.5 1151,-147.5 993,-147.5"/>
<text text-anchor="start" x="1001" y="-165.5" font-family="Helvetica,sans-Serif" font-size="10.00">amr_wind::turbulence</text>
<text text-anchor="middle" x="1072" y="-154.5" font-family="Helvetica,sans-Serif" font-size="10.00">::AMDNoTherm&lt; Transport &gt;</text>
</a>
</g>
</g>
<!-- Node6&#45;&gt;Node8 -->
<g id="edge7" class="edge">
<title>Node6&#45;&gt;Node8</title>
<path fill="none" stroke="midnightblue" d="M944.91,-130.98C966.51,-136.38 990.1,-142.28 1010.98,-147.49"/>
<polygon fill="midnightblue" stroke="midnightblue" points="945.69,-127.56 935.14,-128.53 943.99,-134.36 945.69,-127.56"/>
</g>
<!-- Node9 -->
<g id="node9" class="node">
<title>Node9</title>
<g id="a_node9"><a xlink:href="classamr__wind_1_1turbulence_1_1_k_omega_s_s_t.html" target="_top" xlink:title="K&#45;Omega&#45;SST RANS turbulence model.">
<polygon fill="white" stroke="black" points="997.5,-98.5 997.5,-128.5 1146.5,-128.5 1146.5,-98.5 997.5,-98.5"/>
<text text-anchor="start" x="1005.5" y="-116.5" font-family="Helvetica,sans-Serif" font-size="10.00">amr_wind::turbulence</text>
<text text-anchor="middle" x="1072" y="-105.5" font-family="Helvetica,sans-Serif" font-size="10.00">::KOmegaSST&lt; Transport &gt;</text>
</a>
</g>
</g>
<!-- Node6&#45;&gt;Node9 -->
<g id="edge8" class="edge">
<title>Node6&#45;&gt;Node9</title>
<path fill="none" stroke="midnightblue" d="M966.15,-113.5C976.64,-113.5 987.24,-113.5 997.45,-113.5"/>
<polygon fill="midnightblue" stroke="midnightblue" points="966.14,-110 956.14,-113.5 966.14,-117 966.14,-110"/>
</g>
<!-- Node11 -->
<g id="node11" class="node">
<title>Node11</title>
<g id="a_node11"><a xlink:href="classamr__wind_1_1turbulence_1_1_one_eq_ksgs.html" target="_top" xlink:title="Base class for 1&#45;Equation subgrid scale TKE turbulence model.">
<polygon fill="white" stroke="black" points="999.5,-49.5 999.5,-79.5 1144.5,-79.5 1144.5,-49.5 999.5,-49.5"/>
<text text-anchor="start" x="1007.5" y="-67.5" font-family="Helvetica,sans-Serif" font-size="10.00">amr_wind::turbulence</text>
<text text-anchor="middle" x="1072" y="-56.5" font-family="Helvetica,sans-Serif" font-size="10.00">::OneEqKsgs&lt; Transport &gt;</text>
</a>
</g>
</g>
<!-- Node6&#45;&gt;Node11 -->
<g id="edge10" class="edge">
<title>Node6&#45;&gt;Node11</title>
<path fill="none" stroke="midnightblue" d="M944.91,-96.02C966.51,-90.62 990.1,-84.72 1010.98,-79.51"/>
<polygon fill="midnightblue" stroke="midnightblue" points="943.99,-92.64 935.14,-98.47 945.69,-99.44 943.99,-92.64"/>
</g>
<!-- Node14 -->
<g id="node14" class="node">
<title>Node14</title>
<g id="a_node14"><a xlink:href="classamr__wind_1_1turbulence_1_1_smagorinsky.html" target="_top" xlink:title="Smagorinsky LES Model.">
<polygon fill="white" stroke="black" points="995.5,-0.5 995.5,-30.5 1148.5,-30.5 1148.5,-0.5 995.5,-0.5"/>
<text text-anchor="start" x="1003.5" y="-18.5" font-family="Helvetica,sans-Serif" font-size="10.00">amr_wind::turbulence</text>
<text text-anchor="middle" x="1072" y="-7.5" font-family="Helvetica,sans-Serif" font-size="10.00">::Smagorinsky&lt; Transport &gt;</text>
</a>
</g>
</g>
<!-- Node6&#45;&gt;Node14 -->
<g id="edge13" class="edge">
<title>Node6&#45;&gt;Node14</title>
<path fill="none" stroke="midnightblue" d="M903.71,-92.5C926.89,-76.29 960.83,-54.23 993,-39.5 1000.21,-36.2 1008,-33.19 1015.77,-30.51"/>
<polygon fill="midnightblue" stroke="midnightblue" points="901.52,-89.76 895.38,-98.39 905.56,-95.47 901.52,-89.76"/>
</g>
<!-- Node10 -->
<g id="node10" class="node">
<title>Node10</title>
<g id="a_node10"><a xlink:href="classamr__wind_1_1turbulence_1_1_k_omega_s_s_t_i_d_d_e_s.html" target="_top" xlink:title="K&#45;Omega&#45;SST&#45;IDDES Hybrid RANS/LES turbulence model.">
<polygon fill="white" stroke="black" points="1188,-98.5 1188,-128.5 1367,-128.5 1367,-98.5 1188,-98.5"/>
<text text-anchor="start" x="1196" y="-116.5" font-family="Helvetica,sans-Serif" font-size="10.00">amr_wind::turbulence</text>
<text text-anchor="middle" x="1277.5" y="-105.5" font-family="Helvetica,sans-Serif" font-size="10.00">::KOmegaSSTIDDES&lt; Transport &gt;</text>
</a>
</g>
</g>
<!-- Node9&#45;&gt;Node10 -->
<g id="edge9" class="edge">
<title>Node9&#45;&gt;Node10</title>
<path fill="none" stroke="midnightblue" d="M1156.85,-113.5C1167.04,-113.5 1177.49,-113.5 1187.75,-113.5"/>
<polygon fill="midnightblue" stroke="midnightblue" points="1156.76,-110 1146.76,-113.5 1156.76,-117 1156.76,-110"/>
</g>
<!-- Node12 -->
<g id="node12" class="node">
<title>Node12</title>
<g id="a_node12"><a xlink:href="classamr__wind_1_1turbulence_1_1_one_eq_ksgs_m84.html" target="_top" xlink:title="1&#45;equation subgrid scale TKE turbulence model">
<polygon fill="white" stroke="black" points="1194.5,-49.5 1194.5,-79.5 1360.5,-79.5 1360.5,-49.5 1194.5,-49.5"/>
<text text-anchor="start" x="1202.5" y="-67.5" font-family="Helvetica,sans-Serif" font-size="10.00">amr_wind::turbulence</text>
<text text-anchor="middle" x="1277.5" y="-56.5" font-family="Helvetica,sans-Serif" font-size="10.00">::OneEqKsgsM84&lt; Transport &gt;</text>
</a>
</g>
</g>
<!-- Node11&#45;&gt;Node12 -->
<g id="edge11" class="edge">
<title>Node11&#45;&gt;Node12</title>
<path fill="none" stroke="midnightblue" d="M1155.01,-64.5C1167.95,-64.5 1181.34,-64.5 1194.28,-64.5"/>
<polygon fill="midnightblue" stroke="midnightblue" points="1154.75,-61 1144.75,-64.5 1154.75,-68 1154.75,-61"/>
</g>
<!-- Node13 -->
<g id="node13" class="node">
<title>Node13</title>
<g id="a_node13"><a xlink:href="classamr__wind_1_1turbulence_1_1_one_eq_ksgs_s94.html" target="_top" xlink:title="1&#45;equation subgrid scale TKE turbulence model">
<polygon fill="white" stroke="black" points="1196,-0.5 1196,-30.5 1359,-30.5 1359,-0.5 1196,-0.5"/>
<text text-anchor="start" x="1204" y="-18.5" font-family="Helvetica,sans-Serif" font-size="10.00">amr_wind::turbulence</text>
<text text-anchor="middle" x="1277.5" y="-7.5" font-family="Helvetica,sans-Serif" font-size="10.00">::OneEqKsgsS94&lt; Transport &gt;</text>
</a>
</g>
</g>
<!-- Node11&#45;&gt;Node13 -->
<g id="edge12" class="edge">
<title>Node11&#45;&gt;Node13</title>
<path fill="none" stroke="midnightblue" d="M1145.28,-47.1C1167.79,-41.68 1192.41,-35.75 1214.18,-30.51"/>
<polygon fill="midnightblue" stroke="midnightblue" points="1144.34,-43.72 1135.44,-49.47 1145.98,-50.53 1144.34,-43.72"/>
</g>
</g>
</svg>
