<?xml version="1.0" encoding="UTF-8" standalone="no"?>
<!DOCTYPE svg PUBLIC "-//W3C//DTD SVG 1.1//EN"
 "http://www.w3.org/Graphics/SVG/1.1/DTD/svg11.dtd">
<!-- Generated by graphviz version 2.43.0 (0)
 -->
<!-- Title: diffusion.H Pages: 1 -->
<!--zoomable 308 -->
<svg id="main" version="1.1" xmlns="http://www.w3.org/2000/svg" xmlns:xlink="http://www.w3.org/1999/xlink" xml:space="preserve" onload="init(evt)">
<style type="text/css"><![CDATA[
.edge:hover path { stroke: red; }
.edge:hover polygon { stroke: red; fill: red; }
]]></style>
<script type="text/javascript"><![CDATA[
var edges = document.getElementsByTagName('g');
if (edges && edges.length) {
  for (var i=0;i<edges.length;i++) {
    if (edges[i].id.substr(0,4)=='edge') {
      edges[i].setAttribute('class','edge');
    }
  }
}
]]></script>
        <defs>
                <circle id="rim" cx="0" cy="0" r="7"/>
                <circle id="rim2" cx="0" cy="0" r="3.5"/>
                <g id="zoomPlus">
                        <use xlink:href="#rim" fill="#404040">
                                <set attributeName="fill" to="#808080" begin="zoomplus.mouseover" end="zoomplus.mouseout"/>
                        </use>
                        <path d="M-4,0h8M0,-4v8" fill="none" stroke="white" stroke-width="1.5" pointer-events="none"/>
                </g>
                <g id="zoomMin">
                        <use xlink:href="#rim" fill="#404040">
                                <set attributeName="fill" to="#808080" begin="zoomminus.mouseover" end="zoomminus.mouseout"/>
                        </use>
                        <path d="M-4,0h8" fill="none" stroke="white" stroke-width="1.5" pointer-events="none"/>
                </g>
                <g id="dirArrow">
                        <path fill="none" stroke="white" stroke-width="1.5" d="M0,-3.0v7 M-2.5,-0.5L0,-3.0L2.5,-0.5"/>
                </g>
               <g id="resetDef">
                       <use xlink:href="#rim2" fill="#404040">
                               <set attributeName="fill" to="#808080" begin="reset.mouseover" end="reset.mouseout"/>
                       </use>
               </g>
        </defs>

<script type="text/javascript">
var viewWidth = 2290;
var viewHeight = 308;
var sectionId = 'dynsection-1';
</script>
<script xlink:href="svgpan.js"/>
<svg id="graph" class="graph">
<g id="viewport">
<title>diffusion.H</title>
<polygon fill="white" stroke="transparent" points="-4,4 -4,-304 2286,-304 2286,4 -4,4"/>
<!-- Node1 -->
<g id="node1" class="node">
<title>Node1</title>
<g id="a_node1"><a xlink:title=" ">
<polygon fill="#bfbfbf" stroke="black" points="197,-280.5 197,-299.5 266,-299.5 266,-280.5 197,-280.5"/>
<text text-anchor="middle" x="231.5" y="-287.5" font-family="Helvetica,sans-Serif" font-size="10.00">diffusion.H</text>
</a>
</g>
</g>
<!-- Node2 -->
<g id="node2" class="node">
<title>Node2</title>
<g id="a_node2"><a xlink:href="_wall_function_8cpp.html" target="_top" xlink:title=" ">
<polygon fill="white" stroke="black" points="0,-224.5 0,-243.5 99,-243.5 99,-224.5 0,-224.5"/>
<text text-anchor="middle" x="49.5" y="-231.5" font-family="Helvetica,sans-Serif" font-size="10.00">WallFunction.cpp</text>
</a>
</g>
</g>
<!-- Node1&#45;&gt;Node2 -->
<g id="edge1" class="edge">
<title>Node1&#45;&gt;Node2</title>
<path fill="none" stroke="midnightblue" d="M192.97,-277.57C158.64,-267.38 109.17,-252.7 78.2,-243.52"/>
<polygon fill="midnightblue" stroke="midnightblue" points="192.08,-280.95 202.66,-280.44 194.07,-274.24 192.08,-280.95"/>
</g>
<!-- Node3 -->
<g id="node3" class="node">
<title>Node3</title>
<g id="a_node3"><a xlink:href="incflo__diffusion_8cpp.html" target="_top" xlink:title=" ">
<polygon fill="white" stroke="black" points="117.5,-224.5 117.5,-243.5 227.5,-243.5 227.5,-224.5 117.5,-224.5"/>
<text text-anchor="middle" x="172.5" y="-231.5" font-family="Helvetica,sans-Serif" font-size="10.00">incflo_diffusion.cpp</text>
</a>
</g>
</g>
<!-- Node1&#45;&gt;Node3 -->
<g id="edge2" class="edge">
<title>Node1&#45;&gt;Node3</title>
<path fill="none" stroke="midnightblue" d="M214.61,-273.54C204.09,-263.91 190.93,-251.87 182.15,-243.83"/>
<polygon fill="midnightblue" stroke="midnightblue" points="212.28,-276.15 222.02,-280.32 217.01,-270.99 212.28,-276.15"/>
</g>
<!-- Node4 -->
<g id="node4" class="node">
<title>Node4</title>
<g id="a_node4"><a xlink:href="_diffusion_ops_8_h.html" target="_top" xlink:title=" ">
<polygon fill="white" stroke="black" points="246,-224.5 246,-243.5 335,-243.5 335,-224.5 246,-224.5"/>
<text text-anchor="middle" x="290.5" y="-231.5" font-family="Helvetica,sans-Serif" font-size="10.00">DiffusionOps.H</text>
</a>
</g>
</g>
<!-- Node1&#45;&gt;Node4 -->
<g id="edge3" class="edge">
<title>Node1&#45;&gt;Node4</title>
<path fill="none" stroke="midnightblue" d="M248.39,-273.54C258.91,-263.91 272.07,-251.87 280.85,-243.83"/>
<polygon fill="midnightblue" stroke="midnightblue" points="245.99,-270.99 240.98,-280.32 250.72,-276.15 245.99,-270.99"/>
</g>
<!-- Node40 -->
<g id="node40" class="node">
<title>Node40</title>
<g id="a_node40"><a xlink:href="_a_b_l_wall_function_8cpp.html" target="_top" xlink:title=" ">
<polygon fill="white" stroke="black" points="353,-224.5 353,-243.5 470,-243.5 470,-224.5 353,-224.5"/>
<text text-anchor="middle" x="411.5" y="-231.5" font-family="Helvetica,sans-Serif" font-size="10.00">ABLWallFunction.cpp</text>
</a>
</g>
</g>
<!-- Node1&#45;&gt;Node40 -->
<g id="edge57" class="edge">
<title>Node1&#45;&gt;Node40</title>
<path fill="none" stroke="midnightblue" d="M269.61,-277.57C303.56,-267.38 352.49,-252.7 383.11,-243.52"/>
<polygon fill="midnightblue" stroke="midnightblue" points="268.59,-274.22 260.02,-280.44 270.61,-280.92 268.59,-274.22"/>
</g>
<!-- Node5 -->
<g id="node5" class="node">
<title>Node5</title>
<g id="a_node5"><a xlink:href="_diffusion_ops_8cpp.html" target="_top" xlink:title=" ">
<polygon fill="white" stroke="black" points="144,-168.5 144,-187.5 243,-187.5 243,-168.5 144,-168.5"/>
<text text-anchor="middle" x="193.5" y="-175.5" font-family="Helvetica,sans-Serif" font-size="10.00">DiffusionOps.cpp</text>
</a>
</g>
</g>
<!-- Node4&#45;&gt;Node5 -->
<g id="edge4" class="edge">
<title>Node4&#45;&gt;Node5</title>
<path fill="none" stroke="midnightblue" d="M266.16,-219.45C248.26,-209.48 224.45,-196.23 209.05,-187.65"/>
<polygon fill="midnightblue" stroke="midnightblue" points="264.48,-222.52 274.92,-224.32 267.88,-216.4 264.48,-222.52"/>
</g>
<!-- Node6 -->
<g id="node6" class="node">
<title>Node6</title>
<g id="a_node6"><a xlink:href="icns__diffusion_8_h.html" target="_top" xlink:title=" ">
<polygon fill="white" stroke="black" points="162.5,-56.5 162.5,-75.5 256.5,-75.5 256.5,-56.5 162.5,-56.5"/>
<text text-anchor="middle" x="209.5" y="-63.5" font-family="Helvetica,sans-Serif" font-size="10.00">icns_diffusion.H</text>
</a>
</g>
</g>
<!-- Node4&#45;&gt;Node6 -->
<g id="edge5" class="edge">
<title>Node4&#45;&gt;Node6</title>
<path fill="none" stroke="midnightblue" d="M281.65,-214.86C264.27,-179.25 226.31,-101.45 213.68,-75.57"/>
<polygon fill="midnightblue" stroke="midnightblue" points="278.61,-216.62 286.15,-224.08 284.91,-213.55 278.61,-216.62"/>
</g>
<!-- Node8 -->
<g id="node8" class="node">
<title>Node8</title>
<g id="a_node8"><a xlink:href="icns__ops_8_h.html" target="_top" xlink:title=" ">
<polygon fill="white" stroke="black" points="275,-56.5 275,-75.5 344,-75.5 344,-56.5 275,-56.5"/>
<text text-anchor="middle" x="309.5" y="-63.5" font-family="Helvetica,sans-Serif" font-size="10.00">icns_ops.H</text>
</a>
</g>
</g>
<!-- Node4&#45;&gt;Node8 -->
<g id="edge7" class="edge">
<title>Node4&#45;&gt;Node8</title>
<path fill="none" stroke="midnightblue" d="M292.68,-213.93C296.8,-177.92 305.58,-101.23 308.52,-75.57"/>
<polygon fill="midnightblue" stroke="midnightblue" points="289.18,-213.74 291.52,-224.08 296.14,-214.54 289.18,-213.74"/>
</g>
<!-- Node9 -->
<g id="node9" class="node">
<title>Node9</title>
<g id="a_node9"><a xlink:href="_p_d_e_8_h.html" target="_top" xlink:title=" ">
<polygon fill="white" stroke="black" points="1128,-168.5 1128,-187.5 1175,-187.5 1175,-168.5 1128,-168.5"/>
<text text-anchor="middle" x="1151.5" y="-175.5" font-family="Helvetica,sans-Serif" font-size="10.00">PDE.H</text>
</a>
</g>
</g>
<!-- Node4&#45;&gt;Node9 -->
<g id="edge9" class="edge">
<title>Node4&#45;&gt;Node9</title>
<path fill="none" stroke="midnightblue" d="M345.51,-223.89C660.5,-189.1 1031.93,-180.94 1127.95,-179.34"/>
<polygon fill="midnightblue" stroke="midnightblue" points="344.82,-220.45 335.27,-225.03 345.6,-227.4 344.82,-220.45"/>
</g>
<!-- Node7 -->
<g id="node7" class="node">
<title>Node7</title>
<g id="a_node7"><a xlink:href="icns_8cpp.html" target="_top" xlink:title=" ">
<polygon fill="white" stroke="black" points="344.5,-0.5 344.5,-19.5 400.5,-19.5 400.5,-0.5 344.5,-0.5"/>
<text text-anchor="middle" x="372.5" y="-7.5" font-family="Helvetica,sans-Serif" font-size="10.00">icns.cpp</text>
</a>
</g>
</g>
<!-- Node6&#45;&gt;Node7 -->
<g id="edge6" class="edge">
<title>Node6&#45;&gt;Node7</title>
<path fill="none" stroke="midnightblue" d="M245.2,-53.17C275.9,-43 319.42,-28.59 346.79,-19.52"/>
<polygon fill="midnightblue" stroke="midnightblue" points="243.72,-49.98 235.33,-56.44 245.92,-56.62 243.72,-49.98"/>
</g>
<!-- Node8&#45;&gt;Node7 -->
<g id="edge8" class="edge">
<title>Node8&#45;&gt;Node7</title>
<path fill="none" stroke="midnightblue" d="M327.54,-49.54C338.77,-39.91 352.82,-27.87 362.19,-19.83"/>
<polygon fill="midnightblue" stroke="midnightblue" points="324.94,-47.16 319.62,-56.32 329.49,-52.47 324.94,-47.16"/>
</g>
<!-- Node10 -->
<g id="node10" class="node">
<title>Node10</title>
<g id="a_node10"><a xlink:href="density_8_h.html" target="_top" xlink:title=" ">
<polygon fill="white" stroke="black" points="909.5,-112.5 909.5,-131.5 971.5,-131.5 971.5,-112.5 909.5,-112.5"/>
<text text-anchor="middle" x="940.5" y="-119.5" font-family="Helvetica,sans-Serif" font-size="10.00">density.H</text>
</a>
</g>
</g>
<!-- Node9&#45;&gt;Node10 -->
<g id="edge10" class="edge">
<title>Node9&#45;&gt;Node10</title>
<path fill="none" stroke="midnightblue" d="M1117.84,-168.39C1077.61,-158.09 1010.84,-141 971.72,-130.99"/>
<polygon fill="midnightblue" stroke="midnightblue" points="1117.15,-171.82 1127.71,-170.91 1118.89,-165.04 1117.15,-171.82"/>
</g>
<!-- Node13 -->
<g id="node13" class="node">
<title>Node13</title>
<g id="a_node13"><a xlink:href="icns_8_h.html" target="_top" xlink:title=" ">
<polygon fill="white" stroke="black" points="468,-112.5 468,-131.5 515,-131.5 515,-112.5 468,-112.5"/>
<text text-anchor="middle" x="491.5" y="-119.5" font-family="Helvetica,sans-Serif" font-size="10.00">icns.H</text>
</a>
</g>
</g>
<!-- Node9&#45;&gt;Node13 -->
<g id="edge14" class="edge">
<title>Node9&#45;&gt;Node13</title>
<path fill="none" stroke="midnightblue" d="M1117.43,-174.21C1000.07,-164.61 614.34,-133.05 515,-124.92"/>
<polygon fill="midnightblue" stroke="midnightblue" points="1117.37,-177.72 1127.62,-175.05 1117.94,-170.74 1117.37,-177.72"/>
</g>
<!-- Node19 -->
<g id="node19" class="node">
<title>Node19</title>
<g id="a_node19"><a xlink:href="levelset_8_h.html" target="_top" xlink:title=" ">
<polygon fill="white" stroke="black" points="1051.5,-112.5 1051.5,-131.5 1117.5,-131.5 1117.5,-112.5 1051.5,-112.5"/>
<text text-anchor="middle" x="1084.5" y="-119.5" font-family="Helvetica,sans-Serif" font-size="10.00">levelset.H</text>
</a>
</g>
</g>
<!-- Node9&#45;&gt;Node19 -->
<g id="edge25" class="edge">
<title>Node9&#45;&gt;Node19</title>
<path fill="none" stroke="midnightblue" d="M1132.67,-161.82C1120.66,-152.15 1105.53,-139.95 1095.46,-131.83"/>
<polygon fill="midnightblue" stroke="midnightblue" points="1130.75,-164.77 1140.74,-168.32 1135.15,-159.32 1130.75,-164.77"/>
</g>
<!-- Node22 -->
<g id="node22" class="node">
<title>Node22</title>
<g id="a_node22"><a xlink:href="_s_d_r_8_h.html" target="_top" xlink:title=" ">
<polygon fill="white" stroke="black" points="1225,-112.5 1225,-131.5 1272,-131.5 1272,-112.5 1225,-112.5"/>
<text text-anchor="middle" x="1248.5" y="-119.5" font-family="Helvetica,sans-Serif" font-size="10.00">SDR.H</text>
</a>
</g>
</g>
<!-- Node9&#45;&gt;Node22 -->
<g id="edge29" class="edge">
<title>Node9&#45;&gt;Node22</title>
<path fill="none" stroke="midnightblue" d="M1175.84,-163.45C1193.74,-153.48 1217.55,-140.23 1232.95,-131.65"/>
<polygon fill="midnightblue" stroke="midnightblue" points="1174.12,-160.4 1167.08,-168.32 1177.52,-166.52 1174.12,-160.4"/>
</g>
<!-- Node28 -->
<g id="node28" class="node">
<title>Node28</title>
<g id="a_node28"><a xlink:href="temperature_8_h.html" target="_top" xlink:title=" ">
<polygon fill="white" stroke="black" points="1713.5,-112.5 1713.5,-131.5 1801.5,-131.5 1801.5,-112.5 1713.5,-112.5"/>
<text text-anchor="middle" x="1757.5" y="-119.5" font-family="Helvetica,sans-Serif" font-size="10.00">temperature.H</text>
</a>
</g>
</g>
<!-- Node9&#45;&gt;Node28 -->
<g id="edge38" class="edge">
<title>Node9&#45;&gt;Node28</title>
<path fill="none" stroke="midnightblue" d="M1185.4,-173.98C1288.43,-164.8 1597.85,-137.23 1713.37,-126.93"/>
<polygon fill="midnightblue" stroke="midnightblue" points="1184.91,-170.51 1175.26,-174.88 1185.53,-177.48 1184.91,-170.51"/>
</g>
<!-- Node30 -->
<g id="node30" class="node">
<title>Node30</title>
<g id="a_node30"><a xlink:href="_t_k_e_8_h.html" target="_top" xlink:title=" ">
<polygon fill="white" stroke="black" points="1497.5,-112.5 1497.5,-131.5 1543.5,-131.5 1543.5,-112.5 1497.5,-112.5"/>
<text text-anchor="middle" x="1520.5" y="-119.5" font-family="Helvetica,sans-Serif" font-size="10.00">TKE.H</text>
</a>
</g>
</g>
<!-- Node9&#45;&gt;Node30 -->
<g id="edge40" class="edge">
<title>Node9&#45;&gt;Node30</title>
<path fill="none" stroke="midnightblue" d="M1185.3,-172.05C1259.23,-161.23 1433.76,-135.69 1497.05,-126.43"/>
<polygon fill="midnightblue" stroke="midnightblue" points="1184.53,-168.63 1175.14,-173.54 1185.55,-175.55 1184.53,-168.63"/>
</g>
<!-- Node35 -->
<g id="node35" class="node">
<title>Node35</title>
<g id="a_node35"><a xlink:href="vof_8_h.html" target="_top" xlink:title=" ">
<polygon fill="white" stroke="black" points="2040.5,-112.5 2040.5,-131.5 2082.5,-131.5 2082.5,-112.5 2040.5,-112.5"/>
<text text-anchor="middle" x="2061.5" y="-119.5" font-family="Helvetica,sans-Serif" font-size="10.00">vof.H</text>
</a>
</g>
</g>
<!-- Node9&#45;&gt;Node35 -->
<g id="edge49" class="edge">
<title>Node9&#45;&gt;Node35</title>
<path fill="none" stroke="midnightblue" d="M1185.68,-174.97C1334.18,-166.16 1921.16,-131.33 2040.33,-124.26"/>
<polygon fill="midnightblue" stroke="midnightblue" points="1185.15,-171.5 1175.37,-175.58 1185.56,-178.48 1185.15,-171.5"/>
</g>
<!-- Node11 -->
<g id="node11" class="node">
<title>Node11</title>
<g id="a_node11"><a xlink:href="density_8cpp.html" target="_top" xlink:title=" ">
<polygon fill="white" stroke="black" points="859,-0.5 859,-19.5 930,-19.5 930,-0.5 859,-0.5"/>
<text text-anchor="middle" x="894.5" y="-7.5" font-family="Helvetica,sans-Serif" font-size="10.00">density.cpp</text>
</a>
</g>
</g>
<!-- Node10&#45;&gt;Node11 -->
<g id="edge11" class="edge">
<title>Node10&#45;&gt;Node11</title>
<path fill="none" stroke="midnightblue" d="M916.13,-106.73C905.55,-99.09 894.28,-88.64 888.5,-76 880.02,-57.45 886.43,-32.85 890.99,-19.88"/>
<polygon fill="midnightblue" stroke="midnightblue" points="914.46,-109.82 924.72,-112.47 918.35,-104 914.46,-109.82"/>
</g>
<!-- Node12 -->
<g id="node12" class="node">
<title>Node12</title>
<g id="a_node12"><a xlink:href="density__ops_8_h.html" target="_top" xlink:title=" ">
<polygon fill="white" stroke="black" points="897.5,-56.5 897.5,-75.5 983.5,-75.5 983.5,-56.5 897.5,-56.5"/>
<text text-anchor="middle" x="940.5" y="-63.5" font-family="Helvetica,sans-Serif" font-size="10.00">density_ops.H</text>
</a>
</g>
</g>
<!-- Node10&#45;&gt;Node12 -->
<g id="edge12" class="edge">
<title>Node10&#45;&gt;Node12</title>
<path fill="none" stroke="midnightblue" d="M940.5,-101.8C940.5,-92.91 940.5,-82.78 940.5,-75.75"/>
<polygon fill="midnightblue" stroke="midnightblue" points="937,-102.08 940.5,-112.08 944,-102.08 937,-102.08"/>
</g>
<!-- Node12&#45;&gt;Node11 -->
<g id="edge13" class="edge">
<title>Node12&#45;&gt;Node11</title>
<path fill="none" stroke="midnightblue" d="M926.39,-48.43C918.32,-38.97 908.54,-27.48 901.95,-19.75"/>
<polygon fill="midnightblue" stroke="midnightblue" points="923.75,-50.74 932.9,-56.08 929.08,-46.2 923.75,-50.74"/>
</g>
<!-- Node13&#45;&gt;Node6 -->
<g id="edge21" class="edge">
<title>Node13&#45;&gt;Node6</title>
<path fill="none" stroke="midnightblue" d="M457.81,-114.55C406.97,-104.81 310.55,-86.35 253.99,-75.52"/>
<polygon fill="midnightblue" stroke="midnightblue" points="457.46,-118.05 467.94,-116.49 458.78,-111.17 457.46,-118.05"/>
</g>
<!-- Node13&#45;&gt;Node7 -->
<g id="edge15" class="edge">
<title>Node13&#45;&gt;Node7</title>
<path fill="none" stroke="midnightblue" d="M457.99,-113.66C436.16,-107.22 408.66,-95.71 391.5,-76 377.3,-59.68 373.7,-33.24 372.79,-19.66"/>
<polygon fill="midnightblue" stroke="midnightblue" points="457.3,-117.1 467.87,-116.35 459.14,-110.35 457.3,-117.1"/>
</g>
<!-- Node13&#45;&gt;Node8 -->
<g id="edge22" class="edge">
<title>Node13&#45;&gt;Node8</title>
<path fill="none" stroke="midnightblue" d="M457.69,-110.97C423.38,-100.79 370.83,-85.2 338.4,-75.58"/>
<polygon fill="midnightblue" stroke="midnightblue" points="457.12,-114.45 467.71,-113.94 459.12,-107.74 457.12,-114.45"/>
</g>
<!-- Node14 -->
<g id="node14" class="node">
<title>Node14</title>
<g id="a_node14"><a xlink:href="icns__advection_8_h.html" target="_top" xlink:title=" ">
<polygon fill="white" stroke="black" points="494.5,-56.5 494.5,-75.5 594.5,-75.5 594.5,-56.5 494.5,-56.5"/>
<text text-anchor="middle" x="544.5" y="-63.5" font-family="Helvetica,sans-Serif" font-size="10.00">icns_advection.H</text>
</a>
</g>
</g>
<!-- Node13&#45;&gt;Node14 -->
<g id="edge16" class="edge">
<title>Node13&#45;&gt;Node14</title>
<path fill="none" stroke="midnightblue" d="M507.48,-104.72C516.82,-95.2 528.25,-83.56 535.91,-75.75"/>
<polygon fill="midnightblue" stroke="midnightblue" points="504.76,-102.49 500.25,-112.08 509.75,-107.4 504.76,-102.49"/>
</g>
<!-- Node16 -->
<g id="node16" class="node">
<title>Node16</title>
<g id="a_node16"><a xlink:href="icns__bcop_8_h.html" target="_top" xlink:title=" ">
<polygon fill="white" stroke="black" points="401,-56.5 401,-75.5 476,-75.5 476,-56.5 401,-56.5"/>
<text text-anchor="middle" x="438.5" y="-63.5" font-family="Helvetica,sans-Serif" font-size="10.00">icns_bcop.H</text>
</a>
</g>
</g>
<!-- Node13&#45;&gt;Node16 -->
<g id="edge19" class="edge">
<title>Node13&#45;&gt;Node16</title>
<path fill="none" stroke="midnightblue" d="M475.52,-104.72C466.18,-95.2 454.75,-83.56 447.09,-75.75"/>
<polygon fill="midnightblue" stroke="midnightblue" points="473.25,-107.4 482.75,-112.08 478.24,-102.49 473.25,-107.4"/>
</g>
<!-- Node17 -->
<g id="node17" class="node">
<title>Node17</title>
<g id="a_node17"><a xlink:href="_burggraf_lid_8cpp.html" target="_top" xlink:title=" ">
<polygon fill="white" stroke="black" points="613,-56.5 613,-75.5 706,-75.5 706,-56.5 613,-56.5"/>
<text text-anchor="middle" x="659.5" y="-63.5" font-family="Helvetica,sans-Serif" font-size="10.00">BurggrafLid.cpp</text>
</a>
</g>
</g>
<!-- Node13&#45;&gt;Node17 -->
<g id="edge23" class="edge">
<title>Node13&#45;&gt;Node17</title>
<path fill="none" stroke="midnightblue" d="M524.92,-110.26C556.62,-100.07 603.61,-84.96 632.86,-75.56"/>
<polygon fill="midnightblue" stroke="midnightblue" points="523.66,-106.99 515.21,-113.38 525.81,-113.65 523.66,-106.99"/>
</g>
<!-- Node18 -->
<g id="node18" class="node">
<title>Node18</title>
<g id="a_node18"><a xlink:href="_power_law_profile_8cpp.html" target="_top" xlink:title=" ">
<polygon fill="white" stroke="black" points="724,-56.5 724,-75.5 841,-75.5 841,-56.5 724,-56.5"/>
<text text-anchor="middle" x="782.5" y="-63.5" font-family="Helvetica,sans-Serif" font-size="10.00">PowerLawProfile.cpp</text>
</a>
</g>
</g>
<!-- Node13&#45;&gt;Node18 -->
<g id="edge24" class="edge">
<title>Node13&#45;&gt;Node18</title>
<path fill="none" stroke="midnightblue" d="M525.4,-114.71C577.66,-105.01 677.98,-86.4 736.66,-75.51"/>
<polygon fill="midnightblue" stroke="midnightblue" points="524.51,-111.32 515.31,-116.58 525.78,-118.2 524.51,-111.32"/>
</g>
<!-- Node14&#45;&gt;Node7 -->
<g id="edge17" class="edge">
<title>Node14&#45;&gt;Node7</title>
<path fill="none" stroke="midnightblue" d="M507.67,-53.44C475.24,-43.26 428.76,-28.66 399.63,-19.52"/>
<polygon fill="midnightblue" stroke="midnightblue" points="506.66,-56.79 517.25,-56.44 508.75,-50.11 506.66,-56.79"/>
</g>
<!-- Node15 -->
<g id="node15" class="node">
<title>Node15</title>
<g id="a_node15"><a xlink:href="icns__advection_8cpp.html" target="_top" xlink:title=" ">
<polygon fill="white" stroke="black" points="489.5,-0.5 489.5,-19.5 599.5,-19.5 599.5,-0.5 489.5,-0.5"/>
<text text-anchor="middle" x="544.5" y="-7.5" font-family="Helvetica,sans-Serif" font-size="10.00">icns_advection.cpp</text>
</a>
</g>
</g>
<!-- Node14&#45;&gt;Node15 -->
<g id="edge18" class="edge">
<title>Node14&#45;&gt;Node15</title>
<path fill="none" stroke="midnightblue" d="M544.5,-45.8C544.5,-36.91 544.5,-26.78 544.5,-19.75"/>
<polygon fill="midnightblue" stroke="midnightblue" points="541,-46.08 544.5,-56.08 548,-46.08 541,-46.08"/>
</g>
<!-- Node16&#45;&gt;Node7 -->
<g id="edge20" class="edge">
<title>Node16&#45;&gt;Node7</title>
<path fill="none" stroke="midnightblue" d="M419.95,-49.82C408.12,-40.15 393.21,-27.95 383.3,-19.83"/>
<polygon fill="midnightblue" stroke="midnightblue" points="417.94,-52.7 427.9,-56.32 422.37,-47.28 417.94,-52.7"/>
</g>
<!-- Node20 -->
<g id="node20" class="node">
<title>Node20</title>
<g id="a_node20"><a xlink:href="levelset_8cpp.html" target="_top" xlink:title=" ">
<polygon fill="white" stroke="black" points="1003.5,-0.5 1003.5,-19.5 1079.5,-19.5 1079.5,-0.5 1003.5,-0.5"/>
<text text-anchor="middle" x="1041.5" y="-7.5" font-family="Helvetica,sans-Serif" font-size="10.00">levelset.cpp</text>
</a>
</g>
</g>
<!-- Node19&#45;&gt;Node20 -->
<g id="edge26" class="edge">
<title>Node19&#45;&gt;Node20</title>
<path fill="none" stroke="midnightblue" d="M1059.32,-107C1048.31,-99.4 1036.54,-88.91 1030.5,-76 1021.76,-57.34 1030.75,-32.79 1036.86,-19.85"/>
<polygon fill="midnightblue" stroke="midnightblue" points="1057.56,-110.03 1067.87,-112.46 1061.33,-104.13 1057.56,-110.03"/>
</g>
<!-- Node21 -->
<g id="node21" class="node">
<title>Node21</title>
<g id="a_node21"><a xlink:href="levelset__ops_8_h.html" target="_top" xlink:title=" ">
<polygon fill="white" stroke="black" points="1040,-56.5 1040,-75.5 1129,-75.5 1129,-56.5 1040,-56.5"/>
<text text-anchor="middle" x="1084.5" y="-63.5" font-family="Helvetica,sans-Serif" font-size="10.00">levelset_ops.H</text>
</a>
</g>
</g>
<!-- Node19&#45;&gt;Node21 -->
<g id="edge27" class="edge">
<title>Node19&#45;&gt;Node21</title>
<path fill="none" stroke="midnightblue" d="M1084.5,-101.8C1084.5,-92.91 1084.5,-82.78 1084.5,-75.75"/>
<polygon fill="midnightblue" stroke="midnightblue" points="1081,-102.08 1084.5,-112.08 1088,-102.08 1081,-102.08"/>
</g>
<!-- Node21&#45;&gt;Node20 -->
<g id="edge28" class="edge">
<title>Node21&#45;&gt;Node20</title>
<path fill="none" stroke="midnightblue" d="M1071.08,-48.14C1063.59,-38.74 1054.56,-27.4 1048.47,-19.75"/>
<polygon fill="midnightblue" stroke="midnightblue" points="1068.43,-50.44 1077.4,-56.08 1073.91,-46.08 1068.43,-50.44"/>
</g>
<!-- Node23 -->
<g id="node23" class="node">
<title>Node23</title>
<g id="a_node23"><a xlink:href="_s_d_r_8cpp.html" target="_top" xlink:title=" ">
<polygon fill="white" stroke="black" points="1159,-0.5 1159,-19.5 1216,-19.5 1216,-0.5 1159,-0.5"/>
<text text-anchor="middle" x="1187.5" y="-7.5" font-family="Helvetica,sans-Serif" font-size="10.00">SDR.cpp</text>
</a>
</g>
</g>
<!-- Node22&#45;&gt;Node23 -->
<g id="edge30" class="edge">
<title>Node22&#45;&gt;Node23</title>
<path fill="none" stroke="midnightblue" d="M1215.38,-109C1200.7,-101.84 1184.88,-91.12 1176.5,-76 1166.4,-57.78 1176.22,-32.61 1182.74,-19.59"/>
<polygon fill="midnightblue" stroke="midnightblue" points="1214.22,-112.32 1224.77,-113.21 1217.08,-105.93 1214.22,-112.32"/>
</g>
<!-- Node24 -->
<g id="node24" class="node">
<title>Node24</title>
<g id="a_node24"><a xlink:href="sdr__ops_8_h.html" target="_top" xlink:title=" ">
<polygon fill="white" stroke="black" points="1186,-56.5 1186,-75.5 1251,-75.5 1251,-56.5 1186,-56.5"/>
<text text-anchor="middle" x="1218.5" y="-63.5" font-family="Helvetica,sans-Serif" font-size="10.00">sdr_ops.H</text>
</a>
</g>
</g>
<!-- Node22&#45;&gt;Node24 -->
<g id="edge31" class="edge">
<title>Node22&#45;&gt;Node24</title>
<path fill="none" stroke="midnightblue" d="M1238.65,-103.27C1233.53,-94.05 1227.48,-83.17 1223.36,-75.75"/>
<polygon fill="midnightblue" stroke="midnightblue" points="1235.63,-105.04 1243.55,-112.08 1241.75,-101.64 1235.63,-105.04"/>
</g>
<!-- Node25 -->
<g id="node25" class="node">
<title>Node25</title>
<g id="a_node25"><a xlink:href="_k_omega_s_s_t_8cpp.html" target="_top" xlink:title=" ">
<polygon fill="white" stroke="black" points="1294,-0.5 1294,-19.5 1389,-19.5 1389,-0.5 1294,-0.5"/>
<text text-anchor="middle" x="1341.5" y="-7.5" font-family="Helvetica,sans-Serif" font-size="10.00">KOmegaSST.cpp</text>
</a>
</g>
</g>
<!-- Node22&#45;&gt;Node25 -->
<g id="edge33" class="edge">
<title>Node22&#45;&gt;Node25</title>
<path fill="none" stroke="midnightblue" d="M1260.71,-104.12C1270.56,-90.76 1284.94,-71.8 1298.5,-56 1309.76,-42.88 1323.74,-28.58 1332.64,-19.7"/>
<polygon fill="midnightblue" stroke="midnightblue" points="1257.77,-102.22 1254.69,-112.36 1263.42,-106.35 1257.77,-102.22"/>
</g>
<!-- Node26 -->
<g id="node26" class="node">
<title>Node26</title>
<g id="a_node26"><a xlink:href="_k_omega_s_s_t_i_8_h.html" target="_top" xlink:title=" ">
<polygon fill="white" stroke="black" points="1308,-56.5 1308,-75.5 1397,-75.5 1397,-56.5 1308,-56.5"/>
<text text-anchor="middle" x="1352.5" y="-63.5" font-family="Helvetica,sans-Serif" font-size="10.00">KOmegaSSTI.H</text>
</a>
</g>
</g>
<!-- Node22&#45;&gt;Node26 -->
<g id="edge34" class="edge">
<title>Node22&#45;&gt;Node26</title>
<path fill="none" stroke="midnightblue" d="M1274.33,-107.59C1293.56,-97.61 1319.24,-84.27 1335.83,-75.65"/>
<polygon fill="midnightblue" stroke="midnightblue" points="1272.47,-104.61 1265.21,-112.32 1275.7,-110.82 1272.47,-104.61"/>
</g>
<!-- Node27 -->
<g id="node27" class="node">
<title>Node27</title>
<g id="a_node27"><a xlink:href="_k_omega_s_s_t_i_d_d_e_s_8cpp.html" target="_top" xlink:title=" ">
<polygon fill="white" stroke="black" points="1407.5,-0.5 1407.5,-19.5 1533.5,-19.5 1533.5,-0.5 1407.5,-0.5"/>
<text text-anchor="middle" x="1470.5" y="-7.5" font-family="Helvetica,sans-Serif" font-size="10.00">KOmegaSSTIDDES.cpp</text>
</a>
</g>
</g>
<!-- Node22&#45;&gt;Node27 -->
<g id="edge37" class="edge">
<title>Node22&#45;&gt;Node27</title>
<path fill="none" stroke="midnightblue" d="M1282.14,-116.4C1315.33,-110.74 1366.59,-98.92 1405.5,-76 1431.08,-60.94 1453.8,-33.45 1464.32,-19.54"/>
<polygon fill="midnightblue" stroke="midnightblue" points="1281.36,-112.98 1272.04,-118.02 1282.47,-119.89 1281.36,-112.98"/>
</g>
<!-- Node24&#45;&gt;Node23 -->
<g id="edge32" class="edge">
<title>Node24&#45;&gt;Node23</title>
<path fill="none" stroke="midnightblue" d="M1208.32,-47.27C1203.03,-38.05 1196.78,-27.17 1192.52,-19.75"/>
<polygon fill="midnightblue" stroke="midnightblue" points="1205.37,-49.15 1213.38,-56.08 1211.44,-45.67 1205.37,-49.15"/>
</g>
<!-- Node26&#45;&gt;Node25 -->
<g id="edge35" class="edge">
<title>Node26&#45;&gt;Node25</title>
<path fill="none" stroke="midnightblue" d="M1348.65,-46.1C1346.82,-37.14 1344.73,-26.86 1343.28,-19.75"/>
<polygon fill="midnightblue" stroke="midnightblue" points="1345.26,-46.98 1350.68,-56.08 1352.12,-45.59 1345.26,-46.98"/>
</g>
<!-- Node26&#45;&gt;Node27 -->
<g id="edge36" class="edge">
<title>Node26&#45;&gt;Node27</title>
<path fill="none" stroke="midnightblue" d="M1380.4,-52.23C1402.47,-42.13 1432.68,-28.31 1451.89,-19.52"/>
<polygon fill="midnightblue" stroke="midnightblue" points="1378.83,-49.1 1371.2,-56.44 1381.75,-55.46 1378.83,-49.1"/>
</g>
<!-- Node29 -->
<g id="node29" class="node">
<title>Node29</title>
<g id="a_node29"><a xlink:href="temperature_8cpp.html" target="_top" xlink:title=" ">
<polygon fill="white" stroke="black" points="1859.5,-56.5 1859.5,-75.5 1957.5,-75.5 1957.5,-56.5 1859.5,-56.5"/>
<text text-anchor="middle" x="1908.5" y="-63.5" font-family="Helvetica,sans-Serif" font-size="10.00">temperature.cpp</text>
</a>
</g>
</g>
<!-- Node28&#45;&gt;Node29 -->
<g id="edge39" class="edge">
<title>Node28&#45;&gt;Node29</title>
<path fill="none" stroke="midnightblue" d="M1790.95,-109.04C1819.36,-98.88 1859.44,-84.55 1884.69,-75.52"/>
<polygon fill="midnightblue" stroke="midnightblue" points="1789.66,-105.78 1781.43,-112.44 1792.02,-112.37 1789.66,-105.78"/>
</g>
<!-- Node30&#45;&gt;Node25 -->
<g id="edge45" class="edge">
<title>Node30&#45;&gt;Node25</title>
<path fill="none" stroke="midnightblue" d="M1497.73,-107.01C1460.16,-83.92 1386.27,-38.51 1355.48,-19.59"/>
<polygon fill="midnightblue" stroke="midnightblue" points="1496.1,-110.11 1506.45,-112.37 1499.77,-104.15 1496.1,-110.11"/>
</g>
<!-- Node30&#45;&gt;Node26 -->
<g id="edge46" class="edge">
<title>Node30&#45;&gt;Node26</title>
<path fill="none" stroke="midnightblue" d="M1487.79,-110.49C1456.08,-100.29 1408.56,-85.02 1379.1,-75.55"/>
<polygon fill="midnightblue" stroke="midnightblue" points="1486.9,-113.88 1497.49,-113.6 1489.04,-107.21 1486.9,-113.88"/>
</g>
<!-- Node30&#45;&gt;Node27 -->
<g id="edge47" class="edge">
<title>Node30&#45;&gt;Node27</title>
<path fill="none" stroke="midnightblue" d="M1512.32,-103C1501.41,-79 1482.53,-37.47 1474.41,-19.59"/>
<polygon fill="midnightblue" stroke="midnightblue" points="1509.25,-104.71 1516.58,-112.37 1515.62,-101.82 1509.25,-104.71"/>
</g>
<!-- Node31 -->
<g id="node31" class="node">
<title>Node31</title>
<g id="a_node31"><a xlink:href="_t_k_e_8cpp.html" target="_top" xlink:title=" ">
<polygon fill="white" stroke="black" points="1558.5,-0.5 1558.5,-19.5 1614.5,-19.5 1614.5,-0.5 1558.5,-0.5"/>
<text text-anchor="middle" x="1586.5" y="-7.5" font-family="Helvetica,sans-Serif" font-size="10.00">TKE.cpp</text>
</a>
</g>
</g>
<!-- Node30&#45;&gt;Node31 -->
<g id="edge41" class="edge">
<title>Node30&#45;&gt;Node31</title>
<path fill="none" stroke="midnightblue" d="M1530.72,-103.22C1538.29,-90.11 1548.92,-71.88 1558.5,-56 1566.2,-43.24 1575.37,-28.61 1581.06,-19.58"/>
<polygon fill="midnightblue" stroke="midnightblue" points="1527.55,-101.71 1525.59,-112.12 1533.61,-105.21 1527.55,-101.71"/>
</g>
<!-- Node32 -->
<g id="node32" class="node">
<title>Node32</title>
<g id="a_node32"><a xlink:href="tke__ops_8_h.html" target="_top" xlink:title=" ">
<polygon fill="white" stroke="black" points="1568,-56.5 1568,-75.5 1633,-75.5 1633,-56.5 1568,-56.5"/>
<text text-anchor="middle" x="1600.5" y="-63.5" font-family="Helvetica,sans-Serif" font-size="10.00">tke_ops.H</text>
</a>
</g>
</g>
<!-- Node30&#45;&gt;Node32 -->
<g id="edge42" class="edge">
<title>Node30&#45;&gt;Node32</title>
<path fill="none" stroke="midnightblue" d="M1541.8,-106.62C1556.42,-96.76 1575.33,-83.99 1587.68,-75.65"/>
<polygon fill="midnightblue" stroke="midnightblue" points="1539.68,-103.83 1533.35,-112.32 1543.6,-109.63 1539.68,-103.83"/>
</g>
<!-- Node33 -->
<g id="node33" class="node">
<title>Node33</title>
<g id="a_node33"><a xlink:href="_one_eq_ksgs_8cpp.html" target="_top" xlink:title=" ">
<polygon fill="white" stroke="black" points="1651.5,-56.5 1651.5,-75.5 1743.5,-75.5 1743.5,-56.5 1651.5,-56.5"/>
<text text-anchor="middle" x="1697.5" y="-63.5" font-family="Helvetica,sans-Serif" font-size="10.00">OneEqKsgs.cpp</text>
</a>
</g>
</g>
<!-- Node30&#45;&gt;Node33 -->
<g id="edge44" class="edge">
<title>Node30&#45;&gt;Node33</title>
<path fill="none" stroke="midnightblue" d="M1553.38,-110.97C1586.75,-100.79 1637.85,-85.2 1669.39,-75.58"/>
<polygon fill="midnightblue" stroke="midnightblue" points="1552.18,-107.67 1543.64,-113.94 1554.23,-114.37 1552.18,-107.67"/>
</g>
<!-- Node34 -->
<g id="node34" class="node">
<title>Node34</title>
<g id="a_node34"><a xlink:href="_a_b_l_stats_8cpp.html" target="_top" xlink:title=" ">
<polygon fill="white" stroke="black" points="1761.5,-56.5 1761.5,-75.5 1841.5,-75.5 1841.5,-56.5 1761.5,-56.5"/>
<text text-anchor="middle" x="1801.5" y="-63.5" font-family="Helvetica,sans-Serif" font-size="10.00">ABLStats.cpp</text>
</a>
</g>
</g>
<!-- Node30&#45;&gt;Node34 -->
<g id="edge48" class="edge">
<title>Node30&#45;&gt;Node34</title>
<path fill="none" stroke="midnightblue" d="M1554,-114.56C1605.95,-104.58 1705.73,-85.4 1761.42,-74.7"/>
<polygon fill="midnightblue" stroke="midnightblue" points="1553.13,-111.16 1543.97,-116.49 1554.46,-118.04 1553.13,-111.16"/>
</g>
<!-- Node32&#45;&gt;Node31 -->
<g id="edge43" class="edge">
<title>Node32&#45;&gt;Node31</title>
<path fill="none" stroke="midnightblue" d="M1595.68,-46.4C1593.33,-37.36 1590.63,-26.94 1588.77,-19.75"/>
<polygon fill="midnightblue" stroke="midnightblue" points="1592.29,-47.28 1598.19,-56.08 1599.07,-45.52 1592.29,-47.28"/>
</g>
<!-- Node36 -->
<g id="node36" class="node">
<title>Node36</title>
<g id="a_node36"><a xlink:href="vof_8cpp.html" target="_top" xlink:title=" ">
<polygon fill="white" stroke="black" points="2086.5,-0.5 2086.5,-19.5 2138.5,-19.5 2138.5,-0.5 2086.5,-0.5"/>
<text text-anchor="middle" x="2112.5" y="-7.5" font-family="Helvetica,sans-Serif" font-size="10.00">vof.cpp</text>
</a>
</g>
</g>
<!-- Node35&#45;&gt;Node36 -->
<g id="edge50" class="edge">
<title>Node35&#45;&gt;Node36</title>
<path fill="none" stroke="midnightblue" d="M2035.18,-107.26C2014.7,-94.67 1991.74,-75.15 2004.5,-56 2022.64,-28.79 2060.68,-18.01 2086.41,-13.75"/>
<polygon fill="midnightblue" stroke="midnightblue" points="2033.58,-110.37 2043.99,-112.36 2037.09,-104.32 2033.58,-110.37"/>
</g>
<!-- Node37 -->
<g id="node37" class="node">
<title>Node37</title>
<g id="a_node37"><a xlink:href="vof__advection_8_h.html" target="_top" xlink:title=" ">
<polygon fill="white" stroke="black" points="2013.5,-56.5 2013.5,-75.5 2109.5,-75.5 2109.5,-56.5 2013.5,-56.5"/>
<text text-anchor="middle" x="2061.5" y="-63.5" font-family="Helvetica,sans-Serif" font-size="10.00">vof_advection.H</text>
</a>
</g>
</g>
<!-- Node35&#45;&gt;Node37 -->
<g id="edge51" class="edge">
<title>Node35&#45;&gt;Node37</title>
<path fill="none" stroke="midnightblue" d="M2061.5,-101.8C2061.5,-92.91 2061.5,-82.78 2061.5,-75.75"/>
<polygon fill="midnightblue" stroke="midnightblue" points="2058,-102.08 2061.5,-112.08 2065,-102.08 2058,-102.08"/>
</g>
<!-- Node38 -->
<g id="node38" class="node">
<title>Node38</title>
<g id="a_node38"><a xlink:href="vof__bcop_8_h.html" target="_top" xlink:title=" ">
<polygon fill="white" stroke="black" points="2128,-56.5 2128,-75.5 2199,-75.5 2199,-56.5 2128,-56.5"/>
<text text-anchor="middle" x="2163.5" y="-63.5" font-family="Helvetica,sans-Serif" font-size="10.00">vof_bcop.H</text>
</a>
</g>
</g>
<!-- Node35&#45;&gt;Node38 -->
<g id="edge53" class="edge">
<title>Node35&#45;&gt;Node38</title>
<path fill="none" stroke="midnightblue" d="M2086.83,-107.59C2105.69,-97.61 2130.88,-84.27 2147.15,-75.65"/>
<polygon fill="midnightblue" stroke="midnightblue" points="2085.09,-104.55 2077.89,-112.32 2088.36,-110.74 2085.09,-104.55"/>
</g>
<!-- Node39 -->
<g id="node39" class="node">
<title>Node39</title>
<g id="a_node39"><a xlink:href="vof__ops_8_h.html" target="_top" xlink:title=" ">
<polygon fill="white" stroke="black" points="2217,-56.5 2217,-75.5 2282,-75.5 2282,-56.5 2217,-56.5"/>
<text text-anchor="middle" x="2249.5" y="-63.5" font-family="Helvetica,sans-Serif" font-size="10.00">vof_ops.H</text>
</a>
</g>
</g>
<!-- Node35&#45;&gt;Node39 -->
<g id="edge55" class="edge">
<title>Node35&#45;&gt;Node39</title>
<path fill="none" stroke="midnightblue" d="M2092.46,-112.11C2127.73,-101.98 2184.97,-85.53 2219.74,-75.55"/>
<polygon fill="midnightblue" stroke="midnightblue" points="2091.35,-108.79 2082.7,-114.91 2093.28,-115.51 2091.35,-108.79"/>
</g>
<!-- Node37&#45;&gt;Node36 -->
<g id="edge52" class="edge">
<title>Node37&#45;&gt;Node36</title>
<path fill="none" stroke="midnightblue" d="M2076.88,-48.72C2085.87,-39.2 2096.86,-27.56 2104.24,-19.75"/>
<polygon fill="midnightblue" stroke="midnightblue" points="2074.24,-46.41 2069.92,-56.08 2079.33,-51.22 2074.24,-46.41"/>
</g>
<!-- Node38&#45;&gt;Node36 -->
<g id="edge54" class="edge">
<title>Node38&#45;&gt;Node36</title>
<path fill="none" stroke="midnightblue" d="M2148.12,-48.72C2139.13,-39.2 2128.14,-27.56 2120.76,-19.75"/>
<polygon fill="midnightblue" stroke="midnightblue" points="2145.67,-51.22 2155.08,-56.08 2150.76,-46.41 2145.67,-51.22"/>
</g>
<!-- Node39&#45;&gt;Node36 -->
<g id="edge56" class="edge">
<title>Node39&#45;&gt;Node36</title>
<path fill="none" stroke="midnightblue" d="M2218.48,-52.77C2192.74,-42.63 2156.81,-28.47 2134.11,-19.52"/>
<polygon fill="midnightblue" stroke="midnightblue" points="2217.21,-56.03 2227.79,-56.44 2219.77,-49.52 2217.21,-56.03"/>
</g>
</g>
</svg>
        <g id="navigator" transform="translate(0 0)" fill="#404254">
                <rect fill="#f2f5e9" fill-opacity="0.5" stroke="#606060" stroke-width=".5" x="0" y="0" width="60" height="60"/>
                <use id="zoomplus" xlink:href="#zoomPlus" x="17" y="9" onmousedown="handleZoom(evt,'in')"/>
                <use id="zoomminus" xlink:href="#zoomMin" x="42" y="9" onmousedown="handleZoom(evt,'out')"/>
                <use id="reset" xlink:href="#resetDef" x="30" y="36" onmousedown="handleReset()"/>
                <g id="arrowUp" xlink:href="#dirArrow" transform="translate(30 24)" onmousedown="handlePan(0,-1)">
                  <use xlink:href="#rim" fill="#404040">
                        <set attributeName="fill" to="#808080" begin="arrowUp.mouseover" end="arrowUp.mouseout"/>
                  </use>
                  <path fill="none" stroke="white" stroke-width="1.5" d="M0,-3.0v7 M-2.5,-0.5L0,-3.0L2.5,-0.5"/>
                </g>
                <g id="arrowRight" xlink:href="#dirArrow" transform="rotate(90) translate(36 -43)" onmousedown="handlePan(1,0)">
                  <use xlink:href="#rim" fill="#404040">
                        <set attributeName="fill" to="#808080" begin="arrowRight.mouseover" end="arrowRight.mouseout"/>
                  </use>
                  <path fill="none" stroke="white" stroke-width="1.5" d="M0,-3.0v7 M-2.5,-0.5L0,-3.0L2.5,-0.5"/>
                </g>
                <g id="arrowDown" xlink:href="#dirArrow" transform="rotate(180) translate(-30 -48)" onmousedown="handlePan(0,1)">
                  <use xlink:href="#rim" fill="#404040">
                        <set attributeName="fill" to="#808080" begin="arrowDown.mouseover" end="arrowDown.mouseout"/>
                  </use>
                  <path fill="none" stroke="white" stroke-width="1.5" d="M0,-3.0v7 M-2.5,-0.5L0,-3.0L2.5,-0.5"/>
                </g>
                <g id="arrowLeft" xlink:href="#dirArrow" transform="rotate(270) translate(-36 17)" onmousedown="handlePan(-1,0)">
                  <use xlink:href="#rim" fill="#404040">
                        <set attributeName="fill" to="#808080" begin="arrowLeft.mouseover" end="arrowLeft.mouseout"/>
                  </use>
                  <path fill="none" stroke="white" stroke-width="1.5" d="M0,-3.0v7 M-2.5,-0.5L0,-3.0L2.5,-0.5"/>
                </g>
        </g>
        <svg viewBox="0 0 15 15" width="100%" height="30px" preserveAspectRatio="xMaxYMin meet">
         <g id="arrow_out" transform="scale(0.3 0.3)">
          <a xlink:href="diffusion_8_h__dep__incl_org.svg" target="_base">
           <rect id="button" ry="5" rx="5" y="6" x="6" height="38" width="38"
                fill="#f2f5e9" fill-opacity="0.5" stroke="#606060" stroke-width="1.0"/>
           <path id="arrow"
             d="M 11.500037,31.436501 C 11.940474,20.09759 22.043105,11.32322 32.158766,21.979434 L 37.068811,17.246167 C 37.068811,17.246167 37.088388,32 37.088388,32 L 22.160133,31.978069 C 22.160133,31.978069 26.997745,27.140456 26.997745,27.140456 C 18.528582,18.264221 13.291696,25.230495 11.500037,31.436501 z"
             style="fill:#404040;"/>
          </a>
         </g>
        </svg>
</svg>
