<?xml version="1.0" encoding="UTF-8" standalone="no"?>
<!DOCTYPE svg PUBLIC "-//W3C//DTD SVG 1.1//EN"
 "http://www.w3.org/Graphics/SVG/1.1/DTD/svg11.dtd">
<!-- Generated by graphviz version 2.43.0 (0)
 -->
<!-- Title: sampling Pages: 1 -->
<svg width="252pt" height="295pt"
 viewBox="0.00 0.00 252.00 295.00" xmlns="http://www.w3.org/2000/svg" xmlns:xlink="http://www.w3.org/1999/xlink">
<g id="graph0" class="graph" transform="scale(1 1) rotate(0) translate(4 291)">
<title>sampling</title>
<polygon fill="white" stroke="transparent" points="-4,4 -4,-291 248,-291 248,4 -4,4"/>
<g id="clust1" class="cluster">
<title>clusterdir_e4cd57caa88bf1f4e1bf9521bc47c3c0</title>
<g id="a_clust1"><a xlink:href="dir_e4cd57caa88bf1f4e1bf9521bc47c3c0.html" target="_top" xlink:title="utilities">
<polygon fill="#ddddee" stroke="black" points="8,-136 8,-279 86,-279 86,-136 8,-136"/>
<text text-anchor="middle" x="47" y="-267" font-family="Helvetica,sans-Serif" font-size="10.00">utilities</text>
</a>
</g>
</g>
<!-- dir_e4878a39f7a1ff4e13f4c83bf1db7931 -->
<g id="node1" class="node">
<title>dir_e4878a39f7a1ff4e13f4c83bf1db7931</title>
<g id="a_node1"><a xlink:href="dir_e4878a39f7a1ff4e13f4c83bf1db7931.html" target="_top" xlink:title="ncutils">
<polygon fill="none" stroke="black" points="70,-180 16,-180 16,-144 70,-144 70,-180"/>
<text text-anchor="middle" x="43" y="-159.5" font-family="Helvetica,sans-Serif" font-size="10.00">ncutils</text>
</a>
</g>
</g>
<!-- dir_0ad5cc9f0732862bd2f85bb38c1084f0 -->
<g id="node2" class="node">
<title>dir_0ad5cc9f0732862bd2f85bb38c1084f0</title>
<g id="a_node2"><a xlink:href="dir_0ad5cc9f0732862bd2f85bb38c1084f0.html" target="_top" xlink:title="sampling">
<polygon fill="#eeeeff" stroke="black" points="78,-252 16,-252 16,-216 78,-216 78,-252"/>
<text text-anchor="middle" x="47" y="-231.5" font-family="Helvetica,sans-Serif" font-size="10.00">sampling</text>
</a>
</g>
</g>
<!-- dir_0ad5cc9f0732862bd2f85bb38c1084f0&#45;&gt;dir_e4878a39f7a1ff4e13f4c83bf1db7931 -->
<g id="edge8" class="edge">
<title>dir_0ad5cc9f0732862bd2f85bb38c1084f0&#45;&gt;dir_e4878a39f7a1ff4e13f4c83bf1db7931</title>
<path fill="none" stroke="black" d="M46.01,-215.7C45.57,-207.98 45.04,-198.71 44.55,-190.11"/>
<polygon fill="black" stroke="black" points="48.04,-189.89 43.98,-180.1 41.05,-190.29 48.04,-189.89"/>
<g id="a_edge8&#45;headlabel"><a xlink:href="dir_000027_000044.html" target="_top" xlink:title="7">
<text text-anchor="middle" x="51.08" y="-190.82" font-family="Helvetica,sans-Serif" font-size="10.00">7</text>
</a>
</g>
</g>
<!-- dir_3d3615e9a999cab4f3407307569d6ced -->
<g id="node3" class="node">
<title>dir_3d3615e9a999cab4f3407307569d6ced</title>
<g id="a_node3"><a xlink:href="dir_3d3615e9a999cab4f3407307569d6ced.html" target="_top" xlink:title="core">
<polygon fill="white" stroke="red" points="207,-36 153,-36 153,0 207,0 207,-36"/>
<text text-anchor="middle" x="180" y="-15.5" font-family="Helvetica,sans-Serif" font-size="10.00">core</text>
</a>
</g>
</g>
<!-- dir_0ad5cc9f0732862bd2f85bb38c1084f0&#45;&gt;dir_3d3615e9a999cab4f3407307569d6ced -->
<g id="edge5" class="edge">
<title>dir_0ad5cc9f0732862bd2f85bb38c1084f0&#45;&gt;dir_3d3615e9a999cab4f3407307569d6ced</title>
<path fill="none" stroke="black" d="M58.6,-215.83C65.13,-205.69 73.13,-192.44 79,-180 100.71,-133.98 88.06,-113.86 117,-72 124.7,-60.87 135.32,-50.72 145.65,-42.35"/>
<polygon fill="black" stroke="black" points="148.04,-44.92 153.81,-36.04 143.76,-39.39 148.04,-44.92"/>
<g id="a_edge5&#45;headlabel"><a xlink:href="dir_000027_000022.html" target="_top" xlink:title="4">
<text text-anchor="middle" x="146.94" y="-46.87" font-family="Helvetica,sans-Serif" font-size="10.00">4</text>
</a>
</g>
</g>
<!-- dir_4bb30ed846ea1df1fc4d16874a455d91 -->
<g id="node4" class="node">
<title>dir_4bb30ed846ea1df1fc4d16874a455d91</title>
<g id="a_node4"><a xlink:href="dir_4bb30ed846ea1df1fc4d16874a455d91.html" target="_top" xlink:title="equation_systems">
<polygon fill="white" stroke="red" points="244,-252 138,-252 138,-216 244,-216 244,-252"/>
<text text-anchor="middle" x="191" y="-231.5" font-family="Helvetica,sans-Serif" font-size="10.00">equation_systems</text>
</a>
</g>
</g>
<!-- dir_0ad5cc9f0732862bd2f85bb38c1084f0&#45;&gt;dir_4bb30ed846ea1df1fc4d16874a455d91 -->
<g id="edge6" class="edge">
<title>dir_0ad5cc9f0732862bd2f85bb38c1084f0&#45;&gt;dir_4bb30ed846ea1df1fc4d16874a455d91</title>
<path fill="none" stroke="black" d="M78.22,-234C94.64,-234 111.05,-234 127.47,-234"/>
<polygon fill="black" stroke="black" points="127.69,-237.5 137.69,-234 127.69,-230.5 127.69,-237.5"/>
<g id="a_edge6&#45;headlabel"><a xlink:href="dir_000027_000002.html" target="_top" xlink:title="1">
<text text-anchor="middle" x="124.1" y="-237.84" font-family="Helvetica,sans-Serif" font-size="10.00">1</text>
</a>
</g>
</g>
<!-- dir_7f7a014517bfe31ea45620a6a947e37b -->
<g id="node5" class="node">
<title>dir_7f7a014517bfe31ea45620a6a947e37b</title>
<g id="a_node5"><a xlink:href="dir_7f7a014517bfe31ea45620a6a947e37b.html" target="_top" xlink:title="fvm">
<polygon fill="none" stroke="black" points="180,-108 126,-108 126,-72 180,-72 180,-108"/>
<text text-anchor="middle" x="153" y="-87.5" font-family="Helvetica,sans-Serif" font-size="10.00">fvm</text>
</a>
</g>
</g>
<!-- dir_0ad5cc9f0732862bd2f85bb38c1084f0&#45;&gt;dir_7f7a014517bfe31ea45620a6a947e37b -->
<g id="edge7" class="edge">
<title>dir_0ad5cc9f0732862bd2f85bb38c1084f0&#45;&gt;dir_7f7a014517bfe31ea45620a6a947e37b</title>
<path fill="none" stroke="black" d="M73.16,-215.95C86.1,-206.53 101.21,-193.93 112,-180 126.51,-161.28 137.36,-136.6 144.24,-117.98"/>
<polygon fill="black" stroke="black" points="147.62,-118.93 147.66,-108.33 141.02,-116.59 147.62,-118.93"/>
<g id="a_edge7&#45;headlabel"><a xlink:href="dir_000027_000024.html" target="_top" xlink:title="1">
<text text-anchor="middle" x="149.1" y="-120.76" font-family="Helvetica,sans-Serif" font-size="10.00">1</text>
</a>
</g>
</g>
<!-- dir_f2c65bfcbdc19ebacbfc0bbbfb0d01b6 -->
<g id="node6" class="node">
<title>dir_f2c65bfcbdc19ebacbfc0bbbfb0d01b6</title>
<g id="a_node6"><a xlink:href="dir_f2c65bfcbdc19ebacbfc0bbbfb0d01b6.html" target="_top" xlink:title="physics">
<polygon fill="white" stroke="red" points="218,-180 164,-180 164,-144 218,-144 218,-180"/>
<text text-anchor="middle" x="191" y="-159.5" font-family="Helvetica,sans-Serif" font-size="10.00">physics</text>
</a>
</g>
</g>
<!-- dir_0ad5cc9f0732862bd2f85bb38c1084f0&#45;&gt;dir_f2c65bfcbdc19ebacbfc0bbbfb0d01b6 -->
<g id="edge9" class="edge">
<title>dir_0ad5cc9f0732862bd2f85bb38c1084f0&#45;&gt;dir_f2c65bfcbdc19ebacbfc0bbbfb0d01b6</title>
<path fill="none" stroke="black" d="M78.25,-217.81C100.64,-206.93 130.87,-192.23 154.39,-180.79"/>
<polygon fill="black" stroke="black" points="156.23,-183.79 163.7,-176.27 153.17,-177.5 156.23,-183.79"/>
<g id="a_edge9&#45;headlabel"><a xlink:href="dir_000027_000017.html" target="_top" xlink:title="1">
<text text-anchor="middle" x="154.24" y="-185.42" font-family="Helvetica,sans-Serif" font-size="10.00">1</text>
</a>
</g>
</g>
<!-- dir_4bb30ed846ea1df1fc4d16874a455d91&#45;&gt;dir_3d3615e9a999cab4f3407307569d6ced -->
<g id="edge11" class="edge">
<title>dir_4bb30ed846ea1df1fc4d16874a455d91&#45;&gt;dir_3d3615e9a999cab4f3407307569d6ced</title>
<path fill="none" stroke="black" d="M206.61,-215.77C214.37,-206.03 222.95,-193.18 227,-180 232.75,-161.31 230.36,-155.27 227,-136 221.31,-103.36 205.92,-68.41 194.28,-45.3"/>
<polygon fill="black" stroke="black" points="197.26,-43.44 189.57,-36.16 191.04,-46.65 197.26,-43.44"/>
<g id="a_edge11&#45;headlabel"><a xlink:href="dir_000002_000022.html" target="_top" xlink:title="60">
<text text-anchor="middle" x="201.44" y="-42.83" font-family="Helvetica,sans-Serif" font-size="10.00">60</text>
</a>
</g>
</g>
<!-- dir_4bb30ed846ea1df1fc4d16874a455d91&#45;&gt;dir_f2c65bfcbdc19ebacbfc0bbbfb0d01b6 -->
<g id="edge12" class="edge">
<title>dir_4bb30ed846ea1df1fc4d16874a455d91&#45;&gt;dir_f2c65bfcbdc19ebacbfc0bbbfb0d01b6</title>
<path fill="none" stroke="black" d="M185.08,-215.7C184.29,-207.98 184.06,-198.71 184.4,-190.11"/>
<polygon fill="black" stroke="black" points="187.9,-190.32 185.1,-180.1 180.92,-189.84 187.9,-190.32"/>
<g id="a_edge12&#45;headlabel"><a xlink:href="dir_000002_000017.html" target="_top" xlink:title="3">
<text text-anchor="middle" x="190.48" y="-191.61" font-family="Helvetica,sans-Serif" font-size="10.00">3</text>
</a>
</g>
</g>
<!-- dir_7f7a014517bfe31ea45620a6a947e37b&#45;&gt;dir_3d3615e9a999cab4f3407307569d6ced -->
<g id="edge10" class="edge">
<title>dir_7f7a014517bfe31ea45620a6a947e37b&#45;&gt;dir_3d3615e9a999cab4f3407307569d6ced</title>
<path fill="none" stroke="black" d="M159.67,-71.7C162.71,-63.81 166.38,-54.3 169.76,-45.55"/>
<polygon fill="black" stroke="black" points="173.07,-46.69 173.4,-36.1 166.54,-44.17 173.07,-46.69"/>
<g id="a_edge10&#45;headlabel"><a xlink:href="dir_000024_000022.html" target="_top" xlink:title="1">
<text text-anchor="middle" x="174.42" y="-48.57" font-family="Helvetica,sans-Serif" font-size="10.00">1</text>
</a>
</g>
</g>
<!-- dir_f2c65bfcbdc19ebacbfc0bbbfb0d01b6&#45;&gt;dir_e4878a39f7a1ff4e13f4c83bf1db7931 -->
<g id="edge4" class="edge">
<title>dir_f2c65bfcbdc19ebacbfc0bbbfb0d01b6&#45;&gt;dir_e4878a39f7a1ff4e13f4c83bf1db7931</title>
<path fill="none" stroke="black" d="M163.62,-162C135.88,-162 108.14,-162 80.39,-162"/>
<polygon fill="black" stroke="black" points="80.17,-158.5 70.17,-162 80.17,-165.5 80.17,-158.5"/>
<g id="a_edge4&#45;headlabel"><a xlink:href="dir_000017_000044.html" target="_top" xlink:title="1">
<text text-anchor="middle" x="83.77" y="-153.16" font-family="Helvetica,sans-Serif" font-size="10.00">1</text>
</a>
</g>
</g>
<!-- dir_f2c65bfcbdc19ebacbfc0bbbfb0d01b6&#45;&gt;dir_3d3615e9a999cab4f3407307569d6ced -->
<g id="edge1" class="edge">
<title>dir_f2c65bfcbdc19ebacbfc0bbbfb0d01b6&#45;&gt;dir_3d3615e9a999cab4f3407307569d6ced</title>
<path fill="none" stroke="black" d="M191.35,-143.89C191.55,-125.94 191.38,-96.92 189,-72 188.19,-63.51 186.81,-54.32 185.37,-46.02"/>
<polygon fill="black" stroke="black" points="188.8,-45.31 183.56,-36.1 181.91,-46.57 188.8,-45.31"/>
<g id="a_edge1&#45;headlabel"><a xlink:href="dir_000017_000022.html" target="_top" xlink:title="67">
<text text-anchor="middle" x="192.24" y="-45.83" font-family="Helvetica,sans-Serif" font-size="10.00">67</text>
</a>
</g>
</g>
<!-- dir_f2c65bfcbdc19ebacbfc0bbbfb0d01b6&#45;&gt;dir_4bb30ed846ea1df1fc4d16874a455d91 -->
<g id="edge2" class="edge">
<title>dir_f2c65bfcbdc19ebacbfc0bbbfb0d01b6&#45;&gt;dir_4bb30ed846ea1df1fc4d16874a455d91</title>
<path fill="none" stroke="black" d="M196.9,-180.1C197.7,-187.79 197.94,-197.05 197.6,-205.67"/>
<polygon fill="black" stroke="black" points="194.11,-205.48 196.92,-215.7 201.09,-205.96 194.11,-205.48"/>
<g id="a_edge2&#45;headlabel"><a xlink:href="dir_000017_000002.html" target="_top" xlink:title="5">
<text text-anchor="middle" x="191.52" y="-199.2" font-family="Helvetica,sans-Serif" font-size="10.00">5</text>
</a>
</g>
</g>
<!-- dir_f2c65bfcbdc19ebacbfc0bbbfb0d01b6&#45;&gt;dir_7f7a014517bfe31ea45620a6a947e37b -->
<g id="edge3" class="edge">
<title>dir_f2c65bfcbdc19ebacbfc0bbbfb0d01b6&#45;&gt;dir_7f7a014517bfe31ea45620a6a947e37b</title>
<path fill="none" stroke="black" d="M181.61,-143.7C177.24,-135.64 171.94,-125.89 167.1,-116.98"/>
<polygon fill="black" stroke="black" points="170.13,-115.22 162.29,-108.1 163.98,-118.56 170.13,-115.22"/>
<g id="a_edge3&#45;headlabel"><a xlink:href="dir_000017_000024.html" target="_top" xlink:title="5">
<text text-anchor="middle" x="174.34" y="-114.53" font-family="Helvetica,sans-Serif" font-size="10.00">5</text>
</a>
</g>
</g>
</g>
</svg>
