<?xml version="1.0" encoding="UTF-8" standalone="no"?>
<!DOCTYPE svg PUBLIC "-//W3C//DTD SVG 1.1//EN"
 "http://www.w3.org/Graphics/SVG/1.1/DTD/svg11.dtd">
<!-- Generated by graphviz version 2.43.0 (0)
 -->
<!-- Title: turbulence Pages: 1 -->
<svg width="380pt" height="338pt"
 viewBox="0.00 0.00 380.00 338.25" xmlns="http://www.w3.org/2000/svg" xmlns:xlink="http://www.w3.org/1999/xlink">
<g id="graph0" class="graph" transform="scale(1 1) rotate(0) translate(4 334.25)">
<title>turbulence</title>
<polygon fill="white" stroke="transparent" points="-4,4 -4,-334.25 376,-334.25 376,4 -4,4"/>
<g id="clust1" class="cluster">
<title>clusterdir_d85575251dd712327fe3cf057fa568b4</title>
<g id="a_clust1"><a xlink:href="dir_d85575251dd712327fe3cf057fa568b4.html" target="_top" xlink:title="amr&#45;wind">
<polygon fill="#ddddee" stroke="black" points="8,-8 8,-303 364,-303 364,-8 8,-8"/>
<text text-anchor="middle" x="186" y="-291" font-family="Helvetica,sans-Serif" font-size="10.00">amr&#45;wind</text>
</a>
</g>
</g>
<g id="clust2" class="cluster">
<title>clusterdir_9ff815a534beac751fa88e427dbab695</title>
<g id="a_clust2"><a xlink:href="dir_9ff815a534beac751fa88e427dbab695.html" target="_top">
<polygon fill="#eeeeff" stroke="black" points="16,-224 16,-276 244,-276 244,-224 16,-224"/>
</a>
</g>
</g>
<!-- dir_3d3615e9a999cab4f3407307569d6ced -->
<g id="node1" class="node">
<title>dir_3d3615e9a999cab4f3407307569d6ced</title>
<g id="a_node1"><a xlink:href="dir_3d3615e9a999cab4f3407307569d6ced.html" target="_top" xlink:title="core">
<polygon fill="white" stroke="red" points="235,-196 181,-196 181,-160 235,-160 235,-196"/>
<text text-anchor="middle" x="208" y="-175.5" font-family="Helvetica,sans-Serif" font-size="10.00">core</text>
</a>
</g>
</g>
<!-- dir_e4cd57caa88bf1f4e1bf9521bc47c3c0 -->
<g id="node5" class="node">
<title>dir_e4cd57caa88bf1f4e1bf9521bc47c3c0</title>
<g id="a_node5"><a xlink:href="dir_e4cd57caa88bf1f4e1bf9521bc47c3c0.html" target="_top" xlink:title="utilities">
<polygon fill="white" stroke="red" points="195,-124 141,-124 141,-88 195,-88 195,-124"/>
<text text-anchor="middle" x="168" y="-103.5" font-family="Helvetica,sans-Serif" font-size="10.00">utilities</text>
</a>
</g>
</g>
<!-- dir_3d3615e9a999cab4f3407307569d6ced&#45;&gt;dir_e4cd57caa88bf1f4e1bf9521bc47c3c0 -->
<g id="edge15" class="edge">
<title>dir_3d3615e9a999cab4f3407307569d6ced&#45;&gt;dir_e4cd57caa88bf1f4e1bf9521bc47c3c0</title>
<path fill="none" stroke="black" d="M192.2,-159.7C186.82,-151.73 181.1,-142.1 176.45,-133.26"/>
<polygon fill="black" stroke="black" points="179.47,-131.49 171.88,-124.1 173.21,-134.62 179.47,-131.49"/>
<g id="a_edge15&#45;headlabel"><a xlink:href="dir_000022_000012.html" target="_top" xlink:title="1">
<text text-anchor="middle" x="183.62" y="-130.94" font-family="Helvetica,sans-Serif" font-size="10.00">1</text>
</a>
</g>
</g>
<!-- dir_4bb30ed846ea1df1fc4d16874a455d91 -->
<g id="node2" class="node">
<title>dir_4bb30ed846ea1df1fc4d16874a455d91</title>
<g id="a_node2"><a xlink:href="dir_4bb30ed846ea1df1fc4d16874a455d91.html" target="_top" xlink:title="equation_systems">
<polygon fill="white" stroke="red" points="192,-52 86,-52 86,-16 192,-16 192,-52"/>
<text text-anchor="middle" x="139" y="-31.5" font-family="Helvetica,sans-Serif" font-size="10.00">equation_systems</text>
</a>
</g>
</g>
<!-- dir_4bb30ed846ea1df1fc4d16874a455d91&#45;&gt;dir_3d3615e9a999cab4f3407307569d6ced -->
<g id="edge12" class="edge">
<title>dir_4bb30ed846ea1df1fc4d16874a455d91&#45;&gt;dir_3d3615e9a999cab4f3407307569d6ced</title>
<path fill="none" stroke="black" d="M169.93,-52.14C182.84,-61.04 196.54,-73.17 204,-88 213.58,-107.06 214,-131.42 212.35,-149.83"/>
<polygon fill="black" stroke="black" points="208.85,-149.57 211.19,-159.9 215.81,-150.37 208.85,-149.57"/>
<g id="a_edge12&#45;headlabel"><a xlink:href="dir_000002_000022.html" target="_top" xlink:title="60">
<text text-anchor="middle" x="206.44" y="-143.17" font-family="Helvetica,sans-Serif" font-size="10.00">60</text>
</a>
</g>
</g>
<!-- dir_4bb30ed846ea1df1fc4d16874a455d91&#45;&gt;dir_e4cd57caa88bf1f4e1bf9521bc47c3c0 -->
<g id="edge14" class="edge">
<title>dir_4bb30ed846ea1df1fc4d16874a455d91&#45;&gt;dir_e4cd57caa88bf1f4e1bf9521bc47c3c0</title>
<path fill="none" stroke="black" d="M151.98,-52.1C156.06,-59.96 160.22,-69.46 163.49,-78.23"/>
<polygon fill="black" stroke="black" points="160.18,-79.38 166.75,-87.7 166.8,-77.1 160.18,-79.38"/>
<g id="a_edge14&#45;headlabel"><a xlink:href="dir_000002_000012.html" target="_top" xlink:title="16">
<text text-anchor="middle" x="156.33" y="-74.4" font-family="Helvetica,sans-Serif" font-size="10.00">16</text>
</a>
</g>
</g>
<!-- dir_9ff815a534beac751fa88e427dbab695 -->
<g id="node6" class="node">
<title>dir_9ff815a534beac751fa88e427dbab695</title>
<text text-anchor="middle" x="58" y="-247.5" font-family="Helvetica,sans-Serif" font-size="10.00">turbulence</text>
</g>
<!-- dir_4bb30ed846ea1df1fc4d16874a455d91&#45;&gt;dir_9ff815a534beac751fa88e427dbab695 -->
<g id="edge13" class="edge">
<title>dir_4bb30ed846ea1df1fc4d16874a455d91&#45;&gt;dir_9ff815a534beac751fa88e427dbab695</title>
<path fill="none" stroke="black" d="M127.63,-52.14C121.25,-62.26 113.5,-75.51 108,-88 88.06,-133.24 72.67,-188.87 64.5,-221.48"/>
<polygon fill="black" stroke="black" points="61,-221.07 62.01,-231.61 67.8,-222.74 61,-221.07"/>
<g id="a_edge13&#45;headlabel"><a xlink:href="dir_000002_000010.html" target="_top" xlink:title="4">
<text text-anchor="middle" x="59.1" y="-214.4" font-family="Helvetica,sans-Serif" font-size="10.00">4</text>
</a>
</g>
</g>
<!-- dir_7b7e55eaa727ae9c717abfc097345a8f -->
<g id="node3" class="node">
<title>dir_7b7e55eaa727ae9c717abfc097345a8f</title>
<g id="a_node3"><a xlink:href="dir_7b7e55eaa727ae9c717abfc097345a8f.html" target="_top" xlink:title="transport_models">
<polygon fill="none" stroke="black" points="356,-268 254,-268 254,-232 356,-232 356,-268"/>
<text text-anchor="middle" x="305" y="-247.5" font-family="Helvetica,sans-Serif" font-size="10.00">transport_models</text>
</a>
</g>
</g>
<!-- dir_7b7e55eaa727ae9c717abfc097345a8f&#45;&gt;dir_3d3615e9a999cab4f3407307569d6ced -->
<g id="edge16" class="edge">
<title>dir_7b7e55eaa727ae9c717abfc097345a8f&#45;&gt;dir_3d3615e9a999cab4f3407307569d6ced</title>
<path fill="none" stroke="black" d="M281.02,-231.7C268.69,-222.8 253.48,-211.82 240.15,-202.2"/>
<polygon fill="black" stroke="black" points="241.86,-199.12 231.7,-196.1 237.76,-204.79 241.86,-199.12"/>
<g id="a_edge16&#45;headlabel"><a xlink:href="dir_000023_000022.html" target="_top" xlink:title="2">
<text text-anchor="middle" x="246.44" y="-196.42" font-family="Helvetica,sans-Serif" font-size="10.00">2</text>
</a>
</g>
</g>
<!-- dir_7f7a014517bfe31ea45620a6a947e37b -->
<g id="node4" class="node">
<title>dir_7f7a014517bfe31ea45620a6a947e37b</title>
<g id="a_node4"><a xlink:href="dir_7f7a014517bfe31ea45620a6a947e37b.html" target="_top" xlink:title="fvm">
<polygon fill="none" stroke="black" points="271,-52 217,-52 217,-16 271,-16 271,-52"/>
<text text-anchor="middle" x="244" y="-31.5" font-family="Helvetica,sans-Serif" font-size="10.00">fvm</text>
</a>
</g>
</g>
<!-- dir_7f7a014517bfe31ea45620a6a947e37b&#45;&gt;dir_3d3615e9a999cab4f3407307569d6ced -->
<g id="edge11" class="edge">
<title>dir_7f7a014517bfe31ea45620a6a947e37b&#45;&gt;dir_3d3615e9a999cab4f3407307569d6ced</title>
<path fill="none" stroke="black" d="M239.64,-52.19C233.47,-76.53 222.13,-121.28 214.83,-150.06"/>
<polygon fill="black" stroke="black" points="211.41,-149.32 212.34,-159.87 218.19,-151.04 211.41,-149.32"/>
<g id="a_edge11&#45;headlabel"><a xlink:href="dir_000024_000022.html" target="_top" xlink:title="1">
<text text-anchor="middle" x="209.54" y="-142.64" font-family="Helvetica,sans-Serif" font-size="10.00">1</text>
</a>
</g>
</g>
<!-- dir_e4cd57caa88bf1f4e1bf9521bc47c3c0&#45;&gt;dir_3d3615e9a999cab4f3407307569d6ced -->
<g id="edge5" class="edge">
<title>dir_e4cd57caa88bf1f4e1bf9521bc47c3c0&#45;&gt;dir_3d3615e9a999cab4f3407307569d6ced</title>
<path fill="none" stroke="black" d="M183.67,-124.1C189.04,-132.04 194.76,-141.67 199.43,-150.51"/>
<polygon fill="black" stroke="black" points="196.42,-152.32 204.03,-159.7 202.68,-149.19 196.42,-152.32"/>
<g id="a_edge5&#45;headlabel"><a xlink:href="dir_000012_000022.html" target="_top" xlink:title="23">
<text text-anchor="middle" x="192.28" y="-147.87" font-family="Helvetica,sans-Serif" font-size="10.00">23</text>
</a>
</g>
</g>
<!-- dir_e4cd57caa88bf1f4e1bf9521bc47c3c0&#45;&gt;dir_4bb30ed846ea1df1fc4d16874a455d91 -->
<g id="edge6" class="edge">
<title>dir_e4cd57caa88bf1f4e1bf9521bc47c3c0&#45;&gt;dir_4bb30ed846ea1df1fc4d16874a455d91</title>
<path fill="none" stroke="black" d="M154.92,-87.7C150.88,-79.9 146.77,-70.51 143.53,-61.83"/>
<polygon fill="black" stroke="black" points="146.75,-60.43 140.19,-52.1 140.13,-62.7 146.75,-60.43"/>
<g id="a_edge6&#45;headlabel"><a xlink:href="dir_000012_000002.html" target="_top" xlink:title="1">
<text text-anchor="middle" x="150.6" y="-60.4" font-family="Helvetica,sans-Serif" font-size="10.00">1</text>
</a>
</g>
</g>
<!-- dir_e4cd57caa88bf1f4e1bf9521bc47c3c0&#45;&gt;dir_7f7a014517bfe31ea45620a6a947e37b -->
<g id="edge7" class="edge">
<title>dir_e4cd57caa88bf1f4e1bf9521bc47c3c0&#45;&gt;dir_7f7a014517bfe31ea45620a6a947e37b</title>
<path fill="none" stroke="black" d="M186.79,-87.7C196.17,-79.05 207.68,-68.45 217.91,-59.03"/>
<polygon fill="black" stroke="black" points="220.45,-61.45 225.43,-52.1 215.7,-56.3 220.45,-61.45"/>
<g id="a_edge7&#45;headlabel"><a xlink:href="dir_000012_000024.html" target="_top" xlink:title="2">
<text text-anchor="middle" x="219.72" y="-63.48" font-family="Helvetica,sans-Serif" font-size="10.00">2</text>
</a>
</g>
</g>
<!-- dir_9ff815a534beac751fa88e427dbab695&#45;&gt;dir_7b7e55eaa727ae9c717abfc097345a8f -->
<g id="edge1" class="edge">
<title>dir_9ff815a534beac751fa88e427dbab695&#45;&gt;dir_7b7e55eaa727ae9c717abfc097345a8f</title>
<path fill="none" stroke="black" d="M65.41,-268.12C73.52,-285.28 88.33,-310.01 110,-321 135.57,-333.97 212.72,-332.45 239,-321 259.7,-311.98 276.83,-292.92 288.45,-276.81"/>
<polygon fill="black" stroke="black" points="291.55,-278.48 294.32,-268.25 285.78,-274.52 291.55,-278.48"/>
<g id="a_edge1&#45;headlabel"><a xlink:href="dir_000010_000023.html" target="_top" xlink:title="2">
<text text-anchor="middle" x="291.85" y="-280.55" font-family="Helvetica,sans-Serif" font-size="10.00">2</text>
</a>
</g>
</g>
<!-- dir_9ff815a534beac751fa88e427dbab695&#45;&gt;dir_e4cd57caa88bf1f4e1bf9521bc47c3c0 -->
<g id="edge2" class="edge">
<title>dir_9ff815a534beac751fa88e427dbab695&#45;&gt;dir_e4cd57caa88bf1f4e1bf9521bc47c3c0</title>
<path fill="none" stroke="black" d="M71.27,-231.87C90.51,-207.03 126.29,-160.85 148.52,-132.14"/>
<polygon fill="black" stroke="black" points="151.33,-134.24 154.68,-124.19 145.79,-129.95 151.33,-134.24"/>
<g id="a_edge2&#45;headlabel"><a xlink:href="dir_000010_000012.html" target="_top" xlink:title="1">
<text text-anchor="middle" x="151.37" y="-136.32" font-family="Helvetica,sans-Serif" font-size="10.00">1</text>
</a>
</g>
</g>
<!-- dir_d4759c65d88ac8462151b54b86eeee49 -->
<g id="node7" class="node">
<title>dir_d4759c65d88ac8462151b54b86eeee49</title>
<g id="a_node7"><a xlink:href="dir_d4759c65d88ac8462151b54b86eeee49.html" target="_top" xlink:title="LES">
<polygon fill="white" stroke="black" points="236,-268 182,-268 182,-232 236,-232 236,-268"/>
<text text-anchor="middle" x="209" y="-247.5" font-family="Helvetica,sans-Serif" font-size="10.00">LES</text>
</a>
</g>
</g>
<!-- dir_d4759c65d88ac8462151b54b86eeee49&#45;&gt;dir_3d3615e9a999cab4f3407307569d6ced -->
<g id="edge8" class="edge">
<title>dir_d4759c65d88ac8462151b54b86eeee49&#45;&gt;dir_3d3615e9a999cab4f3407307569d6ced</title>
<path fill="none" stroke="black" d="M208.75,-231.7C208.64,-223.98 208.51,-214.71 208.39,-206.11"/>
<polygon fill="black" stroke="black" points="211.89,-206.05 208.24,-196.1 204.89,-206.15 211.89,-206.05"/>
<g id="a_edge8&#45;headlabel"><a xlink:href="dir_000011_000022.html" target="_top" xlink:title="3">
<text text-anchor="middle" x="214.78" y="-207.11" font-family="Helvetica,sans-Serif" font-size="10.00">3</text>
</a>
</g>
</g>
<!-- dir_d4759c65d88ac8462151b54b86eeee49&#45;&gt;dir_4bb30ed846ea1df1fc4d16874a455d91 -->
<g id="edge9" class="edge">
<title>dir_d4759c65d88ac8462151b54b86eeee49&#45;&gt;dir_4bb30ed846ea1df1fc4d16874a455d91</title>
<path fill="none" stroke="black" d="M193.78,-231.96C174.7,-209.25 143.12,-166.93 132,-124 126.73,-103.65 129.01,-79.89 132.31,-62.03"/>
<polygon fill="black" stroke="black" points="135.79,-62.52 134.39,-52.02 128.93,-61.1 135.79,-62.52"/>
<g id="a_edge9&#45;headlabel"><a xlink:href="dir_000011_000002.html" target="_top" xlink:title="2">
<text text-anchor="middle" x="137.84" y="-64.12" font-family="Helvetica,sans-Serif" font-size="10.00">2</text>
</a>
</g>
</g>
<!-- dir_d4759c65d88ac8462151b54b86eeee49&#45;&gt;dir_7f7a014517bfe31ea45620a6a947e37b -->
<g id="edge10" class="edge">
<title>dir_d4759c65d88ac8462151b54b86eeee49&#45;&gt;dir_7f7a014517bfe31ea45620a6a947e37b</title>
<path fill="none" stroke="black" d="M231.6,-231.96C242.06,-222.63 253.4,-210.11 259,-196 276.68,-151.51 264.14,-94.84 253.81,-61.97"/>
<polygon fill="black" stroke="black" points="257.03,-60.57 250.57,-52.18 250.39,-62.77 257.03,-60.57"/>
<g id="a_edge10&#45;headlabel"><a xlink:href="dir_000011_000024.html" target="_top" xlink:title="6">
<text text-anchor="middle" x="260.86" y="-60.6" font-family="Helvetica,sans-Serif" font-size="10.00">6</text>
</a>
</g>
</g>
<!-- dir_a436074bb53309d43601d2a8b8d27ca7 -->
<g id="node8" class="node">
<title>dir_a436074bb53309d43601d2a8b8d27ca7</title>
<g id="a_node8"><a xlink:href="dir_a436074bb53309d43601d2a8b8d27ca7.html" target="_top" xlink:title="RANS">
<polygon fill="white" stroke="black" points="164,-268 110,-268 110,-232 164,-232 164,-268"/>
<text text-anchor="middle" x="137" y="-247.5" font-family="Helvetica,sans-Serif" font-size="10.00">RANS</text>
</a>
</g>
</g>
<!-- dir_a436074bb53309d43601d2a8b8d27ca7&#45;&gt;dir_4bb30ed846ea1df1fc4d16874a455d91 -->
<g id="edge3" class="edge">
<title>dir_a436074bb53309d43601d2a8b8d27ca7&#45;&gt;dir_4bb30ed846ea1df1fc4d16874a455d91</title>
<path fill="none" stroke="black" d="M128.69,-231.79C124.26,-221.63 119.26,-208.38 117,-196 108.39,-148.78 107.62,-135.07 117,-88 118.79,-79.01 122.14,-69.64 125.69,-61.32"/>
<polygon fill="black" stroke="black" points="128.92,-62.67 129.87,-52.12 122.54,-59.77 128.92,-62.67"/>
<g id="a_edge3&#45;headlabel"><a xlink:href="dir_000036_000002.html" target="_top" xlink:title="9">
<text text-anchor="middle" x="130.01" y="-64.62" font-family="Helvetica,sans-Serif" font-size="10.00">9</text>
</a>
</g>
</g>
<!-- dir_a436074bb53309d43601d2a8b8d27ca7&#45;&gt;dir_7f7a014517bfe31ea45620a6a947e37b -->
<g id="edge4" class="edge">
<title>dir_a436074bb53309d43601d2a8b8d27ca7&#45;&gt;dir_7f7a014517bfe31ea45620a6a947e37b</title>
<path fill="none" stroke="black" d="M160.13,-231.78C164.31,-229.01 168.71,-226.3 173,-224 202.91,-208 224.91,-224.04 244,-196 258.3,-174.99 252.28,-102.6 247.6,-62.42"/>
<polygon fill="black" stroke="black" points="251.04,-61.75 246.36,-52.25 244.1,-62.6 251.04,-61.75"/>
<g id="a_edge4&#45;headlabel"><a xlink:href="dir_000036_000024.html" target="_top" xlink:title="6">
<text text-anchor="middle" x="254.3" y="-62.48" font-family="Helvetica,sans-Serif" font-size="10.00">6</text>
</a>
</g>
</g>
</g>
</svg>
