<?xml version="1.0" encoding="UTF-8" standalone="no"?>
<!DOCTYPE svg PUBLIC "-//W3C//DTD SVG 1.1//EN"
 "http://www.w3.org/Graphics/SVG/1.1/DTD/svg11.dtd">
<!-- Generated by graphviz version 2.43.0 (0)
 -->
<!-- Title: utilities Pages: 1 -->
<svg width="436pt" height="311pt"
 viewBox="0.00 0.00 436.00 311.00" xmlns="http://www.w3.org/2000/svg" xmlns:xlink="http://www.w3.org/1999/xlink">
<g id="graph0" class="graph" transform="scale(1 1) rotate(0) translate(4 307)">
<title>utilities</title>
<polygon fill="white" stroke="transparent" points="-4,4 -4,-307 432,-307 432,4 -4,4"/>
<g id="clust1" class="cluster">
<title>clusterdir_d85575251dd712327fe3cf057fa568b4</title>
<g id="a_clust1"><a xlink:href="dir_d85575251dd712327fe3cf057fa568b4.html" target="_top" xlink:title="amr&#45;wind">
<polygon fill="#ddddee" stroke="black" points="8,-8 8,-295 420,-295 420,-8 8,-8"/>
<text text-anchor="middle" x="214" y="-283" font-family="Helvetica,sans-Serif" font-size="10.00">amr&#45;wind</text>
</a>
</g>
</g>
<g id="clust2" class="cluster">
<title>clusterdir_e4cd57caa88bf1f4e1bf9521bc47c3c0</title>
<g id="a_clust2"><a xlink:href="dir_e4cd57caa88bf1f4e1bf9521bc47c3c0.html" target="_top">
<polygon fill="#eeeeff" stroke="black" points="118,-80 118,-204 412,-204 412,-80 118,-80"/>
</a>
</g>
</g>
<!-- dir_3d3615e9a999cab4f3407307569d6ced -->
<g id="node1" class="node">
<title>dir_3d3615e9a999cab4f3407307569d6ced</title>
<g id="a_node1"><a xlink:href="dir_3d3615e9a999cab4f3407307569d6ced.html" target="_top" xlink:title="core">
<polygon fill="white" stroke="red" points="185,-52 131,-52 131,-16 185,-16 185,-52"/>
<text text-anchor="middle" x="158" y="-31.5" font-family="Helvetica,sans-Serif" font-size="10.00">core</text>
</a>
</g>
</g>
<!-- dir_4bb30ed846ea1df1fc4d16874a455d91 -->
<g id="node2" class="node">
<title>dir_4bb30ed846ea1df1fc4d16874a455d91</title>
<g id="a_node2"><a xlink:href="dir_4bb30ed846ea1df1fc4d16874a455d91.html" target="_top" xlink:title="equation_systems">
<polygon fill="white" stroke="red" points="134,-268 28,-268 28,-232 134,-232 134,-268"/>
<text text-anchor="middle" x="81" y="-247.5" font-family="Helvetica,sans-Serif" font-size="10.00">equation_systems</text>
</a>
</g>
</g>
<!-- dir_4bb30ed846ea1df1fc4d16874a455d91&#45;&gt;dir_3d3615e9a999cab4f3407307569d6ced -->
<g id="edge14" class="edge">
<title>dir_4bb30ed846ea1df1fc4d16874a455d91&#45;&gt;dir_3d3615e9a999cab4f3407307569d6ced</title>
<path fill="none" stroke="black" d="M63.28,-231.73C56.39,-223.93 49.16,-214.19 45,-204 24.15,-152.86 5.48,-125.35 37,-80 55.74,-53.04 92.66,-42.2 120.81,-37.86"/>
<polygon fill="black" stroke="black" points="121.29,-41.32 130.74,-36.53 120.37,-34.39 121.29,-41.32"/>
<g id="a_edge14&#45;headlabel"><a xlink:href="dir_000002_000022.html" target="_top" xlink:title="60">
<text text-anchor="middle" x="118.1" y="-42.11" font-family="Helvetica,sans-Serif" font-size="10.00">60</text>
</a>
</g>
</g>
<!-- dir_f2c65bfcbdc19ebacbfc0bbbfb0d01b6 -->
<g id="node4" class="node">
<title>dir_f2c65bfcbdc19ebacbfc0bbbfb0d01b6</title>
<g id="a_node4"><a xlink:href="dir_f2c65bfcbdc19ebacbfc0bbbfb0d01b6.html" target="_top" xlink:title="physics">
<polygon fill="white" stroke="red" points="108,-196 54,-196 54,-160 108,-160 108,-196"/>
<text text-anchor="middle" x="81" y="-175.5" font-family="Helvetica,sans-Serif" font-size="10.00">physics</text>
</a>
</g>
</g>
<!-- dir_4bb30ed846ea1df1fc4d16874a455d91&#45;&gt;dir_f2c65bfcbdc19ebacbfc0bbbfb0d01b6 -->
<g id="edge16" class="edge">
<title>dir_4bb30ed846ea1df1fc4d16874a455d91&#45;&gt;dir_f2c65bfcbdc19ebacbfc0bbbfb0d01b6</title>
<path fill="none" stroke="black" d="M75.08,-231.7C74.29,-223.98 74.06,-214.71 74.4,-206.11"/>
<polygon fill="black" stroke="black" points="77.9,-206.32 75.1,-196.1 70.92,-205.84 77.9,-206.32"/>
<g id="a_edge16&#45;headlabel"><a xlink:href="dir_000002_000017.html" target="_top" xlink:title="3">
<text text-anchor="middle" x="80.48" y="-207.61" font-family="Helvetica,sans-Serif" font-size="10.00">3</text>
</a>
</g>
</g>
<!-- dir_e4cd57caa88bf1f4e1bf9521bc47c3c0 -->
<g id="node5" class="node">
<title>dir_e4cd57caa88bf1f4e1bf9521bc47c3c0</title>
<text text-anchor="middle" x="233" y="-175.5" font-family="Helvetica,sans-Serif" font-size="10.00">utilities</text>
</g>
<!-- dir_4bb30ed846ea1df1fc4d16874a455d91&#45;&gt;dir_e4cd57caa88bf1f4e1bf9521bc47c3c0 -->
<g id="edge15" class="edge">
<title>dir_4bb30ed846ea1df1fc4d16874a455d91&#45;&gt;dir_e4cd57caa88bf1f4e1bf9521bc47c3c0</title>
<path fill="none" stroke="black" d="M132.69,-231.93C153.2,-224.4 176.69,-214.8 197,-204 198.34,-203.29 199.7,-202.53 201.05,-201.75"/>
<polygon fill="black" stroke="black" points="203.25,-204.5 209.88,-196.24 199.54,-198.56 203.25,-204.5"/>
<g id="a_edge15&#45;headlabel"><a xlink:href="dir_000002_000012.html" target="_top" xlink:title="16">
<text text-anchor="middle" x="201.7" y="-206.31" font-family="Helvetica,sans-Serif" font-size="10.00">16</text>
</a>
</g>
</g>
<!-- dir_7f7a014517bfe31ea45620a6a947e37b -->
<g id="node3" class="node">
<title>dir_7f7a014517bfe31ea45620a6a947e37b</title>
<g id="a_node3"><a xlink:href="dir_7f7a014517bfe31ea45620a6a947e37b.html" target="_top" xlink:title="fvm">
<polygon fill="none" stroke="black" points="110,-124 56,-124 56,-88 110,-88 110,-124"/>
<text text-anchor="middle" x="83" y="-103.5" font-family="Helvetica,sans-Serif" font-size="10.00">fvm</text>
</a>
</g>
</g>
<!-- dir_7f7a014517bfe31ea45620a6a947e37b&#45;&gt;dir_3d3615e9a999cab4f3407307569d6ced -->
<g id="edge13" class="edge">
<title>dir_7f7a014517bfe31ea45620a6a947e37b&#45;&gt;dir_3d3615e9a999cab4f3407307569d6ced</title>
<path fill="none" stroke="black" d="M101.54,-87.7C110.8,-79.05 122.16,-68.45 132.26,-59.03"/>
<polygon fill="black" stroke="black" points="134.75,-61.49 139.67,-52.1 129.98,-56.37 134.75,-61.49"/>
<g id="a_edge13&#45;headlabel"><a xlink:href="dir_000024_000022.html" target="_top" xlink:title="1">
<text text-anchor="middle" x="134.06" y="-63.51" font-family="Helvetica,sans-Serif" font-size="10.00">1</text>
</a>
</g>
</g>
<!-- dir_f2c65bfcbdc19ebacbfc0bbbfb0d01b6&#45;&gt;dir_3d3615e9a999cab4f3407307569d6ced -->
<g id="edge2" class="edge">
<title>dir_f2c65bfcbdc19ebacbfc0bbbfb0d01b6&#45;&gt;dir_3d3615e9a999cab4f3407307569d6ced</title>
<path fill="none" stroke="black" d="M66.05,-159.67C50.37,-139.27 30.15,-105.01 47,-80 63.34,-55.75 95.22,-44.56 120.64,-39.4"/>
<polygon fill="black" stroke="black" points="121.5,-42.81 130.72,-37.6 120.26,-35.92 121.5,-42.81"/>
<g id="a_edge2&#45;headlabel"><a xlink:href="dir_000017_000022.html" target="_top" xlink:title="67">
<text text-anchor="middle" x="118.46" y="-43.74" font-family="Helvetica,sans-Serif" font-size="10.00">67</text>
</a>
</g>
</g>
<!-- dir_f2c65bfcbdc19ebacbfc0bbbfb0d01b6&#45;&gt;dir_4bb30ed846ea1df1fc4d16874a455d91 -->
<g id="edge3" class="edge">
<title>dir_f2c65bfcbdc19ebacbfc0bbbfb0d01b6&#45;&gt;dir_4bb30ed846ea1df1fc4d16874a455d91</title>
<path fill="none" stroke="black" d="M86.9,-196.1C87.7,-203.79 87.94,-213.05 87.6,-221.67"/>
<polygon fill="black" stroke="black" points="84.11,-221.48 86.92,-231.7 91.09,-221.96 84.11,-221.48"/>
<g id="a_edge3&#45;headlabel"><a xlink:href="dir_000017_000002.html" target="_top" xlink:title="5">
<text text-anchor="middle" x="81.52" y="-215.2" font-family="Helvetica,sans-Serif" font-size="10.00">5</text>
</a>
</g>
</g>
<!-- dir_f2c65bfcbdc19ebacbfc0bbbfb0d01b6&#45;&gt;dir_7f7a014517bfe31ea45620a6a947e37b -->
<g id="edge4" class="edge">
<title>dir_f2c65bfcbdc19ebacbfc0bbbfb0d01b6&#45;&gt;dir_7f7a014517bfe31ea45620a6a947e37b</title>
<path fill="none" stroke="black" d="M81.49,-159.7C81.71,-151.98 81.98,-142.71 82.23,-134.11"/>
<polygon fill="black" stroke="black" points="85.72,-134.2 82.51,-124.1 78.73,-134 85.72,-134.2"/>
<g id="a_edge4&#45;headlabel"><a xlink:href="dir_000017_000024.html" target="_top" xlink:title="5">
<text text-anchor="middle" x="88.46" y="-135.37" font-family="Helvetica,sans-Serif" font-size="10.00">5</text>
</a>
</g>
</g>
<!-- dir_e4878a39f7a1ff4e13f4c83bf1db7931 -->
<g id="node8" class="node">
<title>dir_e4878a39f7a1ff4e13f4c83bf1db7931</title>
<g id="a_node8"><a xlink:href="dir_e4878a39f7a1ff4e13f4c83bf1db7931.html" target="_top" xlink:title="ncutils">
<polygon fill="white" stroke="black" points="182,-124 128,-124 128,-88 182,-88 182,-124"/>
<text text-anchor="middle" x="155" y="-103.5" font-family="Helvetica,sans-Serif" font-size="10.00">ncutils</text>
</a>
</g>
</g>
<!-- dir_f2c65bfcbdc19ebacbfc0bbbfb0d01b6&#45;&gt;dir_e4878a39f7a1ff4e13f4c83bf1db7931 -->
<g id="edge5" class="edge">
<title>dir_f2c65bfcbdc19ebacbfc0bbbfb0d01b6&#45;&gt;dir_e4878a39f7a1ff4e13f4c83bf1db7931</title>
<path fill="none" stroke="black" d="M99.29,-159.7C108.43,-151.05 119.64,-140.45 129.6,-131.03"/>
<polygon fill="black" stroke="black" points="132.06,-133.52 136.92,-124.1 127.25,-128.43 132.06,-133.52"/>
<g id="a_edge5&#45;headlabel"><a xlink:href="dir_000017_000044.html" target="_top" xlink:title="1">
<text text-anchor="middle" x="131.4" y="-135.55" font-family="Helvetica,sans-Serif" font-size="10.00">1</text>
</a>
</g>
</g>
<!-- dir_a925f5bb87732fc4d72dcc12cc6db92b -->
<g id="node7" class="node">
<title>dir_a925f5bb87732fc4d72dcc12cc6db92b</title>
<g id="a_node7"><a xlink:href="dir_a925f5bb87732fc4d72dcc12cc6db92b.html" target="_top" xlink:title="averaging">
<polygon fill="white" stroke="black" points="265.5,-124 200.5,-124 200.5,-88 265.5,-88 265.5,-124"/>
<text text-anchor="middle" x="233" y="-103.5" font-family="Helvetica,sans-Serif" font-size="10.00">averaging</text>
</a>
</g>
</g>
<!-- dir_e4cd57caa88bf1f4e1bf9521bc47c3c0&#45;&gt;dir_a925f5bb87732fc4d72dcc12cc6db92b -->
<g id="edge12" class="edge">
<title>dir_e4cd57caa88bf1f4e1bf9521bc47c3c0&#45;&gt;dir_a925f5bb87732fc4d72dcc12cc6db92b</title>
<path fill="none" stroke="black" d="M233,-159.7C233,-151.98 233,-142.71 233,-134.11"/>
<polygon fill="black" stroke="black" points="236.5,-134.1 233,-124.1 229.5,-134.1 236.5,-134.1"/>
<g id="a_edge12&#45;headlabel"><a xlink:href="dir_000012_000046.html" target="_top" xlink:title="1">
<text text-anchor="middle" x="239.34" y="-135.2" font-family="Helvetica,sans-Serif" font-size="10.00">1</text>
</a>
</g>
</g>
<!-- dir_cabce38f77158481c263d4f5d6890a8c -->
<g id="node6" class="node">
<title>dir_cabce38f77158481c263d4f5d6890a8c</title>
<g id="a_node6"><a xlink:href="dir_cabce38f77158481c263d4f5d6890a8c.html" target="_top" xlink:title="ascent">
<polygon fill="white" stroke="black" points="332,-196 278,-196 278,-160 332,-160 332,-196"/>
<text text-anchor="middle" x="305" y="-175.5" font-family="Helvetica,sans-Serif" font-size="10.00">ascent</text>
</a>
</g>
</g>
<!-- dir_a925f5bb87732fc4d72dcc12cc6db92b&#45;&gt;dir_3d3615e9a999cab4f3407307569d6ced -->
<g id="edge11" class="edge">
<title>dir_a925f5bb87732fc4d72dcc12cc6db92b&#45;&gt;dir_3d3615e9a999cab4f3407307569d6ced</title>
<path fill="none" stroke="black" d="M214.46,-87.7C205.2,-79.05 193.84,-68.45 183.74,-59.03"/>
<polygon fill="black" stroke="black" points="186.02,-56.37 176.33,-52.1 181.25,-61.49 186.02,-56.37"/>
<g id="a_edge11&#45;headlabel"><a xlink:href="dir_000046_000022.html" target="_top" xlink:title="5">
<text text-anchor="middle" x="190.59" y="-54.25" font-family="Helvetica,sans-Serif" font-size="10.00">5</text>
</a>
</g>
</g>
<!-- dir_0ad5cc9f0732862bd2f85bb38c1084f0 -->
<g id="node9" class="node">
<title>dir_0ad5cc9f0732862bd2f85bb38c1084f0</title>
<g id="a_node9"><a xlink:href="dir_0ad5cc9f0732862bd2f85bb38c1084f0.html" target="_top" xlink:title="sampling">
<polygon fill="white" stroke="black" points="188,-196 126,-196 126,-160 188,-160 188,-196"/>
<text text-anchor="middle" x="157" y="-175.5" font-family="Helvetica,sans-Serif" font-size="10.00">sampling</text>
</a>
</g>
</g>
<!-- dir_0ad5cc9f0732862bd2f85bb38c1084f0&#45;&gt;dir_3d3615e9a999cab4f3407307569d6ced -->
<g id="edge6" class="edge">
<title>dir_0ad5cc9f0732862bd2f85bb38c1084f0&#45;&gt;dir_3d3615e9a999cab4f3407307569d6ced</title>
<path fill="none" stroke="black" d="M188.18,-163.49C222.7,-148.45 273.71,-125.99 275,-124 285.62,-107.58 286.07,-96.12 275,-80 257.19,-54.07 222.2,-43.08 195.1,-38.42"/>
<polygon fill="black" stroke="black" points="195.56,-34.95 185.15,-36.92 194.52,-41.87 195.56,-34.95"/>
<g id="a_edge6&#45;headlabel"><a xlink:href="dir_000027_000022.html" target="_top" xlink:title="4">
<text text-anchor="middle" x="199.54" y="-30.17" font-family="Helvetica,sans-Serif" font-size="10.00">4</text>
</a>
</g>
</g>
<!-- dir_0ad5cc9f0732862bd2f85bb38c1084f0&#45;&gt;dir_4bb30ed846ea1df1fc4d16874a455d91 -->
<g id="edge7" class="edge">
<title>dir_0ad5cc9f0732862bd2f85bb38c1084f0&#45;&gt;dir_4bb30ed846ea1df1fc4d16874a455d91</title>
<path fill="none" stroke="black" d="M138.43,-196.1C129.07,-204.72 117.57,-215.32 107.32,-224.76"/>
<polygon fill="black" stroke="black" points="104.77,-222.35 99.79,-231.7 109.51,-227.5 104.77,-222.35"/>
<g id="a_edge7&#45;headlabel"><a xlink:href="dir_000027_000002.html" target="_top" xlink:title="1">
<text text-anchor="middle" x="105.49" y="-215.32" font-family="Helvetica,sans-Serif" font-size="10.00">1</text>
</a>
</g>
</g>
<!-- dir_0ad5cc9f0732862bd2f85bb38c1084f0&#45;&gt;dir_7f7a014517bfe31ea45620a6a947e37b -->
<g id="edge8" class="edge">
<title>dir_0ad5cc9f0732862bd2f85bb38c1084f0&#45;&gt;dir_7f7a014517bfe31ea45620a6a947e37b</title>
<path fill="none" stroke="black" d="M138.71,-159.7C129.57,-151.05 118.36,-140.45 108.4,-131.03"/>
<polygon fill="black" stroke="black" points="110.75,-128.43 101.08,-124.1 105.94,-133.52 110.75,-128.43"/>
<g id="a_edge8&#45;headlabel"><a xlink:href="dir_000027_000024.html" target="_top" xlink:title="1">
<text text-anchor="middle" x="115.31" y="-126.34" font-family="Helvetica,sans-Serif" font-size="10.00">1</text>
</a>
</g>
</g>
<!-- dir_0ad5cc9f0732862bd2f85bb38c1084f0&#45;&gt;dir_f2c65bfcbdc19ebacbfc0bbbfb0d01b6 -->
<g id="edge10" class="edge">
<title>dir_0ad5cc9f0732862bd2f85bb38c1084f0&#45;&gt;dir_f2c65bfcbdc19ebacbfc0bbbfb0d01b6</title>
<path fill="none" stroke="black" d="M125.62,-178C123.14,-178 120.67,-178 118.19,-178"/>
<polygon fill="black" stroke="black" points="118.02,-174.5 108.02,-178 118.02,-181.5 118.02,-174.5"/>
<g id="a_edge10&#45;headlabel"><a xlink:href="dir_000027_000017.html" target="_top" xlink:title="1">
<text text-anchor="middle" x="121.61" y="-169.16" font-family="Helvetica,sans-Serif" font-size="10.00">1</text>
</a>
</g>
</g>
<!-- dir_0ad5cc9f0732862bd2f85bb38c1084f0&#45;&gt;dir_e4878a39f7a1ff4e13f4c83bf1db7931 -->
<g id="edge9" class="edge">
<title>dir_0ad5cc9f0732862bd2f85bb38c1084f0&#45;&gt;dir_e4878a39f7a1ff4e13f4c83bf1db7931</title>
<path fill="none" stroke="black" d="M156.51,-159.7C156.29,-151.98 156.02,-142.71 155.77,-134.11"/>
<polygon fill="black" stroke="black" points="159.27,-134 155.49,-124.1 152.28,-134.2 159.27,-134"/>
<g id="a_edge9&#45;headlabel"><a xlink:href="dir_000027_000044.html" target="_top" xlink:title="7">
<text text-anchor="middle" x="162.21" y="-135.01" font-family="Helvetica,sans-Serif" font-size="10.00">7</text>
</a>
</g>
</g>
<!-- dir_840c4e0daa8df97bd9a0df29e85df46b -->
<g id="node10" class="node">
<title>dir_840c4e0daa8df97bd9a0df29e85df46b</title>
<g id="a_node10"><a xlink:href="dir_840c4e0daa8df97bd9a0df29e85df46b.html" target="_top" xlink:title="tagging">
<polygon fill="white" stroke="black" points="404,-196 350,-196 350,-160 404,-160 404,-196"/>
<text text-anchor="middle" x="377" y="-175.5" font-family="Helvetica,sans-Serif" font-size="10.00">tagging</text>
</a>
</g>
</g>
<!-- dir_840c4e0daa8df97bd9a0df29e85df46b&#45;&gt;dir_3d3615e9a999cab4f3407307569d6ced -->
<g id="edge1" class="edge">
<title>dir_840c4e0daa8df97bd9a0df29e85df46b&#45;&gt;dir_3d3615e9a999cab4f3407307569d6ced</title>
<path fill="none" stroke="black" d="M364.69,-159.94C348.44,-138.53 317.88,-101.94 284,-80 256.63,-62.28 221.4,-50.46 195.15,-43.4"/>
<polygon fill="black" stroke="black" points="195.77,-39.95 185.21,-40.84 194.02,-46.72 195.77,-39.95"/>
<g id="a_edge1&#45;headlabel"><a xlink:href="dir_000018_000022.html" target="_top" xlink:title="3">
<text text-anchor="middle" x="199.96" y="-35.59" font-family="Helvetica,sans-Serif" font-size="10.00">3</text>
</a>
</g>
</g>
</g>
</svg>
