<?xml version="1.0" encoding="UTF-8" standalone="no"?>
<!DOCTYPE svg PUBLIC "-//W3C//DTD SVG 1.1//EN"
 "http://www.w3.org/Graphics/SVG/1.1/DTD/svg11.dtd">
<!-- Generated by graphviz version 2.43.0 (0)
 -->
<!-- Title: icns Pages: 1 -->
<svg width="347pt" height="392pt"
 viewBox="0.00 0.00 347.05 392.34" xmlns="http://www.w3.org/2000/svg" xmlns:xlink="http://www.w3.org/1999/xlink">
<g id="graph0" class="graph" transform="scale(1 1) rotate(0) translate(4 388.34)">
<title>icns</title>
<polygon fill="white" stroke="transparent" points="-4,4 -4,-388.34 343.05,-388.34 343.05,4 -4,4"/>
<g id="clust1" class="cluster">
<title>clusterdir_4bb30ed846ea1df1fc4d16874a455d91</title>
<g id="a_clust1"><a xlink:href="dir_4bb30ed846ea1df1fc4d16874a455d91.html" target="_top" xlink:title="equation_systems">
<polygon fill="#ddddee" stroke="black" points="8,-208 8,-359 196,-359 196,-208 8,-208"/>
<text text-anchor="middle" x="102" y="-347" font-family="Helvetica,sans-Serif" font-size="10.00">equation_systems</text>
</a>
</g>
</g>
<g id="clust2" class="cluster">
<title>clusterdir_4012ff34c1bb5bd303e44a1c9cef6c8a</title>
<g id="a_clust2"><a xlink:href="dir_4012ff34c1bb5bd303e44a1c9cef6c8a.html" target="_top">
<polygon fill="#eeeeff" stroke="black" points="16,-280 16,-332 188,-332 188,-280 16,-280"/>
</a>
</g>
</g>
<!-- dir_bfcf7e25e8a41bb3b30f8e11e2280479 -->
<g id="node1" class="node">
<title>dir_bfcf7e25e8a41bb3b30f8e11e2280479</title>
<g id="a_node1"><a xlink:href="dir_bfcf7e25e8a41bb3b30f8e11e2280479.html" target="_top" xlink:title="vof">
<polygon fill="none" stroke="black" points="186,-252 132,-252 132,-216 186,-216 186,-252"/>
<text text-anchor="middle" x="159" y="-231.5" font-family="Helvetica,sans-Serif" font-size="10.00">vof</text>
</a>
</g>
</g>
<!-- dir_3d3615e9a999cab4f3407307569d6ced -->
<g id="node4" class="node">
<title>dir_3d3615e9a999cab4f3407307569d6ced</title>
<g id="a_node4"><a xlink:href="dir_3d3615e9a999cab4f3407307569d6ced.html" target="_top" xlink:title="core">
<polygon fill="white" stroke="red" points="296,-324 242,-324 242,-288 296,-288 296,-324"/>
<text text-anchor="middle" x="269" y="-303.5" font-family="Helvetica,sans-Serif" font-size="10.00">core</text>
</a>
</g>
</g>
<!-- dir_bfcf7e25e8a41bb3b30f8e11e2280479&#45;&gt;dir_3d3615e9a999cab4f3407307569d6ced -->
<g id="edge25" class="edge">
<title>dir_bfcf7e25e8a41bb3b30f8e11e2280479&#45;&gt;dir_3d3615e9a999cab4f3407307569d6ced</title>
<path fill="none" stroke="black" d="M186.01,-252.19C200.28,-261.27 217.97,-272.53 233.35,-282.31"/>
<polygon fill="black" stroke="black" points="231.78,-285.46 242.09,-287.88 235.53,-279.55 231.78,-285.46"/>
<g id="a_edge25&#45;headlabel"><a xlink:href="dir_000031_000022.html" target="_top" xlink:title="2">
<text text-anchor="middle" x="227.22" y="-283.43" font-family="Helvetica,sans-Serif" font-size="10.00">2</text>
</a>
</g>
</g>
<!-- dir_ebb19deee3cd40f4ac122fef25c04ca8 -->
<g id="node6" class="node">
<title>dir_ebb19deee3cd40f4ac122fef25c04ca8</title>
<g id="a_node6"><a xlink:href="dir_ebb19deee3cd40f4ac122fef25c04ca8.html" target="_top" xlink:title="boundary_conditions">
<polygon fill="white" stroke="red" points="273,-108 155,-108 155,-72 273,-72 273,-108"/>
<text text-anchor="middle" x="214" y="-87.5" font-family="Helvetica,sans-Serif" font-size="10.00">boundary_conditions</text>
</a>
</g>
</g>
<!-- dir_bfcf7e25e8a41bb3b30f8e11e2280479&#45;&gt;dir_ebb19deee3cd40f4ac122fef25c04ca8 -->
<g id="edge26" class="edge">
<title>dir_bfcf7e25e8a41bb3b30f8e11e2280479&#45;&gt;dir_ebb19deee3cd40f4ac122fef25c04ca8</title>
<path fill="none" stroke="black" d="M160.7,-215.67C162.95,-197.29 167.89,-167.69 178,-144 182.08,-134.43 187.99,-124.78 193.84,-116.39"/>
<polygon fill="black" stroke="black" points="196.78,-118.29 199.84,-108.15 191.12,-114.17 196.78,-118.29"/>
<g id="a_edge26&#45;headlabel"><a xlink:href="dir_000031_000014.html" target="_top" xlink:title="1">
<text text-anchor="middle" x="196.96" y="-120.37" font-family="Helvetica,sans-Serif" font-size="10.00">1</text>
</a>
</g>
</g>
<!-- dir_f2c65bfcbdc19ebacbfc0bbbfb0d01b6 -->
<g id="node8" class="node">
<title>dir_f2c65bfcbdc19ebacbfc0bbbfb0d01b6</title>
<g id="a_node8"><a xlink:href="dir_f2c65bfcbdc19ebacbfc0bbbfb0d01b6.html" target="_top" xlink:title="physics">
<polygon fill="white" stroke="red" points="241,-180 187,-180 187,-144 241,-144 241,-180"/>
<text text-anchor="middle" x="214" y="-159.5" font-family="Helvetica,sans-Serif" font-size="10.00">physics</text>
</a>
</g>
</g>
<!-- dir_bfcf7e25e8a41bb3b30f8e11e2280479&#45;&gt;dir_f2c65bfcbdc19ebacbfc0bbbfb0d01b6 -->
<g id="edge27" class="edge">
<title>dir_bfcf7e25e8a41bb3b30f8e11e2280479&#45;&gt;dir_f2c65bfcbdc19ebacbfc0bbbfb0d01b6</title>
<path fill="none" stroke="black" d="M166.68,-215.7C172.41,-207.3 180.26,-197.07 187.97,-187.86"/>
<polygon fill="black" stroke="black" points="190.78,-189.96 194.67,-180.1 185.48,-185.39 190.78,-189.96"/>
<g id="a_edge27&#45;headlabel"><a xlink:href="dir_000031_000017.html" target="_top" xlink:title="1">
<text text-anchor="middle" x="190.59" y="-192.04" font-family="Helvetica,sans-Serif" font-size="10.00">1</text>
</a>
</g>
</g>
<!-- dir_4012ff34c1bb5bd303e44a1c9cef6c8a -->
<g id="node2" class="node">
<title>dir_4012ff34c1bb5bd303e44a1c9cef6c8a</title>
<text text-anchor="middle" x="153" y="-303.5" font-family="Helvetica,sans-Serif" font-size="10.00">icns</text>
</g>
<!-- dir_4012ff34c1bb5bd303e44a1c9cef6c8a&#45;&gt;dir_bfcf7e25e8a41bb3b30f8e11e2280479 -->
<g id="edge22" class="edge">
<title>dir_4012ff34c1bb5bd303e44a1c9cef6c8a&#45;&gt;dir_bfcf7e25e8a41bb3b30f8e11e2280479</title>
<path fill="none" stroke="black" d="M154.48,-287.7C155.14,-279.98 155.94,-270.71 156.68,-262.11"/>
<polygon fill="black" stroke="black" points="160.17,-262.37 157.53,-252.1 153.19,-261.77 160.17,-262.37"/>
<g id="a_edge22&#45;headlabel"><a xlink:href="dir_000003_000031.html" target="_top" xlink:title="1">
<text text-anchor="middle" x="162.69" y="-263.69" font-family="Helvetica,sans-Serif" font-size="10.00">1</text>
</a>
</g>
</g>
<!-- dir_4012ff34c1bb5bd303e44a1c9cef6c8a&#45;&gt;dir_3d3615e9a999cab4f3407307569d6ced -->
<g id="edge21" class="edge">
<title>dir_4012ff34c1bb5bd303e44a1c9cef6c8a&#45;&gt;dir_3d3615e9a999cab4f3407307569d6ced</title>
<path fill="none" stroke="black" d="M180.19,-306C197.39,-306 214.6,-306 231.81,-306"/>
<polygon fill="black" stroke="black" points="231.94,-309.5 241.94,-306 231.94,-302.5 231.94,-309.5"/>
<g id="a_edge21&#45;headlabel"><a xlink:href="dir_000003_000022.html" target="_top" xlink:title="24">
<text text-anchor="middle" x="228.35" y="-309.84" font-family="Helvetica,sans-Serif" font-size="10.00">24</text>
</a>
</g>
</g>
<!-- dir_e4cd57caa88bf1f4e1bf9521bc47c3c0 -->
<g id="node5" class="node">
<title>dir_e4cd57caa88bf1f4e1bf9521bc47c3c0</title>
<g id="a_node5"><a xlink:href="dir_e4cd57caa88bf1f4e1bf9521bc47c3c0.html" target="_top" xlink:title="utilities">
<polygon fill="white" stroke="red" points="296,-252 242,-252 242,-216 296,-216 296,-252"/>
<text text-anchor="middle" x="269" y="-231.5" font-family="Helvetica,sans-Serif" font-size="10.00">utilities</text>
</a>
</g>
</g>
<!-- dir_4012ff34c1bb5bd303e44a1c9cef6c8a&#45;&gt;dir_e4cd57caa88bf1f4e1bf9521bc47c3c0 -->
<g id="edge23" class="edge">
<title>dir_4012ff34c1bb5bd303e44a1c9cef6c8a&#45;&gt;dir_e4cd57caa88bf1f4e1bf9521bc47c3c0</title>
<path fill="none" stroke="black" d="M180.2,-288.59C196.05,-279.02 216.23,-266.85 233.34,-256.52"/>
<polygon fill="black" stroke="black" points="235.22,-259.47 241.97,-251.31 231.6,-253.48 235.22,-259.47"/>
<g id="a_edge23&#45;headlabel"><a xlink:href="dir_000003_000012.html" target="_top" xlink:title="14">
<text text-anchor="middle" x="233.61" y="-261.26" font-family="Helvetica,sans-Serif" font-size="10.00">14</text>
</a>
</g>
</g>
<!-- dir_4012ff34c1bb5bd303e44a1c9cef6c8a&#45;&gt;dir_ebb19deee3cd40f4ac122fef25c04ca8 -->
<g id="edge24" class="edge">
<title>dir_4012ff34c1bb5bd303e44a1c9cef6c8a&#45;&gt;dir_ebb19deee3cd40f4ac122fef25c04ca8</title>
<path fill="none" stroke="black" d="M137.82,-287.7C130.27,-277.94 121.93,-265.1 118,-252 112.37,-233.27 112.2,-226.68 118,-208 129.76,-170.13 161.03,-136.24 184.71,-114.81"/>
<polygon fill="black" stroke="black" points="187.22,-117.26 192.41,-108.03 182.59,-112.01 187.22,-117.26"/>
<g id="a_edge24&#45;headlabel"><a xlink:href="dir_000003_000014.html" target="_top" xlink:title="1">
<text text-anchor="middle" x="186.39" y="-119.27" font-family="Helvetica,sans-Serif" font-size="10.00">1</text>
</a>
</g>
</g>
<!-- dir_5d2cf0e24161a778738de20190787a10 -->
<g id="node3" class="node">
<title>dir_5d2cf0e24161a778738de20190787a10</title>
<g id="a_node3"><a xlink:href="dir_5d2cf0e24161a778738de20190787a10.html" target="_top" xlink:title="source_terms">
<polygon fill="white" stroke="black" points="107.5,-324 24.5,-324 24.5,-288 107.5,-288 107.5,-324"/>
<text text-anchor="middle" x="66" y="-303.5" font-family="Helvetica,sans-Serif" font-size="10.00">source_terms</text>
</a>
</g>
</g>
<!-- dir_5d2cf0e24161a778738de20190787a10&#45;&gt;dir_3d3615e9a999cab4f3407307569d6ced -->
<g id="edge2" class="edge">
<title>dir_5d2cf0e24161a778738de20190787a10&#45;&gt;dir_3d3615e9a999cab4f3407307569d6ced</title>
<path fill="none" stroke="black" d="M75.29,-324.2C85.22,-341.42 102.73,-366.2 126,-377 148.98,-387.67 159.16,-385.57 183,-377 208.05,-367.99 231,-348.18 246.88,-331.77"/>
<polygon fill="black" stroke="black" points="249.82,-333.74 254.09,-324.04 244.71,-328.97 249.82,-333.74"/>
<g id="a_edge2&#45;headlabel"><a xlink:href="dir_000004_000022.html" target="_top" xlink:title="19">
<text text-anchor="middle" x="249.45" y="-335.81" font-family="Helvetica,sans-Serif" font-size="10.00">19</text>
</a>
</g>
</g>
<!-- dir_5d2cf0e24161a778738de20190787a10&#45;&gt;dir_e4cd57caa88bf1f4e1bf9521bc47c3c0 -->
<g id="edge3" class="edge">
<title>dir_5d2cf0e24161a778738de20190787a10&#45;&gt;dir_e4cd57caa88bf1f4e1bf9521bc47c3c0</title>
<path fill="none" stroke="black" d="M98.83,-287.91C104.8,-285.09 111.03,-282.33 117,-280 155.36,-265.04 200.79,-252.2 231.93,-244.11"/>
<polygon fill="black" stroke="black" points="233.09,-247.42 241.91,-241.55 231.35,-240.64 233.09,-247.42"/>
<g id="a_edge3&#45;headlabel"><a xlink:href="dir_000004_000012.html" target="_top" xlink:title="11">
<text text-anchor="middle" x="230.31" y="-248.57" font-family="Helvetica,sans-Serif" font-size="10.00">11</text>
</a>
</g>
</g>
<!-- dir_0c368f76a33d967d5b838b5681461de6 -->
<g id="node7" class="node">
<title>dir_0c368f76a33d967d5b838b5681461de6</title>
<g id="a_node7"><a xlink:href="dir_0c368f76a33d967d5b838b5681461de6.html" target="_top" xlink:title="wind_energy">
<polygon fill="white" stroke="red" points="166.5,-36 87.5,-36 87.5,0 166.5,0 166.5,-36"/>
<text text-anchor="middle" x="127" y="-15.5" font-family="Helvetica,sans-Serif" font-size="10.00">wind_energy</text>
</a>
</g>
</g>
<!-- dir_5d2cf0e24161a778738de20190787a10&#45;&gt;dir_0c368f76a33d967d5b838b5681461de6 -->
<g id="edge1" class="edge">
<title>dir_5d2cf0e24161a778738de20190787a10&#45;&gt;dir_0c368f76a33d967d5b838b5681461de6</title>
<path fill="none" stroke="black" d="M66.42,-287.88C67.81,-248.71 73.75,-149.93 99,-72 101.94,-62.94 106.35,-53.58 110.82,-45.29"/>
<polygon fill="black" stroke="black" points="113.93,-46.9 115.8,-36.47 107.83,-43.46 113.93,-46.9"/>
<g id="a_edge1&#45;headlabel"><a xlink:href="dir_000004_000001.html" target="_top" xlink:title="4">
<text text-anchor="middle" x="114.63" y="-48.93" font-family="Helvetica,sans-Serif" font-size="10.00">4</text>
</a>
</g>
</g>
<!-- dir_5d2cf0e24161a778738de20190787a10&#45;&gt;dir_f2c65bfcbdc19ebacbfc0bbbfb0d01b6 -->
<g id="edge4" class="edge">
<title>dir_5d2cf0e24161a778738de20190787a10&#45;&gt;dir_f2c65bfcbdc19ebacbfc0bbbfb0d01b6</title>
<path fill="none" stroke="black" d="M63.48,-287.78C61.38,-266.54 61.26,-230.48 80,-208 103.62,-179.68 145.69,-169.1 176.4,-165.19"/>
<polygon fill="black" stroke="black" points="177.18,-168.63 186.74,-164.07 176.43,-161.67 177.18,-168.63"/>
<g id="a_edge4&#45;headlabel"><a xlink:href="dir_000004_000017.html" target="_top" xlink:title="1">
<text text-anchor="middle" x="173.91" y="-169.34" font-family="Helvetica,sans-Serif" font-size="10.00">1</text>
</a>
</g>
</g>
<!-- dir_3d3615e9a999cab4f3407307569d6ced&#45;&gt;dir_e4cd57caa88bf1f4e1bf9521bc47c3c0 -->
<g id="edge29" class="edge">
<title>dir_3d3615e9a999cab4f3407307569d6ced&#45;&gt;dir_e4cd57caa88bf1f4e1bf9521bc47c3c0</title>
<path fill="none" stroke="black" d="M263.08,-287.7C262.29,-279.98 262.06,-270.71 262.4,-262.11"/>
<polygon fill="black" stroke="black" points="265.9,-262.32 263.1,-252.1 258.92,-261.84 265.9,-262.32"/>
<g id="a_edge29&#45;headlabel"><a xlink:href="dir_000022_000012.html" target="_top" xlink:title="1">
<text text-anchor="middle" x="268.48" y="-263.61" font-family="Helvetica,sans-Serif" font-size="10.00">1</text>
</a>
</g>
</g>
<!-- dir_3d3615e9a999cab4f3407307569d6ced&#45;&gt;dir_ebb19deee3cd40f4ac122fef25c04ca8 -->
<g id="edge28" class="edge">
<title>dir_3d3615e9a999cab4f3407307569d6ced&#45;&gt;dir_ebb19deee3cd40f4ac122fef25c04ca8</title>
<path fill="none" stroke="black" d="M276.63,-287.77C283.37,-278.03 291.95,-265.18 296,-252 301.75,-233.31 300.96,-226.92 296,-208 286.24,-170.75 256.81,-137.08 235.82,-115.52"/>
<polygon fill="black" stroke="black" points="238.05,-112.79 228.53,-108.15 233.07,-117.72 238.05,-112.79"/>
<g id="a_edge28&#45;headlabel"><a xlink:href="dir_000022_000014.html" target="_top" xlink:title="1">
<text text-anchor="middle" x="242.59" y="-110.85" font-family="Helvetica,sans-Serif" font-size="10.00">1</text>
</a>
</g>
</g>
<!-- dir_e4cd57caa88bf1f4e1bf9521bc47c3c0&#45;&gt;dir_bfcf7e25e8a41bb3b30f8e11e2280479 -->
<g id="edge19" class="edge">
<title>dir_e4cd57caa88bf1f4e1bf9521bc47c3c0&#45;&gt;dir_bfcf7e25e8a41bb3b30f8e11e2280479</title>
<path fill="none" stroke="black" d="M241.79,-234C226.55,-234 211.32,-234 196.08,-234"/>
<polygon fill="black" stroke="black" points="196.07,-230.5 186.07,-234 196.07,-237.5 196.07,-230.5"/>
<g id="a_edge19&#45;headlabel"><a xlink:href="dir_000012_000031.html" target="_top" xlink:title="1">
<text text-anchor="middle" x="199.66" y="-225.16" font-family="Helvetica,sans-Serif" font-size="10.00">1</text>
</a>
</g>
</g>
<!-- dir_e4cd57caa88bf1f4e1bf9521bc47c3c0&#45;&gt;dir_3d3615e9a999cab4f3407307569d6ced -->
<g id="edge18" class="edge">
<title>dir_e4cd57caa88bf1f4e1bf9521bc47c3c0&#45;&gt;dir_3d3615e9a999cab4f3407307569d6ced</title>
<path fill="none" stroke="black" d="M274.9,-252.1C275.7,-259.79 275.94,-269.05 275.6,-277.67"/>
<polygon fill="black" stroke="black" points="272.11,-277.48 274.92,-287.7 279.09,-277.96 272.11,-277.48"/>
<g id="a_edge18&#45;headlabel"><a xlink:href="dir_000012_000022.html" target="_top" xlink:title="23">
<text text-anchor="middle" x="269.52" y="-271.2" font-family="Helvetica,sans-Serif" font-size="10.00">23</text>
</a>
</g>
</g>
<!-- dir_e4cd57caa88bf1f4e1bf9521bc47c3c0&#45;&gt;dir_f2c65bfcbdc19ebacbfc0bbbfb0d01b6 -->
<g id="edge20" class="edge">
<title>dir_e4cd57caa88bf1f4e1bf9521bc47c3c0&#45;&gt;dir_f2c65bfcbdc19ebacbfc0bbbfb0d01b6</title>
<path fill="none" stroke="black" d="M249.49,-215.7C242.18,-207.47 234.13,-197.48 227.45,-188.42"/>
<polygon fill="black" stroke="black" points="230.19,-186.23 221.54,-180.1 224.48,-190.28 230.19,-186.23"/>
<g id="a_edge20&#45;headlabel"><a xlink:href="dir_000012_000017.html" target="_top" xlink:title="1">
<text text-anchor="middle" x="234.59" y="-185.01" font-family="Helvetica,sans-Serif" font-size="10.00">1</text>
</a>
</g>
</g>
<!-- dir_ebb19deee3cd40f4ac122fef25c04ca8&#45;&gt;dir_3d3615e9a999cab4f3407307569d6ced -->
<g id="edge14" class="edge">
<title>dir_ebb19deee3cd40f4ac122fef25c04ca8&#45;&gt;dir_3d3615e9a999cab4f3407307569d6ced</title>
<path fill="none" stroke="black" d="M241.44,-108.15C267.28,-128.86 303.05,-166.18 314,-208 318.96,-226.92 319.75,-233.31 314,-252 310.96,-261.89 305.38,-271.59 299.07,-279.93"/>
<polygon fill="black" stroke="black" points="296.26,-277.84 292.59,-287.77 301.65,-282.29 296.26,-277.84"/>
<g id="a_edge14&#45;headlabel"><a xlink:href="dir_000014_000022.html" target="_top" xlink:title="9">
<text text-anchor="middle" x="296.36" y="-270.76" font-family="Helvetica,sans-Serif" font-size="10.00">9</text>
</a>
</g>
</g>
<!-- dir_ebb19deee3cd40f4ac122fef25c04ca8&#45;&gt;dir_e4cd57caa88bf1f4e1bf9521bc47c3c0 -->
<g id="edge17" class="edge">
<title>dir_ebb19deee3cd40f4ac122fef25c04ca8&#45;&gt;dir_e4cd57caa88bf1f4e1bf9521bc47c3c0</title>
<path fill="none" stroke="black" d="M228.16,-108.15C235.69,-118.07 244.5,-131.11 250,-144 258.41,-163.71 263.24,-187.51 265.93,-205.54"/>
<polygon fill="black" stroke="black" points="262.49,-206.24 267.3,-215.67 269.43,-205.29 262.49,-206.24"/>
<g id="a_edge17&#45;headlabel"><a xlink:href="dir_000014_000012.html" target="_top" xlink:title="3">
<text text-anchor="middle" x="259.19" y="-200.56" font-family="Helvetica,sans-Serif" font-size="10.00">3</text>
</a>
</g>
</g>
<!-- dir_ebb19deee3cd40f4ac122fef25c04ca8&#45;&gt;dir_0c368f76a33d967d5b838b5681461de6 -->
<g id="edge16" class="edge">
<title>dir_ebb19deee3cd40f4ac122fef25c04ca8&#45;&gt;dir_0c368f76a33d967d5b838b5681461de6</title>
<path fill="none" stroke="black" d="M192.49,-71.7C181.54,-62.88 168.05,-52.03 156.18,-42.47"/>
<polygon fill="black" stroke="black" points="158.24,-39.65 148.26,-36.1 153.86,-45.1 158.24,-39.65"/>
<g id="a_edge16&#45;headlabel"><a xlink:href="dir_000014_000001.html" target="_top" xlink:title="1">
<text text-anchor="middle" x="162.82" y="-37.19" font-family="Helvetica,sans-Serif" font-size="10.00">1</text>
</a>
</g>
</g>
<!-- dir_ebb19deee3cd40f4ac122fef25c04ca8&#45;&gt;dir_f2c65bfcbdc19ebacbfc0bbbfb0d01b6 -->
<g id="edge15" class="edge">
<title>dir_ebb19deee3cd40f4ac122fef25c04ca8&#45;&gt;dir_f2c65bfcbdc19ebacbfc0bbbfb0d01b6</title>
<path fill="none" stroke="black" d="M219.9,-108.1C220.7,-115.79 220.94,-125.05 220.6,-133.67"/>
<polygon fill="black" stroke="black" points="217.11,-133.48 219.92,-143.7 224.09,-133.96 217.11,-133.48"/>
<g id="a_edge15&#45;headlabel"><a xlink:href="dir_000014_000017.html" target="_top" xlink:title="3">
<text text-anchor="middle" x="214.52" y="-127.2" font-family="Helvetica,sans-Serif" font-size="10.00">3</text>
</a>
</g>
</g>
<!-- dir_0c368f76a33d967d5b838b5681461de6&#45;&gt;dir_4012ff34c1bb5bd303e44a1c9cef6c8a -->
<g id="edge11" class="edge">
<title>dir_0c368f76a33d967d5b838b5681461de6&#45;&gt;dir_4012ff34c1bb5bd303e44a1c9cef6c8a</title>
<path fill="none" stroke="black" d="M121.03,-36.02C108.2,-75.4 81.31,-175.3 109,-252 112.75,-262.4 119.54,-272.2 126.67,-280.48"/>
<polygon fill="black" stroke="black" points="124.17,-282.94 133.53,-287.92 129.32,-278.19 124.17,-282.94"/>
<g id="a_edge11&#45;headlabel"><a xlink:href="dir_000001_000003.html" target="_top" xlink:title="4">
<text text-anchor="middle" x="119.65" y="-279.72" font-family="Helvetica,sans-Serif" font-size="10.00">4</text>
</a>
</g>
</g>
<!-- dir_0c368f76a33d967d5b838b5681461de6&#45;&gt;dir_5d2cf0e24161a778738de20190787a10 -->
<g id="edge12" class="edge">
<title>dir_0c368f76a33d967d5b838b5681461de6&#45;&gt;dir_5d2cf0e24161a778738de20190787a10</title>
<path fill="none" stroke="black" d="M109.8,-36.16C101.04,-45.88 90.99,-58.73 85,-72 53.89,-140.85 57.98,-232.77 62.52,-277.8"/>
<polygon fill="black" stroke="black" points="59.07,-278.39 63.64,-287.95 66.03,-277.63 59.07,-278.39"/>
<g id="a_edge12&#45;headlabel"><a xlink:href="dir_000001_000004.html" target="_top" xlink:title="4">
<text text-anchor="middle" x="55.85" y="-272.63" font-family="Helvetica,sans-Serif" font-size="10.00">4</text>
</a>
</g>
</g>
<!-- dir_0c368f76a33d967d5b838b5681461de6&#45;&gt;dir_3d3615e9a999cab4f3407307569d6ced -->
<g id="edge10" class="edge">
<title>dir_0c368f76a33d967d5b838b5681461de6&#45;&gt;dir_3d3615e9a999cab4f3407307569d6ced</title>
<path fill="none" stroke="black" d="M166.8,-19.86C206.83,-22.95 267.44,-34.14 302,-72 329.02,-101.59 351.64,-204.53 330,-252 324.44,-264.19 314.55,-274.66 304.32,-282.99"/>
<polygon fill="black" stroke="black" points="301.97,-280.38 296.12,-289.21 306.21,-285.96 301.97,-280.38"/>
<g id="a_edge10&#45;headlabel"><a xlink:href="dir_000001_000022.html" target="_top" xlink:title="33">
<text text-anchor="middle" x="303.12" y="-273.45" font-family="Helvetica,sans-Serif" font-size="10.00">33</text>
</a>
</g>
</g>
<!-- dir_0c368f76a33d967d5b838b5681461de6&#45;&gt;dir_e4cd57caa88bf1f4e1bf9521bc47c3c0 -->
<g id="edge13" class="edge">
<title>dir_0c368f76a33d967d5b838b5681461de6&#45;&gt;dir_e4cd57caa88bf1f4e1bf9521bc47c3c0</title>
<path fill="none" stroke="black" d="M166.61,-20.32C203.28,-23.9 255.95,-35.56 282,-72 310.43,-111.76 294.12,-172.01 280.81,-206.42"/>
<polygon fill="black" stroke="black" points="277.52,-205.23 277.01,-215.81 284.01,-207.86 277.52,-205.23"/>
<g id="a_edge13&#45;headlabel"><a xlink:href="dir_000001_000012.html" target="_top" xlink:title="43">
<text text-anchor="middle" x="276.24" y="-198.33" font-family="Helvetica,sans-Serif" font-size="10.00">43</text>
</a>
</g>
</g>
<!-- dir_f2c65bfcbdc19ebacbfc0bbbfb0d01b6&#45;&gt;dir_bfcf7e25e8a41bb3b30f8e11e2280479 -->
<g id="edge7" class="edge">
<title>dir_f2c65bfcbdc19ebacbfc0bbbfb0d01b6&#45;&gt;dir_bfcf7e25e8a41bb3b30f8e11e2280479</title>
<path fill="none" stroke="black" d="M206.46,-180.1C200.76,-188.47 192.93,-198.69 185.21,-207.92"/>
<polygon fill="black" stroke="black" points="182.38,-205.84 178.51,-215.7 187.69,-210.4 182.38,-205.84"/>
<g id="a_edge7&#45;headlabel"><a xlink:href="dir_000017_000031.html" target="_top" xlink:title="1">
<text text-anchor="middle" x="182.58" y="-198.76" font-family="Helvetica,sans-Serif" font-size="10.00">1</text>
</a>
</g>
</g>
<!-- dir_f2c65bfcbdc19ebacbfc0bbbfb0d01b6&#45;&gt;dir_3d3615e9a999cab4f3407307569d6ced -->
<g id="edge6" class="edge">
<title>dir_f2c65bfcbdc19ebacbfc0bbbfb0d01b6&#45;&gt;dir_3d3615e9a999cab4f3407307569d6ced</title>
<path fill="none" stroke="black" d="M215.7,-180.33C217.95,-198.71 222.89,-228.31 233,-252 237.08,-261.57 242.99,-271.22 248.84,-279.61"/>
<polygon fill="black" stroke="black" points="246.12,-281.83 254.84,-287.85 251.78,-277.71 246.12,-281.83"/>
<g id="a_edge6&#45;headlabel"><a xlink:href="dir_000017_000022.html" target="_top" xlink:title="67">
<text text-anchor="middle" x="241.71" y="-278.09" font-family="Helvetica,sans-Serif" font-size="10.00">67</text>
</a>
</g>
</g>
<!-- dir_f2c65bfcbdc19ebacbfc0bbbfb0d01b6&#45;&gt;dir_e4cd57caa88bf1f4e1bf9521bc47c3c0 -->
<g id="edge8" class="edge">
<title>dir_f2c65bfcbdc19ebacbfc0bbbfb0d01b6&#45;&gt;dir_e4cd57caa88bf1f4e1bf9521bc47c3c0</title>
<path fill="none" stroke="black" d="M233.33,-180.1C240.63,-188.3 248.69,-198.28 255.38,-207.36"/>
<polygon fill="black" stroke="black" points="252.67,-209.58 261.32,-215.7 258.37,-205.52 252.67,-209.58"/>
<g id="a_edge8&#45;headlabel"><a xlink:href="dir_000017_000012.html" target="_top" xlink:title="14">
<text text-anchor="middle" x="248.27" y="-205.8" font-family="Helvetica,sans-Serif" font-size="10.00">14</text>
</a>
</g>
</g>
<!-- dir_f2c65bfcbdc19ebacbfc0bbbfb0d01b6&#45;&gt;dir_ebb19deee3cd40f4ac122fef25c04ca8 -->
<g id="edge9" class="edge">
<title>dir_f2c65bfcbdc19ebacbfc0bbbfb0d01b6&#45;&gt;dir_ebb19deee3cd40f4ac122fef25c04ca8</title>
<path fill="none" stroke="black" d="M208.08,-143.7C207.29,-135.98 207.06,-126.71 207.4,-118.11"/>
<polygon fill="black" stroke="black" points="210.9,-118.32 208.1,-108.1 203.92,-117.84 210.9,-118.32"/>
<g id="a_edge9&#45;headlabel"><a xlink:href="dir_000017_000014.html" target="_top" xlink:title="1">
<text text-anchor="middle" x="213.48" y="-119.61" font-family="Helvetica,sans-Serif" font-size="10.00">1</text>
</a>
</g>
</g>
<!-- dir_f2c65bfcbdc19ebacbfc0bbbfb0d01b6&#45;&gt;dir_0c368f76a33d967d5b838b5681461de6 -->
<g id="edge5" class="edge">
<title>dir_f2c65bfcbdc19ebacbfc0bbbfb0d01b6&#45;&gt;dir_0c368f76a33d967d5b838b5681461de6</title>
<path fill="none" stroke="black" d="M186.95,-146.24C172.64,-137.07 156.01,-123.98 146,-108 134.36,-89.42 129.76,-64.83 127.98,-46.21"/>
<polygon fill="black" stroke="black" points="131.46,-45.74 127.23,-36.02 124.48,-46.25 131.46,-45.74"/>
<g id="a_edge5&#45;headlabel"><a xlink:href="dir_000017_000001.html" target="_top" xlink:title="1">
<text text-anchor="middle" x="134.55" y="-46.62" font-family="Helvetica,sans-Serif" font-size="10.00">1</text>
</a>
</g>
</g>
</g>
</svg>
