<?xml version="1.0" encoding="UTF-8" standalone="no"?>
<!DOCTYPE svg PUBLIC "-//W3C//DTD SVG 1.1//EN"
 "http://www.w3.org/Graphics/SVG/1.1/DTD/svg11.dtd">
<!-- Generated by graphviz version 2.43.0 (0)
 -->
<!-- Title: source_terms Pages: 1 -->
<svg width="210pt" height="295pt"
 viewBox="0.00 0.00 209.50 295.00" xmlns="http://www.w3.org/2000/svg" xmlns:xlink="http://www.w3.org/1999/xlink">
<g id="graph0" class="graph" transform="scale(1 1) rotate(0) translate(4 291)">
<title>source_terms</title>
<polygon fill="white" stroke="transparent" points="-4,4 -4,-291 205.5,-291 205.5,4 -4,4"/>
<g id="clust1" class="cluster">
<title>clusterdir_4012ff34c1bb5bd303e44a1c9cef6c8a</title>
<g id="a_clust1"><a xlink:href="dir_4012ff34c1bb5bd303e44a1c9cef6c8a.html" target="_top" xlink:title="icns">
<polygon fill="#ddddee" stroke="black" points="8,-208 8,-279 108,-279 108,-208 8,-208"/>
<text text-anchor="middle" x="58" y="-267" font-family="Helvetica,sans-Serif" font-size="10.00">icns</text>
</a>
</g>
</g>
<!-- dir_5d2cf0e24161a778738de20190787a10 -->
<g id="node1" class="node">
<title>dir_5d2cf0e24161a778738de20190787a10</title>
<g id="a_node1"><a xlink:href="dir_5d2cf0e24161a778738de20190787a10.html" target="_top" xlink:title="source_terms">
<polygon fill="#eeeeff" stroke="black" points="99.5,-252 16.5,-252 16.5,-216 99.5,-216 99.5,-252"/>
<text text-anchor="middle" x="58" y="-231.5" font-family="Helvetica,sans-Serif" font-size="10.00">source_terms</text>
</a>
</g>
</g>
<!-- dir_0c368f76a33d967d5b838b5681461de6 -->
<g id="node2" class="node">
<title>dir_0c368f76a33d967d5b838b5681461de6</title>
<g id="a_node2"><a xlink:href="dir_0c368f76a33d967d5b838b5681461de6.html" target="_top" xlink:title="wind_energy">
<polygon fill="white" stroke="red" points="201.5,-252 122.5,-252 122.5,-216 201.5,-216 201.5,-252"/>
<text text-anchor="middle" x="162" y="-231.5" font-family="Helvetica,sans-Serif" font-size="10.00">wind_energy</text>
</a>
</g>
</g>
<!-- dir_5d2cf0e24161a778738de20190787a10&#45;&gt;dir_0c368f76a33d967d5b838b5681461de6 -->
<g id="edge1" class="edge">
<title>dir_5d2cf0e24161a778738de20190787a10&#45;&gt;dir_0c368f76a33d967d5b838b5681461de6</title>
<path fill="none" stroke="black" d="M99.84,-234C103.92,-234 107.99,-234 112.06,-234"/>
<polygon fill="black" stroke="black" points="112.18,-237.5 122.18,-234 112.18,-230.5 112.18,-237.5"/>
<g id="a_edge1&#45;headlabel"><a xlink:href="dir_000004_000001.html" target="_top" xlink:title="4">
<text text-anchor="middle" x="108.59" y="-237.84" font-family="Helvetica,sans-Serif" font-size="10.00">4</text>
</a>
</g>
</g>
<!-- dir_3d3615e9a999cab4f3407307569d6ced -->
<g id="node3" class="node">
<title>dir_3d3615e9a999cab4f3407307569d6ced</title>
<g id="a_node3"><a xlink:href="dir_3d3615e9a999cab4f3407307569d6ced.html" target="_top" xlink:title="core">
<polygon fill="white" stroke="red" points="137,-180 83,-180 83,-144 137,-144 137,-180"/>
<text text-anchor="middle" x="110" y="-159.5" font-family="Helvetica,sans-Serif" font-size="10.00">core</text>
</a>
</g>
</g>
<!-- dir_5d2cf0e24161a778738de20190787a10&#45;&gt;dir_3d3615e9a999cab4f3407307569d6ced -->
<g id="edge2" class="edge">
<title>dir_5d2cf0e24161a778738de20190787a10&#45;&gt;dir_3d3615e9a999cab4f3407307569d6ced</title>
<path fill="none" stroke="black" d="M70.85,-215.7C77.03,-207.39 84.54,-197.28 91.32,-188.14"/>
<polygon fill="black" stroke="black" points="94.14,-190.22 97.29,-180.1 88.52,-186.04 94.14,-190.22"/>
<g id="a_edge2&#45;headlabel"><a xlink:href="dir_000004_000022.html" target="_top" xlink:title="19">
<text text-anchor="middle" x="94.28" y="-192.3" font-family="Helvetica,sans-Serif" font-size="10.00">19</text>
</a>
</g>
</g>
<!-- dir_e4cd57caa88bf1f4e1bf9521bc47c3c0 -->
<g id="node4" class="node">
<title>dir_e4cd57caa88bf1f4e1bf9521bc47c3c0</title>
<g id="a_node4"><a xlink:href="dir_e4cd57caa88bf1f4e1bf9521bc47c3c0.html" target="_top" xlink:title="utilities">
<polygon fill="white" stroke="red" points="137,-108 83,-108 83,-72 137,-72 137,-108"/>
<text text-anchor="middle" x="110" y="-87.5" font-family="Helvetica,sans-Serif" font-size="10.00">utilities</text>
</a>
</g>
</g>
<!-- dir_5d2cf0e24161a778738de20190787a10&#45;&gt;dir_e4cd57caa88bf1f4e1bf9521bc47c3c0 -->
<g id="edge3" class="edge">
<title>dir_5d2cf0e24161a778738de20190787a10&#45;&gt;dir_e4cd57caa88bf1f4e1bf9521bc47c3c0</title>
<path fill="none" stroke="black" d="M58.97,-215.68C60.49,-197.3 64.34,-167.69 74,-144 77.93,-134.37 83.79,-124.7 89.65,-116.31"/>
<polygon fill="black" stroke="black" points="92.59,-118.22 95.67,-108.08 86.94,-114.08 92.59,-118.22"/>
<g id="a_edge3&#45;headlabel"><a xlink:href="dir_000004_000012.html" target="_top" xlink:title="11">
<text text-anchor="middle" x="92.76" y="-120.3" font-family="Helvetica,sans-Serif" font-size="10.00">11</text>
</a>
</g>
</g>
<!-- dir_f2c65bfcbdc19ebacbfc0bbbfb0d01b6 -->
<g id="node5" class="node">
<title>dir_f2c65bfcbdc19ebacbfc0bbbfb0d01b6</title>
<g id="a_node5"><a xlink:href="dir_f2c65bfcbdc19ebacbfc0bbbfb0d01b6.html" target="_top" xlink:title="physics">
<polygon fill="white" stroke="red" points="137,-36 83,-36 83,0 137,0 137,-36"/>
<text text-anchor="middle" x="110" y="-15.5" font-family="Helvetica,sans-Serif" font-size="10.00">physics</text>
</a>
</g>
</g>
<!-- dir_5d2cf0e24161a778738de20190787a10&#45;&gt;dir_f2c65bfcbdc19ebacbfc0bbbfb0d01b6 -->
<g id="edge4" class="edge">
<title>dir_5d2cf0e24161a778738de20190787a10&#45;&gt;dir_f2c65bfcbdc19ebacbfc0bbbfb0d01b6</title>
<path fill="none" stroke="black" d="M55.4,-215.75C51.58,-185.38 46.92,-120.95 67,-72 71.11,-61.97 77.78,-52.34 84.65,-44.1"/>
<polygon fill="black" stroke="black" points="87.49,-46.18 91.5,-36.37 82.25,-41.53 87.49,-46.18"/>
<g id="a_edge4&#45;headlabel"><a xlink:href="dir_000004_000017.html" target="_top" xlink:title="1">
<text text-anchor="middle" x="87.23" y="-48.25" font-family="Helvetica,sans-Serif" font-size="10.00">1</text>
</a>
</g>
</g>
<!-- dir_0c368f76a33d967d5b838b5681461de6&#45;&gt;dir_5d2cf0e24161a778738de20190787a10 -->
<g id="edge9" class="edge">
<title>dir_0c368f76a33d967d5b838b5681461de6&#45;&gt;dir_5d2cf0e24161a778738de20190787a10</title>
<path fill="none" stroke="black" d="M122.18,-234C118.11,-234 114.04,-234 109.97,-234"/>
<polygon fill="black" stroke="black" points="109.84,-230.5 99.84,-234 109.84,-237.5 109.84,-230.5"/>
<g id="a_edge9&#45;headlabel"><a xlink:href="dir_000001_000004.html" target="_top" xlink:title="4">
<text text-anchor="middle" x="113.44" y="-225.16" font-family="Helvetica,sans-Serif" font-size="10.00">4</text>
</a>
</g>
</g>
<!-- dir_0c368f76a33d967d5b838b5681461de6&#45;&gt;dir_3d3615e9a999cab4f3407307569d6ced -->
<g id="edge8" class="edge">
<title>dir_0c368f76a33d967d5b838b5681461de6&#45;&gt;dir_3d3615e9a999cab4f3407307569d6ced</title>
<path fill="none" stroke="black" d="M149.15,-215.7C142.97,-207.39 135.46,-197.28 128.68,-188.14"/>
<polygon fill="black" stroke="black" points="131.48,-186.04 122.71,-180.1 125.86,-190.22 131.48,-186.04"/>
<g id="a_edge8&#45;headlabel"><a xlink:href="dir_000001_000022.html" target="_top" xlink:title="33">
<text text-anchor="middle" x="135.9" y="-184.74" font-family="Helvetica,sans-Serif" font-size="10.00">33</text>
</a>
</g>
</g>
<!-- dir_0c368f76a33d967d5b838b5681461de6&#45;&gt;dir_e4cd57caa88bf1f4e1bf9521bc47c3c0 -->
<g id="edge10" class="edge">
<title>dir_0c368f76a33d967d5b838b5681461de6&#45;&gt;dir_e4cd57caa88bf1f4e1bf9521bc47c3c0</title>
<path fill="none" stroke="black" d="M161.03,-215.68C159.51,-197.3 155.66,-167.69 146,-144 142.07,-134.37 136.21,-124.7 130.35,-116.31"/>
<polygon fill="black" stroke="black" points="133.06,-114.08 124.33,-108.08 127.41,-118.22 133.06,-114.08"/>
<g id="a_edge10&#45;headlabel"><a xlink:href="dir_000001_000012.html" target="_top" xlink:title="43">
<text text-anchor="middle" x="137.47" y="-112.81" font-family="Helvetica,sans-Serif" font-size="10.00">43</text>
</a>
</g>
</g>
<!-- dir_3d3615e9a999cab4f3407307569d6ced&#45;&gt;dir_e4cd57caa88bf1f4e1bf9521bc47c3c0 -->
<g id="edge13" class="edge">
<title>dir_3d3615e9a999cab4f3407307569d6ced&#45;&gt;dir_e4cd57caa88bf1f4e1bf9521bc47c3c0</title>
<path fill="none" stroke="black" d="M104.08,-143.7C103.29,-135.98 103.06,-126.71 103.4,-118.11"/>
<polygon fill="black" stroke="black" points="106.9,-118.32 104.1,-108.1 99.92,-117.84 106.9,-118.32"/>
<g id="a_edge13&#45;headlabel"><a xlink:href="dir_000022_000012.html" target="_top" xlink:title="1">
<text text-anchor="middle" x="109.48" y="-119.61" font-family="Helvetica,sans-Serif" font-size="10.00">1</text>
</a>
</g>
</g>
<!-- dir_e4cd57caa88bf1f4e1bf9521bc47c3c0&#45;&gt;dir_3d3615e9a999cab4f3407307569d6ced -->
<g id="edge11" class="edge">
<title>dir_e4cd57caa88bf1f4e1bf9521bc47c3c0&#45;&gt;dir_3d3615e9a999cab4f3407307569d6ced</title>
<path fill="none" stroke="black" d="M115.9,-108.1C116.7,-115.79 116.94,-125.05 116.6,-133.67"/>
<polygon fill="black" stroke="black" points="113.11,-133.48 115.92,-143.7 120.09,-133.96 113.11,-133.48"/>
<g id="a_edge11&#45;headlabel"><a xlink:href="dir_000012_000022.html" target="_top" xlink:title="23">
<text text-anchor="middle" x="110.52" y="-127.2" font-family="Helvetica,sans-Serif" font-size="10.00">23</text>
</a>
</g>
</g>
<!-- dir_e4cd57caa88bf1f4e1bf9521bc47c3c0&#45;&gt;dir_f2c65bfcbdc19ebacbfc0bbbfb0d01b6 -->
<g id="edge12" class="edge">
<title>dir_e4cd57caa88bf1f4e1bf9521bc47c3c0&#45;&gt;dir_f2c65bfcbdc19ebacbfc0bbbfb0d01b6</title>
<path fill="none" stroke="black" d="M104.08,-71.7C103.29,-63.98 103.06,-54.71 103.4,-46.11"/>
<polygon fill="black" stroke="black" points="106.9,-46.32 104.1,-36.1 99.92,-45.84 106.9,-46.32"/>
<g id="a_edge12&#45;headlabel"><a xlink:href="dir_000012_000017.html" target="_top" xlink:title="1">
<text text-anchor="middle" x="109.48" y="-47.61" font-family="Helvetica,sans-Serif" font-size="10.00">1</text>
</a>
</g>
</g>
<!-- dir_f2c65bfcbdc19ebacbfc0bbbfb0d01b6&#45;&gt;dir_0c368f76a33d967d5b838b5681461de6 -->
<g id="edge5" class="edge">
<title>dir_f2c65bfcbdc19ebacbfc0bbbfb0d01b6&#45;&gt;dir_0c368f76a33d967d5b838b5681461de6</title>
<path fill="none" stroke="black" d="M123.93,-36.25C131.38,-46.21 140.19,-59.24 146,-72 166.2,-116.35 166.38,-131.28 165,-180 164.76,-188.33 164.32,-197.38 163.85,-205.61"/>
<polygon fill="black" stroke="black" points="160.34,-205.63 163.22,-215.82 167.33,-206.06 160.34,-205.63"/>
<g id="a_edge5&#45;headlabel"><a xlink:href="dir_000017_000001.html" target="_top" xlink:title="1">
<text text-anchor="middle" x="157.73" y="-199.37" font-family="Helvetica,sans-Serif" font-size="10.00">1</text>
</a>
</g>
</g>
<!-- dir_f2c65bfcbdc19ebacbfc0bbbfb0d01b6&#45;&gt;dir_3d3615e9a999cab4f3407307569d6ced -->
<g id="edge6" class="edge">
<title>dir_f2c65bfcbdc19ebacbfc0bbbfb0d01b6&#45;&gt;dir_3d3615e9a999cab4f3407307569d6ced</title>
<path fill="none" stroke="black" d="M94.39,-36.23C86.63,-45.97 78.05,-58.82 74,-72 69.3,-87.29 69.3,-92.71 74,-108 77.01,-117.78 82.51,-127.38 88.32,-135.67"/>
<polygon fill="black" stroke="black" points="85.59,-137.87 94.39,-143.77 91.19,-133.67 85.59,-137.87"/>
<g id="a_edge6&#45;headlabel"><a xlink:href="dir_000017_000022.html" target="_top" xlink:title="67">
<text text-anchor="middle" x="81.17" y="-134.2" font-family="Helvetica,sans-Serif" font-size="10.00">67</text>
</a>
</g>
</g>
<!-- dir_f2c65bfcbdc19ebacbfc0bbbfb0d01b6&#45;&gt;dir_e4cd57caa88bf1f4e1bf9521bc47c3c0 -->
<g id="edge7" class="edge">
<title>dir_f2c65bfcbdc19ebacbfc0bbbfb0d01b6&#45;&gt;dir_e4cd57caa88bf1f4e1bf9521bc47c3c0</title>
<path fill="none" stroke="black" d="M115.9,-36.1C116.7,-43.79 116.94,-53.05 116.6,-61.67"/>
<polygon fill="black" stroke="black" points="113.11,-61.48 115.92,-71.7 120.09,-61.96 113.11,-61.48"/>
<g id="a_edge7&#45;headlabel"><a xlink:href="dir_000017_000012.html" target="_top" xlink:title="14">
<text text-anchor="middle" x="110.52" y="-55.2" font-family="Helvetica,sans-Serif" font-size="10.00">14</text>
</a>
</g>
</g>
</g>
</svg>
