<?xml version="1.0" encoding="UTF-8" standalone="no"?>
<!DOCTYPE svg PUBLIC "-//W3C//DTD SVG 1.1//EN"
 "http://www.w3.org/Graphics/SVG/1.1/DTD/svg11.dtd">
<!-- Generated by graphviz version 2.43.0 (0)
 -->
<!-- Title: equation_systems Pages: 1 -->
<svg width="802pt" height="527pt"
 viewBox="0.00 0.00 802.00 527.00" xmlns="http://www.w3.org/2000/svg" xmlns:xlink="http://www.w3.org/1999/xlink">
<g id="graph0" class="graph" transform="scale(1 1) rotate(0) translate(4 523)">
<title>equation_systems</title>
<polygon fill="white" stroke="transparent" points="-4,4 -4,-523 798,-523 798,4 -4,4"/>
<g id="clust1" class="cluster">
<title>clusterdir_d85575251dd712327fe3cf057fa568b4</title>
<g id="a_clust1"><a xlink:href="dir_d85575251dd712327fe3cf057fa568b4.html" target="_top" xlink:title="amr&#45;wind">
<polygon fill="#ddddee" stroke="black" points="8,-8 8,-511 786,-511 786,-8 8,-8"/>
<text text-anchor="middle" x="397" y="-499" font-family="Helvetica,sans-Serif" font-size="10.00">amr&#45;wind</text>
</a>
</g>
</g>
<g id="clust2" class="cluster">
<title>clusterdir_4bb30ed846ea1df1fc4d16874a455d91</title>
<g id="a_clust2"><a xlink:href="dir_4bb30ed846ea1df1fc4d16874a455d91.html" target="_top">
<polygon fill="#eeeeff" stroke="black" points="198,-296 198,-420 778,-420 778,-296 198,-296"/>
</a>
</g>
</g>
<!-- dir_35ffb1505af3943bdf99903da87524fe -->
<g id="node1" class="node">
<title>dir_35ffb1505af3943bdf99903da87524fe</title>
<g id="a_node1"><a xlink:href="dir_35ffb1505af3943bdf99903da87524fe.html" target="_top" xlink:title="convection">
<polygon fill="none" stroke="black" points="213,-484 143,-484 143,-448 213,-448 213,-484"/>
<text text-anchor="middle" x="178" y="-463.5" font-family="Helvetica,sans-Serif" font-size="10.00">convection</text>
</a>
</g>
</g>
<!-- dir_3d3615e9a999cab4f3407307569d6ced -->
<g id="node2" class="node">
<title>dir_3d3615e9a999cab4f3407307569d6ced</title>
<g id="a_node2"><a xlink:href="dir_3d3615e9a999cab4f3407307569d6ced.html" target="_top" xlink:title="core">
<polygon fill="white" stroke="red" points="159,-412 105,-412 105,-376 159,-376 159,-412"/>
<text text-anchor="middle" x="132" y="-391.5" font-family="Helvetica,sans-Serif" font-size="10.00">core</text>
</a>
</g>
</g>
<!-- dir_35ffb1505af3943bdf99903da87524fe&#45;&gt;dir_3d3615e9a999cab4f3407307569d6ced -->
<g id="edge17" class="edge">
<title>dir_35ffb1505af3943bdf99903da87524fe&#45;&gt;dir_3d3615e9a999cab4f3407307569d6ced</title>
<path fill="none" stroke="black" d="M166.63,-447.7C161.28,-439.56 154.8,-429.69 148.89,-420.7"/>
<polygon fill="black" stroke="black" points="151.66,-418.54 143.24,-412.1 145.81,-422.38 151.66,-418.54"/>
<g id="a_edge17&#45;headlabel"><a xlink:href="dir_000030_000022.html" target="_top" xlink:title="2">
<text text-anchor="middle" x="156" y="-417.48" font-family="Helvetica,sans-Serif" font-size="10.00">2</text>
</a>
</g>
</g>
<!-- dir_e4cd57caa88bf1f4e1bf9521bc47c3c0 -->
<g id="node5" class="node">
<title>dir_e4cd57caa88bf1f4e1bf9521bc47c3c0</title>
<g id="a_node5"><a xlink:href="dir_e4cd57caa88bf1f4e1bf9521bc47c3c0.html" target="_top" xlink:title="utilities">
<polygon fill="white" stroke="red" points="150,-340 96,-340 96,-304 150,-304 150,-340"/>
<text text-anchor="middle" x="123" y="-319.5" font-family="Helvetica,sans-Serif" font-size="10.00">utilities</text>
</a>
</g>
</g>
<!-- dir_35ffb1505af3943bdf99903da87524fe&#45;&gt;dir_e4cd57caa88bf1f4e1bf9521bc47c3c0 -->
<g id="edge18" class="edge">
<title>dir_35ffb1505af3943bdf99903da87524fe&#45;&gt;dir_e4cd57caa88bf1f4e1bf9521bc47c3c0</title>
<path fill="none" stroke="black" d="M178.97,-447.85C179.37,-429.35 178.12,-399.41 168,-376 163.57,-365.76 156.47,-356 149.21,-347.71"/>
<polygon fill="black" stroke="black" points="151.65,-345.19 142.28,-340.25 146.52,-349.96 151.65,-345.19"/>
<g id="a_edge18&#45;headlabel"><a xlink:href="dir_000030_000012.html" target="_top" xlink:title="1">
<text text-anchor="middle" x="156.18" y="-343.4" font-family="Helvetica,sans-Serif" font-size="10.00">1</text>
</a>
</g>
</g>
<!-- dir_3d3615e9a999cab4f3407307569d6ced&#45;&gt;dir_e4cd57caa88bf1f4e1bf9521bc47c3c0 -->
<g id="edge46" class="edge">
<title>dir_3d3615e9a999cab4f3407307569d6ced&#45;&gt;dir_e4cd57caa88bf1f4e1bf9521bc47c3c0</title>
<path fill="none" stroke="black" d="M123.86,-375.7C122.07,-367.98 120.65,-358.71 119.89,-350.11"/>
<polygon fill="black" stroke="black" points="123.38,-349.88 119.3,-340.1 116.4,-350.29 123.38,-349.88"/>
<g id="a_edge46&#45;headlabel"><a xlink:href="dir_000022_000012.html" target="_top" xlink:title="1">
<text text-anchor="middle" x="126.43" y="-350.8" font-family="Helvetica,sans-Serif" font-size="10.00">1</text>
</a>
</g>
</g>
<!-- dir_ebb19deee3cd40f4ac122fef25c04ca8 -->
<g id="node6" class="node">
<title>dir_ebb19deee3cd40f4ac122fef25c04ca8</title>
<g id="a_node6"><a xlink:href="dir_ebb19deee3cd40f4ac122fef25c04ca8.html" target="_top" xlink:title="boundary_conditions">
<polygon fill="white" stroke="red" points="288,-196 170,-196 170,-160 288,-160 288,-196"/>
<text text-anchor="middle" x="229" y="-175.5" font-family="Helvetica,sans-Serif" font-size="10.00">boundary_conditions</text>
</a>
</g>
</g>
<!-- dir_3d3615e9a999cab4f3407307569d6ced&#45;&gt;dir_ebb19deee3cd40f4ac122fef25c04ca8 -->
<g id="edge45" class="edge">
<title>dir_3d3615e9a999cab4f3407307569d6ced&#45;&gt;dir_ebb19deee3cd40f4ac122fef25c04ca8</title>
<path fill="none" stroke="black" d="M104.92,-381.92C89.18,-372.73 71.23,-358.24 63,-340 54.96,-322.17 55.31,-313.98 63,-296 82.37,-250.72 130.1,-219.21 169.52,-200.4"/>
<polygon fill="black" stroke="black" points="171.2,-203.48 178.82,-196.12 168.27,-197.12 171.2,-203.48"/>
<g id="a_edge45&#45;headlabel"><a xlink:href="dir_000022_000014.html" target="_top" xlink:title="1">
<text text-anchor="middle" x="169.12" y="-205.06" font-family="Helvetica,sans-Serif" font-size="10.00">1</text>
</a>
</g>
</g>
<!-- dir_9ff815a534beac751fa88e427dbab695 -->
<g id="node3" class="node">
<title>dir_9ff815a534beac751fa88e427dbab695</title>
<g id="a_node3"><a xlink:href="dir_9ff815a534beac751fa88e427dbab695.html" target="_top" xlink:title="turbulence">
<polygon fill="white" stroke="red" points="622,-196 554,-196 554,-160 622,-160 622,-196"/>
<text text-anchor="middle" x="588" y="-175.5" font-family="Helvetica,sans-Serif" font-size="10.00">turbulence</text>
</a>
</g>
</g>
<!-- dir_9ff815a534beac751fa88e427dbab695&#45;&gt;dir_3d3615e9a999cab4f3407307569d6ced -->
<g id="edge1" class="edge">
<title>dir_9ff815a534beac751fa88e427dbab695&#45;&gt;dir_3d3615e9a999cab4f3407307569d6ced</title>
<path fill="none" stroke="black" d="M553.93,-179.14C484.59,-180.37 322.9,-188.16 196,-232 169.45,-241.17 100.96,-271.62 87,-296 77.28,-312.97 80.26,-321.64 87,-340 90.78,-350.3 97.56,-359.98 104.72,-368.16"/>
<polygon fill="black" stroke="black" points="102.23,-370.62 111.62,-375.53 107.34,-365.84 102.23,-370.62"/>
<g id="a_edge1&#45;headlabel"><a xlink:href="dir_000010_000022.html" target="_top" xlink:title="7">
<text text-anchor="middle" x="97.7" y="-367.44" font-family="Helvetica,sans-Serif" font-size="10.00">7</text>
</a>
</g>
</g>
<!-- dir_9ff815a534beac751fa88e427dbab695&#45;&gt;dir_e4cd57caa88bf1f4e1bf9521bc47c3c0 -->
<g id="edge4" class="edge">
<title>dir_9ff815a534beac751fa88e427dbab695&#45;&gt;dir_e4cd57caa88bf1f4e1bf9521bc47c3c0</title>
<path fill="none" stroke="black" d="M553.67,-179.96C492.49,-182.65 361.43,-192.92 259,-232 237.4,-240.24 187.73,-274.4 154.78,-297.91"/>
<polygon fill="black" stroke="black" points="152.46,-295.27 146.38,-303.94 156.54,-300.95 152.46,-295.27"/>
<g id="a_edge4&#45;headlabel"><a xlink:href="dir_000010_000012.html" target="_top" xlink:title="1">
<text text-anchor="middle" x="153.73" y="-288.36" font-family="Helvetica,sans-Serif" font-size="10.00">1</text>
</a>
</g>
</g>
<!-- dir_9f8434f21d2c2598f33c85a8b98c6d56 -->
<g id="node13" class="node">
<title>dir_9f8434f21d2c2598f33c85a8b98c6d56</title>
<g id="a_node13"><a xlink:href="dir_9f8434f21d2c2598f33c85a8b98c6d56.html" target="_top" xlink:title="sdr">
<polygon fill="white" stroke="red" points="698,-412 644,-412 644,-376 698,-376 698,-412"/>
<text text-anchor="middle" x="671" y="-391.5" font-family="Helvetica,sans-Serif" font-size="10.00">sdr</text>
</a>
</g>
</g>
<!-- dir_9ff815a534beac751fa88e427dbab695&#45;&gt;dir_9f8434f21d2c2598f33c85a8b98c6d56 -->
<g id="edge2" class="edge">
<title>dir_9ff815a534beac751fa88e427dbab695&#45;&gt;dir_9f8434f21d2c2598f33c85a8b98c6d56</title>
<path fill="none" stroke="black" d="M587.41,-196.11C587.07,-226.81 589.68,-292.48 615,-340 620.85,-350.98 629.84,-360.98 638.91,-369.26"/>
<polygon fill="black" stroke="black" points="636.63,-371.91 646.49,-375.79 641.2,-366.61 636.63,-371.91"/>
<g id="a_edge2&#45;headlabel"><a xlink:href="dir_000010_000047.html" target="_top" xlink:title="3">
<text text-anchor="middle" x="632.05" y="-369.21" font-family="Helvetica,sans-Serif" font-size="10.00">3</text>
</a>
</g>
</g>
<!-- dir_be932497d8c26b6aa8596ee64638838f -->
<g id="node15" class="node">
<title>dir_be932497d8c26b6aa8596ee64638838f</title>
<g id="a_node15"><a xlink:href="dir_be932497d8c26b6aa8596ee64638838f.html" target="_top" xlink:title="tke">
<polygon fill="white" stroke="red" points="770,-412 716,-412 716,-376 770,-376 770,-412"/>
<text text-anchor="middle" x="743" y="-391.5" font-family="Helvetica,sans-Serif" font-size="10.00">tke</text>
</a>
</g>
</g>
<!-- dir_9ff815a534beac751fa88e427dbab695&#45;&gt;dir_be932497d8c26b6aa8596ee64638838f -->
<g id="edge3" class="edge">
<title>dir_9ff815a534beac751fa88e427dbab695&#45;&gt;dir_be932497d8c26b6aa8596ee64638838f</title>
<path fill="none" stroke="black" d="M600.48,-196.23C627.74,-233.87 692.72,-323.59 724.65,-367.67"/>
<polygon fill="black" stroke="black" points="721.88,-369.8 730.58,-375.85 727.55,-365.7 721.88,-369.8"/>
<g id="a_edge3&#45;headlabel"><a xlink:href="dir_000010_000037.html" target="_top" xlink:title="4">
<text text-anchor="middle" x="717.47" y="-366.06" font-family="Helvetica,sans-Serif" font-size="10.00">4</text>
</a>
</g>
</g>
<!-- dir_a816a247b59c90f95e41afe29b966a18 -->
<g id="node4" class="node">
<title>dir_a816a247b59c90f95e41afe29b966a18</title>
<g id="a_node4"><a xlink:href="dir_a816a247b59c90f95e41afe29b966a18.html" target="_top" xlink:title="diffusion">
<polygon fill="none" stroke="black" points="307.5,-52 248.5,-52 248.5,-16 307.5,-16 307.5,-52"/>
<text text-anchor="middle" x="278" y="-31.5" font-family="Helvetica,sans-Serif" font-size="10.00">diffusion</text>
</a>
</g>
</g>
<!-- dir_a816a247b59c90f95e41afe29b966a18&#45;&gt;dir_3d3615e9a999cab4f3407307569d6ced -->
<g id="edge41" class="edge">
<title>dir_a816a247b59c90f95e41afe29b966a18&#45;&gt;dir_3d3615e9a999cab4f3407307569d6ced</title>
<path fill="none" stroke="black" d="M248.31,-37.35C179.91,-44.56 17,-72.67 17,-177 17,-251 17,-251 17,-251 17,-293.03 22.77,-307.15 49,-340 61.31,-355.41 79.38,-367.7 95.52,-376.54"/>
<polygon fill="black" stroke="black" points="94.25,-379.83 104.74,-381.35 97.49,-373.62 94.25,-379.83"/>
<g id="a_edge41&#45;headlabel"><a xlink:href="dir_000026_000022.html" target="_top" xlink:title="1">
<text text-anchor="middle" x="89.75" y="-378.19" font-family="Helvetica,sans-Serif" font-size="10.00">1</text>
</a>
</g>
</g>
<!-- dir_e4cd57caa88bf1f4e1bf9521bc47c3c0&#45;&gt;dir_3d3615e9a999cab4f3407307569d6ced -->
<g id="edge30" class="edge">
<title>dir_e4cd57caa88bf1f4e1bf9521bc47c3c0&#45;&gt;dir_3d3615e9a999cab4f3407307569d6ced</title>
<path fill="none" stroke="black" d="M131.09,-340.1C132.89,-347.79 134.32,-357.05 135.09,-365.67"/>
<polygon fill="black" stroke="black" points="131.6,-365.92 135.69,-375.7 138.59,-365.51 131.6,-365.92"/>
<g id="a_edge30&#45;headlabel"><a xlink:href="dir_000012_000022.html" target="_top" xlink:title="23">
<text text-anchor="middle" x="128.55" y="-360.01" font-family="Helvetica,sans-Serif" font-size="10.00">23</text>
</a>
</g>
</g>
<!-- dir_f2c65bfcbdc19ebacbfc0bbbfb0d01b6 -->
<g id="node7" class="node">
<title>dir_f2c65bfcbdc19ebacbfc0bbbfb0d01b6</title>
<g id="a_node7"><a xlink:href="dir_f2c65bfcbdc19ebacbfc0bbbfb0d01b6.html" target="_top" xlink:title="physics">
<polygon fill="white" stroke="red" points="322,-268 268,-268 268,-232 322,-232 322,-268"/>
<text text-anchor="middle" x="295" y="-247.5" font-family="Helvetica,sans-Serif" font-size="10.00">physics</text>
</a>
</g>
</g>
<!-- dir_e4cd57caa88bf1f4e1bf9521bc47c3c0&#45;&gt;dir_f2c65bfcbdc19ebacbfc0bbbfb0d01b6 -->
<g id="edge32" class="edge">
<title>dir_e4cd57caa88bf1f4e1bf9521bc47c3c0&#45;&gt;dir_f2c65bfcbdc19ebacbfc0bbbfb0d01b6</title>
<path fill="none" stroke="black" d="M150.04,-306.3C158.07,-302.91 166.84,-299.33 175,-296 202.76,-284.69 234.45,-271.85 258.45,-262.79"/>
<polygon fill="black" stroke="black" points="259.75,-266.04 267.9,-259.27 257.31,-259.48 259.75,-266.04"/>
<g id="a_edge32&#45;headlabel"><a xlink:href="dir_000012_000017.html" target="_top" xlink:title="1">
<text text-anchor="middle" x="257.37" y="-267.45" font-family="Helvetica,sans-Serif" font-size="10.00">1</text>
</a>
</g>
</g>
<!-- dir_bfcf7e25e8a41bb3b30f8e11e2280479 -->
<g id="node16" class="node">
<title>dir_bfcf7e25e8a41bb3b30f8e11e2280479</title>
<g id="a_node16"><a xlink:href="dir_bfcf7e25e8a41bb3b30f8e11e2280479.html" target="_top" xlink:title="vof">
<polygon fill="white" stroke="black" points="302,-340 248,-340 248,-304 302,-304 302,-340"/>
<text text-anchor="middle" x="275" y="-319.5" font-family="Helvetica,sans-Serif" font-size="10.00">vof</text>
</a>
</g>
</g>
<!-- dir_e4cd57caa88bf1f4e1bf9521bc47c3c0&#45;&gt;dir_bfcf7e25e8a41bb3b30f8e11e2280479 -->
<g id="edge31" class="edge">
<title>dir_e4cd57caa88bf1f4e1bf9521bc47c3c0&#45;&gt;dir_bfcf7e25e8a41bb3b30f8e11e2280479</title>
<path fill="none" stroke="black" d="M150.02,-322C179.13,-322 208.25,-322 237.36,-322"/>
<polygon fill="black" stroke="black" points="237.66,-325.5 247.66,-322 237.66,-318.5 237.66,-325.5"/>
<g id="a_edge31&#45;headlabel"><a xlink:href="dir_000012_000031.html" target="_top" xlink:title="1">
<text text-anchor="middle" x="234.07" y="-325.84" font-family="Helvetica,sans-Serif" font-size="10.00">1</text>
</a>
</g>
</g>
<!-- dir_ebb19deee3cd40f4ac122fef25c04ca8&#45;&gt;dir_3d3615e9a999cab4f3407307569d6ced -->
<g id="edge25" class="edge">
<title>dir_ebb19deee3cd40f4ac122fef25c04ca8&#45;&gt;dir_3d3615e9a999cab4f3407307569d6ced</title>
<path fill="none" stroke="black" d="M192.71,-196.12C155.94,-214.25 101.92,-247.09 81,-296 73.31,-313.98 72.96,-322.17 81,-340 86.13,-351.37 95.03,-361.28 104.04,-369.35"/>
<polygon fill="black" stroke="black" points="102,-372.21 111.9,-375.97 106.51,-366.85 102,-372.21"/>
<g id="a_edge25&#45;headlabel"><a xlink:href="dir_000014_000022.html" target="_top" xlink:title="9">
<text text-anchor="middle" x="97.42" y="-369.56" font-family="Helvetica,sans-Serif" font-size="10.00">9</text>
</a>
</g>
</g>
<!-- dir_ebb19deee3cd40f4ac122fef25c04ca8&#45;&gt;dir_a816a247b59c90f95e41afe29b966a18 -->
<g id="edge29" class="edge">
<title>dir_ebb19deee3cd40f4ac122fef25c04ca8&#45;&gt;dir_a816a247b59c90f95e41afe29b966a18</title>
<path fill="none" stroke="black" d="M234.65,-159.91C240.61,-141.96 250.32,-112.95 259,-88 261.97,-79.47 265.27,-70.19 268.28,-61.81"/>
<polygon fill="black" stroke="black" points="271.66,-62.75 271.76,-52.16 265.07,-60.38 271.66,-62.75"/>
<g id="a_edge29&#45;headlabel"><a xlink:href="dir_000014_000026.html" target="_top" xlink:title="1">
<text text-anchor="middle" x="273.11" y="-64.6" font-family="Helvetica,sans-Serif" font-size="10.00">1</text>
</a>
</g>
</g>
<!-- dir_ebb19deee3cd40f4ac122fef25c04ca8&#45;&gt;dir_e4cd57caa88bf1f4e1bf9521bc47c3c0 -->
<g id="edge28" class="edge">
<title>dir_ebb19deee3cd40f4ac122fef25c04ca8&#45;&gt;dir_e4cd57caa88bf1f4e1bf9521bc47c3c0</title>
<path fill="none" stroke="black" d="M202.84,-196.05C189.9,-205.47 174.79,-218.07 164,-232 149.49,-250.72 138.64,-275.4 131.76,-294.02"/>
<polygon fill="black" stroke="black" points="128.38,-293.07 128.34,-303.67 134.98,-295.41 128.38,-293.07"/>
<g id="a_edge28&#45;headlabel"><a xlink:href="dir_000014_000012.html" target="_top" xlink:title="3">
<text text-anchor="middle" x="126.9" y="-286.24" font-family="Helvetica,sans-Serif" font-size="10.00">3</text>
</a>
</g>
</g>
<!-- dir_ebb19deee3cd40f4ac122fef25c04ca8&#45;&gt;dir_f2c65bfcbdc19ebacbfc0bbbfb0d01b6 -->
<g id="edge26" class="edge">
<title>dir_ebb19deee3cd40f4ac122fef25c04ca8&#45;&gt;dir_f2c65bfcbdc19ebacbfc0bbbfb0d01b6</title>
<path fill="none" stroke="black" d="M251.02,-196.1C259.78,-204.47 269.63,-214.69 277.86,-223.92"/>
<polygon fill="black" stroke="black" points="275.4,-226.44 284.6,-231.7 280.69,-221.85 275.4,-226.44"/>
<g id="a_edge26&#45;headlabel"><a xlink:href="dir_000014_000017.html" target="_top" xlink:title="3">
<text text-anchor="middle" x="270.9" y="-223.08" font-family="Helvetica,sans-Serif" font-size="10.00">3</text>
</a>
</g>
</g>
<!-- dir_0c368f76a33d967d5b838b5681461de6 -->
<g id="node8" class="node">
<title>dir_0c368f76a33d967d5b838b5681461de6</title>
<g id="a_node8"><a xlink:href="dir_0c368f76a33d967d5b838b5681461de6.html" target="_top" xlink:title="wind_energy">
<polygon fill="white" stroke="red" points="346.5,-124 267.5,-124 267.5,-88 346.5,-88 346.5,-124"/>
<text text-anchor="middle" x="307" y="-103.5" font-family="Helvetica,sans-Serif" font-size="10.00">wind_energy</text>
</a>
</g>
</g>
<!-- dir_ebb19deee3cd40f4ac122fef25c04ca8&#45;&gt;dir_0c368f76a33d967d5b838b5681461de6 -->
<g id="edge27" class="edge">
<title>dir_ebb19deee3cd40f4ac122fef25c04ca8&#45;&gt;dir_0c368f76a33d967d5b838b5681461de6</title>
<path fill="none" stroke="black" d="M248.28,-159.7C257.92,-151.05 269.73,-140.45 280.23,-131.03"/>
<polygon fill="black" stroke="black" points="282.84,-133.39 287.94,-124.1 278.16,-128.18 282.84,-133.39"/>
<g id="a_edge27&#45;headlabel"><a xlink:href="dir_000014_000001.html" target="_top" xlink:title="1">
<text text-anchor="middle" x="282.06" y="-135.4" font-family="Helvetica,sans-Serif" font-size="10.00">1</text>
</a>
</g>
</g>
<!-- dir_f2c65bfcbdc19ebacbfc0bbbfb0d01b6&#45;&gt;dir_3d3615e9a999cab4f3407307569d6ced -->
<g id="edge9" class="edge">
<title>dir_f2c65bfcbdc19ebacbfc0bbbfb0d01b6&#45;&gt;dir_3d3615e9a999cab4f3407307569d6ced</title>
<path fill="none" stroke="black" d="M267.74,-258.37C245.93,-265.32 215.53,-277.47 194,-296 181.84,-306.46 160.56,-341.93 146.37,-366.94"/>
<polygon fill="black" stroke="black" points="143.16,-365.51 141.32,-375.94 149.27,-368.94 143.16,-365.51"/>
<g id="a_edge9&#45;headlabel"><a xlink:href="dir_000017_000022.html" target="_top" xlink:title="67">
<text text-anchor="middle" x="142.45" y="-358.48" font-family="Helvetica,sans-Serif" font-size="10.00">67</text>
</a>
</g>
</g>
<!-- dir_f2c65bfcbdc19ebacbfc0bbbfb0d01b6&#45;&gt;dir_9ff815a534beac751fa88e427dbab695 -->
<g id="edge11" class="edge">
<title>dir_f2c65bfcbdc19ebacbfc0bbbfb0d01b6&#45;&gt;dir_9ff815a534beac751fa88e427dbab695</title>
<path fill="none" stroke="black" d="M322.04,-242.54C372.77,-230.42 482.62,-204.18 544.09,-189.49"/>
<polygon fill="black" stroke="black" points="544.97,-192.88 553.89,-187.15 543.35,-186.07 544.97,-192.88"/>
<g id="a_edge11&#45;headlabel"><a xlink:href="dir_000017_000010.html" target="_top" xlink:title="2">
<text text-anchor="middle" x="542.14" y="-193.97" font-family="Helvetica,sans-Serif" font-size="10.00">2</text>
</a>
</g>
</g>
<!-- dir_f2c65bfcbdc19ebacbfc0bbbfb0d01b6&#45;&gt;dir_e4cd57caa88bf1f4e1bf9521bc47c3c0 -->
<g id="edge13" class="edge">
<title>dir_f2c65bfcbdc19ebacbfc0bbbfb0d01b6&#45;&gt;dir_e4cd57caa88bf1f4e1bf9521bc47c3c0</title>
<path fill="none" stroke="black" d="M267.76,-265.15C247.14,-274 218.42,-285.64 193,-296 182.37,-300.33 170.71,-305.11 159.91,-309.31"/>
<polygon fill="black" stroke="black" points="158.38,-306.15 150.29,-312.99 160.88,-312.69 158.38,-306.15"/>
<g id="a_edge13&#45;headlabel"><a xlink:href="dir_000017_000012.html" target="_top" xlink:title="14">
<text text-anchor="middle" x="160.73" y="-299.71" font-family="Helvetica,sans-Serif" font-size="10.00">14</text>
</a>
</g>
</g>
<!-- dir_f2c65bfcbdc19ebacbfc0bbbfb0d01b6&#45;&gt;dir_ebb19deee3cd40f4ac122fef25c04ca8 -->
<g id="edge14" class="edge">
<title>dir_f2c65bfcbdc19ebacbfc0bbbfb0d01b6&#45;&gt;dir_ebb19deee3cd40f4ac122fef25c04ca8</title>
<path fill="none" stroke="black" d="M272.77,-231.7C263.99,-223.3 254.15,-213.07 245.95,-203.86"/>
<polygon fill="black" stroke="black" points="248.42,-201.37 239.23,-196.1 243.13,-205.96 248.42,-201.37"/>
<g id="a_edge14&#45;headlabel"><a xlink:href="dir_000017_000014.html" target="_top" xlink:title="1">
<text text-anchor="middle" x="252.92" y="-199.73" font-family="Helvetica,sans-Serif" font-size="10.00">1</text>
</a>
</g>
</g>
<!-- dir_f2c65bfcbdc19ebacbfc0bbbfb0d01b6&#45;&gt;dir_0c368f76a33d967d5b838b5681461de6 -->
<g id="edge8" class="edge">
<title>dir_f2c65bfcbdc19ebacbfc0bbbfb0d01b6&#45;&gt;dir_0c368f76a33d967d5b838b5681461de6</title>
<path fill="none" stroke="black" d="M296.45,-231.87C298.49,-207.67 302.25,-163.21 304.69,-134.39"/>
<polygon fill="black" stroke="black" points="308.19,-134.45 305.55,-124.19 301.22,-133.86 308.19,-134.45"/>
<g id="a_edge8&#45;headlabel"><a xlink:href="dir_000017_000001.html" target="_top" xlink:title="1">
<text text-anchor="middle" x="310.72" y="-135.77" font-family="Helvetica,sans-Serif" font-size="10.00">1</text>
</a>
</g>
</g>
<!-- dir_4012ff34c1bb5bd303e44a1c9cef6c8a -->
<g id="node11" class="node">
<title>dir_4012ff34c1bb5bd303e44a1c9cef6c8a</title>
<g id="a_node11"><a xlink:href="dir_4012ff34c1bb5bd303e44a1c9cef6c8a.html" target="_top" xlink:title="icns">
<polygon fill="white" stroke="red" points="428,-412 374,-412 374,-376 428,-376 428,-412"/>
<text text-anchor="middle" x="401" y="-391.5" font-family="Helvetica,sans-Serif" font-size="10.00">icns</text>
</a>
</g>
</g>
<!-- dir_f2c65bfcbdc19ebacbfc0bbbfb0d01b6&#45;&gt;dir_4012ff34c1bb5bd303e44a1c9cef6c8a -->
<g id="edge10" class="edge">
<title>dir_f2c65bfcbdc19ebacbfc0bbbfb0d01b6&#45;&gt;dir_4012ff34c1bb5bd303e44a1c9cef6c8a</title>
<path fill="none" stroke="black" d="M306.8,-268.08C312.59,-276.48 319.67,-286.77 326,-296 339.38,-315.52 341.65,-321.17 356,-340 363.17,-349.41 371.45,-359.38 378.93,-368.11"/>
<polygon fill="black" stroke="black" points="376.33,-370.45 385.52,-375.72 381.62,-365.87 376.33,-370.45"/>
<g id="a_edge10&#45;headlabel"><a xlink:href="dir_000017_000003.html" target="_top" xlink:title="3">
<text text-anchor="middle" x="371.83" y="-367.09" font-family="Helvetica,sans-Serif" font-size="10.00">3</text>
</a>
</g>
</g>
<!-- dir_f2c65bfcbdc19ebacbfc0bbbfb0d01b6&#45;&gt;dir_bfcf7e25e8a41bb3b30f8e11e2280479 -->
<g id="edge12" class="edge">
<title>dir_f2c65bfcbdc19ebacbfc0bbbfb0d01b6&#45;&gt;dir_bfcf7e25e8a41bb3b30f8e11e2280479</title>
<path fill="none" stroke="black" d="M296.01,-268.1C294.59,-275.96 292.1,-285.46 289.23,-294.23"/>
<polygon fill="black" stroke="black" points="285.92,-293.1 285.86,-303.7 292.51,-295.45 285.92,-293.1"/>
<g id="a_edge12&#45;headlabel"><a xlink:href="dir_000017_000031.html" target="_top" xlink:title="1">
<text text-anchor="middle" x="284.45" y="-286.26" font-family="Helvetica,sans-Serif" font-size="10.00">1</text>
</a>
</g>
</g>
<!-- dir_0c368f76a33d967d5b838b5681461de6&#45;&gt;dir_3d3615e9a999cab4f3407307569d6ced -->
<g id="edge19" class="edge">
<title>dir_0c368f76a33d967d5b838b5681461de6&#45;&gt;dir_3d3615e9a999cab4f3407307569d6ced</title>
<path fill="none" stroke="black" d="M267.2,-111.52C229.77,-117.43 173.7,-130.74 134,-160 102.84,-182.97 102.57,-197.51 85,-232 62.72,-275.73 40.15,-296.05 62,-340 69.35,-354.78 83,-366.54 96.32,-375.19"/>
<polygon fill="black" stroke="black" points="94.58,-378.23 104.94,-380.42 98.21,-372.24 94.58,-378.23"/>
<g id="a_edge19&#45;headlabel"><a xlink:href="dir_000001_000022.html" target="_top" xlink:title="33">
<text text-anchor="middle" x="90.03" y="-376.29" font-family="Helvetica,sans-Serif" font-size="10.00">33</text>
</a>
</g>
</g>
<!-- dir_0c368f76a33d967d5b838b5681461de6&#45;&gt;dir_a816a247b59c90f95e41afe29b966a18 -->
<g id="edge22" class="edge">
<title>dir_0c368f76a33d967d5b838b5681461de6&#45;&gt;dir_a816a247b59c90f95e41afe29b966a18</title>
<path fill="none" stroke="black" d="M299.83,-87.7C296.57,-79.81 292.63,-70.3 289,-61.55"/>
<polygon fill="black" stroke="black" points="292.15,-60 285.09,-52.1 285.68,-62.68 292.15,-60"/>
<g id="a_edge22&#45;headlabel"><a xlink:href="dir_000001_000026.html" target="_top" xlink:title="1">
<text text-anchor="middle" x="296.15" y="-59.74" font-family="Helvetica,sans-Serif" font-size="10.00">1</text>
</a>
</g>
</g>
<!-- dir_0c368f76a33d967d5b838b5681461de6&#45;&gt;dir_e4cd57caa88bf1f4e1bf9521bc47c3c0 -->
<g id="edge24" class="edge">
<title>dir_0c368f76a33d967d5b838b5681461de6&#45;&gt;dir_e4cd57caa88bf1f4e1bf9521bc47c3c0</title>
<path fill="none" stroke="black" d="M267.29,-111.59C234.49,-117.43 188.95,-130.57 161,-160 126.41,-196.43 121.35,-258.23 121.61,-293.73"/>
<polygon fill="black" stroke="black" points="118.11,-293.93 121.84,-303.85 125.11,-293.77 118.11,-293.93"/>
<g id="a_edge24&#45;headlabel"><a xlink:href="dir_000001_000012.html" target="_top" xlink:title="43">
<text text-anchor="middle" x="115.2" y="-287.9" font-family="Helvetica,sans-Serif" font-size="10.00">43</text>
</a>
</g>
</g>
<!-- dir_4bb30ed846ea1df1fc4d16874a455d91 -->
<g id="node9" class="node">
<title>dir_4bb30ed846ea1df1fc4d16874a455d91</title>
<text text-anchor="middle" x="573" y="-391.5" font-family="Helvetica,sans-Serif" font-size="10.00">equation_systems</text>
</g>
<!-- dir_0c368f76a33d967d5b838b5681461de6&#45;&gt;dir_4bb30ed846ea1df1fc4d16874a455d91 -->
<g id="edge21" class="edge">
<title>dir_0c368f76a33d967d5b838b5681461de6&#45;&gt;dir_4bb30ed846ea1df1fc4d16874a455d91</title>
<path fill="none" stroke="black" d="M345.74,-124.14C363.09,-133.1 382.98,-145.29 398,-160 464.99,-225.59 446.34,-269.37 508,-340 517.39,-350.75 529.11,-361.04 540.01,-369.64"/>
<polygon fill="black" stroke="black" points="538.07,-372.56 548.13,-375.87 542.33,-367.01 538.07,-372.56"/>
<g id="a_edge21&#45;headlabel"><a xlink:href="dir_000001_000002.html" target="_top" xlink:title="7">
<text text-anchor="middle" x="533.49" y="-370.13" font-family="Helvetica,sans-Serif" font-size="10.00">7</text>
</a>
</g>
</g>
<!-- dir_0c368f76a33d967d5b838b5681461de6&#45;&gt;dir_4012ff34c1bb5bd303e44a1c9cef6c8a -->
<g id="edge20" class="edge">
<title>dir_0c368f76a33d967d5b838b5681461de6&#45;&gt;dir_4012ff34c1bb5bd303e44a1c9cef6c8a</title>
<path fill="none" stroke="black" d="M346.76,-124.16C361.65,-132.69 377.1,-144.54 386,-160 423.8,-225.71 414.38,-319.75 406.56,-365.67"/>
<polygon fill="black" stroke="black" points="403.07,-365.28 404.73,-375.75 409.96,-366.53 403.07,-365.28"/>
<g id="a_edge20&#45;headlabel"><a xlink:href="dir_000001_000003.html" target="_top" xlink:title="4">
<text text-anchor="middle" x="400.92" y="-358.74" font-family="Helvetica,sans-Serif" font-size="10.00">4</text>
</a>
</g>
</g>
<!-- dir_0c368f76a33d967d5b838b5681461de6&#45;&gt;dir_be932497d8c26b6aa8596ee64638838f -->
<g id="edge23" class="edge">
<title>dir_0c368f76a33d967d5b838b5681461de6&#45;&gt;dir_be932497d8c26b6aa8596ee64638838f</title>
<path fill="none" stroke="black" d="M346.5,-109.28C422.46,-114.33 585.42,-128.59 631,-160 701.93,-208.87 729.46,-315.42 738.79,-365.7"/>
<polygon fill="black" stroke="black" points="735.39,-366.56 740.56,-375.81 742.29,-365.36 735.39,-366.56"/>
<g id="a_edge23&#45;headlabel"><a xlink:href="dir_000001_000037.html" target="_top" xlink:title="1">
<text text-anchor="middle" x="731.97" y="-361.01" font-family="Helvetica,sans-Serif" font-size="10.00">1</text>
</a>
</g>
</g>
<!-- dir_4bb30ed846ea1df1fc4d16874a455d91&#45;&gt;dir_35ffb1505af3943bdf99903da87524fe -->
<g id="edge47" class="edge">
<title>dir_4bb30ed846ea1df1fc4d16874a455d91&#45;&gt;dir_35ffb1505af3943bdf99903da87524fe</title>
<path fill="none" stroke="black" d="M534.81,-412.12C527.05,-415.11 518.85,-417.92 511,-420 410.3,-446.66 288.07,-458.02 223.34,-462.46"/>
<polygon fill="black" stroke="black" points="222.82,-458.98 213.07,-463.13 223.28,-465.97 222.82,-458.98"/>
<g id="a_edge47&#45;headlabel"><a xlink:href="dir_000002_000030.html" target="_top" xlink:title="2">
<text text-anchor="middle" x="226.22" y="-453.41" font-family="Helvetica,sans-Serif" font-size="10.00">2</text>
</a>
</g>
</g>
<!-- dir_4bb30ed846ea1df1fc4d16874a455d91&#45;&gt;dir_9ff815a534beac751fa88e427dbab695 -->
<g id="edge48" class="edge">
<title>dir_4bb30ed846ea1df1fc4d16874a455d91&#45;&gt;dir_9ff815a534beac751fa88e427dbab695</title>
<path fill="none" stroke="black" d="M574.2,-375.85C576.8,-338.83 582.94,-251.18 586.08,-206.39"/>
<polygon fill="black" stroke="black" points="589.58,-206.45 586.79,-196.23 582.6,-205.96 589.58,-206.45"/>
<g id="a_edge48&#45;headlabel"><a xlink:href="dir_000002_000010.html" target="_top" xlink:title="4">
<text text-anchor="middle" x="592.17" y="-207.74" font-family="Helvetica,sans-Serif" font-size="10.00">4</text>
</a>
</g>
</g>
<!-- dir_4bb30ed846ea1df1fc4d16874a455d91&#45;&gt;dir_a816a247b59c90f95e41afe29b966a18 -->
<g id="edge49" class="edge">
<title>dir_4bb30ed846ea1df1fc4d16874a455d91&#45;&gt;dir_a816a247b59c90f95e41afe29b966a18</title>
<path fill="none" stroke="black" d="M560.28,-375.62C542.66,-349.81 513,-299.17 513,-251 513,-251 513,-251 513,-177 513,-86.96 385.05,-52.48 317.98,-40.59"/>
<polygon fill="black" stroke="black" points="318.21,-37.08 307.76,-38.88 317.04,-43.99 318.21,-37.08"/>
<g id="a_edge49&#45;headlabel"><a xlink:href="dir_000002_000026.html" target="_top" xlink:title="1">
<text text-anchor="middle" x="322.22" y="-32.38" font-family="Helvetica,sans-Serif" font-size="10.00">1</text>
</a>
</g>
</g>
<!-- dir_4bb30ed846ea1df1fc4d16874a455d91&#45;&gt;dir_e4cd57caa88bf1f4e1bf9521bc47c3c0 -->
<g id="edge50" class="edge">
<title>dir_4bb30ed846ea1df1fc4d16874a455d91&#45;&gt;dir_e4cd57caa88bf1f4e1bf9521bc47c3c0</title>
<path fill="none" stroke="black" d="M519.69,-377.82C516.76,-377.16 513.85,-376.55 511,-376 371.77,-349.17 333.65,-364.55 194,-340 182.93,-338.05 171.01,-335.42 160.16,-332.8"/>
<polygon fill="black" stroke="black" points="160.7,-329.33 150.15,-330.32 159.01,-336.12 160.7,-329.33"/>
<g id="a_edge50&#45;headlabel"><a xlink:href="dir_000002_000012.html" target="_top" xlink:title="16">
<text text-anchor="middle" x="164.87" y="-324.93" font-family="Helvetica,sans-Serif" font-size="10.00">16</text>
</a>
</g>
</g>
<!-- dir_4bb30ed846ea1df1fc4d16874a455d91&#45;&gt;dir_ebb19deee3cd40f4ac122fef25c04ca8 -->
<g id="edge51" class="edge">
<title>dir_4bb30ed846ea1df1fc4d16874a455d91&#45;&gt;dir_ebb19deee3cd40f4ac122fef25c04ca8</title>
<path fill="none" stroke="black" d="M519.68,-377.88C516.75,-377.21 513.84,-376.58 511,-376 451.24,-363.91 280.59,-384.59 239,-340 221.51,-321.25 223.93,-246.93 226.72,-206.15"/>
<polygon fill="black" stroke="black" points="230.22,-206.31 227.46,-196.08 223.23,-205.79 230.22,-206.31"/>
<g id="a_edge51&#45;headlabel"><a xlink:href="dir_000002_000014.html" target="_top" xlink:title="3">
<text text-anchor="middle" x="232.78" y="-207.6" font-family="Helvetica,sans-Serif" font-size="10.00">3</text>
</a>
</g>
</g>
<!-- dir_70329d5a297148af2b67b1d844b9f654 -->
<g id="node10" class="node">
<title>dir_70329d5a297148af2b67b1d844b9f654</title>
<g id="a_node10"><a xlink:href="dir_70329d5a297148af2b67b1d844b9f654.html" target="_top" xlink:title="density">
<polygon fill="white" stroke="black" points="260,-412 206,-412 206,-376 260,-376 260,-412"/>
<text text-anchor="middle" x="233" y="-391.5" font-family="Helvetica,sans-Serif" font-size="10.00">density</text>
</a>
</g>
</g>
<!-- dir_70329d5a297148af2b67b1d844b9f654&#45;&gt;dir_3d3615e9a999cab4f3407307569d6ced -->
<g id="edge5" class="edge">
<title>dir_70329d5a297148af2b67b1d844b9f654&#45;&gt;dir_3d3615e9a999cab4f3407307569d6ced</title>
<path fill="none" stroke="black" d="M205.91,-394C193.75,-394 181.59,-394 169.44,-394"/>
<polygon fill="black" stroke="black" points="169.22,-390.5 159.22,-394 169.22,-397.5 169.22,-390.5"/>
<g id="a_edge5&#45;headlabel"><a xlink:href="dir_000025_000022.html" target="_top" xlink:title="4">
<text text-anchor="middle" x="172.82" y="-385.16" font-family="Helvetica,sans-Serif" font-size="10.00">4</text>
</a>
</g>
</g>
<!-- dir_4012ff34c1bb5bd303e44a1c9cef6c8a&#45;&gt;dir_3d3615e9a999cab4f3407307569d6ced -->
<g id="edge33" class="edge">
<title>dir_4012ff34c1bb5bd303e44a1c9cef6c8a&#45;&gt;dir_3d3615e9a999cab4f3407307569d6ced</title>
<path fill="none" stroke="black" d="M386.32,-412.1C378.34,-420.47 367.72,-429.54 356,-434 324.22,-446.08 235.89,-442.63 203,-434 189.93,-430.57 176.74,-424.14 165.33,-417.42"/>
<polygon fill="black" stroke="black" points="166.94,-414.3 156.59,-412.02 163.26,-420.25 166.94,-414.3"/>
<g id="a_edge33&#45;headlabel"><a xlink:href="dir_000003_000022.html" target="_top" xlink:title="24">
<text text-anchor="middle" x="171.49" y="-411.27" font-family="Helvetica,sans-Serif" font-size="10.00">24</text>
</a>
</g>
</g>
<!-- dir_4012ff34c1bb5bd303e44a1c9cef6c8a&#45;&gt;dir_e4cd57caa88bf1f4e1bf9521bc47c3c0 -->
<g id="edge35" class="edge">
<title>dir_4012ff34c1bb5bd303e44a1c9cef6c8a&#45;&gt;dir_e4cd57caa88bf1f4e1bf9521bc47c3c0</title>
<path fill="none" stroke="black" d="M373.79,-379.24C370.86,-378.03 367.9,-376.93 365,-376 278.55,-348.38 251.09,-365.53 164,-340 162.57,-339.58 161.12,-339.13 159.66,-338.65"/>
<polygon fill="black" stroke="black" points="160.65,-335.28 150.05,-335.18 158.27,-341.87 160.65,-335.28"/>
<g id="a_edge35&#45;headlabel"><a xlink:href="dir_000003_000012.html" target="_top" xlink:title="14">
<text text-anchor="middle" x="164.99" y="-331.33" font-family="Helvetica,sans-Serif" font-size="10.00">14</text>
</a>
</g>
</g>
<!-- dir_4012ff34c1bb5bd303e44a1c9cef6c8a&#45;&gt;dir_ebb19deee3cd40f4ac122fef25c04ca8 -->
<g id="edge36" class="edge">
<title>dir_4012ff34c1bb5bd303e44a1c9cef6c8a&#45;&gt;dir_ebb19deee3cd40f4ac122fef25c04ca8</title>
<path fill="none" stroke="black" d="M373.71,-379.45C370.8,-378.21 367.86,-377.03 365,-376 304.15,-354.09 263.68,-391.08 224,-340 194.02,-301.41 207.3,-240.48 218.75,-205.7"/>
<polygon fill="black" stroke="black" points="222.07,-206.8 222.04,-196.21 215.46,-204.51 222.07,-206.8"/>
<g id="a_edge36&#45;headlabel"><a xlink:href="dir_000003_000014.html" target="_top" xlink:title="1">
<text text-anchor="middle" x="223.57" y="-208.63" font-family="Helvetica,sans-Serif" font-size="10.00">1</text>
</a>
</g>
</g>
<!-- dir_4012ff34c1bb5bd303e44a1c9cef6c8a&#45;&gt;dir_f2c65bfcbdc19ebacbfc0bbbfb0d01b6 -->
<g id="edge38" class="edge">
<title>dir_4012ff34c1bb5bd303e44a1c9cef6c8a&#45;&gt;dir_f2c65bfcbdc19ebacbfc0bbbfb0d01b6</title>
<path fill="none" stroke="black" d="M373.76,-379.4C357.85,-370.21 338.51,-356.73 326,-340 313.63,-323.45 317.79,-315.51 311,-296 308.94,-290.08 306.7,-283.73 304.57,-277.73"/>
<polygon fill="black" stroke="black" points="307.78,-276.32 301.13,-268.08 301.19,-278.67 307.78,-276.32"/>
<g id="a_edge38&#45;headlabel"><a xlink:href="dir_000003_000017.html" target="_top" xlink:title="1">
<text text-anchor="middle" x="311.66" y="-276.26" font-family="Helvetica,sans-Serif" font-size="10.00">1</text>
</a>
</g>
</g>
<!-- dir_4012ff34c1bb5bd303e44a1c9cef6c8a&#45;&gt;dir_0c368f76a33d967d5b838b5681461de6 -->
<g id="edge37" class="edge">
<title>dir_4012ff34c1bb5bd303e44a1c9cef6c8a&#45;&gt;dir_0c368f76a33d967d5b838b5681461de6</title>
<path fill="none" stroke="black" d="M395.4,-375.97C379.67,-328.09 334.96,-192.06 315.84,-133.9"/>
<polygon fill="black" stroke="black" points="319.14,-132.71 312.69,-124.31 312.49,-134.9 319.14,-132.71"/>
<g id="a_edge37&#45;headlabel"><a xlink:href="dir_000003_000001.html" target="_top" xlink:title="4">
<text text-anchor="middle" x="322.96" y="-132.74" font-family="Helvetica,sans-Serif" font-size="10.00">4</text>
</a>
</g>
</g>
<!-- dir_4012ff34c1bb5bd303e44a1c9cef6c8a&#45;&gt;dir_bfcf7e25e8a41bb3b30f8e11e2280479 -->
<g id="edge34" class="edge">
<title>dir_4012ff34c1bb5bd303e44a1c9cef6c8a&#45;&gt;dir_bfcf7e25e8a41bb3b30f8e11e2280479</title>
<path fill="none" stroke="black" d="M373.97,-377.98C355.66,-367.81 331.25,-354.25 311.26,-343.14"/>
<polygon fill="black" stroke="black" points="312.86,-340.03 302.42,-338.23 309.46,-346.15 312.86,-340.03"/>
<g id="a_edge34&#45;headlabel"><a xlink:href="dir_000003_000031.html" target="_top" xlink:title="1">
<text text-anchor="middle" x="317.38" y="-336.79" font-family="Helvetica,sans-Serif" font-size="10.00">1</text>
</a>
</g>
</g>
<!-- dir_ce0741f9b73f67c263a459724eeecf8b -->
<g id="node12" class="node">
<title>dir_ce0741f9b73f67c263a459724eeecf8b</title>
<g id="a_node12"><a xlink:href="dir_ce0741f9b73f67c263a459724eeecf8b.html" target="_top" xlink:title="levelset">
<polygon fill="white" stroke="black" points="502,-412 446,-412 446,-376 502,-376 502,-412"/>
<text text-anchor="middle" x="474" y="-391.5" font-family="Helvetica,sans-Serif" font-size="10.00">levelset</text>
</a>
</g>
</g>
<!-- dir_ce0741f9b73f67c263a459724eeecf8b&#45;&gt;dir_f2c65bfcbdc19ebacbfc0bbbfb0d01b6 -->
<g id="edge15" class="edge">
<title>dir_ce0741f9b73f67c263a459724eeecf8b&#45;&gt;dir_f2c65bfcbdc19ebacbfc0bbbfb0d01b6</title>
<path fill="none" stroke="black" d="M452.41,-375.87C420.56,-350.6 360.87,-303.25 324.85,-274.68"/>
<polygon fill="black" stroke="black" points="326.68,-271.66 316.67,-268.19 322.33,-277.15 326.68,-271.66"/>
<g id="a_edge15&#45;headlabel"><a xlink:href="dir_000039_000017.html" target="_top" xlink:title="1">
<text text-anchor="middle" x="331.26" y="-269.17" font-family="Helvetica,sans-Serif" font-size="10.00">1</text>
</a>
</g>
</g>
<!-- dir_9f8434f21d2c2598f33c85a8b98c6d56&#45;&gt;dir_3d3615e9a999cab4f3407307569d6ced -->
<g id="edge39" class="edge">
<title>dir_9f8434f21d2c2598f33c85a8b98c6d56&#45;&gt;dir_3d3615e9a999cab4f3407307569d6ced</title>
<path fill="none" stroke="black" d="M656.32,-412.1C648.34,-420.47 637.72,-429.54 626,-434 582.07,-450.7 248.46,-445.93 203,-434 189.93,-430.57 176.74,-424.14 165.33,-417.42"/>
<polygon fill="black" stroke="black" points="166.94,-414.3 156.59,-412.02 163.26,-420.25 166.94,-414.3"/>
<g id="a_edge39&#45;headlabel"><a xlink:href="dir_000047_000022.html" target="_top" xlink:title="6">
<text text-anchor="middle" x="171.49" y="-411.27" font-family="Helvetica,sans-Serif" font-size="10.00">6</text>
</a>
</g>
</g>
<!-- dir_9f8434f21d2c2598f33c85a8b98c6d56&#45;&gt;dir_9ff815a534beac751fa88e427dbab695 -->
<g id="edge40" class="edge">
<title>dir_9f8434f21d2c2598f33c85a8b98c6d56&#45;&gt;dir_9ff815a534beac751fa88e427dbab695</title>
<path fill="none" stroke="black" d="M664.35,-375.85C649.93,-338.68 615.71,-250.44 598.4,-205.82"/>
<polygon fill="black" stroke="black" points="601.56,-204.29 594.68,-196.23 595.04,-206.82 601.56,-204.29"/>
<g id="a_edge40&#45;headlabel"><a xlink:href="dir_000047_000010.html" target="_top" xlink:title="1">
<text text-anchor="middle" x="605.51" y="-204.11" font-family="Helvetica,sans-Serif" font-size="10.00">1</text>
</a>
</g>
</g>
<!-- dir_c96908905c9887b0bdc2167e5354d30c -->
<g id="node14" class="node">
<title>dir_c96908905c9887b0bdc2167e5354d30c</title>
<g id="a_node14"><a xlink:href="dir_c96908905c9887b0bdc2167e5354d30c.html" target="_top" xlink:title="temperature">
<polygon fill="white" stroke="black" points="355.5,-412 278.5,-412 278.5,-376 355.5,-376 355.5,-412"/>
<text text-anchor="middle" x="317" y="-391.5" font-family="Helvetica,sans-Serif" font-size="10.00">temperature</text>
</a>
</g>
</g>
<!-- dir_c96908905c9887b0bdc2167e5354d30c&#45;&gt;dir_3d3615e9a999cab4f3407307569d6ced -->
<g id="edge16" class="edge">
<title>dir_c96908905c9887b0bdc2167e5354d30c&#45;&gt;dir_3d3615e9a999cab4f3407307569d6ced</title>
<path fill="none" stroke="black" d="M297.54,-412.17C287.22,-420.57 273.83,-429.63 260,-434 226.94,-444.44 214.71,-445.47 182,-434 172.76,-430.76 163.95,-425.01 156.38,-418.86"/>
<polygon fill="black" stroke="black" points="158.52,-416.08 148.68,-412.13 153.91,-421.35 158.52,-416.08"/>
<g id="a_edge16&#45;headlabel"><a xlink:href="dir_000049_000022.html" target="_top" xlink:title="4">
<text text-anchor="middle" x="163.09" y="-413.81" font-family="Helvetica,sans-Serif" font-size="10.00">4</text>
</a>
</g>
</g>
<!-- dir_be932497d8c26b6aa8596ee64638838f&#45;&gt;dir_3d3615e9a999cab4f3407307569d6ced -->
<g id="edge6" class="edge">
<title>dir_be932497d8c26b6aa8596ee64638838f&#45;&gt;dir_3d3615e9a999cab4f3407307569d6ced</title>
<path fill="none" stroke="black" d="M728.32,-412.1C720.34,-420.47 709.72,-429.54 698,-434 646.59,-453.55 256.2,-447.95 203,-434 189.93,-430.57 176.74,-424.14 165.33,-417.42"/>
<polygon fill="black" stroke="black" points="166.94,-414.3 156.59,-412.02 163.26,-420.25 166.94,-414.3"/>
<g id="a_edge6&#45;headlabel"><a xlink:href="dir_000037_000022.html" target="_top" xlink:title="6">
<text text-anchor="middle" x="171.49" y="-411.27" font-family="Helvetica,sans-Serif" font-size="10.00">6</text>
</a>
</g>
</g>
<!-- dir_be932497d8c26b6aa8596ee64638838f&#45;&gt;dir_9ff815a534beac751fa88e427dbab695 -->
<g id="edge7" class="edge">
<title>dir_be932497d8c26b6aa8596ee64638838f&#45;&gt;dir_9ff815a534beac751fa88e427dbab695</title>
<path fill="none" stroke="black" d="M735.63,-375.98C726.78,-356.17 710.98,-322.76 694,-296 674.66,-265.52 668.29,-258.7 644,-232 635.06,-222.17 624.64,-212 615.23,-203.23"/>
<polygon fill="black" stroke="black" points="617.34,-200.42 607.61,-196.23 612.61,-205.58 617.34,-200.42"/>
<g id="a_edge7&#45;headlabel"><a xlink:href="dir_000037_000010.html" target="_top" xlink:title="2">
<text text-anchor="middle" x="621.91" y="-198.27" font-family="Helvetica,sans-Serif" font-size="10.00">2</text>
</a>
</g>
</g>
<!-- dir_bfcf7e25e8a41bb3b30f8e11e2280479&#45;&gt;dir_3d3615e9a999cab4f3407307569d6ced -->
<g id="edge42" class="edge">
<title>dir_bfcf7e25e8a41bb3b30f8e11e2280479&#45;&gt;dir_3d3615e9a999cab4f3407307569d6ced</title>
<path fill="none" stroke="black" d="M248,-337.93C246.65,-338.64 245.31,-339.33 244,-340 219.13,-352.69 190.69,-366.14 168.69,-376.31"/>
<polygon fill="black" stroke="black" points="167,-373.24 159.38,-380.6 169.93,-379.59 167,-373.24"/>
<g id="a_edge42&#45;headlabel"><a xlink:href="dir_000031_000022.html" target="_top" xlink:title="2">
<text text-anchor="middle" x="169.07" y="-366.65" font-family="Helvetica,sans-Serif" font-size="10.00">2</text>
</a>
</g>
</g>
<!-- dir_bfcf7e25e8a41bb3b30f8e11e2280479&#45;&gt;dir_ebb19deee3cd40f4ac122fef25c04ca8 -->
<g id="edge43" class="edge">
<title>dir_bfcf7e25e8a41bb3b30f8e11e2280479&#45;&gt;dir_ebb19deee3cd40f4ac122fef25c04ca8</title>
<path fill="none" stroke="black" d="M269.45,-303.87C261.58,-279.56 247.08,-234.82 237.75,-206.01"/>
<polygon fill="black" stroke="black" points="240.98,-204.62 234.57,-196.19 234.32,-206.78 240.98,-204.62"/>
<g id="a_edge43&#45;headlabel"><a xlink:href="dir_000031_000014.html" target="_top" xlink:title="1">
<text text-anchor="middle" x="244.79" y="-204.67" font-family="Helvetica,sans-Serif" font-size="10.00">1</text>
</a>
</g>
</g>
<!-- dir_bfcf7e25e8a41bb3b30f8e11e2280479&#45;&gt;dir_f2c65bfcbdc19ebacbfc0bbbfb0d01b6 -->
<g id="edge44" class="edge">
<title>dir_bfcf7e25e8a41bb3b30f8e11e2280479&#45;&gt;dir_f2c65bfcbdc19ebacbfc0bbbfb0d01b6</title>
<path fill="none" stroke="black" d="M274.03,-303.7C275.47,-295.81 277.97,-286.3 280.84,-277.55"/>
<polygon fill="black" stroke="black" points="284.15,-278.7 284.22,-268.1 277.56,-276.34 284.15,-278.7"/>
<g id="a_edge44&#45;headlabel"><a xlink:href="dir_000031_000017.html" target="_top" xlink:title="1">
<text text-anchor="middle" x="285.61" y="-280.54" font-family="Helvetica,sans-Serif" font-size="10.00">1</text>
</a>
</g>
</g>
</g>
</svg>
