<?xml version="1.0" encoding="UTF-8" standalone="no"?>
<!DOCTYPE svg PUBLIC "-//W3C//DTD SVG 1.1//EN"
 "http://www.w3.org/Graphics/SVG/1.1/DTD/svg11.dtd">
<!-- Generated by graphviz version 2.43.0 (0)
 -->
<!-- Title: disk_types.H Pages: 1 -->
<!--zoomable 364 -->
<svg id="main" version="1.1" xmlns="http://www.w3.org/2000/svg" xmlns:xlink="http://www.w3.org/1999/xlink" xml:space="preserve" onload="init(evt)">
<style type="text/css"><![CDATA[
.edge:hover path { stroke: red; }
.edge:hover polygon { stroke: red; fill: red; }
]]></style>
<script type="text/javascript"><![CDATA[
var edges = document.getElementsByTagName('g');
if (edges && edges.length) {
  for (var i=0;i<edges.length;i++) {
    if (edges[i].id.substr(0,4)=='edge') {
      edges[i].setAttribute('class','edge');
    }
  }
}
]]></script>
        <defs>
                <circle id="rim" cx="0" cy="0" r="7"/>
                <circle id="rim2" cx="0" cy="0" r="3.5"/>
                <g id="zoomPlus">
                        <use xlink:href="#rim" fill="#404040">
                                <set attributeName="fill" to="#808080" begin="zoomplus.mouseover" end="zoomplus.mouseout"/>
                        </use>
                        <path d="M-4,0h8M0,-4v8" fill="none" stroke="white" stroke-width="1.5" pointer-events="none"/>
                </g>
                <g id="zoomMin">
                        <use xlink:href="#rim" fill="#404040">
                                <set attributeName="fill" to="#808080" begin="zoomminus.mouseover" end="zoomminus.mouseout"/>
                        </use>
                        <path d="M-4,0h8" fill="none" stroke="white" stroke-width="1.5" pointer-events="none"/>
                </g>
                <g id="dirArrow">
                        <path fill="none" stroke="white" stroke-width="1.5" d="M0,-3.0v7 M-2.5,-0.5L0,-3.0L2.5,-0.5"/>
                </g>
               <g id="resetDef">
                       <use xlink:href="#rim2" fill="#404040">
                               <set attributeName="fill" to="#808080" begin="reset.mouseover" end="reset.mouseout"/>
                       </use>
               </g>
        </defs>

<script type="text/javascript">
var viewWidth = 820;
var viewHeight = 364;
var sectionId = 'dynsection-1';
</script>
<script xlink:href="svgpan.js"/>
<svg id="graph" class="graph">
<g id="viewport">
<title>disk_types.H</title>
<polygon fill="white" stroke="transparent" points="-4,4 -4,-360 815.52,-360 815.52,4 -4,4"/>
<!-- Node1 -->
<g id="node1" class="node">
<title>Node1</title>
<g id="a_node1"><a xlink:title=" ">
<polygon fill="#bfbfbf" stroke="black" points="575.5,-336.5 575.5,-355.5 655.5,-355.5 655.5,-336.5 575.5,-336.5"/>
<text text-anchor="middle" x="615.5" y="-343.5" font-family="Helvetica,sans-Serif" font-size="10.00">disk_types.H</text>
</a>
</g>
</g>
<!-- Node2 -->
<g id="node2" class="node">
<title>Node2</title>
<g id="a_node2"><a xlink:href="_act_src_disk_op_8_h.html" target="_top" xlink:title=" ">
<polygon fill="white" stroke="black" points="209,-112.5 209,-131.5 302,-131.5 302,-112.5 209,-112.5"/>
<text text-anchor="middle" x="255.5" y="-119.5" font-family="Helvetica,sans-Serif" font-size="10.00">ActSrcDiskOp.H</text>
</a>
</g>
</g>
<!-- Node1&#45;&gt;Node2 -->
<g id="edge1" class="edge">
<title>Node1&#45;&gt;Node2</title>
<path fill="none" stroke="midnightblue" d="M565.26,-335.6C490.83,-319.03 351.76,-277.55 274.5,-188 260.37,-171.62 256.74,-145.21 255.81,-131.65"/>
<polygon fill="midnightblue" stroke="midnightblue" points="564.81,-339.08 575.32,-337.77 566.29,-332.24 564.81,-339.08"/>
</g>
<!-- Node9 -->
<g id="node9" class="node">
<title>Node9</title>
<g id="a_node9"><a xlink:href="_actuator_disk_8_h.html" target="_top" xlink:title=" ">
<polygon fill="white" stroke="black" points="570.5,-280.5 570.5,-299.5 660.5,-299.5 660.5,-280.5 570.5,-280.5"/>
<text text-anchor="middle" x="615.5" y="-287.5" font-family="Helvetica,sans-Serif" font-size="10.00">ActuatorDisk.H</text>
</a>
</g>
</g>
<!-- Node1&#45;&gt;Node9 -->
<g id="edge8" class="edge">
<title>Node1&#45;&gt;Node9</title>
<path fill="none" stroke="midnightblue" d="M615.5,-325.8C615.5,-316.91 615.5,-306.78 615.5,-299.75"/>
<polygon fill="midnightblue" stroke="midnightblue" points="612,-326.08 615.5,-336.08 619,-326.08 612,-326.08"/>
</g>
<!-- Node16 -->
<g id="node16" class="node">
<title>Node16</title>
<g id="a_node16"><a xlink:href="_joukowsky_8_h.html" target="_top" xlink:title=" ">
<polygon fill="white" stroke="black" points="696,-224.5 696,-243.5 773,-243.5 773,-224.5 696,-224.5"/>
<text text-anchor="middle" x="734.5" y="-231.5" font-family="Helvetica,sans-Serif" font-size="10.00">Joukowsky.H</text>
</a>
</g>
</g>
<!-- Node1&#45;&gt;Node16 -->
<g id="edge27" class="edge">
<title>Node1&#45;&gt;Node16</title>
<path fill="none" stroke="midnightblue" d="M634.6,-329.79C645.1,-321.26 658.24,-310.29 669.5,-300 690.71,-280.63 714.23,-256.36 726.32,-243.66"/>
<polygon fill="midnightblue" stroke="midnightblue" points="632.09,-327.32 626.5,-336.32 636.49,-332.77 632.09,-327.32"/>
</g>
<!-- Node3 -->
<g id="node3" class="node">
<title>Node3</title>
<g id="a_node3"><a xlink:href="_actuator_model_8_h.html" target="_top" xlink:title=" ">
<polygon fill="white" stroke="black" points="202.5,-56.5 202.5,-75.5 300.5,-75.5 300.5,-56.5 202.5,-56.5"/>
<text text-anchor="middle" x="251.5" y="-63.5" font-family="Helvetica,sans-Serif" font-size="10.00">ActuatorModel.H</text>
</a>
</g>
</g>
<!-- Node2&#45;&gt;Node3 -->
<g id="edge2" class="edge">
<title>Node2&#45;&gt;Node3</title>
<path fill="none" stroke="midnightblue" d="M254.1,-102.1C253.44,-93.14 252.67,-82.86 252.15,-75.75"/>
<polygon fill="midnightblue" stroke="midnightblue" points="250.61,-102.37 254.84,-112.08 257.59,-101.85 250.61,-102.37"/>
</g>
<!-- Node4 -->
<g id="node4" class="node">
<title>Node4</title>
<g id="a_node4"><a xlink:href="_actuator_8cpp.html" target="_top" xlink:title=" ">
<polygon fill="white" stroke="black" points="0,-0.5 0,-19.5 77,-19.5 77,-0.5 0,-0.5"/>
<text text-anchor="middle" x="38.5" y="-7.5" font-family="Helvetica,sans-Serif" font-size="10.00">Actuator.cpp</text>
</a>
</g>
</g>
<!-- Node3&#45;&gt;Node4 -->
<g id="edge3" class="edge">
<title>Node3&#45;&gt;Node4</title>
<path fill="none" stroke="midnightblue" d="M207.95,-53.96C167.72,-43.76 108.8,-28.82 72.09,-19.52"/>
<polygon fill="midnightblue" stroke="midnightblue" points="207.2,-57.38 217.75,-56.44 208.92,-50.59 207.2,-57.38"/>
</g>
<!-- Node5 -->
<g id="node5" class="node">
<title>Node5</title>
<g id="a_node5"><a xlink:href="_actuator_disk_8cpp.html" target="_top" xlink:title=" ">
<polygon fill="white" stroke="black" points="409.5,-0.5 409.5,-19.5 509.5,-19.5 509.5,-0.5 409.5,-0.5"/>
<text text-anchor="middle" x="459.5" y="-7.5" font-family="Helvetica,sans-Serif" font-size="10.00">ActuatorDisk.cpp</text>
</a>
</g>
</g>
<!-- Node3&#45;&gt;Node5 -->
<g id="edge4" class="edge">
<title>Node3&#45;&gt;Node5</title>
<path fill="none" stroke="midnightblue" d="M294.28,-53.89C333.56,-43.7 390.93,-28.8 426.7,-19.52"/>
<polygon fill="midnightblue" stroke="midnightblue" points="293.26,-50.54 284.46,-56.44 295.02,-57.32 293.26,-50.54"/>
</g>
<!-- Node6 -->
<g id="node6" class="node">
<title>Node6</title>
<g id="a_node6"><a xlink:href="_turbine_fast_8cpp.html" target="_top" xlink:title=" ">
<polygon fill="white" stroke="black" points="95.5,-0.5 95.5,-19.5 187.5,-19.5 187.5,-0.5 95.5,-0.5"/>
<text text-anchor="middle" x="141.5" y="-7.5" font-family="Helvetica,sans-Serif" font-size="10.00">TurbineFast.cpp</text>
</a>
</g>
</g>
<!-- Node3&#45;&gt;Node6 -->
<g id="edge5" class="edge">
<title>Node3&#45;&gt;Node6</title>
<path fill="none" stroke="midnightblue" d="M224.74,-51.86C204.34,-41.85 176.83,-28.35 159.13,-19.65"/>
<polygon fill="midnightblue" stroke="midnightblue" points="223.31,-55.06 233.83,-56.32 226.39,-48.78 223.31,-55.06"/>
</g>
<!-- Node7 -->
<g id="node7" class="node">
<title>Node7</title>
<g id="a_node7"><a xlink:href="_fixed_wing_8cpp.html" target="_top" xlink:title=" ">
<polygon fill="white" stroke="black" points="206,-0.5 206,-19.5 293,-19.5 293,-0.5 206,-0.5"/>
<text text-anchor="middle" x="249.5" y="-7.5" font-family="Helvetica,sans-Serif" font-size="10.00">FixedWing.cpp</text>
</a>
</g>
</g>
<!-- Node3&#45;&gt;Node7 -->
<g id="edge6" class="edge">
<title>Node3&#45;&gt;Node7</title>
<path fill="none" stroke="midnightblue" d="M250.79,-45.8C250.46,-36.91 250.08,-26.78 249.82,-19.75"/>
<polygon fill="midnightblue" stroke="midnightblue" points="247.3,-46.22 251.17,-56.08 254.3,-45.96 247.3,-46.22"/>
</g>
<!-- Node8 -->
<g id="node8" class="node">
<title>Node8</title>
<g id="a_node8"><a xlink:href="_flat_plate_8cpp.html" target="_top" xlink:title=" ">
<polygon fill="white" stroke="black" points="311.5,-0.5 311.5,-19.5 391.5,-19.5 391.5,-0.5 311.5,-0.5"/>
<text text-anchor="middle" x="351.5" y="-7.5" font-family="Helvetica,sans-Serif" font-size="10.00">FlatPlate.cpp</text>
</a>
</g>
</g>
<!-- Node3&#45;&gt;Node8 -->
<g id="edge7" class="edge">
<title>Node3&#45;&gt;Node8</title>
<path fill="none" stroke="midnightblue" d="M276.59,-51.45C295.05,-41.48 319.6,-28.23 335.47,-19.65"/>
<polygon fill="midnightblue" stroke="midnightblue" points="274.7,-48.49 267.57,-56.32 278.03,-54.65 274.7,-48.49"/>
</g>
<!-- Node10 -->
<g id="node10" class="node">
<title>Node10</title>
<g id="a_node10"><a xlink:href="disk__ops_8_h.html" target="_top" xlink:title=" ">
<polygon fill="white" stroke="black" points="580.5,-224.5 580.5,-243.5 650.5,-243.5 650.5,-224.5 580.5,-224.5"/>
<text text-anchor="middle" x="615.5" y="-231.5" font-family="Helvetica,sans-Serif" font-size="10.00">disk_ops.H</text>
</a>
</g>
</g>
<!-- Node9&#45;&gt;Node10 -->
<g id="edge9" class="edge">
<title>Node9&#45;&gt;Node10</title>
<path fill="none" stroke="midnightblue" d="M615.5,-269.8C615.5,-260.91 615.5,-250.78 615.5,-243.75"/>
<polygon fill="midnightblue" stroke="midnightblue" points="612,-270.08 615.5,-280.08 619,-270.08 612,-270.08"/>
</g>
<!-- Node9&#45;&gt;Node16 -->
<g id="edge18" class="edge">
<title>Node9&#45;&gt;Node16</title>
<path fill="none" stroke="midnightblue" d="M643.64,-276.23C665.9,-266.13 696.36,-252.31 715.73,-243.52"/>
<polygon fill="midnightblue" stroke="midnightblue" points="642.02,-273.12 634.36,-280.44 644.91,-279.5 642.02,-273.12"/>
</g>
<!-- Node17 -->
<g id="node17" class="node">
<title>Node17</title>
<g id="a_node17"><a xlink:href="_uniform_ct_8_h.html" target="_top" xlink:title=" ">
<polygon fill="white" stroke="black" points="415,-224.5 415,-243.5 492,-243.5 492,-224.5 415,-224.5"/>
<text text-anchor="middle" x="453.5" y="-231.5" font-family="Helvetica,sans-Serif" font-size="10.00">UniformCt.H</text>
</a>
</g>
</g>
<!-- Node9&#45;&gt;Node17 -->
<g id="edge21" class="edge">
<title>Node9&#45;&gt;Node17</title>
<path fill="none" stroke="midnightblue" d="M580.02,-277.17C549.51,-267 506.26,-252.59 479.05,-243.52"/>
<polygon fill="midnightblue" stroke="midnightblue" points="579.24,-280.6 589.83,-280.44 581.45,-273.96 579.24,-280.6"/>
</g>
<!-- Node11 -->
<g id="node11" class="node">
<title>Node11</title>
<g id="a_node11"><a xlink:href="disk__ops_8cpp.html" target="_top" xlink:title=" ">
<polygon fill="white" stroke="black" points="561.5,-168.5 561.5,-187.5 641.5,-187.5 641.5,-168.5 561.5,-168.5"/>
<text text-anchor="middle" x="601.5" y="-175.5" font-family="Helvetica,sans-Serif" font-size="10.00">disk_ops.cpp</text>
</a>
</g>
</g>
<!-- Node10&#45;&gt;Node11 -->
<g id="edge10" class="edge">
<title>Node10&#45;&gt;Node11</title>
<path fill="none" stroke="midnightblue" d="M610.68,-214.4C608.33,-205.36 605.63,-194.94 603.77,-187.75"/>
<polygon fill="midnightblue" stroke="midnightblue" points="607.29,-215.28 613.19,-224.08 614.07,-213.52 607.29,-215.28"/>
</g>
<!-- Node12 -->
<g id="node12" class="node">
<title>Node12</title>
<g id="a_node12"><a xlink:href="_joukowsky__ops_8cpp.html" target="_top" xlink:title=" ">
<polygon fill="white" stroke="black" points="614.5,-112.5 614.5,-131.5 724.5,-131.5 724.5,-112.5 614.5,-112.5"/>
<text text-anchor="middle" x="669.5" y="-119.5" font-family="Helvetica,sans-Serif" font-size="10.00">Joukowsky_ops.cpp</text>
</a>
</g>
</g>
<!-- Node10&#45;&gt;Node12 -->
<g id="edge11" class="edge">
<title>Node10&#45;&gt;Node12</title>
<path fill="none" stroke="midnightblue" d="M630.54,-216.78C637.43,-208.64 645.22,-198.33 650.5,-188 660.14,-169.16 665.61,-144.68 668.02,-131.8"/>
<polygon fill="midnightblue" stroke="midnightblue" points="627.82,-214.57 623.83,-224.39 633.07,-219.2 627.82,-214.57"/>
</g>
<!-- Node13 -->
<g id="node13" class="node">
<title>Node13</title>
<g id="a_node13"><a xlink:href="_joukowsky__ops_8_h.html" target="_top" xlink:title=" ">
<polygon fill="white" stroke="black" points="698,-168.5 698,-187.5 799,-187.5 799,-168.5 698,-168.5"/>
<text text-anchor="middle" x="748.5" y="-175.5" font-family="Helvetica,sans-Serif" font-size="10.00">Joukowsky_ops.H</text>
</a>
</g>
</g>
<!-- Node10&#45;&gt;Node13 -->
<g id="edge12" class="edge">
<title>Node10&#45;&gt;Node13</title>
<path fill="none" stroke="midnightblue" d="M645.95,-220.64C670.91,-210.5 705.58,-196.43 727.52,-187.52"/>
<polygon fill="midnightblue" stroke="midnightblue" points="644.52,-217.44 636.57,-224.44 647.16,-223.92 644.52,-217.44"/>
</g>
<!-- Node14 -->
<g id="node14" class="node">
<title>Node14</title>
<g id="a_node14"><a xlink:href="uniform__ct__ops_8_h.html" target="_top" xlink:title=" ">
<polygon fill="white" stroke="black" points="441.5,-168.5 441.5,-187.5 543.5,-187.5 543.5,-168.5 441.5,-168.5"/>
<text text-anchor="middle" x="492.5" y="-175.5" font-family="Helvetica,sans-Serif" font-size="10.00">uniform_ct_ops.H</text>
</a>
</g>
</g>
<!-- Node10&#45;&gt;Node14 -->
<g id="edge15" class="edge">
<title>Node10&#45;&gt;Node14</title>
<path fill="none" stroke="midnightblue" d="M586.73,-220.37C563.69,-210.26 532.02,-196.35 511.9,-187.52"/>
<polygon fill="midnightblue" stroke="midnightblue" points="585.45,-223.63 596.01,-224.44 588.26,-217.22 585.45,-223.63"/>
</g>
<!-- Node13&#45;&gt;Node5 -->
<g id="edge13" class="edge">
<title>Node13&#45;&gt;Node5</title>
<path fill="none" stroke="midnightblue" d="M748.75,-158.1C747.95,-143.83 744.62,-124.62 733.5,-112 675.77,-46.47 571.68,-23.4 509.75,-15.32"/>
<polygon fill="midnightblue" stroke="midnightblue" points="745.25,-158.33 748.95,-168.26 752.25,-158.19 745.25,-158.33"/>
</g>
<!-- Node13&#45;&gt;Node12 -->
<g id="edge14" class="edge">
<title>Node13&#45;&gt;Node12</title>
<path fill="none" stroke="midnightblue" d="M727.47,-162.62C713.03,-152.76 694.36,-139.99 682.16,-131.65"/>
<polygon fill="midnightblue" stroke="midnightblue" points="725.58,-165.57 735.81,-168.32 729.53,-159.79 725.58,-165.57"/>
</g>
<!-- Node14&#45;&gt;Node5 -->
<g id="edge16" class="edge">
<title>Node14&#45;&gt;Node5</title>
<path fill="none" stroke="midnightblue" d="M484.51,-158.75C481.27,-150.69 477.77,-141.01 475.5,-132 465.11,-90.69 461.17,-39.66 459.96,-19.64"/>
<polygon fill="midnightblue" stroke="midnightblue" points="481.4,-160.36 488.5,-168.23 487.85,-157.65 481.4,-160.36"/>
</g>
<!-- Node15 -->
<g id="node15" class="node">
<title>Node15</title>
<g id="a_node15"><a xlink:href="uniform__ct__ops_8cpp.html" target="_top" xlink:title=" ">
<polygon fill="white" stroke="black" points="484.5,-112.5 484.5,-131.5 596.5,-131.5 596.5,-112.5 484.5,-112.5"/>
<text text-anchor="middle" x="540.5" y="-119.5" font-family="Helvetica,sans-Serif" font-size="10.00">uniform_ct_ops.cpp</text>
</a>
</g>
</g>
<!-- Node14&#45;&gt;Node15 -->
<g id="edge17" class="edge">
<title>Node14&#45;&gt;Node15</title>
<path fill="none" stroke="midnightblue" d="M507.23,-160.43C515.64,-150.97 525.85,-139.48 532.72,-131.75"/>
<polygon fill="midnightblue" stroke="midnightblue" points="504.45,-158.28 500.43,-168.08 509.69,-162.93 504.45,-158.28"/>
</g>
<!-- Node16&#45;&gt;Node5 -->
<g id="edge19" class="edge">
<title>Node16&#45;&gt;Node5</title>
<path fill="none" stroke="midnightblue" d="M770.74,-220.15C785.17,-213.05 800.28,-202.62 808.5,-188 812.86,-180.25 811.86,-176.23 808.5,-168 780.89,-100.47 754.11,-87.9 688.5,-56 631.11,-28.09 557.66,-17.49 509.63,-13.47"/>
<polygon fill="midnightblue" stroke="midnightblue" points="769.1,-217.05 761.43,-224.36 771.98,-223.43 769.1,-217.05"/>
</g>
<!-- Node16&#45;&gt;Node13 -->
<g id="edge20" class="edge">
<title>Node16&#45;&gt;Node13</title>
<path fill="none" stroke="midnightblue" d="M739.32,-214.4C741.67,-205.36 744.37,-194.94 746.23,-187.75"/>
<polygon fill="midnightblue" stroke="midnightblue" points="735.93,-213.52 736.81,-224.08 742.71,-215.28 735.93,-213.52"/>
</g>
<!-- Node17&#45;&gt;Node5 -->
<g id="edge22" class="edge">
<title>Node17&#45;&gt;Node5</title>
<path fill="none" stroke="midnightblue" d="M443.22,-215.63C439.01,-207.52 434.62,-197.57 432.5,-188 418.29,-123.97 445.85,-45.25 455.97,-19.55"/>
<polygon fill="midnightblue" stroke="midnightblue" points="440.2,-217.4 448.12,-224.44 446.32,-214 440.2,-217.4"/>
</g>
<!-- Node17&#45;&gt;Node14 -->
<g id="edge26" class="edge">
<title>Node17&#45;&gt;Node14</title>
<path fill="none" stroke="midnightblue" d="M465.88,-215.86C472.64,-206.5 480.71,-195.33 486.18,-187.75"/>
<polygon fill="midnightblue" stroke="midnightblue" points="462.96,-213.93 459.94,-224.08 468.63,-218.03 462.96,-213.93"/>
</g>
<!-- Node18 -->
<g id="node18" class="node">
<title>Node18</title>
<g id="a_node18"><a xlink:href="disk__spreading_8_h.html" target="_top" xlink:title=" ">
<polygon fill="white" stroke="black" points="284,-168.5 284,-187.5 385,-187.5 385,-168.5 284,-168.5"/>
<text text-anchor="middle" x="334.5" y="-175.5" font-family="Helvetica,sans-Serif" font-size="10.00">disk_spreading.H</text>
</a>
</g>
</g>
<!-- Node17&#45;&gt;Node18 -->
<g id="edge23" class="edge">
<title>Node17&#45;&gt;Node18</title>
<path fill="none" stroke="midnightblue" d="M425.36,-220.23C403.1,-210.13 372.64,-196.31 353.27,-187.52"/>
<polygon fill="midnightblue" stroke="midnightblue" points="424.09,-223.5 434.64,-224.44 426.98,-217.12 424.09,-223.5"/>
</g>
<!-- Node18&#45;&gt;Node2 -->
<g id="edge24" class="edge">
<title>Node18&#45;&gt;Node2</title>
<path fill="none" stroke="midnightblue" d="M313.47,-162.62C299.03,-152.76 280.36,-139.99 268.16,-131.65"/>
<polygon fill="midnightblue" stroke="midnightblue" points="311.58,-165.57 321.81,-168.32 315.53,-159.79 311.58,-165.57"/>
</g>
<!-- Node18&#45;&gt;Node5 -->
<g id="edge25" class="edge">
<title>Node18&#45;&gt;Node5</title>
<path fill="none" stroke="midnightblue" d="M341.28,-158.95C351.3,-133.92 371.89,-88.12 399.5,-56 412.49,-40.89 431.38,-27.77 444.48,-19.66"/>
<polygon fill="midnightblue" stroke="midnightblue" points="338.01,-157.72 337.65,-168.31 344.53,-160.26 338.01,-157.72"/>
</g>
</g>
</svg>
        <g id="navigator" transform="translate(0 0)" fill="#404254">
                <rect fill="#f2f5e9" fill-opacity="0.5" stroke="#606060" stroke-width=".5" x="0" y="0" width="60" height="60"/>
                <use id="zoomplus" xlink:href="#zoomPlus" x="17" y="9" onmousedown="handleZoom(evt,'in')"/>
                <use id="zoomminus" xlink:href="#zoomMin" x="42" y="9" onmousedown="handleZoom(evt,'out')"/>
                <use id="reset" xlink:href="#resetDef" x="30" y="36" onmousedown="handleReset()"/>
                <g id="arrowUp" xlink:href="#dirArrow" transform="translate(30 24)" onmousedown="handlePan(0,-1)">
                  <use xlink:href="#rim" fill="#404040">
                        <set attributeName="fill" to="#808080" begin="arrowUp.mouseover" end="arrowUp.mouseout"/>
                  </use>
                  <path fill="none" stroke="white" stroke-width="1.5" d="M0,-3.0v7 M-2.5,-0.5L0,-3.0L2.5,-0.5"/>
                </g>
                <g id="arrowRight" xlink:href="#dirArrow" transform="rotate(90) translate(36 -43)" onmousedown="handlePan(1,0)">
                  <use xlink:href="#rim" fill="#404040">
                        <set attributeName="fill" to="#808080" begin="arrowRight.mouseover" end="arrowRight.mouseout"/>
                  </use>
                  <path fill="none" stroke="white" stroke-width="1.5" d="M0,-3.0v7 M-2.5,-0.5L0,-3.0L2.5,-0.5"/>
                </g>
                <g id="arrowDown" xlink:href="#dirArrow" transform="rotate(180) translate(-30 -48)" onmousedown="handlePan(0,1)">
                  <use xlink:href="#rim" fill="#404040">
                        <set attributeName="fill" to="#808080" begin="arrowDown.mouseover" end="arrowDown.mouseout"/>
                  </use>
                  <path fill="none" stroke="white" stroke-width="1.5" d="M0,-3.0v7 M-2.5,-0.5L0,-3.0L2.5,-0.5"/>
                </g>
                <g id="arrowLeft" xlink:href="#dirArrow" transform="rotate(270) translate(-36 17)" onmousedown="handlePan(-1,0)">
                  <use xlink:href="#rim" fill="#404040">
                        <set attributeName="fill" to="#808080" begin="arrowLeft.mouseover" end="arrowLeft.mouseout"/>
                  </use>
                  <path fill="none" stroke="white" stroke-width="1.5" d="M0,-3.0v7 M-2.5,-0.5L0,-3.0L2.5,-0.5"/>
                </g>
        </g>
        <svg viewBox="0 0 15 15" width="100%" height="30px" preserveAspectRatio="xMaxYMin meet">
         <g id="arrow_out" transform="scale(0.3 0.3)">
          <a xlink:href="disk__types_8_h__dep__incl_org.svg" target="_base">
           <rect id="button" ry="5" rx="5" y="6" x="6" height="38" width="38"
                fill="#f2f5e9" fill-opacity="0.5" stroke="#606060" stroke-width="1.0"/>
           <path id="arrow"
             d="M 11.500037,31.436501 C 11.940474,20.09759 22.043105,11.32322 32.158766,21.979434 L 37.068811,17.246167 C 37.068811,17.246167 37.088388,32 37.088388,32 L 22.160133,31.978069 C 22.160133,31.978069 26.997745,27.140456 26.997745,27.140456 C 18.528582,18.264221 13.291696,25.230495 11.500037,31.436501 z"
             style="fill:#404040;"/>
          </a>
         </g>
        </svg>
</svg>
