<?xml version="1.0" encoding="UTF-8" standalone="no"?>
<!DOCTYPE svg PUBLIC "-//W3C//DTD SVG 1.1//EN"
 "http://www.w3.org/Graphics/SVG/1.1/DTD/svg11.dtd">
<!-- Generated by graphviz version 2.43.0 (0)
 -->
<!-- Title: field_ops.H Pages: 1 -->
<!--zoomable 263 -->
<svg id="main" version="1.1" xmlns="http://www.w3.org/2000/svg" xmlns:xlink="http://www.w3.org/1999/xlink" xml:space="preserve" onload="init(evt)">
<style type="text/css"><![CDATA[
.edge:hover path { stroke: red; }
.edge:hover polygon { stroke: red; fill: red; }
]]></style>
<script type="text/javascript"><![CDATA[
var edges = document.getElementsByTagName('g');
if (edges && edges.length) {
  for (var i=0;i<edges.length;i++) {
    if (edges[i].id.substr(0,4)=='edge') {
      edges[i].setAttribute('class','edge');
    }
  }
}
]]></script>
        <defs>
                <circle id="rim" cx="0" cy="0" r="7"/>
                <circle id="rim2" cx="0" cy="0" r="3.5"/>
                <g id="zoomPlus">
                        <use xlink:href="#rim" fill="#404040">
                                <set attributeName="fill" to="#808080" begin="zoomplus.mouseover" end="zoomplus.mouseout"/>
                        </use>
                        <path d="M-4,0h8M0,-4v8" fill="none" stroke="white" stroke-width="1.5" pointer-events="none"/>
                </g>
                <g id="zoomMin">
                        <use xlink:href="#rim" fill="#404040">
                                <set attributeName="fill" to="#808080" begin="zoomminus.mouseover" end="zoomminus.mouseout"/>
                        </use>
                        <path d="M-4,0h8" fill="none" stroke="white" stroke-width="1.5" pointer-events="none"/>
                </g>
                <g id="dirArrow">
                        <path fill="none" stroke="white" stroke-width="1.5" d="M0,-3.0v7 M-2.5,-0.5L0,-3.0L2.5,-0.5"/>
                </g>
               <g id="resetDef">
                       <use xlink:href="#rim2" fill="#404040">
                               <set attributeName="fill" to="#808080" begin="reset.mouseover" end="reset.mouseout"/>
                       </use>
               </g>
        </defs>

<script type="text/javascript">
var viewWidth = 2521;
var viewHeight = 263;
var sectionId = 'dynsection-1';
</script>
<script xlink:href="svgpan.js"/>
<svg id="graph" class="graph">
<g id="viewport">
<title>field_ops.H</title>
<polygon fill="white" stroke="transparent" points="-4,4 -4,-259 2517,-259 2517,4 -4,4"/>
<!-- Node1 -->
<g id="node1" class="node">
<title>Node1</title>
<g id="a_node1"><a xlink:title=" ">
<polygon fill="#bfbfbf" stroke="black" points="1356,-235.5 1356,-254.5 1427,-254.5 1427,-235.5 1356,-235.5"/>
<text text-anchor="middle" x="1391.5" y="-242.5" font-family="Helvetica,sans-Serif" font-size="10.00">field_ops.H</text>
</a>
</g>
</g>
<!-- Node2 -->
<g id="node2" class="node">
<title>Node2</title>
<g id="a_node2"><a xlink:href="_s_d_r_8_h.html" target="_top" xlink:title=" ">
<polygon fill="white" stroke="black" points="127,-112.5 127,-131.5 174,-131.5 174,-112.5 127,-112.5"/>
<text text-anchor="middle" x="150.5" y="-119.5" font-family="Helvetica,sans-Serif" font-size="10.00">SDR.H</text>
</a>
</g>
</g>
<!-- Node1&#45;&gt;Node2 -->
<g id="edge1" class="edge">
<title>Node1&#45;&gt;Node2</title>
<path fill="none" stroke="midnightblue" d="M1345.45,-242.48C1230.71,-238.4 922.88,-225.66 667.5,-199 476.21,-179.03 247.19,-140.02 174.12,-127.19"/>
<polygon fill="midnightblue" stroke="midnightblue" points="1345.51,-245.98 1355.63,-242.84 1345.76,-238.99 1345.51,-245.98"/>
</g>
<!-- Node4 -->
<g id="node4" class="node">
<title>Node4</title>
<g id="a_node4"><a xlink:href="sdr__ops_8_h.html" target="_top" xlink:title=" ">
<polygon fill="white" stroke="black" points="0,-56.5 0,-75.5 65,-75.5 65,-56.5 0,-56.5"/>
<text text-anchor="middle" x="32.5" y="-63.5" font-family="Helvetica,sans-Serif" font-size="10.00">sdr_ops.H</text>
</a>
</g>
</g>
<!-- Node1&#45;&gt;Node4 -->
<g id="edge10" class="edge">
<title>Node1&#45;&gt;Node4</title>
<path fill="none" stroke="midnightblue" d="M1345.56,-244.43C1207.41,-245.17 783.91,-243.38 436.5,-199 292.8,-180.64 249.19,-192.38 117.5,-132 86.09,-117.6 55.45,-89.81 41.05,-75.69"/>
<polygon fill="midnightblue" stroke="midnightblue" points="1345.79,-247.93 1355.77,-244.37 1345.75,-240.93 1345.79,-247.93"/>
</g>
<!-- Node8 -->
<g id="node8" class="node">
<title>Node8</title>
<g id="a_node8"><a xlink:href="_t_k_e_8_h.html" target="_top" xlink:title=" ">
<polygon fill="white" stroke="black" points="615.5,-112.5 615.5,-131.5 661.5,-131.5 661.5,-112.5 615.5,-112.5"/>
<text text-anchor="middle" x="638.5" y="-119.5" font-family="Helvetica,sans-Serif" font-size="10.00">TKE.H</text>
</a>
</g>
</g>
<!-- Node1&#45;&gt;Node8 -->
<g id="edge11" class="edge">
<title>Node1&#45;&gt;Node8</title>
<path fill="none" stroke="midnightblue" d="M1345.33,-242.94C1201.18,-239.34 765.63,-226.32 708.5,-199 677.11,-183.98 653.09,-148.08 643.3,-131.57"/>
<polygon fill="midnightblue" stroke="midnightblue" points="1345.51,-246.44 1355.6,-243.19 1345.69,-239.44 1345.51,-246.44"/>
</g>
<!-- Node10 -->
<g id="node10" class="node">
<title>Node10</title>
<g id="a_node10"><a xlink:href="tke__ops_8_h.html" target="_top" xlink:title=" ">
<polygon fill="white" stroke="black" points="690,-56.5 690,-75.5 755,-75.5 755,-56.5 690,-56.5"/>
<text text-anchor="middle" x="722.5" y="-63.5" font-family="Helvetica,sans-Serif" font-size="10.00">tke_ops.H</text>
</a>
</g>
</g>
<!-- Node1&#45;&gt;Node10 -->
<g id="edge20" class="edge">
<title>Node1&#45;&gt;Node10</title>
<path fill="none" stroke="midnightblue" d="M1345.83,-244.07C1205.37,-243.84 786.65,-239.71 742.5,-199 707.06,-166.32 716.01,-99.6 720.61,-75.73"/>
<polygon fill="midnightblue" stroke="midnightblue" points="1345.83,-247.57 1355.84,-244.08 1345.84,-240.57 1345.83,-247.57"/>
</g>
<!-- Node13 -->
<g id="node13" class="node">
<title>Node13</title>
<g id="a_node13"><a xlink:href="bluff__body__ops_8cpp.html" target="_top" xlink:title=" ">
<polygon fill="white" stroke="black" points="870.5,-174 870.5,-193 980.5,-193 980.5,-174 870.5,-174"/>
<text text-anchor="middle" x="925.5" y="-181" font-family="Helvetica,sans-Serif" font-size="10.00">bluff_body_ops.cpp</text>
</a>
</g>
</g>
<!-- Node1&#45;&gt;Node13 -->
<g id="edge21" class="edge">
<title>Node1&#45;&gt;Node13</title>
<path fill="none" stroke="midnightblue" d="M1345.8,-240.55C1270.97,-234.53 1117.81,-220.65 989.5,-199 979.84,-197.37 969.45,-195.2 959.9,-193.03"/>
<polygon fill="midnightblue" stroke="midnightblue" points="1345.58,-244.04 1355.82,-241.35 1346.13,-237.07 1345.58,-244.04"/>
</g>
<!-- Node14 -->
<g id="node14" class="node">
<title>Node14</title>
<g id="a_node14"><a xlink:href="incflo__advance_8cpp.html" target="_top" xlink:title=" ">
<polygon fill="white" stroke="black" points="998.5,-174 998.5,-193 1108.5,-193 1108.5,-174 998.5,-174"/>
<text text-anchor="middle" x="1053.5" y="-181" font-family="Helvetica,sans-Serif" font-size="10.00">incflo_advance.cpp</text>
</a>
</g>
</g>
<!-- Node1&#45;&gt;Node14 -->
<g id="edge22" class="edge">
<title>Node1&#45;&gt;Node14</title>
<path fill="none" stroke="midnightblue" d="M1345.88,-237.36C1291.37,-229.24 1197.51,-214.62 1117.5,-199 1108.33,-197.21 1098.47,-195.08 1089.3,-193.01"/>
<polygon fill="midnightblue" stroke="midnightblue" points="1345.5,-240.85 1355.91,-238.85 1346.53,-233.92 1345.5,-240.85"/>
</g>
<!-- Node15 -->
<g id="node15" class="node">
<title>Node15</title>
<g id="a_node15"><a xlink:href="hos__waves__ops_8_h.html" target="_top" xlink:title=" ">
<polygon fill="white" stroke="black" points="1126.5,-174 1126.5,-193 1230.5,-193 1230.5,-174 1126.5,-174"/>
<text text-anchor="middle" x="1178.5" y="-181" font-family="Helvetica,sans-Serif" font-size="10.00">hos_waves_ops.H</text>
</a>
</g>
</g>
<!-- Node1&#45;&gt;Node15 -->
<g id="edge23" class="edge">
<title>Node1&#45;&gt;Node15</title>
<path fill="none" stroke="midnightblue" d="M1351.22,-232.75C1309.84,-221.19 1246.34,-203.45 1208.96,-193.01"/>
<polygon fill="midnightblue" stroke="midnightblue" points="1350.41,-236.16 1360.98,-235.48 1352.29,-229.41 1350.41,-236.16"/>
</g>
<!-- Node17 -->
<g id="node17" class="node">
<title>Node17</title>
<g id="a_node17"><a xlink:href="relaxation__zones__ops_8cpp.html" target="_top" xlink:title=" ">
<polygon fill="white" stroke="black" points="1249,-174 1249,-193 1392,-193 1392,-174 1249,-174"/>
<text text-anchor="middle" x="1320.5" y="-181" font-family="Helvetica,sans-Serif" font-size="10.00">relaxation_zones_ops.cpp</text>
</a>
</g>
</g>
<!-- Node1&#45;&gt;Node17 -->
<g id="edge25" class="edge">
<title>Node1&#45;&gt;Node17</title>
<path fill="none" stroke="midnightblue" d="M1373.57,-228.97C1359.99,-217.59 1341.82,-202.37 1330.65,-193.01"/>
<polygon fill="midnightblue" stroke="midnightblue" points="1371.41,-231.73 1381.33,-235.48 1375.91,-226.37 1371.41,-231.73"/>
</g>
<!-- Node18 -->
<g id="node18" class="node">
<title>Node18</title>
<g id="a_node18"><a xlink:href="_tioga_interface_8cpp.html" target="_top" xlink:title=" ">
<polygon fill="white" stroke="black" points="1410,-174 1410,-193 1517,-193 1517,-174 1410,-174"/>
<text text-anchor="middle" x="1463.5" y="-181" font-family="Helvetica,sans-Serif" font-size="10.00">TiogaInterface.cpp</text>
</a>
</g>
</g>
<!-- Node1&#45;&gt;Node18 -->
<g id="edge26" class="edge">
<title>Node1&#45;&gt;Node18</title>
<path fill="none" stroke="midnightblue" d="M1409.68,-228.97C1423.46,-217.59 1441.88,-202.37 1453.2,-193.01"/>
<polygon fill="midnightblue" stroke="midnightblue" points="1407.29,-226.41 1401.82,-235.48 1411.75,-231.8 1407.29,-226.41"/>
</g>
<!-- Node19 -->
<g id="node19" class="node">
<title>Node19</title>
<g id="a_node19"><a xlink:href="_dam_break_8cpp.html" target="_top" xlink:title=" ">
<polygon fill="white" stroke="black" points="1535,-174 1535,-193 1624,-193 1624,-174 1535,-174"/>
<text text-anchor="middle" x="1579.5" y="-181" font-family="Helvetica,sans-Serif" font-size="10.00">DamBreak.cpp</text>
</a>
</g>
</g>
<!-- Node1&#45;&gt;Node19 -->
<g id="edge27" class="edge">
<title>Node1&#45;&gt;Node19</title>
<path fill="none" stroke="midnightblue" d="M1428.21,-232.38C1464.76,-220.82 1519.97,-203.34 1552.61,-193.01"/>
<polygon fill="midnightblue" stroke="midnightblue" points="1426.91,-229.12 1418.44,-235.48 1429.03,-235.79 1426.91,-229.12"/>
</g>
<!-- Node20 -->
<g id="node20" class="node">
<title>Node20</title>
<g id="a_node20"><a xlink:href="_multi_phase_8cpp.html" target="_top" xlink:title=" ">
<polygon fill="white" stroke="black" points="1642,-174 1642,-193 1733,-193 1733,-174 1642,-174"/>
<text text-anchor="middle" x="1687.5" y="-181" font-family="Helvetica,sans-Serif" font-size="10.00">MultiPhase.cpp</text>
</a>
</g>
</g>
<!-- Node1&#45;&gt;Node20 -->
<g id="edge28" class="edge">
<title>Node1&#45;&gt;Node20</title>
<path fill="none" stroke="midnightblue" d="M1437.29,-236.59C1486.12,-228.43 1565.61,-214.4 1633.5,-199 1641.26,-197.24 1649.59,-195.12 1657.33,-193.05"/>
<polygon fill="midnightblue" stroke="midnightblue" points="1436.64,-233.15 1427.35,-238.24 1437.79,-240.05 1436.64,-233.15"/>
</g>
<!-- Node21 -->
<g id="node21" class="node">
<title>Node21</title>
<g id="a_node21"><a xlink:href="_sloshing_tank_8cpp.html" target="_top" xlink:title=" ">
<polygon fill="white" stroke="black" points="1751,-174 1751,-193 1852,-193 1852,-174 1751,-174"/>
<text text-anchor="middle" x="1801.5" y="-181" font-family="Helvetica,sans-Serif" font-size="10.00">SloshingTank.cpp</text>
</a>
</g>
</g>
<!-- Node1&#45;&gt;Node21 -->
<g id="edge29" class="edge">
<title>Node1&#45;&gt;Node21</title>
<path fill="none" stroke="midnightblue" d="M1437.33,-239.8C1504.6,-233.26 1633.86,-219.25 1742.5,-199 1751.31,-197.36 1760.78,-195.21 1769.49,-193.07"/>
<polygon fill="midnightblue" stroke="midnightblue" points="1436.7,-236.34 1427.08,-240.79 1437.37,-243.31 1436.7,-236.34"/>
</g>
<!-- Node22 -->
<g id="node22" class="node">
<title>Node22</title>
<g id="a_node22"><a xlink:href="_zalesak_disk_8cpp.html" target="_top" xlink:title=" ">
<polygon fill="white" stroke="black" points="1870.5,-174 1870.5,-193 1968.5,-193 1968.5,-174 1870.5,-174"/>
<text text-anchor="middle" x="1919.5" y="-181" font-family="Helvetica,sans-Serif" font-size="10.00">ZalesakDisk.cpp</text>
</a>
</g>
</g>
<!-- Node1&#45;&gt;Node22 -->
<g id="edge30" class="edge">
<title>Node1&#45;&gt;Node22</title>
<path fill="none" stroke="midnightblue" d="M1437.13,-241.9C1521.45,-237.52 1707.17,-225.53 1861.5,-199 1870.5,-197.45 1880.17,-195.26 1888.98,-193.04"/>
<polygon fill="midnightblue" stroke="midnightblue" points="1436.93,-238.41 1427.12,-242.41 1437.28,-245.4 1436.93,-238.41"/>
</g>
<!-- Node23 -->
<g id="node23" class="node">
<title>Node23</title>
<g id="a_node23"><a xlink:href="_zalesak_disk_scalar_vel_8cpp.html" target="_top" xlink:title=" ">
<polygon fill="white" stroke="black" points="1987,-174 1987,-193 2130,-193 2130,-174 1987,-174"/>
<text text-anchor="middle" x="2058.5" y="-181" font-family="Helvetica,sans-Serif" font-size="10.00">ZalesakDiskScalarVel.cpp</text>
</a>
</g>
</g>
<!-- Node1&#45;&gt;Node23 -->
<g id="edge31" class="edge">
<title>Node1&#45;&gt;Node23</title>
<path fill="none" stroke="midnightblue" d="M1437.56,-242.04C1536.65,-237.48 1777.3,-224.54 1977.5,-199 1989.83,-197.43 2003.13,-195.25 2015.33,-193.06"/>
<polygon fill="midnightblue" stroke="midnightblue" points="1437.13,-238.56 1427.3,-242.51 1437.45,-245.55 1437.13,-238.56"/>
</g>
<!-- Node24 -->
<g id="node24" class="node">
<title>Node24</title>
<g id="a_node24"><a xlink:href="incflo__apply__nodal__projection_8cpp.html" target="_top" xlink:title=" ">
<polygon fill="white" stroke="black" points="2148,-168.5 2148,-198.5 2255,-198.5 2255,-168.5 2148,-168.5"/>
<text text-anchor="start" x="2156" y="-186.5" font-family="Helvetica,sans-Serif" font-size="10.00">incflo_apply_nodal</text>
<text text-anchor="middle" x="2201.5" y="-175.5" font-family="Helvetica,sans-Serif" font-size="10.00">_projection.cpp</text>
</a>
</g>
</g>
<!-- Node1&#45;&gt;Node24 -->
<g id="edge32" class="edge">
<title>Node1&#45;&gt;Node24</title>
<path fill="none" stroke="midnightblue" d="M1437.21,-243.94C1554.51,-243.2 1875.52,-237.52 2139.5,-199 2142.23,-198.6 2145.03,-198.14 2147.84,-197.64"/>
<polygon fill="midnightblue" stroke="midnightblue" points="1437.13,-240.44 1427.15,-243.99 1437.17,-247.44 1437.13,-240.44"/>
</g>
<!-- Node25 -->
<g id="node25" class="node">
<title>Node25</title>
<g id="a_node25"><a xlink:href="_laminar_model_8cpp.html" target="_top" xlink:title=" ">
<polygon fill="white" stroke="black" points="2273,-174 2273,-193 2380,-193 2380,-174 2273,-174"/>
<text text-anchor="middle" x="2326.5" y="-181" font-family="Helvetica,sans-Serif" font-size="10.00">LaminarModel.cpp</text>
</a>
</g>
</g>
<!-- Node1&#45;&gt;Node25 -->
<g id="edge33" class="edge">
<title>Node1&#45;&gt;Node25</title>
<path fill="none" stroke="midnightblue" d="M1437.44,-244.5C1567.76,-245.31 1950.63,-243.43 2264.5,-199 2274.46,-197.59 2285.17,-195.35 2294.85,-193.05"/>
<polygon fill="midnightblue" stroke="midnightblue" points="1437.08,-241 1427.06,-244.43 1437.03,-248 1437.08,-241"/>
</g>
<!-- Node26 -->
<g id="node26" class="node">
<title>Node26</title>
<g id="a_node26"><a xlink:href="_turb_model_base_8_h.html" target="_top" xlink:title=" ">
<polygon fill="white" stroke="black" points="751,-174 751,-193 852,-193 852,-174 751,-174"/>
<text text-anchor="middle" x="801.5" y="-181" font-family="Helvetica,sans-Serif" font-size="10.00">TurbModelBase.H</text>
</a>
</g>
</g>
<!-- Node1&#45;&gt;Node26 -->
<g id="edge34" class="edge">
<title>Node1&#45;&gt;Node26</title>
<path fill="none" stroke="midnightblue" d="M1345.82,-242.47C1253.69,-238.86 1039.23,-227.85 861.5,-199 852.09,-197.47 841.97,-195.25 832.77,-193.01"/>
<polygon fill="midnightblue" stroke="midnightblue" points="1345.79,-245.97 1355.92,-242.85 1346.06,-238.97 1345.79,-245.97"/>
</g>
<!-- Node36 -->
<g id="node36" class="node">
<title>Node36</title>
<g id="a_node36"><a xlink:href="_derived_qty_defs_8cpp.html" target="_top" xlink:title=" ">
<polygon fill="white" stroke="black" points="2398,-174 2398,-193 2513,-193 2513,-174 2398,-174"/>
<text text-anchor="middle" x="2455.5" y="-181" font-family="Helvetica,sans-Serif" font-size="10.00">DerivedQtyDefs.cpp</text>
</a>
</g>
</g>
<!-- Node1&#45;&gt;Node36 -->
<g id="edge48" class="edge">
<title>Node1&#45;&gt;Node36</title>
<path fill="none" stroke="midnightblue" d="M1437.26,-242.98C1607.16,-239.02 2201.59,-223.69 2389.5,-199 2400.08,-197.61 2411.48,-195.37 2421.78,-193.07"/>
<polygon fill="midnightblue" stroke="midnightblue" points="1437.07,-239.48 1427.16,-243.21 1437.23,-246.48 1437.07,-239.48"/>
</g>
<!-- Node3 -->
<g id="node3" class="node">
<title>Node3</title>
<g id="a_node3"><a xlink:href="_s_d_r_8cpp.html" target="_top" xlink:title=" ">
<polygon fill="white" stroke="black" points="35,-0.5 35,-19.5 92,-19.5 92,-0.5 35,-0.5"/>
<text text-anchor="middle" x="63.5" y="-7.5" font-family="Helvetica,sans-Serif" font-size="10.00">SDR.cpp</text>
</a>
</g>
</g>
<!-- Node2&#45;&gt;Node3 -->
<g id="edge2" class="edge">
<title>Node2&#45;&gt;Node3</title>
<path fill="none" stroke="midnightblue" d="M137.27,-104.27C118.46,-80.49 84.69,-37.79 70.3,-19.59"/>
<polygon fill="midnightblue" stroke="midnightblue" points="134.72,-106.7 143.67,-112.37 140.22,-102.35 134.72,-106.7"/>
</g>
<!-- Node2&#45;&gt;Node4 -->
<g id="edge3" class="edge">
<title>Node2&#45;&gt;Node4</title>
<path fill="none" stroke="midnightblue" d="M122.6,-108.23C100.53,-98.13 70.32,-84.31 51.11,-75.52"/>
<polygon fill="midnightblue" stroke="midnightblue" points="121.25,-111.46 131.8,-112.44 124.17,-105.1 121.25,-111.46"/>
</g>
<!-- Node5 -->
<g id="node5" class="node">
<title>Node5</title>
<g id="a_node5"><a xlink:href="_k_omega_s_s_t_8cpp.html" target="_top" xlink:title=" ">
<polygon fill="white" stroke="black" points="389,-0.5 389,-19.5 484,-19.5 484,-0.5 389,-0.5"/>
<text text-anchor="middle" x="436.5" y="-7.5" font-family="Helvetica,sans-Serif" font-size="10.00">KOmegaSST.cpp</text>
</a>
</g>
</g>
<!-- Node2&#45;&gt;Node5 -->
<g id="edge5" class="edge">
<title>Node2&#45;&gt;Node5</title>
<path fill="none" stroke="midnightblue" d="M156.43,-102.48C162.2,-87.54 172.47,-67.22 188.5,-56 204.68,-44.68 321.33,-26.95 388.73,-17.48"/>
<polygon fill="midnightblue" stroke="midnightblue" points="153.02,-101.61 153,-112.2 159.62,-103.93 153.02,-101.61"/>
</g>
<!-- Node6 -->
<g id="node6" class="node">
<title>Node6</title>
<g id="a_node6"><a xlink:href="_k_omega_s_s_t_i_8_h.html" target="_top" xlink:title=" ">
<polygon fill="white" stroke="black" points="332,-56.5 332,-75.5 421,-75.5 421,-56.5 332,-56.5"/>
<text text-anchor="middle" x="376.5" y="-63.5" font-family="Helvetica,sans-Serif" font-size="10.00">KOmegaSSTI.H</text>
</a>
</g>
</g>
<!-- Node2&#45;&gt;Node6 -->
<g id="edge6" class="edge">
<title>Node2&#45;&gt;Node6</title>
<path fill="none" stroke="midnightblue" d="M184.02,-112.99C226.07,-102.94 297.87,-85.79 340.88,-75.51"/>
<polygon fill="midnightblue" stroke="midnightblue" points="183.17,-109.59 174.26,-115.32 184.8,-116.4 183.17,-109.59"/>
</g>
<!-- Node7 -->
<g id="node7" class="node">
<title>Node7</title>
<g id="a_node7"><a xlink:href="_k_omega_s_s_t_i_d_d_e_s_8cpp.html" target="_top" xlink:title=" ">
<polygon fill="white" stroke="black" points="218.5,-0.5 218.5,-19.5 344.5,-19.5 344.5,-0.5 218.5,-0.5"/>
<text text-anchor="middle" x="281.5" y="-7.5" font-family="Helvetica,sans-Serif" font-size="10.00">KOmegaSSTIDDES.cpp</text>
</a>
</g>
</g>
<!-- Node2&#45;&gt;Node7 -->
<g id="edge9" class="edge">
<title>Node2&#45;&gt;Node7</title>
<path fill="none" stroke="midnightblue" d="M146.89,-102.35C145.26,-88.21 145.53,-69.06 155.5,-56 170.59,-36.25 195.07,-25.15 218.47,-18.91"/>
<polygon fill="midnightblue" stroke="midnightblue" points="143.46,-103.06 148.46,-112.39 150.38,-101.97 143.46,-103.06"/>
</g>
<!-- Node4&#45;&gt;Node3 -->
<g id="edge4" class="edge">
<title>Node4&#45;&gt;Node3</title>
<path fill="none" stroke="midnightblue" d="M42.68,-47.27C47.97,-38.05 54.22,-27.17 58.48,-19.75"/>
<polygon fill="midnightblue" stroke="midnightblue" points="39.56,-45.67 37.62,-56.08 45.63,-49.15 39.56,-45.67"/>
</g>
<!-- Node6&#45;&gt;Node5 -->
<g id="edge7" class="edge">
<title>Node6&#45;&gt;Node5</title>
<path fill="none" stroke="midnightblue" d="M393.68,-49.54C404.38,-39.91 417.76,-27.87 426.68,-19.83"/>
<polygon fill="midnightblue" stroke="midnightblue" points="391.23,-47.03 386.14,-56.32 395.91,-52.24 391.23,-47.03"/>
</g>
<!-- Node6&#45;&gt;Node7 -->
<g id="edge8" class="edge">
<title>Node6&#45;&gt;Node7</title>
<path fill="none" stroke="midnightblue" d="M352.18,-51.18C334.7,-41.24 311.67,-28.15 296.73,-19.65"/>
<polygon fill="midnightblue" stroke="midnightblue" points="350.81,-54.43 361.24,-56.32 354.27,-48.34 350.81,-54.43"/>
</g>
<!-- Node8&#45;&gt;Node5 -->
<g id="edge16" class="edge">
<title>Node8&#45;&gt;Node5</title>
<path fill="none" stroke="midnightblue" d="M633.33,-102.41C628.3,-87.73 619.23,-67.8 604.5,-56 570.21,-28.54 520.63,-17.75 484.21,-13.56"/>
<polygon fill="midnightblue" stroke="midnightblue" points="630.12,-103.88 636.41,-112.4 636.81,-101.81 630.12,-103.88"/>
</g>
<!-- Node8&#45;&gt;Node6 -->
<g id="edge17" class="edge">
<title>Node8&#45;&gt;Node6</title>
<path fill="none" stroke="midnightblue" d="M605.45,-114.19C557.83,-104.37 469.94,-86.26 418.01,-75.56"/>
<polygon fill="midnightblue" stroke="midnightblue" points="604.75,-117.62 615.25,-116.21 606.16,-110.76 604.75,-117.62"/>
</g>
<!-- Node8&#45;&gt;Node7 -->
<g id="edge18" class="edge">
<title>Node8&#45;&gt;Node7</title>
<path fill="none" stroke="midnightblue" d="M605.56,-110.68C564.39,-97.81 491.78,-75.15 429.5,-56 387.92,-43.21 339.69,-28.59 309.89,-19.57"/>
<polygon fill="midnightblue" stroke="midnightblue" points="604.73,-114.09 615.32,-113.74 606.82,-107.41 604.73,-114.09"/>
</g>
<!-- Node9 -->
<g id="node9" class="node">
<title>Node9</title>
<g id="a_node9"><a xlink:href="_t_k_e_8cpp.html" target="_top" xlink:title=" ">
<polygon fill="white" stroke="black" points="663.5,-0.5 663.5,-19.5 719.5,-19.5 719.5,-0.5 663.5,-0.5"/>
<text text-anchor="middle" x="691.5" y="-7.5" font-family="Helvetica,sans-Serif" font-size="10.00">TKE.cpp</text>
</a>
</g>
</g>
<!-- Node8&#45;&gt;Node9 -->
<g id="edge12" class="edge">
<title>Node8&#45;&gt;Node9</title>
<path fill="none" stroke="midnightblue" d="M647.02,-103.32C658.56,-79.37 678.71,-37.55 687.36,-19.59"/>
<polygon fill="midnightblue" stroke="midnightblue" points="643.85,-101.84 642.66,-112.37 650.15,-104.88 643.85,-101.84"/>
</g>
<!-- Node8&#45;&gt;Node10 -->
<g id="edge13" class="edge">
<title>Node8&#45;&gt;Node10</title>
<path fill="none" stroke="midnightblue" d="M660.43,-106.9C675.84,-97 695.95,-84.07 709.04,-75.65"/>
<polygon fill="midnightblue" stroke="midnightblue" points="658.52,-103.97 652,-112.32 662.3,-109.86 658.52,-103.97"/>
</g>
<!-- Node11 -->
<g id="node11" class="node">
<title>Node11</title>
<g id="a_node11"><a xlink:href="_one_eq_ksgs_8cpp.html" target="_top" xlink:title=" ">
<polygon fill="white" stroke="black" points="773.5,-56.5 773.5,-75.5 865.5,-75.5 865.5,-56.5 773.5,-56.5"/>
<text text-anchor="middle" x="819.5" y="-63.5" font-family="Helvetica,sans-Serif" font-size="10.00">OneEqKsgs.cpp</text>
</a>
</g>
</g>
<!-- Node8&#45;&gt;Node11 -->
<g id="edge15" class="edge">
<title>Node8&#45;&gt;Node11</title>
<path fill="none" stroke="midnightblue" d="M671.76,-111.08C705.94,-100.88 758.58,-85.17 790.93,-75.52"/>
<polygon fill="midnightblue" stroke="midnightblue" points="670.37,-107.84 661.79,-114.05 672.38,-114.55 670.37,-107.84"/>
</g>
<!-- Node12 -->
<g id="node12" class="node">
<title>Node12</title>
<g id="a_node12"><a xlink:href="_a_b_l_stats_8cpp.html" target="_top" xlink:title=" ">
<polygon fill="white" stroke="black" points="515.5,-56.5 515.5,-75.5 595.5,-75.5 595.5,-56.5 515.5,-56.5"/>
<text text-anchor="middle" x="555.5" y="-63.5" font-family="Helvetica,sans-Serif" font-size="10.00">ABLStats.cpp</text>
</a>
</g>
</g>
<!-- Node8&#45;&gt;Node12 -->
<g id="edge19" class="edge">
<title>Node8&#45;&gt;Node12</title>
<path fill="none" stroke="midnightblue" d="M616.4,-106.62C601.24,-96.76 581.62,-83.99 568.8,-75.65"/>
<polygon fill="midnightblue" stroke="midnightblue" points="614.87,-109.8 625.16,-112.32 618.69,-103.94 614.87,-109.8"/>
</g>
<!-- Node10&#45;&gt;Node9 -->
<g id="edge14" class="edge">
<title>Node10&#45;&gt;Node9</title>
<path fill="none" stroke="midnightblue" d="M712.32,-47.27C707.03,-38.05 700.78,-27.17 696.52,-19.75"/>
<polygon fill="midnightblue" stroke="midnightblue" points="709.37,-49.15 717.38,-56.08 715.44,-45.67 709.37,-49.15"/>
</g>
<!-- Node16 -->
<g id="node16" class="node">
<title>Node16</title>
<g id="a_node16"><a xlink:href="_h_o_s_waves_8cpp.html" target="_top" xlink:title=" ">
<polygon fill="white" stroke="black" points="1149.5,-112.5 1149.5,-131.5 1239.5,-131.5 1239.5,-112.5 1149.5,-112.5"/>
<text text-anchor="middle" x="1194.5" y="-119.5" font-family="Helvetica,sans-Serif" font-size="10.00">HOSWaves.cpp</text>
</a>
</g>
</g>
<!-- Node15&#45;&gt;Node16 -->
<g id="edge24" class="edge">
<title>Node15&#45;&gt;Node16</title>
<path fill="none" stroke="midnightblue" d="M1183.43,-164.16C1186.36,-153.27 1189.93,-139.99 1192.21,-131.51"/>
<polygon fill="midnightblue" stroke="midnightblue" points="1180.01,-163.41 1180.79,-173.98 1186.77,-165.23 1180.01,-163.41"/>
</g>
<!-- Node27 -->
<g id="node27" class="node">
<title>Node27</title>
<g id="a_node27"><a xlink:href="_a_m_d_8_h.html" target="_top" xlink:title=" ">
<polygon fill="white" stroke="black" points="860.5,-112.5 860.5,-131.5 910.5,-131.5 910.5,-112.5 860.5,-112.5"/>
<text text-anchor="middle" x="885.5" y="-119.5" font-family="Helvetica,sans-Serif" font-size="10.00">AMD.H</text>
</a>
</g>
</g>
<!-- Node26&#45;&gt;Node27 -->
<g id="edge35" class="edge">
<title>Node26&#45;&gt;Node27</title>
<path fill="none" stroke="midnightblue" d="M821.81,-168.11C837.97,-156.67 860.02,-141.05 873.49,-131.51"/>
<polygon fill="midnightblue" stroke="midnightblue" points="819.67,-165.34 813.54,-173.98 823.72,-171.05 819.67,-165.34"/>
</g>
<!-- Node29 -->
<g id="node29" class="node">
<title>Node29</title>
<g id="a_node29"><a xlink:href="_a_m_d_no_therm_8_h.html" target="_top" xlink:title=" ">
<polygon fill="white" stroke="black" points="929,-112.5 929,-131.5 1024,-131.5 1024,-112.5 929,-112.5"/>
<text text-anchor="middle" x="976.5" y="-119.5" font-family="Helvetica,sans-Serif" font-size="10.00">AMDNoTherm.H</text>
</a>
</g>
</g>
<!-- Node26&#45;&gt;Node29 -->
<g id="edge37" class="edge">
<title>Node26&#45;&gt;Node29</title>
<path fill="none" stroke="midnightblue" d="M836.11,-170.73C870.13,-159.17 921.22,-141.8 951.47,-131.51"/>
<polygon fill="midnightblue" stroke="midnightblue" points="834.91,-167.44 826.57,-173.98 837.17,-174.07 834.91,-167.44"/>
</g>
<!-- Node31 -->
<g id="node31" class="node">
<title>Node31</title>
<g id="a_node31"><a xlink:href="_one_eq_ksgs_8_h.html" target="_top" xlink:title=" ">
<polygon fill="white" stroke="black" points="760.5,-112.5 760.5,-131.5 842.5,-131.5 842.5,-112.5 760.5,-112.5"/>
<text text-anchor="middle" x="801.5" y="-119.5" font-family="Helvetica,sans-Serif" font-size="10.00">OneEqKsgs.H</text>
</a>
</g>
</g>
<!-- Node26&#45;&gt;Node31 -->
<g id="edge39" class="edge">
<title>Node26&#45;&gt;Node31</title>
<path fill="none" stroke="midnightblue" d="M801.5,-163.82C801.5,-153 801.5,-139.9 801.5,-131.51"/>
<polygon fill="midnightblue" stroke="midnightblue" points="798,-163.98 801.5,-173.98 805,-163.98 798,-163.98"/>
</g>
<!-- Node32 -->
<g id="node32" class="node">
<title>Node32</title>
<g id="a_node32"><a xlink:href="_smagorinsky_8_h.html" target="_top" xlink:title=" ">
<polygon fill="white" stroke="black" points="1042,-112.5 1042,-131.5 1131,-131.5 1131,-112.5 1042,-112.5"/>
<text text-anchor="middle" x="1086.5" y="-119.5" font-family="Helvetica,sans-Serif" font-size="10.00">Smagorinsky.H</text>
</a>
</g>
</g>
<!-- Node26&#45;&gt;Node32 -->
<g id="edge41" class="edge">
<title>Node26&#45;&gt;Node32</title>
<path fill="none" stroke="midnightblue" d="M845.77,-171.59C851.06,-170.35 856.4,-169.13 861.5,-168 923.93,-154.22 996.52,-140.03 1041.99,-131.36"/>
<polygon fill="midnightblue" stroke="midnightblue" points="844.63,-168.26 835.71,-173.98 846.25,-175.07 844.63,-168.26"/>
</g>
<!-- Node34 -->
<g id="node34" class="node">
<title>Node34</title>
<g id="a_node34"><a xlink:href="_k_omega_s_s_t_8_h.html" target="_top" xlink:title=" ">
<polygon fill="white" stroke="black" points="388.5,-112.5 388.5,-131.5 474.5,-131.5 474.5,-112.5 388.5,-112.5"/>
<text text-anchor="middle" x="431.5" y="-119.5" font-family="Helvetica,sans-Serif" font-size="10.00">KOmegaSST.H</text>
</a>
</g>
</g>
<!-- Node26&#45;&gt;Node34 -->
<g id="edge43" class="edge">
<title>Node26&#45;&gt;Node34</title>
<path fill="none" stroke="midnightblue" d="M740.6,-172.71C665.68,-160.66 540.36,-140.51 474.66,-129.94"/>
<polygon fill="midnightblue" stroke="midnightblue" points="740.4,-176.22 750.83,-174.35 741.51,-169.31 740.4,-176.22"/>
</g>
<!-- Node28 -->
<g id="node28" class="node">
<title>Node28</title>
<g id="a_node28"><a xlink:href="_a_m_d_8cpp.html" target="_top" xlink:title=" ">
<polygon fill="white" stroke="black" points="883.5,-56.5 883.5,-75.5 943.5,-75.5 943.5,-56.5 883.5,-56.5"/>
<text text-anchor="middle" x="913.5" y="-63.5" font-family="Helvetica,sans-Serif" font-size="10.00">AMD.cpp</text>
</a>
</g>
</g>
<!-- Node27&#45;&gt;Node28 -->
<g id="edge36" class="edge">
<title>Node27&#45;&gt;Node28</title>
<path fill="none" stroke="midnightblue" d="M894.84,-102.98C899.59,-93.82 905.16,-83.09 908.96,-75.75"/>
<polygon fill="midnightblue" stroke="midnightblue" points="891.62,-101.59 890.12,-112.08 897.83,-104.82 891.62,-101.59"/>
</g>
<!-- Node30 -->
<g id="node30" class="node">
<title>Node30</title>
<g id="a_node30"><a xlink:href="_a_m_d_no_therm_8cpp.html" target="_top" xlink:title=" ">
<polygon fill="white" stroke="black" points="962,-56.5 962,-75.5 1067,-75.5 1067,-56.5 962,-56.5"/>
<text text-anchor="middle" x="1014.5" y="-63.5" font-family="Helvetica,sans-Serif" font-size="10.00">AMDNoTherm.cpp</text>
</a>
</g>
</g>
<!-- Node29&#45;&gt;Node30 -->
<g id="edge38" class="edge">
<title>Node29&#45;&gt;Node30</title>
<path fill="none" stroke="midnightblue" d="M988.56,-103.86C995.14,-94.5 1003.01,-83.33 1008.34,-75.75"/>
<polygon fill="midnightblue" stroke="midnightblue" points="985.67,-101.89 982.77,-112.08 991.39,-105.92 985.67,-101.89"/>
</g>
<!-- Node31&#45;&gt;Node11 -->
<g id="edge40" class="edge">
<title>Node31&#45;&gt;Node11</title>
<path fill="none" stroke="midnightblue" d="M807.7,-102.4C810.71,-93.36 814.19,-82.94 816.58,-75.75"/>
<polygon fill="midnightblue" stroke="midnightblue" points="804.31,-101.49 804.47,-112.08 810.96,-103.7 804.31,-101.49"/>
</g>
<!-- Node33 -->
<g id="node33" class="node">
<title>Node33</title>
<g id="a_node33"><a xlink:href="_smagorinsky_8cpp.html" target="_top" xlink:title=" ">
<polygon fill="white" stroke="black" points="1085.5,-56.5 1085.5,-75.5 1183.5,-75.5 1183.5,-56.5 1085.5,-56.5"/>
<text text-anchor="middle" x="1134.5" y="-63.5" font-family="Helvetica,sans-Serif" font-size="10.00">Smagorinsky.cpp</text>
</a>
</g>
</g>
<!-- Node32&#45;&gt;Node33 -->
<g id="edge42" class="edge">
<title>Node32&#45;&gt;Node33</title>
<path fill="none" stroke="midnightblue" d="M1101.23,-104.43C1109.64,-94.97 1119.85,-83.48 1126.72,-75.75"/>
<polygon fill="midnightblue" stroke="midnightblue" points="1098.45,-102.28 1094.43,-112.08 1103.69,-106.93 1098.45,-102.28"/>
</g>
<!-- Node34&#45;&gt;Node5 -->
<g id="edge44" class="edge">
<title>Node34&#45;&gt;Node5</title>
<path fill="none" stroke="midnightblue" d="M432.35,-102.35C433.44,-78.25 435.3,-37.31 436.11,-19.59"/>
<polygon fill="midnightblue" stroke="midnightblue" points="428.85,-102.22 431.89,-112.37 435.84,-102.54 428.85,-102.22"/>
</g>
<!-- Node34&#45;&gt;Node6 -->
<g id="edge45" class="edge">
<title>Node34&#45;&gt;Node6</title>
<path fill="none" stroke="midnightblue" d="M415.21,-105C405.46,-95.43 393.45,-83.64 385.41,-75.75"/>
<polygon fill="midnightblue" stroke="midnightblue" points="412.83,-107.57 422.42,-112.08 417.73,-102.58 412.83,-107.57"/>
</g>
<!-- Node35 -->
<g id="node35" class="node">
<title>Node35</title>
<g id="a_node35"><a xlink:href="_k_omega_s_s_t_i_d_d_e_s_8_h.html" target="_top" xlink:title=" ">
<polygon fill="white" stroke="black" points="197.5,-56.5 197.5,-75.5 313.5,-75.5 313.5,-56.5 197.5,-56.5"/>
<text text-anchor="middle" x="255.5" y="-63.5" font-family="Helvetica,sans-Serif" font-size="10.00">KOmegaSSTIDDES.H</text>
</a>
</g>
</g>
<!-- Node34&#45;&gt;Node35 -->
<g id="edge46" class="edge">
<title>Node34&#45;&gt;Node35</title>
<path fill="none" stroke="midnightblue" d="M393.81,-109.44C360.63,-99.26 313.07,-84.66 283.26,-75.52"/>
<polygon fill="midnightblue" stroke="midnightblue" points="393.03,-112.86 403.61,-112.44 395.08,-106.16 393.03,-112.86"/>
</g>
<!-- Node35&#45;&gt;Node7 -->
<g id="edge47" class="edge">
<title>Node35&#45;&gt;Node7</title>
<path fill="none" stroke="midnightblue" d="M264.17,-46.98C268.59,-37.82 273.75,-27.09 277.29,-19.75"/>
<polygon fill="midnightblue" stroke="midnightblue" points="260.98,-45.55 259.79,-56.08 267.29,-48.59 260.98,-45.55"/>
</g>
</g>
</svg>
        <g id="navigator" transform="translate(0 0)" fill="#404254">
                <rect fill="#f2f5e9" fill-opacity="0.5" stroke="#606060" stroke-width=".5" x="0" y="0" width="60" height="60"/>
                <use id="zoomplus" xlink:href="#zoomPlus" x="17" y="9" onmousedown="handleZoom(evt,'in')"/>
                <use id="zoomminus" xlink:href="#zoomMin" x="42" y="9" onmousedown="handleZoom(evt,'out')"/>
                <use id="reset" xlink:href="#resetDef" x="30" y="36" onmousedown="handleReset()"/>
                <g id="arrowUp" xlink:href="#dirArrow" transform="translate(30 24)" onmousedown="handlePan(0,-1)">
                  <use xlink:href="#rim" fill="#404040">
                        <set attributeName="fill" to="#808080" begin="arrowUp.mouseover" end="arrowUp.mouseout"/>
                  </use>
                  <path fill="none" stroke="white" stroke-width="1.5" d="M0,-3.0v7 M-2.5,-0.5L0,-3.0L2.5,-0.5"/>
                </g>
                <g id="arrowRight" xlink:href="#dirArrow" transform="rotate(90) translate(36 -43)" onmousedown="handlePan(1,0)">
                  <use xlink:href="#rim" fill="#404040">
                        <set attributeName="fill" to="#808080" begin="arrowRight.mouseover" end="arrowRight.mouseout"/>
                  </use>
                  <path fill="none" stroke="white" stroke-width="1.5" d="M0,-3.0v7 M-2.5,-0.5L0,-3.0L2.5,-0.5"/>
                </g>
                <g id="arrowDown" xlink:href="#dirArrow" transform="rotate(180) translate(-30 -48)" onmousedown="handlePan(0,1)">
                  <use xlink:href="#rim" fill="#404040">
                        <set attributeName="fill" to="#808080" begin="arrowDown.mouseover" end="arrowDown.mouseout"/>
                  </use>
                  <path fill="none" stroke="white" stroke-width="1.5" d="M0,-3.0v7 M-2.5,-0.5L0,-3.0L2.5,-0.5"/>
                </g>
                <g id="arrowLeft" xlink:href="#dirArrow" transform="rotate(270) translate(-36 17)" onmousedown="handlePan(-1,0)">
                  <use xlink:href="#rim" fill="#404040">
                        <set attributeName="fill" to="#808080" begin="arrowLeft.mouseover" end="arrowLeft.mouseout"/>
                  </use>
                  <path fill="none" stroke="white" stroke-width="1.5" d="M0,-3.0v7 M-2.5,-0.5L0,-3.0L2.5,-0.5"/>
                </g>
        </g>
        <svg viewBox="0 0 15 15" width="100%" height="30px" preserveAspectRatio="xMaxYMin meet">
         <g id="arrow_out" transform="scale(0.3 0.3)">
          <a xlink:href="field__ops_8_h__dep__incl_org.svg" target="_base">
           <rect id="button" ry="5" rx="5" y="6" x="6" height="38" width="38"
                fill="#f2f5e9" fill-opacity="0.5" stroke="#606060" stroke-width="1.0"/>
           <path id="arrow"
             d="M 11.500037,31.436501 C 11.940474,20.09759 22.043105,11.32322 32.158766,21.979434 L 37.068811,17.246167 C 37.068811,17.246167 37.088388,32 37.088388,32 L 22.160133,31.978069 C 22.160133,31.978069 26.997745,27.140456 26.997745,27.140456 C 18.528582,18.264221 13.291696,25.230495 11.500037,31.436501 z"
             style="fill:#404040;"/>
          </a>
         </g>
        </svg>
</svg>
