<?xml version="1.0" encoding="UTF-8" standalone="no"?>
<!DOCTYPE svg PUBLIC "-//W3C//DTD SVG 1.1//EN"
 "http://www.w3.org/Graphics/SVG/1.1/DTD/svg11.dtd">
<!-- Generated by graphviz version 2.43.0 (0)
 -->
<!-- Title: fvm_utils.H Pages: 1 -->
<!--zoomable 252 -->
<svg id="main" version="1.1" xmlns="http://www.w3.org/2000/svg" xmlns:xlink="http://www.w3.org/1999/xlink" xml:space="preserve" onload="init(evt)">
<style type="text/css"><![CDATA[
.edge:hover path { stroke: red; }
.edge:hover polygon { stroke: red; fill: red; }
]]></style>
<script type="text/javascript"><![CDATA[
var edges = document.getElementsByTagName('g');
if (edges && edges.length) {
  for (var i=0;i<edges.length;i++) {
    if (edges[i].id.substr(0,4)=='edge') {
      edges[i].setAttribute('class','edge');
    }
  }
}
]]></script>
        <defs>
                <circle id="rim" cx="0" cy="0" r="7"/>
                <circle id="rim2" cx="0" cy="0" r="3.5"/>
                <g id="zoomPlus">
                        <use xlink:href="#rim" fill="#404040">
                                <set attributeName="fill" to="#808080" begin="zoomplus.mouseover" end="zoomplus.mouseout"/>
                        </use>
                        <path d="M-4,0h8M0,-4v8" fill="none" stroke="white" stroke-width="1.5" pointer-events="none"/>
                </g>
                <g id="zoomMin">
                        <use xlink:href="#rim" fill="#404040">
                                <set attributeName="fill" to="#808080" begin="zoomminus.mouseover" end="zoomminus.mouseout"/>
                        </use>
                        <path d="M-4,0h8" fill="none" stroke="white" stroke-width="1.5" pointer-events="none"/>
                </g>
                <g id="dirArrow">
                        <path fill="none" stroke="white" stroke-width="1.5" d="M0,-3.0v7 M-2.5,-0.5L0,-3.0L2.5,-0.5"/>
                </g>
               <g id="resetDef">
                       <use xlink:href="#rim2" fill="#404040">
                               <set attributeName="fill" to="#808080" begin="reset.mouseover" end="reset.mouseout"/>
                       </use>
               </g>
        </defs>

<script type="text/javascript">
var viewWidth = 1824;
var viewHeight = 252;
var sectionId = 'dynsection-1';
</script>
<script xlink:href="svgpan.js"/>
<svg id="graph" class="graph">
<g id="viewport">
<title>fvm_utils.H</title>
<polygon fill="white" stroke="transparent" points="-4,4 -4,-248 1819.5,-248 1819.5,4 -4,4"/>
<!-- Node1 -->
<g id="node1" class="node">
<title>Node1</title>
<g id="a_node1"><a xlink:title=" ">
<polygon fill="#bfbfbf" stroke="black" points="375,-224.5 375,-243.5 448,-243.5 448,-224.5 375,-224.5"/>
<text text-anchor="middle" x="411.5" y="-231.5" font-family="Helvetica,sans-Serif" font-size="10.00">fvm_utils.H</text>
</a>
</g>
</g>
<!-- Node2 -->
<g id="node2" class="node">
<title>Node2</title>
<g id="a_node2"><a xlink:href="curvature_8_h.html" target="_top" xlink:title=" ">
<polygon fill="white" stroke="black" points="278.5,-168.5 278.5,-187.5 352.5,-187.5 352.5,-168.5 278.5,-168.5"/>
<text text-anchor="middle" x="315.5" y="-175.5" font-family="Helvetica,sans-Serif" font-size="10.00">curvature.H</text>
</a>
</g>
</g>
<!-- Node1&#45;&gt;Node2 -->
<g id="edge1" class="edge">
<title>Node1&#45;&gt;Node2</title>
<path fill="none" stroke="midnightblue" d="M386.93,-219.18C369.26,-209.24 345.99,-196.15 330.89,-187.65"/>
<polygon fill="midnightblue" stroke="midnightblue" points="385.64,-222.47 396.08,-224.32 389.08,-216.37 385.64,-222.47"/>
</g>
<!-- Node5 -->
<g id="node5" class="node">
<title>Node5</title>
<g id="a_node5"><a xlink:href="divergence_8_h.html" target="_top" xlink:title=" ">
<polygon fill="white" stroke="black" points="371,-168.5 371,-187.5 452,-187.5 452,-168.5 371,-168.5"/>
<text text-anchor="middle" x="411.5" y="-175.5" font-family="Helvetica,sans-Serif" font-size="10.00">divergence.H</text>
</a>
</g>
</g>
<!-- Node1&#45;&gt;Node5 -->
<g id="edge4" class="edge">
<title>Node1&#45;&gt;Node5</title>
<path fill="none" stroke="midnightblue" d="M411.5,-213.8C411.5,-204.91 411.5,-194.78 411.5,-187.75"/>
<polygon fill="midnightblue" stroke="midnightblue" points="408,-214.08 411.5,-224.08 415,-214.08 408,-214.08"/>
</g>
<!-- Node6 -->
<g id="node6" class="node">
<title>Node6</title>
<g id="a_node6"><a xlink:href="filter_8_h.html" target="_top" xlink:title=" ">
<polygon fill="white" stroke="black" points="30,-168.5 30,-187.5 79,-187.5 79,-168.5 30,-168.5"/>
<text text-anchor="middle" x="54.5" y="-175.5" font-family="Helvetica,sans-Serif" font-size="10.00">filter.H</text>
</a>
</g>
</g>
<!-- Node1&#45;&gt;Node6 -->
<g id="edge6" class="edge">
<title>Node1&#45;&gt;Node6</title>
<path fill="none" stroke="midnightblue" d="M364.74,-228.41C301.46,-221.77 185.26,-208.03 87.5,-188 84.82,-187.45 82.04,-186.81 79.28,-186.13"/>
<polygon fill="midnightblue" stroke="midnightblue" points="364.49,-231.9 374.8,-229.45 365.21,-224.94 364.49,-231.9"/>
</g>
<!-- Node8 -->
<g id="node8" class="node">
<title>Node8</title>
<g id="a_node8"><a xlink:href="gradient_8_h.html" target="_top" xlink:title=" ">
<polygon fill="white" stroke="black" points="807.5,-168.5 807.5,-187.5 875.5,-187.5 875.5,-168.5 807.5,-168.5"/>
<text text-anchor="middle" x="841.5" y="-175.5" font-family="Helvetica,sans-Serif" font-size="10.00">gradient.H</text>
</a>
</g>
</g>
<!-- Node1&#45;&gt;Node8 -->
<g id="edge9" class="edge">
<title>Node1&#45;&gt;Node8</title>
<path fill="none" stroke="midnightblue" d="M458.29,-227.12C545.46,-216.18 730.79,-192.9 807.33,-183.29"/>
<polygon fill="midnightblue" stroke="midnightblue" points="457.65,-223.68 448.16,-228.4 458.52,-230.62 457.65,-223.68"/>
</g>
<!-- Node34 -->
<g id="node34" class="node">
<title>Node34</title>
<g id="a_node34"><a xlink:href="laplacian_8_h.html" target="_top" xlink:title=" ">
<polygon fill="white" stroke="black" points="97,-168.5 97,-187.5 168,-187.5 168,-168.5 97,-168.5"/>
<text text-anchor="middle" x="132.5" y="-175.5" font-family="Helvetica,sans-Serif" font-size="10.00">laplacian.H</text>
</a>
</g>
</g>
<!-- Node1&#45;&gt;Node34 -->
<g id="edge38" class="edge">
<title>Node1&#45;&gt;Node34</title>
<path fill="none" stroke="midnightblue" d="M364.66,-224.1C317.41,-215.09 242.36,-200.72 177.5,-188 174.53,-187.42 171.45,-186.81 168.36,-186.2"/>
<polygon fill="midnightblue" stroke="midnightblue" points="364.12,-227.56 374.6,-225.99 365.43,-220.68 364.12,-227.56"/>
</g>
<!-- Node35 -->
<g id="node35" class="node">
<title>Node35</title>
<g id="a_node35"><a xlink:href="qcriterion_8_h.html" target="_top" xlink:title=" ">
<polygon fill="white" stroke="black" points="186.5,-168.5 186.5,-187.5 260.5,-187.5 260.5,-168.5 186.5,-168.5"/>
<text text-anchor="middle" x="223.5" y="-175.5" font-family="Helvetica,sans-Serif" font-size="10.00">qcriterion.H</text>
</a>
</g>
</g>
<!-- Node1&#45;&gt;Node35 -->
<g id="edge40" class="edge">
<title>Node1&#45;&gt;Node35</title>
<path fill="none" stroke="midnightblue" d="M371.7,-221.57C336.23,-211.38 285.13,-196.7 253.15,-187.52"/>
<polygon fill="midnightblue" stroke="midnightblue" points="371.13,-225.05 381.71,-224.44 373.07,-218.32 371.13,-225.05"/>
</g>
<!-- Node36 -->
<g id="node36" class="node">
<title>Node36</title>
<g id="a_node36"><a xlink:href="strainrate_8_h.html" target="_top" xlink:title=" ">
<polygon fill="white" stroke="black" points="1336.5,-168.5 1336.5,-187.5 1410.5,-187.5 1410.5,-168.5 1336.5,-168.5"/>
<text text-anchor="middle" x="1373.5" y="-175.5" font-family="Helvetica,sans-Serif" font-size="10.00">strainrate.H</text>
</a>
</g>
</g>
<!-- Node1&#45;&gt;Node36 -->
<g id="edge42" class="edge">
<title>Node1&#45;&gt;Node36</title>
<path fill="none" stroke="midnightblue" d="M458.44,-230.37C625.1,-221.01 1186.45,-189.5 1336.41,-181.08"/>
<polygon fill="midnightblue" stroke="midnightblue" points="457.82,-226.89 448.04,-230.95 458.22,-233.88 457.82,-226.89"/>
</g>
<!-- Node38 -->
<g id="node38" class="node">
<title>Node38</title>
<g id="a_node38"><a xlink:href="vorticity_8_h.html" target="_top" xlink:title=" ">
<polygon fill="white" stroke="black" points="470.5,-168.5 470.5,-187.5 536.5,-187.5 536.5,-168.5 470.5,-168.5"/>
<text text-anchor="middle" x="503.5" y="-175.5" font-family="Helvetica,sans-Serif" font-size="10.00">vorticity.H</text>
</a>
</g>
</g>
<!-- Node1&#45;&gt;Node38 -->
<g id="edge48" class="edge">
<title>Node1&#45;&gt;Node38</title>
<path fill="none" stroke="midnightblue" d="M435.05,-219.18C451.98,-209.24 474.28,-196.15 488.76,-187.65"/>
<polygon fill="midnightblue" stroke="midnightblue" points="433.13,-216.24 426.28,-224.32 436.68,-222.28 433.13,-216.24"/>
</g>
<!-- Node39 -->
<g id="node39" class="node">
<title>Node39</title>
<g id="a_node39"><a xlink:href="vorticity__mag_8_h.html" target="_top" xlink:title=" ">
<polygon fill="white" stroke="black" points="1090,-168.5 1090,-187.5 1185,-187.5 1185,-168.5 1090,-168.5"/>
<text text-anchor="middle" x="1137.5" y="-175.5" font-family="Helvetica,sans-Serif" font-size="10.00">vorticity_mag.H</text>
</a>
</g>
</g>
<!-- Node1&#45;&gt;Node39 -->
<g id="edge51" class="edge">
<title>Node1&#45;&gt;Node39</title>
<path fill="none" stroke="midnightblue" d="M458.62,-229.5C589.67,-219.75 957.49,-192.39 1089.54,-182.57"/>
<polygon fill="midnightblue" stroke="midnightblue" points="458.21,-226.02 448.5,-230.25 458.73,-233 458.21,-226.02"/>
</g>
<!-- Node3 -->
<g id="node3" class="node">
<title>Node3</title>
<g id="a_node3"><a xlink:href="fvm_8_h.html" target="_top" xlink:title=" ">
<polygon fill="white" stroke="black" points="109,-112.5 109,-131.5 156,-131.5 156,-112.5 109,-112.5"/>
<text text-anchor="middle" x="132.5" y="-119.5" font-family="Helvetica,sans-Serif" font-size="10.00">fvm.H</text>
</a>
</g>
</g>
<!-- Node2&#45;&gt;Node3 -->
<g id="edge2" class="edge">
<title>Node2&#45;&gt;Node3</title>
<path fill="none" stroke="midnightblue" d="M276.68,-165.55C240.16,-154.77 186.64,-138.97 156.12,-129.97"/>
<polygon fill="midnightblue" stroke="midnightblue" points="275.92,-168.97 286.5,-168.44 277.9,-162.26 275.92,-168.97"/>
</g>
<!-- Node4 -->
<g id="node4" class="node">
<title>Node4</title>
<g id="a_node4"><a xlink:href="_derived_qty_defs_8cpp.html" target="_top" xlink:title=" ">
<polygon fill="white" stroke="black" points="75,-56.5 75,-75.5 190,-75.5 190,-56.5 75,-56.5"/>
<text text-anchor="middle" x="132.5" y="-63.5" font-family="Helvetica,sans-Serif" font-size="10.00">DerivedQtyDefs.cpp</text>
</a>
</g>
</g>
<!-- Node3&#45;&gt;Node4 -->
<g id="edge3" class="edge">
<title>Node3&#45;&gt;Node4</title>
<path fill="none" stroke="midnightblue" d="M132.5,-101.8C132.5,-92.91 132.5,-82.78 132.5,-75.75"/>
<polygon fill="midnightblue" stroke="midnightblue" points="129,-102.08 132.5,-112.08 136,-102.08 129,-102.08"/>
</g>
<!-- Node5&#45;&gt;Node3 -->
<g id="edge5" class="edge">
<title>Node5&#45;&gt;Node3</title>
<path fill="none" stroke="midnightblue" d="M360.91,-167.86C291.71,-155.34 174.98,-134.16 165.5,-132 162.49,-131.32 159.34,-130.54 156.23,-129.73"/>
<polygon fill="midnightblue" stroke="midnightblue" points="360.29,-171.3 370.76,-169.64 361.54,-164.42 360.29,-171.3"/>
</g>
<!-- Node6&#45;&gt;Node3 -->
<g id="edge7" class="edge">
<title>Node6&#45;&gt;Node3</title>
<path fill="none" stroke="midnightblue" d="M75.27,-162.62C89.52,-152.76 107.96,-139.99 120,-131.65"/>
<polygon fill="midnightblue" stroke="midnightblue" points="73.26,-159.75 67.03,-168.32 77.25,-165.51 73.26,-159.75"/>
</g>
<!-- Node7 -->
<g id="node7" class="node">
<title>Node7</title>
<g id="a_node7"><a xlink:href="_multi_phase_8cpp.html" target="_top" xlink:title=" ">
<polygon fill="white" stroke="black" points="0,-112.5 0,-131.5 91,-131.5 91,-112.5 0,-112.5"/>
<text text-anchor="middle" x="45.5" y="-119.5" font-family="Helvetica,sans-Serif" font-size="10.00">MultiPhase.cpp</text>
</a>
</g>
</g>
<!-- Node6&#45;&gt;Node7 -->
<g id="edge8" class="edge">
<title>Node6&#45;&gt;Node7</title>
<path fill="none" stroke="midnightblue" d="M51.35,-158.1C49.86,-149.14 48.14,-138.86 46.96,-131.75"/>
<polygon fill="midnightblue" stroke="midnightblue" points="47.92,-158.79 53.01,-168.08 54.82,-157.64 47.92,-158.79"/>
</g>
<!-- Node8&#45;&gt;Node3 -->
<g id="edge10" class="edge">
<title>Node8&#45;&gt;Node3</title>
<path fill="none" stroke="midnightblue" d="M797.14,-175.21C667,-169.76 287.76,-152.53 165.5,-132 162.45,-131.49 159.28,-130.81 156.17,-130.06"/>
<polygon fill="midnightblue" stroke="midnightblue" points="797.02,-178.7 807.15,-175.62 797.31,-171.71 797.02,-178.7"/>
</g>
<!-- Node9 -->
<g id="node9" class="node">
<title>Node9</title>
<g id="a_node9"><a xlink:href="bluff__body__ops_8cpp.html" target="_top" xlink:title=" ">
<polygon fill="white" stroke="black" points="646.5,-56.5 646.5,-75.5 756.5,-75.5 756.5,-56.5 646.5,-56.5"/>
<text text-anchor="middle" x="701.5" y="-63.5" font-family="Helvetica,sans-Serif" font-size="10.00">bluff_body_ops.cpp</text>
</a>
</g>
</g>
<!-- Node8&#45;&gt;Node9 -->
<g id="edge11" class="edge">
<title>Node8&#45;&gt;Node9</title>
<path fill="none" stroke="midnightblue" d="M864.56,-162.76C883.14,-149.49 904.11,-129.23 890.5,-112 881.77,-100.95 804,-85.17 750.98,-75.53"/>
<polygon fill="midnightblue" stroke="midnightblue" points="862.39,-160 856.06,-168.49 866.31,-165.8 862.39,-160"/>
</g>
<!-- Node10 -->
<g id="node10" class="node">
<title>Node10</title>
<g id="a_node10"><a xlink:href="bluff__body__ops_8_h.html" target="_top" xlink:title=" ">
<polygon fill="white" stroke="black" points="938,-112.5 938,-131.5 1039,-131.5 1039,-112.5 938,-112.5"/>
<text text-anchor="middle" x="988.5" y="-119.5" font-family="Helvetica,sans-Serif" font-size="10.00">bluff_body_ops.H</text>
</a>
</g>
</g>
<!-- Node8&#45;&gt;Node10 -->
<g id="edge12" class="edge">
<title>Node8&#45;&gt;Node10</title>
<path fill="none" stroke="midnightblue" d="M874.42,-164.91C902.06,-154.75 940.84,-140.51 965.32,-131.52"/>
<polygon fill="midnightblue" stroke="midnightblue" points="872.97,-161.71 864.79,-168.44 875.39,-168.28 872.97,-161.71"/>
</g>
<!-- Node17 -->
<g id="node17" class="node">
<title>Node17</title>
<g id="a_node17"><a xlink:href="relaxation__zones__ops_8cpp.html" target="_top" xlink:title=" ">
<polygon fill="white" stroke="black" points="1069,-56.5 1069,-75.5 1212,-75.5 1212,-56.5 1069,-56.5"/>
<text text-anchor="middle" x="1140.5" y="-63.5" font-family="Helvetica,sans-Serif" font-size="10.00">relaxation_zones_ops.cpp</text>
</a>
</g>
</g>
<!-- Node8&#45;&gt;Node17 -->
<g id="edge20" class="edge">
<title>Node8&#45;&gt;Node17</title>
<path fill="none" stroke="midnightblue" d="M885.92,-172.55C928.95,-167.06 995.32,-155.4 1048.5,-132 1081.79,-117.35 1115.27,-89.67 1131.09,-75.64"/>
<polygon fill="midnightblue" stroke="midnightblue" points="885.27,-169.11 875.77,-173.79 886.12,-176.05 885.27,-169.11"/>
</g>
<!-- Node18 -->
<g id="node18" class="node">
<title>Node18</title>
<g id="a_node18"><a xlink:href="relaxation__zones__ops_8_h.html" target="_top" xlink:title=" ">
<polygon fill="white" stroke="black" points="1096,-112.5 1096,-131.5 1229,-131.5 1229,-112.5 1096,-112.5"/>
<text text-anchor="middle" x="1162.5" y="-119.5" font-family="Helvetica,sans-Serif" font-size="10.00">relaxation_zones_ops.H</text>
</a>
</g>
</g>
<!-- Node8&#45;&gt;Node18 -->
<g id="edge21" class="edge">
<title>Node8&#45;&gt;Node18</title>
<path fill="none" stroke="midnightblue" d="M885.69,-169.57C944.82,-159.62 1049.44,-142.02 1111.74,-131.54"/>
<polygon fill="midnightblue" stroke="midnightblue" points="884.83,-166.16 875.55,-171.27 885.99,-173.06 884.83,-166.16"/>
</g>
<!-- Node25 -->
<g id="node25" class="node">
<title>Node25</title>
<g id="a_node25"><a xlink:href="_dam_break_8cpp.html" target="_top" xlink:title=" ">
<polygon fill="white" stroke="black" points="174,-112.5 174,-131.5 263,-131.5 263,-112.5 174,-112.5"/>
<text text-anchor="middle" x="218.5" y="-119.5" font-family="Helvetica,sans-Serif" font-size="10.00">DamBreak.cpp</text>
</a>
</g>
</g>
<!-- Node8&#45;&gt;Node25 -->
<g id="edge29" class="edge">
<title>Node8&#45;&gt;Node25</title>
<path fill="none" stroke="midnightblue" d="M797.21,-174.8C701.3,-169.75 467.32,-155.89 272.5,-132 269.48,-131.63 266.37,-131.21 263.25,-130.76"/>
<polygon fill="midnightblue" stroke="midnightblue" points="797.24,-178.31 807.41,-175.33 797.6,-171.32 797.24,-178.31"/>
</g>
<!-- Node26 -->
<g id="node26" class="node">
<title>Node26</title>
<g id="a_node26"><a xlink:href="_sloshing_tank_8cpp.html" target="_top" xlink:title=" ">
<polygon fill="white" stroke="black" points="281,-112.5 281,-131.5 382,-131.5 382,-112.5 281,-112.5"/>
<text text-anchor="middle" x="331.5" y="-119.5" font-family="Helvetica,sans-Serif" font-size="10.00">SloshingTank.cpp</text>
</a>
</g>
</g>
<!-- Node8&#45;&gt;Node26 -->
<g id="edge30" class="edge">
<title>Node8&#45;&gt;Node26</title>
<path fill="none" stroke="midnightblue" d="M796.98,-173.28C716.09,-166.36 539.69,-150.51 391.5,-132 388.47,-131.62 385.35,-131.21 382.21,-130.79"/>
<polygon fill="midnightblue" stroke="midnightblue" points="797.02,-176.8 807.28,-174.16 797.62,-169.82 797.02,-176.8"/>
</g>
<!-- Node27 -->
<g id="node27" class="node">
<title>Node27</title>
<g id="a_node27"><a xlink:href="_zalesak_disk_8cpp.html" target="_top" xlink:title=" ">
<polygon fill="white" stroke="black" points="400.5,-112.5 400.5,-131.5 498.5,-131.5 498.5,-112.5 400.5,-112.5"/>
<text text-anchor="middle" x="449.5" y="-119.5" font-family="Helvetica,sans-Serif" font-size="10.00">ZalesakDisk.cpp</text>
</a>
</g>
</g>
<!-- Node8&#45;&gt;Node27 -->
<g id="edge31" class="edge">
<title>Node8&#45;&gt;Node27</title>
<path fill="none" stroke="midnightblue" d="M797.33,-171.28C733.53,-162.95 611.88,-146.87 508.5,-132 505.32,-131.54 502.05,-131.06 498.75,-130.58"/>
<polygon fill="midnightblue" stroke="midnightblue" points="797.07,-174.77 807.44,-172.59 797.97,-167.83 797.07,-174.77"/>
</g>
<!-- Node28 -->
<g id="node28" class="node">
<title>Node28</title>
<g id="a_node28"><a xlink:href="_zalesak_disk_scalar_vel_8cpp.html" target="_top" xlink:title=" ">
<polygon fill="white" stroke="black" points="517,-112.5 517,-131.5 660,-131.5 660,-112.5 517,-112.5"/>
<text text-anchor="middle" x="588.5" y="-119.5" font-family="Helvetica,sans-Serif" font-size="10.00">ZalesakDiskScalarVel.cpp</text>
</a>
</g>
</g>
<!-- Node8&#45;&gt;Node28 -->
<g id="edge32" class="edge">
<title>Node8&#45;&gt;Node28</title>
<path fill="none" stroke="midnightblue" d="M797.38,-167.58C749.81,-157.43 674.75,-141.41 628.75,-131.59"/>
<polygon fill="midnightblue" stroke="midnightblue" points="796.87,-171.05 807.38,-169.72 798.33,-164.21 796.87,-171.05"/>
</g>
<!-- Node29 -->
<g id="node29" class="node">
<title>Node29</title>
<g id="a_node29"><a xlink:href="_a_m_d_no_therm_8cpp.html" target="_top" xlink:title=" ">
<polygon fill="white" stroke="black" points="678,-112.5 678,-131.5 783,-131.5 783,-112.5 678,-112.5"/>
<text text-anchor="middle" x="730.5" y="-119.5" font-family="Helvetica,sans-Serif" font-size="10.00">AMDNoTherm.cpp</text>
</a>
</g>
</g>
<!-- Node8&#45;&gt;Node29 -->
<g id="edge33" class="edge">
<title>Node8&#45;&gt;Node29</title>
<path fill="none" stroke="midnightblue" d="M814.49,-163.86C793.91,-153.85 766.16,-140.35 748.29,-131.65"/>
<polygon fill="midnightblue" stroke="midnightblue" points="813.14,-167.1 823.67,-168.32 816.2,-160.8 813.14,-167.1"/>
</g>
<!-- Node30 -->
<g id="node30" class="node">
<title>Node30</title>
<g id="a_node30"><a xlink:href="_one_eq_ksgs_8cpp.html" target="_top" xlink:title=" ">
<polygon fill="white" stroke="black" points="1391.5,-112.5 1391.5,-131.5 1483.5,-131.5 1483.5,-112.5 1391.5,-112.5"/>
<text text-anchor="middle" x="1437.5" y="-119.5" font-family="Helvetica,sans-Serif" font-size="10.00">OneEqKsgs.cpp</text>
</a>
</g>
</g>
<!-- Node8&#45;&gt;Node30 -->
<g id="edge34" class="edge">
<title>Node8&#45;&gt;Node30</title>
<path fill="none" stroke="midnightblue" d="M885.9,-174.5C978.47,-169.03 1198.76,-154.64 1382.5,-132 1385.38,-131.65 1388.34,-131.25 1391.32,-130.83"/>
<polygon fill="midnightblue" stroke="midnightblue" points="885.55,-171.02 875.78,-175.09 885.96,-178 885.55,-171.02"/>
</g>
<!-- Node31 -->
<g id="node31" class="node">
<title>Node31</title>
<g id="a_node31"><a xlink:href="_k_omega_s_s_t_8cpp.html" target="_top" xlink:title=" ">
<polygon fill="white" stroke="black" points="1502,-112.5 1502,-131.5 1597,-131.5 1597,-112.5 1502,-112.5"/>
<text text-anchor="middle" x="1549.5" y="-119.5" font-family="Helvetica,sans-Serif" font-size="10.00">KOmegaSST.cpp</text>
</a>
</g>
</g>
<!-- Node8&#45;&gt;Node31 -->
<g id="edge35" class="edge">
<title>Node8&#45;&gt;Node31</title>
<path fill="none" stroke="midnightblue" d="M886.11,-175.26C991.73,-170.86 1265.31,-157.74 1492.5,-132 1495.59,-131.65 1498.76,-131.25 1501.96,-130.83"/>
<polygon fill="midnightblue" stroke="midnightblue" points="885.68,-171.78 875.83,-175.69 885.96,-178.77 885.68,-171.78"/>
</g>
<!-- Node32 -->
<g id="node32" class="node">
<title>Node32</title>
<g id="a_node32"><a xlink:href="_k_omega_s_s_t_i_d_d_e_s_8cpp.html" target="_top" xlink:title=" ">
<polygon fill="white" stroke="black" points="1247.5,-112.5 1247.5,-131.5 1373.5,-131.5 1373.5,-112.5 1247.5,-112.5"/>
<text text-anchor="middle" x="1310.5" y="-119.5" font-family="Helvetica,sans-Serif" font-size="10.00">KOmegaSSTIDDES.cpp</text>
</a>
</g>
</g>
<!-- Node8&#45;&gt;Node32 -->
<g id="edge36" class="edge">
<title>Node8&#45;&gt;Node32</title>
<path fill="none" stroke="midnightblue" d="M885.75,-172.15C959.09,-164.08 1110.48,-147.26 1238.5,-132 1241.38,-131.66 1244.32,-131.3 1247.29,-130.94"/>
<polygon fill="midnightblue" stroke="midnightblue" points="885.06,-168.71 875.5,-173.28 885.83,-175.66 885.06,-168.71"/>
</g>
<!-- Node33 -->
<g id="node33" class="node">
<title>Node33</title>
<g id="a_node33"><a xlink:href="_a_b_l_stats_8cpp.html" target="_top" xlink:title=" ">
<polygon fill="white" stroke="black" points="801.5,-112.5 801.5,-131.5 881.5,-131.5 881.5,-112.5 801.5,-112.5"/>
<text text-anchor="middle" x="841.5" y="-119.5" font-family="Helvetica,sans-Serif" font-size="10.00">ABLStats.cpp</text>
</a>
</g>
</g>
<!-- Node8&#45;&gt;Node33 -->
<g id="edge37" class="edge">
<title>Node8&#45;&gt;Node33</title>
<path fill="none" stroke="midnightblue" d="M841.5,-157.8C841.5,-148.91 841.5,-138.78 841.5,-131.75"/>
<polygon fill="midnightblue" stroke="midnightblue" points="838,-158.08 841.5,-168.08 845,-158.08 838,-158.08"/>
</g>
<!-- Node10&#45;&gt;Node9 -->
<g id="edge13" class="edge">
<title>Node10&#45;&gt;Node9</title>
<path fill="none" stroke="midnightblue" d="M932.89,-110.54C878.65,-100.33 797.16,-85 746.76,-75.52"/>
<polygon fill="midnightblue" stroke="midnightblue" points="932.55,-114.03 943.02,-112.44 933.84,-107.15 932.55,-114.03"/>
</g>
<!-- Node11 -->
<g id="node11" class="node">
<title>Node11</title>
<g id="a_node11"><a xlink:href="box__ops_8_h.html" target="_top" xlink:title=" ">
<polygon fill="white" stroke="black" points="774.5,-56.5 774.5,-75.5 842.5,-75.5 842.5,-56.5 774.5,-56.5"/>
<text text-anchor="middle" x="808.5" y="-63.5" font-family="Helvetica,sans-Serif" font-size="10.00">box_ops.H</text>
</a>
</g>
</g>
<!-- Node10&#45;&gt;Node11 -->
<g id="edge14" class="edge">
<title>Node10&#45;&gt;Node11</title>
<path fill="none" stroke="midnightblue" d="M950.39,-109.57C916.44,-99.38 867.51,-84.7 836.89,-75.52"/>
<polygon fill="midnightblue" stroke="midnightblue" points="949.39,-112.92 959.98,-112.44 951.41,-106.22 949.39,-112.92"/>
</g>
<!-- Node13 -->
<g id="node13" class="node">
<title>Node13</title>
<g id="a_node13"><a xlink:href="cylinder__ops_8_h.html" target="_top" xlink:title=" ">
<polygon fill="white" stroke="black" points="861,-56.5 861,-75.5 950,-75.5 950,-56.5 861,-56.5"/>
<text text-anchor="middle" x="905.5" y="-63.5" font-family="Helvetica,sans-Serif" font-size="10.00">cylinder_ops.H</text>
</a>
</g>
</g>
<!-- Node10&#45;&gt;Node13 -->
<g id="edge16" class="edge">
<title>Node10&#45;&gt;Node13</title>
<path fill="none" stroke="midnightblue" d="M966.4,-106.62C951.24,-96.76 931.62,-83.99 918.8,-75.65"/>
<polygon fill="midnightblue" stroke="midnightblue" points="964.87,-109.8 975.16,-112.32 968.69,-103.94 964.87,-109.8"/>
</g>
<!-- Node15 -->
<g id="node15" class="node">
<title>Node15</title>
<g id="a_node15"><a xlink:href="sphere__ops_8_h.html" target="_top" xlink:title=" ">
<polygon fill="white" stroke="black" points="968,-56.5 968,-75.5 1051,-75.5 1051,-56.5 968,-56.5"/>
<text text-anchor="middle" x="1009.5" y="-63.5" font-family="Helvetica,sans-Serif" font-size="10.00">sphere_ops.H</text>
</a>
</g>
</g>
<!-- Node10&#45;&gt;Node15 -->
<g id="edge18" class="edge">
<title>Node10&#45;&gt;Node15</title>
<path fill="none" stroke="midnightblue" d="M995.62,-102.69C999.16,-93.59 1003.27,-83.01 1006.1,-75.75"/>
<polygon fill="midnightblue" stroke="midnightblue" points="992.33,-101.49 991.97,-112.08 998.85,-104.03 992.33,-101.49"/>
</g>
<!-- Node12 -->
<g id="node12" class="node">
<title>Node12</title>
<g id="a_node12"><a xlink:href="_box_8cpp.html" target="_top" xlink:title=" ">
<polygon fill="white" stroke="black" points="780.5,-0.5 780.5,-19.5 836.5,-19.5 836.5,-0.5 780.5,-0.5"/>
<text text-anchor="middle" x="808.5" y="-7.5" font-family="Helvetica,sans-Serif" font-size="10.00">Box.cpp</text>
</a>
</g>
</g>
<!-- Node11&#45;&gt;Node12 -->
<g id="edge15" class="edge">
<title>Node11&#45;&gt;Node12</title>
<path fill="none" stroke="midnightblue" d="M808.5,-45.8C808.5,-36.91 808.5,-26.78 808.5,-19.75"/>
<polygon fill="midnightblue" stroke="midnightblue" points="805,-46.08 808.5,-56.08 812,-46.08 805,-46.08"/>
</g>
<!-- Node14 -->
<g id="node14" class="node">
<title>Node14</title>
<g id="a_node14"><a xlink:href="_cylinder_8cpp.html" target="_top" xlink:title=" ">
<polygon fill="white" stroke="black" points="867,-0.5 867,-19.5 944,-19.5 944,-0.5 867,-0.5"/>
<text text-anchor="middle" x="905.5" y="-7.5" font-family="Helvetica,sans-Serif" font-size="10.00">Cylinder.cpp</text>
</a>
</g>
</g>
<!-- Node13&#45;&gt;Node14 -->
<g id="edge17" class="edge">
<title>Node13&#45;&gt;Node14</title>
<path fill="none" stroke="midnightblue" d="M905.5,-45.8C905.5,-36.91 905.5,-26.78 905.5,-19.75"/>
<polygon fill="midnightblue" stroke="midnightblue" points="902,-46.08 905.5,-56.08 909,-46.08 902,-46.08"/>
</g>
<!-- Node16 -->
<g id="node16" class="node">
<title>Node16</title>
<g id="a_node16"><a xlink:href="_sphere_8cpp.html" target="_top" xlink:title=" ">
<polygon fill="white" stroke="black" points="974,-0.5 974,-19.5 1045,-19.5 1045,-0.5 974,-0.5"/>
<text text-anchor="middle" x="1009.5" y="-7.5" font-family="Helvetica,sans-Serif" font-size="10.00">Sphere.cpp</text>
</a>
</g>
</g>
<!-- Node15&#45;&gt;Node16 -->
<g id="edge19" class="edge">
<title>Node15&#45;&gt;Node16</title>
<path fill="none" stroke="midnightblue" d="M1009.5,-45.8C1009.5,-36.91 1009.5,-26.78 1009.5,-19.75"/>
<polygon fill="midnightblue" stroke="midnightblue" points="1006,-46.08 1009.5,-56.08 1013,-46.08 1006,-46.08"/>
</g>
<!-- Node18&#45;&gt;Node17 -->
<g id="edge26" class="edge">
<title>Node18&#45;&gt;Node17</title>
<path fill="none" stroke="midnightblue" d="M1155.04,-102.69C1151.33,-93.59 1147.02,-83.01 1144.07,-75.75"/>
<polygon fill="midnightblue" stroke="midnightblue" points="1151.85,-104.14 1158.87,-112.08 1158.34,-101.5 1151.85,-104.14"/>
</g>
<!-- Node19 -->
<g id="node19" class="node">
<title>Node19</title>
<g id="a_node19"><a xlink:href="hos__waves__ops_8_h.html" target="_top" xlink:title=" ">
<polygon fill="white" stroke="black" points="1230.5,-56.5 1230.5,-75.5 1334.5,-75.5 1334.5,-56.5 1230.5,-56.5"/>
<text text-anchor="middle" x="1282.5" y="-63.5" font-family="Helvetica,sans-Serif" font-size="10.00">hos_waves_ops.H</text>
</a>
</g>
</g>
<!-- Node18&#45;&gt;Node19 -->
<g id="edge22" class="edge">
<title>Node18&#45;&gt;Node19</title>
<path fill="none" stroke="midnightblue" d="M1190.87,-108.23C1213.32,-98.13 1244.04,-84.31 1263.57,-75.52"/>
<polygon fill="midnightblue" stroke="midnightblue" points="1189.2,-105.15 1181.51,-112.44 1192.07,-111.53 1189.2,-105.15"/>
</g>
<!-- Node21 -->
<g id="node21" class="node">
<title>Node21</title>
<g id="a_node21"><a xlink:href="linear__waves__ops_8_h.html" target="_top" xlink:title=" ">
<polygon fill="white" stroke="black" points="1352.5,-56.5 1352.5,-75.5 1466.5,-75.5 1466.5,-56.5 1352.5,-56.5"/>
<text text-anchor="middle" x="1409.5" y="-63.5" font-family="Helvetica,sans-Serif" font-size="10.00">linear_waves_ops.H</text>
</a>
</g>
</g>
<!-- Node18&#45;&gt;Node21 -->
<g id="edge24" class="edge">
<title>Node18&#45;&gt;Node21</title>
<path fill="none" stroke="midnightblue" d="M1211.53,-110.28C1258.2,-100.08 1327.53,-84.92 1370.55,-75.52"/>
<polygon fill="midnightblue" stroke="midnightblue" points="1210.66,-106.89 1201.64,-112.44 1212.15,-113.73 1210.66,-106.89"/>
</g>
<!-- Node23 -->
<g id="node23" class="node">
<title>Node23</title>
<g id="a_node23"><a xlink:href="stokes__waves__ops_8_h.html" target="_top" xlink:title=" ">
<polygon fill="white" stroke="black" points="1484.5,-56.5 1484.5,-75.5 1602.5,-75.5 1602.5,-56.5 1484.5,-56.5"/>
<text text-anchor="middle" x="1543.5" y="-63.5" font-family="Helvetica,sans-Serif" font-size="10.00">stokes_waves_ops.H</text>
</a>
</g>
</g>
<!-- Node18&#45;&gt;Node23 -->
<g id="edge27" class="edge">
<title>Node18&#45;&gt;Node23</title>
<path fill="none" stroke="midnightblue" d="M1232.8,-111.04C1305.1,-100.79 1416.43,-85.01 1484.35,-75.38"/>
<polygon fill="midnightblue" stroke="midnightblue" points="1232.28,-107.57 1222.87,-112.44 1233.26,-114.51 1232.28,-107.57"/>
</g>
<!-- Node20 -->
<g id="node20" class="node">
<title>Node20</title>
<g id="a_node20"><a xlink:href="_h_o_s_waves_8cpp.html" target="_top" xlink:title=" ">
<polygon fill="white" stroke="black" points="1237.5,-0.5 1237.5,-19.5 1327.5,-19.5 1327.5,-0.5 1237.5,-0.5"/>
<text text-anchor="middle" x="1282.5" y="-7.5" font-family="Helvetica,sans-Serif" font-size="10.00">HOSWaves.cpp</text>
</a>
</g>
</g>
<!-- Node19&#45;&gt;Node20 -->
<g id="edge23" class="edge">
<title>Node19&#45;&gt;Node20</title>
<path fill="none" stroke="midnightblue" d="M1282.5,-45.8C1282.5,-36.91 1282.5,-26.78 1282.5,-19.75"/>
<polygon fill="midnightblue" stroke="midnightblue" points="1279,-46.08 1282.5,-56.08 1286,-46.08 1279,-46.08"/>
</g>
<!-- Node22 -->
<g id="node22" class="node">
<title>Node22</title>
<g id="a_node22"><a xlink:href="_linear_waves_8cpp.html" target="_top" xlink:title=" ">
<polygon fill="white" stroke="black" points="1360,-0.5 1360,-19.5 1459,-19.5 1459,-0.5 1360,-0.5"/>
<text text-anchor="middle" x="1409.5" y="-7.5" font-family="Helvetica,sans-Serif" font-size="10.00">LinearWaves.cpp</text>
</a>
</g>
</g>
<!-- Node21&#45;&gt;Node22 -->
<g id="edge25" class="edge">
<title>Node21&#45;&gt;Node22</title>
<path fill="none" stroke="midnightblue" d="M1409.5,-45.8C1409.5,-36.91 1409.5,-26.78 1409.5,-19.75"/>
<polygon fill="midnightblue" stroke="midnightblue" points="1406,-46.08 1409.5,-56.08 1413,-46.08 1406,-46.08"/>
</g>
<!-- Node24 -->
<g id="node24" class="node">
<title>Node24</title>
<g id="a_node24"><a xlink:href="_stokes_waves_8cpp.html" target="_top" xlink:title=" ">
<polygon fill="white" stroke="black" points="1493,-0.5 1493,-19.5 1594,-19.5 1594,-0.5 1493,-0.5"/>
<text text-anchor="middle" x="1543.5" y="-7.5" font-family="Helvetica,sans-Serif" font-size="10.00">StokesWaves.cpp</text>
</a>
</g>
</g>
<!-- Node23&#45;&gt;Node24 -->
<g id="edge28" class="edge">
<title>Node23&#45;&gt;Node24</title>
<path fill="none" stroke="midnightblue" d="M1543.5,-45.8C1543.5,-36.91 1543.5,-26.78 1543.5,-19.75"/>
<polygon fill="midnightblue" stroke="midnightblue" points="1540,-46.08 1543.5,-56.08 1547,-46.08 1540,-46.08"/>
</g>
<!-- Node34&#45;&gt;Node3 -->
<g id="edge39" class="edge">
<title>Node34&#45;&gt;Node3</title>
<path fill="none" stroke="midnightblue" d="M132.5,-157.8C132.5,-148.91 132.5,-138.78 132.5,-131.75"/>
<polygon fill="midnightblue" stroke="midnightblue" points="129,-158.08 132.5,-168.08 136,-158.08 129,-158.08"/>
</g>
<!-- Node35&#45;&gt;Node3 -->
<g id="edge41" class="edge">
<title>Node35&#45;&gt;Node3</title>
<path fill="none" stroke="midnightblue" d="M200.21,-163.18C183.46,-153.24 161.4,-140.15 147.08,-131.65"/>
<polygon fill="midnightblue" stroke="midnightblue" points="198.49,-166.23 208.88,-168.32 202.07,-160.21 198.49,-166.23"/>
</g>
<!-- Node36&#45;&gt;Node3 -->
<g id="edge43" class="edge">
<title>Node36&#45;&gt;Node3</title>
<path fill="none" stroke="midnightblue" d="M1326.25,-174.43C1290.17,-172.51 1239.21,-169.91 1194.5,-168 965.9,-158.25 391.72,-166.33 165.5,-132 162.45,-131.54 159.27,-130.89 156.15,-130.15"/>
<polygon fill="midnightblue" stroke="midnightblue" points="1326.31,-177.94 1336.48,-174.97 1326.68,-170.95 1326.31,-177.94"/>
</g>
<!-- Node36&#45;&gt;Node30 -->
<g id="edge44" class="edge">
<title>Node36&#45;&gt;Node30</title>
<path fill="none" stroke="midnightblue" d="M1391.49,-161.82C1402.96,-152.15 1417.41,-139.95 1427.03,-131.83"/>
<polygon fill="midnightblue" stroke="midnightblue" points="1389.17,-159.2 1383.78,-168.32 1393.68,-164.55 1389.17,-159.2"/>
</g>
<!-- Node36&#45;&gt;Node31 -->
<g id="edge46" class="edge">
<title>Node36&#45;&gt;Node31</title>
<path fill="none" stroke="midnightblue" d="M1411.19,-165.44C1444.37,-155.26 1491.93,-140.66 1521.74,-131.52"/>
<polygon fill="midnightblue" stroke="midnightblue" points="1409.92,-162.16 1401.39,-168.44 1411.97,-168.86 1409.92,-162.16"/>
</g>
<!-- Node36&#45;&gt;Node32 -->
<g id="edge47" class="edge">
<title>Node36&#45;&gt;Node32</title>
<path fill="none" stroke="midnightblue" d="M1355.46,-161.54C1344.23,-151.91 1330.18,-139.87 1320.81,-131.83"/>
<polygon fill="midnightblue" stroke="midnightblue" points="1353.51,-164.47 1363.38,-168.32 1358.06,-159.16 1353.51,-164.47"/>
</g>
<!-- Node37 -->
<g id="node37" class="node">
<title>Node37</title>
<g id="a_node37"><a xlink:href="_smagorinsky_8cpp.html" target="_top" xlink:title=" ">
<polygon fill="white" stroke="black" points="1717.5,-112.5 1717.5,-131.5 1815.5,-131.5 1815.5,-112.5 1717.5,-112.5"/>
<text text-anchor="middle" x="1766.5" y="-119.5" font-family="Helvetica,sans-Serif" font-size="10.00">Smagorinsky.cpp</text>
</a>
</g>
</g>
<!-- Node36&#45;&gt;Node37 -->
<g id="edge45" class="edge">
<title>Node36&#45;&gt;Node37</title>
<path fill="none" stroke="midnightblue" d="M1420.64,-170.98C1485.52,-162.61 1605.96,-146.84 1708.5,-132 1711.42,-131.58 1714.43,-131.13 1717.46,-130.68"/>
<polygon fill="midnightblue" stroke="midnightblue" points="1420.19,-167.51 1410.71,-172.25 1421.08,-174.45 1420.19,-167.51"/>
</g>
<!-- Node38&#45;&gt;Node3 -->
<g id="edge49" class="edge">
<title>Node38&#45;&gt;Node3</title>
<path fill="none" stroke="midnightblue" d="M460.06,-167.9C329.02,-146.63 292.37,-156.88 165.5,-132 162.47,-131.41 159.31,-130.68 156.2,-129.9"/>
<polygon fill="midnightblue" stroke="midnightblue" points="459.64,-171.38 470.08,-169.56 460.79,-164.47 459.64,-171.38"/>
</g>
<!-- Node38&#45;&gt;Node32 -->
<g id="edge50" class="edge">
<title>Node38&#45;&gt;Node32</title>
<path fill="none" stroke="midnightblue" d="M546.54,-175.32C659.93,-170.68 976.19,-156.4 1238.5,-132 1241.38,-131.73 1244.33,-131.44 1247.31,-131.13"/>
<polygon fill="midnightblue" stroke="midnightblue" points="546.37,-171.82 536.52,-175.72 546.66,-178.81 546.37,-171.82"/>
</g>
<!-- Node39&#45;&gt;Node3 -->
<g id="edge52" class="edge">
<title>Node39&#45;&gt;Node3</title>
<path fill="none" stroke="midnightblue" d="M1079.79,-174.68C877.56,-166.5 210.76,-139.13 165.5,-132 162.45,-131.52 159.28,-130.86 156.16,-130.12"/>
<polygon fill="midnightblue" stroke="midnightblue" points="1079.77,-178.18 1089.91,-175.09 1080.06,-171.19 1079.77,-178.18"/>
</g>
<!-- Node39&#45;&gt;Node32 -->
<g id="edge53" class="edge">
<title>Node39&#45;&gt;Node32</title>
<path fill="none" stroke="midnightblue" d="M1174.55,-165.44C1207.16,-155.26 1253.91,-140.66 1283.22,-131.52"/>
<polygon fill="midnightblue" stroke="midnightblue" points="1173.42,-162.12 1164.91,-168.44 1175.5,-168.8 1173.42,-162.12"/>
</g>
<!-- Node40 -->
<g id="node40" class="node">
<title>Node40</title>
<g id="a_node40"><a xlink:href="_enstrophy_8cpp.html" target="_top" xlink:title=" ">
<polygon fill="white" stroke="black" points="1615.5,-112.5 1615.5,-131.5 1699.5,-131.5 1699.5,-112.5 1615.5,-112.5"/>
<text text-anchor="middle" x="1657.5" y="-119.5" font-family="Helvetica,sans-Serif" font-size="10.00">Enstrophy.cpp</text>
</a>
</g>
</g>
<!-- Node39&#45;&gt;Node40 -->
<g id="edge54" class="edge">
<title>Node39&#45;&gt;Node40</title>
<path fill="none" stroke="midnightblue" d="M1195.37,-172.93C1284.09,-166.35 1458.95,-152.07 1606.5,-132 1609.35,-131.61 1612.29,-131.18 1615.24,-130.72"/>
<polygon fill="midnightblue" stroke="midnightblue" points="1194.96,-169.45 1185.24,-173.67 1195.47,-176.43 1194.96,-169.45"/>
</g>
</g>
</svg>
        <g id="navigator" transform="translate(0 0)" fill="#404254">
                <rect fill="#f2f5e9" fill-opacity="0.5" stroke="#606060" stroke-width=".5" x="0" y="0" width="60" height="60"/>
                <use id="zoomplus" xlink:href="#zoomPlus" x="17" y="9" onmousedown="handleZoom(evt,'in')"/>
                <use id="zoomminus" xlink:href="#zoomMin" x="42" y="9" onmousedown="handleZoom(evt,'out')"/>
                <use id="reset" xlink:href="#resetDef" x="30" y="36" onmousedown="handleReset()"/>
                <g id="arrowUp" xlink:href="#dirArrow" transform="translate(30 24)" onmousedown="handlePan(0,-1)">
                  <use xlink:href="#rim" fill="#404040">
                        <set attributeName="fill" to="#808080" begin="arrowUp.mouseover" end="arrowUp.mouseout"/>
                  </use>
                  <path fill="none" stroke="white" stroke-width="1.5" d="M0,-3.0v7 M-2.5,-0.5L0,-3.0L2.5,-0.5"/>
                </g>
                <g id="arrowRight" xlink:href="#dirArrow" transform="rotate(90) translate(36 -43)" onmousedown="handlePan(1,0)">
                  <use xlink:href="#rim" fill="#404040">
                        <set attributeName="fill" to="#808080" begin="arrowRight.mouseover" end="arrowRight.mouseout"/>
                  </use>
                  <path fill="none" stroke="white" stroke-width="1.5" d="M0,-3.0v7 M-2.5,-0.5L0,-3.0L2.5,-0.5"/>
                </g>
                <g id="arrowDown" xlink:href="#dirArrow" transform="rotate(180) translate(-30 -48)" onmousedown="handlePan(0,1)">
                  <use xlink:href="#rim" fill="#404040">
                        <set attributeName="fill" to="#808080" begin="arrowDown.mouseover" end="arrowDown.mouseout"/>
                  </use>
                  <path fill="none" stroke="white" stroke-width="1.5" d="M0,-3.0v7 M-2.5,-0.5L0,-3.0L2.5,-0.5"/>
                </g>
                <g id="arrowLeft" xlink:href="#dirArrow" transform="rotate(270) translate(-36 17)" onmousedown="handlePan(-1,0)">
                  <use xlink:href="#rim" fill="#404040">
                        <set attributeName="fill" to="#808080" begin="arrowLeft.mouseover" end="arrowLeft.mouseout"/>
                  </use>
                  <path fill="none" stroke="white" stroke-width="1.5" d="M0,-3.0v7 M-2.5,-0.5L0,-3.0L2.5,-0.5"/>
                </g>
        </g>
        <svg viewBox="0 0 15 15" width="100%" height="30px" preserveAspectRatio="xMaxYMin meet">
         <g id="arrow_out" transform="scale(0.3 0.3)">
          <a xlink:href="fvm__utils_8_h__dep__incl_org.svg" target="_base">
           <rect id="button" ry="5" rx="5" y="6" x="6" height="38" width="38"
                fill="#f2f5e9" fill-opacity="0.5" stroke="#606060" stroke-width="1.0"/>
           <path id="arrow"
             d="M 11.500037,31.436501 C 11.940474,20.09759 22.043105,11.32322 32.158766,21.979434 L 37.068811,17.246167 C 37.068811,17.246167 37.088388,32 37.088388,32 L 22.160133,31.978069 C 22.160133,31.978069 26.997745,27.140456 26.997745,27.140456 C 18.528582,18.264221 13.291696,25.230495 11.500037,31.436501 z"
             style="fill:#404040;"/>
          </a>
         </g>
        </svg>
</svg>
