<?xml version="1.0" encoding="UTF-8" standalone="no"?>
<!DOCTYPE svg PUBLIC "-//W3C//DTD SVG 1.1//EN"
 "http://www.w3.org/Graphics/SVG/1.1/DTD/svg11.dtd">
<!-- Generated by graphviz version 2.43.0 (0)
 -->
<!-- Title: ABL Pages: 1 -->
<!--zoomable 495 -->
<svg id="main" version="1.1" xmlns="http://www.w3.org/2000/svg" xmlns:xlink="http://www.w3.org/1999/xlink" xml:space="preserve" onload="init(evt)">
<style type="text/css"><![CDATA[
.edge:hover path { stroke: red; }
.edge:hover polygon { stroke: red; fill: red; }
]]></style>
<script type="text/javascript"><![CDATA[
var edges = document.getElementsByTagName('g');
if (edges && edges.length) {
  for (var i=0;i<edges.length;i++) {
    if (edges[i].id.substr(0,4)=='edge') {
      edges[i].setAttribute('class','edge');
    }
  }
}
]]></script>
        <defs>
                <circle id="rim" cx="0" cy="0" r="7"/>
                <circle id="rim2" cx="0" cy="0" r="3.5"/>
                <g id="zoomPlus">
                        <use xlink:href="#rim" fill="#404040">
                                <set attributeName="fill" to="#808080" begin="zoomplus.mouseover" end="zoomplus.mouseout"/>
                        </use>
                        <path d="M-4,0h8M0,-4v8" fill="none" stroke="white" stroke-width="1.5" pointer-events="none"/>
                </g>
                <g id="zoomMin">
                        <use xlink:href="#rim" fill="#404040">
                                <set attributeName="fill" to="#808080" begin="zoomminus.mouseover" end="zoomminus.mouseout"/>
                        </use>
                        <path d="M-4,0h8" fill="none" stroke="white" stroke-width="1.5" pointer-events="none"/>
                </g>
                <g id="dirArrow">
                        <path fill="none" stroke="white" stroke-width="1.5" d="M0,-3.0v7 M-2.5,-0.5L0,-3.0L2.5,-0.5"/>
                </g>
               <g id="resetDef">
                       <use xlink:href="#rim2" fill="#404040">
                               <set attributeName="fill" to="#808080" begin="reset.mouseover" end="reset.mouseout"/>
                       </use>
               </g>
        </defs>

<script type="text/javascript">
var viewWidth = 549;
var viewHeight = 495;
var sectionId = 'dynsection-0';
</script>
<script xlink:href="svgpan.js"/>
<svg id="graph" class="graph">
<g id="viewport">
<title>ABL</title>
<polygon fill="white" stroke="transparent" points="-4,4 -4,-491.47 545,-491.47 545,4 -4,4"/>
<!-- Node7 -->
<g id="node1" class="node">
<title>Node7</title>
<g id="a_node1"><a xlink:href="group__turb__model.html" target="_top" xlink:title="Turbulence models available in AMR&#45;Wind.">
<polygon fill="white" stroke="black" points="525,-392.97 417,-392.97 417,-373.97 525,-373.97 525,-392.97"/>
<text text-anchor="middle" x="471" y="-380.97" font-family="Helvetica,sans-Serif" font-size="10.00">Turbulence models</text>
</a>
</g>
</g>
<!-- Node6 -->
<g id="node2" class="node">
<title>Node6</title>
<g id="a_node2"><a xlink:href="group__tke__src.html" target="_top" xlink:title="Source terms used with TKE transport equation.">
<polygon fill="white" stroke="black" points="522.5,-327.97 419.5,-327.97 419.5,-308.97 522.5,-308.97 522.5,-327.97"/>
<text text-anchor="middle" x="471" y="-315.97" font-family="Helvetica,sans-Serif" font-size="10.00">TKE Source terms</text>
</a>
</g>
</g>
<!-- Node4 -->
<g id="node3" class="node">
<title>Node4</title>
<g id="a_node3"><a xlink:href="group__shear__stress.html" target="_top" xlink:title="ShearStress contains functions to compute velocity and temperature shear stress wall models the defau...">
<polygon fill="white" stroke="black" points="541,-290.97 401,-290.97 401,-271.97 541,-271.97 541,-290.97"/>
<text text-anchor="middle" x="471" y="-278.97" font-family="Helvetica,sans-Serif" font-size="10.00">Shear Stress Wall Models</text>
</a>
</g>
</g>
<!-- Node9 -->
<g id="node4" class="node">
<title>Node9</title>
<g id="a_node4"><a xlink:href="group__field__bc.html" target="_top" xlink:title="Boundary conditions managment.">
<polygon fill="white" stroke="black" points="529,-253.47 413,-253.47 413,-223.47 529,-223.47 529,-253.47"/>
<text text-anchor="start" x="421" y="-241.47" font-family="Helvetica,sans-Serif" font-size="10.00">Boundary conditions</text>
<text text-anchor="middle" x="471" y="-230.47" font-family="Helvetica,sans-Serif" font-size="10.00"> management</text>
</a>
</g>
</g>
<!-- Node1 -->
<g id="node5" class="node">
<title>Node1</title>
<g id="a_node5"><a xlink:title="Atmospheric boundary layer (ABL) modeling.">
<polygon fill="#bfbfbf" stroke="black" points="199,-264.97 164,-264.97 164,-245.97 199,-245.97 199,-264.97"/>
<text text-anchor="middle" x="181.5" y="-252.97" font-family="Helvetica,sans-Serif" font-size="10.00">ABL</text>
</a>
</g>
</g>
<!-- Node1&#45;&gt;Node7 -->
<g id="edge6" class="edge">
<title>Node1&#45;&gt;Node7</title>
<path fill="none" stroke="orange" stroke-dasharray="5,2" d="M182.38,-265.01C182.68,-286.24 186.7,-337.39 217,-361.47 276.72,-408.92 371.26,-402.28 426.29,-392.99"/>
<text text-anchor="start" x="247" y="-479.47" font-family="Helvetica,sans-Serif" font-size="10.00">amr_wind::pde::tke</text>
<text text-anchor="middle" x="300" y="-468.47" font-family="Helvetica,sans-Serif" font-size="10.00">::KsgsM84Src</text>
<text text-anchor="start" x="247" y="-457.47" font-family="Helvetica,sans-Serif" font-size="10.00">amr_wind::pde::tke</text>
<text text-anchor="middle" x="300" y="-446.47" font-family="Helvetica,sans-Serif" font-size="10.00">::KsgsS94Src</text>
<text text-anchor="start" x="247" y="-435.47" font-family="Helvetica,sans-Serif" font-size="10.00">amr_wind::turbulence</text>
<text text-anchor="middle" x="300" y="-424.47" font-family="Helvetica,sans-Serif" font-size="10.00">::OneEqKsgsM84</text>
<text text-anchor="start" x="247" y="-413.47" font-family="Helvetica,sans-Serif" font-size="10.00">amr_wind::turbulence</text>
<text text-anchor="middle" x="300" y="-402.47" font-family="Helvetica,sans-Serif" font-size="10.00">::OneEqKsgsS94</text>
</g>
<!-- Node1&#45;&gt;Node6 -->
<g id="edge5" class="edge">
<title>Node1&#45;&gt;Node6</title>
<path fill="none" stroke="orange" stroke-dasharray="5,2" d="M189.25,-265.01C195.47,-273 205.47,-283.95 217,-289.47 251.7,-306.06 356.11,-313.5 419.44,-316.56"/>
<text text-anchor="start" x="253" y="-350.47" font-family="Helvetica,sans-Serif" font-size="10.00">amr_wind::pde::tke</text>
<text text-anchor="middle" x="300" y="-339.47" font-family="Helvetica,sans-Serif" font-size="10.00">::KsgsM84Src</text>
<text text-anchor="start" x="253" y="-328.47" font-family="Helvetica,sans-Serif" font-size="10.00">amr_wind::pde::tke</text>
<text text-anchor="middle" x="300" y="-317.47" font-family="Helvetica,sans-Serif" font-size="10.00">::KsgsS94Src</text>
</g>
<!-- Node1&#45;&gt;Node4 -->
<g id="edge3" class="edge">
<title>Node1&#45;&gt;Node4</title>
<path fill="none" stroke="black" d="M208.76,-265.44C211.51,-266.23 214.29,-266.93 217,-267.47 278.39,-279.59 349.67,-282.57 400.9,-282.81"/>
<polygon fill="black" stroke="black" points="209.68,-262.06 199.08,-262.29 207.51,-268.72 209.68,-262.06"/>
</g>
<!-- Node1&#45;&gt;Node9 -->
<g id="edge8" class="edge">
<title>Node1&#45;&gt;Node9</title>
<path fill="none" stroke="orange" stroke-dasharray="5,2" d="M199.2,-254.48C240.01,-252.07 346.31,-245.78 412.94,-241.84"/>
<text text-anchor="middle" x="300" y="-256.47" font-family="Helvetica,sans-Serif" font-size="10.00">amr_wind::ABLVelWallFunc</text>
</g>
<!-- Node5 -->
<g id="node7" class="node">
<title>Node5</title>
<g id="a_node7"><a xlink:href="group__icns__src.html" target="_top" xlink:title="Source terms used with incompressible Navier&#45;Stokes momentum equation.">
<polygon fill="white" stroke="black" points="524.5,-131.97 417.5,-131.97 417.5,-112.97 524.5,-112.97 524.5,-131.97"/>
<text text-anchor="middle" x="471" y="-119.97" font-family="Helvetica,sans-Serif" font-size="10.00">ICNS Source terms</text>
</a>
</g>
</g>
<!-- Node1&#45;&gt;Node5 -->
<g id="edge4" class="edge">
<title>Node1&#45;&gt;Node5</title>
<path fill="none" stroke="orange" stroke-dasharray="5,2" d="M183.69,-245.85C187.22,-219.12 198.51,-145.01 217,-130.47 246.96,-106.9 352.52,-111.6 417.44,-117.08"/>
<text text-anchor="start" x="245" y="-232.47" font-family="Helvetica,sans-Serif" font-size="10.00">amr_wind::pde::icns</text>
<text text-anchor="middle" x="300" y="-221.47" font-family="Helvetica,sans-Serif" font-size="10.00">::ABLForcing</text>
<text text-anchor="start" x="245" y="-210.47" font-family="Helvetica,sans-Serif" font-size="10.00">amr_wind::pde::icns</text>
<text text-anchor="middle" x="300" y="-199.47" font-family="Helvetica,sans-Serif" font-size="10.00">::ABLMeanBoussinesq</text>
<text text-anchor="start" x="245" y="-188.47" font-family="Helvetica,sans-Serif" font-size="10.00">amr_wind::pde::icns</text>
<text text-anchor="middle" x="300" y="-177.47" font-family="Helvetica,sans-Serif" font-size="10.00">::BoussinesqBuoyancy</text>
<text text-anchor="start" x="245" y="-166.47" font-family="Helvetica,sans-Serif" font-size="10.00">amr_wind::pde::icns</text>
<text text-anchor="middle" x="300" y="-155.47" font-family="Helvetica,sans-Serif" font-size="10.00">::CoriolisForcing</text>
<text text-anchor="start" x="245" y="-144.47" font-family="Helvetica,sans-Serif" font-size="10.00">amr_wind::pde::icns</text>
<text text-anchor="middle" x="300" y="-133.47" font-family="Helvetica,sans-Serif" font-size="10.00">::GeostrophicForcing</text>
</g>
<!-- Node8 -->
<g id="node8" class="node">
<title>Node8</title>
<g id="a_node8"><a xlink:href="group__statistics.html" target="_top" xlink:title="Field statistics.">
<polygon fill="white" stroke="black" points="514.5,-64.97 427.5,-64.97 427.5,-45.97 514.5,-45.97 514.5,-64.97"/>
<text text-anchor="middle" x="471" y="-52.97" font-family="Helvetica,sans-Serif" font-size="10.00">Field statistics</text>
</a>
</g>
</g>
<!-- Node1&#45;&gt;Node8 -->
<g id="edge7" class="edge">
<title>Node1&#45;&gt;Node8</title>
<path fill="none" stroke="orange" stroke-dasharray="5,2" d="M182.73,-245.74C183.79,-210.36 189.41,-89.44 217,-65.47 247.36,-39.09 363.6,-45.31 427.42,-51.01"/>
<text text-anchor="middle" x="300" y="-101.47" font-family="Helvetica,sans-Serif" font-size="10.00">amr_wind::FPlaneAveraging</text>
<text text-anchor="middle" x="300" y="-90.47" font-family="Helvetica,sans-Serif" font-size="10.00">amr_wind::VelPlaneAveraging</text>
<text text-anchor="middle" x="300" y="-79.47" font-family="Helvetica,sans-Serif" font-size="10.00">amr_wind::FPlaneAveragingFine</text>
<text text-anchor="middle" x="300" y="-68.47" font-family="Helvetica,sans-Serif" font-size="10.00">amr_wind::VelPlaneAveragingFine</text>
</g>
<!-- Node3 -->
<g id="node9" class="node">
<title>Node3</title>
<g id="a_node9"><a xlink:href="group__abl__istats.html" target="_top" xlink:title="ABLStats contains functions to compute and statistics for ABL simulations.">
<polygon fill="white" stroke="black" points="512.5,-27.97 429.5,-27.97 429.5,-8.97 512.5,-8.97 512.5,-27.97"/>
<text text-anchor="middle" x="471" y="-15.97" font-family="Helvetica,sans-Serif" font-size="10.00">ABL Statistics</text>
</a>
</g>
</g>
<!-- Node1&#45;&gt;Node3 -->
<g id="edge2" class="edge">
<title>Node1&#45;&gt;Node3</title>
<path fill="none" stroke="black" d="M182.74,-235.68C183.78,-187.95 189.15,-68.54 217,-42.47 274.5,11.35 374.82,1.79 430.29,-8.94"/>
<polygon fill="black" stroke="black" points="179.24,-235.63 182.57,-245.69 186.24,-235.75 179.24,-235.63"/>
</g>
<!-- Node2 -->
<g id="node6" class="node">
<title>Node2</title>
<g id="a_node6"><a xlink:href="group__wind.html" target="_top" xlink:title="Wind energy modeling.">
<polygon fill="white" stroke="black" points="127,-264.97 0,-264.97 0,-245.97 127,-245.97 127,-264.97"/>
<text text-anchor="middle" x="63.5" y="-252.97" font-family="Helvetica,sans-Serif" font-size="10.00">Wind energy modeling</text>
</a>
</g>
</g>
<!-- Node2&#45;&gt;Node1 -->
<g id="edge1" class="edge">
<title>Node2&#45;&gt;Node1</title>
<path fill="none" stroke="black" d="M137.54,-255.47C147.25,-255.47 156.35,-255.47 163.66,-255.47"/>
<polygon fill="black" stroke="black" points="137.25,-251.97 127.25,-255.47 137.25,-258.97 137.25,-251.97"/>
</g>
</g>
</svg>
        <g id="navigator" transform="translate(0 0)" fill="#404254">
                <rect fill="#f2f5e9" fill-opacity="0.5" stroke="#606060" stroke-width=".5" x="0" y="0" width="60" height="60"/>
                <use id="zoomplus" xlink:href="#zoomPlus" x="17" y="9" onmousedown="handleZoom(evt,'in')"/>
                <use id="zoomminus" xlink:href="#zoomMin" x="42" y="9" onmousedown="handleZoom(evt,'out')"/>
                <use id="reset" xlink:href="#resetDef" x="30" y="36" onmousedown="handleReset()"/>
                <g id="arrowUp" xlink:href="#dirArrow" transform="translate(30 24)" onmousedown="handlePan(0,-1)">
                  <use xlink:href="#rim" fill="#404040">
                        <set attributeName="fill" to="#808080" begin="arrowUp.mouseover" end="arrowUp.mouseout"/>
                  </use>
                  <path fill="none" stroke="white" stroke-width="1.5" d="M0,-3.0v7 M-2.5,-0.5L0,-3.0L2.5,-0.5"/>
                </g>
                <g id="arrowRight" xlink:href="#dirArrow" transform="rotate(90) translate(36 -43)" onmousedown="handlePan(1,0)">
                  <use xlink:href="#rim" fill="#404040">
                        <set attributeName="fill" to="#808080" begin="arrowRight.mouseover" end="arrowRight.mouseout"/>
                  </use>
                  <path fill="none" stroke="white" stroke-width="1.5" d="M0,-3.0v7 M-2.5,-0.5L0,-3.0L2.5,-0.5"/>
                </g>
                <g id="arrowDown" xlink:href="#dirArrow" transform="rotate(180) translate(-30 -48)" onmousedown="handlePan(0,1)">
                  <use xlink:href="#rim" fill="#404040">
                        <set attributeName="fill" to="#808080" begin="arrowDown.mouseover" end="arrowDown.mouseout"/>
                  </use>
                  <path fill="none" stroke="white" stroke-width="1.5" d="M0,-3.0v7 M-2.5,-0.5L0,-3.0L2.5,-0.5"/>
                </g>
                <g id="arrowLeft" xlink:href="#dirArrow" transform="rotate(270) translate(-36 17)" onmousedown="handlePan(-1,0)">
                  <use xlink:href="#rim" fill="#404040">
                        <set attributeName="fill" to="#808080" begin="arrowLeft.mouseover" end="arrowLeft.mouseout"/>
                  </use>
                  <path fill="none" stroke="white" stroke-width="1.5" d="M0,-3.0v7 M-2.5,-0.5L0,-3.0L2.5,-0.5"/>
                </g>
        </g>
        <svg viewBox="0 0 15 15" width="100%" height="30px" preserveAspectRatio="xMaxYMin meet">
         <g id="arrow_out" transform="scale(0.3 0.3)">
          <a xlink:href="group__we__abl_org.svg" target="_base">
           <rect id="button" ry="5" rx="5" y="6" x="6" height="38" width="38"
                fill="#f2f5e9" fill-opacity="0.5" stroke="#606060" stroke-width="1.0"/>
           <path id="arrow"
             d="M 11.500037,31.436501 C 11.940474,20.09759 22.043105,11.32322 32.158766,21.979434 L 37.068811,17.246167 C 37.068811,17.246167 37.088388,32 37.088388,32 L 22.160133,31.978069 C 22.160133,31.978069 26.997745,27.140456 26.997745,27.140456 C 18.528582,18.264221 13.291696,25.230495 11.500037,31.436501 z"
             style="fill:#404040;"/>
          </a>
         </g>
        </svg>
</svg>
