<?xml version="1.0" encoding="UTF-8" standalone="no"?>
<!DOCTYPE svg PUBLIC "-//W3C//DTD SVG 1.1//EN"
 "http://www.w3.org/Graphics/SVG/1.1/DTD/svg11.dtd">
<!-- Generated by graphviz version 2.43.0 (0)
 -->
<!-- Title: helics.H Pages: 1 -->
<svg width="2836pt" height="330pt"
 viewBox="0.00 0.00 2836.23 330.00" xmlns="http://www.w3.org/2000/svg" xmlns:xlink="http://www.w3.org/1999/xlink">
<g id="graph0" class="graph" transform="scale(1 1) rotate(0) translate(4 326)">
<title>helics.H</title>
<polygon fill="white" stroke="transparent" points="-4,4 -4,-326 2832.23,-326 2832.23,4 -4,4"/>
<!-- Node1 -->
<g id="node1" class="node">
<title>Node1</title>
<g id="a_node1"><a xlink:title=" ">
<polygon fill="#bfbfbf" stroke="black" points="881,-302.5 881,-321.5 937,-321.5 937,-302.5 881,-302.5"/>
<text text-anchor="middle" x="909" y="-309.5" font-family="Helvetica,sans-Serif" font-size="10.00">helics.H</text>
</a>
</g>
</g>
<!-- Node2 -->
<g id="node2" class="node">
<title>Node2</title>
<g id="a_node2"><a xlink:title=" ">
<polygon fill="white" stroke="#bfbfbf" points="1473,-118 1473,-137 1583,-137 1583,-118 1473,-118"/>
<text text-anchor="middle" x="1528" y="-125" font-family="Helvetica,sans-Serif" font-size="10.00">AMReX_AmrCore.H</text>
</a>
</g>
</g>
<!-- Node1&#45;&gt;Node2 -->
<g id="edge1" class="edge">
<title>Node1&#45;&gt;Node2</title>
<path fill="none" stroke="midnightblue" d="M937.21,-302.68C1037.07,-273.24 1374.05,-173.89 1489.11,-139.96"/>
<polygon fill="midnightblue" stroke="midnightblue" points="1490.31,-143.26 1498.91,-137.08 1488.33,-136.55 1490.31,-143.26"/>
</g>
<!-- Node3 -->
<g id="node3" class="node">
<title>Node3</title>
<g id="a_node3"><a xlink:href="_sim_time_8_h.html" target="_top" xlink:title=" ">
<polygon fill="white" stroke="black" points="260,-185 260,-204 404,-204 404,-185 260,-185"/>
<text text-anchor="middle" x="332" y="-192" font-family="Helvetica,sans-Serif" font-size="10.00">amr&#45;wind/core/SimTime.H</text>
</a>
</g>
</g>
<!-- Node1&#45;&gt;Node3 -->
<g id="edge2" class="edge">
<title>Node1&#45;&gt;Node3</title>
<path fill="none" stroke="midnightblue" d="M880.78,-305.35C789.87,-287.15 503.69,-229.87 384.7,-206.05"/>
<polygon fill="midnightblue" stroke="midnightblue" points="385.22,-202.58 374.73,-204.05 383.85,-209.45 385.22,-202.58"/>
</g>
<!-- Node7 -->
<g id="node7" class="node">
<title>Node7</title>
<g id="a_node7"><a xlink:href="_c_f_d_sim_8_h.html" target="_top" xlink:title=" ">
<polygon fill="white" stroke="black" points="851,-246.5 851,-265.5 967,-265.5 967,-246.5 851,-246.5"/>
<text text-anchor="middle" x="909" y="-253.5" font-family="Helvetica,sans-Serif" font-size="10.00">amr&#45;wind/CFDSim.H</text>
</a>
</g>
</g>
<!-- Node1&#45;&gt;Node7 -->
<g id="edge6" class="edge">
<title>Node1&#45;&gt;Node7</title>
<path fill="none" stroke="midnightblue" d="M903.83,-302.08C902.32,-294.93 901.89,-284.64 902.54,-275.69"/>
<polygon fill="midnightblue" stroke="midnightblue" points="906.02,-276.13 903.87,-265.75 899.08,-275.2 906.02,-276.13"/>
</g>
<!-- Node4 -->
<g id="node4" class="node">
<title>Node4</title>
<g id="a_node4"><a xlink:title=" ">
<polygon fill="white" stroke="#bfbfbf" points="286,-118 286,-137 378,-137 378,-118 286,-118"/>
<text text-anchor="middle" x="332" y="-125" font-family="Helvetica,sans-Serif" font-size="10.00">AMReX_REAL.H</text>
</a>
</g>
</g>
<!-- Node3&#45;&gt;Node4 -->
<g id="edge3" class="edge">
<title>Node3&#45;&gt;Node4</title>
<path fill="none" stroke="midnightblue" d="M332,-184.73C332,-175.18 332,-159.62 332,-147.28"/>
<polygon fill="midnightblue" stroke="midnightblue" points="335.5,-147.13 332,-137.13 328.5,-147.13 335.5,-147.13"/>
</g>
<!-- Node5 -->
<g id="node5" class="node">
<title>Node5</title>
<g id="a_node5"><a xlink:title=" ">
<polygon fill="white" stroke="#bfbfbf" points="0,-118 0,-137 134,-137 134,-118 0,-118"/>
<text text-anchor="middle" x="67" y="-125" font-family="Helvetica,sans-Serif" font-size="10.00">AMReX_GpuQualifiers.H</text>
</a>
</g>
</g>
<!-- Node3&#45;&gt;Node5 -->
<g id="edge4" class="edge">
<title>Node3&#45;&gt;Node5</title>
<path fill="none" stroke="midnightblue" d="M297.08,-184.94C249.52,-173.27 164.3,-152.37 112,-139.54"/>
<polygon fill="midnightblue" stroke="midnightblue" points="112.54,-136.07 101.99,-137.08 110.87,-142.86 112.54,-136.07"/>
</g>
<!-- Node6 -->
<g id="node6" class="node">
<title>Node6</title>
<g id="a_node6"><a xlink:title=" ">
<polygon fill="white" stroke="#bfbfbf" points="152,-118 152,-137 268,-137 268,-118 152,-118"/>
<text text-anchor="middle" x="210" y="-125" font-family="Helvetica,sans-Serif" font-size="10.00">AMReX_Extension.H</text>
</a>
</g>
</g>
<!-- Node3&#45;&gt;Node6 -->
<g id="edge5" class="edge">
<title>Node3&#45;&gt;Node6</title>
<path fill="none" stroke="midnightblue" d="M315.8,-184.87C295.2,-173.89 259.41,-154.82 235.22,-141.94"/>
<polygon fill="midnightblue" stroke="midnightblue" points="236.74,-138.78 226.27,-137.17 233.45,-144.96 236.74,-138.78"/>
</g>
<!-- Node7&#45;&gt;Node1 -->
<g id="edge83" class="edge">
<title>Node7&#45;&gt;Node1</title>
<path fill="none" stroke="midnightblue" d="M914.13,-265.75C915.66,-272.86 916.1,-283.14 915.47,-292.1"/>
<polygon fill="midnightblue" stroke="midnightblue" points="911.99,-291.71 914.17,-302.08 918.93,-292.62 911.99,-291.71"/>
</g>
<!-- Node7&#45;&gt;Node2 -->
<g id="edge7" class="edge">
<title>Node7&#45;&gt;Node2</title>
<path fill="none" stroke="midnightblue" d="M952.96,-246.5C1046.91,-228.24 1274.17,-183.65 1464,-143 1469.5,-141.82 1475.26,-140.56 1480.97,-139.29"/>
<polygon fill="midnightblue" stroke="midnightblue" points="1482.15,-142.61 1491.14,-137.01 1480.62,-135.78 1482.15,-142.61"/>
</g>
<!-- Node7&#45;&gt;Node3 -->
<g id="edge8" class="edge">
<title>Node7&#45;&gt;Node3</title>
<path fill="none" stroke="midnightblue" d="M850.77,-248.99C747.61,-238.36 532.54,-216.18 414.29,-203.99"/>
<polygon fill="midnightblue" stroke="midnightblue" points="414.51,-200.49 404.21,-202.95 413.8,-207.45 414.51,-200.49"/>
</g>
<!-- Node8 -->
<g id="node8" class="node">
<title>Node8</title>
<g id="a_node8"><a xlink:href="_field_repo_8_h.html" target="_top" xlink:title=" ">
<polygon fill="white" stroke="black" points="1785.5,-185 1785.5,-204 1934.5,-204 1934.5,-185 1785.5,-185"/>
<text text-anchor="middle" x="1860" y="-192" font-family="Helvetica,sans-Serif" font-size="10.00">amr&#45;wind/core/FieldRepo.H</text>
</a>
</g>
</g>
<!-- Node7&#45;&gt;Node8 -->
<g id="edge9" class="edge">
<title>Node7&#45;&gt;Node8</title>
<path fill="none" stroke="midnightblue" d="M967.06,-251.37C1128.82,-241.25 1585.19,-212.69 1775.26,-200.8"/>
<polygon fill="midnightblue" stroke="midnightblue" points="1775.72,-204.28 1785.48,-200.16 1775.28,-197.29 1775.72,-204.28"/>
</g>
<!-- Node29 -->
<g id="node29" class="node">
<title>Node29</title>
<g id="a_node29"><a xlink:href="_p_d_e_base_8_h.html" target="_top" xlink:title=" ">
<polygon fill="white" stroke="black" points="916.5,-179.5 916.5,-209.5 1071.5,-209.5 1071.5,-179.5 916.5,-179.5"/>
<text text-anchor="start" x="924.5" y="-197.5" font-family="Helvetica,sans-Serif" font-size="10.00">amr&#45;wind/equation_systems</text>
<text text-anchor="middle" x="994" y="-186.5" font-family="Helvetica,sans-Serif" font-size="10.00">/PDEBase.H</text>
</a>
</g>
</g>
<!-- Node7&#45;&gt;Node29 -->
<g id="edge55" class="edge">
<title>Node7&#45;&gt;Node29</title>
<path fill="none" stroke="midnightblue" d="M921.18,-246.48C932.69,-238.42 950.4,-226.02 965.47,-215.47"/>
<polygon fill="midnightblue" stroke="midnightblue" points="967.78,-218.12 973.97,-209.52 963.77,-212.39 967.78,-218.12"/>
</g>
<!-- Node37 -->
<g id="node37" class="node">
<title>Node37</title>
<g id="a_node37"><a xlink:href="_physics_8_h.html" target="_top" xlink:title=" ">
<polygon fill="white" stroke="black" points="594.5,-185 594.5,-204 731.5,-204 731.5,-185 594.5,-185"/>
<text text-anchor="middle" x="663" y="-192" font-family="Helvetica,sans-Serif" font-size="10.00">amr&#45;wind/core/Physics.H</text>
</a>
</g>
</g>
<!-- Node7&#45;&gt;Node37 -->
<g id="edge72" class="edge">
<title>Node7&#45;&gt;Node37</title>
<path fill="none" stroke="midnightblue" d="M873.75,-246.48C830.1,-235.92 755.66,-217.91 707.94,-206.37"/>
<polygon fill="midnightblue" stroke="midnightblue" points="708.72,-202.96 698.18,-204.01 707.08,-209.76 708.72,-202.96"/>
</g>
<!-- Node39 -->
<g id="node39" class="node">
<title>Node39</title>
<g id="a_node39"><a xlink:href="_mesh_map_8_h.html" target="_top" xlink:title=" ">
<polygon fill="white" stroke="black" points="750,-185 750,-204 898,-204 898,-185 750,-185"/>
<text text-anchor="middle" x="824" y="-192" font-family="Helvetica,sans-Serif" font-size="10.00">amr&#45;wind/core/MeshMap.H</text>
</a>
</g>
</g>
<!-- Node7&#45;&gt;Node39 -->
<g id="edge77" class="edge">
<title>Node7&#45;&gt;Node39</title>
<path fill="none" stroke="midnightblue" d="M896.82,-246.48C883.19,-236.93 860.87,-221.31 844.53,-209.87"/>
<polygon fill="midnightblue" stroke="midnightblue" points="846.36,-206.88 836.16,-204.01 842.34,-212.61 846.36,-206.88"/>
</g>
<!-- Node8&#45;&gt;Node2 -->
<g id="edge52" class="edge">
<title>Node8&#45;&gt;Node2</title>
<path fill="none" stroke="midnightblue" d="M1816.26,-184.94C1755.84,-173.11 1646.93,-151.78 1581.66,-139.01"/>
<polygon fill="midnightblue" stroke="midnightblue" points="1582.06,-135.52 1571.58,-137.03 1580.72,-142.39 1582.06,-135.52"/>
</g>
<!-- Node9 -->
<g id="node9" class="node">
<title>Node9</title>
<g id="a_node9"><a xlink:title=" ">
<polygon fill="white" stroke="#bfbfbf" points="1787,-0.5 1787,-19.5 1831,-19.5 1831,-0.5 1787,-0.5"/>
<text text-anchor="middle" x="1809" y="-7.5" font-family="Helvetica,sans-Serif" font-size="10.00">string</text>
</a>
</g>
</g>
<!-- Node8&#45;&gt;Node9 -->
<g id="edge10" class="edge">
<title>Node8&#45;&gt;Node9</title>
<path fill="none" stroke="midnightblue" d="M1857.31,-184.99C1851.25,-165.69 1836.17,-117.08 1825,-76 1820.8,-60.56 1816.49,-42.93 1813.4,-29.93"/>
<polygon fill="midnightblue" stroke="midnightblue" points="1816.74,-28.8 1811.04,-19.87 1809.92,-30.4 1816.74,-28.8"/>
</g>
<!-- Node10 -->
<g id="node10" class="node">
<title>Node10</title>
<g id="a_node10"><a xlink:title=" ">
<polygon fill="white" stroke="#bfbfbf" points="975.5,-56.5 975.5,-75.5 1068.5,-75.5 1068.5,-56.5 975.5,-56.5"/>
<text text-anchor="middle" x="1022" y="-63.5" font-family="Helvetica,sans-Serif" font-size="10.00">unordered_map</text>
</a>
</g>
</g>
<!-- Node8&#45;&gt;Node10 -->
<g id="edge11" class="edge">
<title>Node8&#45;&gt;Node10</title>
<path fill="none" stroke="midnightblue" d="M1785.11,-190.13C1680.73,-184.6 1485.86,-171.27 1322,-143 1226.3,-126.49 1116.18,-95.41 1059.72,-78.56"/>
<polygon fill="midnightblue" stroke="midnightblue" points="1060.4,-75.11 1049.81,-75.59 1058.39,-81.81 1060.4,-75.11"/>
</g>
<!-- Node11 -->
<g id="node11" class="node">
<title>Node11</title>
<g id="a_node11"><a xlink:href="_field_desc_types_8_h.html" target="_top" xlink:title=" ">
<polygon fill="white" stroke="black" points="2183,-0.5 2183,-19.5 2359,-19.5 2359,-0.5 2183,-0.5"/>
<text text-anchor="middle" x="2271" y="-7.5" font-family="Helvetica,sans-Serif" font-size="10.00">amr&#45;wind/core/FieldDescTypes.H</text>
</a>
</g>
</g>
<!-- Node8&#45;&gt;Node11 -->
<g id="edge12" class="edge">
<title>Node8&#45;&gt;Node11</title>
<path fill="none" stroke="midnightblue" d="M1934.77,-192.15C2107.84,-188.48 2531.73,-176.3 2670,-143 2742.57,-125.52 2783.08,-138.43 2824,-76 2828.87,-68.57 2830.03,-62.54 2824,-56 2793.88,-23.33 2519.91,-14.38 2369.24,-11.93"/>
<polygon fill="midnightblue" stroke="midnightblue" points="2369.11,-8.42 2359.06,-11.77 2369,-15.42 2369.11,-8.42"/>
</g>
<!-- Node12 -->
<g id="node12" class="node">
<title>Node12</title>
<g id="a_node12"><a xlink:href="_field_utils_8_h.html" target="_top" xlink:title=" ">
<polygon fill="white" stroke="black" points="2669,-56.5 2669,-75.5 2815,-75.5 2815,-56.5 2669,-56.5"/>
<text text-anchor="middle" x="2742" y="-63.5" font-family="Helvetica,sans-Serif" font-size="10.00">amr&#45;wind/core/FieldUtils.H</text>
</a>
</g>
</g>
<!-- Node8&#45;&gt;Node12 -->
<g id="edge13" class="edge">
<title>Node8&#45;&gt;Node12</title>
<path fill="none" stroke="midnightblue" d="M1934.75,-193.47C2101.9,-192.62 2501.14,-186.01 2628,-143 2666.41,-129.98 2704.23,-100.59 2725.2,-82.41"/>
<polygon fill="midnightblue" stroke="midnightblue" points="2727.71,-84.86 2732.87,-75.61 2723.07,-79.63 2727.71,-84.86"/>
</g>
<!-- Node13 -->
<g id="node13" class="node">
<title>Node13</title>
<g id="a_node13"><a xlink:title=" ">
<polygon fill="white" stroke="#bfbfbf" points="1621.5,-0.5 1621.5,-19.5 1730.5,-19.5 1730.5,-0.5 1621.5,-0.5"/>
<text text-anchor="middle" x="1676" y="-7.5" font-family="Helvetica,sans-Serif" font-size="10.00">AMReX_MultiFab.H</text>
</a>
</g>
</g>
<!-- Node8&#45;&gt;Node13 -->
<g id="edge53" class="edge">
<title>Node8&#45;&gt;Node13</title>
<path fill="none" stroke="midnightblue" d="M1851.13,-184.7C1822.04,-155.85 1729.31,-63.88 1691.89,-26.76"/>
<polygon fill="midnightblue" stroke="midnightblue" points="1694.35,-24.27 1684.79,-19.71 1689.42,-29.24 1694.35,-24.27"/>
</g>
<!-- Node15 -->
<g id="node15" class="node">
<title>Node15</title>
<g id="a_node15"><a xlink:href="_field_8_h.html" target="_top" xlink:title=" ">
<polygon fill="white" stroke="black" points="1331,-118 1331,-137 1455,-137 1455,-118 1331,-118"/>
<text text-anchor="middle" x="1393" y="-125" font-family="Helvetica,sans-Serif" font-size="10.00">amr&#45;wind/core/Field.H</text>
</a>
</g>
</g>
<!-- Node8&#45;&gt;Node15 -->
<g id="edge17" class="edge">
<title>Node8&#45;&gt;Node15</title>
<path fill="none" stroke="midnightblue" d="M1785.31,-185.66C1705.52,-176.89 1575.45,-161.46 1464,-143 1456.83,-141.81 1449.29,-140.42 1441.89,-138.98"/>
<polygon fill="midnightblue" stroke="midnightblue" points="1442.46,-135.53 1431.96,-137 1441.09,-142.39 1442.46,-135.53"/>
</g>
<!-- Node23 -->
<g id="node23" class="node">
<title>Node23</title>
<g id="a_node23"><a xlink:href="_int_field_8_h.html" target="_top" xlink:title=" ">
<polygon fill="white" stroke="black" points="2481.5,-118 2481.5,-137 2618.5,-137 2618.5,-118 2481.5,-118"/>
<text text-anchor="middle" x="2550" y="-125" font-family="Helvetica,sans-Serif" font-size="10.00">amr&#45;wind/core/IntField.H</text>
</a>
</g>
</g>
<!-- Node8&#45;&gt;Node23 -->
<g id="edge32" class="edge">
<title>Node8&#45;&gt;Node23</title>
<path fill="none" stroke="midnightblue" d="M1934.92,-187.96C2045.22,-179.57 2257.74,-162.53 2438,-143 2450.89,-141.6 2464.6,-139.96 2477.84,-138.29"/>
<polygon fill="midnightblue" stroke="midnightblue" points="2478.37,-141.75 2487.85,-137.01 2477.49,-134.81 2478.37,-141.75"/>
</g>
<!-- Node24 -->
<g id="node24" class="node">
<title>Node24</title>
<g id="a_node24"><a xlink:title=" ">
<polygon fill="white" stroke="#bfbfbf" points="2463,-56.5 2463,-75.5 2575,-75.5 2575,-56.5 2463,-56.5"/>
<text text-anchor="middle" x="2519" y="-63.5" font-family="Helvetica,sans-Serif" font-size="10.00">AMReX_iMultiFab.H</text>
</a>
</g>
</g>
<!-- Node8&#45;&gt;Node24 -->
<g id="edge54" class="edge">
<title>Node8&#45;&gt;Node24</title>
<path fill="none" stroke="midnightblue" d="M1934.6,-193.83C2033.45,-192.49 2212.44,-183.9 2359,-143 2410.58,-128.6 2466.03,-98.62 2496.21,-80.92"/>
<polygon fill="midnightblue" stroke="midnightblue" points="2498.28,-83.76 2505.09,-75.64 2494.7,-77.75 2498.28,-83.76"/>
</g>
<!-- Node25 -->
<g id="node25" class="node">
<title>Node25</title>
<g id="a_node25"><a xlink:href="_scratch_field_8_h.html" target="_top" xlink:title=" ">
<polygon fill="white" stroke="black" points="1920,-118 1920,-137 2080,-137 2080,-118 1920,-118"/>
<text text-anchor="middle" x="2000" y="-125" font-family="Helvetica,sans-Serif" font-size="10.00">amr&#45;wind/core/ScratchField.H</text>
</a>
</g>
</g>
<!-- Node8&#45;&gt;Node25 -->
<g id="edge36" class="edge">
<title>Node8&#45;&gt;Node25</title>
<path fill="none" stroke="midnightblue" d="M1878.59,-184.87C1902.54,-173.75 1944.39,-154.32 1972.15,-141.43"/>
<polygon fill="midnightblue" stroke="midnightblue" points="1973.74,-144.55 1981.33,-137.17 1970.79,-138.2 1973.74,-144.55"/>
</g>
<!-- Node28 -->
<g id="node28" class="node">
<title>Node28</title>
<g id="a_node28"><a xlink:href="_int_scratch_field_8_h.html" target="_top" xlink:title=" ">
<polygon fill="white" stroke="black" points="2210.5,-112.5 2210.5,-142.5 2349.5,-142.5 2349.5,-112.5 2210.5,-112.5"/>
<text text-anchor="start" x="2218.5" y="-130.5" font-family="Helvetica,sans-Serif" font-size="10.00">amr&#45;wind/core/IntScratch</text>
<text text-anchor="middle" x="2280" y="-119.5" font-family="Helvetica,sans-Serif" font-size="10.00">Field.H</text>
</a>
</g>
</g>
<!-- Node8&#45;&gt;Node28 -->
<g id="edge44" class="edge">
<title>Node8&#45;&gt;Node28</title>
<path fill="none" stroke="midnightblue" d="M1915.34,-184.94C1988.22,-173.66 2116.88,-153.74 2200.26,-140.84"/>
<polygon fill="midnightblue" stroke="midnightblue" points="2200.85,-144.29 2210.2,-139.3 2199.78,-137.37 2200.85,-144.29"/>
</g>
<!-- Node12&#45;&gt;Node11 -->
<g id="edge14" class="edge">
<title>Node12&#45;&gt;Node11</title>
<path fill="none" stroke="midnightblue" d="M2668.92,-56.62C2584.21,-46.91 2444.82,-30.93 2355.51,-20.69"/>
<polygon fill="midnightblue" stroke="midnightblue" points="2355.75,-17.19 2345.42,-19.53 2354.95,-24.15 2355.75,-17.19"/>
</g>
<!-- Node12&#45;&gt;Node13 -->
<g id="edge15" class="edge">
<title>Node12&#45;&gt;Node13</title>
<path fill="none" stroke="midnightblue" d="M2668.85,-60.65C2642.15,-59.11 2611.71,-57.41 2584,-56 2225.88,-37.8 2135.79,-43.76 1778,-20 1766.01,-19.2 1753.25,-18.2 1740.95,-17.16"/>
<polygon fill="midnightblue" stroke="midnightblue" points="1741.02,-13.65 1730.75,-16.27 1740.41,-20.62 1741.02,-13.65"/>
</g>
<!-- Node14 -->
<g id="node14" class="node">
<title>Node14</title>
<g id="a_node14"><a xlink:title=" ">
<polygon fill="white" stroke="#bfbfbf" points="2680,-0.5 2680,-19.5 2804,-19.5 2804,-0.5 2680,-0.5"/>
<text text-anchor="middle" x="2742" y="-7.5" font-family="Helvetica,sans-Serif" font-size="10.00">AMReX_Interpolater.H</text>
</a>
</g>
</g>
<!-- Node12&#45;&gt;Node14 -->
<g id="edge16" class="edge">
<title>Node12&#45;&gt;Node14</title>
<path fill="none" stroke="midnightblue" d="M2742,-56.08C2742,-49.01 2742,-38.86 2742,-29.99"/>
<polygon fill="midnightblue" stroke="midnightblue" points="2745.5,-29.75 2742,-19.75 2738.5,-29.75 2745.5,-29.75"/>
</g>
<!-- Node15&#45;&gt;Node9 -->
<g id="edge18" class="edge">
<title>Node15&#45;&gt;Node9</title>
<path fill="none" stroke="midnightblue" d="M1434.27,-117.95C1444.02,-115.96 1454.37,-113.88 1464,-112 1549.64,-95.27 1573.49,-101.31 1657,-76 1702.65,-62.16 1753.1,-38.89 1782.87,-24.27"/>
<polygon fill="midnightblue" stroke="midnightblue" points="1784.74,-27.25 1792.14,-19.67 1781.62,-20.98 1784.74,-27.25"/>
</g>
<!-- Node15&#45;&gt;Node10 -->
<g id="edge20" class="edge">
<title>Node15&#45;&gt;Node10</title>
<path fill="none" stroke="midnightblue" d="M1339.84,-117.98C1270.52,-106.86 1149.75,-87.49 1078.72,-76.1"/>
<polygon fill="midnightblue" stroke="midnightblue" points="1079.04,-72.6 1068.61,-74.47 1077.93,-79.51 1079.04,-72.6"/>
</g>
<!-- Node15&#45;&gt;Node11 -->
<g id="edge26" class="edge">
<title>Node15&#45;&gt;Node11</title>
<path fill="none" stroke="midnightblue" d="M1430.06,-117.94C1440.94,-115.7 1452.9,-113.49 1464,-112 1706.35,-79.46 1772,-117.38 2013,-76 2045.31,-70.45 2052.28,-64.28 2084,-56 2131.45,-43.61 2186.01,-30.63 2223.9,-21.81"/>
<polygon fill="midnightblue" stroke="midnightblue" points="2224.69,-25.22 2233.64,-19.54 2223.11,-18.4 2224.69,-25.22"/>
</g>
<!-- Node15&#45;&gt;Node13 -->
<g id="edge22" class="edge">
<title>Node15&#45;&gt;Node13</title>
<path fill="none" stroke="midnightblue" d="M1381.32,-117.8C1363.87,-103.78 1334.8,-75.75 1352,-56 1384.92,-18.19 1526.57,-11.13 1611.29,-10.39"/>
<polygon fill="midnightblue" stroke="midnightblue" points="1611.35,-13.89 1621.33,-10.33 1611.31,-6.89 1611.35,-13.89"/>
</g>
<!-- Node16 -->
<g id="node16" class="node">
<title>Node16</title>
<g id="a_node16"><a xlink:title=" ">
<polygon fill="white" stroke="#bfbfbf" points="833,-56.5 833,-75.5 891,-75.5 891,-56.5 833,-56.5"/>
<text text-anchor="middle" x="862" y="-63.5" font-family="Helvetica,sans-Serif" font-size="10.00">memory</text>
</a>
</g>
</g>
<!-- Node15&#45;&gt;Node16 -->
<g id="edge19" class="edge">
<title>Node15&#45;&gt;Node16</title>
<path fill="none" stroke="midnightblue" d="M1330.78,-122.74C1238.85,-116.61 1061.24,-102.56 901.4,-76.04"/>
<polygon fill="midnightblue" stroke="midnightblue" points="901.82,-72.56 891.38,-74.36 900.66,-79.47 901.82,-72.56"/>
</g>
<!-- Node17 -->
<g id="node17" class="node">
<title>Node17</title>
<g id="a_node17"><a xlink:title=" ">
<polygon fill="white" stroke="#bfbfbf" points="1361,-56.5 1361,-75.5 1425,-75.5 1425,-56.5 1361,-56.5"/>
<text text-anchor="middle" x="1393" y="-63.5" font-family="Helvetica,sans-Serif" font-size="10.00">algorithm</text>
</a>
</g>
</g>
<!-- Node15&#45;&gt;Node17 -->
<g id="edge21" class="edge">
<title>Node15&#45;&gt;Node17</title>
<path fill="none" stroke="midnightblue" d="M1393,-117.98C1393,-109.58 1393,-96.48 1393,-85.66"/>
<polygon fill="midnightblue" stroke="midnightblue" points="1396.5,-85.51 1393,-75.51 1389.5,-85.51 1396.5,-85.51"/>
</g>
<!-- Node18 -->
<g id="node18" class="node">
<title>Node18</title>
<g id="a_node18"><a xlink:title=" ">
<polygon fill="white" stroke="#bfbfbf" points="1443.5,-56.5 1443.5,-75.5 1542.5,-75.5 1542.5,-56.5 1443.5,-56.5"/>
<text text-anchor="middle" x="1493" y="-63.5" font-family="Helvetica,sans-Serif" font-size="10.00">AMReX_BCRec.H</text>
</a>
</g>
</g>
<!-- Node15&#45;&gt;Node18 -->
<g id="edge23" class="edge">
<title>Node15&#45;&gt;Node18</title>
<path fill="none" stroke="midnightblue" d="M1407.33,-117.98C1423.66,-108.25 1450.6,-92.23 1469.91,-80.74"/>
<polygon fill="midnightblue" stroke="midnightblue" points="1471.89,-83.63 1478.7,-75.51 1468.32,-77.61 1471.89,-83.63"/>
</g>
<!-- Node19 -->
<g id="node19" class="node">
<title>Node19</title>
<g id="a_node19"><a xlink:title=" ">
<polygon fill="white" stroke="#bfbfbf" points="1560.5,-56.5 1560.5,-75.5 1647.5,-75.5 1647.5,-56.5 1560.5,-56.5"/>
<text text-anchor="middle" x="1604" y="-63.5" font-family="Helvetica,sans-Serif" font-size="10.00">AMReX_Gpu.H</text>
</a>
</g>
</g>
<!-- Node15&#45;&gt;Node19 -->
<g id="edge24" class="edge">
<title>Node15&#45;&gt;Node19</title>
<path fill="none" stroke="midnightblue" d="M1423.23,-117.98C1460.29,-107.53 1523.19,-89.79 1564.16,-78.23"/>
<polygon fill="midnightblue" stroke="midnightblue" points="1565.15,-81.59 1573.82,-75.51 1563.25,-74.85 1565.15,-81.59"/>
</g>
<!-- Node20 -->
<g id="node20" class="node">
<title>Node20</title>
<g id="a_node20"><a xlink:href="incflo__enums_8_h.html" target="_top" xlink:title=" ">
<polygon fill="white" stroke="black" points="1163.5,-56.5 1163.5,-75.5 1304.5,-75.5 1304.5,-56.5 1163.5,-56.5"/>
<text text-anchor="middle" x="1234" y="-63.5" font-family="Helvetica,sans-Serif" font-size="10.00">amr&#45;wind/incflo_enums.H</text>
</a>
</g>
</g>
<!-- Node15&#45;&gt;Node20 -->
<g id="edge25" class="edge">
<title>Node15&#45;&gt;Node20</title>
<path fill="none" stroke="midnightblue" d="M1370.22,-117.98C1342.95,-107.77 1297.09,-90.61 1266.2,-79.05"/>
<polygon fill="midnightblue" stroke="midnightblue" points="1267.33,-75.74 1256.74,-75.51 1264.88,-82.29 1267.33,-75.74"/>
</g>
<!-- Node21 -->
<g id="node21" class="node">
<title>Node21</title>
<g id="a_node21"><a xlink:href="_view_field_8_h.html" target="_top" xlink:title=" ">
<polygon fill="white" stroke="black" points="1856,-56.5 1856,-75.5 2004,-75.5 2004,-56.5 1856,-56.5"/>
<text text-anchor="middle" x="1930" y="-63.5" font-family="Helvetica,sans-Serif" font-size="10.00">amr&#45;wind/core/ViewField.H</text>
</a>
</g>
</g>
<!-- Node15&#45;&gt;Node21 -->
<g id="edge27" class="edge">
<title>Node15&#45;&gt;Node21</title>
<path fill="none" stroke="midnightblue" d="M1431.19,-117.93C1441.78,-115.77 1453.3,-113.6 1464,-112 1596.81,-92.08 1752.31,-79.13 1845.88,-72.45"/>
<polygon fill="midnightblue" stroke="midnightblue" points="1846.13,-75.94 1855.86,-71.74 1845.64,-68.96 1846.13,-75.94"/>
</g>
<!-- Node21&#45;&gt;Node9 -->
<g id="edge28" class="edge">
<title>Node21&#45;&gt;Node9</title>
<path fill="none" stroke="midnightblue" d="M1910.83,-56.44C1891.09,-47.64 1860.11,-33.81 1837.51,-23.72"/>
<polygon fill="midnightblue" stroke="midnightblue" points="1838.64,-20.4 1828.08,-19.52 1835.79,-26.79 1838.64,-20.4"/>
</g>
<!-- Node21&#45;&gt;Node11 -->
<g id="edge29" class="edge">
<title>Node21&#45;&gt;Node11</title>
<path fill="none" stroke="midnightblue" d="M1984.03,-56.44C2044.64,-46.85 2142.86,-31.29 2207.2,-21.1"/>
<polygon fill="midnightblue" stroke="midnightblue" points="2207.89,-24.54 2217.22,-19.52 2206.8,-17.62 2207.89,-24.54"/>
</g>
<!-- Node21&#45;&gt;Node13 -->
<g id="edge30" class="edge">
<title>Node21&#45;&gt;Node13</title>
<path fill="none" stroke="midnightblue" d="M1889.75,-56.44C1845.35,-47 1773.85,-31.8 1725.91,-21.61"/>
<polygon fill="midnightblue" stroke="midnightblue" points="1726.57,-18.17 1716.06,-19.52 1725.11,-25.02 1726.57,-18.17"/>
</g>
<!-- Node22 -->
<g id="node22" class="node">
<title>Node22</title>
<g id="a_node22"><a xlink:title=" ">
<polygon fill="white" stroke="#bfbfbf" points="1892,-0.5 1892,-19.5 1990,-19.5 1990,-0.5 1892,-0.5"/>
<text text-anchor="middle" x="1941" y="-7.5" font-family="Helvetica,sans-Serif" font-size="10.00">AMReX_Vector.H</text>
</a>
</g>
</g>
<!-- Node21&#45;&gt;Node22 -->
<g id="edge31" class="edge">
<title>Node21&#45;&gt;Node22</title>
<path fill="none" stroke="midnightblue" d="M1931.82,-56.08C1933.27,-48.93 1935.37,-38.64 1937.19,-29.69"/>
<polygon fill="midnightblue" stroke="midnightblue" points="1940.65,-30.25 1939.22,-19.75 1933.79,-28.85 1940.65,-30.25"/>
</g>
<!-- Node23&#45;&gt;Node9 -->
<g id="edge33" class="edge">
<title>Node23&#45;&gt;Node9</title>
<path fill="none" stroke="midnightblue" d="M2560.14,-117.68C2575.57,-103.24 2601.41,-74.32 2584,-56 2557.14,-27.73 1921.85,-23.36 1883,-20 1869.4,-18.83 1854.45,-17.09 1841.56,-15.46"/>
<polygon fill="midnightblue" stroke="midnightblue" points="1841.67,-11.94 1831.3,-14.12 1840.77,-18.88 1841.67,-11.94"/>
</g>
<!-- Node23&#45;&gt;Node11 -->
<g id="edge34" class="edge">
<title>Node23&#45;&gt;Node11</title>
<path fill="none" stroke="midnightblue" d="M2569.08,-117.8C2595.32,-104.7 2637.17,-78.96 2617,-56 2600.76,-37.51 2465.73,-24.36 2369.25,-17.22"/>
<polygon fill="midnightblue" stroke="midnightblue" points="2369.39,-13.73 2359.16,-16.49 2368.88,-20.71 2369.39,-13.73"/>
</g>
<!-- Node23&#45;&gt;Node24 -->
<g id="edge35" class="edge">
<title>Node23&#45;&gt;Node24</title>
<path fill="none" stroke="midnightblue" d="M2545.56,-117.98C2541.05,-109.32 2533.93,-95.65 2528.19,-84.65"/>
<polygon fill="midnightblue" stroke="midnightblue" points="2531.16,-82.76 2523.43,-75.51 2524.95,-85.99 2531.16,-82.76"/>
</g>
<!-- Node25&#45;&gt;Node9 -->
<g id="edge37" class="edge">
<title>Node25&#45;&gt;Node9</title>
<path fill="none" stroke="midnightblue" d="M1943.64,-117.98C1912.49,-110.95 1874.62,-98.35 1847,-76 1831.95,-63.83 1821.6,-43.99 1815.55,-29.43"/>
<polygon fill="midnightblue" stroke="midnightblue" points="1818.75,-28.02 1811.89,-19.94 1812.22,-30.53 1818.75,-28.02"/>
</g>
<!-- Node25&#45;&gt;Node11 -->
<g id="edge39" class="edge">
<title>Node25&#45;&gt;Node11</title>
<path fill="none" stroke="midnightblue" d="M2013.38,-117.96C2036.19,-103.67 2084.38,-74.66 2128,-56 2160.54,-42.08 2198.85,-30.26 2227.63,-22.22"/>
<polygon fill="midnightblue" stroke="midnightblue" points="2228.67,-25.57 2237.38,-19.54 2226.81,-18.82 2228.67,-25.57"/>
</g>
<!-- Node25&#45;&gt;Node13 -->
<g id="edge41" class="edge">
<title>Node25&#45;&gt;Node13</title>
<path fill="none" stroke="midnightblue" d="M1965.37,-117.93C1929.76,-108.79 1872.89,-93.27 1825,-76 1781.35,-60.26 1732.31,-37.92 1702.81,-23.96"/>
<polygon fill="midnightblue" stroke="midnightblue" points="1704.12,-20.71 1693.59,-19.57 1701.11,-27.03 1704.12,-20.71"/>
</g>
<!-- Node25&#45;&gt;Node21 -->
<g id="edge40" class="edge">
<title>Node25&#45;&gt;Node21</title>
<path fill="none" stroke="midnightblue" d="M1989.97,-117.98C1978.95,-108.61 1961.04,-93.38 1947.66,-82.01"/>
<polygon fill="midnightblue" stroke="midnightblue" points="1949.9,-79.32 1940.01,-75.51 1945.36,-84.65 1949.9,-79.32"/>
</g>
<!-- Node25&#45;&gt;Node22 -->
<g id="edge42" class="edge">
<title>Node25&#45;&gt;Node22</title>
<path fill="none" stroke="midnightblue" d="M2005.14,-117.66C2012.53,-103.69 2024.1,-76.03 2013,-56 2004.91,-41.41 1989.9,-30.92 1975.66,-23.76"/>
<polygon fill="midnightblue" stroke="midnightblue" points="1977.05,-20.55 1966.5,-19.53 1974.11,-26.9 1977.05,-20.55"/>
</g>
<!-- Node26 -->
<g id="node26" class="node">
<title>Node26</title>
<g id="a_node26"><a xlink:title=" ">
<polygon fill="white" stroke="#bfbfbf" points="2136.5,-56.5 2136.5,-75.5 2181.5,-75.5 2181.5,-56.5 2136.5,-56.5"/>
<text text-anchor="middle" x="2159" y="-63.5" font-family="Helvetica,sans-Serif" font-size="10.00">utility</text>
</a>
</g>
</g>
<!-- Node25&#45;&gt;Node26 -->
<g id="edge38" class="edge">
<title>Node25&#45;&gt;Node26</title>
<path fill="none" stroke="midnightblue" d="M2022.78,-117.98C2050.05,-107.77 2095.91,-90.61 2126.8,-79.05"/>
<polygon fill="midnightblue" stroke="midnightblue" points="2128.12,-82.29 2136.26,-75.51 2125.67,-75.74 2128.12,-82.29"/>
</g>
<!-- Node27 -->
<g id="node27" class="node">
<title>Node27</title>
<g id="a_node27"><a xlink:title=" ">
<polygon fill="white" stroke="#bfbfbf" points="2199.5,-56.5 2199.5,-75.5 2330.5,-75.5 2330.5,-56.5 2199.5,-56.5"/>
<text text-anchor="middle" x="2265" y="-63.5" font-family="Helvetica,sans-Serif" font-size="10.00">AMReX_PhysBCFunct.H</text>
</a>
</g>
</g>
<!-- Node25&#45;&gt;Node27 -->
<g id="edge43" class="edge">
<title>Node25&#45;&gt;Node27</title>
<path fill="none" stroke="midnightblue" d="M2037.97,-117.98C2085.2,-107.37 2165.86,-89.26 2217.24,-77.72"/>
<polygon fill="midnightblue" stroke="midnightblue" points="2218.11,-81.11 2227.1,-75.51 2216.58,-74.28 2218.11,-81.11"/>
</g>
<!-- Node28&#45;&gt;Node9 -->
<g id="edge45" class="edge">
<title>Node28&#45;&gt;Node9</title>
<path fill="none" stroke="midnightblue" d="M2305.91,-112.43C2329.3,-97.99 2357.56,-75 2340,-56 2305.43,-18.6 1933.68,-25.08 1883,-20 1869.42,-18.64 1854.47,-16.87 1841.58,-15.26"/>
<polygon fill="midnightblue" stroke="midnightblue" points="1841.68,-11.75 1831.32,-13.96 1840.8,-18.69 1841.68,-11.75"/>
</g>
<!-- Node28&#45;&gt;Node11 -->
<g id="edge47" class="edge">
<title>Node28&#45;&gt;Node11</title>
<path fill="none" stroke="midnightblue" d="M2349.88,-114.08C2391.42,-103.43 2432.22,-85.11 2411,-56 2399.29,-39.94 2381.76,-29.49 2363.03,-22.71"/>
<polygon fill="midnightblue" stroke="midnightblue" points="2364.04,-19.36 2353.45,-19.59 2361.87,-26.02 2364.04,-19.36"/>
</g>
<!-- Node28&#45;&gt;Node21 -->
<g id="edge48" class="edge">
<title>Node28&#45;&gt;Node21</title>
<path fill="none" stroke="midnightblue" d="M2210.43,-114.67C2146.04,-103.73 2051.28,-87.62 1990.09,-77.22"/>
<polygon fill="midnightblue" stroke="midnightblue" points="1990.64,-73.76 1980.2,-75.53 1989.47,-80.66 1990.64,-73.76"/>
</g>
<!-- Node28&#45;&gt;Node22 -->
<g id="edge50" class="edge">
<title>Node28&#45;&gt;Node22</title>
<path fill="none" stroke="midnightblue" d="M2323.78,-112.37C2356.97,-99.44 2393.62,-78.88 2373,-56 2348.52,-28.84 2113.18,-17.01 2000.53,-12.86"/>
<polygon fill="midnightblue" stroke="midnightblue" points="2000.47,-9.36 1990.35,-12.5 2000.22,-16.35 2000.47,-9.36"/>
</g>
<!-- Node28&#45;&gt;Node24 -->
<g id="edge49" class="edge">
<title>Node28&#45;&gt;Node24</title>
<path fill="none" stroke="midnightblue" d="M2336.34,-112.47C2378.65,-101.94 2435.79,-87.72 2474.82,-78"/>
<polygon fill="midnightblue" stroke="midnightblue" points="2475.97,-81.32 2484.83,-75.51 2474.28,-74.53 2475.97,-81.32"/>
</g>
<!-- Node28&#45;&gt;Node26 -->
<g id="edge46" class="edge">
<title>Node28&#45;&gt;Node26</title>
<path fill="none" stroke="midnightblue" d="M2251.32,-112.4C2231.48,-102.64 2205.24,-89.74 2185.81,-80.18"/>
<polygon fill="midnightblue" stroke="midnightblue" points="2187.12,-76.93 2176.61,-75.66 2184.04,-83.21 2187.12,-76.93"/>
</g>
<!-- Node28&#45;&gt;Node27 -->
<g id="edge51" class="edge">
<title>Node28&#45;&gt;Node27</title>
<path fill="none" stroke="midnightblue" d="M2276.45,-112.4C2274.42,-104.38 2271.87,-94.23 2269.68,-85.57"/>
<polygon fill="midnightblue" stroke="midnightblue" points="2273.02,-84.5 2267.18,-75.66 2266.23,-86.21 2273.02,-84.5"/>
</g>
<!-- Node29&#45;&gt;Node9 -->
<g id="edge56" class="edge">
<title>Node29&#45;&gt;Node9</title>
<path fill="none" stroke="midnightblue" d="M1026.12,-179.32C1042.88,-170.69 1062.8,-158.36 1077,-143 1106.42,-111.18 1084.76,-79.76 1121,-56 1178.61,-18.23 1671.41,-26.46 1740,-20 1752.06,-18.86 1765.27,-17.24 1776.86,-15.68"/>
<polygon fill="midnightblue" stroke="midnightblue" points="1777.55,-19.12 1786.98,-14.28 1776.6,-12.18 1777.55,-19.12"/>
</g>
<!-- Node29&#45;&gt;Node11 -->
<g id="edge70" class="edge">
<title>Node29&#45;&gt;Node11</title>
<path fill="none" stroke="midnightblue" d="M1037.05,-179.49C1057.75,-171.23 1081.92,-159.18 1100,-143 1133.91,-112.65 1114.68,-78.92 1154,-56 1164.95,-49.62 1902.09,-23.68 2172.74,-14.36"/>
<polygon fill="midnightblue" stroke="midnightblue" points="2173.07,-17.85 2182.95,-14 2172.83,-10.85 2173.07,-17.85"/>
</g>
<!-- Node29&#45;&gt;Node20 -->
<g id="edge71" class="edge">
<title>Node29&#45;&gt;Node20</title>
<path fill="none" stroke="midnightblue" d="M1071.71,-186.72C1109.45,-180.24 1153.71,-167.6 1187,-143 1206.84,-128.34 1220.16,-102.57 1227.41,-85.15"/>
<polygon fill="midnightblue" stroke="midnightblue" points="1230.78,-86.14 1231.15,-75.56 1224.26,-83.61 1230.78,-86.14"/>
</g>
<!-- Node30 -->
<g id="node30" class="node">
<title>Node30</title>
<g id="a_node30"><a xlink:href="_factory_8_h.html" target="_top" xlink:title=" ">
<polygon fill="white" stroke="black" points="606,-118 606,-137 740,-137 740,-118 606,-118"/>
<text text-anchor="middle" x="673" y="-125" font-family="Helvetica,sans-Serif" font-size="10.00">amr&#45;wind/core/Factory.H</text>
</a>
</g>
</g>
<!-- Node29&#45;&gt;Node30 -->
<g id="edge57" class="edge">
<title>Node29&#45;&gt;Node30</title>
<path fill="none" stroke="midnightblue" d="M924.74,-179.48C864.83,-167.34 779.53,-150.07 725.22,-139.07"/>
<polygon fill="midnightblue" stroke="midnightblue" points="725.61,-135.58 715.12,-137.03 724.22,-142.44 725.61,-135.58"/>
</g>
<!-- Node34 -->
<g id="node34" class="node">
<title>Node34</title>
<g id="a_node34"><a xlink:href="_coll_mgr_8_h.html" target="_top" xlink:title=" ">
<polygon fill="white" stroke="black" points="758.5,-118 758.5,-137 895.5,-137 895.5,-118 758.5,-118"/>
<text text-anchor="middle" x="827" y="-125" font-family="Helvetica,sans-Serif" font-size="10.00">amr&#45;wind/core/CollMgr.H</text>
</a>
</g>
</g>
<!-- Node29&#45;&gt;Node34 -->
<g id="edge63" class="edge">
<title>Node29&#45;&gt;Node34</title>
<path fill="none" stroke="midnightblue" d="M957.76,-179.4C928.07,-167.84 886.49,-151.66 858.25,-140.66"/>
<polygon fill="midnightblue" stroke="midnightblue" points="859.44,-137.37 848.86,-137.01 856.91,-143.9 859.44,-137.37"/>
</g>
<!-- Node35 -->
<g id="node35" class="node">
<title>Node35</title>
<g id="a_node35"><a xlink:href="_p_d_e_fields_8_h.html" target="_top" xlink:title=" ">
<polygon fill="white" stroke="black" points="913.5,-112.5 913.5,-142.5 1068.5,-142.5 1068.5,-112.5 913.5,-112.5"/>
<text text-anchor="start" x="921.5" y="-130.5" font-family="Helvetica,sans-Serif" font-size="10.00">amr&#45;wind/equation_systems</text>
<text text-anchor="middle" x="991" y="-119.5" font-family="Helvetica,sans-Serif" font-size="10.00">/PDEFields.H</text>
</a>
</g>
</g>
<!-- Node29&#45;&gt;Node35 -->
<g id="edge68" class="edge">
<title>Node29&#45;&gt;Node35</title>
<path fill="none" stroke="midnightblue" d="M993.35,-179.4C992.99,-171.64 992.54,-161.81 992.12,-152.86"/>
<polygon fill="midnightblue" stroke="midnightblue" points="995.61,-152.4 991.65,-142.58 988.61,-152.73 995.61,-152.4"/>
</g>
<!-- Node30&#45;&gt;Node10 -->
<g id="edge59" class="edge">
<title>Node30&#45;&gt;Node10</title>
<path fill="none" stroke="midnightblue" d="M716.77,-117.95C727.32,-115.95 738.55,-113.86 749,-112 789.49,-104.8 897.93,-87.1 965.32,-76.17"/>
<polygon fill="midnightblue" stroke="midnightblue" points="966.05,-79.6 975.36,-74.54 964.93,-72.69 966.05,-79.6"/>
</g>
<!-- Node30&#45;&gt;Node16 -->
<g id="edge58" class="edge">
<title>Node30&#45;&gt;Node16</title>
<path fill="none" stroke="midnightblue" d="M700.08,-117.98C732.92,-107.64 788.43,-90.16 825.15,-78.6"/>
<polygon fill="midnightblue" stroke="midnightblue" points="826.48,-81.85 834.97,-75.51 824.38,-75.17 826.48,-81.85"/>
</g>
<!-- Node31 -->
<g id="node31" class="node">
<title>Node31</title>
<g id="a_node31"><a xlink:title=" ">
<polygon fill="white" stroke="#bfbfbf" points="679,-56.5 679,-75.5 739,-75.5 739,-56.5 679,-56.5"/>
<text text-anchor="middle" x="709" y="-63.5" font-family="Helvetica,sans-Serif" font-size="10.00">iostream</text>
</a>
</g>
</g>
<!-- Node30&#45;&gt;Node31 -->
<g id="edge60" class="edge">
<title>Node30&#45;&gt;Node31</title>
<path fill="none" stroke="midnightblue" d="M678.16,-117.98C683.45,-109.23 691.84,-95.37 698.53,-84.31"/>
<polygon fill="midnightblue" stroke="midnightblue" points="701.67,-85.88 703.85,-75.51 695.68,-82.25 701.67,-85.88"/>
</g>
<!-- Node32 -->
<g id="node32" class="node">
<title>Node32</title>
<g id="a_node32"><a xlink:title=" ">
<polygon fill="white" stroke="#bfbfbf" points="491,-56.5 491,-75.5 581,-75.5 581,-56.5 491,-56.5"/>
<text text-anchor="middle" x="536" y="-63.5" font-family="Helvetica,sans-Serif" font-size="10.00">AMReX_Print.H</text>
</a>
</g>
</g>
<!-- Node30&#45;&gt;Node32 -->
<g id="edge61" class="edge">
<title>Node30&#45;&gt;Node32</title>
<path fill="none" stroke="midnightblue" d="M653.37,-117.98C630.18,-107.9 591.38,-91.05 564.79,-79.5"/>
<polygon fill="midnightblue" stroke="midnightblue" points="566.16,-76.28 555.59,-75.51 563.37,-82.7 566.16,-76.28"/>
</g>
<!-- Node33 -->
<g id="node33" class="node">
<title>Node33</title>
<g id="a_node33"><a xlink:title=" ">
<polygon fill="white" stroke="#bfbfbf" points="599,-56.5 599,-75.5 661,-75.5 661,-56.5 599,-56.5"/>
<text text-anchor="middle" x="630" y="-63.5" font-family="Helvetica,sans-Serif" font-size="10.00">AMReX.H</text>
</a>
</g>
</g>
<!-- Node30&#45;&gt;Node33 -->
<g id="edge62" class="edge">
<title>Node30&#45;&gt;Node33</title>
<path fill="none" stroke="midnightblue" d="M666.84,-117.98C660.39,-109.05 650.1,-94.81 642.03,-83.64"/>
<polygon fill="midnightblue" stroke="midnightblue" points="644.84,-81.56 636.15,-75.51 639.17,-85.66 644.84,-81.56"/>
</g>
<!-- Node34&#45;&gt;Node9 -->
<g id="edge64" class="edge">
<title>Node34&#45;&gt;Node9</title>
<path fill="none" stroke="midnightblue" d="M816.68,-117.93C800.6,-103.6 773.18,-74.51 791,-56 827.59,-17.99 1687.43,-24.42 1740,-20 1752.07,-18.99 1765.28,-17.38 1776.87,-15.81"/>
<polygon fill="midnightblue" stroke="midnightblue" points="1777.57,-19.25 1786.99,-14.39 1776.6,-12.32 1777.57,-19.25"/>
</g>
<!-- Node34&#45;&gt;Node10 -->
<g id="edge66" class="edge">
<title>Node34&#45;&gt;Node10</title>
<path fill="none" stroke="midnightblue" d="M854.94,-117.98C888.97,-107.59 946.58,-90.01 984.46,-78.45"/>
<polygon fill="midnightblue" stroke="midnightblue" points="985.57,-81.78 994.11,-75.51 983.53,-75.08 985.57,-81.78"/>
</g>
<!-- Node34&#45;&gt;Node16 -->
<g id="edge65" class="edge">
<title>Node34&#45;&gt;Node16</title>
<path fill="none" stroke="midnightblue" d="M832.01,-117.98C837.16,-109.23 845.31,-95.37 851.82,-84.31"/>
<polygon fill="midnightblue" stroke="midnightblue" points="854.94,-85.9 856.99,-75.51 848.91,-82.35 854.94,-85.9"/>
</g>
<!-- Node34&#45;&gt;Node22 -->
<g id="edge67" class="edge">
<title>Node34&#45;&gt;Node22</title>
<path fill="none" stroke="midnightblue" d="M823.09,-117.73C817.12,-102.82 808.01,-72.57 824,-56 863.22,-15.36 1783.63,-23.51 1840,-20 1853.51,-19.16 1868.02,-18.01 1881.7,-16.82"/>
<polygon fill="midnightblue" stroke="midnightblue" points="1882.33,-20.28 1891.98,-15.9 1881.71,-13.3 1882.33,-20.28"/>
</g>
<!-- Node36 -->
<g id="node36" class="node">
<title>Node36</title>
<g id="a_node36"><a xlink:title=" ">
<polygon fill="white" stroke="#bfbfbf" points="909,-56.5 909,-75.5 957,-75.5 957,-56.5 909,-56.5"/>
<text text-anchor="middle" x="933" y="-63.5" font-family="Helvetica,sans-Serif" font-size="10.00">iosfwd</text>
</a>
</g>
</g>
<!-- Node35&#45;&gt;Node36 -->
<g id="edge69" class="edge">
<title>Node35&#45;&gt;Node36</title>
<path fill="none" stroke="midnightblue" d="M977.25,-112.4C968.65,-103.58 957.55,-92.18 948.61,-83.02"/>
<polygon fill="midnightblue" stroke="midnightblue" points="950.93,-80.38 941.44,-75.66 945.91,-85.26 950.93,-80.38"/>
</g>
<!-- Node37&#45;&gt;Node13 -->
<g id="edge75" class="edge">
<title>Node37&#45;&gt;Node13</title>
<path fill="none" stroke="midnightblue" d="M594.3,-188.36C531.74,-182.09 446,-168.93 425,-143 394.53,-105.38 471.65,-56.17 472,-56 523.46,-30.83 1368.78,-15.78 1611.38,-11.97"/>
<polygon fill="midnightblue" stroke="midnightblue" points="1611.52,-15.46 1621.46,-11.81 1611.41,-8.47 1611.52,-15.46"/>
</g>
<!-- Node37&#45;&gt;Node30 -->
<g id="edge73" class="edge">
<title>Node37&#45;&gt;Node30</title>
<path fill="none" stroke="midnightblue" d="M664.35,-184.73C665.82,-175.18 668.21,-159.62 670.11,-147.28"/>
<polygon fill="midnightblue" stroke="midnightblue" points="673.61,-147.54 671.67,-137.13 666.69,-146.48 673.61,-147.54"/>
</g>
<!-- Node37&#45;&gt;Node34 -->
<g id="edge74" class="edge">
<title>Node37&#45;&gt;Node34</title>
<path fill="none" stroke="midnightblue" d="M684.78,-184.87C713.28,-173.57 763.43,-153.7 795.92,-140.82"/>
<polygon fill="midnightblue" stroke="midnightblue" points="797.39,-144 805.39,-137.06 794.81,-137.49 797.39,-144"/>
</g>
<!-- Node38 -->
<g id="node38" class="node">
<title>Node38</title>
<g id="a_node38"><a xlink:title=" ">
<polygon fill="white" stroke="#bfbfbf" points="434.5,-118 434.5,-137 549.5,-137 549.5,-118 434.5,-118"/>
<text text-anchor="middle" x="492" y="-125" font-family="Helvetica,sans-Serif" font-size="10.00">AMReX_Geometry.H</text>
</a>
</g>
</g>
<!-- Node37&#45;&gt;Node38 -->
<g id="edge76" class="edge">
<title>Node37&#45;&gt;Node38</title>
<path fill="none" stroke="midnightblue" d="M640.29,-184.87C610.44,-173.52 557.83,-153.52 523.97,-140.65"/>
<polygon fill="midnightblue" stroke="midnightblue" points="525.12,-137.35 514.53,-137.06 522.63,-143.89 525.12,-137.35"/>
</g>
<!-- Node39&#45;&gt;Node13 -->
<g id="edge81" class="edge">
<title>Node39&#45;&gt;Node13</title>
<path fill="none" stroke="midnightblue" d="M773.33,-184.97C716.33,-174.89 627.7,-157.65 597,-143 577.02,-133.46 576.8,-123.71 558,-112 522.38,-89.82 452.9,-86.22 482,-56 521.41,-15.08 1367.98,-11.24 1611.2,-10.98"/>
<polygon fill="midnightblue" stroke="midnightblue" points="1611.3,-14.48 1621.3,-10.98 1611.3,-7.48 1611.3,-14.48"/>
</g>
<!-- Node39&#45;&gt;Node15 -->
<g id="edge80" class="edge">
<title>Node39&#45;&gt;Node15</title>
<path fill="none" stroke="midnightblue" d="M869.57,-184.95C881.71,-182.84 894.83,-180.69 907,-179 1053.32,-158.64 1225.48,-142.61 1320.6,-134.44"/>
<polygon fill="midnightblue" stroke="midnightblue" points="1321.03,-137.92 1330.69,-133.58 1320.43,-130.94 1321.03,-137.92"/>
</g>
<!-- Node39&#45;&gt;Node30 -->
<g id="edge79" class="edge">
<title>Node39&#45;&gt;Node30</title>
<path fill="none" stroke="midnightblue" d="M803.95,-184.87C778,-173.7 732.58,-154.15 702.64,-141.26"/>
<polygon fill="midnightblue" stroke="midnightblue" points="703.7,-137.91 693.13,-137.17 700.94,-144.34 703.7,-137.91"/>
</g>
<!-- Node39&#45;&gt;Node34 -->
<g id="edge78" class="edge">
<title>Node39&#45;&gt;Node34</title>
<path fill="none" stroke="midnightblue" d="M824.4,-184.73C824.85,-175.18 825.56,-159.62 826.13,-147.28"/>
<polygon fill="midnightblue" stroke="midnightblue" points="829.64,-147.28 826.6,-137.13 822.64,-146.96 829.64,-147.28"/>
</g>
<!-- Node39&#45;&gt;Node38 -->
<g id="edge82" class="edge">
<title>Node39&#45;&gt;Node38</title>
<path fill="none" stroke="midnightblue" d="M779.36,-184.93C727.55,-174.95 639.56,-157.95 564,-143 557.68,-141.75 551.05,-140.43 544.48,-139.11"/>
<polygon fill="midnightblue" stroke="midnightblue" points="544.74,-135.6 534.25,-137.06 543.37,-142.46 544.74,-135.6"/>
</g>
</g>
</svg>
