<?xml version="1.0" encoding="UTF-8" standalone="no"?>
<!DOCTYPE svg PUBLIC "-//W3C//DTD SVG 1.1//EN"
 "http://www.w3.org/Graphics/SVG/1.1/DTD/svg11.dtd">
<!-- Generated by graphviz version 2.43.0 (0)
 -->
<!-- Title: helics.H Pages: 1 -->
<!--zoomable 252 -->
<svg id="main" version="1.1" xmlns="http://www.w3.org/2000/svg" xmlns:xlink="http://www.w3.org/1999/xlink" xml:space="preserve" onload="init(evt)">
<style type="text/css"><![CDATA[
.edge:hover path { stroke: red; }
.edge:hover polygon { stroke: red; fill: red; }
]]></style>
<script type="text/javascript"><![CDATA[
var edges = document.getElementsByTagName('g');
if (edges && edges.length) {
  for (var i=0;i<edges.length;i++) {
    if (edges[i].id.substr(0,4)=='edge') {
      edges[i].setAttribute('class','edge');
    }
  }
}
]]></script>
        <defs>
                <circle id="rim" cx="0" cy="0" r="7"/>
                <circle id="rim2" cx="0" cy="0" r="3.5"/>
                <g id="zoomPlus">
                        <use xlink:href="#rim" fill="#404040">
                                <set attributeName="fill" to="#808080" begin="zoomplus.mouseover" end="zoomplus.mouseout"/>
                        </use>
                        <path d="M-4,0h8M0,-4v8" fill="none" stroke="white" stroke-width="1.5" pointer-events="none"/>
                </g>
                <g id="zoomMin">
                        <use xlink:href="#rim" fill="#404040">
                                <set attributeName="fill" to="#808080" begin="zoomminus.mouseover" end="zoomminus.mouseout"/>
                        </use>
                        <path d="M-4,0h8" fill="none" stroke="white" stroke-width="1.5" pointer-events="none"/>
                </g>
                <g id="dirArrow">
                        <path fill="none" stroke="white" stroke-width="1.5" d="M0,-3.0v7 M-2.5,-0.5L0,-3.0L2.5,-0.5"/>
                </g>
               <g id="resetDef">
                       <use xlink:href="#rim2" fill="#404040">
                               <set attributeName="fill" to="#808080" begin="reset.mouseover" end="reset.mouseout"/>
                       </use>
               </g>
        </defs>

<script type="text/javascript">
var viewWidth = 4743;
var viewHeight = 252;
var sectionId = 'dynsection-1';
</script>
<script xlink:href="svgpan.js"/>
<svg id="graph" class="graph">
<g id="viewport">
<title>helics.H</title>
<polygon fill="white" stroke="transparent" points="-4,4 -4,-248 4738.5,-248 4738.5,4 -4,4"/>
<!-- Node1 -->
<g id="node1" class="node">
<title>Node1</title>
<g id="a_node1"><a xlink:title=" ">
<polygon fill="#bfbfbf" stroke="black" points="2482.5,-224.5 2482.5,-243.5 2538.5,-243.5 2538.5,-224.5 2482.5,-224.5"/>
<text text-anchor="middle" x="2510.5" y="-231.5" font-family="Helvetica,sans-Serif" font-size="10.00">helics.H</text>
</a>
</g>
</g>
<!-- Node2 -->
<g id="node2" class="node">
<title>Node2</title>
<g id="a_node2"><a xlink:href="_c_f_d_sim_8_h.html" target="_top" xlink:title=" ">
<polygon fill="white" stroke="red" points="2477.5,-168.5 2477.5,-187.5 2543.5,-187.5 2543.5,-168.5 2477.5,-168.5"/>
<text text-anchor="middle" x="2510.5" y="-175.5" font-family="Helvetica,sans-Serif" font-size="10.00">CFDSim.H</text>
</a>
</g>
</g>
<!-- Node1&#45;&gt;Node2 -->
<g id="edge1" class="edge">
<title>Node1&#45;&gt;Node2</title>
<path fill="none" stroke="midnightblue" d="M2504.03,-214.1C2503.4,-205.14 2503.84,-194.86 2505.37,-187.75"/>
<polygon fill="midnightblue" stroke="midnightblue" points="2500.57,-214.62 2505.33,-224.08 2507.51,-213.71 2500.57,-214.62"/>
</g>
<!-- Node165 -->
<g id="node50" class="node">
<title>Node165</title>
<g id="a_node50"><a xlink:href="helics_8cpp.html" target="_top" xlink:title=" ">
<polygon fill="white" stroke="black" points="2562,-168.5 2562,-187.5 2627,-187.5 2627,-168.5 2562,-168.5"/>
<text text-anchor="middle" x="2594.5" y="-175.5" font-family="Helvetica,sans-Serif" font-size="10.00">helics.cpp</text>
</a>
</g>
</g>
<!-- Node1&#45;&gt;Node165 -->
<g id="edge59" class="edge">
<title>Node1&#45;&gt;Node165</title>
<path fill="none" stroke="midnightblue" d="M2532.43,-218.9C2547.84,-209 2567.95,-196.07 2581.04,-187.65"/>
<polygon fill="midnightblue" stroke="midnightblue" points="2530.52,-215.97 2524,-224.32 2534.3,-221.86 2530.52,-215.97"/>
</g>
<!-- Node2&#45;&gt;Node1 -->
<g id="edge27" class="edge">
<title>Node2&#45;&gt;Node1</title>
<path fill="none" stroke="midnightblue" d="M2516.96,-197.69C2517.61,-206.64 2517.18,-216.93 2515.67,-224.08"/>
<polygon fill="midnightblue" stroke="midnightblue" points="2520.42,-197.2 2515.63,-187.75 2513.48,-198.13 2520.42,-197.2"/>
</g>
<!-- Node3 -->
<g id="node3" class="node">
<title>Node3</title>
<g id="a_node3"><a xlink:href="_wall_function_8_h.html" target="_top" xlink:title=" ">
<polygon fill="white" stroke="red" points="80,-112.5 80,-131.5 169,-131.5 169,-112.5 80,-112.5"/>
<text text-anchor="middle" x="124.5" y="-119.5" font-family="Helvetica,sans-Serif" font-size="10.00">WallFunction.H</text>
</a>
</g>
</g>
<!-- Node2&#45;&gt;Node3 -->
<g id="edge2" class="edge">
<title>Node2&#45;&gt;Node3</title>
<path fill="none" stroke="midnightblue" d="M2467.04,-177.03C2188.2,-177.08 647.26,-175.35 178.5,-132 175.47,-131.72 172.36,-131.37 169.22,-130.97"/>
<polygon fill="midnightblue" stroke="midnightblue" points="2467.17,-180.53 2477.17,-177.03 2467.17,-173.53 2467.17,-180.53"/>
</g>
<!-- Node5 -->
<g id="node4" class="node">
<title>Node5</title>
<g id="a_node4"><a xlink:href="_channel_flow_8_h.html" target="_top" xlink:title=" ">
<polygon fill="white" stroke="black" points="42,-56.5 42,-75.5 131,-75.5 131,-56.5 42,-56.5"/>
<text text-anchor="middle" x="86.5" y="-63.5" font-family="Helvetica,sans-Serif" font-size="10.00">ChannelFlow.H</text>
</a>
</g>
</g>
<!-- Node2&#45;&gt;Node5 -->
<g id="edge40" class="edge">
<title>Node2&#45;&gt;Node5</title>
<path fill="none" stroke="midnightblue" d="M2466.7,-177.04C2141.51,-177.21 114.18,-176.49 70.5,-132 55.52,-116.74 70.34,-89.84 79.86,-75.91"/>
<polygon fill="midnightblue" stroke="midnightblue" points="2467.12,-180.54 2477.12,-177.03 2467.12,-173.54 2467.12,-180.54"/>
</g>
<!-- Node6 -->
<g id="node5" class="node">
<title>Node6</title>
<g id="a_node5"><a xlink:href="_channel_flow_8cpp.html" target="_top" xlink:title=" ">
<polygon fill="white" stroke="black" points="0,-0.5 0,-19.5 99,-19.5 99,-0.5 0,-0.5"/>
<text text-anchor="middle" x="49.5" y="-7.5" font-family="Helvetica,sans-Serif" font-size="10.00">ChannelFlow.cpp</text>
</a>
</g>
</g>
<!-- Node2&#45;&gt;Node6 -->
<g id="edge39" class="edge">
<title>Node2&#45;&gt;Node6</title>
<path fill="none" stroke="midnightblue" d="M2466.7,-176.82C2141.46,-175.43 113.45,-165.4 60.5,-132 30.05,-112.79 26.03,-91.41 32.5,-56 34.9,-42.86 40.94,-28.56 45.13,-19.69"/>
<polygon fill="midnightblue" stroke="midnightblue" points="2467.1,-180.32 2477.12,-176.87 2467.13,-173.32 2467.1,-180.32"/>
</g>
<!-- Node7 -->
<g id="node6" class="node">
<title>Node7</title>
<g id="a_node6"><a xlink:href="_c_f_d_sim_8cpp.html" target="_top" xlink:title=" ">
<polygon fill="white" stroke="black" points="187.5,-112.5 187.5,-131.5 263.5,-131.5 263.5,-112.5 187.5,-112.5"/>
<text text-anchor="middle" x="225.5" y="-119.5" font-family="Helvetica,sans-Serif" font-size="10.00">CFDSim.cpp</text>
</a>
</g>
</g>
<!-- Node2&#45;&gt;Node7 -->
<g id="edge5" class="edge">
<title>Node2&#45;&gt;Node7</title>
<path fill="none" stroke="midnightblue" d="M2467.09,-177.13C2194.93,-177.79 720.88,-179.1 272.5,-132 269.61,-131.7 266.63,-131.31 263.64,-130.86"/>
<polygon fill="midnightblue" stroke="midnightblue" points="2467.36,-180.63 2477.35,-177.1 2467.34,-173.63 2467.36,-180.63"/>
</g>
<!-- Node8 -->
<g id="node7" class="node">
<title>Node8</title>
<g id="a_node7"><a xlink:href="_mesh_map_8cpp.html" target="_top" xlink:title=" ">
<polygon fill="white" stroke="black" points="281.5,-112.5 281.5,-131.5 365.5,-131.5 365.5,-112.5 281.5,-112.5"/>
<text text-anchor="middle" x="323.5" y="-119.5" font-family="Helvetica,sans-Serif" font-size="10.00">MeshMap.cpp</text>
</a>
</g>
</g>
<!-- Node2&#45;&gt;Node8 -->
<g id="edge6" class="edge">
<title>Node2&#45;&gt;Node8</title>
<path fill="none" stroke="midnightblue" d="M2467.01,-176.99C2202,-176.83 801.63,-173.94 374.5,-132 371.64,-131.72 368.69,-131.37 365.73,-130.97"/>
<polygon fill="midnightblue" stroke="midnightblue" points="2467.37,-180.5 2477.37,-177 2467.37,-173.5 2467.37,-180.5"/>
</g>
<!-- Node9 -->
<g id="node8" class="node">
<title>Node9</title>
<g id="a_node8"><a xlink:href="_a_b_l_forcing_8cpp.html" target="_top" xlink:title=" ">
<polygon fill="white" stroke="black" points="384,-112.5 384,-131.5 475,-131.5 475,-112.5 384,-112.5"/>
<text text-anchor="middle" x="429.5" y="-119.5" font-family="Helvetica,sans-Serif" font-size="10.00">ABLForcing.cpp</text>
</a>
</g>
</g>
<!-- Node2&#45;&gt;Node9 -->
<g id="edge7" class="edge">
<title>Node2&#45;&gt;Node9</title>
<path fill="none" stroke="midnightblue" d="M2467.22,-176.86C2210.86,-175.94 888.78,-169.38 484.5,-132 481.42,-131.71 478.25,-131.36 475.06,-130.96"/>
<polygon fill="midnightblue" stroke="midnightblue" points="2467.25,-180.36 2477.27,-176.9 2467.28,-173.36 2467.25,-180.36"/>
</g>
<!-- Node10 -->
<g id="node9" class="node">
<title>Node10</title>
<g id="a_node9"><a xlink:href="_a_b_l_mean_boussinesq_8cpp.html" target="_top" xlink:title=" ">
<polygon fill="white" stroke="black" points="493.5,-112.5 493.5,-131.5 631.5,-131.5 631.5,-112.5 493.5,-112.5"/>
<text text-anchor="middle" x="562.5" y="-119.5" font-family="Helvetica,sans-Serif" font-size="10.00">ABLMeanBoussinesq.cpp</text>
</a>
</g>
</g>
<!-- Node2&#45;&gt;Node10 -->
<g id="edge8" class="edge">
<title>Node2&#45;&gt;Node10</title>
<path fill="none" stroke="midnightblue" d="M2467.16,-176.49C2222.57,-173.55 1012.59,-157.89 640.5,-132 637.64,-131.8 634.73,-131.57 631.79,-131.33"/>
<polygon fill="midnightblue" stroke="midnightblue" points="2467.38,-180 2477.42,-176.62 2467.46,-173 2467.38,-180"/>
</g>
<!-- Node11 -->
<g id="node10" class="node">
<title>Node11</title>
<g id="a_node10"><a xlink:href="_actuator_forcing_8cpp.html" target="_top" xlink:title=" ">
<polygon fill="white" stroke="black" points="650,-112.5 650,-131.5 763,-131.5 763,-112.5 650,-112.5"/>
<text text-anchor="middle" x="706.5" y="-119.5" font-family="Helvetica,sans-Serif" font-size="10.00">ActuatorForcing.cpp</text>
</a>
</g>
</g>
<!-- Node2&#45;&gt;Node11 -->
<g id="edge9" class="edge">
<title>Node2&#45;&gt;Node11</title>
<path fill="none" stroke="midnightblue" d="M2467.26,-176.52C2233.29,-173.85 1116.58,-159.83 772.5,-132 769.5,-131.76 766.43,-131.47 763.34,-131.15"/>
<polygon fill="midnightblue" stroke="midnightblue" points="2467.38,-180.03 2477.42,-176.64 2467.46,-173.03 2467.38,-180.03"/>
</g>
<!-- Node12 -->
<g id="node11" class="node">
<title>Node12</title>
<g id="a_node11"><a xlink:href="_body_force_8cpp.html" target="_top" xlink:title=" ">
<polygon fill="white" stroke="black" points="781.5,-112.5 781.5,-131.5 869.5,-131.5 869.5,-112.5 781.5,-112.5"/>
<text text-anchor="middle" x="825.5" y="-119.5" font-family="Helvetica,sans-Serif" font-size="10.00">BodyForce.cpp</text>
</a>
</g>
</g>
<!-- Node2&#45;&gt;Node12 -->
<g id="edge10" class="edge">
<title>Node2&#45;&gt;Node12</title>
<path fill="none" stroke="midnightblue" d="M2467.39,-176.63C2242.3,-174.59 1199.91,-163.56 878.5,-132 875.62,-131.72 872.66,-131.37 869.68,-130.98"/>
<polygon fill="midnightblue" stroke="midnightblue" points="2467.46,-180.13 2477.49,-176.72 2467.52,-173.13 2467.46,-180.13"/>
</g>
<!-- Node13 -->
<g id="node12" class="node">
<title>Node13</title>
<g id="a_node12"><a xlink:href="_boussinesq_buoyancy_8cpp.html" target="_top" xlink:title=" ">
<polygon fill="white" stroke="black" points="888,-112.5 888,-131.5 1027,-131.5 1027,-112.5 888,-112.5"/>
<text text-anchor="middle" x="957.5" y="-119.5" font-family="Helvetica,sans-Serif" font-size="10.00">BoussinesqBuoyancy.cpp</text>
</a>
</g>
</g>
<!-- Node2&#45;&gt;Node13 -->
<g id="edge11" class="edge">
<title>Node2&#45;&gt;Node13</title>
<path fill="none" stroke="midnightblue" d="M2467.14,-176.88C2290.01,-176.12 1604.03,-170.69 1041.5,-132 1036.82,-131.68 1031.99,-131.3 1027.14,-130.87"/>
<polygon fill="midnightblue" stroke="midnightblue" points="2467.34,-180.38 2477.36,-176.92 2467.37,-173.38 2467.34,-180.38"/>
</g>
<!-- Node14 -->
<g id="node13" class="node">
<title>Node14</title>
<g id="a_node13"><a xlink:href="_burggraf_flow_forcing_8cpp.html" target="_top" xlink:title=" ">
<polygon fill="white" stroke="black" points="2652,-56.5 2652,-75.5 2789,-75.5 2789,-56.5 2652,-56.5"/>
<text text-anchor="middle" x="2720.5" y="-63.5" font-family="Helvetica,sans-Serif" font-size="10.00">BurggrafFlowForcing.cpp</text>
</a>
</g>
</g>
<!-- Node2&#45;&gt;Node14 -->
<g id="edge12" class="edge">
<title>Node2&#45;&gt;Node14</title>
<path fill="none" stroke="midnightblue" d="M2467.13,-175.85C2401.34,-173.1 2281.15,-163.74 2254.5,-132 2248.78,-125.19 2248.52,-118.58 2254.5,-112 2280.66,-83.19 2528.44,-72.3 2651.64,-68.64"/>
<polygon fill="midnightblue" stroke="midnightblue" points="2467.07,-179.35 2477.19,-176.24 2467.34,-172.36 2467.07,-179.35"/>
</g>
<!-- Node15 -->
<g id="node14" class="node">
<title>Node15</title>
<g id="a_node14"><a xlink:href="_coriolis_forcing_8cpp.html" target="_top" xlink:title=" ">
<polygon fill="white" stroke="black" points="1084,-112.5 1084,-131.5 1193,-131.5 1193,-112.5 1084,-112.5"/>
<text text-anchor="middle" x="1138.5" y="-119.5" font-family="Helvetica,sans-Serif" font-size="10.00">CoriolisForcing.cpp</text>
</a>
</g>
</g>
<!-- Node2&#45;&gt;Node15 -->
<g id="edge13" class="edge">
<title>Node2&#45;&gt;Node15</title>
<path fill="none" stroke="midnightblue" d="M2466.78,-177.2C2301.18,-177.6 1696.87,-175.77 1201.5,-132 1198.75,-131.76 1195.93,-131.48 1193.09,-131.17"/>
<polygon fill="midnightblue" stroke="midnightblue" points="2467.05,-180.7 2477.04,-177.17 2467.03,-173.7 2467.05,-180.7"/>
</g>
<!-- Node16 -->
<g id="node15" class="node">
<title>Node16</title>
<g id="a_node15"><a xlink:href="_density_buoyancy_8cpp.html" target="_top" xlink:title=" ">
<polygon fill="white" stroke="black" points="1211,-112.5 1211,-131.5 1332,-131.5 1332,-112.5 1211,-112.5"/>
<text text-anchor="middle" x="1271.5" y="-119.5" font-family="Helvetica,sans-Serif" font-size="10.00">DensityBuoyancy.cpp</text>
</a>
</g>
</g>
<!-- Node2&#45;&gt;Node16 -->
<g id="edge14" class="edge">
<title>Node2&#45;&gt;Node16</title>
<path fill="none" stroke="midnightblue" d="M2466.97,-176.76C2312.89,-175.59 1779.14,-168.96 1340.5,-132 1337.73,-131.77 1334.9,-131.5 1332.05,-131.22"/>
<polygon fill="midnightblue" stroke="midnightblue" points="2467.37,-180.26 2477.4,-176.83 2467.42,-173.26 2467.37,-180.26"/>
</g>
<!-- Node17 -->
<g id="node16" class="node">
<title>Node17</title>
<g id="a_node16"><a xlink:href="_geostrophic_forcing_8cpp.html" target="_top" xlink:title=" ">
<polygon fill="white" stroke="black" points="1350,-112.5 1350,-131.5 1481,-131.5 1481,-112.5 1350,-112.5"/>
<text text-anchor="middle" x="1415.5" y="-119.5" font-family="Helvetica,sans-Serif" font-size="10.00">GeostrophicForcing.cpp</text>
</a>
</g>
</g>
<!-- Node2&#45;&gt;Node17 -->
<g id="edge15" class="edge">
<title>Node2&#45;&gt;Node17</title>
<path fill="none" stroke="midnightblue" d="M2467.05,-176.25C2325.96,-173.58 1868,-162.93 1490.5,-132 1487.49,-131.75 1484.42,-131.48 1481.32,-131.18"/>
<polygon fill="midnightblue" stroke="midnightblue" points="2467.36,-179.76 2477.42,-176.45 2467.49,-172.76 2467.36,-179.76"/>
</g>
<!-- Node18 -->
<g id="node17" class="node">
<title>Node18</title>
<g id="a_node17"><a xlink:href="_gravity_forcing_8cpp.html" target="_top" xlink:title=" ">
<polygon fill="white" stroke="black" points="1499.5,-112.5 1499.5,-131.5 1607.5,-131.5 1607.5,-112.5 1499.5,-112.5"/>
<text text-anchor="middle" x="1553.5" y="-119.5" font-family="Helvetica,sans-Serif" font-size="10.00">GravityForcing.cpp</text>
</a>
</g>
</g>
<!-- Node2&#45;&gt;Node18 -->
<g id="edge16" class="edge">
<title>Node2&#45;&gt;Node18</title>
<path fill="none" stroke="midnightblue" d="M2466.82,-176.22C2337,-173.59 1942.24,-163.4 1616.5,-132 1613.64,-131.72 1610.71,-131.41 1607.76,-131.07"/>
<polygon fill="midnightblue" stroke="midnightblue" points="2467.07,-179.72 2477.14,-176.42 2467.21,-172.73 2467.07,-179.72"/>
</g>
<!-- Node19 -->
<g id="node18" class="node">
<title>Node19</title>
<g id="a_node18"><a xlink:href="_hurricane_forcing_8cpp.html" target="_top" xlink:title=" ">
<polygon fill="white" stroke="black" points="1626,-112.5 1626,-131.5 1745,-131.5 1745,-112.5 1626,-112.5"/>
<text text-anchor="middle" x="1685.5" y="-119.5" font-family="Helvetica,sans-Serif" font-size="10.00">HurricaneForcing.cpp</text>
</a>
</g>
</g>
<!-- Node2&#45;&gt;Node19 -->
<g id="edge17" class="edge">
<title>Node2&#45;&gt;Node19</title>
<path fill="none" stroke="midnightblue" d="M2467.04,-175.48C2351.1,-171.2 2024.87,-157.65 1754.5,-132 1751.49,-131.71 1748.42,-131.4 1745.31,-131.06"/>
<polygon fill="midnightblue" stroke="midnightblue" points="2467.15,-178.99 2477.28,-175.86 2467.41,-171.99 2467.15,-178.99"/>
</g>
<!-- Node20 -->
<g id="node19" class="node">
<title>Node20</title>
<g id="a_node19"><a xlink:href="_rayleigh_damping_8cpp.html" target="_top" xlink:title=" ">
<polygon fill="white" stroke="black" points="1763.5,-112.5 1763.5,-131.5 1887.5,-131.5 1887.5,-112.5 1763.5,-112.5"/>
<text text-anchor="middle" x="1825.5" y="-119.5" font-family="Helvetica,sans-Serif" font-size="10.00">RayleighDamping.cpp</text>
</a>
</g>
</g>
<!-- Node2&#45;&gt;Node20 -->
<g id="edge18" class="edge">
<title>Node2&#45;&gt;Node20</title>
<path fill="none" stroke="midnightblue" d="M2467.09,-174.61C2366.59,-168.91 2110.15,-153.36 1896.5,-132 1893.66,-131.72 1890.75,-131.41 1887.82,-131.09"/>
<polygon fill="midnightblue" stroke="midnightblue" points="2466.99,-178.11 2477.17,-175.18 2467.38,-171.12 2466.99,-178.11"/>
</g>
<!-- Node21 -->
<g id="node20" class="node">
<title>Node21</title>
<g id="a_node20"><a xlink:href="_synth_turb_forcing_8cpp.html" target="_top" xlink:title=" ">
<polygon fill="white" stroke="black" points="1905.5,-112.5 1905.5,-131.5 2025.5,-131.5 2025.5,-112.5 1905.5,-112.5"/>
<text text-anchor="middle" x="1965.5" y="-119.5" font-family="Helvetica,sans-Serif" font-size="10.00">SynthTurbForcing.cpp</text>
</a>
</g>
</g>
<!-- Node2&#45;&gt;Node21 -->
<g id="edge19" class="edge">
<title>Node2&#45;&gt;Node21</title>
<path fill="none" stroke="midnightblue" d="M2467.12,-173.42C2383.39,-166.39 2193.7,-149.9 2034.5,-132 2031.62,-131.68 2028.67,-131.33 2025.7,-130.98"/>
<polygon fill="midnightblue" stroke="midnightblue" points="2467.02,-176.92 2477.28,-174.27 2467.6,-169.95 2467.02,-176.92"/>
</g>
<!-- Node22 -->
<g id="node21" class="node">
<title>Node22</title>
<g id="a_node21"><a xlink:href="_p_d_e_8_h.html" target="_top" xlink:title=" ">
<polygon fill="white" stroke="red" points="1542,-56.5 1542,-75.5 1589,-75.5 1589,-56.5 1542,-56.5"/>
<text text-anchor="middle" x="1565.5" y="-63.5" font-family="Helvetica,sans-Serif" font-size="10.00">PDE.H</text>
</a>
</g>
</g>
<!-- Node2&#45;&gt;Node22 -->
<g id="edge20" class="edge">
<title>Node2&#45;&gt;Node22</title>
<path fill="none" stroke="midnightblue" d="M2467.1,-176.46C2229.83,-173.43 1099.36,-157.65 1074.5,-132 1007.33,-62.69 1435.57,-64.96 1541.98,-66.56"/>
<polygon fill="midnightblue" stroke="midnightblue" points="2467.36,-179.97 2477.4,-176.59 2467.45,-172.97 2467.36,-179.97"/>
</g>
<!-- Node56 -->
<g id="node22" class="node">
<title>Node56</title>
<g id="a_node22"><a xlink:href="_p_d_e_base_8cpp.html" target="_top" xlink:title=" ">
<polygon fill="white" stroke="black" points="2127.5,-112.5 2127.5,-131.5 2207.5,-131.5 2207.5,-112.5 2127.5,-112.5"/>
<text text-anchor="middle" x="2167.5" y="-119.5" font-family="Helvetica,sans-Serif" font-size="10.00">PDEBase.cpp</text>
</a>
</g>
</g>
<!-- Node2&#45;&gt;Node56 -->
<g id="edge21" class="edge">
<title>Node2&#45;&gt;Node56</title>
<path fill="none" stroke="midnightblue" d="M2467.09,-170.39C2410.53,-161.74 2308.57,-146.03 2221.5,-132 2217,-131.27 2212.28,-130.5 2207.6,-129.73"/>
<polygon fill="midnightblue" stroke="midnightblue" points="2466.69,-173.87 2477.11,-171.92 2467.75,-166.95 2466.69,-173.87"/>
</g>
<!-- Node57 -->
<g id="node23" class="node">
<title>Node57</title>
<g id="a_node23"><a xlink:href="_p_d_e_ops_8_h.html" target="_top" xlink:title=" ">
<polygon fill="white" stroke="red" points="2044,-112.5 2044,-131.5 2109,-131.5 2109,-112.5 2044,-112.5"/>
<text text-anchor="middle" x="2076.5" y="-119.5" font-family="Helvetica,sans-Serif" font-size="10.00">PDEOps.H</text>
</a>
</g>
</g>
<!-- Node2&#45;&gt;Node57 -->
<g id="edge22" class="edge">
<title>Node2&#45;&gt;Node57</title>
<path fill="none" stroke="midnightblue" d="M2467.2,-173.41C2394.74,-167.09 2244.46,-152.68 2118.5,-132 2115.41,-131.49 2112.2,-130.91 2109,-130.29"/>
<polygon fill="midnightblue" stroke="midnightblue" points="2467.05,-176.91 2477.31,-174.28 2467.65,-169.94 2467.05,-176.91"/>
</g>
<!-- Node67 -->
<g id="node24" class="node">
<title>Node67</title>
<g id="a_node24"><a xlink:href="_s_d_r_src_8cpp.html" target="_top" xlink:title=" ">
<polygon fill="white" stroke="black" points="2263.5,-112.5 2263.5,-131.5 2335.5,-131.5 2335.5,-112.5 2263.5,-112.5"/>
<text text-anchor="middle" x="2299.5" y="-119.5" font-family="Helvetica,sans-Serif" font-size="10.00">SDRSrc.cpp</text>
</a>
</g>
</g>
<!-- Node2&#45;&gt;Node67 -->
<g id="edge24" class="edge">
<title>Node2&#45;&gt;Node67</title>
<path fill="none" stroke="midnightblue" d="M2467.36,-165.96C2427.51,-155.76 2369.14,-140.82 2332.78,-131.52"/>
<polygon fill="midnightblue" stroke="midnightblue" points="2466.51,-169.35 2477.07,-168.44 2468.25,-162.57 2466.51,-169.35"/>
</g>
<!-- Node68 -->
<g id="node25" class="node">
<title>Node68</title>
<g id="a_node25"><a xlink:href="_ksgs_m84_src_8cpp.html" target="_top" xlink:title=" ">
<polygon fill="white" stroke="black" points="2353.5,-112.5 2353.5,-131.5 2449.5,-131.5 2449.5,-112.5 2353.5,-112.5"/>
<text text-anchor="middle" x="2401.5" y="-119.5" font-family="Helvetica,sans-Serif" font-size="10.00">KsgsM84Src.cpp</text>
</a>
</g>
</g>
<!-- Node2&#45;&gt;Node68 -->
<g id="edge25" class="edge">
<title>Node2&#45;&gt;Node68</title>
<path fill="none" stroke="midnightblue" d="M2483.98,-163.86C2463.77,-153.85 2436.51,-140.35 2418.97,-131.65"/>
<polygon fill="midnightblue" stroke="midnightblue" points="2482.47,-167.02 2492.99,-168.32 2485.58,-160.75 2482.47,-167.02"/>
</g>
<!-- Node69 -->
<g id="node26" class="node">
<title>Node69</title>
<g id="a_node26"><a xlink:href="_kw_s_s_t_src_8cpp.html" target="_top" xlink:title=" ">
<polygon fill="white" stroke="black" points="2468,-112.5 2468,-131.5 2553,-131.5 2553,-112.5 2468,-112.5"/>
<text text-anchor="middle" x="2510.5" y="-119.5" font-family="Helvetica,sans-Serif" font-size="10.00">KwSSTSrc.cpp</text>
</a>
</g>
</g>
<!-- Node2&#45;&gt;Node69 -->
<g id="edge26" class="edge">
<title>Node2&#45;&gt;Node69</title>
<path fill="none" stroke="midnightblue" d="M2510.5,-157.8C2510.5,-148.91 2510.5,-138.78 2510.5,-131.75"/>
<polygon fill="midnightblue" stroke="midnightblue" points="2507,-158.08 2510.5,-168.08 2514,-158.08 2507,-158.08"/>
</g>
<!-- Node70 -->
<g id="node27" class="node">
<title>Node70</title>
<g id="a_node27"><a xlink:href="_i_b_8cpp.html" target="_top" xlink:title=" ">
<polygon fill="white" stroke="black" points="2571,-112.5 2571,-131.5 2618,-131.5 2618,-112.5 2571,-112.5"/>
<text text-anchor="middle" x="2594.5" y="-119.5" font-family="Helvetica,sans-Serif" font-size="10.00">IB.cpp</text>
</a>
</g>
</g>
<!-- Node2&#45;&gt;Node70 -->
<g id="edge28" class="edge">
<title>Node2&#45;&gt;Node70</title>
<path fill="none" stroke="midnightblue" d="M2532.43,-162.9C2547.84,-153 2567.95,-140.07 2581.04,-131.65"/>
<polygon fill="midnightblue" stroke="midnightblue" points="2530.52,-159.97 2524,-168.32 2534.3,-165.86 2530.52,-159.97"/>
</g>
<!-- Node71 -->
<g id="node28" class="node">
<title>Node71</title>
<g id="a_node28"><a xlink:href="_i_b_ops_8_h.html" target="_top" xlink:title=" ">
<polygon fill="white" stroke="red" points="2636.5,-112.5 2636.5,-131.5 2692.5,-131.5 2692.5,-112.5 2636.5,-112.5"/>
<text text-anchor="middle" x="2664.5" y="-119.5" font-family="Helvetica,sans-Serif" font-size="10.00">IBOps.H</text>
</a>
</g>
</g>
<!-- Node2&#45;&gt;Node71 -->
<g id="edge29" class="edge">
<title>Node2&#45;&gt;Node71</title>
<path fill="none" stroke="midnightblue" d="M2544.61,-165.04C2573.59,-154.88 2614.46,-140.55 2640.21,-131.52"/>
<polygon fill="midnightblue" stroke="midnightblue" points="2543.18,-161.83 2534.9,-168.44 2545.5,-168.44 2543.18,-161.83"/>
</g>
<!-- Node81 -->
<g id="node29" class="node">
<title>Node81</title>
<g id="a_node29"><a xlink:href="incflo_8_h.html" target="_top" xlink:title=" ">
<polygon fill="white" stroke="red" points="2711,-112.5 2711,-131.5 2764,-131.5 2764,-112.5 2711,-112.5"/>
<text text-anchor="middle" x="2737.5" y="-119.5" font-family="Helvetica,sans-Serif" font-size="10.00">incflo.H</text>
</a>
</g>
</g>
<!-- Node2&#45;&gt;Node81 -->
<g id="edge30" class="edge">
<title>Node2&#45;&gt;Node81</title>
<path fill="none" stroke="midnightblue" d="M2553.55,-167.03C2592.29,-158.02 2650.75,-144.32 2701.5,-132 2704.51,-131.27 2707.65,-130.5 2710.77,-129.72"/>
<polygon fill="midnightblue" stroke="midnightblue" points="2552.61,-163.66 2543.66,-169.33 2554.19,-170.48 2552.61,-163.66"/>
</g>
<!-- Node109 -->
<g id="node30" class="node">
<title>Node109</title>
<g id="a_node30"><a xlink:href="_ocean_waves_8cpp.html" target="_top" xlink:title=" ">
<polygon fill="white" stroke="black" points="2782.5,-112.5 2782.5,-131.5 2882.5,-131.5 2882.5,-112.5 2782.5,-112.5"/>
<text text-anchor="middle" x="2832.5" y="-119.5" font-family="Helvetica,sans-Serif" font-size="10.00">OceanWaves.cpp</text>
</a>
</g>
</g>
<!-- Node2&#45;&gt;Node109 -->
<g id="edge31" class="edge">
<title>Node2&#45;&gt;Node109</title>
<path fill="none" stroke="midnightblue" d="M2554.03,-167.81C2609.74,-157.71 2718.25,-140.69 2782.35,-130.74"/>
<polygon fill="midnightblue" stroke="midnightblue" points="2553.14,-164.41 2543.94,-169.67 2554.41,-171.3 2553.14,-164.41"/>
</g>
<!-- Node110 -->
<g id="node31" class="node">
<title>Node110</title>
<g id="a_node31"><a xlink:href="_ocean_waves_ops_8_h.html" target="_top" xlink:title=" ">
<polygon fill="white" stroke="red" points="2901,-112.5 2901,-131.5 3010,-131.5 3010,-112.5 2901,-112.5"/>
<text text-anchor="middle" x="2955.5" y="-119.5" font-family="Helvetica,sans-Serif" font-size="10.00">OceanWavesOps.H</text>
</a>
</g>
</g>
<!-- Node2&#45;&gt;Node110 -->
<g id="edge32" class="edge">
<title>Node2&#45;&gt;Node110</title>
<path fill="none" stroke="midnightblue" d="M2553.95,-167.91C2703.84,-144.36 2744.36,-150.15 2891.5,-132 2894.51,-131.63 2897.59,-131.24 2900.7,-130.83"/>
<polygon fill="midnightblue" stroke="midnightblue" points="2553.24,-164.48 2543.91,-169.51 2554.34,-171.4 2553.24,-164.48"/>
</g>
<!-- Node118 -->
<g id="node32" class="node">
<title>Node118</title>
<g id="a_node32"><a xlink:href="_tioga_interface_8cpp.html" target="_top" xlink:title=" ">
<polygon fill="white" stroke="black" points="3028,-112.5 3028,-131.5 3135,-131.5 3135,-112.5 3028,-112.5"/>
<text text-anchor="middle" x="3081.5" y="-119.5" font-family="Helvetica,sans-Serif" font-size="10.00">TiogaInterface.cpp</text>
</a>
</g>
</g>
<!-- Node2&#45;&gt;Node118 -->
<g id="edge33" class="edge">
<title>Node2&#45;&gt;Node118</title>
<path fill="none" stroke="midnightblue" d="M2553.82,-167.99C2759.8,-138.68 2815.24,-154.35 3018.5,-132 3021.58,-131.66 3024.73,-131.29 3027.91,-130.9"/>
<polygon fill="midnightblue" stroke="midnightblue" points="2553.3,-164.53 2543.9,-169.42 2554.29,-171.46 2553.3,-164.53"/>
</g>
<!-- Node119 -->
<g id="node33" class="node">
<title>Node119</title>
<g id="a_node33"><a xlink:href="_boussinesq_bubble_8cpp.html" target="_top" xlink:title=" ">
<polygon fill="white" stroke="black" points="3153.5,-112.5 3153.5,-131.5 3279.5,-131.5 3279.5,-112.5 3153.5,-112.5"/>
<text text-anchor="middle" x="3216.5" y="-119.5" font-family="Helvetica,sans-Serif" font-size="10.00">BoussinesqBubble.cpp</text>
</a>
</g>
</g>
<!-- Node2&#45;&gt;Node119 -->
<g id="edge34" class="edge">
<title>Node2&#45;&gt;Node119</title>
<path fill="none" stroke="midnightblue" d="M2554.05,-167.99C2814.99,-132.93 2884.78,-155.81 3143.5,-132 3146.68,-131.71 3149.93,-131.39 3153.22,-131.04"/>
<polygon fill="midnightblue" stroke="midnightblue" points="2553.33,-164.56 2543.89,-169.37 2554.27,-171.49 2553.33,-164.56"/>
</g>
<!-- Node120 -->
<g id="node34" class="node">
<title>Node120</title>
<g id="a_node34"><a xlink:href="_burggraf_flow_8cpp.html" target="_top" xlink:title=" ">
<polygon fill="white" stroke="black" points="3307,-56.5 3307,-75.5 3408,-75.5 3408,-56.5 3307,-56.5"/>
<text text-anchor="middle" x="3357.5" y="-63.5" font-family="Helvetica,sans-Serif" font-size="10.00">BurggrafFlow.cpp</text>
</a>
</g>
</g>
<!-- Node2&#45;&gt;Node120 -->
<g id="edge35" class="edge">
<title>Node2&#45;&gt;Node120</title>
<path fill="none" stroke="midnightblue" d="M2553.85,-168.49C2659.39,-162.3 3367.25,-164.6 3398.5,-132 3415.39,-114.37 3387.18,-88.73 3369.72,-75.54"/>
<polygon fill="midnightblue" stroke="midnightblue" points="2553.56,-165.01 2543.88,-169.32 2554.14,-171.98 2553.56,-165.01"/>
</g>
<!-- Node121 -->
<g id="node35" class="node">
<title>Node121</title>
<g id="a_node35"><a xlink:href="_burggraf_flow_8_h.html" target="_top" xlink:title=" ">
<polygon fill="white" stroke="black" points="3297.5,-112.5 3297.5,-131.5 3389.5,-131.5 3389.5,-112.5 3297.5,-112.5"/>
<text text-anchor="middle" x="3343.5" y="-119.5" font-family="Helvetica,sans-Serif" font-size="10.00">BurggrafFlow.H</text>
</a>
</g>
</g>
<!-- Node2&#45;&gt;Node121 -->
<g id="edge36" class="edge">
<title>Node2&#45;&gt;Node121</title>
<path fill="none" stroke="midnightblue" d="M2554.06,-168.01C2879.02,-126.38 2966.16,-166.15 3288.5,-132 3291.39,-131.69 3294.35,-131.34 3297.34,-130.94"/>
<polygon fill="midnightblue" stroke="midnightblue" points="2553.35,-164.58 2543.89,-169.34 2554.25,-171.52 2553.35,-164.58"/>
</g>
<!-- Node122 -->
<g id="node36" class="node">
<title>Node122</title>
<g id="a_node36"><a xlink:href="_convecting_taylor_vortex_8cpp.html" target="_top" xlink:title=" ">
<polygon fill="white" stroke="black" points="3456.5,-56.5 3456.5,-75.5 3608.5,-75.5 3608.5,-56.5 3456.5,-56.5"/>
<text text-anchor="middle" x="3532.5" y="-63.5" font-family="Helvetica,sans-Serif" font-size="10.00">ConvectingTaylorVortex.cpp</text>
</a>
</g>
</g>
<!-- Node2&#45;&gt;Node122 -->
<g id="edge41" class="edge">
<title>Node2&#45;&gt;Node122</title>
<path fill="none" stroke="midnightblue" d="M2554.06,-168.48C2675.62,-161.73 3558.56,-172.31 3597.5,-132 3617.35,-111.46 3577.66,-87.86 3551.99,-75.53"/>
<polygon fill="midnightblue" stroke="midnightblue" points="2553.57,-165.01 2543.88,-169.29 2554.13,-171.99 2553.57,-165.01"/>
</g>
<!-- Node123 -->
<g id="node37" class="node">
<title>Node123</title>
<g id="a_node37"><a xlink:href="_convecting_taylor_vortex_8_h.html" target="_top" xlink:title=" ">
<polygon fill="white" stroke="red" points="3446,-112.5 3446,-131.5 3589,-131.5 3589,-112.5 3446,-112.5"/>
<text text-anchor="middle" x="3517.5" y="-119.5" font-family="Helvetica,sans-Serif" font-size="10.00">ConvectingTaylorVortex.H</text>
</a>
</g>
</g>
<!-- Node2&#45;&gt;Node123 -->
<g id="edge42" class="edge">
<title>Node2&#45;&gt;Node123</title>
<path fill="none" stroke="midnightblue" d="M2553.98,-168.04C2942.14,-119.56 3044.87,-160.12 3431.5,-132 3436.14,-131.66 3440.92,-131.27 3445.73,-130.85"/>
<polygon fill="midnightblue" stroke="midnightblue" points="2553.37,-164.59 2543.88,-169.31 2554.24,-171.53 2553.37,-164.59"/>
</g>
<!-- Node124 -->
<g id="node38" class="node">
<title>Node124</title>
<g id="a_node38"><a xlink:href="_ekman_spiral_8cpp.html" target="_top" xlink:title=" ">
<polygon fill="white" stroke="black" points="3677.5,-56.5 3677.5,-75.5 3775.5,-75.5 3775.5,-56.5 3677.5,-56.5"/>
<text text-anchor="middle" x="3726.5" y="-63.5" font-family="Helvetica,sans-Serif" font-size="10.00">EkmanSpiral.cpp</text>
</a>
</g>
</g>
<!-- Node2&#45;&gt;Node124 -->
<g id="edge44" class="edge">
<title>Node2&#45;&gt;Node124</title>
<path fill="none" stroke="midnightblue" d="M2554.13,-168.47C2686.7,-161.22 3698.89,-177.98 3743.5,-132 3758.45,-116.6 3743.12,-89.76 3733.32,-75.88"/>
<polygon fill="midnightblue" stroke="midnightblue" points="2553.57,-165 2543.88,-169.28 2554.12,-171.98 2553.57,-165"/>
</g>
<!-- Node125 -->
<g id="node39" class="node">
<title>Node125</title>
<g id="a_node39"><a xlink:href="_ekman_spiral_8_h.html" target="_top" xlink:title=" ">
<polygon fill="white" stroke="black" points="3646,-112.5 3646,-131.5 3735,-131.5 3735,-112.5 3646,-112.5"/>
<text text-anchor="middle" x="3690.5" y="-119.5" font-family="Helvetica,sans-Serif" font-size="10.00">EkmanSpiral.H</text>
</a>
</g>
</g>
<!-- Node2&#45;&gt;Node125 -->
<g id="edge45" class="edge">
<title>Node2&#45;&gt;Node125</title>
<path fill="none" stroke="midnightblue" d="M2554.12,-168.04C3030.53,-110.44 3157.11,-175.94 3631.5,-132 3636.14,-131.57 3640.98,-131.01 3645.79,-130.39"/>
<polygon fill="midnightblue" stroke="midnightblue" points="2553.38,-164.6 2543.88,-169.29 2554.23,-171.55 2553.38,-164.6"/>
</g>
<!-- Node126 -->
<g id="node40" class="node">
<title>Node126</title>
<g id="a_node40"><a xlink:href="_free_stream_8cpp.html" target="_top" xlink:title=" ">
<polygon fill="white" stroke="black" points="3792,-112.5 3792,-131.5 3885,-131.5 3885,-112.5 3792,-112.5"/>
<text text-anchor="middle" x="3838.5" y="-119.5" font-family="Helvetica,sans-Serif" font-size="10.00">FreeStream.cpp</text>
</a>
</g>
</g>
<!-- Node2&#45;&gt;Node126 -->
<g id="edge47" class="edge">
<title>Node2&#45;&gt;Node126</title>
<path fill="none" stroke="midnightblue" d="M2553.89,-168.07C3094.99,-103.6 3238.24,-179.54 3777.5,-132 3782.19,-131.59 3787.07,-131.05 3791.94,-130.44"/>
<polygon fill="midnightblue" stroke="midnightblue" points="2553.39,-164.61 2543.88,-169.28 2554.22,-171.56 2553.39,-164.61"/>
</g>
<!-- Node91 -->
<g id="node41" class="node">
<title>Node91</title>
<g id="a_node41"><a xlink:href="_hybrid_r_a_n_s_l_e_s_a_b_l_8cpp.html" target="_top" xlink:title=" ">
<polygon fill="white" stroke="black" points="3926,-56.5 3926,-75.5 4059,-75.5 4059,-56.5 3926,-56.5"/>
<text text-anchor="middle" x="3992.5" y="-63.5" font-family="Helvetica,sans-Serif" font-size="10.00">HybridRANSLESABL.cpp</text>
</a>
</g>
</g>
<!-- Node2&#45;&gt;Node91 -->
<g id="edge48" class="edge">
<title>Node2&#45;&gt;Node91</title>
<path fill="none" stroke="midnightblue" d="M2554.03,-168.63C2690.99,-163.01 4006.75,-160.43 4034.5,-132 4051.67,-114.4 4022.83,-88.75 4004.99,-75.55"/>
<polygon fill="midnightblue" stroke="midnightblue" points="2553.64,-165.15 2543.88,-169.26 2554.07,-172.14 2553.64,-165.15"/>
</g>
<!-- Node127 -->
<g id="node42" class="node">
<title>Node127</title>
<g id="a_node42"><a xlink:href="_hybrid_r_a_n_s_l_e_s_a_b_l_8_h.html" target="_top" xlink:title=" ">
<polygon fill="white" stroke="black" points="3903,-112.5 3903,-131.5 4026,-131.5 4026,-112.5 3903,-112.5"/>
<text text-anchor="middle" x="3964.5" y="-119.5" font-family="Helvetica,sans-Serif" font-size="10.00">HybridRANSLESABL.H</text>
</a>
</g>
</g>
<!-- Node2&#45;&gt;Node127 -->
<g id="edge49" class="edge">
<title>Node2&#45;&gt;Node127</title>
<path fill="none" stroke="midnightblue" d="M2553.95,-168.07C3146.25,-98.14 3302.37,-177.29 3893.5,-132 3896.6,-131.76 3899.77,-131.49 3902.96,-131.18"/>
<polygon fill="midnightblue" stroke="midnightblue" points="2553.39,-164.61 2543.88,-169.27 2554.22,-171.56 2553.39,-164.61"/>
</g>
<!-- Node128 -->
<g id="node43" class="node">
<title>Node128</title>
<g id="a_node43"><a xlink:href="_m_m_s_8cpp.html" target="_top" xlink:title=" ">
<polygon fill="white" stroke="black" points="4105,-56.5 4105,-75.5 4166,-75.5 4166,-56.5 4105,-56.5"/>
<text text-anchor="middle" x="4135.5" y="-63.5" font-family="Helvetica,sans-Serif" font-size="10.00">MMS.cpp</text>
</a>
</g>
</g>
<!-- Node2&#45;&gt;Node128 -->
<g id="edge51" class="edge">
<title>Node2&#45;&gt;Node128</title>
<path fill="none" stroke="midnightblue" d="M2554.27,-168.62C2698.32,-162.86 4113.65,-162.53 4143.5,-132 4158.28,-116.88 4147.36,-89.42 4140.28,-75.53"/>
<polygon fill="midnightblue" stroke="midnightblue" points="2553.64,-165.15 2543.88,-169.25 2554.07,-172.14 2553.64,-165.15"/>
</g>
<!-- Node129 -->
<g id="node44" class="node">
<title>Node129</title>
<g id="a_node44"><a xlink:href="_m_m_s_8_h.html" target="_top" xlink:title=" ">
<polygon fill="white" stroke="black" points="4083,-112.5 4083,-131.5 4134,-131.5 4134,-112.5 4083,-112.5"/>
<text text-anchor="middle" x="4108.5" y="-119.5" font-family="Helvetica,sans-Serif" font-size="10.00">MMS.H</text>
</a>
</g>
</g>
<!-- Node2&#45;&gt;Node129 -->
<g id="edge52" class="edge">
<title>Node2&#45;&gt;Node129</title>
<path fill="none" stroke="midnightblue" d="M2554.26,-168.04C3223.66,-90.33 3403.01,-213.95 4068.5,-132 4073.16,-131.43 4078.08,-130.55 4082.81,-129.56"/>
<polygon fill="midnightblue" stroke="midnightblue" points="2553.4,-164.62 2543.88,-169.26 2554.22,-171.57 2553.4,-164.62"/>
</g>
<!-- Node130 -->
<g id="node45" class="node">
<title>Node130</title>
<g id="a_node45"><a xlink:href="_m_m_s_forcing_8cpp.html" target="_top" xlink:title=" ">
<polygon fill="white" stroke="black" points="4190.5,-112.5 4190.5,-131.5 4286.5,-131.5 4286.5,-112.5 4190.5,-112.5"/>
<text text-anchor="middle" x="4238.5" y="-119.5" font-family="Helvetica,sans-Serif" font-size="10.00">MMSForcing.cpp</text>
</a>
</g>
</g>
<!-- Node2&#45;&gt;Node130 -->
<g id="edge54" class="edge">
<title>Node2&#45;&gt;Node130</title>
<path fill="none" stroke="midnightblue" d="M2553.94,-168.08C3271.3,-84.99 3460.38,-191.69 4176.5,-132 4180.94,-131.63 4185.55,-131.15 4190.17,-130.6"/>
<polygon fill="midnightblue" stroke="midnightblue" points="2553.4,-164.62 2543.88,-169.25 2554.21,-171.57 2553.4,-164.62"/>
</g>
<!-- Node131 -->
<g id="node46" class="node">
<title>Node131</title>
<g id="a_node46"><a xlink:href="_breaking_waves_8cpp.html" target="_top" xlink:title=" ">
<polygon fill="white" stroke="black" points="4305,-112.5 4305,-131.5 4418,-131.5 4418,-112.5 4305,-112.5"/>
<text text-anchor="middle" x="4361.5" y="-119.5" font-family="Helvetica,sans-Serif" font-size="10.00">BreakingWaves.cpp</text>
</a>
</g>
</g>
<!-- Node2&#45;&gt;Node131 -->
<g id="edge55" class="edge">
<title>Node2&#45;&gt;Node131</title>
<path fill="none" stroke="midnightblue" d="M2553.82,-168.1C3323.86,-79.39 3526.33,-192.19 4295.5,-132 4298.5,-131.77 4301.57,-131.49 4304.66,-131.17"/>
<polygon fill="midnightblue" stroke="midnightblue" points="2553.41,-164.62 2543.88,-169.25 2554.21,-171.57 2553.41,-164.62"/>
</g>
<!-- Node132 -->
<g id="node47" class="node">
<title>Node132</title>
<g id="a_node47"><a xlink:href="_dam_break_8cpp.html" target="_top" xlink:title=" ">
<polygon fill="white" stroke="black" points="4436,-112.5 4436,-131.5 4525,-131.5 4525,-112.5 4436,-112.5"/>
<text text-anchor="middle" x="4480.5" y="-119.5" font-family="Helvetica,sans-Serif" font-size="10.00">DamBreak.cpp</text>
</a>
</g>
</g>
<!-- Node2&#45;&gt;Node132 -->
<g id="edge56" class="edge">
<title>Node2&#45;&gt;Node132</title>
<path fill="none" stroke="midnightblue" d="M2553.95,-168.08C3382.23,-73.35 3601.01,-209.67 4427.5,-132 4430.19,-131.75 4432.96,-131.44 4435.74,-131.08"/>
<polygon fill="midnightblue" stroke="midnightblue" points="2553.41,-164.62 2543.87,-169.24 2554.21,-171.58 2553.41,-164.62"/>
</g>
<!-- Node63 -->
<g id="node48" class="node">
<title>Node63</title>
<g id="a_node48"><a xlink:href="_multi_phase_8cpp.html" target="_top" xlink:title=" ">
<polygon fill="white" stroke="black" points="4543,-112.5 4543,-131.5 4634,-131.5 4634,-112.5 4543,-112.5"/>
<text text-anchor="middle" x="4588.5" y="-119.5" font-family="Helvetica,sans-Serif" font-size="10.00">MultiPhase.cpp</text>
</a>
</g>
</g>
<!-- Node2&#45;&gt;Node63 -->
<g id="edge57" class="edge">
<title>Node2&#45;&gt;Node63</title>
<path fill="none" stroke="midnightblue" d="M2554.12,-168.09C3006.82,-118.44 4099.15,-172.01 4534.5,-132 4537.24,-131.75 4540.06,-131.44 4542.9,-131.08"/>
<polygon fill="midnightblue" stroke="midnightblue" points="2553.42,-164.64 2543.87,-169.24 2554.2,-171.6 2553.42,-164.64"/>
</g>
<!-- Node133 -->
<g id="node49" class="node">
<title>Node133</title>
<g id="a_node49"><a xlink:href="_rain_drop_8cpp.html" target="_top" xlink:title=" ">
<polygon fill="white" stroke="black" points="4652.5,-112.5 4652.5,-131.5 4734.5,-131.5 4734.5,-112.5 4652.5,-112.5"/>
<text text-anchor="middle" x="4693.5" y="-119.5" font-family="Helvetica,sans-Serif" font-size="10.00">RainDrop.cpp</text>
</a>
</g>
</g>
<!-- Node2&#45;&gt;Node133 -->
<g id="edge58" class="edge">
<title>Node2&#45;&gt;Node133</title>
<path fill="none" stroke="midnightblue" d="M2553.97,-168.1C3030.7,-115.94 4184.25,-176.99 4643.5,-132 4646.4,-131.72 4649.38,-131.36 4652.37,-130.94"/>
<polygon fill="midnightblue" stroke="midnightblue" points="2553.42,-164.64 2543.87,-169.24 2554.2,-171.6 2553.42,-164.64"/>
</g>
<!-- Node3&#45;&gt;Node5 -->
<g id="edge3" class="edge">
<title>Node3&#45;&gt;Node5</title>
<path fill="none" stroke="midnightblue" d="M112.44,-103.86C105.86,-94.5 97.99,-83.33 92.66,-75.75"/>
<polygon fill="midnightblue" stroke="midnightblue" points="109.61,-105.92 118.23,-112.08 115.33,-101.89 109.61,-105.92"/>
</g>
<!-- Node5&#45;&gt;Node6 -->
<g id="edge4" class="edge">
<title>Node5&#45;&gt;Node6</title>
<path fill="none" stroke="midnightblue" d="M74.55,-47.57C68.19,-38.27 60.63,-27.25 55.5,-19.75"/>
<polygon fill="midnightblue" stroke="midnightblue" points="71.85,-49.81 80.39,-56.08 77.63,-45.86 71.85,-49.81"/>
</g>
<!-- Node57&#45;&gt;Node22 -->
<g id="edge23" class="edge">
<title>Node57&#45;&gt;Node22</title>
<path fill="none" stroke="midnightblue" d="M2033.57,-112.03C1857.11,-85.26 1656.62,-72.21 1589.04,-68.29"/>
<polygon fill="midnightblue" stroke="midnightblue" points="2033.14,-115.51 2043.55,-113.56 2034.2,-108.59 2033.14,-115.51"/>
</g>
<!-- Node121&#45;&gt;Node14 -->
<g id="edge37" class="edge">
<title>Node121&#45;&gt;Node14</title>
<path fill="none" stroke="midnightblue" d="M3287.38,-111.96C3101.59,-89.77 2894.46,-76.51 2789.32,-70.6"/>
<polygon fill="midnightblue" stroke="midnightblue" points="3286.98,-115.44 3297.33,-113.16 3287.82,-108.49 3286.98,-115.44"/>
</g>
<!-- Node121&#45;&gt;Node120 -->
<g id="edge38" class="edge">
<title>Node121&#45;&gt;Node120</title>
<path fill="none" stroke="midnightblue" d="M3348.32,-102.4C3350.67,-93.36 3353.37,-82.94 3355.23,-75.75"/>
<polygon fill="midnightblue" stroke="midnightblue" points="3344.93,-101.52 3345.81,-112.08 3351.71,-103.28 3344.93,-101.52"/>
</g>
<!-- Node123&#45;&gt;Node122 -->
<g id="edge43" class="edge">
<title>Node123&#45;&gt;Node122</title>
<path fill="none" stroke="midnightblue" d="M3522.67,-102.4C3525.18,-93.36 3528.07,-82.94 3530.07,-75.75"/>
<polygon fill="midnightblue" stroke="midnightblue" points="3519.28,-101.51 3519.98,-112.08 3526.03,-103.38 3519.28,-101.51"/>
</g>
<!-- Node125&#45;&gt;Node124 -->
<g id="edge46" class="edge">
<title>Node125&#45;&gt;Node124</title>
<path fill="none" stroke="midnightblue" d="M3702.12,-103.57C3708.32,-94.27 3715.67,-83.25 3720.67,-75.75"/>
<polygon fill="midnightblue" stroke="midnightblue" points="3699.08,-101.82 3696.44,-112.08 3704.9,-105.7 3699.08,-101.82"/>
</g>
<!-- Node127&#45;&gt;Node91 -->
<g id="edge50" class="edge">
<title>Node127&#45;&gt;Node91</title>
<path fill="none" stroke="midnightblue" d="M3973.84,-102.98C3978.59,-93.82 3984.16,-83.09 3987.96,-75.75"/>
<polygon fill="midnightblue" stroke="midnightblue" points="3970.62,-101.59 3969.12,-112.08 3976.83,-104.82 3970.62,-101.59"/>
</g>
<!-- Node129&#45;&gt;Node128 -->
<g id="edge53" class="edge">
<title>Node129&#45;&gt;Node128</title>
<path fill="none" stroke="midnightblue" d="M4117.51,-102.98C4122.09,-93.82 4127.45,-83.09 4131.12,-75.75"/>
<polygon fill="midnightblue" stroke="midnightblue" points="4114.3,-101.57 4112.96,-112.08 4120.56,-104.7 4114.3,-101.57"/>
</g>
</g>
</svg>
        <g id="navigator" transform="translate(0 0)" fill="#404254">
                <rect fill="#f2f5e9" fill-opacity="0.5" stroke="#606060" stroke-width=".5" x="0" y="0" width="60" height="60"/>
                <use id="zoomplus" xlink:href="#zoomPlus" x="17" y="9" onmousedown="handleZoom(evt,'in')"/>
                <use id="zoomminus" xlink:href="#zoomMin" x="42" y="9" onmousedown="handleZoom(evt,'out')"/>
                <use id="reset" xlink:href="#resetDef" x="30" y="36" onmousedown="handleReset()"/>
                <g id="arrowUp" xlink:href="#dirArrow" transform="translate(30 24)" onmousedown="handlePan(0,-1)">
                  <use xlink:href="#rim" fill="#404040">
                        <set attributeName="fill" to="#808080" begin="arrowUp.mouseover" end="arrowUp.mouseout"/>
                  </use>
                  <path fill="none" stroke="white" stroke-width="1.5" d="M0,-3.0v7 M-2.5,-0.5L0,-3.0L2.5,-0.5"/>
                </g>
                <g id="arrowRight" xlink:href="#dirArrow" transform="rotate(90) translate(36 -43)" onmousedown="handlePan(1,0)">
                  <use xlink:href="#rim" fill="#404040">
                        <set attributeName="fill" to="#808080" begin="arrowRight.mouseover" end="arrowRight.mouseout"/>
                  </use>
                  <path fill="none" stroke="white" stroke-width="1.5" d="M0,-3.0v7 M-2.5,-0.5L0,-3.0L2.5,-0.5"/>
                </g>
                <g id="arrowDown" xlink:href="#dirArrow" transform="rotate(180) translate(-30 -48)" onmousedown="handlePan(0,1)">
                  <use xlink:href="#rim" fill="#404040">
                        <set attributeName="fill" to="#808080" begin="arrowDown.mouseover" end="arrowDown.mouseout"/>
                  </use>
                  <path fill="none" stroke="white" stroke-width="1.5" d="M0,-3.0v7 M-2.5,-0.5L0,-3.0L2.5,-0.5"/>
                </g>
                <g id="arrowLeft" xlink:href="#dirArrow" transform="rotate(270) translate(-36 17)" onmousedown="handlePan(-1,0)">
                  <use xlink:href="#rim" fill="#404040">
                        <set attributeName="fill" to="#808080" begin="arrowLeft.mouseover" end="arrowLeft.mouseout"/>
                  </use>
                  <path fill="none" stroke="white" stroke-width="1.5" d="M0,-3.0v7 M-2.5,-0.5L0,-3.0L2.5,-0.5"/>
                </g>
        </g>
        <svg viewBox="0 0 15 15" width="100%" height="30px" preserveAspectRatio="xMaxYMin meet">
         <g id="arrow_out" transform="scale(0.3 0.3)">
          <a xlink:href="helics_8_h__dep__incl_org.svg" target="_base">
           <rect id="button" ry="5" rx="5" y="6" x="6" height="38" width="38"
                fill="#f2f5e9" fill-opacity="0.5" stroke="#606060" stroke-width="1.0"/>
           <path id="arrow"
             d="M 11.500037,31.436501 C 11.940474,20.09759 22.043105,11.32322 32.158766,21.979434 L 37.068811,17.246167 C 37.068811,17.246167 37.088388,32 37.088388,32 L 22.160133,31.978069 C 22.160133,31.978069 26.997745,27.140456 26.997745,27.140456 C 18.528582,18.264221 13.291696,25.230495 11.500037,31.436501 z"
             style="fill:#404040;"/>
          </a>
         </g>
        </svg>
</svg>
