<?xml version="1.0" encoding="UTF-8" standalone="no"?>
<!DOCTYPE svg PUBLIC "-//W3C//DTD SVG 1.1//EN"
 "http://www.w3.org/Graphics/SVG/1.1/DTD/svg11.dtd">
<!-- Generated by graphviz version 2.43.0 (0)
 -->
<!-- Title: icns.H Pages: 1 -->
<svg width="665pt" height="140pt"
 viewBox="0.00 0.00 664.99 140.00" xmlns="http://www.w3.org/2000/svg" xmlns:xlink="http://www.w3.org/1999/xlink">
<g id="graph0" class="graph" transform="scale(1 1) rotate(0) translate(4 136)">
<title>icns.H</title>
<polygon fill="white" stroke="transparent" points="-4,4 -4,-136 660.99,-136 660.99,4 -4,4"/>
<!-- Node1 -->
<g id="node1" class="node">
<title>Node1</title>
<g id="a_node1"><a xlink:title=" ">
<polygon fill="#bfbfbf" stroke="black" points="233.99,-112.5 233.99,-131.5 280.99,-131.5 280.99,-112.5 233.99,-112.5"/>
<text text-anchor="middle" x="257.49" y="-119.5" font-family="Helvetica,sans-Serif" font-size="10.00">icns.H</text>
</a>
</g>
</g>
<!-- Node2 -->
<g id="node2" class="node">
<title>Node2</title>
<g id="a_node2"><a xlink:href="icns_8cpp.html" target="_top" xlink:title=" ">
<polygon fill="white" stroke="black" points="129.49,-0.5 129.49,-19.5 185.49,-19.5 185.49,-0.5 129.49,-0.5"/>
<text text-anchor="middle" x="157.49" y="-7.5" font-family="Helvetica,sans-Serif" font-size="10.00">icns.cpp</text>
</a>
</g>
</g>
<!-- Node1&#45;&gt;Node2 -->
<g id="edge1" class="edge">
<title>Node1&#45;&gt;Node2</title>
<path fill="none" stroke="midnightblue" d="M223.88,-120.07C162.19,-117.59 34.7,-108.54 7.49,-76 -27.82,-33.76 76.53,-18.21 129.15,-13.16"/>
<polygon fill="midnightblue" stroke="midnightblue" points="223.77,-123.57 233.9,-120.44 224.03,-116.58 223.77,-123.57"/>
</g>
<!-- Node3 -->
<g id="node3" class="node">
<title>Node3</title>
<g id="a_node3"><a xlink:href="icns__advection_8_h.html" target="_top" xlink:title=" ">
<polygon fill="white" stroke="black" points="310.49,-56.5 310.49,-75.5 410.49,-75.5 410.49,-56.5 310.49,-56.5"/>
<text text-anchor="middle" x="360.49" y="-63.5" font-family="Helvetica,sans-Serif" font-size="10.00">icns_advection.H</text>
</a>
</g>
</g>
<!-- Node1&#45;&gt;Node3 -->
<g id="edge2" class="edge">
<title>Node1&#45;&gt;Node3</title>
<path fill="none" stroke="midnightblue" d="M283.07,-107.59C302.12,-97.61 327.56,-84.27 343.99,-75.65"/>
<polygon fill="midnightblue" stroke="midnightblue" points="281.27,-104.58 274.04,-112.32 284.53,-110.78 281.27,-104.58"/>
</g>
<!-- Node5 -->
<g id="node5" class="node">
<title>Node5</title>
<g id="a_node5"><a xlink:href="icns__bcop_8_h.html" target="_top" xlink:title=" ">
<polygon fill="white" stroke="black" points="16.99,-56.5 16.99,-75.5 91.99,-75.5 91.99,-56.5 16.99,-56.5"/>
<text text-anchor="middle" x="54.49" y="-63.5" font-family="Helvetica,sans-Serif" font-size="10.00">icns_bcop.H</text>
</a>
</g>
</g>
<!-- Node1&#45;&gt;Node5 -->
<g id="edge5" class="edge">
<title>Node1&#45;&gt;Node5</title>
<path fill="none" stroke="midnightblue" d="M223.73,-112.02C185.64,-101.89 124.13,-85.52 86.7,-75.57"/>
<polygon fill="midnightblue" stroke="midnightblue" points="223.25,-115.51 233.81,-114.7 225.05,-108.75 223.25,-115.51"/>
</g>
<!-- Node6 -->
<g id="node6" class="node">
<title>Node6</title>
<g id="a_node6"><a xlink:href="icns__diffusion_8_h.html" target="_top" xlink:title=" ">
<polygon fill="white" stroke="black" points="110.49,-56.5 110.49,-75.5 204.49,-75.5 204.49,-56.5 110.49,-56.5"/>
<text text-anchor="middle" x="157.49" y="-63.5" font-family="Helvetica,sans-Serif" font-size="10.00">icns_diffusion.H</text>
</a>
</g>
</g>
<!-- Node1&#45;&gt;Node6 -->
<g id="edge7" class="edge">
<title>Node1&#45;&gt;Node6</title>
<path fill="none" stroke="midnightblue" d="M232.41,-107.45C213.95,-97.48 189.4,-84.23 173.52,-75.65"/>
<polygon fill="midnightblue" stroke="midnightblue" points="230.97,-110.65 241.43,-112.32 234.29,-104.49 230.97,-110.65"/>
</g>
<!-- Node7 -->
<g id="node7" class="node">
<title>Node7</title>
<g id="a_node7"><a xlink:href="icns__ops_8_h.html" target="_top" xlink:title=" ">
<polygon fill="white" stroke="black" points="222.99,-56.5 222.99,-75.5 291.99,-75.5 291.99,-56.5 222.99,-56.5"/>
<text text-anchor="middle" x="257.49" y="-63.5" font-family="Helvetica,sans-Serif" font-size="10.00">icns_ops.H</text>
</a>
</g>
</g>
<!-- Node1&#45;&gt;Node7 -->
<g id="edge9" class="edge">
<title>Node1&#45;&gt;Node7</title>
<path fill="none" stroke="midnightblue" d="M257.49,-101.8C257.49,-92.91 257.49,-82.78 257.49,-75.75"/>
<polygon fill="midnightblue" stroke="midnightblue" points="253.99,-102.08 257.49,-112.08 260.99,-102.08 253.99,-102.08"/>
</g>
<!-- Node8 -->
<g id="node8" class="node">
<title>Node8</title>
<g id="a_node8"><a xlink:href="_burggraf_lid_8cpp.html" target="_top" xlink:title=" ">
<polygon fill="white" stroke="black" points="428.99,-56.5 428.99,-75.5 521.99,-75.5 521.99,-56.5 428.99,-56.5"/>
<text text-anchor="middle" x="475.49" y="-63.5" font-family="Helvetica,sans-Serif" font-size="10.00">BurggrafLid.cpp</text>
</a>
</g>
</g>
<!-- Node1&#45;&gt;Node8 -->
<g id="edge11" class="edge">
<title>Node1&#45;&gt;Node8</title>
<path fill="none" stroke="midnightblue" d="M290.95,-112.71C331.64,-102.63 399.94,-85.72 441.06,-75.53"/>
<polygon fill="midnightblue" stroke="midnightblue" points="290.1,-109.32 281.24,-115.12 291.79,-116.11 290.1,-109.32"/>
</g>
<!-- Node9 -->
<g id="node9" class="node">
<title>Node9</title>
<g id="a_node9"><a xlink:href="_power_law_profile_8cpp.html" target="_top" xlink:title=" ">
<polygon fill="white" stroke="black" points="539.99,-56.5 539.99,-75.5 656.99,-75.5 656.99,-56.5 539.99,-56.5"/>
<text text-anchor="middle" x="598.49" y="-63.5" font-family="Helvetica,sans-Serif" font-size="10.00">PowerLawProfile.cpp</text>
</a>
</g>
</g>
<!-- Node1&#45;&gt;Node9 -->
<g id="edge12" class="edge">
<title>Node1&#45;&gt;Node9</title>
<path fill="none" stroke="midnightblue" d="M291.15,-115.67C350.33,-106.3 473.5,-86.79 544.64,-75.53"/>
<polygon fill="midnightblue" stroke="midnightblue" points="290.53,-112.22 281.2,-117.25 291.63,-119.14 290.53,-112.22"/>
</g>
<!-- Node3&#45;&gt;Node2 -->
<g id="edge3" class="edge">
<title>Node3&#45;&gt;Node2</title>
<path fill="none" stroke="midnightblue" d="M318.64,-53.87C278.84,-43.28 220.07,-27.64 185.59,-18.47"/>
<polygon fill="midnightblue" stroke="midnightblue" points="317.76,-57.26 328.33,-56.44 319.56,-50.49 317.76,-57.26"/>
</g>
<!-- Node4 -->
<g id="node4" class="node">
<title>Node4</title>
<g id="a_node4"><a xlink:href="icns__advection_8cpp.html" target="_top" xlink:title=" ">
<polygon fill="white" stroke="black" points="305.49,-0.5 305.49,-19.5 415.49,-19.5 415.49,-0.5 305.49,-0.5"/>
<text text-anchor="middle" x="360.49" y="-7.5" font-family="Helvetica,sans-Serif" font-size="10.00">icns_advection.cpp</text>
</a>
</g>
</g>
<!-- Node3&#45;&gt;Node4 -->
<g id="edge4" class="edge">
<title>Node3&#45;&gt;Node4</title>
<path fill="none" stroke="midnightblue" d="M360.49,-45.8C360.49,-36.91 360.49,-26.78 360.49,-19.75"/>
<polygon fill="midnightblue" stroke="midnightblue" points="356.99,-46.08 360.49,-56.08 363.99,-46.08 356.99,-46.08"/>
</g>
<!-- Node5&#45;&gt;Node2 -->
<g id="edge6" class="edge">
<title>Node5&#45;&gt;Node2</title>
<path fill="none" stroke="midnightblue" d="M80.07,-51.59C99.12,-41.61 124.56,-28.27 140.99,-19.65"/>
<polygon fill="midnightblue" stroke="midnightblue" points="78.27,-48.58 71.04,-56.32 81.53,-54.78 78.27,-48.58"/>
</g>
<!-- Node6&#45;&gt;Node2 -->
<g id="edge8" class="edge">
<title>Node6&#45;&gt;Node2</title>
<path fill="none" stroke="midnightblue" d="M157.49,-45.8C157.49,-36.91 157.49,-26.78 157.49,-19.75"/>
<polygon fill="midnightblue" stroke="midnightblue" points="153.99,-46.08 157.49,-56.08 160.99,-46.08 153.99,-46.08"/>
</g>
<!-- Node7&#45;&gt;Node2 -->
<g id="edge10" class="edge">
<title>Node7&#45;&gt;Node2</title>
<path fill="none" stroke="midnightblue" d="M232.41,-51.45C213.95,-41.48 189.4,-28.23 173.52,-19.65"/>
<polygon fill="midnightblue" stroke="midnightblue" points="230.97,-54.65 241.43,-56.32 234.29,-48.49 230.97,-54.65"/>
</g>
</g>
</svg>
