<?xml version="1.0" encoding="UTF-8" standalone="no"?>
<!DOCTYPE svg PUBLIC "-//W3C//DTD SVG 1.1//EN"
 "http://www.w3.org/Graphics/SVG/1.1/DTD/svg11.dtd">
<!-- Generated by graphviz version 2.43.0 (0)
 -->
<!-- Title: incflo_enums.H Pages: 1 -->
<svg width="4266pt" height="252pt"
 viewBox="0.00 0.00 4266.00 252.00" xmlns="http://www.w3.org/2000/svg" xmlns:xlink="http://www.w3.org/1999/xlink">
<g id="graph0" class="graph" transform="scale(1 1) rotate(0) translate(4 248)">
<title>incflo_enums.H</title>
<polygon fill="white" stroke="transparent" points="-4,4 -4,-248 4262,-248 4262,4 -4,4"/>
<!-- Node1 -->
<g id="node1" class="node">
<title>Node1</title>
<g id="a_node1"><a xlink:title=" ">
<polygon fill="#bfbfbf" stroke="black" points="3961.5,-224.5 3961.5,-243.5 4053.5,-243.5 4053.5,-224.5 3961.5,-224.5"/>
<text text-anchor="middle" x="4007.5" y="-231.5" font-family="Helvetica,sans-Serif" font-size="10.00">incflo_enums.H</text>
</a>
</g>
</g>
<!-- Node2 -->
<g id="node2" class="node">
<title>Node2</title>
<g id="a_node2"><a xlink:href="_b_c_interface_8_h.html" target="_top" xlink:title=" ">
<polygon fill="white" stroke="black" points="82.5,-112.5 82.5,-131.5 166.5,-131.5 166.5,-112.5 82.5,-112.5"/>
<text text-anchor="middle" x="124.5" y="-119.5" font-family="Helvetica,sans-Serif" font-size="10.00">BCInterface.H</text>
</a>
</g>
</g>
<!-- Node1&#45;&gt;Node2 -->
<g id="edge1" class="edge">
<title>Node1&#45;&gt;Node2</title>
<path fill="none" stroke="midnightblue" d="M3951.01,-232.11C3701.94,-228.14 2676.9,-211.16 1835.5,-188 1110.46,-168.04 927.88,-185.03 204.5,-132 192.23,-131.1 178.95,-129.76 166.79,-128.38"/>
<polygon fill="midnightblue" stroke="midnightblue" points="3951.21,-235.62 3961.26,-232.28 3951.32,-228.62 3951.21,-235.62"/>
</g>
<!-- Node19 -->
<g id="node7" class="node">
<title>Node19</title>
<g id="a_node7"><a xlink:href="_field_8_h.html" target="_top" xlink:title=" ">
<polygon fill="white" stroke="red" points="1844.5,-168.5 1844.5,-187.5 1894.5,-187.5 1894.5,-168.5 1844.5,-168.5"/>
<text text-anchor="middle" x="1869.5" y="-175.5" font-family="Helvetica,sans-Serif" font-size="10.00">Field.H</text>
</a>
</g>
</g>
<!-- Node1&#45;&gt;Node19 -->
<g id="edge6" class="edge">
<title>Node1&#45;&gt;Node19</title>
<path fill="none" stroke="midnightblue" d="M3951.13,-231.58C3637.13,-223.65 2110.19,-185.08 1894.78,-179.64"/>
<polygon fill="midnightblue" stroke="midnightblue" points="3951.27,-235.08 3961.36,-231.83 3951.45,-228.08 3951.27,-235.08"/>
</g>
<!-- Node79 -->
<g id="node13" class="node">
<title>Node79</title>
<g id="a_node13"><a xlink:href="_p_d_e_base_8cpp.html" target="_top" xlink:title=" ">
<polygon fill="white" stroke="black" points="4005.5,-56.5 4005.5,-75.5 4085.5,-75.5 4085.5,-56.5 4005.5,-56.5"/>
<text text-anchor="middle" x="4045.5" y="-63.5" font-family="Helvetica,sans-Serif" font-size="10.00">PDEBase.cpp</text>
</a>
</g>
</g>
<!-- Node1&#45;&gt;Node79 -->
<g id="edge64" class="edge">
<title>Node1&#45;&gt;Node79</title>
<path fill="none" stroke="midnightblue" d="M4013.62,-214.87C4016.25,-206.72 4019.23,-196.93 4021.5,-188 4032.1,-146.28 4040.85,-95.48 4044.12,-75.58"/>
<polygon fill="midnightblue" stroke="midnightblue" points="4010.27,-213.86 4010.46,-224.45 4016.92,-216.05 4010.27,-213.86"/>
</g>
<!-- Node131 -->
<g id="node14" class="node">
<title>Node131</title>
<g id="a_node14"><a xlink:href="incflo_8_h.html" target="_top" xlink:title=" ">
<polygon fill="white" stroke="red" points="3737,-56.5 3737,-75.5 3790,-75.5 3790,-56.5 3737,-56.5"/>
<text text-anchor="middle" x="3763.5" y="-63.5" font-family="Helvetica,sans-Serif" font-size="10.00">incflo.H</text>
</a>
</g>
</g>
<!-- Node1&#45;&gt;Node131 -->
<g id="edge67" class="edge">
<title>Node1&#45;&gt;Node131</title>
<path fill="none" stroke="midnightblue" d="M3998.28,-215.29C3983.65,-188.89 3952.59,-139.38 3912.5,-112 3902.26,-105.01 3830.15,-84.92 3790.12,-74.1"/>
<polygon fill="midnightblue" stroke="midnightblue" points="3995.25,-217.04 4003.07,-224.18 4001.41,-213.72 3995.25,-217.04"/>
</g>
<!-- Node43 -->
<g id="node19" class="node">
<title>Node43</title>
<g id="a_node19"><a xlink:href="_a_m_d_no_therm_8_h.html" target="_top" xlink:title=" ">
<polygon fill="white" stroke="red" points="3808,-56.5 3808,-75.5 3903,-75.5 3903,-56.5 3808,-56.5"/>
<text text-anchor="middle" x="3855.5" y="-63.5" font-family="Helvetica,sans-Serif" font-size="10.00">AMDNoTherm.H</text>
</a>
</g>
</g>
<!-- Node1&#45;&gt;Node43 -->
<g id="edge68" class="edge">
<title>Node1&#45;&gt;Node43</title>
<path fill="none" stroke="midnightblue" d="M4009.12,-214.42C4010.33,-188.36 4008.55,-140.9 3983.5,-112 3963.36,-88.77 3930.49,-77.53 3903.11,-72.1"/>
<polygon fill="midnightblue" stroke="midnightblue" points="4005.62,-214.25 4008.45,-224.46 4012.61,-214.71 4005.62,-214.25"/>
</g>
<!-- Node83 -->
<g id="node49" class="node">
<title>Node83</title>
<g id="a_node49"><a xlink:href="_comp_r_h_s_ops_8_h.html" target="_top" xlink:title=" ">
<polygon fill="white" stroke="red" points="4163,-168.5 4163,-187.5 4258,-187.5 4258,-168.5 4163,-168.5"/>
<text text-anchor="middle" x="4210.5" y="-175.5" font-family="Helvetica,sans-Serif" font-size="10.00">CompRHSOps.H</text>
</a>
</g>
</g>
<!-- Node1&#45;&gt;Node83 -->
<g id="edge63" class="edge">
<title>Node1&#45;&gt;Node83</title>
<path fill="none" stroke="midnightblue" d="M4049.49,-221.83C4087.82,-211.63 4143.65,-196.78 4178.48,-187.52"/>
<polygon fill="midnightblue" stroke="midnightblue" points="4048.43,-218.49 4039.67,-224.44 4050.23,-225.26 4048.43,-218.49"/>
</g>
<!-- Node325 -->
<g id="node50" class="node">
<title>Node325</title>
<g id="a_node50"><a xlink:href="_p_d_e_base_8_h.html" target="_top" xlink:title=" ">
<polygon fill="white" stroke="red" points="4074,-168.5 4074,-187.5 4145,-187.5 4145,-168.5 4074,-168.5"/>
<text text-anchor="middle" x="4109.5" y="-175.5" font-family="Helvetica,sans-Serif" font-size="10.00">PDEBase.H</text>
</a>
</g>
</g>
<!-- Node1&#45;&gt;Node325 -->
<g id="edge65" class="edge">
<title>Node1&#45;&gt;Node325</title>
<path fill="none" stroke="midnightblue" d="M4032.83,-219.59C4051.69,-209.61 4076.88,-196.27 4093.15,-187.65"/>
<polygon fill="midnightblue" stroke="midnightblue" points="4031.09,-216.55 4023.89,-224.32 4034.36,-222.74 4031.09,-216.55"/>
</g>
<!-- Node3 -->
<g id="node3" class="node">
<title>Node3</title>
<g id="a_node3"><a xlink:href="_b_c_interface_8cpp.html" target="_top" xlink:title=" ">
<polygon fill="white" stroke="black" points="438.5,-56.5 438.5,-75.5 532.5,-75.5 532.5,-56.5 438.5,-56.5"/>
<text text-anchor="middle" x="485.5" y="-63.5" font-family="Helvetica,sans-Serif" font-size="10.00">BCInterface.cpp</text>
</a>
</g>
</g>
<!-- Node2&#45;&gt;Node3 -->
<g id="edge2" class="edge">
<title>Node2&#45;&gt;Node3</title>
<path fill="none" stroke="midnightblue" d="M176.57,-113.21C246.73,-102.72 370.62,-84.18 438.23,-74.07"/>
<polygon fill="midnightblue" stroke="midnightblue" points="175.99,-109.76 166.62,-114.7 177.03,-116.68 175.99,-109.76"/>
</g>
<!-- Node4 -->
<g id="node4" class="node">
<title>Node4</title>
<g id="a_node4"><a xlink:href="_field_8cpp.html" target="_top" xlink:title=" ">
<polygon fill="white" stroke="black" points="324.5,-0.5 324.5,-19.5 384.5,-19.5 384.5,-0.5 324.5,-0.5"/>
<text text-anchor="middle" x="354.5" y="-7.5" font-family="Helvetica,sans-Serif" font-size="10.00">Field.cpp</text>
</a>
</g>
</g>
<!-- Node2&#45;&gt;Node4 -->
<g id="edge3" class="edge">
<title>Node2&#45;&gt;Node4</title>
<path fill="none" stroke="midnightblue" d="M140.8,-105.23C156.68,-90.64 182.07,-69.26 207.5,-56 245.48,-36.19 293.62,-23.53 324.25,-16.84"/>
<polygon fill="midnightblue" stroke="midnightblue" points="138.31,-102.77 133.42,-112.16 143.1,-107.87 138.31,-102.77"/>
</g>
<!-- Node5 -->
<g id="node5" class="node">
<title>Node5</title>
<g id="a_node5"><a xlink:href="_b_c_ops_8_h.html" target="_top" xlink:title=" ">
<polygon fill="white" stroke="red" points="0,-56.5 0,-75.5 59,-75.5 59,-56.5 0,-56.5"/>
<text text-anchor="middle" x="29.5" y="-63.5" font-family="Helvetica,sans-Serif" font-size="10.00">BCOps.H</text>
</a>
</g>
</g>
<!-- Node2&#45;&gt;Node5 -->
<g id="edge4" class="edge">
<title>Node2&#45;&gt;Node5</title>
<path fill="none" stroke="midnightblue" d="M100.18,-107.18C82.7,-97.24 59.67,-84.15 44.73,-75.65"/>
<polygon fill="midnightblue" stroke="midnightblue" points="98.81,-110.43 109.24,-112.32 102.27,-104.34 98.81,-110.43"/>
</g>
<!-- Node18 -->
<g id="node6" class="node">
<title>Node18</title>
<g id="a_node6"><a xlink:href="vof__bciface_8_h.html" target="_top" xlink:title=" ">
<polygon fill="white" stroke="red" points="77,-56.5 77,-75.5 160,-75.5 160,-56.5 77,-56.5"/>
<text text-anchor="middle" x="118.5" y="-63.5" font-family="Helvetica,sans-Serif" font-size="10.00">vof_bciface.H</text>
</a>
</g>
</g>
<!-- Node2&#45;&gt;Node18 -->
<g id="edge5" class="edge">
<title>Node2&#45;&gt;Node18</title>
<path fill="none" stroke="midnightblue" d="M122.4,-102.1C121.4,-93.14 120.26,-82.86 119.47,-75.75"/>
<polygon fill="midnightblue" stroke="midnightblue" points="118.93,-102.53 123.51,-112.08 125.88,-101.76 118.93,-102.53"/>
</g>
<!-- Node19&#45;&gt;Node2 -->
<g id="edge7" class="edge">
<title>Node19&#45;&gt;Node2</title>
<path fill="none" stroke="midnightblue" d="M1834.27,-176.7C1622.63,-174.8 517.99,-163.48 180.5,-132 175.99,-131.58 171.29,-131.02 166.62,-130.38"/>
<polygon fill="midnightblue" stroke="midnightblue" points="1834.46,-180.2 1844.49,-176.79 1834.52,-173.2 1834.46,-180.2"/>
</g>
<!-- Node19&#45;&gt;Node4 -->
<g id="edge8" class="edge">
<title>Node19&#45;&gt;Node4</title>
<path fill="none" stroke="midnightblue" d="M1905.2,-176.9C2174.4,-176.07 3875.95,-169.37 3912.5,-132 3923.53,-120.72 3940.9,-85.25 3911.5,-56 3878.38,-23.05 727.66,-12.18 384.69,-11.09"/>
<polygon fill="midnightblue" stroke="midnightblue" points="1904.83,-173.4 1894.84,-176.93 1904.85,-180.4 1904.83,-173.4"/>
</g>
<!-- Node20 -->
<g id="node8" class="node">
<title>Node20</title>
<g id="a_node8"><a xlink:href="field__ops_8_h.html" target="_top" xlink:title=" ">
<polygon fill="white" stroke="red" points="3688,-112.5 3688,-131.5 3759,-131.5 3759,-112.5 3688,-112.5"/>
<text text-anchor="middle" x="3723.5" y="-119.5" font-family="Helvetica,sans-Serif" font-size="10.00">field_ops.H</text>
</a>
</g>
</g>
<!-- Node19&#45;&gt;Node20 -->
<g id="edge9" class="edge">
<title>Node19&#45;&gt;Node20</title>
<path fill="none" stroke="midnightblue" d="M1904.7,-176.86C2124.6,-175.86 3312.03,-168.82 3673.5,-132 3678.15,-131.53 3683.02,-130.86 3687.81,-130.11"/>
<polygon fill="midnightblue" stroke="midnightblue" points="1904.67,-173.36 1894.68,-176.9 1904.7,-180.36 1904.67,-173.36"/>
</g>
<!-- Node51 -->
<g id="node9" class="node">
<title>Node51</title>
<g id="a_node9"><a xlink:href="_field_b_c_ops_8_h.html" target="_top" xlink:title=" ">
<polygon fill="white" stroke="red" points="223,-112.5 223,-131.5 306,-131.5 306,-112.5 223,-112.5"/>
<text text-anchor="middle" x="264.5" y="-119.5" font-family="Helvetica,sans-Serif" font-size="10.00">FieldBCOps.H</text>
</a>
</g>
</g>
<!-- Node19&#45;&gt;Node51 -->
<g id="edge10" class="edge">
<title>Node19&#45;&gt;Node51</title>
<path fill="none" stroke="midnightblue" d="M1834.37,-176.6C1633.49,-174.24 628.53,-161.1 320.5,-132 315.79,-131.56 310.88,-130.96 306.01,-130.29"/>
<polygon fill="midnightblue" stroke="midnightblue" points="1834.33,-180.1 1844.37,-176.72 1834.41,-173.1 1834.33,-180.1"/>
</g>
<!-- Node59 -->
<g id="node10" class="node">
<title>Node59</title>
<g id="a_node10"><a xlink:href="_field_fill_patch_ops_8_h.html" target="_top" xlink:title=" ">
<polygon fill="white" stroke="red" points="216.5,-56.5 216.5,-75.5 326.5,-75.5 326.5,-56.5 216.5,-56.5"/>
<text text-anchor="middle" x="271.5" y="-63.5" font-family="Helvetica,sans-Serif" font-size="10.00">FieldFillPatchOps.H</text>
</a>
</g>
</g>
<!-- Node19&#45;&gt;Node59 -->
<g id="edge14" class="edge">
<title>Node19&#45;&gt;Node59</title>
<path fill="none" stroke="midnightblue" d="M1834.16,-176.72C1596.76,-174.73 242.78,-162.08 213.5,-132 194.51,-112.49 230.9,-88.28 254.18,-75.63"/>
<polygon fill="midnightblue" stroke="midnightblue" points="1834.28,-180.22 1844.31,-176.8 1834.33,-173.22 1834.28,-180.22"/>
</g>
<!-- Node103 -->
<g id="node11" class="node">
<title>Node103</title>
<g id="a_node11"><a xlink:href="_field_repo_8_h.html" target="_top" xlink:title=" ">
<polygon fill="white" stroke="red" points="3168,-112.5 3168,-131.5 3243,-131.5 3243,-112.5 3168,-112.5"/>
<text text-anchor="middle" x="3205.5" y="-119.5" font-family="Helvetica,sans-Serif" font-size="10.00">FieldRepo.H</text>
</a>
</g>
</g>
<!-- Node19&#45;&gt;Node103 -->
<g id="edge15" class="edge">
<title>Node19&#45;&gt;Node103</title>
<path fill="none" stroke="midnightblue" d="M1904.8,-176.5C2085.21,-173.86 2905.55,-160.46 3158.5,-132 3161.55,-131.66 3164.71,-131.22 3167.87,-130.74"/>
<polygon fill="midnightblue" stroke="midnightblue" points="1904.51,-173.01 1894.56,-176.65 1904.61,-180.01 1904.51,-173.01"/>
</g>
<!-- Node251 -->
<g id="node12" class="node">
<title>Node251</title>
<g id="a_node12"><a xlink:href="_view_field_8cpp.html" target="_top" xlink:title=" ">
<polygon fill="white" stroke="black" points="1589.5,-56.5 1589.5,-75.5 1673.5,-75.5 1673.5,-56.5 1589.5,-56.5"/>
<text text-anchor="middle" x="1631.5" y="-63.5" font-family="Helvetica,sans-Serif" font-size="10.00">ViewField.cpp</text>
</a>
</g>
</g>
<!-- Node19&#45;&gt;Node251 -->
<g id="edge29" class="edge">
<title>Node19&#45;&gt;Node251</title>
<path fill="none" stroke="midnightblue" d="M1834.15,-176.62C1609.1,-174.13 385.06,-159.36 358.5,-132 352.31,-125.62 352.33,-118.4 358.5,-112 402.18,-66.75 1373.56,-66.39 1589.3,-66.87"/>
<polygon fill="midnightblue" stroke="midnightblue" points="1834.35,-180.12 1844.39,-176.73 1834.43,-173.12 1834.35,-180.12"/>
</g>
<!-- Node71 -->
<g id="node15" class="node">
<title>Node71</title>
<g id="a_node15"><a xlink:href="_burggraf_lid_8cpp.html" target="_top" xlink:title=" ">
<polygon fill="white" stroke="black" points="2211,-56.5 2211,-75.5 2304,-75.5 2304,-56.5 2211,-56.5"/>
<text text-anchor="middle" x="2257.5" y="-63.5" font-family="Helvetica,sans-Serif" font-size="10.00">BurggrafLid.cpp</text>
</a>
</g>
</g>
<!-- Node19&#45;&gt;Node71 -->
<g id="edge50" class="edge">
<title>Node19&#45;&gt;Node71</title>
<path fill="none" stroke="midnightblue" d="M1834.34,-176.6C1613.12,-173.98 422.35,-158.65 396.5,-132 390.31,-125.62 390.29,-118.36 396.5,-112 412.84,-95.26 1923.09,-71.97 2210.54,-67.69"/>
<polygon fill="midnightblue" stroke="midnightblue" points="1834.37,-180.1 1844.41,-176.71 1834.46,-173.1 1834.37,-180.1"/>
</g>
<!-- Node293 -->
<g id="node16" class="node">
<title>Node293</title>
<g id="a_node16"><a xlink:href="_linear_profile_8cpp.html" target="_top" xlink:title=" ">
<polygon fill="white" stroke="black" points="2582.5,-56.5 2582.5,-75.5 2680.5,-75.5 2680.5,-56.5 2582.5,-56.5"/>
<text text-anchor="middle" x="2631.5" y="-63.5" font-family="Helvetica,sans-Serif" font-size="10.00">LinearProfile.cpp</text>
</a>
</g>
</g>
<!-- Node19&#45;&gt;Node293 -->
<g id="edge51" class="edge">
<title>Node19&#45;&gt;Node293</title>
<path fill="none" stroke="midnightblue" d="M1834.23,-176.57C1616.13,-173.8 459.63,-157.94 434.5,-132 428.31,-125.62 428.28,-118.35 434.5,-112 471.04,-74.75 2260.34,-77.24 2312.5,-76 2408.05,-73.74 2519.67,-70.44 2582.32,-68.53"/>
<polygon fill="midnightblue" stroke="midnightblue" points="1834.42,-180.07 1844.46,-176.69 1834.51,-173.07 1834.42,-180.07"/>
</g>
<!-- Node72 -->
<g id="node17" class="node">
<title>Node72</title>
<g id="a_node17"><a xlink:href="_power_law_profile_8cpp.html" target="_top" xlink:title=" ">
<polygon fill="white" stroke="black" points="2829,-56.5 2829,-75.5 2946,-75.5 2946,-56.5 2829,-56.5"/>
<text text-anchor="middle" x="2887.5" y="-63.5" font-family="Helvetica,sans-Serif" font-size="10.00">PowerLawProfile.cpp</text>
</a>
</g>
</g>
<!-- Node19&#45;&gt;Node72 -->
<g id="edge52" class="edge">
<title>Node19&#45;&gt;Node72</title>
<path fill="none" stroke="midnightblue" d="M1834.14,-176.53C1619.26,-173.62 496.92,-157.22 472.5,-132 466.32,-125.61 466.27,-118.34 472.5,-112 515.7,-68.1 2627.94,-77.9 2689.5,-76 2736.28,-74.56 2789.23,-72.11 2828.6,-70.13"/>
<polygon fill="midnightblue" stroke="midnightblue" points="1834.19,-180.04 1844.24,-176.67 1834.29,-173.04 1834.19,-180.04"/>
</g>
<!-- Node294 -->
<g id="node18" class="node">
<title>Node294</title>
<g id="a_node18"><a xlink:href="_u_d_f_8cpp.html" target="_top" xlink:title=" ">
<polygon fill="white" stroke="black" points="3029.5,-56.5 3029.5,-75.5 3085.5,-75.5 3085.5,-56.5 3029.5,-56.5"/>
<text text-anchor="middle" x="3057.5" y="-63.5" font-family="Helvetica,sans-Serif" font-size="10.00">UDF.cpp</text>
</a>
</g>
</g>
<!-- Node19&#45;&gt;Node294 -->
<g id="edge53" class="edge">
<title>Node19&#45;&gt;Node294</title>
<path fill="none" stroke="midnightblue" d="M1833.99,-176.5C1621.76,-173.46 529.3,-156.6 505.5,-132 499.32,-125.61 499.26,-118.33 505.5,-112 553.25,-63.54 2886.55,-79.46 2954.5,-76 2979.78,-74.71 3008.46,-72.11 3029.12,-70.04"/>
<polygon fill="midnightblue" stroke="midnightblue" points="1834.2,-180.01 1844.25,-176.65 1834.3,-173.01 1834.2,-180.01"/>
</g>
<!-- Node174 -->
<g id="node20" class="node">
<title>Node174</title>
<g id="a_node20"><a xlink:href="_re_averaging_8cpp.html" target="_top" xlink:title=" ">
<polygon fill="white" stroke="black" points="3189.5,-56.5 3189.5,-75.5 3287.5,-75.5 3287.5,-56.5 3189.5,-56.5"/>
<text text-anchor="middle" x="3238.5" y="-63.5" font-family="Helvetica,sans-Serif" font-size="10.00">ReAveraging.cpp</text>
</a>
</g>
</g>
<!-- Node19&#45;&gt;Node174 -->
<g id="edge56" class="edge">
<title>Node19&#45;&gt;Node174</title>
<path fill="none" stroke="midnightblue" d="M1904.79,-177.22C2115.82,-178.36 3203.27,-181.83 3251.5,-132 3266.23,-116.79 3253.07,-89.86 3244.5,-75.92"/>
<polygon fill="midnightblue" stroke="midnightblue" points="1904.61,-173.72 1894.59,-177.16 1904.57,-180.72 1904.61,-173.72"/>
</g>
<!-- Node175 -->
<g id="node21" class="node">
<title>Node175</title>
<g id="a_node21"><a xlink:href="_reynolds_stress_8cpp.html" target="_top" xlink:title=" ">
<polygon fill="white" stroke="black" points="3354.5,-56.5 3354.5,-75.5 3466.5,-75.5 3466.5,-56.5 3354.5,-56.5"/>
<text text-anchor="middle" x="3410.5" y="-63.5" font-family="Helvetica,sans-Serif" font-size="10.00">ReynoldsStress.cpp</text>
</a>
</g>
</g>
<!-- Node19&#45;&gt;Node175 -->
<g id="edge57" class="edge">
<title>Node19&#45;&gt;Node175</title>
<path fill="none" stroke="midnightblue" d="M1904.55,-176.76C2147.37,-175.03 3570.78,-163.53 3601.5,-132 3644.71,-87.66 3537.2,-73.56 3466.5,-69.08"/>
<polygon fill="midnightblue" stroke="midnightblue" points="1904.48,-173.26 1894.51,-176.83 1904.53,-180.26 1904.48,-173.26"/>
</g>
<!-- Node299 -->
<g id="node22" class="node">
<title>Node299</title>
<g id="a_node22"><a xlink:href="_mesh_map_8_h.html" target="_top" xlink:title=" ">
<polygon fill="white" stroke="red" points="514.5,-112.5 514.5,-131.5 588.5,-131.5 588.5,-112.5 514.5,-112.5"/>
<text text-anchor="middle" x="551.5" y="-119.5" font-family="Helvetica,sans-Serif" font-size="10.00">MeshMap.H</text>
</a>
</g>
</g>
<!-- Node19&#45;&gt;Node299 -->
<g id="edge28" class="edge">
<title>Node19&#45;&gt;Node299</title>
<path fill="none" stroke="midnightblue" d="M1834.08,-176.5C1654.87,-173.88 846.79,-160.62 597.5,-132 594.59,-131.67 591.59,-131.25 588.58,-130.78"/>
<polygon fill="midnightblue" stroke="midnightblue" points="1834.22,-180.01 1844.27,-176.65 1834.32,-173.01 1834.22,-180.01"/>
</g>
<!-- Node304 -->
<g id="node23" class="node">
<title>Node304</title>
<g id="a_node23"><a xlink:href="_boussinesq_bubble_8_h.html" target="_top" xlink:title=" ">
<polygon fill="white" stroke="red" points="606.5,-112.5 606.5,-131.5 722.5,-131.5 722.5,-112.5 606.5,-112.5"/>
<text text-anchor="middle" x="664.5" y="-119.5" font-family="Helvetica,sans-Serif" font-size="10.00">BoussinesqBubble.H</text>
</a>
</g>
</g>
<!-- Node19&#45;&gt;Node304 -->
<g id="edge30" class="edge">
<title>Node19&#45;&gt;Node304</title>
<path fill="none" stroke="midnightblue" d="M1834.06,-176.81C1693.91,-175.81 1164.9,-169.59 731.5,-132 728.58,-131.75 725.59,-131.46 722.57,-131.14"/>
<polygon fill="midnightblue" stroke="midnightblue" points="1834.19,-180.31 1844.21,-176.88 1834.24,-173.31 1834.19,-180.31"/>
</g>
<!-- Node152 -->
<g id="node24" class="node">
<title>Node152</title>
<g id="a_node24"><a xlink:href="_burggraf_flow_8_h.html" target="_top" xlink:title=" ">
<polygon fill="white" stroke="red" points="740.5,-112.5 740.5,-131.5 832.5,-131.5 832.5,-112.5 740.5,-112.5"/>
<text text-anchor="middle" x="786.5" y="-119.5" font-family="Helvetica,sans-Serif" font-size="10.00">BurggrafFlow.H</text>
</a>
</g>
</g>
<!-- Node19&#45;&gt;Node152 -->
<g id="edge31" class="edge">
<title>Node19&#45;&gt;Node152</title>
<path fill="none" stroke="midnightblue" d="M1834.09,-176.97C1702.48,-176.52 1229.09,-172.05 841.5,-132 838.61,-131.7 835.65,-131.35 832.66,-130.96"/>
<polygon fill="midnightblue" stroke="midnightblue" points="1834.36,-180.47 1844.37,-177 1834.38,-173.47 1834.36,-180.47"/>
</g>
<!-- Node57 -->
<g id="node25" class="node">
<title>Node57</title>
<g id="a_node25"><a xlink:href="_channel_flow_8_h.html" target="_top" xlink:title=" ">
<polygon fill="white" stroke="red" points="851,-112.5 851,-131.5 940,-131.5 940,-112.5 851,-112.5"/>
<text text-anchor="middle" x="895.5" y="-119.5" font-family="Helvetica,sans-Serif" font-size="10.00">ChannelFlow.H</text>
</a>
</g>
</g>
<!-- Node19&#45;&gt;Node57 -->
<g id="edge32" class="edge">
<title>Node19&#45;&gt;Node57</title>
<path fill="none" stroke="midnightblue" d="M1833.8,-176.79C1710.58,-175.72 1291.84,-169.4 948.5,-132 945.81,-131.71 943.05,-131.36 940.27,-130.99"/>
<polygon fill="midnightblue" stroke="midnightblue" points="1834.11,-180.29 1844.14,-176.87 1834.17,-173.29 1834.11,-180.29"/>
</g>
<!-- Node154 -->
<g id="node26" class="node">
<title>Node154</title>
<g id="a_node26"><a xlink:href="_convecting_taylor_vortex_8_h.html" target="_top" xlink:title=" ">
<polygon fill="white" stroke="red" points="958,-112.5 958,-131.5 1101,-131.5 1101,-112.5 958,-112.5"/>
<text text-anchor="middle" x="1029.5" y="-119.5" font-family="Helvetica,sans-Serif" font-size="10.00">ConvectingTaylorVortex.H</text>
</a>
</g>
</g>
<!-- Node19&#45;&gt;Node154 -->
<g id="edge33" class="edge">
<title>Node19&#45;&gt;Node154</title>
<path fill="none" stroke="midnightblue" d="M1834.15,-175.57C1725.72,-171.05 1388.29,-155.92 1109.5,-132 1106.71,-131.76 1103.88,-131.5 1101.01,-131.23"/>
<polygon fill="midnightblue" stroke="midnightblue" points="1834.07,-179.07 1844.21,-175.99 1834.36,-172.08 1834.07,-179.07"/>
</g>
<!-- Node156 -->
<g id="node27" class="node">
<title>Node156</title>
<g id="a_node27"><a xlink:href="_ekman_spiral_8_h.html" target="_top" xlink:title=" ">
<polygon fill="white" stroke="red" points="1119,-112.5 1119,-131.5 1208,-131.5 1208,-112.5 1119,-112.5"/>
<text text-anchor="middle" x="1163.5" y="-119.5" font-family="Helvetica,sans-Serif" font-size="10.00">EkmanSpiral.H</text>
</a>
</g>
</g>
<!-- Node19&#45;&gt;Node156 -->
<g id="edge34" class="edge">
<title>Node19&#45;&gt;Node156</title>
<path fill="none" stroke="midnightblue" d="M1833.93,-175.79C1735.47,-172.18 1451.16,-159.94 1216.5,-132 1213.81,-131.68 1211.05,-131.32 1208.27,-130.92"/>
<polygon fill="midnightblue" stroke="midnightblue" points="1834.08,-179.3 1844.2,-176.16 1834.34,-172.3 1834.08,-179.3"/>
</g>
<!-- Node305 -->
<g id="node28" class="node">
<title>Node305</title>
<g id="a_node28"><a xlink:href="_free_stream_8_h.html" target="_top" xlink:title=" ">
<polygon fill="white" stroke="red" points="1226,-112.5 1226,-131.5 1309,-131.5 1309,-112.5 1226,-112.5"/>
<text text-anchor="middle" x="1267.5" y="-119.5" font-family="Helvetica,sans-Serif" font-size="10.00">FreeStream.H</text>
</a>
</g>
</g>
<!-- Node19&#45;&gt;Node305 -->
<g id="edge35" class="edge">
<title>Node19&#45;&gt;Node305</title>
<path fill="none" stroke="midnightblue" d="M1834.18,-175.31C1746.47,-170.85 1511.76,-157.34 1317.5,-132 1314.79,-131.65 1312,-131.25 1309.19,-130.82"/>
<polygon fill="midnightblue" stroke="midnightblue" points="1834.21,-178.81 1844.38,-175.82 1834.56,-171.82 1834.21,-178.81"/>
</g>
<!-- Node158 -->
<g id="node29" class="node">
<title>Node158</title>
<g id="a_node29"><a xlink:href="_hybrid_r_a_n_s_l_e_s_a_b_l_8_h.html" target="_top" xlink:title=" ">
<polygon fill="white" stroke="red" points="1327,-112.5 1327,-131.5 1450,-131.5 1450,-112.5 1327,-112.5"/>
<text text-anchor="middle" x="1388.5" y="-119.5" font-family="Helvetica,sans-Serif" font-size="10.00">HybridRANSLESABL.H</text>
</a>
</g>
</g>
<!-- Node19&#45;&gt;Node158 -->
<g id="edge36" class="edge">
<title>Node19&#45;&gt;Node158</title>
<path fill="none" stroke="midnightblue" d="M1834.28,-173.37C1763.19,-165.99 1597.48,-148.54 1458.5,-132 1455.82,-131.68 1453.09,-131.35 1450.33,-131.01"/>
<polygon fill="midnightblue" stroke="midnightblue" points="1834.15,-176.88 1844.46,-174.42 1834.88,-169.91 1834.15,-176.88"/>
</g>
<!-- Node160 -->
<g id="node30" class="node">
<title>Node160</title>
<g id="a_node30"><a xlink:href="_m_m_s_8_h.html" target="_top" xlink:title=" ">
<polygon fill="white" stroke="red" points="1468,-112.5 1468,-131.5 1519,-131.5 1519,-112.5 1468,-112.5"/>
<text text-anchor="middle" x="1493.5" y="-119.5" font-family="Helvetica,sans-Serif" font-size="10.00">MMS.H</text>
</a>
</g>
</g>
<!-- Node19&#45;&gt;Node160 -->
<g id="edge37" class="edge">
<title>Node19&#45;&gt;Node160</title>
<path fill="none" stroke="midnightblue" d="M1834.36,-173.87C1772.12,-168.01 1638.58,-153.92 1527.5,-132 1524.74,-131.46 1521.88,-130.82 1519.04,-130.14"/>
<polygon fill="midnightblue" stroke="midnightblue" points="1834.15,-177.37 1844.43,-174.81 1834.8,-170.4 1834.15,-177.37"/>
</g>
<!-- Node306 -->
<g id="node31" class="node">
<title>Node306</title>
<g id="a_node31"><a xlink:href="_dam_break_8_h.html" target="_top" xlink:title=" ">
<polygon fill="white" stroke="red" points="1537,-112.5 1537,-131.5 1616,-131.5 1616,-112.5 1537,-112.5"/>
<text text-anchor="middle" x="1576.5" y="-119.5" font-family="Helvetica,sans-Serif" font-size="10.00">DamBreak.H</text>
</a>
</g>
</g>
<!-- Node19&#45;&gt;Node306 -->
<g id="edge38" class="edge">
<title>Node19&#45;&gt;Node306</title>
<path fill="none" stroke="midnightblue" d="M1834.37,-170.59C1786.78,-161.9 1699.21,-145.87 1624.5,-132 1621.75,-131.49 1618.91,-130.96 1616.05,-130.43"/>
<polygon fill="midnightblue" stroke="midnightblue" points="1833.99,-174.08 1844.45,-172.43 1835.24,-167.19 1833.99,-174.08"/>
</g>
<!-- Node307 -->
<g id="node32" class="node">
<title>Node307</title>
<g id="a_node32"><a xlink:href="_multi_phase_8_h.html" target="_top" xlink:title=" ">
<polygon fill="white" stroke="red" points="1634,-112.5 1634,-131.5 1715,-131.5 1715,-112.5 1634,-112.5"/>
<text text-anchor="middle" x="1674.5" y="-119.5" font-family="Helvetica,sans-Serif" font-size="10.00">MultiPhase.H</text>
</a>
</g>
</g>
<!-- Node19&#45;&gt;Node307 -->
<g id="edge39" class="edge">
<title>Node19&#45;&gt;Node307</title>
<path fill="none" stroke="midnightblue" d="M1834.61,-167.34C1797.83,-157.15 1740.43,-141.26 1705.28,-131.52"/>
<polygon fill="midnightblue" stroke="midnightblue" points="1833.83,-170.76 1844.41,-170.05 1835.7,-164.01 1833.83,-170.76"/>
</g>
<!-- Node308 -->
<g id="node33" class="node">
<title>Node308</title>
<g id="a_node33"><a xlink:href="_rain_drop_8_h.html" target="_top" xlink:title=" ">
<polygon fill="white" stroke="red" points="1733.5,-112.5 1733.5,-131.5 1805.5,-131.5 1805.5,-112.5 1733.5,-112.5"/>
<text text-anchor="middle" x="1769.5" y="-119.5" font-family="Helvetica,sans-Serif" font-size="10.00">RainDrop.H</text>
</a>
</g>
</g>
<!-- Node19&#45;&gt;Node308 -->
<g id="edge40" class="edge">
<title>Node19&#45;&gt;Node308</title>
<path fill="none" stroke="midnightblue" d="M1844.41,-163.45C1825.95,-153.48 1801.4,-140.23 1785.53,-131.65"/>
<polygon fill="midnightblue" stroke="midnightblue" points="1842.97,-166.65 1853.43,-168.32 1846.3,-160.49 1842.97,-166.65"/>
</g>
<!-- Node309 -->
<g id="node34" class="node">
<title>Node309</title>
<g id="a_node34"><a xlink:href="_sloshing_tank_8_h.html" target="_top" xlink:title=" ">
<polygon fill="white" stroke="red" points="1824,-112.5 1824,-131.5 1915,-131.5 1915,-112.5 1824,-112.5"/>
<text text-anchor="middle" x="1869.5" y="-119.5" font-family="Helvetica,sans-Serif" font-size="10.00">SloshingTank.H</text>
</a>
</g>
</g>
<!-- Node19&#45;&gt;Node309 -->
<g id="edge41" class="edge">
<title>Node19&#45;&gt;Node309</title>
<path fill="none" stroke="midnightblue" d="M1869.5,-157.8C1869.5,-148.91 1869.5,-138.78 1869.5,-131.75"/>
<polygon fill="midnightblue" stroke="midnightblue" points="1866,-158.08 1869.5,-168.08 1873,-158.08 1866,-158.08"/>
</g>
<!-- Node310 -->
<g id="node35" class="node">
<title>Node310</title>
<g id="a_node35"><a xlink:href="_vortex_patch_8_h.html" target="_top" xlink:title=" ">
<polygon fill="white" stroke="red" points="1933,-112.5 1933,-131.5 2018,-131.5 2018,-112.5 1933,-112.5"/>
<text text-anchor="middle" x="1975.5" y="-119.5" font-family="Helvetica,sans-Serif" font-size="10.00">VortexPatch.H</text>
</a>
</g>
</g>
<!-- Node19&#45;&gt;Node310 -->
<g id="edge42" class="edge">
<title>Node19&#45;&gt;Node310</title>
<path fill="none" stroke="midnightblue" d="M1895.56,-163.73C1915.18,-153.73 1941.53,-140.31 1958.51,-131.65"/>
<polygon fill="midnightblue" stroke="midnightblue" points="1893.85,-160.67 1886.53,-168.32 1897.03,-166.9 1893.85,-160.67"/>
</g>
<!-- Node311 -->
<g id="node36" class="node">
<title>Node311</title>
<g id="a_node36"><a xlink:href="_vortex_patch_scalar_vel_8_h.html" target="_top" xlink:title=" ">
<polygon fill="white" stroke="red" points="2036.5,-112.5 2036.5,-131.5 2166.5,-131.5 2166.5,-112.5 2036.5,-112.5"/>
<text text-anchor="middle" x="2101.5" y="-119.5" font-family="Helvetica,sans-Serif" font-size="10.00">VortexPatchScalarVel.H</text>
</a>
</g>
</g>
<!-- Node19&#45;&gt;Node311 -->
<g id="edge43" class="edge">
<title>Node19&#45;&gt;Node311</title>
<path fill="none" stroke="midnightblue" d="M1904.56,-168.84C1947.79,-158.78 2020.91,-141.76 2064.85,-131.53"/>
<polygon fill="midnightblue" stroke="midnightblue" points="1903.72,-165.44 1894.77,-171.12 1905.3,-172.26 1903.72,-165.44"/>
</g>
<!-- Node312 -->
<g id="node37" class="node">
<title>Node312</title>
<g id="a_node37"><a xlink:href="_zalesak_disk_8_h.html" target="_top" xlink:title=" ">
<polygon fill="white" stroke="red" points="2184.5,-112.5 2184.5,-131.5 2272.5,-131.5 2272.5,-112.5 2184.5,-112.5"/>
<text text-anchor="middle" x="2228.5" y="-119.5" font-family="Helvetica,sans-Serif" font-size="10.00">ZalesakDisk.H</text>
</a>
</g>
</g>
<!-- Node19&#45;&gt;Node312 -->
<g id="edge44" class="edge">
<title>Node19&#45;&gt;Node312</title>
<path fill="none" stroke="midnightblue" d="M1904.43,-172.12C1961.29,-164.12 2077.39,-147.54 2175.5,-132 2178.36,-131.55 2181.3,-131.07 2184.27,-130.59"/>
<polygon fill="midnightblue" stroke="midnightblue" points="1903.93,-168.66 1894.52,-173.51 1904.91,-175.59 1903.93,-168.66"/>
</g>
<!-- Node313 -->
<g id="node38" class="node">
<title>Node313</title>
<g id="a_node38"><a xlink:href="_zalesak_disk_scalar_vel_8_h.html" target="_top" xlink:title=" ">
<polygon fill="white" stroke="red" points="2291,-112.5 2291,-131.5 2424,-131.5 2424,-112.5 2291,-112.5"/>
<text text-anchor="middle" x="2357.5" y="-119.5" font-family="Helvetica,sans-Serif" font-size="10.00">ZalesakDiskScalarVel.H</text>
</a>
</g>
</g>
<!-- Node19&#45;&gt;Node313 -->
<g id="edge45" class="edge">
<title>Node19&#45;&gt;Node313</title>
<path fill="none" stroke="midnightblue" d="M1904.79,-173.25C1976.03,-165.67 2142.1,-147.87 2281.5,-132 2284.54,-131.65 2287.64,-131.3 2290.78,-130.94"/>
<polygon fill="midnightblue" stroke="midnightblue" points="1904.16,-169.8 1894.59,-174.34 1904.9,-176.76 1904.16,-169.8"/>
</g>
<!-- Node314 -->
<g id="node39" class="node">
<title>Node314</title>
<g id="a_node39"><a xlink:href="_rayleigh_taylor_8_h.html" target="_top" xlink:title=" ">
<polygon fill="white" stroke="red" points="2442.5,-112.5 2442.5,-131.5 2540.5,-131.5 2540.5,-112.5 2442.5,-112.5"/>
<text text-anchor="middle" x="2491.5" y="-119.5" font-family="Helvetica,sans-Serif" font-size="10.00">RayleighTaylor.H</text>
</a>
</g>
</g>
<!-- Node19&#45;&gt;Node314 -->
<g id="edge46" class="edge">
<title>Node19&#45;&gt;Node314</title>
<path fill="none" stroke="midnightblue" d="M1904.58,-175.07C1993.24,-170.01 2233.37,-155.12 2432.5,-132 2435.69,-131.63 2438.97,-131.22 2442.28,-130.78"/>
<polygon fill="midnightblue" stroke="midnightblue" points="1904.32,-171.58 1894.53,-175.64 1904.72,-178.57 1904.32,-171.58"/>
</g>
<!-- Node315 -->
<g id="node40" class="node">
<title>Node315</title>
<g id="a_node40"><a xlink:href="_scalar_advection_8_h.html" target="_top" xlink:title=" ">
<polygon fill="white" stroke="red" points="2558.5,-112.5 2558.5,-131.5 2664.5,-131.5 2664.5,-112.5 2558.5,-112.5"/>
<text text-anchor="middle" x="2611.5" y="-119.5" font-family="Helvetica,sans-Serif" font-size="10.00">ScalarAdvection.H</text>
</a>
</g>
</g>
<!-- Node19&#45;&gt;Node315 -->
<g id="edge47" class="edge">
<title>Node19&#45;&gt;Node315</title>
<path fill="none" stroke="midnightblue" d="M1904.79,-175.64C2005.6,-171.54 2303.44,-157.96 2549.5,-132 2552.42,-131.69 2555.41,-131.35 2558.43,-130.98"/>
<polygon fill="midnightblue" stroke="midnightblue" points="1904.42,-172.15 1894.57,-176.05 1904.7,-179.14 1904.42,-172.15"/>
</g>
<!-- Node169 -->
<g id="node41" class="node">
<title>Node169</title>
<g id="a_node41"><a xlink:href="_synthetic_turbulence_8_h.html" target="_top" xlink:title=" ">
<polygon fill="white" stroke="red" points="2683,-112.5 2683,-131.5 2808,-131.5 2808,-112.5 2683,-112.5"/>
<text text-anchor="middle" x="2745.5" y="-119.5" font-family="Helvetica,sans-Serif" font-size="10.00">SyntheticTurbulence.H</text>
</a>
</g>
</g>
<!-- Node19&#45;&gt;Node169 -->
<g id="edge48" class="edge">
<title>Node19&#45;&gt;Node169</title>
<path fill="none" stroke="midnightblue" d="M1904.63,-175.89C2016.86,-172.17 2376.76,-158.82 2673.5,-132 2676.51,-131.73 2679.59,-131.43 2682.7,-131.11"/>
<polygon fill="midnightblue" stroke="midnightblue" points="1904.43,-172.4 1894.55,-176.22 1904.66,-179.39 1904.43,-172.4"/>
</g>
<!-- Node316 -->
<g id="node42" class="node">
<title>Node316</title>
<g id="a_node42"><a xlink:href="_taylor_green_vortex_8_h.html" target="_top" xlink:title=" ">
<polygon fill="white" stroke="red" points="2826,-112.5 2826,-131.5 2943,-131.5 2943,-112.5 2826,-112.5"/>
<text text-anchor="middle" x="2884.5" y="-119.5" font-family="Helvetica,sans-Serif" font-size="10.00">TaylorGreenVortex.H</text>
</a>
</g>
</g>
<!-- Node19&#45;&gt;Node316 -->
<g id="edge49" class="edge">
<title>Node19&#45;&gt;Node316</title>
<path fill="none" stroke="midnightblue" d="M1904.93,-176.39C2029.9,-174.01 2461.67,-163.85 2816.5,-132 2819.58,-131.72 2822.74,-131.41 2825.93,-131.07"/>
<polygon fill="midnightblue" stroke="midnightblue" points="1904.73,-172.89 1894.8,-176.58 1904.86,-179.89 1904.73,-172.89"/>
</g>
<!-- Node317 -->
<g id="node43" class="node">
<title>Node317</title>
<g id="a_node43"><a xlink:href="_vortex_dipole_8_h.html" target="_top" xlink:title=" ">
<polygon fill="white" stroke="red" points="2961.5,-112.5 2961.5,-131.5 3051.5,-131.5 3051.5,-112.5 2961.5,-112.5"/>
<text text-anchor="middle" x="3006.5" y="-119.5" font-family="Helvetica,sans-Serif" font-size="10.00">VortexDipole.H</text>
</a>
</g>
</g>
<!-- Node19&#45;&gt;Node317 -->
<g id="edge54" class="edge">
<title>Node19&#45;&gt;Node317</title>
<path fill="none" stroke="midnightblue" d="M1904.98,-177.08C2040.95,-177.04 2541.77,-173.89 2951.5,-132 2954.68,-131.68 2957.95,-131.28 2961.24,-130.85"/>
<polygon fill="midnightblue" stroke="midnightblue" points="1904.74,-173.58 1894.74,-177.07 1904.74,-180.58 1904.74,-173.58"/>
</g>
<!-- Node318 -->
<g id="node44" class="node">
<title>Node318</title>
<g id="a_node44"><a xlink:href="_vortex_ring_8_h.html" target="_top" xlink:title=" ">
<polygon fill="white" stroke="red" points="3069.5,-112.5 3069.5,-131.5 3149.5,-131.5 3149.5,-112.5 3069.5,-112.5"/>
<text text-anchor="middle" x="3109.5" y="-119.5" font-family="Helvetica,sans-Serif" font-size="10.00">VortexRing.H</text>
</a>
</g>
</g>
<!-- Node19&#45;&gt;Node318 -->
<g id="edge55" class="edge">
<title>Node19&#45;&gt;Node318</title>
<path fill="none" stroke="midnightblue" d="M1904.56,-176.36C2076.07,-173.11 2827.82,-157.63 3060.5,-132 3063.42,-131.68 3066.43,-131.28 3069.46,-130.84"/>
<polygon fill="midnightblue" stroke="midnightblue" points="1904.49,-172.86 1894.56,-176.54 1904.62,-179.86 1904.49,-172.86"/>
</g>
<!-- Node181 -->
<g id="node45" class="node">
<title>Node181</title>
<g id="a_node45"><a xlink:href="_field_plane_averaging_8_h.html" target="_top" xlink:title=" ">
<polygon fill="white" stroke="red" points="3777.5,-112.5 3777.5,-131.5 3903.5,-131.5 3903.5,-112.5 3777.5,-112.5"/>
<text text-anchor="middle" x="3840.5" y="-119.5" font-family="Helvetica,sans-Serif" font-size="10.00">FieldPlaneAveraging.H</text>
</a>
</g>
</g>
<!-- Node19&#45;&gt;Node181 -->
<g id="edge58" class="edge">
<title>Node19&#45;&gt;Node181</title>
<path fill="none" stroke="midnightblue" d="M1904.71,-176.64C2131.18,-174.27 3385.26,-160.02 3767.5,-132 3770.68,-131.77 3773.94,-131.49 3777.23,-131.19"/>
<polygon fill="midnightblue" stroke="midnightblue" points="1904.68,-173.14 1894.71,-176.75 1904.75,-180.14 1904.68,-173.14"/>
</g>
<!-- Node185 -->
<g id="node46" class="node">
<title>Node185</title>
<g id="a_node46"><a xlink:href="_second_moment_averaging_8_h.html" target="_top" xlink:title=" ">
<polygon fill="white" stroke="red" points="3566.5,-56.5 3566.5,-75.5 3718.5,-75.5 3718.5,-56.5 3566.5,-56.5"/>
<text text-anchor="middle" x="3642.5" y="-63.5" font-family="Helvetica,sans-Serif" font-size="10.00">SecondMomentAveraging.H</text>
</a>
</g>
</g>
<!-- Node19&#45;&gt;Node185 -->
<g id="edge62" class="edge">
<title>Node19&#45;&gt;Node185</title>
<path fill="none" stroke="midnightblue" d="M1904.83,-176.65C2149.6,-174.15 3584.68,-158.4 3620.5,-132 3638.53,-118.71 3641.94,-89.89 3642.48,-75.51"/>
<polygon fill="midnightblue" stroke="midnightblue" points="1904.67,-173.15 1894.71,-176.75 1904.74,-180.15 1904.67,-173.15"/>
</g>
<!-- Node189 -->
<g id="node47" class="node">
<title>Node189</title>
<g id="a_node47"><a xlink:href="_field_plane_averaging_fine_8_h.html" target="_top" xlink:title=" ">
<polygon fill="white" stroke="red" points="3299.5,-112.5 3299.5,-131.5 3445.5,-131.5 3445.5,-112.5 3299.5,-112.5"/>
<text text-anchor="middle" x="3372.5" y="-119.5" font-family="Helvetica,sans-Serif" font-size="10.00">FieldPlaneAveragingFine.H</text>
</a>
</g>
</g>
<!-- Node19&#45;&gt;Node189 -->
<g id="edge60" class="edge">
<title>Node19&#45;&gt;Node189</title>
<path fill="none" stroke="midnightblue" d="M1904.88,-176.8C2064.81,-175.72 2736.16,-169.1 3285.5,-132 3290.05,-131.69 3294.72,-131.33 3299.43,-130.94"/>
<polygon fill="midnightblue" stroke="midnightblue" points="1904.65,-173.31 1894.68,-176.87 1904.7,-180.31 1904.65,-173.31"/>
</g>
<!-- Node319 -->
<g id="node48" class="node">
<title>Node319</title>
<g id="a_node48"><a xlink:href="_sampling_container_8cpp.html" target="_top" xlink:title=" ">
<polygon fill="white" stroke="black" points="3464,-112.5 3464,-131.5 3593,-131.5 3593,-112.5 3464,-112.5"/>
<text text-anchor="middle" x="3528.5" y="-119.5" font-family="Helvetica,sans-Serif" font-size="10.00">SamplingContainer.cpp</text>
</a>
</g>
</g>
<!-- Node19&#45;&gt;Node319 -->
<g id="edge61" class="edge">
<title>Node19&#45;&gt;Node319</title>
<path fill="none" stroke="midnightblue" d="M1904.91,-177.21C2076.09,-177.96 2835.02,-178.36 3454.5,-132 3457.6,-131.77 3460.76,-131.5 3463.96,-131.21"/>
<polygon fill="midnightblue" stroke="midnightblue" points="1904.73,-173.71 1894.71,-177.16 1904.69,-180.71 1904.73,-173.71"/>
</g>
<!-- Node51&#45;&gt;Node4 -->
<g id="edge11" class="edge">
<title>Node51&#45;&gt;Node4</title>
<path fill="none" stroke="midnightblue" d="M294.79,-108.04C309,-100.57 325.06,-89.87 335.5,-76 348.37,-58.9 352.54,-33.26 353.88,-19.87"/>
<polygon fill="midnightblue" stroke="midnightblue" points="293.2,-104.92 285.79,-112.49 296.31,-111.19 293.2,-104.92"/>
</g>
<!-- Node51&#45;&gt;Node59 -->
<g id="edge12" class="edge">
<title>Node51&#45;&gt;Node59</title>
<path fill="none" stroke="midnightblue" d="M266.95,-102.1C268.11,-93.14 269.44,-82.86 270.37,-75.75"/>
<polygon fill="midnightblue" stroke="midnightblue" points="263.47,-101.72 265.66,-112.08 270.41,-102.62 263.47,-101.72"/>
</g>
<!-- Node59&#45;&gt;Node4 -->
<g id="edge13" class="edge">
<title>Node59&#45;&gt;Node4</title>
<path fill="none" stroke="midnightblue" d="M293.6,-50.62C308.76,-40.76 328.38,-27.99 341.2,-19.65"/>
<polygon fill="midnightblue" stroke="midnightblue" points="291.31,-47.94 284.84,-56.32 295.13,-53.8 291.31,-47.94"/>
</g>
<!-- Node103&#45;&gt;Node3 -->
<g id="edge16" class="edge">
<title>Node103&#45;&gt;Node3</title>
<path fill="none" stroke="midnightblue" d="M3157.78,-112.23C2842.55,-83.68 864.25,-69.5 532.63,-67.3"/>
<polygon fill="midnightblue" stroke="midnightblue" points="3157.58,-115.72 3167.87,-113.2 3158.26,-108.76 3157.58,-115.72"/>
</g>
<!-- Node103&#45;&gt;Node4 -->
<g id="edge17" class="edge">
<title>Node103&#45;&gt;Node4</title>
<path fill="none" stroke="midnightblue" d="M3186.99,-106.07C3166,-90.18 3130.06,-65.96 3094.5,-56 2957.2,-17.55 673.88,-11.65 384.56,-11.06"/>
<polygon fill="midnightblue" stroke="midnightblue" points="3184.98,-108.94 3195.02,-112.31 3189.27,-103.42 3184.98,-108.94"/>
</g>
<!-- Node103&#45;&gt;Node251 -->
<g id="edge18" class="edge">
<title>Node103&#45;&gt;Node251</title>
<path fill="none" stroke="midnightblue" d="M3157.7,-112.22C2965.88,-94.57 1900.38,-72.41 1673.84,-67.84"/>
<polygon fill="midnightblue" stroke="midnightblue" points="3157.57,-115.73 3167.87,-113.25 3158.27,-108.76 3157.57,-115.73"/>
</g>
<!-- Node103&#45;&gt;Node79 -->
<g id="edge19" class="edge">
<title>Node103&#45;&gt;Node79</title>
<path fill="none" stroke="midnightblue" d="M3253.1,-115.56C3265.28,-114.27 3278.37,-112.99 3290.5,-112 3566.04,-89.44 3635.58,-93.26 3911.5,-76 3943.03,-74.03 3978.73,-71.62 4005.34,-69.79"/>
<polygon fill="midnightblue" stroke="midnightblue" points="3252.69,-112.08 3243.12,-116.63 3253.44,-119.04 3252.69,-112.08"/>
</g>
<!-- Node103&#45;&gt;Node131 -->
<g id="edge20" class="edge">
<title>Node103&#45;&gt;Node131</title>
<path fill="none" stroke="midnightblue" d="M3253.12,-115.76C3265.3,-114.47 3278.38,-113.14 3290.5,-112 3484.52,-93.74 3535.22,-107.74 3727.5,-76 3730.55,-75.5 3733.72,-74.87 3736.86,-74.17"/>
<polygon fill="midnightblue" stroke="midnightblue" points="3252.71,-112.28 3243.14,-116.82 3253.45,-119.24 3252.71,-112.28"/>
</g>
<!-- Node103&#45;&gt;Node71 -->
<g id="edge21" class="edge">
<title>Node103&#45;&gt;Node71</title>
<path fill="none" stroke="midnightblue" d="M3157.91,-112.15C2971.56,-91.16 2461.09,-73.55 2304.04,-68.47"/>
<polygon fill="midnightblue" stroke="midnightblue" points="3157.52,-115.63 3167.86,-113.31 3158.34,-108.68 3157.52,-115.63"/>
</g>
<!-- Node103&#45;&gt;Node293 -->
<g id="edge22" class="edge">
<title>Node103&#45;&gt;Node293</title>
<path fill="none" stroke="midnightblue" d="M3157.84,-112.06C2976.09,-87.38 2772.5,-74.5 2680.73,-69.49"/>
<polygon fill="midnightblue" stroke="midnightblue" points="3157.46,-115.54 3167.85,-113.43 3158.42,-108.6 3157.46,-115.54"/>
</g>
<!-- Node103&#45;&gt;Node72 -->
<g id="edge23" class="edge">
<title>Node103&#45;&gt;Node72</title>
<path fill="none" stroke="midnightblue" d="M3157.89,-111.93C3076.5,-97.45 2993.89,-83.96 2941.3,-75.53"/>
<polygon fill="midnightblue" stroke="midnightblue" points="3157.35,-115.39 3167.81,-113.7 3158.58,-108.49 3157.35,-115.39"/>
</g>
<!-- Node103&#45;&gt;Node294 -->
<g id="edge24" class="edge">
<title>Node103&#45;&gt;Node294</title>
<path fill="none" stroke="midnightblue" d="M3172.35,-108.91C3144.53,-98.75 3105.48,-84.51 3080.84,-75.52"/>
<polygon fill="midnightblue" stroke="midnightblue" points="3171.46,-112.3 3182.05,-112.44 3173.85,-105.73 3171.46,-112.3"/>
</g>
<!-- Node103&#45;&gt;Node43 -->
<g id="edge25" class="edge">
<title>Node103&#45;&gt;Node43</title>
<path fill="none" stroke="midnightblue" d="M3253.11,-115.66C3265.29,-114.38 3278.37,-113.07 3290.5,-112 3515.97,-92.08 3573.62,-101.67 3798.5,-76 3801.59,-75.65 3804.76,-75.25 3807.96,-74.82"/>
<polygon fill="midnightblue" stroke="midnightblue" points="3252.7,-112.19 3243.13,-116.73 3253.45,-119.15 3252.7,-112.19"/>
</g>
<!-- Node103&#45;&gt;Node174 -->
<g id="edge26" class="edge">
<title>Node103&#45;&gt;Node174</title>
<path fill="none" stroke="midnightblue" d="M3216.33,-103.27C3221.97,-94.05 3228.62,-83.17 3233.15,-75.75"/>
<polygon fill="midnightblue" stroke="midnightblue" points="3213.18,-101.73 3210.95,-112.08 3219.15,-105.38 3213.18,-101.73"/>
</g>
<!-- Node103&#45;&gt;Node175 -->
<g id="edge27" class="edge">
<title>Node103&#45;&gt;Node175</title>
<path fill="none" stroke="midnightblue" d="M3247.91,-109.83C3286.61,-99.63 3342.99,-84.78 3378.17,-75.52"/>
<polygon fill="midnightblue" stroke="midnightblue" points="3246.76,-106.51 3237.98,-112.44 3248.54,-113.28 3246.76,-106.51"/>
</g>
<!-- Node181&#45;&gt;Node185 -->
<g id="edge59" class="edge">
<title>Node181&#45;&gt;Node185</title>
<path fill="none" stroke="midnightblue" d="M3799.06,-109.7C3761.69,-99.51 3707.56,-84.74 3673.73,-75.52"/>
<polygon fill="midnightblue" stroke="midnightblue" points="3798.56,-113.19 3809.13,-112.44 3800.4,-106.44 3798.56,-113.19"/>
</g>
<!-- Node325&#45;&gt;Node79 -->
<g id="edge66" class="edge">
<title>Node325&#45;&gt;Node79</title>
<path fill="none" stroke="midnightblue" d="M4099.4,-159.64C4085.5,-135.74 4060.99,-93.63 4050.5,-75.59"/>
<polygon fill="midnightblue" stroke="midnightblue" points="4096.42,-161.49 4104.48,-168.37 4102.47,-157.96 4096.42,-161.49"/>
</g>
</g>
</svg>
