<?xml version="1.0" encoding="UTF-8" standalone="no"?>
<!DOCTYPE svg PUBLIC "-//W3C//DTD SVG 1.1//EN"
 "http://www.w3.org/Graphics/SVG/1.1/DTD/svg11.dtd">
<!-- Generated by graphviz version 2.43.0 (0)
 -->
<!-- Title: Graphical Class Hierarchy Pages: 1 -->
<svg width="597pt" height="137pt"
 viewBox="0.00 0.00 597.00 137.00" xmlns="http://www.w3.org/2000/svg" xmlns:xlink="http://www.w3.org/1999/xlink">
<g id="graph0" class="graph" transform="scale(1 1) rotate(0) translate(4 133)">
<title>Graphical Class Hierarchy</title>
<polygon fill="white" stroke="transparent" points="-4,4 -4,-133 593,-133 593,4 -4,4"/>
<!-- Node406 -->
<g id="node1" class="node">
<title>Node406</title>
<g id="a_node1"><a xlink:title=" ">
<polygon fill="white" stroke="#bfbfbf" points="0,-55 0,-74 128,-74 128,-55 0,-55"/>
<text text-anchor="middle" x="64" y="-62" font-family="Helvetica,sans-Serif" font-size="10.00">SamplerBase::Register</text>
</a>
</g>
</g>
<!-- Node0 -->
<g id="node2" class="node">
<title>Node0</title>
<g id="a_node2"><a xlink:href="classamr__wind_1_1sampling_1_1_line_sampler.html" target="_top" xlink:title="Sample data along a line.">
<polygon fill="white" stroke="black" points="164,-98.5 164,-128.5 280,-128.5 280,-98.5 164,-98.5"/>
<text text-anchor="start" x="172" y="-116.5" font-family="Helvetica,sans-Serif" font-size="10.00">amr_wind::sampling</text>
<text text-anchor="middle" x="222" y="-105.5" font-family="Helvetica,sans-Serif" font-size="10.00">::LineSampler</text>
</a>
</g>
</g>
<!-- Node406&#45;&gt;Node0 -->
<g id="edge1" class="edge">
<title>Node406&#45;&gt;Node0</title>
<path fill="none" stroke="midnightblue" d="M105.21,-77.13C125.95,-83.64 151.38,-91.63 173.13,-98.46"/>
<polygon fill="midnightblue" stroke="midnightblue" points="106.04,-73.72 95.45,-74.06 103.94,-80.4 106.04,-73.72"/>
</g>
<!-- Node410 -->
<g id="node5" class="node">
<title>Node410</title>
<g id="a_node5"><a xlink:href="classamr__wind_1_1sampling_1_1_plane_sampler.html" target="_top" xlink:title="Sample data on uniform grids.">
<polygon fill="white" stroke="black" points="164,-49.5 164,-79.5 280,-79.5 280,-49.5 164,-49.5"/>
<text text-anchor="start" x="172" y="-67.5" font-family="Helvetica,sans-Serif" font-size="10.00">amr_wind::sampling</text>
<text text-anchor="middle" x="222" y="-56.5" font-family="Helvetica,sans-Serif" font-size="10.00">::PlaneSampler</text>
</a>
</g>
</g>
<!-- Node406&#45;&gt;Node410 -->
<g id="edge4" class="edge">
<title>Node406&#45;&gt;Node410</title>
<path fill="none" stroke="midnightblue" d="M138.08,-64.5C146.72,-64.5 155.43,-64.5 163.81,-64.5"/>
<polygon fill="midnightblue" stroke="midnightblue" points="138,-61 128,-64.5 138,-68 138,-61"/>
</g>
<!-- Node411 -->
<g id="node6" class="node">
<title>Node411</title>
<g id="a_node6"><a xlink:href="classamr__wind_1_1sampling_1_1_probe_sampler.html" target="_top" xlink:title="Sample data on a cloud of points.">
<polygon fill="white" stroke="black" points="164,-0.5 164,-30.5 280,-30.5 280,-0.5 164,-0.5"/>
<text text-anchor="start" x="172" y="-18.5" font-family="Helvetica,sans-Serif" font-size="10.00">amr_wind::sampling</text>
<text text-anchor="middle" x="222" y="-7.5" font-family="Helvetica,sans-Serif" font-size="10.00">::ProbeSampler</text>
</a>
</g>
</g>
<!-- Node406&#45;&gt;Node411 -->
<g id="edge5" class="edge">
<title>Node406&#45;&gt;Node411</title>
<path fill="none" stroke="midnightblue" d="M105.21,-51.87C125.95,-45.36 151.38,-37.37 173.13,-30.54"/>
<polygon fill="midnightblue" stroke="midnightblue" points="103.94,-48.6 95.45,-54.94 106.04,-55.28 103.94,-48.6"/>
</g>
<!-- Node1 -->
<g id="node3" class="node">
<title>Node1</title>
<g id="a_node3"><a xlink:href="classamr__wind_1_1sampling_1_1_lidar_sampler.html" target="_top" xlink:title="Sample data along a line that moves in time.">
<polygon fill="white" stroke="black" points="316,-98.5 316,-128.5 432,-128.5 432,-98.5 316,-98.5"/>
<text text-anchor="start" x="324" y="-116.5" font-family="Helvetica,sans-Serif" font-size="10.00">amr_wind::sampling</text>
<text text-anchor="middle" x="374" y="-105.5" font-family="Helvetica,sans-Serif" font-size="10.00">::LidarSampler</text>
</a>
</g>
</g>
<!-- Node0&#45;&gt;Node1 -->
<g id="edge2" class="edge">
<title>Node0&#45;&gt;Node1</title>
<path fill="none" stroke="midnightblue" d="M290.31,-113.5C298.73,-113.5 307.28,-113.5 315.53,-113.5"/>
<polygon fill="midnightblue" stroke="midnightblue" points="290.14,-110 280.14,-113.5 290.14,-117 290.14,-110"/>
</g>
<!-- Node2 -->
<g id="node4" class="node">
<title>Node2</title>
<g id="a_node4"><a xlink:href="classamr__wind_1_1sampling_1_1_d_t_u_spinner_sampler.html" target="_top" xlink:title="Sample data along a line that moves in time.">
<polygon fill="white" stroke="black" points="468,-98.5 468,-128.5 589,-128.5 589,-98.5 468,-98.5"/>
<text text-anchor="start" x="476" y="-116.5" font-family="Helvetica,sans-Serif" font-size="10.00">amr_wind::sampling</text>
<text text-anchor="middle" x="528.5" y="-105.5" font-family="Helvetica,sans-Serif" font-size="10.00">::DTUSpinnerSampler</text>
</a>
</g>
</g>
<!-- Node1&#45;&gt;Node2 -->
<g id="edge3" class="edge">
<title>Node1&#45;&gt;Node2</title>
<path fill="none" stroke="midnightblue" d="M442.46,-113.5C450.95,-113.5 459.57,-113.5 467.92,-113.5"/>
<polygon fill="midnightblue" stroke="midnightblue" points="442.22,-110 432.22,-113.5 442.22,-117 442.22,-110"/>
</g>
</g>
</svg>
