<?xml version="1.0" encoding="UTF-8" standalone="no"?>
<!DOCTYPE svg PUBLIC "-//W3C//DTD SVG 1.1//EN"
 "http://www.w3.org/Graphics/SVG/1.1/DTD/svg11.dtd">
<!-- Generated by graphviz version 2.43.0 (0)
 -->
<!-- Title: Graphical Class Hierarchy Pages: 1 -->
<svg width="1120pt" height="235pt"
 viewBox="0.00 0.00 1120.00 235.00" xmlns="http://www.w3.org/2000/svg" xmlns:xlink="http://www.w3.org/1999/xlink">
<g id="graph0" class="graph" transform="scale(1 1) rotate(0) translate(4 231)">
<title>Graphical Class Hierarchy</title>
<polygon fill="white" stroke="transparent" points="-4,4 -4,-231 1116,-231 1116,4 -4,4"/>
<!-- Node0 -->
<g id="node1" class="node">
<title>Node0</title>
<g id="a_node1"><a xlink:href="structamr__wind_1_1_factory.html" target="_top" xlink:title=" ">
<polygon fill="white" stroke="black" points="0,-122.5 0,-152.5 169,-152.5 169,-122.5 0,-122.5"/>
<text text-anchor="start" x="8" y="-140.5" font-family="Helvetica,sans-Serif" font-size="10.00">amr_wind::Factory&lt;</text>
<text text-anchor="middle" x="84.5" y="-129.5" font-family="Helvetica,sans-Serif" font-size="10.00"> TurbulenceModel, CFDSim &amp; &gt;</text>
</a>
</g>
</g>
<!-- Node1 -->
<g id="node2" class="node">
<title>Node1</title>
<g id="a_node2"><a xlink:href="classamr__wind_1_1turbulence_1_1_turbulence_model.html" target="_top" xlink:title="Abstract representation of a turbulence model.">
<polygon fill="white" stroke="black" points="205,-122.5 205,-152.5 327,-152.5 327,-122.5 205,-122.5"/>
<text text-anchor="start" x="213" y="-140.5" font-family="Helvetica,sans-Serif" font-size="10.00">amr_wind::turbulence</text>
<text text-anchor="middle" x="266" y="-129.5" font-family="Helvetica,sans-Serif" font-size="10.00">::TurbulenceModel</text>
</a>
</g>
</g>
<!-- Node0&#45;&gt;Node1 -->
<g id="edge1" class="edge">
<title>Node0&#45;&gt;Node1</title>
<path fill="none" stroke="midnightblue" d="M179.4,-137.5C188.08,-137.5 196.71,-137.5 204.96,-137.5"/>
<polygon fill="midnightblue" stroke="midnightblue" points="179.21,-134 169.21,-137.5 179.21,-141 179.21,-134"/>
</g>
<!-- Node2 -->
<g id="node3" class="node">
<title>Node2</title>
<g id="a_node3"><a xlink:href="classamr__wind_1_1turbulence_1_1_turb_model.html" target="_top" xlink:title="Turbulence model with a specific transport model.">
<polygon fill="white" stroke="black" points="363,-122.5 363,-152.5 503,-152.5 503,-122.5 363,-122.5"/>
<text text-anchor="start" x="371" y="-140.5" font-family="Helvetica,sans-Serif" font-size="10.00">amr_wind::turbulence</text>
<text text-anchor="middle" x="433" y="-129.5" font-family="Helvetica,sans-Serif" font-size="10.00">::TurbModel&lt; Transport &gt;</text>
</a>
</g>
</g>
<!-- Node1&#45;&gt;Node2 -->
<g id="edge2" class="edge">
<title>Node1&#45;&gt;Node2</title>
<path fill="none" stroke="midnightblue" d="M337.24,-137.5C345.7,-137.5 354.33,-137.5 362.77,-137.5"/>
<polygon fill="midnightblue" stroke="midnightblue" points="337.04,-134 327.04,-137.5 337.04,-141 337.04,-134"/>
</g>
<!-- Node3 -->
<g id="node4" class="node">
<title>Node3</title>
<g id="a_node4"><a xlink:href="classamr__wind_1_1turbulence_1_1_laminar.html" target="_top" xlink:title="Laminar model.">
<polygon fill="white" stroke="black" points="556,-147.5 556,-177.5 686,-177.5 686,-147.5 556,-147.5"/>
<text text-anchor="start" x="564" y="-165.5" font-family="Helvetica,sans-Serif" font-size="10.00">amr_wind::turbulence</text>
<text text-anchor="middle" x="621" y="-154.5" font-family="Helvetica,sans-Serif" font-size="10.00">::Laminar&lt; Transport &gt;</text>
</a>
</g>
</g>
<!-- Node2&#45;&gt;Node3 -->
<g id="edge3" class="edge">
<title>Node2&#45;&gt;Node3</title>
<path fill="none" stroke="midnightblue" d="M513.48,-148.18C527.65,-150.09 542.24,-152.05 555.91,-153.89"/>
<polygon fill="midnightblue" stroke="midnightblue" points="513.64,-144.67 503.26,-146.81 512.7,-151.61 513.64,-144.67"/>
</g>
<!-- Node4 -->
<g id="node5" class="node">
<title>Node4</title>
<g id="a_node5"><a xlink:href="classamr__wind_1_1turbulence_1_1_turb_model_base.html" target="_top" xlink:title="Turbulence model aspects common to both LES and RANS models.">
<polygon fill="white" stroke="black" points="539,-98.5 539,-128.5 703,-128.5 703,-98.5 539,-98.5"/>
<text text-anchor="start" x="547" y="-116.5" font-family="Helvetica,sans-Serif" font-size="10.00">amr_wind::turbulence</text>
<text text-anchor="middle" x="621" y="-105.5" font-family="Helvetica,sans-Serif" font-size="10.00">::TurbModelBase&lt; Transport &gt;</text>
</a>
</g>
</g>
<!-- Node2&#45;&gt;Node4 -->
<g id="edge4" class="edge">
<title>Node2&#45;&gt;Node4</title>
<path fill="none" stroke="midnightblue" d="M513.4,-127.25C521.8,-126.17 530.34,-125.07 538.76,-123.98"/>
<polygon fill="midnightblue" stroke="midnightblue" points="512.73,-123.81 503.26,-128.56 513.63,-130.75 512.73,-123.81"/>
</g>
<!-- Node5 -->
<g id="node6" class="node">
<title>Node5</title>
<g id="a_node6"><a xlink:href="classamr__wind_1_1turbulence_1_1_a_m_d.html" target="_top" xlink:title="AMD LES Model.">
<polygon fill="white" stroke="black" points="757,-196.5 757,-226.5 879,-226.5 879,-196.5 757,-196.5"/>
<text text-anchor="start" x="765" y="-214.5" font-family="Helvetica,sans-Serif" font-size="10.00">amr_wind::turbulence</text>
<text text-anchor="middle" x="818" y="-203.5" font-family="Helvetica,sans-Serif" font-size="10.00">::AMD&lt; Transport &gt;</text>
</a>
</g>
</g>
<!-- Node4&#45;&gt;Node5 -->
<g id="edge5" class="edge">
<title>Node4&#45;&gt;Node5</title>
<path fill="none" stroke="midnightblue" d="M694.5,-133.16C697.45,-134.81 700.3,-136.58 703,-138.5 725.02,-154.16 716.97,-171.85 739,-187.5 744.43,-191.36 750.49,-194.61 756.78,-197.34"/>
<polygon fill="midnightblue" stroke="midnightblue" points="695.89,-129.95 685.37,-128.63 692.77,-136.21 695.89,-129.95"/>
</g>
<!-- Node6 -->
<g id="node7" class="node">
<title>Node6</title>
<g id="a_node7"><a xlink:href="classamr__wind_1_1turbulence_1_1_a_m_d_no_therm.html" target="_top" xlink:title="AMD LES Model.">
<polygon fill="white" stroke="black" points="739,-147.5 739,-177.5 897,-177.5 897,-147.5 739,-147.5"/>
<text text-anchor="start" x="747" y="-165.5" font-family="Helvetica,sans-Serif" font-size="10.00">amr_wind::turbulence</text>
<text text-anchor="middle" x="818" y="-154.5" font-family="Helvetica,sans-Serif" font-size="10.00">::AMDNoTherm&lt; Transport &gt;</text>
</a>
</g>
</g>
<!-- Node4&#45;&gt;Node6 -->
<g id="edge6" class="edge">
<title>Node4&#45;&gt;Node6</title>
<path fill="none" stroke="midnightblue" d="M691.55,-130.98C713.04,-136.38 736.51,-142.28 757.28,-147.49"/>
<polygon fill="midnightblue" stroke="midnightblue" points="692.38,-127.58 681.83,-128.53 690.68,-134.37 692.38,-127.58"/>
</g>
<!-- Node7 -->
<g id="node8" class="node">
<title>Node7</title>
<g id="a_node8"><a xlink:href="classamr__wind_1_1turbulence_1_1_k_omega_s_s_t.html" target="_top" xlink:title="K&#45;Omega&#45;SST RANS turbulence model.">
<polygon fill="white" stroke="black" points="743.5,-98.5 743.5,-128.5 892.5,-128.5 892.5,-98.5 743.5,-98.5"/>
<text text-anchor="start" x="751.5" y="-116.5" font-family="Helvetica,sans-Serif" font-size="10.00">amr_wind::turbulence</text>
<text text-anchor="middle" x="818" y="-105.5" font-family="Helvetica,sans-Serif" font-size="10.00">::KOmegaSST&lt; Transport &gt;</text>
</a>
</g>
</g>
<!-- Node4&#45;&gt;Node7 -->
<g id="edge7" class="edge">
<title>Node4&#45;&gt;Node7</title>
<path fill="none" stroke="midnightblue" d="M713.11,-113.5C723.27,-113.5 733.52,-113.5 743.42,-113.5"/>
<polygon fill="midnightblue" stroke="midnightblue" points="713,-110 703,-113.5 713,-117 713,-110"/>
</g>
<!-- Node9 -->
<g id="node10" class="node">
<title>Node9</title>
<g id="a_node10"><a xlink:href="classamr__wind_1_1turbulence_1_1_one_eq_ksgs.html" target="_top" xlink:title="Base class for 1&#45;Equation subgrid scale TKE turbulence model.">
<polygon fill="white" stroke="black" points="745.5,-49.5 745.5,-79.5 890.5,-79.5 890.5,-49.5 745.5,-49.5"/>
<text text-anchor="start" x="753.5" y="-67.5" font-family="Helvetica,sans-Serif" font-size="10.00">amr_wind::turbulence</text>
<text text-anchor="middle" x="818" y="-56.5" font-family="Helvetica,sans-Serif" font-size="10.00">::OneEqKsgs&lt; Transport &gt;</text>
</a>
</g>
</g>
<!-- Node4&#45;&gt;Node9 -->
<g id="edge9" class="edge">
<title>Node4&#45;&gt;Node9</title>
<path fill="none" stroke="midnightblue" d="M691.55,-96.02C713.04,-90.62 736.51,-84.72 757.28,-79.51"/>
<polygon fill="midnightblue" stroke="midnightblue" points="690.68,-92.63 681.83,-98.47 692.38,-99.42 690.68,-92.63"/>
</g>
<!-- Node12 -->
<g id="node13" class="node">
<title>Node12</title>
<g id="a_node13"><a xlink:href="classamr__wind_1_1turbulence_1_1_smagorinsky.html" target="_top" xlink:title="Smagorinsky LES Model.">
<polygon fill="white" stroke="black" points="741.5,-0.5 741.5,-30.5 894.5,-30.5 894.5,-0.5 741.5,-0.5"/>
<text text-anchor="start" x="749.5" y="-18.5" font-family="Helvetica,sans-Serif" font-size="10.00">amr_wind::turbulence</text>
<text text-anchor="middle" x="818" y="-7.5" font-family="Helvetica,sans-Serif" font-size="10.00">::Smagorinsky&lt; Transport &gt;</text>
</a>
</g>
</g>
<!-- Node4&#45;&gt;Node12 -->
<g id="edge12" class="edge">
<title>Node4&#45;&gt;Node12</title>
<path fill="none" stroke="midnightblue" d="M650.95,-92.6C673.96,-76.7 707.41,-55.14 739,-40.5 746.87,-36.85 755.42,-33.52 763.87,-30.57"/>
<polygon fill="midnightblue" stroke="midnightblue" points="648.86,-89.79 642.67,-98.39 652.87,-95.53 648.86,-89.79"/>
</g>
<!-- Node8 -->
<g id="node9" class="node">
<title>Node8</title>
<g id="a_node9"><a xlink:href="classamr__wind_1_1turbulence_1_1_k_omega_s_s_t_i_d_d_e_s.html" target="_top" xlink:title="K&#45;Omega&#45;SST&#45;IDDES Hybrid RANS/LES turbulence model.">
<polygon fill="white" stroke="black" points="933,-98.5 933,-128.5 1112,-128.5 1112,-98.5 933,-98.5"/>
<text text-anchor="start" x="941" y="-116.5" font-family="Helvetica,sans-Serif" font-size="10.00">amr_wind::turbulence</text>
<text text-anchor="middle" x="1022.5" y="-105.5" font-family="Helvetica,sans-Serif" font-size="10.00">::KOmegaSSTIDDES&lt; Transport &gt;</text>
</a>
</g>
</g>
<!-- Node7&#45;&gt;Node8 -->
<g id="edge8" class="edge">
<title>Node7&#45;&gt;Node8</title>
<path fill="none" stroke="midnightblue" d="M902.85,-113.5C912.71,-113.5 922.79,-113.5 932.71,-113.5"/>
<polygon fill="midnightblue" stroke="midnightblue" points="902.68,-110 892.68,-113.5 902.68,-117 902.68,-110"/>
</g>
<!-- Node10 -->
<g id="node11" class="node">
<title>Node10</title>
<g id="a_node11"><a xlink:href="classamr__wind_1_1turbulence_1_1_one_eq_ksgs_m84.html" target="_top" xlink:title="1&#45;equation subgrid scale TKE turbulence model">
<polygon fill="white" stroke="black" points="939.5,-49.5 939.5,-79.5 1105.5,-79.5 1105.5,-49.5 939.5,-49.5"/>
<text text-anchor="start" x="947.5" y="-67.5" font-family="Helvetica,sans-Serif" font-size="10.00">amr_wind::turbulence</text>
<text text-anchor="middle" x="1022.5" y="-56.5" font-family="Helvetica,sans-Serif" font-size="10.00">::OneEqKsgsM84&lt; Transport &gt;</text>
</a>
</g>
</g>
<!-- Node9&#45;&gt;Node10 -->
<g id="edge10" class="edge">
<title>Node9&#45;&gt;Node10</title>
<path fill="none" stroke="midnightblue" d="M900.74,-64.5C913.41,-64.5 926.51,-64.5 939.2,-64.5"/>
<polygon fill="midnightblue" stroke="midnightblue" points="900.68,-61 890.68,-64.5 900.68,-68 900.68,-61"/>
</g>
<!-- Node11 -->
<g id="node12" class="node">
<title>Node11</title>
<g id="a_node12"><a xlink:href="classamr__wind_1_1turbulence_1_1_one_eq_ksgs_s94.html" target="_top" xlink:title="1&#45;equation subgrid scale TKE turbulence model">
<polygon fill="white" stroke="black" points="941,-0.5 941,-30.5 1104,-30.5 1104,-0.5 941,-0.5"/>
<text text-anchor="start" x="949" y="-18.5" font-family="Helvetica,sans-Serif" font-size="10.00">amr_wind::turbulence</text>
<text text-anchor="middle" x="1022.5" y="-7.5" font-family="Helvetica,sans-Serif" font-size="10.00">::OneEqKsgsS94&lt; Transport &gt;</text>
</a>
</g>
</g>
<!-- Node9&#45;&gt;Node11 -->
<g id="edge11" class="edge">
<title>Node9&#45;&gt;Node11</title>
<path fill="none" stroke="midnightblue" d="M890.92,-47.1C913.33,-41.68 937.82,-35.75 959.48,-30.51"/>
<polygon fill="midnightblue" stroke="midnightblue" points="890.03,-43.71 881.13,-49.47 891.68,-50.52 890.03,-43.71"/>
</g>
</g>
</svg>
