<?xml version="1.0" encoding="UTF-8" standalone="no"?>
<!DOCTYPE svg PUBLIC "-//W3C//DTD SVG 1.1//EN"
 "http://www.w3.org/Graphics/SVG/1.1/DTD/svg11.dtd">
<!-- Generated by graphviz version 2.43.0 (0)
 -->
<!-- Title: Graphical Class Hierarchy Pages: 1 -->
<svg width="322pt" height="676pt"
 viewBox="0.00 0.00 322.00 676.00" xmlns="http://www.w3.org/2000/svg" xmlns:xlink="http://www.w3.org/1999/xlink">
<g id="graph0" class="graph" transform="scale(1 1) rotate(0) translate(4 672)">
<title>Graphical Class Hierarchy</title>
<polygon fill="white" stroke="transparent" points="-4,4 -4,-672 318,-672 318,4 -4,4"/>
<!-- Node341 -->
<g id="node1" class="node">
<title>Node341</title>
<g id="a_node1"><a xlink:title=" ">
<polygon fill="white" stroke="#bfbfbf" points="0,-324 0,-343 152,-343 152,-324 0,-324"/>
<text text-anchor="middle" x="76" y="-331" font-family="Helvetica,sans-Serif" font-size="10.00">MomentumSource::Register</text>
</a>
</g>
</g>
<!-- Node0 -->
<g id="node2" class="node">
<title>Node0</title>
<g id="a_node2"><a xlink:href="classamr__wind_1_1pde_1_1icns_1_1_a_b_l_forcing.html" target="_top" xlink:title="Forcing term to drive the ABL profile to a desired state.">
<polygon fill="white" stroke="black" points="194,-637.5 194,-667.5 308,-667.5 308,-637.5 194,-637.5"/>
<text text-anchor="start" x="202" y="-655.5" font-family="Helvetica,sans-Serif" font-size="10.00">amr_wind::pde::icns</text>
<text text-anchor="middle" x="251" y="-644.5" font-family="Helvetica,sans-Serif" font-size="10.00">::ABLForcing</text>
</a>
</g>
</g>
<!-- Node341&#45;&gt;Node0 -->
<g id="edge1" class="edge">
<title>Node341&#45;&gt;Node0</title>
<path fill="none" stroke="midnightblue" d="M78.94,-353.4C85.05,-405.66 108.52,-548.26 188,-628.5 191.41,-631.94 195.37,-634.9 199.61,-637.45"/>
<polygon fill="midnightblue" stroke="midnightblue" points="82.38,-352.73 77.83,-343.16 75.42,-353.48 82.38,-352.73"/>
</g>
<!-- Node343 -->
<g id="node3" class="node">
<title>Node343</title>
<g id="a_node3"><a xlink:href="classamr__wind_1_1pde_1_1icns_1_1_a_b_l_mean_boussinesq.html" target="_top" xlink:title="Boussinesq bouyancy source term.">
<polygon fill="white" stroke="black" points="189,-588.5 189,-618.5 313,-618.5 313,-588.5 189,-588.5"/>
<text text-anchor="start" x="197" y="-606.5" font-family="Helvetica,sans-Serif" font-size="10.00">amr_wind::pde::icns</text>
<text text-anchor="middle" x="251" y="-595.5" font-family="Helvetica,sans-Serif" font-size="10.00">::ABLMeanBoussinesq</text>
</a>
</g>
</g>
<!-- Node341&#45;&gt;Node343 -->
<g id="edge2" class="edge">
<title>Node341&#45;&gt;Node343</title>
<path fill="none" stroke="midnightblue" d="M80.57,-353.11C89.93,-399.01 119.31,-514.46 188,-579.5 191.6,-582.91 195.75,-585.86 200.14,-588.39"/>
<polygon fill="midnightblue" stroke="midnightblue" points="83.96,-352.16 78.62,-343.01 77.08,-353.49 83.96,-352.16"/>
</g>
<!-- Node344 -->
<g id="node4" class="node">
<title>Node344</title>
<g id="a_node4"><a xlink:href="classamr__wind_1_1pde_1_1icns_1_1_actuator_forcing.html" target="_top" xlink:title="Body forces introduced by turbines modeled as actuators in flow field.">
<polygon fill="white" stroke="black" points="194,-539.5 194,-569.5 308,-569.5 308,-539.5 194,-539.5"/>
<text text-anchor="start" x="202" y="-557.5" font-family="Helvetica,sans-Serif" font-size="10.00">amr_wind::pde::icns</text>
<text text-anchor="middle" x="251" y="-546.5" font-family="Helvetica,sans-Serif" font-size="10.00">::ActuatorForcing</text>
</a>
</g>
</g>
<!-- Node341&#45;&gt;Node344 -->
<g id="edge3" class="edge">
<title>Node341&#45;&gt;Node344</title>
<path fill="none" stroke="midnightblue" d="M82.92,-352.83C95.8,-391.77 129.94,-480.24 188,-530.5 191.93,-533.9 196.39,-536.85 201.08,-539.39"/>
<polygon fill="midnightblue" stroke="midnightblue" points="86.23,-351.69 79.85,-343.23 79.57,-353.82 86.23,-351.69"/>
</g>
<!-- Node345 -->
<g id="node5" class="node">
<title>Node345</title>
<g id="a_node5"><a xlink:href="classamr__wind_1_1pde_1_1icns_1_1_body_force.html" target="_top" xlink:title="Apply a user&#45;defined body force as a source term.">
<polygon fill="white" stroke="black" points="194,-490.5 194,-520.5 308,-520.5 308,-490.5 194,-490.5"/>
<text text-anchor="start" x="202" y="-508.5" font-family="Helvetica,sans-Serif" font-size="10.00">amr_wind::pde::icns</text>
<text text-anchor="middle" x="251" y="-497.5" font-family="Helvetica,sans-Serif" font-size="10.00">::BodyForce</text>
</a>
</g>
</g>
<!-- Node341&#45;&gt;Node345 -->
<g id="edge4" class="edge">
<title>Node341&#45;&gt;Node345</title>
<path fill="none" stroke="midnightblue" d="M86.47,-352.16C103.05,-383.12 140.18,-445.27 188,-481.5 192.51,-484.92 197.56,-487.9 202.79,-490.5"/>
<polygon fill="midnightblue" stroke="midnightblue" points="89.56,-350.52 81.82,-343.28 83.35,-353.76 89.56,-350.52"/>
</g>
<!-- Node346 -->
<g id="node6" class="node">
<title>Node346</title>
<g id="a_node6"><a xlink:href="classamr__wind_1_1pde_1_1icns_1_1_boussinesq_buoyancy.html" target="_top" xlink:title="Boussinesq bouyancy source term.">
<polygon fill="white" stroke="black" points="188,-441.5 188,-471.5 314,-471.5 314,-441.5 188,-441.5"/>
<text text-anchor="start" x="196" y="-459.5" font-family="Helvetica,sans-Serif" font-size="10.00">amr_wind::pde::icns</text>
<text text-anchor="middle" x="251" y="-448.5" font-family="Helvetica,sans-Serif" font-size="10.00">::BoussinesqBuoyancy</text>
</a>
</g>
</g>
<!-- Node341&#45;&gt;Node346 -->
<g id="edge5" class="edge">
<title>Node341&#45;&gt;Node346</title>
<path fill="none" stroke="midnightblue" d="M92.45,-350.66C112.63,-372.22 149.91,-409.21 188,-432.5 193.42,-435.81 199.37,-438.81 205.37,-441.47"/>
<polygon fill="midnightblue" stroke="midnightblue" points="94.94,-348.19 85.59,-343.21 89.79,-352.93 94.94,-348.19"/>
</g>
<!-- Node347 -->
<g id="node7" class="node">
<title>Node347</title>
<g id="a_node7"><a xlink:href="classamr__wind_1_1pde_1_1icns_1_1_burggraf_flow_forcing.html" target="_top" xlink:title="Body forcing introduced to represent the Burrgraf cavity flow.">
<polygon fill="white" stroke="black" points="189.5,-392.5 189.5,-422.5 312.5,-422.5 312.5,-392.5 189.5,-392.5"/>
<text text-anchor="start" x="197.5" y="-410.5" font-family="Helvetica,sans-Serif" font-size="10.00">amr_wind::pde::icns</text>
<text text-anchor="middle" x="251" y="-399.5" font-family="Helvetica,sans-Serif" font-size="10.00">::BurggrafFlowForcing</text>
</a>
</g>
</g>
<!-- Node341&#45;&gt;Node347 -->
<g id="edge6" class="edge">
<title>Node341&#45;&gt;Node347</title>
<path fill="none" stroke="midnightblue" d="M106.56,-347.34C128.81,-357.63 160.15,-371.85 188,-383.5 195.13,-386.48 202.78,-389.55 210.18,-392.45"/>
<polygon fill="midnightblue" stroke="midnightblue" points="107.86,-344.08 97.31,-343.05 104.91,-350.43 107.86,-344.08"/>
</g>
<!-- Node348 -->
<g id="node8" class="node">
<title>Node348</title>
<g id="a_node8"><a xlink:href="classamr__wind_1_1pde_1_1icns_1_1_coriolis_forcing.html" target="_top" xlink:title="Account for Coriolis forcing due to earth&#39;s rotation.">
<polygon fill="white" stroke="black" points="194,-343.5 194,-373.5 308,-373.5 308,-343.5 194,-343.5"/>
<text text-anchor="start" x="202" y="-361.5" font-family="Helvetica,sans-Serif" font-size="10.00">amr_wind::pde::icns</text>
<text text-anchor="middle" x="251" y="-350.5" font-family="Helvetica,sans-Serif" font-size="10.00">::CoriolisForcing</text>
</a>
</g>
</g>
<!-- Node341&#45;&gt;Node348 -->
<g id="edge7" class="edge">
<title>Node341&#45;&gt;Node348</title>
<path fill="none" stroke="midnightblue" d="M152.85,-344.46C166.64,-346.45 180.79,-348.5 193.88,-350.39"/>
<polygon fill="midnightblue" stroke="midnightblue" points="153.3,-340.99 142.9,-343.02 152.29,-347.92 153.3,-340.99"/>
</g>
<!-- Node349 -->
<g id="node9" class="node">
<title>Node349</title>
<g id="a_node9"><a xlink:href="classamr__wind_1_1pde_1_1icns_1_1_density_buoyancy.html" target="_top" xlink:title="Buoyancy term from density variations.">
<polygon fill="white" stroke="black" points="194,-294.5 194,-324.5 308,-324.5 308,-294.5 194,-294.5"/>
<text text-anchor="start" x="202" y="-312.5" font-family="Helvetica,sans-Serif" font-size="10.00">amr_wind::pde::icns</text>
<text text-anchor="middle" x="251" y="-301.5" font-family="Helvetica,sans-Serif" font-size="10.00">::DensityBuoyancy</text>
</a>
</g>
</g>
<!-- Node341&#45;&gt;Node349 -->
<g id="edge8" class="edge">
<title>Node341&#45;&gt;Node349</title>
<path fill="none" stroke="midnightblue" d="M156.04,-322.54C168.8,-320.76 181.78,-318.96 193.86,-317.29"/>
<polygon fill="midnightblue" stroke="midnightblue" points="155.3,-319.1 145.87,-323.95 156.26,-326.04 155.3,-319.1"/>
</g>
<!-- Node350 -->
<g id="node10" class="node">
<title>Node350</title>
<g id="a_node10"><a xlink:href="classamr__wind_1_1pde_1_1icns_1_1_geostrophic_forcing.html" target="_top" xlink:title="Apply source term equivalent to drive the flow to match given geostrophic wind.">
<polygon fill="white" stroke="black" points="193,-245.5 193,-275.5 309,-275.5 309,-245.5 193,-245.5"/>
<text text-anchor="start" x="201" y="-263.5" font-family="Helvetica,sans-Serif" font-size="10.00">amr_wind::pde::icns</text>
<text text-anchor="middle" x="251" y="-252.5" font-family="Helvetica,sans-Serif" font-size="10.00">::GeostrophicForcing</text>
</a>
</g>
</g>
<!-- Node341&#45;&gt;Node350 -->
<g id="edge9" class="edge">
<title>Node341&#45;&gt;Node350</title>
<path fill="none" stroke="midnightblue" d="M107.89,-319.9C130.12,-310.17 160.83,-296.85 188,-285.5 195.82,-282.23 204.22,-278.8 212.23,-275.55"/>
<polygon fill="midnightblue" stroke="midnightblue" points="106.38,-316.74 98.63,-323.96 109.19,-323.15 106.38,-316.74"/>
</g>
<!-- Node351 -->
<g id="node11" class="node">
<title>Node351</title>
<g id="a_node11"><a xlink:href="classamr__wind_1_1pde_1_1icns_1_1_gravity_forcing.html" target="_top" xlink:title="Gravity Forcing term.">
<polygon fill="white" stroke="black" points="194,-196.5 194,-226.5 308,-226.5 308,-196.5 194,-196.5"/>
<text text-anchor="start" x="202" y="-214.5" font-family="Helvetica,sans-Serif" font-size="10.00">amr_wind::pde::icns</text>
<text text-anchor="middle" x="251" y="-203.5" font-family="Helvetica,sans-Serif" font-size="10.00">::GravityForcing</text>
</a>
</g>
</g>
<!-- Node341&#45;&gt;Node351 -->
<g id="edge10" class="edge">
<title>Node341&#45;&gt;Node351</title>
<path fill="none" stroke="midnightblue" d="M92.89,-316.47C113.27,-295.41 150.48,-259.54 188,-236.5 193.93,-232.86 200.49,-229.55 207.06,-226.62"/>
<polygon fill="midnightblue" stroke="midnightblue" points="90.3,-314.11 85.93,-323.76 95.37,-318.94 90.3,-314.11"/>
</g>
<!-- Node352 -->
<g id="node12" class="node">
<title>Node352</title>
<g id="a_node12"><a xlink:href="classamr__wind_1_1pde_1_1icns_1_1_hurricane_forcing.html" target="_top" xlink:title="Idealized Hurricane forcing source term Apply mesoscale tendency source term to drive the flow and ma...">
<polygon fill="white" stroke="black" points="194,-147.5 194,-177.5 308,-177.5 308,-147.5 194,-147.5"/>
<text text-anchor="start" x="202" y="-165.5" font-family="Helvetica,sans-Serif" font-size="10.00">amr_wind::pde::icns</text>
<text text-anchor="middle" x="251" y="-154.5" font-family="Helvetica,sans-Serif" font-size="10.00">::HurricaneForcing</text>
</a>
</g>
</g>
<!-- Node341&#45;&gt;Node352 -->
<g id="edge11" class="edge">
<title>Node341&#45;&gt;Node352</title>
<path fill="none" stroke="midnightblue" d="M86.81,-314.77C103.67,-284.21 140.93,-223.43 188,-187.5 192.98,-183.7 198.62,-180.39 204.42,-177.53"/>
<polygon fill="midnightblue" stroke="midnightblue" points="83.55,-313.43 81.89,-323.9 89.71,-316.76 83.55,-313.43"/>
</g>
<!-- Node353 -->
<g id="node13" class="node">
<title>Node353</title>
<g id="a_node13"><a xlink:href="classamr__wind_1_1pde_1_1icns_1_1_rayleigh_damping.html" target="_top" xlink:title="Apply Rayleigh damping as a source terms.">
<polygon fill="white" stroke="black" points="194,-98.5 194,-128.5 308,-128.5 308,-98.5 194,-98.5"/>
<text text-anchor="start" x="202" y="-116.5" font-family="Helvetica,sans-Serif" font-size="10.00">amr_wind::pde::icns</text>
<text text-anchor="middle" x="251" y="-105.5" font-family="Helvetica,sans-Serif" font-size="10.00">::RayleighDamping</text>
</a>
</g>
</g>
<!-- Node341&#45;&gt;Node353 -->
<g id="edge12" class="edge">
<title>Node341&#45;&gt;Node353</title>
<path fill="none" stroke="midnightblue" d="M83.21,-313.94C96.42,-275.26 130.87,-188.43 188,-138.5 192.37,-134.68 197.4,-131.4 202.66,-128.59"/>
<polygon fill="midnightblue" stroke="midnightblue" points="79.73,-313.31 79.91,-323.91 86.38,-315.51 79.73,-313.31"/>
</g>
<!-- Node354 -->
<g id="node14" class="node">
<title>Node354</title>
<g id="a_node14"><a xlink:href="classamr__wind_1_1pde_1_1icns_1_1_synth_turb_forcing.html" target="_top" xlink:title="Synthetic turbulence momentum source term.">
<polygon fill="white" stroke="black" points="194,-49.5 194,-79.5 308,-79.5 308,-49.5 194,-49.5"/>
<text text-anchor="start" x="202" y="-67.5" font-family="Helvetica,sans-Serif" font-size="10.00">amr_wind::pde::icns</text>
<text text-anchor="middle" x="251" y="-56.5" font-family="Helvetica,sans-Serif" font-size="10.00">::SynthTurbForcing</text>
</a>
</g>
</g>
<!-- Node341&#45;&gt;Node354 -->
<g id="edge13" class="edge">
<title>Node341&#45;&gt;Node354</title>
<path fill="none" stroke="midnightblue" d="M80.76,-313.78C90.42,-268.16 120.3,-154.31 188,-89.5 192.02,-85.65 196.72,-82.36 201.69,-79.56"/>
<polygon fill="midnightblue" stroke="midnightblue" points="77.32,-313.11 78.77,-323.6 84.18,-314.5 77.32,-313.11"/>
</g>
<!-- Node355 -->
<g id="node15" class="node">
<title>Node355</title>
<g id="a_node15"><a xlink:href="classamr__wind_1_1pde_1_1icns_1_1mms_1_1_m_m_s_forcing.html" target="_top" xlink:title=" ">
<polygon fill="white" stroke="black" points="194,-0.5 194,-30.5 308,-30.5 308,-0.5 194,-0.5"/>
<text text-anchor="start" x="202" y="-18.5" font-family="Helvetica,sans-Serif" font-size="10.00">amr_wind::pde::icns</text>
<text text-anchor="middle" x="251" y="-7.5" font-family="Helvetica,sans-Serif" font-size="10.00">::mms::MMSForcing</text>
</a>
</g>
</g>
<!-- Node341&#45;&gt;Node355 -->
<g id="edge14" class="edge">
<title>Node341&#45;&gt;Node355</title>
<path fill="none" stroke="midnightblue" d="M79.04,-313.79C85.41,-262.04 109.46,-120.72 188,-40.5 191.73,-36.69 196.13,-33.43 200.83,-30.67"/>
<polygon fill="midnightblue" stroke="midnightblue" points="75.54,-313.6 77.88,-323.93 82.5,-314.4 75.54,-313.6"/>
</g>
</g>
</svg>
