<?xml version="1.0" encoding="UTF-8" standalone="no"?>
<!DOCTYPE svg PUBLIC "-//W3C//DTD SVG 1.1//EN"
 "http://www.w3.org/Graphics/SVG/1.1/DTD/svg11.dtd">
<!-- Generated by graphviz version 2.43.0 (0)
 -->
<!-- Title: linear_interpolation.H Pages: 1 -->
<!--zoomable 252 -->
<svg id="main" version="1.1" xmlns="http://www.w3.org/2000/svg" xmlns:xlink="http://www.w3.org/1999/xlink" xml:space="preserve" onload="init(evt)">
<style type="text/css"><![CDATA[
.edge:hover path { stroke: red; }
.edge:hover polygon { stroke: red; fill: red; }
]]></style>
<script type="text/javascript"><![CDATA[
var edges = document.getElementsByTagName('g');
if (edges && edges.length) {
  for (var i=0;i<edges.length;i++) {
    if (edges[i].id.substr(0,4)=='edge') {
      edges[i].setAttribute('class','edge');
    }
  }
}
]]></script>
        <defs>
                <circle id="rim" cx="0" cy="0" r="7"/>
                <circle id="rim2" cx="0" cy="0" r="3.5"/>
                <g id="zoomPlus">
                        <use xlink:href="#rim" fill="#404040">
                                <set attributeName="fill" to="#808080" begin="zoomplus.mouseover" end="zoomplus.mouseout"/>
                        </use>
                        <path d="M-4,0h8M0,-4v8" fill="none" stroke="white" stroke-width="1.5" pointer-events="none"/>
                </g>
                <g id="zoomMin">
                        <use xlink:href="#rim" fill="#404040">
                                <set attributeName="fill" to="#808080" begin="zoomminus.mouseover" end="zoomminus.mouseout"/>
                        </use>
                        <path d="M-4,0h8" fill="none" stroke="white" stroke-width="1.5" pointer-events="none"/>
                </g>
                <g id="dirArrow">
                        <path fill="none" stroke="white" stroke-width="1.5" d="M0,-3.0v7 M-2.5,-0.5L0,-3.0L2.5,-0.5"/>
                </g>
               <g id="resetDef">
                       <use xlink:href="#rim2" fill="#404040">
                               <set attributeName="fill" to="#808080" begin="reset.mouseover" end="reset.mouseout"/>
                       </use>
               </g>
        </defs>

<script type="text/javascript">
var viewWidth = 1241;
var viewHeight = 252;
var sectionId = 'dynsection-1';
</script>
<script xlink:href="svgpan.js"/>
<svg id="graph" class="graph">
<g id="viewport">
<title>linear_interpolation.H</title>
<polygon fill="white" stroke="transparent" points="-4,4 -4,-248 1236.5,-248 1236.5,4 -4,4"/>
<!-- Node1 -->
<g id="node1" class="node">
<title>Node1</title>
<g id="a_node1"><a xlink:title=" ">
<polygon fill="#bfbfbf" stroke="black" points="552.5,-224.5 552.5,-243.5 674.5,-243.5 674.5,-224.5 552.5,-224.5"/>
<text text-anchor="middle" x="613.5" y="-231.5" font-family="Helvetica,sans-Serif" font-size="10.00">linear_interpolation.H</text>
</a>
</g>
</g>
<!-- Node2 -->
<g id="node2" class="node">
<title>Node2</title>
<g id="a_node2"><a xlink:href="_a_b_l_forcing_8_h.html" target="_top" xlink:title=" ">
<polygon fill="white" stroke="black" points="97,-168.5 97,-187.5 178,-187.5 178,-168.5 97,-168.5"/>
<text text-anchor="middle" x="137.5" y="-175.5" font-family="Helvetica,sans-Serif" font-size="10.00">ABLForcing.H</text>
</a>
</g>
</g>
<!-- Node1&#45;&gt;Node2 -->
<g id="edge1" class="edge">
<title>Node1&#45;&gt;Node2</title>
<path fill="none" stroke="midnightblue" d="M542.28,-227.07C457.53,-219.65 311.84,-205.73 187.5,-188 184.44,-187.56 181.29,-187.08 178.12,-186.57"/>
<polygon fill="midnightblue" stroke="midnightblue" points="542.04,-230.57 552.31,-227.95 542.65,-223.59 542.04,-230.57"/>
</g>
<!-- Node6 -->
<g id="node6" class="node">
<title>Node6</title>
<g id="a_node6"><a xlink:href="_d_t_u_spinner_sampler_8cpp.html" target="_top" xlink:title=" ">
<polygon fill="white" stroke="black" points="196.5,-168.5 196.5,-187.5 330.5,-187.5 330.5,-168.5 196.5,-168.5"/>
<text text-anchor="middle" x="263.5" y="-175.5" font-family="Helvetica,sans-Serif" font-size="10.00">DTUSpinnerSampler.cpp</text>
</a>
</g>
</g>
<!-- Node1&#45;&gt;Node6 -->
<g id="edge5" class="edge">
<title>Node1&#45;&gt;Node6</title>
<path fill="none" stroke="midnightblue" d="M548.14,-222.92C482.02,-212.71 380.93,-197.12 318.7,-187.52"/>
<polygon fill="midnightblue" stroke="midnightblue" points="547.62,-226.38 558.04,-224.44 548.69,-219.46 547.62,-226.38"/>
</g>
<!-- Node7 -->
<g id="node7" class="node">
<title>Node7</title>
<g id="a_node7"><a xlink:href="_lidar_sampler_8cpp.html" target="_top" xlink:title=" ">
<polygon fill="white" stroke="black" points="349,-168.5 349,-187.5 450,-187.5 450,-168.5 349,-168.5"/>
<text text-anchor="middle" x="399.5" y="-175.5" font-family="Helvetica,sans-Serif" font-size="10.00">LidarSampler.cpp</text>
</a>
</g>
</g>
<!-- Node1&#45;&gt;Node7 -->
<g id="edge6" class="edge">
<title>Node1&#45;&gt;Node7</title>
<path fill="none" stroke="midnightblue" d="M569.74,-221.96C529.33,-211.76 470.13,-196.82 433.25,-187.52"/>
<polygon fill="midnightblue" stroke="midnightblue" points="569.04,-225.39 579.59,-224.44 570.75,-218.6 569.04,-225.39"/>
</g>
<!-- Node8 -->
<g id="node8" class="node">
<title>Node8</title>
<g id="a_node8"><a xlink:href="_airfoil_table_8cpp.html" target="_top" xlink:title=" ">
<polygon fill="white" stroke="black" points="468.5,-168.5 468.5,-187.5 560.5,-187.5 560.5,-168.5 468.5,-168.5"/>
<text text-anchor="middle" x="514.5" y="-175.5" font-family="Helvetica,sans-Serif" font-size="10.00">AirfoilTable.cpp</text>
</a>
</g>
</g>
<!-- Node1&#45;&gt;Node8 -->
<g id="edge7" class="edge">
<title>Node1&#45;&gt;Node8</title>
<path fill="none" stroke="midnightblue" d="M588.66,-219.45C570.39,-209.48 546.08,-196.23 530.37,-187.65"/>
<polygon fill="midnightblue" stroke="midnightblue" points="587.14,-222.61 597.59,-224.32 590.49,-216.46 587.14,-222.61"/>
</g>
<!-- Node9 -->
<g id="node9" class="node">
<title>Node9</title>
<g id="a_node9"><a xlink:href="disk__ops_8_h.html" target="_top" xlink:title=" ">
<polygon fill="white" stroke="black" points="578.5,-168.5 578.5,-187.5 648.5,-187.5 648.5,-168.5 578.5,-168.5"/>
<text text-anchor="middle" x="613.5" y="-175.5" font-family="Helvetica,sans-Serif" font-size="10.00">disk_ops.H</text>
</a>
</g>
</g>
<!-- Node1&#45;&gt;Node9 -->
<g id="edge8" class="edge">
<title>Node1&#45;&gt;Node9</title>
<path fill="none" stroke="midnightblue" d="M613.5,-213.8C613.5,-204.91 613.5,-194.78 613.5,-187.75"/>
<polygon fill="midnightblue" stroke="midnightblue" points="610,-214.08 613.5,-224.08 617,-214.08 610,-214.08"/>
</g>
<!-- Node12 -->
<g id="node12" class="node">
<title>Node12</title>
<g id="a_node12"><a xlink:href="_joukowsky__ops_8_h.html" target="_top" xlink:title=" ">
<polygon fill="white" stroke="black" points="558,-112.5 558,-131.5 659,-131.5 659,-112.5 558,-112.5"/>
<text text-anchor="middle" x="608.5" y="-119.5" font-family="Helvetica,sans-Serif" font-size="10.00">Joukowsky_ops.H</text>
</a>
</g>
</g>
<!-- Node1&#45;&gt;Node12 -->
<g id="edge17" class="edge">
<title>Node1&#45;&gt;Node12</title>
<path fill="none" stroke="midnightblue" d="M634.57,-218.04C649.53,-205.43 665.64,-186.53 657.5,-168 650.53,-152.14 634.91,-139.42 623.16,-131.6"/>
<polygon fill="midnightblue" stroke="midnightblue" points="632.23,-215.43 626.53,-224.36 636.56,-220.93 632.23,-215.43"/>
</g>
<!-- Node14 -->
<g id="node14" class="node">
<title>Node14</title>
<g id="a_node14"><a xlink:href="uniform__ct__ops_8_h.html" target="_top" xlink:title=" ">
<polygon fill="white" stroke="black" points="677.5,-112.5 677.5,-131.5 779.5,-131.5 779.5,-112.5 677.5,-112.5"/>
<text text-anchor="middle" x="728.5" y="-119.5" font-family="Helvetica,sans-Serif" font-size="10.00">uniform_ct_ops.H</text>
</a>
</g>
</g>
<!-- Node1&#45;&gt;Node14 -->
<g id="edge18" class="edge">
<title>Node1&#45;&gt;Node14</title>
<path fill="none" stroke="midnightblue" d="M635,-218.66C646.86,-210.32 661.57,-199.25 673.5,-188 693.07,-169.54 712.62,-144.48 722.28,-131.53"/>
<polygon fill="midnightblue" stroke="midnightblue" points="632.81,-215.91 626.57,-224.47 636.79,-221.68 632.81,-215.91"/>
</g>
<!-- Node16 -->
<g id="node16" class="node">
<title>Node16</title>
<g id="a_node16"><a xlink:href="_f_l_l_c_op_8_h.html" target="_top" xlink:title=" ">
<polygon fill="white" stroke="black" points="935.5,-168.5 935.5,-187.5 999.5,-187.5 999.5,-168.5 935.5,-168.5"/>
<text text-anchor="middle" x="967.5" y="-175.5" font-family="Helvetica,sans-Serif" font-size="10.00">FLLCOp.H</text>
</a>
</g>
</g>
<!-- Node1&#45;&gt;Node16 -->
<g id="edge19" class="edge">
<title>Node1&#45;&gt;Node16</title>
<path fill="none" stroke="midnightblue" d="M679.57,-222.92C755.75,-211.3 877.86,-192.67 935.46,-183.89"/>
<polygon fill="midnightblue" stroke="midnightblue" points="678.95,-219.48 669.59,-224.44 680.01,-226.4 678.95,-219.48"/>
</g>
<!-- Node20 -->
<g id="node20" class="node">
<title>Node20</title>
<g id="a_node20"><a xlink:href="fixed__wing__ops_8_h.html" target="_top" xlink:title=" ">
<polygon fill="white" stroke="black" points="807,-56.5 807,-75.5 908,-75.5 908,-56.5 807,-56.5"/>
<text text-anchor="middle" x="857.5" y="-63.5" font-family="Helvetica,sans-Serif" font-size="10.00">fixed_wing_ops.H</text>
</a>
</g>
</g>
<!-- Node1&#45;&gt;Node20 -->
<g id="edge28" class="edge">
<title>Node1&#45;&gt;Node20</title>
<path fill="none" stroke="midnightblue" d="M641.12,-219.84C676.79,-202.23 740.04,-168.93 788.5,-132 812.32,-113.85 837.15,-88.65 849.51,-75.6"/>
<polygon fill="midnightblue" stroke="midnightblue" points="639.28,-216.84 631.83,-224.38 642.35,-223.13 639.28,-216.84"/>
</g>
<!-- Node3 -->
<g id="node3" class="node">
<title>Node3</title>
<g id="a_node3"><a xlink:href="_a_b_l_forcing_8cpp.html" target="_top" xlink:title=" ">
<polygon fill="white" stroke="black" points="0,-112.5 0,-131.5 91,-131.5 91,-112.5 0,-112.5"/>
<text text-anchor="middle" x="45.5" y="-119.5" font-family="Helvetica,sans-Serif" font-size="10.00">ABLForcing.cpp</text>
</a>
</g>
</g>
<!-- Node2&#45;&gt;Node3 -->
<g id="edge2" class="edge">
<title>Node2&#45;&gt;Node3</title>
<path fill="none" stroke="midnightblue" d="M113.95,-163.18C97.02,-153.24 74.72,-140.15 60.24,-131.65"/>
<polygon fill="midnightblue" stroke="midnightblue" points="112.32,-166.28 122.72,-168.32 115.87,-160.24 112.32,-166.28"/>
</g>
<!-- Node4 -->
<g id="node4" class="node">
<title>Node4</title>
<g id="a_node4"><a xlink:href="_a_b_l_8cpp.html" target="_top" xlink:title=" ">
<polygon fill="white" stroke="black" points="109.5,-112.5 109.5,-131.5 165.5,-131.5 165.5,-112.5 109.5,-112.5"/>
<text text-anchor="middle" x="137.5" y="-119.5" font-family="Helvetica,sans-Serif" font-size="10.00">ABL.cpp</text>
</a>
</g>
</g>
<!-- Node2&#45;&gt;Node4 -->
<g id="edge3" class="edge">
<title>Node2&#45;&gt;Node4</title>
<path fill="none" stroke="midnightblue" d="M137.5,-157.8C137.5,-148.91 137.5,-138.78 137.5,-131.75"/>
<polygon fill="midnightblue" stroke="midnightblue" points="134,-158.08 137.5,-168.08 141,-158.08 134,-158.08"/>
</g>
<!-- Node5 -->
<g id="node5" class="node">
<title>Node5</title>
<g id="a_node5"><a xlink:href="_a_b_l_stats_8cpp.html" target="_top" xlink:title=" ">
<polygon fill="white" stroke="black" points="183.5,-112.5 183.5,-131.5 263.5,-131.5 263.5,-112.5 183.5,-112.5"/>
<text text-anchor="middle" x="223.5" y="-119.5" font-family="Helvetica,sans-Serif" font-size="10.00">ABLStats.cpp</text>
</a>
</g>
</g>
<!-- Node2&#45;&gt;Node5 -->
<g id="edge4" class="edge">
<title>Node2&#45;&gt;Node5</title>
<path fill="none" stroke="midnightblue" d="M159.95,-162.9C175.72,-153 196.31,-140.07 209.72,-131.65"/>
<polygon fill="midnightblue" stroke="midnightblue" points="157.93,-160.04 151.32,-168.32 161.65,-165.97 157.93,-160.04"/>
</g>
<!-- Node10 -->
<g id="node10" class="node">
<title>Node10</title>
<g id="a_node10"><a xlink:href="disk__ops_8cpp.html" target="_top" xlink:title=" ">
<polygon fill="white" stroke="black" points="421.5,-112.5 421.5,-131.5 501.5,-131.5 501.5,-112.5 421.5,-112.5"/>
<text text-anchor="middle" x="461.5" y="-119.5" font-family="Helvetica,sans-Serif" font-size="10.00">disk_ops.cpp</text>
</a>
</g>
</g>
<!-- Node9&#45;&gt;Node10 -->
<g id="edge9" class="edge">
<title>Node9&#45;&gt;Node10</title>
<path fill="none" stroke="midnightblue" d="M579.83,-165.04C551.23,-154.88 510.89,-140.55 485.47,-131.52"/>
<polygon fill="midnightblue" stroke="midnightblue" points="578.82,-168.39 589.42,-168.44 581.16,-161.8 578.82,-168.39"/>
</g>
<!-- Node11 -->
<g id="node11" class="node">
<title>Node11</title>
<g id="a_node11"><a xlink:href="_joukowsky__ops_8cpp.html" target="_top" xlink:title=" ">
<polygon fill="white" stroke="black" points="430.5,-56.5 430.5,-75.5 540.5,-75.5 540.5,-56.5 430.5,-56.5"/>
<text text-anchor="middle" x="485.5" y="-63.5" font-family="Helvetica,sans-Serif" font-size="10.00">Joukowsky_ops.cpp</text>
</a>
</g>
</g>
<!-- Node9&#45;&gt;Node11 -->
<g id="edge10" class="edge">
<title>Node9&#45;&gt;Node11</title>
<path fill="none" stroke="midnightblue" d="M590.79,-162.85C577.93,-154.46 561.81,-143.29 548.5,-132 526.68,-113.5 504.05,-88.45 492.78,-75.52"/>
<polygon fill="midnightblue" stroke="midnightblue" points="589.18,-165.98 599.49,-168.43 592.96,-160.09 589.18,-165.98"/>
</g>
<!-- Node9&#45;&gt;Node12 -->
<g id="edge11" class="edge">
<title>Node9&#45;&gt;Node12</title>
<path fill="none" stroke="midnightblue" d="M611.75,-158.1C610.92,-149.14 609.97,-138.86 609.31,-131.75"/>
<polygon fill="midnightblue" stroke="midnightblue" points="608.27,-158.45 612.67,-168.08 615.24,-157.8 608.27,-158.45"/>
</g>
<!-- Node9&#45;&gt;Node14 -->
<g id="edge14" class="edge">
<title>Node9&#45;&gt;Node14</title>
<path fill="none" stroke="midnightblue" d="M640.98,-164.1C662.47,-154.01 691.72,-140.27 710.36,-131.52"/>
<polygon fill="midnightblue" stroke="midnightblue" points="639.29,-161.02 631.72,-168.44 642.26,-167.36 639.29,-161.02"/>
</g>
<!-- Node12&#45;&gt;Node11 -->
<g id="edge13" class="edge">
<title>Node12&#45;&gt;Node11</title>
<path fill="none" stroke="midnightblue" d="M579.73,-108.37C556.69,-98.26 525.02,-84.35 504.9,-75.52"/>
<polygon fill="midnightblue" stroke="midnightblue" points="578.45,-111.63 589.01,-112.44 581.26,-105.22 578.45,-111.63"/>
</g>
<!-- Node13 -->
<g id="node13" class="node">
<title>Node13</title>
<g id="a_node13"><a xlink:href="_actuator_disk_8cpp.html" target="_top" xlink:title=" ">
<polygon fill="white" stroke="black" points="558.5,-56.5 558.5,-75.5 658.5,-75.5 658.5,-56.5 558.5,-56.5"/>
<text text-anchor="middle" x="608.5" y="-63.5" font-family="Helvetica,sans-Serif" font-size="10.00">ActuatorDisk.cpp</text>
</a>
</g>
</g>
<!-- Node12&#45;&gt;Node13 -->
<g id="edge12" class="edge">
<title>Node12&#45;&gt;Node13</title>
<path fill="none" stroke="midnightblue" d="M608.5,-101.8C608.5,-92.91 608.5,-82.78 608.5,-75.75"/>
<polygon fill="midnightblue" stroke="midnightblue" points="605,-102.08 608.5,-112.08 612,-102.08 605,-102.08"/>
</g>
<!-- Node14&#45;&gt;Node13 -->
<g id="edge15" class="edge">
<title>Node14&#45;&gt;Node13</title>
<path fill="none" stroke="midnightblue" d="M700.13,-108.23C677.68,-98.13 646.96,-84.31 627.43,-75.52"/>
<polygon fill="midnightblue" stroke="midnightblue" points="698.93,-111.53 709.49,-112.44 701.8,-105.15 698.93,-111.53"/>
</g>
<!-- Node15 -->
<g id="node15" class="node">
<title>Node15</title>
<g id="a_node15"><a xlink:href="uniform__ct__ops_8cpp.html" target="_top" xlink:title=" ">
<polygon fill="white" stroke="black" points="676.5,-56.5 676.5,-75.5 788.5,-75.5 788.5,-56.5 676.5,-56.5"/>
<text text-anchor="middle" x="732.5" y="-63.5" font-family="Helvetica,sans-Serif" font-size="10.00">uniform_ct_ops.cpp</text>
</a>
</g>
</g>
<!-- Node14&#45;&gt;Node15 -->
<g id="edge16" class="edge">
<title>Node14&#45;&gt;Node15</title>
<path fill="none" stroke="midnightblue" d="M729.9,-102.1C730.56,-93.14 731.33,-82.86 731.85,-75.75"/>
<polygon fill="midnightblue" stroke="midnightblue" points="726.41,-101.85 729.16,-112.08 733.39,-102.37 726.41,-101.85"/>
</g>
<!-- Node17 -->
<g id="node17" class="node">
<title>Node17</title>
<g id="a_node17"><a xlink:href="turbine__fast__ops_8_h.html" target="_top" xlink:title=" ">
<polygon fill="white" stroke="black" points="1077.5,-112.5 1077.5,-131.5 1185.5,-131.5 1185.5,-112.5 1077.5,-112.5"/>
<text text-anchor="middle" x="1131.5" y="-119.5" font-family="Helvetica,sans-Serif" font-size="10.00">turbine_fast_ops.H</text>
</a>
</g>
</g>
<!-- Node16&#45;&gt;Node17 -->
<g id="edge20" class="edge">
<title>Node16&#45;&gt;Node17</title>
<path fill="none" stroke="midnightblue" d="M1003.02,-165.3C1033.92,-155.13 1077.97,-140.62 1105.64,-131.52"/>
<polygon fill="midnightblue" stroke="midnightblue" points="1001.89,-161.99 993.49,-168.44 1004.08,-168.64 1001.89,-161.99"/>
</g>
<!-- Node19 -->
<g id="node19" class="node">
<title>Node19</title>
<g id="a_node19"><a xlink:href="wing__ops_8_h.html" target="_top" xlink:title=" ">
<polygon fill="white" stroke="black" points="931,-112.5 931,-131.5 1004,-131.5 1004,-112.5 931,-112.5"/>
<text text-anchor="middle" x="967.5" y="-119.5" font-family="Helvetica,sans-Serif" font-size="10.00">wing_ops.H</text>
</a>
</g>
</g>
<!-- Node16&#45;&gt;Node19 -->
<g id="edge22" class="edge">
<title>Node16&#45;&gt;Node19</title>
<path fill="none" stroke="midnightblue" d="M967.5,-157.8C967.5,-148.91 967.5,-138.78 967.5,-131.75"/>
<polygon fill="midnightblue" stroke="midnightblue" points="964,-158.08 967.5,-168.08 971,-158.08 964,-158.08"/>
</g>
<!-- Node18 -->
<g id="node18" class="node">
<title>Node18</title>
<g id="a_node18"><a xlink:href="_turbine_fast_8cpp.html" target="_top" xlink:title=" ">
<polygon fill="white" stroke="black" points="1140.5,-56.5 1140.5,-75.5 1232.5,-75.5 1232.5,-56.5 1140.5,-56.5"/>
<text text-anchor="middle" x="1186.5" y="-63.5" font-family="Helvetica,sans-Serif" font-size="10.00">TurbineFast.cpp</text>
</a>
</g>
</g>
<!-- Node17&#45;&gt;Node18 -->
<g id="edge21" class="edge">
<title>Node17&#45;&gt;Node18</title>
<path fill="none" stroke="midnightblue" d="M1147.79,-105C1157.54,-95.43 1169.55,-83.64 1177.59,-75.75"/>
<polygon fill="midnightblue" stroke="midnightblue" points="1145.27,-102.58 1140.58,-112.08 1150.17,-107.57 1145.27,-102.58"/>
</g>
<!-- Node19&#45;&gt;Node20 -->
<g id="edge23" class="edge">
<title>Node19&#45;&gt;Node20</title>
<path fill="none" stroke="midnightblue" d="M940.74,-107.86C920.34,-97.85 892.83,-84.35 875.13,-75.65"/>
<polygon fill="midnightblue" stroke="midnightblue" points="939.31,-111.06 949.83,-112.32 942.39,-104.78 939.31,-111.06"/>
</g>
<!-- Node22 -->
<g id="node22" class="node">
<title>Node22</title>
<g id="a_node22"><a xlink:href="flat__plate__ops_8_h.html" target="_top" xlink:title=" ">
<polygon fill="white" stroke="black" points="1027,-56.5 1027,-75.5 1122,-75.5 1122,-56.5 1027,-56.5"/>
<text text-anchor="middle" x="1074.5" y="-63.5" font-family="Helvetica,sans-Serif" font-size="10.00">flat_plate_ops.H</text>
</a>
</g>
</g>
<!-- Node19&#45;&gt;Node22 -->
<g id="edge25" class="edge">
<title>Node19&#45;&gt;Node22</title>
<path fill="none" stroke="midnightblue" d="M993.8,-107.73C1013.61,-97.73 1040.21,-84.31 1057.35,-75.65"/>
<polygon fill="midnightblue" stroke="midnightblue" points="992.04,-104.69 984.69,-112.32 995.2,-110.94 992.04,-104.69"/>
</g>
<!-- Node24 -->
<g id="node24" class="node">
<title>Node24</title>
<g id="a_node24"><a xlink:href="wing__ops_8cpp.html" target="_top" xlink:title=" ">
<polygon fill="white" stroke="black" points="926,-56.5 926,-75.5 1009,-75.5 1009,-56.5 926,-56.5"/>
<text text-anchor="middle" x="967.5" y="-63.5" font-family="Helvetica,sans-Serif" font-size="10.00">wing_ops.cpp</text>
</a>
</g>
</g>
<!-- Node19&#45;&gt;Node24 -->
<g id="edge27" class="edge">
<title>Node19&#45;&gt;Node24</title>
<path fill="none" stroke="midnightblue" d="M967.5,-101.8C967.5,-92.91 967.5,-82.78 967.5,-75.75"/>
<polygon fill="midnightblue" stroke="midnightblue" points="964,-102.08 967.5,-112.08 971,-102.08 964,-102.08"/>
</g>
<!-- Node21 -->
<g id="node21" class="node">
<title>Node21</title>
<g id="a_node21"><a xlink:href="_fixed_wing_8cpp.html" target="_top" xlink:title=" ">
<polygon fill="white" stroke="black" points="814,-0.5 814,-19.5 901,-19.5 901,-0.5 814,-0.5"/>
<text text-anchor="middle" x="857.5" y="-7.5" font-family="Helvetica,sans-Serif" font-size="10.00">FixedWing.cpp</text>
</a>
</g>
</g>
<!-- Node20&#45;&gt;Node21 -->
<g id="edge24" class="edge">
<title>Node20&#45;&gt;Node21</title>
<path fill="none" stroke="midnightblue" d="M857.5,-45.8C857.5,-36.91 857.5,-26.78 857.5,-19.75"/>
<polygon fill="midnightblue" stroke="midnightblue" points="854,-46.08 857.5,-56.08 861,-46.08 854,-46.08"/>
</g>
<!-- Node23 -->
<g id="node23" class="node">
<title>Node23</title>
<g id="a_node23"><a xlink:href="_flat_plate_8cpp.html" target="_top" xlink:title=" ">
<polygon fill="white" stroke="black" points="1034.5,-0.5 1034.5,-19.5 1114.5,-19.5 1114.5,-0.5 1034.5,-0.5"/>
<text text-anchor="middle" x="1074.5" y="-7.5" font-family="Helvetica,sans-Serif" font-size="10.00">FlatPlate.cpp</text>
</a>
</g>
</g>
<!-- Node22&#45;&gt;Node23 -->
<g id="edge26" class="edge">
<title>Node22&#45;&gt;Node23</title>
<path fill="none" stroke="midnightblue" d="M1074.5,-45.8C1074.5,-36.91 1074.5,-26.78 1074.5,-19.75"/>
<polygon fill="midnightblue" stroke="midnightblue" points="1071,-46.08 1074.5,-56.08 1078,-46.08 1071,-46.08"/>
</g>
</g>
</svg>
        <g id="navigator" transform="translate(0 0)" fill="#404254">
                <rect fill="#f2f5e9" fill-opacity="0.5" stroke="#606060" stroke-width=".5" x="0" y="0" width="60" height="60"/>
                <use id="zoomplus" xlink:href="#zoomPlus" x="17" y="9" onmousedown="handleZoom(evt,'in')"/>
                <use id="zoomminus" xlink:href="#zoomMin" x="42" y="9" onmousedown="handleZoom(evt,'out')"/>
                <use id="reset" xlink:href="#resetDef" x="30" y="36" onmousedown="handleReset()"/>
                <g id="arrowUp" xlink:href="#dirArrow" transform="translate(30 24)" onmousedown="handlePan(0,-1)">
                  <use xlink:href="#rim" fill="#404040">
                        <set attributeName="fill" to="#808080" begin="arrowUp.mouseover" end="arrowUp.mouseout"/>
                  </use>
                  <path fill="none" stroke="white" stroke-width="1.5" d="M0,-3.0v7 M-2.5,-0.5L0,-3.0L2.5,-0.5"/>
                </g>
                <g id="arrowRight" xlink:href="#dirArrow" transform="rotate(90) translate(36 -43)" onmousedown="handlePan(1,0)">
                  <use xlink:href="#rim" fill="#404040">
                        <set attributeName="fill" to="#808080" begin="arrowRight.mouseover" end="arrowRight.mouseout"/>
                  </use>
                  <path fill="none" stroke="white" stroke-width="1.5" d="M0,-3.0v7 M-2.5,-0.5L0,-3.0L2.5,-0.5"/>
                </g>
                <g id="arrowDown" xlink:href="#dirArrow" transform="rotate(180) translate(-30 -48)" onmousedown="handlePan(0,1)">
                  <use xlink:href="#rim" fill="#404040">
                        <set attributeName="fill" to="#808080" begin="arrowDown.mouseover" end="arrowDown.mouseout"/>
                  </use>
                  <path fill="none" stroke="white" stroke-width="1.5" d="M0,-3.0v7 M-2.5,-0.5L0,-3.0L2.5,-0.5"/>
                </g>
                <g id="arrowLeft" xlink:href="#dirArrow" transform="rotate(270) translate(-36 17)" onmousedown="handlePan(-1,0)">
                  <use xlink:href="#rim" fill="#404040">
                        <set attributeName="fill" to="#808080" begin="arrowLeft.mouseover" end="arrowLeft.mouseout"/>
                  </use>
                  <path fill="none" stroke="white" stroke-width="1.5" d="M0,-3.0v7 M-2.5,-0.5L0,-3.0L2.5,-0.5"/>
                </g>
        </g>
        <svg viewBox="0 0 15 15" width="100%" height="30px" preserveAspectRatio="xMaxYMin meet">
         <g id="arrow_out" transform="scale(0.3 0.3)">
          <a xlink:href="linear__interpolation_8_h__dep__incl_org.svg" target="_base">
           <rect id="button" ry="5" rx="5" y="6" x="6" height="38" width="38"
                fill="#f2f5e9" fill-opacity="0.5" stroke="#606060" stroke-width="1.0"/>
           <path id="arrow"
             d="M 11.500037,31.436501 C 11.940474,20.09759 22.043105,11.32322 32.158766,21.979434 L 37.068811,17.246167 C 37.068811,17.246167 37.088388,32 37.088388,32 L 22.160133,31.978069 C 22.160133,31.978069 26.997745,27.140456 26.997745,27.140456 C 18.528582,18.264221 13.291696,25.230495 11.500037,31.436501 z"
             style="fill:#404040;"/>
          </a>
         </g>
        </svg>
</svg>
