<?xml version="1.0" encoding="UTF-8" standalone="no"?>
<!DOCTYPE svg PUBLIC "-//W3C//DTD SVG 1.1//EN"
 "http://www.w3.org/Graphics/SVG/1.1/DTD/svg11.dtd">
<!-- Generated by graphviz version 2.43.0 (0)
 -->
<!-- Title: nc_interface.H Pages: 1 -->
<!--zoomable 319 -->
<svg id="main" version="1.1" xmlns="http://www.w3.org/2000/svg" xmlns:xlink="http://www.w3.org/1999/xlink" xml:space="preserve" onload="init(evt)">
<style type="text/css"><![CDATA[
.edge:hover path { stroke: red; }
.edge:hover polygon { stroke: red; fill: red; }
]]></style>
<script type="text/javascript"><![CDATA[
var edges = document.getElementsByTagName('g');
if (edges && edges.length) {
  for (var i=0;i<edges.length;i++) {
    if (edges[i].id.substr(0,4)=='edge') {
      edges[i].setAttribute('class','edge');
    }
  }
}
]]></script>
        <defs>
                <circle id="rim" cx="0" cy="0" r="7"/>
                <circle id="rim2" cx="0" cy="0" r="3.5"/>
                <g id="zoomPlus">
                        <use xlink:href="#rim" fill="#404040">
                                <set attributeName="fill" to="#808080" begin="zoomplus.mouseover" end="zoomplus.mouseout"/>
                        </use>
                        <path d="M-4,0h8M0,-4v8" fill="none" stroke="white" stroke-width="1.5" pointer-events="none"/>
                </g>
                <g id="zoomMin">
                        <use xlink:href="#rim" fill="#404040">
                                <set attributeName="fill" to="#808080" begin="zoomminus.mouseover" end="zoomminus.mouseout"/>
                        </use>
                        <path d="M-4,0h8" fill="none" stroke="white" stroke-width="1.5" pointer-events="none"/>
                </g>
                <g id="dirArrow">
                        <path fill="none" stroke="white" stroke-width="1.5" d="M0,-3.0v7 M-2.5,-0.5L0,-3.0L2.5,-0.5"/>
                </g>
               <g id="resetDef">
                       <use xlink:href="#rim2" fill="#404040">
                               <set attributeName="fill" to="#808080" begin="reset.mouseover" end="reset.mouseout"/>
                       </use>
               </g>
        </defs>

<script type="text/javascript">
var viewWidth = 2601;
var viewHeight = 319;
var sectionId = 'dynsection-1';
</script>
<script xlink:href="svgpan.js"/>
<svg id="graph" class="graph">
<g id="viewport">
<title>nc_interface.H</title>
<polygon fill="white" stroke="transparent" points="-4,4 -4,-315 2596.5,-315 2596.5,4 -4,4"/>
<!-- Node1 -->
<g id="node1" class="node">
<title>Node1</title>
<g id="a_node1"><a xlink:title="Interface to NetCDF library.">
<polygon fill="#bfbfbf" stroke="black" points="1189.5,-291.5 1189.5,-310.5 1276.5,-310.5 1276.5,-291.5 1189.5,-291.5"/>
<text text-anchor="middle" x="1233" y="-298.5" font-family="Helvetica,sans-Serif" font-size="10.00">nc_interface.H</text>
</a>
</g>
</g>
<!-- Node2 -->
<g id="node2" class="node">
<title>Node2</title>
<g id="a_node2"><a xlink:href="bluff__body__ops_8cpp.html" target="_top" xlink:title=" ">
<polygon fill="white" stroke="black" points="0,-235.5 0,-254.5 110,-254.5 110,-235.5 0,-235.5"/>
<text text-anchor="middle" x="55" y="-242.5" font-family="Helvetica,sans-Serif" font-size="10.00">bluff_body_ops.cpp</text>
</a>
</g>
</g>
<!-- Node1&#45;&gt;Node2 -->
<g id="edge1" class="edge">
<title>Node1&#45;&gt;Node2</title>
<path fill="none" stroke="midnightblue" d="M1179.24,-299.72C1018.17,-298.47 525.51,-291.7 119,-255 116.09,-254.74 113.12,-254.44 110.12,-254.11"/>
<polygon fill="midnightblue" stroke="midnightblue" points="1179.34,-303.22 1189.37,-299.79 1179.4,-296.22 1179.34,-303.22"/>
</g>
<!-- Node3 -->
<g id="node3" class="node">
<title>Node3</title>
<g id="a_node3"><a xlink:href="relaxation__zones__ops_8cpp.html" target="_top" xlink:title=" ">
<polygon fill="white" stroke="black" points="128.5,-235.5 128.5,-254.5 271.5,-254.5 271.5,-235.5 128.5,-235.5"/>
<text text-anchor="middle" x="200" y="-242.5" font-family="Helvetica,sans-Serif" font-size="10.00">relaxation_zones_ops.cpp</text>
</a>
</g>
</g>
<!-- Node1&#45;&gt;Node3 -->
<g id="edge2" class="edge">
<title>Node1&#45;&gt;Node3</title>
<path fill="none" stroke="midnightblue" d="M1178.82,-298.67C1033.23,-294.84 621.49,-282.24 280,-255 277.21,-254.78 274.37,-254.54 271.51,-254.28"/>
<polygon fill="midnightblue" stroke="midnightblue" points="1179.15,-302.18 1189.24,-298.94 1179.34,-295.18 1179.15,-302.18"/>
</g>
<!-- Node4 -->
<g id="node4" class="node">
<title>Node4</title>
<g id="a_node4"><a xlink:href="_synthetic_turbulence_8cpp.html" target="_top" xlink:title=" ">
<polygon fill="white" stroke="black" points="289.5,-235.5 289.5,-254.5 424.5,-254.5 424.5,-235.5 289.5,-235.5"/>
<text text-anchor="middle" x="357" y="-242.5" font-family="Helvetica,sans-Serif" font-size="10.00">SyntheticTurbulence.cpp</text>
</a>
</g>
</g>
<!-- Node1&#45;&gt;Node4 -->
<g id="edge3" class="edge">
<title>Node1&#45;&gt;Node4</title>
<path fill="none" stroke="midnightblue" d="M1179.12,-298.12C1050.1,-293.36 713.31,-279.46 433,-255 430.22,-254.76 427.39,-254.49 424.52,-254.22"/>
<polygon fill="midnightblue" stroke="midnightblue" points="1179.02,-301.62 1189.14,-298.48 1179.27,-294.62 1179.02,-301.62"/>
</g>
<!-- Node5 -->
<g id="node5" class="node">
<title>Node5</title>
<g id="a_node5"><a xlink:href="_i_o_manager_8cpp.html" target="_top" xlink:title=" ">
<polygon fill="white" stroke="black" points="442.5,-235.5 442.5,-254.5 531.5,-254.5 531.5,-235.5 442.5,-235.5"/>
<text text-anchor="middle" x="487" y="-242.5" font-family="Helvetica,sans-Serif" font-size="10.00">IOManager.cpp</text>
</a>
</g>
</g>
<!-- Node1&#45;&gt;Node5 -->
<g id="edge4" class="edge">
<title>Node1&#45;&gt;Node5</title>
<path fill="none" stroke="midnightblue" d="M1179.38,-298.41C1062.76,-294.53 777.42,-282.79 540,-255 537.31,-254.69 534.55,-254.33 531.77,-253.94"/>
<polygon fill="midnightblue" stroke="midnightblue" points="1179.37,-301.91 1189.48,-298.74 1179.6,-294.91 1179.37,-301.91"/>
</g>
<!-- Node6 -->
<g id="node6" class="node">
<title>Node6</title>
<g id="a_node6"><a xlink:href="nc__interface_8cpp.html" target="_top" xlink:title=" ">
<polygon fill="white" stroke="black" points="549.5,-235.5 549.5,-254.5 646.5,-254.5 646.5,-235.5 549.5,-235.5"/>
<text text-anchor="middle" x="598" y="-242.5" font-family="Helvetica,sans-Serif" font-size="10.00">nc_interface.cpp</text>
</a>
</g>
</g>
<!-- Node1&#45;&gt;Node6 -->
<g id="edge5" class="edge">
<title>Node1&#45;&gt;Node6</title>
<path fill="none" stroke="midnightblue" d="M1179.4,-297.19C1077.31,-291.52 848.02,-277.35 656,-255 652.96,-254.65 649.84,-254.25 646.7,-253.83"/>
<polygon fill="midnightblue" stroke="midnightblue" points="1179.28,-300.68 1189.46,-297.74 1179.67,-293.7 1179.28,-300.68"/>
</g>
<!-- Node7 -->
<g id="node7" class="node">
<title>Node7</title>
<g id="a_node7"><a xlink:href="_enstrophy_8cpp.html" target="_top" xlink:title=" ">
<polygon fill="white" stroke="black" points="665,-235.5 665,-254.5 749,-254.5 749,-235.5 665,-235.5"/>
<text text-anchor="middle" x="707" y="-242.5" font-family="Helvetica,sans-Serif" font-size="10.00">Enstrophy.cpp</text>
</a>
</g>
</g>
<!-- Node1&#45;&gt;Node7 -->
<g id="edge6" class="edge">
<title>Node1&#45;&gt;Node7</title>
<path fill="none" stroke="midnightblue" d="M1179.28,-296.32C1091.09,-289.97 910.19,-275.6 758,-255 755.15,-254.61 752.21,-254.18 749.26,-253.73"/>
<polygon fill="midnightblue" stroke="midnightblue" points="1179.09,-299.82 1189.32,-297.04 1179.59,-292.84 1179.09,-299.82"/>
</g>
<!-- Node8 -->
<g id="node8" class="node">
<title>Node8</title>
<g id="a_node8"><a xlink:href="_field_norms_8cpp.html" target="_top" xlink:title=" ">
<polygon fill="white" stroke="black" points="767,-235.5 767,-254.5 859,-254.5 859,-235.5 767,-235.5"/>
<text text-anchor="middle" x="813" y="-242.5" font-family="Helvetica,sans-Serif" font-size="10.00">FieldNorms.cpp</text>
</a>
</g>
</g>
<!-- Node1&#45;&gt;Node8 -->
<g id="edge7" class="edge">
<title>Node1&#45;&gt;Node8</title>
<path fill="none" stroke="midnightblue" d="M1179.3,-294.05C1108.05,-286.01 978.39,-270.83 868,-255 865.13,-254.59 862.17,-254.15 859.19,-253.69"/>
<polygon fill="midnightblue" stroke="midnightblue" points="1179.05,-297.55 1189.38,-295.19 1179.84,-290.59 1179.05,-297.55"/>
</g>
<!-- Node9 -->
<g id="node9" class="node">
<title>Node9</title>
<g id="a_node9"><a xlink:href="_free_surface_8cpp.html" target="_top" xlink:title=" ">
<polygon fill="white" stroke="black" points="877.5,-235.5 877.5,-254.5 972.5,-254.5 972.5,-235.5 877.5,-235.5"/>
<text text-anchor="middle" x="925" y="-242.5" font-family="Helvetica,sans-Serif" font-size="10.00">FreeSurface.cpp</text>
</a>
</g>
</g>
<!-- Node1&#45;&gt;Node9 -->
<g id="edge8" class="edge">
<title>Node1&#45;&gt;Node9</title>
<path fill="none" stroke="midnightblue" d="M1179.07,-290.54C1120.7,-280.31 1028.51,-264.15 972.7,-254.36"/>
<polygon fill="midnightblue" stroke="midnightblue" points="1178.74,-294.04 1189.2,-292.32 1179.95,-287.15 1178.74,-294.04"/>
</g>
<!-- Node10 -->
<g id="node10" class="node">
<title>Node10</title>
<g id="a_node10"><a xlink:href="_kinetic_energy_8cpp.html" target="_top" xlink:title=" ">
<polygon fill="white" stroke="black" points="990.5,-235.5 990.5,-254.5 1093.5,-254.5 1093.5,-235.5 990.5,-235.5"/>
<text text-anchor="middle" x="1042" y="-242.5" font-family="Helvetica,sans-Serif" font-size="10.00">KineticEnergy.cpp</text>
</a>
</g>
</g>
<!-- Node1&#45;&gt;Node10 -->
<g id="edge9" class="edge">
<title>Node1&#45;&gt;Node10</title>
<path fill="none" stroke="midnightblue" d="M1193.03,-288.7C1156.98,-278.51 1104.76,-263.74 1072.12,-254.52"/>
<polygon fill="midnightblue" stroke="midnightblue" points="1192.16,-292.09 1202.74,-291.44 1194.06,-285.35 1192.16,-292.09"/>
</g>
<!-- Node11 -->
<g id="node11" class="node">
<title>Node11</title>
<g id="a_node11"><a xlink:href="_sampler_base_8_h.html" target="_top" xlink:title=" ">
<polygon fill="white" stroke="black" points="1150,-235.5 1150,-254.5 1242,-254.5 1242,-235.5 1150,-235.5"/>
<text text-anchor="middle" x="1196" y="-242.5" font-family="Helvetica,sans-Serif" font-size="10.00">SamplerBase.H</text>
</a>
</g>
</g>
<!-- Node1&#45;&gt;Node11 -->
<g id="edge10" class="edge">
<title>Node1&#45;&gt;Node11</title>
<path fill="none" stroke="midnightblue" d="M1221.05,-282.57C1214.69,-273.27 1207.13,-262.25 1202,-254.75"/>
<polygon fill="midnightblue" stroke="midnightblue" points="1218.35,-284.81 1226.89,-291.08 1224.13,-280.86 1218.35,-284.81"/>
</g>
<!-- Node23 -->
<g id="node23" class="node">
<title>Node23</title>
<g id="a_node23"><a xlink:href="_sampling_8cpp.html" target="_top" xlink:title=" ">
<polygon fill="white" stroke="black" points="661.5,-118 661.5,-137 744.5,-137 744.5,-118 661.5,-118"/>
<text text-anchor="middle" x="703" y="-125" font-family="Helvetica,sans-Serif" font-size="10.00">Sampling.cpp</text>
</a>
</g>
</g>
<!-- Node1&#45;&gt;Node23 -->
<g id="edge26" class="edge">
<title>Node1&#45;&gt;Node23</title>
<path fill="none" stroke="midnightblue" d="M1206.09,-287C1187.71,-278.09 1162.83,-265.94 1141,-255 1123.58,-246.28 1120.72,-240.4 1102,-235 1014.55,-209.77 755.47,-266.13 694,-199 678.33,-181.89 690.53,-151.89 698.12,-137.16"/>
<polygon fill="midnightblue" stroke="midnightblue" points="1204.79,-290.26 1215.31,-291.47 1207.84,-283.96 1204.79,-290.26"/>
</g>
<!-- Node26 -->
<g id="node26" class="node">
<title>Node26</title>
<g id="a_node26"><a xlink:href="_a_b_l_stats_8cpp.html" target="_top" xlink:title=" ">
<polygon fill="white" stroke="black" points="1277,-118 1277,-137 1357,-137 1357,-118 1277,-118"/>
<text text-anchor="middle" x="1317" y="-125" font-family="Helvetica,sans-Serif" font-size="10.00">ABLStats.cpp</text>
</a>
</g>
</g>
<!-- Node1&#45;&gt;Node26 -->
<g id="edge47" class="edge">
<title>Node1&#45;&gt;Node26</title>
<path fill="none" stroke="midnightblue" d="M1245.13,-282.91C1255.65,-268.9 1271.84,-249.14 1289,-235 1313.88,-214.49 1335.81,-226.89 1352,-199 1364.48,-177.49 1341.53,-150.93 1327.21,-137.37"/>
<polygon fill="midnightblue" stroke="midnightblue" points="1242.17,-281.03 1239.09,-291.17 1247.82,-285.17 1242.17,-281.03"/>
</g>
<!-- Node27 -->
<g id="node27" class="node">
<title>Node27</title>
<g id="a_node27"><a xlink:href="_wave_energy_8cpp.html" target="_top" xlink:title=" ">
<polygon fill="white" stroke="black" points="1298,-235.5 1298,-254.5 1394,-254.5 1394,-235.5 1298,-235.5"/>
<text text-anchor="middle" x="1346" y="-242.5" font-family="Helvetica,sans-Serif" font-size="10.00">WaveEnergy.cpp</text>
</a>
</g>
</g>
<!-- Node1&#45;&gt;Node27 -->
<g id="edge27" class="edge">
<title>Node1&#45;&gt;Node27</title>
<path fill="none" stroke="midnightblue" d="M1260,-287.1C1281.11,-277.01 1309.86,-263.27 1328.18,-254.52"/>
<polygon fill="midnightblue" stroke="midnightblue" points="1258.42,-283.97 1250.91,-291.44 1261.44,-290.29 1258.42,-283.97"/>
</g>
<!-- Node28 -->
<g id="node28" class="node">
<title>Node28</title>
<g id="a_node28"><a xlink:href="_a_b_l_boundary_plane_8cpp.html" target="_top" xlink:title=" ">
<polygon fill="white" stroke="black" points="1375.5,-118 1375.5,-137 1504.5,-137 1504.5,-118 1375.5,-118"/>
<text text-anchor="middle" x="1440" y="-125" font-family="Helvetica,sans-Serif" font-size="10.00">ABLBoundaryPlane.cpp</text>
</a>
</g>
</g>
<!-- Node1&#45;&gt;Node28 -->
<g id="edge28" class="edge">
<title>Node1&#45;&gt;Node28</title>
<path fill="none" stroke="midnightblue" d="M1286.98,-299.05C1324.21,-295.54 1372.32,-284.9 1403,-255 1436.76,-222.1 1440.14,-160.24 1440.18,-137.33"/>
<polygon fill="midnightblue" stroke="midnightblue" points="1286.48,-295.58 1276.79,-299.87 1287.04,-302.56 1286.48,-295.58"/>
</g>
<!-- Node29 -->
<g id="node29" class="node">
<title>Node29</title>
<g id="a_node29"><a xlink:href="_a_b_l_boundary_plane_8_h.html" target="_top" xlink:title=" ">
<polygon fill="white" stroke="black" points="1450.5,-235.5 1450.5,-254.5 1569.5,-254.5 1569.5,-235.5 1450.5,-235.5"/>
<text text-anchor="middle" x="1510" y="-242.5" font-family="Helvetica,sans-Serif" font-size="10.00">ABLBoundaryPlane.H</text>
</a>
</g>
</g>
<!-- Node1&#45;&gt;Node29 -->
<g id="edge29" class="edge">
<title>Node1&#45;&gt;Node29</title>
<path fill="none" stroke="midnightblue" d="M1286.68,-289.53C1339,-279.34 1417.56,-264.02 1466.21,-254.54"/>
<polygon fill="midnightblue" stroke="midnightblue" points="1285.73,-286.15 1276.59,-291.5 1287.07,-293.02 1285.73,-286.15"/>
</g>
<!-- Node42 -->
<g id="node42" class="node">
<title>Node42</title>
<g id="a_node42"><a xlink:href="_a_b_l_field_init_file_8cpp.html" target="_top" xlink:title=" ">
<polygon fill="white" stroke="black" points="1588,-235.5 1588,-254.5 1700,-254.5 1700,-235.5 1588,-235.5"/>
<text text-anchor="middle" x="1644" y="-242.5" font-family="Helvetica,sans-Serif" font-size="10.00">ABLFieldInitFile.cpp</text>
</a>
</g>
</g>
<!-- Node1&#45;&gt;Node42 -->
<g id="edge45" class="edge">
<title>Node1&#45;&gt;Node42</title>
<path fill="none" stroke="midnightblue" d="M1286.76,-293.15C1354.82,-284.44 1475.64,-268.88 1579,-255 1581.94,-254.61 1584.95,-254.2 1587.98,-253.79"/>
<polygon fill="midnightblue" stroke="midnightblue" points="1286.19,-289.69 1276.71,-294.43 1287.07,-296.64 1286.19,-289.69"/>
</g>
<!-- Node43 -->
<g id="node43" class="node">
<title>Node43</title>
<g id="a_node43"><a xlink:href="_a_b_l_modulated_power_law_8cpp.html" target="_top" xlink:title=" ">
<polygon fill="white" stroke="black" points="1718,-235.5 1718,-254.5 1874,-254.5 1874,-235.5 1718,-235.5"/>
<text text-anchor="middle" x="1796" y="-242.5" font-family="Helvetica,sans-Serif" font-size="10.00">ABLModulatedPowerLaw.cpp</text>
</a>
</g>
</g>
<!-- Node1&#45;&gt;Node43 -->
<g id="edge46" class="edge">
<title>Node1&#45;&gt;Node43</title>
<path fill="none" stroke="midnightblue" d="M1286.68,-295.08C1374.85,-286.97 1555.85,-270.16 1709,-255 1711.87,-254.72 1714.8,-254.42 1717.75,-254.13"/>
<polygon fill="midnightblue" stroke="midnightblue" points="1286.29,-291.6 1276.65,-296 1286.93,-298.57 1286.29,-291.6"/>
</g>
<!-- Node44 -->
<g id="node44" class="node">
<title>Node44</title>
<g id="a_node44"><a xlink:href="disk__ops_8cpp.html" target="_top" xlink:title=" ">
<polygon fill="white" stroke="black" points="1892,-235.5 1892,-254.5 1972,-254.5 1972,-235.5 1892,-235.5"/>
<text text-anchor="middle" x="1932" y="-242.5" font-family="Helvetica,sans-Serif" font-size="10.00">disk_ops.cpp</text>
</a>
</g>
</g>
<!-- Node1&#45;&gt;Node44 -->
<g id="edge48" class="edge">
<title>Node1&#45;&gt;Node44</title>
<path fill="none" stroke="midnightblue" d="M1286.84,-298.32C1398.41,-294.4 1662.84,-282.75 1883,-255 1885.92,-254.63 1888.92,-254.2 1891.95,-253.74"/>
<polygon fill="midnightblue" stroke="midnightblue" points="1286.4,-294.84 1276.52,-298.68 1286.64,-301.83 1286.4,-294.84"/>
</g>
<!-- Node45 -->
<g id="node45" class="node">
<title>Node45</title>
<g id="a_node45"><a xlink:href="_joukowsky__ops_8cpp.html" target="_top" xlink:title=" ">
<polygon fill="white" stroke="black" points="1990,-235.5 1990,-254.5 2100,-254.5 2100,-235.5 1990,-235.5"/>
<text text-anchor="middle" x="2045" y="-242.5" font-family="Helvetica,sans-Serif" font-size="10.00">Joukowsky_ops.cpp</text>
</a>
</g>
</g>
<!-- Node1&#45;&gt;Node45 -->
<g id="edge49" class="edge">
<title>Node1&#45;&gt;Node45</title>
<path fill="none" stroke="midnightblue" d="M1286.8,-298.23C1409.92,-293.87 1721.58,-281 1981,-255 1983.9,-254.71 1986.88,-254.38 1989.88,-254.04"/>
<polygon fill="midnightblue" stroke="midnightblue" points="1286.39,-294.75 1276.52,-298.59 1286.64,-301.74 1286.39,-294.75"/>
</g>
<!-- Node46 -->
<g id="node46" class="node">
<title>Node46</title>
<g id="a_node46"><a xlink:href="_fast_iface_8cpp.html" target="_top" xlink:title=" ">
<polygon fill="white" stroke="black" points="2118,-235.5 2118,-254.5 2198,-254.5 2198,-235.5 2118,-235.5"/>
<text text-anchor="middle" x="2158" y="-242.5" font-family="Helvetica,sans-Serif" font-size="10.00">FastIface.cpp</text>
</a>
</g>
</g>
<!-- Node1&#45;&gt;Node46 -->
<g id="edge50" class="edge">
<title>Node1&#45;&gt;Node46</title>
<path fill="none" stroke="midnightblue" d="M1287.2,-299.67C1424.94,-298.29 1799.44,-291.22 2109,-255 2111.92,-254.66 2114.93,-254.25 2117.95,-253.79"/>
<polygon fill="midnightblue" stroke="midnightblue" points="1286.89,-296.17 1276.92,-299.76 1286.95,-303.17 1286.89,-296.17"/>
</g>
<!-- Node47 -->
<g id="node47" class="node">
<title>Node47</title>
<g id="a_node47"><a xlink:href="turbine__utils_8cpp.html" target="_top" xlink:title=" ">
<polygon fill="white" stroke="black" points="2216,-235.5 2216,-254.5 2314,-254.5 2314,-235.5 2216,-235.5"/>
<text text-anchor="middle" x="2265" y="-242.5" font-family="Helvetica,sans-Serif" font-size="10.00">turbine_utils.cpp</text>
</a>
</g>
</g>
<!-- Node1&#45;&gt;Node47 -->
<g id="edge51" class="edge">
<title>Node1&#45;&gt;Node47</title>
<path fill="none" stroke="midnightblue" d="M1286.96,-299.54C1434.59,-297.86 1857.47,-290.09 2207,-255 2209.94,-254.7 2212.96,-254.36 2216,-253.98"/>
<polygon fill="midnightblue" stroke="midnightblue" points="1286.77,-296.05 1276.81,-299.66 1286.85,-303.05 1286.77,-296.05"/>
</g>
<!-- Node48 -->
<g id="node48" class="node">
<title>Node48</title>
<g id="a_node48"><a xlink:href="wing__ops_8cpp.html" target="_top" xlink:title=" ">
<polygon fill="white" stroke="black" points="2332.5,-235.5 2332.5,-254.5 2415.5,-254.5 2415.5,-235.5 2332.5,-235.5"/>
<text text-anchor="middle" x="2374" y="-242.5" font-family="Helvetica,sans-Serif" font-size="10.00">wing_ops.cpp</text>
</a>
</g>
</g>
<!-- Node1&#45;&gt;Node48 -->
<g id="edge52" class="edge">
<title>Node1&#45;&gt;Node48</title>
<path fill="none" stroke="midnightblue" d="M1286.96,-300.31C1446.08,-300.69 1927.03,-297.92 2323,-255 2326.04,-254.67 2329.17,-254.27 2332.32,-253.82"/>
<polygon fill="midnightblue" stroke="midnightblue" points="1286.52,-296.81 1276.51,-300.28 1286.5,-303.81 1286.52,-296.81"/>
</g>
<!-- Node12 -->
<g id="node12" class="node">
<title>Node12</title>
<g id="a_node12"><a xlink:href="_line_sampler_8_h.html" target="_top" xlink:title=" ">
<polygon fill="white" stroke="black" points="1054.5,-179.5 1054.5,-198.5 1141.5,-198.5 1141.5,-179.5 1054.5,-179.5"/>
<text text-anchor="middle" x="1098" y="-186.5" font-family="Helvetica,sans-Serif" font-size="10.00">LineSampler.H</text>
</a>
</g>
</g>
<!-- Node11&#45;&gt;Node12 -->
<g id="edge11" class="edge">
<title>Node11&#45;&gt;Node12</title>
<path fill="none" stroke="midnightblue" d="M1171.41,-230.45C1153.32,-220.48 1129.27,-207.23 1113.71,-198.65"/>
<polygon fill="midnightblue" stroke="midnightblue" points="1169.81,-233.56 1180.25,-235.32 1173.19,-227.43 1169.81,-233.56"/>
</g>
<!-- Node18 -->
<g id="node18" class="node">
<title>Node18</title>
<g id="a_node18"><a xlink:href="_plane_sampler_8_h.html" target="_top" xlink:title=" ">
<polygon fill="white" stroke="black" points="1160,-179.5 1160,-198.5 1254,-198.5 1254,-179.5 1160,-179.5"/>
<text text-anchor="middle" x="1207" y="-186.5" font-family="Helvetica,sans-Serif" font-size="10.00">PlaneSampler.H</text>
</a>
</g>
</g>
<!-- Node11&#45;&gt;Node18 -->
<g id="edge17" class="edge">
<title>Node11&#45;&gt;Node18</title>
<path fill="none" stroke="midnightblue" d="M1199.85,-225.1C1201.68,-216.14 1203.77,-205.86 1205.22,-198.75"/>
<polygon fill="midnightblue" stroke="midnightblue" points="1196.38,-224.59 1197.82,-235.08 1203.24,-225.98 1196.38,-224.59"/>
</g>
<!-- Node20 -->
<g id="node20" class="node">
<title>Node20</title>
<g id="a_node20"><a xlink:href="_probe_sampler_8_h.html" target="_top" xlink:title=" ">
<polygon fill="white" stroke="black" points="794.5,-179.5 794.5,-198.5 889.5,-198.5 889.5,-179.5 794.5,-179.5"/>
<text text-anchor="middle" x="842" y="-186.5" font-family="Helvetica,sans-Serif" font-size="10.00">ProbeSampler.H</text>
</a>
</g>
</g>
<!-- Node11&#45;&gt;Node20 -->
<g id="edge19" class="edge">
<title>Node11&#45;&gt;Node20</title>
<path fill="none" stroke="midnightblue" d="M1139.48,-235.5C1059.75,-223.49 921.32,-202.63 898,-199 895.28,-198.58 892.48,-198.14 889.65,-197.69"/>
<polygon fill="midnightblue" stroke="midnightblue" points="1139.44,-239.03 1149.85,-237.06 1140.49,-232.11 1139.44,-239.03"/>
</g>
<!-- Node22 -->
<g id="node22" class="node">
<title>Node22</title>
<g id="a_node22"><a xlink:href="_sampling_8_h.html" target="_top" xlink:title=" ">
<polygon fill="white" stroke="black" points="703.5,-179.5 703.5,-198.5 776.5,-198.5 776.5,-179.5 703.5,-179.5"/>
<text text-anchor="middle" x="740" y="-186.5" font-family="Helvetica,sans-Serif" font-size="10.00">Sampling.H</text>
</a>
</g>
</g>
<!-- Node11&#45;&gt;Node22 -->
<g id="edge21" class="edge">
<title>Node11&#45;&gt;Node22</title>
<path fill="none" stroke="midnightblue" d="M1139.83,-235.49C1138.54,-235.32 1137.26,-235.16 1136,-235 980.42,-215.36 940.06,-222.4 785,-199 782.32,-198.6 779.56,-198.14 776.79,-197.65"/>
<polygon fill="midnightblue" stroke="midnightblue" points="1139.46,-238.97 1149.84,-236.85 1140.41,-232.04 1139.46,-238.97"/>
</g>
<!-- Node24 -->
<g id="node24" class="node">
<title>Node24</title>
<g id="a_node24"><a xlink:href="_sampling_container_8cpp.html" target="_top" xlink:title=" ">
<polygon fill="white" stroke="black" points="907.5,-179.5 907.5,-198.5 1036.5,-198.5 1036.5,-179.5 907.5,-179.5"/>
<text text-anchor="middle" x="972" y="-186.5" font-family="Helvetica,sans-Serif" font-size="10.00">SamplingContainer.cpp</text>
</a>
</g>
</g>
<!-- Node11&#45;&gt;Node24 -->
<g id="edge23" class="edge">
<title>Node11&#45;&gt;Node24</title>
<path fill="none" stroke="midnightblue" d="M1150.74,-233.09C1108.42,-222.89 1046.09,-207.86 1007.33,-198.52"/>
<polygon fill="midnightblue" stroke="midnightblue" points="1149.96,-236.5 1160.51,-235.44 1151.61,-229.7 1149.96,-236.5"/>
</g>
<!-- Node25 -->
<g id="node25" class="node">
<title>Node25</title>
<g id="a_node25"><a xlink:href="_a_b_l_stats_8_h.html" target="_top" xlink:title=" ">
<polygon fill="white" stroke="black" points="1272.5,-179.5 1272.5,-198.5 1343.5,-198.5 1343.5,-179.5 1272.5,-179.5"/>
<text text-anchor="middle" x="1308" y="-186.5" font-family="Helvetica,sans-Serif" font-size="10.00">ABLStats.H</text>
</a>
</g>
</g>
<!-- Node11&#45;&gt;Node25 -->
<g id="edge24" class="edge">
<title>Node11&#45;&gt;Node25</title>
<path fill="none" stroke="midnightblue" d="M1223.25,-230.86C1244.02,-220.85 1272.02,-207.35 1290.05,-198.65"/>
<polygon fill="midnightblue" stroke="midnightblue" points="1221.48,-227.83 1213.99,-235.32 1224.52,-234.13 1221.48,-227.83"/>
</g>
<!-- Node13 -->
<g id="node13" class="node">
<title>Node13</title>
<g id="a_node13"><a xlink:href="_lidar_sampler_8_h.html" target="_top" xlink:title=" ">
<polygon fill="white" stroke="black" points="930.5,-118 930.5,-137 1021.5,-137 1021.5,-118 930.5,-118"/>
<text text-anchor="middle" x="976" y="-125" font-family="Helvetica,sans-Serif" font-size="10.00">LidarSampler.H</text>
</a>
</g>
</g>
<!-- Node12&#45;&gt;Node13 -->
<g id="edge12" class="edge">
<title>Node12&#45;&gt;Node13</title>
<path fill="none" stroke="midnightblue" d="M1071.39,-175.02C1047.73,-163.48 1013.82,-146.94 993.45,-137.01"/>
<polygon fill="midnightblue" stroke="midnightblue" points="1070,-178.24 1080.52,-179.48 1073.07,-171.95 1070,-178.24"/>
</g>
<!-- Node17 -->
<g id="node17" class="node">
<title>Node17</title>
<g id="a_node17"><a xlink:href="_line_sampler_8cpp.html" target="_top" xlink:title=" ">
<polygon fill="white" stroke="black" points="1039.5,-118 1039.5,-137 1136.5,-137 1136.5,-118 1039.5,-118"/>
<text text-anchor="middle" x="1088" y="-125" font-family="Helvetica,sans-Serif" font-size="10.00">LineSampler.cpp</text>
</a>
</g>
</g>
<!-- Node12&#45;&gt;Node17 -->
<g id="edge16" class="edge">
<title>Node12&#45;&gt;Node17</title>
<path fill="none" stroke="midnightblue" d="M1094.86,-169.32C1093.04,-158.5 1090.84,-145.4 1089.43,-137.01"/>
<polygon fill="midnightblue" stroke="midnightblue" points="1091.46,-170.19 1096.57,-179.48 1098.36,-169.03 1091.46,-170.19"/>
</g>
<!-- Node14 -->
<g id="node14" class="node">
<title>Node14</title>
<g id="a_node14"><a xlink:href="_d_t_u_spinner_sampler_8_h.html" target="_top" xlink:title=" ">
<polygon fill="white" stroke="black" points="847.5,-56.5 847.5,-75.5 972.5,-75.5 972.5,-56.5 847.5,-56.5"/>
<text text-anchor="middle" x="910" y="-63.5" font-family="Helvetica,sans-Serif" font-size="10.00">DTUSpinnerSampler.H</text>
</a>
</g>
</g>
<!-- Node13&#45;&gt;Node14 -->
<g id="edge13" class="edge">
<title>Node13&#45;&gt;Node14</title>
<path fill="none" stroke="midnightblue" d="M958.97,-111.15C946.39,-99.81 929.72,-84.78 919.44,-75.51"/>
<polygon fill="midnightblue" stroke="midnightblue" points="956.77,-113.88 966.54,-117.98 961.46,-108.68 956.77,-113.88"/>
</g>
<!-- Node16 -->
<g id="node16" class="node">
<title>Node16</title>
<g id="a_node16"><a xlink:href="_lidar_sampler_8cpp.html" target="_top" xlink:title=" ">
<polygon fill="white" stroke="black" points="990.5,-56.5 990.5,-75.5 1091.5,-75.5 1091.5,-56.5 990.5,-56.5"/>
<text text-anchor="middle" x="1041" y="-63.5" font-family="Helvetica,sans-Serif" font-size="10.00">LidarSampler.cpp</text>
</a>
</g>
</g>
<!-- Node13&#45;&gt;Node16 -->
<g id="edge15" class="edge">
<title>Node13&#45;&gt;Node16</title>
<path fill="none" stroke="midnightblue" d="M992.77,-111.15C1005.16,-99.81 1021.58,-84.78 1031.7,-75.51"/>
<polygon fill="midnightblue" stroke="midnightblue" points="990.33,-108.64 985.31,-117.98 995.05,-113.8 990.33,-108.64"/>
</g>
<!-- Node15 -->
<g id="node15" class="node">
<title>Node15</title>
<g id="a_node15"><a xlink:href="_d_t_u_spinner_sampler_8cpp.html" target="_top" xlink:title=" ">
<polygon fill="white" stroke="black" points="843,-0.5 843,-19.5 977,-19.5 977,-0.5 843,-0.5"/>
<text text-anchor="middle" x="910" y="-7.5" font-family="Helvetica,sans-Serif" font-size="10.00">DTUSpinnerSampler.cpp</text>
</a>
</g>
</g>
<!-- Node14&#45;&gt;Node15 -->
<g id="edge14" class="edge">
<title>Node14&#45;&gt;Node15</title>
<path fill="none" stroke="midnightblue" d="M910,-45.8C910,-36.91 910,-26.78 910,-19.75"/>
<polygon fill="midnightblue" stroke="midnightblue" points="906.5,-46.08 910,-56.08 913.5,-46.08 906.5,-46.08"/>
</g>
<!-- Node19 -->
<g id="node19" class="node">
<title>Node19</title>
<g id="a_node19"><a xlink:href="_plane_sampler_8cpp.html" target="_top" xlink:title=" ">
<polygon fill="white" stroke="black" points="1155,-118 1155,-137 1259,-137 1259,-118 1155,-118"/>
<text text-anchor="middle" x="1207" y="-125" font-family="Helvetica,sans-Serif" font-size="10.00">PlaneSampler.cpp</text>
</a>
</g>
</g>
<!-- Node18&#45;&gt;Node19 -->
<g id="edge18" class="edge">
<title>Node18&#45;&gt;Node19</title>
<path fill="none" stroke="midnightblue" d="M1207,-169.32C1207,-158.5 1207,-145.4 1207,-137.01"/>
<polygon fill="midnightblue" stroke="midnightblue" points="1203.5,-169.48 1207,-179.48 1210.5,-169.48 1203.5,-169.48"/>
</g>
<!-- Node21 -->
<g id="node21" class="node">
<title>Node21</title>
<g id="a_node21"><a xlink:href="_probe_sampler_8cpp.html" target="_top" xlink:title=" ">
<polygon fill="white" stroke="black" points="790,-118 790,-137 894,-137 894,-118 790,-118"/>
<text text-anchor="middle" x="842" y="-125" font-family="Helvetica,sans-Serif" font-size="10.00">ProbeSampler.cpp</text>
</a>
</g>
</g>
<!-- Node20&#45;&gt;Node21 -->
<g id="edge20" class="edge">
<title>Node20&#45;&gt;Node21</title>
<path fill="none" stroke="midnightblue" d="M842,-169.32C842,-158.5 842,-145.4 842,-137.01"/>
<polygon fill="midnightblue" stroke="midnightblue" points="838.5,-169.48 842,-179.48 845.5,-169.48 838.5,-169.48"/>
</g>
<!-- Node22&#45;&gt;Node23 -->
<g id="edge22" class="edge">
<title>Node22&#45;&gt;Node23</title>
<path fill="none" stroke="midnightblue" d="M729.22,-170.67C722.34,-159.61 713.73,-145.75 708.29,-137.01"/>
<polygon fill="midnightblue" stroke="midnightblue" points="726.45,-172.83 734.7,-179.48 732.39,-169.13 726.45,-172.83"/>
</g>
<!-- Node25&#45;&gt;Node26 -->
<g id="edge25" class="edge">
<title>Node25&#45;&gt;Node26</title>
<path fill="none" stroke="midnightblue" d="M1310.83,-169.32C1312.46,-158.5 1314.44,-145.4 1315.71,-137.01"/>
<polygon fill="midnightblue" stroke="midnightblue" points="1307.32,-169.06 1309.29,-179.48 1314.25,-170.11 1307.32,-169.06"/>
</g>
<!-- Node29&#45;&gt;Node28 -->
<g id="edge41" class="edge">
<title>Node29&#45;&gt;Node28</title>
<path fill="none" stroke="midnightblue" d="M1498.27,-227.03C1492.6,-218.68 1485.8,-208.41 1480,-199 1466.57,-177.19 1452.02,-150.76 1444.73,-137.3"/>
<polygon fill="midnightblue" stroke="midnightblue" points="1495.53,-229.22 1504.06,-235.49 1501.3,-225.26 1495.53,-229.22"/>
</g>
<!-- Node30 -->
<g id="node30" class="node">
<title>Node30</title>
<g id="a_node30"><a xlink:href="_a_b_l_8cpp.html" target="_top" xlink:title=" ">
<polygon fill="white" stroke="black" points="1639,-118 1639,-137 1695,-137 1695,-118 1639,-118"/>
<text text-anchor="middle" x="1667" y="-125" font-family="Helvetica,sans-Serif" font-size="10.00">ABL.cpp</text>
</a>
</g>
</g>
<!-- Node29&#45;&gt;Node30 -->
<g id="edge30" class="edge">
<title>Node29&#45;&gt;Node30</title>
<path fill="none" stroke="midnightblue" d="M1535.73,-230.6C1551.08,-222.21 1570.68,-210.79 1587,-199 1614.61,-179.05 1643.86,-151.36 1658.13,-137.36"/>
<polygon fill="midnightblue" stroke="midnightblue" points="1533.95,-227.58 1526.8,-235.4 1537.26,-233.75 1533.95,-227.58"/>
</g>
<!-- Node31 -->
<g id="node31" class="node">
<title>Node31</title>
<g id="a_node31"><a xlink:href="_a_b_l_8_h.html" target="_top" xlink:title=" ">
<polygon fill="white" stroke="black" points="2057,-179.5 2057,-198.5 2103,-198.5 2103,-179.5 2057,-179.5"/>
<text text-anchor="middle" x="2080" y="-186.5" font-family="Helvetica,sans-Serif" font-size="10.00">ABL.H</text>
</a>
</g>
</g>
<!-- Node29&#45;&gt;Node31 -->
<g id="edge31" class="edge">
<title>Node29&#45;&gt;Node31</title>
<path fill="none" stroke="midnightblue" d="M1580.04,-234.93C1770.81,-214.13 1987.09,-197.08 2057,-191.74"/>
<polygon fill="midnightblue" stroke="midnightblue" points="1579.38,-231.48 1569.82,-236.05 1580.14,-238.44 1579.38,-231.48"/>
</g>
<!-- Node40 -->
<g id="node40" class="node">
<title>Node40</title>
<g id="a_node40"><a xlink:href="_a_b_l_fill_inflow_8_h.html" target="_top" xlink:title=" ">
<polygon fill="white" stroke="black" points="1488.5,-179.5 1488.5,-198.5 1577.5,-198.5 1577.5,-179.5 1488.5,-179.5"/>
<text text-anchor="middle" x="1533" y="-186.5" font-family="Helvetica,sans-Serif" font-size="10.00">ABLFillInflow.H</text>
</a>
</g>
</g>
<!-- Node29&#45;&gt;Node40 -->
<g id="edge42" class="edge">
<title>Node29&#45;&gt;Node40</title>
<path fill="none" stroke="midnightblue" d="M1517.8,-225.69C1521.68,-216.59 1526.18,-206.01 1529.27,-198.75"/>
<polygon fill="midnightblue" stroke="midnightblue" points="1514.5,-224.51 1513.8,-235.08 1520.94,-227.25 1514.5,-224.51"/>
</g>
<!-- Node31&#45;&gt;Node30 -->
<g id="edge39" class="edge">
<title>Node31&#45;&gt;Node30</title>
<path fill="none" stroke="midnightblue" d="M2046.48,-186.84C1980.14,-183.92 1827.81,-174.13 1704,-143 1698.11,-141.52 1691.9,-139.34 1686.28,-137.13"/>
<polygon fill="midnightblue" stroke="midnightblue" points="2046.6,-190.35 2056.74,-187.27 2046.89,-183.35 2046.6,-190.35"/>
</g>
<!-- Node32 -->
<g id="node32" class="node">
<title>Node32</title>
<g id="a_node32"><a xlink:href="_a_b_l_forcing_8cpp.html" target="_top" xlink:title=" ">
<polygon fill="white" stroke="black" points="2501.5,-118 2501.5,-137 2592.5,-137 2592.5,-118 2501.5,-118"/>
<text text-anchor="middle" x="2547" y="-125" font-family="Helvetica,sans-Serif" font-size="10.00">ABLForcing.cpp</text>
</a>
</g>
</g>
<!-- Node31&#45;&gt;Node32 -->
<g id="edge32" class="edge">
<title>Node31&#45;&gt;Node32</title>
<path fill="none" stroke="midnightblue" d="M2113.05,-186.13C2183.43,-181.77 2353.09,-169.25 2493,-143 2501.4,-141.43 2510.4,-139.22 2518.6,-137"/>
<polygon fill="midnightblue" stroke="midnightblue" points="2112.79,-182.64 2103.02,-186.74 2113.21,-189.63 2112.79,-182.64"/>
</g>
<!-- Node33 -->
<g id="node33" class="node">
<title>Node33</title>
<g id="a_node33"><a xlink:href="_a_b_l_mean_boussinesq_8cpp.html" target="_top" xlink:title=" ">
<polygon fill="white" stroke="black" points="1713,-118 1713,-137 1851,-137 1851,-118 1713,-118"/>
<text text-anchor="middle" x="1782" y="-125" font-family="Helvetica,sans-Serif" font-size="10.00">ABLMeanBoussinesq.cpp</text>
</a>
</g>
</g>
<!-- Node31&#45;&gt;Node33 -->
<g id="edge33" class="edge">
<title>Node31&#45;&gt;Node33</title>
<path fill="none" stroke="midnightblue" d="M2046.47,-181.31C1992.07,-170.44 1884.63,-148.99 1824.79,-137.04"/>
<polygon fill="midnightblue" stroke="midnightblue" points="2046.12,-184.81 2056.62,-183.33 2047.5,-177.94 2046.12,-184.81"/>
</g>
<!-- Node34 -->
<g id="node34" class="node">
<title>Node34</title>
<g id="a_node34"><a xlink:href="_hurricane_forcing_8cpp.html" target="_top" xlink:title=" ">
<polygon fill="white" stroke="black" points="1869.5,-118 1869.5,-137 1988.5,-137 1988.5,-118 1869.5,-118"/>
<text text-anchor="middle" x="1929" y="-125" font-family="Helvetica,sans-Serif" font-size="10.00">HurricaneForcing.cpp</text>
</a>
</g>
</g>
<!-- Node31&#45;&gt;Node34 -->
<g id="edge34" class="edge">
<title>Node31&#45;&gt;Node34</title>
<path fill="none" stroke="midnightblue" d="M2048.99,-175.78C2019.65,-164.22 1976.37,-147.16 1950.59,-137.01"/>
<polygon fill="midnightblue" stroke="midnightblue" points="2047.78,-179.07 2058.37,-179.48 2050.34,-172.55 2047.78,-179.07"/>
</g>
<!-- Node35 -->
<g id="node35" class="node">
<title>Node35</title>
<g id="a_node35"><a xlink:href="helics_8cpp.html" target="_top" xlink:title=" ">
<polygon fill="white" stroke="black" points="2006.5,-118 2006.5,-137 2071.5,-137 2071.5,-118 2006.5,-118"/>
<text text-anchor="middle" x="2039" y="-125" font-family="Helvetica,sans-Serif" font-size="10.00">helics.cpp</text>
</a>
</g>
</g>
<!-- Node31&#45;&gt;Node35 -->
<g id="edge35" class="edge">
<title>Node31&#45;&gt;Node35</title>
<path fill="none" stroke="midnightblue" d="M2068.29,-171.01C2060.63,-159.89 2050.95,-145.84 2044.86,-137.01"/>
<polygon fill="midnightblue" stroke="midnightblue" points="2065.57,-173.23 2074.13,-179.48 2071.33,-169.25 2065.57,-173.23"/>
</g>
<!-- Node36 -->
<g id="node36" class="node">
<title>Node36</title>
<g id="a_node36"><a xlink:href="incflo_8cpp.html" target="_top" xlink:title=" ">
<polygon fill="white" stroke="black" points="2089.5,-118 2089.5,-137 2152.5,-137 2152.5,-118 2089.5,-118"/>
<text text-anchor="middle" x="2121" y="-125" font-family="Helvetica,sans-Serif" font-size="10.00">incflo.cpp</text>
</a>
</g>
</g>
<!-- Node31&#45;&gt;Node36 -->
<g id="edge36" class="edge">
<title>Node31&#45;&gt;Node36</title>
<path fill="none" stroke="midnightblue" d="M2091.71,-171.01C2099.37,-159.89 2109.05,-145.84 2115.14,-137.01"/>
<polygon fill="midnightblue" stroke="midnightblue" points="2088.67,-169.25 2085.87,-179.48 2094.43,-173.23 2088.67,-169.25"/>
</g>
<!-- Node37 -->
<g id="node37" class="node">
<title>Node37</title>
<g id="a_node37"><a xlink:href="incflo__apply__nodal__projection_8cpp.html" target="_top" xlink:title=" ">
<polygon fill="white" stroke="black" points="2170.5,-112.5 2170.5,-142.5 2277.5,-142.5 2277.5,-112.5 2170.5,-112.5"/>
<text text-anchor="start" x="2178.5" y="-130.5" font-family="Helvetica,sans-Serif" font-size="10.00">incflo_apply_nodal</text>
<text text-anchor="middle" x="2224" y="-119.5" font-family="Helvetica,sans-Serif" font-size="10.00">_projection.cpp</text>
</a>
</g>
</g>
<!-- Node31&#45;&gt;Node37 -->
<g id="edge37" class="edge">
<title>Node31&#45;&gt;Node37</title>
<path fill="none" stroke="midnightblue" d="M2110.03,-175.59C2133.38,-165.94 2165.78,-152.56 2190.06,-142.52"/>
<polygon fill="midnightblue" stroke="midnightblue" points="2108.54,-172.42 2100.63,-179.48 2111.21,-178.89 2108.54,-172.42"/>
</g>
<!-- Node38 -->
<g id="node38" class="node">
<title>Node38</title>
<g id="a_node38"><a xlink:href="init_8cpp.html" target="_top" xlink:title=" ">
<polygon fill="white" stroke="black" points="2295.5,-118 2295.5,-137 2348.5,-137 2348.5,-118 2295.5,-118"/>
<text text-anchor="middle" x="2322" y="-125" font-family="Helvetica,sans-Serif" font-size="10.00">init.cpp</text>
</a>
</g>
</g>
<!-- Node31&#45;&gt;Node38 -->
<g id="edge38" class="edge">
<title>Node31&#45;&gt;Node38</title>
<path fill="none" stroke="midnightblue" d="M2113.05,-182.7C2154.31,-175.65 2226.79,-161.85 2287,-143 2292.27,-141.35 2297.85,-139.22 2302.97,-137.11"/>
<polygon fill="midnightblue" stroke="midnightblue" points="2112.29,-179.27 2103.01,-184.38 2113.45,-186.18 2112.29,-179.27"/>
</g>
<!-- Node39 -->
<g id="node39" class="node">
<title>Node39</title>
<g id="a_node39"><a xlink:href="_a_b_l_wall_function_8cpp.html" target="_top" xlink:title=" ">
<polygon fill="white" stroke="black" points="2366.5,-118 2366.5,-137 2483.5,-137 2483.5,-118 2366.5,-118"/>
<text text-anchor="middle" x="2425" y="-125" font-family="Helvetica,sans-Serif" font-size="10.00">ABLWallFunction.cpp</text>
</a>
</g>
</g>
<!-- Node31&#45;&gt;Node39 -->
<g id="edge40" class="edge">
<title>Node31&#45;&gt;Node39</title>
<path fill="none" stroke="midnightblue" d="M2113.16,-183.21C2165.38,-175.54 2269.91,-159.65 2358,-143 2367.47,-141.21 2377.66,-139.1 2387.16,-137.05"/>
<polygon fill="midnightblue" stroke="midnightblue" points="2112.53,-179.77 2103.14,-184.68 2113.54,-186.69 2112.53,-179.77"/>
</g>
<!-- Node40&#45;&gt;Node28 -->
<g id="edge43" class="edge">
<title>Node40&#45;&gt;Node28</title>
<path fill="none" stroke="midnightblue" d="M1511.01,-173.93C1493.08,-162.46 1468.34,-146.63 1453.3,-137.01"/>
<polygon fill="midnightblue" stroke="midnightblue" points="1509.37,-177.03 1519.68,-179.48 1513.14,-171.14 1509.37,-177.03"/>
</g>
<!-- Node41 -->
<g id="node41" class="node">
<title>Node41</title>
<g id="a_node41"><a xlink:href="_a_b_l_fill_inflow_8cpp.html" target="_top" xlink:title=" ">
<polygon fill="white" stroke="black" points="1523,-118 1523,-137 1621,-137 1621,-118 1523,-118"/>
<text text-anchor="middle" x="1572" y="-125" font-family="Helvetica,sans-Serif" font-size="10.00">ABLFillInflow.cpp</text>
</a>
</g>
</g>
<!-- Node40&#45;&gt;Node41 -->
<g id="edge44" class="edge">
<title>Node40&#45;&gt;Node41</title>
<path fill="none" stroke="midnightblue" d="M1544.14,-171.01C1551.43,-159.89 1560.63,-145.84 1566.42,-137.01"/>
<polygon fill="midnightblue" stroke="midnightblue" points="1541.14,-169.19 1538.59,-179.48 1547,-173.03 1541.14,-169.19"/>
</g>
</g>
</svg>
        <g id="navigator" transform="translate(0 0)" fill="#404254">
                <rect fill="#f2f5e9" fill-opacity="0.5" stroke="#606060" stroke-width=".5" x="0" y="0" width="60" height="60"/>
                <use id="zoomplus" xlink:href="#zoomPlus" x="17" y="9" onmousedown="handleZoom(evt,'in')"/>
                <use id="zoomminus" xlink:href="#zoomMin" x="42" y="9" onmousedown="handleZoom(evt,'out')"/>
                <use id="reset" xlink:href="#resetDef" x="30" y="36" onmousedown="handleReset()"/>
                <g id="arrowUp" xlink:href="#dirArrow" transform="translate(30 24)" onmousedown="handlePan(0,-1)">
                  <use xlink:href="#rim" fill="#404040">
                        <set attributeName="fill" to="#808080" begin="arrowUp.mouseover" end="arrowUp.mouseout"/>
                  </use>
                  <path fill="none" stroke="white" stroke-width="1.5" d="M0,-3.0v7 M-2.5,-0.5L0,-3.0L2.5,-0.5"/>
                </g>
                <g id="arrowRight" xlink:href="#dirArrow" transform="rotate(90) translate(36 -43)" onmousedown="handlePan(1,0)">
                  <use xlink:href="#rim" fill="#404040">
                        <set attributeName="fill" to="#808080" begin="arrowRight.mouseover" end="arrowRight.mouseout"/>
                  </use>
                  <path fill="none" stroke="white" stroke-width="1.5" d="M0,-3.0v7 M-2.5,-0.5L0,-3.0L2.5,-0.5"/>
                </g>
                <g id="arrowDown" xlink:href="#dirArrow" transform="rotate(180) translate(-30 -48)" onmousedown="handlePan(0,1)">
                  <use xlink:href="#rim" fill="#404040">
                        <set attributeName="fill" to="#808080" begin="arrowDown.mouseover" end="arrowDown.mouseout"/>
                  </use>
                  <path fill="none" stroke="white" stroke-width="1.5" d="M0,-3.0v7 M-2.5,-0.5L0,-3.0L2.5,-0.5"/>
                </g>
                <g id="arrowLeft" xlink:href="#dirArrow" transform="rotate(270) translate(-36 17)" onmousedown="handlePan(-1,0)">
                  <use xlink:href="#rim" fill="#404040">
                        <set attributeName="fill" to="#808080" begin="arrowLeft.mouseover" end="arrowLeft.mouseout"/>
                  </use>
                  <path fill="none" stroke="white" stroke-width="1.5" d="M0,-3.0v7 M-2.5,-0.5L0,-3.0L2.5,-0.5"/>
                </g>
        </g>
        <svg viewBox="0 0 15 15" width="100%" height="30px" preserveAspectRatio="xMaxYMin meet">
         <g id="arrow_out" transform="scale(0.3 0.3)">
          <a xlink:href="nc__interface_8_h__dep__incl_org.svg" target="_base">
           <rect id="button" ry="5" rx="5" y="6" x="6" height="38" width="38"
                fill="#f2f5e9" fill-opacity="0.5" stroke="#606060" stroke-width="1.0"/>
           <path id="arrow"
             d="M 11.500037,31.436501 C 11.940474,20.09759 22.043105,11.32322 32.158766,21.979434 L 37.068811,17.246167 C 37.068811,17.246167 37.088388,32 37.088388,32 L 22.160133,31.978069 C 22.160133,31.978069 26.997745,27.140456 26.997745,27.140456 C 18.528582,18.264221 13.291696,25.230495 11.500037,31.436501 z"
             style="fill:#404040;"/>
          </a>
         </g>
        </svg>
</svg>
