<?xml version="1.0" encoding="UTF-8" standalone="no"?>
<!DOCTYPE svg PUBLIC "-//W3C//DTD SVG 1.1//EN"
 "http://www.w3.org/Graphics/SVG/1.1/DTD/svg11.dtd">
<!-- Generated by graphviz version 2.43.0 (0)
 -->
<!-- Title: stencils.H Pages: 1 -->
<!--zoomable 308 -->
<svg id="main" version="1.1" xmlns="http://www.w3.org/2000/svg" xmlns:xlink="http://www.w3.org/1999/xlink" xml:space="preserve" onload="init(evt)">
<style type="text/css"><![CDATA[
.edge:hover path { stroke: red; }
.edge:hover polygon { stroke: red; fill: red; }
]]></style>
<script type="text/javascript"><![CDATA[
var edges = document.getElementsByTagName('g');
if (edges && edges.length) {
  for (var i=0;i<edges.length;i++) {
    if (edges[i].id.substr(0,4)=='edge') {
      edges[i].setAttribute('class','edge');
    }
  }
}
]]></script>
        <defs>
                <circle id="rim" cx="0" cy="0" r="7"/>
                <circle id="rim2" cx="0" cy="0" r="3.5"/>
                <g id="zoomPlus">
                        <use xlink:href="#rim" fill="#404040">
                                <set attributeName="fill" to="#808080" begin="zoomplus.mouseover" end="zoomplus.mouseout"/>
                        </use>
                        <path d="M-4,0h8M0,-4v8" fill="none" stroke="white" stroke-width="1.5" pointer-events="none"/>
                </g>
                <g id="zoomMin">
                        <use xlink:href="#rim" fill="#404040">
                                <set attributeName="fill" to="#808080" begin="zoomminus.mouseover" end="zoomminus.mouseout"/>
                        </use>
                        <path d="M-4,0h8" fill="none" stroke="white" stroke-width="1.5" pointer-events="none"/>
                </g>
                <g id="dirArrow">
                        <path fill="none" stroke="white" stroke-width="1.5" d="M0,-3.0v7 M-2.5,-0.5L0,-3.0L2.5,-0.5"/>
                </g>
               <g id="resetDef">
                       <use xlink:href="#rim2" fill="#404040">
                               <set attributeName="fill" to="#808080" begin="reset.mouseover" end="reset.mouseout"/>
                       </use>
               </g>
        </defs>

<script type="text/javascript">
var viewWidth = 2104;
var viewHeight = 308;
var sectionId = 'dynsection-1';
</script>
<script xlink:href="svgpan.js"/>
<svg id="graph" class="graph">
<g id="viewport">
<title>stencils.H</title>
<polygon fill="white" stroke="transparent" points="-4,4 -4,-304 2100,-304 2100,4 -4,4"/>
<!-- Node1 -->
<g id="node1" class="node">
<title>Node1</title>
<g id="a_node1"><a xlink:title="Second&#45;order finite volume discretization stencil coefficients.">
<polygon fill="#bfbfbf" stroke="black" points="1942.5,-280.5 1942.5,-299.5 2007.5,-299.5 2007.5,-280.5 1942.5,-280.5"/>
<text text-anchor="middle" x="1975" y="-287.5" font-family="Helvetica,sans-Serif" font-size="10.00">stencils.H</text>
</a>
</g>
</g>
<!-- Node2 -->
<g id="node2" class="node">
<title>Node2</title>
<g id="a_node2"><a xlink:href="fvm__utils_8_h.html" target="_top" xlink:title=" ">
<polygon fill="white" stroke="black" points="1588.5,-224.5 1588.5,-243.5 1661.5,-243.5 1661.5,-224.5 1588.5,-224.5"/>
<text text-anchor="middle" x="1625" y="-231.5" font-family="Helvetica,sans-Serif" font-size="10.00">fvm_utils.H</text>
</a>
</g>
</g>
<!-- Node1&#45;&gt;Node2 -->
<g id="edge1" class="edge">
<title>Node1&#45;&gt;Node2</title>
<path fill="none" stroke="midnightblue" d="M1932.24,-282.4C1862.81,-271.69 1726.78,-250.7 1661.57,-240.64"/>
<polygon fill="midnightblue" stroke="midnightblue" points="1931.97,-285.9 1942.39,-283.97 1933.04,-278.98 1931.97,-285.9"/>
</g>
<!-- Node42 -->
<g id="node42" class="node">
<title>Node42</title>
<g id="a_node42"><a xlink:href="_a_m_d_8_h.html" target="_top" xlink:title=" ">
<polygon fill="white" stroke="black" points="2041,-224.5 2041,-243.5 2091,-243.5 2091,-224.5 2041,-224.5"/>
<text text-anchor="middle" x="2066" y="-231.5" font-family="Helvetica,sans-Serif" font-size="10.00">AMD.H</text>
</a>
</g>
</g>
<!-- Node1&#45;&gt;Node42 -->
<g id="edge56" class="edge">
<title>Node1&#45;&gt;Node42</title>
<path fill="none" stroke="midnightblue" d="M1998.29,-275.18C2015.04,-265.24 2037.1,-252.15 2051.42,-243.65"/>
<polygon fill="midnightblue" stroke="midnightblue" points="1996.43,-272.21 1989.62,-280.32 2000.01,-278.23 1996.43,-272.21"/>
</g>
<!-- Node44 -->
<g id="node44" class="node">
<title>Node44</title>
<g id="a_node44"><a xlink:href="_a_m_d_no_therm_8_h.html" target="_top" xlink:title=" ">
<polygon fill="white" stroke="black" points="1927.5,-224.5 1927.5,-243.5 2022.5,-243.5 2022.5,-224.5 1927.5,-224.5"/>
<text text-anchor="middle" x="1975" y="-231.5" font-family="Helvetica,sans-Serif" font-size="10.00">AMDNoTherm.H</text>
</a>
</g>
</g>
<!-- Node1&#45;&gt;Node44 -->
<g id="edge58" class="edge">
<title>Node1&#45;&gt;Node44</title>
<path fill="none" stroke="midnightblue" d="M1975,-269.8C1975,-260.91 1975,-250.78 1975,-243.75"/>
<polygon fill="midnightblue" stroke="midnightblue" points="1971.5,-270.08 1975,-280.08 1978.5,-270.08 1971.5,-270.08"/>
</g>
<!-- Node3 -->
<g id="node3" class="node">
<title>Node3</title>
<g id="a_node3"><a xlink:href="curvature_8_h.html" target="_top" xlink:title=" ">
<polygon fill="white" stroke="black" points="1634,-168.5 1634,-187.5 1708,-187.5 1708,-168.5 1634,-168.5"/>
<text text-anchor="middle" x="1671" y="-175.5" font-family="Helvetica,sans-Serif" font-size="10.00">curvature.H</text>
</a>
</g>
</g>
<!-- Node2&#45;&gt;Node3 -->
<g id="edge2" class="edge">
<title>Node2&#45;&gt;Node3</title>
<path fill="none" stroke="midnightblue" d="M1639.11,-216.43C1647.18,-206.97 1656.96,-195.48 1663.55,-187.75"/>
<polygon fill="midnightblue" stroke="midnightblue" points="1636.42,-214.2 1632.6,-224.08 1641.75,-218.74 1636.42,-214.2"/>
</g>
<!-- Node6 -->
<g id="node6" class="node">
<title>Node6</title>
<g id="a_node6"><a xlink:href="divergence_8_h.html" target="_top" xlink:title=" ">
<polygon fill="white" stroke="black" points="1726.5,-168.5 1726.5,-187.5 1807.5,-187.5 1807.5,-168.5 1726.5,-168.5"/>
<text text-anchor="middle" x="1767" y="-175.5" font-family="Helvetica,sans-Serif" font-size="10.00">divergence.H</text>
</a>
</g>
</g>
<!-- Node2&#45;&gt;Node6 -->
<g id="edge5" class="edge">
<title>Node2&#45;&gt;Node6</title>
<path fill="none" stroke="midnightblue" d="M1657.16,-220.77C1683.83,-210.63 1721.07,-196.47 1744.6,-187.52"/>
<polygon fill="midnightblue" stroke="midnightblue" points="1655.6,-217.62 1647.5,-224.44 1658.09,-224.16 1655.6,-217.62"/>
</g>
<!-- Node7 -->
<g id="node7" class="node">
<title>Node7</title>
<g id="a_node7"><a xlink:href="filter_8_h.html" target="_top" xlink:title=" ">
<polygon fill="white" stroke="black" points="1914.5,-168.5 1914.5,-187.5 1963.5,-187.5 1963.5,-168.5 1914.5,-168.5"/>
<text text-anchor="middle" x="1939" y="-175.5" font-family="Helvetica,sans-Serif" font-size="10.00">filter.H</text>
</a>
</g>
</g>
<!-- Node2&#45;&gt;Node7 -->
<g id="edge7" class="edge">
<title>Node2&#45;&gt;Node7</title>
<path fill="none" stroke="midnightblue" d="M1671.85,-226.92C1727.67,-219.35 1823.61,-205.27 1905,-188 1907.99,-187.37 1911.1,-186.64 1914.19,-185.87"/>
<polygon fill="midnightblue" stroke="midnightblue" points="1671.35,-223.46 1661.91,-228.26 1672.28,-230.39 1671.35,-223.46"/>
</g>
<!-- Node9 -->
<g id="node9" class="node">
<title>Node9</title>
<g id="a_node9"><a xlink:href="gradient_8_h.html" target="_top" xlink:title=" ">
<polygon fill="white" stroke="black" points="880,-168.5 880,-187.5 948,-187.5 948,-168.5 880,-168.5"/>
<text text-anchor="middle" x="914" y="-175.5" font-family="Helvetica,sans-Serif" font-size="10.00">gradient.H</text>
</a>
</g>
</g>
<!-- Node2&#45;&gt;Node9 -->
<g id="edge10" class="edge">
<title>Node2&#45;&gt;Node9</title>
<path fill="none" stroke="midnightblue" d="M1577.97,-229.43C1444.39,-219.28 1064.87,-190.46 948.41,-181.61"/>
<polygon fill="midnightblue" stroke="midnightblue" points="1578.03,-232.94 1588.27,-230.21 1578.56,-225.96 1578.03,-232.94"/>
</g>
<!-- Node35 -->
<g id="node35" class="node">
<title>Node35</title>
<g id="a_node35"><a xlink:href="laplacian_8_h.html" target="_top" xlink:title=" ">
<polygon fill="white" stroke="black" points="1825.5,-168.5 1825.5,-187.5 1896.5,-187.5 1896.5,-168.5 1825.5,-168.5"/>
<text text-anchor="middle" x="1861" y="-175.5" font-family="Helvetica,sans-Serif" font-size="10.00">laplacian.H</text>
</a>
</g>
</g>
<!-- Node2&#45;&gt;Node35 -->
<g id="edge39" class="edge">
<title>Node2&#45;&gt;Node35</title>
<path fill="none" stroke="midnightblue" d="M1671.47,-222.37C1716.68,-212.02 1784.39,-196.53 1825.46,-187.13"/>
<polygon fill="midnightblue" stroke="midnightblue" points="1670.58,-218.98 1661.62,-224.62 1672.14,-225.8 1670.58,-218.98"/>
</g>
<!-- Node36 -->
<g id="node36" class="node">
<title>Node36</title>
<g id="a_node36"><a xlink:href="qcriterion_8_h.html" target="_top" xlink:title=" ">
<polygon fill="white" stroke="black" points="1542,-168.5 1542,-187.5 1616,-187.5 1616,-168.5 1542,-168.5"/>
<text text-anchor="middle" x="1579" y="-175.5" font-family="Helvetica,sans-Serif" font-size="10.00">qcriterion.H</text>
</a>
</g>
</g>
<!-- Node2&#45;&gt;Node36 -->
<g id="edge41" class="edge">
<title>Node2&#45;&gt;Node36</title>
<path fill="none" stroke="midnightblue" d="M1610.89,-216.43C1602.82,-206.97 1593.04,-195.48 1586.45,-187.75"/>
<polygon fill="midnightblue" stroke="midnightblue" points="1608.25,-218.74 1617.4,-224.08 1613.58,-214.2 1608.25,-218.74"/>
</g>
<!-- Node37 -->
<g id="node37" class="node">
<title>Node37</title>
<g id="a_node37"><a xlink:href="strainrate_8_h.html" target="_top" xlink:title=" ">
<polygon fill="white" stroke="black" points="1252,-168.5 1252,-187.5 1326,-187.5 1326,-168.5 1252,-168.5"/>
<text text-anchor="middle" x="1289" y="-175.5" font-family="Helvetica,sans-Serif" font-size="10.00">strainrate.H</text>
</a>
</g>
</g>
<!-- Node2&#45;&gt;Node37 -->
<g id="edge43" class="edge">
<title>Node2&#45;&gt;Node37</title>
<path fill="none" stroke="midnightblue" d="M1578.09,-226.3C1520.67,-217.96 1420.51,-202.99 1335,-188 1332.11,-187.49 1329.13,-186.95 1326.13,-186.4"/>
<polygon fill="midnightblue" stroke="midnightblue" points="1577.9,-229.81 1588.3,-227.78 1578.91,-222.88 1577.9,-229.81"/>
</g>
<!-- Node39 -->
<g id="node39" class="node">
<title>Node39</title>
<g id="a_node39"><a xlink:href="vorticity_8_h.html" target="_top" xlink:title=" ">
<polygon fill="white" stroke="black" points="1344,-168.5 1344,-187.5 1410,-187.5 1410,-168.5 1344,-168.5"/>
<text text-anchor="middle" x="1377" y="-175.5" font-family="Helvetica,sans-Serif" font-size="10.00">vorticity.H</text>
</a>
</g>
</g>
<!-- Node2&#45;&gt;Node39 -->
<g id="edge49" class="edge">
<title>Node2&#45;&gt;Node39</title>
<path fill="none" stroke="midnightblue" d="M1578.37,-222.85C1529.34,-212.17 1453.42,-195.64 1410.17,-186.22"/>
<polygon fill="midnightblue" stroke="midnightblue" points="1577.89,-226.32 1588.41,-225.03 1579.38,-219.48 1577.89,-226.32"/>
</g>
<!-- Node40 -->
<g id="node40" class="node">
<title>Node40</title>
<g id="a_node40"><a xlink:href="vorticity__mag_8_h.html" target="_top" xlink:title=" ">
<polygon fill="white" stroke="black" points="1428.5,-168.5 1428.5,-187.5 1523.5,-187.5 1523.5,-168.5 1428.5,-168.5"/>
<text text-anchor="middle" x="1476" y="-175.5" font-family="Helvetica,sans-Serif" font-size="10.00">vorticity_mag.H</text>
</a>
</g>
</g>
<!-- Node2&#45;&gt;Node40 -->
<g id="edge52" class="edge">
<title>Node2&#45;&gt;Node40</title>
<path fill="none" stroke="midnightblue" d="M1591.63,-220.91C1563.62,-210.75 1524.3,-196.51 1499.5,-187.52"/>
<polygon fill="midnightblue" stroke="midnightblue" points="1590.8,-224.33 1601.39,-224.44 1593.18,-217.75 1590.8,-224.33"/>
</g>
<!-- Node4 -->
<g id="node4" class="node">
<title>Node4</title>
<g id="a_node4"><a xlink:href="fvm_8_h.html" target="_top" xlink:title=" ">
<polygon fill="white" stroke="black" points="1647.5,-112.5 1647.5,-131.5 1694.5,-131.5 1694.5,-112.5 1647.5,-112.5"/>
<text text-anchor="middle" x="1671" y="-119.5" font-family="Helvetica,sans-Serif" font-size="10.00">fvm.H</text>
</a>
</g>
</g>
<!-- Node3&#45;&gt;Node4 -->
<g id="edge3" class="edge">
<title>Node3&#45;&gt;Node4</title>
<path fill="none" stroke="midnightblue" d="M1671,-157.8C1671,-148.91 1671,-138.78 1671,-131.75"/>
<polygon fill="midnightblue" stroke="midnightblue" points="1667.5,-158.08 1671,-168.08 1674.5,-158.08 1667.5,-158.08"/>
</g>
<!-- Node5 -->
<g id="node5" class="node">
<title>Node5</title>
<g id="a_node5"><a xlink:href="_derived_qty_defs_8cpp.html" target="_top" xlink:title=" ">
<polygon fill="white" stroke="black" points="1613.5,-56.5 1613.5,-75.5 1728.5,-75.5 1728.5,-56.5 1613.5,-56.5"/>
<text text-anchor="middle" x="1671" y="-63.5" font-family="Helvetica,sans-Serif" font-size="10.00">DerivedQtyDefs.cpp</text>
</a>
</g>
</g>
<!-- Node4&#45;&gt;Node5 -->
<g id="edge4" class="edge">
<title>Node4&#45;&gt;Node5</title>
<path fill="none" stroke="midnightblue" d="M1671,-101.8C1671,-92.91 1671,-82.78 1671,-75.75"/>
<polygon fill="midnightblue" stroke="midnightblue" points="1667.5,-102.08 1671,-112.08 1674.5,-102.08 1667.5,-102.08"/>
</g>
<!-- Node6&#45;&gt;Node4 -->
<g id="edge6" class="edge">
<title>Node6&#45;&gt;Node4</title>
<path fill="none" stroke="midnightblue" d="M1742.43,-163.18C1724.76,-153.24 1701.49,-140.15 1686.39,-131.65"/>
<polygon fill="midnightblue" stroke="midnightblue" points="1741.14,-166.47 1751.58,-168.32 1744.58,-160.37 1741.14,-166.47"/>
</g>
<!-- Node7&#45;&gt;Node4 -->
<g id="edge8" class="edge">
<title>Node7&#45;&gt;Node4</title>
<path fill="none" stroke="midnightblue" d="M1904.36,-167.98C1821.67,-149.33 1735.46,-134 1694.69,-127"/>
<polygon fill="midnightblue" stroke="midnightblue" points="1903.64,-171.41 1914.17,-170.22 1905.19,-164.58 1903.64,-171.41"/>
</g>
<!-- Node8 -->
<g id="node8" class="node">
<title>Node8</title>
<g id="a_node8"><a xlink:href="_multi_phase_8cpp.html" target="_top" xlink:title=" ">
<polygon fill="white" stroke="black" points="1830.5,-112.5 1830.5,-131.5 1921.5,-131.5 1921.5,-112.5 1830.5,-112.5"/>
<text text-anchor="middle" x="1876" y="-119.5" font-family="Helvetica,sans-Serif" font-size="10.00">MultiPhase.cpp</text>
</a>
</g>
</g>
<!-- Node7&#45;&gt;Node8 -->
<g id="edge9" class="edge">
<title>Node7&#45;&gt;Node8</title>
<path fill="none" stroke="midnightblue" d="M1920.96,-161.54C1909.73,-151.91 1895.68,-139.87 1886.31,-131.83"/>
<polygon fill="midnightblue" stroke="midnightblue" points="1919.01,-164.47 1928.88,-168.32 1923.56,-159.16 1919.01,-164.47"/>
</g>
<!-- Node9&#45;&gt;Node4 -->
<g id="edge11" class="edge">
<title>Node9&#45;&gt;Node4</title>
<path fill="none" stroke="midnightblue" d="M958.24,-175.44C1094.42,-170.43 1506.01,-153.86 1638,-132 1641.05,-131.5 1644.22,-130.82 1647.34,-130.08"/>
<polygon fill="midnightblue" stroke="midnightblue" points="958.04,-171.94 948.17,-175.8 958.29,-178.94 958.04,-171.94"/>
</g>
<!-- Node10 -->
<g id="node10" class="node">
<title>Node10</title>
<g id="a_node10"><a xlink:href="bluff__body__ops_8cpp.html" target="_top" xlink:title=" ">
<polygon fill="white" stroke="black" points="823,-56.5 823,-75.5 933,-75.5 933,-56.5 823,-56.5"/>
<text text-anchor="middle" x="878" y="-63.5" font-family="Helvetica,sans-Serif" font-size="10.00">bluff_body_ops.cpp</text>
</a>
</g>
</g>
<!-- Node9&#45;&gt;Node10 -->
<g id="edge12" class="edge">
<title>Node9&#45;&gt;Node10</title>
<path fill="none" stroke="midnightblue" d="M908,-158.67C900.13,-134.62 886.64,-93.39 880.81,-75.59"/>
<polygon fill="midnightblue" stroke="midnightblue" points="904.74,-159.95 911.18,-168.37 911.39,-157.78 904.74,-159.95"/>
</g>
<!-- Node11 -->
<g id="node11" class="node">
<title>Node11</title>
<g id="a_node11"><a xlink:href="bluff__body__ops_8_h.html" target="_top" xlink:title=" ">
<polygon fill="white" stroke="black" points="942.5,-112.5 942.5,-131.5 1043.5,-131.5 1043.5,-112.5 942.5,-112.5"/>
<text text-anchor="middle" x="993" y="-119.5" font-family="Helvetica,sans-Serif" font-size="10.00">bluff_body_ops.H</text>
</a>
</g>
</g>
<!-- Node9&#45;&gt;Node11 -->
<g id="edge13" class="edge">
<title>Node9&#45;&gt;Node11</title>
<path fill="none" stroke="midnightblue" d="M935.03,-162.62C949.47,-152.76 968.14,-139.99 980.34,-131.65"/>
<polygon fill="midnightblue" stroke="midnightblue" points="932.97,-159.79 926.69,-168.32 936.92,-165.57 932.97,-159.79"/>
</g>
<!-- Node18 -->
<g id="node18" class="node">
<title>Node18</title>
<g id="a_node18"><a xlink:href="relaxation__zones__ops_8cpp.html" target="_top" xlink:title=" ">
<polygon fill="white" stroke="black" points="526.5,-56.5 526.5,-75.5 669.5,-75.5 669.5,-56.5 526.5,-56.5"/>
<text text-anchor="middle" x="598" y="-63.5" font-family="Helvetica,sans-Serif" font-size="10.00">relaxation_zones_ops.cpp</text>
</a>
</g>
</g>
<!-- Node9&#45;&gt;Node18 -->
<g id="edge21" class="edge">
<title>Node9&#45;&gt;Node18</title>
<path fill="none" stroke="midnightblue" d="M903.67,-159.66C893.7,-144.55 877.16,-123.32 857,-112 825.66,-94.41 734.85,-81.43 669.6,-74.05"/>
<polygon fill="midnightblue" stroke="midnightblue" points="900.72,-161.54 909.01,-168.14 906.64,-157.82 900.72,-161.54"/>
</g>
<!-- Node19 -->
<g id="node19" class="node">
<title>Node19</title>
<g id="a_node19"><a xlink:href="relaxation__zones__ops_8_h.html" target="_top" xlink:title=" ">
<polygon fill="white" stroke="black" points="112.5,-112.5 112.5,-131.5 245.5,-131.5 245.5,-112.5 112.5,-112.5"/>
<text text-anchor="middle" x="179" y="-119.5" font-family="Helvetica,sans-Serif" font-size="10.00">relaxation_zones_ops.H</text>
</a>
</g>
</g>
<!-- Node9&#45;&gt;Node19 -->
<g id="edge22" class="edge">
<title>Node9&#45;&gt;Node19</title>
<path fill="none" stroke="midnightblue" d="M869.92,-174.78C763.76,-169.26 485.56,-153.77 254,-132 251.26,-131.74 248.46,-131.47 245.64,-131.18"/>
<polygon fill="midnightblue" stroke="midnightblue" points="869.78,-178.28 879.95,-175.3 870.14,-171.29 869.78,-178.28"/>
</g>
<!-- Node26 -->
<g id="node26" class="node">
<title>Node26</title>
<g id="a_node26"><a xlink:href="_dam_break_8cpp.html" target="_top" xlink:title=" ">
<polygon fill="white" stroke="black" points="263.5,-112.5 263.5,-131.5 352.5,-131.5 352.5,-112.5 263.5,-112.5"/>
<text text-anchor="middle" x="308" y="-119.5" font-family="Helvetica,sans-Serif" font-size="10.00">DamBreak.cpp</text>
</a>
</g>
</g>
<!-- Node9&#45;&gt;Node26 -->
<g id="edge30" class="edge">
<title>Node9&#45;&gt;Node26</title>
<path fill="none" stroke="midnightblue" d="M869.93,-174.72C776.07,-169.58 549.62,-155.64 361,-132 358.31,-131.66 355.56,-131.29 352.78,-130.89"/>
<polygon fill="midnightblue" stroke="midnightblue" points="869.74,-178.21 879.91,-175.26 870.12,-171.22 869.74,-178.21"/>
</g>
<!-- Node27 -->
<g id="node27" class="node">
<title>Node27</title>
<g id="a_node27"><a xlink:href="_sloshing_tank_8cpp.html" target="_top" xlink:title=" ">
<polygon fill="white" stroke="black" points="370.5,-112.5 370.5,-131.5 471.5,-131.5 471.5,-112.5 370.5,-112.5"/>
<text text-anchor="middle" x="421" y="-119.5" font-family="Helvetica,sans-Serif" font-size="10.00">SloshingTank.cpp</text>
</a>
</g>
</g>
<!-- Node9&#45;&gt;Node27 -->
<g id="edge31" class="edge">
<title>Node9&#45;&gt;Node27</title>
<path fill="none" stroke="midnightblue" d="M869.98,-173.09C791.64,-165.98 622.9,-150.01 481,-132 477.97,-131.62 474.86,-131.2 471.72,-130.77"/>
<polygon fill="midnightblue" stroke="midnightblue" points="869.7,-176.58 879.98,-173.99 870.33,-169.61 869.7,-176.58"/>
</g>
<!-- Node28 -->
<g id="node28" class="node">
<title>Node28</title>
<g id="a_node28"><a xlink:href="_zalesak_disk_8cpp.html" target="_top" xlink:title=" ">
<polygon fill="white" stroke="black" points="490,-112.5 490,-131.5 588,-131.5 588,-112.5 490,-112.5"/>
<text text-anchor="middle" x="539" y="-119.5" font-family="Helvetica,sans-Serif" font-size="10.00">ZalesakDisk.cpp</text>
</a>
</g>
</g>
<!-- Node9&#45;&gt;Node28 -->
<g id="edge32" class="edge">
<title>Node9&#45;&gt;Node28</title>
<path fill="none" stroke="midnightblue" d="M869.64,-170.89C808.31,-162.39 694.2,-146.44 597,-132 594.08,-131.57 591.07,-131.11 588.04,-130.66"/>
<polygon fill="midnightblue" stroke="midnightblue" points="869.35,-174.38 879.74,-172.28 870.31,-167.45 869.35,-174.38"/>
</g>
<!-- Node29 -->
<g id="node29" class="node">
<title>Node29</title>
<g id="a_node29"><a xlink:href="_zalesak_disk_scalar_vel_8cpp.html" target="_top" xlink:title=" ">
<polygon fill="white" stroke="black" points="606.5,-112.5 606.5,-131.5 749.5,-131.5 749.5,-112.5 606.5,-112.5"/>
<text text-anchor="middle" x="678" y="-119.5" font-family="Helvetica,sans-Serif" font-size="10.00">ZalesakDiskScalarVel.cpp</text>
</a>
</g>
</g>
<!-- Node9&#45;&gt;Node29 -->
<g id="edge33" class="edge">
<title>Node9&#45;&gt;Node29</title>
<path fill="none" stroke="midnightblue" d="M869.97,-166.92C825.36,-156.72 757.14,-141.11 715.17,-131.5"/>
<polygon fill="midnightblue" stroke="midnightblue" points="869.41,-170.39 879.94,-169.21 870.97,-163.56 869.41,-170.39"/>
</g>
<!-- Node30 -->
<g id="node30" class="node">
<title>Node30</title>
<g id="a_node30"><a xlink:href="_a_m_d_no_therm_8cpp.html" target="_top" xlink:title=" ">
<polygon fill="white" stroke="black" points="1939.5,-112.5 1939.5,-131.5 2044.5,-131.5 2044.5,-112.5 1939.5,-112.5"/>
<text text-anchor="middle" x="1992" y="-119.5" font-family="Helvetica,sans-Serif" font-size="10.00">AMDNoTherm.cpp</text>
</a>
</g>
</g>
<!-- Node9&#45;&gt;Node30 -->
<g id="edge34" class="edge">
<title>Node9&#45;&gt;Node30</title>
<path fill="none" stroke="midnightblue" d="M958.24,-175.63C1127.89,-170.29 1737.06,-150.23 1930,-132 1933.03,-131.71 1936.14,-131.38 1939.28,-131.02"/>
<polygon fill="midnightblue" stroke="midnightblue" points="958.05,-172.13 948.17,-175.95 958.27,-179.13 958.05,-172.13"/>
</g>
<!-- Node31 -->
<g id="node31" class="node">
<title>Node31</title>
<g id="a_node31"><a xlink:href="_one_eq_ksgs_8cpp.html" target="_top" xlink:title=" ">
<polygon fill="white" stroke="black" points="1175,-112.5 1175,-131.5 1267,-131.5 1267,-112.5 1175,-112.5"/>
<text text-anchor="middle" x="1221" y="-119.5" font-family="Helvetica,sans-Serif" font-size="10.00">OneEqKsgs.cpp</text>
</a>
</g>
</g>
<!-- Node9&#45;&gt;Node31 -->
<g id="edge35" class="edge">
<title>Node9&#45;&gt;Node31</title>
<path fill="none" stroke="midnightblue" d="M957.92,-169.27C1015.53,-159.14 1116.15,-141.44 1174.85,-131.12"/>
<polygon fill="midnightblue" stroke="midnightblue" points="957.27,-165.84 948.03,-171.01 958.48,-172.73 957.27,-165.84"/>
</g>
<!-- Node32 -->
<g id="node32" class="node">
<title>Node32</title>
<g id="a_node32"><a xlink:href="_k_omega_s_s_t_8cpp.html" target="_top" xlink:title=" ">
<polygon fill="white" stroke="black" points="1061.5,-112.5 1061.5,-131.5 1156.5,-131.5 1156.5,-112.5 1061.5,-112.5"/>
<text text-anchor="middle" x="1109" y="-119.5" font-family="Helvetica,sans-Serif" font-size="10.00">KOmegaSST.cpp</text>
</a>
</g>
</g>
<!-- Node9&#45;&gt;Node32 -->
<g id="edge36" class="edge">
<title>Node9&#45;&gt;Node32</title>
<path fill="none" stroke="midnightblue" d="M954.81,-165.7C991.61,-155.51 1044.93,-140.74 1078.25,-131.52"/>
<polygon fill="midnightblue" stroke="midnightblue" points="953.6,-162.4 944.9,-168.44 955.47,-169.15 953.6,-162.4"/>
</g>
<!-- Node33 -->
<g id="node33" class="node">
<title>Node33</title>
<g id="a_node33"><a xlink:href="_k_omega_s_s_t_i_d_d_e_s_8cpp.html" target="_top" xlink:title=" ">
<polygon fill="white" stroke="black" points="1401,-112.5 1401,-131.5 1527,-131.5 1527,-112.5 1401,-112.5"/>
<text text-anchor="middle" x="1464" y="-119.5" font-family="Helvetica,sans-Serif" font-size="10.00">KOmegaSSTIDDES.cpp</text>
</a>
</g>
</g>
<!-- Node9&#45;&gt;Node33 -->
<g id="edge37" class="edge">
<title>Node9&#45;&gt;Node33</title>
<path fill="none" stroke="midnightblue" d="M958.24,-173.29C1042.65,-166.11 1232.52,-149.47 1392,-132 1394.88,-131.68 1397.82,-131.35 1400.8,-131.01"/>
<polygon fill="midnightblue" stroke="midnightblue" points="957.9,-169.81 948.23,-174.14 958.49,-176.78 957.9,-169.81"/>
</g>
<!-- Node34 -->
<g id="node34" class="node">
<title>Node34</title>
<g id="a_node34"><a xlink:href="_a_b_l_stats_8cpp.html" target="_top" xlink:title=" ">
<polygon fill="white" stroke="black" points="768,-112.5 768,-131.5 848,-131.5 848,-112.5 768,-112.5"/>
<text text-anchor="middle" x="808" y="-119.5" font-family="Helvetica,sans-Serif" font-size="10.00">ABLStats.cpp</text>
</a>
</g>
</g>
<!-- Node9&#45;&gt;Node34 -->
<g id="edge38" class="edge">
<title>Node9&#45;&gt;Node34</title>
<path fill="none" stroke="midnightblue" d="M887.94,-163.73C868.32,-153.73 841.97,-140.31 824.99,-131.65"/>
<polygon fill="midnightblue" stroke="midnightblue" points="886.47,-166.9 896.97,-168.32 889.65,-160.67 886.47,-166.9"/>
</g>
<!-- Node11&#45;&gt;Node10 -->
<g id="edge14" class="edge">
<title>Node11&#45;&gt;Node10</title>
<path fill="none" stroke="midnightblue" d="M965.52,-108.1C944.03,-98.01 914.78,-84.27 896.14,-75.52"/>
<polygon fill="midnightblue" stroke="midnightblue" points="964.24,-111.36 974.78,-112.44 967.21,-105.02 964.24,-111.36"/>
</g>
<!-- Node12 -->
<g id="node12" class="node">
<title>Node12</title>
<g id="a_node12"><a xlink:href="box__ops_8_h.html" target="_top" xlink:title=" ">
<polygon fill="white" stroke="black" points="1053,-56.5 1053,-75.5 1121,-75.5 1121,-56.5 1053,-56.5"/>
<text text-anchor="middle" x="1087" y="-63.5" font-family="Helvetica,sans-Serif" font-size="10.00">box_ops.H</text>
</a>
</g>
</g>
<!-- Node11&#45;&gt;Node12 -->
<g id="edge15" class="edge">
<title>Node11&#45;&gt;Node12</title>
<path fill="none" stroke="midnightblue" d="M1017.06,-107.18C1034.36,-97.24 1057.15,-84.15 1071.93,-75.65"/>
<polygon fill="midnightblue" stroke="midnightblue" points="1015.03,-104.31 1008.1,-112.32 1018.52,-110.38 1015.03,-104.31"/>
</g>
<!-- Node14 -->
<g id="node14" class="node">
<title>Node14</title>
<g id="a_node14"><a xlink:href="cylinder__ops_8_h.html" target="_top" xlink:title=" ">
<polygon fill="white" stroke="black" points="1139.5,-56.5 1139.5,-75.5 1228.5,-75.5 1228.5,-56.5 1139.5,-56.5"/>
<text text-anchor="middle" x="1184" y="-63.5" font-family="Helvetica,sans-Serif" font-size="10.00">cylinder_ops.H</text>
</a>
</g>
</g>
<!-- Node11&#45;&gt;Node14 -->
<g id="edge17" class="edge">
<title>Node11&#45;&gt;Node14</title>
<path fill="none" stroke="midnightblue" d="M1032.97,-109.7C1069.02,-99.51 1121.24,-84.74 1153.88,-75.52"/>
<polygon fill="midnightblue" stroke="midnightblue" points="1031.94,-106.35 1023.26,-112.44 1033.84,-113.09 1031.94,-106.35"/>
</g>
<!-- Node16 -->
<g id="node16" class="node">
<title>Node16</title>
<g id="a_node16"><a xlink:href="sphere__ops_8_h.html" target="_top" xlink:title=" ">
<polygon fill="white" stroke="black" points="951.5,-56.5 951.5,-75.5 1034.5,-75.5 1034.5,-56.5 951.5,-56.5"/>
<text text-anchor="middle" x="993" y="-63.5" font-family="Helvetica,sans-Serif" font-size="10.00">sphere_ops.H</text>
</a>
</g>
</g>
<!-- Node11&#45;&gt;Node16 -->
<g id="edge19" class="edge">
<title>Node11&#45;&gt;Node16</title>
<path fill="none" stroke="midnightblue" d="M993,-101.8C993,-92.91 993,-82.78 993,-75.75"/>
<polygon fill="midnightblue" stroke="midnightblue" points="989.5,-102.08 993,-112.08 996.5,-102.08 989.5,-102.08"/>
</g>
<!-- Node13 -->
<g id="node13" class="node">
<title>Node13</title>
<g id="a_node13"><a xlink:href="_box_8cpp.html" target="_top" xlink:title=" ">
<polygon fill="white" stroke="black" points="1059,-0.5 1059,-19.5 1115,-19.5 1115,-0.5 1059,-0.5"/>
<text text-anchor="middle" x="1087" y="-7.5" font-family="Helvetica,sans-Serif" font-size="10.00">Box.cpp</text>
</a>
</g>
</g>
<!-- Node12&#45;&gt;Node13 -->
<g id="edge16" class="edge">
<title>Node12&#45;&gt;Node13</title>
<path fill="none" stroke="midnightblue" d="M1087,-45.8C1087,-36.91 1087,-26.78 1087,-19.75"/>
<polygon fill="midnightblue" stroke="midnightblue" points="1083.5,-46.08 1087,-56.08 1090.5,-46.08 1083.5,-46.08"/>
</g>
<!-- Node15 -->
<g id="node15" class="node">
<title>Node15</title>
<g id="a_node15"><a xlink:href="_cylinder_8cpp.html" target="_top" xlink:title=" ">
<polygon fill="white" stroke="black" points="1145.5,-0.5 1145.5,-19.5 1222.5,-19.5 1222.5,-0.5 1145.5,-0.5"/>
<text text-anchor="middle" x="1184" y="-7.5" font-family="Helvetica,sans-Serif" font-size="10.00">Cylinder.cpp</text>
</a>
</g>
</g>
<!-- Node14&#45;&gt;Node15 -->
<g id="edge18" class="edge">
<title>Node14&#45;&gt;Node15</title>
<path fill="none" stroke="midnightblue" d="M1184,-45.8C1184,-36.91 1184,-26.78 1184,-19.75"/>
<polygon fill="midnightblue" stroke="midnightblue" points="1180.5,-46.08 1184,-56.08 1187.5,-46.08 1180.5,-46.08"/>
</g>
<!-- Node17 -->
<g id="node17" class="node">
<title>Node17</title>
<g id="a_node17"><a xlink:href="_sphere_8cpp.html" target="_top" xlink:title=" ">
<polygon fill="white" stroke="black" points="957.5,-0.5 957.5,-19.5 1028.5,-19.5 1028.5,-0.5 957.5,-0.5"/>
<text text-anchor="middle" x="993" y="-7.5" font-family="Helvetica,sans-Serif" font-size="10.00">Sphere.cpp</text>
</a>
</g>
</g>
<!-- Node16&#45;&gt;Node17 -->
<g id="edge20" class="edge">
<title>Node16&#45;&gt;Node17</title>
<path fill="none" stroke="midnightblue" d="M993,-45.8C993,-36.91 993,-26.78 993,-19.75"/>
<polygon fill="midnightblue" stroke="midnightblue" points="989.5,-46.08 993,-56.08 996.5,-46.08 989.5,-46.08"/>
</g>
<!-- Node19&#45;&gt;Node18 -->
<g id="edge27" class="edge">
<title>Node19&#45;&gt;Node18</title>
<path fill="none" stroke="midnightblue" d="M255.78,-111.1C334.9,-100.91 456.96,-85.18 531.92,-75.52"/>
<polygon fill="midnightblue" stroke="midnightblue" points="254.86,-107.69 245.39,-112.44 255.76,-114.64 254.86,-107.69"/>
</g>
<!-- Node20 -->
<g id="node20" class="node">
<title>Node20</title>
<g id="a_node20"><a xlink:href="hos__waves__ops_8_h.html" target="_top" xlink:title=" ">
<polygon fill="white" stroke="black" points="0,-56.5 0,-75.5 104,-75.5 104,-56.5 0,-56.5"/>
<text text-anchor="middle" x="52" y="-63.5" font-family="Helvetica,sans-Serif" font-size="10.00">hos_waves_ops.H</text>
</a>
</g>
</g>
<!-- Node19&#45;&gt;Node20 -->
<g id="edge23" class="edge">
<title>Node19&#45;&gt;Node20</title>
<path fill="none" stroke="midnightblue" d="M149.61,-108.5C125.8,-98.38 92.89,-84.39 72.03,-75.52"/>
<polygon fill="midnightblue" stroke="midnightblue" points="148.3,-111.75 158.88,-112.44 151.04,-105.31 148.3,-111.75"/>
</g>
<!-- Node22 -->
<g id="node22" class="node">
<title>Node22</title>
<g id="a_node22"><a xlink:href="linear__waves__ops_8_h.html" target="_top" xlink:title=" ">
<polygon fill="white" stroke="black" points="122,-56.5 122,-75.5 236,-75.5 236,-56.5 122,-56.5"/>
<text text-anchor="middle" x="179" y="-63.5" font-family="Helvetica,sans-Serif" font-size="10.00">linear_waves_ops.H</text>
</a>
</g>
</g>
<!-- Node19&#45;&gt;Node22 -->
<g id="edge25" class="edge">
<title>Node19&#45;&gt;Node22</title>
<path fill="none" stroke="midnightblue" d="M179,-101.8C179,-92.91 179,-82.78 179,-75.75"/>
<polygon fill="midnightblue" stroke="midnightblue" points="175.5,-102.08 179,-112.08 182.5,-102.08 175.5,-102.08"/>
</g>
<!-- Node24 -->
<g id="node24" class="node">
<title>Node24</title>
<g id="a_node24"><a xlink:href="stokes__waves__ops_8_h.html" target="_top" xlink:title=" ">
<polygon fill="white" stroke="black" points="254,-56.5 254,-75.5 372,-75.5 372,-56.5 254,-56.5"/>
<text text-anchor="middle" x="313" y="-63.5" font-family="Helvetica,sans-Serif" font-size="10.00">stokes_waves_ops.H</text>
</a>
</g>
</g>
<!-- Node19&#45;&gt;Node24 -->
<g id="edge28" class="edge">
<title>Node19&#45;&gt;Node24</title>
<path fill="none" stroke="midnightblue" d="M209.68,-108.64C234.82,-98.5 269.75,-84.43 291.87,-75.52"/>
<polygon fill="midnightblue" stroke="midnightblue" points="208.2,-105.46 200.23,-112.44 210.82,-111.95 208.2,-105.46"/>
</g>
<!-- Node21 -->
<g id="node21" class="node">
<title>Node21</title>
<g id="a_node21"><a xlink:href="_h_o_s_waves_8cpp.html" target="_top" xlink:title=" ">
<polygon fill="white" stroke="black" points="7,-0.5 7,-19.5 97,-19.5 97,-0.5 7,-0.5"/>
<text text-anchor="middle" x="52" y="-7.5" font-family="Helvetica,sans-Serif" font-size="10.00">HOSWaves.cpp</text>
</a>
</g>
</g>
<!-- Node20&#45;&gt;Node21 -->
<g id="edge24" class="edge">
<title>Node20&#45;&gt;Node21</title>
<path fill="none" stroke="midnightblue" d="M52,-45.8C52,-36.91 52,-26.78 52,-19.75"/>
<polygon fill="midnightblue" stroke="midnightblue" points="48.5,-46.08 52,-56.08 55.5,-46.08 48.5,-46.08"/>
</g>
<!-- Node23 -->
<g id="node23" class="node">
<title>Node23</title>
<g id="a_node23"><a xlink:href="_linear_waves_8cpp.html" target="_top" xlink:title=" ">
<polygon fill="white" stroke="black" points="129.5,-0.5 129.5,-19.5 228.5,-19.5 228.5,-0.5 129.5,-0.5"/>
<text text-anchor="middle" x="179" y="-7.5" font-family="Helvetica,sans-Serif" font-size="10.00">LinearWaves.cpp</text>
</a>
</g>
</g>
<!-- Node22&#45;&gt;Node23 -->
<g id="edge26" class="edge">
<title>Node22&#45;&gt;Node23</title>
<path fill="none" stroke="midnightblue" d="M179,-45.8C179,-36.91 179,-26.78 179,-19.75"/>
<polygon fill="midnightblue" stroke="midnightblue" points="175.5,-46.08 179,-56.08 182.5,-46.08 175.5,-46.08"/>
</g>
<!-- Node25 -->
<g id="node25" class="node">
<title>Node25</title>
<g id="a_node25"><a xlink:href="_stokes_waves_8cpp.html" target="_top" xlink:title=" ">
<polygon fill="white" stroke="black" points="262.5,-0.5 262.5,-19.5 363.5,-19.5 363.5,-0.5 262.5,-0.5"/>
<text text-anchor="middle" x="313" y="-7.5" font-family="Helvetica,sans-Serif" font-size="10.00">StokesWaves.cpp</text>
</a>
</g>
</g>
<!-- Node24&#45;&gt;Node25 -->
<g id="edge29" class="edge">
<title>Node24&#45;&gt;Node25</title>
<path fill="none" stroke="midnightblue" d="M313,-45.8C313,-36.91 313,-26.78 313,-19.75"/>
<polygon fill="midnightblue" stroke="midnightblue" points="309.5,-46.08 313,-56.08 316.5,-46.08 309.5,-46.08"/>
</g>
<!-- Node35&#45;&gt;Node4 -->
<g id="edge40" class="edge">
<title>Node35&#45;&gt;Node4</title>
<path fill="none" stroke="midnightblue" d="M1821.1,-165.66C1782.82,-154.78 1726.3,-138.72 1694.66,-129.73"/>
<polygon fill="midnightblue" stroke="midnightblue" points="1820.32,-169.08 1830.89,-168.44 1822.23,-162.34 1820.32,-169.08"/>
</g>
<!-- Node36&#45;&gt;Node4 -->
<g id="edge42" class="edge">
<title>Node36&#45;&gt;Node4</title>
<path fill="none" stroke="midnightblue" d="M1602.55,-163.18C1619.48,-153.24 1641.78,-140.15 1656.26,-131.65"/>
<polygon fill="midnightblue" stroke="midnightblue" points="1600.63,-160.24 1593.78,-168.32 1604.18,-166.28 1600.63,-160.24"/>
</g>
<!-- Node37&#45;&gt;Node4 -->
<g id="edge44" class="edge">
<title>Node37&#45;&gt;Node4</title>
<path fill="none" stroke="midnightblue" d="M1336.39,-167.9C1470.78,-147.48 1508.13,-157.28 1638,-132 1641.03,-131.41 1644.19,-130.69 1647.31,-129.91"/>
<polygon fill="midnightblue" stroke="midnightblue" points="1335.46,-164.5 1326.11,-169.49 1336.53,-171.42 1335.46,-164.5"/>
</g>
<!-- Node37&#45;&gt;Node31 -->
<g id="edge45" class="edge">
<title>Node37&#45;&gt;Node31</title>
<path fill="none" stroke="midnightblue" d="M1270.24,-162.1C1258,-152.38 1242.44,-140.03 1232.12,-131.83"/>
<polygon fill="midnightblue" stroke="midnightblue" points="1268.07,-164.85 1278.07,-168.32 1272.42,-159.36 1268.07,-164.85"/>
</g>
<!-- Node37&#45;&gt;Node32 -->
<g id="edge47" class="edge">
<title>Node37&#45;&gt;Node32</title>
<path fill="none" stroke="midnightblue" d="M1250.89,-165.57C1216.94,-155.38 1168.01,-140.7 1137.39,-131.52"/>
<polygon fill="midnightblue" stroke="midnightblue" points="1249.89,-168.92 1260.48,-168.44 1251.91,-162.22 1249.89,-168.92"/>
</g>
<!-- Node37&#45;&gt;Node33 -->
<g id="edge48" class="edge">
<title>Node37&#45;&gt;Node33</title>
<path fill="none" stroke="midnightblue" d="M1326.47,-165.44C1359.47,-155.26 1406.76,-140.66 1436.4,-131.52"/>
<polygon fill="midnightblue" stroke="midnightblue" points="1325.25,-162.15 1316.73,-168.44 1327.32,-168.84 1325.25,-162.15"/>
</g>
<!-- Node38 -->
<g id="node38" class="node">
<title>Node38</title>
<g id="a_node38"><a xlink:href="_smagorinsky_8cpp.html" target="_top" xlink:title=" ">
<polygon fill="white" stroke="black" points="1285,-112.5 1285,-131.5 1383,-131.5 1383,-112.5 1285,-112.5"/>
<text text-anchor="middle" x="1334" y="-119.5" font-family="Helvetica,sans-Serif" font-size="10.00">Smagorinsky.cpp</text>
</a>
</g>
</g>
<!-- Node37&#45;&gt;Node38 -->
<g id="edge46" class="edge">
<title>Node37&#45;&gt;Node38</title>
<path fill="none" stroke="midnightblue" d="M1303.05,-160.14C1310.89,-150.74 1320.33,-139.4 1326.71,-131.75"/>
<polygon fill="midnightblue" stroke="midnightblue" points="1300.14,-158.16 1296.43,-168.08 1305.52,-162.64 1300.14,-158.16"/>
</g>
<!-- Node39&#45;&gt;Node4 -->
<g id="edge50" class="edge">
<title>Node39&#45;&gt;Node4</title>
<path fill="none" stroke="midnightblue" d="M1420.4,-167.82C1517.65,-149.85 1544.73,-152.33 1638,-132 1641.02,-131.34 1644.17,-130.58 1647.28,-129.78"/>
<polygon fill="midnightblue" stroke="midnightblue" points="1419.63,-164.4 1410.44,-169.68 1420.91,-171.28 1419.63,-164.4"/>
</g>
<!-- Node39&#45;&gt;Node33 -->
<g id="edge51" class="edge">
<title>Node39&#45;&gt;Node33</title>
<path fill="none" stroke="midnightblue" d="M1399.72,-162.9C1415.67,-153 1436.5,-140.07 1450.06,-131.65"/>
<polygon fill="midnightblue" stroke="midnightblue" points="1397.63,-160.08 1390.98,-168.32 1401.32,-166.02 1397.63,-160.08"/>
</g>
<!-- Node40&#45;&gt;Node4 -->
<g id="edge53" class="edge">
<title>Node40&#45;&gt;Node4</title>
<path fill="none" stroke="midnightblue" d="M1516.76,-165.71C1556.28,-154.77 1614.9,-138.54 1647.3,-129.56"/>
<polygon fill="midnightblue" stroke="midnightblue" points="1515.6,-162.4 1506.9,-168.44 1517.47,-169.15 1515.6,-162.4"/>
</g>
<!-- Node40&#45;&gt;Node33 -->
<g id="edge54" class="edge">
<title>Node40&#45;&gt;Node33</title>
<path fill="none" stroke="midnightblue" d="M1471.8,-158.1C1469.81,-149.14 1467.52,-138.86 1465.94,-131.75"/>
<polygon fill="midnightblue" stroke="midnightblue" points="1468.43,-159.08 1474.02,-168.08 1475.27,-157.56 1468.43,-159.08"/>
</g>
<!-- Node41 -->
<g id="node41" class="node">
<title>Node41</title>
<g id="a_node41"><a xlink:href="_enstrophy_8cpp.html" target="_top" xlink:title=" ">
<polygon fill="white" stroke="black" points="1545,-112.5 1545,-131.5 1629,-131.5 1629,-112.5 1545,-112.5"/>
<text text-anchor="middle" x="1587" y="-119.5" font-family="Helvetica,sans-Serif" font-size="10.00">Enstrophy.cpp</text>
</a>
</g>
</g>
<!-- Node40&#45;&gt;Node41 -->
<g id="edge55" class="edge">
<title>Node40&#45;&gt;Node41</title>
<path fill="none" stroke="midnightblue" d="M1503.01,-163.86C1523.59,-153.85 1551.34,-140.35 1569.21,-131.65"/>
<polygon fill="midnightblue" stroke="midnightblue" points="1501.3,-160.8 1493.83,-168.32 1504.36,-167.1 1501.3,-160.8"/>
</g>
<!-- Node43 -->
<g id="node43" class="node">
<title>Node43</title>
<g id="a_node43"><a xlink:href="_a_m_d_8cpp.html" target="_top" xlink:title=" ">
<polygon fill="white" stroke="black" points="2036,-168.5 2036,-187.5 2096,-187.5 2096,-168.5 2036,-168.5"/>
<text text-anchor="middle" x="2066" y="-175.5" font-family="Helvetica,sans-Serif" font-size="10.00">AMD.cpp</text>
</a>
</g>
</g>
<!-- Node42&#45;&gt;Node43 -->
<g id="edge57" class="edge">
<title>Node42&#45;&gt;Node43</title>
<path fill="none" stroke="midnightblue" d="M2066,-213.8C2066,-204.91 2066,-194.78 2066,-187.75"/>
<polygon fill="midnightblue" stroke="midnightblue" points="2062.5,-214.08 2066,-224.08 2069.5,-214.08 2062.5,-214.08"/>
</g>
<!-- Node44&#45;&gt;Node30 -->
<g id="edge59" class="edge">
<title>Node44&#45;&gt;Node30</title>
<path fill="none" stroke="midnightblue" d="M1977.88,-214.35C1981.61,-190.25 1987.93,-149.31 1990.67,-131.59"/>
<polygon fill="midnightblue" stroke="midnightblue" points="1974.4,-213.95 1976.33,-224.37 1981.32,-215.02 1974.4,-213.95"/>
</g>
</g>
</svg>
        <g id="navigator" transform="translate(0 0)" fill="#404254">
                <rect fill="#f2f5e9" fill-opacity="0.5" stroke="#606060" stroke-width=".5" x="0" y="0" width="60" height="60"/>
                <use id="zoomplus" xlink:href="#zoomPlus" x="17" y="9" onmousedown="handleZoom(evt,'in')"/>
                <use id="zoomminus" xlink:href="#zoomMin" x="42" y="9" onmousedown="handleZoom(evt,'out')"/>
                <use id="reset" xlink:href="#resetDef" x="30" y="36" onmousedown="handleReset()"/>
                <g id="arrowUp" xlink:href="#dirArrow" transform="translate(30 24)" onmousedown="handlePan(0,-1)">
                  <use xlink:href="#rim" fill="#404040">
                        <set attributeName="fill" to="#808080" begin="arrowUp.mouseover" end="arrowUp.mouseout"/>
                  </use>
                  <path fill="none" stroke="white" stroke-width="1.5" d="M0,-3.0v7 M-2.5,-0.5L0,-3.0L2.5,-0.5"/>
                </g>
                <g id="arrowRight" xlink:href="#dirArrow" transform="rotate(90) translate(36 -43)" onmousedown="handlePan(1,0)">
                  <use xlink:href="#rim" fill="#404040">
                        <set attributeName="fill" to="#808080" begin="arrowRight.mouseover" end="arrowRight.mouseout"/>
                  </use>
                  <path fill="none" stroke="white" stroke-width="1.5" d="M0,-3.0v7 M-2.5,-0.5L0,-3.0L2.5,-0.5"/>
                </g>
                <g id="arrowDown" xlink:href="#dirArrow" transform="rotate(180) translate(-30 -48)" onmousedown="handlePan(0,1)">
                  <use xlink:href="#rim" fill="#404040">
                        <set attributeName="fill" to="#808080" begin="arrowDown.mouseover" end="arrowDown.mouseout"/>
                  </use>
                  <path fill="none" stroke="white" stroke-width="1.5" d="M0,-3.0v7 M-2.5,-0.5L0,-3.0L2.5,-0.5"/>
                </g>
                <g id="arrowLeft" xlink:href="#dirArrow" transform="rotate(270) translate(-36 17)" onmousedown="handlePan(-1,0)">
                  <use xlink:href="#rim" fill="#404040">
                        <set attributeName="fill" to="#808080" begin="arrowLeft.mouseover" end="arrowLeft.mouseout"/>
                  </use>
                  <path fill="none" stroke="white" stroke-width="1.5" d="M0,-3.0v7 M-2.5,-0.5L0,-3.0L2.5,-0.5"/>
                </g>
        </g>
        <svg viewBox="0 0 15 15" width="100%" height="30px" preserveAspectRatio="xMaxYMin meet">
         <g id="arrow_out" transform="scale(0.3 0.3)">
          <a xlink:href="stencils_8_h__dep__incl_org.svg" target="_base">
           <rect id="button" ry="5" rx="5" y="6" x="6" height="38" width="38"
                fill="#f2f5e9" fill-opacity="0.5" stroke="#606060" stroke-width="1.0"/>
           <path id="arrow"
             d="M 11.500037,31.436501 C 11.940474,20.09759 22.043105,11.32322 32.158766,21.979434 L 37.068811,17.246167 C 37.068811,17.246167 37.088388,32 37.088388,32 L 22.160133,31.978069 C 22.160133,31.978069 26.997745,27.140456 26.997745,27.140456 C 18.528582,18.264221 13.291696,25.230495 11.500037,31.436501 z"
             style="fill:#404040;"/>
          </a>
         </g>
        </svg>
</svg>
