<?xml version="1.0" encoding="UTF-8" standalone="no"?>
<!DOCTYPE svg PUBLIC "-//W3C//DTD SVG 1.1//EN"
 "http://www.w3.org/Graphics/SVG/1.1/DTD/svg11.dtd">
<!-- Generated by graphviz version 2.43.0 (0)
 -->
<!-- Title: amr_wind::actuator::WingBaseData Pages: 1 -->
<svg width="998pt" height="202pt"
 viewBox="0.00 0.00 998.00 201.50" xmlns="http://www.w3.org/2000/svg" xmlns:xlink="http://www.w3.org/1999/xlink">
<g id="graph0" class="graph" transform="scale(1 1) rotate(0) translate(4 197.5)">
<title>amr_wind::actuator::WingBaseData</title>
<polygon fill="white" stroke="transparent" points="-4,4 -4,-197.5 994,-197.5 994,4 -4,4"/>
<!-- Node1 -->
<g id="node1" class="node">
<title>Node1</title>
<g id="a_node1"><a xlink:title="Base data representation of a fixed&#45;wing.">
<polygon fill="#bfbfbf" stroke="black" points="879,-61 879,-91 990,-91 990,-61 879,-61"/>
<text text-anchor="start" x="887" y="-79" font-family="Helvetica,sans-Serif" font-size="10.00">amr_wind::actuator</text>
<text text-anchor="middle" x="934.5" y="-68" font-family="Helvetica,sans-Serif" font-size="10.00">::WingBaseData</text>
</a>
</g>
</g>
<!-- Node2 -->
<g id="node2" class="node">
<title>Node2</title>
<g id="a_node2"><a xlink:href="structamr__wind_1_1actuator_1_1_component_view.html" target="_top" xlink:title="Slice of actutator data for components (tower, blade, etc)">
<polygon fill="white" stroke="black" points="623,-107 623,-137 734,-137 734,-107 623,-107"/>
<text text-anchor="start" x="631" y="-125" font-family="Helvetica,sans-Serif" font-size="10.00">amr_wind::actuator</text>
<text text-anchor="middle" x="678.5" y="-114" font-family="Helvetica,sans-Serif" font-size="10.00">::ComponentView</text>
</a>
</g>
</g>
<!-- Node2&#45;&gt;Node1 -->
<g id="edge1" class="edge">
<title>Node2&#45;&gt;Node1</title>
<path fill="none" stroke="#9a32cd" stroke-dasharray="5,2" d="M744.34,-110.26C785.93,-102.72 839.34,-93.05 878.8,-85.91"/>
<polygon fill="#9a32cd" stroke="#9a32cd" points="743.52,-106.85 734.3,-112.08 744.77,-113.74 743.52,-106.85"/>
<text text-anchor="middle" x="817.5" y="-107" font-family="Helvetica,sans-Serif" font-size="10.00"> component_view</text>
</g>
<!-- Node3 -->
<g id="node3" class="node">
<title>Node3</title>
<g id="a_node3"><a xlink:href="structamr__wind_1_1utils_1_1_slice.html" target="_top" xlink:title=" ">
<polygon fill="white" stroke="black" points="324.5,-163 324.5,-193 445.5,-193 445.5,-163 324.5,-163"/>
<text text-anchor="start" x="332.5" y="-181" font-family="Helvetica,sans-Serif" font-size="10.00">amr_wind::utils::Slice</text>
<text text-anchor="middle" x="385" y="-170" font-family="Helvetica,sans-Serif" font-size="10.00">&lt; amrex::Real &gt;</text>
</a>
</g>
</g>
<!-- Node3&#45;&gt;Node2 -->
<g id="edge2" class="edge">
<title>Node3&#45;&gt;Node2</title>
<path fill="none" stroke="#9a32cd" stroke-dasharray="5,2" d="M455.4,-165.19C493.16,-158.16 540.67,-149.23 583,-141 595.81,-138.51 609.59,-135.77 622.56,-133.17"/>
<polygon fill="#9a32cd" stroke="#9a32cd" points="454.71,-161.76 445.52,-167.03 455.99,-168.64 454.71,-161.76"/>
<text text-anchor="middle" x="528.5" y="-164" font-family="Helvetica,sans-Serif" font-size="10.00"> chord</text>
</g>
<!-- Node4 -->
<g id="node4" class="node">
<title>Node4</title>
<g id="a_node4"><a xlink:href="structamr__wind_1_1utils_1_1_slice.html" target="_top" xlink:title=" ">
<polygon fill="white" stroke="black" points="0,-119.5 0,-138.5 149,-138.5 149,-119.5 0,-119.5"/>
<text text-anchor="middle" x="74.5" y="-126.5" font-family="Helvetica,sans-Serif" font-size="10.00">amr_wind::utils::Slice&lt; T &gt;</text>
</a>
</g>
</g>
<!-- Node4&#45;&gt;Node3 -->
<g id="edge3" class="edge">
<title>Node4&#45;&gt;Node3</title>
<path fill="none" stroke="orange" stroke-dasharray="5,2" d="M143.19,-140.15C151.21,-141.46 159.29,-142.76 167,-144 220.09,-152.51 280.53,-161.96 324.11,-168.73"/>
<polygon fill="orange" stroke="orange" points="143.52,-136.66 133.09,-138.5 142.39,-143.57 143.52,-136.66"/>
<text text-anchor="middle" x="231.5" y="-167" font-family="Helvetica,sans-Serif" font-size="10.00"> &lt; amrex::Real &gt;</text>
</g>
<!-- Node5 -->
<g id="node5" class="node">
<title>Node5</title>
<g id="a_node5"><a xlink:href="structamr__wind_1_1utils_1_1_slice.html" target="_top" xlink:title=" ">
<polygon fill="white" stroke="black" points="314,-114 314,-144 456,-144 456,-114 314,-114"/>
<text text-anchor="start" x="322" y="-132" font-family="Helvetica,sans-Serif" font-size="10.00">amr_wind::utils::Slice</text>
<text text-anchor="middle" x="385" y="-121" font-family="Helvetica,sans-Serif" font-size="10.00">&lt; amr_wind::vs::Tensor &gt;</text>
</a>
</g>
</g>
<!-- Node4&#45;&gt;Node5 -->
<g id="edge5" class="edge">
<title>Node4&#45;&gt;Node5</title>
<path fill="none" stroke="orange" stroke-dasharray="5,2" d="M159.16,-129C207.65,-129 268.01,-129 313.98,-129"/>
<polygon fill="orange" stroke="orange" points="159,-125.5 149,-129 159,-132.5 159,-125.5"/>
<text text-anchor="middle" x="231.5" y="-132" font-family="Helvetica,sans-Serif" font-size="10.00"> &lt; amr_wind::vs::Tensor &gt;</text>
</g>
<!-- Node6 -->
<g id="node6" class="node">
<title>Node6</title>
<g id="a_node6"><a xlink:href="structamr__wind_1_1utils_1_1_slice.html" target="_top" xlink:title=" ">
<polygon fill="white" stroke="black" points="314.5,-50 314.5,-80 455.5,-80 455.5,-50 314.5,-50"/>
<text text-anchor="start" x="322.5" y="-68" font-family="Helvetica,sans-Serif" font-size="10.00">amr_wind::utils::Slice</text>
<text text-anchor="middle" x="385" y="-57" font-family="Helvetica,sans-Serif" font-size="10.00">&lt; amr_wind::vs::Vector &gt;</text>
</a>
</g>
</g>
<!-- Node4&#45;&gt;Node6 -->
<g id="edge7" class="edge">
<title>Node4&#45;&gt;Node6</title>
<path fill="none" stroke="orange" stroke-dasharray="5,2" d="M131.28,-117.43C182.66,-106.77 259.09,-90.91 314.44,-79.43"/>
<polygon fill="orange" stroke="orange" points="130.43,-114.03 121.35,-119.49 131.85,-120.88 130.43,-114.03"/>
<text text-anchor="middle" x="231.5" y="-111" font-family="Helvetica,sans-Serif" font-size="10.00"> &lt; amr_wind::vs::Vector &gt;</text>
</g>
<!-- Node5&#45;&gt;Node2 -->
<g id="edge4" class="edge">
<title>Node5&#45;&gt;Node2</title>
<path fill="none" stroke="#9a32cd" stroke-dasharray="5,2" d="M466.3,-127.07C516.14,-125.87 578.86,-124.37 622.96,-123.31"/>
<polygon fill="#9a32cd" stroke="#9a32cd" points="466.11,-123.58 456.19,-127.31 466.27,-130.57 466.11,-123.58"/>
<text text-anchor="middle" x="528.5" y="-129" font-family="Helvetica,sans-Serif" font-size="10.00"> orientation</text>
</g>
<!-- Node6&#45;&gt;Node2 -->
<g id="edge6" class="edge">
<title>Node6&#45;&gt;Node2</title>
<path fill="none" stroke="#9a32cd" stroke-dasharray="5,2" d="M442.96,-47.6C483.96,-38.36 539.47,-32.79 583,-54 594.67,-59.69 591.23,-68.45 601,-77 614.45,-88.78 631.41,-99.12 645.95,-106.91"/>
<polygon fill="#9a32cd" stroke="#9a32cd" points="442.04,-44.22 433.13,-49.94 443.67,-51.02 442.04,-44.22"/>
<text text-anchor="middle" x="528.5" y="-112" font-family="Helvetica,sans-Serif" font-size="10.00"> epsilon</text>
<text text-anchor="middle" x="528.5" y="-101" font-family="Helvetica,sans-Serif" font-size="10.00">force</text>
<text text-anchor="middle" x="528.5" y="-90" font-family="Helvetica,sans-Serif" font-size="10.00">pos</text>
<text text-anchor="middle" x="528.5" y="-79" font-family="Helvetica,sans-Serif" font-size="10.00">vel</text>
<text text-anchor="middle" x="528.5" y="-68" font-family="Helvetica,sans-Serif" font-size="10.00">vel_pos</text>
<text text-anchor="middle" x="528.5" y="-57" font-family="Helvetica,sans-Serif" font-size="10.00">vel_rel</text>
</g>
<!-- Node7 -->
<g id="node7" class="node">
<title>Node7</title>
<g id="a_node7"><a xlink:title=" ">
<polygon fill="white" stroke="#bfbfbf" points="601,-37 601,-67 756,-67 756,-37 601,-37"/>
<text text-anchor="start" x="609" y="-55" font-family="Helvetica,sans-Serif" font-size="10.00">std::unique_ptr&lt; amr</text>
<text text-anchor="middle" x="678.5" y="-44" font-family="Helvetica,sans-Serif" font-size="10.00">_wind::actuator::FLLCData &gt;</text>
</a>
</g>
</g>
<!-- Node7&#45;&gt;Node1 -->
<g id="edge8" class="edge">
<title>Node7&#45;&gt;Node1</title>
<path fill="none" stroke="#9a32cd" stroke-dasharray="5,2" d="M766.09,-55.99C796.19,-57.84 830.14,-60.43 861,-64 866.83,-64.67 872.91,-65.49 878.95,-66.38"/>
<polygon fill="#9a32cd" stroke="#9a32cd" points="766.23,-52.49 756.04,-55.39 765.81,-59.48 766.23,-52.49"/>
<text text-anchor="middle" x="817.5" y="-67" font-family="Helvetica,sans-Serif" font-size="10.00"> fllc</text>
</g>
<!-- Node8 -->
<g id="node8" class="node">
<title>Node8</title>
<g id="a_node8"><a xlink:title=" ">
<polygon fill="white" stroke="#bfbfbf" points="326,-0.5 326,-19.5 444,-19.5 444,-0.5 326,-0.5"/>
<text text-anchor="middle" x="385" y="-7.5" font-family="Helvetica,sans-Serif" font-size="10.00">std::unique_ptr&lt; T &gt;</text>
</a>
</g>
</g>
<!-- Node8&#45;&gt;Node7 -->
<g id="edge9" class="edge">
<title>Node8&#45;&gt;Node7</title>
<path fill="none" stroke="orange" stroke-dasharray="5,2" d="M454.4,-3.64C492.63,-1.75 540.91,-2.15 583,-11 606.98,-16.04 632.35,-27.43 650.77,-36.93"/>
<polygon fill="orange" stroke="orange" points="454.19,-0.15 444.4,-4.2 454.58,-7.14 454.19,-0.15"/>
<text text-anchor="start" x="474" y="-25" font-family="Helvetica,sans-Serif" font-size="10.00"> &lt; amr_wind::actuator</text>
<text text-anchor="middle" x="528.5" y="-14" font-family="Helvetica,sans-Serif" font-size="10.00">::FLLCData &gt;</text>
</g>
<!-- Node9 -->
<g id="node9" class="node">
<title>Node9</title>
<g id="a_node9"><a xlink:title=" ">
<polygon fill="white" stroke="#bfbfbf" points="60,-0.5 60,-19.5 89,-19.5 89,-0.5 60,-0.5"/>
<text text-anchor="middle" x="74.5" y="-7.5" font-family="Helvetica,sans-Serif" font-size="10.00">T</text>
</a>
</g>
</g>
<!-- Node9&#45;&gt;Node8 -->
<g id="edge10" class="edge">
<title>Node9&#45;&gt;Node8</title>
<path fill="none" stroke="#9a32cd" stroke-dasharray="5,2" d="M99.2,-10C147.26,-10 257.39,-10 325.75,-10"/>
<polygon fill="#9a32cd" stroke="#9a32cd" points="99.15,-6.5 89.15,-10 99.15,-13.5 99.15,-6.5"/>
<text text-anchor="middle" x="231.5" y="-13" font-family="Helvetica,sans-Serif" font-size="10.00"> ptr</text>
</g>
</g>
</svg>
