<?xml version="1.0" encoding="UTF-8" standalone="no"?>
<!DOCTYPE svg PUBLIC "-//W3C//DTD SVG 1.1//EN"
 "http://www.w3.org/Graphics/SVG/1.1/DTD/svg11.dtd">
<!-- Generated by graphviz version 2.43.0 (0)
 -->
<!-- Title: amr_wind::actuator::FixedWingData Pages: 1 -->
<!--zoomable 298 -->
<svg id="main" version="1.1" xmlns="http://www.w3.org/2000/svg" xmlns:xlink="http://www.w3.org/1999/xlink" xml:space="preserve" onload="init(evt)">
<style type="text/css"><![CDATA[
.edge:hover path { stroke: red; }
.edge:hover polygon { stroke: red; fill: red; }
]]></style>
<script type="text/javascript"><![CDATA[
var edges = document.getElementsByTagName('g');
if (edges && edges.length) {
  for (var i=0;i<edges.length;i++) {
    if (edges[i].id.substr(0,4)=='edge') {
      edges[i].setAttribute('class','edge');
    }
  }
}
]]></script>
        <defs>
                <circle id="rim" cx="0" cy="0" r="7"/>
                <circle id="rim2" cx="0" cy="0" r="3.5"/>
                <g id="zoomPlus">
                        <use xlink:href="#rim" fill="#404040">
                                <set attributeName="fill" to="#808080" begin="zoomplus.mouseover" end="zoomplus.mouseout"/>
                        </use>
                        <path d="M-4,0h8M0,-4v8" fill="none" stroke="white" stroke-width="1.5" pointer-events="none"/>
                </g>
                <g id="zoomMin">
                        <use xlink:href="#rim" fill="#404040">
                                <set attributeName="fill" to="#808080" begin="zoomminus.mouseover" end="zoomminus.mouseout"/>
                        </use>
                        <path d="M-4,0h8" fill="none" stroke="white" stroke-width="1.5" pointer-events="none"/>
                </g>
                <g id="dirArrow">
                        <path fill="none" stroke="white" stroke-width="1.5" d="M0,-3.0v7 M-2.5,-0.5L0,-3.0L2.5,-0.5"/>
                </g>
               <g id="resetDef">
                       <use xlink:href="#rim2" fill="#404040">
                               <set attributeName="fill" to="#808080" begin="reset.mouseover" end="reset.mouseout"/>
                       </use>
               </g>
        </defs>

<script type="text/javascript">
var viewWidth = 1278;
var viewHeight = 298;
var sectionId = 'dynsection-1';
</script>
<script xlink:href="svgpan.js"/>
<svg id="graph" class="graph">
<g id="viewport">
<title>amr_wind::actuator::FixedWingData</title>
<polygon fill="white" stroke="transparent" points="-4,4 -4,-294 1274,-294 1274,4 -4,4"/>
<!-- Node1 -->
<g id="node1" class="node">
<title>Node1</title>
<g id="a_node1"><a xlink:title=" ">
<polygon fill="#bfbfbf" stroke="black" points="1159,-46.5 1159,-76.5 1270,-76.5 1270,-46.5 1159,-46.5"/>
<text text-anchor="start" x="1167" y="-64.5" font-family="Helvetica,sans-Serif" font-size="10.00">amr_wind::actuator</text>
<text text-anchor="middle" x="1214.5" y="-53.5" font-family="Helvetica,sans-Serif" font-size="10.00">::FixedWingData</text>
</a>
</g>
</g>
<!-- Node2 -->
<g id="node2" class="node">
<title>Node2</title>
<g id="a_node2"><a xlink:href="structamr__wind_1_1actuator_1_1_wing_base_data.html" target="_top" xlink:title="Base data representation of a fixed&#45;wing.">
<polygon fill="white" stroke="black" points="956,-91.5 956,-121.5 1067,-121.5 1067,-91.5 956,-91.5"/>
<text text-anchor="start" x="964" y="-109.5" font-family="Helvetica,sans-Serif" font-size="10.00">amr_wind::actuator</text>
<text text-anchor="middle" x="1011.5" y="-98.5" font-family="Helvetica,sans-Serif" font-size="10.00">::WingBaseData</text>
</a>
</g>
</g>
<!-- Node2&#45;&gt;Node1 -->
<g id="edge1" class="edge">
<title>Node2&#45;&gt;Node1</title>
<path fill="none" stroke="midnightblue" d="M1077.06,-92.05C1103.43,-86.14 1133.6,-79.39 1158.85,-73.73"/>
<polygon fill="midnightblue" stroke="midnightblue" points="1076.15,-88.66 1067.16,-94.26 1077.68,-95.49 1076.15,-88.66"/>
</g>
<!-- Node3 -->
<g id="node3" class="node">
<title>Node3</title>
<g id="a_node3"><a xlink:href="structamr__wind_1_1actuator_1_1_component_view.html" target="_top" xlink:title="Slice of actutator data for components (tower, blade, etc)">
<polygon fill="white" stroke="black" points="623,-200.5 623,-230.5 734,-230.5 734,-200.5 623,-200.5"/>
<text text-anchor="start" x="631" y="-218.5" font-family="Helvetica,sans-Serif" font-size="10.00">amr_wind::actuator</text>
<text text-anchor="middle" x="678.5" y="-207.5" font-family="Helvetica,sans-Serif" font-size="10.00">::ComponentView</text>
</a>
</g>
</g>
<!-- Node3&#45;&gt;Node2 -->
<g id="edge2" class="edge">
<title>Node3&#45;&gt;Node2</title>
<path fill="none" stroke="#9a32cd" stroke-dasharray="5,2" d="M734.77,-197.3C799.26,-176.06 904.68,-141.35 964.76,-121.56"/>
<polygon fill="#9a32cd" stroke="#9a32cd" points="733.58,-194.01 725.18,-200.46 735.77,-200.65 733.58,-194.01"/>
<text text-anchor="middle" x="856" y="-185.5" font-family="Helvetica,sans-Serif" font-size="10.00"> component_view</text>
</g>
<!-- Node4 -->
<g id="node4" class="node">
<title>Node4</title>
<g id="a_node4"><a xlink:href="structamr__wind_1_1utils_1_1_slice.html" target="_top" xlink:title=" ">
<polygon fill="white" stroke="black" points="324.5,-259.5 324.5,-289.5 445.5,-289.5 445.5,-259.5 324.5,-259.5"/>
<text text-anchor="start" x="332.5" y="-277.5" font-family="Helvetica,sans-Serif" font-size="10.00">amr_wind::utils::Slice</text>
<text text-anchor="middle" x="385" y="-266.5" font-family="Helvetica,sans-Serif" font-size="10.00">&lt; amrex::Real &gt;</text>
</a>
</g>
</g>
<!-- Node4&#45;&gt;Node3 -->
<g id="edge3" class="edge">
<title>Node4&#45;&gt;Node3</title>
<path fill="none" stroke="#9a32cd" stroke-dasharray="5,2" d="M455.45,-261.6C493.22,-254.45 540.73,-245.27 583,-236.5 595.84,-233.84 609.62,-230.85 622.59,-227.98"/>
<polygon fill="#9a32cd" stroke="#9a32cd" points="454.75,-258.17 445.57,-263.46 456.05,-265.05 454.75,-258.17"/>
<text text-anchor="middle" x="528.5" y="-260.5" font-family="Helvetica,sans-Serif" font-size="10.00"> chord</text>
</g>
<!-- Node5 -->
<g id="node5" class="node">
<title>Node5</title>
<g id="a_node5"><a xlink:href="structamr__wind_1_1utils_1_1_slice.html" target="_top" xlink:title=" ">
<polygon fill="white" stroke="black" points="0,-216 0,-235 149,-235 149,-216 0,-216"/>
<text text-anchor="middle" x="74.5" y="-223" font-family="Helvetica,sans-Serif" font-size="10.00">amr_wind::utils::Slice&lt; T &gt;</text>
</a>
</g>
</g>
<!-- Node5&#45;&gt;Node4 -->
<g id="edge4" class="edge">
<title>Node5&#45;&gt;Node4</title>
<path fill="none" stroke="orange" stroke-dasharray="5,2" d="M143.19,-236.65C151.21,-237.96 159.29,-239.26 167,-240.5 220.09,-249.01 280.53,-258.46 324.11,-265.23"/>
<polygon fill="orange" stroke="orange" points="143.52,-233.16 133.09,-235 142.39,-240.07 143.52,-233.16"/>
<text text-anchor="middle" x="231.5" y="-263.5" font-family="Helvetica,sans-Serif" font-size="10.00"> &lt; amrex::Real &gt;</text>
</g>
<!-- Node6 -->
<g id="node6" class="node">
<title>Node6</title>
<g id="a_node6"><a xlink:href="structamr__wind_1_1utils_1_1_slice.html" target="_top" xlink:title=" ">
<polygon fill="white" stroke="black" points="314,-210.5 314,-240.5 456,-240.5 456,-210.5 314,-210.5"/>
<text text-anchor="start" x="322" y="-228.5" font-family="Helvetica,sans-Serif" font-size="10.00">amr_wind::utils::Slice</text>
<text text-anchor="middle" x="385" y="-217.5" font-family="Helvetica,sans-Serif" font-size="10.00">&lt; amr_wind::vs::Tensor &gt;</text>
</a>
</g>
</g>
<!-- Node5&#45;&gt;Node6 -->
<g id="edge6" class="edge">
<title>Node5&#45;&gt;Node6</title>
<path fill="none" stroke="orange" stroke-dasharray="5,2" d="M159.16,-225.5C207.65,-225.5 268.01,-225.5 313.98,-225.5"/>
<polygon fill="orange" stroke="orange" points="159,-222 149,-225.5 159,-229 159,-222"/>
<text text-anchor="middle" x="231.5" y="-228.5" font-family="Helvetica,sans-Serif" font-size="10.00"> &lt; amr_wind::vs::Tensor &gt;</text>
</g>
<!-- Node7 -->
<g id="node7" class="node">
<title>Node7</title>
<g id="a_node7"><a xlink:href="structamr__wind_1_1utils_1_1_slice.html" target="_top" xlink:title=" ">
<polygon fill="white" stroke="black" points="314.5,-146.5 314.5,-176.5 455.5,-176.5 455.5,-146.5 314.5,-146.5"/>
<text text-anchor="start" x="322.5" y="-164.5" font-family="Helvetica,sans-Serif" font-size="10.00">amr_wind::utils::Slice</text>
<text text-anchor="middle" x="385" y="-153.5" font-family="Helvetica,sans-Serif" font-size="10.00">&lt; amr_wind::vs::Vector &gt;</text>
</a>
</g>
</g>
<!-- Node5&#45;&gt;Node7 -->
<g id="edge8" class="edge">
<title>Node5&#45;&gt;Node7</title>
<path fill="none" stroke="orange" stroke-dasharray="5,2" d="M131.28,-213.93C182.66,-203.27 259.09,-187.41 314.44,-175.93"/>
<polygon fill="orange" stroke="orange" points="130.43,-210.53 121.35,-215.99 131.85,-217.38 130.43,-210.53"/>
<text text-anchor="middle" x="231.5" y="-207.5" font-family="Helvetica,sans-Serif" font-size="10.00"> &lt; amr_wind::vs::Vector &gt;</text>
</g>
<!-- Node6&#45;&gt;Node3 -->
<g id="edge5" class="edge">
<title>Node6&#45;&gt;Node3</title>
<path fill="none" stroke="#9a32cd" stroke-dasharray="5,2" d="M466.3,-222.75C516.14,-221.04 578.86,-218.88 622.96,-217.37"/>
<polygon fill="#9a32cd" stroke="#9a32cd" points="466.07,-219.25 456.19,-223.09 466.31,-226.25 466.07,-219.25"/>
<text text-anchor="middle" x="528.5" y="-224.5" font-family="Helvetica,sans-Serif" font-size="10.00"> orientation</text>
</g>
<!-- Node7&#45;&gt;Node3 -->
<g id="edge7" class="edge">
<title>Node7&#45;&gt;Node3</title>
<path fill="none" stroke="#9a32cd" stroke-dasharray="5,2" d="M455.19,-144.67C493.67,-138.33 541.93,-135.42 583,-148.5 614.81,-158.63 645.1,-183.8 662.47,-200.24"/>
<polygon fill="#9a32cd" stroke="#9a32cd" points="454.37,-141.26 445.12,-146.45 455.58,-148.16 454.37,-141.26"/>
<text text-anchor="middle" x="528.5" y="-206.5" font-family="Helvetica,sans-Serif" font-size="10.00"> epsilon</text>
<text text-anchor="middle" x="528.5" y="-195.5" font-family="Helvetica,sans-Serif" font-size="10.00">force</text>
<text text-anchor="middle" x="528.5" y="-184.5" font-family="Helvetica,sans-Serif" font-size="10.00">pos</text>
<text text-anchor="middle" x="528.5" y="-173.5" font-family="Helvetica,sans-Serif" font-size="10.00">vel</text>
<text text-anchor="middle" x="528.5" y="-162.5" font-family="Helvetica,sans-Serif" font-size="10.00">vel_pos</text>
<text text-anchor="middle" x="528.5" y="-151.5" font-family="Helvetica,sans-Serif" font-size="10.00">vel_rel</text>
</g>
<!-- Node8 -->
<g id="node8" class="node">
<title>Node8</title>
<g id="a_node8"><a xlink:title=" ">
<polygon fill="white" stroke="#bfbfbf" points="601,-91.5 601,-121.5 756,-121.5 756,-91.5 601,-91.5"/>
<text text-anchor="start" x="609" y="-109.5" font-family="Helvetica,sans-Serif" font-size="10.00">std::unique_ptr&lt; amr</text>
<text text-anchor="middle" x="678.5" y="-98.5" font-family="Helvetica,sans-Serif" font-size="10.00">_wind::actuator::FLLCData &gt;</text>
</a>
</g>
</g>
<!-- Node8&#45;&gt;Node2 -->
<g id="edge9" class="edge">
<title>Node8&#45;&gt;Node2</title>
<path fill="none" stroke="#9a32cd" stroke-dasharray="5,2" d="M766.49,-106.5C826.49,-106.5 904.39,-106.5 955.84,-106.5"/>
<polygon fill="#9a32cd" stroke="#9a32cd" points="766.27,-103 756.27,-106.5 766.27,-110 766.27,-103"/>
<text text-anchor="middle" x="856" y="-109.5" font-family="Helvetica,sans-Serif" font-size="10.00"> fllc</text>
</g>
<!-- Node9 -->
<g id="node9" class="node">
<title>Node9</title>
<g id="a_node9"><a xlink:title=" ">
<polygon fill="white" stroke="#bfbfbf" points="326,-75 326,-94 444,-94 444,-75 326,-75"/>
<text text-anchor="middle" x="385" y="-82" font-family="Helvetica,sans-Serif" font-size="10.00">std::unique_ptr&lt; T &gt;</text>
</a>
</g>
</g>
<!-- Node9&#45;&gt;Node8 -->
<g id="edge10" class="edge">
<title>Node9&#45;&gt;Node8</title>
<path fill="none" stroke="orange" stroke-dasharray="5,2" d="M454.3,-89.65C498.2,-92.97 555.32,-97.28 600.79,-100.71"/>
<polygon fill="orange" stroke="orange" points="454.52,-86.16 444.29,-88.9 454,-93.14 454.52,-86.16"/>
<text text-anchor="start" x="474" y="-112.5" font-family="Helvetica,sans-Serif" font-size="10.00"> &lt; amr_wind::actuator</text>
<text text-anchor="middle" x="528.5" y="-101.5" font-family="Helvetica,sans-Serif" font-size="10.00">::FLLCData &gt;</text>
</g>
<!-- Node11 -->
<g id="node11" class="node">
<title>Node11</title>
<g id="a_node11"><a xlink:title=" ">
<polygon fill="white" stroke="#bfbfbf" points="774,-46.5 774,-76.5 938,-76.5 938,-46.5 774,-46.5"/>
<text text-anchor="start" x="782" y="-64.5" font-family="Helvetica,sans-Serif" font-size="10.00">std::unique_ptr&lt; amr</text>
<text text-anchor="middle" x="856" y="-53.5" font-family="Helvetica,sans-Serif" font-size="10.00">_wind::actuator::AirfoilTable &gt;</text>
</a>
</g>
</g>
<!-- Node9&#45;&gt;Node11 -->
<g id="edge13" class="edge">
<title>Node9&#45;&gt;Node11</title>
<path fill="none" stroke="orange" stroke-dasharray="5,2" d="M432.09,-72.72C445.51,-69.78 460.26,-67.04 474,-65.5 576.88,-53.97 696.36,-55.05 773.7,-57.62"/>
<polygon fill="orange" stroke="orange" points="431.1,-69.35 422.12,-74.98 432.65,-76.18 431.1,-69.35"/>
<text text-anchor="start" x="474" y="-79.5" font-family="Helvetica,sans-Serif" font-size="10.00"> &lt; amr_wind::actuator</text>
<text text-anchor="middle" x="528.5" y="-68.5" font-family="Helvetica,sans-Serif" font-size="10.00">::AirfoilTable &gt;</text>
</g>
<!-- Node10 -->
<g id="node10" class="node">
<title>Node10</title>
<g id="a_node10"><a xlink:title=" ">
<polygon fill="white" stroke="#bfbfbf" points="60,-75 60,-94 89,-94 89,-75 60,-75"/>
<text text-anchor="middle" x="74.5" y="-82" font-family="Helvetica,sans-Serif" font-size="10.00">T</text>
</a>
</g>
</g>
<!-- Node10&#45;&gt;Node9 -->
<g id="edge11" class="edge">
<title>Node10&#45;&gt;Node9</title>
<path fill="none" stroke="#9a32cd" stroke-dasharray="5,2" d="M99.2,-84.5C147.26,-84.5 257.39,-84.5 325.75,-84.5"/>
<polygon fill="#9a32cd" stroke="#9a32cd" points="99.15,-81 89.15,-84.5 99.15,-88 99.15,-81"/>
<text text-anchor="middle" x="231.5" y="-87.5" font-family="Helvetica,sans-Serif" font-size="10.00"> ptr</text>
</g>
<!-- Node11&#45;&gt;Node1 -->
<g id="edge12" class="edge">
<title>Node11&#45;&gt;Node1</title>
<path fill="none" stroke="#9a32cd" stroke-dasharray="5,2" d="M948.41,-61.5C1014.96,-61.5 1102.87,-61.5 1158.82,-61.5"/>
<polygon fill="#9a32cd" stroke="#9a32cd" points="948.34,-58 938.34,-61.5 948.34,-65 948.34,-58"/>
<text text-anchor="middle" x="1011.5" y="-64.5" font-family="Helvetica,sans-Serif" font-size="10.00"> aflookup</text>
</g>
<!-- Node12 -->
<g id="node12" class="node">
<title>Node12</title>
<g id="a_node12"><a xlink:title=" ">
<polygon fill="white" stroke="#bfbfbf" points="979,-6 979,-25 1044,-25 1044,-6 979,-6"/>
<text text-anchor="middle" x="1011.5" y="-13" font-family="Helvetica,sans-Serif" font-size="10.00">std::string</text>
</a>
</g>
</g>
<!-- Node12&#45;&gt;Node1 -->
<g id="edge14" class="edge">
<title>Node12&#45;&gt;Node1</title>
<path fill="none" stroke="#9a32cd" stroke-dasharray="5,2" d="M1054.31,-14.75C1079.78,-15.27 1112.75,-17.7 1141,-25.5 1157.8,-30.14 1175.33,-38.73 1188.95,-46.35"/>
<polygon fill="#9a32cd" stroke="#9a32cd" points="1054.28,-11.25 1044.24,-14.63 1054.2,-18.25 1054.28,-11.25"/>
<text text-anchor="middle" x="1113" y="-39.5" font-family="Helvetica,sans-Serif" font-size="10.00"> airfoil_file</text>
<text text-anchor="middle" x="1113" y="-28.5" font-family="Helvetica,sans-Serif" font-size="10.00">airfoil_type</text>
</g>
<!-- Node13 -->
<g id="node13" class="node">
<title>Node13</title>
<g id="a_node13"><a xlink:title=" ">
<polygon fill="white" stroke="#bfbfbf" points="626.5,-0.5 626.5,-30.5 730.5,-30.5 730.5,-0.5 626.5,-0.5"/>
<text text-anchor="start" x="634.5" y="-18.5" font-family="Helvetica,sans-Serif" font-size="10.00">std::basic_string&lt;</text>
<text text-anchor="middle" x="678.5" y="-7.5" font-family="Helvetica,sans-Serif" font-size="10.00"> Char &gt;</text>
</a>
</g>
</g>
<!-- Node13&#45;&gt;Node12 -->
<g id="edge15" class="edge">
<title>Node13&#45;&gt;Node12</title>
<path fill="none" stroke="midnightblue" d="M740.94,-15.5C811.47,-15.5 924.43,-15.5 978.99,-15.5"/>
<polygon fill="midnightblue" stroke="midnightblue" points="740.86,-12 730.86,-15.5 740.86,-19 740.86,-12"/>
</g>
</g>
</svg>
        <g id="navigator" transform="translate(0 0)" fill="#404254">
                <rect fill="#f2f5e9" fill-opacity="0.5" stroke="#606060" stroke-width=".5" x="0" y="0" width="60" height="60"/>
                <use id="zoomplus" xlink:href="#zoomPlus" x="17" y="9" onmousedown="handleZoom(evt,'in')"/>
                <use id="zoomminus" xlink:href="#zoomMin" x="42" y="9" onmousedown="handleZoom(evt,'out')"/>
                <use id="reset" xlink:href="#resetDef" x="30" y="36" onmousedown="handleReset()"/>
                <g id="arrowUp" xlink:href="#dirArrow" transform="translate(30 24)" onmousedown="handlePan(0,-1)">
                  <use xlink:href="#rim" fill="#404040">
                        <set attributeName="fill" to="#808080" begin="arrowUp.mouseover" end="arrowUp.mouseout"/>
                  </use>
                  <path fill="none" stroke="white" stroke-width="1.5" d="M0,-3.0v7 M-2.5,-0.5L0,-3.0L2.5,-0.5"/>
                </g>
                <g id="arrowRight" xlink:href="#dirArrow" transform="rotate(90) translate(36 -43)" onmousedown="handlePan(1,0)">
                  <use xlink:href="#rim" fill="#404040">
                        <set attributeName="fill" to="#808080" begin="arrowRight.mouseover" end="arrowRight.mouseout"/>
                  </use>
                  <path fill="none" stroke="white" stroke-width="1.5" d="M0,-3.0v7 M-2.5,-0.5L0,-3.0L2.5,-0.5"/>
                </g>
                <g id="arrowDown" xlink:href="#dirArrow" transform="rotate(180) translate(-30 -48)" onmousedown="handlePan(0,1)">
                  <use xlink:href="#rim" fill="#404040">
                        <set attributeName="fill" to="#808080" begin="arrowDown.mouseover" end="arrowDown.mouseout"/>
                  </use>
                  <path fill="none" stroke="white" stroke-width="1.5" d="M0,-3.0v7 M-2.5,-0.5L0,-3.0L2.5,-0.5"/>
                </g>
                <g id="arrowLeft" xlink:href="#dirArrow" transform="rotate(270) translate(-36 17)" onmousedown="handlePan(-1,0)">
                  <use xlink:href="#rim" fill="#404040">
                        <set attributeName="fill" to="#808080" begin="arrowLeft.mouseover" end="arrowLeft.mouseout"/>
                  </use>
                  <path fill="none" stroke="white" stroke-width="1.5" d="M0,-3.0v7 M-2.5,-0.5L0,-3.0L2.5,-0.5"/>
                </g>
        </g>
        <svg viewBox="0 0 15 15" width="100%" height="30px" preserveAspectRatio="xMaxYMin meet">
         <g id="arrow_out" transform="scale(0.3 0.3)">
          <a xlink:href="structamr__wind_1_1actuator_1_1_fixed_wing_data__coll__graph_org.svg" target="_base">
           <rect id="button" ry="5" rx="5" y="6" x="6" height="38" width="38"
                fill="#f2f5e9" fill-opacity="0.5" stroke="#606060" stroke-width="1.0"/>
           <path id="arrow"
             d="M 11.500037,31.436501 C 11.940474,20.09759 22.043105,11.32322 32.158766,21.979434 L 37.068811,17.246167 C 37.068811,17.246167 37.088388,32 37.088388,32 L 22.160133,31.978069 C 22.160133,31.978069 26.997745,27.140456 26.997745,27.140456 C 18.528582,18.264221 13.291696,25.230495 11.500037,31.436501 z"
             style="fill:#404040;"/>
          </a>
         </g>
        </svg>
</svg>
