<?xml version="1.0" encoding="UTF-8" standalone="no"?>
<!DOCTYPE svg PUBLIC "-//W3C//DTD SVG 1.1//EN"
 "http://www.w3.org/Graphics/SVG/1.1/DTD/svg11.dtd">
<!-- Generated by graphviz version 2.43.0 (0)
 -->
<!-- Title: trig_ops.H Pages: 1 -->
<!--zoomable 375 -->
<svg id="main" version="1.1" xmlns="http://www.w3.org/2000/svg" xmlns:xlink="http://www.w3.org/1999/xlink" xml:space="preserve" onload="init(evt)">
<style type="text/css"><![CDATA[
.edge:hover path { stroke: red; }
.edge:hover polygon { stroke: red; fill: red; }
]]></style>
<script type="text/javascript"><![CDATA[
var edges = document.getElementsByTagName('g');
if (edges && edges.length) {
  for (var i=0;i<edges.length;i++) {
    if (edges[i].id.substr(0,4)=='edge') {
      edges[i].setAttribute('class','edge');
    }
  }
}
]]></script>
        <defs>
                <circle id="rim" cx="0" cy="0" r="7"/>
                <circle id="rim2" cx="0" cy="0" r="3.5"/>
                <g id="zoomPlus">
                        <use xlink:href="#rim" fill="#404040">
                                <set attributeName="fill" to="#808080" begin="zoomplus.mouseover" end="zoomplus.mouseout"/>
                        </use>
                        <path d="M-4,0h8M0,-4v8" fill="none" stroke="white" stroke-width="1.5" pointer-events="none"/>
                </g>
                <g id="zoomMin">
                        <use xlink:href="#rim" fill="#404040">
                                <set attributeName="fill" to="#808080" begin="zoomminus.mouseover" end="zoomminus.mouseout"/>
                        </use>
                        <path d="M-4,0h8" fill="none" stroke="white" stroke-width="1.5" pointer-events="none"/>
                </g>
                <g id="dirArrow">
                        <path fill="none" stroke="white" stroke-width="1.5" d="M0,-3.0v7 M-2.5,-0.5L0,-3.0L2.5,-0.5"/>
                </g>
               <g id="resetDef">
                       <use xlink:href="#rim2" fill="#404040">
                               <set attributeName="fill" to="#808080" begin="reset.mouseover" end="reset.mouseout"/>
                       </use>
               </g>
        </defs>

<script type="text/javascript">
var viewWidth = 3283;
var viewHeight = 375;
var sectionId = 'dynsection-1';
</script>
<script xlink:href="svgpan.js"/>
<svg id="graph" class="graph">
<g id="viewport">
<title>trig_ops.H</title>
<polygon fill="white" stroke="transparent" points="-4,4 -4,-371 3279,-371 3279,4 -4,4"/>
<!-- Node1 -->
<g id="node1" class="node">
<title>Node1</title>
<g id="a_node1"><a xlink:title="Trigonometric utilities.">
<polygon fill="#bfbfbf" stroke="black" points="1567,-347.5 1567,-366.5 1633,-366.5 1633,-347.5 1567,-347.5"/>
<text text-anchor="middle" x="1600" y="-354.5" font-family="Helvetica,sans-Serif" font-size="10.00">trig_ops.H</text>
</a>
</g>
</g>
<!-- Node2 -->
<g id="node2" class="node">
<title>Node2</title>
<g id="a_node2"><a xlink:href="_wall_function_8cpp.html" target="_top" xlink:title=" ">
<polygon fill="white" stroke="black" points="377.5,-291.5 377.5,-310.5 476.5,-310.5 476.5,-291.5 377.5,-291.5"/>
<text text-anchor="middle" x="427" y="-298.5" font-family="Helvetica,sans-Serif" font-size="10.00">WallFunction.cpp</text>
</a>
</g>
</g>
<!-- Node1&#45;&gt;Node2 -->
<g id="edge1" class="edge">
<title>Node1&#45;&gt;Node2</title>
<path fill="none" stroke="midnightblue" d="M1556.47,-356.02C1406.95,-355.7 900.68,-351.51 485,-311 482.26,-310.73 479.46,-310.42 476.63,-310.08"/>
<polygon fill="midnightblue" stroke="midnightblue" points="1556.61,-359.52 1566.61,-356.03 1556.62,-352.52 1556.61,-359.52"/>
</g>
<!-- Node3 -->
<g id="node3" class="node">
<title>Node3</title>
<g id="a_node3"><a xlink:href="tensor_i_8_h.html" target="_top" xlink:title=" ">
<polygon fill="white" stroke="black" points="494.5,-291.5 494.5,-310.5 555.5,-310.5 555.5,-291.5 494.5,-291.5"/>
<text text-anchor="middle" x="525" y="-298.5" font-family="Helvetica,sans-Serif" font-size="10.00">tensorI.H</text>
</a>
</g>
</g>
<!-- Node1&#45;&gt;Node3 -->
<g id="edge2" class="edge">
<title>Node1&#45;&gt;Node3</title>
<path fill="none" stroke="midnightblue" d="M1556.91,-356.48C1415.14,-357.56 950.51,-357.09 570,-311 565.41,-310.44 560.59,-309.68 555.88,-308.83"/>
<polygon fill="midnightblue" stroke="midnightblue" points="1556.97,-359.98 1566.94,-356.4 1556.91,-352.98 1556.97,-359.98"/>
</g>
<!-- Node76 -->
<g id="node6" class="node">
<title>Node76</title>
<g id="a_node6"><a xlink:href="_a_b_l_modulated_power_law_8_h.html" target="_top" xlink:title=" ">
<polygon fill="white" stroke="black" points="437,-123.5 437,-142.5 583,-142.5 583,-123.5 437,-123.5"/>
<text text-anchor="middle" x="510" y="-130.5" font-family="Helvetica,sans-Serif" font-size="10.00">ABLModulatedPowerLaw.H</text>
</a>
</g>
</g>
<!-- Node1&#45;&gt;Node76 -->
<g id="edge46" class="edge">
<title>Node1&#45;&gt;Node76</title>
<path fill="none" stroke="midnightblue" d="M1556.51,-355.4C1370.09,-352.64 646.23,-340.1 608,-311 558.9,-273.63 599.84,-229.92 565,-179 554.41,-163.52 537.01,-150.56 524.61,-142.58"/>
<polygon fill="midnightblue" stroke="midnightblue" points="1556.7,-358.9 1566.75,-355.55 1556.8,-351.9 1556.7,-358.9"/>
</g>
<!-- Node78 -->
<g id="node8" class="node">
<title>Node78</title>
<g id="a_node8"><a xlink:href="_a_b_l_forcing_8cpp.html" target="_top" xlink:title=" ">
<polygon fill="white" stroke="black" points="936.5,-6 936.5,-25 1027.5,-25 1027.5,-6 936.5,-6"/>
<text text-anchor="middle" x="982" y="-13" font-family="Helvetica,sans-Serif" font-size="10.00">ABLForcing.cpp</text>
</a>
</g>
</g>
<!-- Node1&#45;&gt;Node78 -->
<g id="edge21" class="edge">
<title>Node1&#45;&gt;Node78</title>
<path fill="none" stroke="midnightblue" d="M1556.22,-355.72C1396.22,-354.4 848.82,-347.26 780,-311 747.76,-294.01 730,-282.45 730,-246 730,-246 730,-246 730,-188 730,-132.04 902.01,-51.48 961.8,-25.17"/>
<polygon fill="midnightblue" stroke="midnightblue" points="1556.6,-359.22 1566.63,-355.8 1556.66,-352.22 1556.6,-359.22"/>
</g>
<!-- Node80 -->
<g id="node10" class="node">
<title>Node80</title>
<g id="a_node10"><a xlink:href="_hurricane_forcing_8cpp.html" target="_top" xlink:title=" ">
<polygon fill="white" stroke="black" points="282.5,-6 282.5,-25 401.5,-25 401.5,-6 282.5,-6"/>
<text text-anchor="middle" x="342" y="-13" font-family="Helvetica,sans-Serif" font-size="10.00">HurricaneForcing.cpp</text>
</a>
</g>
</g>
<!-- Node1&#45;&gt;Node80 -->
<g id="edge29" class="edge">
<title>Node1&#45;&gt;Node80</title>
<path fill="none" stroke="midnightblue" d="M1556.67,-355.75C1385.75,-354.51 763.82,-347.51 684,-311 647.7,-294.39 622,-285.92 622,-246 622,-246 622,-246 622,-132 622,-104.98 441.57,-46.92 370.39,-25.06"/>
<polygon fill="midnightblue" stroke="midnightblue" points="1556.77,-359.25 1566.8,-355.82 1556.82,-352.25 1556.77,-359.25"/>
</g>
<!-- Node81 -->
<g id="node11" class="node">
<title>Node81</title>
<g id="a_node11"><a xlink:href="helics_8cpp.html" target="_top" xlink:title=" ">
<polygon fill="white" stroke="black" points="419.5,-6 419.5,-25 484.5,-25 484.5,-6 419.5,-6"/>
<text text-anchor="middle" x="452" y="-13" font-family="Helvetica,sans-Serif" font-size="10.00">helics.cpp</text>
</a>
</g>
</g>
<!-- Node1&#45;&gt;Node81 -->
<g id="edge31" class="edge">
<title>Node1&#45;&gt;Node81</title>
<path fill="none" stroke="midnightblue" d="M1556.79,-355.22C1393.77,-352.08 821.44,-339.14 745,-311 700.37,-294.57 660,-293.56 660,-246 660,-246 660,-246 660,-132 660,-101.2 658.91,-87.58 636,-67 587.24,-23.2 555.74,-49.95 493,-31 487.07,-29.21 480.74,-27.08 474.86,-25.01"/>
<polygon fill="midnightblue" stroke="midnightblue" points="1556.86,-358.72 1566.92,-355.41 1556.99,-351.72 1556.86,-358.72"/>
</g>
<!-- Node86 -->
<g id="node16" class="node">
<title>Node86</title>
<g id="a_node16"><a xlink:href="_a_b_l_wall_function_8cpp.html" target="_top" xlink:title=" ">
<polygon fill="white" stroke="black" points="1244.5,-6 1244.5,-25 1361.5,-25 1361.5,-6 1244.5,-6"/>
<text text-anchor="middle" x="1303" y="-13" font-family="Helvetica,sans-Serif" font-size="10.00">ABLWallFunction.cpp</text>
</a>
</g>
</g>
<!-- Node1&#45;&gt;Node86 -->
<g id="edge47" class="edge">
<title>Node1&#45;&gt;Node86</title>
<path fill="none" stroke="midnightblue" d="M1643.6,-356.15C1897.96,-356.88 3181.29,-358.2 3249,-311 3274.52,-293.21 3275,-277.11 3275,-246 3275,-246 3275,-246 3275,-132 3275,-33.59 1689.27,-18.8 1361.75,-16.79"/>
<polygon fill="midnightblue" stroke="midnightblue" points="1643.29,-352.65 1633.28,-356.12 1643.27,-359.65 1643.29,-352.65"/>
</g>
<!-- Node109 -->
<g id="node20" class="node">
<title>Node109</title>
<g id="a_node20"><a xlink:href="_a_b_l_forcing_8_h.html" target="_top" xlink:title=" ">
<polygon fill="white" stroke="black" points="941.5,-67.5 941.5,-86.5 1022.5,-86.5 1022.5,-67.5 941.5,-67.5"/>
<text text-anchor="middle" x="982" y="-74.5" font-family="Helvetica,sans-Serif" font-size="10.00">ABLForcing.H</text>
</a>
</g>
</g>
<!-- Node1&#45;&gt;Node109 -->
<g id="edge22" class="edge">
<title>Node1&#45;&gt;Node109</title>
<path fill="none" stroke="midnightblue" d="M1556.68,-355.81C1400.86,-354.8 874.64,-348.61 810,-311 780.27,-293.7 768,-280.39 768,-246 768,-246 768,-246 768,-188 768,-110.82 879.46,-87.75 941.5,-80.88"/>
<polygon fill="midnightblue" stroke="midnightblue" points="1556.81,-359.31 1566.83,-355.87 1556.85,-352.31 1556.81,-359.31"/>
</g>
<!-- Node111 -->
<g id="node22" class="node">
<title>Node111</title>
<g id="a_node22"><a xlink:href="_body_force_8cpp.html" target="_top" xlink:title=" ">
<polygon fill="white" stroke="black" points="834,-291.5 834,-310.5 922,-310.5 922,-291.5 834,-291.5"/>
<text text-anchor="middle" x="878" y="-298.5" font-family="Helvetica,sans-Serif" font-size="10.00">BodyForce.cpp</text>
</a>
</g>
</g>
<!-- Node1&#45;&gt;Node111 -->
<g id="edge26" class="edge">
<title>Node1&#45;&gt;Node111</title>
<path fill="none" stroke="midnightblue" d="M1556.77,-354.61C1450.16,-350.84 1166.22,-338.81 931,-311 928.13,-310.66 925.17,-310.27 922.2,-309.85"/>
<polygon fill="midnightblue" stroke="midnightblue" points="1556.71,-358.11 1566.83,-354.96 1556.95,-351.11 1556.71,-358.11"/>
</g>
<!-- Node112 -->
<g id="node23" class="node">
<title>Node112</title>
<g id="a_node23"><a xlink:href="_coriolis_forcing_8cpp.html" target="_top" xlink:title=" ">
<polygon fill="white" stroke="black" points="940.5,-291.5 940.5,-310.5 1049.5,-310.5 1049.5,-291.5 940.5,-291.5"/>
<text text-anchor="middle" x="995" y="-298.5" font-family="Helvetica,sans-Serif" font-size="10.00">CoriolisForcing.cpp</text>
</a>
</g>
</g>
<!-- Node1&#45;&gt;Node112 -->
<g id="edge27" class="edge">
<title>Node1&#45;&gt;Node112</title>
<path fill="none" stroke="midnightblue" d="M1556.91,-353.29C1465.04,-347.32 1243.2,-331.9 1058,-311 1055.26,-310.69 1052.45,-310.36 1049.61,-310"/>
<polygon fill="midnightblue" stroke="midnightblue" points="1556.73,-356.79 1566.94,-353.94 1557.19,-349.8 1556.73,-356.79"/>
</g>
<!-- Node113 -->
<g id="node24" class="node">
<title>Node113</title>
<g id="a_node24"><a xlink:href="_geostrophic_forcing_8cpp.html" target="_top" xlink:title=" ">
<polygon fill="white" stroke="black" points="1067.5,-291.5 1067.5,-310.5 1198.5,-310.5 1198.5,-291.5 1067.5,-291.5"/>
<text text-anchor="middle" x="1133" y="-298.5" font-family="Helvetica,sans-Serif" font-size="10.00">GeostrophicForcing.cpp</text>
</a>
</g>
</g>
<!-- Node1&#45;&gt;Node113 -->
<g id="edge28" class="edge">
<title>Node1&#45;&gt;Node113</title>
<path fill="none" stroke="midnightblue" d="M1556.88,-351.12C1484.68,-342.94 1334.77,-325.88 1208,-311 1205,-310.65 1201.94,-310.29 1198.85,-309.92"/>
<polygon fill="midnightblue" stroke="midnightblue" points="1556.62,-354.62 1566.95,-352.26 1557.41,-347.66 1556.62,-354.62"/>
</g>
<!-- Node114 -->
<g id="node25" class="node">
<title>Node114</title>
<g id="a_node25"><a xlink:href="_rayleigh_damping_8cpp.html" target="_top" xlink:title=" ">
<polygon fill="white" stroke="black" points="1217,-291.5 1217,-310.5 1341,-310.5 1341,-291.5 1217,-291.5"/>
<text text-anchor="middle" x="1279" y="-298.5" font-family="Helvetica,sans-Serif" font-size="10.00">RayleighDamping.cpp</text>
</a>
</g>
</g>
<!-- Node1&#45;&gt;Node114 -->
<g id="edge30" class="edge">
<title>Node1&#45;&gt;Node114</title>
<path fill="none" stroke="midnightblue" d="M1556.76,-348.73C1497.82,-338.81 1392.45,-321.09 1329.81,-310.55"/>
<polygon fill="midnightblue" stroke="midnightblue" points="1556.41,-352.22 1566.86,-350.42 1557.58,-345.31 1556.41,-352.22"/>
</g>
<!-- Node115 -->
<g id="node26" class="node">
<title>Node115</title>
<g id="a_node26"><a xlink:href="_burggraf_flow_8cpp.html" target="_top" xlink:title=" ">
<polygon fill="white" stroke="black" points="1359.5,-291.5 1359.5,-310.5 1460.5,-310.5 1460.5,-291.5 1359.5,-291.5"/>
<text text-anchor="middle" x="1410" y="-298.5" font-family="Helvetica,sans-Serif" font-size="10.00">BurggrafFlow.cpp</text>
</a>
</g>
</g>
<!-- Node1&#45;&gt;Node115 -->
<g id="edge32" class="edge">
<title>Node1&#45;&gt;Node115</title>
<path fill="none" stroke="midnightblue" d="M1560.24,-344.7C1524.38,-334.51 1472.43,-319.74 1439.97,-310.52"/>
<polygon fill="midnightblue" stroke="midnightblue" points="1559.32,-348.08 1569.89,-347.44 1561.23,-341.34 1559.32,-348.08"/>
</g>
<!-- Node116 -->
<g id="node27" class="node">
<title>Node116</title>
<g id="a_node27"><a xlink:href="_channel_flow_8cpp.html" target="_top" xlink:title=" ">
<polygon fill="white" stroke="black" points="1478.5,-291.5 1478.5,-310.5 1577.5,-310.5 1577.5,-291.5 1478.5,-291.5"/>
<text text-anchor="middle" x="1528" y="-298.5" font-family="Helvetica,sans-Serif" font-size="10.00">ChannelFlow.cpp</text>
</a>
</g>
</g>
<!-- Node1&#45;&gt;Node116 -->
<g id="edge33" class="edge">
<title>Node1&#45;&gt;Node116</title>
<path fill="none" stroke="midnightblue" d="M1580.13,-341.1C1567.18,-331.38 1550.7,-319.03 1539.78,-310.83"/>
<polygon fill="midnightblue" stroke="midnightblue" points="1578.33,-344.12 1588.43,-347.32 1582.53,-338.52 1578.33,-344.12"/>
</g>
<!-- Node117 -->
<g id="node28" class="node">
<title>Node117</title>
<g id="a_node28"><a xlink:href="_convecting_taylor_vortex_8cpp.html" target="_top" xlink:title=" ">
<polygon fill="white" stroke="black" points="1596,-291.5 1596,-310.5 1748,-310.5 1748,-291.5 1596,-291.5"/>
<text text-anchor="middle" x="1672" y="-298.5" font-family="Helvetica,sans-Serif" font-size="10.00">ConvectingTaylorVortex.cpp</text>
</a>
</g>
</g>
<!-- Node1&#45;&gt;Node117 -->
<g id="edge34" class="edge">
<title>Node1&#45;&gt;Node117</title>
<path fill="none" stroke="midnightblue" d="M1619.87,-341.1C1632.82,-331.38 1649.3,-319.03 1660.22,-310.83"/>
<polygon fill="midnightblue" stroke="midnightblue" points="1617.47,-338.52 1611.57,-347.32 1621.67,-344.12 1617.47,-338.52"/>
</g>
<!-- Node118 -->
<g id="node29" class="node">
<title>Node118</title>
<g id="a_node29"><a xlink:href="_ekman_spiral_8cpp.html" target="_top" xlink:title=" ">
<polygon fill="white" stroke="black" points="1766,-291.5 1766,-310.5 1864,-310.5 1864,-291.5 1766,-291.5"/>
<text text-anchor="middle" x="1815" y="-298.5" font-family="Helvetica,sans-Serif" font-size="10.00">EkmanSpiral.cpp</text>
</a>
</g>
</g>
<!-- Node1&#45;&gt;Node118 -->
<g id="edge35" class="edge">
<title>Node1&#45;&gt;Node118</title>
<path fill="none" stroke="midnightblue" d="M1643.01,-345.2C1683.65,-334.99 1743.79,-319.88 1781.13,-310.51"/>
<polygon fill="midnightblue" stroke="midnightblue" points="1641.97,-341.85 1633.12,-347.68 1643.67,-348.64 1641.97,-341.85"/>
</g>
<!-- Node119 -->
<g id="node30" class="node">
<title>Node119</title>
<g id="a_node30"><a xlink:href="_free_stream_8cpp.html" target="_top" xlink:title=" ">
<polygon fill="white" stroke="black" points="1882.5,-291.5 1882.5,-310.5 1975.5,-310.5 1975.5,-291.5 1882.5,-291.5"/>
<text text-anchor="middle" x="1929" y="-298.5" font-family="Helvetica,sans-Serif" font-size="10.00">FreeStream.cpp</text>
</a>
</g>
</g>
<!-- Node1&#45;&gt;Node119 -->
<g id="edge36" class="edge">
<title>Node1&#45;&gt;Node119</title>
<path fill="none" stroke="midnightblue" d="M1643.26,-348.9C1705.16,-338.74 1818.56,-320.13 1882.31,-309.66"/>
<polygon fill="midnightblue" stroke="midnightblue" points="1642.35,-345.5 1633.05,-350.58 1643.49,-352.41 1642.35,-345.5"/>
</g>
<!-- Node120 -->
<g id="node31" class="node">
<title>Node120</title>
<g id="a_node31"><a xlink:href="_breaking_waves_8cpp.html" target="_top" xlink:title=" ">
<polygon fill="white" stroke="black" points="1993.5,-291.5 1993.5,-310.5 2106.5,-310.5 2106.5,-291.5 1993.5,-291.5"/>
<text text-anchor="middle" x="2050" y="-298.5" font-family="Helvetica,sans-Serif" font-size="10.00">BreakingWaves.cpp</text>
</a>
</g>
</g>
<!-- Node1&#45;&gt;Node120 -->
<g id="edge37" class="edge">
<title>Node1&#45;&gt;Node120</title>
<path fill="none" stroke="midnightblue" d="M1643.52,-351.17C1714.75,-343.21 1860.65,-326.64 1984,-311 1987.1,-310.61 1990.28,-310.2 1993.48,-309.78"/>
<polygon fill="midnightblue" stroke="midnightblue" points="1642.71,-347.74 1633.16,-352.33 1643.48,-354.7 1642.71,-347.74"/>
</g>
<!-- Node121 -->
<g id="node32" class="node">
<title>Node121</title>
<g id="a_node32"><a xlink:href="_scalar_advection_8_h.html" target="_top" xlink:title=" ">
<polygon fill="white" stroke="black" points="2125,-291.5 2125,-310.5 2231,-310.5 2231,-291.5 2125,-291.5"/>
<text text-anchor="middle" x="2178" y="-298.5" font-family="Helvetica,sans-Serif" font-size="10.00">ScalarAdvection.H</text>
</a>
</g>
</g>
<!-- Node1&#45;&gt;Node121 -->
<g id="edge38" class="edge">
<title>Node1&#45;&gt;Node121</title>
<path fill="none" stroke="midnightblue" d="M1643.42,-353.01C1732.16,-346.73 1940.64,-331.06 2115,-311 2118.18,-310.63 2121.45,-310.24 2124.75,-309.82"/>
<polygon fill="midnightblue" stroke="midnightblue" points="1642.93,-349.54 1633.2,-353.73 1643.42,-356.52 1642.93,-349.54"/>
</g>
<!-- Node67 -->
<g id="node34" class="node">
<title>Node67</title>
<g id="a_node34"><a xlink:href="_synthetic_turbulence_8cpp.html" target="_top" xlink:title=" ">
<polygon fill="white" stroke="black" points="2249.5,-291.5 2249.5,-310.5 2384.5,-310.5 2384.5,-291.5 2249.5,-291.5"/>
<text text-anchor="middle" x="2317" y="-298.5" font-family="Helvetica,sans-Serif" font-size="10.00">SyntheticTurbulence.cpp</text>
</a>
</g>
</g>
<!-- Node1&#45;&gt;Node67 -->
<g id="edge40" class="edge">
<title>Node1&#45;&gt;Node67</title>
<path fill="none" stroke="midnightblue" d="M1643.05,-353.66C1746.21,-347.91 2015.64,-331.99 2240,-311 2243.08,-310.71 2246.23,-310.4 2249.41,-310.08"/>
<polygon fill="midnightblue" stroke="midnightblue" points="1642.81,-350.17 1633.02,-354.22 1643.2,-357.16 1642.81,-350.17"/>
</g>
<!-- Node123 -->
<g id="node35" class="node">
<title>Node123</title>
<g id="a_node35"><a xlink:href="_taylor_green_vortex_8cpp.html" target="_top" xlink:title=" ">
<polygon fill="white" stroke="black" points="2402.5,-291.5 2402.5,-310.5 2529.5,-310.5 2529.5,-291.5 2402.5,-291.5"/>
<text text-anchor="middle" x="2466" y="-298.5" font-family="Helvetica,sans-Serif" font-size="10.00">TaylorGreenVortex.cpp</text>
</a>
</g>
</g>
<!-- Node1&#45;&gt;Node123 -->
<g id="edge41" class="edge">
<title>Node1&#45;&gt;Node123</title>
<path fill="none" stroke="midnightblue" d="M1643.52,-354.54C1763.26,-350.3 2107.7,-336.65 2393,-311 2396.05,-310.73 2399.17,-310.42 2402.33,-310.1"/>
<polygon fill="midnightblue" stroke="midnightblue" points="1643.17,-351.05 1633.3,-354.9 1643.41,-358.05 1643.17,-351.05"/>
</g>
<!-- Node124 -->
<g id="node36" class="node">
<title>Node124</title>
<g id="a_node36"><a xlink:href="_vortex_dipole_8cpp.html" target="_top" xlink:title=" ">
<polygon fill="white" stroke="black" points="2548,-291.5 2548,-310.5 2648,-310.5 2648,-291.5 2548,-291.5"/>
<text text-anchor="middle" x="2598" y="-298.5" font-family="Helvetica,sans-Serif" font-size="10.00">VortexDipole.cpp</text>
</a>
</g>
</g>
<!-- Node1&#45;&gt;Node124 -->
<g id="edge42" class="edge">
<title>Node1&#45;&gt;Node124</title>
<path fill="none" stroke="midnightblue" d="M1643.56,-355.47C1777.42,-353.52 2194.42,-344.92 2538,-311 2541.25,-310.68 2544.59,-310.3 2547.96,-309.89"/>
<polygon fill="midnightblue" stroke="midnightblue" points="1643.27,-351.98 1633.32,-355.62 1643.37,-358.98 1643.27,-351.98"/>
</g>
<!-- Node125 -->
<g id="node37" class="node">
<title>Node125</title>
<g id="a_node37"><a xlink:href="_vortex_ring_8cpp.html" target="_top" xlink:title=" ">
<polygon fill="white" stroke="black" points="2666,-291.5 2666,-310.5 2756,-310.5 2756,-291.5 2666,-291.5"/>
<text text-anchor="middle" x="2711" y="-298.5" font-family="Helvetica,sans-Serif" font-size="10.00">VortexRing.cpp</text>
</a>
</g>
</g>
<!-- Node1&#45;&gt;Node125 -->
<g id="edge43" class="edge">
<title>Node1&#45;&gt;Node125</title>
<path fill="none" stroke="midnightblue" d="M1643.67,-356.06C1788.39,-355.83 2265.35,-351.82 2657,-311 2659.93,-310.69 2662.94,-310.33 2665.97,-309.93"/>
<polygon fill="midnightblue" stroke="midnightblue" points="1643.43,-352.56 1633.43,-356.07 1643.43,-359.56 1643.43,-352.56"/>
</g>
<!-- Node126 -->
<g id="node38" class="node">
<title>Node126</title>
<g id="a_node38"><a xlink:href="_a_b_l_field_init_8cpp.html" target="_top" xlink:title=" ">
<polygon fill="white" stroke="black" points="2774.5,-291.5 2774.5,-310.5 2869.5,-310.5 2869.5,-291.5 2774.5,-291.5"/>
<text text-anchor="middle" x="2822" y="-298.5" font-family="Helvetica,sans-Serif" font-size="10.00">ABLFieldInit.cpp</text>
</a>
</g>
</g>
<!-- Node1&#45;&gt;Node126 -->
<g id="edge44" class="edge">
<title>Node1&#45;&gt;Node126</title>
<path fill="none" stroke="midnightblue" d="M1643.91,-356.17C1798.13,-356.36 2329.26,-353.67 2765,-311 2768.09,-310.7 2771.27,-310.34 2774.47,-309.93"/>
<polygon fill="midnightblue" stroke="midnightblue" points="1643.47,-352.67 1633.46,-356.15 1643.46,-359.67 1643.47,-352.67"/>
</g>
<!-- Node127 -->
<g id="node39" class="node">
<title>Node127</title>
<g id="a_node39"><a xlink:href="_a_b_l_field_init_file_8cpp.html" target="_top" xlink:title=" ">
<polygon fill="white" stroke="black" points="2888,-291.5 2888,-310.5 3000,-310.5 3000,-291.5 2888,-291.5"/>
<text text-anchor="middle" x="2944" y="-298.5" font-family="Helvetica,sans-Serif" font-size="10.00">ABLFieldInitFile.cpp</text>
</a>
</g>
</g>
<!-- Node1&#45;&gt;Node127 -->
<g id="edge45" class="edge">
<title>Node1&#45;&gt;Node127</title>
<path fill="none" stroke="midnightblue" d="M1643.22,-356.05C1805.64,-355.9 2394.77,-352.35 2878,-311 2881.23,-310.72 2884.54,-310.4 2887.87,-310.04"/>
<polygon fill="midnightblue" stroke="midnightblue" points="1643.15,-352.55 1633.15,-356.05 1643.15,-359.55 1643.15,-352.55"/>
</g>
<!-- Node40 -->
<g id="node40" class="node">
<title>Node40</title>
<g id="a_node40"><a xlink:href="_joukowsky__ops_8_h.html" target="_top" xlink:title=" ">
<polygon fill="white" stroke="black" points="3018.5,-291.5 3018.5,-310.5 3119.5,-310.5 3119.5,-291.5 3018.5,-291.5"/>
<text text-anchor="middle" x="3069" y="-298.5" font-family="Helvetica,sans-Serif" font-size="10.00">Joukowsky_ops.H</text>
</a>
</g>
</g>
<!-- Node1&#45;&gt;Node40 -->
<g id="edge48" class="edge">
<title>Node1&#45;&gt;Node40</title>
<path fill="none" stroke="midnightblue" d="M1643.32,-356.46C1816.03,-357.9 2472.12,-359.67 3009,-311 3012.04,-310.72 3015.17,-310.4 3018.31,-310.03"/>
<polygon fill="midnightblue" stroke="midnightblue" points="1643.14,-352.96 1633.11,-356.37 1643.08,-359.96 1643.14,-352.96"/>
</g>
<!-- Node41 -->
<g id="node43" class="node">
<title>Node41</title>
<g id="a_node43"><a xlink:href="uniform__ct__ops_8_h.html" target="_top" xlink:title=" ">
<polygon fill="white" stroke="black" points="3138,-291.5 3138,-310.5 3240,-310.5 3240,-291.5 3138,-291.5"/>
<text text-anchor="middle" x="3189" y="-298.5" font-family="Helvetica,sans-Serif" font-size="10.00">uniform_ct_ops.H</text>
</a>
</g>
</g>
<!-- Node1&#45;&gt;Node41 -->
<g id="edge51" class="edge">
<title>Node1&#45;&gt;Node41</title>
<path fill="none" stroke="midnightblue" d="M1643.12,-355.43C1859.55,-352.45 2828.9,-337.83 3129,-311 3131.94,-310.74 3134.95,-310.42 3137.99,-310.08"/>
<polygon fill="midnightblue" stroke="midnightblue" points="1643.05,-351.93 1633.1,-355.56 1643.15,-358.93 1643.05,-351.93"/>
</g>
<!-- Node128 -->
<g id="node45" class="node">
<title>Node128</title>
<g id="a_node45"><a xlink:href="_m_o_data_8_h.html" target="_top" xlink:title=" ">
<polygon fill="white" stroke="black" points="1157.5,-179.5 1157.5,-198.5 1224.5,-198.5 1224.5,-179.5 1157.5,-179.5"/>
<text text-anchor="middle" x="1191" y="-186.5" font-family="Helvetica,sans-Serif" font-size="10.00">MOData.H</text>
</a>
</g>
</g>
<!-- Node1&#45;&gt;Node128 -->
<g id="edge54" class="edge">
<title>Node1&#45;&gt;Node128</title>
<path fill="none" stroke="midnightblue" d="M1556.57,-355.11C1396.88,-351.62 850.26,-337.77 825,-311 726.48,-206.59 1050.01,-192.2 1157.5,-190.28"/>
<polygon fill="midnightblue" stroke="midnightblue" points="1556.88,-358.62 1566.95,-355.33 1557.03,-351.62 1556.88,-358.62"/>
</g>
<!-- Node4 -->
<g id="node4" class="node">
<title>Node4</title>
<g id="a_node4"><a xlink:href="tensor_8_h.html" target="_top" xlink:title=" ">
<polygon fill="white" stroke="black" points="496.5,-235.5 496.5,-254.5 553.5,-254.5 553.5,-235.5 496.5,-235.5"/>
<text text-anchor="middle" x="525" y="-242.5" font-family="Helvetica,sans-Serif" font-size="10.00">tensor.H</text>
</a>
</g>
</g>
<!-- Node3&#45;&gt;Node4 -->
<g id="edge3" class="edge">
<title>Node3&#45;&gt;Node4</title>
<path fill="none" stroke="midnightblue" d="M518.53,-281.1C517.9,-272.14 518.34,-261.86 519.87,-254.75"/>
<polygon fill="midnightblue" stroke="midnightblue" points="515.07,-281.62 519.83,-291.08 522.01,-280.71 515.07,-281.62"/>
</g>
<!-- Node4&#45;&gt;Node3 -->
<g id="edge4" class="edge">
<title>Node4&#45;&gt;Node3</title>
<path fill="none" stroke="midnightblue" d="M531.46,-264.69C532.11,-273.64 531.68,-283.93 530.17,-291.08"/>
<polygon fill="midnightblue" stroke="midnightblue" points="534.92,-264.2 530.13,-254.75 527.98,-265.13 534.92,-264.2"/>
</g>
<!-- Node5 -->
<g id="node5" class="node">
<title>Node5</title>
<g id="a_node5"><a xlink:href="vector__space_8_h.html" target="_top" xlink:title=" ">
<polygon fill="white" stroke="red" points="464,-179.5 464,-198.5 556,-198.5 556,-179.5 464,-179.5"/>
<text text-anchor="middle" x="510" y="-186.5" font-family="Helvetica,sans-Serif" font-size="10.00">vector_space.H</text>
</a>
</g>
</g>
<!-- Node4&#45;&gt;Node5 -->
<g id="edge5" class="edge">
<title>Node4&#45;&gt;Node5</title>
<path fill="none" stroke="midnightblue" d="M519.83,-225.4C517.32,-216.36 514.43,-205.94 512.43,-198.75"/>
<polygon fill="midnightblue" stroke="midnightblue" points="516.47,-226.38 522.52,-235.08 523.22,-224.51 516.47,-226.38"/>
</g>
<!-- Node5&#45;&gt;Node76 -->
<g id="edge6" class="edge">
<title>Node5&#45;&gt;Node76</title>
<path fill="none" stroke="midnightblue" d="M510,-168.8C510,-159.91 510,-149.78 510,-142.75"/>
<polygon fill="midnightblue" stroke="midnightblue" points="506.5,-169.08 510,-179.08 513.5,-169.08 506.5,-169.08"/>
</g>
<!-- Node77 -->
<g id="node7" class="node">
<title>Node77</title>
<g id="a_node7"><a xlink:href="_a_b_l_8_h.html" target="_top" xlink:title=" ">
<polygon fill="white" stroke="black" points="688,-67.5 688,-86.5 734,-86.5 734,-67.5 688,-67.5"/>
<text text-anchor="middle" x="711" y="-74.5" font-family="Helvetica,sans-Serif" font-size="10.00">ABL.H</text>
</a>
</g>
</g>
<!-- Node76&#45;&gt;Node77 -->
<g id="edge7" class="edge">
<title>Node76&#45;&gt;Node77</title>
<path fill="none" stroke="midnightblue" d="M551.6,-120.82C592.84,-109.75 654.51,-93.18 687.76,-84.24"/>
<polygon fill="midnightblue" stroke="midnightblue" points="550.6,-117.47 541.85,-123.44 552.41,-124.23 550.6,-117.47"/>
</g>
<!-- Node87 -->
<g id="node17" class="node">
<title>Node87</title>
<g id="a_node17"><a xlink:href="_a_b_l_fill_m_p_l_8_h.html" target="_top" xlink:title=" ">
<polygon fill="white" stroke="black" points="179,-67.5 179,-86.5 259,-86.5 259,-67.5 179,-67.5"/>
<text text-anchor="middle" x="219" y="-74.5" font-family="Helvetica,sans-Serif" font-size="10.00">ABLFillMPL.H</text>
</a>
</g>
</g>
<!-- Node76&#45;&gt;Node87 -->
<g id="edge17" class="edge">
<title>Node76&#45;&gt;Node87</title>
<path fill="none" stroke="midnightblue" d="M453.95,-121.6C396.89,-111.01 309.85,-94.86 259.27,-85.47"/>
<polygon fill="midnightblue" stroke="midnightblue" points="453.42,-125.06 463.89,-123.44 454.7,-118.18 453.42,-125.06"/>
</g>
<!-- Node89 -->
<g id="node19" class="node">
<title>Node89</title>
<g id="a_node19"><a xlink:href="_a_b_l_modulated_power_law_8cpp.html" target="_top" xlink:title=" ">
<polygon fill="white" stroke="black" points="0,-6 0,-25 156,-25 156,-6 0,-6"/>
<text text-anchor="middle" x="78" y="-13" font-family="Helvetica,sans-Serif" font-size="10.00">ABLModulatedPowerLaw.cpp</text>
</a>
</g>
</g>
<!-- Node76&#45;&gt;Node89 -->
<g id="edge20" class="edge">
<title>Node76&#45;&gt;Node89</title>
<path fill="none" stroke="midnightblue" d="M426.68,-125.93C341.34,-118.83 215,-105.64 170,-87 134.68,-72.37 101.11,-40.62 86.15,-25.22"/>
<polygon fill="midnightblue" stroke="midnightblue" points="426.62,-129.44 436.87,-126.76 427.19,-122.46 426.62,-129.44"/>
</g>
<!-- Node77&#45;&gt;Node78 -->
<g id="edge8" class="edge">
<title>Node77&#45;&gt;Node78</title>
<path fill="none" stroke="midnightblue" d="M744.13,-67.87C745.44,-67.57 746.73,-67.28 748,-67 827.22,-49.41 847.95,-49.35 927,-31 934.79,-29.19 943.16,-27.08 950.96,-25.03"/>
<polygon fill="midnightblue" stroke="midnightblue" points="742.99,-64.54 734.06,-70.24 744.59,-71.36 742.99,-64.54"/>
</g>
<!-- Node79 -->
<g id="node9" class="node">
<title>Node79</title>
<g id="a_node9"><a xlink:href="_a_b_l_mean_boussinesq_8cpp.html" target="_top" xlink:title=" ">
<polygon fill="white" stroke="black" points="699,-6 699,-25 837,-25 837,-6 699,-6"/>
<text text-anchor="middle" x="768" y="-13" font-family="Helvetica,sans-Serif" font-size="10.00">ABLMeanBoussinesq.cpp</text>
</a>
</g>
</g>
<!-- Node77&#45;&gt;Node79 -->
<g id="edge9" class="edge">
<title>Node77&#45;&gt;Node79</title>
<path fill="none" stroke="midnightblue" d="M726.33,-60C737.12,-48.74 751.14,-34.1 759.85,-25.01"/>
<polygon fill="midnightblue" stroke="midnightblue" points="723.56,-57.83 719.17,-67.48 728.61,-62.68 723.56,-57.83"/>
</g>
<!-- Node77&#45;&gt;Node80 -->
<g id="edge10" class="edge">
<title>Node77&#45;&gt;Node80</title>
<path fill="none" stroke="midnightblue" d="M677.91,-71.73C622.38,-64.42 506.95,-48.57 410,-31 400.26,-29.24 389.78,-27.11 380.04,-25.04"/>
<polygon fill="midnightblue" stroke="midnightblue" points="677.52,-75.21 687.89,-73.04 678.42,-68.27 677.52,-75.21"/>
</g>
<!-- Node77&#45;&gt;Node81 -->
<g id="edge11" class="edge">
<title>Node77&#45;&gt;Node81</title>
<path fill="none" stroke="midnightblue" d="M677.87,-67.87C676.57,-67.57 675.27,-67.28 674,-67 593.91,-49.3 572.09,-52.73 493,-31 486.88,-29.32 480.37,-27.18 474.37,-25.07"/>
<polygon fill="midnightblue" stroke="midnightblue" points="677.41,-71.36 687.94,-70.23 679.01,-64.54 677.41,-71.36"/>
</g>
<!-- Node82 -->
<g id="node12" class="node">
<title>Node82</title>
<g id="a_node12"><a xlink:href="incflo_8cpp.html" target="_top" xlink:title=" ">
<polygon fill="white" stroke="black" points="855.5,-6 855.5,-25 918.5,-25 918.5,-6 855.5,-6"/>
<text text-anchor="middle" x="887" y="-13" font-family="Helvetica,sans-Serif" font-size="10.00">incflo.cpp</text>
</a>
</g>
</g>
<!-- Node77&#45;&gt;Node82 -->
<g id="edge12" class="edge">
<title>Node77&#45;&gt;Node82</title>
<path fill="none" stroke="midnightblue" d="M744.3,-65.09C771.66,-56.08 811.4,-42.88 846,-31 851.57,-29.09 857.55,-26.99 863.18,-25.01"/>
<polygon fill="midnightblue" stroke="midnightblue" points="742.86,-61.88 734.46,-68.32 745.05,-68.52 742.86,-61.88"/>
</g>
<!-- Node83 -->
<g id="node13" class="node">
<title>Node83</title>
<g id="a_node13"><a xlink:href="incflo__apply__nodal__projection_8cpp.html" target="_top" xlink:title=" ">
<polygon fill="white" stroke="black" points="502.5,-0.5 502.5,-30.5 609.5,-30.5 609.5,-0.5 502.5,-0.5"/>
<text text-anchor="start" x="510.5" y="-18.5" font-family="Helvetica,sans-Serif" font-size="10.00">incflo_apply_nodal</text>
<text text-anchor="middle" x="556" y="-7.5" font-family="Helvetica,sans-Serif" font-size="10.00">_projection.cpp</text>
</a>
</g>
</g>
<!-- Node77&#45;&gt;Node83 -->
<g id="edge13" class="edge">
<title>Node77&#45;&gt;Node83</title>
<path fill="none" stroke="midnightblue" d="M679.34,-63.85C654.16,-54.18 618.9,-40.65 592.53,-30.52"/>
<polygon fill="midnightblue" stroke="midnightblue" points="678.2,-67.16 688.79,-67.48 680.71,-60.62 678.2,-67.16"/>
</g>
<!-- Node84 -->
<g id="node14" class="node">
<title>Node84</title>
<g id="a_node14"><a xlink:href="init_8cpp.html" target="_top" xlink:title=" ">
<polygon fill="white" stroke="black" points="627.5,-6 627.5,-25 680.5,-25 680.5,-6 627.5,-6"/>
<text text-anchor="middle" x="654" y="-13" font-family="Helvetica,sans-Serif" font-size="10.00">init.cpp</text>
</a>
</g>
</g>
<!-- Node77&#45;&gt;Node84 -->
<g id="edge14" class="edge">
<title>Node77&#45;&gt;Node84</title>
<path fill="none" stroke="midnightblue" d="M695.67,-60C684.88,-48.74 670.86,-34.1 662.15,-25.01"/>
<polygon fill="midnightblue" stroke="midnightblue" points="693.39,-62.68 702.83,-67.48 698.44,-57.83 693.39,-62.68"/>
</g>
<!-- Node85 -->
<g id="node15" class="node">
<title>Node85</title>
<g id="a_node15"><a xlink:href="_a_b_l_8cpp.html" target="_top" xlink:title=" ">
<polygon fill="white" stroke="black" points="1046,-6 1046,-25 1102,-25 1102,-6 1046,-6"/>
<text text-anchor="middle" x="1074" y="-13" font-family="Helvetica,sans-Serif" font-size="10.00">ABL.cpp</text>
</a>
</g>
</g>
<!-- Node77&#45;&gt;Node85 -->
<g id="edge15" class="edge">
<title>Node77&#45;&gt;Node85</title>
<path fill="none" stroke="midnightblue" d="M744.49,-73.88C803.97,-69.55 931.59,-57.78 1036,-31 1042.02,-29.46 1048.39,-27.26 1054.16,-25.04"/>
<polygon fill="midnightblue" stroke="midnightblue" points="743.93,-70.41 734.2,-74.6 744.42,-77.39 743.93,-70.41"/>
</g>
<!-- Node77&#45;&gt;Node86 -->
<g id="edge16" class="edge">
<title>Node77&#45;&gt;Node86</title>
<path fill="none" stroke="midnightblue" d="M744.12,-73.73C824.15,-68.09 1034.38,-52.34 1209,-31 1222.77,-29.32 1237.62,-27.18 1251.37,-25.06"/>
<polygon fill="midnightblue" stroke="midnightblue" points="743.87,-70.24 734.14,-74.43 744.36,-77.22 743.87,-70.24"/>
</g>
<!-- Node88 -->
<g id="node18" class="node">
<title>Node88</title>
<g id="a_node18"><a xlink:href="_a_b_l_fill_m_p_l_8cpp.html" target="_top" xlink:title=" ">
<polygon fill="white" stroke="black" points="174,-6 174,-25 264,-25 264,-6 174,-6"/>
<text text-anchor="middle" x="219" y="-13" font-family="Helvetica,sans-Serif" font-size="10.00">ABLFillMPL.cpp</text>
</a>
</g>
</g>
<!-- Node87&#45;&gt;Node88 -->
<g id="edge18" class="edge">
<title>Node87&#45;&gt;Node88</title>
<path fill="none" stroke="midnightblue" d="M219,-57.32C219,-46.5 219,-33.4 219,-25.01"/>
<polygon fill="midnightblue" stroke="midnightblue" points="215.5,-57.48 219,-67.48 222.5,-57.48 215.5,-57.48"/>
</g>
<!-- Node87&#45;&gt;Node89 -->
<g id="edge19" class="edge">
<title>Node87&#45;&gt;Node89</title>
<path fill="none" stroke="midnightblue" d="M189.33,-63.48C161.95,-51.92 122.02,-35.08 98.16,-25.01"/>
<polygon fill="midnightblue" stroke="midnightblue" points="188.22,-66.81 198.8,-67.48 190.95,-60.36 188.22,-66.81"/>
</g>
<!-- Node109&#45;&gt;Node78 -->
<g id="edge23" class="edge">
<title>Node109&#45;&gt;Node78</title>
<path fill="none" stroke="midnightblue" d="M982,-57.32C982,-46.5 982,-33.4 982,-25.01"/>
<polygon fill="midnightblue" stroke="midnightblue" points="978.5,-57.48 982,-67.48 985.5,-57.48 978.5,-57.48"/>
</g>
<!-- Node109&#45;&gt;Node85 -->
<g id="edge24" class="edge">
<title>Node109&#45;&gt;Node85</title>
<path fill="none" stroke="midnightblue" d="M1003.76,-61.93C1021.49,-50.46 1045.96,-34.63 1060.84,-25.01"/>
<polygon fill="midnightblue" stroke="midnightblue" points="1001.68,-59.11 995.18,-67.48 1005.48,-64.98 1001.68,-59.11"/>
</g>
<!-- Node110 -->
<g id="node21" class="node">
<title>Node110</title>
<g id="a_node21"><a xlink:href="_a_b_l_stats_8cpp.html" target="_top" xlink:title=" ">
<polygon fill="white" stroke="black" points="1120,-6 1120,-25 1200,-25 1200,-6 1120,-6"/>
<text text-anchor="middle" x="1160" y="-13" font-family="Helvetica,sans-Serif" font-size="10.00">ABLStats.cpp</text>
</a>
</g>
</g>
<!-- Node109&#45;&gt;Node110 -->
<g id="edge25" class="edge">
<title>Node109&#45;&gt;Node110</title>
<path fill="none" stroke="midnightblue" d="M1017.21,-64.23C1051.81,-52.67 1103.77,-35.3 1134.54,-25.01"/>
<polygon fill="midnightblue" stroke="midnightblue" points="1015.88,-60.99 1007.5,-67.48 1018.1,-67.62 1015.88,-60.99"/>
</g>
<!-- Node122 -->
<g id="node33" class="node">
<title>Node122</title>
<g id="a_node33"><a xlink:href="_scalar_advection_8cpp.html" target="_top" xlink:title=" ">
<polygon fill="white" stroke="black" points="2120,-235.5 2120,-254.5 2236,-254.5 2236,-235.5 2120,-235.5"/>
<text text-anchor="middle" x="2178" y="-242.5" font-family="Helvetica,sans-Serif" font-size="10.00">ScalarAdvection.cpp</text>
</a>
</g>
</g>
<!-- Node121&#45;&gt;Node122 -->
<g id="edge39" class="edge">
<title>Node121&#45;&gt;Node122</title>
<path fill="none" stroke="midnightblue" d="M2178,-280.8C2178,-271.91 2178,-261.78 2178,-254.75"/>
<polygon fill="midnightblue" stroke="midnightblue" points="2174.5,-281.08 2178,-291.08 2181.5,-281.08 2174.5,-281.08"/>
</g>
<!-- Node32 -->
<g id="node41" class="node">
<title>Node32</title>
<g id="a_node41"><a xlink:href="_actuator_disk_8cpp.html" target="_top" xlink:title=" ">
<polygon fill="white" stroke="black" points="3017,-235.5 3017,-254.5 3117,-254.5 3117,-235.5 3017,-235.5"/>
<text text-anchor="middle" x="3067" y="-242.5" font-family="Helvetica,sans-Serif" font-size="10.00">ActuatorDisk.cpp</text>
</a>
</g>
</g>
<!-- Node40&#45;&gt;Node32 -->
<g id="edge49" class="edge">
<title>Node40&#45;&gt;Node32</title>
<path fill="none" stroke="midnightblue" d="M3068.29,-280.8C3067.96,-271.91 3067.58,-261.78 3067.32,-254.75"/>
<polygon fill="midnightblue" stroke="midnightblue" points="3064.8,-281.22 3068.67,-291.08 3071.8,-280.96 3064.8,-281.22"/>
</g>
<!-- Node39 -->
<g id="node42" class="node">
<title>Node39</title>
<g id="a_node42"><a xlink:href="_joukowsky__ops_8cpp.html" target="_top" xlink:title=" ">
<polygon fill="white" stroke="black" points="2889,-235.5 2889,-254.5 2999,-254.5 2999,-235.5 2889,-235.5"/>
<text text-anchor="middle" x="2944" y="-242.5" font-family="Helvetica,sans-Serif" font-size="10.00">Joukowsky_ops.cpp</text>
</a>
</g>
</g>
<!-- Node40&#45;&gt;Node39 -->
<g id="edge50" class="edge">
<title>Node40&#45;&gt;Node39</title>
<path fill="none" stroke="midnightblue" d="M3039.76,-287.37C3016.35,-277.26 2984.16,-263.35 2963.71,-254.52"/>
<polygon fill="midnightblue" stroke="midnightblue" points="3038.63,-290.69 3049.19,-291.44 3041.4,-284.26 3038.63,-290.69"/>
</g>
<!-- Node41&#45;&gt;Node32 -->
<g id="edge52" class="edge">
<title>Node41&#45;&gt;Node32</title>
<path fill="none" stroke="midnightblue" d="M3160.46,-287.37C3137.61,-277.26 3106.19,-263.35 3086.24,-254.52"/>
<polygon fill="midnightblue" stroke="midnightblue" points="3159.11,-290.6 3169.67,-291.44 3161.94,-284.2 3159.11,-290.6"/>
</g>
<!-- Node42 -->
<g id="node44" class="node">
<title>Node42</title>
<g id="a_node44"><a xlink:href="uniform__ct__ops_8cpp.html" target="_top" xlink:title=" ">
<polygon fill="white" stroke="black" points="3135,-235.5 3135,-254.5 3247,-254.5 3247,-235.5 3135,-235.5"/>
<text text-anchor="middle" x="3191" y="-242.5" font-family="Helvetica,sans-Serif" font-size="10.00">uniform_ct_ops.cpp</text>
</a>
</g>
</g>
<!-- Node41&#45;&gt;Node42 -->
<g id="edge53" class="edge">
<title>Node41&#45;&gt;Node42</title>
<path fill="none" stroke="midnightblue" d="M3189.71,-280.8C3190.04,-271.91 3190.42,-261.78 3190.68,-254.75"/>
<polygon fill="midnightblue" stroke="midnightblue" points="3186.2,-280.96 3189.33,-291.08 3193.2,-281.22 3186.2,-280.96"/>
</g>
<!-- Node129 -->
<g id="node46" class="node">
<title>Node129</title>
<g id="a_node46"><a xlink:href="_a_b_l_wall_function_8_h.html" target="_top" xlink:title=" ">
<polygon fill="white" stroke="red" points="1080.5,-123.5 1080.5,-142.5 1187.5,-142.5 1187.5,-123.5 1080.5,-123.5"/>
<text text-anchor="middle" x="1134" y="-130.5" font-family="Helvetica,sans-Serif" font-size="10.00">ABLWallFunction.H</text>
</a>
</g>
</g>
<!-- Node128&#45;&gt;Node129 -->
<g id="edge55" class="edge">
<title>Node128&#45;&gt;Node129</title>
<path fill="none" stroke="midnightblue" d="M1174.38,-172.25C1164.27,-162.67 1151.72,-150.79 1143.32,-142.83"/>
<polygon fill="midnightblue" stroke="midnightblue" points="1172.18,-174.99 1181.84,-179.32 1176.99,-169.91 1172.18,-174.99"/>
</g>
<!-- Node133 -->
<g id="node49" class="node">
<title>Node133</title>
<g id="a_node49"><a xlink:href="_m_o_data_8cpp.html" target="_top" xlink:title=" ">
<polygon fill="white" stroke="black" points="1308.5,-123.5 1308.5,-142.5 1385.5,-142.5 1385.5,-123.5 1308.5,-123.5"/>
<text text-anchor="middle" x="1347" y="-130.5" font-family="Helvetica,sans-Serif" font-size="10.00">MOData.cpp</text>
</a>
</g>
</g>
<!-- Node128&#45;&gt;Node133 -->
<g id="edge61" class="edge">
<title>Node128&#45;&gt;Node133</title>
<path fill="none" stroke="midnightblue" d="M1225.17,-176.17C1254.54,-166 1296.2,-151.59 1322.4,-142.52"/>
<polygon fill="midnightblue" stroke="midnightblue" points="1224.02,-172.86 1215.72,-179.44 1226.31,-179.48 1224.02,-172.86"/>
</g>
<!-- Node134 -->
<g id="node50" class="node">
<title>Node134</title>
<g id="a_node50"><a xlink:href="_shear_stress_8_h.html" target="_top" xlink:title=" ">
<polygon fill="white" stroke="red" points="1205.5,-123.5 1205.5,-142.5 1290.5,-142.5 1290.5,-123.5 1205.5,-123.5"/>
<text text-anchor="middle" x="1248" y="-130.5" font-family="Helvetica,sans-Serif" font-size="10.00">ShearStress.H</text>
</a>
</g>
</g>
<!-- Node128&#45;&gt;Node134 -->
<g id="edge62" class="edge">
<title>Node128&#45;&gt;Node134</title>
<path fill="none" stroke="midnightblue" d="M1207.62,-172.25C1217.73,-162.67 1230.28,-150.79 1238.68,-142.83"/>
<polygon fill="midnightblue" stroke="midnightblue" points="1205.01,-169.91 1200.16,-179.32 1209.82,-174.99 1205.01,-169.91"/>
</g>
<!-- Node129&#45;&gt;Node77 -->
<g id="edge57" class="edge">
<title>Node129&#45;&gt;Node77</title>
<path fill="none" stroke="midnightblue" d="M1070.28,-123.87C974.47,-111.63 797.77,-89.08 734.39,-80.99"/>
<polygon fill="midnightblue" stroke="midnightblue" points="1070.06,-127.37 1080.43,-125.16 1070.95,-120.42 1070.06,-127.37"/>
</g>
<!-- Node129&#45;&gt;Node86 -->
<g id="edge60" class="edge">
<title>Node129&#45;&gt;Node86</title>
<path fill="none" stroke="midnightblue" d="M1195.99,-120.8C1219.61,-114.1 1245.51,-103.54 1265,-87 1284.93,-70.09 1296.08,-39.99 1300.6,-25.2"/>
<polygon fill="midnightblue" stroke="midnightblue" points="1194.81,-117.5 1186.04,-123.44 1196.6,-124.26 1194.81,-117.5"/>
</g>
<!-- Node130 -->
<g id="node47" class="node">
<title>Node130</title>
<g id="a_node47"><a xlink:href="_boussinesq_bubble_8cpp.html" target="_top" xlink:title=" ">
<polygon fill="white" stroke="black" points="1130,-67.5 1130,-86.5 1256,-86.5 1256,-67.5 1130,-67.5"/>
<text text-anchor="middle" x="1193" y="-74.5" font-family="Helvetica,sans-Serif" font-size="10.00">BoussinesqBubble.cpp</text>
</a>
</g>
</g>
<!-- Node129&#45;&gt;Node130 -->
<g id="edge56" class="edge">
<title>Node129&#45;&gt;Node130</title>
<path fill="none" stroke="midnightblue" d="M1150.89,-116.54C1161.41,-106.91 1174.57,-94.87 1183.35,-86.83"/>
<polygon fill="midnightblue" stroke="midnightblue" points="1148.49,-113.99 1143.48,-123.32 1153.22,-119.15 1148.49,-113.99"/>
</g>
<!-- Node131 -->
<g id="node48" class="node">
<title>Node131</title>
<g id="a_node48"><a xlink:href="_a_b_l_stats_8_h.html" target="_top" xlink:title=" ">
<polygon fill="white" stroke="black" points="1040.5,-67.5 1040.5,-86.5 1111.5,-86.5 1111.5,-67.5 1040.5,-67.5"/>
<text text-anchor="middle" x="1076" y="-74.5" font-family="Helvetica,sans-Serif" font-size="10.00">ABLStats.H</text>
</a>
</g>
</g>
<!-- Node129&#45;&gt;Node131 -->
<g id="edge58" class="edge">
<title>Node129&#45;&gt;Node131</title>
<path fill="none" stroke="midnightblue" d="M1117.09,-116.25C1106.8,-106.67 1094.03,-94.79 1085.49,-86.83"/>
<polygon fill="midnightblue" stroke="midnightblue" points="1114.98,-119.07 1124.68,-123.32 1119.75,-113.95 1114.98,-119.07"/>
</g>
<!-- Node131&#45;&gt;Node110 -->
<g id="edge59" class="edge">
<title>Node131&#45;&gt;Node110</title>
<path fill="none" stroke="midnightblue" d="M1096.31,-61.61C1112.47,-50.17 1134.52,-34.55 1147.99,-25.01"/>
<polygon fill="midnightblue" stroke="midnightblue" points="1094.17,-58.84 1088.04,-67.48 1098.22,-64.55 1094.17,-58.84"/>
</g>
<!-- Node134&#45;&gt;Node86 -->
<g id="edge63" class="edge">
<title>Node134&#45;&gt;Node86</title>
<path fill="none" stroke="midnightblue" d="M1270.86,-117.5C1281.01,-109.77 1291.99,-99.3 1298,-87 1307.91,-66.71 1306.16,-39.17 1304.39,-25.28"/>
<polygon fill="midnightblue" stroke="midnightblue" points="1268.78,-114.69 1262.66,-123.34 1272.84,-120.39 1268.78,-114.69"/>
</g>
</g>
</svg>
        <g id="navigator" transform="translate(0 0)" fill="#404254">
                <rect fill="#f2f5e9" fill-opacity="0.5" stroke="#606060" stroke-width=".5" x="0" y="0" width="60" height="60"/>
                <use id="zoomplus" xlink:href="#zoomPlus" x="17" y="9" onmousedown="handleZoom(evt,'in')"/>
                <use id="zoomminus" xlink:href="#zoomMin" x="42" y="9" onmousedown="handleZoom(evt,'out')"/>
                <use id="reset" xlink:href="#resetDef" x="30" y="36" onmousedown="handleReset()"/>
                <g id="arrowUp" xlink:href="#dirArrow" transform="translate(30 24)" onmousedown="handlePan(0,-1)">
                  <use xlink:href="#rim" fill="#404040">
                        <set attributeName="fill" to="#808080" begin="arrowUp.mouseover" end="arrowUp.mouseout"/>
                  </use>
                  <path fill="none" stroke="white" stroke-width="1.5" d="M0,-3.0v7 M-2.5,-0.5L0,-3.0L2.5,-0.5"/>
                </g>
                <g id="arrowRight" xlink:href="#dirArrow" transform="rotate(90) translate(36 -43)" onmousedown="handlePan(1,0)">
                  <use xlink:href="#rim" fill="#404040">
                        <set attributeName="fill" to="#808080" begin="arrowRight.mouseover" end="arrowRight.mouseout"/>
                  </use>
                  <path fill="none" stroke="white" stroke-width="1.5" d="M0,-3.0v7 M-2.5,-0.5L0,-3.0L2.5,-0.5"/>
                </g>
                <g id="arrowDown" xlink:href="#dirArrow" transform="rotate(180) translate(-30 -48)" onmousedown="handlePan(0,1)">
                  <use xlink:href="#rim" fill="#404040">
                        <set attributeName="fill" to="#808080" begin="arrowDown.mouseover" end="arrowDown.mouseout"/>
                  </use>
                  <path fill="none" stroke="white" stroke-width="1.5" d="M0,-3.0v7 M-2.5,-0.5L0,-3.0L2.5,-0.5"/>
                </g>
                <g id="arrowLeft" xlink:href="#dirArrow" transform="rotate(270) translate(-36 17)" onmousedown="handlePan(-1,0)">
                  <use xlink:href="#rim" fill="#404040">
                        <set attributeName="fill" to="#808080" begin="arrowLeft.mouseover" end="arrowLeft.mouseout"/>
                  </use>
                  <path fill="none" stroke="white" stroke-width="1.5" d="M0,-3.0v7 M-2.5,-0.5L0,-3.0L2.5,-0.5"/>
                </g>
        </g>
        <svg viewBox="0 0 15 15" width="100%" height="30px" preserveAspectRatio="xMaxYMin meet">
         <g id="arrow_out" transform="scale(0.3 0.3)">
          <a xlink:href="trig__ops_8_h__dep__incl_org.svg" target="_base">
           <rect id="button" ry="5" rx="5" y="6" x="6" height="38" width="38"
                fill="#f2f5e9" fill-opacity="0.5" stroke="#606060" stroke-width="1.0"/>
           <path id="arrow"
             d="M 11.500037,31.436501 C 11.940474,20.09759 22.043105,11.32322 32.158766,21.979434 L 37.068811,17.246167 C 37.068811,17.246167 37.088388,32 37.088388,32 L 22.160133,31.978069 C 22.160133,31.978069 26.997745,27.140456 26.997745,27.140456 C 18.528582,18.264221 13.291696,25.230495 11.500037,31.436501 z"
             style="fill:#404040;"/>
          </a>
         </g>
        </svg>
</svg>
