<?xml version="1.0" encoding="UTF-8" standalone="no"?>
<!DOCTYPE svg PUBLIC "-//W3C//DTD SVG 1.1//EN"
 "http://www.w3.org/Graphics/SVG/1.1/DTD/svg11.dtd">
<!-- Generated by graphviz version 2.43.0 (0)
 -->
<!-- Title: velocity_bcs.H Pages: 1 -->
<!--zoomable 341 -->
<svg id="main" version="1.1" xmlns="http://www.w3.org/2000/svg" xmlns:xlink="http://www.w3.org/1999/xlink" xml:space="preserve" onload="init(evt)">
<style type="text/css"><![CDATA[
.edge:hover path { stroke: red; }
.edge:hover polygon { stroke: red; fill: red; }
]]></style>
<script type="text/javascript"><![CDATA[
var edges = document.getElementsByTagName('g');
if (edges && edges.length) {
  for (var i=0;i<edges.length;i++) {
    if (edges[i].id.substr(0,4)=='edge') {
      edges[i].setAttribute('class','edge');
    }
  }
}
]]></script>
        <defs>
                <circle id="rim" cx="0" cy="0" r="7"/>
                <circle id="rim2" cx="0" cy="0" r="3.5"/>
                <g id="zoomPlus">
                        <use xlink:href="#rim" fill="#404040">
                                <set attributeName="fill" to="#808080" begin="zoomplus.mouseover" end="zoomplus.mouseout"/>
                        </use>
                        <path d="M-4,0h8M0,-4v8" fill="none" stroke="white" stroke-width="1.5" pointer-events="none"/>
                </g>
                <g id="zoomMin">
                        <use xlink:href="#rim" fill="#404040">
                                <set attributeName="fill" to="#808080" begin="zoomminus.mouseover" end="zoomminus.mouseout"/>
                        </use>
                        <path d="M-4,0h8" fill="none" stroke="white" stroke-width="1.5" pointer-events="none"/>
                </g>
                <g id="dirArrow">
                        <path fill="none" stroke="white" stroke-width="1.5" d="M0,-3.0v7 M-2.5,-0.5L0,-3.0L2.5,-0.5"/>
                </g>
               <g id="resetDef">
                       <use xlink:href="#rim2" fill="#404040">
                               <set attributeName="fill" to="#808080" begin="reset.mouseover" end="reset.mouseout"/>
                       </use>
               </g>
        </defs>

<script type="text/javascript">
var viewWidth = 2593;
var viewHeight = 341;
var sectionId = 'dynsection-0';
</script>
<script xlink:href="svgpan.js"/>
<svg id="graph" class="graph">
<g id="viewport">
<title>velocity_bcs.H</title>
<polygon fill="white" stroke="transparent" points="-4,4 -4,-337 2588.52,-337 2588.52,4 -4,4"/>
<!-- Node1 -->
<g id="node1" class="node">
<title>Node1</title>
<g id="a_node1"><a xlink:title=" ">
<polygon fill="#bfbfbf" stroke="black" points="2029.02,-313.5 2029.02,-332.5 2117.02,-332.5 2117.02,-313.5 2029.02,-313.5"/>
<text text-anchor="middle" x="2073.02" y="-320.5" font-family="Helvetica,sans-Serif" font-size="10.00">velocity_bcs.H</text>
</a>
</g>
</g>
<!-- Node2 -->
<g id="node2" class="node">
<title>Node2</title>
<g id="a_node2"><a xlink:href="_field_b_c_ops_8_h.html" target="_top" xlink:title=" ">
<polygon fill="white" stroke="black" points="1149.02,-185 1149.02,-204 1305.02,-204 1305.02,-185 1149.02,-185"/>
<text text-anchor="middle" x="1227.02" y="-192" font-family="Helvetica,sans-Serif" font-size="10.00">amr&#45;wind/core/FieldBCOps.H</text>
</a>
</g>
</g>
<!-- Node1&#45;&gt;Node2 -->
<g id="edge1" class="edge">
<title>Node1&#45;&gt;Node2</title>
<path fill="none" stroke="midnightblue" d="M2028.73,-318.15C1953.96,-311.43 1798.04,-296.37 1667.02,-277 1525.15,-256.03 1359.09,-222.92 1277.5,-206.09"/>
<polygon fill="midnightblue" stroke="midnightblue" points="1278,-202.62 1267.5,-204.02 1276.59,-209.47 1278,-202.62"/>
</g>
<!-- Node18 -->
<g id="node18" class="node">
<title>Node18</title>
<g id="a_node18"><a xlink:href="_field_fill_patch_ops_8_h.html" target="_top" xlink:title=" ">
<polygon fill="white" stroke="black" points="1676.02,-246.5 1676.02,-276.5 1830.02,-276.5 1830.02,-246.5 1676.02,-246.5"/>
<text text-anchor="start" x="1684.02" y="-264.5" font-family="Helvetica,sans-Serif" font-size="10.00">amr&#45;wind/core/FieldFillPatch</text>
<text text-anchor="middle" x="1753.02" y="-253.5" font-family="Helvetica,sans-Serif" font-size="10.00">Ops.H</text>
</a>
</g>
</g>
<!-- Node1&#45;&gt;Node18 -->
<g id="edge22" class="edge">
<title>Node1&#45;&gt;Node18</title>
<path fill="none" stroke="midnightblue" d="M2028.86,-313.79C1979.9,-304.68 1899.73,-289.78 1838.41,-278.38"/>
<polygon fill="midnightblue" stroke="midnightblue" points="1838.82,-274.89 1828.35,-276.51 1837.54,-281.77 1838.82,-274.89"/>
</g>
<!-- Node19 -->
<g id="node19" class="node">
<title>Node19</title>
<g id="a_node19"><a xlink:href="_sim_time_8_h.html" target="_top" xlink:title=" ">
<polygon fill="white" stroke="black" points="2001.02,-185 2001.02,-204 2145.02,-204 2145.02,-185 2001.02,-185"/>
<text text-anchor="middle" x="2073.02" y="-192" font-family="Helvetica,sans-Serif" font-size="10.00">amr&#45;wind/core/SimTime.H</text>
</a>
</g>
</g>
<!-- Node1&#45;&gt;Node19 -->
<g id="edge68" class="edge">
<title>Node1&#45;&gt;Node19</title>
<path fill="none" stroke="midnightblue" d="M2073.02,-313.31C2073.02,-292.99 2073.02,-242.05 2073.02,-214.28"/>
<polygon fill="midnightblue" stroke="midnightblue" points="2076.52,-214.26 2073.02,-204.26 2069.52,-214.26 2076.52,-214.26"/>
</g>
<!-- Node27 -->
<g id="node27" class="node">
<title>Node27</title>
<g id="a_node27"><a xlink:href="_field_repo_8_h.html" target="_top" xlink:title=" ">
<polygon fill="white" stroke="black" points="781.52,-185 781.52,-204 930.52,-204 930.52,-185 781.52,-185"/>
<text text-anchor="middle" x="856.02" y="-192" font-family="Helvetica,sans-Serif" font-size="10.00">amr&#45;wind/core/FieldRepo.H</text>
</a>
</g>
</g>
<!-- Node1&#45;&gt;Node27 -->
<g id="edge39" class="edge">
<title>Node1&#45;&gt;Node27</title>
<path fill="none" stroke="midnightblue" d="M2028.84,-319.45C1930.46,-313.58 1685.97,-298.03 1482.02,-277 1278.31,-256 1038.46,-222.23 923.77,-205.53"/>
<polygon fill="midnightblue" stroke="midnightblue" points="924.13,-202.04 913.73,-204.06 923.12,-208.97 924.13,-202.04"/>
</g>
<!-- Node33 -->
<g id="node33" class="node">
<title>Node33</title>
<g id="a_node33"><a xlink:href="_linear_profile_8_h.html" target="_top" xlink:title=" ">
<polygon fill="white" stroke="black" points="2167.52,-179.5 2167.52,-209.5 2294.52,-209.5 2294.52,-179.5 2167.52,-179.5"/>
<text text-anchor="start" x="2175.52" y="-197.5" font-family="Helvetica,sans-Serif" font-size="10.00">amr&#45;wind/physics/udfs</text>
<text text-anchor="middle" x="2231.02" y="-186.5" font-family="Helvetica,sans-Serif" font-size="10.00">/LinearProfile.H</text>
</a>
</g>
</g>
<!-- Node1&#45;&gt;Node33 -->
<g id="edge69" class="edge">
<title>Node1&#45;&gt;Node33</title>
<path fill="none" stroke="midnightblue" d="M2083.88,-313.31C2108.73,-293.41 2170.29,-244.12 2205.41,-216.01"/>
<polygon fill="midnightblue" stroke="midnightblue" points="2207.69,-218.66 2213.31,-209.68 2203.32,-213.2 2207.69,-218.66"/>
</g>
<!-- Node34 -->
<g id="node34" class="node">
<title>Node34</title>
<g id="a_node34"><a xlink:href="_power_law_profile_8_h.html" target="_top" xlink:title=" ">
<polygon fill="white" stroke="black" points="2312.52,-179.5 2312.52,-209.5 2439.52,-209.5 2439.52,-179.5 2312.52,-179.5"/>
<text text-anchor="start" x="2320.52" y="-197.5" font-family="Helvetica,sans-Serif" font-size="10.00">amr&#45;wind/physics/udfs</text>
<text text-anchor="middle" x="2376.02" y="-186.5" font-family="Helvetica,sans-Serif" font-size="10.00">/PowerLawProfile.H</text>
</a>
</g>
</g>
<!-- Node1&#45;&gt;Node34 -->
<g id="edge72" class="edge">
<title>Node1&#45;&gt;Node34</title>
<path fill="none" stroke="midnightblue" d="M2093.85,-313.31C2142.91,-292.82 2266.59,-241.19 2332.73,-213.58"/>
<polygon fill="midnightblue" stroke="midnightblue" points="2334.17,-216.76 2342.05,-209.68 2331.48,-210.3 2334.17,-216.76"/>
</g>
<!-- Node35 -->
<g id="node35" class="node">
<title>Node35</title>
<g id="a_node35"><a xlink:href="_burggraf_lid_8_h.html" target="_top" xlink:title=" ">
<polygon fill="white" stroke="black" points="2457.52,-179.5 2457.52,-209.5 2584.52,-209.5 2584.52,-179.5 2457.52,-179.5"/>
<text text-anchor="start" x="2465.52" y="-197.5" font-family="Helvetica,sans-Serif" font-size="10.00">amr&#45;wind/physics/udfs</text>
<text text-anchor="middle" x="2521.02" y="-186.5" font-family="Helvetica,sans-Serif" font-size="10.00">/BurggrafLid.H</text>
</a>
</g>
</g>
<!-- Node1&#45;&gt;Node35 -->
<g id="edge75" class="edge">
<title>Node1&#45;&gt;Node35</title>
<path fill="none" stroke="midnightblue" d="M2104.1,-313.43C2136.72,-304.43 2189.5,-289.81 2235.02,-277 2313.84,-254.82 2404.75,-228.85 2462.53,-212.29"/>
<polygon fill="midnightblue" stroke="midnightblue" points="2463.57,-215.64 2472.22,-209.52 2461.64,-208.91 2463.57,-215.64"/>
</g>
<!-- Node3 -->
<g id="node3" class="node">
<title>Node3</title>
<g id="a_node3"><a xlink:href="_field_desc_types_8_h.html" target="_top" xlink:title=" ">
<polygon fill="white" stroke="black" points="758.02,-0.5 758.02,-19.5 934.02,-19.5 934.02,-0.5 758.02,-0.5"/>
<text text-anchor="middle" x="846.02" y="-7.5" font-family="Helvetica,sans-Serif" font-size="10.00">amr&#45;wind/core/FieldDescTypes.H</text>
</a>
</g>
</g>
<!-- Node2&#45;&gt;Node3 -->
<g id="edge2" class="edge">
<title>Node2&#45;&gt;Node3</title>
<path fill="none" stroke="midnightblue" d="M1214.91,-184.96C1176.43,-157.96 1056.97,-75.05 1014.02,-56 978.63,-40.3 936.54,-29.04 903.34,-21.71"/>
<polygon fill="midnightblue" stroke="midnightblue" points="903.86,-18.24 893.34,-19.56 902.39,-25.08 903.86,-18.24"/>
</g>
<!-- Node4 -->
<g id="node4" class="node">
<title>Node4</title>
<g id="a_node4"><a xlink:href="_field_8_h.html" target="_top" xlink:title=" ">
<polygon fill="white" stroke="black" points="1351.02,-118 1351.02,-137 1475.02,-137 1475.02,-118 1351.02,-118"/>
<text text-anchor="middle" x="1413.02" y="-125" font-family="Helvetica,sans-Serif" font-size="10.00">amr&#45;wind/core/Field.H</text>
</a>
</g>
</g>
<!-- Node2&#45;&gt;Node4 -->
<g id="edge3" class="edge">
<title>Node2&#45;&gt;Node4</title>
<path fill="none" stroke="midnightblue" d="M1251.72,-184.87C1284.33,-173.47 1341.91,-153.35 1378.72,-140.49"/>
<polygon fill="midnightblue" stroke="midnightblue" points="1380.23,-143.67 1388.52,-137.06 1377.92,-137.06 1380.23,-143.67"/>
</g>
<!-- Node11 -->
<g id="node11" class="node">
<title>Node11</title>
<g id="a_node11"><a xlink:title=" ">
<polygon fill="white" stroke="#bfbfbf" points="2267.52,-56.5 2267.52,-75.5 2354.52,-75.5 2354.52,-56.5 2267.52,-56.5"/>
<text text-anchor="middle" x="2311.02" y="-63.5" font-family="Helvetica,sans-Serif" font-size="10.00">AMReX_Gpu.H</text>
</a>
</g>
</g>
<!-- Node2&#45;&gt;Node11 -->
<g id="edge18" class="edge">
<title>Node2&#45;&gt;Node11</title>
<path fill="none" stroke="midnightblue" d="M1305.45,-194.29C1420.1,-193.78 1639.45,-186.45 1820.02,-143 1855.49,-134.47 1860.66,-120.94 1896.02,-112 2022.77,-79.95 2176.97,-70.73 2256.99,-68.07"/>
<polygon fill="midnightblue" stroke="midnightblue" points="2257.42,-71.56 2267.31,-67.75 2257.2,-64.56 2257.42,-71.56"/>
</g>
<!-- Node15 -->
<g id="node15" class="node">
<title>Node15</title>
<g id="a_node15"><a xlink:title=" ">
<polygon fill="white" stroke="#bfbfbf" points="1168.52,-118 1168.52,-137 1285.52,-137 1285.52,-118 1168.52,-118"/>
<text text-anchor="middle" x="1227.02" y="-125" font-family="Helvetica,sans-Serif" font-size="10.00">AMReX_FArrayBox.H</text>
</a>
</g>
</g>
<!-- Node2&#45;&gt;Node15 -->
<g id="edge19" class="edge">
<title>Node2&#45;&gt;Node15</title>
<path fill="none" stroke="midnightblue" d="M1227.02,-184.73C1227.02,-175.18 1227.02,-159.62 1227.02,-147.28"/>
<polygon fill="midnightblue" stroke="midnightblue" points="1230.52,-147.13 1227.02,-137.13 1223.52,-147.13 1230.52,-147.13"/>
</g>
<!-- Node16 -->
<g id="node16" class="node">
<title>Node16</title>
<g id="a_node16"><a xlink:title=" ">
<polygon fill="white" stroke="#bfbfbf" points="2339.52,-118 2339.52,-137 2454.52,-137 2454.52,-118 2339.52,-118"/>
<text text-anchor="middle" x="2397.02" y="-125" font-family="Helvetica,sans-Serif" font-size="10.00">AMReX_Geometry.H</text>
</a>
</g>
</g>
<!-- Node2&#45;&gt;Node16 -->
<g id="edge20" class="edge">
<title>Node2&#45;&gt;Node16</title>
<path fill="none" stroke="midnightblue" d="M1305.03,-192.2C1481.28,-188.74 1923.62,-177.1 2292.02,-143 2305.02,-141.8 2318.87,-140.15 2332.11,-138.39"/>
<polygon fill="midnightblue" stroke="midnightblue" points="2332.66,-141.85 2342.09,-137.03 2331.71,-134.91 2332.66,-141.85"/>
</g>
<!-- Node17 -->
<g id="node17" class="node">
<title>Node17</title>
<g id="a_node17"><a xlink:title=" ">
<polygon fill="white" stroke="#bfbfbf" points="686.52,-56.5 686.52,-75.5 817.52,-75.5 817.52,-56.5 686.52,-56.5"/>
<text text-anchor="middle" x="752.02" y="-63.5" font-family="Helvetica,sans-Serif" font-size="10.00">AMReX_PhysBCFunct.H</text>
</a>
</g>
</g>
<!-- Node2&#45;&gt;Node17 -->
<g id="edge21" class="edge">
<title>Node2&#45;&gt;Node17</title>
<path fill="none" stroke="midnightblue" d="M1190.28,-184.97C1148.81,-175.24 1079.4,-158.66 1020.02,-143 938.04,-121.38 842.66,-93.73 790.68,-78.45"/>
<polygon fill="midnightblue" stroke="midnightblue" points="791.46,-75.03 780.88,-75.56 789.48,-81.74 791.46,-75.03"/>
</g>
<!-- Node4&#45;&gt;Node3 -->
<g id="edge12" class="edge">
<title>Node4&#45;&gt;Node3</title>
<path fill="none" stroke="midnightblue" d="M1450.69,-117.99C1493.2,-106.75 1553.12,-84.95 1526.02,-56 1506.47,-35.11 1128.1,-20.09 944.42,-14"/>
<polygon fill="midnightblue" stroke="midnightblue" points="944.33,-10.5 934.22,-13.67 944.1,-17.5 944.33,-10.5"/>
</g>
<!-- Node5 -->
<g id="node5" class="node">
<title>Node5</title>
<g id="a_node5"><a xlink:title=" ">
<polygon fill="white" stroke="#bfbfbf" points="242.02,-0.5 242.02,-19.5 286.02,-19.5 286.02,-0.5 242.02,-0.5"/>
<text text-anchor="middle" x="264.02" y="-7.5" font-family="Helvetica,sans-Serif" font-size="10.00">string</text>
</a>
</g>
</g>
<!-- Node4&#45;&gt;Node5 -->
<g id="edge4" class="edge">
<title>Node4&#45;&gt;Node5</title>
<path fill="none" stroke="midnightblue" d="M1370.08,-117.97C1359.3,-115.92 1347.75,-113.81 1337.02,-112 1228.06,-93.64 1199.33,-97.92 1091.02,-76 1056.37,-68.99 1048.96,-61.44 1014.02,-56 725.51,-11.07 649.19,-41.92 358.02,-20 337.39,-18.45 314.25,-16.24 296.09,-14.4"/>
<polygon fill="midnightblue" stroke="midnightblue" points="296.34,-10.9 286.03,-13.36 295.62,-17.87 296.34,-10.9"/>
</g>
<!-- Node6 -->
<g id="node6" class="node">
<title>Node6</title>
<g id="a_node6"><a xlink:title=" ">
<polygon fill="white" stroke="#bfbfbf" points="1377.02,-56.5 1377.02,-75.5 1435.02,-75.5 1435.02,-56.5 1377.02,-56.5"/>
<text text-anchor="middle" x="1406.02" y="-63.5" font-family="Helvetica,sans-Serif" font-size="10.00">memory</text>
</a>
</g>
</g>
<!-- Node4&#45;&gt;Node6 -->
<g id="edge5" class="edge">
<title>Node4&#45;&gt;Node6</title>
<path fill="none" stroke="midnightblue" d="M1412.02,-117.98C1411.03,-109.58 1409.49,-96.48 1408.22,-85.66"/>
<polygon fill="midnightblue" stroke="midnightblue" points="1411.67,-85.03 1407.02,-75.51 1404.72,-85.85 1411.67,-85.03"/>
</g>
<!-- Node7 -->
<g id="node7" class="node">
<title>Node7</title>
<g id="a_node7"><a xlink:title=" ">
<polygon fill="white" stroke="#bfbfbf" points="912.52,-56.5 912.52,-75.5 1005.52,-75.5 1005.52,-56.5 912.52,-56.5"/>
<text text-anchor="middle" x="959.02" y="-63.5" font-family="Helvetica,sans-Serif" font-size="10.00">unordered_map</text>
</a>
</g>
</g>
<!-- Node4&#45;&gt;Node7 -->
<g id="edge6" class="edge">
<title>Node4&#45;&gt;Node7</title>
<path fill="none" stroke="midnightblue" d="M1371.3,-118C1360.19,-115.88 1348.17,-113.73 1337.02,-112 1223.5,-94.43 1089.87,-79.98 1015.77,-72.5"/>
<polygon fill="midnightblue" stroke="midnightblue" points="1016.02,-69.01 1005.72,-71.5 1015.32,-75.98 1016.02,-69.01"/>
</g>
<!-- Node8 -->
<g id="node8" class="node">
<title>Node8</title>
<g id="a_node8"><a xlink:title=" ">
<polygon fill="white" stroke="#bfbfbf" points="1453.02,-56.5 1453.02,-75.5 1517.02,-75.5 1517.02,-56.5 1453.02,-56.5"/>
<text text-anchor="middle" x="1485.02" y="-63.5" font-family="Helvetica,sans-Serif" font-size="10.00">algorithm</text>
</a>
</g>
</g>
<!-- Node4&#45;&gt;Node8 -->
<g id="edge7" class="edge">
<title>Node4&#45;&gt;Node8</title>
<path fill="none" stroke="midnightblue" d="M1423.34,-117.98C1434.67,-108.61 1453.1,-93.38 1466.86,-82.01"/>
<polygon fill="midnightblue" stroke="midnightblue" points="1469.25,-84.58 1474.73,-75.51 1464.79,-79.18 1469.25,-84.58"/>
</g>
<!-- Node9 -->
<g id="node9" class="node">
<title>Node9</title>
<g id="a_node9"><a xlink:title=" ">
<polygon fill="white" stroke="#bfbfbf" points="1259.52,-0.5 1259.52,-19.5 1368.52,-19.5 1368.52,-0.5 1259.52,-0.5"/>
<text text-anchor="middle" x="1314.02" y="-7.5" font-family="Helvetica,sans-Serif" font-size="10.00">AMReX_MultiFab.H</text>
</a>
</g>
</g>
<!-- Node4&#45;&gt;Node9 -->
<g id="edge8" class="edge">
<title>Node4&#45;&gt;Node9</title>
<path fill="none" stroke="midnightblue" d="M1475.32,-118.08C1526.77,-108.54 1587.13,-89.74 1559.02,-56 1536.49,-28.95 1443.55,-18.11 1378.85,-13.8"/>
<polygon fill="midnightblue" stroke="midnightblue" points="1378.92,-10.29 1368.72,-13.16 1378.48,-17.28 1378.92,-10.29"/>
</g>
<!-- Node10 -->
<g id="node10" class="node">
<title>Node10</title>
<g id="a_node10"><a xlink:title=" ">
<polygon fill="white" stroke="#bfbfbf" points="1100.52,-56.5 1100.52,-75.5 1199.52,-75.5 1199.52,-56.5 1100.52,-56.5"/>
<text text-anchor="middle" x="1150.02" y="-63.5" font-family="Helvetica,sans-Serif" font-size="10.00">AMReX_BCRec.H</text>
</a>
</g>
</g>
<!-- Node4&#45;&gt;Node10 -->
<g id="edge9" class="edge">
<title>Node4&#45;&gt;Node10</title>
<path fill="none" stroke="midnightblue" d="M1375.34,-117.98C1328.47,-107.37 1248.42,-89.26 1197.43,-77.72"/>
<polygon fill="midnightblue" stroke="midnightblue" points="1198.16,-74.3 1187.64,-75.51 1196.62,-81.13 1198.16,-74.3"/>
</g>
<!-- Node4&#45;&gt;Node11 -->
<g id="edge10" class="edge">
<title>Node4&#45;&gt;Node11</title>
<path fill="none" stroke="midnightblue" d="M1474.41,-117.98C1491.72,-115.78 1510.59,-113.6 1528.02,-112 1801.36,-86.94 2129.73,-73.45 2256.98,-68.84"/>
<polygon fill="midnightblue" stroke="midnightblue" points="2257.36,-72.33 2267.23,-68.47 2257.11,-65.33 2257.36,-72.33"/>
</g>
<!-- Node12 -->
<g id="node12" class="node">
<title>Node12</title>
<g id="a_node12"><a xlink:href="incflo__enums_8_h.html" target="_top" xlink:title=" ">
<polygon fill="white" stroke="black" points="1217.52,-56.5 1217.52,-75.5 1358.52,-75.5 1358.52,-56.5 1217.52,-56.5"/>
<text text-anchor="middle" x="1288.02" y="-63.5" font-family="Helvetica,sans-Serif" font-size="10.00">amr&#45;wind/incflo_enums.H</text>
</a>
</g>
</g>
<!-- Node4&#45;&gt;Node12 -->
<g id="edge11" class="edge">
<title>Node4&#45;&gt;Node12</title>
<path fill="none" stroke="midnightblue" d="M1395.11,-117.98C1374.14,-107.99 1339.17,-91.35 1314.93,-79.81"/>
<polygon fill="midnightblue" stroke="midnightblue" points="1316.43,-76.65 1305.9,-75.51 1313.42,-82.97 1316.43,-76.65"/>
</g>
<!-- Node13 -->
<g id="node13" class="node">
<title>Node13</title>
<g id="a_node13"><a xlink:href="_view_field_8_h.html" target="_top" xlink:title=" ">
<polygon fill="white" stroke="black" points="444.02,-56.5 444.02,-75.5 592.02,-75.5 592.02,-56.5 444.02,-56.5"/>
<text text-anchor="middle" x="518.02" y="-63.5" font-family="Helvetica,sans-Serif" font-size="10.00">amr&#45;wind/core/ViewField.H</text>
</a>
</g>
</g>
<!-- Node4&#45;&gt;Node13 -->
<g id="edge13" class="edge">
<title>Node4&#45;&gt;Node13</title>
<path fill="none" stroke="midnightblue" d="M1350.72,-118.15C1332.48,-115.91 1312.47,-113.66 1294.02,-112 1276.98,-110.47 799.73,-83.11 602.28,-71.82"/>
<polygon fill="midnightblue" stroke="midnightblue" points="602.43,-68.32 592.24,-71.24 602.03,-75.31 602.43,-68.32"/>
</g>
<!-- Node13&#45;&gt;Node3 -->
<g id="edge15" class="edge">
<title>Node13&#45;&gt;Node3</title>
<path fill="none" stroke="midnightblue" d="M570,-56.44C628.17,-46.87 722.38,-31.36 784.27,-21.17"/>
<polygon fill="midnightblue" stroke="midnightblue" points="785,-24.59 794.29,-19.52 783.86,-17.69 785,-24.59"/>
</g>
<!-- Node13&#45;&gt;Node5 -->
<g id="edge14" class="edge">
<title>Node13&#45;&gt;Node5</title>
<path fill="none" stroke="midnightblue" d="M477.78,-56.44C427.55,-45.77 342.66,-27.72 296.41,-17.89"/>
<polygon fill="midnightblue" stroke="midnightblue" points="296.85,-14.4 286.34,-15.75 295.4,-21.25 296.85,-14.4"/>
</g>
<!-- Node13&#45;&gt;Node9 -->
<g id="edge16" class="edge">
<title>Node13&#45;&gt;Node9</title>
<path fill="none" stroke="midnightblue" d="M592.31,-59.64C609.3,-58.43 627.29,-57.16 644.02,-56 866.09,-40.61 1129.61,-23.15 1249.22,-15.26"/>
<polygon fill="midnightblue" stroke="midnightblue" points="1249.56,-18.75 1259.3,-14.6 1249.1,-11.76 1249.56,-18.75"/>
</g>
<!-- Node14 -->
<g id="node14" class="node">
<title>Node14</title>
<g id="a_node14"><a xlink:title=" ">
<polygon fill="white" stroke="#bfbfbf" points="367.02,-0.5 367.02,-19.5 465.02,-19.5 465.02,-0.5 367.02,-0.5"/>
<text text-anchor="middle" x="416.02" y="-7.5" font-family="Helvetica,sans-Serif" font-size="10.00">AMReX_Vector.H</text>
</a>
</g>
</g>
<!-- Node13&#45;&gt;Node14 -->
<g id="edge17" class="edge">
<title>Node13&#45;&gt;Node14</title>
<path fill="none" stroke="midnightblue" d="M501.64,-56.32C485.35,-47.7 460.16,-34.36 441.31,-24.39"/>
<polygon fill="midnightblue" stroke="midnightblue" points="442.85,-21.24 432.37,-19.65 439.57,-27.43 442.85,-21.24"/>
</g>
<!-- Node18&#45;&gt;Node2 -->
<g id="edge33" class="edge">
<title>Node18&#45;&gt;Node2</title>
<path fill="none" stroke="midnightblue" d="M1675.68,-252.46C1588.79,-243.2 1443.59,-227.06 1319.02,-210 1309.29,-208.67 1299,-207.15 1288.96,-205.61"/>
<polygon fill="midnightblue" stroke="midnightblue" points="1289.45,-202.15 1279.03,-204.07 1288.38,-209.06 1289.45,-202.15"/>
</g>
<!-- Node18&#45;&gt;Node3 -->
<g id="edge28" class="edge">
<title>Node18&#45;&gt;Node3</title>
<path fill="none" stroke="midnightblue" d="M1688.98,-246.44C1635.55,-230.97 1562.74,-200.29 1528.02,-143 1512.16,-116.82 1537.67,-105.95 1544.02,-76 1545.87,-67.3 1550.1,-62.48 1544.02,-56 1523.84,-34.47 1131.72,-19.69 944.25,-13.82"/>
<polygon fill="midnightblue" stroke="midnightblue" points="944.21,-10.32 934.11,-13.51 944,-17.32 944.21,-10.32"/>
</g>
<!-- Node18&#45;&gt;Node4 -->
<g id="edge23" class="edge">
<title>Node18&#45;&gt;Node4</title>
<path fill="none" stroke="midnightblue" d="M1676.02,-257.16C1622.57,-252.11 1551.17,-239.79 1495.02,-210 1465.31,-194.24 1439.36,-164.19 1424.98,-145.31"/>
<polygon fill="midnightblue" stroke="midnightblue" points="1427.64,-143.02 1418.88,-137.05 1422.01,-147.18 1427.64,-143.02"/>
</g>
<!-- Node18&#45;&gt;Node9 -->
<g id="edge35" class="edge">
<title>Node18&#45;&gt;Node9</title>
<path fill="none" stroke="midnightblue" d="M1762.37,-246.34C1786.25,-209.81 1848.34,-112.7 1858.02,-76 1860.29,-67.41 1864.04,-62.54 1858.02,-56 1826.16,-21.39 1516.41,-13.4 1379.05,-11.55"/>
<polygon fill="midnightblue" stroke="midnightblue" points="1378.72,-8.05 1368.67,-11.42 1378.63,-15.05 1378.72,-8.05"/>
</g>
<!-- Node18&#45;&gt;Node17 -->
<g id="edge37" class="edge">
<title>Node18&#45;&gt;Node17</title>
<path fill="none" stroke="midnightblue" d="M1675.8,-255.65C1613.73,-249.85 1525.14,-237.24 1452.02,-210 1398.38,-190.01 1390.52,-173.42 1342.02,-143 1320.51,-129.5 1318.06,-120.18 1294.02,-112 1272.32,-104.61 971.6,-82.53 827.71,-72.31"/>
<polygon fill="midnightblue" stroke="midnightblue" points="827.85,-68.81 817.62,-71.59 827.35,-75.79 827.85,-68.81"/>
</g>
<!-- Node18&#45;&gt;Node19 -->
<g id="edge24" class="edge">
<title>Node18&#45;&gt;Node19</title>
<path fill="none" stroke="midnightblue" d="M1822.06,-246.48C1881.79,-234.34 1966.83,-217.07 2020.97,-206.07"/>
<polygon fill="midnightblue" stroke="midnightblue" points="2021.93,-209.45 2031.04,-204.03 2020.54,-202.59 2021.93,-209.45"/>
</g>
<!-- Node20 -->
<g id="node20" class="node">
<title>Node20</title>
<g id="a_node20"><a xlink:title=" ">
<polygon fill="white" stroke="#bfbfbf" points="1905.02,-118 1905.02,-137 1997.02,-137 1997.02,-118 1905.02,-118"/>
<text text-anchor="middle" x="1951.02" y="-125" font-family="Helvetica,sans-Serif" font-size="10.00">AMReX_REAL.H</text>
</a>
</g>
</g>
<!-- Node18&#45;&gt;Node20 -->
<g id="edge36" class="edge">
<title>Node18&#45;&gt;Node20</title>
<path fill="none" stroke="midnightblue" d="M1830.05,-250.89C1879.67,-242.93 1937.67,-229.71 1953.02,-210 1966.92,-192.16 1962.69,-164.85 1957.55,-146.83"/>
<polygon fill="midnightblue" stroke="midnightblue" points="1960.85,-145.67 1954.47,-137.21 1954.19,-147.81 1960.85,-145.67"/>
</g>
<!-- Node23 -->
<g id="node23" class="node">
<title>Node23</title>
<g id="a_node23"><a xlink:href="_field_utils_8_h.html" target="_top" xlink:title=" ">
<polygon fill="white" stroke="black" points="1537.02,-118 1537.02,-137 1683.02,-137 1683.02,-118 1537.02,-118"/>
<text text-anchor="middle" x="1610.02" y="-125" font-family="Helvetica,sans-Serif" font-size="10.00">amr&#45;wind/core/FieldUtils.H</text>
</a>
</g>
</g>
<!-- Node18&#45;&gt;Node23 -->
<g id="edge29" class="edge">
<title>Node18&#45;&gt;Node23</title>
<path fill="none" stroke="midnightblue" d="M1737.72,-246.37C1710.7,-221.43 1654.76,-169.8 1626.76,-143.95"/>
<polygon fill="midnightblue" stroke="midnightblue" points="1629.06,-141.31 1619.34,-137.1 1624.31,-146.45 1629.06,-141.31"/>
</g>
<!-- Node25 -->
<g id="node25" class="node">
<title>Node25</title>
<g id="a_node25"><a xlink:title=" ">
<polygon fill="white" stroke="#bfbfbf" points="1701.02,-118 1701.02,-137 1811.02,-137 1811.02,-118 1701.02,-118"/>
<text text-anchor="middle" x="1756.02" y="-125" font-family="Helvetica,sans-Serif" font-size="10.00">AMReX_AmrCore.H</text>
</a>
</g>
</g>
<!-- Node18&#45;&gt;Node25 -->
<g id="edge34" class="edge">
<title>Node18&#45;&gt;Node25</title>
<path fill="none" stroke="midnightblue" d="M1753.34,-246.37C1753.89,-222.5 1754.99,-174.18 1755.59,-147.41"/>
<polygon fill="midnightblue" stroke="midnightblue" points="1759.1,-147.17 1755.83,-137.1 1752.1,-147.02 1759.1,-147.17"/>
</g>
<!-- Node26 -->
<g id="node26" class="node">
<title>Node26</title>
<g id="a_node26"><a xlink:title=" ">
<polygon fill="white" stroke="#bfbfbf" points="1819.52,-185 1819.52,-204 1944.52,-204 1944.52,-185 1819.52,-185"/>
<text text-anchor="middle" x="1882.02" y="-192" font-family="Helvetica,sans-Serif" font-size="10.00">AMReX_FillPatchUtil.H</text>
</a>
</g>
</g>
<!-- Node18&#45;&gt;Node26 -->
<g id="edge38" class="edge">
<title>Node18&#45;&gt;Node26</title>
<path fill="none" stroke="midnightblue" d="M1781.01,-246.4C1803.35,-235.14 1834.39,-219.5 1856.15,-208.54"/>
<polygon fill="midnightblue" stroke="midnightblue" points="1857.79,-211.63 1865.14,-204.01 1854.64,-205.38 1857.79,-211.63"/>
</g>
<!-- Node19&#45;&gt;Node20 -->
<g id="edge25" class="edge">
<title>Node19&#45;&gt;Node20</title>
<path fill="none" stroke="midnightblue" d="M2056.82,-184.87C2036.22,-173.89 2000.43,-154.82 1976.25,-141.94"/>
<polygon fill="midnightblue" stroke="midnightblue" points="1977.76,-138.78 1967.29,-137.17 1974.47,-144.96 1977.76,-138.78"/>
</g>
<!-- Node21 -->
<g id="node21" class="node">
<title>Node21</title>
<g id="a_node21"><a xlink:title=" ">
<polygon fill="white" stroke="#bfbfbf" points="2149.02,-118 2149.02,-137 2283.02,-137 2283.02,-118 2149.02,-118"/>
<text text-anchor="middle" x="2216.02" y="-125" font-family="Helvetica,sans-Serif" font-size="10.00">AMReX_GpuQualifiers.H</text>
</a>
</g>
</g>
<!-- Node19&#45;&gt;Node21 -->
<g id="edge26" class="edge">
<title>Node19&#45;&gt;Node21</title>
<path fill="none" stroke="midnightblue" d="M2092.01,-184.87C2116.48,-173.75 2159.23,-154.32 2187.58,-141.43"/>
<polygon fill="midnightblue" stroke="midnightblue" points="2189.3,-144.49 2196.96,-137.17 2186.4,-138.12 2189.3,-144.49"/>
</g>
<!-- Node22 -->
<g id="node22" class="node">
<title>Node22</title>
<g id="a_node22"><a xlink:title=" ">
<polygon fill="white" stroke="#bfbfbf" points="2015.02,-118 2015.02,-137 2131.02,-137 2131.02,-118 2015.02,-118"/>
<text text-anchor="middle" x="2073.02" y="-125" font-family="Helvetica,sans-Serif" font-size="10.00">AMReX_Extension.H</text>
</a>
</g>
</g>
<!-- Node19&#45;&gt;Node22 -->
<g id="edge27" class="edge">
<title>Node19&#45;&gt;Node22</title>
<path fill="none" stroke="midnightblue" d="M2073.02,-184.73C2073.02,-175.18 2073.02,-159.62 2073.02,-147.28"/>
<polygon fill="midnightblue" stroke="midnightblue" points="2076.52,-147.13 2073.02,-137.13 2069.52,-147.13 2076.52,-147.13"/>
</g>
<!-- Node23&#45;&gt;Node3 -->
<g id="edge30" class="edge">
<title>Node23&#45;&gt;Node3</title>
<path fill="none" stroke="midnightblue" d="M1611.41,-117.98C1613.32,-102.91 1614.74,-71.67 1597.02,-56 1572.97,-34.72 1142.48,-19.58 944.36,-13.7"/>
<polygon fill="midnightblue" stroke="midnightblue" points="944.34,-10.2 934.24,-13.4 944.13,-17.19 944.34,-10.2"/>
</g>
<!-- Node23&#45;&gt;Node9 -->
<g id="edge31" class="edge">
<title>Node23&#45;&gt;Node9</title>
<path fill="none" stroke="midnightblue" d="M1627.73,-117.85C1652.61,-104.58 1692.79,-78.4 1673.02,-56 1653.91,-34.34 1476.83,-20.57 1378.72,-14.54"/>
<polygon fill="midnightblue" stroke="midnightblue" points="1378.81,-11.04 1368.61,-13.93 1378.39,-18.02 1378.81,-11.04"/>
</g>
<!-- Node24 -->
<g id="node24" class="node">
<title>Node24</title>
<g id="a_node24"><a xlink:title=" ">
<polygon fill="white" stroke="#bfbfbf" points="1725.02,-56.5 1725.02,-75.5 1849.02,-75.5 1849.02,-56.5 1725.02,-56.5"/>
<text text-anchor="middle" x="1787.02" y="-63.5" font-family="Helvetica,sans-Serif" font-size="10.00">AMReX_Interpolater.H</text>
</a>
</g>
</g>
<!-- Node23&#45;&gt;Node24 -->
<g id="edge32" class="edge">
<title>Node23&#45;&gt;Node24</title>
<path fill="none" stroke="midnightblue" d="M1635.38,-117.98C1666.01,-107.68 1717.68,-90.31 1752.07,-78.75"/>
<polygon fill="midnightblue" stroke="midnightblue" points="1753.35,-82.01 1761.71,-75.51 1751.12,-75.38 1753.35,-82.01"/>
</g>
<!-- Node27&#45;&gt;Node3 -->
<g id="edge42" class="edge">
<title>Node27&#45;&gt;Node3</title>
<path fill="none" stroke="midnightblue" d="M855.54,-184.7C854.01,-156.69 849.21,-69.21 847.07,-30.16"/>
<polygon fill="midnightblue" stroke="midnightblue" points="850.54,-29.51 846.5,-19.71 843.55,-29.89 850.54,-29.51"/>
</g>
<!-- Node27&#45;&gt;Node4 -->
<g id="edge44" class="edge">
<title>Node27&#45;&gt;Node4</title>
<path fill="none" stroke="midnightblue" d="M930.83,-185.02C1018.04,-175.11 1166.51,-158.12 1294.02,-143 1309.2,-141.2 1325.46,-139.24 1340.93,-137.36"/>
<polygon fill="midnightblue" stroke="midnightblue" points="1341.46,-140.82 1350.96,-136.14 1340.61,-133.87 1341.46,-140.82"/>
</g>
<!-- Node27&#45;&gt;Node5 -->
<g id="edge40" class="edge">
<title>Node27&#45;&gt;Node5</title>
<path fill="none" stroke="midnightblue" d="M781.18,-191.8C578.68,-186.85 33.38,-170.97 7.02,-143 -1.72,-133.72 -3.62,-70.53 9.02,-56 37.68,-23.05 169.68,-14.2 231.68,-11.84"/>
<polygon fill="midnightblue" stroke="midnightblue" points="231.84,-15.34 241.71,-11.49 231.59,-8.34 231.84,-15.34"/>
</g>
<!-- Node27&#45;&gt;Node7 -->
<g id="edge41" class="edge">
<title>Node27&#45;&gt;Node7</title>
<path fill="none" stroke="midnightblue" d="M866.22,-184.76C877.18,-175.11 894.8,-158.84 908.02,-143 923.71,-124.21 938.98,-100.52 948.66,-84.62"/>
<polygon fill="midnightblue" stroke="midnightblue" points="951.78,-86.23 953.92,-75.85 945.78,-82.63 951.78,-86.23"/>
</g>
<!-- Node27&#45;&gt;Node9 -->
<g id="edge66" class="edge">
<title>Node27&#45;&gt;Node9</title>
<path fill="none" stroke="midnightblue" d="M857.7,-184.97C863.27,-157.62 881.95,-72.87 903.02,-56 929.45,-34.84 1140.15,-20.43 1249.16,-14.31"/>
<polygon fill="midnightblue" stroke="midnightblue" points="1249.59,-17.79 1259.38,-13.74 1249.21,-10.8 1249.59,-17.79"/>
</g>
<!-- Node27&#45;&gt;Node23 -->
<g id="edge43" class="edge">
<title>Node27&#45;&gt;Node23</title>
<path fill="none" stroke="midnightblue" d="M930.53,-188.34C1048.21,-180 1284.26,-162.52 1484.02,-143 1498.71,-141.56 1514.35,-139.89 1529.43,-138.19"/>
<polygon fill="midnightblue" stroke="midnightblue" points="1530.22,-141.62 1539.76,-137.02 1529.43,-134.67 1530.22,-141.62"/>
</g>
<!-- Node27&#45;&gt;Node25 -->
<g id="edge65" class="edge">
<title>Node27&#45;&gt;Node25</title>
<path fill="none" stroke="midnightblue" d="M930.75,-189.68C1121.74,-179.83 1617.89,-153.57 1692.02,-143 1698.84,-142.03 1706.01,-140.71 1712.99,-139.25"/>
<polygon fill="midnightblue" stroke="midnightblue" points="1713.98,-142.62 1723,-137.06 1712.48,-135.78 1713.98,-142.62"/>
</g>
<!-- Node28 -->
<g id="node28" class="node">
<title>Node28</title>
<g id="a_node28"><a xlink:href="_int_field_8_h.html" target="_top" xlink:title=" ">
<polygon fill="white" stroke="black" points="16.52,-118 16.52,-137 153.52,-137 153.52,-118 16.52,-118"/>
<text text-anchor="middle" x="85.02" y="-125" font-family="Helvetica,sans-Serif" font-size="10.00">amr&#45;wind/core/IntField.H</text>
</a>
</g>
</g>
<!-- Node27&#45;&gt;Node28 -->
<g id="edge45" class="edge">
<title>Node27&#45;&gt;Node28</title>
<path fill="none" stroke="midnightblue" d="M781.3,-189.7C656.79,-182.97 399.07,-167.32 182.02,-143 170.77,-141.74 158.81,-140.15 147.28,-138.5"/>
<polygon fill="midnightblue" stroke="midnightblue" points="147.69,-135.02 137.29,-137.03 146.67,-141.95 147.69,-135.02"/>
</g>
<!-- Node29 -->
<g id="node29" class="node">
<title>Node29</title>
<g id="a_node29"><a xlink:title=" ">
<polygon fill="white" stroke="#bfbfbf" points="60.02,-56.5 60.02,-75.5 172.02,-75.5 172.02,-56.5 60.02,-56.5"/>
<text text-anchor="middle" x="116.02" y="-63.5" font-family="Helvetica,sans-Serif" font-size="10.00">AMReX_iMultiFab.H</text>
</a>
</g>
</g>
<!-- Node27&#45;&gt;Node29 -->
<g id="edge67" class="edge">
<title>Node27&#45;&gt;Node29</title>
<path fill="none" stroke="midnightblue" d="M781.29,-192.55C636.45,-189.88 322.87,-179.9 222.02,-143 185.93,-129.79 151.09,-100.68 131.72,-82.57"/>
<polygon fill="midnightblue" stroke="midnightblue" points="134.05,-79.95 124.4,-75.56 129.2,-85 134.05,-79.95"/>
</g>
<!-- Node30 -->
<g id="node30" class="node">
<title>Node30</title>
<g id="a_node30"><a xlink:href="_scratch_field_8_h.html" target="_top" xlink:title=" ">
<polygon fill="white" stroke="black" points="489.02,-118 489.02,-137 649.02,-137 649.02,-118 489.02,-118"/>
<text text-anchor="middle" x="569.02" y="-125" font-family="Helvetica,sans-Serif" font-size="10.00">amr&#45;wind/core/ScratchField.H</text>
</a>
</g>
</g>
<!-- Node27&#45;&gt;Node30 -->
<g id="edge49" class="edge">
<title>Node27&#45;&gt;Node30</title>
<path fill="none" stroke="midnightblue" d="M818.21,-184.94C766.37,-173.2 673.25,-152.11 616.7,-139.3"/>
<polygon fill="midnightblue" stroke="midnightblue" points="617.45,-135.88 606.92,-137.08 615.9,-142.71 617.45,-135.88"/>
</g>
<!-- Node32 -->
<g id="node32" class="node">
<title>Node32</title>
<g id="a_node32"><a xlink:href="_int_scratch_field_8_h.html" target="_top" xlink:title=" ">
<polygon fill="white" stroke="black" points="231.52,-112.5 231.52,-142.5 370.52,-142.5 370.52,-112.5 231.52,-112.5"/>
<text text-anchor="start" x="239.52" y="-130.5" font-family="Helvetica,sans-Serif" font-size="10.00">amr&#45;wind/core/IntScratch</text>
<text text-anchor="middle" x="301.02" y="-119.5" font-family="Helvetica,sans-Serif" font-size="10.00">Field.H</text>
</a>
</g>
</g>
<!-- Node27&#45;&gt;Node32 -->
<g id="edge57" class="edge">
<title>Node27&#45;&gt;Node32</title>
<path fill="none" stroke="midnightblue" d="M783.18,-184.97C679.19,-172.79 488.87,-150.5 381.06,-137.87"/>
<polygon fill="midnightblue" stroke="midnightblue" points="381.23,-134.37 370.89,-136.68 380.42,-141.32 381.23,-134.37"/>
</g>
<!-- Node28&#45;&gt;Node3 -->
<g id="edge47" class="edge">
<title>Node28&#45;&gt;Node3</title>
<path fill="none" stroke="midnightblue" d="M74.89,-117.69C59.48,-103.26 33.66,-74.37 51.02,-56 74.59,-31.07 539.7,-17.74 747.36,-13.02"/>
<polygon fill="midnightblue" stroke="midnightblue" points="747.73,-16.51 757.65,-12.78 747.58,-9.51 747.73,-16.51"/>
</g>
<!-- Node28&#45;&gt;Node5 -->
<g id="edge46" class="edge">
<title>Node28&#45;&gt;Node5</title>
<path fill="none" stroke="midnightblue" d="M66.1,-117.94C40.05,-105 -1.55,-79.47 18.02,-56 44.91,-23.75 171.56,-14.55 231.9,-11.97"/>
<polygon fill="midnightblue" stroke="midnightblue" points="232.16,-15.46 242.02,-11.58 231.89,-8.47 232.16,-15.46"/>
</g>
<!-- Node28&#45;&gt;Node29 -->
<g id="edge48" class="edge">
<title>Node28&#45;&gt;Node29</title>
<path fill="none" stroke="midnightblue" d="M89.47,-117.98C93.98,-109.32 101.1,-95.65 106.83,-84.65"/>
<polygon fill="midnightblue" stroke="midnightblue" points="110.07,-85.99 111.59,-75.51 103.87,-82.76 110.07,-85.99"/>
</g>
<!-- Node30&#45;&gt;Node3 -->
<g id="edge52" class="edge">
<title>Node30&#45;&gt;Node3</title>
<path fill="none" stroke="midnightblue" d="M575.8,-117.55C587.8,-102.37 614.33,-71.72 644.02,-56 676.83,-38.64 716.05,-27.96 751.17,-21.4"/>
<polygon fill="midnightblue" stroke="midnightblue" points="752.2,-24.77 761.44,-19.57 750.98,-17.88 752.2,-24.77"/>
</g>
<!-- Node30&#45;&gt;Node5 -->
<g id="edge50" class="edge">
<title>Node30&#45;&gt;Node5</title>
<path fill="none" stroke="midnightblue" d="M541.91,-117.92C511.9,-108.29 462.19,-91.91 420.02,-76 375.19,-59.08 324.07,-37.3 292.93,-23.74"/>
<polygon fill="midnightblue" stroke="midnightblue" points="294.12,-20.44 283.55,-19.64 291.31,-26.85 294.12,-20.44"/>
</g>
<!-- Node30&#45;&gt;Node9 -->
<g id="edge54" class="edge">
<title>Node30&#45;&gt;Node9</title>
<path fill="none" stroke="midnightblue" d="M581.92,-117.84C609.41,-99.39 671.74,-57.78 677.02,-56 781.59,-20.83 1108.56,-13.15 1248.94,-11.47"/>
<polygon fill="midnightblue" stroke="midnightblue" points="1249.16,-14.97 1259.12,-11.35 1249.08,-7.97 1249.16,-14.97"/>
</g>
<!-- Node30&#45;&gt;Node13 -->
<g id="edge53" class="edge">
<title>Node30&#45;&gt;Node13</title>
<path fill="none" stroke="midnightblue" d="M561.72,-117.98C553.99,-108.96 541.62,-94.52 532.01,-83.31"/>
<polygon fill="midnightblue" stroke="midnightblue" points="534.48,-80.82 525.32,-75.51 529.17,-85.38 534.48,-80.82"/>
</g>
<!-- Node30&#45;&gt;Node14 -->
<g id="edge55" class="edge">
<title>Node30&#45;&gt;Node14</title>
<path fill="none" stroke="midnightblue" d="M514.93,-117.93C487.55,-110.96 455.81,-98.43 435.02,-76 423.42,-63.48 418.87,-44.25 417.1,-29.96"/>
<polygon fill="midnightblue" stroke="midnightblue" points="420.57,-29.42 416.2,-19.77 413.59,-30.04 420.57,-29.42"/>
</g>
<!-- Node30&#45;&gt;Node17 -->
<g id="edge56" class="edge">
<title>Node30&#45;&gt;Node17</title>
<path fill="none" stroke="midnightblue" d="M595.24,-117.98C627.04,-107.64 680.79,-90.16 716.34,-78.6"/>
<polygon fill="midnightblue" stroke="midnightblue" points="717.43,-81.93 725.85,-75.51 715.26,-75.27 717.43,-81.93"/>
</g>
<!-- Node31 -->
<g id="node31" class="node">
<title>Node31</title>
<g id="a_node31"><a xlink:title=" ">
<polygon fill="white" stroke="#bfbfbf" points="304.52,-56.5 304.52,-75.5 349.52,-75.5 349.52,-56.5 304.52,-56.5"/>
<text text-anchor="middle" x="327.02" y="-63.5" font-family="Helvetica,sans-Serif" font-size="10.00">utility</text>
</a>
</g>
</g>
<!-- Node30&#45;&gt;Node31 -->
<g id="edge51" class="edge">
<title>Node30&#45;&gt;Node31</title>
<path fill="none" stroke="midnightblue" d="M534.35,-117.98C487.67,-106.5 405.22,-86.23 359.63,-75.02"/>
<polygon fill="midnightblue" stroke="midnightblue" points="360.22,-71.56 349.68,-72.57 358.55,-78.36 360.22,-71.56"/>
</g>
<!-- Node32&#45;&gt;Node3 -->
<g id="edge60" class="edge">
<title>Node32&#45;&gt;Node3</title>
<path fill="none" stroke="midnightblue" d="M294.31,-112.33C287.91,-96.49 281.12,-71.08 295.02,-56 325.01,-23.47 597.65,-14.45 747.84,-11.96"/>
<polygon fill="midnightblue" stroke="midnightblue" points="748.05,-15.45 757.99,-11.79 747.94,-8.45 748.05,-15.45"/>
</g>
<!-- Node32&#45;&gt;Node5 -->
<g id="edge58" class="edge">
<title>Node32&#45;&gt;Node5</title>
<path fill="none" stroke="midnightblue" d="M265.03,-112.35C249.47,-104.22 232.84,-92.32 224.02,-76 214.57,-58.49 229.97,-39.15 244.33,-26.16"/>
<polygon fill="midnightblue" stroke="midnightblue" points="246.65,-28.78 252.03,-19.65 242.13,-23.43 246.65,-28.78"/>
</g>
<!-- Node32&#45;&gt;Node13 -->
<g id="edge61" class="edge">
<title>Node32&#45;&gt;Node13</title>
<path fill="none" stroke="midnightblue" d="M352.17,-112.47C390.27,-102.03 441.59,-87.96 477.01,-78.25"/>
<polygon fill="midnightblue" stroke="midnightblue" points="478.28,-81.53 487,-75.51 476.43,-74.78 478.28,-81.53"/>
</g>
<!-- Node32&#45;&gt;Node14 -->
<g id="edge63" class="edge">
<title>Node32&#45;&gt;Node14</title>
<path fill="none" stroke="midnightblue" d="M283.61,-112.3C267.66,-97.55 248.43,-74.13 262.02,-56 273.68,-40.45 318.38,-28.48 356.64,-20.81"/>
<polygon fill="midnightblue" stroke="midnightblue" points="357.56,-24.2 366.71,-18.86 356.23,-17.33 357.56,-24.2"/>
</g>
<!-- Node32&#45;&gt;Node17 -->
<g id="edge64" class="edge">
<title>Node32&#45;&gt;Node17</title>
<path fill="none" stroke="midnightblue" d="M371,-117.27C454.09,-106.31 592.12,-88.1 677.26,-76.86"/>
<polygon fill="midnightblue" stroke="midnightblue" points="677.92,-80.31 687.37,-75.53 677,-73.37 677.92,-80.31"/>
</g>
<!-- Node32&#45;&gt;Node29 -->
<g id="edge62" class="edge">
<title>Node32&#45;&gt;Node29</title>
<path fill="none" stroke="midnightblue" d="M257.18,-112.4C225.21,-102.12 182.41,-88.35 152.35,-78.68"/>
<polygon fill="midnightblue" stroke="midnightblue" points="153.26,-75.3 142.67,-75.57 151.12,-81.96 153.26,-75.3"/>
</g>
<!-- Node32&#45;&gt;Node31 -->
<g id="edge59" class="edge">
<title>Node32&#45;&gt;Node31</title>
<path fill="none" stroke="midnightblue" d="M307.19,-112.4C310.77,-104.2 315.32,-93.78 319.16,-84.99"/>
<polygon fill="midnightblue" stroke="midnightblue" points="322.44,-86.22 323.24,-75.66 316.03,-83.42 322.44,-86.22"/>
</g>
<!-- Node33&#45;&gt;Node11 -->
<g id="edge71" class="edge">
<title>Node33&#45;&gt;Node11</title>
<path fill="none" stroke="midnightblue" d="M2254.49,-179.42C2267.39,-170.52 2282.64,-157.89 2292.02,-143 2302.99,-125.59 2307.63,-102.22 2309.59,-86.01"/>
<polygon fill="midnightblue" stroke="midnightblue" points="2313.11,-85.95 2310.6,-75.66 2306.15,-85.27 2313.11,-85.95"/>
</g>
<!-- Node33&#45;&gt;Node16 -->
<g id="edge70" class="edge">
<title>Node33&#45;&gt;Node16</title>
<path fill="none" stroke="midnightblue" d="M2267.04,-179.4C2296.56,-167.84 2337.89,-151.66 2365.96,-140.66"/>
<polygon fill="midnightblue" stroke="midnightblue" points="2367.26,-143.91 2375.3,-137.01 2364.71,-137.39 2367.26,-143.91"/>
</g>
<!-- Node34&#45;&gt;Node11 -->
<g id="edge74" class="edge">
<title>Node34&#45;&gt;Node11</title>
<path fill="none" stroke="midnightblue" d="M2419.77,-179.32C2436.7,-171.45 2454.31,-159.77 2464.02,-143 2470.93,-131.08 2472.28,-123.03 2464.02,-112 2451.92,-95.82 2403.88,-83.46 2364.82,-75.83"/>
<polygon fill="midnightblue" stroke="midnightblue" points="2365.07,-72.31 2354.6,-73.9 2363.77,-79.19 2365.07,-72.31"/>
</g>
<!-- Node34&#45;&gt;Node16 -->
<g id="edge73" class="edge">
<title>Node34&#45;&gt;Node16</title>
<path fill="none" stroke="midnightblue" d="M2380.58,-179.4C2383.66,-169.86 2387.76,-157.18 2391.09,-146.86"/>
<polygon fill="midnightblue" stroke="midnightblue" points="2394.47,-147.79 2394.21,-137.19 2387.81,-145.63 2394.47,-147.79"/>
</g>
<!-- Node35&#45;&gt;Node11 -->
<g id="edge77" class="edge">
<title>Node35&#45;&gt;Node11</title>
<path fill="none" stroke="midnightblue" d="M2517.77,-179.44C2512.79,-161.15 2501.53,-129.48 2480.02,-112 2447.53,-85.59 2401.01,-74.58 2365,-70.04"/>
<polygon fill="midnightblue" stroke="midnightblue" points="2365,-66.51 2354.67,-68.87 2364.22,-73.47 2365,-66.51"/>
</g>
<!-- Node35&#45;&gt;Node16 -->
<g id="edge76" class="edge">
<title>Node35&#45;&gt;Node16</title>
<path fill="none" stroke="midnightblue" d="M2494.12,-179.4C2472.75,-168.19 2443.08,-152.64 2422.18,-141.69"/>
<polygon fill="midnightblue" stroke="midnightblue" points="2423.73,-138.55 2413.25,-137.01 2420.48,-144.75 2423.73,-138.55"/>
</g>
</g>
</svg>
        <g id="navigator" transform="translate(0 0)" fill="#404254">
                <rect fill="#f2f5e9" fill-opacity="0.5" stroke="#606060" stroke-width=".5" x="0" y="0" width="60" height="60"/>
                <use id="zoomplus" xlink:href="#zoomPlus" x="17" y="9" onmousedown="handleZoom(evt,'in')"/>
                <use id="zoomminus" xlink:href="#zoomMin" x="42" y="9" onmousedown="handleZoom(evt,'out')"/>
                <use id="reset" xlink:href="#resetDef" x="30" y="36" onmousedown="handleReset()"/>
                <g id="arrowUp" xlink:href="#dirArrow" transform="translate(30 24)" onmousedown="handlePan(0,-1)">
                  <use xlink:href="#rim" fill="#404040">
                        <set attributeName="fill" to="#808080" begin="arrowUp.mouseover" end="arrowUp.mouseout"/>
                  </use>
                  <path fill="none" stroke="white" stroke-width="1.5" d="M0,-3.0v7 M-2.5,-0.5L0,-3.0L2.5,-0.5"/>
                </g>
                <g id="arrowRight" xlink:href="#dirArrow" transform="rotate(90) translate(36 -43)" onmousedown="handlePan(1,0)">
                  <use xlink:href="#rim" fill="#404040">
                        <set attributeName="fill" to="#808080" begin="arrowRight.mouseover" end="arrowRight.mouseout"/>
                  </use>
                  <path fill="none" stroke="white" stroke-width="1.5" d="M0,-3.0v7 M-2.5,-0.5L0,-3.0L2.5,-0.5"/>
                </g>
                <g id="arrowDown" xlink:href="#dirArrow" transform="rotate(180) translate(-30 -48)" onmousedown="handlePan(0,1)">
                  <use xlink:href="#rim" fill="#404040">
                        <set attributeName="fill" to="#808080" begin="arrowDown.mouseover" end="arrowDown.mouseout"/>
                  </use>
                  <path fill="none" stroke="white" stroke-width="1.5" d="M0,-3.0v7 M-2.5,-0.5L0,-3.0L2.5,-0.5"/>
                </g>
                <g id="arrowLeft" xlink:href="#dirArrow" transform="rotate(270) translate(-36 17)" onmousedown="handlePan(-1,0)">
                  <use xlink:href="#rim" fill="#404040">
                        <set attributeName="fill" to="#808080" begin="arrowLeft.mouseover" end="arrowLeft.mouseout"/>
                  </use>
                  <path fill="none" stroke="white" stroke-width="1.5" d="M0,-3.0v7 M-2.5,-0.5L0,-3.0L2.5,-0.5"/>
                </g>
        </g>
        <svg viewBox="0 0 15 15" width="100%" height="30px" preserveAspectRatio="xMaxYMin meet">
         <g id="arrow_out" transform="scale(0.3 0.3)">
          <a xlink:href="velocity__bcs_8_h__incl_org.svg" target="_base">
           <rect id="button" ry="5" rx="5" y="6" x="6" height="38" width="38"
                fill="#f2f5e9" fill-opacity="0.5" stroke="#606060" stroke-width="1.0"/>
           <path id="arrow"
             d="M 11.500037,31.436501 C 11.940474,20.09759 22.043105,11.32322 32.158766,21.979434 L 37.068811,17.246167 C 37.068811,17.246167 37.088388,32 37.088388,32 L 22.160133,31.978069 C 22.160133,31.978069 26.997745,27.140456 26.997745,27.140456 C 18.528582,18.264221 13.291696,25.230495 11.500037,31.436501 z"
             style="fill:#404040;"/>
          </a>
         </g>
        </svg>
</svg>
